<?xml version="1.0" encoding="UTF-8" standalone="no"?>
<!DOCTYPE svg PUBLIC "-//W3C//DTD SVG 1.1//EN"
 "http://www.w3.org/Graphics/SVG/1.1/DTD/svg11.dtd">
<!-- Generated by graphviz version 2.43.0 (0)
 -->
<!-- Title: /home/runner/work/cbmc&#45;documentation/cbmc&#45;documentation/src/analyses/variable&#45;sensitivity/abstract_object_statistics.h Pages: 1 -->
<svg width="209pt" height="173pt"
 viewBox="0.00 0.00 208.50 173.00" xmlns="http://www.w3.org/2000/svg" xmlns:xlink="http://www.w3.org/1999/xlink">
<g id="graph0" class="graph" transform="scale(1 1) rotate(0) translate(4 169)">
<title>/home/runner/work/cbmc&#45;documentation/cbmc&#45;documentation/src/analyses/variable&#45;sensitivity/abstract_object_statistics.h</title>
<!-- Node1 -->
<g id="node1" class="node">
<title>Node1</title>
<g id="a_node1"><a xlink:title=" ">
<polygon fill="#bfbfbf" stroke="black" points="0,-112.5 0,-164.5 200,-164.5 200,-112.5 0,-112.5"/>
<text text-anchor="start" x="8" y="-152.5" font-family="Helvetica,sans-Serif" font-size="10.00">/home/runner/work/cbmc</text>
<text text-anchor="start" x="8" y="-141.5" font-family="Helvetica,sans-Serif" font-size="10.00">&#45;documentation/cbmc&#45;documentation</text>
<text text-anchor="start" x="8" y="-130.5" font-family="Helvetica,sans-Serif" font-size="10.00">/src/analyses/variable&#45;sensitivity</text>
<text text-anchor="middle" x="100" y="-119.5" font-family="Helvetica,sans-Serif" font-size="10.00">/abstract_object_statistics.h</text>
</a>
</g>
</g>
<!-- Node2 -->
<g id="node2" class="node">
<title>Node2</title>
<g id="a_node2"><a xlink:title=" ">
<polygon fill="none" stroke="#bfbfbf" points="40.5,-0.5 40.5,-19.5 93.5,-19.5 93.5,-0.5 40.5,-0.5"/>
<text text-anchor="middle" x="67" y="-7.5" font-family="Helvetica,sans-Serif" font-size="10.00">cstddef</text>
</a>
</g>
</g>
<!-- Node1&#45;&gt;Node2 -->
<g id="edge1" class="edge">
<title>Node1&#45;&gt;Node2</title>
<path fill="none" stroke="midnightblue" d="M89.3,-112.44C84.94,-101.43 80.19,-88.24 77,-76 72.99,-60.62 70.38,-42.74 68.84,-29.64"/>
<polygon fill="midnightblue" stroke="midnightblue" points="72.3,-29.09 67.75,-19.53 65.34,-29.84 72.3,-29.09"/>
</g>
<!-- Node3 -->
<g id="node3" class="node">
<title>Node3</title>
<g id="a_node3"><a xlink:href="memory__units_8h.html" target="_top" xlink:title=" ">
<polygon fill="none" stroke="black" points="85.5,-56.5 85.5,-75.5 200.5,-75.5 200.5,-56.5 85.5,-56.5"/>
<text text-anchor="middle" x="143" y="-63.5" font-family="Helvetica,sans-Serif" font-size="10.00">util/memory_units.h</text>
</a>
</g>
</g>
<!-- Node1&#45;&gt;Node3 -->
<g id="edge2" class="edge">
<title>Node1&#45;&gt;Node3</title>
<path fill="none" stroke="midnightblue" d="M115.28,-112.45C120.96,-103.13 127.28,-92.77 132.45,-84.3"/>
<polygon fill="midnightblue" stroke="midnightblue" points="135.48,-86.06 137.7,-75.7 129.5,-82.41 135.48,-86.06"/>
</g>
<!-- Node3&#45;&gt;Node2 -->
<g id="edge3" class="edge">
<title>Node3&#45;&gt;Node2</title>
<path fill="none" stroke="midnightblue" d="M130.79,-56.32C119.22,-48.11 101.62,-35.6 87.84,-25.81"/>
<polygon fill="midnightblue" stroke="midnightblue" points="89.61,-22.77 79.43,-19.83 85.56,-28.48 89.61,-22.77"/>
</g>
<!-- Node4 -->
<g id="node4" class="node">
<title>Node4</title>
<g id="a_node4"><a xlink:title=" ">
<polygon fill="none" stroke="#bfbfbf" points="121,-0.5 121,-19.5 165,-19.5 165,-0.5 121,-0.5"/>
<text text-anchor="middle" x="143" y="-7.5" font-family="Helvetica,sans-Serif" font-size="10.00">string</text>
</a>
</g>
</g>
<!-- Node3&#45;&gt;Node4 -->
<g id="edge4" class="edge">
<title>Node3&#45;&gt;Node4</title>
<path fill="none" stroke="midnightblue" d="M143,-56.08C143,-49.01 143,-38.86 143,-29.99"/>
<polygon fill="midnightblue" stroke="midnightblue" points="146.5,-29.75 143,-19.75 139.5,-29.75 146.5,-29.75"/>
</g>
</g>
</svg>
