<?xml version="1.0" encoding="UTF-8" standalone="no"?>
<!DOCTYPE svg PUBLIC "-//W3C//DTD SVG 1.1//EN"
 "http://www.w3.org/Graphics/SVG/1.1/DTD/svg11.dtd">
<!-- Generated by graphviz version 2.43.0 (0)
 -->
<!-- Title: /home/runner/work/cbmc&#45;documentation/cbmc&#45;documentation/src/analyses/variable&#45;sensitivity/abstract_aggregate_object.h Pages: 1 -->
<svg width="1118pt" height="328pt"
 viewBox="0.00 0.00 1118.00 328.00" xmlns="http://www.w3.org/2000/svg" xmlns:xlink="http://www.w3.org/1999/xlink">
<g id="graph0" class="graph" transform="scale(1 1) rotate(0) translate(4 324)">
<title>/home/runner/work/cbmc&#45;documentation/cbmc&#45;documentation/src/analyses/variable&#45;sensitivity/abstract_aggregate_object.h</title>
<!-- Node1 -->
<g id="node1" class="node">
<title>Node1</title>
<g id="a_node1"><a xlink:title=" ">
<polygon fill="#bfbfbf" stroke="black" points="436,-267.5 436,-319.5 636,-319.5 636,-267.5 436,-267.5"/>
<text text-anchor="start" x="444" y="-307.5" font-family="Helvetica,sans-Serif" font-size="10.00">/home/runner/work/cbmc</text>
<text text-anchor="start" x="444" y="-296.5" font-family="Helvetica,sans-Serif" font-size="10.00">&#45;documentation/cbmc&#45;documentation</text>
<text text-anchor="start" x="444" y="-285.5" font-family="Helvetica,sans-Serif" font-size="10.00">/src/analyses/variable&#45;sensitivity</text>
<text text-anchor="middle" x="536" y="-274.5" font-family="Helvetica,sans-Serif" font-size="10.00">/abstract_aggregate_object.h</text>
</a>
</g>
</g>
<!-- Node2 -->
<g id="node2" class="node">
<title>Node2</title>
<g id="a_node2"><a xlink:href="full__struct__abstract__object_8h.html" target="_top" xlink:title=" ">
<polygon fill="none" stroke="black" points="654,-178.5 654,-230.5 854,-230.5 854,-178.5 654,-178.5"/>
<text text-anchor="start" x="662" y="-218.5" font-family="Helvetica,sans-Serif" font-size="10.00">/home/runner/work/cbmc</text>
<text text-anchor="start" x="662" y="-207.5" font-family="Helvetica,sans-Serif" font-size="10.00">&#45;documentation/cbmc&#45;documentation</text>
<text text-anchor="start" x="662" y="-196.5" font-family="Helvetica,sans-Serif" font-size="10.00">/src/analyses/variable&#45;sensitivity</text>
<text text-anchor="middle" x="754" y="-185.5" font-family="Helvetica,sans-Serif" font-size="10.00">/full_struct_abstract_object.h</text>
</a>
</g>
</g>
<!-- Node1&#45;&gt;Node2 -->
<g id="edge1" class="edge">
<title>Node1&#45;&gt;Node2</title>
<path fill="none" stroke="midnightblue" d="M608.12,-263.72C635.02,-252.98 665.32,-240.89 691.3,-230.52"/>
<polygon fill="midnightblue" stroke="midnightblue" points="606.75,-260.5 598.76,-267.45 609.35,-267 606.75,-260.5"/>
</g>
<!-- Node8 -->
<g id="node8" class="node">
<title>Node8</title>
<g id="a_node8"><a xlink:href="two__value__array__abstract__object_8h.html" target="_top" xlink:title=" ">
<polygon fill="none" stroke="black" points="0,-178.5 0,-230.5 200,-230.5 200,-178.5 0,-178.5"/>
<text text-anchor="start" x="8" y="-218.5" font-family="Helvetica,sans-Serif" font-size="10.00">/home/runner/work/cbmc</text>
<text text-anchor="start" x="8" y="-207.5" font-family="Helvetica,sans-Serif" font-size="10.00">&#45;documentation/cbmc&#45;documentation</text>
<text text-anchor="start" x="8" y="-196.5" font-family="Helvetica,sans-Serif" font-size="10.00">/src/analyses/variable&#45;sensitivity</text>
<text text-anchor="middle" x="100" y="-185.5" font-family="Helvetica,sans-Serif" font-size="10.00">/two_value_array_abstract_object.h</text>
</a>
</g>
</g>
<!-- Node1&#45;&gt;Node8 -->
<g id="edge7" class="edge">
<title>Node1&#45;&gt;Node8</title>
<path fill="none" stroke="midnightblue" d="M425.91,-273.04C362.37,-261.5 281.03,-246.19 209,-231 206.05,-230.38 203.06,-229.74 200.05,-229.08"/>
<polygon fill="midnightblue" stroke="midnightblue" points="425.49,-276.52 435.95,-274.86 426.74,-269.63 425.49,-276.52"/>
</g>
<!-- Node9 -->
<g id="node9" class="node">
<title>Node9</title>
<g id="a_node9"><a xlink:href="two__value__struct__abstract__object_8h.html" target="_top" xlink:title=" ">
<polygon fill="none" stroke="black" points="218,-178.5 218,-230.5 418,-230.5 418,-178.5 218,-178.5"/>
<text text-anchor="start" x="226" y="-218.5" font-family="Helvetica,sans-Serif" font-size="10.00">/home/runner/work/cbmc</text>
<text text-anchor="start" x="226" y="-207.5" font-family="Helvetica,sans-Serif" font-size="10.00">&#45;documentation/cbmc&#45;documentation</text>
<text text-anchor="start" x="226" y="-196.5" font-family="Helvetica,sans-Serif" font-size="10.00">/src/analyses/variable&#45;sensitivity</text>
<text text-anchor="middle" x="318" y="-185.5" font-family="Helvetica,sans-Serif" font-size="10.00">/two_value_struct_abstract_object.h</text>
</a>
</g>
</g>
<!-- Node1&#45;&gt;Node9 -->
<g id="edge9" class="edge">
<title>Node1&#45;&gt;Node9</title>
<path fill="none" stroke="midnightblue" d="M463.88,-263.72C436.98,-252.98 406.68,-240.89 380.7,-230.52"/>
<polygon fill="midnightblue" stroke="midnightblue" points="462.65,-267 473.24,-267.45 465.25,-260.5 462.65,-267"/>
</g>
<!-- Node10 -->
<g id="node10" class="node">
<title>Node10</title>
<g id="a_node10"><a xlink:href="two__value__union__abstract__object_8h.html" target="_top" xlink:title=" ">
<polygon fill="none" stroke="black" points="436,-178.5 436,-230.5 636,-230.5 636,-178.5 436,-178.5"/>
<text text-anchor="start" x="444" y="-218.5" font-family="Helvetica,sans-Serif" font-size="10.00">/home/runner/work/cbmc</text>
<text text-anchor="start" x="444" y="-207.5" font-family="Helvetica,sans-Serif" font-size="10.00">&#45;documentation/cbmc&#45;documentation</text>
<text text-anchor="start" x="444" y="-196.5" font-family="Helvetica,sans-Serif" font-size="10.00">/src/analyses/variable&#45;sensitivity</text>
<text text-anchor="middle" x="536" y="-185.5" font-family="Helvetica,sans-Serif" font-size="10.00">/two_value_union_abstract_object.h</text>
</a>
</g>
</g>
<!-- Node1&#45;&gt;Node10 -->
<g id="edge11" class="edge">
<title>Node1&#45;&gt;Node10</title>
<path fill="none" stroke="midnightblue" d="M536,-257.19C536,-248.28 536,-238.9 536,-230.61"/>
<polygon fill="midnightblue" stroke="midnightblue" points="532.5,-257.34 536,-267.34 539.5,-257.34 532.5,-257.34"/>
</g>
<!-- Node11 -->
<g id="node11" class="node">
<title>Node11</title>
<g id="a_node11"><a xlink:href="full__array__abstract__object_8h.html" target="_top" xlink:title=" ">
<polygon fill="none" stroke="black" points="872,-178.5 872,-230.5 1072,-230.5 1072,-178.5 872,-178.5"/>
<text text-anchor="start" x="880" y="-218.5" font-family="Helvetica,sans-Serif" font-size="10.00">/home/runner/work/cbmc</text>
<text text-anchor="start" x="880" y="-207.5" font-family="Helvetica,sans-Serif" font-size="10.00">&#45;documentation/cbmc&#45;documentation</text>
<text text-anchor="start" x="880" y="-196.5" font-family="Helvetica,sans-Serif" font-size="10.00">/src/analyses/variable&#45;sensitivity</text>
<text text-anchor="middle" x="972" y="-185.5" font-family="Helvetica,sans-Serif" font-size="10.00">/full_array_abstract_object.h</text>
</a>
</g>
</g>
<!-- Node1&#45;&gt;Node11 -->
<g id="edge13" class="edge">
<title>Node1&#45;&gt;Node11</title>
<path fill="none" stroke="midnightblue" d="M646.09,-273.04C709.63,-261.5 790.97,-246.19 863,-231 865.95,-230.38 868.94,-229.74 871.95,-229.08"/>
<polygon fill="midnightblue" stroke="midnightblue" points="645.26,-269.63 636.05,-274.86 646.51,-276.52 645.26,-269.63"/>
</g>
<!-- Node3 -->
<g id="node3" class="node">
<title>Node3</title>
<g id="a_node3"><a xlink:href="variable__sensitivity__object__factory_8h.html" target="_top" xlink:title=" ">
<polygon fill="none" stroke="black" points="436,-89.5 436,-141.5 636,-141.5 636,-89.5 436,-89.5"/>
<text text-anchor="start" x="444" y="-129.5" font-family="Helvetica,sans-Serif" font-size="10.00">/home/runner/work/cbmc</text>
<text text-anchor="start" x="444" y="-118.5" font-family="Helvetica,sans-Serif" font-size="10.00">&#45;documentation/cbmc&#45;documentation</text>
<text text-anchor="start" x="444" y="-107.5" font-family="Helvetica,sans-Serif" font-size="10.00">/src/analyses/variable&#45;sensitivity</text>
<text text-anchor="middle" x="536" y="-96.5" font-family="Helvetica,sans-Serif" font-size="10.00">/variable_sensitivity_object_factory.h</text>
</a>
</g>
</g>
<!-- Node2&#45;&gt;Node3 -->
<g id="edge2" class="edge">
<title>Node2&#45;&gt;Node3</title>
<path fill="none" stroke="midnightblue" d="M681.88,-174.72C654.98,-163.98 624.68,-151.89 598.7,-141.52"/>
<polygon fill="midnightblue" stroke="midnightblue" points="680.65,-178 691.24,-178.45 683.25,-171.5 680.65,-178"/>
</g>
<!-- Node7 -->
<g id="node7" class="node">
<title>Node7</title>
<g id="a_node7"><a xlink:href="full__struct__abstract__object_8cpp.html" target="_top" xlink:title=" ">
<polygon fill="none" stroke="black" points="654,-89.5 654,-141.5 854,-141.5 854,-89.5 654,-89.5"/>
<text text-anchor="start" x="662" y="-129.5" font-family="Helvetica,sans-Serif" font-size="10.00">/home/runner/work/cbmc</text>
<text text-anchor="start" x="662" y="-118.5" font-family="Helvetica,sans-Serif" font-size="10.00">&#45;documentation/cbmc&#45;documentation</text>
<text text-anchor="start" x="662" y="-107.5" font-family="Helvetica,sans-Serif" font-size="10.00">/src/analyses/variable&#45;sensitivity</text>
<text text-anchor="middle" x="754" y="-96.5" font-family="Helvetica,sans-Serif" font-size="10.00">/full_struct_abstract_object.cpp</text>
</a>
</g>
</g>
<!-- Node2&#45;&gt;Node7 -->
<g id="edge6" class="edge">
<title>Node2&#45;&gt;Node7</title>
<path fill="none" stroke="midnightblue" d="M754,-168.19C754,-159.28 754,-149.9 754,-141.61"/>
<polygon fill="midnightblue" stroke="midnightblue" points="750.5,-168.34 754,-178.34 757.5,-168.34 750.5,-168.34"/>
</g>
<!-- Node4 -->
<g id="node4" class="node">
<title>Node4</title>
<g id="a_node4"><a xlink:href="abstract__environment_8cpp.html" target="_top" xlink:title=" ">
<polygon fill="none" stroke="black" points="249,-0.5 249,-52.5 449,-52.5 449,-0.5 249,-0.5"/>
<text text-anchor="start" x="257" y="-40.5" font-family="Helvetica,sans-Serif" font-size="10.00">/home/runner/work/cbmc</text>
<text text-anchor="start" x="257" y="-29.5" font-family="Helvetica,sans-Serif" font-size="10.00">&#45;documentation/cbmc&#45;documentation</text>
<text text-anchor="start" x="257" y="-18.5" font-family="Helvetica,sans-Serif" font-size="10.00">/src/analyses/variable&#45;sensitivity</text>
<text text-anchor="middle" x="349" y="-7.5" font-family="Helvetica,sans-Serif" font-size="10.00">/abstract_environment.cpp</text>
</a>
</g>
</g>
<!-- Node3&#45;&gt;Node4 -->
<g id="edge3" class="edge">
<title>Node3&#45;&gt;Node4</title>
<path fill="none" stroke="midnightblue" d="M472.92,-85.15C450.15,-74.56 424.68,-62.71 402.78,-52.52"/>
<polygon fill="midnightblue" stroke="midnightblue" points="471.62,-88.41 482.16,-89.45 474.57,-82.06 471.62,-88.41"/>
</g>
<!-- Node5 -->
<g id="node5" class="node">
<title>Node5</title>
<g id="a_node5"><a xlink:href="variable__sensitivity__object__factory_8cpp.html" target="_top" xlink:title=" ">
<polygon fill="none" stroke="black" points="746.5,-0.5 746.5,-52.5 955.5,-52.5 955.5,-0.5 746.5,-0.5"/>
<text text-anchor="start" x="754.5" y="-40.5" font-family="Helvetica,sans-Serif" font-size="10.00">/home/runner/work/cbmc</text>
<text text-anchor="start" x="754.5" y="-29.5" font-family="Helvetica,sans-Serif" font-size="10.00">&#45;documentation/cbmc&#45;documentation</text>
<text text-anchor="start" x="754.5" y="-18.5" font-family="Helvetica,sans-Serif" font-size="10.00">/src/analyses/variable&#45;sensitivity</text>
<text text-anchor="middle" x="851" y="-7.5" font-family="Helvetica,sans-Serif" font-size="10.00">/variable_sensitivity_object_factory.cpp</text>
</a>
</g>
</g>
<!-- Node3&#45;&gt;Node5 -->
<g id="edge4" class="edge">
<title>Node3&#45;&gt;Node5</title>
<path fill="none" stroke="midnightblue" d="M636.41,-86.77C676.21,-75.78 721.63,-63.23 760.41,-52.52"/>
<polygon fill="midnightblue" stroke="midnightblue" points="635.4,-83.42 626.69,-89.45 637.26,-90.16 635.4,-83.42"/>
</g>
<!-- Node6 -->
<g id="node6" class="node">
<title>Node6</title>
<g id="a_node6"><a xlink:href="build__analyzer_8cpp.html" target="_top" xlink:title=" ">
<polygon fill="none" stroke="black" points="467,-6 467,-47 667,-47 667,-6 467,-6"/>
<text text-anchor="start" x="475" y="-35" font-family="Helvetica,sans-Serif" font-size="10.00">/home/runner/work/cbmc</text>
<text text-anchor="start" x="475" y="-24" font-family="Helvetica,sans-Serif" font-size="10.00">&#45;documentation/cbmc&#45;documentation</text>
<text text-anchor="middle" x="567" y="-13" font-family="Helvetica,sans-Serif" font-size="10.00">/src/goto&#45;analyzer/build_analyzer.cpp</text>
</a>
</g>
</g>
<!-- Node3&#45;&gt;Node6 -->
<g id="edge5" class="edge">
<title>Node3&#45;&gt;Node6</title>
<path fill="none" stroke="midnightblue" d="M548.35,-79.83C552.32,-68.69 556.58,-56.74 560.02,-47.08"/>
<polygon fill="midnightblue" stroke="midnightblue" points="545.03,-78.74 544.97,-89.34 551.62,-81.09 545.03,-78.74"/>
</g>
<!-- Node8&#45;&gt;Node3 -->
<g id="edge8" class="edge">
<title>Node8&#45;&gt;Node3</title>
<path fill="none" stroke="midnightblue" d="M209.99,-177.82C291.59,-160.74 373.64,-145.41 435.95,-134.14"/>
<polygon fill="midnightblue" stroke="midnightblue" points="209.11,-174.43 200.05,-179.92 210.55,-181.28 209.11,-174.43"/>
</g>
<!-- Node9&#45;&gt;Node3 -->
<g id="edge10" class="edge">
<title>Node9&#45;&gt;Node3</title>
<path fill="none" stroke="midnightblue" d="M390.12,-174.72C417.02,-163.98 447.32,-151.89 473.3,-141.52"/>
<polygon fill="midnightblue" stroke="midnightblue" points="388.75,-171.5 380.76,-178.45 391.35,-178 388.75,-171.5"/>
</g>
<!-- Node10&#45;&gt;Node3 -->
<g id="edge12" class="edge">
<title>Node10&#45;&gt;Node3</title>
<path fill="none" stroke="midnightblue" d="M536,-168.19C536,-159.28 536,-149.9 536,-141.61"/>
<polygon fill="midnightblue" stroke="midnightblue" points="532.5,-168.34 536,-178.34 539.5,-168.34 532.5,-168.34"/>
</g>
<!-- Node11&#45;&gt;Node5 -->
<g id="edge15" class="edge">
<title>Node11&#45;&gt;Node5</title>
<path fill="none" stroke="midnightblue" d="M929.2,-171.84C919.08,-162.97 908.93,-152.78 901,-142 880.69,-114.4 866.4,-77.25 858.44,-52.86"/>
<polygon fill="midnightblue" stroke="midnightblue" points="927,-174.57 936.9,-178.35 931.52,-169.22 927,-174.57"/>
</g>
<!-- Node12 -->
<g id="node12" class="node">
<title>Node12</title>
<g id="a_node12"><a xlink:href="full__array__abstract__object_8cpp.html" target="_top" xlink:title=" ">
<polygon fill="none" stroke="black" points="910,-89.5 910,-141.5 1110,-141.5 1110,-89.5 910,-89.5"/>
<text text-anchor="start" x="918" y="-129.5" font-family="Helvetica,sans-Serif" font-size="10.00">/home/runner/work/cbmc</text>
<text text-anchor="start" x="918" y="-118.5" font-family="Helvetica,sans-Serif" font-size="10.00">&#45;documentation/cbmc&#45;documentation</text>
<text text-anchor="start" x="918" y="-107.5" font-family="Helvetica,sans-Serif" font-size="10.00">/src/analyses/variable&#45;sensitivity</text>
<text text-anchor="middle" x="1010" y="-96.5" font-family="Helvetica,sans-Serif" font-size="10.00">/full_array_abstract_object.cpp</text>
</a>
</g>
</g>
<!-- Node11&#45;&gt;Node12 -->
<g id="edge14" class="edge">
<title>Node11&#45;&gt;Node12</title>
<path fill="none" stroke="midnightblue" d="M987.04,-169.06C991.05,-159.9 995.29,-150.17 999.03,-141.61"/>
<polygon fill="midnightblue" stroke="midnightblue" points="983.79,-167.77 982.99,-178.34 990.2,-170.57 983.79,-167.77"/>
</g>
</g>
</svg>
