<?xml version="1.0" encoding="UTF-8" standalone="no"?>
<!DOCTYPE svg PUBLIC "-//W3C//DTD SVG 1.1//EN"
 "http://www.w3.org/Graphics/SVG/1.1/DTD/svg11.dtd">
<!-- Generated by graphviz version 2.43.0 (0)
 -->
<!-- Title: /home/runner/work/cbmc&#45;documentation/cbmc&#45;documentation/src/analyses/variable&#45;sensitivity/abstract_object_statistics.h Pages: 1 -->
<svg width="2210pt" height="417pt"
 viewBox="0.00 0.00 2210.00 417.00" xmlns="http://www.w3.org/2000/svg" xmlns:xlink="http://www.w3.org/1999/xlink">
<g id="graph0" class="graph" transform="scale(1 1) rotate(0) translate(4 413)">
<title>/home/runner/work/cbmc&#45;documentation/cbmc&#45;documentation/src/analyses/variable&#45;sensitivity/abstract_object_statistics.h</title>
<!-- Node1 -->
<g id="node1" class="node">
<title>Node1</title>
<g id="a_node1"><a xlink:title=" ">
<polygon fill="#bfbfbf" stroke="black" points="1346,-356.5 1346,-408.5 1546,-408.5 1546,-356.5 1346,-356.5"/>
<text text-anchor="start" x="1354" y="-396.5" font-family="Helvetica,sans-Serif" font-size="10.00">/home/runner/work/cbmc</text>
<text text-anchor="start" x="1354" y="-385.5" font-family="Helvetica,sans-Serif" font-size="10.00">&#45;documentation/cbmc&#45;documentation</text>
<text text-anchor="start" x="1354" y="-374.5" font-family="Helvetica,sans-Serif" font-size="10.00">/src/analyses/variable&#45;sensitivity</text>
<text text-anchor="middle" x="1446" y="-363.5" font-family="Helvetica,sans-Serif" font-size="10.00">/abstract_object_statistics.h</text>
</a>
</g>
</g>
<!-- Node2 -->
<g id="node2" class="node">
<title>Node2</title>
<g id="a_node2"><a xlink:href="abstract__aggregate__object_8h.html" target="_top" xlink:title=" ">
<polygon fill="none" stroke="black" points="545,-267.5 545,-319.5 745,-319.5 745,-267.5 545,-267.5"/>
<text text-anchor="start" x="553" y="-307.5" font-family="Helvetica,sans-Serif" font-size="10.00">/home/runner/work/cbmc</text>
<text text-anchor="start" x="553" y="-296.5" font-family="Helvetica,sans-Serif" font-size="10.00">&#45;documentation/cbmc&#45;documentation</text>
<text text-anchor="start" x="553" y="-285.5" font-family="Helvetica,sans-Serif" font-size="10.00">/src/analyses/variable&#45;sensitivity</text>
<text text-anchor="middle" x="645" y="-274.5" font-family="Helvetica,sans-Serif" font-size="10.00">/abstract_aggregate_object.h</text>
</a>
</g>
</g>
<!-- Node1&#45;&gt;Node2 -->
<g id="edge1" class="edge">
<title>Node1&#45;&gt;Node2</title>
<path fill="none" stroke="midnightblue" d="M1335.66,-369.52C1179.29,-352.53 895.55,-321.71 745.02,-305.36"/>
<polygon fill="midnightblue" stroke="midnightblue" points="1335.45,-373.01 1345.77,-370.61 1336.2,-366.05 1335.45,-373.01"/>
</g>
<!-- Node5 -->
<g id="node5" class="node">
<title>Node5</title>
<g id="a_node5"><a xlink:href="abstract__environment_8cpp.html" target="_top" xlink:title=" ">
<polygon fill="none" stroke="black" points="859,-0.5 859,-52.5 1059,-52.5 1059,-0.5 859,-0.5"/>
<text text-anchor="start" x="867" y="-40.5" font-family="Helvetica,sans-Serif" font-size="10.00">/home/runner/work/cbmc</text>
<text text-anchor="start" x="867" y="-29.5" font-family="Helvetica,sans-Serif" font-size="10.00">&#45;documentation/cbmc&#45;documentation</text>
<text text-anchor="start" x="867" y="-18.5" font-family="Helvetica,sans-Serif" font-size="10.00">/src/analyses/variable&#45;sensitivity</text>
<text text-anchor="middle" x="959" y="-7.5" font-family="Helvetica,sans-Serif" font-size="10.00">/abstract_environment.cpp</text>
</a>
</g>
</g>
<!-- Node1&#45;&gt;Node5 -->
<g id="edge17" class="edge">
<title>Node1&#45;&gt;Node5</title>
<path fill="none" stroke="midnightblue" d="M1335.76,-373.27C1253.49,-364.88 1150.16,-348.89 1119,-320 1071.09,-275.58 1110.67,-236.21 1081,-178 1055.88,-128.7 1012.67,-80.62 984.99,-52.54"/>
<polygon fill="midnightblue" stroke="midnightblue" points="1335.64,-376.77 1345.94,-374.27 1336.33,-369.81 1335.64,-376.77"/>
</g>
<!-- Node14 -->
<g id="node14" class="node">
<title>Node14</title>
<g id="a_node14"><a xlink:href="abstract__pointer__object_8cpp.html" target="_top" xlink:title=" ">
<polygon fill="none" stroke="black" points="1128,-267.5 1128,-319.5 1328,-319.5 1328,-267.5 1128,-267.5"/>
<text text-anchor="start" x="1136" y="-307.5" font-family="Helvetica,sans-Serif" font-size="10.00">/home/runner/work/cbmc</text>
<text text-anchor="start" x="1136" y="-296.5" font-family="Helvetica,sans-Serif" font-size="10.00">&#45;documentation/cbmc&#45;documentation</text>
<text text-anchor="start" x="1136" y="-285.5" font-family="Helvetica,sans-Serif" font-size="10.00">/src/analyses/variable&#45;sensitivity</text>
<text text-anchor="middle" x="1228" y="-274.5" font-family="Helvetica,sans-Serif" font-size="10.00">/abstract_pointer_object.cpp</text>
</a>
</g>
</g>
<!-- Node1&#45;&gt;Node14 -->
<g id="edge18" class="edge">
<title>Node1&#45;&gt;Node14</title>
<path fill="none" stroke="midnightblue" d="M1373.88,-352.72C1346.98,-341.98 1316.68,-329.89 1290.7,-319.52"/>
<polygon fill="midnightblue" stroke="midnightblue" points="1372.65,-356 1383.24,-356.45 1375.25,-349.5 1372.65,-356"/>
</g>
<!-- Node15 -->
<g id="node15" class="node">
<title>Node15</title>
<g id="a_node15"><a xlink:href="constant__abstract__value_8cpp.html" target="_top" xlink:title=" ">
<polygon fill="none" stroke="black" points="1346,-267.5 1346,-319.5 1546,-319.5 1546,-267.5 1346,-267.5"/>
<text text-anchor="start" x="1354" y="-307.5" font-family="Helvetica,sans-Serif" font-size="10.00">/home/runner/work/cbmc</text>
<text text-anchor="start" x="1354" y="-296.5" font-family="Helvetica,sans-Serif" font-size="10.00">&#45;documentation/cbmc&#45;documentation</text>
<text text-anchor="start" x="1354" y="-285.5" font-family="Helvetica,sans-Serif" font-size="10.00">/src/analyses/variable&#45;sensitivity</text>
<text text-anchor="middle" x="1446" y="-274.5" font-family="Helvetica,sans-Serif" font-size="10.00">/constant_abstract_value.cpp</text>
</a>
</g>
</g>
<!-- Node1&#45;&gt;Node15 -->
<g id="edge19" class="edge">
<title>Node1&#45;&gt;Node15</title>
<path fill="none" stroke="midnightblue" d="M1446,-346.19C1446,-337.28 1446,-327.9 1446,-319.61"/>
<polygon fill="midnightblue" stroke="midnightblue" points="1442.5,-346.34 1446,-356.34 1449.5,-346.34 1442.5,-346.34"/>
</g>
<!-- Node16 -->
<g id="node16" class="node">
<title>Node16</title>
<g id="a_node16"><a xlink:href="constant__pointer__abstract__object_8cpp.html" target="_top" xlink:title=" ">
<polygon fill="none" stroke="black" points="1564,-267.5 1564,-319.5 1766,-319.5 1766,-267.5 1564,-267.5"/>
<text text-anchor="start" x="1572" y="-307.5" font-family="Helvetica,sans-Serif" font-size="10.00">/home/runner/work/cbmc</text>
<text text-anchor="start" x="1572" y="-296.5" font-family="Helvetica,sans-Serif" font-size="10.00">&#45;documentation/cbmc&#45;documentation</text>
<text text-anchor="start" x="1572" y="-285.5" font-family="Helvetica,sans-Serif" font-size="10.00">/src/analyses/variable&#45;sensitivity</text>
<text text-anchor="middle" x="1665" y="-274.5" font-family="Helvetica,sans-Serif" font-size="10.00">/constant_pointer_abstract_object.cpp</text>
</a>
</g>
</g>
<!-- Node1&#45;&gt;Node16 -->
<g id="edge20" class="edge">
<title>Node1&#45;&gt;Node16</title>
<path fill="none" stroke="midnightblue" d="M1518.45,-352.72C1545.48,-341.98 1575.91,-329.89 1602.02,-319.52"/>
<polygon fill="midnightblue" stroke="midnightblue" points="1517.05,-349.51 1509.05,-356.45 1519.64,-356.01 1517.05,-349.51"/>
</g>
<!-- Node17 -->
<g id="node17" class="node">
<title>Node17</title>
<g id="a_node17"><a xlink:href="context__abstract__object_8cpp.html" target="_top" xlink:title=" ">
<polygon fill="none" stroke="black" points="1784,-267.5 1784,-319.5 1984,-319.5 1984,-267.5 1784,-267.5"/>
<text text-anchor="start" x="1792" y="-307.5" font-family="Helvetica,sans-Serif" font-size="10.00">/home/runner/work/cbmc</text>
<text text-anchor="start" x="1792" y="-296.5" font-family="Helvetica,sans-Serif" font-size="10.00">&#45;documentation/cbmc&#45;documentation</text>
<text text-anchor="start" x="1792" y="-285.5" font-family="Helvetica,sans-Serif" font-size="10.00">/src/analyses/variable&#45;sensitivity</text>
<text text-anchor="middle" x="1884" y="-274.5" font-family="Helvetica,sans-Serif" font-size="10.00">/context_abstract_object.cpp</text>
</a>
</g>
</g>
<!-- Node1&#45;&gt;Node17 -->
<g id="edge21" class="edge">
<title>Node1&#45;&gt;Node17</title>
<path fill="none" stroke="midnightblue" d="M1556.41,-362.14C1620.39,-350.6 1702.4,-335.27 1775,-320 1777.95,-319.38 1780.94,-318.74 1783.96,-318.09"/>
<polygon fill="midnightblue" stroke="midnightblue" points="1555.52,-358.75 1546.3,-363.96 1556.76,-365.63 1555.52,-358.75"/>
</g>
<!-- Node18 -->
<g id="node18" class="node">
<title>Node18</title>
<g id="a_node18"><a xlink:href="interval__abstract__value_8cpp.html" target="_top" xlink:title=" ">
<polygon fill="none" stroke="black" points="2002,-267.5 2002,-319.5 2202,-319.5 2202,-267.5 2002,-267.5"/>
<text text-anchor="start" x="2010" y="-307.5" font-family="Helvetica,sans-Serif" font-size="10.00">/home/runner/work/cbmc</text>
<text text-anchor="start" x="2010" y="-296.5" font-family="Helvetica,sans-Serif" font-size="10.00">&#45;documentation/cbmc&#45;documentation</text>
<text text-anchor="start" x="2010" y="-285.5" font-family="Helvetica,sans-Serif" font-size="10.00">/src/analyses/variable&#45;sensitivity</text>
<text text-anchor="middle" x="2102" y="-274.5" font-family="Helvetica,sans-Serif" font-size="10.00">/interval_abstract_value.cpp</text>
</a>
</g>
</g>
<!-- Node1&#45;&gt;Node18 -->
<g id="edge22" class="edge">
<title>Node1&#45;&gt;Node18</title>
<path fill="none" stroke="midnightblue" d="M1556.25,-372.95C1667.11,-363.45 1842.66,-345.94 1993,-320 1995.87,-319.5 1998.78,-318.98 2001.72,-318.43"/>
<polygon fill="midnightblue" stroke="midnightblue" points="1555.73,-369.48 1546.06,-373.81 1556.32,-376.45 1555.73,-369.48"/>
</g>
<!-- Node3 -->
<g id="node3" class="node">
<title>Node3</title>
<g id="a_node3"><a xlink:href="full__struct__abstract__object_8h.html" target="_top" xlink:title=" ">
<polygon fill="none" stroke="black" points="218,-178.5 218,-230.5 418,-230.5 418,-178.5 218,-178.5"/>
<text text-anchor="start" x="226" y="-218.5" font-family="Helvetica,sans-Serif" font-size="10.00">/home/runner/work/cbmc</text>
<text text-anchor="start" x="226" y="-207.5" font-family="Helvetica,sans-Serif" font-size="10.00">&#45;documentation/cbmc&#45;documentation</text>
<text text-anchor="start" x="226" y="-196.5" font-family="Helvetica,sans-Serif" font-size="10.00">/src/analyses/variable&#45;sensitivity</text>
<text text-anchor="middle" x="318" y="-185.5" font-family="Helvetica,sans-Serif" font-size="10.00">/full_struct_abstract_object.h</text>
</a>
</g>
</g>
<!-- Node2&#45;&gt;Node3 -->
<g id="edge2" class="edge">
<title>Node2&#45;&gt;Node3</title>
<path fill="none" stroke="midnightblue" d="M541.03,-264.84C499.65,-253.83 452.38,-241.25 412.04,-230.52"/>
<polygon fill="midnightblue" stroke="midnightblue" points="540.29,-268.26 550.86,-267.45 542.09,-261.5 540.29,-268.26"/>
</g>
<!-- Node9 -->
<g id="node9" class="node">
<title>Node9</title>
<g id="a_node9"><a xlink:href="two__value__array__abstract__object_8h.html" target="_top" xlink:title=" ">
<polygon fill="none" stroke="black" points="872,-178.5 872,-230.5 1072,-230.5 1072,-178.5 872,-178.5"/>
<text text-anchor="start" x="880" y="-218.5" font-family="Helvetica,sans-Serif" font-size="10.00">/home/runner/work/cbmc</text>
<text text-anchor="start" x="880" y="-207.5" font-family="Helvetica,sans-Serif" font-size="10.00">&#45;documentation/cbmc&#45;documentation</text>
<text text-anchor="start" x="880" y="-196.5" font-family="Helvetica,sans-Serif" font-size="10.00">/src/analyses/variable&#45;sensitivity</text>
<text text-anchor="middle" x="972" y="-185.5" font-family="Helvetica,sans-Serif" font-size="10.00">/two_value_array_abstract_object.h</text>
</a>
</g>
</g>
<!-- Node2&#45;&gt;Node9 -->
<g id="edge8" class="edge">
<title>Node2&#45;&gt;Node9</title>
<path fill="none" stroke="midnightblue" d="M748.97,-264.84C790.35,-253.83 837.62,-241.25 877.96,-230.52"/>
<polygon fill="midnightblue" stroke="midnightblue" points="747.91,-261.5 739.14,-267.45 749.71,-268.26 747.91,-261.5"/>
</g>
<!-- Node10 -->
<g id="node10" class="node">
<title>Node10</title>
<g id="a_node10"><a xlink:href="two__value__struct__abstract__object_8h.html" target="_top" xlink:title=" ">
<polygon fill="none" stroke="black" points="436,-178.5 436,-230.5 636,-230.5 636,-178.5 436,-178.5"/>
<text text-anchor="start" x="444" y="-218.5" font-family="Helvetica,sans-Serif" font-size="10.00">/home/runner/work/cbmc</text>
<text text-anchor="start" x="444" y="-207.5" font-family="Helvetica,sans-Serif" font-size="10.00">&#45;documentation/cbmc&#45;documentation</text>
<text text-anchor="start" x="444" y="-196.5" font-family="Helvetica,sans-Serif" font-size="10.00">/src/analyses/variable&#45;sensitivity</text>
<text text-anchor="middle" x="536" y="-185.5" font-family="Helvetica,sans-Serif" font-size="10.00">/two_value_struct_abstract_object.h</text>
</a>
</g>
</g>
<!-- Node2&#45;&gt;Node10 -->
<g id="edge10" class="edge">
<title>Node2&#45;&gt;Node10</title>
<path fill="none" stroke="midnightblue" d="M605.45,-260.93C592.95,-250.96 579.31,-240.07 567.46,-230.61"/>
<polygon fill="midnightblue" stroke="midnightblue" points="603.47,-263.83 613.47,-267.34 607.84,-258.36 603.47,-263.83"/>
</g>
<!-- Node11 -->
<g id="node11" class="node">
<title>Node11</title>
<g id="a_node11"><a xlink:href="two__value__union__abstract__object_8h.html" target="_top" xlink:title=" ">
<polygon fill="none" stroke="black" points="654,-178.5 654,-230.5 854,-230.5 854,-178.5 654,-178.5"/>
<text text-anchor="start" x="662" y="-218.5" font-family="Helvetica,sans-Serif" font-size="10.00">/home/runner/work/cbmc</text>
<text text-anchor="start" x="662" y="-207.5" font-family="Helvetica,sans-Serif" font-size="10.00">&#45;documentation/cbmc&#45;documentation</text>
<text text-anchor="start" x="662" y="-196.5" font-family="Helvetica,sans-Serif" font-size="10.00">/src/analyses/variable&#45;sensitivity</text>
<text text-anchor="middle" x="754" y="-185.5" font-family="Helvetica,sans-Serif" font-size="10.00">/two_value_union_abstract_object.h</text>
</a>
</g>
</g>
<!-- Node2&#45;&gt;Node11 -->
<g id="edge12" class="edge">
<title>Node2&#45;&gt;Node11</title>
<path fill="none" stroke="midnightblue" d="M684.55,-260.93C697.05,-250.96 710.69,-240.07 722.54,-230.61"/>
<polygon fill="midnightblue" stroke="midnightblue" points="682.16,-258.36 676.53,-267.34 686.53,-263.83 682.16,-258.36"/>
</g>
<!-- Node12 -->
<g id="node12" class="node">
<title>Node12</title>
<g id="a_node12"><a xlink:href="full__array__abstract__object_8h.html" target="_top" xlink:title=" ">
<polygon fill="none" stroke="black" points="0,-178.5 0,-230.5 200,-230.5 200,-178.5 0,-178.5"/>
<text text-anchor="start" x="8" y="-218.5" font-family="Helvetica,sans-Serif" font-size="10.00">/home/runner/work/cbmc</text>
<text text-anchor="start" x="8" y="-207.5" font-family="Helvetica,sans-Serif" font-size="10.00">&#45;documentation/cbmc&#45;documentation</text>
<text text-anchor="start" x="8" y="-196.5" font-family="Helvetica,sans-Serif" font-size="10.00">/src/analyses/variable&#45;sensitivity</text>
<text text-anchor="middle" x="100" y="-185.5" font-family="Helvetica,sans-Serif" font-size="10.00">/full_array_abstract_object.h</text>
</a>
</g>
</g>
<!-- Node2&#45;&gt;Node12 -->
<g id="edge14" class="edge">
<title>Node2&#45;&gt;Node12</title>
<path fill="none" stroke="midnightblue" d="M534.53,-279.7C446.13,-268.78 319.15,-251.61 209,-231 206.04,-230.45 203.04,-229.87 200.01,-229.26"/>
<polygon fill="midnightblue" stroke="midnightblue" points="534.23,-283.19 544.58,-280.93 535.08,-276.24 534.23,-283.19"/>
</g>
<!-- Node4 -->
<g id="node4" class="node">
<title>Node4</title>
<g id="a_node4"><a xlink:href="variable__sensitivity__object__factory_8h.html" target="_top" xlink:title=" ">
<polygon fill="none" stroke="black" points="577,-89.5 577,-141.5 777,-141.5 777,-89.5 577,-89.5"/>
<text text-anchor="start" x="585" y="-129.5" font-family="Helvetica,sans-Serif" font-size="10.00">/home/runner/work/cbmc</text>
<text text-anchor="start" x="585" y="-118.5" font-family="Helvetica,sans-Serif" font-size="10.00">&#45;documentation/cbmc&#45;documentation</text>
<text text-anchor="start" x="585" y="-107.5" font-family="Helvetica,sans-Serif" font-size="10.00">/src/analyses/variable&#45;sensitivity</text>
<text text-anchor="middle" x="677" y="-96.5" font-family="Helvetica,sans-Serif" font-size="10.00">/variable_sensitivity_object_factory.h</text>
</a>
</g>
</g>
<!-- Node3&#45;&gt;Node4 -->
<g id="edge3" class="edge">
<title>Node3&#45;&gt;Node4</title>
<path fill="none" stroke="midnightblue" d="M428.01,-176.84C475.48,-165.34 530.61,-151.98 576.91,-140.76"/>
<polygon fill="midnightblue" stroke="midnightblue" points="426.9,-173.51 418,-179.27 428.54,-180.31 426.9,-173.51"/>
</g>
<!-- Node8 -->
<g id="node8" class="node">
<title>Node8</title>
<g id="a_node8"><a xlink:href="full__struct__abstract__object_8cpp.html" target="_top" xlink:title=" ">
<polygon fill="none" stroke="black" points="282,-89.5 282,-141.5 482,-141.5 482,-89.5 282,-89.5"/>
<text text-anchor="start" x="290" y="-129.5" font-family="Helvetica,sans-Serif" font-size="10.00">/home/runner/work/cbmc</text>
<text text-anchor="start" x="290" y="-118.5" font-family="Helvetica,sans-Serif" font-size="10.00">&#45;documentation/cbmc&#45;documentation</text>
<text text-anchor="start" x="290" y="-107.5" font-family="Helvetica,sans-Serif" font-size="10.00">/src/analyses/variable&#45;sensitivity</text>
<text text-anchor="middle" x="382" y="-96.5" font-family="Helvetica,sans-Serif" font-size="10.00">/full_struct_abstract_object.cpp</text>
</a>
</g>
</g>
<!-- Node3&#45;&gt;Node8 -->
<g id="edge7" class="edge">
<title>Node3&#45;&gt;Node8</title>
<path fill="none" stroke="midnightblue" d="M342.49,-170.22C349.47,-160.72 356.97,-150.53 363.53,-141.61"/>
<polygon fill="midnightblue" stroke="midnightblue" points="339.62,-168.21 336.51,-178.34 345.26,-172.35 339.62,-168.21"/>
</g>
<!-- Node4&#45;&gt;Node5 -->
<g id="edge4" class="edge">
<title>Node4&#45;&gt;Node5</title>
<path fill="none" stroke="midnightblue" d="M768.02,-86.42C803.38,-75.51 843.55,-63.12 877.9,-52.52"/>
<polygon fill="midnightblue" stroke="midnightblue" points="766.71,-83.16 758.19,-89.45 768.78,-89.85 766.71,-83.16"/>
</g>
<!-- Node6 -->
<g id="node6" class="node">
<title>Node6</title>
<g id="a_node6"><a xlink:href="variable__sensitivity__object__factory_8cpp.html" target="_top" xlink:title=" ">
<polygon fill="none" stroke="black" points="102.5,-0.5 102.5,-52.5 311.5,-52.5 311.5,-0.5 102.5,-0.5"/>
<text text-anchor="start" x="110.5" y="-40.5" font-family="Helvetica,sans-Serif" font-size="10.00">/home/runner/work/cbmc</text>
<text text-anchor="start" x="110.5" y="-29.5" font-family="Helvetica,sans-Serif" font-size="10.00">&#45;documentation/cbmc&#45;documentation</text>
<text text-anchor="start" x="110.5" y="-18.5" font-family="Helvetica,sans-Serif" font-size="10.00">/src/analyses/variable&#45;sensitivity</text>
<text text-anchor="middle" x="207" y="-7.5" font-family="Helvetica,sans-Serif" font-size="10.00">/variable_sensitivity_object_factory.cpp</text>
</a>
</g>
</g>
<!-- Node4&#45;&gt;Node6 -->
<g id="edge5" class="edge">
<title>Node4&#45;&gt;Node6</title>
<path fill="none" stroke="midnightblue" d="M566.53,-94.05C489.47,-79.79 387.3,-60.87 311.57,-46.86"/>
<polygon fill="midnightblue" stroke="midnightblue" points="566.28,-97.56 576.75,-95.94 567.55,-90.68 566.28,-97.56"/>
</g>
<!-- Node7 -->
<g id="node7" class="node">
<title>Node7</title>
<g id="a_node7"><a xlink:href="build__analyzer_8cpp.html" target="_top" xlink:title=" ">
<polygon fill="none" stroke="black" points="577,-6 577,-47 777,-47 777,-6 577,-6"/>
<text text-anchor="start" x="585" y="-35" font-family="Helvetica,sans-Serif" font-size="10.00">/home/runner/work/cbmc</text>
<text text-anchor="start" x="585" y="-24" font-family="Helvetica,sans-Serif" font-size="10.00">&#45;documentation/cbmc&#45;documentation</text>
<text text-anchor="middle" x="677" y="-13" font-family="Helvetica,sans-Serif" font-size="10.00">/src/goto&#45;analyzer/build_analyzer.cpp</text>
</a>
</g>
</g>
<!-- Node4&#45;&gt;Node7 -->
<g id="edge6" class="edge">
<title>Node4&#45;&gt;Node7</title>
<path fill="none" stroke="midnightblue" d="M677,-79.16C677,-68.21 677,-56.55 677,-47.08"/>
<polygon fill="midnightblue" stroke="midnightblue" points="673.5,-79.34 677,-89.34 680.5,-79.34 673.5,-79.34"/>
</g>
<!-- Node9&#45;&gt;Node4 -->
<g id="edge9" class="edge">
<title>Node9&#45;&gt;Node4</title>
<path fill="none" stroke="midnightblue" d="M877.25,-175.56C840.15,-164.62 797.93,-152.16 761.84,-141.52"/>
<polygon fill="midnightblue" stroke="midnightblue" points="876.49,-178.98 887.07,-178.45 878.47,-172.27 876.49,-178.98"/>
</g>
<!-- Node10&#45;&gt;Node4 -->
<g id="edge11" class="edge">
<title>Node10&#45;&gt;Node4</title>
<path fill="none" stroke="midnightblue" d="M585.32,-173.07C601.98,-162.79 620.39,-151.43 636.31,-141.61"/>
<polygon fill="midnightblue" stroke="midnightblue" points="583.46,-170.11 576.78,-178.34 587.13,-176.06 583.46,-170.11"/>
</g>
<!-- Node11&#45;&gt;Node4 -->
<g id="edge13" class="edge">
<title>Node11&#45;&gt;Node4</title>
<path fill="none" stroke="midnightblue" d="M725.05,-170.79C716.5,-161.13 707.28,-150.71 699.22,-141.61"/>
<polygon fill="midnightblue" stroke="midnightblue" points="722.48,-173.17 731.73,-178.34 727.72,-168.53 722.48,-173.17"/>
</g>
<!-- Node12&#45;&gt;Node6 -->
<g id="edge16" class="edge">
<title>Node12&#45;&gt;Node6</title>
<path fill="none" stroke="midnightblue" d="M70.85,-170.23C53.6,-146.32 38.13,-114.03 55,-89 66.54,-71.89 83.73,-59.53 102.45,-50.62"/>
<polygon fill="midnightblue" stroke="midnightblue" points="68.14,-172.45 76.97,-178.31 73.72,-168.23 68.14,-172.45"/>
</g>
<!-- Node13 -->
<g id="node13" class="node">
<title>Node13</title>
<g id="a_node13"><a xlink:href="full__array__abstract__object_8cpp.html" target="_top" xlink:title=" ">
<polygon fill="none" stroke="black" points="64,-89.5 64,-141.5 264,-141.5 264,-89.5 64,-89.5"/>
<text text-anchor="start" x="72" y="-129.5" font-family="Helvetica,sans-Serif" font-size="10.00">/home/runner/work/cbmc</text>
<text text-anchor="start" x="72" y="-118.5" font-family="Helvetica,sans-Serif" font-size="10.00">&#45;documentation/cbmc&#45;documentation</text>
<text text-anchor="start" x="72" y="-107.5" font-family="Helvetica,sans-Serif" font-size="10.00">/src/analyses/variable&#45;sensitivity</text>
<text text-anchor="middle" x="164" y="-96.5" font-family="Helvetica,sans-Serif" font-size="10.00">/full_array_abstract_object.cpp</text>
</a>
</g>
</g>
<!-- Node12&#45;&gt;Node13 -->
<g id="edge15" class="edge">
<title>Node12&#45;&gt;Node13</title>
<path fill="none" stroke="midnightblue" d="M124.49,-170.22C131.47,-160.72 138.97,-150.53 145.53,-141.61"/>
<polygon fill="midnightblue" stroke="midnightblue" points="121.62,-168.21 118.51,-178.34 127.26,-172.35 121.62,-168.21"/>
</g>
</g>
</svg>
