<?xml version="1.0" encoding="UTF-8" standalone="no"?>
<!DOCTYPE svg PUBLIC "-//W3C//DTD SVG 1.1//EN"
 "http://www.w3.org/Graphics/SVG/1.1/DTD/svg11.dtd">
<!-- Generated by graphviz version 2.43.0 (0)
 -->
<!-- Title: /home/runner/work/cbmc&#45;documentation/cbmc&#45;documentation/src/analyses/variable&#45;sensitivity/abstract_environment.h Pages: 1 -->
<svg width="3458pt" height="417pt"
 viewBox="0.00 0.00 3458.00 417.00" xmlns="http://www.w3.org/2000/svg" xmlns:xlink="http://www.w3.org/1999/xlink">
<g id="graph0" class="graph" transform="scale(1 1) rotate(0) translate(4 413)">
<title>/home/runner/work/cbmc&#45;documentation/cbmc&#45;documentation/src/analyses/variable&#45;sensitivity/abstract_environment.h</title>
<!-- Node1 -->
<g id="node1" class="node">
<title>Node1</title>
<g id="a_node1"><a xlink:title=" ">
<polygon fill="#bfbfbf" stroke="black" points="1704,-356.5 1704,-408.5 1904,-408.5 1904,-356.5 1704,-356.5"/>
<text text-anchor="start" x="1712" y="-396.5" font-family="Helvetica,sans-Serif" font-size="10.00">/home/runner/work/cbmc</text>
<text text-anchor="start" x="1712" y="-385.5" font-family="Helvetica,sans-Serif" font-size="10.00">&#45;documentation/cbmc&#45;documentation</text>
<text text-anchor="start" x="1712" y="-374.5" font-family="Helvetica,sans-Serif" font-size="10.00">/src/analyses/variable&#45;sensitivity</text>
<text text-anchor="middle" x="1804" y="-363.5" font-family="Helvetica,sans-Serif" font-size="10.00">/abstract_environment.h</text>
</a>
</g>
</g>
<!-- Node2 -->
<g id="node2" class="node">
<title>Node2</title>
<g id="a_node2"><a xlink:href="abstract__aggregate__object_8h.html" target="_top" xlink:title=" ">
<polygon fill="none" stroke="black" points="609,-267.5 609,-319.5 809,-319.5 809,-267.5 609,-267.5"/>
<text text-anchor="start" x="617" y="-307.5" font-family="Helvetica,sans-Serif" font-size="10.00">/home/runner/work/cbmc</text>
<text text-anchor="start" x="617" y="-296.5" font-family="Helvetica,sans-Serif" font-size="10.00">&#45;documentation/cbmc&#45;documentation</text>
<text text-anchor="start" x="617" y="-285.5" font-family="Helvetica,sans-Serif" font-size="10.00">/src/analyses/variable&#45;sensitivity</text>
<text text-anchor="middle" x="709" y="-274.5" font-family="Helvetica,sans-Serif" font-size="10.00">/abstract_aggregate_object.h</text>
</a>
</g>
</g>
<!-- Node1&#45;&gt;Node2 -->
<g id="edge1" class="edge">
<title>Node1&#45;&gt;Node2</title>
<path fill="none" stroke="midnightblue" d="M1693.65,-372.73C1480.31,-355.78 1014.3,-318.76 809.24,-302.46"/>
<polygon fill="midnightblue" stroke="midnightblue" points="1693.68,-376.25 1703.92,-373.55 1694.23,-369.27 1693.68,-376.25"/>
</g>
<!-- Node4 -->
<g id="node4" class="node">
<title>Node4</title>
<g id="a_node4"><a xlink:href="full__array__abstract__object_8cpp.html" target="_top" xlink:title=" ">
<polygon fill="none" stroke="black" points="0,-89.5 0,-141.5 200,-141.5 200,-89.5 0,-89.5"/>
<text text-anchor="start" x="8" y="-129.5" font-family="Helvetica,sans-Serif" font-size="10.00">/home/runner/work/cbmc</text>
<text text-anchor="start" x="8" y="-118.5" font-family="Helvetica,sans-Serif" font-size="10.00">&#45;documentation/cbmc&#45;documentation</text>
<text text-anchor="start" x="8" y="-107.5" font-family="Helvetica,sans-Serif" font-size="10.00">/src/analyses/variable&#45;sensitivity</text>
<text text-anchor="middle" x="100" y="-96.5" font-family="Helvetica,sans-Serif" font-size="10.00">/full_array_abstract_object.cpp</text>
</a>
</g>
</g>
<!-- Node1&#45;&gt;Node4 -->
<g id="edge22" class="edge">
<title>Node1&#45;&gt;Node4</title>
<path fill="none" stroke="midnightblue" d="M1693.79,-380.78C1326.49,-377.21 161.27,-356.03 55,-231 32.87,-204.96 55.98,-166.74 76.42,-141.74"/>
<polygon fill="midnightblue" stroke="midnightblue" points="1693.86,-384.28 1703.89,-380.87 1693.93,-377.28 1693.86,-384.28"/>
</g>
<!-- Node7 -->
<g id="node7" class="node">
<title>Node7</title>
<g id="a_node7"><a xlink:href="full__struct__abstract__object_8cpp.html" target="_top" xlink:title=" ">
<polygon fill="none" stroke="black" points="955,-89.5 955,-141.5 1155,-141.5 1155,-89.5 955,-89.5"/>
<text text-anchor="start" x="963" y="-129.5" font-family="Helvetica,sans-Serif" font-size="10.00">/home/runner/work/cbmc</text>
<text text-anchor="start" x="963" y="-118.5" font-family="Helvetica,sans-Serif" font-size="10.00">&#45;documentation/cbmc&#45;documentation</text>
<text text-anchor="start" x="963" y="-107.5" font-family="Helvetica,sans-Serif" font-size="10.00">/src/analyses/variable&#45;sensitivity</text>
<text text-anchor="middle" x="1055" y="-96.5" font-family="Helvetica,sans-Serif" font-size="10.00">/full_struct_abstract_object.cpp</text>
</a>
</g>
</g>
<!-- Node1&#45;&gt;Node7 -->
<g id="edge23" class="edge">
<title>Node1&#45;&gt;Node7</title>
<path fill="none" stroke="midnightblue" d="M1693.69,-377.07C1526.98,-369.39 1226.14,-351.36 1188,-320 1137.06,-278.12 1183.99,-231.18 1145,-178 1134.37,-163.5 1119.23,-151.29 1104.4,-141.67"/>
<polygon fill="midnightblue" stroke="midnightblue" points="1693.83,-380.58 1703.98,-377.53 1694.15,-373.58 1693.83,-380.58"/>
</g>
<!-- Node9 -->
<g id="node9" class="node">
<title>Node9</title>
<g id="a_node9"><a xlink:href="abstract__environment_8cpp.html" target="_top" xlink:title=" ">
<polygon fill="none" stroke="black" points="772,-0.5 772,-52.5 972,-52.5 972,-0.5 772,-0.5"/>
<text text-anchor="start" x="780" y="-40.5" font-family="Helvetica,sans-Serif" font-size="10.00">/home/runner/work/cbmc</text>
<text text-anchor="start" x="780" y="-29.5" font-family="Helvetica,sans-Serif" font-size="10.00">&#45;documentation/cbmc&#45;documentation</text>
<text text-anchor="start" x="780" y="-18.5" font-family="Helvetica,sans-Serif" font-size="10.00">/src/analyses/variable&#45;sensitivity</text>
<text text-anchor="middle" x="872" y="-7.5" font-family="Helvetica,sans-Serif" font-size="10.00">/abstract_environment.cpp</text>
</a>
</g>
</g>
<!-- Node1&#45;&gt;Node9 -->
<g id="edge17" class="edge">
<title>Node1&#45;&gt;Node9</title>
<path fill="none" stroke="midnightblue" d="M1693.47,-375.71C1540.04,-366.71 1277.37,-347.52 1243,-320 1158.31,-252.18 1245.26,-160.91 1164,-89 1149.38,-76.06 1050.72,-57.03 972.07,-43.58"/>
<polygon fill="midnightblue" stroke="midnightblue" points="1693.69,-379.22 1703.87,-376.31 1694.09,-372.24 1693.69,-379.22"/>
</g>
<!-- Node14 -->
<g id="node14" class="node">
<title>Node14</title>
<g id="a_node14"><a xlink:href="abstract__object_8cpp.html" target="_top" xlink:title=" ">
<polygon fill="none" stroke="black" points="1268,-267.5 1268,-319.5 1468,-319.5 1468,-267.5 1268,-267.5"/>
<text text-anchor="start" x="1276" y="-307.5" font-family="Helvetica,sans-Serif" font-size="10.00">/home/runner/work/cbmc</text>
<text text-anchor="start" x="1276" y="-296.5" font-family="Helvetica,sans-Serif" font-size="10.00">&#45;documentation/cbmc&#45;documentation</text>
<text text-anchor="start" x="1276" y="-285.5" font-family="Helvetica,sans-Serif" font-size="10.00">/src/analyses/variable&#45;sensitivity</text>
<text text-anchor="middle" x="1368" y="-274.5" font-family="Helvetica,sans-Serif" font-size="10.00">/abstract_object.cpp</text>
</a>
</g>
</g>
<!-- Node1&#45;&gt;Node14 -->
<g id="edge18" class="edge">
<title>Node1&#45;&gt;Node14</title>
<path fill="none" stroke="midnightblue" d="M1693.91,-362.04C1630.37,-350.5 1549.03,-335.19 1477,-320 1474.05,-319.38 1471.06,-318.74 1468.05,-318.08"/>
<polygon fill="midnightblue" stroke="midnightblue" points="1693.49,-365.52 1703.95,-363.86 1694.74,-358.63 1693.49,-365.52"/>
</g>
<!-- Node15 -->
<g id="node15" class="node">
<title>Node15</title>
<g id="a_node15"><a xlink:href="abstract__pointer__object_8cpp.html" target="_top" xlink:title=" ">
<polygon fill="none" stroke="black" points="1486,-267.5 1486,-319.5 1686,-319.5 1686,-267.5 1486,-267.5"/>
<text text-anchor="start" x="1494" y="-307.5" font-family="Helvetica,sans-Serif" font-size="10.00">/home/runner/work/cbmc</text>
<text text-anchor="start" x="1494" y="-296.5" font-family="Helvetica,sans-Serif" font-size="10.00">&#45;documentation/cbmc&#45;documentation</text>
<text text-anchor="start" x="1494" y="-285.5" font-family="Helvetica,sans-Serif" font-size="10.00">/src/analyses/variable&#45;sensitivity</text>
<text text-anchor="middle" x="1586" y="-274.5" font-family="Helvetica,sans-Serif" font-size="10.00">/abstract_pointer_object.cpp</text>
</a>
</g>
</g>
<!-- Node1&#45;&gt;Node15 -->
<g id="edge19" class="edge">
<title>Node1&#45;&gt;Node15</title>
<path fill="none" stroke="midnightblue" d="M1731.88,-352.72C1704.98,-341.98 1674.68,-329.89 1648.7,-319.52"/>
<polygon fill="midnightblue" stroke="midnightblue" points="1730.65,-356 1741.24,-356.45 1733.25,-349.5 1730.65,-356"/>
</g>
<!-- Node16 -->
<g id="node16" class="node">
<title>Node16</title>
<g id="a_node16"><a xlink:href="abstract__value__object_8cpp.html" target="_top" xlink:title=" ">
<polygon fill="none" stroke="black" points="1704,-267.5 1704,-319.5 1904,-319.5 1904,-267.5 1704,-267.5"/>
<text text-anchor="start" x="1712" y="-307.5" font-family="Helvetica,sans-Serif" font-size="10.00">/home/runner/work/cbmc</text>
<text text-anchor="start" x="1712" y="-296.5" font-family="Helvetica,sans-Serif" font-size="10.00">&#45;documentation/cbmc&#45;documentation</text>
<text text-anchor="start" x="1712" y="-285.5" font-family="Helvetica,sans-Serif" font-size="10.00">/src/analyses/variable&#45;sensitivity</text>
<text text-anchor="middle" x="1804" y="-274.5" font-family="Helvetica,sans-Serif" font-size="10.00">/abstract_value_object.cpp</text>
</a>
</g>
</g>
<!-- Node1&#45;&gt;Node16 -->
<g id="edge20" class="edge">
<title>Node1&#45;&gt;Node16</title>
<path fill="none" stroke="midnightblue" d="M1804,-346.19C1804,-337.28 1804,-327.9 1804,-319.61"/>
<polygon fill="midnightblue" stroke="midnightblue" points="1800.5,-346.34 1804,-356.34 1807.5,-346.34 1800.5,-346.34"/>
</g>
<!-- Node17 -->
<g id="node17" class="node">
<title>Node17</title>
<g id="a_node17"><a xlink:href="constant__pointer__abstract__object_8cpp.html" target="_top" xlink:title=" ">
<polygon fill="none" stroke="black" points="1922,-267.5 1922,-319.5 2124,-319.5 2124,-267.5 1922,-267.5"/>
<text text-anchor="start" x="1930" y="-307.5" font-family="Helvetica,sans-Serif" font-size="10.00">/home/runner/work/cbmc</text>
<text text-anchor="start" x="1930" y="-296.5" font-family="Helvetica,sans-Serif" font-size="10.00">&#45;documentation/cbmc&#45;documentation</text>
<text text-anchor="start" x="1930" y="-285.5" font-family="Helvetica,sans-Serif" font-size="10.00">/src/analyses/variable&#45;sensitivity</text>
<text text-anchor="middle" x="2023" y="-274.5" font-family="Helvetica,sans-Serif" font-size="10.00">/constant_pointer_abstract_object.cpp</text>
</a>
</g>
</g>
<!-- Node1&#45;&gt;Node17 -->
<g id="edge21" class="edge">
<title>Node1&#45;&gt;Node17</title>
<path fill="none" stroke="midnightblue" d="M1876.45,-352.72C1903.48,-341.98 1933.91,-329.89 1960.02,-319.52"/>
<polygon fill="midnightblue" stroke="midnightblue" points="1875.05,-349.51 1867.05,-356.45 1877.64,-356.01 1875.05,-349.51"/>
</g>
<!-- Node18 -->
<g id="node18" class="node">
<title>Node18</title>
<g id="a_node18"><a xlink:href="interval__abstract__value_8cpp.html" target="_top" xlink:title=" ">
<polygon fill="none" stroke="black" points="2142,-267.5 2142,-319.5 2342,-319.5 2342,-267.5 2142,-267.5"/>
<text text-anchor="start" x="2150" y="-307.5" font-family="Helvetica,sans-Serif" font-size="10.00">/home/runner/work/cbmc</text>
<text text-anchor="start" x="2150" y="-296.5" font-family="Helvetica,sans-Serif" font-size="10.00">&#45;documentation/cbmc&#45;documentation</text>
<text text-anchor="start" x="2150" y="-285.5" font-family="Helvetica,sans-Serif" font-size="10.00">/src/analyses/variable&#45;sensitivity</text>
<text text-anchor="middle" x="2242" y="-274.5" font-family="Helvetica,sans-Serif" font-size="10.00">/interval_abstract_value.cpp</text>
</a>
</g>
</g>
<!-- Node1&#45;&gt;Node18 -->
<g id="edge24" class="edge">
<title>Node1&#45;&gt;Node18</title>
<path fill="none" stroke="midnightblue" d="M1914.41,-362.14C1978.39,-350.6 2060.4,-335.27 2133,-320 2135.95,-319.38 2138.94,-318.74 2141.96,-318.09"/>
<polygon fill="midnightblue" stroke="midnightblue" points="1913.52,-358.75 1904.3,-363.96 1914.76,-365.63 1913.52,-358.75"/>
</g>
<!-- Node19 -->
<g id="node19" class="node">
<title>Node19</title>
<g id="a_node19"><a xlink:href="two__value__pointer__abstract__object_8cpp.html" target="_top" xlink:title=" ">
<polygon fill="none" stroke="black" points="2360,-267.5 2360,-319.5 2570,-319.5 2570,-267.5 2360,-267.5"/>
<text text-anchor="start" x="2368" y="-307.5" font-family="Helvetica,sans-Serif" font-size="10.00">/home/runner/work/cbmc</text>
<text text-anchor="start" x="2368" y="-296.5" font-family="Helvetica,sans-Serif" font-size="10.00">&#45;documentation/cbmc&#45;documentation</text>
<text text-anchor="start" x="2368" y="-285.5" font-family="Helvetica,sans-Serif" font-size="10.00">/src/analyses/variable&#45;sensitivity</text>
<text text-anchor="middle" x="2465" y="-274.5" font-family="Helvetica,sans-Serif" font-size="10.00">/two_value_pointer_abstract_object.cpp</text>
</a>
</g>
</g>
<!-- Node1&#45;&gt;Node19 -->
<g id="edge25" class="edge">
<title>Node1&#45;&gt;Node19</title>
<path fill="none" stroke="midnightblue" d="M1914.2,-372.63C2025.02,-362.89 2200.54,-345.21 2351,-320 2353.9,-319.51 2356.84,-319 2359.8,-318.47"/>
<polygon fill="midnightblue" stroke="midnightblue" points="1913.67,-369.17 1904.02,-373.52 1914.28,-376.14 1913.67,-369.17"/>
</g>
<!-- Node20 -->
<g id="node20" class="node">
<title>Node20</title>
<g id="a_node20"><a xlink:href="value__set__abstract__object_8cpp.html" target="_top" xlink:title=" ">
<polygon fill="none" stroke="black" points="2588,-267.5 2588,-319.5 2788,-319.5 2788,-267.5 2588,-267.5"/>
<text text-anchor="start" x="2596" y="-307.5" font-family="Helvetica,sans-Serif" font-size="10.00">/home/runner/work/cbmc</text>
<text text-anchor="start" x="2596" y="-296.5" font-family="Helvetica,sans-Serif" font-size="10.00">&#45;documentation/cbmc&#45;documentation</text>
<text text-anchor="start" x="2596" y="-285.5" font-family="Helvetica,sans-Serif" font-size="10.00">/src/analyses/variable&#45;sensitivity</text>
<text text-anchor="middle" x="2688" y="-274.5" font-family="Helvetica,sans-Serif" font-size="10.00">/value_set_abstract_object.cpp</text>
</a>
</g>
</g>
<!-- Node1&#45;&gt;Node20 -->
<g id="edge26" class="edge">
<title>Node1&#45;&gt;Node20</title>
<path fill="none" stroke="midnightblue" d="M1914.46,-377.97C2065.35,-371.95 2344.01,-356.6 2579,-320 2581.88,-319.55 2584.8,-319.07 2587.74,-318.55"/>
<polygon fill="midnightblue" stroke="midnightblue" points="1914.12,-374.48 1904.27,-378.37 1914.4,-381.47 1914.12,-374.48"/>
</g>
<!-- Node21 -->
<g id="node21" class="node">
<title>Node21</title>
<g id="a_node21"><a xlink:href="value__set__pointer__abstract__object_8cpp.html" target="_top" xlink:title=" ">
<polygon fill="none" stroke="black" points="2806.5,-267.5 2806.5,-319.5 3013.5,-319.5 3013.5,-267.5 2806.5,-267.5"/>
<text text-anchor="start" x="2814.5" y="-307.5" font-family="Helvetica,sans-Serif" font-size="10.00">/home/runner/work/cbmc</text>
<text text-anchor="start" x="2814.5" y="-296.5" font-family="Helvetica,sans-Serif" font-size="10.00">&#45;documentation/cbmc&#45;documentation</text>
<text text-anchor="start" x="2814.5" y="-285.5" font-family="Helvetica,sans-Serif" font-size="10.00">/src/analyses/variable&#45;sensitivity</text>
<text text-anchor="middle" x="2910" y="-274.5" font-family="Helvetica,sans-Serif" font-size="10.00">/value_set_pointer_abstract_object.cpp</text>
</a>
</g>
</g>
<!-- Node1&#45;&gt;Node21 -->
<g id="edge27" class="edge">
<title>Node1&#45;&gt;Node21</title>
<path fill="none" stroke="midnightblue" d="M1914.48,-380.42C2098.44,-377.33 2478.78,-365.46 2797,-320 2800.09,-319.56 2803.21,-319.08 2806.36,-318.56"/>
<polygon fill="midnightblue" stroke="midnightblue" points="1914.2,-376.92 1904.26,-380.58 1914.31,-383.92 1914.2,-376.92"/>
</g>
<!-- Node22 -->
<g id="node22" class="node">
<title>Node22</title>
<g id="a_node22"><a xlink:href="variable__sensitivity__domain_8h.html" target="_top" xlink:title=" ">
<polygon fill="none" stroke="black" points="1401,-178.5 1401,-230.5 1601,-230.5 1601,-178.5 1401,-178.5"/>
<text text-anchor="start" x="1409" y="-218.5" font-family="Helvetica,sans-Serif" font-size="10.00">/home/runner/work/cbmc</text>
<text text-anchor="start" x="1409" y="-207.5" font-family="Helvetica,sans-Serif" font-size="10.00">&#45;documentation/cbmc&#45;documentation</text>
<text text-anchor="start" x="1409" y="-196.5" font-family="Helvetica,sans-Serif" font-size="10.00">/src/analyses/variable&#45;sensitivity</text>
<text text-anchor="middle" x="1501" y="-185.5" font-family="Helvetica,sans-Serif" font-size="10.00">/variable_sensitivity_domain.h</text>
</a>
</g>
</g>
<!-- Node1&#45;&gt;Node22 -->
<g id="edge28" class="edge">
<title>Node1&#45;&gt;Node22</title>
<path fill="none" stroke="midnightblue" d="M1693.48,-376.78C1542.57,-369.18 1287.39,-351.78 1259,-320 1243.31,-302.43 1244.54,-285.59 1259,-267 1276.86,-244.03 1342.54,-228.24 1400.98,-218.41"/>
<polygon fill="midnightblue" stroke="midnightblue" points="1693.55,-380.29 1703.71,-377.29 1693.9,-373.3 1693.55,-380.29"/>
</g>
<!-- Node32 -->
<g id="node32" class="node">
<title>Node32</title>
<g id="a_node32"><a xlink:href="write__stack_8cpp.html" target="_top" xlink:title=" ">
<polygon fill="none" stroke="black" points="3032,-267.5 3032,-319.5 3232,-319.5 3232,-267.5 3032,-267.5"/>
<text text-anchor="start" x="3040" y="-307.5" font-family="Helvetica,sans-Serif" font-size="10.00">/home/runner/work/cbmc</text>
<text text-anchor="start" x="3040" y="-296.5" font-family="Helvetica,sans-Serif" font-size="10.00">&#45;documentation/cbmc&#45;documentation</text>
<text text-anchor="start" x="3040" y="-285.5" font-family="Helvetica,sans-Serif" font-size="10.00">/src/analyses/variable&#45;sensitivity</text>
<text text-anchor="middle" x="3132" y="-274.5" font-family="Helvetica,sans-Serif" font-size="10.00">/write_stack.cpp</text>
</a>
</g>
</g>
<!-- Node1&#45;&gt;Node32 -->
<g id="edge40" class="edge">
<title>Node1&#45;&gt;Node32</title>
<path fill="none" stroke="midnightblue" d="M1914.4,-378.47C2172.75,-370.96 2810.77,-349.93 3023,-320 3025.89,-319.59 3028.81,-319.15 3031.75,-318.67"/>
<polygon fill="midnightblue" stroke="midnightblue" points="1914.15,-374.97 1904.26,-378.76 1914.35,-381.97 1914.15,-374.97"/>
</g>
<!-- Node33 -->
<g id="node33" class="node">
<title>Node33</title>
<g id="a_node33"><a xlink:href="write__stack__entry_8cpp.html" target="_top" xlink:title=" ">
<polygon fill="none" stroke="black" points="3250,-267.5 3250,-319.5 3450,-319.5 3450,-267.5 3250,-267.5"/>
<text text-anchor="start" x="3258" y="-307.5" font-family="Helvetica,sans-Serif" font-size="10.00">/home/runner/work/cbmc</text>
<text text-anchor="start" x="3258" y="-296.5" font-family="Helvetica,sans-Serif" font-size="10.00">&#45;documentation/cbmc&#45;documentation</text>
<text text-anchor="start" x="3258" y="-285.5" font-family="Helvetica,sans-Serif" font-size="10.00">/src/analyses/variable&#45;sensitivity</text>
<text text-anchor="middle" x="3350" y="-274.5" font-family="Helvetica,sans-Serif" font-size="10.00">/write_stack_entry.cpp</text>
</a>
</g>
</g>
<!-- Node1&#45;&gt;Node33 -->
<g id="edge41" class="edge">
<title>Node1&#45;&gt;Node33</title>
<path fill="none" stroke="midnightblue" d="M1914.23,-379.45C2204.5,-373.63 2985.12,-355.09 3241,-320 3243.89,-319.6 3246.81,-319.17 3249.76,-318.69"/>
<polygon fill="midnightblue" stroke="midnightblue" points="1914.04,-375.95 1904.12,-379.65 1914.18,-382.95 1914.04,-375.95"/>
</g>
<!-- Node3 -->
<g id="node3" class="node">
<title>Node3</title>
<g id="a_node3"><a xlink:href="full__array__abstract__object_8h.html" target="_top" xlink:title=" ">
<polygon fill="none" stroke="black" points="64,-178.5 64,-230.5 264,-230.5 264,-178.5 64,-178.5"/>
<text text-anchor="start" x="72" y="-218.5" font-family="Helvetica,sans-Serif" font-size="10.00">/home/runner/work/cbmc</text>
<text text-anchor="start" x="72" y="-207.5" font-family="Helvetica,sans-Serif" font-size="10.00">&#45;documentation/cbmc&#45;documentation</text>
<text text-anchor="start" x="72" y="-196.5" font-family="Helvetica,sans-Serif" font-size="10.00">/src/analyses/variable&#45;sensitivity</text>
<text text-anchor="middle" x="164" y="-185.5" font-family="Helvetica,sans-Serif" font-size="10.00">/full_array_abstract_object.h</text>
</a>
</g>
</g>
<!-- Node2&#45;&gt;Node3 -->
<g id="edge2" class="edge">
<title>Node2&#45;&gt;Node3</title>
<path fill="none" stroke="midnightblue" d="M598.53,-279.7C510.13,-268.78 383.15,-251.61 273,-231 270.04,-230.45 267.04,-229.87 264.01,-229.26"/>
<polygon fill="midnightblue" stroke="midnightblue" points="598.23,-283.19 608.58,-280.93 599.08,-276.24 598.23,-283.19"/>
</g>
<!-- Node6 -->
<g id="node6" class="node">
<title>Node6</title>
<g id="a_node6"><a xlink:href="full__struct__abstract__object_8h.html" target="_top" xlink:title=" ">
<polygon fill="none" stroke="black" points="936,-178.5 936,-230.5 1136,-230.5 1136,-178.5 936,-178.5"/>
<text text-anchor="start" x="944" y="-218.5" font-family="Helvetica,sans-Serif" font-size="10.00">/home/runner/work/cbmc</text>
<text text-anchor="start" x="944" y="-207.5" font-family="Helvetica,sans-Serif" font-size="10.00">&#45;documentation/cbmc&#45;documentation</text>
<text text-anchor="start" x="944" y="-196.5" font-family="Helvetica,sans-Serif" font-size="10.00">/src/analyses/variable&#45;sensitivity</text>
<text text-anchor="middle" x="1036" y="-185.5" font-family="Helvetica,sans-Serif" font-size="10.00">/full_struct_abstract_object.h</text>
</a>
</g>
</g>
<!-- Node2&#45;&gt;Node6 -->
<g id="edge5" class="edge">
<title>Node2&#45;&gt;Node6</title>
<path fill="none" stroke="midnightblue" d="M812.97,-264.84C854.35,-253.83 901.62,-241.25 941.96,-230.52"/>
<polygon fill="midnightblue" stroke="midnightblue" points="811.91,-261.5 803.14,-267.45 813.71,-268.26 811.91,-261.5"/>
</g>
<!-- Node11 -->
<g id="node11" class="node">
<title>Node11</title>
<g id="a_node11"><a xlink:href="two__value__array__abstract__object_8h.html" target="_top" xlink:title=" ">
<polygon fill="none" stroke="black" points="282,-178.5 282,-230.5 482,-230.5 482,-178.5 282,-178.5"/>
<text text-anchor="start" x="290" y="-218.5" font-family="Helvetica,sans-Serif" font-size="10.00">/home/runner/work/cbmc</text>
<text text-anchor="start" x="290" y="-207.5" font-family="Helvetica,sans-Serif" font-size="10.00">&#45;documentation/cbmc&#45;documentation</text>
<text text-anchor="start" x="290" y="-196.5" font-family="Helvetica,sans-Serif" font-size="10.00">/src/analyses/variable&#45;sensitivity</text>
<text text-anchor="middle" x="382" y="-185.5" font-family="Helvetica,sans-Serif" font-size="10.00">/two_value_array_abstract_object.h</text>
</a>
</g>
</g>
<!-- Node2&#45;&gt;Node11 -->
<g id="edge11" class="edge">
<title>Node2&#45;&gt;Node11</title>
<path fill="none" stroke="midnightblue" d="M605.03,-264.84C563.65,-253.83 516.38,-241.25 476.04,-230.52"/>
<polygon fill="midnightblue" stroke="midnightblue" points="604.29,-268.26 614.86,-267.45 606.09,-261.5 604.29,-268.26"/>
</g>
<!-- Node12 -->
<g id="node12" class="node">
<title>Node12</title>
<g id="a_node12"><a xlink:href="two__value__struct__abstract__object_8h.html" target="_top" xlink:title=" ">
<polygon fill="none" stroke="black" points="500,-178.5 500,-230.5 700,-230.5 700,-178.5 500,-178.5"/>
<text text-anchor="start" x="508" y="-218.5" font-family="Helvetica,sans-Serif" font-size="10.00">/home/runner/work/cbmc</text>
<text text-anchor="start" x="508" y="-207.5" font-family="Helvetica,sans-Serif" font-size="10.00">&#45;documentation/cbmc&#45;documentation</text>
<text text-anchor="start" x="508" y="-196.5" font-family="Helvetica,sans-Serif" font-size="10.00">/src/analyses/variable&#45;sensitivity</text>
<text text-anchor="middle" x="600" y="-185.5" font-family="Helvetica,sans-Serif" font-size="10.00">/two_value_struct_abstract_object.h</text>
</a>
</g>
</g>
<!-- Node2&#45;&gt;Node12 -->
<g id="edge13" class="edge">
<title>Node2&#45;&gt;Node12</title>
<path fill="none" stroke="midnightblue" d="M669.45,-260.93C656.95,-250.96 643.31,-240.07 631.46,-230.61"/>
<polygon fill="midnightblue" stroke="midnightblue" points="667.47,-263.83 677.47,-267.34 671.84,-258.36 667.47,-263.83"/>
</g>
<!-- Node13 -->
<g id="node13" class="node">
<title>Node13</title>
<g id="a_node13"><a xlink:href="two__value__union__abstract__object_8h.html" target="_top" xlink:title=" ">
<polygon fill="none" stroke="black" points="718,-178.5 718,-230.5 918,-230.5 918,-178.5 718,-178.5"/>
<text text-anchor="start" x="726" y="-218.5" font-family="Helvetica,sans-Serif" font-size="10.00">/home/runner/work/cbmc</text>
<text text-anchor="start" x="726" y="-207.5" font-family="Helvetica,sans-Serif" font-size="10.00">&#45;documentation/cbmc&#45;documentation</text>
<text text-anchor="start" x="726" y="-196.5" font-family="Helvetica,sans-Serif" font-size="10.00">/src/analyses/variable&#45;sensitivity</text>
<text text-anchor="middle" x="818" y="-185.5" font-family="Helvetica,sans-Serif" font-size="10.00">/two_value_union_abstract_object.h</text>
</a>
</g>
</g>
<!-- Node2&#45;&gt;Node13 -->
<g id="edge15" class="edge">
<title>Node2&#45;&gt;Node13</title>
<path fill="none" stroke="midnightblue" d="M748.55,-260.93C761.05,-250.96 774.69,-240.07 786.54,-230.61"/>
<polygon fill="midnightblue" stroke="midnightblue" points="746.16,-258.36 740.53,-267.34 750.53,-263.83 746.16,-258.36"/>
</g>
<!-- Node3&#45;&gt;Node4 -->
<g id="edge3" class="edge">
<title>Node3&#45;&gt;Node4</title>
<path fill="none" stroke="midnightblue" d="M139.51,-170.22C132.53,-160.72 125.03,-150.53 118.47,-141.61"/>
<polygon fill="midnightblue" stroke="midnightblue" points="136.74,-172.35 145.49,-178.34 142.38,-168.21 136.74,-172.35"/>
</g>
<!-- Node5 -->
<g id="node5" class="node">
<title>Node5</title>
<g id="a_node5"><a xlink:href="variable__sensitivity__object__factory_8cpp.html" target="_top" xlink:title=" ">
<polygon fill="none" stroke="black" points="275.5,-0.5 275.5,-52.5 484.5,-52.5 484.5,-0.5 275.5,-0.5"/>
<text text-anchor="start" x="283.5" y="-40.5" font-family="Helvetica,sans-Serif" font-size="10.00">/home/runner/work/cbmc</text>
<text text-anchor="start" x="283.5" y="-29.5" font-family="Helvetica,sans-Serif" font-size="10.00">&#45;documentation/cbmc&#45;documentation</text>
<text text-anchor="start" x="283.5" y="-18.5" font-family="Helvetica,sans-Serif" font-size="10.00">/src/analyses/variable&#45;sensitivity</text>
<text text-anchor="middle" x="380" y="-7.5" font-family="Helvetica,sans-Serif" font-size="10.00">/variable_sensitivity_object_factory.cpp</text>
</a>
</g>
</g>
<!-- Node3&#45;&gt;Node5 -->
<g id="edge4" class="edge">
<title>Node3&#45;&gt;Node5</title>
<path fill="none" stroke="midnightblue" d="M202.73,-171.94C244.62,-137.81 310.56,-84.08 349.11,-52.67"/>
<polygon fill="midnightblue" stroke="midnightblue" points="200.49,-169.25 194.95,-178.28 204.91,-174.68 200.49,-169.25"/>
</g>
<!-- Node6&#45;&gt;Node7 -->
<g id="edge6" class="edge">
<title>Node6&#45;&gt;Node7</title>
<path fill="none" stroke="midnightblue" d="M1043.65,-168.48C1045.61,-159.49 1047.69,-149.99 1049.52,-141.61"/>
<polygon fill="midnightblue" stroke="midnightblue" points="1040.21,-167.82 1041.5,-178.34 1047.05,-169.31 1040.21,-167.82"/>
</g>
<!-- Node8 -->
<g id="node8" class="node">
<title>Node8</title>
<g id="a_node8"><a xlink:href="variable__sensitivity__object__factory_8h.html" target="_top" xlink:title=" ">
<polygon fill="none" stroke="black" points="718,-89.5 718,-141.5 918,-141.5 918,-89.5 718,-89.5"/>
<text text-anchor="start" x="726" y="-129.5" font-family="Helvetica,sans-Serif" font-size="10.00">/home/runner/work/cbmc</text>
<text text-anchor="start" x="726" y="-118.5" font-family="Helvetica,sans-Serif" font-size="10.00">&#45;documentation/cbmc&#45;documentation</text>
<text text-anchor="start" x="726" y="-107.5" font-family="Helvetica,sans-Serif" font-size="10.00">/src/analyses/variable&#45;sensitivity</text>
<text text-anchor="middle" x="818" y="-96.5" font-family="Helvetica,sans-Serif" font-size="10.00">/variable_sensitivity_object_factory.h</text>
</a>
</g>
</g>
<!-- Node6&#45;&gt;Node8 -->
<g id="edge7" class="edge">
<title>Node6&#45;&gt;Node8</title>
<path fill="none" stroke="midnightblue" d="M963.88,-174.72C936.98,-163.98 906.68,-151.89 880.7,-141.52"/>
<polygon fill="midnightblue" stroke="midnightblue" points="962.65,-178 973.24,-178.45 965.25,-171.5 962.65,-178"/>
</g>
<!-- Node8&#45;&gt;Node5 -->
<g id="edge9" class="edge">
<title>Node8&#45;&gt;Node5</title>
<path fill="none" stroke="midnightblue" d="M707.84,-92.62C639.45,-79.03 552.07,-61.68 484.72,-48.3"/>
<polygon fill="midnightblue" stroke="midnightblue" points="707.3,-96.08 717.79,-94.59 708.66,-89.21 707.3,-96.08"/>
</g>
<!-- Node8&#45;&gt;Node9 -->
<g id="edge8" class="edge">
<title>Node8&#45;&gt;Node9</title>
<path fill="none" stroke="midnightblue" d="M839.02,-80.64C844.81,-71.31 850.99,-61.35 856.42,-52.61"/>
<polygon fill="midnightblue" stroke="midnightblue" points="835.92,-78.99 833.62,-89.34 841.87,-82.69 835.92,-78.99"/>
</g>
<!-- Node10 -->
<g id="node10" class="node">
<title>Node10</title>
<g id="a_node10"><a xlink:href="build__analyzer_8cpp.html" target="_top" xlink:title=" ">
<polygon fill="none" stroke="black" points="1044,-6 1044,-47 1244,-47 1244,-6 1044,-6"/>
<text text-anchor="start" x="1052" y="-35" font-family="Helvetica,sans-Serif" font-size="10.00">/home/runner/work/cbmc</text>
<text text-anchor="start" x="1052" y="-24" font-family="Helvetica,sans-Serif" font-size="10.00">&#45;documentation/cbmc&#45;documentation</text>
<text text-anchor="middle" x="1144" y="-13" font-family="Helvetica,sans-Serif" font-size="10.00">/src/goto&#45;analyzer/build_analyzer.cpp</text>
</a>
</g>
</g>
<!-- Node8&#45;&gt;Node10 -->
<g id="edge10" class="edge">
<title>Node8&#45;&gt;Node10</title>
<path fill="none" stroke="midnightblue" d="M921.75,-86.81C970.21,-73.88 1026.76,-58.79 1070.69,-47.06"/>
<polygon fill="midnightblue" stroke="midnightblue" points="920.61,-83.49 911.86,-89.45 922.42,-90.26 920.61,-83.49"/>
</g>
<!-- Node11&#45;&gt;Node8 -->
<g id="edge12" class="edge">
<title>Node11&#45;&gt;Node8</title>
<path fill="none" stroke="midnightblue" d="M491.99,-177.82C573.59,-160.74 655.64,-145.41 717.95,-134.14"/>
<polygon fill="midnightblue" stroke="midnightblue" points="491.11,-174.43 482.05,-179.92 492.55,-181.28 491.11,-174.43"/>
</g>
<!-- Node12&#45;&gt;Node8 -->
<g id="edge14" class="edge">
<title>Node12&#45;&gt;Node8</title>
<path fill="none" stroke="midnightblue" d="M672.12,-174.72C699.02,-163.98 729.32,-151.89 755.3,-141.52"/>
<polygon fill="midnightblue" stroke="midnightblue" points="670.75,-171.5 662.76,-178.45 673.35,-178 670.75,-171.5"/>
</g>
<!-- Node13&#45;&gt;Node8 -->
<g id="edge16" class="edge">
<title>Node13&#45;&gt;Node8</title>
<path fill="none" stroke="midnightblue" d="M818,-168.19C818,-159.28 818,-149.9 818,-141.61"/>
<polygon fill="midnightblue" stroke="midnightblue" points="814.5,-168.34 818,-178.34 821.5,-168.34 814.5,-168.34"/>
</g>
<!-- Node22&#45;&gt;Node10 -->
<g id="edge35" class="edge">
<title>Node22&#45;&gt;Node10</title>
<path fill="none" stroke="midnightblue" d="M1390.67,-190.74C1347.11,-181.94 1298.22,-167.08 1259,-142 1233.45,-125.66 1237.18,-110.72 1216,-89 1201.43,-74.05 1183.59,-58.8 1169.32,-47.22"/>
<polygon fill="midnightblue" stroke="midnightblue" points="1390.26,-194.23 1400.74,-192.69 1391.59,-187.36 1390.26,-194.23"/>
</g>
<!-- Node23 -->
<g id="node23" class="node">
<title>Node23</title>
<g id="a_node23"><a xlink:href="three__way__merge__abstract__interpreter_8cpp.html" target="_top" xlink:title=" ">
<polygon fill="none" stroke="black" points="1508.5,-89.5 1508.5,-141.5 1737.5,-141.5 1737.5,-89.5 1508.5,-89.5"/>
<text text-anchor="start" x="1516.5" y="-129.5" font-family="Helvetica,sans-Serif" font-size="10.00">/home/runner/work/cbmc</text>
<text text-anchor="start" x="1516.5" y="-118.5" font-family="Helvetica,sans-Serif" font-size="10.00">&#45;documentation/cbmc&#45;documentation</text>
<text text-anchor="start" x="1516.5" y="-107.5" font-family="Helvetica,sans-Serif" font-size="10.00">/src/analyses/variable&#45;sensitivity</text>
<text text-anchor="middle" x="1623" y="-96.5" font-family="Helvetica,sans-Serif" font-size="10.00">/three_way_merge_abstract_interpreter.cpp</text>
</a>
</g>
</g>
<!-- Node22&#45;&gt;Node23 -->
<g id="edge29" class="edge">
<title>Node22&#45;&gt;Node23</title>
<path fill="none" stroke="midnightblue" d="M1544.47,-172.5C1558.67,-162.37 1574.27,-151.25 1587.79,-141.61"/>
<polygon fill="midnightblue" stroke="midnightblue" points="1542.4,-169.68 1536.29,-178.34 1546.46,-175.38 1542.4,-169.68"/>
</g>
<!-- Node24 -->
<g id="node24" class="node">
<title>Node24</title>
<g id="a_node24"><a xlink:href="variable__sensitivity__dependence__graph_8h.html" target="_top" xlink:title=" ">
<polygon fill="none" stroke="black" points="1268,-89.5 1268,-141.5 1490,-141.5 1490,-89.5 1268,-89.5"/>
<text text-anchor="start" x="1276" y="-129.5" font-family="Helvetica,sans-Serif" font-size="10.00">/home/runner/work/cbmc</text>
<text text-anchor="start" x="1276" y="-118.5" font-family="Helvetica,sans-Serif" font-size="10.00">&#45;documentation/cbmc&#45;documentation</text>
<text text-anchor="start" x="1276" y="-107.5" font-family="Helvetica,sans-Serif" font-size="10.00">/src/analyses/variable&#45;sensitivity</text>
<text text-anchor="middle" x="1379" y="-96.5" font-family="Helvetica,sans-Serif" font-size="10.00">/variable_sensitivity_dependence_graph.h</text>
</a>
</g>
</g>
<!-- Node22&#45;&gt;Node24 -->
<g id="edge30" class="edge">
<title>Node22&#45;&gt;Node24</title>
<path fill="none" stroke="midnightblue" d="M1457.53,-172.5C1443.33,-162.37 1427.73,-151.25 1414.21,-141.61"/>
<polygon fill="midnightblue" stroke="midnightblue" points="1455.54,-175.38 1465.71,-178.34 1459.6,-169.68 1455.54,-175.38"/>
</g>
<!-- Node27 -->
<g id="node27" class="node">
<title>Node27</title>
<g id="a_node27"><a xlink:href="variable__sensitivity__domain_8cpp.html" target="_top" xlink:title=" ">
<polygon fill="none" stroke="black" points="1756,-89.5 1756,-141.5 1956,-141.5 1956,-89.5 1756,-89.5"/>
<text text-anchor="start" x="1764" y="-129.5" font-family="Helvetica,sans-Serif" font-size="10.00">/home/runner/work/cbmc</text>
<text text-anchor="start" x="1764" y="-118.5" font-family="Helvetica,sans-Serif" font-size="10.00">&#45;documentation/cbmc&#45;documentation</text>
<text text-anchor="start" x="1764" y="-107.5" font-family="Helvetica,sans-Serif" font-size="10.00">/src/analyses/variable&#45;sensitivity</text>
<text text-anchor="middle" x="1856" y="-96.5" font-family="Helvetica,sans-Serif" font-size="10.00">/variable_sensitivity_domain.cpp</text>
</a>
</g>
</g>
<!-- Node22&#45;&gt;Node27 -->
<g id="edge34" class="edge">
<title>Node22&#45;&gt;Node27</title>
<path fill="none" stroke="midnightblue" d="M1611.07,-176.53C1657.34,-165.19 1710.8,-152.08 1755.94,-141.02"/>
<polygon fill="midnightblue" stroke="midnightblue" points="1610.18,-173.14 1601.31,-178.92 1611.85,-179.94 1610.18,-173.14"/>
</g>
<!-- Node28 -->
<g id="node28" class="node">
<title>Node28</title>
<g id="a_node28"><a xlink:href="goto__analyzer__parse__options_8h.html" target="_top" xlink:title=" ">
<polygon fill="none" stroke="black" points="1974,-89.5 1974,-141.5 2174,-141.5 2174,-89.5 1974,-89.5"/>
<text text-anchor="start" x="1982" y="-129.5" font-family="Helvetica,sans-Serif" font-size="10.00">/home/runner/work/cbmc</text>
<text text-anchor="start" x="1982" y="-118.5" font-family="Helvetica,sans-Serif" font-size="10.00">&#45;documentation/cbmc&#45;documentation</text>
<text text-anchor="start" x="1982" y="-107.5" font-family="Helvetica,sans-Serif" font-size="10.00">/src/goto&#45;analyzer/goto_analyzer</text>
<text text-anchor="middle" x="2074" y="-96.5" font-family="Helvetica,sans-Serif" font-size="10.00">_parse_options.h</text>
</a>
</g>
</g>
<!-- Node22&#45;&gt;Node28 -->
<g id="edge36" class="edge">
<title>Node22&#45;&gt;Node28</title>
<path fill="none" stroke="midnightblue" d="M1611.13,-191.98C1705.45,-181.38 1844.68,-163.99 1965,-142 1967.96,-141.46 1970.97,-140.89 1974,-140.3"/>
<polygon fill="midnightblue" stroke="midnightblue" points="1610.56,-188.52 1601.01,-193.11 1611.33,-195.48 1610.56,-188.52"/>
</g>
<!-- Node24&#45;&gt;Node10 -->
<g id="edge32" class="edge">
<title>Node24&#45;&gt;Node10</title>
<path fill="none" stroke="midnightblue" d="M1301.81,-85.92C1267.49,-73.22 1227.95,-58.58 1197.03,-47.13"/>
<polygon fill="midnightblue" stroke="midnightblue" points="1300.75,-89.26 1311.34,-89.45 1303.18,-82.7 1300.75,-89.26"/>
</g>
<!-- Node25 -->
<g id="node25" class="node">
<title>Node25</title>
<g id="a_node25"><a xlink:href="variable__sensitivity__dependence__graph_8cpp.html" target="_top" xlink:title=" ">
<polygon fill="none" stroke="black" points="1262.5,-0.5 1262.5,-52.5 1495.5,-52.5 1495.5,-0.5 1262.5,-0.5"/>
<text text-anchor="start" x="1270.5" y="-40.5" font-family="Helvetica,sans-Serif" font-size="10.00">/home/runner/work/cbmc</text>
<text text-anchor="start" x="1270.5" y="-29.5" font-family="Helvetica,sans-Serif" font-size="10.00">&#45;documentation/cbmc&#45;documentation</text>
<text text-anchor="start" x="1270.5" y="-18.5" font-family="Helvetica,sans-Serif" font-size="10.00">/src/analyses/variable&#45;sensitivity</text>
<text text-anchor="middle" x="1379" y="-7.5" font-family="Helvetica,sans-Serif" font-size="10.00">/variable_sensitivity_dependence_graph.cpp</text>
</a>
</g>
</g>
<!-- Node24&#45;&gt;Node25 -->
<g id="edge31" class="edge">
<title>Node24&#45;&gt;Node25</title>
<path fill="none" stroke="midnightblue" d="M1379,-79.19C1379,-70.28 1379,-60.9 1379,-52.61"/>
<polygon fill="midnightblue" stroke="midnightblue" points="1375.5,-79.34 1379,-89.34 1382.5,-79.34 1375.5,-79.34"/>
</g>
<!-- Node26 -->
<g id="node26" class="node">
<title>Node26</title>
<g id="a_node26"><a xlink:href="static__show__domain_8cpp.html" target="_top" xlink:title=" ">
<polygon fill="none" stroke="black" points="1514,-0.5 1514,-52.5 1714,-52.5 1714,-0.5 1514,-0.5"/>
<text text-anchor="start" x="1522" y="-40.5" font-family="Helvetica,sans-Serif" font-size="10.00">/home/runner/work/cbmc</text>
<text text-anchor="start" x="1522" y="-29.5" font-family="Helvetica,sans-Serif" font-size="10.00">&#45;documentation/cbmc&#45;documentation</text>
<text text-anchor="start" x="1522" y="-18.5" font-family="Helvetica,sans-Serif" font-size="10.00">/src/goto&#45;analyzer/static_show</text>
<text text-anchor="middle" x="1614" y="-7.5" font-family="Helvetica,sans-Serif" font-size="10.00">_domain.cpp</text>
</a>
</g>
</g>
<!-- Node24&#45;&gt;Node26 -->
<g id="edge33" class="edge">
<title>Node24&#45;&gt;Node26</title>
<path fill="none" stroke="midnightblue" d="M1456.37,-85.86C1485.46,-75.09 1518.28,-62.94 1546.41,-52.52"/>
<polygon fill="midnightblue" stroke="midnightblue" points="1454.82,-82.7 1446.66,-89.45 1457.25,-89.26 1454.82,-82.7"/>
</g>
<!-- Node29 -->
<g id="node29" class="node">
<title>Node29</title>
<g id="a_node29"><a xlink:href="goto__analyzer__languages_8cpp.html" target="_top" xlink:title=" ">
<polygon fill="none" stroke="black" points="1742,-0.5 1742,-52.5 1942,-52.5 1942,-0.5 1742,-0.5"/>
<text text-anchor="start" x="1750" y="-40.5" font-family="Helvetica,sans-Serif" font-size="10.00">/home/runner/work/cbmc</text>
<text text-anchor="start" x="1750" y="-29.5" font-family="Helvetica,sans-Serif" font-size="10.00">&#45;documentation/cbmc&#45;documentation</text>
<text text-anchor="start" x="1750" y="-18.5" font-family="Helvetica,sans-Serif" font-size="10.00">/src/goto&#45;analyzer/goto_analyzer</text>
<text text-anchor="middle" x="1842" y="-7.5" font-family="Helvetica,sans-Serif" font-size="10.00">_languages.cpp</text>
</a>
</g>
</g>
<!-- Node28&#45;&gt;Node29 -->
<g id="edge37" class="edge">
<title>Node28&#45;&gt;Node29</title>
<path fill="none" stroke="midnightblue" d="M1997.62,-85.86C1968.9,-75.09 1936.5,-62.94 1908.72,-52.52"/>
<polygon fill="midnightblue" stroke="midnightblue" points="1996.61,-89.22 2007.21,-89.45 1999.07,-82.66 1996.61,-89.22"/>
</g>
<!-- Node30 -->
<g id="node30" class="node">
<title>Node30</title>
<g id="a_node30"><a xlink:href="goto__analyzer__main_8cpp.html" target="_top" xlink:title=" ">
<polygon fill="none" stroke="black" points="1960.5,-6 1960.5,-47 2187.5,-47 2187.5,-6 1960.5,-6"/>
<text text-anchor="start" x="1968.5" y="-35" font-family="Helvetica,sans-Serif" font-size="10.00">/home/runner/work/cbmc</text>
<text text-anchor="start" x="1968.5" y="-24" font-family="Helvetica,sans-Serif" font-size="10.00">&#45;documentation/cbmc&#45;documentation</text>
<text text-anchor="middle" x="2074" y="-13" font-family="Helvetica,sans-Serif" font-size="10.00">/src/goto&#45;analyzer/goto_analyzer_main.cpp</text>
</a>
</g>
</g>
<!-- Node28&#45;&gt;Node30 -->
<g id="edge38" class="edge">
<title>Node28&#45;&gt;Node30</title>
<path fill="none" stroke="midnightblue" d="M2074,-79.16C2074,-68.21 2074,-56.55 2074,-47.08"/>
<polygon fill="midnightblue" stroke="midnightblue" points="2070.5,-79.34 2074,-89.34 2077.5,-79.34 2070.5,-79.34"/>
</g>
<!-- Node31 -->
<g id="node31" class="node">
<title>Node31</title>
<g id="a_node31"><a xlink:href="goto__analyzer__parse__options_8cpp.html" target="_top" xlink:title=" ">
<polygon fill="none" stroke="black" points="2206,-0.5 2206,-52.5 2406,-52.5 2406,-0.5 2206,-0.5"/>
<text text-anchor="start" x="2214" y="-40.5" font-family="Helvetica,sans-Serif" font-size="10.00">/home/runner/work/cbmc</text>
<text text-anchor="start" x="2214" y="-29.5" font-family="Helvetica,sans-Serif" font-size="10.00">&#45;documentation/cbmc&#45;documentation</text>
<text text-anchor="start" x="2214" y="-18.5" font-family="Helvetica,sans-Serif" font-size="10.00">/src/goto&#45;analyzer/goto_analyzer</text>
<text text-anchor="middle" x="2306" y="-7.5" font-family="Helvetica,sans-Serif" font-size="10.00">_parse_options.cpp</text>
</a>
</g>
</g>
<!-- Node28&#45;&gt;Node31 -->
<g id="edge39" class="edge">
<title>Node28&#45;&gt;Node31</title>
<path fill="none" stroke="midnightblue" d="M2150.38,-85.86C2179.1,-75.09 2211.5,-62.94 2239.28,-52.52"/>
<polygon fill="midnightblue" stroke="midnightblue" points="2148.93,-82.66 2140.79,-89.45 2151.39,-89.22 2148.93,-82.66"/>
</g>
</g>
</svg>
