<?xml version="1.0" encoding="UTF-8" standalone="no"?>
<!DOCTYPE svg PUBLIC "-//W3C//DTD SVG 1.1//EN"
 "http://www.w3.org/Graphics/SVG/1.1/DTD/svg11.dtd">
<!-- Generated by graphviz version 2.43.0 (0)
 -->
<!-- Title: /home/runner/work/cbmc&#45;documentation/cbmc&#45;documentation/src/analyses/variable&#45;sensitivity/abstract_value_object.h Pages: 1 -->
<svg width="1382pt" height="417pt"
 viewBox="0.00 0.00 1381.50 417.00" xmlns="http://www.w3.org/2000/svg" xmlns:xlink="http://www.w3.org/1999/xlink">
<g id="graph0" class="graph" transform="scale(1 1) rotate(0) translate(4 413)">
<title>/home/runner/work/cbmc&#45;documentation/cbmc&#45;documentation/src/analyses/variable&#45;sensitivity/abstract_value_object.h</title>
<!-- Node1 -->
<g id="node1" class="node">
<title>Node1</title>
<g id="a_node1"><a xlink:title=" ">
<polygon fill="#bfbfbf" stroke="black" points="835.5,-356.5 835.5,-408.5 1035.5,-408.5 1035.5,-356.5 835.5,-356.5"/>
<text text-anchor="start" x="843.5" y="-396.5" font-family="Helvetica,sans-Serif" font-size="10.00">/home/runner/work/cbmc</text>
<text text-anchor="start" x="843.5" y="-385.5" font-family="Helvetica,sans-Serif" font-size="10.00">&#45;documentation/cbmc&#45;documentation</text>
<text text-anchor="start" x="843.5" y="-374.5" font-family="Helvetica,sans-Serif" font-size="10.00">/src/analyses/variable&#45;sensitivity</text>
<text text-anchor="middle" x="935.5" y="-363.5" font-family="Helvetica,sans-Serif" font-size="10.00">/abstract_value_object.h</text>
</a>
</g>
</g>
<!-- Node2 -->
<g id="node2" class="node">
<title>Node2</title>
<g id="a_node2"><a xlink:href="constant__abstract__value_8h.html" target="_top" xlink:title=" ">
<polygon fill="none" stroke="black" points="263.5,-178.5 263.5,-230.5 463.5,-230.5 463.5,-178.5 263.5,-178.5"/>
<text text-anchor="start" x="271.5" y="-218.5" font-family="Helvetica,sans-Serif" font-size="10.00">/home/runner/work/cbmc</text>
<text text-anchor="start" x="271.5" y="-207.5" font-family="Helvetica,sans-Serif" font-size="10.00">&#45;documentation/cbmc&#45;documentation</text>
<text text-anchor="start" x="271.5" y="-196.5" font-family="Helvetica,sans-Serif" font-size="10.00">/src/analyses/variable&#45;sensitivity</text>
<text text-anchor="middle" x="363.5" y="-185.5" font-family="Helvetica,sans-Serif" font-size="10.00">/constant_abstract_value.h</text>
</a>
</g>
</g>
<!-- Node1&#45;&gt;Node2 -->
<g id="edge1" class="edge">
<title>Node1&#45;&gt;Node2</title>
<path fill="none" stroke="midnightblue" d="M825.34,-376.15C745.28,-369.42 635.47,-354.24 544.5,-320 487.26,-298.45 428.84,-257.32 394.4,-230.67"/>
<polygon fill="midnightblue" stroke="midnightblue" points="825.2,-379.65 835.45,-376.97 825.76,-372.67 825.2,-379.65"/>
</g>
<!-- Node7 -->
<g id="node7" class="node">
<title>Node7</title>
<g id="a_node7"><a xlink:href="abstract__value__object_8cpp.html" target="_top" xlink:title=" ">
<polygon fill="none" stroke="black" points="917.5,-89.5 917.5,-141.5 1117.5,-141.5 1117.5,-89.5 917.5,-89.5"/>
<text text-anchor="start" x="925.5" y="-129.5" font-family="Helvetica,sans-Serif" font-size="10.00">/home/runner/work/cbmc</text>
<text text-anchor="start" x="925.5" y="-118.5" font-family="Helvetica,sans-Serif" font-size="10.00">&#45;documentation/cbmc&#45;documentation</text>
<text text-anchor="start" x="925.5" y="-107.5" font-family="Helvetica,sans-Serif" font-size="10.00">/src/analyses/variable&#45;sensitivity</text>
<text text-anchor="middle" x="1017.5" y="-96.5" font-family="Helvetica,sans-Serif" font-size="10.00">/abstract_value_object.cpp</text>
</a>
</g>
</g>
<!-- Node1&#45;&gt;Node7 -->
<g id="edge24" class="edge">
<title>Node1&#45;&gt;Node7</title>
<path fill="none" stroke="midnightblue" d="M998.04,-351.64C1042.92,-326.42 1099.98,-285.66 1126.5,-231 1136.78,-209.81 1138.38,-198.34 1126.5,-178 1117.46,-162.52 1102.93,-150.63 1087.38,-141.63"/>
<polygon fill="midnightblue" stroke="midnightblue" points="996.31,-348.6 989.23,-356.48 999.68,-354.73 996.31,-348.6"/>
</g>
<!-- Node10 -->
<g id="node10" class="node">
<title>Node10</title>
<g id="a_node10"><a xlink:href="interval__abstract__value_8h.html" target="_top" xlink:title=" ">
<polygon fill="none" stroke="black" points="917.5,-178.5 917.5,-230.5 1117.5,-230.5 1117.5,-178.5 917.5,-178.5"/>
<text text-anchor="start" x="925.5" y="-218.5" font-family="Helvetica,sans-Serif" font-size="10.00">/home/runner/work/cbmc</text>
<text text-anchor="start" x="925.5" y="-207.5" font-family="Helvetica,sans-Serif" font-size="10.00">&#45;documentation/cbmc&#45;documentation</text>
<text text-anchor="start" x="925.5" y="-196.5" font-family="Helvetica,sans-Serif" font-size="10.00">/src/analyses/variable&#45;sensitivity</text>
<text text-anchor="middle" x="1017.5" y="-185.5" font-family="Helvetica,sans-Serif" font-size="10.00">/interval_abstract_value.h</text>
</a>
</g>
</g>
<!-- Node1&#45;&gt;Node10 -->
<g id="edge9" class="edge">
<title>Node1&#45;&gt;Node10</title>
<path fill="none" stroke="midnightblue" d="M951.51,-347.13C967.45,-312.92 991.53,-261.23 1005.77,-230.67"/>
<polygon fill="midnightblue" stroke="midnightblue" points="948.3,-345.74 947.25,-356.28 954.64,-348.7 948.3,-345.74"/>
</g>
<!-- Node12 -->
<g id="node12" class="node">
<title>Node12</title>
<g id="a_node12"><a xlink:href="abstract__object__set_8h.html" target="_top" xlink:title=" ">
<polygon fill="none" stroke="black" points="553.5,-267.5 553.5,-319.5 753.5,-319.5 753.5,-267.5 553.5,-267.5"/>
<text text-anchor="start" x="561.5" y="-307.5" font-family="Helvetica,sans-Serif" font-size="10.00">/home/runner/work/cbmc</text>
<text text-anchor="start" x="561.5" y="-296.5" font-family="Helvetica,sans-Serif" font-size="10.00">&#45;documentation/cbmc&#45;documentation</text>
<text text-anchor="start" x="561.5" y="-285.5" font-family="Helvetica,sans-Serif" font-size="10.00">/src/analyses/variable&#45;sensitivity</text>
<text text-anchor="middle" x="653.5" y="-274.5" font-family="Helvetica,sans-Serif" font-size="10.00">/abstract_object_set.h</text>
</a>
</g>
</g>
<!-- Node1&#45;&gt;Node12 -->
<g id="edge14" class="edge">
<title>Node1&#45;&gt;Node12</title>
<path fill="none" stroke="midnightblue" d="M844.48,-353.42C809.12,-342.51 768.95,-330.12 734.6,-319.52"/>
<polygon fill="midnightblue" stroke="midnightblue" points="843.72,-356.85 854.31,-356.45 845.79,-350.16 843.72,-356.85"/>
</g>
<!-- Node13 -->
<g id="node13" class="node">
<title>Node13</title>
<g id="a_node13"><a xlink:href="value__set__abstract__object_8h.html" target="_top" xlink:title=" ">
<polygon fill="none" stroke="black" points="699.5,-178.5 699.5,-230.5 899.5,-230.5 899.5,-178.5 699.5,-178.5"/>
<text text-anchor="start" x="707.5" y="-218.5" font-family="Helvetica,sans-Serif" font-size="10.00">/home/runner/work/cbmc</text>
<text text-anchor="start" x="707.5" y="-207.5" font-family="Helvetica,sans-Serif" font-size="10.00">&#45;documentation/cbmc&#45;documentation</text>
<text text-anchor="start" x="707.5" y="-196.5" font-family="Helvetica,sans-Serif" font-size="10.00">/src/analyses/variable&#45;sensitivity</text>
<text text-anchor="middle" x="799.5" y="-185.5" font-family="Helvetica,sans-Serif" font-size="10.00">/value_set_abstract_object.h</text>
</a>
</g>
</g>
<!-- Node1&#45;&gt;Node13 -->
<g id="edge23" class="edge">
<title>Node1&#45;&gt;Node13</title>
<path fill="none" stroke="midnightblue" d="M909.62,-348C883.19,-313.8 842.77,-261.49 818.95,-230.67"/>
<polygon fill="midnightblue" stroke="midnightblue" points="907.13,-350.51 916.01,-356.28 912.67,-346.23 907.13,-350.51"/>
</g>
<!-- Node17 -->
<g id="node17" class="node">
<title>Node17</title>
<g id="a_node17"><a xlink:href="full__array__abstract__object_8cpp.html" target="_top" xlink:title=" ">
<polygon fill="none" stroke="black" points="1173.5,-267.5 1173.5,-319.5 1373.5,-319.5 1373.5,-267.5 1173.5,-267.5"/>
<text text-anchor="start" x="1181.5" y="-307.5" font-family="Helvetica,sans-Serif" font-size="10.00">/home/runner/work/cbmc</text>
<text text-anchor="start" x="1181.5" y="-296.5" font-family="Helvetica,sans-Serif" font-size="10.00">&#45;documentation/cbmc&#45;documentation</text>
<text text-anchor="start" x="1181.5" y="-285.5" font-family="Helvetica,sans-Serif" font-size="10.00">/src/analyses/variable&#45;sensitivity</text>
<text text-anchor="middle" x="1273.5" y="-274.5" font-family="Helvetica,sans-Serif" font-size="10.00">/full_array_abstract_object.cpp</text>
</a>
</g>
</g>
<!-- Node1&#45;&gt;Node17 -->
<g id="edge25" class="edge">
<title>Node1&#45;&gt;Node17</title>
<path fill="none" stroke="midnightblue" d="M1042.7,-353.91C1085.53,-342.88 1134.51,-330.28 1176.29,-319.52"/>
<polygon fill="midnightblue" stroke="midnightblue" points="1041.62,-350.57 1032.81,-356.45 1043.37,-357.35 1041.62,-350.57"/>
</g>
<!-- Node3 -->
<g id="node3" class="node">
<title>Node3</title>
<g id="a_node3"><a xlink:href="variable__sensitivity__object__factory_8h.html" target="_top" xlink:title=" ">
<polygon fill="none" stroke="black" points="481.5,-89.5 481.5,-141.5 681.5,-141.5 681.5,-89.5 481.5,-89.5"/>
<text text-anchor="start" x="489.5" y="-129.5" font-family="Helvetica,sans-Serif" font-size="10.00">/home/runner/work/cbmc</text>
<text text-anchor="start" x="489.5" y="-118.5" font-family="Helvetica,sans-Serif" font-size="10.00">&#45;documentation/cbmc&#45;documentation</text>
<text text-anchor="start" x="489.5" y="-107.5" font-family="Helvetica,sans-Serif" font-size="10.00">/src/analyses/variable&#45;sensitivity</text>
<text text-anchor="middle" x="581.5" y="-96.5" font-family="Helvetica,sans-Serif" font-size="10.00">/variable_sensitivity_object_factory.h</text>
</a>
</g>
</g>
<!-- Node2&#45;&gt;Node3 -->
<g id="edge2" class="edge">
<title>Node2&#45;&gt;Node3</title>
<path fill="none" stroke="midnightblue" d="M435.62,-174.72C462.52,-163.98 492.82,-151.89 518.8,-141.52"/>
<polygon fill="midnightblue" stroke="midnightblue" points="434.25,-171.5 426.26,-178.45 436.85,-178 434.25,-171.5"/>
</g>
<!-- Node2&#45;&gt;Node7 -->
<g id="edge6" class="edge">
<title>Node2&#45;&gt;Node7</title>
<path fill="none" stroke="midnightblue" d="M473.93,-177.88C666.39,-148.59 719.71,-171.71 908.5,-142 911.38,-141.55 914.3,-141.06 917.24,-140.54"/>
<polygon fill="midnightblue" stroke="midnightblue" points="473.11,-174.47 463.76,-179.46 474.18,-181.38 473.11,-174.47"/>
</g>
<!-- Node8 -->
<g id="node8" class="node">
<title>Node8</title>
<g id="a_node8"><a xlink:href="constant__abstract__value_8cpp.html" target="_top" xlink:title=" ">
<polygon fill="none" stroke="black" points="263.5,-89.5 263.5,-141.5 463.5,-141.5 463.5,-89.5 263.5,-89.5"/>
<text text-anchor="start" x="271.5" y="-129.5" font-family="Helvetica,sans-Serif" font-size="10.00">/home/runner/work/cbmc</text>
<text text-anchor="start" x="271.5" y="-118.5" font-family="Helvetica,sans-Serif" font-size="10.00">&#45;documentation/cbmc&#45;documentation</text>
<text text-anchor="start" x="271.5" y="-107.5" font-family="Helvetica,sans-Serif" font-size="10.00">/src/analyses/variable&#45;sensitivity</text>
<text text-anchor="middle" x="363.5" y="-96.5" font-family="Helvetica,sans-Serif" font-size="10.00">/constant_abstract_value.cpp</text>
</a>
</g>
</g>
<!-- Node2&#45;&gt;Node8 -->
<g id="edge7" class="edge">
<title>Node2&#45;&gt;Node8</title>
<path fill="none" stroke="midnightblue" d="M363.5,-168.19C363.5,-159.28 363.5,-149.9 363.5,-141.61"/>
<polygon fill="midnightblue" stroke="midnightblue" points="360,-168.34 363.5,-178.34 367,-168.34 360,-168.34"/>
</g>
<!-- Node9 -->
<g id="node9" class="node">
<title>Node9</title>
<g id="a_node9"><a xlink:href="value__set__abstract__object_8cpp.html" target="_top" xlink:title=" ">
<polygon fill="none" stroke="black" points="699.5,-89.5 699.5,-141.5 899.5,-141.5 899.5,-89.5 699.5,-89.5"/>
<text text-anchor="start" x="707.5" y="-129.5" font-family="Helvetica,sans-Serif" font-size="10.00">/home/runner/work/cbmc</text>
<text text-anchor="start" x="707.5" y="-118.5" font-family="Helvetica,sans-Serif" font-size="10.00">&#45;documentation/cbmc&#45;documentation</text>
<text text-anchor="start" x="707.5" y="-107.5" font-family="Helvetica,sans-Serif" font-size="10.00">/src/analyses/variable&#45;sensitivity</text>
<text text-anchor="middle" x="799.5" y="-96.5" font-family="Helvetica,sans-Serif" font-size="10.00">/value_set_abstract_object.cpp</text>
</a>
</g>
</g>
<!-- Node2&#45;&gt;Node9 -->
<g id="edge8" class="edge">
<title>Node2&#45;&gt;Node9</title>
<path fill="none" stroke="midnightblue" d="M473.46,-177.87C570.52,-158.94 597.3,-160.58 690.5,-142 693.45,-141.41 696.45,-140.8 699.47,-140.17"/>
<polygon fill="midnightblue" stroke="midnightblue" points="472.66,-174.46 463.53,-179.83 474.02,-181.33 472.66,-174.46"/>
</g>
<!-- Node4 -->
<g id="node4" class="node">
<title>Node4</title>
<g id="a_node4"><a xlink:href="abstract__environment_8cpp.html" target="_top" xlink:title=" ">
<polygon fill="none" stroke="black" points="668.5,-0.5 668.5,-52.5 868.5,-52.5 868.5,-0.5 668.5,-0.5"/>
<text text-anchor="start" x="676.5" y="-40.5" font-family="Helvetica,sans-Serif" font-size="10.00">/home/runner/work/cbmc</text>
<text text-anchor="start" x="676.5" y="-29.5" font-family="Helvetica,sans-Serif" font-size="10.00">&#45;documentation/cbmc&#45;documentation</text>
<text text-anchor="start" x="676.5" y="-18.5" font-family="Helvetica,sans-Serif" font-size="10.00">/src/analyses/variable&#45;sensitivity</text>
<text text-anchor="middle" x="768.5" y="-7.5" font-family="Helvetica,sans-Serif" font-size="10.00">/abstract_environment.cpp</text>
</a>
</g>
</g>
<!-- Node3&#45;&gt;Node4 -->
<g id="edge3" class="edge">
<title>Node3&#45;&gt;Node4</title>
<path fill="none" stroke="midnightblue" d="M644.58,-85.15C667.35,-74.56 692.82,-62.71 714.72,-52.52"/>
<polygon fill="midnightblue" stroke="midnightblue" points="642.93,-82.06 635.34,-89.45 645.88,-88.41 642.93,-82.06"/>
</g>
<!-- Node5 -->
<g id="node5" class="node">
<title>Node5</title>
<g id="a_node5"><a xlink:href="variable__sensitivity__object__factory_8cpp.html" target="_top" xlink:title=" ">
<polygon fill="none" stroke="black" points="192,-0.5 192,-52.5 401,-52.5 401,-0.5 192,-0.5"/>
<text text-anchor="start" x="200" y="-40.5" font-family="Helvetica,sans-Serif" font-size="10.00">/home/runner/work/cbmc</text>
<text text-anchor="start" x="200" y="-29.5" font-family="Helvetica,sans-Serif" font-size="10.00">&#45;documentation/cbmc&#45;documentation</text>
<text text-anchor="start" x="200" y="-18.5" font-family="Helvetica,sans-Serif" font-size="10.00">/src/analyses/variable&#45;sensitivity</text>
<text text-anchor="middle" x="296.5" y="-7.5" font-family="Helvetica,sans-Serif" font-size="10.00">/variable_sensitivity_object_factory.cpp</text>
</a>
</g>
</g>
<!-- Node3&#45;&gt;Node5 -->
<g id="edge4" class="edge">
<title>Node3&#45;&gt;Node5</title>
<path fill="none" stroke="midnightblue" d="M489.51,-86.42C453.78,-75.51 413.18,-63.12 378.47,-52.52"/>
<polygon fill="midnightblue" stroke="midnightblue" points="488.86,-89.88 499.45,-89.45 490.91,-83.19 488.86,-89.88"/>
</g>
<!-- Node6 -->
<g id="node6" class="node">
<title>Node6</title>
<g id="a_node6"><a xlink:href="build__analyzer_8cpp.html" target="_top" xlink:title=" ">
<polygon fill="none" stroke="black" points="450.5,-6 450.5,-47 650.5,-47 650.5,-6 450.5,-6"/>
<text text-anchor="start" x="458.5" y="-35" font-family="Helvetica,sans-Serif" font-size="10.00">/home/runner/work/cbmc</text>
<text text-anchor="start" x="458.5" y="-24" font-family="Helvetica,sans-Serif" font-size="10.00">&#45;documentation/cbmc&#45;documentation</text>
<text text-anchor="middle" x="550.5" y="-13" font-family="Helvetica,sans-Serif" font-size="10.00">/src/goto&#45;analyzer/build_analyzer.cpp</text>
</a>
</g>
</g>
<!-- Node3&#45;&gt;Node6 -->
<g id="edge5" class="edge">
<title>Node3&#45;&gt;Node6</title>
<path fill="none" stroke="midnightblue" d="M569.15,-79.83C565.18,-68.69 560.92,-56.74 557.48,-47.08"/>
<polygon fill="midnightblue" stroke="midnightblue" points="565.88,-81.09 572.53,-89.34 572.47,-78.74 565.88,-81.09"/>
</g>
<!-- Node10&#45;&gt;Node3 -->
<g id="edge10" class="edge">
<title>Node10&#45;&gt;Node3</title>
<path fill="none" stroke="midnightblue" d="M907.54,-177.87C810.48,-158.94 783.7,-160.58 690.5,-142 687.55,-141.41 684.55,-140.8 681.53,-140.17"/>
<polygon fill="midnightblue" stroke="midnightblue" points="906.98,-181.33 917.47,-179.83 908.34,-174.46 906.98,-181.33"/>
</g>
<!-- Node10&#45;&gt;Node7 -->
<g id="edge11" class="edge">
<title>Node10&#45;&gt;Node7</title>
<path fill="none" stroke="midnightblue" d="M1017.5,-168.19C1017.5,-159.28 1017.5,-149.9 1017.5,-141.61"/>
<polygon fill="midnightblue" stroke="midnightblue" points="1014,-168.34 1017.5,-178.34 1021,-168.34 1014,-168.34"/>
</g>
<!-- Node10&#45;&gt;Node9 -->
<g id="edge13" class="edge">
<title>Node10&#45;&gt;Node9</title>
<path fill="none" stroke="midnightblue" d="M945.38,-174.72C918.48,-163.98 888.18,-151.89 862.2,-141.52"/>
<polygon fill="midnightblue" stroke="midnightblue" points="944.15,-178 954.74,-178.45 946.75,-171.5 944.15,-178"/>
</g>
<!-- Node11 -->
<g id="node11" class="node">
<title>Node11</title>
<g id="a_node11"><a xlink:href="interval__abstract__value_8cpp.html" target="_top" xlink:title=" ">
<polygon fill="none" stroke="black" points="1135.5,-89.5 1135.5,-141.5 1335.5,-141.5 1335.5,-89.5 1135.5,-89.5"/>
<text text-anchor="start" x="1143.5" y="-129.5" font-family="Helvetica,sans-Serif" font-size="10.00">/home/runner/work/cbmc</text>
<text text-anchor="start" x="1143.5" y="-118.5" font-family="Helvetica,sans-Serif" font-size="10.00">&#45;documentation/cbmc&#45;documentation</text>
<text text-anchor="start" x="1143.5" y="-107.5" font-family="Helvetica,sans-Serif" font-size="10.00">/src/analyses/variable&#45;sensitivity</text>
<text text-anchor="middle" x="1235.5" y="-96.5" font-family="Helvetica,sans-Serif" font-size="10.00">/interval_abstract_value.cpp</text>
</a>
</g>
</g>
<!-- Node10&#45;&gt;Node11 -->
<g id="edge12" class="edge">
<title>Node10&#45;&gt;Node11</title>
<path fill="none" stroke="midnightblue" d="M1089.62,-174.72C1116.52,-163.98 1146.82,-151.89 1172.8,-141.52"/>
<polygon fill="midnightblue" stroke="midnightblue" points="1088.25,-171.5 1080.26,-178.45 1090.85,-178 1088.25,-171.5"/>
</g>
<!-- Node12&#45;&gt;Node13 -->
<g id="edge15" class="edge">
<title>Node12&#45;&gt;Node13</title>
<path fill="none" stroke="midnightblue" d="M704.57,-262.07C721.82,-251.79 740.88,-240.43 757.37,-230.61"/>
<polygon fill="midnightblue" stroke="midnightblue" points="702.53,-259.21 695.73,-267.34 706.11,-265.22 702.53,-259.21"/>
</g>
<!-- Node14 -->
<g id="node14" class="node">
<title>Node14</title>
<g id="a_node14"><a xlink:href="abstract__object__set_8cpp.html" target="_top" xlink:title=" ">
<polygon fill="none" stroke="black" points="481.5,-178.5 481.5,-230.5 681.5,-230.5 681.5,-178.5 481.5,-178.5"/>
<text text-anchor="start" x="489.5" y="-218.5" font-family="Helvetica,sans-Serif" font-size="10.00">/home/runner/work/cbmc</text>
<text text-anchor="start" x="489.5" y="-207.5" font-family="Helvetica,sans-Serif" font-size="10.00">&#45;documentation/cbmc&#45;documentation</text>
<text text-anchor="start" x="489.5" y="-196.5" font-family="Helvetica,sans-Serif" font-size="10.00">/src/analyses/variable&#45;sensitivity</text>
<text text-anchor="middle" x="581.5" y="-185.5" font-family="Helvetica,sans-Serif" font-size="10.00">/abstract_object_set.cpp</text>
</a>
</g>
</g>
<!-- Node12&#45;&gt;Node14 -->
<g id="edge19" class="edge">
<title>Node12&#45;&gt;Node14</title>
<path fill="none" stroke="midnightblue" d="M626.19,-259.5C618.26,-249.92 609.74,-239.62 602.28,-230.61"/>
<polygon fill="midnightblue" stroke="midnightblue" points="623.6,-261.86 632.67,-267.34 629,-257.4 623.6,-261.86"/>
</g>
<!-- Node15 -->
<g id="node15" class="node">
<title>Node15</title>
<g id="a_node15"><a xlink:href="value__set__pointer__abstract__object_8h.html" target="_top" xlink:title=" ">
<polygon fill="none" stroke="black" points="45.5,-178.5 45.5,-230.5 245.5,-230.5 245.5,-178.5 45.5,-178.5"/>
<text text-anchor="start" x="53.5" y="-218.5" font-family="Helvetica,sans-Serif" font-size="10.00">/home/runner/work/cbmc</text>
<text text-anchor="start" x="53.5" y="-207.5" font-family="Helvetica,sans-Serif" font-size="10.00">&#45;documentation/cbmc&#45;documentation</text>
<text text-anchor="start" x="53.5" y="-196.5" font-family="Helvetica,sans-Serif" font-size="10.00">/src/analyses/variable&#45;sensitivity</text>
<text text-anchor="middle" x="145.5" y="-185.5" font-family="Helvetica,sans-Serif" font-size="10.00">/value_set_pointer_abstract_object.h</text>
</a>
</g>
</g>
<!-- Node12&#45;&gt;Node15 -->
<g id="edge20" class="edge">
<title>Node12&#45;&gt;Node15</title>
<path fill="none" stroke="midnightblue" d="M542.97,-277.79C462.66,-266.54 351.5,-249.79 254.5,-231 251.54,-230.43 248.54,-229.83 245.52,-229.21"/>
<polygon fill="midnightblue" stroke="midnightblue" points="542.72,-281.29 553.11,-279.2 543.69,-274.36 542.72,-281.29"/>
</g>
<!-- Node13&#45;&gt;Node3 -->
<g id="edge16" class="edge">
<title>Node13&#45;&gt;Node3</title>
<path fill="none" stroke="midnightblue" d="M727.38,-174.72C700.48,-163.98 670.18,-151.89 644.2,-141.52"/>
<polygon fill="midnightblue" stroke="midnightblue" points="726.15,-178 736.74,-178.45 728.75,-171.5 726.15,-178"/>
</g>
<!-- Node13&#45;&gt;Node7 -->
<g id="edge17" class="edge">
<title>Node13&#45;&gt;Node7</title>
<path fill="none" stroke="midnightblue" d="M871.62,-174.72C898.52,-163.98 928.82,-151.89 954.8,-141.52"/>
<polygon fill="midnightblue" stroke="midnightblue" points="870.25,-171.5 862.26,-178.45 872.85,-178 870.25,-171.5"/>
</g>
<!-- Node13&#45;&gt;Node9 -->
<g id="edge18" class="edge">
<title>Node13&#45;&gt;Node9</title>
<path fill="none" stroke="midnightblue" d="M799.5,-168.19C799.5,-159.28 799.5,-149.9 799.5,-141.61"/>
<polygon fill="midnightblue" stroke="midnightblue" points="796,-168.34 799.5,-178.34 803,-168.34 796,-168.34"/>
</g>
<!-- Node15&#45;&gt;Node5 -->
<g id="edge22" class="edge">
<title>Node15&#45;&gt;Node5</title>
<path fill="none" stroke="midnightblue" d="M185.06,-171.6C195.43,-162.5 206.27,-152.25 215.5,-142 222.61,-134.1 257.66,-83.77 279.26,-52.52"/>
<polygon fill="midnightblue" stroke="midnightblue" points="182.56,-169.14 177.27,-178.33 187.13,-174.45 182.56,-169.14"/>
</g>
<!-- Node16 -->
<g id="node16" class="node">
<title>Node16</title>
<g id="a_node16"><a xlink:href="value__set__pointer__abstract__object_8cpp.html" target="_top" xlink:title=" ">
<polygon fill="none" stroke="black" points="0,-89.5 0,-141.5 207,-141.5 207,-89.5 0,-89.5"/>
<text text-anchor="start" x="8" y="-129.5" font-family="Helvetica,sans-Serif" font-size="10.00">/home/runner/work/cbmc</text>
<text text-anchor="start" x="8" y="-118.5" font-family="Helvetica,sans-Serif" font-size="10.00">&#45;documentation/cbmc&#45;documentation</text>
<text text-anchor="start" x="8" y="-107.5" font-family="Helvetica,sans-Serif" font-size="10.00">/src/analyses/variable&#45;sensitivity</text>
<text text-anchor="middle" x="103.5" y="-96.5" font-family="Helvetica,sans-Serif" font-size="10.00">/value_set_pointer_abstract_object.cpp</text>
</a>
</g>
</g>
<!-- Node15&#45;&gt;Node16 -->
<g id="edge21" class="edge">
<title>Node15&#45;&gt;Node16</title>
<path fill="none" stroke="midnightblue" d="M128.87,-169.06C124.45,-159.9 119.75,-150.17 115.62,-141.61"/>
<polygon fill="midnightblue" stroke="midnightblue" points="125.85,-170.85 133.35,-178.34 132.16,-167.81 125.85,-170.85"/>
</g>
</g>
</svg>
