<?xml version="1.0" encoding="UTF-8" standalone="no"?>
<!DOCTYPE svg PUBLIC "-//W3C//DTD SVG 1.1//EN"
 "http://www.w3.org/Graphics/SVG/1.1/DTD/svg11.dtd">
<!-- Generated by graphviz version 2.43.0 (0)
 -->
<!-- Title: /home/runner/work/cbmc&#45;documentation/cbmc&#45;documentation/src/goto&#45;programs/adjust_float_expressions.h Pages: 1 -->
<svg width="3506pt" height="150pt"
 viewBox="0.00 0.00 3505.50 150.00" xmlns="http://www.w3.org/2000/svg" xmlns:xlink="http://www.w3.org/1999/xlink">
<g id="graph0" class="graph" transform="scale(1 1) rotate(0) translate(4 146)">
<title>/home/runner/work/cbmc&#45;documentation/cbmc&#45;documentation/src/goto&#45;programs/adjust_float_expressions.h</title>
<!-- Node1 -->
<g id="node1" class="node">
<title>Node1</title>
<g id="a_node1"><a xlink:title=" ">
<polygon fill="#bfbfbf" stroke="black" points="1652.5,-89.5 1652.5,-141.5 1852.5,-141.5 1852.5,-89.5 1652.5,-89.5"/>
<text text-anchor="start" x="1660.5" y="-129.5" font-family="Helvetica,sans-Serif" font-size="10.00">/home/runner/work/cbmc</text>
<text text-anchor="start" x="1660.5" y="-118.5" font-family="Helvetica,sans-Serif" font-size="10.00">&#45;documentation/cbmc&#45;documentation</text>
<text text-anchor="start" x="1660.5" y="-107.5" font-family="Helvetica,sans-Serif" font-size="10.00">/src/goto&#45;programs/adjust_float</text>
<text text-anchor="middle" x="1752.5" y="-96.5" font-family="Helvetica,sans-Serif" font-size="10.00">_expressions.h</text>
</a>
</g>
</g>
<!-- Node2 -->
<g id="node2" class="node">
<title>Node2</title>
<g id="a_node2"><a xlink:href="constant__propagator_8cpp.html" target="_top" xlink:title=" ">
<polygon fill="none" stroke="black" points="0,-6 0,-47 203,-47 203,-6 0,-6"/>
<text text-anchor="start" x="8" y="-35" font-family="Helvetica,sans-Serif" font-size="10.00">/home/runner/work/cbmc</text>
<text text-anchor="start" x="8" y="-24" font-family="Helvetica,sans-Serif" font-size="10.00">&#45;documentation/cbmc&#45;documentation</text>
<text text-anchor="middle" x="101.5" y="-13" font-family="Helvetica,sans-Serif" font-size="10.00">/src/analyses/constant_propagator.cpp</text>
</a>
</g>
</g>
<!-- Node1&#45;&gt;Node2 -->
<g id="edge1" class="edge">
<title>Node1&#45;&gt;Node2</title>
<path fill="none" stroke="midnightblue" d="M1642.25,-112.76C1337.7,-107.53 489.16,-89.98 212.5,-53 201.23,-51.49 189.42,-49.38 177.89,-47"/>
<polygon fill="midnightblue" stroke="midnightblue" points="1642.35,-116.26 1652.41,-112.93 1642.47,-109.26 1642.35,-116.26"/>
</g>
<!-- Node3 -->
<g id="node3" class="node">
<title>Node3</title>
<g id="a_node3"><a xlink:href="abstract__value__object_8cpp.html" target="_top" xlink:title=" ">
<polygon fill="none" stroke="black" points="221.5,-0.5 221.5,-52.5 421.5,-52.5 421.5,-0.5 221.5,-0.5"/>
<text text-anchor="start" x="229.5" y="-40.5" font-family="Helvetica,sans-Serif" font-size="10.00">/home/runner/work/cbmc</text>
<text text-anchor="start" x="229.5" y="-29.5" font-family="Helvetica,sans-Serif" font-size="10.00">&#45;documentation/cbmc&#45;documentation</text>
<text text-anchor="start" x="229.5" y="-18.5" font-family="Helvetica,sans-Serif" font-size="10.00">/src/analyses/variable&#45;sensitivity</text>
<text text-anchor="middle" x="321.5" y="-7.5" font-family="Helvetica,sans-Serif" font-size="10.00">/abstract_value_object.cpp</text>
</a>
</g>
</g>
<!-- Node1&#45;&gt;Node3 -->
<g id="edge2" class="edge">
<title>Node1&#45;&gt;Node3</title>
<path fill="none" stroke="midnightblue" d="M1641.75,-111.96C1367.69,-105.26 663.19,-85.35 430.5,-53 427.61,-52.6 424.69,-52.16 421.74,-51.68"/>
<polygon fill="midnightblue" stroke="midnightblue" points="1642.03,-115.47 1652.11,-112.21 1642.2,-108.47 1642.03,-115.47"/>
</g>
<!-- Node4 -->
<g id="node4" class="node">
<title>Node4</title>
<g id="a_node4"><a xlink:href="ansi__c__internal__additions_8cpp.html" target="_top" xlink:title=" ">
<polygon fill="none" stroke="black" points="440,-6 440,-47 653,-47 653,-6 440,-6"/>
<text text-anchor="start" x="448" y="-35" font-family="Helvetica,sans-Serif" font-size="10.00">/home/runner/work/cbmc</text>
<text text-anchor="start" x="448" y="-24" font-family="Helvetica,sans-Serif" font-size="10.00">&#45;documentation/cbmc&#45;documentation</text>
<text text-anchor="middle" x="546.5" y="-13" font-family="Helvetica,sans-Serif" font-size="10.00">/src/ansi&#45;c/ansi_c_internal_additions.cpp</text>
</a>
</g>
</g>
<!-- Node1&#45;&gt;Node4 -->
<g id="edge3" class="edge">
<title>Node1&#45;&gt;Node4</title>
<path fill="none" stroke="midnightblue" d="M1642.34,-114.09C1444.99,-112.08 1018.49,-101.85 662.5,-53 651.16,-51.44 639.29,-49.36 627.64,-47.06"/>
<polygon fill="midnightblue" stroke="midnightblue" points="1642.39,-117.59 1652.42,-114.19 1642.46,-110.59 1642.39,-117.59"/>
</g>
<!-- Node5 -->
<g id="node5" class="node">
<title>Node5</title>
<g id="a_node5"><a xlink:href="c__typecheck__expr_8cpp.html" target="_top" xlink:title=" ">
<polygon fill="none" stroke="black" points="671.5,-6 671.5,-47 871.5,-47 871.5,-6 671.5,-6"/>
<text text-anchor="start" x="679.5" y="-35" font-family="Helvetica,sans-Serif" font-size="10.00">/home/runner/work/cbmc</text>
<text text-anchor="start" x="679.5" y="-24" font-family="Helvetica,sans-Serif" font-size="10.00">&#45;documentation/cbmc&#45;documentation</text>
<text text-anchor="middle" x="771.5" y="-13" font-family="Helvetica,sans-Serif" font-size="10.00">/src/ansi&#45;c/c_typecheck_expr.cpp</text>
</a>
</g>
</g>
<!-- Node1&#45;&gt;Node5 -->
<g id="edge4" class="edge">
<title>Node1&#45;&gt;Node5</title>
<path fill="none" stroke="midnightblue" d="M1641.99,-112.34C1475.85,-107.83 1152.23,-94.1 880.5,-53 869.93,-51.4 858.87,-49.31 848.02,-47.02"/>
<polygon fill="midnightblue" stroke="midnightblue" points="1642.12,-115.85 1652.21,-112.61 1642.31,-108.85 1642.12,-115.85"/>
</g>
<!-- Node6 -->
<g id="node6" class="node">
<title>Node6</title>
<g id="a_node6"><a xlink:href="cpp__internal__additions_8cpp.html" target="_top" xlink:title=" ">
<polygon fill="none" stroke="black" points="889.5,-6 889.5,-47 1089.5,-47 1089.5,-6 889.5,-6"/>
<text text-anchor="start" x="897.5" y="-35" font-family="Helvetica,sans-Serif" font-size="10.00">/home/runner/work/cbmc</text>
<text text-anchor="start" x="897.5" y="-24" font-family="Helvetica,sans-Serif" font-size="10.00">&#45;documentation/cbmc&#45;documentation</text>
<text text-anchor="middle" x="989.5" y="-13" font-family="Helvetica,sans-Serif" font-size="10.00">/src/cpp/cpp_internal_additions.cpp</text>
</a>
</g>
</g>
<!-- Node1&#45;&gt;Node6 -->
<g id="edge5" class="edge">
<title>Node1&#45;&gt;Node6</title>
<path fill="none" stroke="midnightblue" d="M1642.24,-108.72C1511.76,-100.82 1288.27,-83.97 1098.5,-53 1088.33,-51.34 1077.71,-49.28 1067.24,-47.04"/>
<polygon fill="midnightblue" stroke="midnightblue" points="1642.05,-112.22 1652.24,-109.32 1642.47,-105.23 1642.05,-112.22"/>
</g>
<!-- Node7 -->
<g id="node7" class="node">
<title>Node7</title>
<g id="a_node7"><a xlink:href="full__slicer_8cpp.html" target="_top" xlink:title=" ">
<polygon fill="none" stroke="black" points="1107.5,-6 1107.5,-47 1307.5,-47 1307.5,-6 1107.5,-6"/>
<text text-anchor="start" x="1115.5" y="-35" font-family="Helvetica,sans-Serif" font-size="10.00">/home/runner/work/cbmc</text>
<text text-anchor="start" x="1115.5" y="-24" font-family="Helvetica,sans-Serif" font-size="10.00">&#45;documentation/cbmc&#45;documentation</text>
<text text-anchor="middle" x="1207.5" y="-13" font-family="Helvetica,sans-Serif" font-size="10.00">/src/goto&#45;instrument/full_slicer.cpp</text>
</a>
</g>
</g>
<!-- Node1&#45;&gt;Node7 -->
<g id="edge6" class="edge">
<title>Node1&#45;&gt;Node7</title>
<path fill="none" stroke="midnightblue" d="M1642.03,-101.7C1553.63,-90.78 1426.65,-73.61 1316.5,-53 1307.04,-51.23 1297.17,-49.19 1287.39,-47.05"/>
<polygon fill="midnightblue" stroke="midnightblue" points="1641.73,-105.19 1652.08,-102.93 1642.58,-98.24 1641.73,-105.19"/>
</g>
<!-- Node8 -->
<g id="node8" class="node">
<title>Node8</title>
<g id="a_node8"><a xlink:href="adjust__float__expressions_8cpp.html" target="_top" xlink:title=" ">
<polygon fill="none" stroke="black" points="1325.5,-0.5 1325.5,-52.5 1525.5,-52.5 1525.5,-0.5 1325.5,-0.5"/>
<text text-anchor="start" x="1333.5" y="-40.5" font-family="Helvetica,sans-Serif" font-size="10.00">/home/runner/work/cbmc</text>
<text text-anchor="start" x="1333.5" y="-29.5" font-family="Helvetica,sans-Serif" font-size="10.00">&#45;documentation/cbmc&#45;documentation</text>
<text text-anchor="start" x="1333.5" y="-18.5" font-family="Helvetica,sans-Serif" font-size="10.00">/src/goto&#45;programs/adjust_float</text>
<text text-anchor="middle" x="1425.5" y="-7.5" font-family="Helvetica,sans-Serif" font-size="10.00">_expressions.cpp</text>
</a>
</g>
</g>
<!-- Node1&#45;&gt;Node8 -->
<g id="edge7" class="edge">
<title>Node1&#45;&gt;Node8</title>
<path fill="none" stroke="midnightblue" d="M1648.53,-86.84C1607.15,-75.83 1559.88,-63.25 1519.54,-52.52"/>
<polygon fill="midnightblue" stroke="midnightblue" points="1647.79,-90.26 1658.36,-89.45 1649.59,-83.5 1647.79,-90.26"/>
</g>
<!-- Node9 -->
<g id="node9" class="node">
<title>Node9</title>
<g id="a_node9"><a xlink:href="process__goto__program_8cpp.html" target="_top" xlink:title=" ">
<polygon fill="none" stroke="black" points="1543.5,-0.5 1543.5,-52.5 1743.5,-52.5 1743.5,-0.5 1543.5,-0.5"/>
<text text-anchor="start" x="1551.5" y="-40.5" font-family="Helvetica,sans-Serif" font-size="10.00">/home/runner/work/cbmc</text>
<text text-anchor="start" x="1551.5" y="-29.5" font-family="Helvetica,sans-Serif" font-size="10.00">&#45;documentation/cbmc&#45;documentation</text>
<text text-anchor="start" x="1551.5" y="-18.5" font-family="Helvetica,sans-Serif" font-size="10.00">/src/goto&#45;programs/process_goto</text>
<text text-anchor="middle" x="1643.5" y="-7.5" font-family="Helvetica,sans-Serif" font-size="10.00">_program.cpp</text>
</a>
</g>
</g>
<!-- Node1&#45;&gt;Node9 -->
<g id="edge8" class="edge">
<title>Node1&#45;&gt;Node9</title>
<path fill="none" stroke="midnightblue" d="M1712.95,-82.93C1700.45,-72.96 1686.81,-62.07 1674.96,-52.61"/>
<polygon fill="midnightblue" stroke="midnightblue" points="1710.97,-85.83 1720.97,-89.34 1715.34,-80.36 1710.97,-85.83"/>
</g>
<!-- Node10 -->
<g id="node10" class="node">
<title>Node10</title>
<g id="a_node10"><a xlink:href="jsil__entry__point_8cpp.html" target="_top" xlink:title=" ">
<polygon fill="none" stroke="black" points="1761.5,-6 1761.5,-47 1961.5,-47 1961.5,-6 1761.5,-6"/>
<text text-anchor="start" x="1769.5" y="-35" font-family="Helvetica,sans-Serif" font-size="10.00">/home/runner/work/cbmc</text>
<text text-anchor="start" x="1769.5" y="-24" font-family="Helvetica,sans-Serif" font-size="10.00">&#45;documentation/cbmc&#45;documentation</text>
<text text-anchor="middle" x="1861.5" y="-13" font-family="Helvetica,sans-Serif" font-size="10.00">/src/jsil/jsil_entry_point.cpp</text>
</a>
</g>
</g>
<!-- Node1&#45;&gt;Node10 -->
<g id="edge9" class="edge">
<title>Node1&#45;&gt;Node10</title>
<path fill="none" stroke="midnightblue" d="M1792.16,-82.85C1807.15,-70.88 1823.76,-57.62 1836.97,-47.08"/>
<polygon fill="midnightblue" stroke="midnightblue" points="1789.66,-80.36 1784.03,-89.34 1794.03,-85.83 1789.66,-80.36"/>
</g>
<!-- Node11 -->
<g id="node11" class="node">
<title>Node11</title>
<g id="a_node11"><a xlink:href="jsil__internal__additions_8cpp.html" target="_top" xlink:title=" ">
<polygon fill="none" stroke="black" points="1979.5,-6 1979.5,-47 2179.5,-47 2179.5,-6 1979.5,-6"/>
<text text-anchor="start" x="1987.5" y="-35" font-family="Helvetica,sans-Serif" font-size="10.00">/home/runner/work/cbmc</text>
<text text-anchor="start" x="1987.5" y="-24" font-family="Helvetica,sans-Serif" font-size="10.00">&#45;documentation/cbmc&#45;documentation</text>
<text text-anchor="middle" x="2079.5" y="-13" font-family="Helvetica,sans-Serif" font-size="10.00">/src/jsil/jsil_internal_additions.cpp</text>
</a>
</g>
</g>
<!-- Node1&#45;&gt;Node11 -->
<g id="edge10" class="edge">
<title>Node1&#45;&gt;Node11</title>
<path fill="none" stroke="midnightblue" d="M1856.57,-86.81C1905.18,-73.88 1961.9,-58.79 2005.97,-47.06"/>
<polygon fill="midnightblue" stroke="midnightblue" points="1855.41,-83.5 1846.64,-89.45 1857.21,-90.26 1855.41,-83.5"/>
</g>
<!-- Node12 -->
<g id="node12" class="node">
<title>Node12</title>
<g id="a_node12"><a xlink:href="remove__internal__symbols_8cpp.html" target="_top" xlink:title=" ">
<polygon fill="none" stroke="black" points="2197.5,-0.5 2197.5,-52.5 2397.5,-52.5 2397.5,-0.5 2197.5,-0.5"/>
<text text-anchor="start" x="2205.5" y="-40.5" font-family="Helvetica,sans-Serif" font-size="10.00">/home/runner/work/cbmc</text>
<text text-anchor="start" x="2205.5" y="-29.5" font-family="Helvetica,sans-Serif" font-size="10.00">&#45;documentation/cbmc&#45;documentation</text>
<text text-anchor="start" x="2205.5" y="-18.5" font-family="Helvetica,sans-Serif" font-size="10.00">/src/linking/remove_internal</text>
<text text-anchor="middle" x="2297.5" y="-7.5" font-family="Helvetica,sans-Serif" font-size="10.00">_symbols.cpp</text>
</a>
</g>
</g>
<!-- Node1&#45;&gt;Node12 -->
<g id="edge11" class="edge">
<title>Node1&#45;&gt;Node12</title>
<path fill="none" stroke="midnightblue" d="M1862.97,-101.7C1951.37,-90.78 2078.35,-73.61 2188.5,-53 2191.46,-52.45 2194.46,-51.87 2197.49,-51.26"/>
<polygon fill="midnightblue" stroke="midnightblue" points="1862.42,-98.24 1852.92,-102.93 1863.27,-105.19 1862.42,-98.24"/>
</g>
<!-- Node13 -->
<g id="node13" class="node">
<title>Node13</title>
<g id="a_node13"><a xlink:href="statement__list__entry__point_8cpp.html" target="_top" xlink:title=" ">
<polygon fill="none" stroke="black" points="2415.5,-0.5 2415.5,-52.5 2615.5,-52.5 2615.5,-0.5 2415.5,-0.5"/>
<text text-anchor="start" x="2423.5" y="-40.5" font-family="Helvetica,sans-Serif" font-size="10.00">/home/runner/work/cbmc</text>
<text text-anchor="start" x="2423.5" y="-29.5" font-family="Helvetica,sans-Serif" font-size="10.00">&#45;documentation/cbmc&#45;documentation</text>
<text text-anchor="start" x="2423.5" y="-18.5" font-family="Helvetica,sans-Serif" font-size="10.00">/src/statement&#45;list/statement</text>
<text text-anchor="middle" x="2515.5" y="-7.5" font-family="Helvetica,sans-Serif" font-size="10.00">_list_entry_point.cpp</text>
</a>
</g>
</g>
<!-- Node1&#45;&gt;Node13 -->
<g id="edge12" class="edge">
<title>Node1&#45;&gt;Node13</title>
<path fill="none" stroke="midnightblue" d="M1862.76,-108.72C1993.24,-100.82 2216.73,-83.97 2406.5,-53 2409.38,-52.53 2412.29,-52.03 2415.23,-51.5"/>
<polygon fill="midnightblue" stroke="midnightblue" points="1862.53,-105.23 1852.76,-109.32 1862.95,-112.22 1862.53,-105.23"/>
</g>
<!-- Node14 -->
<g id="node14" class="node">
<title>Node14</title>
<g id="a_node14"><a xlink:href="java__bytecode__internal__additions_8cpp.html" target="_top" xlink:title=" ">
<polygon fill="none" stroke="black" points="2633.5,-0.5 2633.5,-52.5 2833.5,-52.5 2833.5,-0.5 2633.5,-0.5"/>
<text text-anchor="start" x="2641.5" y="-40.5" font-family="Helvetica,sans-Serif" font-size="10.00">/home/runner/work/cbmc</text>
<text text-anchor="start" x="2641.5" y="-29.5" font-family="Helvetica,sans-Serif" font-size="10.00">&#45;documentation/cbmc&#45;documentation</text>
<text text-anchor="start" x="2641.5" y="-18.5" font-family="Helvetica,sans-Serif" font-size="10.00">/jbmc/src/java_bytecode/java</text>
<text text-anchor="middle" x="2733.5" y="-7.5" font-family="Helvetica,sans-Serif" font-size="10.00">_bytecode_internal_additions.cpp</text>
</a>
</g>
</g>
<!-- Node1&#45;&gt;Node14 -->
<g id="edge13" class="edge">
<title>Node1&#45;&gt;Node14</title>
<path fill="none" stroke="midnightblue" d="M1863.01,-112.34C2029.15,-107.83 2352.77,-94.1 2624.5,-53 2627.38,-52.56 2630.3,-52.09 2633.24,-51.59"/>
<polygon fill="midnightblue" stroke="midnightblue" points="1862.69,-108.85 1852.79,-112.61 1862.88,-115.85 1862.69,-108.85"/>
</g>
<!-- Node15 -->
<g id="node15" class="node">
<title>Node15</title>
<g id="a_node15"><a xlink:href="java__entry__point_8cpp.html" target="_top" xlink:title=" ">
<polygon fill="none" stroke="black" points="2851.5,-0.5 2851.5,-52.5 3051.5,-52.5 3051.5,-0.5 2851.5,-0.5"/>
<text text-anchor="start" x="2859.5" y="-40.5" font-family="Helvetica,sans-Serif" font-size="10.00">/home/runner/work/cbmc</text>
<text text-anchor="start" x="2859.5" y="-29.5" font-family="Helvetica,sans-Serif" font-size="10.00">&#45;documentation/cbmc&#45;documentation</text>
<text text-anchor="start" x="2859.5" y="-18.5" font-family="Helvetica,sans-Serif" font-size="10.00">/jbmc/src/java_bytecode/java</text>
<text text-anchor="middle" x="2951.5" y="-7.5" font-family="Helvetica,sans-Serif" font-size="10.00">_entry_point.cpp</text>
</a>
</g>
</g>
<!-- Node1&#45;&gt;Node15 -->
<g id="edge14" class="edge">
<title>Node1&#45;&gt;Node15</title>
<path fill="none" stroke="midnightblue" d="M1862.73,-114.58C2060.19,-113.32 2486.85,-104.24 2842.5,-53 2845.39,-52.58 2848.31,-52.13 2851.25,-51.64"/>
<polygon fill="midnightblue" stroke="midnightblue" points="1862.62,-111.08 1852.64,-114.63 1862.66,-118.08 1862.62,-111.08"/>
</g>
<!-- Node16 -->
<g id="node16" class="node">
<title>Node16</title>
<g id="a_node16"><a xlink:href="jbmc__parse__options_8cpp.html" target="_top" xlink:title=" ">
<polygon fill="none" stroke="black" points="3070,-6 3070,-47 3279,-47 3279,-6 3070,-6"/>
<text text-anchor="start" x="3078" y="-35" font-family="Helvetica,sans-Serif" font-size="10.00">/home/runner/work/cbmc</text>
<text text-anchor="start" x="3078" y="-24" font-family="Helvetica,sans-Serif" font-size="10.00">&#45;documentation/cbmc&#45;documentation</text>
<text text-anchor="middle" x="3174.5" y="-13" font-family="Helvetica,sans-Serif" font-size="10.00">/jbmc/src/jbmc/jbmc_parse_options.cpp</text>
</a>
</g>
</g>
<!-- Node1&#45;&gt;Node16 -->
<g id="edge15" class="edge">
<title>Node1&#45;&gt;Node16</title>
<path fill="none" stroke="midnightblue" d="M1863.04,-111.77C2134.85,-104.64 2830.4,-83.91 3060.5,-53 3071.86,-51.47 3083.75,-49.38 3095.4,-47.04"/>
<polygon fill="midnightblue" stroke="midnightblue" points="1862.67,-108.27 1852.76,-112.03 1862.85,-115.27 1862.67,-108.27"/>
</g>
<!-- Node17 -->
<g id="node17" class="node">
<title>Node17</title>
<g id="a_node17"><a xlink:href="jdiff__parse__options_8cpp.html" target="_top" xlink:title=" ">
<polygon fill="none" stroke="black" points="3297.5,-6 3297.5,-47 3497.5,-47 3497.5,-6 3297.5,-6"/>
<text text-anchor="start" x="3305.5" y="-35" font-family="Helvetica,sans-Serif" font-size="10.00">/home/runner/work/cbmc</text>
<text text-anchor="start" x="3305.5" y="-24" font-family="Helvetica,sans-Serif" font-size="10.00">&#45;documentation/cbmc&#45;documentation</text>
<text text-anchor="middle" x="3397.5" y="-13" font-family="Helvetica,sans-Serif" font-size="10.00">/jbmc/src/jdiff/jdiff_parse_options.cpp</text>
</a>
</g>
</g>
<!-- Node1&#45;&gt;Node17 -->
<g id="edge16" class="edge">
<title>Node1&#45;&gt;Node17</title>
<path fill="none" stroke="midnightblue" d="M1862.74,-112.8C2166.75,-107.69 3012.71,-90.43 3288.5,-53 3299.57,-51.5 3311.17,-49.38 3322.5,-47.01"/>
<polygon fill="midnightblue" stroke="midnightblue" points="1862.54,-109.31 1852.6,-112.97 1862.65,-116.31 1862.54,-109.31"/>
</g>
</g>
</svg>
