<?xml version="1.0" encoding="UTF-8" standalone="no"?>
<!DOCTYPE svg PUBLIC "-//W3C//DTD SVG 1.1//EN"
 "http://www.w3.org/Graphics/SVG/1.1/DTD/svg11.dtd">
<!-- Generated by graphviz version 2.43.0 (0)
 -->
<!-- Title: /home/runner/work/cbmc&#45;documentation/cbmc&#45;documentation/src/ansi&#45;c/ansi_c_declaration.h Pages: 1 -->
<svg width="4512pt" height="384pt"
 viewBox="0.00 0.00 4512.00 384.00" xmlns="http://www.w3.org/2000/svg" xmlns:xlink="http://www.w3.org/1999/xlink">
<g id="graph0" class="graph" transform="scale(1 1) rotate(0) translate(4 380)">
<title>/home/runner/work/cbmc&#45;documentation/cbmc&#45;documentation/src/ansi&#45;c/ansi_c_declaration.h</title>
<!-- Node1 -->
<g id="node1" class="node">
<title>Node1</title>
<g id="a_node1"><a xlink:title=" ">
<polygon fill="#bfbfbf" stroke="black" points="3759,-334.5 3759,-375.5 3959,-375.5 3959,-334.5 3759,-334.5"/>
<text text-anchor="start" x="3767" y="-363.5" font-family="Helvetica,sans-Serif" font-size="10.00">/home/runner/work/cbmc</text>
<text text-anchor="start" x="3767" y="-352.5" font-family="Helvetica,sans-Serif" font-size="10.00">&#45;documentation/cbmc&#45;documentation</text>
<text text-anchor="middle" x="3859" y="-341.5" font-family="Helvetica,sans-Serif" font-size="10.00">/src/ansi&#45;c/ansi_c_declaration.h</text>
</a>
</g>
</g>
<!-- Node2 -->
<g id="node2" class="node">
<title>Node2</title>
<g id="a_node2"><a xlink:href="ansi__c__declaration_8cpp.html" target="_top" xlink:title=" ">
<polygon fill="none" stroke="black" points="3214,-256.5 3214,-297.5 3414,-297.5 3414,-256.5 3214,-256.5"/>
<text text-anchor="start" x="3222" y="-285.5" font-family="Helvetica,sans-Serif" font-size="10.00">/home/runner/work/cbmc</text>
<text text-anchor="start" x="3222" y="-274.5" font-family="Helvetica,sans-Serif" font-size="10.00">&#45;documentation/cbmc&#45;documentation</text>
<text text-anchor="middle" x="3314" y="-263.5" font-family="Helvetica,sans-Serif" font-size="10.00">/src/ansi&#45;c/ansi_c_declaration.cpp</text>
</a>
</g>
</g>
<!-- Node1&#45;&gt;Node2 -->
<g id="edge1" class="edge">
<title>Node1&#45;&gt;Node2</title>
<path fill="none" stroke="midnightblue" d="M3748.75,-341.5C3660.46,-331.09 3533.55,-315.23 3423,-298 3420.05,-297.54 3417.06,-297.06 3414.05,-296.57"/>
<polygon fill="midnightblue" stroke="midnightblue" points="3748.44,-344.99 3758.78,-342.68 3749.26,-338.03 3748.44,-344.99"/>
</g>
<!-- Node3 -->
<g id="node3" class="node">
<title>Node3</title>
<g id="a_node3"><a xlink:href="ansi__c__parse__tree_8h.html" target="_top" xlink:title=" ">
<polygon fill="none" stroke="black" points="3432,-256.5 3432,-297.5 3632,-297.5 3632,-256.5 3432,-256.5"/>
<text text-anchor="start" x="3440" y="-285.5" font-family="Helvetica,sans-Serif" font-size="10.00">/home/runner/work/cbmc</text>
<text text-anchor="start" x="3440" y="-274.5" font-family="Helvetica,sans-Serif" font-size="10.00">&#45;documentation/cbmc&#45;documentation</text>
<text text-anchor="middle" x="3532" y="-263.5" font-family="Helvetica,sans-Serif" font-size="10.00">/src/ansi&#45;c/ansi_c_parse_tree.h</text>
</a>
</g>
</g>
<!-- Node1&#45;&gt;Node3 -->
<g id="edge2" class="edge">
<title>Node1&#45;&gt;Node3</title>
<path fill="none" stroke="midnightblue" d="M3764.91,-332.13C3717.88,-321.2 3661.46,-308.09 3615.93,-297.51"/>
<polygon fill="midnightblue" stroke="midnightblue" points="3764.26,-335.57 3774.79,-334.43 3765.84,-328.76 3764.26,-335.57"/>
</g>
<!-- Node35 -->
<g id="node35" class="node">
<title>Node35</title>
<g id="a_node35"><a xlink:href="c__typecheck__base_8cpp.html" target="_top" xlink:title=" ">
<polygon fill="none" stroke="black" points="3650,-256.5 3650,-297.5 3850,-297.5 3850,-256.5 3650,-256.5"/>
<text text-anchor="start" x="3658" y="-285.5" font-family="Helvetica,sans-Serif" font-size="10.00">/home/runner/work/cbmc</text>
<text text-anchor="start" x="3658" y="-274.5" font-family="Helvetica,sans-Serif" font-size="10.00">&#45;documentation/cbmc&#45;documentation</text>
<text text-anchor="middle" x="3750" y="-263.5" font-family="Helvetica,sans-Serif" font-size="10.00">/src/ansi&#45;c/c_typecheck_base.cpp</text>
</a>
</g>
</g>
<!-- Node1&#45;&gt;Node35 -->
<g id="edge38" class="edge">
<title>Node1&#45;&gt;Node35</title>
<path fill="none" stroke="midnightblue" d="M3822.62,-328.64C3808.07,-318.49 3791.57,-306.98 3777.98,-297.51"/>
<polygon fill="midnightblue" stroke="midnightblue" points="3820.73,-331.58 3830.93,-334.43 3824.73,-325.84 3820.73,-331.58"/>
</g>
<!-- Node36 -->
<g id="node36" class="node">
<title>Node36</title>
<g id="a_node36"><a xlink:href="c__typecheck__code_8cpp.html" target="_top" xlink:title=" ">
<polygon fill="none" stroke="black" points="3868,-256.5 3868,-297.5 4068,-297.5 4068,-256.5 3868,-256.5"/>
<text text-anchor="start" x="3876" y="-285.5" font-family="Helvetica,sans-Serif" font-size="10.00">/home/runner/work/cbmc</text>
<text text-anchor="start" x="3876" y="-274.5" font-family="Helvetica,sans-Serif" font-size="10.00">&#45;documentation/cbmc&#45;documentation</text>
<text text-anchor="middle" x="3968" y="-263.5" font-family="Helvetica,sans-Serif" font-size="10.00">/src/ansi&#45;c/c_typecheck_code.cpp</text>
</a>
</g>
</g>
<!-- Node1&#45;&gt;Node36 -->
<g id="edge39" class="edge">
<title>Node1&#45;&gt;Node36</title>
<path fill="none" stroke="midnightblue" d="M3895.38,-328.64C3909.93,-318.49 3926.43,-306.98 3940.02,-297.51"/>
<polygon fill="midnightblue" stroke="midnightblue" points="3893.27,-325.84 3887.07,-334.43 3897.27,-331.58 3893.27,-325.84"/>
</g>
<!-- Node37 -->
<g id="node37" class="node">
<title>Node37</title>
<g id="a_node37"><a xlink:href="c__typecheck__expr_8cpp.html" target="_top" xlink:title=" ">
<polygon fill="none" stroke="black" points="4086,-256.5 4086,-297.5 4286,-297.5 4286,-256.5 4086,-256.5"/>
<text text-anchor="start" x="4094" y="-285.5" font-family="Helvetica,sans-Serif" font-size="10.00">/home/runner/work/cbmc</text>
<text text-anchor="start" x="4094" y="-274.5" font-family="Helvetica,sans-Serif" font-size="10.00">&#45;documentation/cbmc&#45;documentation</text>
<text text-anchor="middle" x="4186" y="-263.5" font-family="Helvetica,sans-Serif" font-size="10.00">/src/ansi&#45;c/c_typecheck_expr.cpp</text>
</a>
</g>
</g>
<!-- Node1&#45;&gt;Node37 -->
<g id="edge40" class="edge">
<title>Node1&#45;&gt;Node37</title>
<path fill="none" stroke="midnightblue" d="M3953.09,-332.13C4000.12,-321.2 4056.54,-308.09 4102.07,-297.51"/>
<polygon fill="midnightblue" stroke="midnightblue" points="3952.16,-328.76 3943.21,-334.43 3953.74,-335.57 3952.16,-328.76"/>
</g>
<!-- Node38 -->
<g id="node38" class="node">
<title>Node38</title>
<g id="a_node38"><a xlink:href="c__typecheck__type_8cpp.html" target="_top" xlink:title=" ">
<polygon fill="none" stroke="black" points="4304,-256.5 4304,-297.5 4504,-297.5 4504,-256.5 4304,-256.5"/>
<text text-anchor="start" x="4312" y="-285.5" font-family="Helvetica,sans-Serif" font-size="10.00">/home/runner/work/cbmc</text>
<text text-anchor="start" x="4312" y="-274.5" font-family="Helvetica,sans-Serif" font-size="10.00">&#45;documentation/cbmc&#45;documentation</text>
<text text-anchor="middle" x="4404" y="-263.5" font-family="Helvetica,sans-Serif" font-size="10.00">/src/ansi&#45;c/c_typecheck_type.cpp</text>
</a>
</g>
</g>
<!-- Node1&#45;&gt;Node38 -->
<g id="edge41" class="edge">
<title>Node1&#45;&gt;Node38</title>
<path fill="none" stroke="midnightblue" d="M3969.25,-341.5C4057.54,-331.09 4184.45,-315.23 4295,-298 4297.95,-297.54 4300.94,-297.06 4303.95,-296.57"/>
<polygon fill="midnightblue" stroke="midnightblue" points="3968.74,-338.03 3959.22,-342.68 3969.56,-344.99 3968.74,-338.03"/>
</g>
<!-- Node4 -->
<g id="node4" class="node">
<title>Node4</title>
<g id="a_node4"><a xlink:href="ansi__c__language_8h.html" target="_top" xlink:title=" ">
<polygon fill="none" stroke="black" points="1534,-178.5 1534,-219.5 1734,-219.5 1734,-178.5 1534,-178.5"/>
<text text-anchor="start" x="1542" y="-207.5" font-family="Helvetica,sans-Serif" font-size="10.00">/home/runner/work/cbmc</text>
<text text-anchor="start" x="1542" y="-196.5" font-family="Helvetica,sans-Serif" font-size="10.00">&#45;documentation/cbmc&#45;documentation</text>
<text text-anchor="middle" x="1634" y="-185.5" font-family="Helvetica,sans-Serif" font-size="10.00">/src/ansi&#45;c/ansi_c_language.h</text>
</a>
</g>
</g>
<!-- Node3&#45;&gt;Node4 -->
<g id="edge3" class="edge">
<title>Node3&#45;&gt;Node4</title>
<path fill="none" stroke="midnightblue" d="M3421.55,-255.95C3071.74,-220.33 2057.59,-205.19 1734.24,-201.16"/>
<polygon fill="midnightblue" stroke="midnightblue" points="3421.4,-259.46 3431.71,-257.01 3422.13,-252.49 3421.4,-259.46"/>
</g>
<!-- Node25 -->
<g id="node25" class="node">
<title>Node25</title>
<g id="a_node25"><a xlink:href="ansi__c__parser_8h.html" target="_top" xlink:title=" ">
<polygon fill="none" stroke="black" points="3323,-178.5 3323,-219.5 3523,-219.5 3523,-178.5 3323,-178.5"/>
<text text-anchor="start" x="3331" y="-207.5" font-family="Helvetica,sans-Serif" font-size="10.00">/home/runner/work/cbmc</text>
<text text-anchor="start" x="3331" y="-196.5" font-family="Helvetica,sans-Serif" font-size="10.00">&#45;documentation/cbmc&#45;documentation</text>
<text text-anchor="middle" x="3423" y="-185.5" font-family="Helvetica,sans-Serif" font-size="10.00">/src/ansi&#45;c/ansi_c_parser.h</text>
</a>
</g>
</g>
<!-- Node3&#45;&gt;Node25 -->
<g id="edge27" class="edge">
<title>Node3&#45;&gt;Node25</title>
<path fill="none" stroke="midnightblue" d="M3495.62,-250.64C3481.07,-240.49 3464.57,-228.98 3450.98,-219.51"/>
<polygon fill="midnightblue" stroke="midnightblue" points="3493.73,-253.58 3503.93,-256.43 3497.73,-247.84 3493.73,-253.58"/>
</g>
<!-- Node33 -->
<g id="node33" class="node">
<title>Node33</title>
<g id="a_node33"><a xlink:href="ansi__c__parse__tree_8cpp.html" target="_top" xlink:title=" ">
<polygon fill="none" stroke="black" points="3541,-178.5 3541,-219.5 3741,-219.5 3741,-178.5 3541,-178.5"/>
<text text-anchor="start" x="3549" y="-207.5" font-family="Helvetica,sans-Serif" font-size="10.00">/home/runner/work/cbmc</text>
<text text-anchor="start" x="3549" y="-196.5" font-family="Helvetica,sans-Serif" font-size="10.00">&#45;documentation/cbmc&#45;documentation</text>
<text text-anchor="middle" x="3641" y="-185.5" font-family="Helvetica,sans-Serif" font-size="10.00">/src/ansi&#45;c/ansi_c_parse_tree.cpp</text>
</a>
</g>
</g>
<!-- Node3&#45;&gt;Node33 -->
<g id="edge36" class="edge">
<title>Node3&#45;&gt;Node33</title>
<path fill="none" stroke="midnightblue" d="M3568.38,-250.64C3582.93,-240.49 3599.43,-228.98 3613.02,-219.51"/>
<polygon fill="midnightblue" stroke="midnightblue" points="3566.27,-247.84 3560.07,-256.43 3570.27,-253.58 3566.27,-247.84"/>
</g>
<!-- Node34 -->
<g id="node34" class="node">
<title>Node34</title>
<g id="a_node34"><a xlink:href="ansi__c__typecheck_8cpp.html" target="_top" xlink:title=" ">
<polygon fill="none" stroke="black" points="3759,-178.5 3759,-219.5 3959,-219.5 3959,-178.5 3759,-178.5"/>
<text text-anchor="start" x="3767" y="-207.5" font-family="Helvetica,sans-Serif" font-size="10.00">/home/runner/work/cbmc</text>
<text text-anchor="start" x="3767" y="-196.5" font-family="Helvetica,sans-Serif" font-size="10.00">&#45;documentation/cbmc&#45;documentation</text>
<text text-anchor="middle" x="3859" y="-185.5" font-family="Helvetica,sans-Serif" font-size="10.00">/src/ansi&#45;c/ansi_c_typecheck.cpp</text>
</a>
</g>
</g>
<!-- Node3&#45;&gt;Node34 -->
<g id="edge37" class="edge">
<title>Node3&#45;&gt;Node34</title>
<path fill="none" stroke="midnightblue" d="M3626.09,-254.13C3673.12,-243.2 3729.54,-230.09 3775.07,-219.51"/>
<polygon fill="midnightblue" stroke="midnightblue" points="3625.16,-250.76 3616.21,-256.43 3626.74,-257.57 3625.16,-250.76"/>
</g>
<!-- Node5 -->
<g id="node5" class="node">
<title>Node5</title>
<g id="a_node5"><a xlink:href="ansi__c__language_8cpp.html" target="_top" xlink:title=" ">
<polygon fill="none" stroke="black" points="2996,-95 2996,-136 3196,-136 3196,-95 2996,-95"/>
<text text-anchor="start" x="3004" y="-124" font-family="Helvetica,sans-Serif" font-size="10.00">/home/runner/work/cbmc</text>
<text text-anchor="start" x="3004" y="-113" font-family="Helvetica,sans-Serif" font-size="10.00">&#45;documentation/cbmc&#45;documentation</text>
<text text-anchor="middle" x="3096" y="-102" font-family="Helvetica,sans-Serif" font-size="10.00">/src/ansi&#45;c/ansi_c_language.cpp</text>
</a>
</g>
</g>
<!-- Node4&#45;&gt;Node5 -->
<g id="edge4" class="edge">
<title>Node4&#45;&gt;Node5</title>
<path fill="none" stroke="midnightblue" d="M1744.4,-196.11C2022.74,-190.92 2747.99,-174.61 2987,-142 2997.98,-140.5 3009.47,-138.41 3020.7,-136.06"/>
<polygon fill="midnightblue" stroke="midnightblue" points="1744.22,-192.62 1734.29,-196.3 1744.35,-199.61 1744.22,-192.62"/>
</g>
<!-- Node6 -->
<g id="node6" class="node">
<title>Node6</title>
<g id="a_node6"><a xlink:href="ansi-c_2cprover__library_8cpp.html" target="_top" xlink:title=" ">
<polygon fill="none" stroke="black" points="2086,-95 2086,-136 2286,-136 2286,-95 2086,-95"/>
<text text-anchor="start" x="2094" y="-124" font-family="Helvetica,sans-Serif" font-size="10.00">/home/runner/work/cbmc</text>
<text text-anchor="start" x="2094" y="-113" font-family="Helvetica,sans-Serif" font-size="10.00">&#45;documentation/cbmc&#45;documentation</text>
<text text-anchor="middle" x="2186" y="-102" font-family="Helvetica,sans-Serif" font-size="10.00">/src/ansi&#45;c/cprover_library.cpp</text>
</a>
</g>
</g>
<!-- Node4&#45;&gt;Node6 -->
<g id="edge5" class="edge">
<title>Node4&#45;&gt;Node6</title>
<path fill="none" stroke="midnightblue" d="M1744.51,-187.26C1834.43,-177.74 1964.41,-162.23 2077,-142 2086.66,-140.26 2096.75,-138.22 2106.73,-136.06"/>
<polygon fill="midnightblue" stroke="midnightblue" points="1743.88,-183.81 1734.3,-188.33 1744.61,-190.77 1743.88,-183.81"/>
</g>
<!-- Node7 -->
<g id="node7" class="node">
<title>Node7</title>
<g id="a_node7"><a xlink:href="cbmc__parse__options_8h.html" target="_top" xlink:title=" ">
<polygon fill="none" stroke="black" points="2304,-95 2304,-136 2504,-136 2504,-95 2304,-95"/>
<text text-anchor="start" x="2312" y="-124" font-family="Helvetica,sans-Serif" font-size="10.00">/home/runner/work/cbmc</text>
<text text-anchor="start" x="2312" y="-113" font-family="Helvetica,sans-Serif" font-size="10.00">&#45;documentation/cbmc&#45;documentation</text>
<text text-anchor="middle" x="2404" y="-102" font-family="Helvetica,sans-Serif" font-size="10.00">/src/cbmc/cbmc_parse_options.h</text>
</a>
</g>
</g>
<!-- Node4&#45;&gt;Node7 -->
<g id="edge6" class="edge">
<title>Node4&#45;&gt;Node7</title>
<path fill="none" stroke="midnightblue" d="M1744.31,-193.56C1876.02,-187.13 2102.66,-172.48 2295,-142 2305.37,-140.36 2316.21,-138.27 2326.86,-136.01"/>
<polygon fill="midnightblue" stroke="midnightblue" points="1744.03,-190.07 1734.21,-194.05 1744.37,-197.06 1744.03,-190.07"/>
</g>
<!-- Node8 -->
<g id="node8" class="node">
<title>Node8</title>
<g id="a_node8"><a xlink:href="cbmc__languages_8cpp.html" target="_top" xlink:title=" ">
<polygon fill="none" stroke="black" points="2477,-6 2477,-47 2677,-47 2677,-6 2477,-6"/>
<text text-anchor="start" x="2485" y="-35" font-family="Helvetica,sans-Serif" font-size="10.00">/home/runner/work/cbmc</text>
<text text-anchor="start" x="2485" y="-24" font-family="Helvetica,sans-Serif" font-size="10.00">&#45;documentation/cbmc&#45;documentation</text>
<text text-anchor="middle" x="2577" y="-13" font-family="Helvetica,sans-Serif" font-size="10.00">/src/cbmc/cbmc_languages.cpp</text>
</a>
</g>
</g>
<!-- Node4&#45;&gt;Node8 -->
<g id="edge10" class="edge">
<title>Node4&#45;&gt;Node8</title>
<path fill="none" stroke="midnightblue" d="M1744.15,-196.82C1965.67,-193.61 2449.46,-182.05 2513,-142 2530.63,-130.89 2555.76,-77.15 2568.66,-47.41"/>
<polygon fill="midnightblue" stroke="midnightblue" points="1744.07,-193.32 1734.12,-196.96 1744.17,-200.32 1744.07,-193.32"/>
</g>
<!-- Node11 -->
<g id="node11" class="node">
<title>Node11</title>
<g id="a_node11"><a xlink:href="goto__analyzer__languages_8cpp.html" target="_top" xlink:title=" ">
<polygon fill="none" stroke="black" points="2560,-89.5 2560,-141.5 2760,-141.5 2760,-89.5 2560,-89.5"/>
<text text-anchor="start" x="2568" y="-129.5" font-family="Helvetica,sans-Serif" font-size="10.00">/home/runner/work/cbmc</text>
<text text-anchor="start" x="2568" y="-118.5" font-family="Helvetica,sans-Serif" font-size="10.00">&#45;documentation/cbmc&#45;documentation</text>
<text text-anchor="start" x="2568" y="-107.5" font-family="Helvetica,sans-Serif" font-size="10.00">/src/goto&#45;analyzer/goto_analyzer</text>
<text text-anchor="middle" x="2660" y="-96.5" font-family="Helvetica,sans-Serif" font-size="10.00">_languages.cpp</text>
</a>
</g>
</g>
<!-- Node4&#45;&gt;Node11 -->
<g id="edge11" class="edge">
<title>Node4&#45;&gt;Node11</title>
<path fill="none" stroke="midnightblue" d="M1744.12,-196.87C1916.12,-193.83 2258.6,-182.7 2546,-142 2550.52,-141.36 2555.12,-140.64 2559.76,-139.85"/>
<polygon fill="midnightblue" stroke="midnightblue" points="1743.99,-193.37 1734.05,-197.04 1744.11,-200.37 1743.99,-193.37"/>
</g>
<!-- Node12 -->
<g id="node12" class="node">
<title>Node12</title>
<g id="a_node12"><a xlink:href="goto__cc__languages_8cpp.html" target="_top" xlink:title=" ">
<polygon fill="none" stroke="black" points="2778,-95 2778,-136 2978,-136 2978,-95 2778,-95"/>
<text text-anchor="start" x="2786" y="-124" font-family="Helvetica,sans-Serif" font-size="10.00">/home/runner/work/cbmc</text>
<text text-anchor="start" x="2786" y="-113" font-family="Helvetica,sans-Serif" font-size="10.00">&#45;documentation/cbmc&#45;documentation</text>
<text text-anchor="middle" x="2878" y="-102" font-family="Helvetica,sans-Serif" font-size="10.00">/src/goto&#45;cc/goto_cc_languages.cpp</text>
</a>
</g>
</g>
<!-- Node4&#45;&gt;Node12 -->
<g id="edge12" class="edge">
<title>Node4&#45;&gt;Node12</title>
<path fill="none" stroke="midnightblue" d="M1744.3,-195.1C1989.47,-188.23 2573.41,-169.47 2769,-142 2779.87,-140.47 2791.26,-138.38 2802.4,-136.04"/>
<polygon fill="midnightblue" stroke="midnightblue" points="1744.2,-191.6 1734.3,-195.37 1744.4,-198.59 1744.2,-191.6"/>
</g>
<!-- Node13 -->
<g id="node13" class="node">
<title>Node13</title>
<g id="a_node13"><a xlink:href="goto__diff__languages_8cpp.html" target="_top" xlink:title=" ">
<polygon fill="none" stroke="black" points="0,-95 0,-136 200,-136 200,-95 0,-95"/>
<text text-anchor="start" x="8" y="-124" font-family="Helvetica,sans-Serif" font-size="10.00">/home/runner/work/cbmc</text>
<text text-anchor="start" x="8" y="-113" font-family="Helvetica,sans-Serif" font-size="10.00">&#45;documentation/cbmc&#45;documentation</text>
<text text-anchor="middle" x="100" y="-102" font-family="Helvetica,sans-Serif" font-size="10.00">/src/goto&#45;diff/goto_diff_languages.cpp</text>
</a>
</g>
</g>
<!-- Node4&#45;&gt;Node13 -->
<g id="edge13" class="edge">
<title>Node4&#45;&gt;Node13</title>
<path fill="none" stroke="midnightblue" d="M1523.91,-196.39C1235.47,-191.72 462.54,-176.32 209,-142 197.93,-140.5 186.33,-138.39 175,-136.01"/>
<polygon fill="midnightblue" stroke="midnightblue" points="1523.91,-199.89 1533.97,-196.55 1524.03,-192.89 1523.91,-199.89"/>
</g>
<!-- Node14 -->
<g id="node14" class="node">
<title>Node14</title>
<g id="a_node14"><a xlink:href="memory__predicates_8cpp.html" target="_top" xlink:title=" ">
<polygon fill="none" stroke="black" points="218,-89.5 218,-141.5 418,-141.5 418,-89.5 218,-89.5"/>
<text text-anchor="start" x="226" y="-129.5" font-family="Helvetica,sans-Serif" font-size="10.00">/home/runner/work/cbmc</text>
<text text-anchor="start" x="226" y="-118.5" font-family="Helvetica,sans-Serif" font-size="10.00">&#45;documentation/cbmc&#45;documentation</text>
<text text-anchor="start" x="226" y="-107.5" font-family="Helvetica,sans-Serif" font-size="10.00">/src/goto&#45;instrument/contracts</text>
<text text-anchor="middle" x="318" y="-96.5" font-family="Helvetica,sans-Serif" font-size="10.00">/memory_predicates.cpp</text>
</a>
</g>
</g>
<!-- Node4&#45;&gt;Node14 -->
<g id="edge14" class="edge">
<title>Node4&#45;&gt;Node14</title>
<path fill="none" stroke="midnightblue" d="M1523.75,-195.31C1268.16,-188.68 641.05,-170.03 432,-142 427.48,-141.39 422.87,-140.7 418.23,-139.93"/>
<polygon fill="midnightblue" stroke="midnightblue" points="1523.71,-198.81 1533.8,-195.57 1523.89,-191.81 1523.71,-198.81"/>
</g>
<!-- Node15 -->
<g id="node15" class="node">
<title>Node15</title>
<g id="a_node15"><a xlink:href="goto__instrument__parse__options_8h.html" target="_top" xlink:title=" ">
<polygon fill="none" stroke="black" points="474,-89.5 474,-141.5 674,-141.5 674,-89.5 474,-89.5"/>
<text text-anchor="start" x="482" y="-129.5" font-family="Helvetica,sans-Serif" font-size="10.00">/home/runner/work/cbmc</text>
<text text-anchor="start" x="482" y="-118.5" font-family="Helvetica,sans-Serif" font-size="10.00">&#45;documentation/cbmc&#45;documentation</text>
<text text-anchor="start" x="482" y="-107.5" font-family="Helvetica,sans-Serif" font-size="10.00">/src/goto&#45;instrument/goto_instrument</text>
<text text-anchor="middle" x="574" y="-96.5" font-family="Helvetica,sans-Serif" font-size="10.00">_parse_options.h</text>
</a>
</g>
</g>
<!-- Node4&#45;&gt;Node15 -->
<g id="edge15" class="edge">
<title>Node4&#45;&gt;Node15</title>
<path fill="none" stroke="midnightblue" d="M1523.6,-197.21C1346.49,-194.66 988.26,-184.19 688,-142 683.48,-141.37 678.88,-140.64 674.23,-139.86"/>
<polygon fill="midnightblue" stroke="midnightblue" points="1523.66,-200.71 1533.71,-197.35 1523.76,-193.71 1523.66,-200.71"/>
</g>
<!-- Node16 -->
<g id="node16" class="node">
<title>Node16</title>
<g id="a_node16"><a xlink:href="goto__instrument__languages_8cpp.html" target="_top" xlink:title=" ">
<polygon fill="none" stroke="black" points="231,-0.5 231,-52.5 431,-52.5 431,-0.5 231,-0.5"/>
<text text-anchor="start" x="239" y="-40.5" font-family="Helvetica,sans-Serif" font-size="10.00">/home/runner/work/cbmc</text>
<text text-anchor="start" x="239" y="-29.5" font-family="Helvetica,sans-Serif" font-size="10.00">&#45;documentation/cbmc&#45;documentation</text>
<text text-anchor="start" x="239" y="-18.5" font-family="Helvetica,sans-Serif" font-size="10.00">/src/goto&#45;instrument/goto_instrument</text>
<text text-anchor="middle" x="331" y="-7.5" font-family="Helvetica,sans-Serif" font-size="10.00">_languages.cpp</text>
</a>
</g>
</g>
<!-- Node4&#45;&gt;Node16 -->
<g id="edge19" class="edge">
<title>Node4&#45;&gt;Node16</title>
<path fill="none" stroke="midnightblue" d="M1523.65,-198.14C1250.16,-197.73 556.41,-191.74 465,-142 439.54,-128.15 448.02,-108.95 427,-89 412.5,-75.24 394.5,-62.76 378.01,-52.7"/>
<polygon fill="midnightblue" stroke="midnightblue" points="1523.99,-201.64 1533.99,-198.16 1524,-194.64 1523.99,-201.64"/>
</g>
<!-- Node18 -->
<g id="node18" class="node">
<title>Node18</title>
<g id="a_node18"><a xlink:href="goto__instrument__parse__options_8cpp.html" target="_top" xlink:title=" ">
<polygon fill="none" stroke="black" points="717,-0.5 717,-52.5 917,-52.5 917,-0.5 717,-0.5"/>
<text text-anchor="start" x="725" y="-40.5" font-family="Helvetica,sans-Serif" font-size="10.00">/home/runner/work/cbmc</text>
<text text-anchor="start" x="725" y="-29.5" font-family="Helvetica,sans-Serif" font-size="10.00">&#45;documentation/cbmc&#45;documentation</text>
<text text-anchor="start" x="725" y="-18.5" font-family="Helvetica,sans-Serif" font-size="10.00">/src/goto&#45;instrument/goto_instrument</text>
<text text-anchor="middle" x="817" y="-7.5" font-family="Helvetica,sans-Serif" font-size="10.00">_parse_options.cpp</text>
</a>
</g>
</g>
<!-- Node4&#45;&gt;Node18 -->
<g id="edge20" class="edge">
<title>Node4&#45;&gt;Node18</title>
<path fill="none" stroke="midnightblue" d="M1523.77,-195.23C1286.83,-188.72 748.12,-170.83 721,-142 704.86,-124.84 709.7,-109.67 721,-89 729.31,-73.81 743.16,-61.81 757.78,-52.61"/>
<polygon fill="midnightblue" stroke="midnightblue" points="1523.7,-198.72 1533.79,-195.5 1523.89,-191.73 1523.7,-198.72"/>
</g>
<!-- Node19 -->
<g id="node19" class="node">
<title>Node19</title>
<g id="a_node19"><a xlink:href="model__argc__argv_8cpp.html" target="_top" xlink:title=" ">
<polygon fill="none" stroke="black" points="730,-95 730,-136 952,-136 952,-95 730,-95"/>
<text text-anchor="start" x="738" y="-124" font-family="Helvetica,sans-Serif" font-size="10.00">/home/runner/work/cbmc</text>
<text text-anchor="start" x="738" y="-113" font-family="Helvetica,sans-Serif" font-size="10.00">&#45;documentation/cbmc&#45;documentation</text>
<text text-anchor="middle" x="841" y="-102" font-family="Helvetica,sans-Serif" font-size="10.00">/src/goto&#45;instrument/model_argc_argv.cpp</text>
</a>
</g>
</g>
<!-- Node4&#45;&gt;Node19 -->
<g id="edge21" class="edge">
<title>Node4&#45;&gt;Node19</title>
<path fill="none" stroke="midnightblue" d="M1523.7,-193.03C1390.17,-186.04 1158.72,-170.81 962,-142 950.64,-140.34 938.74,-138.25 927.02,-136"/>
<polygon fill="midnightblue" stroke="midnightblue" points="1523.77,-196.54 1533.93,-193.56 1524.13,-189.55 1523.77,-196.54"/>
</g>
<!-- Node20 -->
<g id="node20" class="node">
<title>Node20</title>
<g id="a_node20"><a xlink:href="memory__analyzer__parse__options_8cpp.html" target="_top" xlink:title=" ">
<polygon fill="none" stroke="black" points="970.5,-89.5 970.5,-141.5 1185.5,-141.5 1185.5,-89.5 970.5,-89.5"/>
<text text-anchor="start" x="978.5" y="-129.5" font-family="Helvetica,sans-Serif" font-size="10.00">/home/runner/work/cbmc</text>
<text text-anchor="start" x="978.5" y="-118.5" font-family="Helvetica,sans-Serif" font-size="10.00">&#45;documentation/cbmc&#45;documentation</text>
<text text-anchor="start" x="978.5" y="-107.5" font-family="Helvetica,sans-Serif" font-size="10.00">/src/memory&#45;analyzer/memory_analyzer</text>
<text text-anchor="middle" x="1078" y="-96.5" font-family="Helvetica,sans-Serif" font-size="10.00">_parse_options.cpp</text>
</a>
</g>
</g>
<!-- Node4&#45;&gt;Node20 -->
<g id="edge22" class="edge">
<title>Node4&#45;&gt;Node20</title>
<path fill="none" stroke="midnightblue" d="M1523.7,-186.64C1434.67,-176.82 1306.36,-161.2 1195,-142 1191.93,-141.47 1188.81,-140.91 1185.67,-140.34"/>
<polygon fill="midnightblue" stroke="midnightblue" points="1523.49,-190.14 1533.81,-187.75 1524.25,-183.18 1523.49,-190.14"/>
</g>
<!-- Node21 -->
<g id="node21" class="node">
<title>Node21</title>
<g id="a_node21"><a xlink:href="symtab2gb__parse__options_8cpp.html" target="_top" xlink:title=" ">
<polygon fill="none" stroke="black" points="1204,-89.5 1204,-141.5 1404,-141.5 1404,-89.5 1204,-89.5"/>
<text text-anchor="start" x="1212" y="-129.5" font-family="Helvetica,sans-Serif" font-size="10.00">/home/runner/work/cbmc</text>
<text text-anchor="start" x="1212" y="-118.5" font-family="Helvetica,sans-Serif" font-size="10.00">&#45;documentation/cbmc&#45;documentation</text>
<text text-anchor="start" x="1212" y="-107.5" font-family="Helvetica,sans-Serif" font-size="10.00">/src/symtab2gb/symtab2gb_parse</text>
<text text-anchor="middle" x="1304" y="-96.5" font-family="Helvetica,sans-Serif" font-size="10.00">_options.cpp</text>
</a>
</g>
</g>
<!-- Node4&#45;&gt;Node21 -->
<g id="edge23" class="edge">
<title>Node4&#45;&gt;Node21</title>
<path fill="none" stroke="midnightblue" d="M1545.23,-176.08C1501.66,-165.32 1449,-152.31 1404.01,-141.2"/>
<polygon fill="midnightblue" stroke="midnightblue" points="1544.41,-179.48 1554.96,-178.48 1546.09,-172.68 1544.41,-179.48"/>
</g>
<!-- Node22 -->
<g id="node22" class="node">
<title>Node22</title>
<g id="a_node22"><a xlink:href="janalyzer__parse__options_8cpp.html" target="_top" xlink:title=" ">
<polygon fill="none" stroke="black" points="1422,-89.5 1422,-141.5 1622,-141.5 1622,-89.5 1422,-89.5"/>
<text text-anchor="start" x="1430" y="-129.5" font-family="Helvetica,sans-Serif" font-size="10.00">/home/runner/work/cbmc</text>
<text text-anchor="start" x="1430" y="-118.5" font-family="Helvetica,sans-Serif" font-size="10.00">&#45;documentation/cbmc&#45;documentation</text>
<text text-anchor="start" x="1430" y="-107.5" font-family="Helvetica,sans-Serif" font-size="10.00">/jbmc/src/janalyzer/janalyzer</text>
<text text-anchor="middle" x="1522" y="-96.5" font-family="Helvetica,sans-Serif" font-size="10.00">_parse_options.cpp</text>
</a>
</g>
</g>
<!-- Node4&#45;&gt;Node22 -->
<g id="edge24" class="edge">
<title>Node4&#45;&gt;Node22</title>
<path fill="none" stroke="midnightblue" d="M1599.05,-172.57C1585.55,-162.74 1570.14,-151.53 1556.67,-141.73"/>
<polygon fill="midnightblue" stroke="midnightblue" points="1597.03,-175.42 1607.17,-178.48 1601.15,-169.76 1597.03,-175.42"/>
</g>
<!-- Node23 -->
<g id="node23" class="node">
<title>Node23</title>
<g id="a_node23"><a xlink:href="jbmc__parse__options_8cpp.html" target="_top" xlink:title=" ">
<polygon fill="none" stroke="black" points="1640.5,-95 1640.5,-136 1849.5,-136 1849.5,-95 1640.5,-95"/>
<text text-anchor="start" x="1648.5" y="-124" font-family="Helvetica,sans-Serif" font-size="10.00">/home/runner/work/cbmc</text>
<text text-anchor="start" x="1648.5" y="-113" font-family="Helvetica,sans-Serif" font-size="10.00">&#45;documentation/cbmc&#45;documentation</text>
<text text-anchor="middle" x="1745" y="-102" font-family="Helvetica,sans-Serif" font-size="10.00">/jbmc/src/jbmc/jbmc_parse_options.cpp</text>
</a>
</g>
</g>
<!-- Node4&#45;&gt;Node23 -->
<g id="edge25" class="edge">
<title>Node4&#45;&gt;Node23</title>
<path fill="none" stroke="midnightblue" d="M1668.67,-172.54C1684.67,-160.8 1703.36,-147.07 1718.24,-136.14"/>
<polygon fill="midnightblue" stroke="midnightblue" points="1666.58,-169.74 1660.59,-178.48 1670.72,-175.38 1666.58,-169.74"/>
</g>
<!-- Node24 -->
<g id="node24" class="node">
<title>Node24</title>
<g id="a_node24"><a xlink:href="get__goto__model__from__c_8cpp.html" target="_top" xlink:title=" ">
<polygon fill="none" stroke="black" points="1868,-89.5 1868,-141.5 2068,-141.5 2068,-89.5 1868,-89.5"/>
<text text-anchor="start" x="1876" y="-129.5" font-family="Helvetica,sans-Serif" font-size="10.00">/home/runner/work/cbmc</text>
<text text-anchor="start" x="1876" y="-118.5" font-family="Helvetica,sans-Serif" font-size="10.00">&#45;documentation/cbmc&#45;documentation</text>
<text text-anchor="start" x="1876" y="-107.5" font-family="Helvetica,sans-Serif" font-size="10.00">/unit/testing&#45;utils/get_goto</text>
<text text-anchor="middle" x="1968" y="-96.5" font-family="Helvetica,sans-Serif" font-size="10.00">_model_from_c.cpp</text>
</a>
</g>
</g>
<!-- Node4&#45;&gt;Node24 -->
<g id="edge26" class="edge">
<title>Node4&#45;&gt;Node24</title>
<path fill="none" stroke="midnightblue" d="M1723.91,-176.06C1768.29,-165.23 1821.99,-152.13 1867.71,-140.97"/>
<polygon fill="midnightblue" stroke="midnightblue" points="1722.89,-172.71 1714,-178.48 1724.55,-179.51 1722.89,-172.71"/>
</g>
<!-- Node7&#45;&gt;Node8 -->
<g id="edge7" class="edge">
<title>Node7&#45;&gt;Node8</title>
<path fill="none" stroke="midnightblue" d="M2451.76,-90.48C2478.91,-76.83 2512.46,-59.96 2538.01,-47.11"/>
<polygon fill="midnightblue" stroke="midnightblue" points="2450.19,-87.36 2442.82,-94.98 2453.33,-93.61 2450.19,-87.36"/>
</g>
<!-- Node9 -->
<g id="node9" class="node">
<title>Node9</title>
<g id="a_node9"><a xlink:href="cbmc__main_8cpp.html" target="_top" xlink:title=" ">
<polygon fill="none" stroke="black" points="2259,-6 2259,-47 2459,-47 2459,-6 2259,-6"/>
<text text-anchor="start" x="2267" y="-35" font-family="Helvetica,sans-Serif" font-size="10.00">/home/runner/work/cbmc</text>
<text text-anchor="start" x="2267" y="-24" font-family="Helvetica,sans-Serif" font-size="10.00">&#45;documentation/cbmc&#45;documentation</text>
<text text-anchor="middle" x="2359" y="-13" font-family="Helvetica,sans-Serif" font-size="10.00">/src/cbmc/cbmc_main.cpp</text>
</a>
</g>
</g>
<!-- Node7&#45;&gt;Node9 -->
<g id="edge8" class="edge">
<title>Node7&#45;&gt;Node9</title>
<path fill="none" stroke="midnightblue" d="M2389.03,-85.56C2382.51,-72.95 2375.03,-58.5 2369.17,-47.16"/>
<polygon fill="midnightblue" stroke="midnightblue" points="2386.09,-87.48 2393.79,-94.76 2392.3,-84.27 2386.09,-87.48"/>
</g>
<!-- Node10 -->
<g id="node10" class="node">
<title>Node10</title>
<g id="a_node10"><a xlink:href="cbmc__parse__options_8cpp.html" target="_top" xlink:title=" ">
<polygon fill="none" stroke="black" points="2041,-6 2041,-47 2241,-47 2241,-6 2041,-6"/>
<text text-anchor="start" x="2049" y="-35" font-family="Helvetica,sans-Serif" font-size="10.00">/home/runner/work/cbmc</text>
<text text-anchor="start" x="2049" y="-24" font-family="Helvetica,sans-Serif" font-size="10.00">&#45;documentation/cbmc&#45;documentation</text>
<text text-anchor="middle" x="2141" y="-13" font-family="Helvetica,sans-Serif" font-size="10.00">/src/cbmc/cbmc_parse_options.cpp</text>
</a>
</g>
</g>
<!-- Node7&#45;&gt;Node10 -->
<g id="edge9" class="edge">
<title>Node7&#45;&gt;Node10</title>
<path fill="none" stroke="midnightblue" d="M2335.39,-91.81C2293.47,-77.94 2240.38,-60.37 2200.28,-47.11"/>
<polygon fill="midnightblue" stroke="midnightblue" points="2334.38,-95.16 2344.98,-94.98 2336.58,-88.51 2334.38,-95.16"/>
</g>
<!-- Node15&#45;&gt;Node16 -->
<g id="edge16" class="edge">
<title>Node15&#45;&gt;Node16</title>
<path fill="none" stroke="midnightblue" d="M494.39,-86C464.21,-75.19 430.1,-62.98 400.89,-52.52"/>
<polygon fill="midnightblue" stroke="midnightblue" points="493.45,-89.38 504.04,-89.45 495.81,-82.79 493.45,-89.38"/>
</g>
<!-- Node17 -->
<g id="node17" class="node">
<title>Node17</title>
<g id="a_node17"><a xlink:href="goto__instrument__main_8cpp.html" target="_top" xlink:title=" ">
<polygon fill="none" stroke="black" points="449.5,-6 449.5,-47 698.5,-47 698.5,-6 449.5,-6"/>
<text text-anchor="start" x="457.5" y="-35" font-family="Helvetica,sans-Serif" font-size="10.00">/home/runner/work/cbmc</text>
<text text-anchor="start" x="457.5" y="-24" font-family="Helvetica,sans-Serif" font-size="10.00">&#45;documentation/cbmc&#45;documentation</text>
<text text-anchor="middle" x="574" y="-13" font-family="Helvetica,sans-Serif" font-size="10.00">/src/goto&#45;instrument/goto_instrument_main.cpp</text>
</a>
</g>
</g>
<!-- Node15&#45;&gt;Node17 -->
<g id="edge17" class="edge">
<title>Node15&#45;&gt;Node17</title>
<path fill="none" stroke="midnightblue" d="M574,-79.16C574,-68.21 574,-56.55 574,-47.08"/>
<polygon fill="midnightblue" stroke="midnightblue" points="570.5,-79.34 574,-89.34 577.5,-79.34 570.5,-79.34"/>
</g>
<!-- Node15&#45;&gt;Node18 -->
<g id="edge18" class="edge">
<title>Node15&#45;&gt;Node18</title>
<path fill="none" stroke="midnightblue" d="M653.61,-86C683.79,-75.19 717.9,-62.98 747.11,-52.52"/>
<polygon fill="midnightblue" stroke="midnightblue" points="652.19,-82.79 643.96,-89.45 654.55,-89.38 652.19,-82.79"/>
</g>
<!-- Node25&#45;&gt;Node5 -->
<g id="edge28" class="edge">
<title>Node25&#45;&gt;Node5</title>
<path fill="none" stroke="midnightblue" d="M3334.83,-176.02C3284.75,-163.54 3222.6,-148.05 3174.25,-136"/>
<polygon fill="midnightblue" stroke="midnightblue" points="3334.13,-179.46 3344.68,-178.48 3335.82,-172.66 3334.13,-179.46"/>
</g>
<!-- Node26 -->
<g id="node26" class="node">
<title>Node26</title>
<g id="a_node26"><a xlink:href="ansi__c__parser_8cpp.html" target="_top" xlink:title=" ">
<polygon fill="none" stroke="black" points="3868,-95 3868,-136 4068,-136 4068,-95 3868,-95"/>
<text text-anchor="start" x="3876" y="-124" font-family="Helvetica,sans-Serif" font-size="10.00">/home/runner/work/cbmc</text>
<text text-anchor="start" x="3876" y="-113" font-family="Helvetica,sans-Serif" font-size="10.00">&#45;documentation/cbmc&#45;documentation</text>
<text text-anchor="middle" x="3968" y="-102" font-family="Helvetica,sans-Serif" font-size="10.00">/src/ansi&#45;c/ansi_c_parser.cpp</text>
</a>
</g>
</g>
<!-- Node25&#45;&gt;Node26 -->
<g id="edge29" class="edge">
<title>Node25&#45;&gt;Node26</title>
<path fill="none" stroke="midnightblue" d="M3533.22,-177.88C3678.44,-157.22 3718.13,-166.14 3859,-142 3868.96,-140.29 3879.37,-138.23 3889.64,-136.02"/>
<polygon fill="midnightblue" stroke="midnightblue" points="3532.43,-174.46 3523.04,-179.36 3533.44,-181.39 3532.43,-174.46"/>
</g>
<!-- Node27 -->
<g id="node27" class="node">
<title>Node27</title>
<g id="a_node27"><a xlink:href="builtin__factory_8cpp.html" target="_top" xlink:title=" ">
<polygon fill="none" stroke="black" points="3214,-95 3214,-136 3414,-136 3414,-95 3214,-95"/>
<text text-anchor="start" x="3222" y="-124" font-family="Helvetica,sans-Serif" font-size="10.00">/home/runner/work/cbmc</text>
<text text-anchor="start" x="3222" y="-113" font-family="Helvetica,sans-Serif" font-size="10.00">&#45;documentation/cbmc&#45;documentation</text>
<text text-anchor="middle" x="3314" y="-102" font-family="Helvetica,sans-Serif" font-size="10.00">/src/ansi&#45;c/builtin_factory.cpp</text>
</a>
</g>
</g>
<!-- Node25&#45;&gt;Node27 -->
<g id="edge30" class="edge">
<title>Node25&#45;&gt;Node27</title>
<path fill="none" stroke="midnightblue" d="M3388.52,-172.22C3372.91,-160.55 3354.76,-146.97 3340.27,-136.14"/>
<polygon fill="midnightblue" stroke="midnightblue" points="3386.79,-175.29 3396.89,-178.48 3390.98,-169.69 3386.79,-175.29"/>
</g>
<!-- Node28 -->
<g id="node28" class="node">
<title>Node28</title>
<g id="a_node28"><a xlink:href="cpp__parser_8h.html" target="_top" xlink:title=" ">
<polygon fill="none" stroke="black" points="3432,-95 3432,-136 3632,-136 3632,-95 3432,-95"/>
<text text-anchor="start" x="3440" y="-124" font-family="Helvetica,sans-Serif" font-size="10.00">/home/runner/work/cbmc</text>
<text text-anchor="start" x="3440" y="-113" font-family="Helvetica,sans-Serif" font-size="10.00">&#45;documentation/cbmc&#45;documentation</text>
<text text-anchor="middle" x="3532" y="-102" font-family="Helvetica,sans-Serif" font-size="10.00">/src/cpp/cpp_parser.h</text>
</a>
</g>
</g>
<!-- Node25&#45;&gt;Node28 -->
<g id="edge31" class="edge">
<title>Node25&#45;&gt;Node28</title>
<path fill="none" stroke="midnightblue" d="M3457.48,-172.22C3473.09,-160.55 3491.24,-146.97 3505.73,-136.14"/>
<polygon fill="midnightblue" stroke="midnightblue" points="3455.02,-169.69 3449.11,-178.48 3459.21,-175.29 3455.02,-169.69"/>
</g>
<!-- Node32 -->
<g id="node32" class="node">
<title>Node32</title>
<g id="a_node32"><a xlink:href="cpp__token__buffer_8cpp.html" target="_top" xlink:title=" ">
<polygon fill="none" stroke="black" points="3650,-95 3650,-136 3850,-136 3850,-95 3650,-95"/>
<text text-anchor="start" x="3658" y="-124" font-family="Helvetica,sans-Serif" font-size="10.00">/home/runner/work/cbmc</text>
<text text-anchor="start" x="3658" y="-113" font-family="Helvetica,sans-Serif" font-size="10.00">&#45;documentation/cbmc&#45;documentation</text>
<text text-anchor="middle" x="3750" y="-102" font-family="Helvetica,sans-Serif" font-size="10.00">/src/cpp/cpp_token_buffer.cpp</text>
</a>
</g>
</g>
<!-- Node25&#45;&gt;Node32 -->
<g id="edge35" class="edge">
<title>Node25&#45;&gt;Node32</title>
<path fill="none" stroke="midnightblue" d="M3511.17,-176.02C3561.25,-163.54 3623.4,-148.05 3671.75,-136"/>
<polygon fill="midnightblue" stroke="midnightblue" points="3510.18,-172.66 3501.32,-178.48 3511.87,-179.46 3510.18,-172.66"/>
</g>
<!-- Node29 -->
<g id="node29" class="node">
<title>Node29</title>
<g id="a_node29"><a xlink:href="cpp__language_8cpp.html" target="_top" xlink:title=" ">
<polygon fill="none" stroke="black" points="3214,-6 3214,-47 3414,-47 3414,-6 3214,-6"/>
<text text-anchor="start" x="3222" y="-35" font-family="Helvetica,sans-Serif" font-size="10.00">/home/runner/work/cbmc</text>
<text text-anchor="start" x="3222" y="-24" font-family="Helvetica,sans-Serif" font-size="10.00">&#45;documentation/cbmc&#45;documentation</text>
<text text-anchor="middle" x="3314" y="-13" font-family="Helvetica,sans-Serif" font-size="10.00">/src/cpp/cpp_language.cpp</text>
</a>
</g>
</g>
<!-- Node28&#45;&gt;Node29 -->
<g id="edge32" class="edge">
<title>Node28&#45;&gt;Node29</title>
<path fill="none" stroke="midnightblue" d="M3473.59,-91.19C3439.08,-77.42 3395.89,-60.18 3363.14,-47.11"/>
<polygon fill="midnightblue" stroke="midnightblue" points="3472.49,-94.52 3483.08,-94.98 3475.09,-88.02 3472.49,-94.52"/>
</g>
<!-- Node30 -->
<g id="node30" class="node">
<title>Node30</title>
<g id="a_node30"><a xlink:href="cpp__parser_8cpp.html" target="_top" xlink:title=" ">
<polygon fill="none" stroke="black" points="3432,-6 3432,-47 3632,-47 3632,-6 3432,-6"/>
<text text-anchor="start" x="3440" y="-35" font-family="Helvetica,sans-Serif" font-size="10.00">/home/runner/work/cbmc</text>
<text text-anchor="start" x="3440" y="-24" font-family="Helvetica,sans-Serif" font-size="10.00">&#45;documentation/cbmc&#45;documentation</text>
<text text-anchor="middle" x="3532" y="-13" font-family="Helvetica,sans-Serif" font-size="10.00">/src/cpp/cpp_parser.cpp</text>
</a>
</g>
</g>
<!-- Node28&#45;&gt;Node30 -->
<g id="edge33" class="edge">
<title>Node28&#45;&gt;Node30</title>
<path fill="none" stroke="midnightblue" d="M3532,-84.44C3532,-72.1 3532,-58.16 3532,-47.16"/>
<polygon fill="midnightblue" stroke="midnightblue" points="3528.5,-84.76 3532,-94.76 3535.5,-84.76 3528.5,-84.76"/>
</g>
<!-- Node31 -->
<g id="node31" class="node">
<title>Node31</title>
<g id="a_node31"><a xlink:href="parse_8cpp.html" target="_top" xlink:title=" ">
<polygon fill="none" stroke="black" points="3650,-6 3650,-47 3850,-47 3850,-6 3650,-6"/>
<text text-anchor="start" x="3658" y="-35" font-family="Helvetica,sans-Serif" font-size="10.00">/home/runner/work/cbmc</text>
<text text-anchor="start" x="3658" y="-24" font-family="Helvetica,sans-Serif" font-size="10.00">&#45;documentation/cbmc&#45;documentation</text>
<text text-anchor="middle" x="3750" y="-13" font-family="Helvetica,sans-Serif" font-size="10.00">/src/cpp/parse.cpp</text>
</a>
</g>
</g>
<!-- Node28&#45;&gt;Node31 -->
<g id="edge34" class="edge">
<title>Node28&#45;&gt;Node31</title>
<path fill="none" stroke="midnightblue" d="M3590.41,-91.19C3624.92,-77.42 3668.11,-60.18 3700.86,-47.11"/>
<polygon fill="midnightblue" stroke="midnightblue" points="3588.91,-88.02 3580.92,-94.98 3591.51,-94.52 3588.91,-88.02"/>
</g>
</g>
</svg>
