<?xml version="1.0" encoding="UTF-8" standalone="no"?>
<!DOCTYPE svg PUBLIC "-//W3C//DTD SVG 1.1//EN"
 "http://www.w3.org/Graphics/SVG/1.1/DTD/svg11.dtd">
<!-- Generated by graphviz version 2.43.0 (0)
 -->
<!-- Title: /home/runner/work/cbmc&#45;documentation/cbmc&#45;documentation/src/solvers/strings/array_pool.h Pages: 1 -->
<svg width="3049pt" height="573pt"
 viewBox="0.00 0.00 3049.00 573.00" xmlns="http://www.w3.org/2000/svg" xmlns:xlink="http://www.w3.org/1999/xlink">
<g id="graph0" class="graph" transform="scale(1 1) rotate(0) translate(4 569)">
<title>/home/runner/work/cbmc&#45;documentation/cbmc&#45;documentation/src/solvers/strings/array_pool.h</title>
<!-- Node1 -->
<g id="node1" class="node">
<title>Node1</title>
<g id="a_node1"><a xlink:title=" ">
<polygon fill="#bfbfbf" stroke="black" points="1751,-523.5 1751,-564.5 1951,-564.5 1951,-523.5 1751,-523.5"/>
<text text-anchor="start" x="1759" y="-552.5" font-family="Helvetica,sans-Serif" font-size="10.00">/home/runner/work/cbmc</text>
<text text-anchor="start" x="1759" y="-541.5" font-family="Helvetica,sans-Serif" font-size="10.00">&#45;documentation/cbmc&#45;documentation</text>
<text text-anchor="middle" x="1851" y="-530.5" font-family="Helvetica,sans-Serif" font-size="10.00">/src/solvers/strings/array_pool.h</text>
</a>
</g>
</g>
<!-- Node2 -->
<g id="node2" class="node">
<title>Node2</title>
<g id="a_node2"><a xlink:href="string__constraint__generator_8h.html" target="_top" xlink:title=" ">
<polygon fill="none" stroke="black" points="1642,-434.5 1642,-486.5 1842,-486.5 1842,-434.5 1642,-434.5"/>
<text text-anchor="start" x="1650" y="-474.5" font-family="Helvetica,sans-Serif" font-size="10.00">/home/runner/work/cbmc</text>
<text text-anchor="start" x="1650" y="-463.5" font-family="Helvetica,sans-Serif" font-size="10.00">&#45;documentation/cbmc&#45;documentation</text>
<text text-anchor="start" x="1650" y="-452.5" font-family="Helvetica,sans-Serif" font-size="10.00">/src/solvers/strings/string_constraint</text>
<text text-anchor="middle" x="1742" y="-441.5" font-family="Helvetica,sans-Serif" font-size="10.00">_generator.h</text>
</a>
</g>
</g>
<!-- Node1&#45;&gt;Node2 -->
<g id="edge1" class="edge">
<title>Node1&#45;&gt;Node2</title>
<path fill="none" stroke="midnightblue" d="M1816.61,-517.29C1803.57,-507.53 1788.73,-496.44 1775.74,-486.73"/>
<polygon fill="midnightblue" stroke="midnightblue" points="1814.79,-520.29 1824.89,-523.48 1818.98,-514.69 1814.79,-520.29"/>
</g>
<!-- Node32 -->
<g id="node32" class="node">
<title>Node32</title>
<g id="a_node32"><a xlink:href="array__pool_8cpp.html" target="_top" xlink:title=" ">
<polygon fill="none" stroke="black" points="1860,-440 1860,-481 2060,-481 2060,-440 1860,-440"/>
<text text-anchor="start" x="1868" y="-469" font-family="Helvetica,sans-Serif" font-size="10.00">/home/runner/work/cbmc</text>
<text text-anchor="start" x="1868" y="-458" font-family="Helvetica,sans-Serif" font-size="10.00">&#45;documentation/cbmc&#45;documentation</text>
<text text-anchor="middle" x="1960" y="-447" font-family="Helvetica,sans-Serif" font-size="10.00">/src/solvers/strings/array_pool.cpp</text>
</a>
</g>
</g>
<!-- Node1&#45;&gt;Node32 -->
<g id="edge36" class="edge">
<title>Node1&#45;&gt;Node32</title>
<path fill="none" stroke="midnightblue" d="M1885.48,-517.22C1901.09,-505.55 1919.24,-491.97 1933.73,-481.14"/>
<polygon fill="midnightblue" stroke="midnightblue" points="1883.02,-514.69 1877.11,-523.48 1887.21,-520.29 1883.02,-514.69"/>
</g>
<!-- Node3 -->
<g id="node3" class="node">
<title>Node3</title>
<g id="a_node3"><a xlink:href="string__refinement_8h.html" target="_top" xlink:title=" ">
<polygon fill="none" stroke="black" points="591,-173 591,-214 797,-214 797,-173 591,-173"/>
<text text-anchor="start" x="599" y="-202" font-family="Helvetica,sans-Serif" font-size="10.00">/home/runner/work/cbmc</text>
<text text-anchor="start" x="599" y="-191" font-family="Helvetica,sans-Serif" font-size="10.00">&#45;documentation/cbmc&#45;documentation</text>
<text text-anchor="middle" x="694" y="-180" font-family="Helvetica,sans-Serif" font-size="10.00">/src/solvers/strings/string_refinement.h</text>
</a>
</g>
</g>
<!-- Node2&#45;&gt;Node3 -->
<g id="edge2" class="edge">
<title>Node2&#45;&gt;Node3</title>
<path fill="none" stroke="midnightblue" d="M1631.74,-458.96C1418.87,-456.83 959.06,-446.54 809,-398 738.13,-375.08 703.07,-374.17 667,-309 650.19,-278.62 667.61,-238.1 681.21,-214.3"/>
<polygon fill="midnightblue" stroke="midnightblue" points="1631.97,-462.47 1642,-459.06 1632.03,-455.47 1631.97,-462.47"/>
</g>
<!-- Node13 -->
<g id="node13" class="node">
<title>Node13</title>
<g id="a_node13"><a xlink:href="string__builtin__function_8h.html" target="_top" xlink:title=" ">
<polygon fill="none" stroke="black" points="879,-345.5 879,-397.5 1079,-397.5 1079,-345.5 879,-345.5"/>
<text text-anchor="start" x="887" y="-385.5" font-family="Helvetica,sans-Serif" font-size="10.00">/home/runner/work/cbmc</text>
<text text-anchor="start" x="887" y="-374.5" font-family="Helvetica,sans-Serif" font-size="10.00">&#45;documentation/cbmc&#45;documentation</text>
<text text-anchor="start" x="887" y="-363.5" font-family="Helvetica,sans-Serif" font-size="10.00">/src/solvers/strings/string_builtin</text>
<text text-anchor="middle" x="979" y="-352.5" font-family="Helvetica,sans-Serif" font-size="10.00">_function.h</text>
</a>
</g>
</g>
<!-- Node2&#45;&gt;Node13 -->
<g id="edge12" class="edge">
<title>Node2&#45;&gt;Node13</title>
<path fill="none" stroke="midnightblue" d="M1631.74,-453.72C1501.26,-445.82 1277.77,-428.97 1088,-398 1085.12,-397.53 1082.21,-397.03 1079.27,-396.5"/>
<polygon fill="midnightblue" stroke="midnightblue" points="1631.55,-457.22 1641.74,-454.32 1631.97,-450.23 1631.55,-457.22"/>
</g>
<!-- Node16 -->
<g id="node16" class="node">
<title>Node16</title>
<g id="a_node16"><a xlink:href="string__builtin__function_8cpp.html" target="_top" xlink:title=" ">
<polygon fill="none" stroke="black" points="676,-256.5 676,-308.5 876,-308.5 876,-256.5 676,-256.5"/>
<text text-anchor="start" x="684" y="-296.5" font-family="Helvetica,sans-Serif" font-size="10.00">/home/runner/work/cbmc</text>
<text text-anchor="start" x="684" y="-285.5" font-family="Helvetica,sans-Serif" font-size="10.00">&#45;documentation/cbmc&#45;documentation</text>
<text text-anchor="start" x="684" y="-274.5" font-family="Helvetica,sans-Serif" font-size="10.00">/src/solvers/strings/string_builtin</text>
<text text-anchor="middle" x="776" y="-263.5" font-family="Helvetica,sans-Serif" font-size="10.00">_function.cpp</text>
</a>
</g>
</g>
<!-- Node2&#45;&gt;Node16 -->
<g id="edge26" class="edge">
<title>Node2&#45;&gt;Node16</title>
<path fill="none" stroke="midnightblue" d="M1631.69,-456.58C1412.19,-450.05 936.07,-432.14 870,-398 832.07,-378.4 803.81,-336.08 788.62,-308.74"/>
<polygon fill="midnightblue" stroke="midnightblue" points="1631.84,-460.08 1641.94,-456.88 1632.05,-453.08 1631.84,-460.08"/>
</g>
<!-- Node23 -->
<g id="node23" class="node">
<title>Node23</title>
<g id="a_node23"><a xlink:href="string__constraint__generator__code__points_8cpp.html" target="_top" xlink:title=" ">
<polygon fill="none" stroke="black" points="1097,-345.5 1097,-397.5 1297,-397.5 1297,-345.5 1097,-345.5"/>
<text text-anchor="start" x="1105" y="-385.5" font-family="Helvetica,sans-Serif" font-size="10.00">/home/runner/work/cbmc</text>
<text text-anchor="start" x="1105" y="-374.5" font-family="Helvetica,sans-Serif" font-size="10.00">&#45;documentation/cbmc&#45;documentation</text>
<text text-anchor="start" x="1105" y="-363.5" font-family="Helvetica,sans-Serif" font-size="10.00">/src/solvers/strings/string_constraint</text>
<text text-anchor="middle" x="1197" y="-352.5" font-family="Helvetica,sans-Serif" font-size="10.00">_generator_code_points.cpp</text>
</a>
</g>
</g>
<!-- Node2&#45;&gt;Node23 -->
<g id="edge27" class="edge">
<title>Node2&#45;&gt;Node23</title>
<path fill="none" stroke="midnightblue" d="M1631.53,-446.7C1543.13,-435.78 1416.15,-418.61 1306,-398 1303.04,-397.45 1300.04,-396.87 1297.01,-396.26"/>
<polygon fill="midnightblue" stroke="midnightblue" points="1631.23,-450.19 1641.58,-447.93 1632.08,-443.24 1631.23,-450.19"/>
</g>
<!-- Node24 -->
<g id="node24" class="node">
<title>Node24</title>
<g id="a_node24"><a xlink:href="string__constraint__generator__comparison_8cpp.html" target="_top" xlink:title=" ">
<polygon fill="none" stroke="black" points="1315,-345.5 1315,-397.5 1515,-397.5 1515,-345.5 1315,-345.5"/>
<text text-anchor="start" x="1323" y="-385.5" font-family="Helvetica,sans-Serif" font-size="10.00">/home/runner/work/cbmc</text>
<text text-anchor="start" x="1323" y="-374.5" font-family="Helvetica,sans-Serif" font-size="10.00">&#45;documentation/cbmc&#45;documentation</text>
<text text-anchor="start" x="1323" y="-363.5" font-family="Helvetica,sans-Serif" font-size="10.00">/src/solvers/strings/string_constraint</text>
<text text-anchor="middle" x="1415" y="-352.5" font-family="Helvetica,sans-Serif" font-size="10.00">_generator_comparison.cpp</text>
</a>
</g>
</g>
<!-- Node2&#45;&gt;Node24 -->
<g id="edge28" class="edge">
<title>Node2&#45;&gt;Node24</title>
<path fill="none" stroke="midnightblue" d="M1638.03,-431.84C1596.65,-420.83 1549.38,-408.25 1509.04,-397.52"/>
<polygon fill="midnightblue" stroke="midnightblue" points="1637.29,-435.26 1647.86,-434.45 1639.09,-428.5 1637.29,-435.26"/>
</g>
<!-- Node25 -->
<g id="node25" class="node">
<title>Node25</title>
<g id="a_node25"><a xlink:href="string__constraint__generator__constants_8cpp.html" target="_top" xlink:title=" ">
<polygon fill="none" stroke="black" points="1533,-345.5 1533,-397.5 1733,-397.5 1733,-345.5 1533,-345.5"/>
<text text-anchor="start" x="1541" y="-385.5" font-family="Helvetica,sans-Serif" font-size="10.00">/home/runner/work/cbmc</text>
<text text-anchor="start" x="1541" y="-374.5" font-family="Helvetica,sans-Serif" font-size="10.00">&#45;documentation/cbmc&#45;documentation</text>
<text text-anchor="start" x="1541" y="-363.5" font-family="Helvetica,sans-Serif" font-size="10.00">/src/solvers/strings/string_constraint</text>
<text text-anchor="middle" x="1633" y="-352.5" font-family="Helvetica,sans-Serif" font-size="10.00">_generator_constants.cpp</text>
</a>
</g>
</g>
<!-- Node2&#45;&gt;Node25 -->
<g id="edge29" class="edge">
<title>Node2&#45;&gt;Node25</title>
<path fill="none" stroke="midnightblue" d="M1702.45,-427.93C1689.95,-417.96 1676.31,-407.07 1664.46,-397.61"/>
<polygon fill="midnightblue" stroke="midnightblue" points="1700.47,-430.83 1710.47,-434.34 1704.84,-425.36 1700.47,-430.83"/>
</g>
<!-- Node26 -->
<g id="node26" class="node">
<title>Node26</title>
<g id="a_node26"><a xlink:href="string__constraint__generator__float_8cpp.html" target="_top" xlink:title=" ">
<polygon fill="none" stroke="black" points="1751,-345.5 1751,-397.5 1951,-397.5 1951,-345.5 1751,-345.5"/>
<text text-anchor="start" x="1759" y="-385.5" font-family="Helvetica,sans-Serif" font-size="10.00">/home/runner/work/cbmc</text>
<text text-anchor="start" x="1759" y="-374.5" font-family="Helvetica,sans-Serif" font-size="10.00">&#45;documentation/cbmc&#45;documentation</text>
<text text-anchor="start" x="1759" y="-363.5" font-family="Helvetica,sans-Serif" font-size="10.00">/src/solvers/strings/string_constraint</text>
<text text-anchor="middle" x="1851" y="-352.5" font-family="Helvetica,sans-Serif" font-size="10.00">_generator_float.cpp</text>
</a>
</g>
</g>
<!-- Node2&#45;&gt;Node26 -->
<g id="edge30" class="edge">
<title>Node2&#45;&gt;Node26</title>
<path fill="none" stroke="midnightblue" d="M1781.55,-427.93C1794.05,-417.96 1807.69,-407.07 1819.54,-397.61"/>
<polygon fill="midnightblue" stroke="midnightblue" points="1779.16,-425.36 1773.53,-434.34 1783.53,-430.83 1779.16,-425.36"/>
</g>
<!-- Node27 -->
<g id="node27" class="node">
<title>Node27</title>
<g id="a_node27"><a xlink:href="string__constraint__generator__indexof_8cpp.html" target="_top" xlink:title=" ">
<polygon fill="none" stroke="black" points="1969,-345.5 1969,-397.5 2169,-397.5 2169,-345.5 1969,-345.5"/>
<text text-anchor="start" x="1977" y="-385.5" font-family="Helvetica,sans-Serif" font-size="10.00">/home/runner/work/cbmc</text>
<text text-anchor="start" x="1977" y="-374.5" font-family="Helvetica,sans-Serif" font-size="10.00">&#45;documentation/cbmc&#45;documentation</text>
<text text-anchor="start" x="1977" y="-363.5" font-family="Helvetica,sans-Serif" font-size="10.00">/src/solvers/strings/string_constraint</text>
<text text-anchor="middle" x="2069" y="-352.5" font-family="Helvetica,sans-Serif" font-size="10.00">_generator_indexof.cpp</text>
</a>
</g>
</g>
<!-- Node2&#45;&gt;Node27 -->
<g id="edge31" class="edge">
<title>Node2&#45;&gt;Node27</title>
<path fill="none" stroke="midnightblue" d="M1845.97,-431.84C1887.35,-420.83 1934.62,-408.25 1974.96,-397.52"/>
<polygon fill="midnightblue" stroke="midnightblue" points="1844.91,-428.5 1836.14,-434.45 1846.71,-435.26 1844.91,-428.5"/>
</g>
<!-- Node28 -->
<g id="node28" class="node">
<title>Node28</title>
<g id="a_node28"><a xlink:href="string__constraint__generator__main_8cpp.html" target="_top" xlink:title=" ">
<polygon fill="none" stroke="black" points="2187,-345.5 2187,-397.5 2387,-397.5 2387,-345.5 2187,-345.5"/>
<text text-anchor="start" x="2195" y="-385.5" font-family="Helvetica,sans-Serif" font-size="10.00">/home/runner/work/cbmc</text>
<text text-anchor="start" x="2195" y="-374.5" font-family="Helvetica,sans-Serif" font-size="10.00">&#45;documentation/cbmc&#45;documentation</text>
<text text-anchor="start" x="2195" y="-363.5" font-family="Helvetica,sans-Serif" font-size="10.00">/src/solvers/strings/string_constraint</text>
<text text-anchor="middle" x="2287" y="-352.5" font-family="Helvetica,sans-Serif" font-size="10.00">_generator_main.cpp</text>
</a>
</g>
</g>
<!-- Node2&#45;&gt;Node28 -->
<g id="edge32" class="edge">
<title>Node2&#45;&gt;Node28</title>
<path fill="none" stroke="midnightblue" d="M1852.41,-433.85C1996.91,-409.88 2037.13,-422.14 2178,-398 2180.87,-397.51 2183.78,-396.99 2186.72,-396.44"/>
<polygon fill="midnightblue" stroke="midnightblue" points="1851.56,-430.45 1842.28,-435.56 1852.73,-437.35 1851.56,-430.45"/>
</g>
<!-- Node29 -->
<g id="node29" class="node">
<title>Node29</title>
<g id="a_node29"><a xlink:href="string__constraint__generator__testing_8cpp.html" target="_top" xlink:title=" ">
<polygon fill="none" stroke="black" points="2405,-345.5 2405,-397.5 2605,-397.5 2605,-345.5 2405,-345.5"/>
<text text-anchor="start" x="2413" y="-385.5" font-family="Helvetica,sans-Serif" font-size="10.00">/home/runner/work/cbmc</text>
<text text-anchor="start" x="2413" y="-374.5" font-family="Helvetica,sans-Serif" font-size="10.00">&#45;documentation/cbmc&#45;documentation</text>
<text text-anchor="start" x="2413" y="-363.5" font-family="Helvetica,sans-Serif" font-size="10.00">/src/solvers/strings/string_constraint</text>
<text text-anchor="middle" x="2505" y="-352.5" font-family="Helvetica,sans-Serif" font-size="10.00">_generator_testing.cpp</text>
</a>
</g>
</g>
<!-- Node2&#45;&gt;Node29 -->
<g id="edge33" class="edge">
<title>Node2&#45;&gt;Node29</title>
<path fill="none" stroke="midnightblue" d="M1852.36,-433.91C2092.91,-399.19 2159.18,-433.28 2396,-398 2398.88,-397.57 2401.8,-397.1 2404.74,-396.61"/>
<polygon fill="midnightblue" stroke="midnightblue" points="1851.64,-430.48 1842.26,-435.39 1852.66,-437.4 1851.64,-430.48"/>
</g>
<!-- Node30 -->
<g id="node30" class="node">
<title>Node30</title>
<g id="a_node30"><a xlink:href="string__constraint__generator__transformation_8cpp.html" target="_top" xlink:title=" ">
<polygon fill="none" stroke="black" points="2623,-345.5 2623,-397.5 2823,-397.5 2823,-345.5 2623,-345.5"/>
<text text-anchor="start" x="2631" y="-385.5" font-family="Helvetica,sans-Serif" font-size="10.00">/home/runner/work/cbmc</text>
<text text-anchor="start" x="2631" y="-374.5" font-family="Helvetica,sans-Serif" font-size="10.00">&#45;documentation/cbmc&#45;documentation</text>
<text text-anchor="start" x="2631" y="-363.5" font-family="Helvetica,sans-Serif" font-size="10.00">/src/solvers/strings/string_constraint</text>
<text text-anchor="middle" x="2723" y="-352.5" font-family="Helvetica,sans-Serif" font-size="10.00">_generator_transformation.cpp</text>
</a>
</g>
</g>
<!-- Node2&#45;&gt;Node30 -->
<g id="edge34" class="edge">
<title>Node2&#45;&gt;Node30</title>
<path fill="none" stroke="midnightblue" d="M1852.28,-433.94C2189.03,-388.26 2281.05,-444.4 2614,-398 2616.89,-397.6 2619.81,-397.15 2622.76,-396.68"/>
<polygon fill="midnightblue" stroke="midnightblue" points="1851.67,-430.49 1842.24,-435.32 1852.63,-437.43 1851.67,-430.49"/>
</g>
<!-- Node31 -->
<g id="node31" class="node">
<title>Node31</title>
<g id="a_node31"><a xlink:href="string__constraint__generator__valueof_8cpp.html" target="_top" xlink:title=" ">
<polygon fill="none" stroke="black" points="2841,-345.5 2841,-397.5 3041,-397.5 3041,-345.5 2841,-345.5"/>
<text text-anchor="start" x="2849" y="-385.5" font-family="Helvetica,sans-Serif" font-size="10.00">/home/runner/work/cbmc</text>
<text text-anchor="start" x="2849" y="-374.5" font-family="Helvetica,sans-Serif" font-size="10.00">&#45;documentation/cbmc&#45;documentation</text>
<text text-anchor="start" x="2849" y="-363.5" font-family="Helvetica,sans-Serif" font-size="10.00">/src/solvers/strings/string_constraint</text>
<text text-anchor="middle" x="2941" y="-352.5" font-family="Helvetica,sans-Serif" font-size="10.00">_generator_valueof.cpp</text>
</a>
</g>
</g>
<!-- Node2&#45;&gt;Node31 -->
<g id="edge35" class="edge">
<title>Node2&#45;&gt;Node31</title>
<path fill="none" stroke="midnightblue" d="M1852.2,-433.96C2285.2,-377.24 2402.85,-455.52 2832,-398 2834.89,-397.61 2837.81,-397.18 2840.76,-396.72"/>
<polygon fill="midnightblue" stroke="midnightblue" points="1851.69,-430.5 1842.24,-435.28 1852.61,-437.44 1851.69,-430.5"/>
</g>
<!-- Node4 -->
<g id="node4" class="node">
<title>Node4</title>
<g id="a_node4"><a xlink:href="cbmc__parse__options_8h.html" target="_top" xlink:title=" ">
<polygon fill="none" stroke="black" points="221,-84 221,-125 421,-125 421,-84 221,-84"/>
<text text-anchor="start" x="229" y="-113" font-family="Helvetica,sans-Serif" font-size="10.00">/home/runner/work/cbmc</text>
<text text-anchor="start" x="229" y="-102" font-family="Helvetica,sans-Serif" font-size="10.00">&#45;documentation/cbmc&#45;documentation</text>
<text text-anchor="middle" x="321" y="-91" font-family="Helvetica,sans-Serif" font-size="10.00">/src/cbmc/cbmc_parse_options.h</text>
</a>
</g>
</g>
<!-- Node3&#45;&gt;Node4 -->
<g id="edge3" class="edge">
<title>Node3&#45;&gt;Node4</title>
<path fill="none" stroke="midnightblue" d="M600.42,-170.67C540.29,-156.65 462.85,-138.59 404.75,-125.03"/>
<polygon fill="midnightblue" stroke="midnightblue" points="599.76,-174.11 610.29,-172.98 601.35,-167.3 599.76,-174.11"/>
</g>
<!-- Node8 -->
<g id="node8" class="node">
<title>Node8</title>
<g id="a_node8"><a xlink:href="solver__factory_8cpp.html" target="_top" xlink:title=" ">
<polygon fill="none" stroke="black" points="441,-84 441,-125 641,-125 641,-84 441,-84"/>
<text text-anchor="start" x="449" y="-113" font-family="Helvetica,sans-Serif" font-size="10.00">/home/runner/work/cbmc</text>
<text text-anchor="start" x="449" y="-102" font-family="Helvetica,sans-Serif" font-size="10.00">&#45;documentation/cbmc&#45;documentation</text>
<text text-anchor="middle" x="541" y="-91" font-family="Helvetica,sans-Serif" font-size="10.00">/src/goto&#45;checker/solver_factory.cpp</text>
</a>
</g>
</g>
<!-- Node3&#45;&gt;Node8 -->
<g id="edge7" class="edge">
<title>Node3&#45;&gt;Node8</title>
<path fill="none" stroke="midnightblue" d="M650.82,-167.94C626.98,-154.39 597.78,-137.79 575.49,-125.11"/>
<polygon fill="midnightblue" stroke="midnightblue" points="649.24,-171.07 659.66,-172.98 652.7,-164.99 649.24,-171.07"/>
</g>
<!-- Node9 -->
<g id="node9" class="node">
<title>Node9</title>
<g id="a_node9"><a xlink:href="string__refinement_8cpp.html" target="_top" xlink:title=" ">
<polygon fill="none" stroke="black" points="877,-84 877,-125 1095,-125 1095,-84 877,-84"/>
<text text-anchor="start" x="885" y="-113" font-family="Helvetica,sans-Serif" font-size="10.00">/home/runner/work/cbmc</text>
<text text-anchor="start" x="885" y="-102" font-family="Helvetica,sans-Serif" font-size="10.00">&#45;documentation/cbmc&#45;documentation</text>
<text text-anchor="middle" x="986" y="-91" font-family="Helvetica,sans-Serif" font-size="10.00">/src/solvers/strings/string_refinement.cpp</text>
</a>
</g>
</g>
<!-- Node3&#45;&gt;Node9 -->
<g id="edge8" class="edge">
<title>Node3&#45;&gt;Node9</title>
<path fill="none" stroke="midnightblue" d="M769.31,-170.06C816.08,-156.13 875.61,-138.39 920.44,-125.03"/>
<polygon fill="midnightblue" stroke="midnightblue" points="768.11,-166.77 759.53,-172.98 770.11,-173.47 768.11,-166.77"/>
</g>
<!-- Node10 -->
<g id="node10" class="node">
<title>Node10</title>
<g id="a_node10"><a xlink:href="jbmc__parse__options_8h.html" target="_top" xlink:title=" ">
<polygon fill="none" stroke="black" points="659,-84 659,-125 859,-125 859,-84 659,-84"/>
<text text-anchor="start" x="667" y="-113" font-family="Helvetica,sans-Serif" font-size="10.00">/home/runner/work/cbmc</text>
<text text-anchor="start" x="667" y="-102" font-family="Helvetica,sans-Serif" font-size="10.00">&#45;documentation/cbmc&#45;documentation</text>
<text text-anchor="middle" x="759" y="-91" font-family="Helvetica,sans-Serif" font-size="10.00">/jbmc/src/jbmc/jbmc_parse_options.h</text>
</a>
</g>
</g>
<!-- Node3&#45;&gt;Node10 -->
<g id="edge9" class="edge">
<title>Node3&#45;&gt;Node10</title>
<path fill="none" stroke="midnightblue" d="M714.8,-164.67C724.41,-151.8 735.59,-136.83 744.31,-125.16"/>
<polygon fill="midnightblue" stroke="midnightblue" points="711.93,-162.65 708.75,-172.76 717.54,-166.84 711.93,-162.65"/>
</g>
<!-- Node5 -->
<g id="node5" class="node">
<title>Node5</title>
<g id="a_node5"><a xlink:href="cbmc__languages_8cpp.html" target="_top" xlink:title=" ">
<polygon fill="none" stroke="black" points="218,-0.5 218,-41.5 418,-41.5 418,-0.5 218,-0.5"/>
<text text-anchor="start" x="226" y="-29.5" font-family="Helvetica,sans-Serif" font-size="10.00">/home/runner/work/cbmc</text>
<text text-anchor="start" x="226" y="-18.5" font-family="Helvetica,sans-Serif" font-size="10.00">&#45;documentation/cbmc&#45;documentation</text>
<text text-anchor="middle" x="318" y="-7.5" font-family="Helvetica,sans-Serif" font-size="10.00">/src/cbmc/cbmc_languages.cpp</text>
</a>
</g>
</g>
<!-- Node4&#45;&gt;Node5 -->
<g id="edge4" class="edge">
<title>Node4&#45;&gt;Node5</title>
<path fill="none" stroke="midnightblue" d="M319.9,-73.56C319.5,-62.88 319.07,-51.13 318.72,-41.55"/>
<polygon fill="midnightblue" stroke="midnightblue" points="316.41,-73.91 320.27,-83.77 323.4,-73.65 316.41,-73.91"/>
</g>
<!-- Node6 -->
<g id="node6" class="node">
<title>Node6</title>
<g id="a_node6"><a xlink:href="cbmc__main_8cpp.html" target="_top" xlink:title=" ">
<polygon fill="none" stroke="black" points="436,-0.5 436,-41.5 636,-41.5 636,-0.5 436,-0.5"/>
<text text-anchor="start" x="444" y="-29.5" font-family="Helvetica,sans-Serif" font-size="10.00">/home/runner/work/cbmc</text>
<text text-anchor="start" x="444" y="-18.5" font-family="Helvetica,sans-Serif" font-size="10.00">&#45;documentation/cbmc&#45;documentation</text>
<text text-anchor="middle" x="536" y="-7.5" font-family="Helvetica,sans-Serif" font-size="10.00">/src/cbmc/cbmc_main.cpp</text>
</a>
</g>
</g>
<!-- Node4&#45;&gt;Node6 -->
<g id="edge5" class="edge">
<title>Node4&#45;&gt;Node6</title>
<path fill="none" stroke="midnightblue" d="M381.87,-80.42C414.28,-68.14 453.69,-53.2 484.55,-41.5"/>
<polygon fill="midnightblue" stroke="midnightblue" points="380.61,-77.16 372.5,-83.98 383.09,-83.71 380.61,-77.16"/>
</g>
<!-- Node7 -->
<g id="node7" class="node">
<title>Node7</title>
<g id="a_node7"><a xlink:href="cbmc__parse__options_8cpp.html" target="_top" xlink:title=" ">
<polygon fill="none" stroke="black" points="0,-0.5 0,-41.5 200,-41.5 200,-0.5 0,-0.5"/>
<text text-anchor="start" x="8" y="-29.5" font-family="Helvetica,sans-Serif" font-size="10.00">/home/runner/work/cbmc</text>
<text text-anchor="start" x="8" y="-18.5" font-family="Helvetica,sans-Serif" font-size="10.00">&#45;documentation/cbmc&#45;documentation</text>
<text text-anchor="middle" x="100" y="-7.5" font-family="Helvetica,sans-Serif" font-size="10.00">/src/cbmc/cbmc_parse_options.cpp</text>
</a>
</g>
</g>
<!-- Node4&#45;&gt;Node7 -->
<g id="edge6" class="edge">
<title>Node4&#45;&gt;Node7</title>
<path fill="none" stroke="midnightblue" d="M258.43,-80.42C225.12,-68.14 184.61,-53.2 152.89,-41.5"/>
<polygon fill="midnightblue" stroke="midnightblue" points="257.47,-83.8 268.06,-83.98 259.89,-77.23 257.47,-83.8"/>
</g>
<!-- Node11 -->
<g id="node11" class="node">
<title>Node11</title>
<g id="a_node11"><a xlink:href="jbmc__main_8cpp.html" target="_top" xlink:title=" ">
<polygon fill="none" stroke="black" points="882,-0.5 882,-41.5 1082,-41.5 1082,-0.5 882,-0.5"/>
<text text-anchor="start" x="890" y="-29.5" font-family="Helvetica,sans-Serif" font-size="10.00">/home/runner/work/cbmc</text>
<text text-anchor="start" x="890" y="-18.5" font-family="Helvetica,sans-Serif" font-size="10.00">&#45;documentation/cbmc&#45;documentation</text>
<text text-anchor="middle" x="982" y="-7.5" font-family="Helvetica,sans-Serif" font-size="10.00">/jbmc/src/jbmc/jbmc_main.cpp</text>
</a>
</g>
</g>
<!-- Node10&#45;&gt;Node11 -->
<g id="edge10" class="edge">
<title>Node10&#45;&gt;Node11</title>
<path fill="none" stroke="midnightblue" d="M822.14,-80.42C855.75,-68.14 896.63,-53.2 928.64,-41.5"/>
<polygon fill="midnightblue" stroke="midnightblue" points="820.61,-77.26 812.41,-83.98 823.01,-83.83 820.61,-77.26"/>
</g>
<!-- Node12 -->
<g id="node12" class="node">
<title>Node12</title>
<g id="a_node12"><a xlink:href="jbmc__parse__options_8cpp.html" target="_top" xlink:title=" ">
<polygon fill="none" stroke="black" points="654.5,-0.5 654.5,-41.5 863.5,-41.5 863.5,-0.5 654.5,-0.5"/>
<text text-anchor="start" x="662.5" y="-29.5" font-family="Helvetica,sans-Serif" font-size="10.00">/home/runner/work/cbmc</text>
<text text-anchor="start" x="662.5" y="-18.5" font-family="Helvetica,sans-Serif" font-size="10.00">&#45;documentation/cbmc&#45;documentation</text>
<text text-anchor="middle" x="759" y="-7.5" font-family="Helvetica,sans-Serif" font-size="10.00">/jbmc/src/jbmc/jbmc_parse_options.cpp</text>
</a>
</g>
</g>
<!-- Node10&#45;&gt;Node12 -->
<g id="edge11" class="edge">
<title>Node10&#45;&gt;Node12</title>
<path fill="none" stroke="midnightblue" d="M759,-73.56C759,-62.88 759,-51.13 759,-41.55"/>
<polygon fill="midnightblue" stroke="midnightblue" points="755.5,-73.77 759,-83.77 762.5,-73.77 755.5,-73.77"/>
</g>
<!-- Node14 -->
<g id="node14" class="node">
<title>Node14</title>
<g id="a_node14"><a xlink:href="string__dependencies_8h.html" target="_top" xlink:title=" ">
<polygon fill="none" stroke="black" points="894.5,-262 894.5,-303 1115.5,-303 1115.5,-262 894.5,-262"/>
<text text-anchor="start" x="902.5" y="-291" font-family="Helvetica,sans-Serif" font-size="10.00">/home/runner/work/cbmc</text>
<text text-anchor="start" x="902.5" y="-280" font-family="Helvetica,sans-Serif" font-size="10.00">&#45;documentation/cbmc&#45;documentation</text>
<text text-anchor="middle" x="1005" y="-269" font-family="Helvetica,sans-Serif" font-size="10.00">/src/solvers/strings/string_dependencies.h</text>
</a>
</g>
</g>
<!-- Node13&#45;&gt;Node14 -->
<g id="edge13" class="edge">
<title>Node13&#45;&gt;Node14</title>
<path fill="none" stroke="midnightblue" d="M989.46,-335.49C992.76,-324.45 996.29,-312.65 999.15,-303.08"/>
<polygon fill="midnightblue" stroke="midnightblue" points="986.03,-334.75 986.52,-345.34 992.74,-336.76 986.03,-334.75"/>
</g>
<!-- Node13&#45;&gt;Node16 -->
<g id="edge17" class="edge">
<title>Node13&#45;&gt;Node16</title>
<path fill="none" stroke="midnightblue" d="M911.18,-341.44C886.3,-330.77 858.37,-318.8 834.38,-308.52"/>
<polygon fill="midnightblue" stroke="midnightblue" points="909.99,-344.73 920.56,-345.45 912.74,-338.3 909.99,-344.73"/>
</g>
<!-- Node17 -->
<g id="node17" class="node">
<title>Node17</title>
<g id="a_node17"><a xlink:href="string__insertion__builtin__function_8h.html" target="_top" xlink:title=" ">
<polygon fill="none" stroke="black" points="1352,-256.5 1352,-308.5 1552,-308.5 1552,-256.5 1352,-256.5"/>
<text text-anchor="start" x="1360" y="-296.5" font-family="Helvetica,sans-Serif" font-size="10.00">/home/runner/work/cbmc</text>
<text text-anchor="start" x="1360" y="-285.5" font-family="Helvetica,sans-Serif" font-size="10.00">&#45;documentation/cbmc&#45;documentation</text>
<text text-anchor="start" x="1360" y="-274.5" font-family="Helvetica,sans-Serif" font-size="10.00">/src/solvers/strings/string_insertion</text>
<text text-anchor="middle" x="1452" y="-263.5" font-family="Helvetica,sans-Serif" font-size="10.00">_builtin_function.h</text>
</a>
</g>
</g>
<!-- Node13&#45;&gt;Node17 -->
<g id="edge18" class="edge">
<title>Node13&#45;&gt;Node17</title>
<path fill="none" stroke="midnightblue" d="M1089.12,-344.87C1202.27,-324.27 1233.68,-329.46 1343,-309 1345.96,-308.45 1348.96,-307.87 1351.99,-307.26"/>
<polygon fill="midnightblue" stroke="midnightblue" points="1088.21,-341.48 1079.01,-346.74 1089.48,-348.36 1088.21,-341.48"/>
</g>
<!-- Node21 -->
<g id="node21" class="node">
<title>Node21</title>
<g id="a_node21"><a xlink:href="string__format__builtin__function_8h.html" target="_top" xlink:title=" ">
<polygon fill="none" stroke="black" points="1134,-256.5 1134,-308.5 1334,-308.5 1334,-256.5 1134,-256.5"/>
<text text-anchor="start" x="1142" y="-296.5" font-family="Helvetica,sans-Serif" font-size="10.00">/home/runner/work/cbmc</text>
<text text-anchor="start" x="1142" y="-285.5" font-family="Helvetica,sans-Serif" font-size="10.00">&#45;documentation/cbmc&#45;documentation</text>
<text text-anchor="start" x="1142" y="-274.5" font-family="Helvetica,sans-Serif" font-size="10.00">/src/solvers/strings/string_format</text>
<text text-anchor="middle" x="1234" y="-263.5" font-family="Helvetica,sans-Serif" font-size="10.00">_builtin_function.h</text>
</a>
</g>
</g>
<!-- Node13&#45;&gt;Node21 -->
<g id="edge23" class="edge">
<title>Node13&#45;&gt;Node21</title>
<path fill="none" stroke="midnightblue" d="M1062.13,-342.14C1093.9,-331.3 1129.87,-319.03 1160.66,-308.52"/>
<polygon fill="midnightblue" stroke="midnightblue" points="1060.75,-338.91 1052.41,-345.45 1063.01,-345.54 1060.75,-338.91"/>
</g>
<!-- Node14&#45;&gt;Node3 -->
<g id="edge14" class="edge">
<title>Node14&#45;&gt;Node3</title>
<path fill="none" stroke="midnightblue" d="M925.42,-259.24C875.51,-245.28 811.77,-227.45 763.83,-214.03"/>
<polygon fill="midnightblue" stroke="midnightblue" points="924.63,-262.65 935.21,-261.98 926.52,-255.91 924.63,-262.65"/>
</g>
<!-- Node14&#45;&gt;Node9 -->
<g id="edge16" class="edge">
<title>Node14&#45;&gt;Node9</title>
<path fill="none" stroke="midnightblue" d="M1001.77,-251.6C997.88,-215.5 991.43,-155.81 988.12,-125.09"/>
<polygon fill="midnightblue" stroke="midnightblue" points="998.34,-252.43 1002.89,-261.99 1005.3,-251.67 998.34,-252.43"/>
</g>
<!-- Node15 -->
<g id="node15" class="node">
<title>Node15</title>
<g id="a_node15"><a xlink:href="string__dependencies_8cpp.html" target="_top" xlink:title=" ">
<polygon fill="none" stroke="black" points="1164,-84 1164,-125 1396,-125 1396,-84 1164,-84"/>
<text text-anchor="start" x="1172" y="-113" font-family="Helvetica,sans-Serif" font-size="10.00">/home/runner/work/cbmc</text>
<text text-anchor="start" x="1172" y="-102" font-family="Helvetica,sans-Serif" font-size="10.00">&#45;documentation/cbmc&#45;documentation</text>
<text text-anchor="middle" x="1280" y="-91" font-family="Helvetica,sans-Serif" font-size="10.00">/src/solvers/strings/string_dependencies.cpp</text>
</a>
</g>
</g>
<!-- Node14&#45;&gt;Node15 -->
<g id="edge15" class="edge">
<title>Node14&#45;&gt;Node15</title>
<path fill="none" stroke="midnightblue" d="M1007.09,-251.85C1010.5,-225.9 1019.48,-189.01 1043,-167 1061.35,-149.83 1113.32,-135.4 1163.93,-124.84"/>
<polygon fill="midnightblue" stroke="midnightblue" points="1003.6,-251.56 1005.97,-261.89 1010.55,-252.34 1003.6,-251.56"/>
</g>
<!-- Node18 -->
<g id="node18" class="node">
<title>Node18</title>
<g id="a_node18"><a xlink:href="string__concatenation__builtin__function_8h.html" target="_top" xlink:title=" ">
<polygon fill="none" stroke="black" points="1526.5,-167.5 1526.5,-219.5 1739.5,-219.5 1739.5,-167.5 1526.5,-167.5"/>
<text text-anchor="start" x="1534.5" y="-207.5" font-family="Helvetica,sans-Serif" font-size="10.00">/home/runner/work/cbmc</text>
<text text-anchor="start" x="1534.5" y="-196.5" font-family="Helvetica,sans-Serif" font-size="10.00">&#45;documentation/cbmc&#45;documentation</text>
<text text-anchor="start" x="1534.5" y="-185.5" font-family="Helvetica,sans-Serif" font-size="10.00">/src/solvers/strings/string_concatenation</text>
<text text-anchor="middle" x="1633" y="-174.5" font-family="Helvetica,sans-Serif" font-size="10.00">_builtin_function.h</text>
</a>
</g>
</g>
<!-- Node17&#45;&gt;Node18 -->
<g id="edge19" class="edge">
<title>Node17&#45;&gt;Node18</title>
<path fill="none" stroke="midnightblue" d="M1513.55,-251.92C1535.4,-241.41 1559.77,-229.7 1580.76,-219.61"/>
<polygon fill="midnightblue" stroke="midnightblue" points="1511.85,-248.85 1504.35,-256.34 1514.88,-255.16 1511.85,-248.85"/>
</g>
<!-- Node20 -->
<g id="node20" class="node">
<title>Node20</title>
<g id="a_node20"><a xlink:href="string__insertion__builtin__function_8cpp.html" target="_top" xlink:title=" ">
<polygon fill="none" stroke="black" points="1308,-167.5 1308,-219.5 1508,-219.5 1508,-167.5 1308,-167.5"/>
<text text-anchor="start" x="1316" y="-207.5" font-family="Helvetica,sans-Serif" font-size="10.00">/home/runner/work/cbmc</text>
<text text-anchor="start" x="1316" y="-196.5" font-family="Helvetica,sans-Serif" font-size="10.00">&#45;documentation/cbmc&#45;documentation</text>
<text text-anchor="start" x="1316" y="-185.5" font-family="Helvetica,sans-Serif" font-size="10.00">/src/solvers/strings/string_insertion</text>
<text text-anchor="middle" x="1408" y="-174.5" font-family="Helvetica,sans-Serif" font-size="10.00">_builtin_function.cpp</text>
</a>
</g>
</g>
<!-- Node17&#45;&gt;Node20 -->
<g id="edge22" class="edge">
<title>Node17&#45;&gt;Node20</title>
<path fill="none" stroke="midnightblue" d="M1434.73,-247.35C1430.05,-238.1 1425.07,-228.26 1420.7,-219.61"/>
<polygon fill="midnightblue" stroke="midnightblue" points="1431.64,-248.99 1439.27,-256.34 1437.88,-245.83 1431.64,-248.99"/>
</g>
<!-- Node18&#45;&gt;Node15 -->
<g id="edge21" class="edge">
<title>Node18&#45;&gt;Node15</title>
<path fill="none" stroke="midnightblue" d="M1521.64,-165.05C1468.95,-152.07 1407.25,-136.86 1359.38,-125.06"/>
<polygon fill="midnightblue" stroke="midnightblue" points="1520.82,-168.46 1531.37,-167.45 1522.5,-161.66 1520.82,-168.46"/>
</g>
<!-- Node19 -->
<g id="node19" class="node">
<title>Node19</title>
<g id="a_node19"><a xlink:href="string__concatenation__builtin__function_8cpp.html" target="_top" xlink:title=" ">
<polygon fill="none" stroke="black" points="1526.5,-78.5 1526.5,-130.5 1739.5,-130.5 1739.5,-78.5 1526.5,-78.5"/>
<text text-anchor="start" x="1534.5" y="-118.5" font-family="Helvetica,sans-Serif" font-size="10.00">/home/runner/work/cbmc</text>
<text text-anchor="start" x="1534.5" y="-107.5" font-family="Helvetica,sans-Serif" font-size="10.00">&#45;documentation/cbmc&#45;documentation</text>
<text text-anchor="start" x="1534.5" y="-96.5" font-family="Helvetica,sans-Serif" font-size="10.00">/src/solvers/strings/string_concatenation</text>
<text text-anchor="middle" x="1633" y="-85.5" font-family="Helvetica,sans-Serif" font-size="10.00">_builtin_function.cpp</text>
</a>
</g>
</g>
<!-- Node18&#45;&gt;Node19 -->
<g id="edge20" class="edge">
<title>Node18&#45;&gt;Node19</title>
<path fill="none" stroke="midnightblue" d="M1633,-157.19C1633,-148.28 1633,-138.9 1633,-130.61"/>
<polygon fill="midnightblue" stroke="midnightblue" points="1629.5,-157.34 1633,-167.34 1636.5,-157.34 1629.5,-157.34"/>
</g>
<!-- Node21&#45;&gt;Node15 -->
<g id="edge24" class="edge">
<title>Node21&#45;&gt;Node15</title>
<path fill="none" stroke="midnightblue" d="M1250.98,-246.92C1254.71,-238.28 1258.34,-228.93 1261,-220 1270.65,-187.55 1275.82,-148.38 1278.23,-125.29"/>
<polygon fill="midnightblue" stroke="midnightblue" points="1247.67,-245.75 1246.76,-256.3 1254.05,-248.62 1247.67,-245.75"/>
</g>
<!-- Node22 -->
<g id="node22" class="node">
<title>Node22</title>
<g id="a_node22"><a xlink:href="string__format__builtin__function_8cpp.html" target="_top" xlink:title=" ">
<polygon fill="none" stroke="black" points="1052,-167.5 1052,-219.5 1252,-219.5 1252,-167.5 1052,-167.5"/>
<text text-anchor="start" x="1060" y="-207.5" font-family="Helvetica,sans-Serif" font-size="10.00">/home/runner/work/cbmc</text>
<text text-anchor="start" x="1060" y="-196.5" font-family="Helvetica,sans-Serif" font-size="10.00">&#45;documentation/cbmc&#45;documentation</text>
<text text-anchor="start" x="1060" y="-185.5" font-family="Helvetica,sans-Serif" font-size="10.00">/src/solvers/strings/string_format</text>
<text text-anchor="middle" x="1152" y="-174.5" font-family="Helvetica,sans-Serif" font-size="10.00">_builtin_function.cpp</text>
</a>
</g>
</g>
<!-- Node21&#45;&gt;Node22 -->
<g id="edge25" class="edge">
<title>Node21&#45;&gt;Node22</title>
<path fill="none" stroke="midnightblue" d="M1203.17,-248.79C1194.06,-239.13 1184.24,-228.71 1175.66,-219.61"/>
<polygon fill="midnightblue" stroke="midnightblue" points="1200.88,-251.46 1210.28,-256.34 1205.97,-246.66 1200.88,-251.46"/>
</g>
</g>
</svg>
