<?xml version="1.0" encoding="UTF-8" standalone="no"?>
<!DOCTYPE svg PUBLIC "-//W3C//DTD SVG 1.1//EN"
 "http://www.w3.org/Graphics/SVG/1.1/DTD/svg11.dtd">
<!-- Generated by graphviz version 2.43.0 (0)
 -->
<!-- Title: /home/runner/work/cbmc&#45;documentation/cbmc&#45;documentation/src/util/base_exceptions.h Pages: 1 -->
<svg width="876pt" height="128pt"
 viewBox="0.00 0.00 875.50 128.00" xmlns="http://www.w3.org/2000/svg" xmlns:xlink="http://www.w3.org/1999/xlink">
<g id="graph0" class="graph" transform="scale(1 1) rotate(0) translate(4 124)">
<title>/home/runner/work/cbmc&#45;documentation/cbmc&#45;documentation/src/util/base_exceptions.h</title>
<!-- Node1 -->
<g id="node1" class="node">
<title>Node1</title>
<g id="a_node1"><a xlink:title=" ">
<polygon fill="#bfbfbf" stroke="black" points="330,-78.5 330,-119.5 530,-119.5 530,-78.5 330,-78.5"/>
<text text-anchor="start" x="338" y="-107.5" font-family="Helvetica,sans-Serif" font-size="10.00">/home/runner/work/cbmc</text>
<text text-anchor="start" x="338" y="-96.5" font-family="Helvetica,sans-Serif" font-size="10.00">&#45;documentation/cbmc&#45;documentation</text>
<text text-anchor="middle" x="430" y="-85.5" font-family="Helvetica,sans-Serif" font-size="10.00">/src/util/base_exceptions.h</text>
</a>
</g>
</g>
<!-- Node2 -->
<g id="node2" class="node">
<title>Node2</title>
<g id="a_node2"><a xlink:href="reaching__definitions_8cpp.html" target="_top" xlink:title=" ">
<polygon fill="none" stroke="black" points="0,-0.5 0,-41.5 202,-41.5 202,-0.5 0,-0.5"/>
<text text-anchor="start" x="8" y="-29.5" font-family="Helvetica,sans-Serif" font-size="10.00">/home/runner/work/cbmc</text>
<text text-anchor="start" x="8" y="-18.5" font-family="Helvetica,sans-Serif" font-size="10.00">&#45;documentation/cbmc&#45;documentation</text>
<text text-anchor="middle" x="101" y="-7.5" font-family="Helvetica,sans-Serif" font-size="10.00">/src/analyses/reaching_definitions.cpp</text>
</a>
</g>
</g>
<!-- Node1&#45;&gt;Node2 -->
<g id="edge1" class="edge">
<title>Node1&#45;&gt;Node2</title>
<path fill="none" stroke="midnightblue" d="M335.33,-76.13C288.02,-65.2 231.25,-52.09 185.44,-41.51"/>
<polygon fill="midnightblue" stroke="midnightblue" points="334.74,-79.59 345.27,-78.43 336.32,-72.77 334.74,-79.59"/>
</g>
<!-- Node3 -->
<g id="node3" class="node">
<title>Node3</title>
<g id="a_node3"><a xlink:href="cpp__instantiate__template_8cpp.html" target="_top" xlink:title=" ">
<polygon fill="none" stroke="black" points="220,-0.5 220,-41.5 422,-41.5 422,-0.5 220,-0.5"/>
<text text-anchor="start" x="228" y="-29.5" font-family="Helvetica,sans-Serif" font-size="10.00">/home/runner/work/cbmc</text>
<text text-anchor="start" x="228" y="-18.5" font-family="Helvetica,sans-Serif" font-size="10.00">&#45;documentation/cbmc&#45;documentation</text>
<text text-anchor="middle" x="321" y="-7.5" font-family="Helvetica,sans-Serif" font-size="10.00">/src/cpp/cpp_instantiate_template.cpp</text>
</a>
</g>
</g>
<!-- Node1&#45;&gt;Node3 -->
<g id="edge2" class="edge">
<title>Node1&#45;&gt;Node3</title>
<path fill="none" stroke="midnightblue" d="M393.62,-72.64C379.07,-62.49 362.57,-50.98 348.98,-41.51"/>
<polygon fill="midnightblue" stroke="midnightblue" points="391.73,-75.58 401.93,-78.43 395.73,-69.84 391.73,-75.58"/>
</g>
<!-- Node4 -->
<g id="node4" class="node">
<title>Node4</title>
<g id="a_node4"><a xlink:href="cpp__typecheck__template_8cpp.html" target="_top" xlink:title=" ">
<polygon fill="none" stroke="black" points="440,-0.5 440,-41.5 640,-41.5 640,-0.5 440,-0.5"/>
<text text-anchor="start" x="448" y="-29.5" font-family="Helvetica,sans-Serif" font-size="10.00">/home/runner/work/cbmc</text>
<text text-anchor="start" x="448" y="-18.5" font-family="Helvetica,sans-Serif" font-size="10.00">&#45;documentation/cbmc&#45;documentation</text>
<text text-anchor="middle" x="540" y="-7.5" font-family="Helvetica,sans-Serif" font-size="10.00">/src/cpp/cpp_typecheck_template.cpp</text>
</a>
</g>
</g>
<!-- Node1&#45;&gt;Node4 -->
<g id="edge3" class="edge">
<title>Node1&#45;&gt;Node4</title>
<path fill="none" stroke="midnightblue" d="M466.71,-72.64C481.4,-62.49 498.05,-50.98 511.77,-41.51"/>
<polygon fill="midnightblue" stroke="midnightblue" points="464.57,-69.86 458.33,-78.43 468.54,-75.62 464.57,-69.86"/>
</g>
<!-- Node5 -->
<g id="node5" class="node">
<title>Node5</title>
<g id="a_node5"><a xlink:href="goto__symex__state_8cpp.html" target="_top" xlink:title=" ">
<polygon fill="none" stroke="black" points="658.5,-0.5 658.5,-41.5 867.5,-41.5 867.5,-0.5 658.5,-0.5"/>
<text text-anchor="start" x="666.5" y="-29.5" font-family="Helvetica,sans-Serif" font-size="10.00">/home/runner/work/cbmc</text>
<text text-anchor="start" x="666.5" y="-18.5" font-family="Helvetica,sans-Serif" font-size="10.00">&#45;documentation/cbmc&#45;documentation</text>
<text text-anchor="middle" x="763" y="-7.5" font-family="Helvetica,sans-Serif" font-size="10.00">/src/goto&#45;symex/goto_symex_state.cpp</text>
</a>
</g>
</g>
<!-- Node1&#45;&gt;Node5 -->
<g id="edge4" class="edge">
<title>Node1&#45;&gt;Node5</title>
<path fill="none" stroke="midnightblue" d="M525.52,-76.2C573.46,-65.26 631.07,-52.11 677.53,-41.51"/>
<polygon fill="midnightblue" stroke="midnightblue" points="524.73,-72.79 515.76,-78.43 526.28,-79.62 524.73,-72.79"/>
</g>
</g>
</svg>
