<?xml version="1.0" encoding="UTF-8" standalone="no"?>
<!DOCTYPE svg PUBLIC "-//W3C//DTD SVG 1.1//EN"
 "http://www.w3.org/Graphics/SVG/1.1/DTD/svg11.dtd">
<!-- Generated by graphviz version 2.43.0 (0)
 -->
<!-- Title: /home/runner/work/cbmc&#45;documentation/cbmc&#45;documentation/src/solvers/bdd/bdd_miniBDD.h Pages: 1 -->
<svg width="426pt" height="284pt"
 viewBox="0.00 0.00 426.00 284.00" xmlns="http://www.w3.org/2000/svg" xmlns:xlink="http://www.w3.org/1999/xlink">
<g id="graph0" class="graph" transform="scale(1 1) rotate(0) translate(4 280)">
<title>/home/runner/work/cbmc&#45;documentation/cbmc&#45;documentation/src/solvers/bdd/bdd_miniBDD.h</title>
<!-- Node1 -->
<g id="node1" class="node">
<title>Node1</title>
<g id="a_node1"><a xlink:title=" ">
<polygon fill="#bfbfbf" stroke="black" points="109,-234.5 109,-275.5 309,-275.5 309,-234.5 109,-234.5"/>
<text text-anchor="start" x="117" y="-263.5" font-family="Helvetica,sans-Serif" font-size="10.00">/home/runner/work/cbmc</text>
<text text-anchor="start" x="117" y="-252.5" font-family="Helvetica,sans-Serif" font-size="10.00">&#45;documentation/cbmc&#45;documentation</text>
<text text-anchor="middle" x="209" y="-241.5" font-family="Helvetica,sans-Serif" font-size="10.00">/src/solvers/bdd/bdd_miniBDD.h</text>
</a>
</g>
</g>
<!-- Node2 -->
<g id="node2" class="node">
<title>Node2</title>
<g id="a_node2"><a xlink:href="bdd_8h.html" target="_top" xlink:title=" ">
<polygon fill="none" stroke="black" points="109,-156.5 109,-197.5 309,-197.5 309,-156.5 109,-156.5"/>
<text text-anchor="start" x="117" y="-185.5" font-family="Helvetica,sans-Serif" font-size="10.00">/home/runner/work/cbmc</text>
<text text-anchor="start" x="117" y="-174.5" font-family="Helvetica,sans-Serif" font-size="10.00">&#45;documentation/cbmc&#45;documentation</text>
<text text-anchor="middle" x="209" y="-163.5" font-family="Helvetica,sans-Serif" font-size="10.00">/src/solvers/bdd/bdd.h</text>
</a>
</g>
</g>
<!-- Node1&#45;&gt;Node2 -->
<g id="edge1" class="edge">
<title>Node1&#45;&gt;Node2</title>
<path fill="none" stroke="midnightblue" d="M209,-224.3C209,-215.3 209,-205.65 209,-197.51"/>
<polygon fill="midnightblue" stroke="midnightblue" points="205.5,-224.43 209,-234.43 212.5,-224.43 205.5,-224.43"/>
</g>
<!-- Node3 -->
<g id="node3" class="node">
<title>Node3</title>
<g id="a_node3"><a xlink:href="guard__bdd_8h.html" target="_top" xlink:title=" ">
<polygon fill="none" stroke="black" points="0,-78.5 0,-119.5 200,-119.5 200,-78.5 0,-78.5"/>
<text text-anchor="start" x="8" y="-107.5" font-family="Helvetica,sans-Serif" font-size="10.00">/home/runner/work/cbmc</text>
<text text-anchor="start" x="8" y="-96.5" font-family="Helvetica,sans-Serif" font-size="10.00">&#45;documentation/cbmc&#45;documentation</text>
<text text-anchor="middle" x="100" y="-85.5" font-family="Helvetica,sans-Serif" font-size="10.00">/src/analyses/guard_bdd.h</text>
</a>
</g>
</g>
<!-- Node2&#45;&gt;Node3 -->
<g id="edge2" class="edge">
<title>Node2&#45;&gt;Node3</title>
<path fill="none" stroke="midnightblue" d="M172.62,-150.64C158.07,-140.49 141.57,-128.98 127.98,-119.51"/>
<polygon fill="midnightblue" stroke="midnightblue" points="170.73,-153.58 180.93,-156.43 174.73,-147.84 170.73,-153.58"/>
</g>
<!-- Node5 -->
<g id="node5" class="node">
<title>Node5</title>
<g id="a_node5"><a xlink:href="bdd__expr_8h.html" target="_top" xlink:title="Binary decision diagram.">
<polygon fill="none" stroke="black" points="218,-78.5 218,-119.5 418,-119.5 418,-78.5 218,-78.5"/>
<text text-anchor="start" x="226" y="-107.5" font-family="Helvetica,sans-Serif" font-size="10.00">/home/runner/work/cbmc</text>
<text text-anchor="start" x="226" y="-96.5" font-family="Helvetica,sans-Serif" font-size="10.00">&#45;documentation/cbmc&#45;documentation</text>
<text text-anchor="middle" x="318" y="-85.5" font-family="Helvetica,sans-Serif" font-size="10.00">/src/solvers/prop/bdd_expr.h</text>
</a>
</g>
</g>
<!-- Node2&#45;&gt;Node5 -->
<g id="edge4" class="edge">
<title>Node2&#45;&gt;Node5</title>
<path fill="none" stroke="midnightblue" d="M245.38,-150.64C259.93,-140.49 276.43,-128.98 290.02,-119.51"/>
<polygon fill="midnightblue" stroke="midnightblue" points="243.27,-147.84 237.07,-156.43 247.27,-153.58 243.27,-147.84"/>
</g>
<!-- Node4 -->
<g id="node4" class="node">
<title>Node4</title>
<g id="a_node4"><a xlink:href="guard__bdd_8cpp.html" target="_top" xlink:title=" ">
<polygon fill="none" stroke="black" points="0,-0.5 0,-41.5 200,-41.5 200,-0.5 0,-0.5"/>
<text text-anchor="start" x="8" y="-29.5" font-family="Helvetica,sans-Serif" font-size="10.00">/home/runner/work/cbmc</text>
<text text-anchor="start" x="8" y="-18.5" font-family="Helvetica,sans-Serif" font-size="10.00">&#45;documentation/cbmc&#45;documentation</text>
<text text-anchor="middle" x="100" y="-7.5" font-family="Helvetica,sans-Serif" font-size="10.00">/src/analyses/guard_bdd.cpp</text>
</a>
</g>
</g>
<!-- Node3&#45;&gt;Node4 -->
<g id="edge3" class="edge">
<title>Node3&#45;&gt;Node4</title>
<path fill="none" stroke="midnightblue" d="M100,-68.3C100,-59.3 100,-49.65 100,-41.51"/>
<polygon fill="midnightblue" stroke="midnightblue" points="96.5,-68.43 100,-78.43 103.5,-68.43 96.5,-68.43"/>
</g>
<!-- Node5&#45;&gt;Node4 -->
<g id="edge5" class="edge">
<title>Node5&#45;&gt;Node4</title>
<path fill="none" stroke="midnightblue" d="M252.1,-75.03C221.41,-64.33 185.29,-51.73 155.95,-41.51"/>
<polygon fill="midnightblue" stroke="midnightblue" points="251.26,-78.44 261.86,-78.43 253.57,-71.83 251.26,-78.44"/>
</g>
<!-- Node6 -->
<g id="node6" class="node">
<title>Node6</title>
<g id="a_node6"><a xlink:href="bdd__expr_8cpp.html" target="_top" xlink:title=" ">
<polygon fill="none" stroke="black" points="218,-0.5 218,-41.5 418,-41.5 418,-0.5 218,-0.5"/>
<text text-anchor="start" x="226" y="-29.5" font-family="Helvetica,sans-Serif" font-size="10.00">/home/runner/work/cbmc</text>
<text text-anchor="start" x="226" y="-18.5" font-family="Helvetica,sans-Serif" font-size="10.00">&#45;documentation/cbmc&#45;documentation</text>
<text text-anchor="middle" x="318" y="-7.5" font-family="Helvetica,sans-Serif" font-size="10.00">/src/solvers/prop/bdd_expr.cpp</text>
</a>
</g>
</g>
<!-- Node5&#45;&gt;Node6 -->
<g id="edge6" class="edge">
<title>Node5&#45;&gt;Node6</title>
<path fill="none" stroke="midnightblue" d="M318,-68.3C318,-59.3 318,-49.65 318,-41.51"/>
<polygon fill="midnightblue" stroke="midnightblue" points="314.5,-68.43 318,-78.43 321.5,-68.43 314.5,-68.43"/>
</g>
</g>
</svg>
