<?xml version="1.0" encoding="UTF-8" standalone="no"?>
<!DOCTYPE svg PUBLIC "-//W3C//DTD SVG 1.1//EN"
 "http://www.w3.org/Graphics/SVG/1.1/DTD/svg11.dtd">
<!-- Generated by graphviz version 2.43.0 (0)
 -->
<!-- Title: /home/runner/work/cbmc&#45;documentation/cbmc&#45;documentation/src/goto&#45;checker/bmc_util.h Pages: 1 -->
<svg width="2971pt" height="217pt"
 viewBox="0.00 0.00 2971.00 217.00" xmlns="http://www.w3.org/2000/svg" xmlns:xlink="http://www.w3.org/1999/xlink">
<g id="graph0" class="graph" transform="scale(1 1) rotate(0) translate(4 213)">
<title>/home/runner/work/cbmc&#45;documentation/cbmc&#45;documentation/src/goto&#45;checker/bmc_util.h</title>
<!-- Node1 -->
<g id="node1" class="node">
<title>Node1</title>
<g id="a_node1"><a xlink:title=" ">
<polygon fill="#bfbfbf" stroke="black" points="1346,-167.5 1346,-208.5 1546,-208.5 1546,-167.5 1346,-167.5"/>
<text text-anchor="start" x="1354" y="-196.5" font-family="Helvetica,sans-Serif" font-size="10.00">/home/runner/work/cbmc</text>
<text text-anchor="start" x="1354" y="-185.5" font-family="Helvetica,sans-Serif" font-size="10.00">&#45;documentation/cbmc&#45;documentation</text>
<text text-anchor="middle" x="1446" y="-174.5" font-family="Helvetica,sans-Serif" font-size="10.00">/src/goto&#45;checker/bmc_util.h</text>
</a>
</g>
</g>
<!-- Node2 -->
<g id="node2" class="node">
<title>Node2</title>
<g id="a_node2"><a xlink:href="cbmc__parse__options_8h.html" target="_top" xlink:title=" ">
<polygon fill="none" stroke="black" points="109,-84 109,-125 309,-125 309,-84 109,-84"/>
<text text-anchor="start" x="117" y="-113" font-family="Helvetica,sans-Serif" font-size="10.00">/home/runner/work/cbmc</text>
<text text-anchor="start" x="117" y="-102" font-family="Helvetica,sans-Serif" font-size="10.00">&#45;documentation/cbmc&#45;documentation</text>
<text text-anchor="middle" x="209" y="-91" font-family="Helvetica,sans-Serif" font-size="10.00">/src/cbmc/cbmc_parse_options.h</text>
</a>
</g>
</g>
<!-- Node1&#45;&gt;Node2 -->
<g id="edge1" class="edge">
<title>Node1&#45;&gt;Node2</title>
<path fill="none" stroke="midnightblue" d="M1335.94,-187.7C1134.14,-187.62 691.79,-181.07 323,-131 311.65,-129.46 299.75,-127.36 288.11,-125.01"/>
<polygon fill="midnightblue" stroke="midnightblue" points="1335.95,-191.2 1345.95,-187.7 1335.95,-184.2 1335.95,-191.2"/>
</g>
<!-- Node5 -->
<g id="node5" class="node">
<title>Node5</title>
<g id="a_node5"><a xlink:href="cbmc__parse__options_8cpp.html" target="_top" xlink:title=" ">
<polygon fill="none" stroke="black" points="545,-0.5 545,-41.5 745,-41.5 745,-0.5 545,-0.5"/>
<text text-anchor="start" x="553" y="-29.5" font-family="Helvetica,sans-Serif" font-size="10.00">/home/runner/work/cbmc</text>
<text text-anchor="start" x="553" y="-18.5" font-family="Helvetica,sans-Serif" font-size="10.00">&#45;documentation/cbmc&#45;documentation</text>
<text text-anchor="middle" x="645" y="-7.5" font-family="Helvetica,sans-Serif" font-size="10.00">/src/cbmc/cbmc_parse_options.cpp</text>
</a>
</g>
</g>
<!-- Node1&#45;&gt;Node5 -->
<g id="edge8" class="edge">
<title>Node1&#45;&gt;Node5</title>
<path fill="none" stroke="midnightblue" d="M1335.44,-185.38C1064.95,-180.86 389.36,-166.12 356,-131 293.77,-65.49 438.66,-39 544.98,-28.54"/>
<polygon fill="midnightblue" stroke="midnightblue" points="1335.62,-188.88 1345.67,-185.55 1335.73,-181.88 1335.62,-188.88"/>
</g>
<!-- Node6 -->
<g id="node6" class="node">
<title>Node6</title>
<g id="a_node6"><a xlink:href="all__properties__verifier__with__trace__storage_8h.html" target="_top" xlink:title=" ">
<polygon fill="none" stroke="black" points="583,-78.5 583,-130.5 783,-130.5 783,-78.5 583,-78.5"/>
<text text-anchor="start" x="591" y="-118.5" font-family="Helvetica,sans-Serif" font-size="10.00">/home/runner/work/cbmc</text>
<text text-anchor="start" x="591" y="-107.5" font-family="Helvetica,sans-Serif" font-size="10.00">&#45;documentation/cbmc&#45;documentation</text>
<text text-anchor="start" x="591" y="-96.5" font-family="Helvetica,sans-Serif" font-size="10.00">/src/goto&#45;checker/all_properties</text>
<text text-anchor="middle" x="683" y="-85.5" font-family="Helvetica,sans-Serif" font-size="10.00">_verifier_with_trace_storage.h</text>
</a>
</g>
</g>
<!-- Node1&#45;&gt;Node6 -->
<g id="edge5" class="edge">
<title>Node1&#45;&gt;Node6</title>
<path fill="none" stroke="midnightblue" d="M1335.73,-182.42C1205.25,-175.88 981.76,-161.16 792,-131 789.12,-130.54 786.21,-130.05 783.27,-129.53"/>
<polygon fill="midnightblue" stroke="midnightblue" points="1335.58,-185.92 1345.74,-182.92 1335.92,-178.93 1335.58,-185.92"/>
</g>
<!-- Node8 -->
<g id="node8" class="node">
<title>Node8</title>
<g id="a_node8"><a xlink:href="cover__goals__verifier__with__trace__storage_8h.html" target="_top" xlink:title=" ">
<polygon fill="none" stroke="black" points="365,-78.5 365,-130.5 565,-130.5 565,-78.5 365,-78.5"/>
<text text-anchor="start" x="373" y="-118.5" font-family="Helvetica,sans-Serif" font-size="10.00">/home/runner/work/cbmc</text>
<text text-anchor="start" x="373" y="-107.5" font-family="Helvetica,sans-Serif" font-size="10.00">&#45;documentation/cbmc&#45;documentation</text>
<text text-anchor="start" x="373" y="-96.5" font-family="Helvetica,sans-Serif" font-size="10.00">/src/goto&#45;checker/cover_goals</text>
<text text-anchor="middle" x="465" y="-85.5" font-family="Helvetica,sans-Serif" font-size="10.00">_verifier_with_trace_storage.h</text>
</a>
</g>
</g>
<!-- Node1&#45;&gt;Node8 -->
<g id="edge9" class="edge">
<title>Node1&#45;&gt;Node8</title>
<path fill="none" stroke="midnightblue" d="M1335.49,-185.75C1169.36,-182.57 845.74,-171.23 574,-131 571.12,-130.57 568.2,-130.11 565.25,-129.61"/>
<polygon fill="midnightblue" stroke="midnightblue" points="1335.65,-189.26 1345.72,-185.94 1335.78,-182.26 1335.65,-189.26"/>
</g>
<!-- Node9 -->
<g id="node9" class="node">
<title>Node9</title>
<g id="a_node9"><a xlink:href="stop__on__fail__verifier_8h.html" target="_top" xlink:title=" ">
<polygon fill="none" stroke="black" points="801,-78.5 801,-130.5 1001,-130.5 1001,-78.5 801,-78.5"/>
<text text-anchor="start" x="809" y="-118.5" font-family="Helvetica,sans-Serif" font-size="10.00">/home/runner/work/cbmc</text>
<text text-anchor="start" x="809" y="-107.5" font-family="Helvetica,sans-Serif" font-size="10.00">&#45;documentation/cbmc&#45;documentation</text>
<text text-anchor="start" x="809" y="-96.5" font-family="Helvetica,sans-Serif" font-size="10.00">/src/goto&#45;checker/stop_on_fail</text>
<text text-anchor="middle" x="901" y="-85.5" font-family="Helvetica,sans-Serif" font-size="10.00">_verifier.h</text>
</a>
</g>
</g>
<!-- Node1&#45;&gt;Node9 -->
<g id="edge11" class="edge">
<title>Node1&#45;&gt;Node9</title>
<path fill="none" stroke="midnightblue" d="M1335.94,-176.01C1247.5,-166.42 1120.28,-150.93 1010,-131 1007.04,-130.46 1004.03,-129.9 1001,-129.31"/>
<polygon fill="midnightblue" stroke="midnightblue" points="1335.67,-179.5 1345.99,-177.09 1336.42,-172.54 1335.67,-179.5"/>
</g>
<!-- Node10 -->
<g id="node10" class="node">
<title>Node10</title>
<g id="a_node10"><a xlink:href="stop__on__fail__verifier__with__fault__localization_8h.html" target="_top" xlink:title=" ">
<polygon fill="none" stroke="black" points="1019,-78.5 1019,-130.5 1219,-130.5 1219,-78.5 1019,-78.5"/>
<text text-anchor="start" x="1027" y="-118.5" font-family="Helvetica,sans-Serif" font-size="10.00">/home/runner/work/cbmc</text>
<text text-anchor="start" x="1027" y="-107.5" font-family="Helvetica,sans-Serif" font-size="10.00">&#45;documentation/cbmc&#45;documentation</text>
<text text-anchor="start" x="1027" y="-96.5" font-family="Helvetica,sans-Serif" font-size="10.00">/src/goto&#45;checker/stop_on_fail</text>
<text text-anchor="middle" x="1119" y="-85.5" font-family="Helvetica,sans-Serif" font-size="10.00">_verifier_with_fault_localization.h</text>
</a>
</g>
</g>
<!-- Node1&#45;&gt;Node10 -->
<g id="edge14" class="edge">
<title>Node1&#45;&gt;Node10</title>
<path fill="none" stroke="midnightblue" d="M1357.83,-165.03C1314.99,-154.35 1263.31,-141.47 1219.01,-130.43"/>
<polygon fill="midnightblue" stroke="midnightblue" points="1357.13,-168.46 1367.68,-167.48 1358.82,-161.66 1357.13,-168.46"/>
</g>
<!-- Node11 -->
<g id="node11" class="node">
<title>Node11</title>
<g id="a_node11"><a xlink:href="bmc__util_8cpp.html" target="_top" xlink:title=" ">
<polygon fill="none" stroke="black" points="1455,-84 1455,-125 1655,-125 1655,-84 1455,-84"/>
<text text-anchor="start" x="1463" y="-113" font-family="Helvetica,sans-Serif" font-size="10.00">/home/runner/work/cbmc</text>
<text text-anchor="start" x="1463" y="-102" font-family="Helvetica,sans-Serif" font-size="10.00">&#45;documentation/cbmc&#45;documentation</text>
<text text-anchor="middle" x="1555" y="-91" font-family="Helvetica,sans-Serif" font-size="10.00">/src/goto&#45;checker/bmc_util.cpp</text>
</a>
</g>
</g>
<!-- Node1&#45;&gt;Node11 -->
<g id="edge17" class="edge">
<title>Node1&#45;&gt;Node11</title>
<path fill="none" stroke="midnightblue" d="M1480.48,-161.22C1496.09,-149.55 1514.24,-135.97 1528.73,-125.14"/>
<polygon fill="midnightblue" stroke="midnightblue" points="1478.02,-158.69 1472.11,-167.48 1482.21,-164.29 1478.02,-158.69"/>
</g>
<!-- Node12 -->
<g id="node12" class="node">
<title>Node12</title>
<g id="a_node12"><a xlink:href="multi__path__symex__checker_8cpp.html" target="_top" xlink:title=" ">
<polygon fill="none" stroke="black" points="1673,-78.5 1673,-130.5 1873,-130.5 1873,-78.5 1673,-78.5"/>
<text text-anchor="start" x="1681" y="-118.5" font-family="Helvetica,sans-Serif" font-size="10.00">/home/runner/work/cbmc</text>
<text text-anchor="start" x="1681" y="-107.5" font-family="Helvetica,sans-Serif" font-size="10.00">&#45;documentation/cbmc&#45;documentation</text>
<text text-anchor="start" x="1681" y="-96.5" font-family="Helvetica,sans-Serif" font-size="10.00">/src/goto&#45;checker/multi_path</text>
<text text-anchor="middle" x="1773" y="-85.5" font-family="Helvetica,sans-Serif" font-size="10.00">_symex_checker.cpp</text>
</a>
</g>
</g>
<!-- Node1&#45;&gt;Node12 -->
<g id="edge18" class="edge">
<title>Node1&#45;&gt;Node12</title>
<path fill="none" stroke="midnightblue" d="M1534.17,-165.03C1577.01,-154.35 1628.69,-141.47 1672.99,-130.43"/>
<polygon fill="midnightblue" stroke="midnightblue" points="1533.18,-161.66 1524.32,-167.48 1534.87,-168.46 1533.18,-161.66"/>
</g>
<!-- Node13 -->
<g id="node13" class="node">
<title>Node13</title>
<g id="a_node13"><a xlink:href="multi__path__symex__only__checker_8cpp.html" target="_top" xlink:title=" ">
<polygon fill="none" stroke="black" points="1891,-78.5 1891,-130.5 2091,-130.5 2091,-78.5 1891,-78.5"/>
<text text-anchor="start" x="1899" y="-118.5" font-family="Helvetica,sans-Serif" font-size="10.00">/home/runner/work/cbmc</text>
<text text-anchor="start" x="1899" y="-107.5" font-family="Helvetica,sans-Serif" font-size="10.00">&#45;documentation/cbmc&#45;documentation</text>
<text text-anchor="start" x="1899" y="-96.5" font-family="Helvetica,sans-Serif" font-size="10.00">/src/goto&#45;checker/multi_path</text>
<text text-anchor="middle" x="1991" y="-85.5" font-family="Helvetica,sans-Serif" font-size="10.00">_symex_only_checker.cpp</text>
</a>
</g>
</g>
<!-- Node1&#45;&gt;Node13 -->
<g id="edge19" class="edge">
<title>Node1&#45;&gt;Node13</title>
<path fill="none" stroke="midnightblue" d="M1556.06,-176.01C1644.5,-166.42 1771.72,-150.93 1882,-131 1884.96,-130.46 1887.97,-129.9 1891,-129.31"/>
<polygon fill="midnightblue" stroke="midnightblue" points="1555.58,-172.54 1546.01,-177.09 1556.33,-179.5 1555.58,-172.54"/>
</g>
<!-- Node14 -->
<g id="node14" class="node">
<title>Node14</title>
<g id="a_node14"><a xlink:href="report__util_8cpp.html" target="_top" xlink:title=" ">
<polygon fill="none" stroke="black" points="2109,-84 2109,-125 2309,-125 2309,-84 2109,-84"/>
<text text-anchor="start" x="2117" y="-113" font-family="Helvetica,sans-Serif" font-size="10.00">/home/runner/work/cbmc</text>
<text text-anchor="start" x="2117" y="-102" font-family="Helvetica,sans-Serif" font-size="10.00">&#45;documentation/cbmc&#45;documentation</text>
<text text-anchor="middle" x="2209" y="-91" font-family="Helvetica,sans-Serif" font-size="10.00">/src/goto&#45;checker/report_util.cpp</text>
</a>
</g>
</g>
<!-- Node1&#45;&gt;Node14 -->
<g id="edge20" class="edge">
<title>Node1&#45;&gt;Node14</title>
<path fill="none" stroke="midnightblue" d="M1556.27,-182.42C1686.75,-175.88 1910.24,-161.16 2100,-131 2110.27,-129.37 2121.01,-127.3 2131.57,-125.06"/>
<polygon fill="midnightblue" stroke="midnightblue" points="1556.08,-178.93 1546.26,-182.92 1556.42,-185.92 1556.08,-178.93"/>
</g>
<!-- Node15 -->
<g id="node15" class="node">
<title>Node15</title>
<g id="a_node15"><a xlink:href="single__loop__incremental__symex__checker_8cpp.html" target="_top" xlink:title=" ">
<polygon fill="none" stroke="black" points="2327,-78.5 2327,-130.5 2527,-130.5 2527,-78.5 2327,-78.5"/>
<text text-anchor="start" x="2335" y="-118.5" font-family="Helvetica,sans-Serif" font-size="10.00">/home/runner/work/cbmc</text>
<text text-anchor="start" x="2335" y="-107.5" font-family="Helvetica,sans-Serif" font-size="10.00">&#45;documentation/cbmc&#45;documentation</text>
<text text-anchor="start" x="2335" y="-96.5" font-family="Helvetica,sans-Serif" font-size="10.00">/src/goto&#45;checker/single_loop</text>
<text text-anchor="middle" x="2427" y="-85.5" font-family="Helvetica,sans-Serif" font-size="10.00">_incremental_symex_checker.cpp</text>
</a>
</g>
</g>
<!-- Node1&#45;&gt;Node15 -->
<g id="edge21" class="edge">
<title>Node1&#45;&gt;Node15</title>
<path fill="none" stroke="midnightblue" d="M1556.51,-185.75C1722.64,-182.57 2046.26,-171.23 2318,-131 2320.88,-130.57 2323.8,-130.11 2326.75,-129.61"/>
<polygon fill="midnightblue" stroke="midnightblue" points="1556.22,-182.26 1546.28,-185.94 1556.35,-189.26 1556.22,-182.26"/>
</g>
<!-- Node16 -->
<g id="node16" class="node">
<title>Node16</title>
<g id="a_node16"><a xlink:href="single__path__symex__checker_8cpp.html" target="_top" xlink:title=" ">
<polygon fill="none" stroke="black" points="2545,-78.5 2545,-130.5 2745,-130.5 2745,-78.5 2545,-78.5"/>
<text text-anchor="start" x="2553" y="-118.5" font-family="Helvetica,sans-Serif" font-size="10.00">/home/runner/work/cbmc</text>
<text text-anchor="start" x="2553" y="-107.5" font-family="Helvetica,sans-Serif" font-size="10.00">&#45;documentation/cbmc&#45;documentation</text>
<text text-anchor="start" x="2553" y="-96.5" font-family="Helvetica,sans-Serif" font-size="10.00">/src/goto&#45;checker/single_path</text>
<text text-anchor="middle" x="2645" y="-85.5" font-family="Helvetica,sans-Serif" font-size="10.00">_symex_checker.cpp</text>
</a>
</g>
</g>
<!-- Node1&#45;&gt;Node16 -->
<g id="edge22" class="edge">
<title>Node1&#45;&gt;Node16</title>
<path fill="none" stroke="midnightblue" d="M1556.22,-187.81C1753.67,-187.83 2180.32,-181.33 2536,-131 2538.89,-130.59 2541.81,-130.14 2544.75,-129.66"/>
<polygon fill="midnightblue" stroke="midnightblue" points="1556.14,-184.31 1546.13,-187.8 1556.13,-191.31 1556.14,-184.31"/>
</g>
<!-- Node17 -->
<g id="node17" class="node">
<title>Node17</title>
<g id="a_node17"><a xlink:href="single__path__symex__only__checker_8cpp.html" target="_top" xlink:title=" ">
<polygon fill="none" stroke="black" points="2763,-78.5 2763,-130.5 2963,-130.5 2963,-78.5 2763,-78.5"/>
<text text-anchor="start" x="2771" y="-118.5" font-family="Helvetica,sans-Serif" font-size="10.00">/home/runner/work/cbmc</text>
<text text-anchor="start" x="2771" y="-107.5" font-family="Helvetica,sans-Serif" font-size="10.00">&#45;documentation/cbmc&#45;documentation</text>
<text text-anchor="start" x="2771" y="-96.5" font-family="Helvetica,sans-Serif" font-size="10.00">/src/goto&#45;checker/single_path</text>
<text text-anchor="middle" x="2863" y="-85.5" font-family="Helvetica,sans-Serif" font-size="10.00">_symex_only_checker.cpp</text>
</a>
</g>
</g>
<!-- Node1&#45;&gt;Node17 -->
<g id="edge23" class="edge">
<title>Node1&#45;&gt;Node17</title>
<path fill="none" stroke="midnightblue" d="M1556.55,-184.93C1828.4,-179.4 2524.03,-162.54 2754,-131 2756.89,-130.6 2759.81,-130.17 2762.76,-129.69"/>
<polygon fill="midnightblue" stroke="midnightblue" points="1556.21,-181.43 1546.28,-185.13 1556.35,-188.43 1556.21,-181.43"/>
</g>
<!-- Node18 -->
<g id="node18" class="node">
<title>Node18</title>
<g id="a_node18"><a xlink:href="jbmc__parse__options_8h.html" target="_top" xlink:title=" ">
<polygon fill="none" stroke="black" points="1237,-84 1237,-125 1437,-125 1437,-84 1237,-84"/>
<text text-anchor="start" x="1245" y="-113" font-family="Helvetica,sans-Serif" font-size="10.00">/home/runner/work/cbmc</text>
<text text-anchor="start" x="1245" y="-102" font-family="Helvetica,sans-Serif" font-size="10.00">&#45;documentation/cbmc&#45;documentation</text>
<text text-anchor="middle" x="1337" y="-91" font-family="Helvetica,sans-Serif" font-size="10.00">/jbmc/src/jbmc/jbmc_parse_options.h</text>
</a>
</g>
</g>
<!-- Node1&#45;&gt;Node18 -->
<g id="edge24" class="edge">
<title>Node1&#45;&gt;Node18</title>
<path fill="none" stroke="midnightblue" d="M1411.52,-161.22C1395.91,-149.55 1377.76,-135.97 1363.27,-125.14"/>
<polygon fill="midnightblue" stroke="midnightblue" points="1409.79,-164.29 1419.89,-167.48 1413.98,-158.69 1409.79,-164.29"/>
</g>
<!-- Node3 -->
<g id="node3" class="node">
<title>Node3</title>
<g id="a_node3"><a xlink:href="cbmc__languages_8cpp.html" target="_top" xlink:title=" ">
<polygon fill="none" stroke="black" points="218,-0.5 218,-41.5 418,-41.5 418,-0.5 218,-0.5"/>
<text text-anchor="start" x="226" y="-29.5" font-family="Helvetica,sans-Serif" font-size="10.00">/home/runner/work/cbmc</text>
<text text-anchor="start" x="226" y="-18.5" font-family="Helvetica,sans-Serif" font-size="10.00">&#45;documentation/cbmc&#45;documentation</text>
<text text-anchor="middle" x="318" y="-7.5" font-family="Helvetica,sans-Serif" font-size="10.00">/src/cbmc/cbmc_languages.cpp</text>
</a>
</g>
</g>
<!-- Node2&#45;&gt;Node3 -->
<g id="edge2" class="edge">
<title>Node2&#45;&gt;Node3</title>
<path fill="none" stroke="midnightblue" d="M243.48,-77.72C259.09,-66.05 277.24,-52.47 291.73,-41.64"/>
<polygon fill="midnightblue" stroke="midnightblue" points="241.02,-75.19 235.11,-83.98 245.21,-80.79 241.02,-75.19"/>
</g>
<!-- Node4 -->
<g id="node4" class="node">
<title>Node4</title>
<g id="a_node4"><a xlink:href="cbmc__main_8cpp.html" target="_top" xlink:title=" ">
<polygon fill="none" stroke="black" points="0,-0.5 0,-41.5 200,-41.5 200,-0.5 0,-0.5"/>
<text text-anchor="start" x="8" y="-29.5" font-family="Helvetica,sans-Serif" font-size="10.00">/home/runner/work/cbmc</text>
<text text-anchor="start" x="8" y="-18.5" font-family="Helvetica,sans-Serif" font-size="10.00">&#45;documentation/cbmc&#45;documentation</text>
<text text-anchor="middle" x="100" y="-7.5" font-family="Helvetica,sans-Serif" font-size="10.00">/src/cbmc/cbmc_main.cpp</text>
</a>
</g>
</g>
<!-- Node2&#45;&gt;Node4 -->
<g id="edge3" class="edge">
<title>Node2&#45;&gt;Node4</title>
<path fill="none" stroke="midnightblue" d="M174.52,-77.72C158.91,-66.05 140.76,-52.47 126.27,-41.64"/>
<polygon fill="midnightblue" stroke="midnightblue" points="172.79,-80.79 182.89,-83.98 176.98,-75.19 172.79,-80.79"/>
</g>
<!-- Node2&#45;&gt;Node5 -->
<g id="edge4" class="edge">
<title>Node2&#45;&gt;Node5</title>
<path fill="none" stroke="midnightblue" d="M304.2,-81.85C310.55,-80.51 316.86,-79.22 323,-78 397.02,-63.29 481.04,-48.75 544.69,-38.18"/>
<polygon fill="midnightblue" stroke="midnightblue" points="303.24,-78.47 294.19,-83.98 304.7,-85.32 303.24,-78.47"/>
</g>
<!-- Node6&#45;&gt;Node5 -->
<g id="edge6" class="edge">
<title>Node6&#45;&gt;Node5</title>
<path fill="none" stroke="midnightblue" d="M666.93,-69.03C662.56,-59.67 657.99,-49.85 654.15,-41.63"/>
<polygon fill="midnightblue" stroke="midnightblue" points="663.79,-70.58 671.18,-78.16 670.13,-67.62 663.79,-70.58"/>
</g>
<!-- Node7 -->
<g id="node7" class="node">
<title>Node7</title>
<g id="a_node7"><a xlink:href="jbmc__parse__options_8cpp.html" target="_top" xlink:title=" ">
<polygon fill="none" stroke="black" points="834.5,-0.5 834.5,-41.5 1043.5,-41.5 1043.5,-0.5 834.5,-0.5"/>
<text text-anchor="start" x="842.5" y="-29.5" font-family="Helvetica,sans-Serif" font-size="10.00">/home/runner/work/cbmc</text>
<text text-anchor="start" x="842.5" y="-18.5" font-family="Helvetica,sans-Serif" font-size="10.00">&#45;documentation/cbmc&#45;documentation</text>
<text text-anchor="middle" x="939" y="-7.5" font-family="Helvetica,sans-Serif" font-size="10.00">/jbmc/src/jbmc/jbmc_parse_options.cpp</text>
</a>
</g>
</g>
<!-- Node6&#45;&gt;Node7 -->
<g id="edge7" class="edge">
<title>Node6&#45;&gt;Node7</title>
<path fill="none" stroke="midnightblue" d="M771.31,-75.39C806.37,-64.22 845.84,-51.66 877.67,-41.52"/>
<polygon fill="midnightblue" stroke="midnightblue" points="770.02,-72.12 761.55,-78.49 772.14,-78.79 770.02,-72.12"/>
</g>
<!-- Node8&#45;&gt;Node5 -->
<g id="edge10" class="edge">
<title>Node8&#45;&gt;Node5</title>
<path fill="none" stroke="midnightblue" d="M529.83,-74.14C553.72,-63.33 580.18,-51.35 601.71,-41.6"/>
<polygon fill="midnightblue" stroke="midnightblue" points="528.14,-71.07 520.47,-78.38 531.03,-77.45 528.14,-71.07"/>
</g>
<!-- Node9&#45;&gt;Node5 -->
<g id="edge12" class="edge">
<title>Node9&#45;&gt;Node5</title>
<path fill="none" stroke="midnightblue" d="M812.69,-75.39C777.63,-64.22 738.16,-51.66 706.33,-41.52"/>
<polygon fill="midnightblue" stroke="midnightblue" points="811.86,-78.79 822.45,-78.49 813.98,-72.12 811.86,-78.79"/>
</g>
<!-- Node9&#45;&gt;Node7 -->
<g id="edge13" class="edge">
<title>Node9&#45;&gt;Node7</title>
<path fill="none" stroke="midnightblue" d="M917.07,-69.03C921.44,-59.67 926.01,-49.85 929.85,-41.63"/>
<polygon fill="midnightblue" stroke="midnightblue" points="913.87,-67.62 912.82,-78.16 920.21,-70.58 913.87,-67.62"/>
</g>
<!-- Node10&#45;&gt;Node5 -->
<g id="edge15" class="edge">
<title>Node10&#45;&gt;Node5</title>
<path fill="none" stroke="midnightblue" d="M1008.91,-77.85C913.99,-59.74 816.3,-45.13 745.28,-35.25"/>
<polygon fill="midnightblue" stroke="midnightblue" points="1008.5,-81.33 1018.98,-79.78 1009.82,-74.46 1008.5,-81.33"/>
</g>
<!-- Node10&#45;&gt;Node7 -->
<g id="edge16" class="edge">
<title>Node10&#45;&gt;Node7</title>
<path fill="none" stroke="midnightblue" d="M1054.17,-74.14C1030.28,-63.33 1003.82,-51.35 982.29,-41.6"/>
<polygon fill="midnightblue" stroke="midnightblue" points="1052.97,-77.45 1063.53,-78.38 1055.86,-71.07 1052.97,-77.45"/>
</g>
<!-- Node18&#45;&gt;Node7 -->
<g id="edge26" class="edge">
<title>Node18&#45;&gt;Node7</title>
<path fill="none" stroke="midnightblue" d="M1245.16,-81.75C1239.36,-80.46 1233.6,-79.2 1228,-78 1167.03,-64.97 1098.53,-51.64 1043.54,-41.25"/>
<polygon fill="midnightblue" stroke="midnightblue" points="1244.42,-85.17 1254.94,-83.95 1245.95,-78.34 1244.42,-85.17"/>
</g>
<!-- Node19 -->
<g id="node19" class="node">
<title>Node19</title>
<g id="a_node19"><a xlink:href="jbmc__main_8cpp.html" target="_top" xlink:title=" ">
<polygon fill="none" stroke="black" points="1237,-0.5 1237,-41.5 1437,-41.5 1437,-0.5 1237,-0.5"/>
<text text-anchor="start" x="1245" y="-29.5" font-family="Helvetica,sans-Serif" font-size="10.00">/home/runner/work/cbmc</text>
<text text-anchor="start" x="1245" y="-18.5" font-family="Helvetica,sans-Serif" font-size="10.00">&#45;documentation/cbmc&#45;documentation</text>
<text text-anchor="middle" x="1337" y="-7.5" font-family="Helvetica,sans-Serif" font-size="10.00">/jbmc/src/jbmc/jbmc_main.cpp</text>
</a>
</g>
</g>
<!-- Node18&#45;&gt;Node19 -->
<g id="edge25" class="edge">
<title>Node18&#45;&gt;Node19</title>
<path fill="none" stroke="midnightblue" d="M1337,-73.56C1337,-62.88 1337,-51.13 1337,-41.55"/>
<polygon fill="midnightblue" stroke="midnightblue" points="1333.5,-73.77 1337,-83.77 1340.5,-73.77 1333.5,-73.77"/>
</g>
</g>
</svg>
