<?xml version="1.0" encoding="UTF-8" standalone="no"?>
<!DOCTYPE svg PUBLIC "-//W3C//DTD SVG 1.1//EN"
 "http://www.w3.org/Graphics/SVG/1.1/DTD/svg11.dtd">
<!-- Generated by graphviz version 2.43.0 (0)
 -->
<!-- Title: /home/runner/work/cbmc&#45;documentation/cbmc&#45;documentation/src/solvers/flattening/bv_pointers.h Pages: 1 -->
<svg width="3304pt" height="395pt"
 viewBox="0.00 0.00 3304.00 395.00" xmlns="http://www.w3.org/2000/svg" xmlns:xlink="http://www.w3.org/1999/xlink">
<g id="graph0" class="graph" transform="scale(1 1) rotate(0) translate(4 391)">
<title>/home/runner/work/cbmc&#45;documentation/cbmc&#45;documentation/src/solvers/flattening/bv_pointers.h</title>
<!-- Node1 -->
<g id="node1" class="node">
<title>Node1</title>
<g id="a_node1"><a xlink:title=" ">
<polygon fill="#bfbfbf" stroke="black" points="1879,-345.5 1879,-386.5 2079,-386.5 2079,-345.5 1879,-345.5"/>
<text text-anchor="start" x="1887" y="-374.5" font-family="Helvetica,sans-Serif" font-size="10.00">/home/runner/work/cbmc</text>
<text text-anchor="start" x="1887" y="-363.5" font-family="Helvetica,sans-Serif" font-size="10.00">&#45;documentation/cbmc&#45;documentation</text>
<text text-anchor="middle" x="1979" y="-352.5" font-family="Helvetica,sans-Serif" font-size="10.00">/src/solvers/flattening/bv_pointers.h</text>
</a>
</g>
</g>
<!-- Node2 -->
<g id="node2" class="node">
<title>Node2</title>
<g id="a_node2"><a xlink:href="scratch__program_8h.html" target="_top" xlink:title=" ">
<polygon fill="none" stroke="black" points="654,-256.5 654,-308.5 854,-308.5 854,-256.5 654,-256.5"/>
<text text-anchor="start" x="662" y="-296.5" font-family="Helvetica,sans-Serif" font-size="10.00">/home/runner/work/cbmc</text>
<text text-anchor="start" x="662" y="-285.5" font-family="Helvetica,sans-Serif" font-size="10.00">&#45;documentation/cbmc&#45;documentation</text>
<text text-anchor="start" x="662" y="-274.5" font-family="Helvetica,sans-Serif" font-size="10.00">/src/goto&#45;instrument/accelerate</text>
<text text-anchor="middle" x="754" y="-263.5" font-family="Helvetica,sans-Serif" font-size="10.00">/scratch_program.h</text>
</a>
</g>
</g>
<!-- Node1&#45;&gt;Node2 -->
<g id="edge1" class="edge">
<title>Node1&#45;&gt;Node2</title>
<path fill="none" stroke="midnightblue" d="M1868.43,-357.64C1632.16,-341.92 1081.2,-305.27 854.34,-290.18"/>
<polygon fill="midnightblue" stroke="midnightblue" points="1868.54,-361.16 1878.75,-358.33 1869.01,-354.17 1868.54,-361.16"/>
</g>
<!-- Node9 -->
<g id="node9" class="node">
<title>Node9</title>
<g id="a_node9"><a xlink:href="bv__dimacs_8h.html" target="_top" xlink:title=" ">
<polygon fill="none" stroke="black" points="1770,-262 1770,-303 1970,-303 1970,-262 1770,-262"/>
<text text-anchor="start" x="1778" y="-291" font-family="Helvetica,sans-Serif" font-size="10.00">/home/runner/work/cbmc</text>
<text text-anchor="start" x="1778" y="-280" font-family="Helvetica,sans-Serif" font-size="10.00">&#45;documentation/cbmc&#45;documentation</text>
<text text-anchor="middle" x="1870" y="-269" font-family="Helvetica,sans-Serif" font-size="10.00">/src/solvers/flattening/bv_dimacs.h</text>
</a>
</g>
</g>
<!-- Node1&#45;&gt;Node9 -->
<g id="edge8" class="edge">
<title>Node1&#45;&gt;Node9</title>
<path fill="none" stroke="midnightblue" d="M1944.52,-339.22C1928.91,-327.55 1910.76,-313.97 1896.27,-303.14"/>
<polygon fill="midnightblue" stroke="midnightblue" points="1942.79,-342.29 1952.89,-345.48 1946.98,-336.69 1942.79,-342.29"/>
</g>
<!-- Node12 -->
<g id="node12" class="node">
<title>Node12</title>
<g id="a_node12"><a xlink:href="bv__minimize_8h.html" target="_top" xlink:title=" ">
<polygon fill="none" stroke="black" points="1548,-262 1548,-303 1748,-303 1748,-262 1548,-262"/>
<text text-anchor="start" x="1556" y="-291" font-family="Helvetica,sans-Serif" font-size="10.00">/home/runner/work/cbmc</text>
<text text-anchor="start" x="1556" y="-280" font-family="Helvetica,sans-Serif" font-size="10.00">&#45;documentation/cbmc&#45;documentation</text>
<text text-anchor="middle" x="1648" y="-269" font-family="Helvetica,sans-Serif" font-size="10.00">/src/solvers/flattening/bv_minimize.h</text>
</a>
</g>
</g>
<!-- Node1&#45;&gt;Node12 -->
<g id="edge11" class="edge">
<title>Node1&#45;&gt;Node12</title>
<path fill="none" stroke="midnightblue" d="M1889.75,-343.02C1839.05,-330.54 1776.14,-315.05 1727.21,-303"/>
<polygon fill="midnightblue" stroke="midnightblue" points="1889.17,-346.49 1899.72,-345.48 1890.84,-339.69 1889.17,-346.49"/>
</g>
<!-- Node19 -->
<g id="node19" class="node">
<title>Node19</title>
<g id="a_node19"><a xlink:href="bv__pointers_8cpp.html" target="_top" xlink:title=" ">
<polygon fill="none" stroke="black" points="1988,-262 1988,-303 2190,-303 2190,-262 1988,-262"/>
<text text-anchor="start" x="1996" y="-291" font-family="Helvetica,sans-Serif" font-size="10.00">/home/runner/work/cbmc</text>
<text text-anchor="start" x="1996" y="-280" font-family="Helvetica,sans-Serif" font-size="10.00">&#45;documentation/cbmc&#45;documentation</text>
<text text-anchor="middle" x="2089" y="-269" font-family="Helvetica,sans-Serif" font-size="10.00">/src/solvers/flattening/bv_pointers.cpp</text>
</a>
</g>
</g>
<!-- Node1&#45;&gt;Node19 -->
<g id="edge18" class="edge">
<title>Node1&#45;&gt;Node19</title>
<path fill="none" stroke="midnightblue" d="M2013.8,-339.22C2029.55,-327.55 2047.87,-313.97 2062.49,-303.14"/>
<polygon fill="midnightblue" stroke="midnightblue" points="2011.3,-336.71 2005.35,-345.48 2015.47,-342.34 2011.3,-336.71"/>
</g>
<!-- Node20 -->
<g id="node20" class="node">
<title>Node20</title>
<g id="a_node20"><a xlink:href="bv__refinement_8h.html" target="_top" xlink:title=" ">
<polygon fill="none" stroke="black" points="2208.5,-262 2208.5,-303 2419.5,-303 2419.5,-262 2208.5,-262"/>
<text text-anchor="start" x="2216.5" y="-291" font-family="Helvetica,sans-Serif" font-size="10.00">/home/runner/work/cbmc</text>
<text text-anchor="start" x="2216.5" y="-280" font-family="Helvetica,sans-Serif" font-size="10.00">&#45;documentation/cbmc&#45;documentation</text>
<text text-anchor="middle" x="2314" y="-269" font-family="Helvetica,sans-Serif" font-size="10.00">/src/solvers/refinement/bv_refinement.h</text>
</a>
</g>
</g>
<!-- Node1&#45;&gt;Node20 -->
<g id="edge19" class="edge">
<title>Node1&#45;&gt;Node20</title>
<path fill="none" stroke="midnightblue" d="M2069.01,-343.1C2120.37,-330.61 2184.2,-315.08 2233.83,-303"/>
<polygon fill="midnightblue" stroke="midnightblue" points="2068.13,-339.71 2059.24,-345.48 2069.78,-346.52 2068.13,-339.71"/>
</g>
<!-- Node33 -->
<g id="node33" class="node">
<title>Node33</title>
<g id="a_node33"><a xlink:href="string__constraint_8cpp.html" target="_top" xlink:title=" ">
<polygon fill="none" stroke="black" points="2437.5,-262 2437.5,-303 2650.5,-303 2650.5,-262 2437.5,-262"/>
<text text-anchor="start" x="2445.5" y="-291" font-family="Helvetica,sans-Serif" font-size="10.00">/home/runner/work/cbmc</text>
<text text-anchor="start" x="2445.5" y="-280" font-family="Helvetica,sans-Serif" font-size="10.00">&#45;documentation/cbmc&#45;documentation</text>
<text text-anchor="middle" x="2544" y="-269" font-family="Helvetica,sans-Serif" font-size="10.00">/src/solvers/strings/string_constraint.cpp</text>
</a>
</g>
</g>
<!-- Node1&#45;&gt;Node33 -->
<g id="edge34" class="edge">
<title>Node1&#45;&gt;Node33</title>
<path fill="none" stroke="midnightblue" d="M2089.14,-354.23C2180.51,-344.59 2313.66,-328.92 2429,-309 2439.18,-307.24 2449.81,-305.19 2460.33,-303.02"/>
<polygon fill="midnightblue" stroke="midnightblue" points="2088.62,-350.76 2079.04,-355.29 2089.35,-357.72 2088.62,-350.76"/>
</g>
<!-- Node3 -->
<g id="node3" class="node">
<title>Node3</title>
<g id="a_node3"><a xlink:href="accelerate_8cpp.html" target="_top" xlink:title=" ">
<polygon fill="none" stroke="black" points="654,-167.5 654,-219.5 854,-219.5 854,-167.5 654,-167.5"/>
<text text-anchor="start" x="662" y="-207.5" font-family="Helvetica,sans-Serif" font-size="10.00">/home/runner/work/cbmc</text>
<text text-anchor="start" x="662" y="-196.5" font-family="Helvetica,sans-Serif" font-size="10.00">&#45;documentation/cbmc&#45;documentation</text>
<text text-anchor="start" x="662" y="-185.5" font-family="Helvetica,sans-Serif" font-size="10.00">/src/goto&#45;instrument/accelerate</text>
<text text-anchor="middle" x="754" y="-174.5" font-family="Helvetica,sans-Serif" font-size="10.00">/accelerate.cpp</text>
</a>
</g>
</g>
<!-- Node2&#45;&gt;Node3 -->
<g id="edge2" class="edge">
<title>Node2&#45;&gt;Node3</title>
<path fill="none" stroke="midnightblue" d="M754,-246.19C754,-237.28 754,-227.9 754,-219.61"/>
<polygon fill="midnightblue" stroke="midnightblue" points="750.5,-246.34 754,-256.34 757.5,-246.34 750.5,-246.34"/>
</g>
<!-- Node4 -->
<g id="node4" class="node">
<title>Node4</title>
<g id="a_node4"><a xlink:href="acceleration__utils_8cpp.html" target="_top" xlink:title=" ">
<polygon fill="none" stroke="black" points="872,-167.5 872,-219.5 1072,-219.5 1072,-167.5 872,-167.5"/>
<text text-anchor="start" x="880" y="-207.5" font-family="Helvetica,sans-Serif" font-size="10.00">/home/runner/work/cbmc</text>
<text text-anchor="start" x="880" y="-196.5" font-family="Helvetica,sans-Serif" font-size="10.00">&#45;documentation/cbmc&#45;documentation</text>
<text text-anchor="start" x="880" y="-185.5" font-family="Helvetica,sans-Serif" font-size="10.00">/src/goto&#45;instrument/accelerate</text>
<text text-anchor="middle" x="972" y="-174.5" font-family="Helvetica,sans-Serif" font-size="10.00">/acceleration_utils.cpp</text>
</a>
</g>
</g>
<!-- Node2&#45;&gt;Node4 -->
<g id="edge3" class="edge">
<title>Node2&#45;&gt;Node4</title>
<path fill="none" stroke="midnightblue" d="M826.12,-252.72C853.02,-241.98 883.32,-229.89 909.3,-219.52"/>
<polygon fill="midnightblue" stroke="midnightblue" points="824.75,-249.5 816.76,-256.45 827.35,-256 824.75,-249.5"/>
</g>
<!-- Node5 -->
<g id="node5" class="node">
<title>Node5</title>
<g id="a_node5"><a xlink:href="disjunctive__polynomial__acceleration_8cpp.html" target="_top" xlink:title=" ">
<polygon fill="none" stroke="black" points="1090,-167.5 1090,-219.5 1308,-219.5 1308,-167.5 1090,-167.5"/>
<text text-anchor="start" x="1098" y="-207.5" font-family="Helvetica,sans-Serif" font-size="10.00">/home/runner/work/cbmc</text>
<text text-anchor="start" x="1098" y="-196.5" font-family="Helvetica,sans-Serif" font-size="10.00">&#45;documentation/cbmc&#45;documentation</text>
<text text-anchor="start" x="1098" y="-185.5" font-family="Helvetica,sans-Serif" font-size="10.00">/src/goto&#45;instrument/accelerate</text>
<text text-anchor="middle" x="1199" y="-174.5" font-family="Helvetica,sans-Serif" font-size="10.00">/disjunctive_polynomial_acceleration.cpp</text>
</a>
</g>
</g>
<!-- Node2&#45;&gt;Node5 -->
<g id="edge4" class="edge">
<title>Node2&#45;&gt;Node5</title>
<path fill="none" stroke="midnightblue" d="M864.35,-261.51C927.8,-249.83 1008.98,-234.55 1081,-220 1083.88,-219.42 1086.79,-218.83 1089.73,-218.22"/>
<polygon fill="midnightblue" stroke="midnightblue" points="863.52,-258.1 854.32,-263.36 864.79,-264.99 863.52,-258.1"/>
</g>
<!-- Node6 -->
<g id="node6" class="node">
<title>Node6</title>
<g id="a_node6"><a xlink:href="polynomial__accelerator_8cpp.html" target="_top" xlink:title=" ">
<polygon fill="none" stroke="black" points="0,-167.5 0,-219.5 200,-219.5 200,-167.5 0,-167.5"/>
<text text-anchor="start" x="8" y="-207.5" font-family="Helvetica,sans-Serif" font-size="10.00">/home/runner/work/cbmc</text>
<text text-anchor="start" x="8" y="-196.5" font-family="Helvetica,sans-Serif" font-size="10.00">&#45;documentation/cbmc&#45;documentation</text>
<text text-anchor="start" x="8" y="-185.5" font-family="Helvetica,sans-Serif" font-size="10.00">/src/goto&#45;instrument/accelerate</text>
<text text-anchor="middle" x="100" y="-174.5" font-family="Helvetica,sans-Serif" font-size="10.00">/polynomial_accelerator.cpp</text>
</a>
</g>
</g>
<!-- Node2&#45;&gt;Node6 -->
<g id="edge5" class="edge">
<title>Node2&#45;&gt;Node6</title>
<path fill="none" stroke="midnightblue" d="M643.65,-272.88C533.17,-263.35 358.56,-245.84 209,-220 206.13,-219.5 203.22,-218.98 200.28,-218.43"/>
<polygon fill="midnightblue" stroke="midnightblue" points="643.54,-276.38 653.8,-273.75 644.14,-269.41 643.54,-276.38"/>
</g>
<!-- Node7 -->
<g id="node7" class="node">
<title>Node7</title>
<g id="a_node7"><a xlink:href="sat__path__enumerator_8cpp.html" target="_top" xlink:title=" ">
<polygon fill="none" stroke="black" points="218,-167.5 218,-219.5 418,-219.5 418,-167.5 218,-167.5"/>
<text text-anchor="start" x="226" y="-207.5" font-family="Helvetica,sans-Serif" font-size="10.00">/home/runner/work/cbmc</text>
<text text-anchor="start" x="226" y="-196.5" font-family="Helvetica,sans-Serif" font-size="10.00">&#45;documentation/cbmc&#45;documentation</text>
<text text-anchor="start" x="226" y="-185.5" font-family="Helvetica,sans-Serif" font-size="10.00">/src/goto&#45;instrument/accelerate</text>
<text text-anchor="middle" x="318" y="-174.5" font-family="Helvetica,sans-Serif" font-size="10.00">/sat_path_enumerator.cpp</text>
</a>
</g>
</g>
<!-- Node2&#45;&gt;Node7 -->
<g id="edge6" class="edge">
<title>Node2&#45;&gt;Node7</title>
<path fill="none" stroke="midnightblue" d="M643.91,-262.04C580.37,-250.5 499.03,-235.19 427,-220 424.05,-219.38 421.06,-218.74 418.05,-218.08"/>
<polygon fill="midnightblue" stroke="midnightblue" points="643.49,-265.52 653.95,-263.86 644.74,-258.63 643.49,-265.52"/>
</g>
<!-- Node8 -->
<g id="node8" class="node">
<title>Node8</title>
<g id="a_node8"><a xlink:href="scratch__program_8cpp.html" target="_top" xlink:title=" ">
<polygon fill="none" stroke="black" points="436,-167.5 436,-219.5 636,-219.5 636,-167.5 436,-167.5"/>
<text text-anchor="start" x="444" y="-207.5" font-family="Helvetica,sans-Serif" font-size="10.00">/home/runner/work/cbmc</text>
<text text-anchor="start" x="444" y="-196.5" font-family="Helvetica,sans-Serif" font-size="10.00">&#45;documentation/cbmc&#45;documentation</text>
<text text-anchor="start" x="444" y="-185.5" font-family="Helvetica,sans-Serif" font-size="10.00">/src/goto&#45;instrument/accelerate</text>
<text text-anchor="middle" x="536" y="-174.5" font-family="Helvetica,sans-Serif" font-size="10.00">/scratch_program.cpp</text>
</a>
</g>
</g>
<!-- Node2&#45;&gt;Node8 -->
<g id="edge7" class="edge">
<title>Node2&#45;&gt;Node8</title>
<path fill="none" stroke="midnightblue" d="M681.88,-252.72C654.98,-241.98 624.68,-229.89 598.7,-219.52"/>
<polygon fill="midnightblue" stroke="midnightblue" points="680.65,-256 691.24,-256.45 683.25,-249.5 680.65,-256"/>
</g>
<!-- Node10 -->
<g id="node10" class="node">
<title>Node10</title>
<g id="a_node10"><a xlink:href="solver__factory_8cpp.html" target="_top" xlink:title=" ">
<polygon fill="none" stroke="black" points="1936,-84 1936,-125 2136,-125 2136,-84 1936,-84"/>
<text text-anchor="start" x="1944" y="-113" font-family="Helvetica,sans-Serif" font-size="10.00">/home/runner/work/cbmc</text>
<text text-anchor="start" x="1944" y="-102" font-family="Helvetica,sans-Serif" font-size="10.00">&#45;documentation/cbmc&#45;documentation</text>
<text text-anchor="middle" x="2036" y="-91" font-family="Helvetica,sans-Serif" font-size="10.00">/src/goto&#45;checker/solver_factory.cpp</text>
</a>
</g>
</g>
<!-- Node9&#45;&gt;Node10 -->
<g id="edge9" class="edge">
<title>Node9&#45;&gt;Node10</title>
<path fill="none" stroke="midnightblue" d="M1927.79,-257.13C1945.8,-247.5 1964.67,-235.1 1979,-220 2005.45,-192.14 2022.18,-149.65 2030.25,-125.02"/>
<polygon fill="midnightblue" stroke="midnightblue" points="1925.78,-254.22 1918.49,-261.9 1928.98,-260.45 1925.78,-254.22"/>
</g>
<!-- Node11 -->
<g id="node11" class="node">
<title>Node11</title>
<g id="a_node11"><a xlink:href="bv__dimacs_8cpp.html" target="_top" xlink:title=" ">
<polygon fill="none" stroke="black" points="1770,-173 1770,-214 1970,-214 1970,-173 1770,-173"/>
<text text-anchor="start" x="1778" y="-202" font-family="Helvetica,sans-Serif" font-size="10.00">/home/runner/work/cbmc</text>
<text text-anchor="start" x="1778" y="-191" font-family="Helvetica,sans-Serif" font-size="10.00">&#45;documentation/cbmc&#45;documentation</text>
<text text-anchor="middle" x="1870" y="-180" font-family="Helvetica,sans-Serif" font-size="10.00">/src/solvers/flattening/bv_dimacs.cpp</text>
</a>
</g>
</g>
<!-- Node9&#45;&gt;Node11 -->
<g id="edge10" class="edge">
<title>Node9&#45;&gt;Node11</title>
<path fill="none" stroke="midnightblue" d="M1870,-251.44C1870,-239.1 1870,-225.16 1870,-214.16"/>
<polygon fill="midnightblue" stroke="midnightblue" points="1866.5,-251.76 1870,-261.76 1873.5,-251.76 1866.5,-251.76"/>
</g>
<!-- Node13 -->
<g id="node13" class="node">
<title>Node13</title>
<g id="a_node13"><a xlink:href="counterexample__beautification_8h.html" target="_top" xlink:title=" ">
<polygon fill="none" stroke="black" points="1326,-167.5 1326,-219.5 1526,-219.5 1526,-167.5 1326,-167.5"/>
<text text-anchor="start" x="1334" y="-207.5" font-family="Helvetica,sans-Serif" font-size="10.00">/home/runner/work/cbmc</text>
<text text-anchor="start" x="1334" y="-196.5" font-family="Helvetica,sans-Serif" font-size="10.00">&#45;documentation/cbmc&#45;documentation</text>
<text text-anchor="start" x="1334" y="-185.5" font-family="Helvetica,sans-Serif" font-size="10.00">/src/goto&#45;checker/counterexample</text>
<text text-anchor="middle" x="1426" y="-174.5" font-family="Helvetica,sans-Serif" font-size="10.00">_beautification.h</text>
</a>
</g>
</g>
<!-- Node12&#45;&gt;Node13 -->
<g id="edge12" class="edge">
<title>Node12&#45;&gt;Node13</title>
<path fill="none" stroke="midnightblue" d="M1588.55,-258.2C1558.13,-246.28 1521.06,-231.75 1490.01,-219.58"/>
<polygon fill="midnightblue" stroke="midnightblue" points="1587.59,-261.59 1598.18,-261.98 1590.15,-255.07 1587.59,-261.59"/>
</g>
<!-- Node18 -->
<g id="node18" class="node">
<title>Node18</title>
<g id="a_node18"><a xlink:href="bv__minimize_8cpp.html" target="_top" xlink:title=" ">
<polygon fill="none" stroke="black" points="1544,-173 1544,-214 1752,-214 1752,-173 1544,-173"/>
<text text-anchor="start" x="1552" y="-202" font-family="Helvetica,sans-Serif" font-size="10.00">/home/runner/work/cbmc</text>
<text text-anchor="start" x="1552" y="-191" font-family="Helvetica,sans-Serif" font-size="10.00">&#45;documentation/cbmc&#45;documentation</text>
<text text-anchor="middle" x="1648" y="-180" font-family="Helvetica,sans-Serif" font-size="10.00">/src/solvers/flattening/bv_minimize.cpp</text>
</a>
</g>
</g>
<!-- Node12&#45;&gt;Node18 -->
<g id="edge17" class="edge">
<title>Node12&#45;&gt;Node18</title>
<path fill="none" stroke="midnightblue" d="M1648,-251.44C1648,-239.1 1648,-225.16 1648,-214.16"/>
<polygon fill="midnightblue" stroke="midnightblue" points="1644.5,-251.76 1648,-261.76 1651.5,-251.76 1644.5,-251.76"/>
</g>
<!-- Node14 -->
<g id="node14" class="node">
<title>Node14</title>
<g id="a_node14"><a xlink:href="counterexample__beautification_8cpp.html" target="_top" xlink:title=" ">
<polygon fill="none" stroke="black" points="977,-78.5 977,-130.5 1177,-130.5 1177,-78.5 977,-78.5"/>
<text text-anchor="start" x="985" y="-118.5" font-family="Helvetica,sans-Serif" font-size="10.00">/home/runner/work/cbmc</text>
<text text-anchor="start" x="985" y="-107.5" font-family="Helvetica,sans-Serif" font-size="10.00">&#45;documentation/cbmc&#45;documentation</text>
<text text-anchor="start" x="985" y="-96.5" font-family="Helvetica,sans-Serif" font-size="10.00">/src/goto&#45;checker/counterexample</text>
<text text-anchor="middle" x="1077" y="-85.5" font-family="Helvetica,sans-Serif" font-size="10.00">_beautification.cpp</text>
</a>
</g>
</g>
<!-- Node13&#45;&gt;Node14 -->
<g id="edge13" class="edge">
<title>Node13&#45;&gt;Node14</title>
<path fill="none" stroke="midnightblue" d="M1316.01,-165.08C1271.5,-153.99 1220.47,-141.26 1177.02,-130.43"/>
<polygon fill="midnightblue" stroke="midnightblue" points="1315.44,-168.55 1325.99,-167.57 1317.13,-161.75 1315.44,-168.55"/>
</g>
<!-- Node15 -->
<g id="node15" class="node">
<title>Node15</title>
<g id="a_node15"><a xlink:href="multi__path__symex__checker_8cpp.html" target="_top" xlink:title=" ">
<polygon fill="none" stroke="black" points="1195,-78.5 1195,-130.5 1395,-130.5 1395,-78.5 1195,-78.5"/>
<text text-anchor="start" x="1203" y="-118.5" font-family="Helvetica,sans-Serif" font-size="10.00">/home/runner/work/cbmc</text>
<text text-anchor="start" x="1203" y="-107.5" font-family="Helvetica,sans-Serif" font-size="10.00">&#45;documentation/cbmc&#45;documentation</text>
<text text-anchor="start" x="1203" y="-96.5" font-family="Helvetica,sans-Serif" font-size="10.00">/src/goto&#45;checker/multi_path</text>
<text text-anchor="middle" x="1295" y="-85.5" font-family="Helvetica,sans-Serif" font-size="10.00">_symex_checker.cpp</text>
</a>
</g>
</g>
<!-- Node13&#45;&gt;Node15 -->
<g id="edge14" class="edge">
<title>Node13&#45;&gt;Node15</title>
<path fill="none" stroke="midnightblue" d="M1379.75,-161.79C1364.38,-151.58 1347.46,-140.34 1332.81,-130.61"/>
<polygon fill="midnightblue" stroke="midnightblue" points="1377.84,-164.72 1388.11,-167.34 1381.72,-158.89 1377.84,-164.72"/>
</g>
<!-- Node16 -->
<g id="node16" class="node">
<title>Node16</title>
<g id="a_node16"><a xlink:href="single__loop__incremental__symex__checker_8cpp.html" target="_top" xlink:title=" ">
<polygon fill="none" stroke="black" points="1413,-78.5 1413,-130.5 1613,-130.5 1613,-78.5 1413,-78.5"/>
<text text-anchor="start" x="1421" y="-118.5" font-family="Helvetica,sans-Serif" font-size="10.00">/home/runner/work/cbmc</text>
<text text-anchor="start" x="1421" y="-107.5" font-family="Helvetica,sans-Serif" font-size="10.00">&#45;documentation/cbmc&#45;documentation</text>
<text text-anchor="start" x="1421" y="-96.5" font-family="Helvetica,sans-Serif" font-size="10.00">/src/goto&#45;checker/single_loop</text>
<text text-anchor="middle" x="1513" y="-85.5" font-family="Helvetica,sans-Serif" font-size="10.00">_incremental_symex_checker.cpp</text>
</a>
</g>
</g>
<!-- Node13&#45;&gt;Node16 -->
<g id="edge15" class="edge">
<title>Node13&#45;&gt;Node16</title>
<path fill="none" stroke="midnightblue" d="M1458.42,-160.08C1468.16,-150.34 1478.7,-139.8 1487.89,-130.61"/>
<polygon fill="midnightblue" stroke="midnightblue" points="1455.76,-157.79 1451.16,-167.34 1460.71,-162.74 1455.76,-157.79"/>
</g>
<!-- Node17 -->
<g id="node17" class="node">
<title>Node17</title>
<g id="a_node17"><a xlink:href="single__path__symex__checker_8cpp.html" target="_top" xlink:title=" ">
<polygon fill="none" stroke="black" points="1631,-78.5 1631,-130.5 1831,-130.5 1831,-78.5 1631,-78.5"/>
<text text-anchor="start" x="1639" y="-118.5" font-family="Helvetica,sans-Serif" font-size="10.00">/home/runner/work/cbmc</text>
<text text-anchor="start" x="1639" y="-107.5" font-family="Helvetica,sans-Serif" font-size="10.00">&#45;documentation/cbmc&#45;documentation</text>
<text text-anchor="start" x="1639" y="-96.5" font-family="Helvetica,sans-Serif" font-size="10.00">/src/goto&#45;checker/single_path</text>
<text text-anchor="middle" x="1731" y="-85.5" font-family="Helvetica,sans-Serif" font-size="10.00">_symex_checker.cpp</text>
</a>
</g>
</g>
<!-- Node13&#45;&gt;Node17 -->
<g id="edge16" class="edge">
<title>Node13&#45;&gt;Node17</title>
<path fill="none" stroke="midnightblue" d="M1523.47,-164.7C1561.94,-153.72 1605.82,-141.21 1643.28,-130.52"/>
<polygon fill="midnightblue" stroke="midnightblue" points="1522.47,-161.34 1513.81,-167.45 1524.39,-168.08 1522.47,-161.34"/>
</g>
<!-- Node20&#45;&gt;Node10 -->
<g id="edge20" class="edge">
<title>Node20&#45;&gt;Node10</title>
<path fill="none" stroke="midnightblue" d="M2216.57,-259.66C2144.35,-243.27 2057.92,-223.13 2055,-220 2031.07,-194.37 2030.89,-150.69 2033.23,-125.33"/>
<polygon fill="midnightblue" stroke="midnightblue" points="2216.12,-263.15 2226.65,-261.94 2217.67,-256.32 2216.12,-263.15"/>
</g>
<!-- Node21 -->
<g id="node21" class="node">
<title>Node21</title>
<g id="a_node21"><a xlink:href="bv__refinement__loop_8cpp.html" target="_top" xlink:title=" ">
<polygon fill="none" stroke="black" points="2064,-173 2064,-214 2312,-214 2312,-173 2064,-173"/>
<text text-anchor="start" x="2072" y="-202" font-family="Helvetica,sans-Serif" font-size="10.00">/home/runner/work/cbmc</text>
<text text-anchor="start" x="2072" y="-191" font-family="Helvetica,sans-Serif" font-size="10.00">&#45;documentation/cbmc&#45;documentation</text>
<text text-anchor="middle" x="2188" y="-180" font-family="Helvetica,sans-Serif" font-size="10.00">/src/solvers/refinement/bv_refinement_loop.cpp</text>
</a>
</g>
</g>
<!-- Node20&#45;&gt;Node21 -->
<g id="edge21" class="edge">
<title>Node20&#45;&gt;Node21</title>
<path fill="none" stroke="midnightblue" d="M2277.43,-256.25C2258.06,-242.88 2234.64,-226.7 2216.62,-214.26"/>
<polygon fill="midnightblue" stroke="midnightblue" points="2275.51,-259.17 2285.72,-261.98 2279.48,-253.41 2275.51,-259.17"/>
</g>
<!-- Node22 -->
<g id="node22" class="node">
<title>Node22</title>
<g id="a_node22"><a xlink:href="refine__arithmetic_8cpp.html" target="_top" xlink:title=" ">
<polygon fill="none" stroke="black" points="2330,-167.5 2330,-219.5 2530,-219.5 2530,-167.5 2330,-167.5"/>
<text text-anchor="start" x="2338" y="-207.5" font-family="Helvetica,sans-Serif" font-size="10.00">/home/runner/work/cbmc</text>
<text text-anchor="start" x="2338" y="-196.5" font-family="Helvetica,sans-Serif" font-size="10.00">&#45;documentation/cbmc&#45;documentation</text>
<text text-anchor="start" x="2338" y="-185.5" font-family="Helvetica,sans-Serif" font-size="10.00">/src/solvers/refinement/refine</text>
<text text-anchor="middle" x="2430" y="-174.5" font-family="Helvetica,sans-Serif" font-size="10.00">_arithmetic.cpp</text>
</a>
</g>
</g>
<!-- Node20&#45;&gt;Node22 -->
<g id="edge22" class="edge">
<title>Node20&#45;&gt;Node22</title>
<path fill="none" stroke="midnightblue" d="M2348.2,-255.85C2363.46,-244.4 2381.38,-230.96 2396.55,-219.58"/>
<polygon fill="midnightblue" stroke="midnightblue" points="2345.93,-253.18 2340.03,-261.98 2350.13,-258.78 2345.93,-253.18"/>
</g>
<!-- Node23 -->
<g id="node23" class="node">
<title>Node23</title>
<g id="a_node23"><a xlink:href="refine__arrays_8cpp.html" target="_top" xlink:title=" ">
<polygon fill="none" stroke="black" points="2548,-167.5 2548,-219.5 2748,-219.5 2748,-167.5 2548,-167.5"/>
<text text-anchor="start" x="2556" y="-207.5" font-family="Helvetica,sans-Serif" font-size="10.00">/home/runner/work/cbmc</text>
<text text-anchor="start" x="2556" y="-196.5" font-family="Helvetica,sans-Serif" font-size="10.00">&#45;documentation/cbmc&#45;documentation</text>
<text text-anchor="start" x="2556" y="-185.5" font-family="Helvetica,sans-Serif" font-size="10.00">/src/solvers/refinement/refine</text>
<text text-anchor="middle" x="2648" y="-174.5" font-family="Helvetica,sans-Serif" font-size="10.00">_arrays.cpp</text>
</a>
</g>
</g>
<!-- Node20&#45;&gt;Node23 -->
<g id="edge23" class="edge">
<title>Node20&#45;&gt;Node23</title>
<path fill="none" stroke="midnightblue" d="M2398.74,-259.43C2445.46,-247.26 2503.62,-232.11 2552.01,-219.5"/>
<polygon fill="midnightblue" stroke="midnightblue" points="2397.75,-256.07 2388.96,-261.98 2399.52,-262.84 2397.75,-256.07"/>
</g>
<!-- Node24 -->
<g id="node24" class="node">
<title>Node24</title>
<g id="a_node24"><a xlink:href="string__refinement_8h.html" target="_top" xlink:title=" ">
<polygon fill="none" stroke="black" points="2766,-173 2766,-214 2972,-214 2972,-173 2766,-173"/>
<text text-anchor="start" x="2774" y="-202" font-family="Helvetica,sans-Serif" font-size="10.00">/home/runner/work/cbmc</text>
<text text-anchor="start" x="2774" y="-191" font-family="Helvetica,sans-Serif" font-size="10.00">&#45;documentation/cbmc&#45;documentation</text>
<text text-anchor="middle" x="2869" y="-180" font-family="Helvetica,sans-Serif" font-size="10.00">/src/solvers/strings/string_refinement.h</text>
</a>
</g>
</g>
<!-- Node20&#45;&gt;Node24 -->
<g id="edge24" class="edge">
<title>Node20&#45;&gt;Node24</title>
<path fill="none" stroke="midnightblue" d="M2406.84,-260.01C2414.32,-258.55 2421.78,-257.19 2429,-256 2573.69,-232.09 2612.38,-244.32 2757,-220 2767.13,-218.3 2777.71,-216.25 2788.16,-214.06"/>
<polygon fill="midnightblue" stroke="midnightblue" points="2406.14,-256.58 2397.02,-261.97 2407.51,-263.44 2406.14,-256.58"/>
</g>
<!-- Node24&#45;&gt;Node10 -->
<g id="edge29" class="edge">
<title>Node24&#45;&gt;Node10</title>
<path fill="none" stroke="midnightblue" d="M2779.47,-170.96C2771.89,-169.49 2764.33,-168.14 2757,-167 2640.16,-148.81 2305.28,-124.11 2136.22,-112.32"/>
<polygon fill="midnightblue" stroke="midnightblue" points="2778.93,-174.42 2789.42,-172.96 2780.3,-167.56 2778.93,-174.42"/>
</g>
<!-- Node25 -->
<g id="node25" class="node">
<title>Node25</title>
<g id="a_node25"><a xlink:href="cbmc__parse__options_8h.html" target="_top" xlink:title=" ">
<polygon fill="none" stroke="black" points="2769,-84 2769,-125 2969,-125 2969,-84 2769,-84"/>
<text text-anchor="start" x="2777" y="-113" font-family="Helvetica,sans-Serif" font-size="10.00">/home/runner/work/cbmc</text>
<text text-anchor="start" x="2777" y="-102" font-family="Helvetica,sans-Serif" font-size="10.00">&#45;documentation/cbmc&#45;documentation</text>
<text text-anchor="middle" x="2869" y="-91" font-family="Helvetica,sans-Serif" font-size="10.00">/src/cbmc/cbmc_parse_options.h</text>
</a>
</g>
</g>
<!-- Node24&#45;&gt;Node25 -->
<g id="edge25" class="edge">
<title>Node24&#45;&gt;Node25</title>
<path fill="none" stroke="midnightblue" d="M2869,-162.44C2869,-150.1 2869,-136.16 2869,-125.16"/>
<polygon fill="midnightblue" stroke="midnightblue" points="2865.5,-162.76 2869,-172.76 2872.5,-162.76 2865.5,-162.76"/>
</g>
<!-- Node29 -->
<g id="node29" class="node">
<title>Node29</title>
<g id="a_node29"><a xlink:href="string__refinement_8cpp.html" target="_top" xlink:title=" ">
<polygon fill="none" stroke="black" points="2987,-84 2987,-125 3205,-125 3205,-84 2987,-84"/>
<text text-anchor="start" x="2995" y="-113" font-family="Helvetica,sans-Serif" font-size="10.00">/home/runner/work/cbmc</text>
<text text-anchor="start" x="2995" y="-102" font-family="Helvetica,sans-Serif" font-size="10.00">&#45;documentation/cbmc&#45;documentation</text>
<text text-anchor="middle" x="3096" y="-91" font-family="Helvetica,sans-Serif" font-size="10.00">/src/solvers/strings/string_refinement.cpp</text>
</a>
</g>
</g>
<!-- Node24&#45;&gt;Node29 -->
<g id="edge30" class="edge">
<title>Node24&#45;&gt;Node29</title>
<path fill="none" stroke="midnightblue" d="M2929.36,-169.37C2965.37,-155.57 3010.59,-138.23 3044.83,-125.11"/>
<polygon fill="midnightblue" stroke="midnightblue" points="2928.03,-166.13 2919.94,-172.98 2930.53,-172.66 2928.03,-166.13"/>
</g>
<!-- Node30 -->
<g id="node30" class="node">
<title>Node30</title>
<g id="a_node30"><a xlink:href="jbmc__parse__options_8h.html" target="_top" xlink:title=" ">
<polygon fill="none" stroke="black" points="2437,-84 2437,-125 2637,-125 2637,-84 2437,-84"/>
<text text-anchor="start" x="2445" y="-113" font-family="Helvetica,sans-Serif" font-size="10.00">/home/runner/work/cbmc</text>
<text text-anchor="start" x="2445" y="-102" font-family="Helvetica,sans-Serif" font-size="10.00">&#45;documentation/cbmc&#45;documentation</text>
<text text-anchor="middle" x="2537" y="-91" font-family="Helvetica,sans-Serif" font-size="10.00">/jbmc/src/jbmc/jbmc_parse_options.h</text>
</a>
</g>
</g>
<!-- Node24&#45;&gt;Node30 -->
<g id="edge31" class="edge">
<title>Node24&#45;&gt;Node30</title>
<path fill="none" stroke="midnightblue" d="M2784.71,-170.41C2731.33,-156.42 2662.94,-138.5 2611.55,-125.03"/>
<polygon fill="midnightblue" stroke="midnightblue" points="2783.93,-173.83 2794.49,-172.98 2785.71,-167.05 2783.93,-173.83"/>
</g>
<!-- Node26 -->
<g id="node26" class="node">
<title>Node26</title>
<g id="a_node26"><a xlink:href="cbmc__languages_8cpp.html" target="_top" xlink:title=" ">
<polygon fill="none" stroke="black" points="2878,-0.5 2878,-41.5 3078,-41.5 3078,-0.5 2878,-0.5"/>
<text text-anchor="start" x="2886" y="-29.5" font-family="Helvetica,sans-Serif" font-size="10.00">/home/runner/work/cbmc</text>
<text text-anchor="start" x="2886" y="-18.5" font-family="Helvetica,sans-Serif" font-size="10.00">&#45;documentation/cbmc&#45;documentation</text>
<text text-anchor="middle" x="2978" y="-7.5" font-family="Helvetica,sans-Serif" font-size="10.00">/src/cbmc/cbmc_languages.cpp</text>
</a>
</g>
</g>
<!-- Node25&#45;&gt;Node26 -->
<g id="edge26" class="edge">
<title>Node25&#45;&gt;Node26</title>
<path fill="none" stroke="midnightblue" d="M2903.48,-77.72C2919.09,-66.05 2937.24,-52.47 2951.73,-41.64"/>
<polygon fill="midnightblue" stroke="midnightblue" points="2901.02,-75.19 2895.11,-83.98 2905.21,-80.79 2901.02,-75.19"/>
</g>
<!-- Node27 -->
<g id="node27" class="node">
<title>Node27</title>
<g id="a_node27"><a xlink:href="cbmc__main_8cpp.html" target="_top" xlink:title=" ">
<polygon fill="none" stroke="black" points="3096,-0.5 3096,-41.5 3296,-41.5 3296,-0.5 3096,-0.5"/>
<text text-anchor="start" x="3104" y="-29.5" font-family="Helvetica,sans-Serif" font-size="10.00">/home/runner/work/cbmc</text>
<text text-anchor="start" x="3104" y="-18.5" font-family="Helvetica,sans-Serif" font-size="10.00">&#45;documentation/cbmc&#45;documentation</text>
<text text-anchor="middle" x="3196" y="-7.5" font-family="Helvetica,sans-Serif" font-size="10.00">/src/cbmc/cbmc_main.cpp</text>
</a>
</g>
</g>
<!-- Node25&#45;&gt;Node27 -->
<g id="edge27" class="edge">
<title>Node25&#45;&gt;Node27</title>
<path fill="none" stroke="midnightblue" d="M2957.17,-81.52C3007.25,-69.04 3069.4,-53.55 3117.75,-41.5"/>
<polygon fill="midnightblue" stroke="midnightblue" points="2956.18,-78.16 2947.32,-83.98 2957.87,-84.96 2956.18,-78.16"/>
</g>
<!-- Node28 -->
<g id="node28" class="node">
<title>Node28</title>
<g id="a_node28"><a xlink:href="cbmc__parse__options_8cpp.html" target="_top" xlink:title=" ">
<polygon fill="none" stroke="black" points="2660,-0.5 2660,-41.5 2860,-41.5 2860,-0.5 2660,-0.5"/>
<text text-anchor="start" x="2668" y="-29.5" font-family="Helvetica,sans-Serif" font-size="10.00">/home/runner/work/cbmc</text>
<text text-anchor="start" x="2668" y="-18.5" font-family="Helvetica,sans-Serif" font-size="10.00">&#45;documentation/cbmc&#45;documentation</text>
<text text-anchor="middle" x="2760" y="-7.5" font-family="Helvetica,sans-Serif" font-size="10.00">/src/cbmc/cbmc_parse_options.cpp</text>
</a>
</g>
</g>
<!-- Node25&#45;&gt;Node28 -->
<g id="edge28" class="edge">
<title>Node25&#45;&gt;Node28</title>
<path fill="none" stroke="midnightblue" d="M2834.52,-77.72C2818.91,-66.05 2800.76,-52.47 2786.27,-41.64"/>
<polygon fill="midnightblue" stroke="midnightblue" points="2832.79,-80.79 2842.89,-83.98 2836.98,-75.19 2832.79,-80.79"/>
</g>
<!-- Node31 -->
<g id="node31" class="node">
<title>Node31</title>
<g id="a_node31"><a xlink:href="jbmc__main_8cpp.html" target="_top" xlink:title=" ">
<polygon fill="none" stroke="black" points="2214,-0.5 2214,-41.5 2414,-41.5 2414,-0.5 2214,-0.5"/>
<text text-anchor="start" x="2222" y="-29.5" font-family="Helvetica,sans-Serif" font-size="10.00">/home/runner/work/cbmc</text>
<text text-anchor="start" x="2222" y="-18.5" font-family="Helvetica,sans-Serif" font-size="10.00">&#45;documentation/cbmc&#45;documentation</text>
<text text-anchor="middle" x="2314" y="-7.5" font-family="Helvetica,sans-Serif" font-size="10.00">/jbmc/src/jbmc/jbmc_main.cpp</text>
</a>
</g>
</g>
<!-- Node30&#45;&gt;Node31 -->
<g id="edge32" class="edge">
<title>Node30&#45;&gt;Node31</title>
<path fill="none" stroke="midnightblue" d="M2473.86,-80.42C2440.25,-68.14 2399.37,-53.2 2367.36,-41.5"/>
<polygon fill="midnightblue" stroke="midnightblue" points="2472.99,-83.83 2483.59,-83.98 2475.39,-77.26 2472.99,-83.83"/>
</g>
<!-- Node32 -->
<g id="node32" class="node">
<title>Node32</title>
<g id="a_node32"><a xlink:href="jbmc__parse__options_8cpp.html" target="_top" xlink:title=" ">
<polygon fill="none" stroke="black" points="2432.5,-0.5 2432.5,-41.5 2641.5,-41.5 2641.5,-0.5 2432.5,-0.5"/>
<text text-anchor="start" x="2440.5" y="-29.5" font-family="Helvetica,sans-Serif" font-size="10.00">/home/runner/work/cbmc</text>
<text text-anchor="start" x="2440.5" y="-18.5" font-family="Helvetica,sans-Serif" font-size="10.00">&#45;documentation/cbmc&#45;documentation</text>
<text text-anchor="middle" x="2537" y="-7.5" font-family="Helvetica,sans-Serif" font-size="10.00">/jbmc/src/jbmc/jbmc_parse_options.cpp</text>
</a>
</g>
</g>
<!-- Node30&#45;&gt;Node32 -->
<g id="edge33" class="edge">
<title>Node30&#45;&gt;Node32</title>
<path fill="none" stroke="midnightblue" d="M2537,-73.56C2537,-62.88 2537,-51.13 2537,-41.55"/>
<polygon fill="midnightblue" stroke="midnightblue" points="2533.5,-73.77 2537,-83.77 2540.5,-73.77 2533.5,-73.77"/>
</g>
</g>
</svg>
