<?xml version="1.0" encoding="UTF-8" standalone="no"?>
<!DOCTYPE svg PUBLIC "-//W3C//DTD SVG 1.1//EN"
 "http://www.w3.org/Graphics/SVG/1.1/DTD/svg11.dtd">
<!-- Generated by graphviz version 2.43.0 (0)
 -->
<!-- Title: /home/runner/work/cbmc&#45;documentation/cbmc&#45;documentation/src/solvers/refinement/bv_refinement.h Pages: 1 -->
<svg width="1379pt" height="295pt"
 viewBox="0.00 0.00 1378.57 295.00" xmlns="http://www.w3.org/2000/svg" xmlns:xlink="http://www.w3.org/1999/xlink">
<g id="graph0" class="graph" transform="scale(1 1) rotate(0) translate(4 291)">
<title>/home/runner/work/cbmc&#45;documentation/cbmc&#45;documentation/src/solvers/refinement/bv_refinement.h</title>
<!-- Node1 -->
<g id="node1" class="node">
<title>Node1</title>
<g id="a_node1"><a xlink:title=" ">
<polygon fill="#bfbfbf" stroke="black" points="280.57,-245.5 280.57,-286.5 491.57,-286.5 491.57,-245.5 280.57,-245.5"/>
<text text-anchor="start" x="288.57" y="-274.5" font-family="Helvetica,sans-Serif" font-size="10.00">/home/runner/work/cbmc</text>
<text text-anchor="start" x="288.57" y="-263.5" font-family="Helvetica,sans-Serif" font-size="10.00">&#45;documentation/cbmc&#45;documentation</text>
<text text-anchor="middle" x="386.07" y="-252.5" font-family="Helvetica,sans-Serif" font-size="10.00">/src/solvers/refinement/bv_refinement.h</text>
</a>
</g>
</g>
<!-- Node2 -->
<g id="node2" class="node">
<title>Node2</title>
<g id="a_node2"><a xlink:href="solver__factory_8cpp.html" target="_top" xlink:title=" ">
<polygon fill="none" stroke="black" points="86.07,-78.5 86.07,-119.5 286.07,-119.5 286.07,-78.5 86.07,-78.5"/>
<text text-anchor="start" x="94.07" y="-107.5" font-family="Helvetica,sans-Serif" font-size="10.00">/home/runner/work/cbmc</text>
<text text-anchor="start" x="94.07" y="-96.5" font-family="Helvetica,sans-Serif" font-size="10.00">&#45;documentation/cbmc&#45;documentation</text>
<text text-anchor="middle" x="186.07" y="-85.5" font-family="Helvetica,sans-Serif" font-size="10.00">/src/goto&#45;checker/solver_factory.cpp</text>
</a>
</g>
</g>
<!-- Node1&#45;&gt;Node2 -->
<g id="edge1" class="edge">
<title>Node1&#45;&gt;Node2</title>
<path fill="none" stroke="midnightblue" d="M270.3,-263.69C172.82,-259.83 44.11,-247.35 11.07,-209 -4.31,-191.16 -2.82,-175.03 11.07,-156 28.75,-131.78 57.04,-117.8 85.76,-109.8"/>
<polygon fill="midnightblue" stroke="midnightblue" points="270.41,-267.19 280.53,-264.06 270.67,-260.2 270.41,-267.19"/>
</g>
<!-- Node3 -->
<g id="node3" class="node">
<title>Node3</title>
<g id="a_node3"><a xlink:href="bv__refinement__loop_8cpp.html" target="_top" xlink:title=" ">
<polygon fill="none" stroke="black" points="20.07,-162 20.07,-203 268.07,-203 268.07,-162 20.07,-162"/>
<text text-anchor="start" x="28.07" y="-191" font-family="Helvetica,sans-Serif" font-size="10.00">/home/runner/work/cbmc</text>
<text text-anchor="start" x="28.07" y="-180" font-family="Helvetica,sans-Serif" font-size="10.00">&#45;documentation/cbmc&#45;documentation</text>
<text text-anchor="middle" x="144.07" y="-169" font-family="Helvetica,sans-Serif" font-size="10.00">/src/solvers/refinement/bv_refinement_loop.cpp</text>
</a>
</g>
</g>
<!-- Node1&#45;&gt;Node3 -->
<g id="edge2" class="edge">
<title>Node1&#45;&gt;Node3</title>
<path fill="none" stroke="midnightblue" d="M318.49,-242.24C281.84,-229.9 237.01,-214.8 201.98,-203"/>
<polygon fill="midnightblue" stroke="midnightblue" points="317.51,-245.6 328.1,-245.48 319.74,-238.97 317.51,-245.6"/>
</g>
<!-- Node4 -->
<g id="node4" class="node">
<title>Node4</title>
<g id="a_node4"><a xlink:href="refine__arithmetic_8cpp.html" target="_top" xlink:title=" ">
<polygon fill="none" stroke="black" points="286.07,-156.5 286.07,-208.5 486.07,-208.5 486.07,-156.5 286.07,-156.5"/>
<text text-anchor="start" x="294.07" y="-196.5" font-family="Helvetica,sans-Serif" font-size="10.00">/home/runner/work/cbmc</text>
<text text-anchor="start" x="294.07" y="-185.5" font-family="Helvetica,sans-Serif" font-size="10.00">&#45;documentation/cbmc&#45;documentation</text>
<text text-anchor="start" x="294.07" y="-174.5" font-family="Helvetica,sans-Serif" font-size="10.00">/src/solvers/refinement/refine</text>
<text text-anchor="middle" x="386.07" y="-163.5" font-family="Helvetica,sans-Serif" font-size="10.00">_arithmetic.cpp</text>
</a>
</g>
</g>
<!-- Node1&#45;&gt;Node4 -->
<g id="edge3" class="edge">
<title>Node1&#45;&gt;Node4</title>
<path fill="none" stroke="midnightblue" d="M386.07,-235.12C386.07,-226.41 386.07,-216.99 386.07,-208.61"/>
<polygon fill="midnightblue" stroke="midnightblue" points="382.57,-235.27 386.07,-245.27 389.57,-235.27 382.57,-235.27"/>
</g>
<!-- Node5 -->
<g id="node5" class="node">
<title>Node5</title>
<g id="a_node5"><a xlink:href="refine__arrays_8cpp.html" target="_top" xlink:title=" ">
<polygon fill="none" stroke="black" points="504.07,-156.5 504.07,-208.5 704.07,-208.5 704.07,-156.5 504.07,-156.5"/>
<text text-anchor="start" x="512.07" y="-196.5" font-family="Helvetica,sans-Serif" font-size="10.00">/home/runner/work/cbmc</text>
<text text-anchor="start" x="512.07" y="-185.5" font-family="Helvetica,sans-Serif" font-size="10.00">&#45;documentation/cbmc&#45;documentation</text>
<text text-anchor="start" x="512.07" y="-174.5" font-family="Helvetica,sans-Serif" font-size="10.00">/src/solvers/refinement/refine</text>
<text text-anchor="middle" x="604.07" y="-163.5" font-family="Helvetica,sans-Serif" font-size="10.00">_arrays.cpp</text>
</a>
</g>
</g>
<!-- Node1&#45;&gt;Node5 -->
<g id="edge4" class="edge">
<title>Node1&#45;&gt;Node5</title>
<path fill="none" stroke="midnightblue" d="M447.89,-241.89C475.7,-231.49 508.59,-219.2 536.99,-208.58"/>
<polygon fill="midnightblue" stroke="midnightblue" points="446.43,-238.7 438.28,-245.48 448.88,-245.26 446.43,-238.7"/>
</g>
<!-- Node6 -->
<g id="node6" class="node">
<title>Node6</title>
<g id="a_node6"><a xlink:href="string__refinement_8h.html" target="_top" xlink:title=" ">
<polygon fill="none" stroke="black" points="722.07,-162 722.07,-203 928.07,-203 928.07,-162 722.07,-162"/>
<text text-anchor="start" x="730.07" y="-191" font-family="Helvetica,sans-Serif" font-size="10.00">/home/runner/work/cbmc</text>
<text text-anchor="start" x="730.07" y="-180" font-family="Helvetica,sans-Serif" font-size="10.00">&#45;documentation/cbmc&#45;documentation</text>
<text text-anchor="middle" x="825.07" y="-169" font-family="Helvetica,sans-Serif" font-size="10.00">/src/solvers/strings/string_refinement.h</text>
</a>
</g>
</g>
<!-- Node1&#45;&gt;Node6 -->
<g id="edge5" class="edge">
<title>Node1&#45;&gt;Node6</title>
<path fill="none" stroke="midnightblue" d="M501.56,-246.79C564.28,-236.51 643.1,-222.95 713.07,-209 722.36,-207.15 732.06,-205.11 741.69,-203.01"/>
<polygon fill="midnightblue" stroke="midnightblue" points="500.94,-243.35 491.63,-248.41 502.06,-250.25 500.94,-243.35"/>
</g>
<!-- Node6&#45;&gt;Node2 -->
<g id="edge10" class="edge">
<title>Node6&#45;&gt;Node2</title>
<path fill="none" stroke="midnightblue" d="M734.63,-159.95C727.35,-158.51 720.1,-157.17 713.07,-156 565.35,-131.42 392.46,-115.46 286.1,-107.1"/>
<polygon fill="midnightblue" stroke="midnightblue" points="734.04,-163.4 744.54,-161.97 735.44,-156.55 734.04,-163.4"/>
</g>
<!-- Node7 -->
<g id="node7" class="node">
<title>Node7</title>
<g id="a_node7"><a xlink:href="cbmc__parse__options_8h.html" target="_top" xlink:title=" ">
<polygon fill="none" stroke="black" points="498.07,-78.5 498.07,-119.5 698.07,-119.5 698.07,-78.5 498.07,-78.5"/>
<text text-anchor="start" x="506.07" y="-107.5" font-family="Helvetica,sans-Serif" font-size="10.00">/home/runner/work/cbmc</text>
<text text-anchor="start" x="506.07" y="-96.5" font-family="Helvetica,sans-Serif" font-size="10.00">&#45;documentation/cbmc&#45;documentation</text>
<text text-anchor="middle" x="598.07" y="-85.5" font-family="Helvetica,sans-Serif" font-size="10.00">/src/cbmc/cbmc_parse_options.h</text>
</a>
</g>
</g>
<!-- Node6&#45;&gt;Node7 -->
<g id="edge6" class="edge">
<title>Node6&#45;&gt;Node7</title>
<path fill="none" stroke="midnightblue" d="M761.24,-158.58C726.94,-146.27 685.11,-131.25 652.39,-119.5"/>
<polygon fill="midnightblue" stroke="midnightblue" points="760.1,-161.89 770.7,-161.98 762.47,-155.31 760.1,-161.89"/>
</g>
<!-- Node11 -->
<g id="node11" class="node">
<title>Node11</title>
<g id="a_node11"><a xlink:href="string__refinement_8cpp.html" target="_top" xlink:title=" ">
<polygon fill="none" stroke="black" points="716.07,-78.5 716.07,-119.5 934.07,-119.5 934.07,-78.5 716.07,-78.5"/>
<text text-anchor="start" x="724.07" y="-107.5" font-family="Helvetica,sans-Serif" font-size="10.00">/home/runner/work/cbmc</text>
<text text-anchor="start" x="724.07" y="-96.5" font-family="Helvetica,sans-Serif" font-size="10.00">&#45;documentation/cbmc&#45;documentation</text>
<text text-anchor="middle" x="825.07" y="-85.5" font-family="Helvetica,sans-Serif" font-size="10.00">/src/solvers/strings/string_refinement.cpp</text>
</a>
</g>
</g>
<!-- Node6&#45;&gt;Node11 -->
<g id="edge11" class="edge">
<title>Node6&#45;&gt;Node11</title>
<path fill="none" stroke="midnightblue" d="M825.07,-151.56C825.07,-140.88 825.07,-129.13 825.07,-119.55"/>
<polygon fill="midnightblue" stroke="midnightblue" points="821.57,-151.77 825.07,-161.77 828.57,-151.77 821.57,-151.77"/>
</g>
<!-- Node12 -->
<g id="node12" class="node">
<title>Node12</title>
<g id="a_node12"><a xlink:href="jbmc__parse__options_8h.html" target="_top" xlink:title=" ">
<polygon fill="none" stroke="black" points="952.07,-78.5 952.07,-119.5 1152.07,-119.5 1152.07,-78.5 952.07,-78.5"/>
<text text-anchor="start" x="960.07" y="-107.5" font-family="Helvetica,sans-Serif" font-size="10.00">/home/runner/work/cbmc</text>
<text text-anchor="start" x="960.07" y="-96.5" font-family="Helvetica,sans-Serif" font-size="10.00">&#45;documentation/cbmc&#45;documentation</text>
<text text-anchor="middle" x="1052.07" y="-85.5" font-family="Helvetica,sans-Serif" font-size="10.00">/jbmc/src/jbmc/jbmc_parse_options.h</text>
</a>
</g>
</g>
<!-- Node6&#45;&gt;Node12 -->
<g id="edge12" class="edge">
<title>Node6&#45;&gt;Node12</title>
<path fill="none" stroke="midnightblue" d="M888.9,-158.58C923.19,-146.27 965.02,-131.25 997.75,-119.5"/>
<polygon fill="midnightblue" stroke="midnightblue" points="887.67,-155.31 879.44,-161.98 890.03,-161.89 887.67,-155.31"/>
</g>
<!-- Node8 -->
<g id="node8" class="node">
<title>Node8</title>
<g id="a_node8"><a xlink:href="cbmc__languages_8cpp.html" target="_top" xlink:title=" ">
<polygon fill="none" stroke="black" points="280.07,-0.5 280.07,-41.5 480.07,-41.5 480.07,-0.5 280.07,-0.5"/>
<text text-anchor="start" x="288.07" y="-29.5" font-family="Helvetica,sans-Serif" font-size="10.00">/home/runner/work/cbmc</text>
<text text-anchor="start" x="288.07" y="-18.5" font-family="Helvetica,sans-Serif" font-size="10.00">&#45;documentation/cbmc&#45;documentation</text>
<text text-anchor="middle" x="380.07" y="-7.5" font-family="Helvetica,sans-Serif" font-size="10.00">/src/cbmc/cbmc_languages.cpp</text>
</a>
</g>
</g>
<!-- Node7&#45;&gt;Node8 -->
<g id="edge7" class="edge">
<title>Node7&#45;&gt;Node8</title>
<path fill="none" stroke="midnightblue" d="M532.17,-75.03C501.48,-64.33 465.36,-51.73 436.02,-41.51"/>
<polygon fill="midnightblue" stroke="midnightblue" points="531.33,-78.44 541.93,-78.43 533.64,-71.83 531.33,-78.44"/>
</g>
<!-- Node9 -->
<g id="node9" class="node">
<title>Node9</title>
<g id="a_node9"><a xlink:href="cbmc__main_8cpp.html" target="_top" xlink:title=" ">
<polygon fill="none" stroke="black" points="498.07,-0.5 498.07,-41.5 698.07,-41.5 698.07,-0.5 498.07,-0.5"/>
<text text-anchor="start" x="506.07" y="-29.5" font-family="Helvetica,sans-Serif" font-size="10.00">/home/runner/work/cbmc</text>
<text text-anchor="start" x="506.07" y="-18.5" font-family="Helvetica,sans-Serif" font-size="10.00">&#45;documentation/cbmc&#45;documentation</text>
<text text-anchor="middle" x="598.07" y="-7.5" font-family="Helvetica,sans-Serif" font-size="10.00">/src/cbmc/cbmc_main.cpp</text>
</a>
</g>
</g>
<!-- Node7&#45;&gt;Node9 -->
<g id="edge8" class="edge">
<title>Node7&#45;&gt;Node9</title>
<path fill="none" stroke="midnightblue" d="M598.07,-68.3C598.07,-59.3 598.07,-49.65 598.07,-41.51"/>
<polygon fill="midnightblue" stroke="midnightblue" points="594.57,-68.43 598.07,-78.43 601.57,-68.43 594.57,-68.43"/>
</g>
<!-- Node10 -->
<g id="node10" class="node">
<title>Node10</title>
<g id="a_node10"><a xlink:href="cbmc__parse__options_8cpp.html" target="_top" xlink:title=" ">
<polygon fill="none" stroke="black" points="716.07,-0.5 716.07,-41.5 916.07,-41.5 916.07,-0.5 716.07,-0.5"/>
<text text-anchor="start" x="724.07" y="-29.5" font-family="Helvetica,sans-Serif" font-size="10.00">/home/runner/work/cbmc</text>
<text text-anchor="start" x="724.07" y="-18.5" font-family="Helvetica,sans-Serif" font-size="10.00">&#45;documentation/cbmc&#45;documentation</text>
<text text-anchor="middle" x="816.07" y="-7.5" font-family="Helvetica,sans-Serif" font-size="10.00">/src/cbmc/cbmc_parse_options.cpp</text>
</a>
</g>
</g>
<!-- Node7&#45;&gt;Node10 -->
<g id="edge9" class="edge">
<title>Node7&#45;&gt;Node10</title>
<path fill="none" stroke="midnightblue" d="M663.97,-75.03C694.65,-64.33 730.78,-51.73 760.12,-41.51"/>
<polygon fill="midnightblue" stroke="midnightblue" points="662.5,-71.83 654.21,-78.43 664.8,-78.44 662.5,-71.83"/>
</g>
<!-- Node13 -->
<g id="node13" class="node">
<title>Node13</title>
<g id="a_node13"><a xlink:href="jbmc__main_8cpp.html" target="_top" xlink:title=" ">
<polygon fill="none" stroke="black" points="943.07,-0.5 943.07,-41.5 1143.07,-41.5 1143.07,-0.5 943.07,-0.5"/>
<text text-anchor="start" x="951.07" y="-29.5" font-family="Helvetica,sans-Serif" font-size="10.00">/home/runner/work/cbmc</text>
<text text-anchor="start" x="951.07" y="-18.5" font-family="Helvetica,sans-Serif" font-size="10.00">&#45;documentation/cbmc&#45;documentation</text>
<text text-anchor="middle" x="1043.07" y="-7.5" font-family="Helvetica,sans-Serif" font-size="10.00">/jbmc/src/jbmc/jbmc_main.cpp</text>
</a>
</g>
</g>
<!-- Node12&#45;&gt;Node13 -->
<g id="edge13" class="edge">
<title>Node12&#45;&gt;Node13</title>
<path fill="none" stroke="midnightblue" d="M1048.55,-68.3C1047.48,-59.3 1046.34,-49.65 1045.38,-41.51"/>
<polygon fill="midnightblue" stroke="midnightblue" points="1045.1,-68.91 1049.75,-78.43 1052.05,-68.09 1045.1,-68.91"/>
</g>
<!-- Node14 -->
<g id="node14" class="node">
<title>Node14</title>
<g id="a_node14"><a xlink:href="jbmc__parse__options_8cpp.html" target="_top" xlink:title=" ">
<polygon fill="none" stroke="black" points="1161.57,-0.5 1161.57,-41.5 1370.57,-41.5 1370.57,-0.5 1161.57,-0.5"/>
<text text-anchor="start" x="1169.57" y="-29.5" font-family="Helvetica,sans-Serif" font-size="10.00">/home/runner/work/cbmc</text>
<text text-anchor="start" x="1169.57" y="-18.5" font-family="Helvetica,sans-Serif" font-size="10.00">&#45;documentation/cbmc&#45;documentation</text>
<text text-anchor="middle" x="1266.07" y="-7.5" font-family="Helvetica,sans-Serif" font-size="10.00">/jbmc/src/jbmc/jbmc_parse_options.cpp</text>
</a>
</g>
</g>
<!-- Node12&#45;&gt;Node14 -->
<g id="edge14" class="edge">
<title>Node12&#45;&gt;Node14</title>
<path fill="none" stroke="midnightblue" d="M1116.76,-75.03C1146.88,-64.33 1182.34,-51.73 1211.14,-41.51"/>
<polygon fill="midnightblue" stroke="midnightblue" points="1115.43,-71.78 1107.18,-78.43 1117.77,-78.38 1115.43,-71.78"/>
</g>
</g>
</svg>
