<?xml version="1.0" encoding="UTF-8" standalone="no"?>
<!DOCTYPE svg PUBLIC "-//W3C//DTD SVG 1.1//EN"
 "http://www.w3.org/Graphics/SVG/1.1/DTD/svg11.dtd">
<!-- Generated by graphviz version 2.43.0 (0)
 -->
<!-- Title: /home/runner/work/cbmc&#45;documentation/cbmc&#45;documentation/src/solvers/flattening/bv_utils.h Pages: 1 -->
<svg width="981pt" height="498pt"
 viewBox="0.00 0.00 981.00 498.00" xmlns="http://www.w3.org/2000/svg" xmlns:xlink="http://www.w3.org/1999/xlink">
<g id="graph0" class="graph" transform="scale(1 1) rotate(0) translate(4 494)">
<title>/home/runner/work/cbmc&#45;documentation/cbmc&#45;documentation/src/solvers/flattening/bv_utils.h</title>
<!-- Node1 -->
<g id="node1" class="node">
<title>Node1</title>
<g id="a_node1"><a xlink:title=" ">
<polygon fill="#bfbfbf" stroke="black" points="0,-448.5 0,-489.5 200,-489.5 200,-448.5 0,-448.5"/>
<text text-anchor="start" x="8" y="-477.5" font-family="Helvetica,sans-Serif" font-size="10.00">/home/runner/work/cbmc</text>
<text text-anchor="start" x="8" y="-466.5" font-family="Helvetica,sans-Serif" font-size="10.00">&#45;documentation/cbmc&#45;documentation</text>
<text text-anchor="middle" x="100" y="-455.5" font-family="Helvetica,sans-Serif" font-size="10.00">/src/solvers/flattening/bv_utils.h</text>
</a>
</g>
</g>
<!-- Node2 -->
<g id="node2" class="node">
<title>Node2</title>
<g id="a_node2"><a xlink:href="mp__arith_8h.html" target="_top" xlink:title=" ">
<polygon fill="none" stroke="black" points="14,-112.5 14,-131.5 102,-131.5 102,-112.5 14,-112.5"/>
<text text-anchor="middle" x="58" y="-119.5" font-family="Helvetica,sans-Serif" font-size="10.00">util/mp_arith.h</text>
</a>
</g>
</g>
<!-- Node1&#45;&gt;Node2 -->
<g id="edge1" class="edge">
<title>Node1&#45;&gt;Node2</title>
<path fill="none" stroke="midnightblue" d="M88.8,-448.15C76.66,-424.73 59,-384.26 59,-347 59,-347 59,-347 59,-233 59,-200.95 58.57,-163.64 58.27,-141.75"/>
<polygon fill="midnightblue" stroke="midnightblue" points="61.77,-141.51 58.13,-131.56 54.77,-141.61 61.77,-141.51"/>
</g>
<!-- Node6 -->
<g id="node6" class="node">
<title>Node6</title>
<g id="a_node6"><a xlink:href="prop_8h.html" target="_top" xlink:title=" ">
<polygon fill="none" stroke="black" points="116,-392.5 116,-411.5 226,-411.5 226,-392.5 116,-392.5"/>
<text text-anchor="middle" x="171" y="-399.5" font-family="Helvetica,sans-Serif" font-size="10.00">solvers/prop/prop.h</text>
</a>
</g>
</g>
<!-- Node1&#45;&gt;Node6 -->
<g id="edge5" class="edge">
<title>Node1&#45;&gt;Node6</title>
<path fill="none" stroke="midnightblue" d="M121.3,-448.5C131.77,-438.92 144.21,-427.53 154.02,-418.54"/>
<polygon fill="midnightblue" stroke="midnightblue" points="156.54,-420.99 161.55,-411.65 151.81,-415.82 156.54,-420.99"/>
</g>
<!-- Node3 -->
<g id="node3" class="node">
<title>Node3</title>
<g id="a_node3"><a xlink:title=" ">
<polygon fill="none" stroke="#bfbfbf" points="161,-56.5 161,-75.5 209,-75.5 209,-56.5 161,-56.5"/>
<text text-anchor="middle" x="185" y="-63.5" font-family="Helvetica,sans-Serif" font-size="10.00">iosfwd</text>
</a>
</g>
</g>
<!-- Node2&#45;&gt;Node3 -->
<g id="edge2" class="edge">
<title>Node2&#45;&gt;Node3</title>
<path fill="none" stroke="midnightblue" d="M78.12,-112.44C99.02,-103.56 131.93,-89.56 155.72,-79.45"/>
<polygon fill="midnightblue" stroke="midnightblue" points="157.14,-82.65 164.97,-75.52 154.4,-76.21 157.14,-82.65"/>
</g>
<!-- Node4 -->
<g id="node4" class="node">
<title>Node4</title>
<g id="a_node4"><a xlink:title=" ">
<polygon fill="none" stroke="#bfbfbf" points="505,-0.5 505,-19.5 549,-19.5 549,-0.5 505,-0.5"/>
<text text-anchor="middle" x="527" y="-7.5" font-family="Helvetica,sans-Serif" font-size="10.00">string</text>
</a>
</g>
</g>
<!-- Node2&#45;&gt;Node4 -->
<g id="edge3" class="edge">
<title>Node2&#45;&gt;Node4</title>
<path fill="none" stroke="midnightblue" d="M69.02,-112.36C89.76,-96.28 134.1,-62.78 152,-56 183.75,-43.97 409.64,-21.95 494.7,-13.98"/>
<polygon fill="midnightblue" stroke="midnightblue" points="495.19,-17.45 504.82,-13.03 494.54,-10.48 495.19,-17.45"/>
</g>
<!-- Node5 -->
<g id="node5" class="node">
<title>Node5</title>
<g id="a_node5"><a xlink:title=" ">
<polygon fill="none" stroke="#bfbfbf" points="11,-56.5 11,-75.5 105,-75.5 105,-56.5 11,-56.5"/>
<text text-anchor="middle" x="58" y="-63.5" font-family="Helvetica,sans-Serif" font-size="10.00">big&#45;int/bigint.hh</text>
</a>
</g>
</g>
<!-- Node2&#45;&gt;Node5 -->
<g id="edge4" class="edge">
<title>Node2&#45;&gt;Node5</title>
<path fill="none" stroke="midnightblue" d="M58,-112.08C58,-105.01 58,-94.86 58,-85.99"/>
<polygon fill="midnightblue" stroke="midnightblue" points="61.5,-85.75 58,-75.75 54.5,-85.75 61.5,-85.75"/>
</g>
<!-- Node7 -->
<g id="node7" class="node">
<title>Node7</title>
<g id="a_node7"><a xlink:href="src_2util_2message_8h.html" target="_top" xlink:title=" ">
<polygon fill="none" stroke="black" points="355.5,-336.5 355.5,-355.5 444.5,-355.5 444.5,-336.5 355.5,-336.5"/>
<text text-anchor="middle" x="400" y="-343.5" font-family="Helvetica,sans-Serif" font-size="10.00">util/message.h</text>
</a>
</g>
</g>
<!-- Node6&#45;&gt;Node7 -->
<g id="edge6" class="edge">
<title>Node6&#45;&gt;Node7</title>
<path fill="none" stroke="midnightblue" d="M207.29,-392.44C246.98,-383.08 310.71,-368.06 353.91,-357.87"/>
<polygon fill="midnightblue" stroke="midnightblue" points="354.95,-361.22 363.88,-355.52 353.35,-354.41 354.95,-361.22"/>
</g>
<!-- Node34 -->
<g id="node27" class="node">
<title>Node34</title>
<g id="a_node27"><a xlink:href="threeval_8h.html" target="_top" xlink:title=" ">
<polygon fill="none" stroke="black" points="87.5,-336.5 87.5,-355.5 172.5,-355.5 172.5,-336.5 87.5,-336.5"/>
<text text-anchor="middle" x="130" y="-343.5" font-family="Helvetica,sans-Serif" font-size="10.00">util/threeval.h</text>
</a>
</g>
</g>
<!-- Node6&#45;&gt;Node34 -->
<g id="edge38" class="edge">
<title>Node6&#45;&gt;Node34</title>
<path fill="none" stroke="midnightblue" d="M164.23,-392.08C158.44,-384.46 149.94,-373.26 142.86,-363.94"/>
<polygon fill="midnightblue" stroke="midnightblue" points="145.48,-361.6 136.64,-355.75 139.9,-365.83 145.48,-361.6"/>
</g>
<!-- Node35 -->
<g id="node28" class="node">
<title>Node35</title>
<g id="a_node28"><a xlink:href="literal_8h.html" target="_top" xlink:title=" ">
<polygon fill="none" stroke="black" points="158,-224.5 158,-243.5 212,-243.5 212,-224.5 158,-224.5"/>
<text text-anchor="middle" x="185" y="-231.5" font-family="Helvetica,sans-Serif" font-size="10.00">literal.h</text>
</a>
</g>
</g>
<!-- Node6&#45;&gt;Node35 -->
<g id="edge40" class="edge">
<title>Node6&#45;&gt;Node35</title>
<path fill="none" stroke="midnightblue" d="M173.4,-392.46C175.8,-383.47 179.37,-368.86 181,-356 185.56,-319.98 185.79,-277.48 185.45,-253.64"/>
<polygon fill="midnightblue" stroke="midnightblue" points="188.95,-253.48 185.26,-243.55 181.95,-253.62 188.95,-253.48"/>
</g>
<!-- Node7&#45;&gt;Node3 -->
<g id="edge8" class="edge">
<title>Node7&#45;&gt;Node3</title>
<path fill="none" stroke="midnightblue" d="M355.37,-341.39C324.49,-336.61 284.51,-325.55 259,-300 257.02,-298.02 207.83,-140.37 190.77,-85.55"/>
<polygon fill="midnightblue" stroke="midnightblue" points="194.04,-84.27 187.72,-75.76 187.35,-86.35 194.04,-84.27"/>
</g>
<!-- Node7&#45;&gt;Node4 -->
<g id="edge10" class="edge">
<title>Node7&#45;&gt;Node4</title>
<path fill="none" stroke="midnightblue" d="M444.69,-345.27C573.28,-344.85 935,-334.8 935,-235 935,-235 935,-235 935,-121 935,-43.31 655.7,-18.88 559.27,-12.76"/>
<polygon fill="midnightblue" stroke="midnightblue" points="559.42,-9.26 549.23,-12.14 558.99,-16.25 559.42,-9.26"/>
</g>
<!-- Node8 -->
<g id="node8" class="node">
<title>Node8</title>
<g id="a_node8"><a xlink:title=" ">
<polygon fill="none" stroke="#bfbfbf" points="398.5,-280.5 398.5,-299.5 463.5,-299.5 463.5,-280.5 398.5,-280.5"/>
<text text-anchor="middle" x="431" y="-287.5" font-family="Helvetica,sans-Serif" font-size="10.00">functional</text>
</a>
</g>
</g>
<!-- Node7&#45;&gt;Node8 -->
<g id="edge7" class="edge">
<title>Node7&#45;&gt;Node8</title>
<path fill="none" stroke="midnightblue" d="M405.12,-336.08C409.41,-328.61 415.66,-317.72 420.94,-308.52"/>
<polygon fill="midnightblue" stroke="midnightblue" points="424.03,-310.17 425.98,-299.75 417.96,-306.68 424.03,-310.17"/>
</g>
<!-- Node9 -->
<g id="node9" class="node">
<title>Node9</title>
<g id="a_node9"><a xlink:title=" ">
<polygon fill="none" stroke="#bfbfbf" points="756,-0.5 756,-19.5 812,-19.5 812,-0.5 756,-0.5"/>
<text text-anchor="middle" x="784" y="-7.5" font-family="Helvetica,sans-Serif" font-size="10.00">sstream</text>
</a>
</g>
</g>
<!-- Node7&#45;&gt;Node9 -->
<g id="edge9" class="edge">
<title>Node7&#45;&gt;Node9</title>
<path fill="none" stroke="midnightblue" d="M444.67,-344.4C550.93,-342.44 815.97,-334.16 897,-300 937.96,-282.74 973,-279.45 973,-235 973,-235 973,-235 973,-121 973,-51.99 877.7,-25.52 822.44,-15.97"/>
<polygon fill="midnightblue" stroke="midnightblue" points="822.73,-12.47 812.3,-14.33 821.61,-19.38 822.73,-12.47"/>
</g>
<!-- Node10 -->
<g id="node10" class="node">
<title>Node10</title>
<g id="a_node10"><a xlink:href="deprecate_8h.html" target="_top" xlink:title=" ">
<polygon fill="none" stroke="black" points="268,-280.5 268,-299.5 342,-299.5 342,-280.5 268,-280.5"/>
<text text-anchor="middle" x="305" y="-287.5" font-family="Helvetica,sans-Serif" font-size="10.00">deprecate.h</text>
</a>
</g>
</g>
<!-- Node7&#45;&gt;Node10 -->
<g id="edge11" class="edge">
<title>Node7&#45;&gt;Node10</title>
<path fill="none" stroke="midnightblue" d="M384.74,-336.32C369.78,-327.82 346.75,-314.73 329.27,-304.8"/>
<polygon fill="midnightblue" stroke="midnightblue" points="330.65,-301.55 320.23,-299.65 327.19,-307.64 330.65,-301.55"/>
</g>
<!-- Node11 -->
<g id="node11" class="node">
<title>Node11</title>
<g id="a_node11"><a xlink:href="src_2util_2invariant_8h.html" target="_top" xlink:title=" ">
<polygon fill="none" stroke="black" points="356.5,-56.5 356.5,-75.5 425.5,-75.5 425.5,-56.5 356.5,-56.5"/>
<text text-anchor="middle" x="391" y="-63.5" font-family="Helvetica,sans-Serif" font-size="10.00">invariant.h</text>
</a>
</g>
</g>
<!-- Node7&#45;&gt;Node11 -->
<g id="edge12" class="edge">
<title>Node7&#45;&gt;Node11</title>
<path fill="none" stroke="midnightblue" d="M397.52,-336.47C395.04,-327.48 391.41,-312.89 390,-300 389.03,-291.16 389.98,-288.89 390,-280 390.17,-208.26 390.66,-122.93 390.88,-85.8"/>
<polygon fill="midnightblue" stroke="midnightblue" points="394.38,-85.54 390.95,-75.52 387.38,-85.5 394.38,-85.54"/>
</g>
<!-- Node14 -->
<g id="node14" class="node">
<title>Node14</title>
<g id="a_node14"><a xlink:href="source__location_8h.html" target="_top" xlink:title=" ">
<polygon fill="none" stroke="black" points="594,-280.5 594,-299.5 696,-299.5 696,-280.5 594,-280.5"/>
<text text-anchor="middle" x="645" y="-287.5" font-family="Helvetica,sans-Serif" font-size="10.00">source_location.h</text>
</a>
</g>
</g>
<!-- Node7&#45;&gt;Node14 -->
<g id="edge17" class="edge">
<title>Node7&#45;&gt;Node14</title>
<path fill="none" stroke="midnightblue" d="M438.82,-336.44C481.56,-327.02 550.33,-311.87 596.57,-301.68"/>
<polygon fill="midnightblue" stroke="midnightblue" points="597.35,-305.09 606.36,-299.52 595.84,-298.25 597.35,-305.09"/>
</g>
<!-- Node11&#45;&gt;Node4 -->
<g id="edge15" class="edge">
<title>Node11&#45;&gt;Node4</title>
<path fill="none" stroke="midnightblue" d="M412.55,-56.44C435.03,-47.52 470.49,-33.44 495.98,-23.32"/>
<polygon fill="midnightblue" stroke="midnightblue" points="497.55,-26.46 505.55,-19.52 494.97,-19.95 497.55,-26.46"/>
</g>
<!-- Node11&#45;&gt;Node9 -->
<g id="edge14" class="edge">
<title>Node11&#45;&gt;Node9</title>
<path fill="none" stroke="midnightblue" d="M425.53,-60.26C498.79,-50.19 669.29,-26.76 745.73,-16.26"/>
<polygon fill="midnightblue" stroke="midnightblue" points="746.44,-19.69 755.87,-14.86 745.49,-12.76 746.44,-19.69"/>
</g>
<!-- Node12 -->
<g id="node12" class="node">
<title>Node12</title>
<g id="a_node12"><a xlink:title=" ">
<polygon fill="none" stroke="#bfbfbf" points="366.5,-0.5 366.5,-19.5 415.5,-19.5 415.5,-0.5 366.5,-0.5"/>
<text text-anchor="middle" x="391" y="-7.5" font-family="Helvetica,sans-Serif" font-size="10.00">cstdlib</text>
</a>
</g>
</g>
<!-- Node11&#45;&gt;Node12 -->
<g id="edge13" class="edge">
<title>Node11&#45;&gt;Node12</title>
<path fill="none" stroke="midnightblue" d="M391,-56.08C391,-49.01 391,-38.86 391,-29.99"/>
<polygon fill="midnightblue" stroke="midnightblue" points="394.5,-29.75 391,-19.75 387.5,-29.75 394.5,-29.75"/>
</g>
<!-- Node13 -->
<g id="node13" class="node">
<title>Node13</title>
<g id="a_node13"><a xlink:title=" ">
<polygon fill="none" stroke="#bfbfbf" points="274.5,-0.5 274.5,-19.5 343.5,-19.5 343.5,-0.5 274.5,-0.5"/>
<text text-anchor="middle" x="309" y="-7.5" font-family="Helvetica,sans-Serif" font-size="10.00">type_traits</text>
</a>
</g>
</g>
<!-- Node11&#45;&gt;Node13 -->
<g id="edge16" class="edge">
<title>Node11&#45;&gt;Node13</title>
<path fill="none" stroke="midnightblue" d="M377.83,-56.32C365.15,-47.98 345.77,-35.21 330.79,-25.35"/>
<polygon fill="midnightblue" stroke="midnightblue" points="332.42,-22.23 322.14,-19.65 328.57,-28.08 332.42,-22.23"/>
</g>
<!-- Node14&#45;&gt;Node4 -->
<g id="edge37" class="edge">
<title>Node14&#45;&gt;Node4</title>
<path fill="none" stroke="midnightblue" d="M696.3,-288.5C769.98,-284.77 897,-265.76 897,-179 897,-179 897,-179 897,-121 897,-50.81 649.24,-21.83 559.21,-13.62"/>
<polygon fill="midnightblue" stroke="midnightblue" points="559.31,-10.12 549.04,-12.72 558.69,-17.09 559.31,-10.12"/>
</g>
<!-- Node15 -->
<g id="node15" class="node">
<title>Node15</title>
<g id="a_node15"><a xlink:href="irep_8h.html" target="_top" xlink:title=" ">
<polygon fill="none" stroke="black" points="543,-224.5 543,-243.5 587,-243.5 587,-224.5 543,-224.5"/>
<text text-anchor="middle" x="565" y="-231.5" font-family="Helvetica,sans-Serif" font-size="10.00">irep.h</text>
</a>
</g>
</g>
<!-- Node14&#45;&gt;Node15 -->
<g id="edge18" class="edge">
<title>Node14&#45;&gt;Node15</title>
<path fill="none" stroke="midnightblue" d="M632.15,-280.32C619.78,-271.98 600.87,-259.21 586.26,-249.35"/>
<polygon fill="midnightblue" stroke="midnightblue" points="588.07,-246.35 577.82,-243.65 584.15,-252.15 588.07,-246.35"/>
</g>
<!-- Node32 -->
<g id="node25" class="node">
<title>Node32</title>
<g id="a_node25"><a xlink:href="optional_8h.html" target="_top" xlink:title=" ">
<polygon fill="none" stroke="black" points="692.5,-224.5 692.5,-243.5 757.5,-243.5 757.5,-224.5 692.5,-224.5"/>
<text text-anchor="middle" x="725" y="-231.5" font-family="Helvetica,sans-Serif" font-size="10.00">optional.h</text>
</a>
</g>
</g>
<!-- Node14&#45;&gt;Node32 -->
<g id="edge35" class="edge">
<title>Node14&#45;&gt;Node32</title>
<path fill="none" stroke="midnightblue" d="M657.85,-280.32C670.22,-271.98 689.13,-259.21 703.74,-249.35"/>
<polygon fill="midnightblue" stroke="midnightblue" points="705.85,-252.15 712.18,-243.65 701.93,-246.35 705.85,-252.15"/>
</g>
<!-- Node15&#45;&gt;Node4 -->
<g id="edge19" class="edge">
<title>Node15&#45;&gt;Node4</title>
<path fill="none" stroke="midnightblue" d="M568.19,-224.37C575.13,-204.34 590.18,-153.31 580,-112 572.14,-80.11 552.22,-47.15 539.16,-27.89"/>
<polygon fill="midnightblue" stroke="midnightblue" points="541.98,-25.8 533.39,-19.6 536.23,-29.8 541.98,-25.8"/>
</g>
<!-- Node15&#45;&gt;Node11 -->
<g id="edge21" class="edge">
<title>Node15&#45;&gt;Node11</title>
<path fill="none" stroke="midnightblue" d="M542.88,-224.96C508.81,-211.37 444,-180.51 411,-132 401.56,-118.12 396.44,-99.61 393.75,-85.89"/>
<polygon fill="midnightblue" stroke="midnightblue" points="397.14,-84.97 392.02,-75.7 390.24,-86.14 397.14,-84.97"/>
</g>
<!-- Node16 -->
<g id="node16" class="node">
<title>Node16</title>
<g id="a_node16"><a xlink:title=" ">
<polygon fill="none" stroke="#bfbfbf" points="290.5,-168.5 290.5,-187.5 337.5,-187.5 337.5,-168.5 290.5,-168.5"/>
<text text-anchor="middle" x="314" y="-175.5" font-family="Helvetica,sans-Serif" font-size="10.00">vector</text>
</a>
</g>
</g>
<!-- Node15&#45;&gt;Node16 -->
<g id="edge20" class="edge">
<title>Node15&#45;&gt;Node16</title>
<path fill="none" stroke="midnightblue" d="M542.73,-228.21C498.61,-218.72 399.91,-197.48 347.76,-186.26"/>
<polygon fill="midnightblue" stroke="midnightblue" points="348.19,-182.78 337.68,-184.1 346.72,-189.62 348.19,-182.78"/>
</g>
<!-- Node17 -->
<g id="node17" class="node">
<title>Node17</title>
<g id="a_node17"><a xlink:href="irep__ids_8h.html" target="_top" xlink:title=" ">
<polygon fill="none" stroke="black" points="490,-168.5 490,-187.5 554,-187.5 554,-168.5 490,-168.5"/>
<text text-anchor="middle" x="522" y="-175.5" font-family="Helvetica,sans-Serif" font-size="10.00">irep_ids.h</text>
</a>
</g>
</g>
<!-- Node15&#45;&gt;Node17 -->
<g id="edge22" class="edge">
<title>Node15&#45;&gt;Node17</title>
<path fill="none" stroke="midnightblue" d="M557.9,-224.08C551.76,-216.38 542.73,-205.03 535.26,-195.65"/>
<polygon fill="midnightblue" stroke="midnightblue" points="537.94,-193.39 528.97,-187.75 532.46,-197.75 537.94,-193.39"/>
</g>
<!-- Node27 -->
<g id="node20" class="node">
<title>Node27</title>
<g id="a_node20"><a xlink:href="forward__list__as__map_8h.html" target="_top" xlink:title=" ">
<polygon fill="none" stroke="black" points="610.5,-168.5 610.5,-187.5 737.5,-187.5 737.5,-168.5 610.5,-168.5"/>
<text text-anchor="middle" x="674" y="-175.5" font-family="Helvetica,sans-Serif" font-size="10.00">forward_list_as_map.h</text>
</a>
</g>
</g>
<!-- Node15&#45;&gt;Node27 -->
<g id="edge28" class="edge">
<title>Node15&#45;&gt;Node27</title>
<path fill="none" stroke="midnightblue" d="M582.51,-224.32C600.07,-215.62 627.33,-202.12 647.53,-192.11"/>
<polygon fill="midnightblue" stroke="midnightblue" points="649.12,-195.23 656.53,-187.65 646.02,-188.96 649.12,-195.23"/>
</g>
<!-- Node18 -->
<g id="node18" class="node">
<title>Node18</title>
<g id="a_node18"><a xlink:href="dstring_8h.html" target="_top" xlink:title=" ">
<polygon fill="none" stroke="red" points="419.5,-112.5 419.5,-131.5 478.5,-131.5 478.5,-112.5 419.5,-112.5"/>
<text text-anchor="middle" x="449" y="-119.5" font-family="Helvetica,sans-Serif" font-size="10.00">dstring.h</text>
</a>
</g>
</g>
<!-- Node17&#45;&gt;Node18 -->
<g id="edge23" class="edge">
<title>Node17&#45;&gt;Node18</title>
<path fill="none" stroke="midnightblue" d="M510.27,-168.32C499.16,-160.11 482.26,-147.6 469.02,-137.81"/>
<polygon fill="midnightblue" stroke="midnightblue" points="471.06,-134.97 460.94,-131.83 466.9,-140.59 471.06,-134.97"/>
</g>
<!-- Node26 -->
<g id="node19" class="node">
<title>Node26</title>
<g id="a_node19"><a xlink:title=" ">
<polygon fill="none" stroke="#bfbfbf" points="497,-112.5 497,-131.5 571,-131.5 571,-112.5 497,-112.5"/>
<text text-anchor="middle" x="534" y="-119.5" font-family="Helvetica,sans-Serif" font-size="10.00">irep_ids.def</text>
</a>
</g>
</g>
<!-- Node17&#45;&gt;Node26 -->
<g id="edge27" class="edge">
<title>Node17&#45;&gt;Node26</title>
<path fill="none" stroke="midnightblue" d="M523.98,-168.08C525.57,-160.93 527.86,-150.64 529.85,-141.69"/>
<polygon fill="midnightblue" stroke="midnightblue" points="533.3,-142.27 532.06,-131.75 526.47,-140.75 533.3,-142.27"/>
</g>
<!-- Node18&#45;&gt;Node3 -->
<g id="edge24" class="edge">
<title>Node18&#45;&gt;Node3</title>
<path fill="none" stroke="midnightblue" d="M419.48,-114.96C370.27,-104.9 271.69,-84.73 219.4,-74.04"/>
<polygon fill="midnightblue" stroke="midnightblue" points="219.78,-70.54 209.28,-71.97 218.38,-77.4 219.78,-70.54"/>
</g>
<!-- Node18&#45;&gt;Node4 -->
<g id="edge25" class="edge">
<title>Node18&#45;&gt;Node4</title>
<path fill="none" stroke="midnightblue" d="M455.12,-112.37C467.99,-94.22 498.07,-51.8 514.95,-27.99"/>
<polygon fill="midnightblue" stroke="midnightblue" points="517.98,-29.77 520.91,-19.59 512.27,-25.72 517.98,-29.77"/>
</g>
<!-- Node18&#45;&gt;Node11 -->
<g id="edge26" class="edge">
<title>Node18&#45;&gt;Node11</title>
<path fill="none" stroke="midnightblue" d="M439.68,-112.32C431.11,-104.34 418.19,-92.31 407.81,-82.65"/>
<polygon fill="midnightblue" stroke="midnightblue" points="410.19,-80.09 400.49,-75.83 405.42,-85.21 410.19,-80.09"/>
</g>
<!-- Node28 -->
<g id="node21" class="node">
<title>Node28</title>
<g id="a_node21"><a xlink:title=" ">
<polygon fill="none" stroke="#bfbfbf" points="713,-112.5 713,-131.5 777,-131.5 777,-112.5 713,-112.5"/>
<text text-anchor="middle" x="745" y="-119.5" font-family="Helvetica,sans-Serif" font-size="10.00">algorithm</text>
</a>
</g>
</g>
<!-- Node27&#45;&gt;Node28 -->
<g id="edge29" class="edge">
<title>Node27&#45;&gt;Node28</title>
<path fill="none" stroke="midnightblue" d="M685.41,-168.32C696.11,-160.18 712.34,-147.84 725.16,-138.09"/>
<polygon fill="midnightblue" stroke="midnightblue" points="727.54,-140.67 733.39,-131.83 723.31,-135.1 727.54,-140.67"/>
</g>
<!-- Node29 -->
<g id="node22" class="node">
<title>Node29</title>
<g id="a_node22"><a xlink:title=" ">
<polygon fill="none" stroke="#bfbfbf" points="795,-112.5 795,-131.5 869,-131.5 869,-112.5 795,-112.5"/>
<text text-anchor="middle" x="832" y="-119.5" font-family="Helvetica,sans-Serif" font-size="10.00">forward_list</text>
</a>
</g>
</g>
<!-- Node27&#45;&gt;Node29 -->
<g id="edge30" class="edge">
<title>Node27&#45;&gt;Node29</title>
<path fill="none" stroke="midnightblue" d="M699.04,-168.44C725.62,-159.36 767.81,-144.94 797.52,-134.78"/>
<polygon fill="midnightblue" stroke="midnightblue" points="798.75,-138.06 807.08,-131.52 796.49,-131.44 798.75,-138.06"/>
</g>
<!-- Node30 -->
<g id="node23" class="node">
<title>Node30</title>
<g id="a_node23"><a xlink:href="as__const_8h.html" target="_top" xlink:title=" ">
<polygon fill="none" stroke="black" points="627,-112.5 627,-131.5 695,-131.5 695,-112.5 627,-112.5"/>
<text text-anchor="middle" x="661" y="-119.5" font-family="Helvetica,sans-Serif" font-size="10.00">as_const.h</text>
</a>
</g>
</g>
<!-- Node27&#45;&gt;Node30 -->
<g id="edge31" class="edge">
<title>Node27&#45;&gt;Node30</title>
<path fill="none" stroke="midnightblue" d="M671.85,-168.08C670.13,-160.93 667.65,-150.64 665.5,-141.69"/>
<polygon fill="midnightblue" stroke="midnightblue" points="668.85,-140.65 663.11,-131.75 662.04,-142.29 668.85,-140.65"/>
</g>
<!-- Node31 -->
<g id="node24" class="node">
<title>Node31</title>
<g id="a_node24"><a xlink:href="narrow_8h.html" target="_top" xlink:title=" ">
<polygon fill="none" stroke="black" points="265.5,-112.5 265.5,-131.5 324.5,-131.5 324.5,-112.5 265.5,-112.5"/>
<text text-anchor="middle" x="295" y="-119.5" font-family="Helvetica,sans-Serif" font-size="10.00">narrow.h</text>
</a>
</g>
</g>
<!-- Node27&#45;&gt;Node31 -->
<g id="edge32" class="edge">
<title>Node27&#45;&gt;Node31</title>
<path fill="none" stroke="midnightblue" d="M613.95,-168.44C535.88,-157.32 401.69,-138.2 335.01,-128.7"/>
<polygon fill="midnightblue" stroke="midnightblue" points="335.3,-125.21 324.91,-127.26 334.32,-132.14 335.3,-125.21"/>
</g>
<!-- Node31&#45;&gt;Node11 -->
<g id="edge34" class="edge">
<title>Node31&#45;&gt;Node11</title>
<path fill="none" stroke="midnightblue" d="M310.42,-112.32C325.54,-103.82 348.82,-90.73 366.47,-80.8"/>
<polygon fill="midnightblue" stroke="midnightblue" points="368.61,-83.61 375.61,-75.65 365.18,-77.51 368.61,-83.61"/>
</g>
<!-- Node31&#45;&gt;Node13 -->
<g id="edge33" class="edge">
<title>Node31&#45;&gt;Node13</title>
<path fill="none" stroke="midnightblue" d="M296.1,-112.37C298.36,-94.62 303.57,-53.67 306.63,-29.6"/>
<polygon fill="midnightblue" stroke="midnightblue" points="310.12,-29.95 307.91,-19.59 303.17,-29.07 310.12,-29.95"/>
</g>
<!-- Node33 -->
<g id="node26" class="node">
<title>Node33</title>
<g id="a_node26"><a xlink:title=" ">
<polygon fill="none" stroke="#bfbfbf" points="755.5,-168.5 755.5,-187.5 868.5,-187.5 868.5,-168.5 755.5,-168.5"/>
<text text-anchor="middle" x="812" y="-175.5" font-family="Helvetica,sans-Serif" font-size="10.00">nonstd/optional.hpp</text>
</a>
</g>
</g>
<!-- Node32&#45;&gt;Node33 -->
<g id="edge36" class="edge">
<title>Node32&#45;&gt;Node33</title>
<path fill="none" stroke="midnightblue" d="M738.98,-224.32C752.55,-215.9 773.38,-202.97 789.32,-193.07"/>
<polygon fill="midnightblue" stroke="midnightblue" points="791.41,-195.9 798.06,-187.65 787.71,-189.95 791.41,-195.9"/>
</g>
<!-- Node34&#45;&gt;Node3 -->
<g id="edge39" class="edge">
<title>Node34&#45;&gt;Node3</title>
<path fill="none" stroke="midnightblue" d="M130,-336.44C130,-317.94 130,-272.81 130,-235 130,-235 130,-235 130,-177 130,-140.57 154.43,-103.84 170.73,-83.39"/>
<polygon fill="midnightblue" stroke="midnightblue" points="173.44,-85.6 177.12,-75.67 168.05,-81.14 173.44,-85.6"/>
</g>
<!-- Node35&#45;&gt;Node3 -->
<g id="edge41" class="edge">
<title>Node35&#45;&gt;Node3</title>
<path fill="none" stroke="midnightblue" d="M185,-224.08C185,-197.95 185,-121.21 185,-85.58"/>
<polygon fill="midnightblue" stroke="midnightblue" points="188.5,-85.57 185,-75.57 181.5,-85.57 188.5,-85.57"/>
</g>
<!-- Node35&#45;&gt;Node16 -->
<g id="edge43" class="edge">
<title>Node35&#45;&gt;Node16</title>
<path fill="none" stroke="midnightblue" d="M205.44,-224.44C226.67,-215.56 260.1,-201.56 284.25,-191.45"/>
<polygon fill="midnightblue" stroke="midnightblue" points="285.78,-194.61 293.66,-187.52 283.08,-188.15 285.78,-194.61"/>
</g>
<!-- Node35&#45;&gt;Node31 -->
<g id="edge42" class="edge">
<title>Node35&#45;&gt;Node31</title>
<path fill="none" stroke="midnightblue" d="M193.63,-224.37C212.11,-205.89 255.71,-162.29 279.26,-138.74"/>
<polygon fill="midnightblue" stroke="midnightblue" points="281.81,-141.14 286.41,-131.59 276.86,-136.19 281.81,-141.14"/>
</g>
</g>
</svg>
