<?xml version="1.0" encoding="UTF-8" standalone="no"?>
<!DOCTYPE svg PUBLIC "-//W3C//DTD SVG 1.1//EN"
 "http://www.w3.org/Graphics/SVG/1.1/DTD/svg11.dtd">
<!-- Generated by graphviz version 2.43.0 (0)
 -->
<!-- Title: /home/runner/work/cbmc&#45;documentation/cbmc&#45;documentation/jbmc/src/java_bytecode/bytecode_info.h Pages: 1 -->
<svg width="3488pt" height="584pt"
 viewBox="0.00 0.00 3487.50 584.00" xmlns="http://www.w3.org/2000/svg" xmlns:xlink="http://www.w3.org/1999/xlink">
<g id="graph0" class="graph" transform="scale(1 1) rotate(0) translate(4 580)">
<title>/home/runner/work/cbmc&#45;documentation/cbmc&#45;documentation/jbmc/src/java_bytecode/bytecode_info.h</title>
<!-- Node1 -->
<g id="node1" class="node">
<title>Node1</title>
<g id="a_node1"><a xlink:title=" ">
<polygon fill="#bfbfbf" stroke="black" points="365.5,-534.5 365.5,-575.5 581.5,-575.5 581.5,-534.5 365.5,-534.5"/>
<text text-anchor="start" x="373.5" y="-563.5" font-family="Helvetica,sans-Serif" font-size="10.00">/home/runner/work/cbmc</text>
<text text-anchor="start" x="373.5" y="-552.5" font-family="Helvetica,sans-Serif" font-size="10.00">&#45;documentation/cbmc&#45;documentation</text>
<text text-anchor="middle" x="473.5" y="-541.5" font-family="Helvetica,sans-Serif" font-size="10.00">/jbmc/src/java_bytecode/bytecode_info.h</text>
</a>
</g>
</g>
<!-- Node2 -->
<g id="node2" class="node">
<title>Node2</title>
<g id="a_node2"><a xlink:href="bytecode__info_8cpp.html" target="_top" xlink:title=" ">
<polygon fill="none" stroke="black" points="0,-451 0,-492 227,-492 227,-451 0,-451"/>
<text text-anchor="start" x="8" y="-480" font-family="Helvetica,sans-Serif" font-size="10.00">/home/runner/work/cbmc</text>
<text text-anchor="start" x="8" y="-469" font-family="Helvetica,sans-Serif" font-size="10.00">&#45;documentation/cbmc&#45;documentation</text>
<text text-anchor="middle" x="113.5" y="-458" font-family="Helvetica,sans-Serif" font-size="10.00">/jbmc/src/java_bytecode/bytecode_info.cpp</text>
</a>
</g>
</g>
<!-- Node1&#45;&gt;Node2 -->
<g id="edge1" class="edge">
<title>Node1&#45;&gt;Node2</title>
<path fill="none" stroke="midnightblue" d="M377.46,-532.26C322.15,-519.74 253.2,-504.13 199.65,-492"/>
<polygon fill="midnightblue" stroke="midnightblue" points="376.75,-535.68 387.27,-534.48 378.29,-528.86 376.75,-535.68"/>
</g>
<!-- Node3 -->
<g id="node3" class="node">
<title>Node3</title>
<g id="a_node3"><a xlink:href="java__bytecode__parse__tree_8h.html" target="_top" xlink:title=" ">
<polygon fill="none" stroke="black" points="1032.5,-445.5 1032.5,-497.5 1232.5,-497.5 1232.5,-445.5 1032.5,-445.5"/>
<text text-anchor="start" x="1040.5" y="-485.5" font-family="Helvetica,sans-Serif" font-size="10.00">/home/runner/work/cbmc</text>
<text text-anchor="start" x="1040.5" y="-474.5" font-family="Helvetica,sans-Serif" font-size="10.00">&#45;documentation/cbmc&#45;documentation</text>
<text text-anchor="start" x="1040.5" y="-463.5" font-family="Helvetica,sans-Serif" font-size="10.00">/jbmc/src/java_bytecode/java</text>
<text text-anchor="middle" x="1132.5" y="-452.5" font-family="Helvetica,sans-Serif" font-size="10.00">_bytecode_parse_tree.h</text>
</a>
</g>
</g>
<!-- Node1&#45;&gt;Node3 -->
<g id="edge2" class="edge">
<title>Node1&#45;&gt;Node3</title>
<path fill="none" stroke="midnightblue" d="M591.64,-539.39C717.36,-523.84 914.12,-499.51 1032.46,-484.87"/>
<polygon fill="midnightblue" stroke="midnightblue" points="591.08,-535.93 581.58,-540.63 591.94,-542.88 591.08,-535.93"/>
</g>
<!-- Node24 -->
<g id="node24" class="node">
<title>Node24</title>
<g id="a_node24"><a xlink:href="java__bytecode__convert__method_8cpp.html" target="_top" xlink:title=" ">
<polygon fill="none" stroke="black" points="392.5,-0.5 392.5,-52.5 592.5,-52.5 592.5,-0.5 392.5,-0.5"/>
<text text-anchor="start" x="400.5" y="-40.5" font-family="Helvetica,sans-Serif" font-size="10.00">/home/runner/work/cbmc</text>
<text text-anchor="start" x="400.5" y="-29.5" font-family="Helvetica,sans-Serif" font-size="10.00">&#45;documentation/cbmc&#45;documentation</text>
<text text-anchor="start" x="400.5" y="-18.5" font-family="Helvetica,sans-Serif" font-size="10.00">/jbmc/src/java_bytecode/java</text>
<text text-anchor="middle" x="492.5" y="-7.5" font-family="Helvetica,sans-Serif" font-size="10.00">_bytecode_convert_method.cpp</text>
</a>
</g>
</g>
<!-- Node1&#45;&gt;Node24 -->
<g id="edge52" class="edge">
<title>Node1&#45;&gt;Node24</title>
<path fill="none" stroke="midnightblue" d="M473.5,-524.11C473.5,-490.07 473.5,-432.78 473.5,-383.5 473.5,-383.5 473.5,-383.5 473.5,-203.5 473.5,-149.56 482.43,-86.86 488.05,-52.76"/>
<polygon fill="midnightblue" stroke="midnightblue" points="470,-524.31 473.5,-534.31 477,-524.31 470,-524.31"/>
</g>
<!-- Node30 -->
<g id="node30" class="node">
<title>Node30</title>
<g id="a_node30"><a xlink:href="java__bytecode__parser_8cpp.html" target="_top" xlink:title=" ">
<polygon fill="none" stroke="black" points="1871.5,-356.5 1871.5,-408.5 2071.5,-408.5 2071.5,-356.5 1871.5,-356.5"/>
<text text-anchor="start" x="1879.5" y="-396.5" font-family="Helvetica,sans-Serif" font-size="10.00">/home/runner/work/cbmc</text>
<text text-anchor="start" x="1879.5" y="-385.5" font-family="Helvetica,sans-Serif" font-size="10.00">&#45;documentation/cbmc&#45;documentation</text>
<text text-anchor="start" x="1879.5" y="-374.5" font-family="Helvetica,sans-Serif" font-size="10.00">/jbmc/src/java_bytecode/java</text>
<text text-anchor="middle" x="1971.5" y="-363.5" font-family="Helvetica,sans-Serif" font-size="10.00">_bytecode_parser.cpp</text>
</a>
</g>
</g>
<!-- Node1&#45;&gt;Node30 -->
<g id="edge55" class="edge">
<title>Node1&#45;&gt;Node30</title>
<path fill="none" stroke="midnightblue" d="M591.73,-547.94C742.73,-539.61 1012.01,-522.78 1241.5,-498 1518.71,-468.07 1588.49,-460.58 1862.5,-409 1865.46,-408.44 1868.46,-407.86 1871.49,-407.26"/>
<polygon fill="midnightblue" stroke="midnightblue" points="591.3,-544.46 581.51,-548.5 591.68,-551.45 591.3,-544.46"/>
</g>
<!-- Node34 -->
<g id="node34" class="node">
<title>Node34</title>
<g id="a_node34"><a xlink:href="pattern_8h.html" target="_top" xlink:title=" ">
<polygon fill="none" stroke="black" points="245.5,-451 245.5,-492 445.5,-492 445.5,-451 245.5,-451"/>
<text text-anchor="start" x="253.5" y="-480" font-family="Helvetica,sans-Serif" font-size="10.00">/home/runner/work/cbmc</text>
<text text-anchor="start" x="253.5" y="-469" font-family="Helvetica,sans-Serif" font-size="10.00">&#45;documentation/cbmc&#45;documentation</text>
<text text-anchor="middle" x="345.5" y="-458" font-family="Helvetica,sans-Serif" font-size="10.00">/jbmc/src/java_bytecode/pattern.h</text>
</a>
</g>
</g>
<!-- Node1&#45;&gt;Node34 -->
<g id="edge53" class="edge">
<title>Node1&#45;&gt;Node34</title>
<path fill="none" stroke="midnightblue" d="M434.28,-529.03C415.67,-517.18 393.75,-503.22 376.35,-492.14"/>
<polygon fill="midnightblue" stroke="midnightblue" points="432.53,-532.06 442.84,-534.48 436.29,-526.16 432.53,-532.06"/>
</g>
<!-- Node4 -->
<g id="node4" class="node">
<title>Node4</title>
<g id="a_node4"><a xlink:href="ci__lazy__methods_8h.html" target="_top" xlink:title=" ">
<polygon fill="none" stroke="black" points="1217.5,-356.5 1217.5,-408.5 1417.5,-408.5 1417.5,-356.5 1217.5,-356.5"/>
<text text-anchor="start" x="1225.5" y="-396.5" font-family="Helvetica,sans-Serif" font-size="10.00">/home/runner/work/cbmc</text>
<text text-anchor="start" x="1225.5" y="-385.5" font-family="Helvetica,sans-Serif" font-size="10.00">&#45;documentation/cbmc&#45;documentation</text>
<text text-anchor="start" x="1225.5" y="-374.5" font-family="Helvetica,sans-Serif" font-size="10.00">/jbmc/src/java_bytecode/ci_lazy</text>
<text text-anchor="middle" x="1317.5" y="-363.5" font-family="Helvetica,sans-Serif" font-size="10.00">_methods.h</text>
</a>
</g>
</g>
<!-- Node3&#45;&gt;Node4 -->
<g id="edge3" class="edge">
<title>Node3&#45;&gt;Node4</title>
<path fill="none" stroke="midnightblue" d="M1195.11,-441.06C1217.52,-430.52 1242.55,-418.75 1264.11,-408.61"/>
<polygon fill="midnightblue" stroke="midnightblue" points="1193.57,-437.91 1186.01,-445.34 1196.55,-444.25 1193.57,-437.91"/>
</g>
<!-- Node20 -->
<g id="node20" class="node">
<title>Node20</title>
<g id="a_node20"><a xlink:href="java__class__loader_8h.html" target="_top" xlink:title=" ">
<polygon fill="none" stroke="black" points="1435.5,-356.5 1435.5,-408.5 1635.5,-408.5 1635.5,-356.5 1435.5,-356.5"/>
<text text-anchor="start" x="1443.5" y="-396.5" font-family="Helvetica,sans-Serif" font-size="10.00">/home/runner/work/cbmc</text>
<text text-anchor="start" x="1443.5" y="-385.5" font-family="Helvetica,sans-Serif" font-size="10.00">&#45;documentation/cbmc&#45;documentation</text>
<text text-anchor="start" x="1443.5" y="-374.5" font-family="Helvetica,sans-Serif" font-size="10.00">/jbmc/src/java_bytecode/java</text>
<text text-anchor="middle" x="1535.5" y="-363.5" font-family="Helvetica,sans-Serif" font-size="10.00">_class_loader.h</text>
</a>
</g>
</g>
<!-- Node3&#45;&gt;Node20 -->
<g id="edge23" class="edge">
<title>Node3&#45;&gt;Node20</title>
<path fill="none" stroke="midnightblue" d="M1242.46,-448.14C1297.75,-436.73 1365.74,-422.46 1426.5,-409 1429.44,-408.35 1432.43,-407.68 1435.44,-407.01"/>
<polygon fill="midnightblue" stroke="midnightblue" points="1241.73,-444.72 1232.64,-450.16 1243.14,-451.57 1241.73,-444.72"/>
</g>
<!-- Node21 -->
<g id="node21" class="node">
<title>Node21</title>
<g id="a_node21"><a xlink:href="java__bytecode__convert__class_8h.html" target="_top" xlink:title=" ">
<polygon fill="none" stroke="black" points="1217.5,-267.5 1217.5,-319.5 1417.5,-319.5 1417.5,-267.5 1217.5,-267.5"/>
<text text-anchor="start" x="1225.5" y="-307.5" font-family="Helvetica,sans-Serif" font-size="10.00">/home/runner/work/cbmc</text>
<text text-anchor="start" x="1225.5" y="-296.5" font-family="Helvetica,sans-Serif" font-size="10.00">&#45;documentation/cbmc&#45;documentation</text>
<text text-anchor="start" x="1225.5" y="-285.5" font-family="Helvetica,sans-Serif" font-size="10.00">/jbmc/src/java_bytecode/java</text>
<text text-anchor="middle" x="1317.5" y="-274.5" font-family="Helvetica,sans-Serif" font-size="10.00">_bytecode_convert_class.h</text>
</a>
</g>
</g>
<!-- Node3&#45;&gt;Node21 -->
<g id="edge39" class="edge">
<title>Node3&#45;&gt;Node21</title>
<path fill="none" stroke="midnightblue" d="M1149.57,-436.27C1163.06,-411.72 1183.72,-379.05 1208.5,-356 1223.93,-341.65 1243.32,-329.34 1261.45,-319.59"/>
<polygon fill="midnightblue" stroke="midnightblue" points="1146.4,-434.77 1144.76,-445.24 1152.57,-438.08 1146.4,-434.77"/>
</g>
<!-- Node22 -->
<g id="node22" class="node">
<title>Node22</title>
<g id="a_node22"><a xlink:href="java__bytecode__convert__method__class_8h.html" target="_top" xlink:title=" ">
<polygon fill="none" stroke="black" points="923.5,-178.5 923.5,-230.5 1123.5,-230.5 1123.5,-178.5 923.5,-178.5"/>
<text text-anchor="start" x="931.5" y="-218.5" font-family="Helvetica,sans-Serif" font-size="10.00">/home/runner/work/cbmc</text>
<text text-anchor="start" x="931.5" y="-207.5" font-family="Helvetica,sans-Serif" font-size="10.00">&#45;documentation/cbmc&#45;documentation</text>
<text text-anchor="start" x="931.5" y="-196.5" font-family="Helvetica,sans-Serif" font-size="10.00">/jbmc/src/java_bytecode/java</text>
<text text-anchor="middle" x="1023.5" y="-185.5" font-family="Helvetica,sans-Serif" font-size="10.00">_bytecode_convert_method_class.h</text>
</a>
</g>
</g>
<!-- Node3&#45;&gt;Node22 -->
<g id="edge40" class="edge">
<title>Node3&#45;&gt;Node22</title>
<path fill="none" stroke="midnightblue" d="M1122.1,-435.55C1115,-412.67 1105.01,-382.26 1094.5,-356 1076.47,-310.94 1051.53,-260.21 1036.51,-230.65"/>
<polygon fill="midnightblue" stroke="midnightblue" points="1118.77,-436.64 1125.05,-445.17 1125.47,-434.58 1118.77,-436.64"/>
</g>
<!-- Node23 -->
<g id="node23" class="node">
<title>Node23</title>
<g id="a_node23"><a xlink:href="java__bytecode__convert__method_8h.html" target="_top" xlink:title=" ">
<polygon fill="none" stroke="black" points="1013.5,-89.5 1013.5,-141.5 1213.5,-141.5 1213.5,-89.5 1013.5,-89.5"/>
<text text-anchor="start" x="1021.5" y="-129.5" font-family="Helvetica,sans-Serif" font-size="10.00">/home/runner/work/cbmc</text>
<text text-anchor="start" x="1021.5" y="-118.5" font-family="Helvetica,sans-Serif" font-size="10.00">&#45;documentation/cbmc&#45;documentation</text>
<text text-anchor="start" x="1021.5" y="-107.5" font-family="Helvetica,sans-Serif" font-size="10.00">/jbmc/src/java_bytecode/java</text>
<text text-anchor="middle" x="1113.5" y="-96.5" font-family="Helvetica,sans-Serif" font-size="10.00">_bytecode_convert_method.h</text>
</a>
</g>
</g>
<!-- Node3&#45;&gt;Node23 -->
<g id="edge41" class="edge">
<title>Node3&#45;&gt;Node23</title>
<path fill="none" stroke="midnightblue" d="M1135.87,-435.3C1140.4,-380.11 1146.39,-269.99 1132.5,-178 1130.65,-165.73 1126.83,-152.54 1123.1,-141.54"/>
<polygon fill="midnightblue" stroke="midnightblue" points="1132.38,-435.01 1135.02,-445.27 1139.36,-435.6 1132.38,-435.01"/>
</g>
<!-- Node25 -->
<g id="node25" class="node">
<title>Node25</title>
<g id="a_node25"><a xlink:href="lambda__synthesis_8cpp.html" target="_top" xlink:title=" ">
<polygon fill="none" stroke="black" points="610.5,-0.5 610.5,-52.5 810.5,-52.5 810.5,-0.5 610.5,-0.5"/>
<text text-anchor="start" x="618.5" y="-40.5" font-family="Helvetica,sans-Serif" font-size="10.00">/home/runner/work/cbmc</text>
<text text-anchor="start" x="618.5" y="-29.5" font-family="Helvetica,sans-Serif" font-size="10.00">&#45;documentation/cbmc&#45;documentation</text>
<text text-anchor="start" x="618.5" y="-18.5" font-family="Helvetica,sans-Serif" font-size="10.00">/jbmc/src/java_bytecode/lambda</text>
<text text-anchor="middle" x="710.5" y="-7.5" font-family="Helvetica,sans-Serif" font-size="10.00">_synthesis.cpp</text>
</a>
</g>
</g>
<!-- Node3&#45;&gt;Node25 -->
<g id="edge49" class="edge">
<title>Node3&#45;&gt;Node25</title>
<path fill="none" stroke="midnightblue" d="M1022.12,-467.59C893.9,-462.4 691.72,-448.11 627.5,-409 574.91,-376.97 549.5,-356.07 549.5,-294.5 549.5,-294.5 549.5,-294.5 549.5,-203.5 549.5,-151.92 536.74,-129.65 568.5,-89 580.82,-73.23 598,-61.43 616.16,-52.62"/>
<polygon fill="midnightblue" stroke="midnightblue" points="1022.24,-471.09 1032.37,-467.99 1022.52,-464.1 1022.24,-471.09"/>
</g>
<!-- Node28 -->
<g id="node28" class="node">
<title>Node28</title>
<g id="a_node28"><a xlink:href="lambda__synthesis_8h.html" target="_top" xlink:title=" ">
<polygon fill="none" stroke="black" points="577.5,-89.5 577.5,-141.5 777.5,-141.5 777.5,-89.5 577.5,-89.5"/>
<text text-anchor="start" x="585.5" y="-129.5" font-family="Helvetica,sans-Serif" font-size="10.00">/home/runner/work/cbmc</text>
<text text-anchor="start" x="585.5" y="-118.5" font-family="Helvetica,sans-Serif" font-size="10.00">&#45;documentation/cbmc&#45;documentation</text>
<text text-anchor="start" x="585.5" y="-107.5" font-family="Helvetica,sans-Serif" font-size="10.00">/jbmc/src/java_bytecode/lambda</text>
<text text-anchor="middle" x="677.5" y="-96.5" font-family="Helvetica,sans-Serif" font-size="10.00">_synthesis.h</text>
</a>
</g>
</g>
<!-- Node3&#45;&gt;Node28 -->
<g id="edge42" class="edge">
<title>Node3&#45;&gt;Node28</title>
<path fill="none" stroke="midnightblue" d="M1022.23,-463.76C889.72,-454.51 682.15,-435.92 658.5,-409 591.49,-332.73 640.46,-197.7 665.34,-141.81"/>
<polygon fill="midnightblue" stroke="midnightblue" points="1022.21,-467.27 1032.42,-464.46 1022.69,-460.28 1022.21,-467.27"/>
</g>
<!-- Node29 -->
<g id="node29" class="node">
<title>Node29</title>
<g id="a_node29"><a xlink:href="java__bytecode__parse__tree_8cpp.html" target="_top" xlink:title=" ">
<polygon fill="none" stroke="black" points="667.5,-356.5 667.5,-408.5 867.5,-408.5 867.5,-356.5 667.5,-356.5"/>
<text text-anchor="start" x="675.5" y="-396.5" font-family="Helvetica,sans-Serif" font-size="10.00">/home/runner/work/cbmc</text>
<text text-anchor="start" x="675.5" y="-385.5" font-family="Helvetica,sans-Serif" font-size="10.00">&#45;documentation/cbmc&#45;documentation</text>
<text text-anchor="start" x="675.5" y="-374.5" font-family="Helvetica,sans-Serif" font-size="10.00">/jbmc/src/java_bytecode/java</text>
<text text-anchor="middle" x="767.5" y="-363.5" font-family="Helvetica,sans-Serif" font-size="10.00">_bytecode_parse_tree.cpp</text>
</a>
</g>
</g>
<!-- Node3&#45;&gt;Node29 -->
<g id="edge46" class="edge">
<title>Node3&#45;&gt;Node29</title>
<path fill="none" stroke="midnightblue" d="M1022.25,-444.22C973.14,-432.52 915.71,-418.83 867.81,-407.41"/>
<polygon fill="midnightblue" stroke="midnightblue" points="1021.74,-447.7 1032.28,-446.61 1023.36,-440.89 1021.74,-447.7"/>
</g>
<!-- Node3&#45;&gt;Node30 -->
<g id="edge47" class="edge">
<title>Node3&#45;&gt;Node30</title>
<path fill="none" stroke="midnightblue" d="M1242.66,-466.22C1386.1,-459.51 1644.29,-443.53 1862.5,-409 1865.38,-408.54 1868.3,-408.05 1871.23,-407.54"/>
<polygon fill="midnightblue" stroke="midnightblue" points="1242.36,-462.73 1232.53,-466.69 1242.68,-469.73 1242.36,-462.73"/>
</g>
<!-- Node31 -->
<g id="node31" class="node">
<title>Node31</title>
<g id="a_node31"><a xlink:href="java__class__loader__base_8cpp.html" target="_top" xlink:title=" ">
<polygon fill="none" stroke="black" points="885.5,-356.5 885.5,-408.5 1085.5,-408.5 1085.5,-356.5 885.5,-356.5"/>
<text text-anchor="start" x="893.5" y="-396.5" font-family="Helvetica,sans-Serif" font-size="10.00">/home/runner/work/cbmc</text>
<text text-anchor="start" x="893.5" y="-385.5" font-family="Helvetica,sans-Serif" font-size="10.00">&#45;documentation/cbmc&#45;documentation</text>
<text text-anchor="start" x="893.5" y="-374.5" font-family="Helvetica,sans-Serif" font-size="10.00">/jbmc/src/java_bytecode/java</text>
<text text-anchor="middle" x="985.5" y="-363.5" font-family="Helvetica,sans-Serif" font-size="10.00">_class_loader_base.cpp</text>
</a>
</g>
</g>
<!-- Node3&#45;&gt;Node31 -->
<g id="edge48" class="edge">
<title>Node3&#45;&gt;Node31</title>
<path fill="none" stroke="midnightblue" d="M1081.08,-440.07C1063.71,-429.79 1044.52,-418.43 1027.92,-408.61"/>
<polygon fill="midnightblue" stroke="midnightblue" points="1079.59,-443.25 1089.98,-445.34 1083.16,-437.23 1079.59,-443.25"/>
</g>
<!-- Node32 -->
<g id="node32" class="node">
<title>Node32</title>
<g id="a_node32"><a xlink:href="require__parse__tree_8h.html" target="_top" xlink:title=" ">
<polygon fill="none" stroke="black" points="1653.5,-356.5 1653.5,-408.5 1853.5,-408.5 1853.5,-356.5 1653.5,-356.5"/>
<text text-anchor="start" x="1661.5" y="-396.5" font-family="Helvetica,sans-Serif" font-size="10.00">/home/runner/work/cbmc</text>
<text text-anchor="start" x="1661.5" y="-385.5" font-family="Helvetica,sans-Serif" font-size="10.00">&#45;documentation/cbmc&#45;documentation</text>
<text text-anchor="start" x="1661.5" y="-374.5" font-family="Helvetica,sans-Serif" font-size="10.00">/jbmc/unit/java&#45;testing&#45;utils</text>
<text text-anchor="middle" x="1753.5" y="-363.5" font-family="Helvetica,sans-Serif" font-size="10.00">/require_parse_tree.h</text>
</a>
</g>
</g>
<!-- Node3&#45;&gt;Node32 -->
<g id="edge50" class="edge">
<title>Node3&#45;&gt;Node32</title>
<path fill="none" stroke="midnightblue" d="M1242.77,-460.8C1346.81,-450.81 1506.91,-433.28 1644.5,-409 1647.37,-408.49 1650.28,-407.96 1653.21,-407.4"/>
<polygon fill="midnightblue" stroke="midnightblue" points="1242.19,-457.34 1232.57,-461.77 1242.86,-464.31 1242.19,-457.34"/>
</g>
<!-- Node5 -->
<g id="node5" class="node">
<title>Node5</title>
<g id="a_node5"><a xlink:href="ci__lazy__methods_8cpp.html" target="_top" xlink:title=" ">
<polygon fill="none" stroke="black" points="1383.5,-178.5 1383.5,-230.5 1583.5,-230.5 1583.5,-178.5 1383.5,-178.5"/>
<text text-anchor="start" x="1391.5" y="-218.5" font-family="Helvetica,sans-Serif" font-size="10.00">/home/runner/work/cbmc</text>
<text text-anchor="start" x="1391.5" y="-207.5" font-family="Helvetica,sans-Serif" font-size="10.00">&#45;documentation/cbmc&#45;documentation</text>
<text text-anchor="start" x="1391.5" y="-196.5" font-family="Helvetica,sans-Serif" font-size="10.00">/jbmc/src/java_bytecode/ci_lazy</text>
<text text-anchor="middle" x="1483.5" y="-185.5" font-family="Helvetica,sans-Serif" font-size="10.00">_methods.cpp</text>
</a>
</g>
</g>
<!-- Node4&#45;&gt;Node5 -->
<g id="edge4" class="edge">
<title>Node4&#45;&gt;Node5</title>
<path fill="none" stroke="midnightblue" d="M1419.61,-351.75C1434.72,-343.54 1448.78,-333.14 1459.5,-320 1480.17,-294.66 1484.33,-255.91 1484.58,-230.63"/>
<polygon fill="midnightblue" stroke="midnightblue" points="1417.93,-348.67 1410.61,-356.33 1421.11,-354.91 1417.93,-348.67"/>
</g>
<!-- Node6 -->
<g id="node6" class="node">
<title>Node6</title>
<g id="a_node6"><a xlink:href="java__bytecode__language_8h.html" target="_top" xlink:title=" ">
<polygon fill="none" stroke="black" points="1921.5,-267.5 1921.5,-319.5 2121.5,-319.5 2121.5,-267.5 1921.5,-267.5"/>
<text text-anchor="start" x="1929.5" y="-307.5" font-family="Helvetica,sans-Serif" font-size="10.00">/home/runner/work/cbmc</text>
<text text-anchor="start" x="1929.5" y="-296.5" font-family="Helvetica,sans-Serif" font-size="10.00">&#45;documentation/cbmc&#45;documentation</text>
<text text-anchor="start" x="1929.5" y="-285.5" font-family="Helvetica,sans-Serif" font-size="10.00">/jbmc/src/java_bytecode/java</text>
<text text-anchor="middle" x="2021.5" y="-274.5" font-family="Helvetica,sans-Serif" font-size="10.00">_bytecode_language.h</text>
</a>
</g>
</g>
<!-- Node4&#45;&gt;Node6 -->
<g id="edge5" class="edge">
<title>Node4&#45;&gt;Node6</title>
<path fill="none" stroke="midnightblue" d="M1427.91,-355.85C1606.85,-326.33 1805.04,-309.33 1921.49,-300.95"/>
<polygon fill="midnightblue" stroke="midnightblue" points="1427.07,-352.44 1417.78,-357.54 1428.22,-359.34 1427.07,-352.44"/>
</g>
<!-- Node10 -->
<g id="node10" class="node">
<title>Node10</title>
<g id="a_node10"><a xlink:href="java__bytecode__language_8cpp.html" target="_top" xlink:title=" ">
<polygon fill="none" stroke="black" points="1255.5,-0.5 1255.5,-52.5 1455.5,-52.5 1455.5,-0.5 1255.5,-0.5"/>
<text text-anchor="start" x="1263.5" y="-40.5" font-family="Helvetica,sans-Serif" font-size="10.00">/home/runner/work/cbmc</text>
<text text-anchor="start" x="1263.5" y="-29.5" font-family="Helvetica,sans-Serif" font-size="10.00">&#45;documentation/cbmc&#45;documentation</text>
<text text-anchor="start" x="1263.5" y="-18.5" font-family="Helvetica,sans-Serif" font-size="10.00">/jbmc/src/java_bytecode/java</text>
<text text-anchor="middle" x="1355.5" y="-7.5" font-family="Helvetica,sans-Serif" font-size="10.00">_bytecode_language.cpp</text>
</a>
</g>
</g>
<!-- Node4&#45;&gt;Node10 -->
<g id="edge22" class="edge">
<title>Node4&#45;&gt;Node10</title>
<path fill="none" stroke="midnightblue" d="M1395.99,-351C1408.18,-342.78 1419.16,-332.58 1426.5,-320 1438.38,-299.66 1437.43,-287.87 1426.5,-267 1413.45,-242.1 1388.69,-255.26 1374.5,-231 1341.36,-174.33 1346.2,-93.29 1351.43,-52.7"/>
<polygon fill="midnightblue" stroke="midnightblue" points="1394.01,-348.11 1387.38,-356.37 1397.72,-354.05 1394.01,-348.11"/>
</g>
<!-- Node19 -->
<g id="node19" class="node">
<title>Node19</title>
<g id="a_node19"><a xlink:href="java__bytecode__convert__class_8cpp.html" target="_top" xlink:title=" ">
<polygon fill="none" stroke="black" points="1037.5,-0.5 1037.5,-52.5 1237.5,-52.5 1237.5,-0.5 1037.5,-0.5"/>
<text text-anchor="start" x="1045.5" y="-40.5" font-family="Helvetica,sans-Serif" font-size="10.00">/home/runner/work/cbmc</text>
<text text-anchor="start" x="1045.5" y="-29.5" font-family="Helvetica,sans-Serif" font-size="10.00">&#45;documentation/cbmc&#45;documentation</text>
<text text-anchor="start" x="1045.5" y="-18.5" font-family="Helvetica,sans-Serif" font-size="10.00">/jbmc/src/java_bytecode/java</text>
<text text-anchor="middle" x="1137.5" y="-7.5" font-family="Helvetica,sans-Serif" font-size="10.00">_bytecode_convert_class.cpp</text>
</a>
</g>
</g>
<!-- Node4&#45;&gt;Node19 -->
<g id="edge21" class="edge">
<title>Node4&#45;&gt;Node19</title>
<path fill="none" stroke="midnightblue" d="M1239.01,-351C1226.82,-342.78 1215.84,-332.58 1208.5,-320 1156.63,-231.18 1269.29,-180.6 1222.5,-89 1214.88,-74.08 1201.76,-61.94 1188.07,-52.51"/>
<polygon fill="midnightblue" stroke="midnightblue" points="1237.28,-354.05 1247.62,-356.37 1240.99,-348.11 1237.28,-354.05"/>
</g>
<!-- Node6&#45;&gt;Node5 -->
<g id="edge10" class="edge">
<title>Node6&#45;&gt;Node5</title>
<path fill="none" stroke="midnightblue" d="M1911.26,-279.39C1824.35,-268.41 1700.25,-251.29 1592.5,-231 1589.54,-230.44 1586.54,-229.86 1583.51,-229.26"/>
<polygon fill="midnightblue" stroke="midnightblue" points="1911.05,-282.89 1921.41,-280.67 1911.92,-275.95 1911.05,-282.89"/>
</g>
<!-- Node7 -->
<g id="node7" class="node">
<title>Node7</title>
<g id="a_node7"><a xlink:href="janalyzer__parse__options_8h.html" target="_top" xlink:title=" ">
<polygon fill="none" stroke="black" points="2549.5,-178.5 2549.5,-230.5 2749.5,-230.5 2749.5,-178.5 2549.5,-178.5"/>
<text text-anchor="start" x="2557.5" y="-218.5" font-family="Helvetica,sans-Serif" font-size="10.00">/home/runner/work/cbmc</text>
<text text-anchor="start" x="2557.5" y="-207.5" font-family="Helvetica,sans-Serif" font-size="10.00">&#45;documentation/cbmc&#45;documentation</text>
<text text-anchor="start" x="2557.5" y="-196.5" font-family="Helvetica,sans-Serif" font-size="10.00">/jbmc/src/janalyzer/janalyzer</text>
<text text-anchor="middle" x="2649.5" y="-185.5" font-family="Helvetica,sans-Serif" font-size="10.00">_parse_options.h</text>
</a>
</g>
</g>
<!-- Node6&#45;&gt;Node7 -->
<g id="edge6" class="edge">
<title>Node6&#45;&gt;Node7</title>
<path fill="none" stroke="midnightblue" d="M2131.89,-266.88C2312.93,-238.86 2363.14,-259.39 2540.5,-231 2543.38,-230.54 2546.29,-230.05 2549.23,-229.52"/>
<polygon fill="midnightblue" stroke="midnightblue" points="2131.1,-263.46 2121.77,-268.48 2132.19,-270.38 2131.1,-263.46"/>
</g>
<!-- Node9 -->
<g id="node9" class="node">
<title>Node9</title>
<g id="a_node9"><a xlink:href="janalyzer__parse__options_8cpp.html" target="_top" xlink:title=" ">
<polygon fill="none" stroke="black" points="2156.5,-89.5 2156.5,-141.5 2356.5,-141.5 2356.5,-89.5 2156.5,-89.5"/>
<text text-anchor="start" x="2164.5" y="-129.5" font-family="Helvetica,sans-Serif" font-size="10.00">/home/runner/work/cbmc</text>
<text text-anchor="start" x="2164.5" y="-118.5" font-family="Helvetica,sans-Serif" font-size="10.00">&#45;documentation/cbmc&#45;documentation</text>
<text text-anchor="start" x="2164.5" y="-107.5" font-family="Helvetica,sans-Serif" font-size="10.00">/jbmc/src/janalyzer/janalyzer</text>
<text text-anchor="middle" x="2256.5" y="-96.5" font-family="Helvetica,sans-Serif" font-size="10.00">_parse_options.cpp</text>
</a>
</g>
</g>
<!-- Node6&#45;&gt;Node9 -->
<g id="edge9" class="edge">
<title>Node6&#45;&gt;Node9</title>
<path fill="none" stroke="midnightblue" d="M2045.91,-259.27C2052.6,-250.12 2059.85,-240.19 2066.5,-231 2083.5,-207.53 2081.72,-195.92 2104.5,-178 2123.85,-162.77 2147.48,-150.82 2170.29,-141.66"/>
<polygon fill="midnightblue" stroke="midnightblue" points="2043.03,-257.27 2039.95,-267.41 2048.68,-261.41 2043.03,-257.27"/>
</g>
<!-- Node6&#45;&gt;Node10 -->
<g id="edge11" class="edge">
<title>Node6&#45;&gt;Node10</title>
<path fill="none" stroke="midnightblue" d="M2131.72,-267.42C2253.97,-260.14 3154.8,-272.07 3194.5,-231 3210.87,-214.06 3209.38,-196.26 3194.5,-178 3083.98,-42.4 1823.14,-28.63 1455.52,-27.51"/>
<polygon fill="midnightblue" stroke="midnightblue" points="2131.41,-263.94 2121.74,-268.27 2132,-270.91 2131.41,-263.94"/>
</g>
<!-- Node11 -->
<g id="node11" class="node">
<title>Node11</title>
<g id="a_node11"><a xlink:href="java__entry__point_8cpp.html" target="_top" xlink:title=" ">
<polygon fill="none" stroke="black" points="2113.5,-178.5 2113.5,-230.5 2313.5,-230.5 2313.5,-178.5 2113.5,-178.5"/>
<text text-anchor="start" x="2121.5" y="-218.5" font-family="Helvetica,sans-Serif" font-size="10.00">/home/runner/work/cbmc</text>
<text text-anchor="start" x="2121.5" y="-207.5" font-family="Helvetica,sans-Serif" font-size="10.00">&#45;documentation/cbmc&#45;documentation</text>
<text text-anchor="start" x="2121.5" y="-196.5" font-family="Helvetica,sans-Serif" font-size="10.00">/jbmc/src/java_bytecode/java</text>
<text text-anchor="middle" x="2213.5" y="-185.5" font-family="Helvetica,sans-Serif" font-size="10.00">_entry_point.cpp</text>
</a>
</g>
</g>
<!-- Node6&#45;&gt;Node11 -->
<g id="edge12" class="edge">
<title>Node6&#45;&gt;Node11</title>
<path fill="none" stroke="midnightblue" d="M2085.95,-263.29C2109.41,-252.67 2135.7,-240.76 2158.28,-230.52"/>
<polygon fill="midnightblue" stroke="midnightblue" points="2084.44,-260.14 2076.78,-267.45 2087.33,-266.51 2084.44,-260.14"/>
</g>
<!-- Node12 -->
<g id="node12" class="node">
<title>Node12</title>
<g id="a_node12"><a xlink:href="lazy__goto__model_8cpp.html" target="_top" xlink:title="Author: Diffblue Ltd.">
<polygon fill="none" stroke="black" points="2331.5,-178.5 2331.5,-230.5 2531.5,-230.5 2531.5,-178.5 2331.5,-178.5"/>
<text text-anchor="start" x="2339.5" y="-218.5" font-family="Helvetica,sans-Serif" font-size="10.00">/home/runner/work/cbmc</text>
<text text-anchor="start" x="2339.5" y="-207.5" font-family="Helvetica,sans-Serif" font-size="10.00">&#45;documentation/cbmc&#45;documentation</text>
<text text-anchor="start" x="2339.5" y="-196.5" font-family="Helvetica,sans-Serif" font-size="10.00">/jbmc/src/java_bytecode/lazy</text>
<text text-anchor="middle" x="2431.5" y="-185.5" font-family="Helvetica,sans-Serif" font-size="10.00">_goto_model.cpp</text>
</a>
</g>
</g>
<!-- Node6&#45;&gt;Node12 -->
<g id="edge13" class="edge">
<title>Node6&#45;&gt;Node12</title>
<path fill="none" stroke="midnightblue" d="M2131.45,-266.84C2217.13,-249.07 2240.61,-248.25 2322.5,-231 2325.45,-230.38 2328.44,-229.74 2331.46,-229.09"/>
<polygon fill="midnightblue" stroke="midnightblue" points="2130.62,-263.44 2121.54,-268.91 2132.05,-270.29 2130.62,-263.44"/>
</g>
<!-- Node13 -->
<g id="node13" class="node">
<title>Node13</title>
<g id="a_node13"><a xlink:href="jbmc__parse__options_8h.html" target="_top" xlink:title=" ">
<polygon fill="none" stroke="black" points="1601.5,-184 1601.5,-225 1801.5,-225 1801.5,-184 1601.5,-184"/>
<text text-anchor="start" x="1609.5" y="-213" font-family="Helvetica,sans-Serif" font-size="10.00">/home/runner/work/cbmc</text>
<text text-anchor="start" x="1609.5" y="-202" font-family="Helvetica,sans-Serif" font-size="10.00">&#45;documentation/cbmc&#45;documentation</text>
<text text-anchor="middle" x="1701.5" y="-191" font-family="Helvetica,sans-Serif" font-size="10.00">/jbmc/src/jbmc/jbmc_parse_options.h</text>
</a>
</g>
</g>
<!-- Node6&#45;&gt;Node13 -->
<g id="edge14" class="edge">
<title>Node6&#45;&gt;Node13</title>
<path fill="none" stroke="midnightblue" d="M1919.66,-264.81C1872.09,-251.88 1816.58,-236.79 1773.46,-225.06"/>
<polygon fill="midnightblue" stroke="midnightblue" points="1918.8,-268.21 1929.37,-267.45 1920.64,-261.45 1918.8,-268.21"/>
</g>
<!-- Node15 -->
<g id="node15" class="node">
<title>Node15</title>
<g id="a_node15"><a xlink:href="jbmc__parse__options_8cpp.html" target="_top" xlink:title=" ">
<polygon fill="none" stroke="black" points="1725,-95 1725,-136 1934,-136 1934,-95 1725,-95"/>
<text text-anchor="start" x="1733" y="-124" font-family="Helvetica,sans-Serif" font-size="10.00">/home/runner/work/cbmc</text>
<text text-anchor="start" x="1733" y="-113" font-family="Helvetica,sans-Serif" font-size="10.00">&#45;documentation/cbmc&#45;documentation</text>
<text text-anchor="middle" x="1829.5" y="-102" font-family="Helvetica,sans-Serif" font-size="10.00">/jbmc/src/jbmc/jbmc_parse_options.cpp</text>
</a>
</g>
</g>
<!-- Node6&#45;&gt;Node15 -->
<g id="edge17" class="edge">
<title>Node6&#45;&gt;Node15</title>
<path fill="none" stroke="midnightblue" d="M1911.74,-272.96C1887.84,-263.86 1864.84,-250.53 1848.5,-231 1826.13,-204.27 1825.32,-161.38 1827.14,-136.37"/>
<polygon fill="midnightblue" stroke="midnightblue" points="1910.69,-276.3 1921.29,-276.36 1913.04,-269.71 1910.69,-276.3"/>
</g>
<!-- Node16 -->
<g id="node16" class="node">
<title>Node16</title>
<g id="a_node16"><a xlink:href="jdiff__languages_8cpp.html" target="_top" xlink:title=" ">
<polygon fill="none" stroke="black" points="2767.5,-184 2767.5,-225 2967.5,-225 2967.5,-184 2767.5,-184"/>
<text text-anchor="start" x="2775.5" y="-213" font-family="Helvetica,sans-Serif" font-size="10.00">/home/runner/work/cbmc</text>
<text text-anchor="start" x="2775.5" y="-202" font-family="Helvetica,sans-Serif" font-size="10.00">&#45;documentation/cbmc&#45;documentation</text>
<text text-anchor="middle" x="2867.5" y="-191" font-family="Helvetica,sans-Serif" font-size="10.00">/jbmc/src/jdiff/jdiff_languages.cpp</text>
</a>
</g>
</g>
<!-- Node6&#45;&gt;Node16 -->
<g id="edge18" class="edge">
<title>Node6&#45;&gt;Node16</title>
<path fill="none" stroke="midnightblue" d="M2131.7,-266.94C2408.97,-228.03 2485.05,-270.52 2758.5,-231 2769.27,-229.44 2780.55,-227.35 2791.59,-225.02"/>
<polygon fill="midnightblue" stroke="midnightblue" points="2131.16,-263.48 2121.75,-268.36 2132.14,-270.41 2131.16,-263.48"/>
</g>
<!-- Node17 -->
<g id="node17" class="node">
<title>Node17</title>
<g id="a_node17"><a xlink:href="jdiff__parse__options_8cpp.html" target="_top" xlink:title=" ">
<polygon fill="none" stroke="black" points="2985.5,-184 2985.5,-225 3185.5,-225 3185.5,-184 2985.5,-184"/>
<text text-anchor="start" x="2993.5" y="-213" font-family="Helvetica,sans-Serif" font-size="10.00">/home/runner/work/cbmc</text>
<text text-anchor="start" x="2993.5" y="-202" font-family="Helvetica,sans-Serif" font-size="10.00">&#45;documentation/cbmc&#45;documentation</text>
<text text-anchor="middle" x="3085.5" y="-191" font-family="Helvetica,sans-Serif" font-size="10.00">/jbmc/src/jdiff/jdiff_parse_options.cpp</text>
</a>
</g>
</g>
<!-- Node6&#45;&gt;Node17 -->
<g id="edge19" class="edge">
<title>Node6&#45;&gt;Node17</title>
<path fill="none" stroke="midnightblue" d="M2131.74,-266.95C2505.14,-217.07 2606.92,-281.64 2976.5,-231 2987.48,-229.5 2998.97,-227.4 3010.2,-225.04"/>
<polygon fill="midnightblue" stroke="midnightblue" points="2131.18,-263.49 2121.74,-268.3 2132.12,-270.43 2131.18,-263.49"/>
</g>
<!-- Node18 -->
<g id="node18" class="node">
<title>Node18</title>
<g id="a_node18"><a xlink:href="load__java__class_8cpp.html" target="_top" xlink:title=" ">
<polygon fill="none" stroke="black" points="1857.5,-178.5 1857.5,-230.5 2057.5,-230.5 2057.5,-178.5 1857.5,-178.5"/>
<text text-anchor="start" x="1865.5" y="-218.5" font-family="Helvetica,sans-Serif" font-size="10.00">/home/runner/work/cbmc</text>
<text text-anchor="start" x="1865.5" y="-207.5" font-family="Helvetica,sans-Serif" font-size="10.00">&#45;documentation/cbmc&#45;documentation</text>
<text text-anchor="start" x="1865.5" y="-196.5" font-family="Helvetica,sans-Serif" font-size="10.00">/jbmc/unit/java&#45;testing&#45;utils</text>
<text text-anchor="middle" x="1957.5" y="-185.5" font-family="Helvetica,sans-Serif" font-size="10.00">/load_java_class.cpp</text>
</a>
</g>
</g>
<!-- Node6&#45;&gt;Node18 -->
<g id="edge20" class="edge">
<title>Node6&#45;&gt;Node18</title>
<path fill="none" stroke="midnightblue" d="M1997.01,-259.22C1990.03,-249.72 1982.53,-239.53 1975.97,-230.61"/>
<polygon fill="midnightblue" stroke="midnightblue" points="1994.24,-261.35 2002.99,-267.34 1999.88,-257.21 1994.24,-261.35"/>
</g>
<!-- Node8 -->
<g id="node8" class="node">
<title>Node8</title>
<g id="a_node8"><a xlink:href="janalyzer__main_8cpp.html" target="_top" xlink:title=" ">
<polygon fill="none" stroke="black" points="2546,-95 2546,-136 2753,-136 2753,-95 2546,-95"/>
<text text-anchor="start" x="2554" y="-124" font-family="Helvetica,sans-Serif" font-size="10.00">/home/runner/work/cbmc</text>
<text text-anchor="start" x="2554" y="-113" font-family="Helvetica,sans-Serif" font-size="10.00">&#45;documentation/cbmc&#45;documentation</text>
<text text-anchor="middle" x="2649.5" y="-102" font-family="Helvetica,sans-Serif" font-size="10.00">/jbmc/src/janalyzer/janalyzer_main.cpp</text>
</a>
</g>
</g>
<!-- Node7&#45;&gt;Node8 -->
<g id="edge7" class="edge">
<title>Node7&#45;&gt;Node8</title>
<path fill="none" stroke="midnightblue" d="M2649.5,-168.16C2649.5,-157.21 2649.5,-145.55 2649.5,-136.08"/>
<polygon fill="midnightblue" stroke="midnightblue" points="2646,-168.34 2649.5,-178.34 2653,-168.34 2646,-168.34"/>
</g>
<!-- Node7&#45;&gt;Node9 -->
<g id="edge8" class="edge">
<title>Node7&#45;&gt;Node9</title>
<path fill="none" stroke="midnightblue" d="M2539.62,-177.81C2473.22,-162.9 2408.66,-148.91 2356.81,-137.8"/>
<polygon fill="midnightblue" stroke="midnightblue" points="2538.91,-181.24 2549.43,-180.02 2540.44,-174.41 2538.91,-181.24"/>
</g>
<!-- Node14 -->
<g id="node14" class="node">
<title>Node14</title>
<g id="a_node14"><a xlink:href="jbmc__main_8cpp.html" target="_top" xlink:title=" ">
<polygon fill="none" stroke="black" points="1506.5,-95 1506.5,-136 1706.5,-136 1706.5,-95 1506.5,-95"/>
<text text-anchor="start" x="1514.5" y="-124" font-family="Helvetica,sans-Serif" font-size="10.00">/home/runner/work/cbmc</text>
<text text-anchor="start" x="1514.5" y="-113" font-family="Helvetica,sans-Serif" font-size="10.00">&#45;documentation/cbmc&#45;documentation</text>
<text text-anchor="middle" x="1606.5" y="-102" font-family="Helvetica,sans-Serif" font-size="10.00">/jbmc/src/jbmc/jbmc_main.cpp</text>
</a>
</g>
</g>
<!-- Node13&#45;&gt;Node14 -->
<g id="edge15" class="edge">
<title>Node13&#45;&gt;Node14</title>
<path fill="none" stroke="midnightblue" d="M1672.3,-176.76C1658,-163.66 1641.07,-148.16 1627.97,-136.16"/>
<polygon fill="midnightblue" stroke="midnightblue" points="1670.2,-179.59 1679.94,-183.76 1674.93,-174.42 1670.2,-179.59"/>
</g>
<!-- Node13&#45;&gt;Node15 -->
<g id="edge16" class="edge">
<title>Node13&#45;&gt;Node15</title>
<path fill="none" stroke="midnightblue" d="M1738.65,-178.25C1758.32,-164.88 1782.12,-148.7 1800.43,-136.26"/>
<polygon fill="midnightblue" stroke="midnightblue" points="1736.53,-175.46 1730.23,-183.98 1740.46,-181.25 1736.53,-175.46"/>
</g>
<!-- Node20&#45;&gt;Node5 -->
<g id="edge25" class="edge">
<title>Node20&#45;&gt;Node5</title>
<path fill="none" stroke="midnightblue" d="M1525.22,-346.69C1515.11,-312.48 1499.93,-261.1 1490.94,-230.67"/>
<polygon fill="midnightblue" stroke="midnightblue" points="1521.86,-347.69 1528.05,-356.28 1528.57,-345.7 1521.86,-347.69"/>
</g>
<!-- Node20&#45;&gt;Node6 -->
<g id="edge24" class="edge">
<title>Node20&#45;&gt;Node6</title>
<path fill="none" stroke="midnightblue" d="M1645.43,-355.87C1744.72,-336.39 1847.46,-320.04 1921.15,-308.97"/>
<polygon fill="midnightblue" stroke="midnightblue" points="1644.66,-352.45 1635.53,-357.82 1646.01,-359.32 1644.66,-352.45"/>
</g>
<!-- Node20&#45;&gt;Node10 -->
<g id="edge37" class="edge">
<title>Node20&#45;&gt;Node10</title>
<path fill="none" stroke="midnightblue" d="M1645.7,-356.1C1859.8,-332.45 3098.28,-358.68 3213.5,-231 3229.28,-213.51 3226.37,-197.73 3213.5,-178 3159.91,-95.83 3107.11,-110.99 3011.5,-89 2860.49,-54.27 1790.85,-34.44 1455.68,-29.03"/>
<polygon fill="midnightblue" stroke="midnightblue" points="1645.24,-352.63 1635.75,-357.34 1646.1,-359.57 1645.24,-352.63"/>
</g>
<!-- Node20&#45;&gt;Node21 -->
<g id="edge26" class="edge">
<title>Node20&#45;&gt;Node21</title>
<path fill="none" stroke="midnightblue" d="M1463.38,-352.72C1436.48,-341.98 1406.18,-329.89 1380.2,-319.52"/>
<polygon fill="midnightblue" stroke="midnightblue" points="1462.15,-356 1472.74,-356.45 1464.75,-349.5 1462.15,-356"/>
</g>
<!-- Node27 -->
<g id="node27" class="node">
<title>Node27</title>
<g id="a_node27"><a xlink:href="java__class__loader_8cpp.html" target="_top" xlink:title=" ">
<polygon fill="none" stroke="black" points="2139.5,-267.5 2139.5,-319.5 2339.5,-319.5 2339.5,-267.5 2139.5,-267.5"/>
<text text-anchor="start" x="2147.5" y="-307.5" font-family="Helvetica,sans-Serif" font-size="10.00">/home/runner/work/cbmc</text>
<text text-anchor="start" x="2147.5" y="-296.5" font-family="Helvetica,sans-Serif" font-size="10.00">&#45;documentation/cbmc&#45;documentation</text>
<text text-anchor="start" x="2147.5" y="-285.5" font-family="Helvetica,sans-Serif" font-size="10.00">/jbmc/src/java_bytecode/java</text>
<text text-anchor="middle" x="2239.5" y="-274.5" font-family="Helvetica,sans-Serif" font-size="10.00">_class_loader.cpp</text>
</a>
</g>
</g>
<!-- Node20&#45;&gt;Node27 -->
<g id="edge38" class="edge">
<title>Node20&#45;&gt;Node27</title>
<path fill="none" stroke="midnightblue" d="M1645.77,-355.92C1860.38,-324.11 1919.64,-352.27 2130.5,-320 2133.38,-319.56 2136.3,-319.08 2139.24,-318.57"/>
<polygon fill="midnightblue" stroke="midnightblue" points="1645.13,-352.47 1635.76,-357.43 1646.17,-359.39 1645.13,-352.47"/>
</g>
<!-- Node21&#45;&gt;Node10 -->
<g id="edge36" class="edge">
<title>Node21&#45;&gt;Node10</title>
<path fill="none" stroke="midnightblue" d="M1320.52,-257.09C1324.27,-216.37 1331.41,-147.57 1341.5,-89 1343.58,-76.91 1346.52,-63.63 1349.17,-52.51"/>
<polygon fill="midnightblue" stroke="midnightblue" points="1317.01,-257.04 1319.6,-267.31 1323.99,-257.67 1317.01,-257.04"/>
</g>
<!-- Node21&#45;&gt;Node19 -->
<g id="edge27" class="edge">
<title>Node21&#45;&gt;Node19</title>
<path fill="none" stroke="midnightblue" d="M1314.99,-257.16C1310.17,-213.19 1296.15,-137.95 1255.5,-89 1242.81,-73.72 1225.33,-61.76 1207.71,-52.62"/>
<polygon fill="midnightblue" stroke="midnightblue" points="1311.53,-257.76 1316,-267.36 1318.5,-257.07 1311.53,-257.76"/>
</g>
<!-- Node21&#45;&gt;Node22 -->
<g id="edge28" class="edge">
<title>Node21&#45;&gt;Node22</title>
<path fill="none" stroke="midnightblue" d="M1223.08,-264.56C1186.1,-253.62 1144.02,-241.16 1108.05,-230.52"/>
<polygon fill="midnightblue" stroke="midnightblue" points="1222.28,-267.97 1232.86,-267.45 1224.26,-261.26 1222.28,-267.97"/>
</g>
<!-- Node22&#45;&gt;Node23 -->
<g id="edge29" class="edge">
<title>Node22&#45;&gt;Node23</title>
<path fill="none" stroke="midnightblue" d="M1056.75,-171.36C1066.9,-161.54 1077.92,-150.89 1087.53,-141.61"/>
<polygon fill="midnightblue" stroke="midnightblue" points="1054.29,-168.87 1049.53,-178.34 1059.15,-173.9 1054.29,-168.87"/>
</g>
<!-- Node22&#45;&gt;Node24 -->
<g id="edge34" class="edge">
<title>Node22&#45;&gt;Node24</title>
<path fill="none" stroke="midnightblue" d="M913.06,-198.95C797.18,-192.37 624.24,-176.91 568.5,-142 535.14,-121.1 513.21,-79.58 501.84,-52.7"/>
<polygon fill="midnightblue" stroke="midnightblue" points="913.22,-202.46 923.39,-199.52 913.6,-195.47 913.22,-202.46"/>
</g>
<!-- Node26 -->
<g id="node26" class="node">
<title>Node26</title>
<g id="a_node26"><a xlink:href="java__local__variable__table_8cpp.html" target="_top" xlink:title=" ">
<polygon fill="none" stroke="black" points="795.5,-89.5 795.5,-141.5 995.5,-141.5 995.5,-89.5 795.5,-89.5"/>
<text text-anchor="start" x="803.5" y="-129.5" font-family="Helvetica,sans-Serif" font-size="10.00">/home/runner/work/cbmc</text>
<text text-anchor="start" x="803.5" y="-118.5" font-family="Helvetica,sans-Serif" font-size="10.00">&#45;documentation/cbmc&#45;documentation</text>
<text text-anchor="start" x="803.5" y="-107.5" font-family="Helvetica,sans-Serif" font-size="10.00">/jbmc/src/java_bytecode/java</text>
<text text-anchor="middle" x="895.5" y="-96.5" font-family="Helvetica,sans-Serif" font-size="10.00">_local_variable_table.cpp</text>
</a>
</g>
</g>
<!-- Node22&#45;&gt;Node26 -->
<g id="edge35" class="edge">
<title>Node22&#45;&gt;Node26</title>
<path fill="none" stroke="midnightblue" d="M977.9,-172.5C962.99,-162.37 946.63,-151.25 932.44,-141.61"/>
<polygon fill="midnightblue" stroke="midnightblue" points="976.24,-175.61 986.48,-178.34 980.17,-169.82 976.24,-175.61"/>
</g>
<!-- Node23&#45;&gt;Node10 -->
<g id="edge32" class="edge">
<title>Node23&#45;&gt;Node10</title>
<path fill="none" stroke="midnightblue" d="M1192.78,-86C1222.84,-75.19 1256.8,-62.98 1285.9,-52.52"/>
<polygon fill="midnightblue" stroke="midnightblue" points="1191.4,-82.78 1183.17,-89.45 1193.77,-89.36 1191.4,-82.78"/>
</g>
<!-- Node23&#45;&gt;Node19 -->
<g id="edge30" class="edge">
<title>Node23&#45;&gt;Node19</title>
<path fill="none" stroke="midnightblue" d="M1123.16,-79.48C1125.64,-70.49 1128.26,-60.99 1130.57,-52.61"/>
<polygon fill="midnightblue" stroke="midnightblue" points="1119.73,-78.77 1120.44,-89.34 1126.48,-80.63 1119.73,-78.77"/>
</g>
<!-- Node23&#45;&gt;Node24 -->
<g id="edge31" class="edge">
<title>Node23&#45;&gt;Node24</title>
<path fill="none" stroke="midnightblue" d="M1003.27,-88.9C825.18,-61.19 775.84,-81.04 601.5,-53 598.62,-52.54 595.71,-52.04 592.77,-51.52"/>
<polygon fill="midnightblue" stroke="midnightblue" points="1002.81,-92.37 1013.23,-90.48 1003.9,-85.46 1002.81,-92.37"/>
</g>
<!-- Node23&#45;&gt;Node25 -->
<g id="edge33" class="edge">
<title>Node23&#45;&gt;Node25</title>
<path fill="none" stroke="midnightblue" d="M1003.56,-88.81C933.61,-73.38 865,-59.02 810.64,-47.84"/>
<polygon fill="midnightblue" stroke="midnightblue" points="1002.92,-92.25 1013.44,-90.99 1004.43,-85.42 1002.92,-92.25"/>
</g>
<!-- Node28&#45;&gt;Node10 -->
<g id="edge44" class="edge">
<title>Node28&#45;&gt;Node10</title>
<path fill="none" stroke="midnightblue" d="M787.86,-88.9C990.95,-58.4 1047.12,-83.94 1246.5,-53 1249.38,-52.55 1252.3,-52.07 1255.24,-51.56"/>
<polygon fill="midnightblue" stroke="midnightblue" points="787.12,-85.47 777.76,-90.44 788.18,-92.39 787.12,-85.47"/>
</g>
<!-- Node28&#45;&gt;Node24 -->
<g id="edge43" class="edge">
<title>Node28&#45;&gt;Node24</title>
<path fill="none" stroke="midnightblue" d="M614.89,-85.06C592.48,-74.52 567.45,-62.75 545.89,-52.61"/>
<polygon fill="midnightblue" stroke="midnightblue" points="613.45,-88.25 623.99,-89.34 616.43,-81.91 613.45,-88.25"/>
</g>
<!-- Node28&#45;&gt;Node25 -->
<g id="edge45" class="edge">
<title>Node28&#45;&gt;Node25</title>
<path fill="none" stroke="midnightblue" d="M690.67,-79.77C694.12,-70.69 697.76,-61.08 700.98,-52.61"/>
<polygon fill="midnightblue" stroke="midnightblue" points="687.32,-78.74 687.04,-89.34 693.86,-81.23 687.32,-78.74"/>
</g>
<!-- Node33 -->
<g id="node33" class="node">
<title>Node33</title>
<g id="a_node33"><a xlink:href="require__parse__tree_8cpp.html" target="_top" xlink:title=" ">
<polygon fill="none" stroke="black" points="3279.5,-267.5 3279.5,-319.5 3479.5,-319.5 3479.5,-267.5 3279.5,-267.5"/>
<text text-anchor="start" x="3287.5" y="-307.5" font-family="Helvetica,sans-Serif" font-size="10.00">/home/runner/work/cbmc</text>
<text text-anchor="start" x="3287.5" y="-296.5" font-family="Helvetica,sans-Serif" font-size="10.00">&#45;documentation/cbmc&#45;documentation</text>
<text text-anchor="start" x="3287.5" y="-285.5" font-family="Helvetica,sans-Serif" font-size="10.00">/jbmc/unit/java&#45;testing&#45;utils</text>
<text text-anchor="middle" x="3379.5" y="-274.5" font-family="Helvetica,sans-Serif" font-size="10.00">/require_parse_tree.cpp</text>
</a>
</g>
</g>
<!-- Node32&#45;&gt;Node33 -->
<g id="edge51" class="edge">
<title>Node32&#45;&gt;Node33</title>
<path fill="none" stroke="midnightblue" d="M1863.8,-355.96C2482.97,-277.82 2649.77,-396.03 3265.5,-320 3270.03,-319.44 3274.64,-318.78 3279.29,-318.05"/>
<polygon fill="midnightblue" stroke="midnightblue" points="1863.21,-352.5 1853.73,-357.24 1864.1,-359.45 1863.21,-352.5"/>
</g>
<!-- Node34&#45;&gt;Node24 -->
<g id="edge54" class="edge">
<title>Node34&#45;&gt;Node24</title>
<path fill="none" stroke="midnightblue" d="M357.71,-441.42C371.03,-406.99 390.5,-347.6 390.5,-294.5 390.5,-294.5 390.5,-294.5 390.5,-203.5 390.5,-142.93 436.28,-84.53 466.5,-52.57"/>
<polygon fill="midnightblue" stroke="midnightblue" points="354.4,-440.27 353.96,-450.86 360.9,-442.85 354.4,-440.27"/>
</g>
</g>
</svg>
