<?xml version="1.0" encoding="UTF-8" standalone="no"?>
<!DOCTYPE svg PUBLIC "-//W3C//DTD SVG 1.1//EN"
 "http://www.w3.org/Graphics/SVG/1.1/DTD/svg11.dtd">
<!-- Generated by graphviz version 2.43.0 (0)
 -->
<!-- Title: /home/runner/work/cbmc&#45;documentation/cbmc&#45;documentation/src/util/byte_operators.h Pages: 1 -->
<svg width="1007pt" height="666pt"
 viewBox="0.00 0.00 1006.52 666.00" xmlns="http://www.w3.org/2000/svg" xmlns:xlink="http://www.w3.org/1999/xlink">
<g id="graph0" class="graph" transform="scale(1 1) rotate(0) translate(4 662)">
<title>/home/runner/work/cbmc&#45;documentation/cbmc&#45;documentation/src/util/byte_operators.h</title>
<!-- Node1 -->
<g id="node1" class="node">
<title>Node1</title>
<g id="a_node1"><a xlink:title="Expression classes for byte&#45;level operators.">
<polygon fill="#bfbfbf" stroke="black" points="0,-616.5 0,-657.5 200,-657.5 200,-616.5 0,-616.5"/>
<text text-anchor="start" x="8" y="-645.5" font-family="Helvetica,sans-Serif" font-size="10.00">/home/runner/work/cbmc</text>
<text text-anchor="start" x="8" y="-634.5" font-family="Helvetica,sans-Serif" font-size="10.00">&#45;documentation/cbmc&#45;documentation</text>
<text text-anchor="middle" x="100" y="-623.5" font-family="Helvetica,sans-Serif" font-size="10.00">/src/util/byte_operators.h</text>
</a>
</g>
</g>
<!-- Node2 -->
<g id="node2" class="node">
<title>Node2</title>
<g id="a_node2"><a xlink:href="src_2util_2invariant_8h.html" target="_top" xlink:title=" ">
<polygon fill="none" stroke="black" points="223.5,-56.5 223.5,-75.5 292.5,-75.5 292.5,-56.5 223.5,-56.5"/>
<text text-anchor="middle" x="258" y="-63.5" font-family="Helvetica,sans-Serif" font-size="10.00">invariant.h</text>
</a>
</g>
</g>
<!-- Node1&#45;&gt;Node2 -->
<g id="edge1" class="edge">
<title>Node1&#45;&gt;Node2</title>
<path fill="none" stroke="midnightblue" d="M91.69,-616.27C82.51,-592.64 69,-551.65 69,-515 69,-515 69,-515 69,-177 69,-110.52 157.42,-83.52 213.31,-73.1"/>
<polygon fill="midnightblue" stroke="midnightblue" points="214.09,-76.51 223.33,-71.34 212.88,-69.62 214.09,-76.51"/>
</g>
<!-- Node7 -->
<g id="node7" class="node">
<title>Node7</title>
<g id="a_node7"><a xlink:href="std__expr_8h.html" target="_top" xlink:title=" ">
<polygon fill="none" stroke="black" points="231.5,-560.5 231.5,-579.5 298.5,-579.5 298.5,-560.5 231.5,-560.5"/>
<text text-anchor="middle" x="265" y="-567.5" font-family="Helvetica,sans-Serif" font-size="10.00">std_expr.h</text>
</a>
</g>
</g>
<!-- Node1&#45;&gt;Node7 -->
<g id="edge6" class="edge">
<title>Node1&#45;&gt;Node7</title>
<path fill="none" stroke="midnightblue" d="M149.51,-616.5C176.75,-605.77 209.74,-592.77 233.47,-583.42"/>
<polygon fill="midnightblue" stroke="midnightblue" points="235.01,-586.57 243.04,-579.65 232.45,-580.06 235.01,-586.57"/>
</g>
<!-- Node3 -->
<g id="node3" class="node">
<title>Node3</title>
<g id="a_node3"><a xlink:title=" ">
<polygon fill="none" stroke="#bfbfbf" points="198.5,-0.5 198.5,-19.5 247.5,-19.5 247.5,-0.5 198.5,-0.5"/>
<text text-anchor="middle" x="223" y="-7.5" font-family="Helvetica,sans-Serif" font-size="10.00">cstdlib</text>
</a>
</g>
</g>
<!-- Node2&#45;&gt;Node3 -->
<g id="edge2" class="edge">
<title>Node2&#45;&gt;Node3</title>
<path fill="none" stroke="midnightblue" d="M252.22,-56.08C247.33,-48.53 240.17,-37.49 234.17,-28.23"/>
<polygon fill="midnightblue" stroke="midnightblue" points="237.05,-26.24 228.67,-19.75 231.17,-30.05 237.05,-26.24"/>
</g>
<!-- Node4 -->
<g id="node4" class="node">
<title>Node4</title>
<g id="a_node4"><a xlink:title=" ">
<polygon fill="none" stroke="#bfbfbf" points="266,-0.5 266,-19.5 322,-19.5 322,-0.5 266,-0.5"/>
<text text-anchor="middle" x="294" y="-7.5" font-family="Helvetica,sans-Serif" font-size="10.00">sstream</text>
</a>
</g>
</g>
<!-- Node2&#45;&gt;Node4 -->
<g id="edge3" class="edge">
<title>Node2&#45;&gt;Node4</title>
<path fill="none" stroke="midnightblue" d="M263.94,-56.08C268.98,-48.53 276.34,-37.49 282.51,-28.23"/>
<polygon fill="midnightblue" stroke="midnightblue" points="285.53,-30.01 288.17,-19.75 279.71,-26.13 285.53,-30.01"/>
</g>
<!-- Node5 -->
<g id="node5" class="node">
<title>Node5</title>
<g id="a_node5"><a xlink:title=" ">
<polygon fill="none" stroke="#bfbfbf" points="375,-0.5 375,-19.5 419,-19.5 419,-0.5 375,-0.5"/>
<text text-anchor="middle" x="397" y="-7.5" font-family="Helvetica,sans-Serif" font-size="10.00">string</text>
</a>
</g>
</g>
<!-- Node2&#45;&gt;Node5 -->
<g id="edge4" class="edge">
<title>Node2&#45;&gt;Node5</title>
<path fill="none" stroke="midnightblue" d="M280.02,-56.44C303.1,-47.48 339.56,-33.31 365.64,-23.18"/>
<polygon fill="midnightblue" stroke="midnightblue" points="367.02,-26.4 375.08,-19.52 364.49,-19.88 367.02,-26.4"/>
</g>
<!-- Node6 -->
<g id="node6" class="node">
<title>Node6</title>
<g id="a_node6"><a xlink:title=" ">
<polygon fill="none" stroke="#bfbfbf" points="584.5,-0.5 584.5,-19.5 653.5,-19.5 653.5,-0.5 584.5,-0.5"/>
<text text-anchor="middle" x="619" y="-7.5" font-family="Helvetica,sans-Serif" font-size="10.00">type_traits</text>
</a>
</g>
</g>
<!-- Node2&#45;&gt;Node6 -->
<g id="edge5" class="edge">
<title>Node2&#45;&gt;Node6</title>
<path fill="none" stroke="midnightblue" d="M292.61,-59.82C358.38,-49.98 501.33,-28.6 574.26,-17.69"/>
<polygon fill="midnightblue" stroke="midnightblue" points="575.12,-21.1 584.49,-16.16 574.08,-14.18 575.12,-21.1"/>
</g>
<!-- Node7&#45;&gt;Node2 -->
<g id="edge34" class="edge">
<title>Node7&#45;&gt;Node2</title>
<path fill="none" stroke="midnightblue" d="M231.49,-561.58C185.11,-549.1 107,-519.16 107,-459 107,-459 107,-459 107,-177 107,-123.63 169.39,-93.42 213.96,-78.65"/>
<polygon fill="midnightblue" stroke="midnightblue" points="215.26,-81.91 223.74,-75.56 213.15,-75.24 215.26,-81.91"/>
</g>
<!-- Node8 -->
<g id="node8" class="node">
<title>Node8</title>
<g id="a_node8"><a xlink:href="expr__cast_8h.html" target="_top" xlink:title="Templated functions to cast to specific exprt&#45;derived classes.">
<polygon fill="none" stroke="black" points="798.5,-448.5 798.5,-467.5 871.5,-467.5 871.5,-448.5 798.5,-448.5"/>
<text text-anchor="middle" x="835" y="-455.5" font-family="Helvetica,sans-Serif" font-size="10.00">expr_cast.h</text>
</a>
</g>
</g>
<!-- Node7&#45;&gt;Node8 -->
<g id="edge7" class="edge">
<title>Node7&#45;&gt;Node8</title>
<path fill="none" stroke="midnightblue" d="M298.53,-562.53C395.49,-543.82 676.41,-489.6 788.26,-468.02"/>
<polygon fill="midnightblue" stroke="midnightblue" points="789.07,-471.43 798.23,-466.1 787.75,-464.55 789.07,-471.43"/>
</g>
<!-- Node39 -->
<g id="node22" class="node">
<title>Node39</title>
<g id="a_node22"><a xlink:href="std__types_8h.html" target="_top" xlink:title=" ">
<polygon fill="none" stroke="black" points="362.5,-504.5 362.5,-523.5 435.5,-523.5 435.5,-504.5 362.5,-504.5"/>
<text text-anchor="middle" x="399" y="-511.5" font-family="Helvetica,sans-Serif" font-size="10.00">std_types.h</text>
</a>
</g>
</g>
<!-- Node7&#45;&gt;Node39 -->
<g id="edge35" class="edge">
<title>Node7&#45;&gt;Node39</title>
<path fill="none" stroke="midnightblue" d="M286.23,-560.44C308.38,-551.52 343.32,-537.44 368.44,-527.32"/>
<polygon fill="midnightblue" stroke="midnightblue" points="369.9,-530.5 377.87,-523.52 367.28,-524.01 369.9,-530.5"/>
</g>
<!-- Node8&#45;&gt;Node2 -->
<g id="edge11" class="edge">
<title>Node8&#45;&gt;Node2</title>
<path fill="none" stroke="midnightblue" d="M840.63,-448.42C855.73,-424.53 896,-354.86 896,-291 896,-291 896,-291 896,-177 896,-116.76 448.57,-80.27 303.1,-70"/>
<polygon fill="midnightblue" stroke="midnightblue" points="302.97,-66.48 292.75,-69.28 302.49,-73.47 302.97,-66.48"/>
</g>
<!-- Node8&#45;&gt;Node6 -->
<g id="edge9" class="edge">
<title>Node8&#45;&gt;Node6</title>
<path fill="none" stroke="midnightblue" d="M871.59,-455.01C904.07,-451.29 950.65,-440.88 979,-412 1000.08,-390.52 998,-377.1 998,-347 998,-347 998,-347 998,-121 998,-52.1 764.05,-23.56 663.77,-14.5"/>
<polygon fill="midnightblue" stroke="midnightblue" points="663.91,-11 653.64,-13.61 663.29,-17.97 663.91,-11"/>
</g>
<!-- Node9 -->
<g id="node9" class="node">
<title>Node9</title>
<g id="a_node9"><a xlink:title=" ">
<polygon fill="none" stroke="#bfbfbf" points="912.5,-392.5 912.5,-411.5 969.5,-411.5 969.5,-392.5 912.5,-392.5"/>
<text text-anchor="middle" x="941" y="-399.5" font-family="Helvetica,sans-Serif" font-size="10.00">typeinfo</text>
</a>
</g>
</g>
<!-- Node8&#45;&gt;Node9 -->
<g id="edge8" class="edge">
<title>Node8&#45;&gt;Node9</title>
<path fill="none" stroke="midnightblue" d="M852.03,-448.32C869.03,-439.66 895.38,-426.24 914.99,-416.25"/>
<polygon fill="midnightblue" stroke="midnightblue" points="916.69,-419.31 924.01,-411.65 913.51,-413.08 916.69,-419.31"/>
</g>
<!-- Node10 -->
<g id="node10" class="node">
<title>Node10</title>
<g id="a_node10"><a xlink:title=" ">
<polygon fill="none" stroke="#bfbfbf" points="802.5,-336.5 802.5,-355.5 867.5,-355.5 867.5,-336.5 802.5,-336.5"/>
<text text-anchor="middle" x="835" y="-343.5" font-family="Helvetica,sans-Serif" font-size="10.00">functional</text>
</a>
</g>
</g>
<!-- Node8&#45;&gt;Node10 -->
<g id="edge10" class="edge">
<title>Node8&#45;&gt;Node10</title>
<path fill="none" stroke="midnightblue" d="M835,-448.37C835,-430.62 835,-389.67 835,-365.6"/>
<polygon fill="midnightblue" stroke="midnightblue" points="838.5,-365.59 835,-355.59 831.5,-365.59 838.5,-365.59"/>
</g>
<!-- Node11 -->
<g id="node11" class="node">
<title>Node11</title>
<g id="a_node11"><a xlink:href="expr_8h.html" target="_top" xlink:title=" ">
<polygon fill="none" stroke="black" points="603.5,-392.5 603.5,-411.5 650.5,-411.5 650.5,-392.5 603.5,-392.5"/>
<text text-anchor="middle" x="627" y="-399.5" font-family="Helvetica,sans-Serif" font-size="10.00">expr.h</text>
</a>
</g>
</g>
<!-- Node8&#45;&gt;Node11 -->
<g id="edge12" class="edge">
<title>Node8&#45;&gt;Node11</title>
<path fill="none" stroke="midnightblue" d="M802.04,-448.44C763.34,-438.4 699.51,-421.83 660.56,-411.71"/>
<polygon fill="midnightblue" stroke="midnightblue" points="661.3,-408.29 650.75,-409.16 659.55,-415.07 661.3,-408.29"/>
</g>
<!-- Node11&#45;&gt;Node10 -->
<g id="edge33" class="edge">
<title>Node11&#45;&gt;Node10</title>
<path fill="none" stroke="midnightblue" d="M650.86,-394.81C685.34,-385.85 749.63,-369.16 792.38,-358.07"/>
<polygon fill="midnightblue" stroke="midnightblue" points="793.42,-361.41 802.22,-355.51 791.66,-354.64 793.42,-361.41"/>
</g>
<!-- Node12 -->
<g id="node12" class="node">
<title>Node12</title>
<g id="a_node12"><a xlink:href="as__const_8h.html" target="_top" xlink:title=" ">
<polygon fill="none" stroke="black" points="651,-336.5 651,-355.5 719,-355.5 719,-336.5 651,-336.5"/>
<text text-anchor="middle" x="685" y="-343.5" font-family="Helvetica,sans-Serif" font-size="10.00">as_const.h</text>
</a>
</g>
</g>
<!-- Node11&#45;&gt;Node12 -->
<g id="edge13" class="edge">
<title>Node11&#45;&gt;Node12</title>
<path fill="none" stroke="midnightblue" d="M636.32,-392.32C644.89,-384.34 657.81,-372.31 668.19,-362.65"/>
<polygon fill="midnightblue" stroke="midnightblue" points="670.58,-365.21 675.51,-355.83 665.81,-360.09 670.58,-365.21"/>
</g>
<!-- Node13 -->
<g id="node13" class="node">
<title>Node13</title>
<g id="a_node13"><a xlink:href="type_8h.html" target="_top" xlink:title=" ">
<polygon fill="none" stroke="black" points="737.5,-336.5 737.5,-355.5 784.5,-355.5 784.5,-336.5 737.5,-336.5"/>
<text text-anchor="middle" x="761" y="-343.5" font-family="Helvetica,sans-Serif" font-size="10.00">type.h</text>
</a>
</g>
</g>
<!-- Node11&#45;&gt;Node13 -->
<g id="edge14" class="edge">
<title>Node11&#45;&gt;Node13</title>
<path fill="none" stroke="midnightblue" d="M648.23,-392.44C670.38,-383.52 705.32,-369.44 730.44,-359.32"/>
<polygon fill="midnightblue" stroke="midnightblue" points="731.9,-362.5 739.87,-355.52 729.28,-356.01 731.9,-362.5"/>
</g>
<!-- Node36 -->
<g id="node19" class="node">
<title>Node36</title>
<g id="a_node19"><a xlink:href="validation__mode_8h.html" target="_top" xlink:title=" ">
<polygon fill="none" stroke="black" points="636.5,-224.5 636.5,-243.5 743.5,-243.5 743.5,-224.5 636.5,-224.5"/>
<text text-anchor="middle" x="690" y="-231.5" font-family="Helvetica,sans-Serif" font-size="10.00">validation_mode.h</text>
</a>
</g>
</g>
<!-- Node11&#45;&gt;Node36 -->
<g id="edge32" class="edge">
<title>Node11&#45;&gt;Node36</title>
<path fill="none" stroke="midnightblue" d="M603.5,-401.31C570.93,-400.3 513.06,-393.04 486,-356 480.76,-348.82 483.78,-344.61 486,-336 493.12,-308.46 494.52,-297.44 517,-280 534.65,-266.31 587.16,-253.78 629.74,-245.45"/>
<polygon fill="midnightblue" stroke="midnightblue" points="630.6,-248.84 639.76,-243.52 629.28,-241.97 630.6,-248.84"/>
</g>
<!-- Node37 -->
<g id="node20" class="node">
<title>Node37</title>
<g id="a_node20"><a xlink:href="validate__types_8h.html" target="_top" xlink:title=" ">
<polygon fill="none" stroke="black" points="526,-280.5 526,-299.5 624,-299.5 624,-280.5 526,-280.5"/>
<text text-anchor="middle" x="575" y="-287.5" font-family="Helvetica,sans-Serif" font-size="10.00">validate_types.h</text>
</a>
</g>
</g>
<!-- Node11&#45;&gt;Node37 -->
<g id="edge31" class="edge">
<title>Node11&#45;&gt;Node37</title>
<path fill="none" stroke="midnightblue" d="M603.39,-400.7C572.59,-398.88 519.73,-390.56 495,-356 479,-333.64 511.02,-314.71 539.18,-303.14"/>
<polygon fill="midnightblue" stroke="midnightblue" points="540.46,-306.4 548.51,-299.51 537.92,-299.88 540.46,-306.4"/>
</g>
<!-- Node38 -->
<g id="node21" class="node">
<title>Node38</title>
<g id="a_node21"><a xlink:href="validate__expressions_8h.html" target="_top" xlink:title=" ">
<polygon fill="none" stroke="black" points="503.5,-336.5 503.5,-355.5 632.5,-355.5 632.5,-336.5 503.5,-336.5"/>
<text text-anchor="middle" x="568" y="-343.5" font-family="Helvetica,sans-Serif" font-size="10.00">validate_expressions.h</text>
</a>
</g>
</g>
<!-- Node11&#45;&gt;Node38 -->
<g id="edge30" class="edge">
<title>Node11&#45;&gt;Node38</title>
<path fill="none" stroke="midnightblue" d="M617.52,-392.32C608.8,-384.34 595.66,-372.31 585.1,-362.65"/>
<polygon fill="midnightblue" stroke="midnightblue" points="587.39,-360 577.65,-355.83 582.67,-365.17 587.39,-360"/>
</g>
<!-- Node14 -->
<g id="node14" class="node">
<title>Node14</title>
<g id="a_node14"><a xlink:href="source__location_8h.html" target="_top" xlink:title=" ">
<polygon fill="none" stroke="black" points="446,-168.5 446,-187.5 548,-187.5 548,-168.5 446,-168.5"/>
<text text-anchor="middle" x="497" y="-175.5" font-family="Helvetica,sans-Serif" font-size="10.00">source_location.h</text>
</a>
</g>
</g>
<!-- Node13&#45;&gt;Node14 -->
<g id="edge15" class="edge">
<title>Node13&#45;&gt;Node14</title>
<path fill="none" stroke="midnightblue" d="M763.61,-336.33C769.62,-314.39 781.83,-256.12 753,-224 727.7,-195.81 625.49,-185.24 558.12,-181.3"/>
<polygon fill="midnightblue" stroke="midnightblue" points="558.21,-177.8 548.04,-180.75 557.83,-184.79 558.21,-177.8"/>
</g>
<!-- Node34 -->
<g id="node17" class="node">
<title>Node34</title>
<g id="a_node17"><a xlink:href="validate_8h.html" target="_top" xlink:title=" ">
<polygon fill="none" stroke="black" points="366.5,-280.5 366.5,-299.5 431.5,-299.5 431.5,-280.5 366.5,-280.5"/>
<text text-anchor="middle" x="399" y="-287.5" font-family="Helvetica,sans-Serif" font-size="10.00">validate.h</text>
</a>
</g>
</g>
<!-- Node13&#45;&gt;Node34 -->
<g id="edge21" class="edge">
<title>Node13&#45;&gt;Node34</title>
<path fill="none" stroke="midnightblue" d="M737.3,-338.14C734.18,-337.35 731.03,-336.62 728,-336 626.33,-315.28 505,-301.45 441.91,-295.07"/>
<polygon fill="midnightblue" stroke="midnightblue" points="442.22,-291.58 431.93,-294.07 441.53,-298.54 442.22,-291.58"/>
</g>
<!-- Node13&#45;&gt;Node36 -->
<g id="edge29" class="edge">
<title>Node13&#45;&gt;Node36</title>
<path fill="none" stroke="midnightblue" d="M755.43,-336.37C743.76,-318.3 716.58,-276.18 701.17,-252.31"/>
<polygon fill="midnightblue" stroke="midnightblue" points="703.91,-250.1 695.55,-243.59 698.03,-253.89 703.91,-250.1"/>
</g>
<!-- Node13&#45;&gt;Node37 -->
<g id="edge28" class="edge">
<title>Node13&#45;&gt;Node37</title>
<path fill="none" stroke="midnightblue" d="M737.44,-338.16C706.53,-329.19 651.82,-313.3 614.52,-302.47"/>
<polygon fill="midnightblue" stroke="midnightblue" points="615.07,-298.99 604.49,-299.56 613.12,-305.71 615.07,-298.99"/>
</g>
<!-- Node14&#45;&gt;Node5 -->
<g id="edge20" class="edge">
<title>Node14&#45;&gt;Node5</title>
<path fill="none" stroke="midnightblue" d="M495.47,-168.22C493.02,-155.37 487.47,-130.93 478,-112 461.1,-78.23 431.5,-45.29 413.14,-26.63"/>
<polygon fill="midnightblue" stroke="midnightblue" points="415.59,-24.12 406.04,-19.54 410.65,-29.08 415.59,-24.12"/>
</g>
<!-- Node15 -->
<g id="node15" class="node">
<title>Node15</title>
<g id="a_node15"><a xlink:href="irep_8h.html" target="_top" xlink:title=" ">
<polygon fill="none" stroke="red" points="425,-112.5 425,-131.5 469,-131.5 469,-112.5 425,-112.5"/>
<text text-anchor="middle" x="447" y="-119.5" font-family="Helvetica,sans-Serif" font-size="10.00">irep.h</text>
</a>
</g>
</g>
<!-- Node14&#45;&gt;Node15 -->
<g id="edge16" class="edge">
<title>Node14&#45;&gt;Node15</title>
<path fill="none" stroke="midnightblue" d="M488.74,-168.08C481.54,-160.3 470.89,-148.8 462.15,-139.37"/>
<polygon fill="midnightblue" stroke="midnightblue" points="464.47,-136.71 455.1,-131.75 459.33,-141.47 464.47,-136.71"/>
</g>
<!-- Node32 -->
<g id="node16" class="node">
<title>Node32</title>
<g id="a_node16"><a xlink:href="optional_8h.html" target="_top" xlink:title=" ">
<polygon fill="none" stroke="red" points="525.5,-112.5 525.5,-131.5 590.5,-131.5 590.5,-112.5 525.5,-112.5"/>
<text text-anchor="middle" x="558" y="-119.5" font-family="Helvetica,sans-Serif" font-size="10.00">optional.h</text>
</a>
</g>
</g>
<!-- Node14&#45;&gt;Node32 -->
<g id="edge19" class="edge">
<title>Node14&#45;&gt;Node32</title>
<path fill="none" stroke="midnightblue" d="M506.8,-168.32C515.82,-160.34 529.41,-148.31 540.32,-138.65"/>
<polygon fill="midnightblue" stroke="midnightblue" points="542.85,-141.08 548.02,-131.83 538.21,-135.84 542.85,-141.08"/>
</g>
<!-- Node15&#45;&gt;Node2 -->
<g id="edge18" class="edge">
<title>Node15&#45;&gt;Node2</title>
<path fill="none" stroke="midnightblue" d="M424.95,-114.7C393.84,-105.81 336.56,-89.45 297.88,-78.39"/>
<polygon fill="midnightblue" stroke="midnightblue" points="298.56,-74.95 287.98,-75.57 296.64,-81.68 298.56,-74.95"/>
</g>
<!-- Node15&#45;&gt;Node5 -->
<g id="edge17" class="edge">
<title>Node15&#45;&gt;Node5</title>
<path fill="none" stroke="midnightblue" d="M443.08,-112.37C434.93,-94.46 416.06,-52.92 405.16,-28.95"/>
<polygon fill="midnightblue" stroke="midnightblue" points="408.23,-27.25 400.91,-19.59 401.86,-30.14 408.23,-27.25"/>
</g>
<!-- Node34&#45;&gt;Node6 -->
<g id="edge22" class="edge">
<title>Node34&#45;&gt;Node6</title>
<path fill="none" stroke="midnightblue" d="M420.97,-280.46C465.63,-261.67 565.69,-211.96 600,-132 614.62,-97.92 618.14,-54.13 618.9,-29.66"/>
<polygon fill="midnightblue" stroke="midnightblue" points="622.4,-29.67 619.08,-19.61 615.4,-29.54 622.4,-29.67"/>
</g>
<!-- Node35 -->
<g id="node18" class="node">
<title>Node35</title>
<g id="a_node18"><a xlink:href="exception__utils_8h.html" target="_top" xlink:title=" ">
<polygon fill="none" stroke="black" points="349,-224.5 349,-243.5 449,-243.5 449,-224.5 349,-224.5"/>
<text text-anchor="middle" x="399" y="-231.5" font-family="Helvetica,sans-Serif" font-size="10.00">exception_utils.h</text>
</a>
</g>
</g>
<!-- Node34&#45;&gt;Node35 -->
<g id="edge23" class="edge">
<title>Node34&#45;&gt;Node35</title>
<path fill="none" stroke="midnightblue" d="M399,-280.08C399,-273.01 399,-262.86 399,-253.99"/>
<polygon fill="midnightblue" stroke="midnightblue" points="402.5,-253.75 399,-243.75 395.5,-253.75 402.5,-253.75"/>
</g>
<!-- Node34&#45;&gt;Node36 -->
<g id="edge27" class="edge">
<title>Node34&#45;&gt;Node36</title>
<path fill="none" stroke="midnightblue" d="M431.61,-282.73C436.43,-281.81 441.35,-280.87 446,-280 510.16,-267.94 583.87,-254.39 633.34,-245.34"/>
<polygon fill="midnightblue" stroke="midnightblue" points="634,-248.77 643.21,-243.53 632.74,-241.89 634,-248.77"/>
</g>
<!-- Node35&#45;&gt;Node2 -->
<g id="edge25" class="edge">
<title>Node35&#45;&gt;Node2</title>
<path fill="none" stroke="midnightblue" d="M391.42,-224.08C368.74,-197.38 301.2,-117.87 271.86,-83.32"/>
<polygon fill="midnightblue" stroke="midnightblue" points="274.42,-80.92 265.28,-75.57 269.08,-85.46 274.42,-80.92"/>
</g>
<!-- Node35&#45;&gt;Node5 -->
<g id="edge24" class="edge">
<title>Node35&#45;&gt;Node5</title>
<path fill="none" stroke="midnightblue" d="M398.92,-224.3C398.63,-191.63 397.58,-75.87 397.17,-29.96"/>
<polygon fill="midnightblue" stroke="midnightblue" points="400.67,-29.85 397.08,-19.88 393.67,-29.91 400.67,-29.85"/>
</g>
<!-- Node35&#45;&gt;Node14 -->
<g id="edge26" class="edge">
<title>Node35&#45;&gt;Node14</title>
<path fill="none" stroke="midnightblue" d="M414.75,-224.32C430.32,-215.74 454.38,-202.49 472.46,-192.52"/>
<polygon fill="midnightblue" stroke="midnightblue" points="474.22,-195.55 481.29,-187.65 470.85,-189.42 474.22,-195.55"/>
</g>
<!-- Node39&#45;&gt;Node2 -->
<g id="edge38" class="edge">
<title>Node39&#45;&gt;Node2</title>
<path fill="none" stroke="midnightblue" d="M362.34,-513.19C292,-511.44 145,-496.59 145,-403 145,-403 145,-403 145,-177 145,-130.4 194.95,-97.14 228.43,-80.08"/>
<polygon fill="midnightblue" stroke="midnightblue" points="230.35,-83.04 237.8,-75.51 227.28,-76.75 230.35,-83.04"/>
</g>
<!-- Node39&#45;&gt;Node8 -->
<g id="edge37" class="edge">
<title>Node39&#45;&gt;Node8</title>
<path fill="none" stroke="midnightblue" d="M435.8,-508.44C514.91,-498.64 701.06,-475.59 788.32,-464.78"/>
<polygon fill="midnightblue" stroke="midnightblue" points="788.96,-468.23 798.45,-463.53 788.1,-461.28 788.96,-468.23"/>
</g>
<!-- Node39&#45;&gt;Node11 -->
<g id="edge36" class="edge">
<title>Node39&#45;&gt;Node11</title>
<path fill="none" stroke="midnightblue" d="M404.26,-504.38C413.27,-490.36 433.03,-462.72 457,-448 499.63,-421.83 557.32,-410.73 593.33,-406.12"/>
<polygon fill="midnightblue" stroke="midnightblue" points="593.81,-409.59 603.33,-404.94 592.99,-402.64 593.81,-409.59"/>
</g>
<!-- Node39&#45;&gt;Node34 -->
<g id="edge43" class="edge">
<title>Node39&#45;&gt;Node34</title>
<path fill="none" stroke="midnightblue" d="M399,-504.3C399,-471.63 399,-355.87 399,-309.96"/>
<polygon fill="midnightblue" stroke="midnightblue" points="402.5,-309.88 399,-299.88 395.5,-309.88 402.5,-309.88"/>
</g>
<!-- Node40 -->
<g id="node23" class="node">
<title>Node40</title>
<g id="a_node23"><a xlink:href="mp__arith_8h.html" target="_top" xlink:title=" ">
<polygon fill="none" stroke="black" points="287.5,-448.5 287.5,-467.5 356.5,-467.5 356.5,-448.5 287.5,-448.5"/>
<text text-anchor="middle" x="322" y="-455.5" font-family="Helvetica,sans-Serif" font-size="10.00">mp_arith.h</text>
</a>
</g>
</g>
<!-- Node39&#45;&gt;Node40 -->
<g id="edge39" class="edge">
<title>Node39&#45;&gt;Node40</title>
<path fill="none" stroke="midnightblue" d="M386.63,-504.32C374.84,-496.06 356.87,-483.45 342.86,-473.63"/>
<polygon fill="midnightblue" stroke="midnightblue" points="344.54,-470.53 334.34,-467.65 340.52,-476.26 344.54,-470.53"/>
</g>
<!-- Node24 -->
<g id="node26" class="node">
<title>Node24</title>
<g id="a_node26"><a xlink:title=" ">
<polygon fill="none" stroke="#bfbfbf" points="465.5,-448.5 465.5,-467.5 558.5,-467.5 558.5,-448.5 465.5,-448.5"/>
<text text-anchor="middle" x="512" y="-455.5" font-family="Helvetica,sans-Serif" font-size="10.00">unordered_map</text>
</a>
</g>
</g>
<!-- Node39&#45;&gt;Node24 -->
<g id="edge44" class="edge">
<title>Node39&#45;&gt;Node24</title>
<path fill="none" stroke="midnightblue" d="M416.91,-504.44C435.25,-495.68 464.01,-481.94 485.09,-471.86"/>
<polygon fill="midnightblue" stroke="midnightblue" points="486.67,-474.99 494.18,-467.52 483.65,-468.67 486.67,-474.99"/>
</g>
<!-- Node40&#45;&gt;Node5 -->
<g id="edge41" class="edge">
<title>Node40&#45;&gt;Node5</title>
<path fill="none" stroke="midnightblue" d="M327.13,-448.41C332.06,-439.61 339.16,-425.38 342,-412 343.85,-403.3 342.44,-400.88 342,-392 337.33,-296.99 321,-274.13 321,-179 321,-179 321,-179 321,-121 321,-81.28 354.96,-45.5 377.48,-26.15"/>
<polygon fill="midnightblue" stroke="midnightblue" points="379.98,-28.63 385.46,-19.57 375.52,-23.24 379.98,-28.63"/>
</g>
<!-- Node19 -->
<g id="node24" class="node">
<title>Node19</title>
<g id="a_node24"><a xlink:title=" ">
<polygon fill="none" stroke="#bfbfbf" points="285,-392.5 285,-411.5 333,-411.5 333,-392.5 285,-392.5"/>
<text text-anchor="middle" x="309" y="-399.5" font-family="Helvetica,sans-Serif" font-size="10.00">iosfwd</text>
</a>
</g>
</g>
<!-- Node40&#45;&gt;Node19 -->
<g id="edge40" class="edge">
<title>Node40&#45;&gt;Node19</title>
<path fill="none" stroke="midnightblue" d="M319.85,-448.08C318.13,-440.93 315.65,-430.64 313.5,-421.69"/>
<polygon fill="midnightblue" stroke="midnightblue" points="316.85,-420.65 311.11,-411.75 310.04,-422.29 316.85,-420.65"/>
</g>
<!-- Node41 -->
<g id="node25" class="node">
<title>Node41</title>
<g id="a_node25"><a xlink:title=" ">
<polygon fill="none" stroke="#bfbfbf" points="173,-392.5 173,-411.5 267,-411.5 267,-392.5 173,-392.5"/>
<text text-anchor="middle" x="220" y="-399.5" font-family="Helvetica,sans-Serif" font-size="10.00">big&#45;int/bigint.hh</text>
</a>
</g>
</g>
<!-- Node40&#45;&gt;Node41 -->
<g id="edge42" class="edge">
<title>Node40&#45;&gt;Node41</title>
<path fill="none" stroke="midnightblue" d="M305.61,-448.32C289.33,-439.7 264.13,-426.36 245.28,-416.39"/>
<polygon fill="midnightblue" stroke="midnightblue" points="246.82,-413.24 236.35,-411.65 243.55,-419.43 246.82,-413.24"/>
</g>
</g>
</svg>
