<?xml version="1.0" encoding="UTF-8" standalone="no"?>
<!DOCTYPE svg PUBLIC "-//W3C//DTD SVG 1.1//EN"
 "http://www.w3.org/Graphics/SVG/1.1/DTD/svg11.dtd">
<!-- Generated by graphviz version 2.43.0 (0)
 -->
<!-- Title: /home/runner/work/cbmc&#45;documentation/cbmc&#45;documentation/src/ansi&#45;c/c_expr.h Pages: 1 -->
<svg width="2109pt" height="317pt"
 viewBox="0.00 0.00 2108.50 317.00" xmlns="http://www.w3.org/2000/svg" xmlns:xlink="http://www.w3.org/1999/xlink">
<g id="graph0" class="graph" transform="scale(1 1) rotate(0) translate(4 313)">
<title>/home/runner/work/cbmc&#45;documentation/cbmc&#45;documentation/src/ansi&#45;c/c_expr.h</title>
<!-- Node1 -->
<g id="node1" class="node">
<title>Node1</title>
<g id="a_node1"><a xlink:title=" ">
<polygon fill="#bfbfbf" stroke="black" points="800,-267.5 800,-308.5 1000,-308.5 1000,-267.5 800,-267.5"/>
<text text-anchor="start" x="808" y="-296.5" font-family="Helvetica,sans-Serif" font-size="10.00">/home/runner/work/cbmc</text>
<text text-anchor="start" x="808" y="-285.5" font-family="Helvetica,sans-Serif" font-size="10.00">&#45;documentation/cbmc&#45;documentation</text>
<text text-anchor="middle" x="900" y="-274.5" font-family="Helvetica,sans-Serif" font-size="10.00">/src/ansi&#45;c/c_expr.h</text>
</a>
</g>
</g>
<!-- Node2 -->
<g id="node2" class="node">
<title>Node2</title>
<g id="a_node2"><a xlink:href="c__expr_8cpp.html" target="_top" xlink:title=" ">
<polygon fill="none" stroke="black" points="0,-184 0,-225 200,-225 200,-184 0,-184"/>
<text text-anchor="start" x="8" y="-213" font-family="Helvetica,sans-Serif" font-size="10.00">/home/runner/work/cbmc</text>
<text text-anchor="start" x="8" y="-202" font-family="Helvetica,sans-Serif" font-size="10.00">&#45;documentation/cbmc&#45;documentation</text>
<text text-anchor="middle" x="100" y="-191" font-family="Helvetica,sans-Serif" font-size="10.00">/src/ansi&#45;c/c_expr.cpp</text>
</a>
</g>
</g>
<!-- Node1&#45;&gt;Node2 -->
<g id="edge1" class="edge">
<title>Node1&#45;&gt;Node2</title>
<path fill="none" stroke="midnightblue" d="M789.82,-283.13C652.94,-277.17 412.59,-262.88 209,-231 198.63,-229.38 187.79,-227.3 177.13,-225.04"/>
<polygon fill="midnightblue" stroke="midnightblue" points="789.76,-286.63 799.9,-283.56 790.06,-279.64 789.76,-286.63"/>
</g>
<!-- Node3 -->
<g id="node3" class="node">
<title>Node3</title>
<g id="a_node3"><a xlink:href="c__typecheck__code_8cpp.html" target="_top" xlink:title=" ">
<polygon fill="none" stroke="black" points="218,-184 218,-225 418,-225 418,-184 218,-184"/>
<text text-anchor="start" x="226" y="-213" font-family="Helvetica,sans-Serif" font-size="10.00">/home/runner/work/cbmc</text>
<text text-anchor="start" x="226" y="-202" font-family="Helvetica,sans-Serif" font-size="10.00">&#45;documentation/cbmc&#45;documentation</text>
<text text-anchor="middle" x="318" y="-191" font-family="Helvetica,sans-Serif" font-size="10.00">/src/ansi&#45;c/c_typecheck_code.cpp</text>
</a>
</g>
</g>
<!-- Node1&#45;&gt;Node3 -->
<g id="edge2" class="edge">
<title>Node1&#45;&gt;Node3</title>
<path fill="none" stroke="midnightblue" d="M789.83,-277.48C693.64,-268.33 550.5,-252.69 427,-231 417.14,-229.27 406.84,-227.2 396.67,-225.01"/>
<polygon fill="midnightblue" stroke="midnightblue" points="789.58,-280.97 799.87,-278.43 790.24,-274 789.58,-280.97"/>
</g>
<!-- Node4 -->
<g id="node4" class="node">
<title>Node4</title>
<g id="a_node4"><a xlink:href="c__typecheck__expr_8cpp.html" target="_top" xlink:title=" ">
<polygon fill="none" stroke="black" points="436,-184 436,-225 636,-225 636,-184 436,-184"/>
<text text-anchor="start" x="444" y="-213" font-family="Helvetica,sans-Serif" font-size="10.00">/home/runner/work/cbmc</text>
<text text-anchor="start" x="444" y="-202" font-family="Helvetica,sans-Serif" font-size="10.00">&#45;documentation/cbmc&#45;documentation</text>
<text text-anchor="middle" x="536" y="-191" font-family="Helvetica,sans-Serif" font-size="10.00">/src/ansi&#45;c/c_typecheck_expr.cpp</text>
</a>
</g>
</g>
<!-- Node1&#45;&gt;Node4 -->
<g id="edge3" class="edge">
<title>Node1&#45;&gt;Node4</title>
<path fill="none" stroke="midnightblue" d="M799.77,-265.32C752.75,-255.06 695.97,-242.56 645,-231 636.57,-229.09 627.77,-227.07 618.99,-225.04"/>
<polygon fill="midnightblue" stroke="midnightblue" points="799.14,-268.76 809.65,-267.47 800.63,-261.92 799.14,-268.76"/>
</g>
<!-- Node5 -->
<g id="node5" class="node">
<title>Node5</title>
<g id="a_node5"><a xlink:href="c__typecheck__gcc__polymorphic__builtins_8cpp.html" target="_top" xlink:title=" ">
<polygon fill="none" stroke="black" points="654,-178.5 654,-230.5 872,-230.5 872,-178.5 654,-178.5"/>
<text text-anchor="start" x="662" y="-218.5" font-family="Helvetica,sans-Serif" font-size="10.00">/home/runner/work/cbmc</text>
<text text-anchor="start" x="662" y="-207.5" font-family="Helvetica,sans-Serif" font-size="10.00">&#45;documentation/cbmc&#45;documentation</text>
<text text-anchor="start" x="662" y="-196.5" font-family="Helvetica,sans-Serif" font-size="10.00">/src/ansi&#45;c/c_typecheck_gcc_polymorphic</text>
<text text-anchor="middle" x="763" y="-185.5" font-family="Helvetica,sans-Serif" font-size="10.00">_builtins.cpp</text>
</a>
</g>
</g>
<!-- Node1&#45;&gt;Node5 -->
<g id="edge4" class="edge">
<title>Node1&#45;&gt;Node5</title>
<path fill="none" stroke="midnightblue" d="M858.14,-262.1C841.33,-252.1 821.99,-240.59 805.15,-230.58"/>
<polygon fill="midnightblue" stroke="midnightblue" points="856.8,-265.37 867.19,-267.48 860.38,-259.36 856.8,-265.37"/>
</g>
<!-- Node6 -->
<g id="node6" class="node">
<title>Node6</title>
<g id="a_node6"><a xlink:href="contracts_8cpp.html" target="_top" xlink:title=" ">
<polygon fill="none" stroke="black" points="819,-0.5 819,-52.5 1019,-52.5 1019,-0.5 819,-0.5"/>
<text text-anchor="start" x="827" y="-40.5" font-family="Helvetica,sans-Serif" font-size="10.00">/home/runner/work/cbmc</text>
<text text-anchor="start" x="827" y="-29.5" font-family="Helvetica,sans-Serif" font-size="10.00">&#45;documentation/cbmc&#45;documentation</text>
<text text-anchor="start" x="827" y="-18.5" font-family="Helvetica,sans-Serif" font-size="10.00">/src/goto&#45;instrument/contracts</text>
<text text-anchor="middle" x="919" y="-7.5" font-family="Helvetica,sans-Serif" font-size="10.00">/contracts.cpp</text>
</a>
</g>
</g>
<!-- Node1&#45;&gt;Node6 -->
<g id="edge5" class="edge">
<title>Node1&#45;&gt;Node6</title>
<path fill="none" stroke="midnightblue" d="M902.01,-257.25C904.64,-218.51 909.46,-148.68 914,-89 914.91,-77.04 915.98,-63.77 916.9,-52.63"/>
<polygon fill="midnightblue" stroke="midnightblue" points="898.51,-257.11 901.32,-267.32 905.49,-257.58 898.51,-257.11"/>
</g>
<!-- Node7 -->
<g id="node7" class="node">
<title>Node7</title>
<g id="a_node7"><a xlink:href="instrument__spec__assigns_8h.html" target="_top" xlink:title=" ">
<polygon fill="none" stroke="black" points="1011,-178.5 1011,-230.5 1211,-230.5 1211,-178.5 1011,-178.5"/>
<text text-anchor="start" x="1019" y="-218.5" font-family="Helvetica,sans-Serif" font-size="10.00">/home/runner/work/cbmc</text>
<text text-anchor="start" x="1019" y="-207.5" font-family="Helvetica,sans-Serif" font-size="10.00">&#45;documentation/cbmc&#45;documentation</text>
<text text-anchor="start" x="1019" y="-196.5" font-family="Helvetica,sans-Serif" font-size="10.00">/src/goto&#45;instrument/contracts</text>
<text text-anchor="middle" x="1111" y="-185.5" font-family="Helvetica,sans-Serif" font-size="10.00">/instrument_spec_assigns.h</text>
</a>
</g>
</g>
<!-- Node1&#45;&gt;Node7 -->
<g id="edge6" class="edge">
<title>Node1&#45;&gt;Node7</title>
<path fill="none" stroke="midnightblue" d="M960.19,-263.75C987.03,-253.38 1018.71,-241.15 1046.08,-230.58"/>
<polygon fill="midnightblue" stroke="midnightblue" points="958.61,-260.61 950.54,-267.48 961.13,-267.14 958.61,-260.61"/>
</g>
<!-- Node9 -->
<g id="node9" class="node">
<title>Node9</title>
<g id="a_node9"><a xlink:href="havoc__assigns__clause__targets_8cpp.html" target="_top" xlink:title=" ">
<polygon fill="none" stroke="black" points="1075,-0.5 1075,-52.5 1275,-52.5 1275,-0.5 1075,-0.5"/>
<text text-anchor="start" x="1083" y="-40.5" font-family="Helvetica,sans-Serif" font-size="10.00">/home/runner/work/cbmc</text>
<text text-anchor="start" x="1083" y="-29.5" font-family="Helvetica,sans-Serif" font-size="10.00">&#45;documentation/cbmc&#45;documentation</text>
<text text-anchor="start" x="1083" y="-18.5" font-family="Helvetica,sans-Serif" font-size="10.00">/src/goto&#45;instrument/contracts</text>
<text text-anchor="middle" x="1175" y="-7.5" font-family="Helvetica,sans-Serif" font-size="10.00">/havoc_assigns_clause_targets.cpp</text>
</a>
</g>
</g>
<!-- Node1&#45;&gt;Node9 -->
<g id="edge14" class="edge">
<title>Node1&#45;&gt;Node9</title>
<path fill="none" stroke="midnightblue" d="M1010.18,-281.81C1194.72,-270.54 1553.65,-236.7 1630,-142 1644.78,-123.66 1645.5,-106.74 1630,-89 1607,-62.68 1401.98,-43.56 1275.12,-34.13"/>
<polygon fill="midnightblue" stroke="midnightblue" points="1009.95,-278.32 1000.17,-282.41 1010.36,-285.3 1009.95,-278.32"/>
</g>
<!-- Node12 -->
<g id="node12" class="node">
<title>Node12</title>
<g id="a_node12"><a xlink:href="goto__convert__side__effect_8cpp.html" target="_top" xlink:title=" ">
<polygon fill="none" stroke="black" points="1677,-178.5 1677,-230.5 1877,-230.5 1877,-178.5 1677,-178.5"/>
<text text-anchor="start" x="1685" y="-218.5" font-family="Helvetica,sans-Serif" font-size="10.00">/home/runner/work/cbmc</text>
<text text-anchor="start" x="1685" y="-207.5" font-family="Helvetica,sans-Serif" font-size="10.00">&#45;documentation/cbmc&#45;documentation</text>
<text text-anchor="start" x="1685" y="-196.5" font-family="Helvetica,sans-Serif" font-size="10.00">/src/goto&#45;programs/goto_convert</text>
<text text-anchor="middle" x="1777" y="-185.5" font-family="Helvetica,sans-Serif" font-size="10.00">_side_effect.cpp</text>
</a>
</g>
</g>
<!-- Node1&#45;&gt;Node12 -->
<g id="edge15" class="edge">
<title>Node1&#45;&gt;Node12</title>
<path fill="none" stroke="midnightblue" d="M1010.25,-283.98C1159.1,-278.76 1432.28,-265.08 1663,-231 1667.51,-230.33 1672.12,-229.59 1676.75,-228.78"/>
<polygon fill="midnightblue" stroke="midnightblue" points="1010.07,-280.49 1000.19,-284.33 1010.31,-287.48 1010.07,-280.49"/>
</g>
<!-- Node13 -->
<g id="node13" class="node">
<title>Node13</title>
<g id="a_node13"><a xlink:href="remove__vector_8cpp.html" target="_top" xlink:title=" ">
<polygon fill="none" stroke="black" points="1895.5,-184 1895.5,-225 2100.5,-225 2100.5,-184 1895.5,-184"/>
<text text-anchor="start" x="1903.5" y="-213" font-family="Helvetica,sans-Serif" font-size="10.00">/home/runner/work/cbmc</text>
<text text-anchor="start" x="1903.5" y="-202" font-family="Helvetica,sans-Serif" font-size="10.00">&#45;documentation/cbmc&#45;documentation</text>
<text text-anchor="middle" x="1998" y="-191" font-family="Helvetica,sans-Serif" font-size="10.00">/src/goto&#45;programs/remove_vector.cpp</text>
</a>
</g>
</g>
<!-- Node1&#45;&gt;Node13 -->
<g id="edge16" class="edge">
<title>Node1&#45;&gt;Node13</title>
<path fill="none" stroke="midnightblue" d="M1010.43,-286.73C1193.37,-284.94 1570.46,-275.56 1886,-231 1897.06,-229.44 1908.64,-227.34 1919.98,-225.01"/>
<polygon fill="midnightblue" stroke="midnightblue" points="1010.23,-283.23 1000.26,-286.82 1010.29,-290.23 1010.23,-283.23"/>
</g>
<!-- Node7&#45;&gt;Node6 -->
<g id="edge10" class="edge">
<title>Node7&#45;&gt;Node6</title>
<path fill="none" stroke="midnightblue" d="M1001.24,-183.96C977.34,-174.86 954.34,-161.53 938,-142 917.18,-117.12 915.03,-78.25 916.31,-52.82"/>
<polygon fill="midnightblue" stroke="midnightblue" points="1000.19,-187.3 1010.79,-187.36 1002.54,-180.71 1000.19,-187.3"/>
</g>
<!-- Node8 -->
<g id="node8" class="node">
<title>Node8</title>
<g id="a_node8"><a xlink:href="havoc__assigns__clause__targets_8h.html" target="_top" xlink:title=" ">
<polygon fill="none" stroke="black" points="947,-89.5 947,-141.5 1147,-141.5 1147,-89.5 947,-89.5"/>
<text text-anchor="start" x="955" y="-129.5" font-family="Helvetica,sans-Serif" font-size="10.00">/home/runner/work/cbmc</text>
<text text-anchor="start" x="955" y="-118.5" font-family="Helvetica,sans-Serif" font-size="10.00">&#45;documentation/cbmc&#45;documentation</text>
<text text-anchor="start" x="955" y="-107.5" font-family="Helvetica,sans-Serif" font-size="10.00">/src/goto&#45;instrument/contracts</text>
<text text-anchor="middle" x="1047" y="-96.5" font-family="Helvetica,sans-Serif" font-size="10.00">/havoc_assigns_clause_targets.h</text>
</a>
</g>
</g>
<!-- Node7&#45;&gt;Node8 -->
<g id="edge7" class="edge">
<title>Node7&#45;&gt;Node8</title>
<path fill="none" stroke="midnightblue" d="M1086.51,-170.22C1079.53,-160.72 1072.03,-150.53 1065.47,-141.61"/>
<polygon fill="midnightblue" stroke="midnightblue" points="1083.74,-172.35 1092.49,-178.34 1089.38,-168.21 1083.74,-172.35"/>
</g>
<!-- Node7&#45;&gt;Node9 -->
<g id="edge11" class="edge">
<title>Node7&#45;&gt;Node9</title>
<path fill="none" stroke="midnightblue" d="M1139.67,-170.21C1145.92,-161.5 1151.88,-151.8 1156,-142 1168.26,-112.84 1172.63,-76.38 1174.18,-52.54"/>
<polygon fill="midnightblue" stroke="midnightblue" points="1136.86,-168.12 1133.64,-178.22 1142.45,-172.33 1136.86,-168.12"/>
</g>
<!-- Node10 -->
<g id="node10" class="node">
<title>Node10</title>
<g id="a_node10"><a xlink:href="instrument__spec__assigns_8cpp.html" target="_top" xlink:title=" ">
<polygon fill="none" stroke="black" points="1203,-89.5 1203,-141.5 1403,-141.5 1403,-89.5 1203,-89.5"/>
<text text-anchor="start" x="1211" y="-129.5" font-family="Helvetica,sans-Serif" font-size="10.00">/home/runner/work/cbmc</text>
<text text-anchor="start" x="1211" y="-118.5" font-family="Helvetica,sans-Serif" font-size="10.00">&#45;documentation/cbmc&#45;documentation</text>
<text text-anchor="start" x="1211" y="-107.5" font-family="Helvetica,sans-Serif" font-size="10.00">/src/goto&#45;instrument/contracts</text>
<text text-anchor="middle" x="1303" y="-96.5" font-family="Helvetica,sans-Serif" font-size="10.00">/instrument_spec_assigns.cpp</text>
</a>
</g>
</g>
<!-- Node7&#45;&gt;Node10 -->
<g id="edge12" class="edge">
<title>Node7&#45;&gt;Node10</title>
<path fill="none" stroke="midnightblue" d="M1175.45,-174.29C1198.91,-163.67 1225.2,-151.76 1247.78,-141.52"/>
<polygon fill="midnightblue" stroke="midnightblue" points="1173.94,-171.14 1166.28,-178.45 1176.83,-177.51 1173.94,-171.14"/>
</g>
<!-- Node11 -->
<g id="node11" class="node">
<title>Node11</title>
<g id="a_node11"><a xlink:href="memory__predicates_8cpp.html" target="_top" xlink:title=" ">
<polygon fill="none" stroke="black" points="1421,-89.5 1421,-141.5 1621,-141.5 1621,-89.5 1421,-89.5"/>
<text text-anchor="start" x="1429" y="-129.5" font-family="Helvetica,sans-Serif" font-size="10.00">/home/runner/work/cbmc</text>
<text text-anchor="start" x="1429" y="-118.5" font-family="Helvetica,sans-Serif" font-size="10.00">&#45;documentation/cbmc&#45;documentation</text>
<text text-anchor="start" x="1429" y="-107.5" font-family="Helvetica,sans-Serif" font-size="10.00">/src/goto&#45;instrument/contracts</text>
<text text-anchor="middle" x="1521" y="-96.5" font-family="Helvetica,sans-Serif" font-size="10.00">/memory_predicates.cpp</text>
</a>
</g>
</g>
<!-- Node7&#45;&gt;Node11 -->
<g id="edge13" class="edge">
<title>Node7&#45;&gt;Node11</title>
<path fill="none" stroke="midnightblue" d="M1221.26,-181.75C1278.28,-170.3 1348.97,-155.81 1412,-142 1414.94,-141.36 1417.93,-140.7 1420.94,-140.02"/>
<polygon fill="midnightblue" stroke="midnightblue" points="1220.26,-178.38 1211.14,-183.78 1221.63,-185.24 1220.26,-178.38"/>
</g>
<!-- Node8&#45;&gt;Node6 -->
<g id="edge8" class="edge">
<title>Node8&#45;&gt;Node6</title>
<path fill="none" stroke="midnightblue" d="M1001.4,-83.5C986.49,-73.37 970.13,-62.25 955.94,-52.61"/>
<polygon fill="midnightblue" stroke="midnightblue" points="999.74,-86.61 1009.98,-89.34 1003.67,-80.82 999.74,-86.61"/>
</g>
<!-- Node8&#45;&gt;Node9 -->
<g id="edge9" class="edge">
<title>Node8&#45;&gt;Node9</title>
<path fill="none" stroke="midnightblue" d="M1092.6,-83.5C1107.51,-73.37 1123.87,-62.25 1138.06,-52.61"/>
<polygon fill="midnightblue" stroke="midnightblue" points="1090.33,-80.82 1084.02,-89.34 1094.26,-86.61 1090.33,-80.82"/>
</g>
</g>
</svg>
