<?xml version="1.0" encoding="UTF-8" standalone="no"?>
<!DOCTYPE svg PUBLIC "-//W3C//DTD SVG 1.1//EN"
 "http://www.w3.org/Graphics/SVG/1.1/DTD/svg11.dtd">
<!-- Generated by graphviz version 2.43.0 (0)
 -->
<!-- Title: /home/runner/work/cbmc&#45;documentation/cbmc&#45;documentation/src/analyses/call_graph.h Pages: 1 -->
<svg width="912pt" height="317pt"
 viewBox="0.00 0.00 912.00 317.00" xmlns="http://www.w3.org/2000/svg" xmlns:xlink="http://www.w3.org/1999/xlink">
<g id="graph0" class="graph" transform="scale(1 1) rotate(0) translate(4 313)">
<title>/home/runner/work/cbmc&#45;documentation/cbmc&#45;documentation/src/analyses/call_graph.h</title>
<!-- Node1 -->
<g id="node1" class="node">
<title>Node1</title>
<g id="a_node1"><a xlink:title=" ">
<polygon fill="#bfbfbf" stroke="black" points="442,-267.5 442,-308.5 642,-308.5 642,-267.5 442,-267.5"/>
<text text-anchor="start" x="450" y="-296.5" font-family="Helvetica,sans-Serif" font-size="10.00">/home/runner/work/cbmc</text>
<text text-anchor="start" x="450" y="-285.5" font-family="Helvetica,sans-Serif" font-size="10.00">&#45;documentation/cbmc&#45;documentation</text>
<text text-anchor="middle" x="542" y="-274.5" font-family="Helvetica,sans-Serif" font-size="10.00">/src/analyses/call_graph.h</text>
</a>
</g>
</g>
<!-- Node2 -->
<g id="node2" class="node">
<title>Node2</title>
<g id="a_node2"><a xlink:href="call__graph_8cpp.html" target="_top" xlink:title=" ">
<polygon fill="none" stroke="black" points="0,-184 0,-225 200,-225 200,-184 0,-184"/>
<text text-anchor="start" x="8" y="-213" font-family="Helvetica,sans-Serif" font-size="10.00">/home/runner/work/cbmc</text>
<text text-anchor="start" x="8" y="-202" font-family="Helvetica,sans-Serif" font-size="10.00">&#45;documentation/cbmc&#45;documentation</text>
<text text-anchor="middle" x="100" y="-191" font-family="Helvetica,sans-Serif" font-size="10.00">/src/analyses/call_graph.cpp</text>
</a>
</g>
</g>
<!-- Node1&#45;&gt;Node2 -->
<g id="edge1" class="edge">
<title>Node1&#45;&gt;Node2</title>
<path fill="none" stroke="midnightblue" d="M431.62,-270.23C366.63,-259.91 282.93,-245.85 209,-231 199.85,-229.16 190.31,-227.12 180.83,-225.01"/>
<polygon fill="midnightblue" stroke="midnightblue" points="431.46,-273.75 441.88,-271.86 432.55,-266.84 431.46,-273.75"/>
</g>
<!-- Node3 -->
<g id="node3" class="node">
<title>Node3</title>
<g id="a_node3"><a xlink:href="call__graph__helpers_8h.html" target="_top" xlink:title=" ">
<polygon fill="none" stroke="black" points="218,-184 218,-225 418,-225 418,-184 218,-184"/>
<text text-anchor="start" x="226" y="-213" font-family="Helvetica,sans-Serif" font-size="10.00">/home/runner/work/cbmc</text>
<text text-anchor="start" x="226" y="-202" font-family="Helvetica,sans-Serif" font-size="10.00">&#45;documentation/cbmc&#45;documentation</text>
<text text-anchor="middle" x="318" y="-191" font-family="Helvetica,sans-Serif" font-size="10.00">/src/analyses/call_graph_helpers.h</text>
</a>
</g>
</g>
<!-- Node1&#45;&gt;Node3 -->
<g id="edge2" class="edge">
<title>Node1&#45;&gt;Node3</title>
<path fill="none" stroke="midnightblue" d="M478.58,-263.92C444.82,-251.64 403.75,-236.7 371.6,-225"/>
<polygon fill="midnightblue" stroke="midnightblue" points="477.75,-267.35 488.35,-267.48 480.15,-260.77 477.75,-267.35"/>
</g>
<!-- Node6 -->
<g id="node6" class="node">
<title>Node6</title>
<g id="a_node6"><a xlink:href="aggressive__slicer_8h.html" target="_top" xlink:title=" ">
<polygon fill="none" stroke="black" points="436,-184 436,-225 648,-225 648,-184 436,-184"/>
<text text-anchor="start" x="444" y="-213" font-family="Helvetica,sans-Serif" font-size="10.00">/home/runner/work/cbmc</text>
<text text-anchor="start" x="444" y="-202" font-family="Helvetica,sans-Serif" font-size="10.00">&#45;documentation/cbmc&#45;documentation</text>
<text text-anchor="middle" x="542" y="-191" font-family="Helvetica,sans-Serif" font-size="10.00">/src/goto&#45;instrument/aggressive_slicer.h</text>
</a>
</g>
</g>
<!-- Node1&#45;&gt;Node6 -->
<g id="edge5" class="edge">
<title>Node1&#45;&gt;Node6</title>
<path fill="none" stroke="midnightblue" d="M542,-257.06C542,-246.38 542,-234.63 542,-225.05"/>
<polygon fill="midnightblue" stroke="midnightblue" points="538.5,-257.27 542,-267.27 545.5,-257.27 538.5,-257.27"/>
</g>
<!-- Node10 -->
<g id="node10" class="node">
<title>Node10</title>
<g id="a_node10"><a xlink:href="goto__instrument__parse__options_8cpp.html" target="_top" xlink:title=" ">
<polygon fill="none" stroke="black" points="631,-0.5 631,-52.5 831,-52.5 831,-0.5 631,-0.5"/>
<text text-anchor="start" x="639" y="-40.5" font-family="Helvetica,sans-Serif" font-size="10.00">/home/runner/work/cbmc</text>
<text text-anchor="start" x="639" y="-29.5" font-family="Helvetica,sans-Serif" font-size="10.00">&#45;documentation/cbmc&#45;documentation</text>
<text text-anchor="start" x="639" y="-18.5" font-family="Helvetica,sans-Serif" font-size="10.00">/src/goto&#45;instrument/goto_instrument</text>
<text text-anchor="middle" x="731" y="-7.5" font-family="Helvetica,sans-Serif" font-size="10.00">_parse_options.cpp</text>
</a>
</g>
</g>
<!-- Node1&#45;&gt;Node10 -->
<g id="edge11" class="edge">
<title>Node1&#45;&gt;Node10</title>
<path fill="none" stroke="midnightblue" d="M613.07,-262.91C629.16,-254.79 645.01,-244.31 657,-231 703.92,-178.9 721.75,-94.71 727.97,-52.83"/>
<polygon fill="midnightblue" stroke="midnightblue" points="611.12,-259.96 603.6,-267.42 614.13,-266.28 611.12,-259.96"/>
</g>
<!-- Node11 -->
<g id="node11" class="node">
<title>Node11</title>
<g id="a_node11"><a xlink:href="slice__global__inits_8cpp.html" target="_top" xlink:title=" ">
<polygon fill="none" stroke="black" points="704,-178.5 704,-230.5 904,-230.5 904,-178.5 704,-178.5"/>
<text text-anchor="start" x="712" y="-218.5" font-family="Helvetica,sans-Serif" font-size="10.00">/home/runner/work/cbmc</text>
<text text-anchor="start" x="712" y="-207.5" font-family="Helvetica,sans-Serif" font-size="10.00">&#45;documentation/cbmc&#45;documentation</text>
<text text-anchor="start" x="712" y="-196.5" font-family="Helvetica,sans-Serif" font-size="10.00">/src/goto&#45;programs/slice_global</text>
<text text-anchor="middle" x="804" y="-185.5" font-family="Helvetica,sans-Serif" font-size="10.00">_inits.cpp</text>
</a>
</g>
</g>
<!-- Node1&#45;&gt;Node11 -->
<g id="edge12" class="edge">
<title>Node1&#45;&gt;Node11</title>
<path fill="none" stroke="midnightblue" d="M614.56,-264.43C648.34,-253.92 688.65,-241.38 723.39,-230.58"/>
<polygon fill="midnightblue" stroke="midnightblue" points="613.26,-261.17 604.76,-267.48 615.34,-267.85 613.26,-261.17"/>
</g>
<!-- Node4 -->
<g id="node4" class="node">
<title>Node4</title>
<g id="a_node4"><a xlink:href="call__graph__helpers_8cpp.html" target="_top" xlink:title=" ">
<polygon fill="none" stroke="black" points="6,-95 6,-136 206,-136 206,-95 6,-95"/>
<text text-anchor="start" x="14" y="-124" font-family="Helvetica,sans-Serif" font-size="10.00">/home/runner/work/cbmc</text>
<text text-anchor="start" x="14" y="-113" font-family="Helvetica,sans-Serif" font-size="10.00">&#45;documentation/cbmc&#45;documentation</text>
<text text-anchor="middle" x="106" y="-102" font-family="Helvetica,sans-Serif" font-size="10.00">/src/analyses/call_graph_helpers.cpp</text>
</a>
</g>
</g>
<!-- Node3&#45;&gt;Node4 -->
<g id="edge3" class="edge">
<title>Node3&#45;&gt;Node4</title>
<path fill="none" stroke="midnightblue" d="M260.77,-180.01C227.28,-166.27 185.5,-149.12 153.78,-136.11"/>
<polygon fill="midnightblue" stroke="midnightblue" points="259.84,-183.42 270.42,-183.98 262.5,-176.94 259.84,-183.42"/>
</g>
<!-- Node5 -->
<g id="node5" class="node">
<title>Node5</title>
<g id="a_node5"><a xlink:href="aggressive__slicer_8cpp.html" target="_top" xlink:title=" ">
<polygon fill="none" stroke="black" points="224,-89.5 224,-141.5 424,-141.5 424,-89.5 224,-89.5"/>
<text text-anchor="start" x="232" y="-129.5" font-family="Helvetica,sans-Serif" font-size="10.00">/home/runner/work/cbmc</text>
<text text-anchor="start" x="232" y="-118.5" font-family="Helvetica,sans-Serif" font-size="10.00">&#45;documentation/cbmc&#45;documentation</text>
<text text-anchor="start" x="232" y="-107.5" font-family="Helvetica,sans-Serif" font-size="10.00">/src/goto&#45;instrument/aggressive</text>
<text text-anchor="middle" x="324" y="-96.5" font-family="Helvetica,sans-Serif" font-size="10.00">_slicer.cpp</text>
</a>
</g>
</g>
<!-- Node3&#45;&gt;Node5 -->
<g id="edge4" class="edge">
<title>Node3&#45;&gt;Node5</title>
<path fill="none" stroke="midnightblue" d="M320.07,-173.51C320.78,-163.17 321.57,-151.71 322.26,-141.79"/>
<polygon fill="midnightblue" stroke="midnightblue" points="316.56,-173.54 319.36,-183.76 323.54,-174.02 316.56,-173.54"/>
</g>
<!-- Node6&#45;&gt;Node5 -->
<g id="edge6" class="edge">
<title>Node6&#45;&gt;Node5</title>
<path fill="none" stroke="midnightblue" d="M483.62,-180.2C453.75,-168.28 417.35,-153.75 386.86,-141.58"/>
<polygon fill="midnightblue" stroke="midnightblue" points="482.49,-183.52 493.08,-183.98 485.09,-177.02 482.49,-183.52"/>
</g>
<!-- Node7 -->
<g id="node7" class="node">
<title>Node7</title>
<g id="a_node7"><a xlink:href="goto__instrument__parse__options_8h.html" target="_top" xlink:title=" ">
<polygon fill="none" stroke="black" points="442,-89.5 442,-141.5 642,-141.5 642,-89.5 442,-89.5"/>
<text text-anchor="start" x="450" y="-129.5" font-family="Helvetica,sans-Serif" font-size="10.00">/home/runner/work/cbmc</text>
<text text-anchor="start" x="450" y="-118.5" font-family="Helvetica,sans-Serif" font-size="10.00">&#45;documentation/cbmc&#45;documentation</text>
<text text-anchor="start" x="450" y="-107.5" font-family="Helvetica,sans-Serif" font-size="10.00">/src/goto&#45;instrument/goto_instrument</text>
<text text-anchor="middle" x="542" y="-96.5" font-family="Helvetica,sans-Serif" font-size="10.00">_parse_options.h</text>
</a>
</g>
</g>
<!-- Node6&#45;&gt;Node7 -->
<g id="edge7" class="edge">
<title>Node6&#45;&gt;Node7</title>
<path fill="none" stroke="midnightblue" d="M542,-173.51C542,-163.17 542,-151.71 542,-141.79"/>
<polygon fill="midnightblue" stroke="midnightblue" points="538.5,-173.76 542,-183.76 545.5,-173.76 538.5,-173.76"/>
</g>
<!-- Node8 -->
<g id="node8" class="node">
<title>Node8</title>
<g id="a_node8"><a xlink:href="goto__instrument__languages_8cpp.html" target="_top" xlink:title=" ">
<polygon fill="none" stroke="black" points="145,-0.5 145,-52.5 345,-52.5 345,-0.5 145,-0.5"/>
<text text-anchor="start" x="153" y="-40.5" font-family="Helvetica,sans-Serif" font-size="10.00">/home/runner/work/cbmc</text>
<text text-anchor="start" x="153" y="-29.5" font-family="Helvetica,sans-Serif" font-size="10.00">&#45;documentation/cbmc&#45;documentation</text>
<text text-anchor="start" x="153" y="-18.5" font-family="Helvetica,sans-Serif" font-size="10.00">/src/goto&#45;instrument/goto_instrument</text>
<text text-anchor="middle" x="245" y="-7.5" font-family="Helvetica,sans-Serif" font-size="10.00">_languages.cpp</text>
</a>
</g>
</g>
<!-- Node7&#45;&gt;Node8 -->
<g id="edge8" class="edge">
<title>Node7&#45;&gt;Node8</title>
<path fill="none" stroke="midnightblue" d="M446.61,-86.56C409.26,-75.62 366.75,-63.16 330.42,-52.52"/>
<polygon fill="midnightblue" stroke="midnightblue" points="445.91,-90 456.49,-89.45 447.88,-83.28 445.91,-90"/>
</g>
<!-- Node9 -->
<g id="node9" class="node">
<title>Node9</title>
<g id="a_node9"><a xlink:href="goto__instrument__main_8cpp.html" target="_top" xlink:title=" ">
<polygon fill="none" stroke="black" points="363.5,-6 363.5,-47 612.5,-47 612.5,-6 363.5,-6"/>
<text text-anchor="start" x="371.5" y="-35" font-family="Helvetica,sans-Serif" font-size="10.00">/home/runner/work/cbmc</text>
<text text-anchor="start" x="371.5" y="-24" font-family="Helvetica,sans-Serif" font-size="10.00">&#45;documentation/cbmc&#45;documentation</text>
<text text-anchor="middle" x="488" y="-13" font-family="Helvetica,sans-Serif" font-size="10.00">/src/goto&#45;instrument/goto_instrument_main.cpp</text>
</a>
</g>
</g>
<!-- Node7&#45;&gt;Node9 -->
<g id="edge9" class="edge">
<title>Node7&#45;&gt;Node9</title>
<path fill="none" stroke="midnightblue" d="M520.9,-80.51C513.87,-69.17 506.27,-56.94 500.15,-47.08"/>
<polygon fill="midnightblue" stroke="midnightblue" points="518.13,-82.69 526.38,-89.34 524.08,-78.99 518.13,-82.69"/>
</g>
<!-- Node7&#45;&gt;Node10 -->
<g id="edge10" class="edge">
<title>Node7&#45;&gt;Node10</title>
<path fill="none" stroke="midnightblue" d="M605.75,-85.15C628.77,-74.56 654.51,-62.71 676.64,-52.52"/>
<polygon fill="midnightblue" stroke="midnightblue" points="604.03,-82.09 596.41,-89.45 606.96,-88.45 604.03,-82.09"/>
</g>
</g>
</svg>
