<?xml version="1.0" encoding="UTF-8" standalone="no"?>
<!DOCTYPE svg PUBLIC "-//W3C//DTD SVG 1.1//EN"
 "http://www.w3.org/Graphics/SVG/1.1/DTD/svg11.dtd">
<!-- Generated by graphviz version 2.43.0 (0)
 -->
<!-- Title: /home/runner/work/cbmc&#45;documentation/cbmc&#45;documentation/jbmc/src/java_bytecode/character_refine_preprocess.h Pages: 1 -->
<svg width="3145pt" height="417pt"
 viewBox="0.00 0.00 3144.50 417.00" xmlns="http://www.w3.org/2000/svg" xmlns:xlink="http://www.w3.org/1999/xlink">
<g id="graph0" class="graph" transform="scale(1 1) rotate(0) translate(4 413)">
<title>/home/runner/work/cbmc&#45;documentation/cbmc&#45;documentation/jbmc/src/java_bytecode/character_refine_preprocess.h</title>
<!-- Node1 -->
<g id="node1" class="node">
<title>Node1</title>
<g id="a_node1"><a xlink:title=" ">
<polygon fill="#bfbfbf" stroke="black" points="2327.5,-356.5 2327.5,-408.5 2527.5,-408.5 2527.5,-356.5 2327.5,-356.5"/>
<text text-anchor="start" x="2335.5" y="-396.5" font-family="Helvetica,sans-Serif" font-size="10.00">/home/runner/work/cbmc</text>
<text text-anchor="start" x="2335.5" y="-385.5" font-family="Helvetica,sans-Serif" font-size="10.00">&#45;documentation/cbmc&#45;documentation</text>
<text text-anchor="start" x="2335.5" y="-374.5" font-family="Helvetica,sans-Serif" font-size="10.00">/jbmc/src/java_bytecode/character</text>
<text text-anchor="middle" x="2427.5" y="-363.5" font-family="Helvetica,sans-Serif" font-size="10.00">_refine_preprocess.h</text>
</a>
</g>
</g>
<!-- Node2 -->
<g id="node2" class="node">
<title>Node2</title>
<g id="a_node2"><a xlink:href="character__refine__preprocess_8cpp.html" target="_top" xlink:title=" ">
<polygon fill="none" stroke="black" points="2218.5,-267.5 2218.5,-319.5 2418.5,-319.5 2418.5,-267.5 2218.5,-267.5"/>
<text text-anchor="start" x="2226.5" y="-307.5" font-family="Helvetica,sans-Serif" font-size="10.00">/home/runner/work/cbmc</text>
<text text-anchor="start" x="2226.5" y="-296.5" font-family="Helvetica,sans-Serif" font-size="10.00">&#45;documentation/cbmc&#45;documentation</text>
<text text-anchor="start" x="2226.5" y="-285.5" font-family="Helvetica,sans-Serif" font-size="10.00">/jbmc/src/java_bytecode/character</text>
<text text-anchor="middle" x="2318.5" y="-274.5" font-family="Helvetica,sans-Serif" font-size="10.00">_refine_preprocess.cpp</text>
</a>
</g>
</g>
<!-- Node1&#45;&gt;Node2 -->
<g id="edge1" class="edge">
<title>Node1&#45;&gt;Node2</title>
<path fill="none" stroke="midnightblue" d="M2387.95,-349.93C2375.45,-339.96 2361.81,-329.07 2349.96,-319.61"/>
<polygon fill="midnightblue" stroke="midnightblue" points="2385.97,-352.83 2395.97,-356.34 2390.34,-347.36 2385.97,-352.83"/>
</g>
<!-- Node3 -->
<g id="node3" class="node">
<title>Node3</title>
<g id="a_node3"><a xlink:href="java__string__library__preprocess_8h.html" target="_top" xlink:title=" ">
<polygon fill="none" stroke="black" points="2436.5,-267.5 2436.5,-319.5 2636.5,-319.5 2636.5,-267.5 2436.5,-267.5"/>
<text text-anchor="start" x="2444.5" y="-307.5" font-family="Helvetica,sans-Serif" font-size="10.00">/home/runner/work/cbmc</text>
<text text-anchor="start" x="2444.5" y="-296.5" font-family="Helvetica,sans-Serif" font-size="10.00">&#45;documentation/cbmc&#45;documentation</text>
<text text-anchor="start" x="2444.5" y="-285.5" font-family="Helvetica,sans-Serif" font-size="10.00">/jbmc/src/java_bytecode/java</text>
<text text-anchor="middle" x="2536.5" y="-274.5" font-family="Helvetica,sans-Serif" font-size="10.00">_string_library_preprocess.h</text>
</a>
</g>
</g>
<!-- Node1&#45;&gt;Node3 -->
<g id="edge2" class="edge">
<title>Node1&#45;&gt;Node3</title>
<path fill="none" stroke="midnightblue" d="M2467.05,-349.93C2479.55,-339.96 2493.19,-329.07 2505.04,-319.61"/>
<polygon fill="midnightblue" stroke="midnightblue" points="2464.66,-347.36 2459.03,-356.34 2469.03,-352.83 2464.66,-347.36"/>
</g>
<!-- Node4 -->
<g id="node4" class="node">
<title>Node4</title>
<g id="a_node4"><a xlink:href="java__bytecode__language_8h.html" target="_top" xlink:title=" ">
<polygon fill="none" stroke="black" points="1071.5,-178.5 1071.5,-230.5 1271.5,-230.5 1271.5,-178.5 1071.5,-178.5"/>
<text text-anchor="start" x="1079.5" y="-218.5" font-family="Helvetica,sans-Serif" font-size="10.00">/home/runner/work/cbmc</text>
<text text-anchor="start" x="1079.5" y="-207.5" font-family="Helvetica,sans-Serif" font-size="10.00">&#45;documentation/cbmc&#45;documentation</text>
<text text-anchor="start" x="1079.5" y="-196.5" font-family="Helvetica,sans-Serif" font-size="10.00">/jbmc/src/java_bytecode/java</text>
<text text-anchor="middle" x="1171.5" y="-185.5" font-family="Helvetica,sans-Serif" font-size="10.00">_bytecode_language.h</text>
</a>
</g>
</g>
<!-- Node3&#45;&gt;Node4 -->
<g id="edge3" class="edge">
<title>Node3&#45;&gt;Node4</title>
<path fill="none" stroke="midnightblue" d="M2426.16,-266.95C2185.86,-235.2 1524.42,-214.9 1271.5,-208.06"/>
<polygon fill="midnightblue" stroke="midnightblue" points="2425.87,-270.45 2436.25,-268.33 2426.82,-263.51 2425.87,-270.45"/>
</g>
<!-- Node18 -->
<g id="node18" class="node">
<title>Node18</title>
<g id="a_node18"><a xlink:href="java__bytecode__convert__method_8h.html" target="_top" xlink:title=" ">
<polygon fill="none" stroke="black" points="2244.5,-178.5 2244.5,-230.5 2444.5,-230.5 2444.5,-178.5 2244.5,-178.5"/>
<text text-anchor="start" x="2252.5" y="-218.5" font-family="Helvetica,sans-Serif" font-size="10.00">/home/runner/work/cbmc</text>
<text text-anchor="start" x="2252.5" y="-207.5" font-family="Helvetica,sans-Serif" font-size="10.00">&#45;documentation/cbmc&#45;documentation</text>
<text text-anchor="start" x="2252.5" y="-196.5" font-family="Helvetica,sans-Serif" font-size="10.00">/jbmc/src/java_bytecode/java</text>
<text text-anchor="middle" x="2344.5" y="-185.5" font-family="Helvetica,sans-Serif" font-size="10.00">_bytecode_convert_method.h</text>
</a>
</g>
</g>
<!-- Node3&#45;&gt;Node18 -->
<g id="edge19" class="edge">
<title>Node3&#45;&gt;Node18</title>
<path fill="none" stroke="midnightblue" d="M2472.05,-263.29C2448.59,-252.67 2422.3,-240.76 2399.72,-230.52"/>
<polygon fill="midnightblue" stroke="midnightblue" points="2470.67,-266.51 2481.22,-267.45 2473.56,-260.14 2470.67,-266.51"/>
</g>
<!-- Node20 -->
<g id="node20" class="node">
<title>Node20</title>
<g id="a_node20"><a xlink:href="java__bytecode__convert__method_8cpp.html" target="_top" xlink:title=" ">
<polygon fill="none" stroke="black" points="2571.5,-89.5 2571.5,-141.5 2771.5,-141.5 2771.5,-89.5 2571.5,-89.5"/>
<text text-anchor="start" x="2579.5" y="-129.5" font-family="Helvetica,sans-Serif" font-size="10.00">/home/runner/work/cbmc</text>
<text text-anchor="start" x="2579.5" y="-118.5" font-family="Helvetica,sans-Serif" font-size="10.00">&#45;documentation/cbmc&#45;documentation</text>
<text text-anchor="start" x="2579.5" y="-107.5" font-family="Helvetica,sans-Serif" font-size="10.00">/jbmc/src/java_bytecode/java</text>
<text text-anchor="middle" x="2671.5" y="-96.5" font-family="Helvetica,sans-Serif" font-size="10.00">_bytecode_convert_method.cpp</text>
</a>
</g>
</g>
<!-- Node3&#45;&gt;Node20 -->
<g id="edge24" class="edge">
<title>Node3&#45;&gt;Node20</title>
<path fill="none" stroke="midnightblue" d="M2506.94,-258.94C2489.49,-234.9 2473.94,-202.56 2491.5,-178 2501.92,-163.43 2535.84,-150.16 2571.47,-139.71"/>
<polygon fill="midnightblue" stroke="midnightblue" points="2504.29,-261.25 2513.14,-267.08 2509.86,-257 2504.29,-261.25"/>
</g>
<!-- Node22 -->
<g id="node22" class="node">
<title>Node22</title>
<g id="a_node22"><a xlink:href="java__object__factory_8cpp.html" target="_top" xlink:title=" ">
<polygon fill="none" stroke="black" points="2500.5,-178.5 2500.5,-230.5 2700.5,-230.5 2700.5,-178.5 2500.5,-178.5"/>
<text text-anchor="start" x="2508.5" y="-218.5" font-family="Helvetica,sans-Serif" font-size="10.00">/home/runner/work/cbmc</text>
<text text-anchor="start" x="2508.5" y="-207.5" font-family="Helvetica,sans-Serif" font-size="10.00">&#45;documentation/cbmc&#45;documentation</text>
<text text-anchor="start" x="2508.5" y="-196.5" font-family="Helvetica,sans-Serif" font-size="10.00">/jbmc/src/java_bytecode/java</text>
<text text-anchor="middle" x="2600.5" y="-185.5" font-family="Helvetica,sans-Serif" font-size="10.00">_object_factory.cpp</text>
</a>
</g>
</g>
<!-- Node3&#45;&gt;Node22 -->
<g id="edge25" class="edge">
<title>Node3&#45;&gt;Node22</title>
<path fill="none" stroke="midnightblue" d="M2560.99,-259.22C2567.97,-249.72 2575.47,-239.53 2582.03,-230.61"/>
<polygon fill="midnightblue" stroke="midnightblue" points="2558.12,-257.21 2555.01,-267.34 2563.76,-261.35 2558.12,-257.21"/>
</g>
<!-- Node23 -->
<g id="node23" class="node">
<title>Node23</title>
<g id="a_node23"><a xlink:href="java__string__library__preprocess_8cpp.html" target="_top" xlink:title=" ">
<polygon fill="none" stroke="black" points="2718.5,-178.5 2718.5,-230.5 2918.5,-230.5 2918.5,-178.5 2718.5,-178.5"/>
<text text-anchor="start" x="2726.5" y="-218.5" font-family="Helvetica,sans-Serif" font-size="10.00">/home/runner/work/cbmc</text>
<text text-anchor="start" x="2726.5" y="-207.5" font-family="Helvetica,sans-Serif" font-size="10.00">&#45;documentation/cbmc&#45;documentation</text>
<text text-anchor="start" x="2726.5" y="-196.5" font-family="Helvetica,sans-Serif" font-size="10.00">/jbmc/src/java_bytecode/java</text>
<text text-anchor="middle" x="2818.5" y="-185.5" font-family="Helvetica,sans-Serif" font-size="10.00">_string_library_preprocess.cpp</text>
</a>
</g>
</g>
<!-- Node3&#45;&gt;Node23 -->
<g id="edge26" class="edge">
<title>Node3&#45;&gt;Node23</title>
<path fill="none" stroke="midnightblue" d="M2627.52,-264.42C2662.88,-253.51 2703.05,-241.12 2737.4,-230.52"/>
<polygon fill="midnightblue" stroke="midnightblue" points="2626.21,-261.16 2617.69,-267.45 2628.28,-267.85 2626.21,-261.16"/>
</g>
<!-- Node24 -->
<g id="node24" class="node">
<title>Node24</title>
<g id="a_node24"><a xlink:href="java__utils_8cpp.html" target="_top" xlink:title=" ">
<polygon fill="none" stroke="black" points="2936.5,-178.5 2936.5,-230.5 3136.5,-230.5 3136.5,-178.5 2936.5,-178.5"/>
<text text-anchor="start" x="2944.5" y="-218.5" font-family="Helvetica,sans-Serif" font-size="10.00">/home/runner/work/cbmc</text>
<text text-anchor="start" x="2944.5" y="-207.5" font-family="Helvetica,sans-Serif" font-size="10.00">&#45;documentation/cbmc&#45;documentation</text>
<text text-anchor="start" x="2944.5" y="-196.5" font-family="Helvetica,sans-Serif" font-size="10.00">/jbmc/src/java_bytecode/java</text>
<text text-anchor="middle" x="3036.5" y="-185.5" font-family="Helvetica,sans-Serif" font-size="10.00">_utils.cpp</text>
</a>
</g>
</g>
<!-- Node3&#45;&gt;Node24 -->
<g id="edge27" class="edge">
<title>Node3&#45;&gt;Node24</title>
<path fill="none" stroke="midnightblue" d="M2646.81,-277.37C2725.35,-266.05 2833.24,-249.41 2927.5,-231 2930.46,-230.42 2933.45,-229.82 2936.48,-229.2"/>
<polygon fill="midnightblue" stroke="midnightblue" points="2646.3,-273.9 2636.9,-278.79 2647.3,-280.83 2646.3,-273.9"/>
</g>
<!-- Node5 -->
<g id="node5" class="node">
<title>Node5</title>
<g id="a_node5"><a xlink:href="janalyzer__parse__options_8h.html" target="_top" xlink:title=" ">
<polygon fill="none" stroke="black" points="97.5,-89.5 97.5,-141.5 297.5,-141.5 297.5,-89.5 97.5,-89.5"/>
<text text-anchor="start" x="105.5" y="-129.5" font-family="Helvetica,sans-Serif" font-size="10.00">/home/runner/work/cbmc</text>
<text text-anchor="start" x="105.5" y="-118.5" font-family="Helvetica,sans-Serif" font-size="10.00">&#45;documentation/cbmc&#45;documentation</text>
<text text-anchor="start" x="105.5" y="-107.5" font-family="Helvetica,sans-Serif" font-size="10.00">/jbmc/src/janalyzer/janalyzer</text>
<text text-anchor="middle" x="197.5" y="-96.5" font-family="Helvetica,sans-Serif" font-size="10.00">_parse_options.h</text>
</a>
</g>
</g>
<!-- Node4&#45;&gt;Node5 -->
<g id="edge4" class="edge">
<title>Node4&#45;&gt;Node5</title>
<path fill="none" stroke="midnightblue" d="M1061.23,-200.85C897.04,-195.73 578.96,-181.25 311.5,-142 306.99,-141.34 302.38,-140.59 297.74,-139.79"/>
<polygon fill="midnightblue" stroke="midnightblue" points="1061.23,-204.35 1071.33,-201.16 1061.45,-197.36 1061.23,-204.35"/>
</g>
<!-- Node7 -->
<g id="node7" class="node">
<title>Node7</title>
<g id="a_node7"><a xlink:href="janalyzer__parse__options_8cpp.html" target="_top" xlink:title=" ">
<polygon fill="none" stroke="black" points="225.5,-0.5 225.5,-52.5 425.5,-52.5 425.5,-0.5 225.5,-0.5"/>
<text text-anchor="start" x="233.5" y="-40.5" font-family="Helvetica,sans-Serif" font-size="10.00">/home/runner/work/cbmc</text>
<text text-anchor="start" x="233.5" y="-29.5" font-family="Helvetica,sans-Serif" font-size="10.00">&#45;documentation/cbmc&#45;documentation</text>
<text text-anchor="start" x="233.5" y="-18.5" font-family="Helvetica,sans-Serif" font-size="10.00">/jbmc/src/janalyzer/janalyzer</text>
<text text-anchor="middle" x="325.5" y="-7.5" font-family="Helvetica,sans-Serif" font-size="10.00">_parse_options.cpp</text>
</a>
</g>
</g>
<!-- Node4&#45;&gt;Node7 -->
<g id="edge7" class="edge">
<title>Node4&#45;&gt;Node7</title>
<path fill="none" stroke="midnightblue" d="M1061.21,-202.74C848.15,-200.22 396.27,-189.29 344.5,-142 320.1,-119.71 319.17,-78.99 321.65,-52.6"/>
<polygon fill="midnightblue" stroke="midnightblue" points="1061.45,-206.25 1071.49,-202.86 1061.53,-199.25 1061.45,-206.25"/>
</g>
<!-- Node8 -->
<g id="node8" class="node">
<title>Node8</title>
<g id="a_node8"><a xlink:href="ci__lazy__methods_8cpp.html" target="_top" xlink:title=" ">
<polygon fill="none" stroke="black" points="353.5,-89.5 353.5,-141.5 553.5,-141.5 553.5,-89.5 353.5,-89.5"/>
<text text-anchor="start" x="361.5" y="-129.5" font-family="Helvetica,sans-Serif" font-size="10.00">/home/runner/work/cbmc</text>
<text text-anchor="start" x="361.5" y="-118.5" font-family="Helvetica,sans-Serif" font-size="10.00">&#45;documentation/cbmc&#45;documentation</text>
<text text-anchor="start" x="361.5" y="-107.5" font-family="Helvetica,sans-Serif" font-size="10.00">/jbmc/src/java_bytecode/ci_lazy</text>
<text text-anchor="middle" x="453.5" y="-96.5" font-family="Helvetica,sans-Serif" font-size="10.00">_methods.cpp</text>
</a>
</g>
</g>
<!-- Node4&#45;&gt;Node8 -->
<g id="edge8" class="edge">
<title>Node4&#45;&gt;Node8</title>
<path fill="none" stroke="midnightblue" d="M1061.16,-196.66C938.72,-188.07 735.57,-170.86 562.5,-142 559.62,-141.52 556.71,-141.01 553.78,-140.47"/>
<polygon fill="midnightblue" stroke="midnightblue" points="1061.07,-200.16 1071.29,-197.36 1061.55,-193.18 1061.07,-200.16"/>
</g>
<!-- Node9 -->
<g id="node9" class="node">
<title>Node9</title>
<g id="a_node9"><a xlink:href="java__bytecode__language_8cpp.html" target="_top" xlink:title=" ">
<polygon fill="none" stroke="black" points="1917.5,-89.5 1917.5,-141.5 2117.5,-141.5 2117.5,-89.5 1917.5,-89.5"/>
<text text-anchor="start" x="1925.5" y="-129.5" font-family="Helvetica,sans-Serif" font-size="10.00">/home/runner/work/cbmc</text>
<text text-anchor="start" x="1925.5" y="-118.5" font-family="Helvetica,sans-Serif" font-size="10.00">&#45;documentation/cbmc&#45;documentation</text>
<text text-anchor="start" x="1925.5" y="-107.5" font-family="Helvetica,sans-Serif" font-size="10.00">/jbmc/src/java_bytecode/java</text>
<text text-anchor="middle" x="2017.5" y="-96.5" font-family="Helvetica,sans-Serif" font-size="10.00">_bytecode_language.cpp</text>
</a>
</g>
</g>
<!-- Node4&#45;&gt;Node9 -->
<g id="edge9" class="edge">
<title>Node4&#45;&gt;Node9</title>
<path fill="none" stroke="midnightblue" d="M1281.8,-199.34C1426.44,-192.74 1687.73,-176.84 1908.5,-142 1911.38,-141.55 1914.3,-141.06 1917.23,-140.54"/>
<polygon fill="midnightblue" stroke="midnightblue" points="1281.42,-195.85 1271.59,-199.8 1281.74,-202.85 1281.42,-195.85"/>
</g>
<!-- Node10 -->
<g id="node10" class="node">
<title>Node10</title>
<g id="a_node10"><a xlink:href="java__entry__point_8cpp.html" target="_top" xlink:title=" ">
<polygon fill="none" stroke="black" points="571.5,-89.5 571.5,-141.5 771.5,-141.5 771.5,-89.5 571.5,-89.5"/>
<text text-anchor="start" x="579.5" y="-129.5" font-family="Helvetica,sans-Serif" font-size="10.00">/home/runner/work/cbmc</text>
<text text-anchor="start" x="579.5" y="-118.5" font-family="Helvetica,sans-Serif" font-size="10.00">&#45;documentation/cbmc&#45;documentation</text>
<text text-anchor="start" x="579.5" y="-107.5" font-family="Helvetica,sans-Serif" font-size="10.00">/jbmc/src/java_bytecode/java</text>
<text text-anchor="middle" x="671.5" y="-96.5" font-family="Helvetica,sans-Serif" font-size="10.00">_entry_point.cpp</text>
</a>
</g>
</g>
<!-- Node4&#45;&gt;Node10 -->
<g id="edge10" class="edge">
<title>Node4&#45;&gt;Node10</title>
<path fill="none" stroke="midnightblue" d="M1061.19,-188.37C982.65,-177.05 874.76,-160.41 780.5,-142 777.54,-141.42 774.55,-140.82 771.52,-140.2"/>
<polygon fill="midnightblue" stroke="midnightblue" points="1060.7,-191.83 1071.1,-189.79 1061.7,-184.9 1060.7,-191.83"/>
</g>
<!-- Node11 -->
<g id="node11" class="node">
<title>Node11</title>
<g id="a_node11"><a xlink:href="lazy__goto__model_8cpp.html" target="_top" xlink:title="Author: Diffblue Ltd.">
<polygon fill="none" stroke="black" points="789.5,-89.5 789.5,-141.5 989.5,-141.5 989.5,-89.5 789.5,-89.5"/>
<text text-anchor="start" x="797.5" y="-129.5" font-family="Helvetica,sans-Serif" font-size="10.00">/home/runner/work/cbmc</text>
<text text-anchor="start" x="797.5" y="-118.5" font-family="Helvetica,sans-Serif" font-size="10.00">&#45;documentation/cbmc&#45;documentation</text>
<text text-anchor="start" x="797.5" y="-107.5" font-family="Helvetica,sans-Serif" font-size="10.00">/jbmc/src/java_bytecode/lazy</text>
<text text-anchor="middle" x="889.5" y="-96.5" font-family="Helvetica,sans-Serif" font-size="10.00">_goto_model.cpp</text>
</a>
</g>
</g>
<!-- Node4&#45;&gt;Node11 -->
<g id="edge11" class="edge">
<title>Node4&#45;&gt;Node11</title>
<path fill="none" stroke="midnightblue" d="M1080.48,-175.42C1045.12,-164.51 1004.95,-152.12 970.6,-141.52"/>
<polygon fill="midnightblue" stroke="midnightblue" points="1079.72,-178.85 1090.31,-178.45 1081.79,-172.16 1079.72,-178.85"/>
</g>
<!-- Node12 -->
<g id="node12" class="node">
<title>Node12</title>
<g id="a_node12"><a xlink:href="jbmc__parse__options_8h.html" target="_top" xlink:title=" ">
<polygon fill="none" stroke="black" points="1007.5,-95 1007.5,-136 1207.5,-136 1207.5,-95 1007.5,-95"/>
<text text-anchor="start" x="1015.5" y="-124" font-family="Helvetica,sans-Serif" font-size="10.00">/home/runner/work/cbmc</text>
<text text-anchor="start" x="1015.5" y="-113" font-family="Helvetica,sans-Serif" font-size="10.00">&#45;documentation/cbmc&#45;documentation</text>
<text text-anchor="middle" x="1107.5" y="-102" font-family="Helvetica,sans-Serif" font-size="10.00">/jbmc/src/jbmc/jbmc_parse_options.h</text>
</a>
</g>
</g>
<!-- Node4&#45;&gt;Node12 -->
<g id="edge12" class="edge">
<title>Node4&#45;&gt;Node12</title>
<path fill="none" stroke="midnightblue" d="M1146.99,-170.18C1138.51,-158.66 1129.3,-146.13 1121.91,-136.08"/>
<polygon fill="midnightblue" stroke="midnightblue" points="1144.24,-172.35 1152.99,-178.34 1149.88,-168.21 1144.24,-172.35"/>
</g>
<!-- Node14 -->
<g id="node14" class="node">
<title>Node14</title>
<g id="a_node14"><a xlink:href="jbmc__parse__options_8cpp.html" target="_top" xlink:title=" ">
<polygon fill="none" stroke="black" points="1131,-6 1131,-47 1340,-47 1340,-6 1131,-6"/>
<text text-anchor="start" x="1139" y="-35" font-family="Helvetica,sans-Serif" font-size="10.00">/home/runner/work/cbmc</text>
<text text-anchor="start" x="1139" y="-24" font-family="Helvetica,sans-Serif" font-size="10.00">&#45;documentation/cbmc&#45;documentation</text>
<text text-anchor="middle" x="1235.5" y="-13" font-family="Helvetica,sans-Serif" font-size="10.00">/jbmc/src/jbmc/jbmc_parse_options.cpp</text>
</a>
</g>
</g>
<!-- Node4&#45;&gt;Node14 -->
<g id="edge15" class="edge">
<title>Node4&#45;&gt;Node14</title>
<path fill="none" stroke="midnightblue" d="M1200.17,-170.21C1206.42,-161.5 1212.38,-151.8 1216.5,-142 1229.7,-110.61 1233.75,-70.76 1234.98,-47.31"/>
<polygon fill="midnightblue" stroke="midnightblue" points="1197.36,-168.12 1194.14,-178.22 1202.95,-172.33 1197.36,-168.12"/>
</g>
<!-- Node15 -->
<g id="node15" class="node">
<title>Node15</title>
<g id="a_node15"><a xlink:href="jdiff__languages_8cpp.html" target="_top" xlink:title=" ">
<polygon fill="none" stroke="black" points="1263.5,-95 1263.5,-136 1463.5,-136 1463.5,-95 1263.5,-95"/>
<text text-anchor="start" x="1271.5" y="-124" font-family="Helvetica,sans-Serif" font-size="10.00">/home/runner/work/cbmc</text>
<text text-anchor="start" x="1271.5" y="-113" font-family="Helvetica,sans-Serif" font-size="10.00">&#45;documentation/cbmc&#45;documentation</text>
<text text-anchor="middle" x="1363.5" y="-102" font-family="Helvetica,sans-Serif" font-size="10.00">/jbmc/src/jdiff/jdiff_languages.cpp</text>
</a>
</g>
</g>
<!-- Node4&#45;&gt;Node15 -->
<g id="edge16" class="edge">
<title>Node4&#45;&gt;Node15</title>
<path fill="none" stroke="midnightblue" d="M1236,-174.27C1263.71,-161.72 1295.34,-147.38 1320.17,-136.13"/>
<polygon fill="midnightblue" stroke="midnightblue" points="1234.44,-171.14 1226.78,-178.45 1237.33,-177.51 1234.44,-171.14"/>
</g>
<!-- Node16 -->
<g id="node16" class="node">
<title>Node16</title>
<g id="a_node16"><a xlink:href="jdiff__parse__options_8cpp.html" target="_top" xlink:title=" ">
<polygon fill="none" stroke="black" points="1481.5,-95 1481.5,-136 1681.5,-136 1681.5,-95 1481.5,-95"/>
<text text-anchor="start" x="1489.5" y="-124" font-family="Helvetica,sans-Serif" font-size="10.00">/home/runner/work/cbmc</text>
<text text-anchor="start" x="1489.5" y="-113" font-family="Helvetica,sans-Serif" font-size="10.00">&#45;documentation/cbmc&#45;documentation</text>
<text text-anchor="middle" x="1581.5" y="-102" font-family="Helvetica,sans-Serif" font-size="10.00">/jbmc/src/jdiff/jdiff_parse_options.cpp</text>
</a>
</g>
</g>
<!-- Node4&#45;&gt;Node16 -->
<g id="edge17" class="edge">
<title>Node4&#45;&gt;Node16</title>
<path fill="none" stroke="midnightblue" d="M1281.76,-181.75C1338.78,-170.3 1409.47,-155.81 1472.5,-142 1481.14,-140.11 1490.15,-138.08 1499.13,-136.03"/>
<polygon fill="midnightblue" stroke="midnightblue" points="1280.76,-178.38 1271.64,-183.78 1282.13,-185.24 1280.76,-178.38"/>
</g>
<!-- Node17 -->
<g id="node17" class="node">
<title>Node17</title>
<g id="a_node17"><a xlink:href="load__java__class_8cpp.html" target="_top" xlink:title=" ">
<polygon fill="none" stroke="black" points="1699.5,-89.5 1699.5,-141.5 1899.5,-141.5 1899.5,-89.5 1699.5,-89.5"/>
<text text-anchor="start" x="1707.5" y="-129.5" font-family="Helvetica,sans-Serif" font-size="10.00">/home/runner/work/cbmc</text>
<text text-anchor="start" x="1707.5" y="-118.5" font-family="Helvetica,sans-Serif" font-size="10.00">&#45;documentation/cbmc&#45;documentation</text>
<text text-anchor="start" x="1707.5" y="-107.5" font-family="Helvetica,sans-Serif" font-size="10.00">/jbmc/unit/java&#45;testing&#45;utils</text>
<text text-anchor="middle" x="1799.5" y="-96.5" font-family="Helvetica,sans-Serif" font-size="10.00">/load_java_class.cpp</text>
</a>
</g>
</g>
<!-- Node4&#45;&gt;Node17 -->
<g id="edge18" class="edge">
<title>Node4&#45;&gt;Node17</title>
<path fill="none" stroke="midnightblue" d="M1281.99,-194.02C1387.41,-184.12 1550.47,-166.6 1690.5,-142 1693.37,-141.5 1696.28,-140.96 1699.21,-140.41"/>
<polygon fill="midnightblue" stroke="midnightblue" points="1281.6,-190.54 1271.97,-194.95 1282.25,-197.51 1281.6,-190.54"/>
</g>
<!-- Node6 -->
<g id="node6" class="node">
<title>Node6</title>
<g id="a_node6"><a xlink:href="janalyzer__main_8cpp.html" target="_top" xlink:title=" ">
<polygon fill="none" stroke="black" points="0,-6 0,-47 207,-47 207,-6 0,-6"/>
<text text-anchor="start" x="8" y="-35" font-family="Helvetica,sans-Serif" font-size="10.00">/home/runner/work/cbmc</text>
<text text-anchor="start" x="8" y="-24" font-family="Helvetica,sans-Serif" font-size="10.00">&#45;documentation/cbmc&#45;documentation</text>
<text text-anchor="middle" x="103.5" y="-13" font-family="Helvetica,sans-Serif" font-size="10.00">/jbmc/src/janalyzer/janalyzer_main.cpp</text>
</a>
</g>
</g>
<!-- Node5&#45;&gt;Node6 -->
<g id="edge5" class="edge">
<title>Node5&#45;&gt;Node6</title>
<path fill="none" stroke="midnightblue" d="M162.94,-82.51C150.11,-70.64 135.94,-57.53 124.66,-47.08"/>
<polygon fill="midnightblue" stroke="midnightblue" points="160.59,-85.11 170.31,-89.34 165.35,-79.97 160.59,-85.11"/>
</g>
<!-- Node5&#45;&gt;Node7 -->
<g id="edge6" class="edge">
<title>Node5&#45;&gt;Node7</title>
<path fill="none" stroke="midnightblue" d="M243.1,-83.5C258.01,-73.37 274.37,-62.25 288.56,-52.61"/>
<polygon fill="midnightblue" stroke="midnightblue" points="240.83,-80.82 234.52,-89.34 244.76,-86.61 240.83,-80.82"/>
</g>
<!-- Node13 -->
<g id="node13" class="node">
<title>Node13</title>
<g id="a_node13"><a xlink:href="jbmc__main_8cpp.html" target="_top" xlink:title=" ">
<polygon fill="none" stroke="black" points="912.5,-6 912.5,-47 1112.5,-47 1112.5,-6 912.5,-6"/>
<text text-anchor="start" x="920.5" y="-35" font-family="Helvetica,sans-Serif" font-size="10.00">/home/runner/work/cbmc</text>
<text text-anchor="start" x="920.5" y="-24" font-family="Helvetica,sans-Serif" font-size="10.00">&#45;documentation/cbmc&#45;documentation</text>
<text text-anchor="middle" x="1012.5" y="-13" font-family="Helvetica,sans-Serif" font-size="10.00">/jbmc/src/jbmc/jbmc_main.cpp</text>
</a>
</g>
</g>
<!-- Node12&#45;&gt;Node13 -->
<g id="edge13" class="edge">
<title>Node12&#45;&gt;Node13</title>
<path fill="none" stroke="midnightblue" d="M1078.3,-87.76C1064,-74.66 1047.07,-59.16 1033.97,-47.16"/>
<polygon fill="midnightblue" stroke="midnightblue" points="1076.2,-90.59 1085.94,-94.76 1080.93,-85.42 1076.2,-90.59"/>
</g>
<!-- Node12&#45;&gt;Node14 -->
<g id="edge14" class="edge">
<title>Node12&#45;&gt;Node14</title>
<path fill="none" stroke="midnightblue" d="M1144.65,-89.25C1164.32,-75.88 1188.12,-59.7 1206.43,-47.26"/>
<polygon fill="midnightblue" stroke="midnightblue" points="1142.53,-86.46 1136.23,-94.98 1146.46,-92.25 1142.53,-86.46"/>
</g>
<!-- Node18&#45;&gt;Node9 -->
<g id="edge22" class="edge">
<title>Node18&#45;&gt;Node9</title>
<path fill="none" stroke="midnightblue" d="M2240.53,-175.84C2199.15,-164.83 2151.88,-152.25 2111.54,-141.52"/>
<polygon fill="midnightblue" stroke="midnightblue" points="2239.79,-179.26 2250.36,-178.45 2241.59,-172.5 2239.79,-179.26"/>
</g>
<!-- Node19 -->
<g id="node19" class="node">
<title>Node19</title>
<g id="a_node19"><a xlink:href="java__bytecode__convert__class_8cpp.html" target="_top" xlink:title=" ">
<polygon fill="none" stroke="black" points="2135.5,-89.5 2135.5,-141.5 2335.5,-141.5 2335.5,-89.5 2135.5,-89.5"/>
<text text-anchor="start" x="2143.5" y="-129.5" font-family="Helvetica,sans-Serif" font-size="10.00">/home/runner/work/cbmc</text>
<text text-anchor="start" x="2143.5" y="-118.5" font-family="Helvetica,sans-Serif" font-size="10.00">&#45;documentation/cbmc&#45;documentation</text>
<text text-anchor="start" x="2143.5" y="-107.5" font-family="Helvetica,sans-Serif" font-size="10.00">/jbmc/src/java_bytecode/java</text>
<text text-anchor="middle" x="2235.5" y="-96.5" font-family="Helvetica,sans-Serif" font-size="10.00">_bytecode_convert_class.cpp</text>
</a>
</g>
</g>
<!-- Node18&#45;&gt;Node19 -->
<g id="edge20" class="edge">
<title>Node18&#45;&gt;Node19</title>
<path fill="none" stroke="midnightblue" d="M2304.95,-171.93C2292.45,-161.96 2278.81,-151.07 2266.96,-141.61"/>
<polygon fill="midnightblue" stroke="midnightblue" points="2302.97,-174.83 2312.97,-178.34 2307.34,-169.36 2302.97,-174.83"/>
</g>
<!-- Node18&#45;&gt;Node20 -->
<g id="edge21" class="edge">
<title>Node18&#45;&gt;Node20</title>
<path fill="none" stroke="midnightblue" d="M2448.47,-175.84C2489.85,-164.83 2537.12,-152.25 2577.46,-141.52"/>
<polygon fill="midnightblue" stroke="midnightblue" points="2447.41,-172.5 2438.64,-178.45 2449.21,-179.26 2447.41,-172.5"/>
</g>
<!-- Node21 -->
<g id="node21" class="node">
<title>Node21</title>
<g id="a_node21"><a xlink:href="lambda__synthesis_8cpp.html" target="_top" xlink:title=" ">
<polygon fill="none" stroke="black" points="2353.5,-89.5 2353.5,-141.5 2553.5,-141.5 2553.5,-89.5 2353.5,-89.5"/>
<text text-anchor="start" x="2361.5" y="-129.5" font-family="Helvetica,sans-Serif" font-size="10.00">/home/runner/work/cbmc</text>
<text text-anchor="start" x="2361.5" y="-118.5" font-family="Helvetica,sans-Serif" font-size="10.00">&#45;documentation/cbmc&#45;documentation</text>
<text text-anchor="start" x="2361.5" y="-107.5" font-family="Helvetica,sans-Serif" font-size="10.00">/jbmc/src/java_bytecode/lambda</text>
<text text-anchor="middle" x="2453.5" y="-96.5" font-family="Helvetica,sans-Serif" font-size="10.00">_synthesis.cpp</text>
</a>
</g>
</g>
<!-- Node18&#45;&gt;Node21 -->
<g id="edge23" class="edge">
<title>Node18&#45;&gt;Node21</title>
<path fill="none" stroke="midnightblue" d="M2384.05,-171.93C2396.55,-161.96 2410.19,-151.07 2422.04,-141.61"/>
<polygon fill="midnightblue" stroke="midnightblue" points="2381.66,-169.36 2376.03,-178.34 2386.03,-174.83 2381.66,-169.36"/>
</g>
</g>
</svg>
