<?xml version="1.0" encoding="UTF-8" standalone="no"?>
<!DOCTYPE svg PUBLIC "-//W3C//DTD SVG 1.1//EN"
 "http://www.w3.org/Graphics/SVG/1.1/DTD/svg11.dtd">
<!-- Generated by graphviz version 2.43.0 (0)
 -->
<!-- Title: /home/runner/work/cbmc&#45;documentation/cbmc&#45;documentation/src/goto&#45;cc/cl_message_handler.h Pages: 1 -->
<svg width="753pt" height="206pt"
 viewBox="0.00 0.00 753.00 206.00" xmlns="http://www.w3.org/2000/svg" xmlns:xlink="http://www.w3.org/1999/xlink">
<g id="graph0" class="graph" transform="scale(1 1) rotate(0) translate(4 202)">
<title>/home/runner/work/cbmc&#45;documentation/cbmc&#45;documentation/src/goto&#45;cc/cl_message_handler.h</title>
<!-- Node1 -->
<g id="node1" class="node">
<title>Node1</title>
<g id="a_node1"><a xlink:title=" ">
<polygon fill="#bfbfbf" stroke="black" points="218,-156.5 218,-197.5 418,-197.5 418,-156.5 218,-156.5"/>
<text text-anchor="start" x="226" y="-185.5" font-family="Helvetica,sans-Serif" font-size="10.00">/home/runner/work/cbmc</text>
<text text-anchor="start" x="226" y="-174.5" font-family="Helvetica,sans-Serif" font-size="10.00">&#45;documentation/cbmc&#45;documentation</text>
<text text-anchor="middle" x="318" y="-163.5" font-family="Helvetica,sans-Serif" font-size="10.00">/src/goto&#45;cc/cl_message_handler.h</text>
</a>
</g>
</g>
<!-- Node2 -->
<g id="node2" class="node">
<title>Node2</title>
<g id="a_node2"><a xlink:href="cl__message__handler_8cpp.html" target="_top" xlink:title=" ">
<polygon fill="none" stroke="black" points="0,-78.5 0,-119.5 200,-119.5 200,-78.5 0,-78.5"/>
<text text-anchor="start" x="8" y="-107.5" font-family="Helvetica,sans-Serif" font-size="10.00">/home/runner/work/cbmc</text>
<text text-anchor="start" x="8" y="-96.5" font-family="Helvetica,sans-Serif" font-size="10.00">&#45;documentation/cbmc&#45;documentation</text>
<text text-anchor="middle" x="100" y="-85.5" font-family="Helvetica,sans-Serif" font-size="10.00">/src/goto&#45;cc/cl_message_handler.cpp</text>
</a>
</g>
</g>
<!-- Node1&#45;&gt;Node2 -->
<g id="edge1" class="edge">
<title>Node1&#45;&gt;Node2</title>
<path fill="none" stroke="midnightblue" d="M252.1,-153.03C221.41,-142.33 185.29,-129.73 155.95,-119.51"/>
<polygon fill="midnightblue" stroke="midnightblue" points="251.26,-156.44 261.86,-156.43 253.57,-149.83 251.26,-156.44"/>
</g>
<!-- Node3 -->
<g id="node3" class="node">
<title>Node3</title>
<g id="a_node3"><a xlink:href="ms__cl__mode_8h.html" target="_top" xlink:title=" ">
<polygon fill="none" stroke="black" points="218,-78.5 218,-119.5 418,-119.5 418,-78.5 218,-78.5"/>
<text text-anchor="start" x="226" y="-107.5" font-family="Helvetica,sans-Serif" font-size="10.00">/home/runner/work/cbmc</text>
<text text-anchor="start" x="226" y="-96.5" font-family="Helvetica,sans-Serif" font-size="10.00">&#45;documentation/cbmc&#45;documentation</text>
<text text-anchor="middle" x="318" y="-85.5" font-family="Helvetica,sans-Serif" font-size="10.00">/src/goto&#45;cc/ms_cl_mode.h</text>
</a>
</g>
</g>
<!-- Node1&#45;&gt;Node3 -->
<g id="edge2" class="edge">
<title>Node1&#45;&gt;Node3</title>
<path fill="none" stroke="midnightblue" d="M318,-146.3C318,-137.3 318,-127.65 318,-119.51"/>
<polygon fill="midnightblue" stroke="midnightblue" points="314.5,-146.43 318,-156.43 321.5,-146.43 314.5,-146.43"/>
</g>
<!-- Node6 -->
<g id="node6" class="node">
<title>Node6</title>
<g id="a_node6"><a xlink:href="ms__link__mode_8h.html" target="_top" xlink:title=" ">
<polygon fill="none" stroke="black" points="436,-78.5 436,-119.5 636,-119.5 636,-78.5 436,-78.5"/>
<text text-anchor="start" x="444" y="-107.5" font-family="Helvetica,sans-Serif" font-size="10.00">/home/runner/work/cbmc</text>
<text text-anchor="start" x="444" y="-96.5" font-family="Helvetica,sans-Serif" font-size="10.00">&#45;documentation/cbmc&#45;documentation</text>
<text text-anchor="middle" x="536" y="-85.5" font-family="Helvetica,sans-Serif" font-size="10.00">/src/goto&#45;cc/ms_link_mode.h</text>
</a>
</g>
</g>
<!-- Node1&#45;&gt;Node6 -->
<g id="edge5" class="edge">
<title>Node1&#45;&gt;Node6</title>
<path fill="none" stroke="midnightblue" d="M383.9,-153.03C414.59,-142.33 450.71,-129.73 480.05,-119.51"/>
<polygon fill="midnightblue" stroke="midnightblue" points="382.43,-149.83 374.14,-156.43 384.74,-156.44 382.43,-149.83"/>
</g>
<!-- Node4 -->
<g id="node4" class="node">
<title>Node4</title>
<g id="a_node4"><a xlink:href="goto__cc__main_8cpp.html" target="_top" xlink:title=" ">
<polygon fill="none" stroke="black" points="327,-0.5 327,-41.5 527,-41.5 527,-0.5 327,-0.5"/>
<text text-anchor="start" x="335" y="-29.5" font-family="Helvetica,sans-Serif" font-size="10.00">/home/runner/work/cbmc</text>
<text text-anchor="start" x="335" y="-18.5" font-family="Helvetica,sans-Serif" font-size="10.00">&#45;documentation/cbmc&#45;documentation</text>
<text text-anchor="middle" x="427" y="-7.5" font-family="Helvetica,sans-Serif" font-size="10.00">/src/goto&#45;cc/goto_cc_main.cpp</text>
</a>
</g>
</g>
<!-- Node3&#45;&gt;Node4 -->
<g id="edge3" class="edge">
<title>Node3&#45;&gt;Node4</title>
<path fill="none" stroke="midnightblue" d="M354.38,-72.64C368.93,-62.49 385.43,-50.98 399.02,-41.51"/>
<polygon fill="midnightblue" stroke="midnightblue" points="352.27,-69.84 346.07,-78.43 356.27,-75.58 352.27,-69.84"/>
</g>
<!-- Node5 -->
<g id="node5" class="node">
<title>Node5</title>
<g id="a_node5"><a xlink:href="ms__cl__mode_8cpp.html" target="_top" xlink:title=" ">
<polygon fill="none" stroke="black" points="109,-0.5 109,-41.5 309,-41.5 309,-0.5 109,-0.5"/>
<text text-anchor="start" x="117" y="-29.5" font-family="Helvetica,sans-Serif" font-size="10.00">/home/runner/work/cbmc</text>
<text text-anchor="start" x="117" y="-18.5" font-family="Helvetica,sans-Serif" font-size="10.00">&#45;documentation/cbmc&#45;documentation</text>
<text text-anchor="middle" x="209" y="-7.5" font-family="Helvetica,sans-Serif" font-size="10.00">/src/goto&#45;cc/ms_cl_mode.cpp</text>
</a>
</g>
</g>
<!-- Node3&#45;&gt;Node5 -->
<g id="edge4" class="edge">
<title>Node3&#45;&gt;Node5</title>
<path fill="none" stroke="midnightblue" d="M281.62,-72.64C267.07,-62.49 250.57,-50.98 236.98,-41.51"/>
<polygon fill="midnightblue" stroke="midnightblue" points="279.73,-75.58 289.93,-78.43 283.73,-69.84 279.73,-75.58"/>
</g>
<!-- Node6&#45;&gt;Node4 -->
<g id="edge6" class="edge">
<title>Node6&#45;&gt;Node4</title>
<path fill="none" stroke="midnightblue" d="M499.62,-72.64C485.07,-62.49 468.57,-50.98 454.98,-41.51"/>
<polygon fill="midnightblue" stroke="midnightblue" points="497.73,-75.58 507.93,-78.43 501.73,-69.84 497.73,-75.58"/>
</g>
<!-- Node7 -->
<g id="node7" class="node">
<title>Node7</title>
<g id="a_node7"><a xlink:href="ms__link__mode_8cpp.html" target="_top" xlink:title=" ">
<polygon fill="none" stroke="black" points="545,-0.5 545,-41.5 745,-41.5 745,-0.5 545,-0.5"/>
<text text-anchor="start" x="553" y="-29.5" font-family="Helvetica,sans-Serif" font-size="10.00">/home/runner/work/cbmc</text>
<text text-anchor="start" x="553" y="-18.5" font-family="Helvetica,sans-Serif" font-size="10.00">&#45;documentation/cbmc&#45;documentation</text>
<text text-anchor="middle" x="645" y="-7.5" font-family="Helvetica,sans-Serif" font-size="10.00">/src/goto&#45;cc/ms_link_mode.cpp</text>
</a>
</g>
</g>
<!-- Node6&#45;&gt;Node7 -->
<g id="edge7" class="edge">
<title>Node6&#45;&gt;Node7</title>
<path fill="none" stroke="midnightblue" d="M572.38,-72.64C586.93,-62.49 603.43,-50.98 617.02,-41.51"/>
<polygon fill="midnightblue" stroke="midnightblue" points="570.27,-69.84 564.07,-78.43 574.27,-75.58 570.27,-69.84"/>
</g>
</g>
</svg>
