<?xml version="1.0" encoding="UTF-8" standalone="no"?>
<!DOCTYPE svg PUBLIC "-//W3C//DTD SVG 1.1//EN"
 "http://www.w3.org/Graphics/SVG/1.1/DTD/svg11.dtd">
<!-- Generated by graphviz version 2.43.0 (0)
 -->
<!-- Title: /home/runner/work/cbmc&#45;documentation/cbmc&#45;documentation/src/goto&#45;programs/class_identifier.h Pages: 1 -->
<svg width="1958pt" height="139pt"
 viewBox="0.00 0.00 1957.50 139.00" xmlns="http://www.w3.org/2000/svg" xmlns:xlink="http://www.w3.org/1999/xlink">
<g id="graph0" class="graph" transform="scale(1 1) rotate(0) translate(4 135)">
<title>/home/runner/work/cbmc&#45;documentation/cbmc&#45;documentation/src/goto&#45;programs/class_identifier.h</title>
<!-- Node1 -->
<g id="node1" class="node">
<title>Node1</title>
<g id="a_node1"><a xlink:title=" ">
<polygon fill="#bfbfbf" stroke="black" points="877.5,-89.5 877.5,-130.5 1077.5,-130.5 1077.5,-89.5 877.5,-89.5"/>
<text text-anchor="start" x="885.5" y="-118.5" font-family="Helvetica,sans-Serif" font-size="10.00">/home/runner/work/cbmc</text>
<text text-anchor="start" x="885.5" y="-107.5" font-family="Helvetica,sans-Serif" font-size="10.00">&#45;documentation/cbmc&#45;documentation</text>
<text text-anchor="middle" x="977.5" y="-96.5" font-family="Helvetica,sans-Serif" font-size="10.00">/src/goto&#45;programs/class_identifier.h</text>
</a>
</g>
</g>
<!-- Node2 -->
<g id="node2" class="node">
<title>Node2</title>
<g id="a_node2"><a xlink:href="class__identifier_8cpp.html" target="_top" xlink:title=" ">
<polygon fill="none" stroke="black" points="0,-6 0,-47 205,-47 205,-6 0,-6"/>
<text text-anchor="start" x="8" y="-35" font-family="Helvetica,sans-Serif" font-size="10.00">/home/runner/work/cbmc</text>
<text text-anchor="start" x="8" y="-24" font-family="Helvetica,sans-Serif" font-size="10.00">&#45;documentation/cbmc&#45;documentation</text>
<text text-anchor="middle" x="102.5" y="-13" font-family="Helvetica,sans-Serif" font-size="10.00">/src/goto&#45;programs/class_identifier.cpp</text>
</a>
</g>
</g>
<!-- Node1&#45;&gt;Node2 -->
<g id="edge1" class="edge">
<title>Node1&#45;&gt;Node2</title>
<path fill="none" stroke="midnightblue" d="M867.23,-106.11C718.36,-101.03 445.15,-87.52 214.5,-53 203.75,-51.39 192.5,-49.31 181.46,-47.03"/>
<polygon fill="midnightblue" stroke="midnightblue" points="867.18,-109.61 877.29,-106.45 867.41,-102.62 867.18,-109.61"/>
</g>
<!-- Node3 -->
<g id="node3" class="node">
<title>Node3</title>
<g id="a_node3"><a xlink:href="remove__virtual__functions_8cpp.html" target="_top" xlink:title=" ">
<polygon fill="none" stroke="black" points="223.5,-0.5 223.5,-52.5 423.5,-52.5 423.5,-0.5 223.5,-0.5"/>
<text text-anchor="start" x="231.5" y="-40.5" font-family="Helvetica,sans-Serif" font-size="10.00">/home/runner/work/cbmc</text>
<text text-anchor="start" x="231.5" y="-29.5" font-family="Helvetica,sans-Serif" font-size="10.00">&#45;documentation/cbmc&#45;documentation</text>
<text text-anchor="start" x="231.5" y="-18.5" font-family="Helvetica,sans-Serif" font-size="10.00">/src/goto&#45;programs/remove_virtual</text>
<text text-anchor="middle" x="323.5" y="-7.5" font-family="Helvetica,sans-Serif" font-size="10.00">_functions.cpp</text>
</a>
</g>
</g>
<!-- Node1&#45;&gt;Node3 -->
<g id="edge2" class="edge">
<title>Node1&#45;&gt;Node3</title>
<path fill="none" stroke="midnightblue" d="M867.13,-101.8C756.64,-93.63 582.03,-78.07 432.5,-53 429.62,-52.52 426.71,-52 423.78,-51.47"/>
<polygon fill="midnightblue" stroke="midnightblue" points="867.06,-105.31 877.29,-102.55 867.57,-98.33 867.06,-105.31"/>
</g>
<!-- Node4 -->
<g id="node4" class="node">
<title>Node4</title>
<g id="a_node4"><a xlink:href="assignments__from__json_8cpp.html" target="_top" xlink:title=" ">
<polygon fill="none" stroke="black" points="441.5,-0.5 441.5,-52.5 641.5,-52.5 641.5,-0.5 441.5,-0.5"/>
<text text-anchor="start" x="449.5" y="-40.5" font-family="Helvetica,sans-Serif" font-size="10.00">/home/runner/work/cbmc</text>
<text text-anchor="start" x="449.5" y="-29.5" font-family="Helvetica,sans-Serif" font-size="10.00">&#45;documentation/cbmc&#45;documentation</text>
<text text-anchor="start" x="449.5" y="-18.5" font-family="Helvetica,sans-Serif" font-size="10.00">/jbmc/src/java_bytecode/assignments</text>
<text text-anchor="middle" x="541.5" y="-7.5" font-family="Helvetica,sans-Serif" font-size="10.00">_from_json.cpp</text>
</a>
</g>
</g>
<!-- Node1&#45;&gt;Node4 -->
<g id="edge3" class="edge">
<title>Node1&#45;&gt;Node4</title>
<path fill="none" stroke="midnightblue" d="M867.35,-91.83C803.78,-81.5 722.44,-67.56 650.5,-53 647.55,-52.4 644.55,-51.78 641.53,-51.15"/>
<polygon fill="midnightblue" stroke="midnightblue" points="866.96,-95.31 877.39,-93.46 868.08,-88.4 866.96,-95.31"/>
</g>
<!-- Node5 -->
<g id="node5" class="node">
<title>Node5</title>
<g id="a_node5"><a xlink:href="java__entry__point_8cpp.html" target="_top" xlink:title=" ">
<polygon fill="none" stroke="black" points="659.5,-0.5 659.5,-52.5 859.5,-52.5 859.5,-0.5 659.5,-0.5"/>
<text text-anchor="start" x="667.5" y="-40.5" font-family="Helvetica,sans-Serif" font-size="10.00">/home/runner/work/cbmc</text>
<text text-anchor="start" x="667.5" y="-29.5" font-family="Helvetica,sans-Serif" font-size="10.00">&#45;documentation/cbmc&#45;documentation</text>
<text text-anchor="start" x="667.5" y="-18.5" font-family="Helvetica,sans-Serif" font-size="10.00">/jbmc/src/java_bytecode/java</text>
<text text-anchor="middle" x="759.5" y="-7.5" font-family="Helvetica,sans-Serif" font-size="10.00">_entry_point.cpp</text>
</a>
</g>
</g>
<!-- Node1&#45;&gt;Node5 -->
<g id="edge4" class="edge">
<title>Node1&#45;&gt;Node5</title>
<path fill="none" stroke="midnightblue" d="M915.67,-85.89C887.87,-75.49 854.98,-63.2 826.58,-52.58"/>
<polygon fill="midnightblue" stroke="midnightblue" points="914.69,-89.26 925.28,-89.48 917.14,-82.7 914.69,-89.26"/>
</g>
<!-- Node6 -->
<g id="node6" class="node">
<title>Node6</title>
<g id="a_node6"><a xlink:href="java__object__factory_8cpp.html" target="_top" xlink:title=" ">
<polygon fill="none" stroke="black" points="877.5,-0.5 877.5,-52.5 1077.5,-52.5 1077.5,-0.5 877.5,-0.5"/>
<text text-anchor="start" x="885.5" y="-40.5" font-family="Helvetica,sans-Serif" font-size="10.00">/home/runner/work/cbmc</text>
<text text-anchor="start" x="885.5" y="-29.5" font-family="Helvetica,sans-Serif" font-size="10.00">&#45;documentation/cbmc&#45;documentation</text>
<text text-anchor="start" x="885.5" y="-18.5" font-family="Helvetica,sans-Serif" font-size="10.00">/jbmc/src/java_bytecode/java</text>
<text text-anchor="middle" x="977.5" y="-7.5" font-family="Helvetica,sans-Serif" font-size="10.00">_object_factory.cpp</text>
</a>
</g>
</g>
<!-- Node1&#45;&gt;Node6 -->
<g id="edge5" class="edge">
<title>Node1&#45;&gt;Node6</title>
<path fill="none" stroke="midnightblue" d="M977.5,-79.12C977.5,-70.41 977.5,-60.99 977.5,-52.61"/>
<polygon fill="midnightblue" stroke="midnightblue" points="974,-79.27 977.5,-89.27 981,-79.27 974,-79.27"/>
</g>
<!-- Node7 -->
<g id="node7" class="node">
<title>Node7</title>
<g id="a_node7"><a xlink:href="java__root__class_8cpp.html" target="_top" xlink:title=" ">
<polygon fill="none" stroke="black" points="1095.5,-0.5 1095.5,-52.5 1295.5,-52.5 1295.5,-0.5 1095.5,-0.5"/>
<text text-anchor="start" x="1103.5" y="-40.5" font-family="Helvetica,sans-Serif" font-size="10.00">/home/runner/work/cbmc</text>
<text text-anchor="start" x="1103.5" y="-29.5" font-family="Helvetica,sans-Serif" font-size="10.00">&#45;documentation/cbmc&#45;documentation</text>
<text text-anchor="start" x="1103.5" y="-18.5" font-family="Helvetica,sans-Serif" font-size="10.00">/jbmc/src/java_bytecode/java</text>
<text text-anchor="middle" x="1195.5" y="-7.5" font-family="Helvetica,sans-Serif" font-size="10.00">_root_class.cpp</text>
</a>
</g>
</g>
<!-- Node1&#45;&gt;Node7 -->
<g id="edge6" class="edge">
<title>Node1&#45;&gt;Node7</title>
<path fill="none" stroke="midnightblue" d="M1039.33,-85.89C1067.13,-75.49 1100.02,-63.2 1128.42,-52.58"/>
<polygon fill="midnightblue" stroke="midnightblue" points="1037.86,-82.7 1029.72,-89.48 1040.31,-89.26 1037.86,-82.7"/>
</g>
<!-- Node8 -->
<g id="node8" class="node">
<title>Node8</title>
<g id="a_node8"><a xlink:href="java__string__library__preprocess_8cpp.html" target="_top" xlink:title=" ">
<polygon fill="none" stroke="black" points="1313.5,-0.5 1313.5,-52.5 1513.5,-52.5 1513.5,-0.5 1313.5,-0.5"/>
<text text-anchor="start" x="1321.5" y="-40.5" font-family="Helvetica,sans-Serif" font-size="10.00">/home/runner/work/cbmc</text>
<text text-anchor="start" x="1321.5" y="-29.5" font-family="Helvetica,sans-Serif" font-size="10.00">&#45;documentation/cbmc&#45;documentation</text>
<text text-anchor="start" x="1321.5" y="-18.5" font-family="Helvetica,sans-Serif" font-size="10.00">/jbmc/src/java_bytecode/java</text>
<text text-anchor="middle" x="1413.5" y="-7.5" font-family="Helvetica,sans-Serif" font-size="10.00">_string_library_preprocess.cpp</text>
</a>
</g>
</g>
<!-- Node1&#45;&gt;Node8 -->
<g id="edge7" class="edge">
<title>Node1&#45;&gt;Node8</title>
<path fill="none" stroke="midnightblue" d="M1087.65,-91.83C1151.22,-81.5 1232.56,-67.56 1304.5,-53 1307.45,-52.4 1310.45,-51.78 1313.47,-51.15"/>
<polygon fill="midnightblue" stroke="midnightblue" points="1086.92,-88.4 1077.61,-93.46 1088.04,-95.31 1086.92,-88.4"/>
</g>
<!-- Node9 -->
<g id="node9" class="node">
<title>Node9</title>
<g id="a_node9"><a xlink:href="remove__instanceof_8cpp.html" target="_top" xlink:title=" ">
<polygon fill="none" stroke="black" points="1531.5,-0.5 1531.5,-52.5 1731.5,-52.5 1731.5,-0.5 1531.5,-0.5"/>
<text text-anchor="start" x="1539.5" y="-40.5" font-family="Helvetica,sans-Serif" font-size="10.00">/home/runner/work/cbmc</text>
<text text-anchor="start" x="1539.5" y="-29.5" font-family="Helvetica,sans-Serif" font-size="10.00">&#45;documentation/cbmc&#45;documentation</text>
<text text-anchor="start" x="1539.5" y="-18.5" font-family="Helvetica,sans-Serif" font-size="10.00">/jbmc/src/java_bytecode/remove</text>
<text text-anchor="middle" x="1631.5" y="-7.5" font-family="Helvetica,sans-Serif" font-size="10.00">_instanceof.cpp</text>
</a>
</g>
</g>
<!-- Node1&#45;&gt;Node9 -->
<g id="edge8" class="edge">
<title>Node1&#45;&gt;Node9</title>
<path fill="none" stroke="midnightblue" d="M1087.87,-101.8C1198.36,-93.63 1372.97,-78.07 1522.5,-53 1525.38,-52.52 1528.29,-52 1531.22,-51.47"/>
<polygon fill="midnightblue" stroke="midnightblue" points="1087.43,-98.33 1077.71,-102.55 1087.94,-105.31 1087.43,-98.33"/>
</g>
<!-- Node10 -->
<g id="node10" class="node">
<title>Node10</title>
<g id="a_node10"><a xlink:href="remove__java__new_8cpp.html" target="_top" xlink:title=" ">
<polygon fill="none" stroke="black" points="1749.5,-0.5 1749.5,-52.5 1949.5,-52.5 1949.5,-0.5 1749.5,-0.5"/>
<text text-anchor="start" x="1757.5" y="-40.5" font-family="Helvetica,sans-Serif" font-size="10.00">/home/runner/work/cbmc</text>
<text text-anchor="start" x="1757.5" y="-29.5" font-family="Helvetica,sans-Serif" font-size="10.00">&#45;documentation/cbmc&#45;documentation</text>
<text text-anchor="start" x="1757.5" y="-18.5" font-family="Helvetica,sans-Serif" font-size="10.00">/jbmc/src/java_bytecode/remove</text>
<text text-anchor="middle" x="1849.5" y="-7.5" font-family="Helvetica,sans-Serif" font-size="10.00">_java_new.cpp</text>
</a>
</g>
</g>
<!-- Node1&#45;&gt;Node10 -->
<g id="edge9" class="edge">
<title>Node1&#45;&gt;Node10</title>
<path fill="none" stroke="midnightblue" d="M1087.8,-106.32C1236.71,-101.46 1509.95,-88.21 1740.5,-53 1743.38,-52.56 1746.3,-52.08 1749.24,-51.58"/>
<polygon fill="midnightblue" stroke="midnightblue" points="1087.62,-102.82 1077.74,-106.64 1087.85,-109.82 1087.62,-102.82"/>
</g>
</g>
</svg>
