<?xml version="1.0" encoding="UTF-8" standalone="no"?>
<!DOCTYPE svg PUBLIC "-//W3C//DTD SVG 1.1//EN"
 "http://www.w3.org/Graphics/SVG/1.1/DTD/svg11.dtd">
<!-- Generated by graphviz version 2.43.0 (0)
 -->
<!-- Title: invalid_restriction_exceptiont Pages: 1 -->
<svg width="279pt" height="233pt"
 viewBox="0.00 0.00 278.50 233.00" xmlns="http://www.w3.org/2000/svg" xmlns:xlink="http://www.w3.org/1999/xlink">
<g id="graph0" class="graph" transform="scale(1 1) rotate(0) translate(4 229)">
<title>invalid_restriction_exceptiont</title>
<!-- Node1 -->
<g id="node1" class="node">
<title>Node1</title>
<g id="a_node1"><a xlink:title=" ">
<polygon fill="#bfbfbf" stroke="black" points="0,-0.5 0,-30.5 104,-30.5 104,-0.5 0,-0.5"/>
<text text-anchor="start" x="8" y="-18.5" font-family="Helvetica,sans-Serif" font-size="10.00">invalid_restriction</text>
<text text-anchor="middle" x="52" y="-7.5" font-family="Helvetica,sans-Serif" font-size="10.00">_exceptiont</text>
</a>
</g>
</g>
<!-- Node2 -->
<g id="node2" class="node">
<title>Node2</title>
<g id="a_node2"><a xlink:href="classcprover__exception__baset.html" target="_top" xlink:title="Base class for exceptions thrown in the cprover project.">
<polygon fill="none" stroke="black" points="131.5,-69.5 131.5,-88.5 270.5,-88.5 270.5,-69.5 131.5,-69.5"/>
<text text-anchor="middle" x="201" y="-76.5" font-family="Helvetica,sans-Serif" font-size="10.00">cprover_exception_baset</text>
</a>
</g>
</g>
<!-- Node2&#45;&gt;Node1 -->
<g id="edge1" class="edge">
<title>Node2&#45;&gt;Node1</title>
<path fill="none" stroke="midnightblue" d="M170.75,-65.51C146.17,-55.37 111.52,-41.07 85.99,-30.53"/>
<polygon fill="midnightblue" stroke="midnightblue" points="169.7,-68.87 180.28,-69.45 172.37,-62.4 169.7,-68.87"/>
</g>
<!-- Node3 -->
<g id="node3" class="node">
<title>Node3</title>
<g id="a_node3"><a xlink:title="STL class.">
<polygon fill="none" stroke="#bfbfbf" points="23.5,-137.5 23.5,-156.5 88.5,-156.5 88.5,-137.5 23.5,-137.5"/>
<text text-anchor="middle" x="56" y="-144.5" font-family="Helvetica,sans-Serif" font-size="10.00">std::string</text>
</a>
</g>
</g>
<!-- Node3&#45;&gt;Node1 -->
<g id="edge4" class="edge">
<title>Node3&#45;&gt;Node1</title>
<path fill="none" stroke="#9a32cd" stroke-dasharray="5,2" d="M53.49,-127.29C52.16,-116.42 50.67,-102.46 50,-90 49.48,-80.24 49.81,-77.78 50,-68 50.24,-55.48 50.82,-41.25 51.29,-30.92"/>
<polygon fill="#9a32cd" stroke="#9a32cd" points="50.03,-127.82 54.78,-137.29 56.97,-126.93 50.03,-127.82"/>
<text text-anchor="middle" x="86.5" y="-82" font-family="Helvetica,sans-Serif" font-size="10.00"> reason</text>
<text text-anchor="middle" x="86.5" y="-71" font-family="Helvetica,sans-Serif" font-size="10.00">correct_format</text>
</g>
<!-- Node3&#45;&gt;Node2 -->
<g id="edge2" class="edge">
<title>Node3&#45;&gt;Node2</title>
<path fill="none" stroke="#9a32cd" stroke-dasharray="5,2" d="M84.11,-133.21C112.96,-120.07 157.07,-100 182.04,-88.63"/>
<polygon fill="#9a32cd" stroke="#9a32cd" points="82.61,-130.04 74.96,-137.37 85.51,-136.41 82.61,-130.04"/>
<text text-anchor="middle" x="155.5" y="-111" font-family="Helvetica,sans-Serif" font-size="10.00"> reason</text>
</g>
<!-- Node4 -->
<g id="node4" class="node">
<title>Node4</title>
<g id="a_node4"><a xlink:title="STL class.">
<polygon fill="none" stroke="#bfbfbf" points="4,-194.5 4,-224.5 108,-224.5 108,-194.5 4,-194.5"/>
<text text-anchor="start" x="12" y="-212.5" font-family="Helvetica,sans-Serif" font-size="10.00">std::basic_string&lt;</text>
<text text-anchor="middle" x="56" y="-201.5" font-family="Helvetica,sans-Serif" font-size="10.00"> char &gt;</text>
</a>
</g>
</g>
<!-- Node4&#45;&gt;Node3 -->
<g id="edge3" class="edge">
<title>Node4&#45;&gt;Node3</title>
<path fill="none" stroke="midnightblue" d="M56,-184.35C56,-174.51 56,-163.78 56,-156.54"/>
<polygon fill="midnightblue" stroke="midnightblue" points="52.5,-184.47 56,-194.47 59.5,-184.47 52.5,-184.47"/>
</g>
</g>
</svg>
