<?xml version="1.0" encoding="UTF-8" standalone="no"?>
<!DOCTYPE svg PUBLIC "-//W3C//DTD SVG 1.1//EN"
 "http://www.w3.org/Graphics/SVG/1.1/DTD/svg11.dtd">
<!-- Generated by graphviz version 2.43.0 (0)
 -->
<!-- Title: value_set_analysis_fit Pages: 1 -->
<svg width="1968pt" height="623pt"
 viewBox="0.00 0.00 1968.00 622.50" xmlns="http://www.w3.org/2000/svg" xmlns:xlink="http://www.w3.org/1999/xlink">
<g id="graph0" class="graph" transform="scale(1 1) rotate(0) translate(4 618.5)">
<title>value_set_analysis_fit</title>
<!-- Node1 -->
<g id="node1" class="node">
<title>Node1</title>
<g id="a_node1"><a xlink:title=" ">
<polygon fill="#bfbfbf" stroke="black" points="1835,-387.5 1835,-406.5 1960,-406.5 1960,-387.5 1835,-387.5"/>
<text text-anchor="middle" x="1897.5" y="-394.5" font-family="Helvetica,sans-Serif" font-size="10.00">value_set_analysis_fit</text>
</a>
</g>
</g>
<!-- Node2 -->
<g id="node2" class="node">
<title>Node2</title>
<g id="a_node2"><a xlink:href="classvalue__setst.html" target="_top" xlink:title=" ">
<polygon fill="none" stroke="black" points="1689,-409.5 1689,-428.5 1762,-428.5 1762,-409.5 1689,-409.5"/>
<text text-anchor="middle" x="1725.5" y="-416.5" font-family="Helvetica,sans-Serif" font-size="10.00">value_setst</text>
</a>
</g>
</g>
<!-- Node2&#45;&gt;Node1 -->
<g id="edge1" class="edge">
<title>Node2&#45;&gt;Node1</title>
<path fill="none" stroke="midnightblue" d="M1772.15,-413.09C1791.39,-410.6 1814.09,-407.67 1834.79,-404.99"/>
<polygon fill="midnightblue" stroke="midnightblue" points="1771.61,-409.63 1762.14,-414.39 1772.5,-416.58 1771.61,-409.63"/>
</g>
<!-- Node3 -->
<g id="node3" class="node">
<title>Node3</title>
<g id="a_node3"><a xlink:href="classflow__insensitive__analysist.html" target="_top" xlink:title=" ">
<polygon fill="none" stroke="black" points="1653,-360 1653,-390 1798,-390 1798,-360 1653,-360"/>
<text text-anchor="start" x="1661" y="-378" font-family="Helvetica,sans-Serif" font-size="10.00">flow_insensitive_analysist</text>
<text text-anchor="middle" x="1725.5" y="-367" font-family="Helvetica,sans-Serif" font-size="10.00">&lt; value_set_domain_fit &gt;</text>
</a>
</g>
</g>
<!-- Node3&#45;&gt;Node1 -->
<g id="edge2" class="edge">
<title>Node3&#45;&gt;Node1</title>
<path fill="none" stroke="midnightblue" d="M1808.22,-385.57C1817.21,-386.74 1826.25,-387.91 1834.94,-389.03"/>
<polygon fill="midnightblue" stroke="midnightblue" points="1808.47,-382.08 1798.1,-384.27 1807.57,-389.02 1808.47,-382.08"/>
</g>
<!-- Node4 -->
<g id="node4" class="node">
<title>Node4</title>
<g id="a_node4"><a xlink:href="classflow__insensitive__analysis__baset.html" target="_top" xlink:title=" ">
<polygon fill="none" stroke="black" points="930,-411 930,-441 1071,-441 1071,-411 930,-411"/>
<text text-anchor="start" x="938" y="-429" font-family="Helvetica,sans-Serif" font-size="10.00">flow_insensitive_analysis</text>
<text text-anchor="middle" x="1000.5" y="-418" font-family="Helvetica,sans-Serif" font-size="10.00">_baset</text>
</a>
</g>
</g>
<!-- Node4&#45;&gt;Node3 -->
<g id="edge3" class="edge">
<title>Node4&#45;&gt;Node3</title>
<path fill="none" stroke="midnightblue" d="M1081.72,-426.31C1195.11,-425.91 1408.56,-422.04 1589,-401 1611.13,-398.42 1635.06,-394.28 1656.57,-390.06"/>
<polygon fill="midnightblue" stroke="midnightblue" points="1081.39,-422.81 1071.4,-426.34 1081.41,-429.81 1081.39,-422.81"/>
</g>
<!-- Node35 -->
<g id="node32" class="node">
<title>Node35</title>
<g id="a_node32"><a xlink:href="classflow__insensitive__analysist.html" target="_top" xlink:title=" ">
<polygon fill="none" stroke="black" points="1208,-365.5 1208,-384.5 1381,-384.5 1381,-365.5 1208,-365.5"/>
<text text-anchor="middle" x="1294.5" y="-372.5" font-family="Helvetica,sans-Serif" font-size="10.00">flow_insensitive_analysist&lt; T &gt;</text>
</a>
</g>
</g>
<!-- Node4&#45;&gt;Node35 -->
<g id="edge48" class="edge">
<title>Node4&#45;&gt;Node35</title>
<path fill="none" stroke="midnightblue" d="M1081.23,-412.07C1131.34,-403.32 1194.66,-392.26 1239.06,-384.51"/>
<polygon fill="midnightblue" stroke="midnightblue" points="1080.32,-408.68 1071.07,-413.85 1081.52,-415.58 1080.32,-408.68"/>
</g>
<!-- Node5 -->
<g id="node5" class="node">
<title>Node5</title>
<g id="a_node5"><a xlink:title=" ">
<polygon fill="none" stroke="#bfbfbf" points="685.5,-410.5 685.5,-429.5 797.5,-429.5 797.5,-410.5 685.5,-410.5"/>
<text text-anchor="middle" x="741.5" y="-417.5" font-family="Helvetica,sans-Serif" font-size="10.00">std::set&lt; irep_idt &gt;</text>
</a>
</g>
</g>
<!-- Node5&#45;&gt;Node4 -->
<g id="edge4" class="edge">
<title>Node5&#45;&gt;Node4</title>
<path fill="none" stroke="#9a32cd" stroke-dasharray="5,2" d="M808.24,-419.61C839.65,-419.62 877.78,-419.92 912,-421 917.78,-421.18 923.77,-421.42 929.78,-421.69"/>
<polygon fill="#9a32cd" stroke="#9a32cd" points="807.86,-416.11 797.86,-419.61 807.86,-423.11 807.86,-416.11"/>
<text text-anchor="middle" x="873" y="-435" font-family="Helvetica,sans-Serif" font-size="10.00"> functions_done</text>
<text text-anchor="middle" x="873" y="-424" font-family="Helvetica,sans-Serif" font-size="10.00">recursion_set</text>
</g>
<!-- Node6 -->
<g id="node6" class="node">
<title>Node6</title>
<g id="a_node6"><a xlink:href="classdstringt.html" target="_top" xlink:title="dstringt has one field, an unsigned integer no which is an index into a static table of strings.">
<polygon fill="none" stroke="black" points="432.5,-249.5 432.5,-268.5 486.5,-268.5 486.5,-249.5 432.5,-249.5"/>
<text text-anchor="middle" x="459.5" y="-256.5" font-family="Helvetica,sans-Serif" font-size="10.00">dstringt</text>
</a>
</g>
</g>
<!-- Node6&#45;&gt;Node5 -->
<g id="edge5" class="edge">
<title>Node6&#45;&gt;Node5</title>
<path fill="none" stroke="#9a32cd" stroke-dasharray="5,2" d="M496.64,-264.85C547.73,-273.34 636.27,-288.93 649,-297 694.85,-326.07 725.73,-386.92 736.38,-410.44"/>
<polygon fill="#9a32cd" stroke="#9a32cd" points="497.09,-261.38 486.66,-263.2 495.95,-268.29 497.09,-261.38"/>
<text text-anchor="middle" x="600.5" y="-300" font-family="Helvetica,sans-Serif" font-size="10.00"> keys</text>
</g>
<!-- Node23 -->
<g id="node23" class="node">
<title>Node23</title>
<g id="a_node23"><a xlink:title=" ">
<polygon fill="none" stroke="#bfbfbf" points="672,-81.5 672,-122.5 811,-122.5 811,-81.5 672,-81.5"/>
<text text-anchor="start" x="680" y="-110.5" font-family="Helvetica,sans-Serif" font-size="10.00">std::unordered_map</text>
<text text-anchor="start" x="680" y="-99.5" font-family="Helvetica,sans-Serif" font-size="10.00">&lt; dstringt, number_type,</text>
<text text-anchor="middle" x="741.5" y="-88.5" font-family="Helvetica,sans-Serif" font-size="10.00"> std::hash&lt; dstringt &gt; &gt;</text>
</a>
</g>
</g>
<!-- Node6&#45;&gt;Node23 -->
<g id="edge30" class="edge">
<title>Node6&#45;&gt;Node23</title>
<path fill="none" stroke="#9a32cd" stroke-dasharray="5,2" d="M496.68,-254.69C510.07,-251.35 524.33,-245.44 534,-235 557,-210.16 528.85,-185.7 552,-161 568.65,-143.24 624.83,-127.03 671.56,-116.11"/>
<polygon fill="#9a32cd" stroke="#9a32cd" points="495.77,-251.3 486.7,-256.78 497.2,-258.16 495.77,-251.3"/>
<text text-anchor="middle" x="600.5" y="-164" font-family="Helvetica,sans-Serif" font-size="10.00"> keys</text>
</g>
<!-- Node28 -->
<g id="node28" class="node">
<title>Node28</title>
<g id="a_node28"><a xlink:title=" ">
<polygon fill="none" stroke="#bfbfbf" points="943.5,-223.5 943.5,-264.5 1057.5,-264.5 1057.5,-223.5 943.5,-223.5"/>
<text text-anchor="start" x="951.5" y="-252.5" font-family="Helvetica,sans-Serif" font-size="10.00">std::unordered_map</text>
<text text-anchor="start" x="951.5" y="-241.5" font-family="Helvetica,sans-Serif" font-size="10.00">&lt; idt, entryt, string</text>
<text text-anchor="middle" x="1000.5" y="-230.5" font-family="Helvetica,sans-Serif" font-size="10.00">_hash &gt;</text>
</a>
</g>
</g>
<!-- Node6&#45;&gt;Node28 -->
<g id="edge40" class="edge">
<title>Node6&#45;&gt;Node28</title>
<path fill="none" stroke="#9a32cd" stroke-dasharray="5,2" d="M496.81,-258.38C573.5,-257.01 757.64,-253.41 912,-248 922.18,-247.64 933.03,-247.2 943.49,-246.74"/>
<polygon fill="#9a32cd" stroke="#9a32cd" points="496.65,-254.88 486.72,-258.56 496.78,-261.88 496.65,-254.88"/>
<text text-anchor="middle" x="741.5" y="-258" font-family="Helvetica,sans-Serif" font-size="10.00"> keys</text>
</g>
<!-- Node29 -->
<g id="node29" class="node">
<title>Node29</title>
<g id="a_node29"><a xlink:href="structvalue__set__fit_1_1entryt.html" target="_top" xlink:title=" ">
<polygon fill="none" stroke="black" points="684.5,-200.5 684.5,-219.5 798.5,-219.5 798.5,-200.5 684.5,-200.5"/>
<text text-anchor="middle" x="741.5" y="-207.5" font-family="Helvetica,sans-Serif" font-size="10.00">value_set_fit::entryt</text>
</a>
</g>
</g>
<!-- Node6&#45;&gt;Node29 -->
<g id="edge43" class="edge">
<title>Node6&#45;&gt;Node29</title>
<path fill="none" stroke="#9a32cd" stroke-dasharray="5,2" d="M496.75,-249.99C513.5,-246.01 533.7,-241.45 552,-238 596.21,-229.66 646.65,-222.27 684.22,-217.19"/>
<polygon fill="#9a32cd" stroke="#9a32cd" points="495.72,-246.64 486.81,-252.39 497.35,-253.45 495.72,-246.64"/>
<text text-anchor="middle" x="600.5" y="-241" font-family="Helvetica,sans-Serif" font-size="10.00"> identifier</text>
</g>
<!-- Node7 -->
<g id="node7" class="node">
<title>Node7</title>
<g id="a_node7"><a xlink:title="STL class.">
<polygon fill="none" stroke="#bfbfbf" points="418.5,-487.5 418.5,-506.5 500.5,-506.5 500.5,-487.5 418.5,-487.5"/>
<text text-anchor="middle" x="459.5" y="-494.5" font-family="Helvetica,sans-Serif" font-size="10.00">std::set&lt; K &gt;</text>
</a>
</g>
</g>
<!-- Node7&#45;&gt;Node5 -->
<g id="edge6" class="edge">
<title>Node7&#45;&gt;Node5</title>
<path fill="none" stroke="orange" stroke-dasharray="5,2" d="M510.38,-485.38C518.81,-481.97 527.07,-477.6 534,-472 546.1,-462.23 538.94,-450.43 552,-442 591.44,-416.53 645.38,-412.6 685.46,-414.12"/>
<polygon fill="orange" stroke="orange" points="509.06,-482.14 500.85,-488.83 511.44,-488.72 509.06,-482.14"/>
<text text-anchor="middle" x="600.5" y="-445" font-family="Helvetica,sans-Serif" font-size="10.00"> &lt; irep_idt &gt;</text>
</g>
<!-- Node18 -->
<g id="node18" class="node">
<title>Node18</title>
<g id="a_node18"><a xlink:title=" ">
<polygon fill="none" stroke="#bfbfbf" points="682.5,-558.5 682.5,-577.5 800.5,-577.5 800.5,-558.5 682.5,-558.5"/>
<text text-anchor="middle" x="741.5" y="-565.5" font-family="Helvetica,sans-Serif" font-size="10.00">std::set&lt; locationt &gt;</text>
</a>
</g>
</g>
<!-- Node7&#45;&gt;Node18 -->
<g id="edge24" class="edge">
<title>Node7&#45;&gt;Node18</title>
<path fill="none" stroke="orange" stroke-dasharray="5,2" d="M510.67,-508.06C548.82,-516.75 602.5,-529.6 649,-543 657.1,-545.33 658.91,-546.61 667,-549 678.12,-552.29 690.28,-555.56 701.45,-558.44"/>
<polygon fill="orange" stroke="orange" points="511.36,-504.63 500.83,-505.83 509.81,-511.45 511.36,-504.63"/>
<text text-anchor="middle" x="600.5" y="-546" font-family="Helvetica,sans-Serif" font-size="10.00"> &lt; locationt &gt;</text>
</g>
<!-- Node8 -->
<g id="node8" class="node">
<title>Node8</title>
<g id="a_node8"><a xlink:title=" ">
<polygon fill="none" stroke="#bfbfbf" points="0,-488.5 0,-507.5 29,-507.5 29,-488.5 0,-488.5"/>
<text text-anchor="middle" x="14.5" y="-495.5" font-family="Helvetica,sans-Serif" font-size="10.00">K</text>
</a>
</g>
</g>
<!-- Node8&#45;&gt;Node7 -->
<g id="edge7" class="edge">
<title>Node8&#45;&gt;Node7</title>
<path fill="none" stroke="#9a32cd" stroke-dasharray="5,2" d="M39.58,-497.95C111.94,-497.78 327.96,-497.29 418.2,-497.09"/>
<polygon fill="#9a32cd" stroke="#9a32cd" points="39.24,-494.45 29.24,-497.97 39.25,-501.45 39.24,-494.45"/>
<text text-anchor="middle" x="177" y="-500" font-family="Helvetica,sans-Serif" font-size="10.00"> keys</text>
</g>
<!-- Node12 -->
<g id="node12" class="node">
<title>Node12</title>
<g id="a_node12"><a xlink:title="STL class.">
<polygon fill="none" stroke="#bfbfbf" points="114,-443.5 114,-462.5 240,-462.5 240,-443.5 114,-443.5"/>
<text text-anchor="middle" x="177" y="-450.5" font-family="Helvetica,sans-Serif" font-size="10.00">std::multimap&lt; K, T &gt;</text>
</a>
</g>
</g>
<!-- Node8&#45;&gt;Node12 -->
<g id="edge12" class="edge">
<title>Node8&#45;&gt;Node12</title>
<path fill="none" stroke="#9a32cd" stroke-dasharray="5,2" d="M38.78,-488.79C41.54,-487.8 44.32,-486.85 47,-486 75.65,-476.91 108.46,-468.54 133.83,-462.51"/>
<polygon fill="#9a32cd" stroke="#9a32cd" points="37.31,-485.61 29.18,-492.4 39.77,-492.16 37.31,-485.61"/>
<text text-anchor="middle" x="71.5" y="-489" font-family="Helvetica,sans-Serif" font-size="10.00"> keys</text>
</g>
<!-- Node14 -->
<g id="node14" class="node">
<title>Node14</title>
<g id="a_node14"><a xlink:title="STL class.">
<polygon fill="none" stroke="#bfbfbf" points="120,-309 120,-339 234,-339 234,-309 120,-309"/>
<text text-anchor="start" x="128" y="-327" font-family="Helvetica,sans-Serif" font-size="10.00">std::unordered_map</text>
<text text-anchor="middle" x="177" y="-316" font-family="Helvetica,sans-Serif" font-size="10.00">&lt; K, T &gt;</text>
</a>
</g>
</g>
<!-- Node8&#45;&gt;Node14 -->
<g id="edge15" class="edge">
<title>Node8&#45;&gt;Node14</title>
<path fill="none" stroke="#9a32cd" stroke-dasharray="5,2" d="M15.88,-478.17C17.38,-453 23.5,-409.53 47,-382 65.66,-360.15 94.2,-346.16 119.71,-337.4"/>
<polygon fill="#9a32cd" stroke="#9a32cd" points="12.38,-478.2 15.47,-488.33 19.37,-478.48 12.38,-478.2"/>
<text text-anchor="middle" x="71.5" y="-385" font-family="Helvetica,sans-Serif" font-size="10.00"> keys</text>
</g>
<!-- Node17 -->
<g id="node17" class="node">
<title>Node17</title>
<g id="a_node17"><a xlink:title="STL class.">
<polygon fill="none" stroke="#bfbfbf" points="126.5,-539.5 126.5,-558.5 227.5,-558.5 227.5,-539.5 126.5,-539.5"/>
<text text-anchor="middle" x="177" y="-546.5" font-family="Helvetica,sans-Serif" font-size="10.00">std::map&lt; K, T &gt;</text>
</a>
</g>
</g>
<!-- Node8&#45;&gt;Node17 -->
<g id="edge20" class="edge">
<title>Node8&#45;&gt;Node17</title>
<path fill="none" stroke="#9a32cd" stroke-dasharray="5,2" d="M31.7,-514.69C36.31,-518.61 41.56,-522.4 47,-525 71.66,-536.8 101.54,-542.81 126.34,-545.87"/>
<polygon fill="#9a32cd" stroke="#9a32cd" points="33.92,-511.96 24.21,-507.71 29.15,-517.09 33.92,-511.96"/>
<text text-anchor="middle" x="71.5" y="-543" font-family="Helvetica,sans-Serif" font-size="10.00"> keys</text>
</g>
<!-- Node9 -->
<g id="node9" class="node">
<title>Node9</title>
<g id="a_node9"><a xlink:href="classnamespacet.html" target="_top" xlink:title="A namespacet is essentially one or two symbol tables bound together, to allow for symbol lookups in t...">
<polygon fill="none" stroke="black" points="703,-455.5 703,-474.5 780,-474.5 780,-455.5 703,-455.5"/>
<text text-anchor="middle" x="741.5" y="-462.5" font-family="Helvetica,sans-Serif" font-size="10.00">namespacet</text>
</a>
</g>
</g>
<!-- Node9&#45;&gt;Node4 -->
<g id="edge8" class="edge">
<title>Node9&#45;&gt;Node4</title>
<path fill="none" stroke="#9a32cd" stroke-dasharray="5,2" d="M790.43,-459.59C824.43,-455.56 871.12,-449.62 912,-443 917.8,-442.06 923.81,-441.03 929.84,-439.94"/>
<polygon fill="#9a32cd" stroke="#9a32cd" points="789.82,-456.14 780.3,-460.78 790.64,-463.09 789.82,-456.14"/>
<text text-anchor="middle" x="873" y="-456" font-family="Helvetica,sans-Serif" font-size="10.00"> ns</text>
</g>
<!-- Node10 -->
<g id="node10" class="node">
<title>Node10</title>
<g id="a_node10"><a xlink:href="classnamespace__baset.html" target="_top" xlink:title="Basic interface for a namespace.">
<polygon fill="none" stroke="black" points="407,-396.5 407,-415.5 512,-415.5 512,-396.5 407,-396.5"/>
<text text-anchor="middle" x="459.5" y="-403.5" font-family="Helvetica,sans-Serif" font-size="10.00">namespace_baset</text>
</a>
</g>
</g>
<!-- Node10&#45;&gt;Node9 -->
<g id="edge9" class="edge">
<title>Node10&#45;&gt;Node9</title>
<path fill="none" stroke="midnightblue" d="M522.37,-398.87C560.7,-397.14 609.88,-399.94 649,-419 659.75,-424.24 657.06,-432.36 667,-439 677.8,-446.22 690.84,-451.68 702.92,-455.69"/>
<polygon fill="midnightblue" stroke="midnightblue" points="522.16,-395.38 512.38,-399.43 522.56,-402.37 522.16,-395.38"/>
</g>
<!-- Node11 -->
<g id="node11" class="node">
<title>Node11</title>
<g id="a_node11"><a xlink:href="classsymbol__table__baset.html" target="_top" xlink:title="The symbol table base class interface.">
<polygon fill="none" stroke="black" points="402,-443.5 402,-462.5 517,-462.5 517,-443.5 402,-443.5"/>
<text text-anchor="middle" x="459.5" y="-450.5" font-family="Helvetica,sans-Serif" font-size="10.00">symbol_table_baset</text>
</a>
</g>
</g>
<!-- Node11&#45;&gt;Node9 -->
<g id="edge10" class="edge">
<title>Node11&#45;&gt;Node9</title>
<path fill="none" stroke="#9a32cd" stroke-dasharray="5,2" d="M527.49,-455.87C582.32,-458.22 657.9,-461.46 702.73,-463.38"/>
<polygon fill="#9a32cd" stroke="#9a32cd" points="527.3,-452.36 517.16,-455.43 527,-459.35 527.3,-452.36"/>
<text text-anchor="middle" x="600.5" y="-474" font-family="Helvetica,sans-Serif" font-size="10.00"> symbol_table1</text>
<text text-anchor="middle" x="600.5" y="-463" font-family="Helvetica,sans-Serif" font-size="10.00">symbol_table2</text>
</g>
<!-- Node12&#45;&gt;Node11 -->
<g id="edge11" class="edge">
<title>Node12&#45;&gt;Node11</title>
<path fill="none" stroke="#9a32cd" stroke-dasharray="5,2" d="M250.39,-453C297.49,-453 358.04,-453 401.67,-453"/>
<polygon fill="#9a32cd" stroke="#9a32cd" points="250.25,-449.5 240.25,-453 250.25,-456.5 250.25,-449.5"/>
<text text-anchor="middle" x="312.5" y="-467" font-family="Helvetica,sans-Serif" font-size="10.00"> symbol_base_map</text>
<text text-anchor="middle" x="312.5" y="-456" font-family="Helvetica,sans-Serif" font-size="10.00">symbol_module_map</text>
</g>
<!-- Node13 -->
<g id="node13" class="node">
<title>Node13</title>
<g id="a_node13"><a xlink:title=" ">
<polygon fill="none" stroke="#bfbfbf" points="0,-340.5 0,-359.5 29,-359.5 29,-340.5 0,-340.5"/>
<text text-anchor="middle" x="14.5" y="-347.5" font-family="Helvetica,sans-Serif" font-size="10.00">T</text>
</a>
</g>
</g>
<!-- Node13&#45;&gt;Node12 -->
<g id="edge13" class="edge">
<title>Node13&#45;&gt;Node12</title>
<path fill="none" stroke="#9a32cd" stroke-dasharray="5,2" d="M25.4,-368.66C30.84,-377.54 38.26,-387.77 47,-395 49.23,-396.84 118.12,-427.42 154.29,-443.41"/>
<polygon fill="#9a32cd" stroke="#9a32cd" points="28.31,-366.7 20.31,-359.76 22.24,-370.18 28.31,-366.7"/>
<text text-anchor="middle" x="71.5" y="-419" font-family="Helvetica,sans-Serif" font-size="10.00"> elements</text>
</g>
<!-- Node13&#45;&gt;Node14 -->
<g id="edge16" class="edge">
<title>Node13&#45;&gt;Node14</title>
<path fill="none" stroke="#9a32cd" stroke-dasharray="5,2" d="M31.95,-333.65C36.47,-330.13 41.62,-326.9 47,-325 69.91,-316.91 96.58,-315.5 119.7,-316.56"/>
<polygon fill="#9a32cd" stroke="#9a32cd" points="29.35,-331.28 24.13,-340.5 33.96,-336.54 29.35,-331.28"/>
<text text-anchor="middle" x="71.5" y="-328" font-family="Helvetica,sans-Serif" font-size="10.00"> elements</text>
</g>
<!-- Node13&#45;&gt;Node17 -->
<g id="edge21" class="edge">
<title>Node13&#45;&gt;Node17</title>
<path fill="none" stroke="#9a32cd" stroke-dasharray="5,2" d="M19.46,-369.66C23.78,-386.93 32.14,-411.91 47,-429 63.45,-447.93 80.72,-437.11 96,-457 115.05,-481.79 93.15,-501.71 114,-525 119.62,-531.28 127.08,-535.93 134.86,-539.37"/>
<polygon fill="#9a32cd" stroke="#9a32cd" points="22.8,-368.56 17.18,-359.58 15.98,-370.11 22.8,-368.56"/>
<text text-anchor="middle" x="71.5" y="-460" font-family="Helvetica,sans-Serif" font-size="10.00"> elements</text>
</g>
<!-- Node25 -->
<g id="node25" class="node">
<title>Node25</title>
<g id="a_node25"><a xlink:title="STL class.">
<polygon fill="none" stroke="#bfbfbf" points="128.5,-69.5 128.5,-88.5 225.5,-88.5 225.5,-69.5 128.5,-69.5"/>
<text text-anchor="middle" x="177" y="-76.5" font-family="Helvetica,sans-Serif" font-size="10.00">std::vector&lt; T &gt;</text>
</a>
</g>
</g>
<!-- Node13&#45;&gt;Node25 -->
<g id="edge34" class="edge">
<title>Node13&#45;&gt;Node25</title>
<path fill="none" stroke="#9a32cd" stroke-dasharray="5,2" d="M26.34,-331.7C57.56,-278.98 146.99,-127.99 170.36,-88.53"/>
<polygon fill="#9a32cd" stroke="#9a32cd" points="23.3,-329.97 21.21,-340.35 29.32,-333.53 23.3,-329.97"/>
<text text-anchor="middle" x="71.5" y="-295" font-family="Helvetica,sans-Serif" font-size="10.00"> elements</text>
</g>
<!-- Node13&#45;&gt;Node35 -->
<g id="edge49" class="edge">
<title>Node13&#45;&gt;Node35</title>
<path fill="none" stroke="#9a32cd" stroke-dasharray="5,2" d="M39.49,-350.47C184.75,-353.31 949.03,-368.26 1207.77,-373.32"/>
<polygon fill="#9a32cd" stroke="#9a32cd" points="39.48,-346.97 29.42,-350.27 39.35,-353.97 39.48,-346.97"/>
<text text-anchor="middle" x="600.5" y="-366" font-family="Helvetica,sans-Serif" font-size="10.00"> state</text>
</g>
<!-- Node14&#45;&gt;Node11 -->
<g id="edge14" class="edge">
<title>Node14&#45;&gt;Node11</title>
<path fill="none" stroke="#9a32cd" stroke-dasharray="5,2" d="M215.87,-343.75C257.01,-364.91 324.92,-398.96 385,-425 400.29,-431.62 417.69,-438.29 431.73,-443.46"/>
<polygon fill="#9a32cd" stroke="#9a32cd" points="217.25,-340.53 206.75,-339.05 214.04,-346.75 217.25,-340.53"/>
<text text-anchor="middle" x="312.5" y="-417" font-family="Helvetica,sans-Serif" font-size="10.00"> symbols</text>
</g>
<!-- Node14&#45;&gt;Node23 -->
<g id="edge31" class="edge">
<title>Node14&#45;&gt;Node23</title>
<path fill="none" stroke="orange" stroke-dasharray="5,2" d="M193.84,-300.46C224.69,-256.88 297.52,-164.57 385,-126 477.83,-85.07 597.62,-86.73 671.73,-93.21"/>
<polygon fill="orange" stroke="orange" points="190.92,-298.53 188.07,-308.74 196.66,-302.53 190.92,-298.53"/>
<text text-anchor="start" x="385" y="-140" font-family="Helvetica,sans-Serif" font-size="10.00"> &lt; dstringt, number</text>
<text text-anchor="middle" x="459.5" y="-129" font-family="Helvetica,sans-Serif" font-size="10.00">_type, std::hash&lt; dstringt &gt; &gt;</text>
</g>
<!-- Node27 -->
<g id="node27" class="node">
<title>Node27</title>
<g id="a_node27"><a xlink:title=" ">
<polygon fill="none" stroke="#bfbfbf" points="398.5,-38.5 398.5,-79.5 520.5,-79.5 520.5,-38.5 398.5,-38.5"/>
<text text-anchor="start" x="406.5" y="-67.5" font-family="Helvetica,sans-Serif" font-size="10.00">std::unordered_map</text>
<text text-anchor="start" x="406.5" y="-56.5" font-family="Helvetica,sans-Serif" font-size="10.00">&lt; keyt, number_type,</text>
<text text-anchor="middle" x="459.5" y="-45.5" font-family="Helvetica,sans-Serif" font-size="10.00"> std::hash&lt; keyt &gt; &gt;</text>
</a>
</g>
</g>
<!-- Node14&#45;&gt;Node27 -->
<g id="edge37" class="edge">
<title>Node14&#45;&gt;Node27</title>
<path fill="none" stroke="orange" stroke-dasharray="5,2" d="M182.66,-298.99C193.69,-242.57 223.13,-108.15 258,-80 296.81,-48.67 354.54,-45.71 398.1,-49.25"/>
<polygon fill="orange" stroke="orange" points="179.21,-298.39 180.76,-308.87 186.08,-299.71 179.21,-298.39"/>
<text text-anchor="start" x="258" y="-94" font-family="Helvetica,sans-Serif" font-size="10.00"> &lt; keyt, number_type,</text>
<text text-anchor="middle" x="312.5" y="-83" font-family="Helvetica,sans-Serif" font-size="10.00"> std::hash&lt; keyt &gt; &gt;</text>
</g>
<!-- Node14&#45;&gt;Node28 -->
<g id="edge45" class="edge">
<title>Node14&#45;&gt;Node28</title>
<path fill="none" stroke="orange" stroke-dasharray="5,2" d="M244.56,-324.49C335.96,-324.55 505.35,-322.39 649,-308 766.92,-296.18 795.74,-286.99 912,-264 922.09,-262 932.79,-259.71 943.12,-257.4"/>
<polygon fill="orange" stroke="orange" points="244.35,-320.99 234.35,-324.48 244.34,-327.99 244.35,-320.99"/>
<text text-anchor="start" x="552" y="-330" font-family="Helvetica,sans-Serif" font-size="10.00"> &lt; idt, entryt, string</text>
<text text-anchor="middle" x="600.5" y="-319" font-family="Helvetica,sans-Serif" font-size="10.00">_hash &gt;</text>
</g>
<!-- Node15 -->
<g id="node15" class="node">
<title>Node15</title>
<g id="a_node15"><a xlink:title=" ">
<polygon fill="none" stroke="#bfbfbf" points="683.5,-509 683.5,-539 799.5,-539 799.5,-509 683.5,-509"/>
<text text-anchor="start" x="691.5" y="-527" font-family="Helvetica,sans-Serif" font-size="10.00">std::map&lt; locationt,</text>
<text text-anchor="middle" x="741.5" y="-516" font-family="Helvetica,sans-Serif" font-size="10.00"> unsigned &gt;</text>
</a>
</g>
</g>
<!-- Node15&#45;&gt;Node4 -->
<g id="edge17" class="edge">
<title>Node15&#45;&gt;Node4</title>
<path fill="none" stroke="#9a32cd" stroke-dasharray="5,2" d="M803.75,-505.85C836.27,-495.7 876.71,-482.23 912,-468 931.85,-460 953.54,-449.6 970.36,-441.15"/>
<polygon fill="#9a32cd" stroke="#9a32cd" points="802.44,-502.59 793.92,-508.9 804.51,-509.28 802.44,-502.59"/>
<text text-anchor="middle" x="873" y="-497" font-family="Helvetica,sans-Serif" font-size="10.00"> statistics</text>
</g>
<!-- Node16 -->
<g id="node16" class="node">
<title>Node16</title>
<g id="a_node16"><a xlink:title="STL iterator class.">
<polygon fill="none" stroke="#bfbfbf" points="403,-584 403,-614 516,-614 516,-584 403,-584"/>
<text text-anchor="start" x="411" y="-602" font-family="Helvetica,sans-Serif" font-size="10.00">std::list&lt; T &gt;::const</text>
<text text-anchor="middle" x="459.5" y="-591" font-family="Helvetica,sans-Serif" font-size="10.00">_iterator</text>
</a>
</g>
</g>
<!-- Node16&#45;&gt;Node15 -->
<g id="edge18" class="edge">
<title>Node16&#45;&gt;Node15</title>
<path fill="none" stroke="#9a32cd" stroke-dasharray="5,2" d="M525.87,-581.49C534.64,-579.24 543.53,-577.03 552,-575 594.9,-564.74 606.43,-565.55 649,-554 664.97,-549.67 682.28,-544.2 697.49,-539.12"/>
<polygon fill="#9a32cd" stroke="#9a32cd" points="524.86,-578.13 516.05,-584.02 526.61,-584.91 524.86,-578.13"/>
<text text-anchor="middle" x="600.5" y="-578" font-family="Helvetica,sans-Serif" font-size="10.00"> keys</text>
</g>
<!-- Node16&#45;&gt;Node18 -->
<g id="edge23" class="edge">
<title>Node16&#45;&gt;Node18</title>
<path fill="none" stroke="#9a32cd" stroke-dasharray="5,2" d="M526.84,-597.67C563.07,-596.31 608.65,-593.55 649,-588 667.04,-585.52 686.81,-581.38 703.34,-577.51"/>
<polygon fill="#9a32cd" stroke="#9a32cd" points="526.27,-594.19 516.4,-598.03 526.51,-601.18 526.27,-594.19"/>
<text text-anchor="middle" x="600.5" y="-599" font-family="Helvetica,sans-Serif" font-size="10.00"> keys</text>
</g>
<!-- Node17&#45;&gt;Node15 -->
<g id="edge19" class="edge">
<title>Node17&#45;&gt;Node15</title>
<path fill="none" stroke="orange" stroke-dasharray="5,2" d="M237.73,-546.7C327.16,-543.19 501.17,-536.18 649,-529 660.12,-528.46 672,-527.84 683.4,-527.23"/>
<polygon fill="orange" stroke="orange" points="237.37,-543.21 227.51,-547.1 237.64,-550.2 237.37,-543.21"/>
<text text-anchor="middle" x="459.5" y="-543" font-family="Helvetica,sans-Serif" font-size="10.00"> &lt; locationt, unsigned &gt;</text>
</g>
<!-- Node18&#45;&gt;Node4 -->
<g id="edge22" class="edge">
<title>Node18&#45;&gt;Node4</title>
<path fill="none" stroke="#9a32cd" stroke-dasharray="5,2" d="M798.32,-555.86C832.95,-546.62 877.3,-531.58 912,-509 941.83,-489.59 970.63,-459.35 986.61,-441.23"/>
<polygon fill="#9a32cd" stroke="#9a32cd" points="797.18,-552.54 788.37,-558.43 798.93,-559.32 797.18,-552.54"/>
<text text-anchor="middle" x="873" y="-547" font-family="Helvetica,sans-Serif" font-size="10.00"> seen_locations</text>
</g>
<!-- Node19 -->
<g id="node19" class="node">
<title>Node19</title>
<g id="a_node19"><a xlink:href="classvalue__set__domain__fit.html" target="_top" xlink:title=" ">
<polygon fill="none" stroke="black" points="1468,-122.5 1468,-141.5 1589,-141.5 1589,-122.5 1468,-122.5"/>
<text text-anchor="middle" x="1528.5" y="-129.5" font-family="Helvetica,sans-Serif" font-size="10.00">value_set_domain_fit</text>
</a>
</g>
</g>
<!-- Node19&#45;&gt;Node3 -->
<g id="edge25" class="edge">
<title>Node19&#45;&gt;Node3</title>
<path fill="none" stroke="#9a32cd" stroke-dasharray="5,2" d="M1543.4,-149.33C1579.92,-194.83 1678.11,-317.19 1712.44,-359.98"/>
<polygon fill="#9a32cd" stroke="#9a32cd" points="1546.13,-147.13 1537.14,-141.53 1540.67,-151.52 1546.13,-147.13"/>
<text text-anchor="middle" x="1621" y="-264" font-family="Helvetica,sans-Serif" font-size="10.00"> state</text>
</g>
<!-- Node20 -->
<g id="node20" class="node">
<title>Node20</title>
<g id="a_node20"><a xlink:href="classflow__insensitive__abstract__domain__baset.html" target="_top" xlink:title=" ">
<polygon fill="none" stroke="black" points="1224.5,-73 1224.5,-103 1364.5,-103 1364.5,-73 1224.5,-73"/>
<text text-anchor="start" x="1232.5" y="-91" font-family="Helvetica,sans-Serif" font-size="10.00">flow_insensitive_abstract</text>
<text text-anchor="middle" x="1294.5" y="-80" font-family="Helvetica,sans-Serif" font-size="10.00">_domain_baset</text>
</a>
</g>
</g>
<!-- Node20&#45;&gt;Node19 -->
<g id="edge26" class="edge">
<title>Node20&#45;&gt;Node19</title>
<path fill="none" stroke="midnightblue" d="M1374.71,-103.02C1408.7,-109.47 1447.4,-116.81 1477.34,-122.49"/>
<polygon fill="midnightblue" stroke="midnightblue" points="1375.27,-99.57 1364.79,-101.14 1373.97,-106.44 1375.27,-99.57"/>
</g>
<!-- Node21 -->
<g id="node21" class="node">
<title>Node21</title>
<g id="a_node21"><a xlink:href="classvalue__set__fit.html" target="_top" xlink:title=" ">
<polygon fill="none" stroke="black" points="1255,-122.5 1255,-141.5 1334,-141.5 1334,-122.5 1255,-122.5"/>
<text text-anchor="middle" x="1294.5" y="-129.5" font-family="Helvetica,sans-Serif" font-size="10.00">value_set_fit</text>
</a>
</g>
</g>
<!-- Node21&#45;&gt;Node19 -->
<g id="edge27" class="edge">
<title>Node21&#45;&gt;Node19</title>
<path fill="none" stroke="#9a32cd" stroke-dasharray="5,2" d="M1344.33,-132C1380.36,-132 1429.57,-132 1467.91,-132"/>
<polygon fill="#9a32cd" stroke="#9a32cd" points="1344.07,-128.5 1334.07,-132 1344.07,-135.5 1344.07,-128.5"/>
<text text-anchor="middle" x="1424.5" y="-135" font-family="Helvetica,sans-Serif" font-size="10.00"> value_set</text>
</g>
<!-- Node22 -->
<g id="node22" class="node">
<title>Node22</title>
<g id="a_node22"><a xlink:href="classnumberingt.html" target="_top" xlink:title=" ">
<polygon fill="none" stroke="black" points="934,-68.5 934,-87.5 1067,-87.5 1067,-68.5 934,-68.5"/>
<text text-anchor="middle" x="1000.5" y="-75.5" font-family="Helvetica,sans-Serif" font-size="10.00">numberingt&lt; dstringt &gt;</text>
</a>
</g>
</g>
<!-- Node22&#45;&gt;Node21 -->
<g id="edge28" class="edge">
<title>Node22&#45;&gt;Node21</title>
<path fill="none" stroke="#9a32cd" stroke-dasharray="5,2" d="M1063.14,-89.4C1120.96,-100.09 1205.65,-115.75 1254.61,-124.81"/>
<polygon fill="#9a32cd" stroke="#9a32cd" points="1063.5,-85.91 1053.03,-87.53 1062.23,-92.79 1063.5,-85.91"/>
<text text-anchor="middle" x="1139.5" y="-115" font-family="Helvetica,sans-Serif" font-size="10.00"> function_numbering</text>
</g>
<!-- Node23&#45;&gt;Node22 -->
<g id="edge29" class="edge">
<title>Node23&#45;&gt;Node22</title>
<path fill="none" stroke="#9a32cd" stroke-dasharray="5,2" d="M821.04,-94.67C857.13,-91.3 899.45,-87.34 933.82,-84.13"/>
<polygon fill="#9a32cd" stroke="#9a32cd" points="820.66,-91.19 811.03,-95.6 821.32,-98.15 820.66,-91.19"/>
<text text-anchor="middle" x="873" y="-96" font-family="Helvetica,sans-Serif" font-size="10.00"> numbers_</text>
</g>
<!-- Node24 -->
<g id="node24" class="node">
<title>Node24</title>
<g id="a_node24"><a xlink:title=" ">
<polygon fill="none" stroke="#bfbfbf" points="392,-0.5 392,-19.5 527,-19.5 527,-0.5 392,-0.5"/>
<text text-anchor="middle" x="459.5" y="-7.5" font-family="Helvetica,sans-Serif" font-size="10.00">std::vector&lt; key_type &gt;</text>
</a>
</g>
</g>
<!-- Node24&#45;&gt;Node22 -->
<g id="edge32" class="edge">
<title>Node24&#45;&gt;Node22</title>
<path fill="none" stroke="#9a32cd" stroke-dasharray="5,2" d="M537.6,-6.43C610,-4.48 721.1,-5.09 816,-21 875.06,-30.9 941.51,-54.94 975.96,-68.42"/>
<polygon fill="#9a32cd" stroke="#9a32cd" points="537.09,-2.94 527.2,-6.73 537.3,-9.94 537.09,-2.94"/>
<text text-anchor="middle" x="741.5" y="-24" font-family="Helvetica,sans-Serif" font-size="10.00"> data_</text>
</g>
<!-- Node26 -->
<g id="node26" class="node">
<title>Node26</title>
<g id="a_node26"><a xlink:href="classnumberingt.html" target="_top" xlink:title=" ">
<polygon fill="none" stroke="black" points="667,-41.5 667,-60.5 816,-60.5 816,-41.5 667,-41.5"/>
<text text-anchor="middle" x="741.5" y="-48.5" font-family="Helvetica,sans-Serif" font-size="10.00">numberingt&lt; keyt, hasht &gt;</text>
</a>
</g>
</g>
<!-- Node24&#45;&gt;Node26 -->
<g id="edge38" class="edge">
<title>Node24&#45;&gt;Node26</title>
<path fill="none" stroke="#9a32cd" stroke-dasharray="5,2" d="M535.43,-20.97C579.08,-27.36 633.58,-35.34 675.43,-41.47"/>
<polygon fill="#9a32cd" stroke="#9a32cd" points="535.84,-17.5 525.44,-19.51 534.83,-24.42 535.84,-17.5"/>
<text text-anchor="middle" x="600.5" y="-40" font-family="Helvetica,sans-Serif" font-size="10.00"> data_</text>
</g>
<!-- Node25&#45;&gt;Node24 -->
<g id="edge33" class="edge">
<title>Node25&#45;&gt;Node24</title>
<path fill="none" stroke="orange" stroke-dasharray="5,2" d="M201.21,-64.03C216.68,-54.76 237.83,-43.43 258,-37 301.34,-23.18 352.13,-16.44 391.76,-13.14"/>
<polygon fill="orange" stroke="orange" points="199.04,-61.25 192.36,-69.47 202.71,-67.21 199.04,-61.25"/>
<text text-anchor="middle" x="312.5" y="-40" font-family="Helvetica,sans-Serif" font-size="10.00"> &lt; key_type &gt;</text>
</g>
<!-- Node26&#45;&gt;Node21 -->
<g id="edge46" class="edge">
<title>Node26&#45;&gt;Node21</title>
<path fill="none" stroke="#9a32cd" stroke-dasharray="5,2" d="M800.09,-39.86C891.34,-25.54 1070.99,-11.26 1190,-92 1199.9,-98.71 1197.71,-105.91 1208,-112 1222.04,-120.3 1239.28,-125.16 1254.59,-128"/>
<polygon fill="#9a32cd" stroke="#9a32cd" points="799.51,-36.41 790.21,-41.47 800.64,-43.32 799.51,-36.41"/>
<text text-anchor="middle" x="1000.5" y="-45" font-family="Helvetica,sans-Serif" font-size="10.00"> object_numbering</text>
</g>
<!-- Node26&#45;&gt;Node22 -->
<g id="edge35" class="edge">
<title>Node26&#45;&gt;Node22</title>
<path fill="none" stroke="orange" stroke-dasharray="5,2" d="M826.31,-59.8C861.17,-63.47 901.04,-67.66 933.73,-71.09"/>
<polygon fill="orange" stroke="orange" points="826.46,-56.3 816.15,-58.74 825.73,-63.26 826.46,-56.3"/>
<text text-anchor="middle" x="873" y="-72" font-family="Helvetica,sans-Serif" font-size="10.00"> &lt; dstringt &gt;</text>
</g>
<!-- Node27&#45;&gt;Node26 -->
<g id="edge36" class="edge">
<title>Node27&#45;&gt;Node26</title>
<path fill="none" stroke="#9a32cd" stroke-dasharray="5,2" d="M531.01,-57.23C566.42,-56.32 609.98,-55.16 649,-54 654.72,-53.83 660.64,-53.65 666.59,-53.46"/>
<polygon fill="#9a32cd" stroke="#9a32cd" points="530.68,-53.74 520.78,-57.5 530.86,-60.74 530.68,-53.74"/>
<text text-anchor="middle" x="600.5" y="-60" font-family="Helvetica,sans-Serif" font-size="10.00"> numbers_</text>
</g>
<!-- Node28&#45;&gt;Node21 -->
<g id="edge39" class="edge">
<title>Node28&#45;&gt;Node21</title>
<path fill="none" stroke="#9a32cd" stroke-dasharray="5,2" d="M1064.61,-219.79C1128.36,-195.34 1223.63,-158.8 1268.47,-141.6"/>
<polygon fill="#9a32cd" stroke="#9a32cd" points="1063.14,-216.61 1055.06,-223.46 1065.65,-223.14 1063.14,-216.61"/>
<text text-anchor="middle" x="1139.5" y="-211" font-family="Helvetica,sans-Serif" font-size="10.00"> values</text>
</g>
<!-- Node29&#45;&gt;Node28 -->
<g id="edge41" class="edge">
<title>Node29&#45;&gt;Node28</title>
<path fill="none" stroke="#9a32cd" stroke-dasharray="5,2" d="M808.63,-218.75C850.27,-224.26 903.45,-231.29 943.09,-236.54"/>
<polygon fill="#9a32cd" stroke="#9a32cd" points="808.95,-215.26 798.58,-217.42 808.04,-222.2 808.95,-215.26"/>
<text text-anchor="middle" x="873" y="-236" font-family="Helvetica,sans-Serif" font-size="10.00"> elements</text>
</g>
<!-- Node30 -->
<g id="node30" class="node">
<title>Node30</title>
<g id="a_node30"><a xlink:href="classreference__counting.html" target="_top" xlink:title=" ">
<polygon fill="none" stroke="red" points="404,-196 404,-226 515,-226 515,-196 404,-196"/>
<text text-anchor="start" x="412" y="-214" font-family="Helvetica,sans-Serif" font-size="10.00">reference_counting</text>
<text text-anchor="middle" x="459.5" y="-203" font-family="Helvetica,sans-Serif" font-size="10.00">&lt; object_map_dt &gt;</text>
</a>
</g>
</g>
<!-- Node30&#45;&gt;Node29 -->
<g id="edge42" class="edge">
<title>Node30&#45;&gt;Node29</title>
<path fill="none" stroke="#9a32cd" stroke-dasharray="5,2" d="M525.2,-205.43C534.2,-204.84 543.32,-204.33 552,-204 595.08,-202.35 605.91,-202.59 649,-204 660.46,-204.38 672.71,-205.01 684.4,-205.74"/>
<polygon fill="#9a32cd" stroke="#9a32cd" points="524.87,-201.95 515.13,-206.13 525.35,-208.93 524.87,-201.95"/>
<text text-anchor="middle" x="600.5" y="-207" font-family="Helvetica,sans-Serif" font-size="10.00"> object_map</text>
</g>
<!-- Node33 -->
<g id="node31" class="node">
<title>Node33</title>
<g id="a_node31"><a xlink:title="STL class.">
<polygon fill="none" stroke="#bfbfbf" points="427,-157.5 427,-176.5 492,-176.5 492,-157.5 427,-157.5"/>
<text text-anchor="middle" x="459.5" y="-164.5" font-family="Helvetica,sans-Serif" font-size="10.00">std::string</text>
</a>
</g>
</g>
<!-- Node33&#45;&gt;Node29 -->
<g id="edge44" class="edge">
<title>Node33&#45;&gt;Node29</title>
<path fill="none" stroke="#9a32cd" stroke-dasharray="5,2" d="M502.28,-170.15C540.62,-173.39 598.9,-179.22 649,-188 667.67,-191.27 688.2,-196.09 705.08,-200.39"/>
<polygon fill="#9a32cd" stroke="#9a32cd" points="502.28,-166.63 492.02,-169.3 501.7,-173.61 502.28,-166.63"/>
<text text-anchor="middle" x="600.5" y="-191" font-family="Helvetica,sans-Serif" font-size="10.00"> suffix</text>
</g>
<!-- Node35&#45;&gt;Node3 -->
<g id="edge47" class="edge">
<title>Node35&#45;&gt;Node3</title>
<path fill="none" stroke="orange" stroke-dasharray="5,2" d="M1391.5,-375C1470.73,-375 1581.39,-375 1653,-375"/>
<polygon fill="orange" stroke="orange" points="1391.03,-371.5 1381.03,-375 1391.03,-378.5 1391.03,-371.5"/>
<text text-anchor="start" x="1476.5" y="-389" font-family="Helvetica,sans-Serif" font-size="10.00"> &lt; value_set_domain</text>
<text text-anchor="middle" x="1528.5" y="-378" font-family="Helvetica,sans-Serif" font-size="10.00">_fit &gt;</text>
</g>
</g>
</svg>
