<?xml version="1.0" encoding="UTF-8" standalone="no"?>
<!DOCTYPE svg PUBLIC "-//W3C//DTD SVG 1.1//EN"
 "http://www.w3.org/Graphics/SVG/1.1/DTD/svg11.dtd">
<!-- Generated by graphviz version 2.43.0 (0)
 -->
<!-- Title: unary_predicate_exprt Pages: 1 -->
<svg width="1352pt" height="312pt"
 viewBox="0.00 0.00 1352.00 311.50" xmlns="http://www.w3.org/2000/svg" xmlns:xlink="http://www.w3.org/1999/xlink">
<g id="graph0" class="graph" transform="scale(1 1) rotate(0) translate(4 307.5)">
<title>unary_predicate_exprt</title>
<!-- Node1 -->
<g id="node1" class="node">
<title>Node1</title>
<g id="a_node1"><a xlink:title="A base class for expressions that are predicates, i.e., Boolean&#45;typed, and that take exactly one argu...">
<polygon fill="#bfbfbf" stroke="black" points="879,-139 879,-158 1005,-158 1005,-139 879,-139"/>
<text text-anchor="middle" x="942" y="-146" font-family="Helvetica,sans-Serif" font-size="10.00">unary_predicate_exprt</text>
</a>
</g>
</g>
<!-- Node8 -->
<g id="node8" class="node">
<title>Node8</title>
<g id="a_node8"><a xlink:href="classis__dynamic__object__exprt.html" target="_top" xlink:title="Evaluates to true if the operand is a pointer to a dynamic object.">
<polygon fill="none" stroke="black" points="1042,-284 1042,-303 1180,-303 1180,-284 1042,-284"/>
<text text-anchor="middle" x="1111" y="-291" font-family="Helvetica,sans-Serif" font-size="10.00">is_dynamic_object_exprt</text>
</a>
</g>
</g>
<!-- Node1&#45;&gt;Node8 -->
<g id="edge7" class="edge">
<title>Node1&#45;&gt;Node8</title>
<path fill="none" stroke="midnightblue" d="M952.56,-167.09C967.73,-194.74 999.96,-246.44 1042,-274.5 1047.81,-278.38 1054.41,-281.47 1061.15,-283.94"/>
<polygon fill="midnightblue" stroke="midnightblue" points="955.55,-165.26 947.75,-158.08 949.37,-168.55 955.55,-165.26"/>
</g>
<!-- Node9 -->
<g id="node9" class="node">
<title>Node9</title>
<g id="a_node9"><a xlink:href="classis__invalid__pointer__exprt.html" target="_top" xlink:title=" ">
<polygon fill="none" stroke="black" points="1059.5,-234.5 1059.5,-264.5 1162.5,-264.5 1162.5,-234.5 1059.5,-234.5"/>
<text text-anchor="start" x="1067.5" y="-252.5" font-family="Helvetica,sans-Serif" font-size="10.00">is_invalid_pointer</text>
<text text-anchor="middle" x="1111" y="-241.5" font-family="Helvetica,sans-Serif" font-size="10.00">_exprt</text>
</a>
</g>
</g>
<!-- Node1&#45;&gt;Node9 -->
<g id="edge8" class="edge">
<title>Node1&#45;&gt;Node9</title>
<path fill="none" stroke="midnightblue" d="M960.8,-164.86C979.77,-181.62 1011.25,-207.56 1042,-224.5 1048.61,-228.14 1055.86,-231.45 1063.08,-234.38"/>
<polygon fill="midnightblue" stroke="midnightblue" points="963.02,-162.15 953.24,-158.08 958.35,-167.36 963.02,-162.15"/>
</g>
<!-- Node10 -->
<g id="node10" class="node">
<title>Node10</title>
<g id="a_node10"><a xlink:href="classisfinite__exprt.html" target="_top" xlink:title="Evaluates to true if the operand is finite.">
<polygon fill="none" stroke="black" points="1071,-196 1071,-215 1151,-215 1151,-196 1071,-196"/>
<text text-anchor="middle" x="1111" y="-203" font-family="Helvetica,sans-Serif" font-size="10.00">isfinite_exprt</text>
</a>
</g>
</g>
<!-- Node1&#45;&gt;Node10 -->
<g id="edge9" class="edge">
<title>Node1&#45;&gt;Node10</title>
<path fill="none" stroke="midnightblue" d="M975.46,-161.84C994.65,-169.51 1019.53,-179.06 1042,-186.5 1052.12,-189.85 1063.22,-193.12 1073.46,-195.97"/>
<polygon fill="midnightblue" stroke="midnightblue" points="976.57,-158.52 965.98,-158.03 973.95,-165.01 976.57,-158.52"/>
</g>
<!-- Node11 -->
<g id="node11" class="node">
<title>Node11</title>
<g id="a_node11"><a xlink:href="classisinf__exprt.html" target="_top" xlink:title="Evaluates to true if the operand is infinite.">
<polygon fill="none" stroke="black" points="1077,-158 1077,-177 1145,-177 1145,-158 1077,-158"/>
<text text-anchor="middle" x="1111" y="-165" font-family="Helvetica,sans-Serif" font-size="10.00">isinf_exprt</text>
</a>
</g>
</g>
<!-- Node1&#45;&gt;Node11 -->
<g id="edge10" class="edge">
<title>Node1&#45;&gt;Node11</title>
<path fill="none" stroke="midnightblue" d="M1015.27,-156.72C1036.71,-159.16 1059.15,-161.72 1076.81,-163.72"/>
<polygon fill="midnightblue" stroke="midnightblue" points="1015.52,-153.23 1005.18,-155.57 1014.72,-160.18 1015.52,-153.23"/>
</g>
<!-- Node12 -->
<g id="node12" class="node">
<title>Node12</title>
<g id="a_node12"><a xlink:href="classisnan__exprt.html" target="_top" xlink:title="Evaluates to true if the operand is NaN.">
<polygon fill="none" stroke="black" points="1074,-120 1074,-139 1148,-139 1148,-120 1074,-120"/>
<text text-anchor="middle" x="1111" y="-127" font-family="Helvetica,sans-Serif" font-size="10.00">isnan_exprt</text>
</a>
</g>
</g>
<!-- Node1&#45;&gt;Node12 -->
<g id="edge11" class="edge">
<title>Node1&#45;&gt;Node12</title>
<path fill="none" stroke="midnightblue" d="M1015.36,-140.27C1035.63,-137.96 1056.8,-135.55 1073.96,-133.6"/>
<polygon fill="midnightblue" stroke="midnightblue" points="1014.72,-136.82 1005.18,-141.43 1015.52,-143.77 1014.72,-136.82"/>
</g>
<!-- Node13 -->
<g id="node13" class="node">
<title>Node13</title>
<g id="a_node13"><a xlink:href="classisnormal__exprt.html" target="_top" xlink:title="Evaluates to true if the operand is a normal number.">
<polygon fill="none" stroke="black" points="1066,-82 1066,-101 1156,-101 1156,-82 1066,-82"/>
<text text-anchor="middle" x="1111" y="-89" font-family="Helvetica,sans-Serif" font-size="10.00">isnormal_exprt</text>
</a>
</g>
</g>
<!-- Node1&#45;&gt;Node13 -->
<g id="edge12" class="edge">
<title>Node1&#45;&gt;Node13</title>
<path fill="none" stroke="midnightblue" d="M975.46,-135.16C994.65,-127.49 1019.53,-117.94 1042,-110.5 1052.12,-107.15 1063.22,-103.88 1073.46,-101.03"/>
<polygon fill="midnightblue" stroke="midnightblue" points="973.95,-131.99 965.98,-138.97 976.57,-138.48 973.95,-131.99"/>
</g>
<!-- Node14 -->
<g id="node14" class="node">
<title>Node14</title>
<g id="a_node14"><a xlink:href="classsign__exprt.html" target="_top" xlink:title="Sign of an expression Predicate is true if _op is negative, false otherwise.">
<polygon fill="none" stroke="black" points="1077,-44 1077,-63 1145,-63 1145,-44 1077,-44"/>
<text text-anchor="middle" x="1111" y="-51" font-family="Helvetica,sans-Serif" font-size="10.00">sign_exprt</text>
</a>
</g>
</g>
<!-- Node1&#45;&gt;Node14 -->
<g id="edge13" class="edge">
<title>Node1&#45;&gt;Node14</title>
<path fill="none" stroke="midnightblue" d="M960.23,-131.92C978.95,-114.75 1010.43,-88.28 1042,-72.5 1052.85,-67.07 1065.48,-63 1076.89,-60.05"/>
<polygon fill="midnightblue" stroke="midnightblue" points="957.72,-129.48 952.8,-138.86 962.5,-134.59 957.72,-129.48"/>
</g>
<!-- Node15 -->
<g id="node15" class="node">
<title>Node15</title>
<g id="a_node15"><a xlink:href="classunary__overflow__exprt.html" target="_top" xlink:title="A Boolean expression returning true, iff operation kind would result in an overflow when applied to t...">
<polygon fill="none" stroke="black" points="1050,-6 1050,-25 1172,-25 1172,-6 1050,-6"/>
<text text-anchor="middle" x="1111" y="-13" font-family="Helvetica,sans-Serif" font-size="10.00">unary_overflow_exprt</text>
</a>
</g>
</g>
<!-- Node1&#45;&gt;Node15 -->
<g id="edge14" class="edge">
<title>Node1&#45;&gt;Node15</title>
<path fill="none" stroke="midnightblue" d="M953.93,-130.25C970.03,-104.93 1002.52,-59.48 1042,-34.5 1048.11,-30.63 1055.02,-27.54 1062.03,-25.07"/>
<polygon fill="midnightblue" stroke="midnightblue" points="950.87,-128.53 948.58,-138.88 956.82,-132.22 950.87,-128.53"/>
</g>
<!-- Node2 -->
<g id="node2" class="node">
<title>Node2</title>
<g id="a_node2"><a xlink:href="classunary__exprt.html" target="_top" xlink:title="Generic base class for unary expressions.">
<polygon fill="none" stroke="black" points="767,-139 767,-158 842,-158 842,-139 767,-139"/>
<text text-anchor="middle" x="804.5" y="-146" font-family="Helvetica,sans-Serif" font-size="10.00">unary_exprt</text>
</a>
</g>
</g>
<!-- Node2&#45;&gt;Node1 -->
<g id="edge1" class="edge">
<title>Node2&#45;&gt;Node1</title>
<path fill="none" stroke="midnightblue" d="M852.35,-148.5C860.94,-148.5 870.03,-148.5 878.98,-148.5"/>
<polygon fill="midnightblue" stroke="midnightblue" points="852.17,-145 842.17,-148.5 852.17,-152 852.17,-145"/>
</g>
<!-- Node3 -->
<g id="node3" class="node">
<title>Node3</title>
<g id="a_node3"><a xlink:href="classexpr__protectedt.html" target="_top" xlink:title="Base class for all expressions.">
<polygon fill="none" stroke="black" points="636,-139 636,-158 730,-158 730,-139 636,-139"/>
<text text-anchor="middle" x="683" y="-146" font-family="Helvetica,sans-Serif" font-size="10.00">expr_protectedt</text>
</a>
</g>
</g>
<!-- Node3&#45;&gt;Node2 -->
<g id="edge2" class="edge">
<title>Node3&#45;&gt;Node2</title>
<path fill="none" stroke="midnightblue" d="M740.25,-148.5C749.22,-148.5 758.3,-148.5 766.68,-148.5"/>
<polygon fill="midnightblue" stroke="midnightblue" points="740.2,-145 730.2,-148.5 740.2,-152 740.2,-145"/>
</g>
<!-- Node4 -->
<g id="node4" class="node">
<title>Node4</title>
<g id="a_node4"><a xlink:href="classexprt.html" target="_top" xlink:title="Base class for all expressions.">
<polygon fill="none" stroke="black" points="557,-139 557,-158 599,-158 599,-139 557,-139"/>
<text text-anchor="middle" x="578" y="-146" font-family="Helvetica,sans-Serif" font-size="10.00">exprt</text>
</a>
</g>
</g>
<!-- Node4&#45;&gt;Node3 -->
<g id="edge3" class="edge">
<title>Node4&#45;&gt;Node3</title>
<path fill="none" stroke="midnightblue" d="M609.56,-148.5C617.77,-148.5 626.84,-148.5 635.7,-148.5"/>
<polygon fill="midnightblue" stroke="midnightblue" points="609.35,-145 599.35,-148.5 609.35,-152 609.35,-145"/>
</g>
<!-- Node5 -->
<g id="node5" class="node">
<title>Node5</title>
<g id="a_node5"><a xlink:href="classirept.html" target="_top" xlink:title="There are a large number of kinds of tree structured or tree&#45;like data in CPROVER.">
<polygon fill="none" stroke="black" points="481,-139 481,-158 520,-158 520,-139 481,-139"/>
<text text-anchor="middle" x="500.5" y="-146" font-family="Helvetica,sans-Serif" font-size="10.00">irept</text>
</a>
</g>
</g>
<!-- Node5&#45;&gt;Node4 -->
<g id="edge4" class="edge">
<title>Node5&#45;&gt;Node4</title>
<path fill="none" stroke="midnightblue" d="M530.18,-148.5C539.11,-148.5 548.76,-148.5 556.97,-148.5"/>
<polygon fill="midnightblue" stroke="midnightblue" points="530.16,-145 520.16,-148.5 530.16,-152 530.16,-145"/>
</g>
<!-- Node6 -->
<g id="node6" class="node">
<title>Node6</title>
<g id="a_node6"><a xlink:href="classsharing__treet.html" target="_top" xlink:title=" ">
<polygon fill="none" stroke="black" points="319,-128 319,-169 444,-169 444,-128 319,-128"/>
<text text-anchor="start" x="327" y="-157" font-family="Helvetica,sans-Serif" font-size="10.00">sharing_treet&lt; irept,</text>
<text text-anchor="start" x="327" y="-146" font-family="Helvetica,sans-Serif" font-size="10.00"> forward_list_as_mapt</text>
<text text-anchor="middle" x="381.5" y="-135" font-family="Helvetica,sans-Serif" font-size="10.00">&lt; irep_idt, irept &gt; &gt;</text>
</a>
</g>
</g>
<!-- Node6&#45;&gt;Node5 -->
<g id="edge5" class="edge">
<title>Node6&#45;&gt;Node5</title>
<path fill="none" stroke="midnightblue" d="M454.38,-148.5C464.13,-148.5 473.35,-148.5 480.89,-148.5"/>
<polygon fill="midnightblue" stroke="midnightblue" points="454.08,-145 444.08,-148.5 454.08,-152 454.08,-145"/>
</g>
<!-- Node7 -->
<g id="node7" class="node">
<title>Node7</title>
<g id="a_node7"><a xlink:href="classsharing__treet.html" target="_top" xlink:title="Base class for tree&#45;like data structures with sharing.">
<polygon fill="none" stroke="black" points="0,-133.5 0,-163.5 136,-163.5 136,-133.5 0,-133.5"/>
<text text-anchor="start" x="8" y="-151.5" font-family="Helvetica,sans-Serif" font-size="10.00">sharing_treet&lt; derivedt,</text>
<text text-anchor="middle" x="68" y="-140.5" font-family="Helvetica,sans-Serif" font-size="10.00"> named_subtreest &gt;</text>
</a>
</g>
</g>
<!-- Node7&#45;&gt;Node6 -->
<g id="edge6" class="edge">
<title>Node7&#45;&gt;Node6</title>
<path fill="none" stroke="orange" stroke-dasharray="5,2" d="M146.29,-148.5C199.58,-148.5 269.45,-148.5 318.96,-148.5"/>
<polygon fill="orange" stroke="orange" points="146.21,-145 136.21,-148.5 146.21,-152 146.21,-145"/>
<text text-anchor="start" x="154" y="-162.5" font-family="Helvetica,sans-Serif" font-size="10.00"> &lt; irept, forward_list</text>
<text text-anchor="middle" x="227.5" y="-151.5" font-family="Helvetica,sans-Serif" font-size="10.00">_as_mapt&lt; irep_idt, irept &gt; &gt;</text>
</g>
<!-- Node16 -->
<g id="node16" class="node">
<title>Node16</title>
<g id="a_node16"><a xlink:href="classunary__minus__overflow__exprt.html" target="_top" xlink:title="A Boolean expression returning true, iff negation would result in an overflow when applied to the (si...">
<polygon fill="none" stroke="black" points="1217,-0.5 1217,-30.5 1344,-30.5 1344,-0.5 1217,-0.5"/>
<text text-anchor="start" x="1225" y="-18.5" font-family="Helvetica,sans-Serif" font-size="10.00">unary_minus_overflow</text>
<text text-anchor="middle" x="1280.5" y="-7.5" font-family="Helvetica,sans-Serif" font-size="10.00">_exprt</text>
</a>
</g>
</g>
<!-- Node15&#45;&gt;Node16 -->
<g id="edge15" class="edge">
<title>Node15&#45;&gt;Node16</title>
<path fill="none" stroke="midnightblue" d="M1182.76,-15.5C1194.09,-15.5 1205.74,-15.5 1216.86,-15.5"/>
<polygon fill="midnightblue" stroke="midnightblue" points="1182.47,-12 1172.47,-15.5 1182.47,-19 1182.47,-12"/>
</g>
</g>
</svg>
