<?xml version="1.0" encoding="UTF-8" standalone="no"?>
<!DOCTYPE svg PUBLIC "-//W3C//DTD SVG 1.1//EN"
 "http://www.w3.org/Graphics/SVG/1.1/DTD/svg11.dtd">
<!-- Generated by graphviz version 2.43.0 (0)
 -->
<!-- Title: value_set_domain_fit Pages: 1 -->
<svg width="1773pt" height="350pt"
 viewBox="0.00 0.00 1773.00 349.50" xmlns="http://www.w3.org/2000/svg" xmlns:xlink="http://www.w3.org/1999/xlink">
<g id="graph0" class="graph" transform="scale(1 1) rotate(0) translate(4 345.5)">
<title>value_set_domain_fit</title>
<!-- Node1 -->
<g id="node1" class="node">
<title>Node1</title>
<g id="a_node1"><a xlink:title=" ">
<polygon fill="#bfbfbf" stroke="black" points="1644,-80.5 1644,-99.5 1765,-99.5 1765,-80.5 1644,-80.5"/>
<text text-anchor="middle" x="1704.5" y="-87.5" font-family="Helvetica,sans-Serif" font-size="10.00">value_set_domain_fit</text>
</a>
</g>
</g>
<!-- Node2 -->
<g id="node2" class="node">
<title>Node2</title>
<g id="a_node2"><a xlink:href="classflow__insensitive__abstract__domain__baset.html" target="_top" xlink:title=" ">
<polygon fill="none" stroke="black" points="1417,-97 1417,-127 1557,-127 1557,-97 1417,-97"/>
<text text-anchor="start" x="1425" y="-115" font-family="Helvetica,sans-Serif" font-size="10.00">flow_insensitive_abstract</text>
<text text-anchor="middle" x="1487" y="-104" font-family="Helvetica,sans-Serif" font-size="10.00">_domain_baset</text>
</a>
</g>
</g>
<!-- Node2&#45;&gt;Node1 -->
<g id="edge1" class="edge">
<title>Node2&#45;&gt;Node1</title>
<path fill="none" stroke="midnightblue" d="M1567.05,-103.93C1592.44,-101.34 1620.12,-98.51 1643.88,-96.09"/>
<polygon fill="midnightblue" stroke="midnightblue" points="1566.67,-100.45 1557.07,-104.95 1567.38,-107.41 1566.67,-100.45"/>
</g>
<!-- Node3 -->
<g id="node3" class="node">
<title>Node3</title>
<g id="a_node3"><a xlink:href="classvalue__set__fit.html" target="_top" xlink:title=" ">
<polygon fill="none" stroke="black" points="1447.5,-58.5 1447.5,-77.5 1526.5,-77.5 1526.5,-58.5 1447.5,-58.5"/>
<text text-anchor="middle" x="1487" y="-65.5" font-family="Helvetica,sans-Serif" font-size="10.00">value_set_fit</text>
</a>
</g>
</g>
<!-- Node3&#45;&gt;Node1 -->
<g id="edge2" class="edge">
<title>Node3&#45;&gt;Node1</title>
<path fill="none" stroke="#9a32cd" stroke-dasharray="5,2" d="M1536.88,-72.99C1568.58,-76.23 1610.1,-80.46 1643.76,-83.9"/>
<polygon fill="#9a32cd" stroke="#9a32cd" points="1536.83,-69.47 1526.53,-71.93 1536.12,-76.43 1536.83,-69.47"/>
<text text-anchor="middle" x="1600.5" y="-85" font-family="Helvetica,sans-Serif" font-size="10.00"> value_set</text>
</g>
<!-- Node4 -->
<g id="node4" class="node">
<title>Node4</title>
<g id="a_node4"><a xlink:href="classnumberingt.html" target="_top" xlink:title=" ">
<polygon fill="none" stroke="black" points="1147,-58.5 1147,-77.5 1280,-77.5 1280,-58.5 1147,-58.5"/>
<text text-anchor="middle" x="1213.5" y="-65.5" font-family="Helvetica,sans-Serif" font-size="10.00">numberingt&lt; dstringt &gt;</text>
</a>
</g>
</g>
<!-- Node4&#45;&gt;Node3 -->
<g id="edge3" class="edge">
<title>Node4&#45;&gt;Node3</title>
<path fill="none" stroke="#9a32cd" stroke-dasharray="5,2" d="M1290.23,-68C1341.29,-68 1406.53,-68 1447.29,-68"/>
<polygon fill="#9a32cd" stroke="#9a32cd" points="1290.22,-64.5 1280.22,-68 1290.22,-71.5 1290.22,-64.5"/>
<text text-anchor="middle" x="1348.5" y="-71" font-family="Helvetica,sans-Serif" font-size="10.00"> function_numbering</text>
</g>
<!-- Node5 -->
<g id="node5" class="node">
<title>Node5</title>
<g id="a_node5"><a xlink:title=" ">
<polygon fill="none" stroke="#bfbfbf" points="903,-97.5 903,-138.5 1042,-138.5 1042,-97.5 903,-97.5"/>
<text text-anchor="start" x="911" y="-126.5" font-family="Helvetica,sans-Serif" font-size="10.00">std::unordered_map</text>
<text text-anchor="start" x="911" y="-115.5" font-family="Helvetica,sans-Serif" font-size="10.00">&lt; dstringt, number_type,</text>
<text text-anchor="middle" x="972.5" y="-104.5" font-family="Helvetica,sans-Serif" font-size="10.00"> std::hash&lt; dstringt &gt; &gt;</text>
</a>
</g>
</g>
<!-- Node5&#45;&gt;Node4 -->
<g id="edge4" class="edge">
<title>Node5&#45;&gt;Node4</title>
<path fill="none" stroke="#9a32cd" stroke-dasharray="5,2" d="M1052.32,-101.51C1090.29,-93.57 1134.48,-84.32 1166.81,-77.56"/>
<polygon fill="#9a32cd" stroke="#9a32cd" points="1051.38,-98.13 1042.31,-103.61 1052.81,-104.98 1051.38,-98.13"/>
<text text-anchor="middle" x="1097" y="-101" font-family="Helvetica,sans-Serif" font-size="10.00"> numbers_</text>
</g>
<!-- Node6 -->
<g id="node6" class="node">
<title>Node6</title>
<g id="a_node6"><a xlink:href="classdstringt.html" target="_top" xlink:title="dstringt has one field, an unsigned integer no which is an index into a static table of strings.">
<polygon fill="none" stroke="black" points="663.5,-165.5 663.5,-184.5 717.5,-184.5 717.5,-165.5 663.5,-165.5"/>
<text text-anchor="middle" x="690.5" y="-172.5" font-family="Helvetica,sans-Serif" font-size="10.00">dstringt</text>
</a>
</g>
</g>
<!-- Node6&#45;&gt;Node5 -->
<g id="edge5" class="edge">
<title>Node6&#45;&gt;Node5</title>
<path fill="none" stroke="#9a32cd" stroke-dasharray="5,2" d="M727.68,-164.23C744.42,-159.48 764.62,-154.06 783,-150 822.38,-141.3 866.84,-133.65 902.69,-128.01"/>
<polygon fill="#9a32cd" stroke="#9a32cd" points="726.4,-160.96 717.76,-167.09 728.33,-167.69 726.4,-160.96"/>
<text text-anchor="middle" x="831.5" y="-153" font-family="Helvetica,sans-Serif" font-size="10.00"> keys</text>
</g>
<!-- Node14 -->
<g id="node14" class="node">
<title>Node14</title>
<g id="a_node14"><a xlink:title=" ">
<polygon fill="none" stroke="#bfbfbf" points="1156.5,-173.5 1156.5,-214.5 1270.5,-214.5 1270.5,-173.5 1156.5,-173.5"/>
<text text-anchor="start" x="1164.5" y="-202.5" font-family="Helvetica,sans-Serif" font-size="10.00">std::unordered_map</text>
<text text-anchor="start" x="1164.5" y="-191.5" font-family="Helvetica,sans-Serif" font-size="10.00">&lt; idt, entryt, string</text>
<text text-anchor="middle" x="1213.5" y="-180.5" font-family="Helvetica,sans-Serif" font-size="10.00">_hash &gt;</text>
</a>
</g>
</g>
<!-- Node6&#45;&gt;Node14 -->
<g id="edge17" class="edge">
<title>Node6&#45;&gt;Node14</title>
<path fill="none" stroke="#9a32cd" stroke-dasharray="5,2" d="M727.89,-176.33C817.39,-179.59 1048.76,-188.03 1156.17,-191.95"/>
<polygon fill="#9a32cd" stroke="#9a32cd" points="727.81,-172.82 717.69,-175.96 727.56,-179.82 727.81,-172.82"/>
<text text-anchor="middle" x="972.5" y="-190" font-family="Helvetica,sans-Serif" font-size="10.00"> keys</text>
</g>
<!-- Node15 -->
<g id="node15" class="node">
<title>Node15</title>
<g id="a_node15"><a xlink:href="structvalue__set__fit_1_1entryt.html" target="_top" xlink:title=" ">
<polygon fill="none" stroke="black" points="915.5,-265.5 915.5,-284.5 1029.5,-284.5 1029.5,-265.5 915.5,-265.5"/>
<text text-anchor="middle" x="972.5" y="-272.5" font-family="Helvetica,sans-Serif" font-size="10.00">value_set_fit::entryt</text>
</a>
</g>
</g>
<!-- Node6&#45;&gt;Node15 -->
<g id="edge24" class="edge">
<title>Node6&#45;&gt;Node15</title>
<path fill="none" stroke="#9a32cd" stroke-dasharray="5,2" d="M710.64,-190.98C728.33,-204.93 755.9,-224.67 783,-236 806.43,-245.8 868.49,-257.71 915.05,-265.77"/>
<polygon fill="#9a32cd" stroke="#9a32cd" points="712.78,-188.21 702.8,-184.66 708.39,-193.66 712.78,-188.21"/>
<text text-anchor="middle" x="831.5" y="-261" font-family="Helvetica,sans-Serif" font-size="10.00"> identifier</text>
</g>
<!-- Node7 -->
<g id="node7" class="node">
<title>Node7</title>
<g id="a_node7"><a xlink:title="STL class.">
<polygon fill="none" stroke="#bfbfbf" points="357,-101 357,-131 471,-131 471,-101 357,-101"/>
<text text-anchor="start" x="365" y="-119" font-family="Helvetica,sans-Serif" font-size="10.00">std::unordered_map</text>
<text text-anchor="middle" x="414" y="-108" font-family="Helvetica,sans-Serif" font-size="10.00">&lt; K, T &gt;</text>
</a>
</g>
</g>
<!-- Node7&#45;&gt;Node5 -->
<g id="edge6" class="edge">
<title>Node7&#45;&gt;Node5</title>
<path fill="none" stroke="orange" stroke-dasharray="5,2" d="M481.44,-116.24C587.74,-116.62 795.02,-117.37 902.76,-117.75"/>
<polygon fill="orange" stroke="orange" points="481.18,-112.74 471.16,-116.2 481.15,-119.74 481.18,-112.74"/>
<text text-anchor="start" x="616" y="-132" font-family="Helvetica,sans-Serif" font-size="10.00"> &lt; dstringt, number</text>
<text text-anchor="middle" x="690.5" y="-121" font-family="Helvetica,sans-Serif" font-size="10.00">_type, std::hash&lt; dstringt &gt; &gt;</text>
</g>
<!-- Node13 -->
<g id="node13" class="node">
<title>Node13</title>
<g id="a_node13"><a xlink:title=" ">
<polygon fill="none" stroke="#bfbfbf" points="629.5,-38.5 629.5,-79.5 751.5,-79.5 751.5,-38.5 629.5,-38.5"/>
<text text-anchor="start" x="637.5" y="-67.5" font-family="Helvetica,sans-Serif" font-size="10.00">std::unordered_map</text>
<text text-anchor="start" x="637.5" y="-56.5" font-family="Helvetica,sans-Serif" font-size="10.00">&lt; keyt, number_type,</text>
<text text-anchor="middle" x="690.5" y="-45.5" font-family="Helvetica,sans-Serif" font-size="10.00"> std::hash&lt; keyt &gt; &gt;</text>
</a>
</g>
</g>
<!-- Node7&#45;&gt;Node13 -->
<g id="edge14" class="edge">
<title>Node7&#45;&gt;Node13</title>
<path fill="none" stroke="orange" stroke-dasharray="5,2" d="M449.38,-96.19C461.53,-90.03 475.54,-83.85 489,-80 534.93,-66.86 588.89,-61.77 629.25,-59.87"/>
<polygon fill="orange" stroke="orange" points="447.71,-93.11 440.49,-100.86 450.97,-99.31 447.71,-93.11"/>
<text text-anchor="start" x="489" y="-94" font-family="Helvetica,sans-Serif" font-size="10.00"> &lt; keyt, number_type,</text>
<text text-anchor="middle" x="543.5" y="-83" font-family="Helvetica,sans-Serif" font-size="10.00"> std::hash&lt; keyt &gt; &gt;</text>
</g>
<!-- Node7&#45;&gt;Node14 -->
<g id="edge27" class="edge">
<title>Node7&#45;&gt;Node14</title>
<path fill="none" stroke="orange" stroke-dasharray="5,2" d="M453.35,-135.54C492.93,-154.58 557.02,-182.31 616,-194 727.83,-216.17 1015.07,-204.09 1129,-200 1137.86,-199.68 1147.24,-199.18 1156.39,-198.59"/>
<polygon fill="orange" stroke="orange" points="454.85,-132.38 444.32,-131.15 451.78,-138.67 454.85,-132.38"/>
<text text-anchor="start" x="783" y="-220" font-family="Helvetica,sans-Serif" font-size="10.00"> &lt; idt, entryt, string</text>
<text text-anchor="middle" x="831.5" y="-209" font-family="Helvetica,sans-Serif" font-size="10.00">_hash &gt;</text>
</g>
<!-- Node8 -->
<g id="node8" class="node">
<title>Node8</title>
<g id="a_node8"><a xlink:title=" ">
<polygon fill="none" stroke="#bfbfbf" points="154.5,-134.5 154.5,-153.5 183.5,-153.5 183.5,-134.5 154.5,-134.5"/>
<text text-anchor="middle" x="169" y="-141.5" font-family="Helvetica,sans-Serif" font-size="10.00">K</text>
</a>
</g>
</g>
<!-- Node8&#45;&gt;Node7 -->
<g id="edge7" class="edge">
<title>Node8&#45;&gt;Node7</title>
<path fill="none" stroke="#9a32cd" stroke-dasharray="5,2" d="M193.75,-141.26C231.28,-136.94 305.31,-128.41 356.92,-122.46"/>
<polygon fill="#9a32cd" stroke="#9a32cd" points="193.29,-137.79 183.76,-142.41 194.1,-144.75 193.29,-137.79"/>
<text text-anchor="middle" x="290.5" y="-137" font-family="Helvetica,sans-Serif" font-size="10.00"> keys</text>
</g>
<!-- Node9 -->
<g id="node9" class="node">
<title>Node9</title>
<g id="a_node9"><a xlink:title=" ">
<polygon fill="none" stroke="#bfbfbf" points="0,-95.5 0,-114.5 29,-114.5 29,-95.5 0,-95.5"/>
<text text-anchor="middle" x="14.5" y="-102.5" font-family="Helvetica,sans-Serif" font-size="10.00">T</text>
</a>
</g>
</g>
<!-- Node9&#45;&gt;Node7 -->
<g id="edge8" class="edge">
<title>Node9&#45;&gt;Node7</title>
<path fill="none" stroke="#9a32cd" stroke-dasharray="5,2" d="M39.5,-105.66C101.53,-107.38 268.45,-112 356.64,-114.44"/>
<polygon fill="#9a32cd" stroke="#9a32cd" points="39.28,-102.16 29.18,-105.38 39.08,-109.15 39.28,-102.16"/>
<text text-anchor="middle" x="169" y="-114" font-family="Helvetica,sans-Serif" font-size="10.00"> elements</text>
</g>
<!-- Node11 -->
<g id="node11" class="node">
<title>Node11</title>
<g id="a_node11"><a xlink:title="STL class.">
<polygon fill="none" stroke="#bfbfbf" points="242,-35.5 242,-54.5 339,-54.5 339,-35.5 242,-35.5"/>
<text text-anchor="middle" x="290.5" y="-42.5" font-family="Helvetica,sans-Serif" font-size="10.00">std::vector&lt; T &gt;</text>
</a>
</g>
</g>
<!-- Node9&#45;&gt;Node11 -->
<g id="edge11" class="edge">
<title>Node9&#45;&gt;Node11</title>
<path fill="none" stroke="#9a32cd" stroke-dasharray="5,2" d="M32.55,-88.83C36.97,-85.42 41.92,-82.19 47,-80 110.67,-52.55 191.57,-45.86 241.95,-44.63"/>
<polygon fill="#9a32cd" stroke="#9a32cd" points="30.17,-86.26 24.82,-95.4 34.71,-91.59 30.17,-86.26"/>
<text text-anchor="middle" x="71.5" y="-83" font-family="Helvetica,sans-Serif" font-size="10.00"> elements</text>
</g>
<!-- Node17 -->
<g id="node17" class="node">
<title>Node17</title>
<g id="a_node17"><a xlink:href="classreference__counting_1_1dt.html" target="_top" xlink:title=" ">
<polygon fill="none" stroke="black" points="114,-212 114,-242 224,-242 224,-212 114,-212"/>
<text text-anchor="start" x="122" y="-230" font-family="Helvetica,sans-Serif" font-size="10.00">reference_counting</text>
<text text-anchor="middle" x="169" y="-219" font-family="Helvetica,sans-Serif" font-size="10.00">&lt; T, empty &gt;::dt</text>
</a>
</g>
</g>
<!-- Node9&#45;&gt;Node17 -->
<g id="edge21" class="edge">
<title>Node9&#45;&gt;Node17</title>
<path fill="none" stroke="midnightblue" d="M35.43,-120.94C65.01,-144.61 120.14,-188.71 149.11,-211.89"/>
<polygon fill="midnightblue" stroke="midnightblue" points="37.46,-118.09 27.47,-114.57 33.09,-123.55 37.46,-118.09"/>
</g>
<!-- Node10 -->
<g id="node10" class="node">
<title>Node10</title>
<g id="a_node10"><a xlink:title=" ">
<polygon fill="none" stroke="#bfbfbf" points="623,-0.5 623,-19.5 758,-19.5 758,-0.5 623,-0.5"/>
<text text-anchor="middle" x="690.5" y="-7.5" font-family="Helvetica,sans-Serif" font-size="10.00">std::vector&lt; key_type &gt;</text>
</a>
</g>
</g>
<!-- Node10&#45;&gt;Node4 -->
<g id="edge9" class="edge">
<title>Node10&#45;&gt;Node4</title>
<path fill="none" stroke="#9a32cd" stroke-dasharray="5,2" d="M755.74,-23.62C758.97,-25.22 762.08,-27.01 765,-29 776.3,-36.73 770.92,-47.56 783,-54 814.19,-70.62 1034.55,-70.31 1146.93,-69.02"/>
<polygon fill="#9a32cd" stroke="#9a32cd" points="756.93,-20.32 746.36,-19.6 754.17,-26.76 756.93,-20.32"/>
<text text-anchor="middle" x="972.5" y="-73" font-family="Helvetica,sans-Serif" font-size="10.00"> data_</text>
</g>
<!-- Node12 -->
<g id="node12" class="node">
<title>Node12</title>
<g id="a_node12"><a xlink:href="classnumberingt.html" target="_top" xlink:title=" ">
<polygon fill="none" stroke="black" points="898,-6.5 898,-25.5 1047,-25.5 1047,-6.5 898,-6.5"/>
<text text-anchor="middle" x="972.5" y="-13.5" font-family="Helvetica,sans-Serif" font-size="10.00">numberingt&lt; keyt, hasht &gt;</text>
</a>
</g>
</g>
<!-- Node10&#45;&gt;Node12 -->
<g id="edge15" class="edge">
<title>Node10&#45;&gt;Node12</title>
<path fill="none" stroke="#9a32cd" stroke-dasharray="5,2" d="M768.63,-8.08C802.77,-7.62 843.4,-7.6 880,-9 885.73,-9.22 891.66,-9.51 897.62,-9.86"/>
<polygon fill="#9a32cd" stroke="#9a32cd" points="768.21,-4.58 758.26,-8.23 768.31,-11.58 768.21,-4.58"/>
<text text-anchor="middle" x="831.5" y="-12" font-family="Helvetica,sans-Serif" font-size="10.00"> data_</text>
</g>
<!-- Node11&#45;&gt;Node10 -->
<g id="edge10" class="edge">
<title>Node11&#45;&gt;Node10</title>
<path fill="none" stroke="orange" stroke-dasharray="5,2" d="M349.45,-39.9C422.13,-33.51 546.46,-22.58 622.96,-15.85"/>
<polygon fill="orange" stroke="orange" points="348.77,-36.45 339.11,-40.81 349.38,-43.42 348.77,-36.45"/>
<text text-anchor="middle" x="414" y="-42" font-family="Helvetica,sans-Serif" font-size="10.00"> &lt; key_type &gt;</text>
</g>
<!-- Node12&#45;&gt;Node3 -->
<g id="edge28" class="edge">
<title>Node12&#45;&gt;Node3</title>
<path fill="none" stroke="#9a32cd" stroke-dasharray="5,2" d="M1057.24,-21.89C1080.48,-23.54 1105.72,-25.33 1129,-27 1196.12,-31.82 1213.11,-30.7 1280,-38 1338.56,-44.39 1406.06,-54.8 1447.38,-61.53"/>
<polygon fill="#9a32cd" stroke="#9a32cd" points="1057.29,-18.39 1047.07,-21.17 1056.79,-25.37 1057.29,-18.39"/>
<text text-anchor="middle" x="1213.5" y="-41" font-family="Helvetica,sans-Serif" font-size="10.00"> object_numbering</text>
</g>
<!-- Node12&#45;&gt;Node4 -->
<g id="edge12" class="edge">
<title>Node12&#45;&gt;Node4</title>
<path fill="none" stroke="orange" stroke-dasharray="5,2" d="M1048.57,-27.18C1074.21,-31.49 1102.98,-36.87 1129,-43 1147.41,-47.34 1167.75,-53.4 1183.75,-58.47"/>
<polygon fill="orange" stroke="orange" points="1048.97,-23.7 1038.54,-25.52 1047.83,-30.61 1048.97,-23.7"/>
<text text-anchor="middle" x="1097" y="-46" font-family="Helvetica,sans-Serif" font-size="10.00"> &lt; dstringt &gt;</text>
</g>
<!-- Node13&#45;&gt;Node12 -->
<g id="edge13" class="edge">
<title>Node13&#45;&gt;Node12</title>
<path fill="none" stroke="#9a32cd" stroke-dasharray="5,2" d="M761.65,-48.23C807.13,-41.24 865.84,-32.23 909.6,-25.51"/>
<polygon fill="#9a32cd" stroke="#9a32cd" points="760.92,-44.8 751.57,-49.78 761.98,-51.72 760.92,-44.8"/>
<text text-anchor="middle" x="831.5" y="-47" font-family="Helvetica,sans-Serif" font-size="10.00"> numbers_</text>
</g>
<!-- Node14&#45;&gt;Node3 -->
<g id="edge16" class="edge">
<title>Node14&#45;&gt;Node3</title>
<path fill="none" stroke="#9a32cd" stroke-dasharray="5,2" d="M1256.52,-168.32C1296.6,-144.67 1359.27,-109.89 1417,-87 1426.59,-83.2 1437.21,-79.87 1447.19,-77.1"/>
<polygon fill="#9a32cd" stroke="#9a32cd" points="1254.63,-165.37 1247.82,-173.49 1258.21,-171.39 1254.63,-165.37"/>
<text text-anchor="middle" x="1348.5" y="-146" font-family="Helvetica,sans-Serif" font-size="10.00"> values</text>
</g>
<!-- Node15&#45;&gt;Node14 -->
<g id="edge18" class="edge">
<title>Node15&#45;&gt;Node14</title>
<path fill="none" stroke="#9a32cd" stroke-dasharray="5,2" d="M1018.12,-262.71C1049.4,-253.8 1092.05,-241.07 1129,-228 1140.51,-223.93 1152.76,-219.18 1164.22,-214.55"/>
<polygon fill="#9a32cd" stroke="#9a32cd" points="1017.06,-259.37 1008.39,-265.46 1018.96,-266.11 1017.06,-259.37"/>
<text text-anchor="middle" x="1097" y="-251" font-family="Helvetica,sans-Serif" font-size="10.00"> elements</text>
</g>
<!-- Node16 -->
<g id="node16" class="node">
<title>Node16</title>
<g id="a_node16"><a xlink:href="classreference__counting.html" target="_top" xlink:title=" ">
<polygon fill="none" stroke="black" points="635,-264 635,-294 746,-294 746,-264 635,-264"/>
<text text-anchor="start" x="643" y="-282" font-family="Helvetica,sans-Serif" font-size="10.00">reference_counting</text>
<text text-anchor="middle" x="690.5" y="-271" font-family="Helvetica,sans-Serif" font-size="10.00">&lt; object_map_dt &gt;</text>
</a>
</g>
</g>
<!-- Node16&#45;&gt;Node15 -->
<g id="edge19" class="edge">
<title>Node16&#45;&gt;Node15</title>
<path fill="none" stroke="#9a32cd" stroke-dasharray="5,2" d="M756.44,-278.07C804.45,-277.39 869.2,-276.46 915.07,-275.81"/>
<polygon fill="#9a32cd" stroke="#9a32cd" points="756.1,-274.58 746.15,-278.22 756.2,-281.58 756.1,-274.58"/>
<text text-anchor="middle" x="831.5" y="-280" font-family="Helvetica,sans-Serif" font-size="10.00"> object_map</text>
</g>
<!-- Node17&#45;&gt;Node16 -->
<g id="edge20" class="edge">
<title>Node17&#45;&gt;Node16</title>
<path fill="none" stroke="#9a32cd" stroke-dasharray="5,2" d="M233.98,-240.72C236.69,-241.17 239.37,-241.6 242,-242 382.69,-263.14 550.21,-272.94 634.81,-276.83"/>
<polygon fill="#9a32cd" stroke="#9a32cd" points="234.6,-237.27 224.14,-238.96 233.37,-244.16 234.6,-237.27"/>
<text text-anchor="middle" x="414" y="-269" font-family="Helvetica,sans-Serif" font-size="10.00"> d</text>
</g>
<!-- Node18 -->
<g id="node18" class="node">
<title>Node18</title>
<g id="a_node18"><a xlink:href="classreference__counting.html" target="_top" xlink:title=" ">
<polygon fill="none" stroke="black" points="359,-212 359,-242 469,-242 469,-212 359,-212"/>
<text text-anchor="start" x="367" y="-230" font-family="Helvetica,sans-Serif" font-size="10.00">reference_counting</text>
<text text-anchor="middle" x="414" y="-219" font-family="Helvetica,sans-Serif" font-size="10.00">&lt; T, empty &gt;</text>
</a>
</g>
</g>
<!-- Node17&#45;&gt;Node18 -->
<g id="edge23" class="edge">
<title>Node17&#45;&gt;Node18</title>
<path fill="none" stroke="#9a32cd" stroke-dasharray="5,2" d="M234.38,-227C273.21,-227 322.12,-227 358.93,-227"/>
<polygon fill="#9a32cd" stroke="#9a32cd" points="234.23,-223.5 224.23,-227 234.23,-230.5 234.23,-223.5"/>
<text text-anchor="middle" x="290.5" y="-230" font-family="Helvetica,sans-Serif" font-size="10.00"> d</text>
</g>
<!-- Node18&#45;&gt;Node16 -->
<g id="edge22" class="edge">
<title>Node18&#45;&gt;Node16</title>
<path fill="none" stroke="orange" stroke-dasharray="5,2" d="M479.5,-234.59C514.7,-239.22 558.95,-245.82 598,-254 611.22,-256.77 625.35,-260.33 638.47,-263.89"/>
<polygon fill="orange" stroke="orange" points="479.72,-231.09 469.35,-233.28 478.82,-238.03 479.72,-231.09"/>
<text text-anchor="middle" x="543.5" y="-257" font-family="Helvetica,sans-Serif" font-size="10.00"> &lt; object_map_dt &gt;</text>
</g>
<!-- Node19 -->
<g id="node19" class="node">
<title>Node19</title>
<g id="a_node19"><a xlink:title="STL class.">
<polygon fill="none" stroke="#bfbfbf" points="658,-316.5 658,-335.5 723,-335.5 723,-316.5 658,-316.5"/>
<text text-anchor="middle" x="690.5" y="-323.5" font-family="Helvetica,sans-Serif" font-size="10.00">std::string</text>
</a>
</g>
</g>
<!-- Node19&#45;&gt;Node15 -->
<g id="edge25" class="edge">
<title>Node19&#45;&gt;Node15</title>
<path fill="none" stroke="#9a32cd" stroke-dasharray="5,2" d="M733.42,-318.5C771.63,-311.66 829.62,-301.22 880,-292 893.03,-289.61 907.1,-287.01 920.21,-284.58"/>
<polygon fill="#9a32cd" stroke="#9a32cd" points="732.42,-315.13 723.19,-320.34 733.65,-322.02 732.42,-315.13"/>
<text text-anchor="middle" x="831.5" y="-311" font-family="Helvetica,sans-Serif" font-size="10.00"> suffix</text>
</g>
<!-- Node20 -->
<g id="node20" class="node">
<title>Node20</title>
<g id="a_node20"><a xlink:title="STL class.">
<polygon fill="none" stroke="#bfbfbf" points="362,-311 362,-341 466,-341 466,-311 362,-311"/>
<text text-anchor="start" x="370" y="-329" font-family="Helvetica,sans-Serif" font-size="10.00">std::basic_string&lt;</text>
<text text-anchor="middle" x="414" y="-318" font-family="Helvetica,sans-Serif" font-size="10.00"> char &gt;</text>
</a>
</g>
</g>
<!-- Node20&#45;&gt;Node19 -->
<g id="edge26" class="edge">
<title>Node20&#45;&gt;Node19</title>
<path fill="none" stroke="midnightblue" d="M476.5,-326C532.69,-326 613.54,-326 657.72,-326"/>
<polygon fill="midnightblue" stroke="midnightblue" points="476.31,-322.5 466.31,-326 476.31,-329.5 476.31,-322.5"/>
</g>
</g>
</svg>
