<?xml version="1.0" encoding="UTF-8" standalone="no"?>
<!DOCTYPE svg PUBLIC "-//W3C//DTD SVG 1.1//EN"
 "http://www.w3.org/Graphics/SVG/1.1/DTD/svg11.dtd">
<!-- Generated by graphviz version 2.43.0 (0)
 -->
<!-- Title: rw_guarded_range_set_value_sett Pages: 1 -->
<svg width="1956pt" height="329pt"
 viewBox="0.00 0.00 1956.00 328.50" xmlns="http://www.w3.org/2000/svg" xmlns:xlink="http://www.w3.org/1999/xlink">
<g id="graph0" class="graph" transform="scale(1 1) rotate(0) translate(4 324.5)">
<title>rw_guarded_range_set_value_sett</title>
<!-- Node1 -->
<g id="node1" class="node">
<title>Node1</title>
<g id="a_node1"><a xlink:title=" ">
<polygon fill="#bfbfbf" stroke="black" points="1821,-62.5 1821,-92.5 1948,-92.5 1948,-62.5 1821,-62.5"/>
<text text-anchor="start" x="1829" y="-80.5" font-family="Helvetica,sans-Serif" font-size="10.00">rw_guarded_range_set</text>
<text text-anchor="middle" x="1884.5" y="-69.5" font-family="Helvetica,sans-Serif" font-size="10.00">_value_sett</text>
</a>
</g>
</g>
<!-- Node2 -->
<g id="node2" class="node">
<title>Node2</title>
<g id="a_node2"><a xlink:href="classrw__range__set__value__sett.html" target="_top" xlink:title=" ">
<polygon fill="none" stroke="black" points="1227,-131 1227,-150 1365,-150 1365,-131 1227,-131"/>
<text text-anchor="middle" x="1296" y="-138" font-family="Helvetica,sans-Serif" font-size="10.00">rw_range_set_value_sett</text>
</a>
</g>
</g>
<!-- Node2&#45;&gt;Node1 -->
<g id="edge1" class="edge">
<title>Node2&#45;&gt;Node1</title>
<path fill="none" stroke="midnightblue" d="M1336.91,-128.22C1360.9,-121.9 1392.17,-115.5 1420.5,-115.5 1420.5,-115.5 1420.5,-115.5 1644,-115.5 1705.47,-115.5 1774.72,-103.14 1822.89,-92.52"/>
<polygon fill="midnightblue" stroke="midnightblue" points="1335.83,-124.89 1327.11,-130.91 1337.68,-131.64 1335.83,-124.89"/>
</g>
<!-- Node3 -->
<g id="node3" class="node">
<title>Node3</title>
<g id="a_node3"><a xlink:href="classrw__range__sett.html" target="_top" xlink:title=" ">
<polygon fill="none" stroke="black" points="933,-160 933,-179 1019,-179 1019,-160 933,-160"/>
<text text-anchor="middle" x="976" y="-167" font-family="Helvetica,sans-Serif" font-size="10.00">rw_range_sett</text>
</a>
</g>
</g>
<!-- Node3&#45;&gt;Node2 -->
<g id="edge2" class="edge">
<title>Node3&#45;&gt;Node2</title>
<path fill="none" stroke="midnightblue" d="M1029.27,-164.73C1083.28,-159.81 1167.79,-152.1 1226.97,-146.7"/>
<polygon fill="midnightblue" stroke="midnightblue" points="1028.87,-161.26 1019.23,-165.65 1029.5,-168.23 1028.87,-161.26"/>
</g>
<!-- Node4 -->
<g id="node4" class="node">
<title>Node4</title>
<g id="a_node4"><a xlink:title=" ">
<polygon fill="none" stroke="#bfbfbf" points="653.5,-152.5 653.5,-204.5 802.5,-204.5 802.5,-152.5 653.5,-152.5"/>
<text text-anchor="start" x="661.5" y="-192.5" font-family="Helvetica,sans-Serif" font-size="10.00">std::unordered_map</text>
<text text-anchor="start" x="661.5" y="-181.5" font-family="Helvetica,sans-Serif" font-size="10.00">&lt; irep_idt, std::unique</text>
<text text-anchor="start" x="661.5" y="-170.5" font-family="Helvetica,sans-Serif" font-size="10.00">_ptr&lt; range_domain_baset</text>
<text text-anchor="middle" x="728" y="-159.5" font-family="Helvetica,sans-Serif" font-size="10.00"> &gt;, string_hash &gt;</text>
</a>
</g>
</g>
<!-- Node4&#45;&gt;Node3 -->
<g id="edge3" class="edge">
<title>Node4&#45;&gt;Node3</title>
<path fill="none" stroke="#9a32cd" stroke-dasharray="5,2" d="M812.92,-175.43C853.26,-173.95 899.87,-172.25 932.72,-171.05"/>
<polygon fill="#9a32cd" stroke="#9a32cd" points="812.67,-171.94 802.81,-175.8 812.93,-178.93 812.67,-171.94"/>
<text text-anchor="middle" x="857.5" y="-189.5" font-family="Helvetica,sans-Serif" font-size="10.00"> w_range_set</text>
<text text-anchor="middle" x="857.5" y="-178.5" font-family="Helvetica,sans-Serif" font-size="10.00">r_range_set</text>
</g>
<!-- Node5 -->
<g id="node5" class="node">
<title>Node5</title>
<g id="a_node5"><a xlink:href="classdstringt.html" target="_top" xlink:title="dstringt has one field, an unsigned integer no which is an index into a static table of strings.">
<polygon fill="none" stroke="black" points="443.5,-106 443.5,-125 497.5,-125 497.5,-106 443.5,-106"/>
<text text-anchor="middle" x="470.5" y="-113" font-family="Helvetica,sans-Serif" font-size="10.00">dstringt</text>
</a>
</g>
</g>
<!-- Node5&#45;&gt;Node2 -->
<g id="edge20" class="edge">
<title>Node5&#45;&gt;Node2</title>
<path fill="none" stroke="#9a32cd" stroke-dasharray="5,2" d="M507.83,-116.6C634.81,-120.46 1060.05,-133.37 1226.95,-138.43"/>
<polygon fill="#9a32cd" stroke="#9a32cd" points="507.61,-113.09 497.51,-116.29 507.39,-120.09 507.61,-113.09"/>
<text text-anchor="middle" x="857.5" y="-131.5" font-family="Helvetica,sans-Serif" font-size="10.00"> function</text>
</g>
<!-- Node5&#45;&gt;Node4 -->
<g id="edge4" class="edge">
<title>Node5&#45;&gt;Node4</title>
<path fill="none" stroke="#9a32cd" stroke-dasharray="5,2" d="M507.48,-123.06C539.89,-130 588.79,-140.81 631,-151.5 638.3,-153.35 645.89,-155.35 653.46,-157.4"/>
<polygon fill="#9a32cd" stroke="#9a32cd" points="508.08,-119.61 497.57,-120.95 506.62,-126.45 508.08,-119.61"/>
<text text-anchor="middle" x="593" y="-154.5" font-family="Helvetica,sans-Serif" font-size="10.00"> keys</text>
</g>
<!-- Node21 -->
<g id="node21" class="node">
<title>Node21</title>
<g id="a_node21"><a xlink:href="classtree__nodet.html" target="_top" xlink:title="A node with data in a tree, it contains:">
<polygon fill="none" stroke="black" points="649,-42.5 649,-72.5 807,-72.5 807,-42.5 649,-42.5"/>
<text text-anchor="start" x="657" y="-60.5" font-family="Helvetica,sans-Serif" font-size="10.00">tree_nodet&lt; treet,</text>
<text text-anchor="middle" x="728" y="-49.5" font-family="Helvetica,sans-Serif" font-size="10.00"> named_subtreest, sharing &gt;</text>
</a>
</g>
</g>
<!-- Node5&#45;&gt;Node21 -->
<g id="edge28" class="edge">
<title>Node5&#45;&gt;Node21</title>
<path fill="none" stroke="#9a32cd" stroke-dasharray="5,2" d="M507.43,-105.03C522.12,-100.9 539.32,-96.25 555,-92.5 585.53,-85.2 619.33,-78.11 648.84,-72.24"/>
<polygon fill="#9a32cd" stroke="#9a32cd" points="506.37,-101.69 497.71,-107.79 508.28,-108.42 506.37,-101.69"/>
<text text-anchor="middle" x="593" y="-95.5" font-family="Helvetica,sans-Serif" font-size="10.00"> data</text>
</g>
<!-- Node6 -->
<g id="node6" class="node">
<title>Node6</title>
<g id="a_node6"><a xlink:title=" ">
<polygon fill="none" stroke="#bfbfbf" points="406.5,-144.5 406.5,-174.5 534.5,-174.5 534.5,-144.5 406.5,-144.5"/>
<text text-anchor="start" x="414.5" y="-162.5" font-family="Helvetica,sans-Serif" font-size="10.00">std::unique_ptr&lt; range</text>
<text text-anchor="middle" x="470.5" y="-151.5" font-family="Helvetica,sans-Serif" font-size="10.00">_domain_baset &gt;</text>
</a>
</g>
</g>
<!-- Node6&#45;&gt;Node4 -->
<g id="edge5" class="edge">
<title>Node6&#45;&gt;Node4</title>
<path fill="none" stroke="#9a32cd" stroke-dasharray="5,2" d="M544.99,-164.96C578.97,-167.49 619.23,-170.49 653.25,-173.02"/>
<polygon fill="#9a32cd" stroke="#9a32cd" points="544.89,-161.45 534.66,-164.2 544.37,-168.43 544.89,-161.45"/>
<text text-anchor="middle" x="593" y="-174.5" font-family="Helvetica,sans-Serif" font-size="10.00"> elements</text>
</g>
<!-- Node7 -->
<g id="node7" class="node">
<title>Node7</title>
<g id="a_node7"><a xlink:href="classrange__domain__baset.html" target="_top" xlink:title=" ">
<polygon fill="none" stroke="black" points="117.5,-174 117.5,-193 236.5,-193 236.5,-174 117.5,-174"/>
<text text-anchor="middle" x="177" y="-181" font-family="Helvetica,sans-Serif" font-size="10.00">range_domain_baset</text>
</a>
</g>
</g>
<!-- Node7&#45;&gt;Node6 -->
<g id="edge6" class="edge">
<title>Node7&#45;&gt;Node6</title>
<path fill="none" stroke="#9a32cd" stroke-dasharray="5,2" d="M246.71,-177.84C295.08,-173.86 359.34,-168.57 406.41,-164.69"/>
<polygon fill="#9a32cd" stroke="#9a32cd" points="246.32,-174.36 236.64,-178.67 246.89,-181.34 246.32,-174.36"/>
<text text-anchor="middle" x="322" y="-179.5" font-family="Helvetica,sans-Serif" font-size="10.00"> ptr</text>
</g>
<!-- Node8 -->
<g id="node8" class="node">
<title>Node8</title>
<g id="a_node8"><a xlink:title="STL class.">
<polygon fill="none" stroke="#bfbfbf" points="118,-136 118,-155 236,-155 236,-136 118,-136"/>
<text text-anchor="middle" x="177" y="-143" font-family="Helvetica,sans-Serif" font-size="10.00">std::unique_ptr&lt; T &gt;</text>
</a>
</g>
</g>
<!-- Node8&#45;&gt;Node6 -->
<g id="edge7" class="edge">
<title>Node8&#45;&gt;Node6</title>
<path fill="none" stroke="orange" stroke-dasharray="5,2" d="M246.39,-145.71C287,-146.19 339.48,-147.44 386,-150.5 392.55,-150.93 399.37,-151.49 406.18,-152.11"/>
<polygon fill="orange" stroke="orange" points="246.37,-142.21 236.34,-145.6 246.3,-149.21 246.37,-142.21"/>
<text text-anchor="middle" x="322" y="-153.5" font-family="Helvetica,sans-Serif" font-size="10.00"> &lt; range_domain_baset &gt;</text>
</g>
<!-- Node9 -->
<g id="node9" class="node">
<title>Node9</title>
<g id="a_node9"><a xlink:title=" ">
<polygon fill="none" stroke="#bfbfbf" points="0,-170 0,-189 29,-189 29,-170 0,-170"/>
<text text-anchor="middle" x="14.5" y="-177" font-family="Helvetica,sans-Serif" font-size="10.00">T</text>
</a>
</g>
</g>
<!-- Node9&#45;&gt;Node8 -->
<g id="edge8" class="edge">
<title>Node9&#45;&gt;Node8</title>
<path fill="none" stroke="#9a32cd" stroke-dasharray="5,2" d="M27.56,-161.96C32.76,-155.89 39.4,-149.79 47,-146.5 68.89,-137.03 94.9,-135.27 117.8,-136.44"/>
<polygon fill="#9a32cd" stroke="#9a32cd" points="24.73,-159.89 21.4,-169.95 30.28,-164.17 24.73,-159.89"/>
<text text-anchor="middle" x="71.5" y="-149.5" font-family="Helvetica,sans-Serif" font-size="10.00"> ptr</text>
</g>
<!-- Node10 -->
<g id="node10" class="node">
<title>Node10</title>
<g id="a_node10"><a xlink:title="STL class.">
<polygon fill="none" stroke="#bfbfbf" points="120,-216.5 120,-246.5 234,-246.5 234,-216.5 120,-216.5"/>
<text text-anchor="start" x="128" y="-234.5" font-family="Helvetica,sans-Serif" font-size="10.00">std::unordered_map</text>
<text text-anchor="middle" x="177" y="-223.5" font-family="Helvetica,sans-Serif" font-size="10.00">&lt; K, T &gt;</text>
</a>
</g>
</g>
<!-- Node9&#45;&gt;Node10 -->
<g id="edge11" class="edge">
<title>Node9&#45;&gt;Node10</title>
<path fill="none" stroke="#9a32cd" stroke-dasharray="5,2" d="M39.15,-174.71C55.86,-172.51 78.34,-171.99 96,-180.5 107.38,-185.98 104.03,-194.74 114,-202.5 120.85,-207.83 128.83,-212.47 136.74,-216.4"/>
<polygon fill="#9a32cd" stroke="#9a32cd" points="38.43,-171.28 29.11,-176.33 39.54,-178.2 38.43,-171.28"/>
<text text-anchor="middle" x="71.5" y="-183.5" font-family="Helvetica,sans-Serif" font-size="10.00"> elements</text>
</g>
<!-- Node15 -->
<g id="node15" class="node">
<title>Node15</title>
<g id="a_node15"><a xlink:title="STL class.">
<polygon fill="none" stroke="#bfbfbf" points="114,-269 114,-288 240,-288 240,-269 114,-269"/>
<text text-anchor="middle" x="177" y="-276" font-family="Helvetica,sans-Serif" font-size="10.00">std::multimap&lt; K, T &gt;</text>
</a>
</g>
</g>
<!-- Node9&#45;&gt;Node15 -->
<g id="edge17" class="edge">
<title>Node9&#45;&gt;Node15</title>
<path fill="none" stroke="#9a32cd" stroke-dasharray="5,2" d="M38.42,-189.49C55.7,-197.83 79.21,-211.01 96,-227.5 106.82,-238.13 102.19,-246.98 114,-256.5 120.58,-261.8 128.54,-265.88 136.53,-268.99"/>
<polygon fill="#9a32cd" stroke="#9a32cd" points="39.61,-186.18 29.07,-185.14 36.66,-192.53 39.61,-186.18"/>
<text text-anchor="middle" x="71.5" y="-230.5" font-family="Helvetica,sans-Serif" font-size="10.00"> elements</text>
</g>
<!-- Node10&#45;&gt;Node4 -->
<g id="edge9" class="edge">
<title>Node10&#45;&gt;Node4</title>
<path fill="none" stroke="orange" stroke-dasharray="5,2" d="M244.15,-225.11C347.23,-215.16 545.5,-196.02 653.12,-185.63"/>
<polygon fill="orange" stroke="orange" points="243.79,-221.63 234.17,-226.08 244.46,-228.6 243.79,-221.63"/>
<text text-anchor="start" x="404" y="-233.5" font-family="Helvetica,sans-Serif" font-size="10.00"> &lt; irep_idt, std::unique</text>
<text text-anchor="start" x="404" y="-222.5" font-family="Helvetica,sans-Serif" font-size="10.00">_ptr&lt; range_domain_baset</text>
<text text-anchor="middle" x="470.5" y="-211.5" font-family="Helvetica,sans-Serif" font-size="10.00"> &gt;, string_hash &gt;</text>
</g>
<!-- Node14 -->
<g id="node14" class="node">
<title>Node14</title>
<g id="a_node14"><a xlink:href="classsymbol__table__baset.html" target="_top" xlink:title="The symbol table base class interface.">
<polygon fill="none" stroke="black" points="413,-263 413,-282 528,-282 528,-263 413,-263"/>
<text text-anchor="middle" x="470.5" y="-270" font-family="Helvetica,sans-Serif" font-size="10.00">symbol_table_baset</text>
</a>
</g>
</g>
<!-- Node10&#45;&gt;Node14 -->
<g id="edge18" class="edge">
<title>Node10&#45;&gt;Node14</title>
<path fill="none" stroke="#9a32cd" stroke-dasharray="5,2" d="M244.25,-239.47C285.16,-244.54 338.68,-251.46 386,-258.5 395.16,-259.86 404.87,-261.4 414.3,-262.95"/>
<polygon fill="#9a32cd" stroke="#9a32cd" points="244.49,-235.97 234.14,-238.22 243.63,-242.92 244.49,-235.97"/>
<text text-anchor="middle" x="322" y="-261.5" font-family="Helvetica,sans-Serif" font-size="10.00"> symbols</text>
</g>
<!-- Node11 -->
<g id="node11" class="node">
<title>Node11</title>
<g id="a_node11"><a xlink:title=" ">
<polygon fill="none" stroke="#bfbfbf" points="0,-255 0,-274 29,-274 29,-255 0,-255"/>
<text text-anchor="middle" x="14.5" y="-262" font-family="Helvetica,sans-Serif" font-size="10.00">K</text>
</a>
</g>
</g>
<!-- Node11&#45;&gt;Node10 -->
<g id="edge10" class="edge">
<title>Node11&#45;&gt;Node10</title>
<path fill="none" stroke="#9a32cd" stroke-dasharray="5,2" d="M38.72,-255.05C41.48,-254.11 44.29,-253.23 47,-252.5 70.56,-246.17 97.08,-241.45 119.92,-238.11"/>
<polygon fill="#9a32cd" stroke="#9a32cd" points="37.25,-251.86 29.1,-258.63 39.69,-258.42 37.25,-251.86"/>
<text text-anchor="middle" x="71.5" y="-255.5" font-family="Helvetica,sans-Serif" font-size="10.00"> keys</text>
</g>
<!-- Node11&#45;&gt;Node15 -->
<g id="edge16" class="edge">
<title>Node11&#45;&gt;Node15</title>
<path fill="none" stroke="#9a32cd" stroke-dasharray="5,2" d="M39.34,-266.58C58.97,-268.29 87.71,-270.8 113.77,-273.07"/>
<polygon fill="#9a32cd" stroke="#9a32cd" points="39.45,-263.08 29.18,-265.69 38.84,-270.05 39.45,-263.08"/>
<text text-anchor="middle" x="71.5" y="-274.5" font-family="Helvetica,sans-Serif" font-size="10.00"> keys</text>
</g>
<!-- Node12 -->
<g id="node12" class="node">
<title>Node12</title>
<g id="a_node12"><a xlink:href="classnamespacet.html" target="_top" xlink:title="A namespacet is essentially one or two symbol tables bound together, to allow for symbol lookups in t...">
<polygon fill="none" stroke="black" points="689.5,-263 689.5,-282 766.5,-282 766.5,-263 689.5,-263"/>
<text text-anchor="middle" x="728" y="-270" font-family="Helvetica,sans-Serif" font-size="10.00">namespacet</text>
</a>
</g>
</g>
<!-- Node12&#45;&gt;Node3 -->
<g id="edge12" class="edge">
<title>Node12&#45;&gt;Node3</title>
<path fill="none" stroke="#9a32cd" stroke-dasharray="5,2" d="M764.95,-259.17C798.29,-246.22 848.81,-225.11 890,-201.5 898.56,-196.59 899.12,-192.8 908,-188.5 915.73,-184.76 924.32,-181.63 932.71,-179.07"/>
<polygon fill="#9a32cd" stroke="#9a32cd" points="763.27,-256.06 755.19,-262.91 765.78,-262.6 763.27,-256.06"/>
<text text-anchor="middle" x="857.5" y="-236.5" font-family="Helvetica,sans-Serif" font-size="10.00"> ns</text>
</g>
<!-- Node13 -->
<g id="node13" class="node">
<title>Node13</title>
<g id="a_node13"><a xlink:href="classnamespace__baset.html" target="_top" xlink:title="Basic interface for a namespace.">
<polygon fill="none" stroke="black" points="418,-301 418,-320 523,-320 523,-301 418,-301"/>
<text text-anchor="middle" x="470.5" y="-308" font-family="Helvetica,sans-Serif" font-size="10.00">namespace_baset</text>
</a>
</g>
</g>
<!-- Node13&#45;&gt;Node12 -->
<g id="edge13" class="edge">
<title>Node13&#45;&gt;Node12</title>
<path fill="none" stroke="midnightblue" d="M533.34,-307.35C563.02,-305.25 599,-301.87 631,-296.5 652.35,-292.92 675.94,-287.05 694.39,-282.01"/>
<polygon fill="midnightblue" stroke="midnightblue" points="532.86,-303.87 523.12,-308.03 533.33,-310.85 532.86,-303.87"/>
</g>
<!-- Node14&#45;&gt;Node12 -->
<g id="edge14" class="edge">
<title>Node14&#45;&gt;Node12</title>
<path fill="none" stroke="#9a32cd" stroke-dasharray="5,2" d="M538.24,-272.5C586.44,-272.5 649.77,-272.5 689.43,-272.5"/>
<polygon fill="#9a32cd" stroke="#9a32cd" points="538.2,-269 528.2,-272.5 538.2,-276 538.2,-269"/>
<text text-anchor="middle" x="593" y="-286.5" font-family="Helvetica,sans-Serif" font-size="10.00"> symbol_table1</text>
<text text-anchor="middle" x="593" y="-275.5" font-family="Helvetica,sans-Serif" font-size="10.00">symbol_table2</text>
</g>
<!-- Node15&#45;&gt;Node14 -->
<g id="edge15" class="edge">
<title>Node15&#45;&gt;Node14</title>
<path fill="none" stroke="#9a32cd" stroke-dasharray="5,2" d="M250.32,-277.01C300.52,-275.98 366.46,-274.62 412.85,-273.67"/>
<polygon fill="#9a32cd" stroke="#9a32cd" points="250.1,-273.52 240.18,-277.22 250.25,-280.51 250.1,-273.52"/>
<text text-anchor="middle" x="322" y="-290.5" font-family="Helvetica,sans-Serif" font-size="10.00"> symbol_base_map</text>
<text text-anchor="middle" x="322" y="-279.5" font-family="Helvetica,sans-Serif" font-size="10.00">symbol_module_map</text>
</g>
<!-- Node16 -->
<g id="node16" class="node">
<title>Node16</title>
<g id="a_node16"><a xlink:href="classvalue__setst.html" target="_top" xlink:title=" ">
<polygon fill="none" stroke="black" points="939.5,-198 939.5,-217 1012.5,-217 1012.5,-198 939.5,-198"/>
<text text-anchor="middle" x="976" y="-205" font-family="Helvetica,sans-Serif" font-size="10.00">value_setst</text>
</a>
</g>
</g>
<!-- Node16&#45;&gt;Node2 -->
<g id="edge19" class="edge">
<title>Node16&#45;&gt;Node2</title>
<path fill="none" stroke="#9a32cd" stroke-dasharray="5,2" d="M1022.93,-202.22C1070.06,-196.28 1145.3,-185.35 1209,-169.5 1229.95,-164.29 1253.11,-156.35 1270.11,-150.1"/>
<polygon fill="#9a32cd" stroke="#9a32cd" points="1022.23,-198.78 1012.74,-203.48 1023.09,-205.73 1022.23,-198.78"/>
<text text-anchor="middle" x="1135.5" y="-199.5" font-family="Helvetica,sans-Serif" font-size="10.00"> value_sets</text>
</g>
<!-- Node17 -->
<g id="node17" class="node">
<title>Node17</title>
<g id="a_node17"><a xlink:href="classguard__exprt.html" target="_top" xlink:title=" ">
<polygon fill="none" stroke="black" points="1605.5,-68 1605.5,-87 1680.5,-87 1680.5,-68 1605.5,-68"/>
<text text-anchor="middle" x="1643" y="-75" font-family="Helvetica,sans-Serif" font-size="10.00">guard_exprt</text>
</a>
</g>
</g>
<!-- Node17&#45;&gt;Node1 -->
<g id="edge21" class="edge">
<title>Node17&#45;&gt;Node1</title>
<path fill="none" stroke="#9a32cd" stroke-dasharray="5,2" d="M1690.68,-77.5C1727.78,-77.5 1780.03,-77.5 1820.78,-77.5"/>
<polygon fill="#9a32cd" stroke="#9a32cd" points="1690.64,-74 1680.64,-77.5 1690.64,-81 1690.64,-74"/>
<text text-anchor="middle" x="1763" y="-80.5" font-family="Helvetica,sans-Serif" font-size="10.00"> guard</text>
</g>
<!-- Node18 -->
<g id="node18" class="node">
<title>Node18</title>
<g id="a_node18"><a xlink:href="classexprt.html" target="_top" xlink:title="Base class for all expressions.">
<polygon fill="none" stroke="black" points="1478,-68 1478,-87 1520,-87 1520,-68 1478,-68"/>
<text text-anchor="middle" x="1499" y="-75" font-family="Helvetica,sans-Serif" font-size="10.00">exprt</text>
</a>
</g>
</g>
<!-- Node18&#45;&gt;Node17 -->
<g id="edge22" class="edge">
<title>Node18&#45;&gt;Node17</title>
<path fill="none" stroke="#9a32cd" stroke-dasharray="5,2" d="M1530.13,-77.5C1552.09,-77.5 1581.97,-77.5 1605.32,-77.5"/>
<polygon fill="#9a32cd" stroke="#9a32cd" points="1530.04,-74 1520.04,-77.5 1530.04,-81 1530.04,-74"/>
<text text-anchor="middle" x="1550.5" y="-80.5" font-family="Helvetica,sans-Serif" font-size="10.00"> expr</text>
</g>
<!-- Node19 -->
<g id="node19" class="node">
<title>Node19</title>
<g id="a_node19"><a xlink:href="classirept.html" target="_top" xlink:title="There are a large number of kinds of tree structured or tree&#45;like data in CPROVER.">
<polygon fill="none" stroke="black" points="1402,-67 1402,-86 1441,-86 1441,-67 1402,-67"/>
<text text-anchor="middle" x="1421.5" y="-74" font-family="Helvetica,sans-Serif" font-size="10.00">irept</text>
</a>
</g>
</g>
<!-- Node19&#45;&gt;Node18 -->
<g id="edge23" class="edge">
<title>Node19&#45;&gt;Node18</title>
<path fill="none" stroke="midnightblue" d="M1451.18,-76.88C1460.11,-77 1469.76,-77.13 1477.97,-77.23"/>
<polygon fill="midnightblue" stroke="midnightblue" points="1451.21,-73.38 1441.16,-76.75 1451.12,-80.38 1451.21,-73.38"/>
</g>
<!-- Node20 -->
<g id="node20" class="node">
<title>Node20</title>
<g id="a_node20"><a xlink:href="classsharing__treet.html" target="_top" xlink:title=" ">
<polygon fill="none" stroke="black" points="1233.5,-47 1233.5,-88 1358.5,-88 1358.5,-47 1233.5,-47"/>
<text text-anchor="start" x="1241.5" y="-76" font-family="Helvetica,sans-Serif" font-size="10.00">sharing_treet&lt; irept,</text>
<text text-anchor="start" x="1241.5" y="-65" font-family="Helvetica,sans-Serif" font-size="10.00"> forward_list_as_mapt</text>
<text text-anchor="middle" x="1296" y="-54" font-family="Helvetica,sans-Serif" font-size="10.00">&lt; irep_idt, irept &gt; &gt;</text>
</a>
</g>
</g>
<!-- Node20&#45;&gt;Node19 -->
<g id="edge24" class="edge">
<title>Node20&#45;&gt;Node19</title>
<path fill="none" stroke="midnightblue" d="M1369,-72.75C1381.09,-73.63 1392.65,-74.47 1401.74,-75.13"/>
<polygon fill="midnightblue" stroke="midnightblue" points="1368.98,-69.24 1358.75,-72 1368.47,-76.22 1368.98,-69.24"/>
</g>
<!-- Node21&#45;&gt;Node20 -->
<g id="edge25" class="edge">
<title>Node21&#45;&gt;Node20</title>
<path fill="none" stroke="#9a32cd" stroke-dasharray="5,2" d="M817.34,-59.06C932.98,-61.1 1132.73,-64.63 1233.32,-66.41"/>
<polygon fill="#9a32cd" stroke="#9a32cd" points="817.17,-55.56 807.11,-58.88 817.04,-62.56 817.17,-55.56"/>
<text text-anchor="middle" x="976" y="-77.5" font-family="Helvetica,sans-Serif" font-size="10.00"> empty_d</text>
<text text-anchor="middle" x="976" y="-66.5" font-family="Helvetica,sans-Serif" font-size="10.00">data</text>
</g>
<!-- Node25 -->
<g id="node24" class="node">
<title>Node25</title>
<g id="a_node24"><a xlink:href="classsharing__treet.html" target="_top" xlink:title="Base class for tree&#45;like data structures with sharing.">
<polygon fill="none" stroke="black" points="908,-0.5 908,-30.5 1044,-30.5 1044,-0.5 908,-0.5"/>
<text text-anchor="start" x="916" y="-18.5" font-family="Helvetica,sans-Serif" font-size="10.00">sharing_treet&lt; derivedt,</text>
<text text-anchor="middle" x="976" y="-7.5" font-family="Helvetica,sans-Serif" font-size="10.00"> named_subtreest &gt;</text>
</a>
</g>
</g>
<!-- Node21&#45;&gt;Node25 -->
<g id="edge30" class="edge">
<title>Node21&#45;&gt;Node25</title>
<path fill="none" stroke="#9a32cd" stroke-dasharray="5,2" d="M788.42,-39.84C800.45,-36.71 813.07,-33.74 825,-31.5 851.9,-26.46 881.83,-22.86 907.84,-20.38"/>
<polygon fill="#9a32cd" stroke="#9a32cd" points="787.24,-36.53 778.48,-42.49 789.04,-43.29 787.24,-36.53"/>
<text text-anchor="middle" x="857.5" y="-45.5" font-family="Helvetica,sans-Serif" font-size="10.00"> empty_d</text>
<text text-anchor="middle" x="857.5" y="-34.5" font-family="Helvetica,sans-Serif" font-size="10.00">data</text>
</g>
<!-- Node22 -->
<g id="node22" class="node">
<title>Node22</title>
<g id="a_node22"><a xlink:href="structref__count__ift_3_01true_01_4.html" target="_top" xlink:title=" ">
<polygon fill="none" stroke="black" points="411,-10 411,-29 530,-29 530,-10 411,-10"/>
<text text-anchor="middle" x="470.5" y="-17" font-family="Helvetica,sans-Serif" font-size="10.00">ref_count_ift&lt; true &gt;</text>
</a>
</g>
</g>
<!-- Node22&#45;&gt;Node21 -->
<g id="edge26" class="edge">
<title>Node22&#45;&gt;Node21</title>
<path fill="none" stroke="midnightblue" d="M540.27,-29.73C573.75,-34.71 614.15,-40.72 648.8,-45.87"/>
<polygon fill="midnightblue" stroke="midnightblue" points="540.52,-26.23 530.12,-28.22 539.49,-33.15 540.52,-26.23"/>
</g>
<!-- Node23 -->
<g id="node23" class="node">
<title>Node23</title>
<g id="a_node23"><a xlink:title=" ">
<polygon fill="none" stroke="#bfbfbf" points="413.5,-48 413.5,-67 527.5,-67 527.5,-48 413.5,-48"/>
<text text-anchor="middle" x="470.5" y="-55" font-family="Helvetica,sans-Serif" font-size="10.00">std::vector&lt; treet &gt;</text>
</a>
</g>
</g>
<!-- Node23&#45;&gt;Node21 -->
<g id="edge27" class="edge">
<title>Node23&#45;&gt;Node21</title>
<path fill="none" stroke="#9a32cd" stroke-dasharray="5,2" d="M537.84,-57.5C571.77,-57.5 613.29,-57.5 648.77,-57.5"/>
<polygon fill="#9a32cd" stroke="#9a32cd" points="537.57,-54 527.57,-57.5 537.57,-61 537.57,-54"/>
<text text-anchor="middle" x="593" y="-60.5" font-family="Helvetica,sans-Serif" font-size="10.00"> sub</text>
</g>
<!-- Node25&#45;&gt;Node20 -->
<g id="edge29" class="edge">
<title>Node25&#45;&gt;Node20</title>
<path fill="none" stroke="orange" stroke-dasharray="5,2" d="M1054.23,-14.54C1099.81,-15.52 1158.32,-19.49 1209,-31.5 1223.96,-35.05 1239.66,-40.92 1253.49,-46.9"/>
<polygon fill="orange" stroke="orange" points="1054.18,-11.04 1044.12,-14.37 1054.06,-18.04 1054.18,-11.04"/>
<text text-anchor="start" x="1062" y="-45.5" font-family="Helvetica,sans-Serif" font-size="10.00"> &lt; irept, forward_list</text>
<text text-anchor="middle" x="1135.5" y="-34.5" font-family="Helvetica,sans-Serif" font-size="10.00">_as_mapt&lt; irep_idt, irept &gt; &gt;</text>
</g>
<!-- Node26 -->
<g id="node25" class="node">
<title>Node26</title>
<g id="a_node25"><a xlink:href="structguard__expr__managert.html" target="_top" xlink:title="This is unused by this implementation of guards, but can be used by other implementations of the same...">
<polygon fill="none" stroke="black" points="1581,-30 1581,-49 1705,-49 1705,-30 1581,-30"/>
<text text-anchor="middle" x="1643" y="-37" font-family="Helvetica,sans-Serif" font-size="10.00">guard_expr_managert</text>
</a>
</g>
</g>
<!-- Node26&#45;&gt;Node1 -->
<g id="edge31" class="edge">
<title>Node26&#45;&gt;Node1</title>
<path fill="none" stroke="#9a32cd" stroke-dasharray="5,2" d="M1715.17,-49.17C1742.65,-53.06 1774.33,-57.76 1803,-62.5 1808.75,-63.45 1814.72,-64.48 1820.7,-65.54"/>
<polygon fill="#9a32cd" stroke="#9a32cd" points="1715.64,-45.7 1705.25,-47.77 1714.66,-52.63 1715.64,-45.7"/>
<text text-anchor="middle" x="1763" y="-65.5" font-family="Helvetica,sans-Serif" font-size="10.00"> guard_manager</text>
</g>
</g>
</svg>
