<?xml version="1.0" encoding="UTF-8" standalone="no"?>
<!DOCTYPE svg PUBLIC "-//W3C//DTD SVG 1.1//EN"
 "http://www.w3.org/Graphics/SVG/1.1/DTD/svg11.dtd">
<!-- Generated by graphviz version 2.43.0 (0)
 -->
<!-- Title: /home/runner/work/cbmc&#45;documentation/cbmc&#45;documentation/jbmc/src/java_bytecode/code_with_references.h Pages: 1 -->
<svg width="2028pt" height="417pt"
 viewBox="0.00 0.00 2028.00 417.00" xmlns="http://www.w3.org/2000/svg" xmlns:xlink="http://www.w3.org/1999/xlink">
<g id="graph0" class="graph" transform="scale(1 1) rotate(0) translate(4 413)">
<title>/home/runner/work/cbmc&#45;documentation/cbmc&#45;documentation/jbmc/src/java_bytecode/code_with_references.h</title>
<!-- Node1 -->
<g id="node1" class="node">
<title>Node1</title>
<g id="a_node1"><a xlink:title=" ">
<polygon fill="#bfbfbf" stroke="black" points="500,-356.5 500,-408.5 700,-408.5 700,-356.5 500,-356.5"/>
<text text-anchor="start" x="508" y="-396.5" font-family="Helvetica,sans-Serif" font-size="10.00">/home/runner/work/cbmc</text>
<text text-anchor="start" x="508" y="-385.5" font-family="Helvetica,sans-Serif" font-size="10.00">&#45;documentation/cbmc&#45;documentation</text>
<text text-anchor="start" x="508" y="-374.5" font-family="Helvetica,sans-Serif" font-size="10.00">/jbmc/src/java_bytecode/code</text>
<text text-anchor="middle" x="600" y="-363.5" font-family="Helvetica,sans-Serif" font-size="10.00">_with_references.h</text>
</a>
</g>
</g>
<!-- Node2 -->
<g id="node2" class="node">
<title>Node2</title>
<g id="a_node2"><a xlink:href="assignments__from__json_8h.html" target="_top" xlink:title=" ">
<polygon fill="none" stroke="black" points="327,-267.5 327,-319.5 527,-319.5 527,-267.5 327,-267.5"/>
<text text-anchor="start" x="335" y="-307.5" font-family="Helvetica,sans-Serif" font-size="10.00">/home/runner/work/cbmc</text>
<text text-anchor="start" x="335" y="-296.5" font-family="Helvetica,sans-Serif" font-size="10.00">&#45;documentation/cbmc&#45;documentation</text>
<text text-anchor="start" x="335" y="-285.5" font-family="Helvetica,sans-Serif" font-size="10.00">/jbmc/src/java_bytecode/assignments</text>
<text text-anchor="middle" x="427" y="-274.5" font-family="Helvetica,sans-Serif" font-size="10.00">_from_json.h</text>
</a>
</g>
</g>
<!-- Node1&#45;&gt;Node2 -->
<g id="edge1" class="edge">
<title>Node1&#45;&gt;Node2</title>
<path fill="none" stroke="midnightblue" d="M540.89,-351.78C520.08,-341.31 496.91,-329.66 476.93,-319.61"/>
<polygon fill="midnightblue" stroke="midnightblue" points="539.45,-354.97 549.96,-356.34 542.6,-348.72 539.45,-354.97"/>
</g>
<!-- Node3 -->
<g id="node3" class="node">
<title>Node3</title>
<g id="a_node3"><a xlink:href="assignments__from__json_8cpp.html" target="_top" xlink:title=" ">
<polygon fill="none" stroke="black" points="109,-178.5 109,-230.5 309,-230.5 309,-178.5 109,-178.5"/>
<text text-anchor="start" x="117" y="-218.5" font-family="Helvetica,sans-Serif" font-size="10.00">/home/runner/work/cbmc</text>
<text text-anchor="start" x="117" y="-207.5" font-family="Helvetica,sans-Serif" font-size="10.00">&#45;documentation/cbmc&#45;documentation</text>
<text text-anchor="start" x="117" y="-196.5" font-family="Helvetica,sans-Serif" font-size="10.00">/jbmc/src/java_bytecode/assignments</text>
<text text-anchor="middle" x="209" y="-185.5" font-family="Helvetica,sans-Serif" font-size="10.00">_from_json.cpp</text>
</a>
</g>
</g>
<!-- Node1&#45;&gt;Node3 -->
<g id="edge4" class="edge">
<title>Node1&#45;&gt;Node3</title>
<path fill="none" stroke="midnightblue" d="M489.89,-372.79C435.42,-364.78 370.32,-349.43 318,-320 278.77,-297.93 245.07,-257.15 225.91,-230.69"/>
<polygon fill="midnightblue" stroke="midnightblue" points="489.54,-376.27 499.93,-374.2 490.52,-369.34 489.54,-376.27"/>
</g>
<!-- Node5 -->
<g id="node5" class="node">
<title>Node5</title>
<g id="a_node5"><a xlink:href="java__static__initializers_8h.html" target="_top" xlink:title=" ">
<polygon fill="none" stroke="black" points="673,-267.5 673,-319.5 873,-319.5 873,-267.5 673,-267.5"/>
<text text-anchor="start" x="681" y="-307.5" font-family="Helvetica,sans-Serif" font-size="10.00">/home/runner/work/cbmc</text>
<text text-anchor="start" x="681" y="-296.5" font-family="Helvetica,sans-Serif" font-size="10.00">&#45;documentation/cbmc&#45;documentation</text>
<text text-anchor="start" x="681" y="-285.5" font-family="Helvetica,sans-Serif" font-size="10.00">/jbmc/src/java_bytecode/java</text>
<text text-anchor="middle" x="773" y="-274.5" font-family="Helvetica,sans-Serif" font-size="10.00">_static_initializers.h</text>
</a>
</g>
</g>
<!-- Node1&#45;&gt;Node5 -->
<g id="edge5" class="edge">
<title>Node1&#45;&gt;Node5</title>
<path fill="none" stroke="midnightblue" d="M659.11,-351.78C679.92,-341.31 703.09,-329.66 723.07,-319.61"/>
<polygon fill="midnightblue" stroke="midnightblue" points="657.4,-348.72 650.04,-356.34 660.55,-354.97 657.4,-348.72"/>
</g>
<!-- Node25 -->
<g id="node25" class="node">
<title>Node25</title>
<g id="a_node25"><a xlink:href="code__with__references_8cpp.html" target="_top" xlink:title=" ">
<polygon fill="none" stroke="black" points="891,-267.5 891,-319.5 1091,-319.5 1091,-267.5 891,-267.5"/>
<text text-anchor="start" x="899" y="-307.5" font-family="Helvetica,sans-Serif" font-size="10.00">/home/runner/work/cbmc</text>
<text text-anchor="start" x="899" y="-296.5" font-family="Helvetica,sans-Serif" font-size="10.00">&#45;documentation/cbmc&#45;documentation</text>
<text text-anchor="start" x="899" y="-285.5" font-family="Helvetica,sans-Serif" font-size="10.00">/jbmc/src/java_bytecode/code</text>
<text text-anchor="middle" x="991" y="-274.5" font-family="Helvetica,sans-Serif" font-size="10.00">_with_references.cpp</text>
</a>
</g>
</g>
<!-- Node1&#45;&gt;Node25 -->
<g id="edge30" class="edge">
<title>Node1&#45;&gt;Node25</title>
<path fill="none" stroke="midnightblue" d="M710.19,-357.87C762.32,-346.59 825.41,-332.79 882,-320 884.94,-319.34 887.92,-318.66 890.93,-317.97"/>
<polygon fill="midnightblue" stroke="midnightblue" points="709.28,-354.49 700.25,-360.02 710.76,-361.33 709.28,-354.49"/>
</g>
<!-- Node2&#45;&gt;Node3 -->
<g id="edge2" class="edge">
<title>Node2&#45;&gt;Node3</title>
<path fill="none" stroke="midnightblue" d="M354.88,-263.72C327.98,-252.98 297.68,-240.89 271.7,-230.52"/>
<polygon fill="midnightblue" stroke="midnightblue" points="353.65,-267 364.24,-267.45 356.25,-260.5 353.65,-267"/>
</g>
<!-- Node4 -->
<g id="node4" class="node">
<title>Node4</title>
<g id="a_node4"><a xlink:href="java__static__initializers_8cpp.html" target="_top" xlink:title=" ">
<polygon fill="none" stroke="black" points="327,-178.5 327,-230.5 527,-230.5 527,-178.5 327,-178.5"/>
<text text-anchor="start" x="335" y="-218.5" font-family="Helvetica,sans-Serif" font-size="10.00">/home/runner/work/cbmc</text>
<text text-anchor="start" x="335" y="-207.5" font-family="Helvetica,sans-Serif" font-size="10.00">&#45;documentation/cbmc&#45;documentation</text>
<text text-anchor="start" x="335" y="-196.5" font-family="Helvetica,sans-Serif" font-size="10.00">/jbmc/src/java_bytecode/java</text>
<text text-anchor="middle" x="427" y="-185.5" font-family="Helvetica,sans-Serif" font-size="10.00">_static_initializers.cpp</text>
</a>
</g>
</g>
<!-- Node2&#45;&gt;Node4 -->
<g id="edge3" class="edge">
<title>Node2&#45;&gt;Node4</title>
<path fill="none" stroke="midnightblue" d="M427,-257.19C427,-248.28 427,-238.9 427,-230.61"/>
<polygon fill="midnightblue" stroke="midnightblue" points="423.5,-257.34 427,-267.34 430.5,-257.34 423.5,-257.34"/>
</g>
<!-- Node5&#45;&gt;Node3 -->
<g id="edge6" class="edge">
<title>Node5&#45;&gt;Node3</title>
<path fill="none" stroke="midnightblue" d="M662.5,-280.56C570.07,-269.85 434.93,-252.53 318,-231 315.04,-230.45 312.03,-229.88 309.01,-229.29"/>
<polygon fill="midnightblue" stroke="midnightblue" points="662.37,-284.06 672.71,-281.73 663.17,-277.11 662.37,-284.06"/>
</g>
<!-- Node5&#45;&gt;Node4 -->
<g id="edge27" class="edge">
<title>Node5&#45;&gt;Node4</title>
<path fill="none" stroke="midnightblue" d="M663.54,-264.98C619.63,-253.93 569.37,-241.3 526.51,-230.52"/>
<polygon fill="midnightblue" stroke="midnightblue" points="662.84,-268.41 673.39,-267.45 664.54,-261.62 662.84,-268.41"/>
</g>
<!-- Node6 -->
<g id="node6" class="node">
<title>Node6</title>
<g id="a_node6"><a xlink:href="java__bytecode__language_8h.html" target="_top" xlink:title=" ">
<polygon fill="none" stroke="black" points="801,-178.5 801,-230.5 1001,-230.5 1001,-178.5 801,-178.5"/>
<text text-anchor="start" x="809" y="-218.5" font-family="Helvetica,sans-Serif" font-size="10.00">/home/runner/work/cbmc</text>
<text text-anchor="start" x="809" y="-207.5" font-family="Helvetica,sans-Serif" font-size="10.00">&#45;documentation/cbmc&#45;documentation</text>
<text text-anchor="start" x="809" y="-196.5" font-family="Helvetica,sans-Serif" font-size="10.00">/jbmc/src/java_bytecode/java</text>
<text text-anchor="middle" x="901" y="-185.5" font-family="Helvetica,sans-Serif" font-size="10.00">_bytecode_language.h</text>
</a>
</g>
</g>
<!-- Node5&#45;&gt;Node6 -->
<g id="edge7" class="edge">
<title>Node5&#45;&gt;Node6</title>
<path fill="none" stroke="midnightblue" d="M818.6,-261.5C833.51,-251.37 849.87,-240.25 864.06,-230.61"/>
<polygon fill="midnightblue" stroke="midnightblue" points="816.33,-258.82 810.02,-267.34 820.26,-264.61 816.33,-258.82"/>
</g>
<!-- Node11 -->
<g id="node11" class="node">
<title>Node11</title>
<g id="a_node11"><a xlink:href="java__bytecode__language_8cpp.html" target="_top" xlink:title=" ">
<polygon fill="none" stroke="black" points="0,-89.5 0,-141.5 200,-141.5 200,-89.5 0,-89.5"/>
<text text-anchor="start" x="8" y="-129.5" font-family="Helvetica,sans-Serif" font-size="10.00">/home/runner/work/cbmc</text>
<text text-anchor="start" x="8" y="-118.5" font-family="Helvetica,sans-Serif" font-size="10.00">&#45;documentation/cbmc&#45;documentation</text>
<text text-anchor="start" x="8" y="-107.5" font-family="Helvetica,sans-Serif" font-size="10.00">/jbmc/src/java_bytecode/java</text>
<text text-anchor="middle" x="100" y="-96.5" font-family="Helvetica,sans-Serif" font-size="10.00">_bytecode_language.cpp</text>
</a>
</g>
</g>
<!-- Node5&#45;&gt;Node11 -->
<g id="edge25" class="edge">
<title>Node5&#45;&gt;Node11</title>
<path fill="none" stroke="midnightblue" d="M777.62,-257.19C778.83,-231.34 775.52,-197.5 754,-178 709.03,-137.25 269.03,-150.94 209,-142 206.12,-141.57 203.2,-141.1 200.26,-140.61"/>
<polygon fill="midnightblue" stroke="midnightblue" points="774.11,-257.14 776.89,-267.36 781.09,-257.64 774.11,-257.14"/>
</g>
<!-- Node20 -->
<g id="node20" class="node">
<title>Node20</title>
<g id="a_node20"><a xlink:href="ci__lazy__methods__needed_8cpp.html" target="_top" xlink:title=" ">
<polygon fill="none" stroke="black" points="1019,-178.5 1019,-230.5 1219,-230.5 1219,-178.5 1019,-178.5"/>
<text text-anchor="start" x="1027" y="-218.5" font-family="Helvetica,sans-Serif" font-size="10.00">/home/runner/work/cbmc</text>
<text text-anchor="start" x="1027" y="-207.5" font-family="Helvetica,sans-Serif" font-size="10.00">&#45;documentation/cbmc&#45;documentation</text>
<text text-anchor="start" x="1027" y="-196.5" font-family="Helvetica,sans-Serif" font-size="10.00">/jbmc/src/java_bytecode/ci_lazy</text>
<text text-anchor="middle" x="1119" y="-185.5" font-family="Helvetica,sans-Serif" font-size="10.00">_methods_needed.cpp</text>
</a>
</g>
</g>
<!-- Node5&#45;&gt;Node20 -->
<g id="edge23" class="edge">
<title>Node5&#45;&gt;Node20</title>
<path fill="none" stroke="midnightblue" d="M882.46,-264.98C926.37,-253.93 976.63,-241.3 1019.49,-230.52"/>
<polygon fill="midnightblue" stroke="midnightblue" points="881.46,-261.62 872.61,-267.45 883.16,-268.41 881.46,-261.62"/>
</g>
<!-- Node21 -->
<g id="node21" class="node">
<title>Node21</title>
<g id="a_node21"><a xlink:href="java__bytecode__convert__method_8cpp.html" target="_top" xlink:title=" ">
<polygon fill="none" stroke="black" points="1237,-178.5 1237,-230.5 1437,-230.5 1437,-178.5 1237,-178.5"/>
<text text-anchor="start" x="1245" y="-218.5" font-family="Helvetica,sans-Serif" font-size="10.00">/home/runner/work/cbmc</text>
<text text-anchor="start" x="1245" y="-207.5" font-family="Helvetica,sans-Serif" font-size="10.00">&#45;documentation/cbmc&#45;documentation</text>
<text text-anchor="start" x="1245" y="-196.5" font-family="Helvetica,sans-Serif" font-size="10.00">/jbmc/src/java_bytecode/java</text>
<text text-anchor="middle" x="1337" y="-185.5" font-family="Helvetica,sans-Serif" font-size="10.00">_bytecode_convert_method.cpp</text>
</a>
</g>
</g>
<!-- Node5&#45;&gt;Node21 -->
<g id="edge24" class="edge">
<title>Node5&#45;&gt;Node21</title>
<path fill="none" stroke="midnightblue" d="M883.5,-266.84C1036.28,-241.98 1078.81,-256.11 1228,-231 1230.87,-230.52 1233.79,-230 1236.72,-229.46"/>
<polygon fill="midnightblue" stroke="midnightblue" points="882.57,-263.45 873.28,-268.54 883.72,-270.36 882.57,-263.45"/>
</g>
<!-- Node22 -->
<g id="node22" class="node">
<title>Node22</title>
<g id="a_node22"><a xlink:href="java__object__factory_8cpp.html" target="_top" xlink:title=" ">
<polygon fill="none" stroke="black" points="1455,-178.5 1455,-230.5 1655,-230.5 1655,-178.5 1455,-178.5"/>
<text text-anchor="start" x="1463" y="-218.5" font-family="Helvetica,sans-Serif" font-size="10.00">/home/runner/work/cbmc</text>
<text text-anchor="start" x="1463" y="-207.5" font-family="Helvetica,sans-Serif" font-size="10.00">&#45;documentation/cbmc&#45;documentation</text>
<text text-anchor="start" x="1463" y="-196.5" font-family="Helvetica,sans-Serif" font-size="10.00">/jbmc/src/java_bytecode/java</text>
<text text-anchor="middle" x="1555" y="-185.5" font-family="Helvetica,sans-Serif" font-size="10.00">_object_factory.cpp</text>
</a>
</g>
</g>
<!-- Node5&#45;&gt;Node22 -->
<g id="edge26" class="edge">
<title>Node5&#45;&gt;Node22</title>
<path fill="none" stroke="midnightblue" d="M883.33,-266.92C1132.28,-231.24 1200.8,-267.25 1446,-231 1448.88,-230.57 1451.8,-230.11 1454.75,-229.61"/>
<polygon fill="midnightblue" stroke="midnightblue" points="882.64,-263.48 873.25,-268.39 883.65,-270.41 882.64,-263.48"/>
</g>
<!-- Node23 -->
<g id="node23" class="node">
<title>Node23</title>
<g id="a_node23"><a xlink:href="lambda__synthesis_8cpp.html" target="_top" xlink:title=" ">
<polygon fill="none" stroke="black" points="1673,-178.5 1673,-230.5 1873,-230.5 1873,-178.5 1673,-178.5"/>
<text text-anchor="start" x="1681" y="-218.5" font-family="Helvetica,sans-Serif" font-size="10.00">/home/runner/work/cbmc</text>
<text text-anchor="start" x="1681" y="-207.5" font-family="Helvetica,sans-Serif" font-size="10.00">&#45;documentation/cbmc&#45;documentation</text>
<text text-anchor="start" x="1681" y="-196.5" font-family="Helvetica,sans-Serif" font-size="10.00">/jbmc/src/java_bytecode/lambda</text>
<text text-anchor="middle" x="1773" y="-185.5" font-family="Helvetica,sans-Serif" font-size="10.00">_synthesis.cpp</text>
</a>
</g>
</g>
<!-- Node5&#45;&gt;Node23 -->
<g id="edge28" class="edge">
<title>Node5&#45;&gt;Node23</title>
<path fill="none" stroke="midnightblue" d="M883.27,-266.94C1228.41,-220.3 1322.66,-278.37 1664,-231 1666.89,-230.6 1669.81,-230.16 1672.76,-229.68"/>
<polygon fill="midnightblue" stroke="midnightblue" points="882.68,-263.49 873.24,-268.32 883.63,-270.43 882.68,-263.49"/>
</g>
<!-- Node24 -->
<g id="node24" class="node">
<title>Node24</title>
<g id="a_node24"><a xlink:href="lift__clinit__calls_8cpp.html" target="_top" xlink:title=" ">
<polygon fill="none" stroke="black" points="545,-178.5 545,-230.5 745,-230.5 745,-178.5 545,-178.5"/>
<text text-anchor="start" x="553" y="-218.5" font-family="Helvetica,sans-Serif" font-size="10.00">/home/runner/work/cbmc</text>
<text text-anchor="start" x="553" y="-207.5" font-family="Helvetica,sans-Serif" font-size="10.00">&#45;documentation/cbmc&#45;documentation</text>
<text text-anchor="start" x="553" y="-196.5" font-family="Helvetica,sans-Serif" font-size="10.00">/jbmc/src/java_bytecode/lift</text>
<text text-anchor="middle" x="645" y="-185.5" font-family="Helvetica,sans-Serif" font-size="10.00">_clinit_calls.cpp</text>
</a>
</g>
</g>
<!-- Node5&#45;&gt;Node24 -->
<g id="edge29" class="edge">
<title>Node5&#45;&gt;Node24</title>
<path fill="none" stroke="midnightblue" d="M727.4,-261.5C712.49,-251.37 696.13,-240.25 681.94,-230.61"/>
<polygon fill="midnightblue" stroke="midnightblue" points="725.74,-264.61 735.98,-267.34 729.67,-258.82 725.74,-264.61"/>
</g>
<!-- Node7 -->
<g id="node7" class="node">
<title>Node7</title>
<g id="a_node7"><a xlink:href="janalyzer__parse__options_8h.html" target="_top" xlink:title=" ">
<polygon fill="none" stroke="black" points="692,-89.5 692,-141.5 892,-141.5 892,-89.5 692,-89.5"/>
<text text-anchor="start" x="700" y="-129.5" font-family="Helvetica,sans-Serif" font-size="10.00">/home/runner/work/cbmc</text>
<text text-anchor="start" x="700" y="-118.5" font-family="Helvetica,sans-Serif" font-size="10.00">&#45;documentation/cbmc&#45;documentation</text>
<text text-anchor="start" x="700" y="-107.5" font-family="Helvetica,sans-Serif" font-size="10.00">/jbmc/src/janalyzer/janalyzer</text>
<text text-anchor="middle" x="792" y="-96.5" font-family="Helvetica,sans-Serif" font-size="10.00">_parse_options.h</text>
</a>
</g>
</g>
<!-- Node6&#45;&gt;Node7 -->
<g id="edge8" class="edge">
<title>Node6&#45;&gt;Node7</title>
<path fill="none" stroke="midnightblue" d="M861.45,-171.93C848.95,-161.96 835.31,-151.07 823.46,-141.61"/>
<polygon fill="midnightblue" stroke="midnightblue" points="859.47,-174.83 869.47,-178.34 863.84,-169.36 859.47,-174.83"/>
</g>
<!-- Node9 -->
<g id="node9" class="node">
<title>Node9</title>
<g id="a_node9"><a xlink:href="janalyzer__parse__options_8cpp.html" target="_top" xlink:title=" ">
<polygon fill="none" stroke="black" points="564,-0.5 564,-52.5 764,-52.5 764,-0.5 564,-0.5"/>
<text text-anchor="start" x="572" y="-40.5" font-family="Helvetica,sans-Serif" font-size="10.00">/home/runner/work/cbmc</text>
<text text-anchor="start" x="572" y="-29.5" font-family="Helvetica,sans-Serif" font-size="10.00">&#45;documentation/cbmc&#45;documentation</text>
<text text-anchor="start" x="572" y="-18.5" font-family="Helvetica,sans-Serif" font-size="10.00">/jbmc/src/janalyzer/janalyzer</text>
<text text-anchor="middle" x="664" y="-7.5" font-family="Helvetica,sans-Serif" font-size="10.00">_parse_options.cpp</text>
</a>
</g>
</g>
<!-- Node6&#45;&gt;Node9 -->
<g id="edge11" class="edge">
<title>Node6&#45;&gt;Node9</title>
<path fill="none" stroke="midnightblue" d="M790.76,-177.9C740.78,-165.29 690.99,-150.93 683,-142 661.23,-117.68 659.4,-78.29 661,-52.64"/>
<polygon fill="midnightblue" stroke="midnightblue" points="790.2,-181.36 800.75,-180.39 791.9,-174.57 790.2,-181.36"/>
</g>
<!-- Node10 -->
<g id="node10" class="node">
<title>Node10</title>
<g id="a_node10"><a xlink:href="ci__lazy__methods_8cpp.html" target="_top" xlink:title=" ">
<polygon fill="none" stroke="black" points="1820,-89.5 1820,-141.5 2020,-141.5 2020,-89.5 1820,-89.5"/>
<text text-anchor="start" x="1828" y="-129.5" font-family="Helvetica,sans-Serif" font-size="10.00">/home/runner/work/cbmc</text>
<text text-anchor="start" x="1828" y="-118.5" font-family="Helvetica,sans-Serif" font-size="10.00">&#45;documentation/cbmc&#45;documentation</text>
<text text-anchor="start" x="1828" y="-107.5" font-family="Helvetica,sans-Serif" font-size="10.00">/jbmc/src/java_bytecode/ci_lazy</text>
<text text-anchor="middle" x="1920" y="-96.5" font-family="Helvetica,sans-Serif" font-size="10.00">_methods.cpp</text>
</a>
</g>
</g>
<!-- Node6&#45;&gt;Node10 -->
<g id="edge12" class="edge">
<title>Node6&#45;&gt;Node10</title>
<path fill="none" stroke="midnightblue" d="M1011.24,-177.95C1364.79,-130.34 1461.27,-190.34 1811,-142 1813.89,-141.6 1816.81,-141.16 1819.76,-140.69"/>
<polygon fill="midnightblue" stroke="midnightblue" points="1010.68,-174.49 1001.24,-179.31 1011.63,-181.43 1010.68,-174.49"/>
</g>
<!-- Node6&#45;&gt;Node11 -->
<g id="edge13" class="edge">
<title>Node6&#45;&gt;Node11</title>
<path fill="none" stroke="midnightblue" d="M790.83,-178.56C789.55,-178.37 788.27,-178.18 787,-178 532.17,-141.79 463.65,-179.45 209,-142 206.12,-141.58 203.2,-141.11 200.25,-140.62"/>
<polygon fill="midnightblue" stroke="midnightblue" points="790.33,-182.03 800.76,-180.16 791.45,-175.11 790.33,-182.03"/>
</g>
<!-- Node12 -->
<g id="node12" class="node">
<title>Node12</title>
<g id="a_node12"><a xlink:href="java__entry__point_8cpp.html" target="_top" xlink:title=" ">
<polygon fill="none" stroke="black" points="218,-89.5 218,-141.5 418,-141.5 418,-89.5 218,-89.5"/>
<text text-anchor="start" x="226" y="-129.5" font-family="Helvetica,sans-Serif" font-size="10.00">/home/runner/work/cbmc</text>
<text text-anchor="start" x="226" y="-118.5" font-family="Helvetica,sans-Serif" font-size="10.00">&#45;documentation/cbmc&#45;documentation</text>
<text text-anchor="start" x="226" y="-107.5" font-family="Helvetica,sans-Serif" font-size="10.00">/jbmc/src/java_bytecode/java</text>
<text text-anchor="middle" x="318" y="-96.5" font-family="Helvetica,sans-Serif" font-size="10.00">_entry_point.cpp</text>
</a>
</g>
</g>
<!-- Node6&#45;&gt;Node12 -->
<g id="edge14" class="edge">
<title>Node6&#45;&gt;Node12</title>
<path fill="none" stroke="midnightblue" d="M790.82,-178.63C789.54,-178.41 788.27,-178.2 787,-178 628.25,-152.4 585.62,-168.37 427,-142 424.12,-141.52 421.21,-141.01 418.28,-140.48"/>
<polygon fill="midnightblue" stroke="midnightblue" points="790.28,-182.09 800.73,-180.37 791.49,-175.19 790.28,-182.09"/>
</g>
<!-- Node13 -->
<g id="node13" class="node">
<title>Node13</title>
<g id="a_node13"><a xlink:href="lazy__goto__model_8cpp.html" target="_top" xlink:title="Author: Diffblue Ltd.">
<polygon fill="none" stroke="black" points="436,-89.5 436,-141.5 636,-141.5 636,-89.5 436,-89.5"/>
<text text-anchor="start" x="444" y="-129.5" font-family="Helvetica,sans-Serif" font-size="10.00">/home/runner/work/cbmc</text>
<text text-anchor="start" x="444" y="-118.5" font-family="Helvetica,sans-Serif" font-size="10.00">&#45;documentation/cbmc&#45;documentation</text>
<text text-anchor="start" x="444" y="-107.5" font-family="Helvetica,sans-Serif" font-size="10.00">/jbmc/src/java_bytecode/lazy</text>
<text text-anchor="middle" x="536" y="-96.5" font-family="Helvetica,sans-Serif" font-size="10.00">_goto_model.cpp</text>
</a>
</g>
</g>
<!-- Node6&#45;&gt;Node13 -->
<g id="edge15" class="edge">
<title>Node6&#45;&gt;Node13</title>
<path fill="none" stroke="midnightblue" d="M790.75,-177.22C741.64,-165.52 684.21,-151.83 636.31,-140.41"/>
<polygon fill="midnightblue" stroke="midnightblue" points="790.24,-180.7 800.78,-179.61 791.86,-173.89 790.24,-180.7"/>
</g>
<!-- Node14 -->
<g id="node14" class="node">
<title>Node14</title>
<g id="a_node14"><a xlink:href="jbmc__parse__options_8h.html" target="_top" xlink:title=" ">
<polygon fill="none" stroke="black" points="1602,-95 1602,-136 1802,-136 1802,-95 1602,-95"/>
<text text-anchor="start" x="1610" y="-124" font-family="Helvetica,sans-Serif" font-size="10.00">/home/runner/work/cbmc</text>
<text text-anchor="start" x="1610" y="-113" font-family="Helvetica,sans-Serif" font-size="10.00">&#45;documentation/cbmc&#45;documentation</text>
<text text-anchor="middle" x="1702" y="-102" font-family="Helvetica,sans-Serif" font-size="10.00">/jbmc/src/jbmc/jbmc_parse_options.h</text>
</a>
</g>
</g>
<!-- Node6&#45;&gt;Node14 -->
<g id="edge16" class="edge">
<title>Node6&#45;&gt;Node14</title>
<path fill="none" stroke="midnightblue" d="M1011.19,-177.94C1266.42,-141.5 1336.41,-177.75 1588,-142 1599.14,-140.42 1610.81,-138.32 1622.26,-136.01"/>
<polygon fill="midnightblue" stroke="midnightblue" points="1010.65,-174.48 1001.25,-179.38 1011.65,-181.41 1010.65,-174.48"/>
</g>
<!-- Node16 -->
<g id="node16" class="node">
<title>Node16</title>
<g id="a_node16"><a xlink:href="jbmc__parse__options_8cpp.html" target="_top" xlink:title=" ">
<polygon fill="none" stroke="black" points="1469.5,-6 1469.5,-47 1678.5,-47 1678.5,-6 1469.5,-6"/>
<text text-anchor="start" x="1477.5" y="-35" font-family="Helvetica,sans-Serif" font-size="10.00">/home/runner/work/cbmc</text>
<text text-anchor="start" x="1477.5" y="-24" font-family="Helvetica,sans-Serif" font-size="10.00">&#45;documentation/cbmc&#45;documentation</text>
<text text-anchor="middle" x="1574" y="-13" font-family="Helvetica,sans-Serif" font-size="10.00">/jbmc/src/jbmc/jbmc_parse_options.cpp</text>
</a>
</g>
</g>
<!-- Node6&#45;&gt;Node16 -->
<g id="edge19" class="edge">
<title>Node6&#45;&gt;Node16</title>
<path fill="none" stroke="midnightblue" d="M1011.25,-178.26C1104.63,-170.07 1511.83,-181.12 1555,-142 1581.28,-118.19 1580.41,-73 1577.29,-47.08"/>
<polygon fill="midnightblue" stroke="midnightblue" points="1010.8,-174.79 1001.26,-179.39 1011.59,-181.75 1010.8,-174.79"/>
</g>
<!-- Node17 -->
<g id="node17" class="node">
<title>Node17</title>
<g id="a_node17"><a xlink:href="jdiff__languages_8cpp.html" target="_top" xlink:title=" ">
<polygon fill="none" stroke="black" points="910,-95 910,-136 1110,-136 1110,-95 910,-95"/>
<text text-anchor="start" x="918" y="-124" font-family="Helvetica,sans-Serif" font-size="10.00">/home/runner/work/cbmc</text>
<text text-anchor="start" x="918" y="-113" font-family="Helvetica,sans-Serif" font-size="10.00">&#45;documentation/cbmc&#45;documentation</text>
<text text-anchor="middle" x="1010" y="-102" font-family="Helvetica,sans-Serif" font-size="10.00">/jbmc/src/jdiff/jdiff_languages.cpp</text>
</a>
</g>
</g>
<!-- Node6&#45;&gt;Node17 -->
<g id="edge20" class="edge">
<title>Node6&#45;&gt;Node17</title>
<path fill="none" stroke="midnightblue" d="M940.66,-171.85C955.65,-159.88 972.26,-146.62 985.47,-136.08"/>
<polygon fill="midnightblue" stroke="midnightblue" points="938.16,-169.36 932.53,-178.34 942.53,-174.83 938.16,-169.36"/>
</g>
<!-- Node18 -->
<g id="node18" class="node">
<title>Node18</title>
<g id="a_node18"><a xlink:href="jdiff__parse__options_8cpp.html" target="_top" xlink:title=" ">
<polygon fill="none" stroke="black" points="1128,-95 1128,-136 1328,-136 1328,-95 1128,-95"/>
<text text-anchor="start" x="1136" y="-124" font-family="Helvetica,sans-Serif" font-size="10.00">/home/runner/work/cbmc</text>
<text text-anchor="start" x="1136" y="-113" font-family="Helvetica,sans-Serif" font-size="10.00">&#45;documentation/cbmc&#45;documentation</text>
<text text-anchor="middle" x="1228" y="-102" font-family="Helvetica,sans-Serif" font-size="10.00">/jbmc/src/jdiff/jdiff_parse_options.cpp</text>
</a>
</g>
</g>
<!-- Node6&#45;&gt;Node18 -->
<g id="edge21" class="edge">
<title>Node6&#45;&gt;Node18</title>
<path fill="none" stroke="midnightblue" d="M1005.07,-175.81C1053.68,-162.88 1110.4,-147.79 1154.47,-136.06"/>
<polygon fill="midnightblue" stroke="midnightblue" points="1003.91,-172.5 995.14,-178.45 1005.71,-179.26 1003.91,-172.5"/>
</g>
<!-- Node19 -->
<g id="node19" class="node">
<title>Node19</title>
<g id="a_node19"><a xlink:href="load__java__class_8cpp.html" target="_top" xlink:title=" ">
<polygon fill="none" stroke="black" points="1346,-89.5 1346,-141.5 1546,-141.5 1546,-89.5 1346,-89.5"/>
<text text-anchor="start" x="1354" y="-129.5" font-family="Helvetica,sans-Serif" font-size="10.00">/home/runner/work/cbmc</text>
<text text-anchor="start" x="1354" y="-118.5" font-family="Helvetica,sans-Serif" font-size="10.00">&#45;documentation/cbmc&#45;documentation</text>
<text text-anchor="start" x="1354" y="-107.5" font-family="Helvetica,sans-Serif" font-size="10.00">/jbmc/unit/java&#45;testing&#45;utils</text>
<text text-anchor="middle" x="1446" y="-96.5" font-family="Helvetica,sans-Serif" font-size="10.00">/load_java_class.cpp</text>
</a>
</g>
</g>
<!-- Node6&#45;&gt;Node19 -->
<g id="edge22" class="edge">
<title>Node6&#45;&gt;Node19</title>
<path fill="none" stroke="midnightblue" d="M1011.41,-177.85C1155.91,-153.88 1196.13,-166.14 1337,-142 1339.87,-141.51 1342.78,-140.99 1345.72,-140.44"/>
<polygon fill="midnightblue" stroke="midnightblue" points="1010.56,-174.45 1001.28,-179.56 1011.73,-181.35 1010.56,-174.45"/>
</g>
<!-- Node8 -->
<g id="node8" class="node">
<title>Node8</title>
<g id="a_node8"><a xlink:href="janalyzer__main_8cpp.html" target="_top" xlink:title=" ">
<polygon fill="none" stroke="black" points="782.5,-6 782.5,-47 989.5,-47 989.5,-6 782.5,-6"/>
<text text-anchor="start" x="790.5" y="-35" font-family="Helvetica,sans-Serif" font-size="10.00">/home/runner/work/cbmc</text>
<text text-anchor="start" x="790.5" y="-24" font-family="Helvetica,sans-Serif" font-size="10.00">&#45;documentation/cbmc&#45;documentation</text>
<text text-anchor="middle" x="886" y="-13" font-family="Helvetica,sans-Serif" font-size="10.00">/jbmc/src/janalyzer/janalyzer_main.cpp</text>
</a>
</g>
</g>
<!-- Node7&#45;&gt;Node8 -->
<g id="edge9" class="edge">
<title>Node7&#45;&gt;Node8</title>
<path fill="none" stroke="midnightblue" d="M826.56,-82.51C839.39,-70.64 853.56,-57.53 864.84,-47.08"/>
<polygon fill="midnightblue" stroke="midnightblue" points="824.15,-79.97 819.19,-89.34 828.91,-85.11 824.15,-79.97"/>
</g>
<!-- Node7&#45;&gt;Node9 -->
<g id="edge10" class="edge">
<title>Node7&#45;&gt;Node9</title>
<path fill="none" stroke="midnightblue" d="M746.4,-83.5C731.49,-73.37 715.13,-62.25 700.94,-52.61"/>
<polygon fill="midnightblue" stroke="midnightblue" points="744.74,-86.61 754.98,-89.34 748.67,-80.82 744.74,-86.61"/>
</g>
<!-- Node15 -->
<g id="node15" class="node">
<title>Node15</title>
<g id="a_node15"><a xlink:href="jbmc__main_8cpp.html" target="_top" xlink:title=" ">
<polygon fill="none" stroke="black" points="1697,-6 1697,-47 1897,-47 1897,-6 1697,-6"/>
<text text-anchor="start" x="1705" y="-35" font-family="Helvetica,sans-Serif" font-size="10.00">/home/runner/work/cbmc</text>
<text text-anchor="start" x="1705" y="-24" font-family="Helvetica,sans-Serif" font-size="10.00">&#45;documentation/cbmc&#45;documentation</text>
<text text-anchor="middle" x="1797" y="-13" font-family="Helvetica,sans-Serif" font-size="10.00">/jbmc/src/jbmc/jbmc_main.cpp</text>
</a>
</g>
</g>
<!-- Node14&#45;&gt;Node15 -->
<g id="edge17" class="edge">
<title>Node14&#45;&gt;Node15</title>
<path fill="none" stroke="midnightblue" d="M1731.2,-87.76C1745.5,-74.66 1762.43,-59.16 1775.53,-47.16"/>
<polygon fill="midnightblue" stroke="midnightblue" points="1728.57,-85.42 1723.56,-94.76 1733.3,-90.59 1728.57,-85.42"/>
</g>
<!-- Node14&#45;&gt;Node16 -->
<g id="edge18" class="edge">
<title>Node14&#45;&gt;Node16</title>
<path fill="none" stroke="midnightblue" d="M1664.85,-89.25C1645.18,-75.88 1621.38,-59.7 1603.07,-47.26"/>
<polygon fill="midnightblue" stroke="midnightblue" points="1663.04,-92.25 1673.27,-94.98 1666.97,-86.46 1663.04,-92.25"/>
</g>
</g>
</svg>
