<?xml version="1.0" encoding="UTF-8" standalone="no"?>
<!DOCTYPE svg PUBLIC "-//W3C//DTD SVG 1.1//EN"
 "http://www.w3.org/Graphics/SVG/1.1/DTD/svg11.dtd">
<!-- Generated by graphviz version 2.43.0 (0)
 -->
<!-- Title: /home/runner/work/cbmc&#45;documentation/cbmc&#45;documentation/src/goto&#45;harness/common_harness_generator_options.h Pages: 1 -->
<svg width="789pt" height="328pt"
 viewBox="0.00 0.00 788.50 328.00" xmlns="http://www.w3.org/2000/svg" xmlns:xlink="http://www.w3.org/1999/xlink">
<g id="graph0" class="graph" transform="scale(1 1) rotate(0) translate(4 324)">
<title>/home/runner/work/cbmc&#45;documentation/cbmc&#45;documentation/src/goto&#45;harness/common_harness_generator_options.h</title>
<!-- Node1 -->
<g id="node1" class="node">
<title>Node1</title>
<g id="a_node1"><a xlink:title=" ">
<polygon fill="#bfbfbf" stroke="black" points="327,-267.5 327,-319.5 527,-319.5 527,-267.5 327,-267.5"/>
<text text-anchor="start" x="335" y="-307.5" font-family="Helvetica,sans-Serif" font-size="10.00">/home/runner/work/cbmc</text>
<text text-anchor="start" x="335" y="-296.5" font-family="Helvetica,sans-Serif" font-size="10.00">&#45;documentation/cbmc&#45;documentation</text>
<text text-anchor="start" x="335" y="-285.5" font-family="Helvetica,sans-Serif" font-size="10.00">/src/goto&#45;harness/common_harness</text>
<text text-anchor="middle" x="427" y="-274.5" font-family="Helvetica,sans-Serif" font-size="10.00">_generator_options.h</text>
</a>
</g>
</g>
<!-- Node2 -->
<g id="node2" class="node">
<title>Node2</title>
<g id="a_node2"><a xlink:href="function__harness__generator__options_8h.html" target="_top" xlink:title=" ">
<polygon fill="none" stroke="black" points="109,-178.5 109,-230.5 309,-230.5 309,-178.5 109,-178.5"/>
<text text-anchor="start" x="117" y="-218.5" font-family="Helvetica,sans-Serif" font-size="10.00">/home/runner/work/cbmc</text>
<text text-anchor="start" x="117" y="-207.5" font-family="Helvetica,sans-Serif" font-size="10.00">&#45;documentation/cbmc&#45;documentation</text>
<text text-anchor="start" x="117" y="-196.5" font-family="Helvetica,sans-Serif" font-size="10.00">/src/goto&#45;harness/function_harness</text>
<text text-anchor="middle" x="209" y="-185.5" font-family="Helvetica,sans-Serif" font-size="10.00">_generator_options.h</text>
</a>
</g>
</g>
<!-- Node1&#45;&gt;Node2 -->
<g id="edge1" class="edge">
<title>Node1&#45;&gt;Node2</title>
<path fill="none" stroke="midnightblue" d="M354.88,-263.72C327.98,-252.98 297.68,-240.89 271.7,-230.52"/>
<polygon fill="midnightblue" stroke="midnightblue" points="353.65,-267 364.24,-267.45 356.25,-260.5 353.65,-267"/>
</g>
<!-- Node7 -->
<g id="node7" class="node">
<title>Node7</title>
<g id="a_node7"><a xlink:href="memory__snapshot__harness__generator__options_8h.html" target="_top" xlink:title=" ">
<polygon fill="none" stroke="black" points="327,-178.5 327,-230.5 527,-230.5 527,-178.5 327,-178.5"/>
<text text-anchor="start" x="335" y="-218.5" font-family="Helvetica,sans-Serif" font-size="10.00">/home/runner/work/cbmc</text>
<text text-anchor="start" x="335" y="-207.5" font-family="Helvetica,sans-Serif" font-size="10.00">&#45;documentation/cbmc&#45;documentation</text>
<text text-anchor="start" x="335" y="-196.5" font-family="Helvetica,sans-Serif" font-size="10.00">/src/goto&#45;harness/memory_snapshot</text>
<text text-anchor="middle" x="427" y="-185.5" font-family="Helvetica,sans-Serif" font-size="10.00">_harness_generator_options.h</text>
</a>
</g>
</g>
<!-- Node1&#45;&gt;Node7 -->
<g id="edge6" class="edge">
<title>Node1&#45;&gt;Node7</title>
<path fill="none" stroke="midnightblue" d="M427,-257.19C427,-248.28 427,-238.9 427,-230.61"/>
<polygon fill="midnightblue" stroke="midnightblue" points="423.5,-257.34 427,-267.34 430.5,-257.34 423.5,-257.34"/>
</g>
<!-- Node9 -->
<g id="node9" class="node">
<title>Node9</title>
<g id="a_node9"><a xlink:href="recursive__initialization_8cpp.html" target="_top" xlink:title=" ">
<polygon fill="none" stroke="black" points="545.5,-184 545.5,-225 780.5,-225 780.5,-184 545.5,-184"/>
<text text-anchor="start" x="553.5" y="-213" font-family="Helvetica,sans-Serif" font-size="10.00">/home/runner/work/cbmc</text>
<text text-anchor="start" x="553.5" y="-202" font-family="Helvetica,sans-Serif" font-size="10.00">&#45;documentation/cbmc&#45;documentation</text>
<text text-anchor="middle" x="663" y="-191" font-family="Helvetica,sans-Serif" font-size="10.00">/src/goto&#45;harness/recursive_initialization.cpp</text>
</a>
</g>
</g>
<!-- Node1&#45;&gt;Node9 -->
<g id="edge9" class="edge">
<title>Node1&#45;&gt;Node9</title>
<path fill="none" stroke="midnightblue" d="M504.52,-263.92C538.98,-251.22 578.69,-236.58 609.74,-225.13"/>
<polygon fill="midnightblue" stroke="midnightblue" points="503.12,-260.71 494.94,-267.45 505.54,-267.28 503.12,-260.71"/>
</g>
<!-- Node3 -->
<g id="node3" class="node">
<title>Node3</title>
<g id="a_node3"><a xlink:href="function__call__harness__generator_8cpp.html" target="_top" xlink:title=" ">
<polygon fill="none" stroke="black" points="0,-89.5 0,-141.5 200,-141.5 200,-89.5 0,-89.5"/>
<text text-anchor="start" x="8" y="-129.5" font-family="Helvetica,sans-Serif" font-size="10.00">/home/runner/work/cbmc</text>
<text text-anchor="start" x="8" y="-118.5" font-family="Helvetica,sans-Serif" font-size="10.00">&#45;documentation/cbmc&#45;documentation</text>
<text text-anchor="start" x="8" y="-107.5" font-family="Helvetica,sans-Serif" font-size="10.00">/src/goto&#45;harness/function_call</text>
<text text-anchor="middle" x="100" y="-96.5" font-family="Helvetica,sans-Serif" font-size="10.00">_harness_generator.cpp</text>
</a>
</g>
</g>
<!-- Node2&#45;&gt;Node3 -->
<g id="edge2" class="edge">
<title>Node2&#45;&gt;Node3</title>
<path fill="none" stroke="midnightblue" d="M169.45,-171.93C156.95,-161.96 143.31,-151.07 131.46,-141.61"/>
<polygon fill="midnightblue" stroke="midnightblue" points="167.47,-174.83 177.47,-178.34 171.84,-169.36 167.47,-174.83"/>
</g>
<!-- Node4 -->
<g id="node4" class="node">
<title>Node4</title>
<g id="a_node4"><a xlink:href="goto__harness__parse__options_8h.html" target="_top" xlink:title=" ">
<polygon fill="none" stroke="black" points="218,-89.5 218,-141.5 418,-141.5 418,-89.5 218,-89.5"/>
<text text-anchor="start" x="226" y="-129.5" font-family="Helvetica,sans-Serif" font-size="10.00">/home/runner/work/cbmc</text>
<text text-anchor="start" x="226" y="-118.5" font-family="Helvetica,sans-Serif" font-size="10.00">&#45;documentation/cbmc&#45;documentation</text>
<text text-anchor="start" x="226" y="-107.5" font-family="Helvetica,sans-Serif" font-size="10.00">/src/goto&#45;harness/goto_harness</text>
<text text-anchor="middle" x="318" y="-96.5" font-family="Helvetica,sans-Serif" font-size="10.00">_parse_options.h</text>
</a>
</g>
</g>
<!-- Node2&#45;&gt;Node4 -->
<g id="edge3" class="edge">
<title>Node2&#45;&gt;Node4</title>
<path fill="none" stroke="midnightblue" d="M248.55,-171.93C261.05,-161.96 274.69,-151.07 286.54,-141.61"/>
<polygon fill="midnightblue" stroke="midnightblue" points="246.16,-169.36 240.53,-178.34 250.53,-174.83 246.16,-169.36"/>
</g>
<!-- Node5 -->
<g id="node5" class="node">
<title>Node5</title>
<g id="a_node5"><a xlink:href="goto__harness__main_8cpp.html" target="_top" xlink:title=" ">
<polygon fill="none" stroke="black" points="94.5,-6 94.5,-47 313.5,-47 313.5,-6 94.5,-6"/>
<text text-anchor="start" x="102.5" y="-35" font-family="Helvetica,sans-Serif" font-size="10.00">/home/runner/work/cbmc</text>
<text text-anchor="start" x="102.5" y="-24" font-family="Helvetica,sans-Serif" font-size="10.00">&#45;documentation/cbmc&#45;documentation</text>
<text text-anchor="middle" x="204" y="-13" font-family="Helvetica,sans-Serif" font-size="10.00">/src/goto&#45;harness/goto_harness_main.cpp</text>
</a>
</g>
</g>
<!-- Node4&#45;&gt;Node5 -->
<g id="edge4" class="edge">
<title>Node4&#45;&gt;Node5</title>
<path fill="none" stroke="midnightblue" d="M276.96,-83.18C261.17,-71.13 243.6,-57.72 229.66,-47.08"/>
<polygon fill="midnightblue" stroke="midnightblue" points="274.95,-86.05 285.03,-89.34 279.2,-80.49 274.95,-86.05"/>
</g>
<!-- Node6 -->
<g id="node6" class="node">
<title>Node6</title>
<g id="a_node6"><a xlink:href="goto__harness__parse__options_8cpp.html" target="_top" xlink:title=" ">
<polygon fill="none" stroke="black" points="332,-0.5 332,-52.5 532,-52.5 532,-0.5 332,-0.5"/>
<text text-anchor="start" x="340" y="-40.5" font-family="Helvetica,sans-Serif" font-size="10.00">/home/runner/work/cbmc</text>
<text text-anchor="start" x="340" y="-29.5" font-family="Helvetica,sans-Serif" font-size="10.00">&#45;documentation/cbmc&#45;documentation</text>
<text text-anchor="start" x="340" y="-18.5" font-family="Helvetica,sans-Serif" font-size="10.00">/src/goto&#45;harness/goto_harness</text>
<text text-anchor="middle" x="432" y="-7.5" font-family="Helvetica,sans-Serif" font-size="10.00">_parse_options.cpp</text>
</a>
</g>
</g>
<!-- Node4&#45;&gt;Node6 -->
<g id="edge5" class="edge">
<title>Node4&#45;&gt;Node6</title>
<path fill="none" stroke="midnightblue" d="M358.99,-83.22C372.16,-73.16 386.58,-62.16 399.1,-52.61"/>
<polygon fill="midnightblue" stroke="midnightblue" points="356.8,-80.49 350.97,-89.34 361.05,-86.05 356.8,-80.49"/>
</g>
<!-- Node7&#45;&gt;Node4 -->
<g id="edge7" class="edge">
<title>Node7&#45;&gt;Node4</title>
<path fill="none" stroke="midnightblue" d="M387.45,-171.93C374.95,-161.96 361.31,-151.07 349.46,-141.61"/>
<polygon fill="midnightblue" stroke="midnightblue" points="385.47,-174.83 395.47,-178.34 389.84,-169.36 385.47,-174.83"/>
</g>
<!-- Node8 -->
<g id="node8" class="node">
<title>Node8</title>
<g id="a_node8"><a xlink:href="memory__snapshot__harness__generator_8cpp.html" target="_top" xlink:title=" ">
<polygon fill="none" stroke="black" points="436,-89.5 436,-141.5 636,-141.5 636,-89.5 436,-89.5"/>
<text text-anchor="start" x="444" y="-129.5" font-family="Helvetica,sans-Serif" font-size="10.00">/home/runner/work/cbmc</text>
<text text-anchor="start" x="444" y="-118.5" font-family="Helvetica,sans-Serif" font-size="10.00">&#45;documentation/cbmc&#45;documentation</text>
<text text-anchor="start" x="444" y="-107.5" font-family="Helvetica,sans-Serif" font-size="10.00">/src/goto&#45;harness/memory_snapshot</text>
<text text-anchor="middle" x="536" y="-96.5" font-family="Helvetica,sans-Serif" font-size="10.00">_harness_generator.cpp</text>
</a>
</g>
</g>
<!-- Node7&#45;&gt;Node8 -->
<g id="edge8" class="edge">
<title>Node7&#45;&gt;Node8</title>
<path fill="none" stroke="midnightblue" d="M466.55,-171.93C479.05,-161.96 492.69,-151.07 504.54,-141.61"/>
<polygon fill="midnightblue" stroke="midnightblue" points="464.16,-169.36 458.53,-178.34 468.53,-174.83 464.16,-169.36"/>
</g>
</g>
</svg>
