<?xml version="1.0" encoding="UTF-8" standalone="no"?>
<!DOCTYPE svg PUBLIC "-//W3C//DTD SVG 1.1//EN"
 "http://www.w3.org/Graphics/SVG/1.1/DTD/svg11.dtd">
<!-- Generated by graphviz version 2.43.0 (0)
 -->
<!-- Title: /home/runner/work/cbmc&#45;documentation/cbmc&#45;documentation/src/goto&#45;instrument/accelerate/cone_of_influence.h Pages: 1 -->
<svg width="1676pt" height="417pt"
 viewBox="0.00 0.00 1676.00 417.00" xmlns="http://www.w3.org/2000/svg" xmlns:xlink="http://www.w3.org/1999/xlink">
<g id="graph0" class="graph" transform="scale(1 1) rotate(0) translate(4 413)">
<title>/home/runner/work/cbmc&#45;documentation/cbmc&#45;documentation/src/goto&#45;instrument/accelerate/cone_of_influence.h</title>
<!-- Node1 -->
<g id="node1" class="node">
<title>Node1</title>
<g id="a_node1"><a xlink:title=" ">
<polygon fill="#bfbfbf" stroke="black" points="606,-356.5 606,-408.5 806,-408.5 806,-356.5 606,-356.5"/>
<text text-anchor="start" x="614" y="-396.5" font-family="Helvetica,sans-Serif" font-size="10.00">/home/runner/work/cbmc</text>
<text text-anchor="start" x="614" y="-385.5" font-family="Helvetica,sans-Serif" font-size="10.00">&#45;documentation/cbmc&#45;documentation</text>
<text text-anchor="start" x="614" y="-374.5" font-family="Helvetica,sans-Serif" font-size="10.00">/src/goto&#45;instrument/accelerate</text>
<text text-anchor="middle" x="706" y="-363.5" font-family="Helvetica,sans-Serif" font-size="10.00">/cone_of_influence.h</text>
</a>
</g>
</g>
<!-- Node2 -->
<g id="node2" class="node">
<title>Node2</title>
<g id="a_node2"><a xlink:href="acceleration__utils_8h.html" target="_top" xlink:title=" ">
<polygon fill="none" stroke="black" points="478,-267.5 478,-319.5 678,-319.5 678,-267.5 478,-267.5"/>
<text text-anchor="start" x="486" y="-307.5" font-family="Helvetica,sans-Serif" font-size="10.00">/home/runner/work/cbmc</text>
<text text-anchor="start" x="486" y="-296.5" font-family="Helvetica,sans-Serif" font-size="10.00">&#45;documentation/cbmc&#45;documentation</text>
<text text-anchor="start" x="486" y="-285.5" font-family="Helvetica,sans-Serif" font-size="10.00">/src/goto&#45;instrument/accelerate</text>
<text text-anchor="middle" x="578" y="-274.5" font-family="Helvetica,sans-Serif" font-size="10.00">/acceleration_utils.h</text>
</a>
</g>
</g>
<!-- Node1&#45;&gt;Node2 -->
<g id="edge1" class="edge">
<title>Node1&#45;&gt;Node2</title>
<path fill="none" stroke="midnightblue" d="M660.4,-350.5C645.49,-340.37 629.13,-329.25 614.94,-319.61"/>
<polygon fill="midnightblue" stroke="midnightblue" points="658.74,-353.61 668.98,-356.34 662.67,-347.82 658.74,-353.61"/>
</g>
<!-- Node6 -->
<g id="node6" class="node">
<title>Node6</title>
<g id="a_node6"><a xlink:href="polynomial__accelerator_8h.html" target="_top" xlink:title=" ">
<polygon fill="none" stroke="black" points="256,-178.5 256,-230.5 456,-230.5 456,-178.5 256,-178.5"/>
<text text-anchor="start" x="264" y="-218.5" font-family="Helvetica,sans-Serif" font-size="10.00">/home/runner/work/cbmc</text>
<text text-anchor="start" x="264" y="-207.5" font-family="Helvetica,sans-Serif" font-size="10.00">&#45;documentation/cbmc&#45;documentation</text>
<text text-anchor="start" x="264" y="-196.5" font-family="Helvetica,sans-Serif" font-size="10.00">/src/goto&#45;instrument/accelerate</text>
<text text-anchor="middle" x="356" y="-185.5" font-family="Helvetica,sans-Serif" font-size="10.00">/polynomial_accelerator.h</text>
</a>
</g>
</g>
<!-- Node1&#45;&gt;Node6 -->
<g id="edge17" class="edge">
<title>Node1&#45;&gt;Node6</title>
<path fill="none" stroke="midnightblue" d="M595.8,-365.72C554.14,-356.54 507.53,-342.21 469,-320 429.56,-297.26 394.53,-257.06 374.29,-230.85"/>
<polygon fill="midnightblue" stroke="midnightblue" points="595.21,-369.17 605.72,-367.83 596.67,-362.32 595.21,-369.17"/>
</g>
<!-- Node9 -->
<g id="node9" class="node">
<title>Node9</title>
<g id="a_node9"><a xlink:href="disjunctive__polynomial__acceleration_8cpp.html" target="_top" xlink:title=" ">
<polygon fill="none" stroke="black" points="443,-89.5 443,-141.5 661,-141.5 661,-89.5 443,-89.5"/>
<text text-anchor="start" x="451" y="-129.5" font-family="Helvetica,sans-Serif" font-size="10.00">/home/runner/work/cbmc</text>
<text text-anchor="start" x="451" y="-118.5" font-family="Helvetica,sans-Serif" font-size="10.00">&#45;documentation/cbmc&#45;documentation</text>
<text text-anchor="start" x="451" y="-107.5" font-family="Helvetica,sans-Serif" font-size="10.00">/src/goto&#45;instrument/accelerate</text>
<text text-anchor="middle" x="552" y="-96.5" font-family="Helvetica,sans-Serif" font-size="10.00">/disjunctive_polynomial_acceleration.cpp</text>
</a>
</g>
</g>
<!-- Node1&#45;&gt;Node9 -->
<g id="edge27" class="edge">
<title>Node1&#45;&gt;Node9</title>
<path fill="none" stroke="midnightblue" d="M595.75,-368.11C536.69,-358.76 463.45,-343.61 401,-320 327.06,-292.04 286.51,-299.47 247,-231 235.23,-210.6 232,-196.16 247,-178 273.95,-145.37 392.54,-150.47 434,-142 436.87,-141.41 439.79,-140.81 442.73,-140.21"/>
<polygon fill="midnightblue" stroke="midnightblue" points="595.44,-371.61 605.85,-369.68 596.51,-364.69 595.44,-371.61"/>
</g>
<!-- Node10 -->
<g id="node10" class="node">
<title>Node10</title>
<g id="a_node10"><a xlink:href="polynomial__accelerator_8cpp.html" target="_top" xlink:title=" ">
<polygon fill="none" stroke="black" points="1302,-89.5 1302,-141.5 1502,-141.5 1502,-89.5 1302,-89.5"/>
<text text-anchor="start" x="1310" y="-129.5" font-family="Helvetica,sans-Serif" font-size="10.00">/home/runner/work/cbmc</text>
<text text-anchor="start" x="1310" y="-118.5" font-family="Helvetica,sans-Serif" font-size="10.00">&#45;documentation/cbmc&#45;documentation</text>
<text text-anchor="start" x="1310" y="-107.5" font-family="Helvetica,sans-Serif" font-size="10.00">/src/goto&#45;instrument/accelerate</text>
<text text-anchor="middle" x="1402" y="-96.5" font-family="Helvetica,sans-Serif" font-size="10.00">/polynomial_accelerator.cpp</text>
</a>
</g>
</g>
<!-- Node1&#45;&gt;Node10 -->
<g id="edge28" class="edge">
<title>Node1&#45;&gt;Node10</title>
<path fill="none" stroke="midnightblue" d="M816.2,-374.59C952.48,-365.1 1176.14,-346.19 1255,-320 1329.29,-295.33 1368.07,-298.92 1407,-231 1422.73,-203.55 1417,-166.03 1410.39,-141.54"/>
<polygon fill="midnightblue" stroke="midnightblue" points="815.87,-371.1 806.13,-375.29 816.35,-378.09 815.87,-371.1"/>
</g>
<!-- Node11 -->
<g id="node11" class="node">
<title>Node11</title>
<g id="a_node11"><a xlink:href="sat__path__enumerator_8h.html" target="_top" xlink:title=" ">
<polygon fill="none" stroke="black" points="0,-178.5 0,-230.5 200,-230.5 200,-178.5 0,-178.5"/>
<text text-anchor="start" x="8" y="-218.5" font-family="Helvetica,sans-Serif" font-size="10.00">/home/runner/work/cbmc</text>
<text text-anchor="start" x="8" y="-207.5" font-family="Helvetica,sans-Serif" font-size="10.00">&#45;documentation/cbmc&#45;documentation</text>
<text text-anchor="start" x="8" y="-196.5" font-family="Helvetica,sans-Serif" font-size="10.00">/src/goto&#45;instrument/accelerate</text>
<text text-anchor="middle" x="100" y="-185.5" font-family="Helvetica,sans-Serif" font-size="10.00">/sat_path_enumerator.h</text>
</a>
</g>
</g>
<!-- Node1&#45;&gt;Node11 -->
<g id="edge18" class="edge">
<title>Node1&#45;&gt;Node11</title>
<path fill="none" stroke="midnightblue" d="M595.71,-376.05C471.69,-368.48 279.12,-351.94 214,-320 172.44,-299.62 137.1,-257.95 117.22,-230.89"/>
<polygon fill="midnightblue" stroke="midnightblue" points="595.81,-379.56 606,-376.67 596.23,-372.58 595.81,-379.56"/>
</g>
<!-- Node13 -->
<g id="node13" class="node">
<title>Node13</title>
<g id="a_node13"><a xlink:href="acceleration__utils_8cpp.html" target="_top" xlink:title=" ">
<polygon fill="none" stroke="black" points="918,-178.5 918,-230.5 1118,-230.5 1118,-178.5 918,-178.5"/>
<text text-anchor="start" x="926" y="-218.5" font-family="Helvetica,sans-Serif" font-size="10.00">/home/runner/work/cbmc</text>
<text text-anchor="start" x="926" y="-207.5" font-family="Helvetica,sans-Serif" font-size="10.00">&#45;documentation/cbmc&#45;documentation</text>
<text text-anchor="start" x="926" y="-196.5" font-family="Helvetica,sans-Serif" font-size="10.00">/src/goto&#45;instrument/accelerate</text>
<text text-anchor="middle" x="1018" y="-185.5" font-family="Helvetica,sans-Serif" font-size="10.00">/acceleration_utils.cpp</text>
</a>
</g>
</g>
<!-- Node1&#45;&gt;Node13 -->
<g id="edge24" class="edge">
<title>Node1&#45;&gt;Node13</title>
<path fill="none" stroke="midnightblue" d="M759.37,-351.39C819.77,-317.32 917.07,-262.43 973.53,-230.59"/>
<polygon fill="midnightblue" stroke="midnightblue" points="757.36,-348.51 750.37,-356.47 760.8,-354.61 757.36,-348.51"/>
</g>
<!-- Node14 -->
<g id="node14" class="node">
<title>Node14</title>
<g id="a_node14"><a xlink:href="disjunctive__polynomial__acceleration_8h.html" target="_top" xlink:title=" ">
<polygon fill="none" stroke="black" points="474.5,-178.5 474.5,-230.5 681.5,-230.5 681.5,-178.5 474.5,-178.5"/>
<text text-anchor="start" x="482.5" y="-218.5" font-family="Helvetica,sans-Serif" font-size="10.00">/home/runner/work/cbmc</text>
<text text-anchor="start" x="482.5" y="-207.5" font-family="Helvetica,sans-Serif" font-size="10.00">&#45;documentation/cbmc&#45;documentation</text>
<text text-anchor="start" x="482.5" y="-196.5" font-family="Helvetica,sans-Serif" font-size="10.00">/src/goto&#45;instrument/accelerate</text>
<text text-anchor="middle" x="578" y="-185.5" font-family="Helvetica,sans-Serif" font-size="10.00">/disjunctive_polynomial_acceleration.h</text>
</a>
</g>
</g>
<!-- Node1&#45;&gt;Node14 -->
<g id="edge26" class="edge">
<title>Node1&#45;&gt;Node14</title>
<path fill="none" stroke="midnightblue" d="M707.79,-346.19C707.31,-321.9 703.11,-290.01 687,-267 676.28,-251.69 660.47,-239.73 644.18,-230.59"/>
<polygon fill="midnightblue" stroke="midnightblue" points="704.29,-346.41 707.79,-356.41 711.29,-346.41 704.29,-346.41"/>
</g>
<!-- Node15 -->
<g id="node15" class="node">
<title>Node15</title>
<g id="a_node15"><a xlink:href="overflow__instrumenter_8h.html" target="_top" xlink:title=" ">
<polygon fill="none" stroke="black" points="1046,-267.5 1046,-319.5 1246,-319.5 1246,-267.5 1046,-267.5"/>
<text text-anchor="start" x="1054" y="-307.5" font-family="Helvetica,sans-Serif" font-size="10.00">/home/runner/work/cbmc</text>
<text text-anchor="start" x="1054" y="-296.5" font-family="Helvetica,sans-Serif" font-size="10.00">&#45;documentation/cbmc&#45;documentation</text>
<text text-anchor="start" x="1054" y="-285.5" font-family="Helvetica,sans-Serif" font-size="10.00">/src/goto&#45;instrument/accelerate</text>
<text text-anchor="middle" x="1146" y="-274.5" font-family="Helvetica,sans-Serif" font-size="10.00">/overflow_instrumenter.h</text>
</a>
</g>
</g>
<!-- Node1&#45;&gt;Node15 -->
<g id="edge19" class="edge">
<title>Node1&#45;&gt;Node15</title>
<path fill="none" stroke="midnightblue" d="M815.93,-359.76C886.48,-345.81 977.38,-327.84 1045.91,-314.29"/>
<polygon fill="midnightblue" stroke="midnightblue" points="815.25,-356.33 806.12,-361.7 816.61,-363.2 815.25,-356.33"/>
</g>
<!-- Node17 -->
<g id="node17" class="node">
<title>Node17</title>
<g id="a_node17"><a xlink:href="cone__of__influence_8cpp.html" target="_top" xlink:title=" ">
<polygon fill="none" stroke="black" points="1468,-267.5 1468,-319.5 1668,-319.5 1668,-267.5 1468,-267.5"/>
<text text-anchor="start" x="1476" y="-307.5" font-family="Helvetica,sans-Serif" font-size="10.00">/home/runner/work/cbmc</text>
<text text-anchor="start" x="1476" y="-296.5" font-family="Helvetica,sans-Serif" font-size="10.00">&#45;documentation/cbmc&#45;documentation</text>
<text text-anchor="start" x="1476" y="-285.5" font-family="Helvetica,sans-Serif" font-size="10.00">/src/goto&#45;instrument/accelerate</text>
<text text-anchor="middle" x="1568" y="-274.5" font-family="Helvetica,sans-Serif" font-size="10.00">/cone_of_influence.cpp</text>
</a>
</g>
</g>
<!-- Node1&#45;&gt;Node17 -->
<g id="edge25" class="edge">
<title>Node1&#45;&gt;Node17</title>
<path fill="none" stroke="midnightblue" d="M816.36,-377.19C962.77,-370.39 1228.98,-354.25 1454,-320 1458.51,-319.31 1463.11,-318.55 1467.75,-317.73"/>
<polygon fill="midnightblue" stroke="midnightblue" points="815.85,-373.71 806.03,-377.67 816.17,-380.71 815.85,-373.71"/>
</g>
<!-- Node3 -->
<g id="node3" class="node">
<title>Node3</title>
<g id="a_node3"><a xlink:href="accelerate_8h.html" target="_top" xlink:title=" ">
<polygon fill="none" stroke="black" points="700,-178.5 700,-230.5 900,-230.5 900,-178.5 700,-178.5"/>
<text text-anchor="start" x="708" y="-218.5" font-family="Helvetica,sans-Serif" font-size="10.00">/home/runner/work/cbmc</text>
<text text-anchor="start" x="708" y="-207.5" font-family="Helvetica,sans-Serif" font-size="10.00">&#45;documentation/cbmc&#45;documentation</text>
<text text-anchor="start" x="708" y="-196.5" font-family="Helvetica,sans-Serif" font-size="10.00">/src/goto&#45;instrument/accelerate</text>
<text text-anchor="middle" x="800" y="-185.5" font-family="Helvetica,sans-Serif" font-size="10.00">/accelerate.h</text>
</a>
</g>
</g>
<!-- Node2&#45;&gt;Node3 -->
<g id="edge2" class="edge">
<title>Node2&#45;&gt;Node3</title>
<path fill="none" stroke="midnightblue" d="M651.45,-263.72C678.84,-252.98 709.69,-240.89 736.15,-230.52"/>
<polygon fill="midnightblue" stroke="midnightblue" points="649.95,-260.55 641.91,-267.45 652.5,-267.06 649.95,-260.55"/>
</g>
<!-- Node2&#45;&gt;Node6 -->
<g id="edge5" class="edge">
<title>Node2&#45;&gt;Node6</title>
<path fill="none" stroke="midnightblue" d="M504.55,-263.72C477.16,-252.98 446.31,-240.89 419.85,-230.52"/>
<polygon fill="midnightblue" stroke="midnightblue" points="503.5,-267.06 514.09,-267.45 506.05,-260.55 503.5,-267.06"/>
</g>
<!-- Node2&#45;&gt;Node11 -->
<g id="edge11" class="edge">
<title>Node2&#45;&gt;Node11</title>
<path fill="none" stroke="midnightblue" d="M467.6,-272.41C386.87,-257.71 278.27,-237.95 200.07,-223.71"/>
<polygon fill="midnightblue" stroke="midnightblue" points="467.33,-275.91 477.8,-274.26 468.58,-269.03 467.33,-275.91"/>
</g>
<!-- Node2&#45;&gt;Node13 -->
<g id="edge14" class="edge">
<title>Node2&#45;&gt;Node13</title>
<path fill="none" stroke="midnightblue" d="M688.37,-273.31C752.84,-261.77 835.7,-246.38 909,-231 911.95,-230.38 914.94,-229.74 917.96,-229.09"/>
<polygon fill="midnightblue" stroke="midnightblue" points="687.41,-269.92 678.18,-275.13 688.64,-276.81 687.41,-269.92"/>
</g>
<!-- Node2&#45;&gt;Node14 -->
<g id="edge15" class="edge">
<title>Node2&#45;&gt;Node14</title>
<path fill="none" stroke="midnightblue" d="M578,-257.19C578,-248.28 578,-238.9 578,-230.61"/>
<polygon fill="midnightblue" stroke="midnightblue" points="574.5,-257.34 578,-267.34 581.5,-257.34 574.5,-257.34"/>
</g>
<!-- Node4 -->
<g id="node4" class="node">
<title>Node4</title>
<g id="a_node4"><a xlink:href="accelerate_8cpp.html" target="_top" xlink:title=" ">
<polygon fill="none" stroke="black" points="814,-0.5 814,-52.5 1014,-52.5 1014,-0.5 814,-0.5"/>
<text text-anchor="start" x="822" y="-40.5" font-family="Helvetica,sans-Serif" font-size="10.00">/home/runner/work/cbmc</text>
<text text-anchor="start" x="822" y="-29.5" font-family="Helvetica,sans-Serif" font-size="10.00">&#45;documentation/cbmc&#45;documentation</text>
<text text-anchor="start" x="822" y="-18.5" font-family="Helvetica,sans-Serif" font-size="10.00">/src/goto&#45;instrument/accelerate</text>
<text text-anchor="middle" x="914" y="-7.5" font-family="Helvetica,sans-Serif" font-size="10.00">/accelerate.cpp</text>
</a>
</g>
</g>
<!-- Node3&#45;&gt;Node4 -->
<g id="edge3" class="edge">
<title>Node3&#45;&gt;Node4</title>
<path fill="none" stroke="midnightblue" d="M863.72,-172.86C875.75,-164.41 887.03,-154.15 895,-142 912.57,-115.21 915.64,-77.53 915.45,-52.82"/>
<polygon fill="midnightblue" stroke="midnightblue" points="861.72,-169.99 855.3,-178.42 865.58,-175.83 861.72,-169.99"/>
</g>
<!-- Node5 -->
<g id="node5" class="node">
<title>Node5</title>
<g id="a_node5"><a xlink:href="goto__instrument__parse__options_8cpp.html" target="_top" xlink:title=" ">
<polygon fill="none" stroke="black" points="686,-89.5 686,-141.5 886,-141.5 886,-89.5 686,-89.5"/>
<text text-anchor="start" x="694" y="-129.5" font-family="Helvetica,sans-Serif" font-size="10.00">/home/runner/work/cbmc</text>
<text text-anchor="start" x="694" y="-118.5" font-family="Helvetica,sans-Serif" font-size="10.00">&#45;documentation/cbmc&#45;documentation</text>
<text text-anchor="start" x="694" y="-107.5" font-family="Helvetica,sans-Serif" font-size="10.00">/src/goto&#45;instrument/goto_instrument</text>
<text text-anchor="middle" x="786" y="-96.5" font-family="Helvetica,sans-Serif" font-size="10.00">_parse_options.cpp</text>
</a>
</g>
</g>
<!-- Node3&#45;&gt;Node5 -->
<g id="edge4" class="edge">
<title>Node3&#45;&gt;Node5</title>
<path fill="none" stroke="midnightblue" d="M794.32,-168.19C792.88,-159.28 791.37,-149.9 790.04,-141.61"/>
<polygon fill="midnightblue" stroke="midnightblue" points="790.91,-169.02 795.95,-178.34 797.82,-167.91 790.91,-169.02"/>
</g>
<!-- Node7 -->
<g id="node7" class="node">
<title>Node7</title>
<g id="a_node7"><a xlink:href="enumerating__loop__acceleration_8h.html" target="_top" xlink:title=" ">
<polygon fill="none" stroke="black" points="225,-89.5 225,-141.5 425,-141.5 425,-89.5 225,-89.5"/>
<text text-anchor="start" x="233" y="-129.5" font-family="Helvetica,sans-Serif" font-size="10.00">/home/runner/work/cbmc</text>
<text text-anchor="start" x="233" y="-118.5" font-family="Helvetica,sans-Serif" font-size="10.00">&#45;documentation/cbmc&#45;documentation</text>
<text text-anchor="start" x="233" y="-107.5" font-family="Helvetica,sans-Serif" font-size="10.00">/src/goto&#45;instrument/accelerate</text>
<text text-anchor="middle" x="325" y="-96.5" font-family="Helvetica,sans-Serif" font-size="10.00">/enumerating_loop_acceleration.h</text>
</a>
</g>
</g>
<!-- Node6&#45;&gt;Node7 -->
<g id="edge6" class="edge">
<title>Node6&#45;&gt;Node7</title>
<path fill="none" stroke="midnightblue" d="M343.63,-168.77C340.39,-159.69 336.96,-150.08 333.95,-141.61"/>
<polygon fill="midnightblue" stroke="midnightblue" points="340.38,-170.09 347.03,-178.34 346.97,-167.74 340.38,-170.09"/>
</g>
<!-- Node6&#45;&gt;Node9 -->
<g id="edge9" class="edge">
<title>Node6&#45;&gt;Node9</title>
<path fill="none" stroke="midnightblue" d="M421.8,-174.29C445.74,-163.67 472.57,-151.76 495.63,-141.52"/>
<polygon fill="midnightblue" stroke="midnightblue" points="420.15,-171.2 412.43,-178.45 422.99,-177.59 420.15,-171.2"/>
</g>
<!-- Node6&#45;&gt;Node10 -->
<g id="edge10" class="edge">
<title>Node6&#45;&gt;Node10</title>
<path fill="none" stroke="midnightblue" d="M466.24,-178.12C642.68,-153.62 1098.56,-130.53 1301.84,-121.02"/>
<polygon fill="midnightblue" stroke="midnightblue" points="465.69,-174.66 456.29,-179.55 466.68,-181.59 465.69,-174.66"/>
</g>
<!-- Node7&#45;&gt;Node4 -->
<g id="edge7" class="edge">
<title>Node7&#45;&gt;Node4</title>
<path fill="none" stroke="midnightblue" d="M435.23,-88.85C571.81,-64.58 718.75,-47.32 813.8,-37.32"/>
<polygon fill="midnightblue" stroke="midnightblue" points="434.23,-85.48 425,-90.69 435.46,-92.37 434.23,-85.48"/>
</g>
<!-- Node8 -->
<g id="node8" class="node">
<title>Node8</title>
<g id="a_node8"><a xlink:href="enumerating__loop__acceleration_8cpp.html" target="_top" xlink:title=" ">
<polygon fill="none" stroke="black" points="225,-0.5 225,-52.5 425,-52.5 425,-0.5 225,-0.5"/>
<text text-anchor="start" x="233" y="-40.5" font-family="Helvetica,sans-Serif" font-size="10.00">/home/runner/work/cbmc</text>
<text text-anchor="start" x="233" y="-29.5" font-family="Helvetica,sans-Serif" font-size="10.00">&#45;documentation/cbmc&#45;documentation</text>
<text text-anchor="start" x="233" y="-18.5" font-family="Helvetica,sans-Serif" font-size="10.00">/src/goto&#45;instrument/accelerate</text>
<text text-anchor="middle" x="325" y="-7.5" font-family="Helvetica,sans-Serif" font-size="10.00">/enumerating_loop_acceleration.cpp</text>
</a>
</g>
</g>
<!-- Node7&#45;&gt;Node8 -->
<g id="edge8" class="edge">
<title>Node7&#45;&gt;Node8</title>
<path fill="none" stroke="midnightblue" d="M325,-79.19C325,-70.28 325,-60.9 325,-52.61"/>
<polygon fill="midnightblue" stroke="midnightblue" points="321.5,-79.34 325,-89.34 328.5,-79.34 321.5,-79.34"/>
</g>
<!-- Node11&#45;&gt;Node7 -->
<g id="edge12" class="edge">
<title>Node11&#45;&gt;Node7</title>
<path fill="none" stroke="midnightblue" d="M174.44,-174.72C202.2,-163.98 233.47,-151.89 260.29,-141.52"/>
<polygon fill="midnightblue" stroke="midnightblue" points="172.84,-171.58 164.78,-178.45 175.37,-178.11 172.84,-171.58"/>
</g>
<!-- Node12 -->
<g id="node12" class="node">
<title>Node12</title>
<g id="a_node12"><a xlink:href="sat__path__enumerator_8cpp.html" target="_top" xlink:title=" ">
<polygon fill="none" stroke="black" points="0,-89.5 0,-141.5 200,-141.5 200,-89.5 0,-89.5"/>
<text text-anchor="start" x="8" y="-129.5" font-family="Helvetica,sans-Serif" font-size="10.00">/home/runner/work/cbmc</text>
<text text-anchor="start" x="8" y="-118.5" font-family="Helvetica,sans-Serif" font-size="10.00">&#45;documentation/cbmc&#45;documentation</text>
<text text-anchor="start" x="8" y="-107.5" font-family="Helvetica,sans-Serif" font-size="10.00">/src/goto&#45;instrument/accelerate</text>
<text text-anchor="middle" x="100" y="-96.5" font-family="Helvetica,sans-Serif" font-size="10.00">/sat_path_enumerator.cpp</text>
</a>
</g>
</g>
<!-- Node11&#45;&gt;Node12 -->
<g id="edge13" class="edge">
<title>Node11&#45;&gt;Node12</title>
<path fill="none" stroke="midnightblue" d="M100,-168.19C100,-159.28 100,-149.9 100,-141.61"/>
<polygon fill="midnightblue" stroke="midnightblue" points="96.5,-168.34 100,-178.34 103.5,-168.34 96.5,-168.34"/>
</g>
<!-- Node14&#45;&gt;Node9 -->
<g id="edge16" class="edge">
<title>Node14&#45;&gt;Node9</title>
<path fill="none" stroke="midnightblue" d="M567.53,-168.48C564.85,-159.49 562.01,-149.99 559.5,-141.61"/>
<polygon fill="midnightblue" stroke="midnightblue" points="564.26,-169.76 570.48,-178.34 570.97,-167.75 564.26,-169.76"/>
</g>
<!-- Node15&#45;&gt;Node4 -->
<g id="edge20" class="edge">
<title>Node15&#45;&gt;Node4</title>
<path fill="none" stroke="midnightblue" d="M1147.04,-257.22C1146.17,-233.22 1141.83,-201.65 1127,-178 1090.32,-119.5 1021.75,-77.29 972.31,-52.72"/>
<polygon fill="midnightblue" stroke="midnightblue" points="1143.54,-257.4 1147.21,-267.33 1150.54,-257.27 1143.54,-257.4"/>
</g>
<!-- Node15&#45;&gt;Node10 -->
<g id="edge23" class="edge">
<title>Node15&#45;&gt;Node10</title>
<path fill="none" stroke="midnightblue" d="M1256.13,-275.77C1309.24,-265.44 1365.25,-250.42 1383,-231 1405.03,-206.91 1406.78,-167.46 1405.11,-141.73"/>
<polygon fill="midnightblue" stroke="midnightblue" points="1255.43,-272.34 1246.26,-277.65 1256.74,-279.22 1255.43,-272.34"/>
</g>
<!-- Node15&#45;&gt;Node13 -->
<g id="edge21" class="edge">
<title>Node15&#45;&gt;Node13</title>
<path fill="none" stroke="midnightblue" d="M1100.4,-261.5C1085.49,-251.37 1069.13,-240.25 1054.94,-230.61"/>
<polygon fill="midnightblue" stroke="midnightblue" points="1098.74,-264.61 1108.98,-267.34 1102.67,-258.82 1098.74,-264.61"/>
</g>
<!-- Node16 -->
<g id="node16" class="node">
<title>Node16</title>
<g id="a_node16"><a xlink:href="overflow__instrumenter_8cpp.html" target="_top" xlink:title=" ">
<polygon fill="none" stroke="black" points="1174,-178.5 1174,-230.5 1374,-230.5 1374,-178.5 1174,-178.5"/>
<text text-anchor="start" x="1182" y="-218.5" font-family="Helvetica,sans-Serif" font-size="10.00">/home/runner/work/cbmc</text>
<text text-anchor="start" x="1182" y="-207.5" font-family="Helvetica,sans-Serif" font-size="10.00">&#45;documentation/cbmc&#45;documentation</text>
<text text-anchor="start" x="1182" y="-196.5" font-family="Helvetica,sans-Serif" font-size="10.00">/src/goto&#45;instrument/accelerate</text>
<text text-anchor="middle" x="1274" y="-185.5" font-family="Helvetica,sans-Serif" font-size="10.00">/overflow_instrumenter.cpp</text>
</a>
</g>
</g>
<!-- Node15&#45;&gt;Node16 -->
<g id="edge22" class="edge">
<title>Node15&#45;&gt;Node16</title>
<path fill="none" stroke="midnightblue" d="M1191.6,-261.5C1206.51,-251.37 1222.87,-240.25 1237.06,-230.61"/>
<polygon fill="midnightblue" stroke="midnightblue" points="1189.33,-258.82 1183.02,-267.34 1193.26,-264.61 1189.33,-258.82"/>
</g>
</g>
</svg>
