<?xml version="1.0" encoding="UTF-8" standalone="no"?>
<!DOCTYPE svg PUBLIC "-//W3C//DTD SVG 1.1//EN"
 "http://www.w3.org/Graphics/SVG/1.1/DTD/svg11.dtd">
<!-- Generated by graphviz version 2.43.0 (0)
 -->
<!-- Title: /home/runner/work/cbmc&#45;documentation/cbmc&#45;documentation/src/util/cout_message.h Pages: 1 -->
<svg width="1994pt" height="295pt"
 viewBox="0.00 0.00 1994.00 295.00" xmlns="http://www.w3.org/2000/svg" xmlns:xlink="http://www.w3.org/1999/xlink">
<g id="graph0" class="graph" transform="scale(1 1) rotate(0) translate(4 291)">
<title>/home/runner/work/cbmc&#45;documentation/cbmc&#45;documentation/src/util/cout_message.h</title>
<!-- Node1 -->
<g id="node1" class="node">
<title>Node1</title>
<g id="a_node1"><a xlink:title=" ">
<polygon fill="#bfbfbf" stroke="black" points="1241,-245.5 1241,-286.5 1441,-286.5 1441,-245.5 1241,-245.5"/>
<text text-anchor="start" x="1249" y="-274.5" font-family="Helvetica,sans-Serif" font-size="10.00">/home/runner/work/cbmc</text>
<text text-anchor="start" x="1249" y="-263.5" font-family="Helvetica,sans-Serif" font-size="10.00">&#45;documentation/cbmc&#45;documentation</text>
<text text-anchor="middle" x="1341" y="-252.5" font-family="Helvetica,sans-Serif" font-size="10.00">/src/util/cout_message.h</text>
</a>
</g>
</g>
<!-- Node2 -->
<g id="node2" class="node">
<title>Node2</title>
<g id="a_node2"><a xlink:href="crangler__parse__options_8cpp.html" target="_top" xlink:title=" ">
<polygon fill="none" stroke="black" points="438,-156.5 438,-208.5 638,-208.5 638,-156.5 438,-156.5"/>
<text text-anchor="start" x="446" y="-196.5" font-family="Helvetica,sans-Serif" font-size="10.00">/home/runner/work/cbmc</text>
<text text-anchor="start" x="446" y="-185.5" font-family="Helvetica,sans-Serif" font-size="10.00">&#45;documentation/cbmc&#45;documentation</text>
<text text-anchor="start" x="446" y="-174.5" font-family="Helvetica,sans-Serif" font-size="10.00">/src/crangler/crangler_parse</text>
<text text-anchor="middle" x="538" y="-163.5" font-family="Helvetica,sans-Serif" font-size="10.00">_options.cpp</text>
</a>
</g>
</g>
<!-- Node1&#45;&gt;Node2 -->
<g id="edge1" class="edge">
<title>Node1&#45;&gt;Node2</title>
<path fill="none" stroke="midnightblue" d="M1230.63,-261.18C1093.21,-255.26 851.62,-241.01 647,-209 644.12,-208.55 641.2,-208.06 638.26,-207.55"/>
<polygon fill="midnightblue" stroke="midnightblue" points="1230.61,-264.68 1240.75,-261.61 1230.91,-257.69 1230.61,-264.68"/>
</g>
<!-- Node3 -->
<g id="node3" class="node">
<title>Node3</title>
<g id="a_node3"><a xlink:href="gcc__message__handler_8h.html" target="_top" xlink:title=" ">
<polygon fill="none" stroke="black" points="656,-162 656,-203 856,-203 856,-162 656,-162"/>
<text text-anchor="start" x="664" y="-191" font-family="Helvetica,sans-Serif" font-size="10.00">/home/runner/work/cbmc</text>
<text text-anchor="start" x="664" y="-180" font-family="Helvetica,sans-Serif" font-size="10.00">&#45;documentation/cbmc&#45;documentation</text>
<text text-anchor="middle" x="756" y="-169" font-family="Helvetica,sans-Serif" font-size="10.00">/src/goto&#45;cc/gcc_message_handler.h</text>
</a>
</g>
</g>
<!-- Node1&#45;&gt;Node3 -->
<g id="edge2" class="edge">
<title>Node1&#45;&gt;Node3</title>
<path fill="none" stroke="midnightblue" d="M1230.84,-249.65C1123.14,-234.65 960.56,-212 856.35,-197.48"/>
<polygon fill="midnightblue" stroke="midnightblue" points="1230.38,-253.12 1240.77,-251.04 1231.35,-246.19 1230.38,-253.12"/>
</g>
<!-- Node14 -->
<g id="node14" class="node">
<title>Node14</title>
<g id="a_node14"><a xlink:href="cl__message__handler_8h.html" target="_top" xlink:title=" ">
<polygon fill="none" stroke="black" points="1350,-162 1350,-203 1550,-203 1550,-162 1350,-162"/>
<text text-anchor="start" x="1358" y="-191" font-family="Helvetica,sans-Serif" font-size="10.00">/home/runner/work/cbmc</text>
<text text-anchor="start" x="1358" y="-180" font-family="Helvetica,sans-Serif" font-size="10.00">&#45;documentation/cbmc&#45;documentation</text>
<text text-anchor="middle" x="1450" y="-169" font-family="Helvetica,sans-Serif" font-size="10.00">/src/goto&#45;cc/cl_message_handler.h</text>
</a>
</g>
</g>
<!-- Node1&#45;&gt;Node14 -->
<g id="edge16" class="edge">
<title>Node1&#45;&gt;Node14</title>
<path fill="none" stroke="midnightblue" d="M1375.48,-239.22C1391.09,-227.55 1409.24,-213.97 1423.73,-203.14"/>
<polygon fill="midnightblue" stroke="midnightblue" points="1373.02,-236.69 1367.11,-245.48 1377.21,-242.29 1373.02,-236.69"/>
</g>
<!-- Node20 -->
<g id="node20" class="node">
<title>Node20</title>
<g id="a_node20"><a xlink:href="cw__mode_8h.html" target="_top" xlink:title=" ">
<polygon fill="none" stroke="black" points="1132,-162 1132,-203 1332,-203 1332,-162 1132,-162"/>
<text text-anchor="start" x="1140" y="-191" font-family="Helvetica,sans-Serif" font-size="10.00">/home/runner/work/cbmc</text>
<text text-anchor="start" x="1140" y="-180" font-family="Helvetica,sans-Serif" font-size="10.00">&#45;documentation/cbmc&#45;documentation</text>
<text text-anchor="middle" x="1232" y="-169" font-family="Helvetica,sans-Serif" font-size="10.00">/src/goto&#45;cc/cw_mode.h</text>
</a>
</g>
</g>
<!-- Node1&#45;&gt;Node20 -->
<g id="edge24" class="edge">
<title>Node1&#45;&gt;Node20</title>
<path fill="none" stroke="midnightblue" d="M1306.52,-239.22C1290.91,-227.55 1272.76,-213.97 1258.27,-203.14"/>
<polygon fill="midnightblue" stroke="midnightblue" points="1304.79,-242.29 1314.89,-245.48 1308.98,-236.69 1304.79,-242.29"/>
</g>
<!-- Node22 -->
<g id="node22" class="node">
<title>Node22</title>
<g id="a_node22"><a xlink:href="cout__message_8cpp.html" target="_top" xlink:title=" ">
<polygon fill="none" stroke="black" points="1568,-162 1568,-203 1768,-203 1768,-162 1568,-162"/>
<text text-anchor="start" x="1576" y="-191" font-family="Helvetica,sans-Serif" font-size="10.00">/home/runner/work/cbmc</text>
<text text-anchor="start" x="1576" y="-180" font-family="Helvetica,sans-Serif" font-size="10.00">&#45;documentation/cbmc&#45;documentation</text>
<text text-anchor="middle" x="1668" y="-169" font-family="Helvetica,sans-Serif" font-size="10.00">/src/util/cout_message.cpp</text>
</a>
</g>
</g>
<!-- Node1&#45;&gt;Node22 -->
<g id="edge27" class="edge">
<title>Node1&#45;&gt;Node22</title>
<path fill="none" stroke="midnightblue" d="M1429.17,-243.02C1479.25,-230.54 1541.4,-215.05 1589.75,-203"/>
<polygon fill="midnightblue" stroke="midnightblue" points="1428.18,-239.66 1419.32,-245.48 1429.87,-246.46 1428.18,-239.66"/>
</g>
<!-- Node23 -->
<g id="node23" class="node">
<title>Node23</title>
<g id="a_node23"><a xlink:href="ui__message_8cpp.html" target="_top" xlink:title=" ">
<polygon fill="none" stroke="black" points="1786,-162 1786,-203 1986,-203 1986,-162 1786,-162"/>
<text text-anchor="start" x="1794" y="-191" font-family="Helvetica,sans-Serif" font-size="10.00">/home/runner/work/cbmc</text>
<text text-anchor="start" x="1794" y="-180" font-family="Helvetica,sans-Serif" font-size="10.00">&#45;documentation/cbmc&#45;documentation</text>
<text text-anchor="middle" x="1886" y="-169" font-family="Helvetica,sans-Serif" font-size="10.00">/src/util/ui_message.cpp</text>
</a>
</g>
</g>
<!-- Node1&#45;&gt;Node23 -->
<g id="edge28" class="edge">
<title>Node1&#45;&gt;Node23</title>
<path fill="none" stroke="midnightblue" d="M1451.06,-254.01C1539.5,-244.42 1666.72,-228.93 1777,-209 1786.66,-207.25 1796.75,-205.21 1806.72,-203.04"/>
<polygon fill="midnightblue" stroke="midnightblue" points="1450.58,-250.54 1441.01,-255.09 1451.33,-257.5 1450.58,-250.54"/>
</g>
<!-- Node4 -->
<g id="node4" class="node">
<title>Node4</title>
<g id="a_node4"><a xlink:href="armcc__mode_8h.html" target="_top" xlink:title=" ">
<polygon fill="none" stroke="black" points="0,-78.5 0,-119.5 200,-119.5 200,-78.5 0,-78.5"/>
<text text-anchor="start" x="8" y="-107.5" font-family="Helvetica,sans-Serif" font-size="10.00">/home/runner/work/cbmc</text>
<text text-anchor="start" x="8" y="-96.5" font-family="Helvetica,sans-Serif" font-size="10.00">&#45;documentation/cbmc&#45;documentation</text>
<text text-anchor="middle" x="100" y="-85.5" font-family="Helvetica,sans-Serif" font-size="10.00">/src/goto&#45;cc/armcc_mode.h</text>
</a>
</g>
</g>
<!-- Node3&#45;&gt;Node4 -->
<g id="edge3" class="edge">
<title>Node3&#45;&gt;Node4</title>
<path fill="none" stroke="midnightblue" d="M668.84,-159.91C661.48,-158.45 654.13,-157.12 647,-156 454.05,-125.67 402.63,-145.66 209,-120 206.04,-119.61 203.05,-119.19 200.02,-118.75"/>
<polygon fill="midnightblue" stroke="midnightblue" points="668.37,-163.39 678.87,-161.97 669.78,-156.53 668.37,-163.39"/>
</g>
<!-- Node7 -->
<g id="node7" class="node">
<title>Node7</title>
<g id="a_node7"><a xlink:href="as__mode_8h.html" target="_top" xlink:title=" ">
<polygon fill="none" stroke="black" points="218,-78.5 218,-119.5 418,-119.5 418,-78.5 218,-78.5"/>
<text text-anchor="start" x="226" y="-107.5" font-family="Helvetica,sans-Serif" font-size="10.00">/home/runner/work/cbmc</text>
<text text-anchor="start" x="226" y="-96.5" font-family="Helvetica,sans-Serif" font-size="10.00">&#45;documentation/cbmc&#45;documentation</text>
<text text-anchor="middle" x="318" y="-85.5" font-family="Helvetica,sans-Serif" font-size="10.00">/src/goto&#45;cc/as_mode.h</text>
</a>
</g>
</g>
<!-- Node3&#45;&gt;Node7 -->
<g id="edge6" class="edge">
<title>Node3&#45;&gt;Node7</title>
<path fill="none" stroke="midnightblue" d="M665.4,-159.81C659.18,-158.48 653,-157.19 647,-156 549.82,-136.7 524.62,-136.94 427,-120 424.06,-119.49 421.08,-118.97 418.07,-118.44"/>
<polygon fill="midnightblue" stroke="midnightblue" points="664.66,-163.24 675.18,-161.95 666.16,-156.4 664.66,-163.24"/>
</g>
<!-- Node9 -->
<g id="node9" class="node">
<title>Node9</title>
<g id="a_node9"><a xlink:href="gcc__message__handler_8cpp.html" target="_top" xlink:title=" ">
<polygon fill="none" stroke="black" points="654.5,-78.5 654.5,-119.5 857.5,-119.5 857.5,-78.5 654.5,-78.5"/>
<text text-anchor="start" x="662.5" y="-107.5" font-family="Helvetica,sans-Serif" font-size="10.00">/home/runner/work/cbmc</text>
<text text-anchor="start" x="662.5" y="-96.5" font-family="Helvetica,sans-Serif" font-size="10.00">&#45;documentation/cbmc&#45;documentation</text>
<text text-anchor="middle" x="756" y="-85.5" font-family="Helvetica,sans-Serif" font-size="10.00">/src/goto&#45;cc/gcc_message_handler.cpp</text>
</a>
</g>
</g>
<!-- Node3&#45;&gt;Node9 -->
<g id="edge9" class="edge">
<title>Node3&#45;&gt;Node9</title>
<path fill="none" stroke="midnightblue" d="M756,-151.56C756,-140.88 756,-129.13 756,-119.55"/>
<polygon fill="midnightblue" stroke="midnightblue" points="752.5,-151.77 756,-161.77 759.5,-151.77 752.5,-151.77"/>
</g>
<!-- Node10 -->
<g id="node10" class="node">
<title>Node10</title>
<g id="a_node10"><a xlink:href="gcc__mode_8h.html" target="_top" xlink:title=" ">
<polygon fill="none" stroke="black" points="436,-78.5 436,-119.5 636,-119.5 636,-78.5 436,-78.5"/>
<text text-anchor="start" x="444" y="-107.5" font-family="Helvetica,sans-Serif" font-size="10.00">/home/runner/work/cbmc</text>
<text text-anchor="start" x="444" y="-96.5" font-family="Helvetica,sans-Serif" font-size="10.00">&#45;documentation/cbmc&#45;documentation</text>
<text text-anchor="middle" x="536" y="-85.5" font-family="Helvetica,sans-Serif" font-size="10.00">/src/goto&#45;cc/gcc_mode.h</text>
</a>
</g>
</g>
<!-- Node3&#45;&gt;Node10 -->
<g id="edge10" class="edge">
<title>Node3&#45;&gt;Node10</title>
<path fill="none" stroke="midnightblue" d="M693.71,-158.42C660.55,-146.14 620.22,-131.2 588.65,-119.5"/>
<polygon fill="midnightblue" stroke="midnightblue" points="692.71,-161.79 703.3,-161.98 695.14,-155.22 692.71,-161.79"/>
</g>
<!-- Node12 -->
<g id="node12" class="node">
<title>Node12</title>
<g id="a_node12"><a xlink:href="ld__mode_8h.html" target="_top" xlink:title=" ">
<polygon fill="none" stroke="black" points="914,-78.5 914,-119.5 1114,-119.5 1114,-78.5 914,-78.5"/>
<text text-anchor="start" x="922" y="-107.5" font-family="Helvetica,sans-Serif" font-size="10.00">/home/runner/work/cbmc</text>
<text text-anchor="start" x="922" y="-96.5" font-family="Helvetica,sans-Serif" font-size="10.00">&#45;documentation/cbmc&#45;documentation</text>
<text text-anchor="middle" x="1014" y="-85.5" font-family="Helvetica,sans-Serif" font-size="10.00">/src/goto&#45;cc/ld_mode.h</text>
</a>
</g>
</g>
<!-- Node3&#45;&gt;Node12 -->
<g id="edge13" class="edge">
<title>Node3&#45;&gt;Node12</title>
<path fill="none" stroke="midnightblue" d="M827.55,-158.9C866.71,-146.53 914.75,-131.35 952.26,-119.5"/>
<polygon fill="midnightblue" stroke="midnightblue" points="826.28,-155.63 817.8,-161.98 828.39,-162.3 826.28,-155.63"/>
</g>
<!-- Node5 -->
<g id="node5" class="node">
<title>Node5</title>
<g id="a_node5"><a xlink:href="armcc__mode_8cpp.html" target="_top" xlink:title=" ">
<polygon fill="none" stroke="black" points="0,-0.5 0,-41.5 200,-41.5 200,-0.5 0,-0.5"/>
<text text-anchor="start" x="8" y="-29.5" font-family="Helvetica,sans-Serif" font-size="10.00">/home/runner/work/cbmc</text>
<text text-anchor="start" x="8" y="-18.5" font-family="Helvetica,sans-Serif" font-size="10.00">&#45;documentation/cbmc&#45;documentation</text>
<text text-anchor="middle" x="100" y="-7.5" font-family="Helvetica,sans-Serif" font-size="10.00">/src/goto&#45;cc/armcc_mode.cpp</text>
</a>
</g>
</g>
<!-- Node4&#45;&gt;Node5 -->
<g id="edge4" class="edge">
<title>Node4&#45;&gt;Node5</title>
<path fill="none" stroke="midnightblue" d="M100,-68.3C100,-59.3 100,-49.65 100,-41.51"/>
<polygon fill="midnightblue" stroke="midnightblue" points="96.5,-68.43 100,-78.43 103.5,-68.43 96.5,-68.43"/>
</g>
<!-- Node6 -->
<g id="node6" class="node">
<title>Node6</title>
<g id="a_node6"><a xlink:href="goto__cc__main_8cpp.html" target="_top" xlink:title=" ">
<polygon fill="none" stroke="black" points="741,-0.5 741,-41.5 941,-41.5 941,-0.5 741,-0.5"/>
<text text-anchor="start" x="749" y="-29.5" font-family="Helvetica,sans-Serif" font-size="10.00">/home/runner/work/cbmc</text>
<text text-anchor="start" x="749" y="-18.5" font-family="Helvetica,sans-Serif" font-size="10.00">&#45;documentation/cbmc&#45;documentation</text>
<text text-anchor="middle" x="841" y="-7.5" font-family="Helvetica,sans-Serif" font-size="10.00">/src/goto&#45;cc/goto_cc_main.cpp</text>
</a>
</g>
</g>
<!-- Node4&#45;&gt;Node6 -->
<g id="edge5" class="edge">
<title>Node4&#45;&gt;Node6</title>
<path fill="none" stroke="midnightblue" d="M209.94,-77.94C403.44,-52.66 454.6,-59.57 645,-42 676.16,-39.12 710.09,-35.75 740.82,-32.6"/>
<polygon fill="midnightblue" stroke="midnightblue" points="209.48,-74.47 200.02,-79.25 210.39,-81.41 209.48,-74.47"/>
</g>
<!-- Node7&#45;&gt;Node6 -->
<g id="edge8" class="edge">
<title>Node7&#45;&gt;Node6</title>
<path fill="none" stroke="midnightblue" d="M428.25,-77.83C541.07,-60.03 659.33,-44.46 740.84,-34.21"/>
<polygon fill="midnightblue" stroke="midnightblue" points="427.38,-74.43 418.05,-79.45 428.48,-81.34 427.38,-74.43"/>
</g>
<!-- Node8 -->
<g id="node8" class="node">
<title>Node8</title>
<g id="a_node8"><a xlink:href="as__mode_8cpp.html" target="_top" xlink:title=" ">
<polygon fill="none" stroke="black" points="218,-0.5 218,-41.5 418,-41.5 418,-0.5 218,-0.5"/>
<text text-anchor="start" x="226" y="-29.5" font-family="Helvetica,sans-Serif" font-size="10.00">/home/runner/work/cbmc</text>
<text text-anchor="start" x="226" y="-18.5" font-family="Helvetica,sans-Serif" font-size="10.00">&#45;documentation/cbmc&#45;documentation</text>
<text text-anchor="middle" x="318" y="-7.5" font-family="Helvetica,sans-Serif" font-size="10.00">/src/goto&#45;cc/as_mode.cpp</text>
</a>
</g>
</g>
<!-- Node7&#45;&gt;Node8 -->
<g id="edge7" class="edge">
<title>Node7&#45;&gt;Node8</title>
<path fill="none" stroke="midnightblue" d="M318,-68.3C318,-59.3 318,-49.65 318,-41.51"/>
<polygon fill="midnightblue" stroke="midnightblue" points="314.5,-68.43 318,-78.43 321.5,-68.43 314.5,-68.43"/>
</g>
<!-- Node10&#45;&gt;Node6 -->
<g id="edge12" class="edge">
<title>Node10&#45;&gt;Node6</title>
<path fill="none" stroke="midnightblue" d="M624.31,-75.99C668.06,-65.09 720.43,-52.04 762.72,-41.51"/>
<polygon fill="midnightblue" stroke="midnightblue" points="623.4,-72.61 614.55,-78.43 625.09,-79.41 623.4,-72.61"/>
</g>
<!-- Node11 -->
<g id="node11" class="node">
<title>Node11</title>
<g id="a_node11"><a xlink:href="gcc__mode_8cpp.html" target="_top" xlink:title=" ">
<polygon fill="none" stroke="black" points="436,-0.5 436,-41.5 636,-41.5 636,-0.5 436,-0.5"/>
<text text-anchor="start" x="444" y="-29.5" font-family="Helvetica,sans-Serif" font-size="10.00">/home/runner/work/cbmc</text>
<text text-anchor="start" x="444" y="-18.5" font-family="Helvetica,sans-Serif" font-size="10.00">&#45;documentation/cbmc&#45;documentation</text>
<text text-anchor="middle" x="536" y="-7.5" font-family="Helvetica,sans-Serif" font-size="10.00">/src/goto&#45;cc/gcc_mode.cpp</text>
</a>
</g>
</g>
<!-- Node10&#45;&gt;Node11 -->
<g id="edge11" class="edge">
<title>Node10&#45;&gt;Node11</title>
<path fill="none" stroke="midnightblue" d="M536,-68.3C536,-59.3 536,-49.65 536,-41.51"/>
<polygon fill="midnightblue" stroke="midnightblue" points="532.5,-68.43 536,-78.43 539.5,-68.43 532.5,-68.43"/>
</g>
<!-- Node12&#45;&gt;Node6 -->
<g id="edge14" class="edge">
<title>Node12&#45;&gt;Node6</title>
<path fill="none" stroke="midnightblue" d="M960.12,-74.33C936.11,-63.78 908.18,-51.51 885.4,-41.51"/>
<polygon fill="midnightblue" stroke="midnightblue" points="958.88,-77.61 969.45,-78.43 961.7,-71.2 958.88,-77.61"/>
</g>
<!-- Node13 -->
<g id="node13" class="node">
<title>Node13</title>
<g id="a_node13"><a xlink:href="ld__mode_8cpp.html" target="_top" xlink:title=" ">
<polygon fill="none" stroke="black" points="959,-0.5 959,-41.5 1159,-41.5 1159,-0.5 959,-0.5"/>
<text text-anchor="start" x="967" y="-29.5" font-family="Helvetica,sans-Serif" font-size="10.00">/home/runner/work/cbmc</text>
<text text-anchor="start" x="967" y="-18.5" font-family="Helvetica,sans-Serif" font-size="10.00">&#45;documentation/cbmc&#45;documentation</text>
<text text-anchor="middle" x="1059" y="-7.5" font-family="Helvetica,sans-Serif" font-size="10.00">/src/goto&#45;cc/ld_mode.cpp</text>
</a>
</g>
</g>
<!-- Node12&#45;&gt;Node13 -->
<g id="edge15" class="edge">
<title>Node12&#45;&gt;Node13</title>
<path fill="none" stroke="midnightblue" d="M1030.72,-69.76C1036.29,-60.35 1042.36,-50.1 1047.45,-41.51"/>
<polygon fill="midnightblue" stroke="midnightblue" points="1027.67,-68.04 1025.59,-78.43 1033.7,-71.61 1027.67,-68.04"/>
</g>
<!-- Node15 -->
<g id="node15" class="node">
<title>Node15</title>
<g id="a_node15"><a xlink:href="cl__message__handler_8cpp.html" target="_top" xlink:title=" ">
<polygon fill="none" stroke="black" points="1568,-78.5 1568,-119.5 1768,-119.5 1768,-78.5 1568,-78.5"/>
<text text-anchor="start" x="1576" y="-107.5" font-family="Helvetica,sans-Serif" font-size="10.00">/home/runner/work/cbmc</text>
<text text-anchor="start" x="1576" y="-96.5" font-family="Helvetica,sans-Serif" font-size="10.00">&#45;documentation/cbmc&#45;documentation</text>
<text text-anchor="middle" x="1668" y="-85.5" font-family="Helvetica,sans-Serif" font-size="10.00">/src/goto&#45;cc/cl_message_handler.cpp</text>
</a>
</g>
</g>
<!-- Node14&#45;&gt;Node15 -->
<g id="edge17" class="edge">
<title>Node14&#45;&gt;Node15</title>
<path fill="none" stroke="midnightblue" d="M1511.72,-158.42C1544.58,-146.14 1584.54,-131.2 1615.83,-119.5"/>
<polygon fill="midnightblue" stroke="midnightblue" points="1510.36,-155.2 1502.22,-161.98 1512.81,-161.76 1510.36,-155.2"/>
</g>
<!-- Node16 -->
<g id="node16" class="node">
<title>Node16</title>
<g id="a_node16"><a xlink:href="ms__cl__mode_8h.html" target="_top" xlink:title=" ">
<polygon fill="none" stroke="black" points="1350,-78.5 1350,-119.5 1550,-119.5 1550,-78.5 1350,-78.5"/>
<text text-anchor="start" x="1358" y="-107.5" font-family="Helvetica,sans-Serif" font-size="10.00">/home/runner/work/cbmc</text>
<text text-anchor="start" x="1358" y="-96.5" font-family="Helvetica,sans-Serif" font-size="10.00">&#45;documentation/cbmc&#45;documentation</text>
<text text-anchor="middle" x="1450" y="-85.5" font-family="Helvetica,sans-Serif" font-size="10.00">/src/goto&#45;cc/ms_cl_mode.h</text>
</a>
</g>
</g>
<!-- Node14&#45;&gt;Node16 -->
<g id="edge18" class="edge">
<title>Node14&#45;&gt;Node16</title>
<path fill="none" stroke="midnightblue" d="M1450,-151.56C1450,-140.88 1450,-129.13 1450,-119.55"/>
<polygon fill="midnightblue" stroke="midnightblue" points="1446.5,-151.77 1450,-161.77 1453.5,-151.77 1446.5,-151.77"/>
</g>
<!-- Node18 -->
<g id="node18" class="node">
<title>Node18</title>
<g id="a_node18"><a xlink:href="ms__link__mode_8h.html" target="_top" xlink:title=" ">
<polygon fill="none" stroke="black" points="1786,-78.5 1786,-119.5 1986,-119.5 1986,-78.5 1786,-78.5"/>
<text text-anchor="start" x="1794" y="-107.5" font-family="Helvetica,sans-Serif" font-size="10.00">/home/runner/work/cbmc</text>
<text text-anchor="start" x="1794" y="-96.5" font-family="Helvetica,sans-Serif" font-size="10.00">&#45;documentation/cbmc&#45;documentation</text>
<text text-anchor="middle" x="1886" y="-85.5" font-family="Helvetica,sans-Serif" font-size="10.00">/src/goto&#45;cc/ms_link_mode.h</text>
</a>
</g>
</g>
<!-- Node14&#45;&gt;Node18 -->
<g id="edge21" class="edge">
<title>Node14&#45;&gt;Node18</title>
<path fill="none" stroke="midnightblue" d="M1540.6,-159.82C1546.82,-158.48 1553,-157.2 1559,-156 1655.31,-136.8 1680.26,-136.86 1777,-120 1779.94,-119.49 1782.92,-118.96 1785.93,-118.43"/>
<polygon fill="midnightblue" stroke="midnightblue" points="1539.84,-156.41 1530.82,-161.96 1541.34,-163.25 1539.84,-156.41"/>
</g>
<!-- Node16&#45;&gt;Node6 -->
<g id="edge19" class="edge">
<title>Node16&#45;&gt;Node6</title>
<path fill="none" stroke="midnightblue" d="M1339.99,-77.93C1166.39,-54.64 1119.68,-65.33 950,-42 947.05,-41.59 944.05,-41.16 941.03,-40.71"/>
<polygon fill="midnightblue" stroke="midnightblue" points="1339.59,-81.41 1349.97,-79.29 1340.54,-74.47 1339.59,-81.41"/>
</g>
<!-- Node17 -->
<g id="node17" class="node">
<title>Node17</title>
<g id="a_node17"><a xlink:href="ms__cl__mode_8cpp.html" target="_top" xlink:title=" ">
<polygon fill="none" stroke="black" points="1350,-0.5 1350,-41.5 1550,-41.5 1550,-0.5 1350,-0.5"/>
<text text-anchor="start" x="1358" y="-29.5" font-family="Helvetica,sans-Serif" font-size="10.00">/home/runner/work/cbmc</text>
<text text-anchor="start" x="1358" y="-18.5" font-family="Helvetica,sans-Serif" font-size="10.00">&#45;documentation/cbmc&#45;documentation</text>
<text text-anchor="middle" x="1450" y="-7.5" font-family="Helvetica,sans-Serif" font-size="10.00">/src/goto&#45;cc/ms_cl_mode.cpp</text>
</a>
</g>
</g>
<!-- Node16&#45;&gt;Node17 -->
<g id="edge20" class="edge">
<title>Node16&#45;&gt;Node17</title>
<path fill="none" stroke="midnightblue" d="M1450,-68.3C1450,-59.3 1450,-49.65 1450,-41.51"/>
<polygon fill="midnightblue" stroke="midnightblue" points="1446.5,-68.43 1450,-78.43 1453.5,-68.43 1446.5,-68.43"/>
</g>
<!-- Node18&#45;&gt;Node6 -->
<g id="edge22" class="edge">
<title>Node18&#45;&gt;Node6</title>
<path fill="none" stroke="midnightblue" d="M1775.91,-77.97C1409.67,-37.54 1312.28,-82.92 950,-42 947.04,-41.67 944.03,-41.3 941,-40.9"/>
<polygon fill="midnightblue" stroke="midnightblue" points="1775.67,-81.46 1786,-79.1 1776.45,-74.51 1775.67,-81.46"/>
</g>
<!-- Node19 -->
<g id="node19" class="node">
<title>Node19</title>
<g id="a_node19"><a xlink:href="ms__link__mode_8cpp.html" target="_top" xlink:title=" ">
<polygon fill="none" stroke="black" points="1786,-0.5 1786,-41.5 1986,-41.5 1986,-0.5 1786,-0.5"/>
<text text-anchor="start" x="1794" y="-29.5" font-family="Helvetica,sans-Serif" font-size="10.00">/home/runner/work/cbmc</text>
<text text-anchor="start" x="1794" y="-18.5" font-family="Helvetica,sans-Serif" font-size="10.00">&#45;documentation/cbmc&#45;documentation</text>
<text text-anchor="middle" x="1886" y="-7.5" font-family="Helvetica,sans-Serif" font-size="10.00">/src/goto&#45;cc/ms_link_mode.cpp</text>
</a>
</g>
</g>
<!-- Node18&#45;&gt;Node19 -->
<g id="edge23" class="edge">
<title>Node18&#45;&gt;Node19</title>
<path fill="none" stroke="midnightblue" d="M1886,-68.3C1886,-59.3 1886,-49.65 1886,-41.51"/>
<polygon fill="midnightblue" stroke="midnightblue" points="1882.5,-68.43 1886,-78.43 1889.5,-68.43 1882.5,-68.43"/>
</g>
<!-- Node20&#45;&gt;Node6 -->
<g id="edge26" class="edge">
<title>Node20&#45;&gt;Node6</title>
<path fill="none" stroke="midnightblue" d="M1121.39,-170.07C1040.83,-160.03 939.95,-143.35 905,-120 876.45,-100.92 857.7,-64.32 848.26,-41.65"/>
<polygon fill="midnightblue" stroke="midnightblue" points="1121.26,-173.58 1131.61,-171.33 1122.11,-166.63 1121.26,-173.58"/>
</g>
<!-- Node21 -->
<g id="node21" class="node">
<title>Node21</title>
<g id="a_node21"><a xlink:href="cw__mode_8cpp.html" target="_top" xlink:title=" ">
<polygon fill="none" stroke="black" points="1132,-78.5 1132,-119.5 1332,-119.5 1332,-78.5 1132,-78.5"/>
<text text-anchor="start" x="1140" y="-107.5" font-family="Helvetica,sans-Serif" font-size="10.00">/home/runner/work/cbmc</text>
<text text-anchor="start" x="1140" y="-96.5" font-family="Helvetica,sans-Serif" font-size="10.00">&#45;documentation/cbmc&#45;documentation</text>
<text text-anchor="middle" x="1232" y="-85.5" font-family="Helvetica,sans-Serif" font-size="10.00">/src/goto&#45;cc/cw_mode.cpp</text>
</a>
</g>
</g>
<!-- Node20&#45;&gt;Node21 -->
<g id="edge25" class="edge">
<title>Node20&#45;&gt;Node21</title>
<path fill="none" stroke="midnightblue" d="M1232,-151.56C1232,-140.88 1232,-129.13 1232,-119.55"/>
<polygon fill="midnightblue" stroke="midnightblue" points="1228.5,-151.77 1232,-161.77 1235.5,-151.77 1228.5,-151.77"/>
</g>
</g>
</svg>
