<?xml version="1.0" encoding="UTF-8" standalone="no"?>
<!DOCTYPE svg PUBLIC "-//W3C//DTD SVG 1.1//EN"
 "http://www.w3.org/Graphics/SVG/1.1/DTD/svg11.dtd">
<!-- Generated by graphviz version 2.43.0 (0)
 -->
<!-- Title: /home/runner/work/cbmc&#45;documentation/cbmc&#45;documentation/src/solvers/prop/cover_goals.h Pages: 1 -->
<svg width="948pt" height="610pt"
 viewBox="0.00 0.00 947.50 610.00" xmlns="http://www.w3.org/2000/svg" xmlns:xlink="http://www.w3.org/1999/xlink">
<g id="graph0" class="graph" transform="scale(1 1) rotate(0) translate(4 606)">
<title>/home/runner/work/cbmc&#45;documentation/cbmc&#45;documentation/src/solvers/prop/cover_goals.h</title>
<!-- Node1 -->
<g id="node1" class="node">
<title>Node1</title>
<g id="a_node1"><a xlink:title=" ">
<polygon fill="#bfbfbf" stroke="black" points="0,-560.5 0,-601.5 200,-601.5 200,-560.5 0,-560.5"/>
<text text-anchor="start" x="8" y="-589.5" font-family="Helvetica,sans-Serif" font-size="10.00">/home/runner/work/cbmc</text>
<text text-anchor="start" x="8" y="-578.5" font-family="Helvetica,sans-Serif" font-size="10.00">&#45;documentation/cbmc&#45;documentation</text>
<text text-anchor="middle" x="100" y="-567.5" font-family="Helvetica,sans-Serif" font-size="10.00">/src/solvers/prop/cover_goals.h</text>
</a>
</g>
</g>
<!-- Node2 -->
<g id="node2" class="node">
<title>Node2</title>
<g id="a_node2"><a xlink:title=" ">
<polygon fill="none" stroke="#bfbfbf" points="40,-504.5 40,-523.5 72,-523.5 72,-504.5 40,-504.5"/>
<text text-anchor="middle" x="56" y="-511.5" font-family="Helvetica,sans-Serif" font-size="10.00">list</text>
</a>
</g>
</g>
<!-- Node1&#45;&gt;Node2 -->
<g id="edge1" class="edge">
<title>Node1&#45;&gt;Node2</title>
<path fill="none" stroke="midnightblue" d="M86.8,-560.5C80.7,-551.49 73.52,-540.89 67.63,-532.19"/>
<polygon fill="midnightblue" stroke="midnightblue" points="70.36,-529.97 61.86,-523.65 64.56,-533.9 70.36,-529.97"/>
</g>
<!-- Node3 -->
<g id="node3" class="node">
<title>Node3</title>
<g id="a_node3"><a xlink:href="decision__procedure_8h.html" target="_top" xlink:title=" ">
<polygon fill="none" stroke="black" points="52,-112.5 52,-131.5 210,-131.5 210,-112.5 52,-112.5"/>
<text text-anchor="middle" x="131" y="-119.5" font-family="Helvetica,sans-Serif" font-size="10.00">solvers/decision_procedure.h</text>
</a>
</g>
</g>
<!-- Node1&#45;&gt;Node3 -->
<g id="edge2" class="edge">
<title>Node1&#45;&gt;Node3</title>
<path fill="none" stroke="midnightblue" d="M100,-560.3C100,-536.35 100,-494.71 100,-459 100,-459 100,-459 100,-233 100,-199.41 113.56,-162.14 122.74,-140.75"/>
<polygon fill="midnightblue" stroke="midnightblue" points="125.94,-142.17 126.82,-131.61 119.55,-139.31 125.94,-142.17"/>
</g>
<!-- Node6 -->
<g id="node6" class="node">
<title>Node6</title>
<g id="a_node6"><a xlink:href="expr_8h.html" target="_top" xlink:title=" ">
<polygon fill="none" stroke="black" points="650.5,-504.5 650.5,-523.5 715.5,-523.5 715.5,-504.5 650.5,-504.5"/>
<text text-anchor="middle" x="683" y="-511.5" font-family="Helvetica,sans-Serif" font-size="10.00">util/expr.h</text>
</a>
</g>
</g>
<!-- Node1&#45;&gt;Node6 -->
<g id="edge5" class="edge">
<title>Node1&#45;&gt;Node6</title>
<path fill="none" stroke="midnightblue" d="M200.22,-568.83C329.38,-554.43 548.22,-530.03 640.23,-519.77"/>
<polygon fill="midnightblue" stroke="midnightblue" points="640.74,-523.23 650.29,-518.65 639.97,-516.28 640.74,-523.23"/>
</g>
<!-- Node4 -->
<g id="node4" class="node">
<title>Node4</title>
<g id="a_node4"><a xlink:title=" ">
<polygon fill="none" stroke="#bfbfbf" points="161,-56.5 161,-75.5 209,-75.5 209,-56.5 161,-56.5"/>
<text text-anchor="middle" x="185" y="-63.5" font-family="Helvetica,sans-Serif" font-size="10.00">iosfwd</text>
</a>
</g>
</g>
<!-- Node3&#45;&gt;Node4 -->
<g id="edge3" class="edge">
<title>Node3&#45;&gt;Node4</title>
<path fill="none" stroke="midnightblue" d="M139.92,-112.08C147.78,-104.22 159.43,-92.57 168.92,-83.08"/>
<polygon fill="midnightblue" stroke="midnightblue" points="171.65,-85.3 176.25,-75.75 166.7,-80.35 171.65,-85.3"/>
</g>
<!-- Node5 -->
<g id="node5" class="node">
<title>Node5</title>
<g id="a_node5"><a xlink:title=" ">
<polygon fill="none" stroke="#bfbfbf" points="386,-0.5 386,-19.5 430,-19.5 430,-0.5 386,-0.5"/>
<text text-anchor="middle" x="408" y="-7.5" font-family="Helvetica,sans-Serif" font-size="10.00">string</text>
</a>
</g>
</g>
<!-- Node3&#45;&gt;Node5 -->
<g id="edge4" class="edge">
<title>Node3&#45;&gt;Node5</title>
<path fill="none" stroke="midnightblue" d="M131.12,-112.33C131.81,-98.23 135.36,-70.48 152,-56 184.91,-27.35 314.19,-16.31 375.46,-12.62"/>
<polygon fill="midnightblue" stroke="midnightblue" points="375.94,-16.1 385.72,-12.03 375.54,-9.11 375.94,-16.1"/>
</g>
<!-- Node7 -->
<g id="node7" class="node">
<title>Node7</title>
<g id="a_node7"><a xlink:href="as__const_8h.html" target="_top" xlink:title=" ">
<polygon fill="none" stroke="black" points="686,-112.5 686,-131.5 754,-131.5 754,-112.5 686,-112.5"/>
<text text-anchor="middle" x="720" y="-119.5" font-family="Helvetica,sans-Serif" font-size="10.00">as_const.h</text>
</a>
</g>
</g>
<!-- Node6&#45;&gt;Node7 -->
<g id="edge6" class="edge">
<title>Node6&#45;&gt;Node7</title>
<path fill="none" stroke="midnightblue" d="M715.63,-511.55C773.03,-508.23 888.37,-497.92 913,-468 1006.93,-353.91 806.29,-187.66 740.18,-137.72"/>
<polygon fill="midnightblue" stroke="midnightblue" points="742.23,-134.88 732.12,-131.71 738.04,-140.49 742.23,-134.88"/>
</g>
<!-- Node8 -->
<g id="node8" class="node">
<title>Node8</title>
<g id="a_node8"><a xlink:href="deprecate_8h.html" target="_top" xlink:title=" ">
<polygon fill="none" stroke="black" points="830,-448.5 830,-467.5 904,-467.5 904,-448.5 830,-448.5"/>
<text text-anchor="middle" x="867" y="-455.5" font-family="Helvetica,sans-Serif" font-size="10.00">deprecate.h</text>
</a>
</g>
</g>
<!-- Node6&#45;&gt;Node8 -->
<g id="edge7" class="edge">
<title>Node6&#45;&gt;Node8</title>
<path fill="none" stroke="midnightblue" d="M712.16,-504.44C743.51,-495.24 793.53,-480.56 828.2,-470.39"/>
<polygon fill="midnightblue" stroke="midnightblue" points="829.37,-473.69 837.98,-467.52 827.4,-466.97 829.37,-473.69"/>
</g>
<!-- Node9 -->
<g id="node9" class="node">
<title>Node9</title>
<g id="a_node9"><a xlink:href="type_8h.html" target="_top" xlink:title=" ">
<polygon fill="none" stroke="black" points="496.5,-448.5 496.5,-467.5 543.5,-467.5 543.5,-448.5 496.5,-448.5"/>
<text text-anchor="middle" x="520" y="-455.5" font-family="Helvetica,sans-Serif" font-size="10.00">type.h</text>
</a>
</g>
</g>
<!-- Node6&#45;&gt;Node9 -->
<g id="edge8" class="edge">
<title>Node6&#45;&gt;Node9</title>
<path fill="none" stroke="midnightblue" d="M657.17,-504.44C629.11,-495.15 584.17,-480.26 553.43,-470.07"/>
<polygon fill="midnightblue" stroke="midnightblue" points="554.18,-466.64 543.59,-466.82 551.98,-473.28 554.18,-466.64"/>
</g>
<!-- Node34 -->
<g id="node28" class="node">
<title>Node34</title>
<g id="a_node28"><a xlink:href="validation__mode_8h.html" target="_top" xlink:title=" ">
<polygon fill="none" stroke="black" points="466.5,-336.5 466.5,-355.5 573.5,-355.5 573.5,-336.5 466.5,-336.5"/>
<text text-anchor="middle" x="520" y="-343.5" font-family="Helvetica,sans-Serif" font-size="10.00">validation_mode.h</text>
</a>
</g>
</g>
<!-- Node6&#45;&gt;Node34 -->
<g id="edge45" class="edge">
<title>Node6&#45;&gt;Node34</title>
<path fill="none" stroke="midnightblue" d="M650.12,-510.26C599.93,-505.32 507.9,-493.01 488,-468 463.42,-437.1 489.85,-389.12 507.26,-363.86"/>
<polygon fill="midnightblue" stroke="midnightblue" points="510.16,-365.82 513.16,-355.66 504.48,-361.73 510.16,-365.82"/>
</g>
<!-- Node35 -->
<g id="node29" class="node">
<title>Node35</title>
<g id="a_node29"><a xlink:href="validate__types_8h.html" target="_top" xlink:title=" ">
<polygon fill="none" stroke="black" points="693,-392.5 693,-411.5 791,-411.5 791,-392.5 693,-392.5"/>
<text text-anchor="middle" x="742" y="-399.5" font-family="Helvetica,sans-Serif" font-size="10.00">validate_types.h</text>
</a>
</g>
</g>
<!-- Node6&#45;&gt;Node35 -->
<g id="edge44" class="edge">
<title>Node6&#45;&gt;Node35</title>
<path fill="none" stroke="midnightblue" d="M715.61,-507.8C738.75,-502.22 768.22,-490.86 783,-468 793.94,-451.08 777.7,-431.5 762.55,-418.29"/>
<polygon fill="midnightblue" stroke="midnightblue" points="764.38,-415.27 754.42,-411.66 759.96,-420.69 764.38,-415.27"/>
</g>
<!-- Node36 -->
<g id="node30" class="node">
<title>Node36</title>
<g id="a_node30"><a xlink:href="validate__expressions_8h.html" target="_top" xlink:title=" ">
<polygon fill="none" stroke="black" points="561.5,-448.5 561.5,-467.5 690.5,-467.5 690.5,-448.5 561.5,-448.5"/>
<text text-anchor="middle" x="626" y="-455.5" font-family="Helvetica,sans-Serif" font-size="10.00">validate_expressions.h</text>
</a>
</g>
</g>
<!-- Node6&#45;&gt;Node36 -->
<g id="edge43" class="edge">
<title>Node6&#45;&gt;Node36</title>
<path fill="none" stroke="midnightblue" d="M673.84,-504.32C665.5,-496.42 652.97,-484.55 642.82,-474.94"/>
<polygon fill="midnightblue" stroke="midnightblue" points="644.99,-472.17 635.32,-467.83 640.18,-477.25 644.99,-472.17"/>
</g>
<!-- Node37 -->
<g id="node31" class="node">
<title>Node37</title>
<g id="a_node31"><a xlink:title=" ">
<polygon fill="none" stroke="#bfbfbf" points="708.5,-448.5 708.5,-467.5 773.5,-467.5 773.5,-448.5 708.5,-448.5"/>
<text text-anchor="middle" x="741" y="-455.5" font-family="Helvetica,sans-Serif" font-size="10.00">functional</text>
</a>
</g>
</g>
<!-- Node6&#45;&gt;Node37 -->
<g id="edge46" class="edge">
<title>Node6&#45;&gt;Node37</title>
<path fill="none" stroke="midnightblue" d="M692.32,-504.32C700.89,-496.34 713.81,-484.31 724.19,-474.65"/>
<polygon fill="midnightblue" stroke="midnightblue" points="726.58,-477.21 731.51,-467.83 721.81,-472.09 726.58,-477.21"/>
</g>
<!-- Node10 -->
<g id="node10" class="node">
<title>Node10</title>
<g id="a_node10"><a xlink:href="source__location_8h.html" target="_top" xlink:title=" ">
<polygon fill="none" stroke="black" points="379,-280.5 379,-299.5 481,-299.5 481,-280.5 379,-280.5"/>
<text text-anchor="middle" x="430" y="-287.5" font-family="Helvetica,sans-Serif" font-size="10.00">source_location.h</text>
</a>
</g>
</g>
<!-- Node9&#45;&gt;Node10 -->
<g id="edge9" class="edge">
<title>Node9&#45;&gt;Node10</title>
<path fill="none" stroke="midnightblue" d="M514.09,-448.33C502.51,-431.16 476.38,-391.43 458,-356 449.96,-340.51 442.22,-322.2 436.93,-308.97"/>
<polygon fill="midnightblue" stroke="midnightblue" points="440.16,-307.62 433.24,-299.59 433.64,-310.18 440.16,-307.62"/>
</g>
<!-- Node32 -->
<g id="node26" class="node">
<title>Node32</title>
<g id="a_node26"><a xlink:href="validate_8h.html" target="_top" xlink:title=" ">
<polygon fill="none" stroke="black" points="579.5,-392.5 579.5,-411.5 644.5,-411.5 644.5,-392.5 579.5,-392.5"/>
<text text-anchor="middle" x="612" y="-399.5" font-family="Helvetica,sans-Serif" font-size="10.00">validate.h</text>
</a>
</g>
</g>
<!-- Node9&#45;&gt;Node32 -->
<g id="edge34" class="edge">
<title>Node9&#45;&gt;Node32</title>
<path fill="none" stroke="midnightblue" d="M534.78,-448.32C549.27,-439.82 571.57,-426.73 588.49,-416.8"/>
<polygon fill="midnightblue" stroke="midnightblue" points="590.4,-419.74 597.26,-411.65 586.86,-413.7 590.4,-419.74"/>
</g>
<!-- Node9&#45;&gt;Node34 -->
<g id="edge42" class="edge">
<title>Node9&#45;&gt;Node34</title>
<path fill="none" stroke="midnightblue" d="M520,-448.37C520,-430.62 520,-389.67 520,-365.6"/>
<polygon fill="midnightblue" stroke="midnightblue" points="523.5,-365.59 520,-355.59 516.5,-365.59 523.5,-365.59"/>
</g>
<!-- Node9&#45;&gt;Node35 -->
<g id="edge41" class="edge">
<title>Node9&#45;&gt;Node35</title>
<path fill="none" stroke="midnightblue" d="M543.77,-450.42C546.87,-449.59 550.01,-448.76 553,-448 601.15,-435.71 656.48,-422.66 694.78,-413.8"/>
<polygon fill="midnightblue" stroke="midnightblue" points="695.66,-417.18 704.62,-411.52 694.09,-410.36 695.66,-417.18"/>
</g>
<!-- Node10&#45;&gt;Node5 -->
<g id="edge33" class="edge">
<title>Node10&#45;&gt;Node5</title>
<path fill="none" stroke="midnightblue" d="M413.5,-280.4C376.96,-260.27 289.85,-206.17 257,-132 231.43,-74.26 324.82,-36.08 376.26,-19.86"/>
<polygon fill="midnightblue" stroke="midnightblue" points="377.39,-23.17 385.94,-16.91 375.35,-16.48 377.39,-23.17"/>
</g>
<!-- Node11 -->
<g id="node11" class="node">
<title>Node11</title>
<g id="a_node11"><a xlink:href="irep_8h.html" target="_top" xlink:title=" ">
<polygon fill="none" stroke="black" points="426,-224.5 426,-243.5 470,-243.5 470,-224.5 426,-224.5"/>
<text text-anchor="middle" x="448" y="-231.5" font-family="Helvetica,sans-Serif" font-size="10.00">irep.h</text>
</a>
</g>
</g>
<!-- Node10&#45;&gt;Node11 -->
<g id="edge10" class="edge">
<title>Node10&#45;&gt;Node11</title>
<path fill="none" stroke="midnightblue" d="M432.97,-280.08C435.38,-272.85 438.86,-262.41 441.87,-253.4"/>
<polygon fill="midnightblue" stroke="midnightblue" points="445.24,-254.34 445.08,-243.75 438.6,-252.13 445.24,-254.34"/>
</g>
<!-- Node30 -->
<g id="node24" class="node">
<title>Node30</title>
<g id="a_node24"><a xlink:href="optional_8h.html" target="_top" xlink:title=" ">
<polygon fill="none" stroke="black" points="164.5,-224.5 164.5,-243.5 229.5,-243.5 229.5,-224.5 164.5,-224.5"/>
<text text-anchor="middle" x="197" y="-231.5" font-family="Helvetica,sans-Serif" font-size="10.00">optional.h</text>
</a>
</g>
</g>
<!-- Node10&#45;&gt;Node30 -->
<g id="edge31" class="edge">
<title>Node10&#45;&gt;Node30</title>
<path fill="none" stroke="midnightblue" d="M393.08,-280.44C351.3,-270.76 283.35,-255.01 239.42,-244.83"/>
<polygon fill="midnightblue" stroke="midnightblue" points="240.14,-241.41 229.61,-242.56 238.56,-248.23 240.14,-241.41"/>
</g>
<!-- Node11&#45;&gt;Node5 -->
<g id="edge11" class="edge">
<title>Node11&#45;&gt;Node5</title>
<path fill="none" stroke="midnightblue" d="M446.56,-224.48C443.22,-204.71 434.63,-154.17 427,-112 421.8,-83.25 415.48,-49.95 411.6,-29.69"/>
<polygon fill="midnightblue" stroke="midnightblue" points="414.99,-28.8 409.67,-19.64 408.12,-30.12 414.99,-28.8"/>
</g>
<!-- Node12 -->
<g id="node12" class="node">
<title>Node12</title>
<g id="a_node12"><a xlink:title=" ">
<polygon fill="none" stroke="#bfbfbf" points="450.5,-168.5 450.5,-187.5 497.5,-187.5 497.5,-168.5 450.5,-168.5"/>
<text text-anchor="middle" x="474" y="-175.5" font-family="Helvetica,sans-Serif" font-size="10.00">vector</text>
</a>
</g>
</g>
<!-- Node11&#45;&gt;Node12 -->
<g id="edge12" class="edge">
<title>Node11&#45;&gt;Node12</title>
<path fill="none" stroke="midnightblue" d="M452.29,-224.08C455.85,-216.69 461.02,-205.95 465.42,-196.81"/>
<polygon fill="midnightblue" stroke="midnightblue" points="468.6,-198.28 469.79,-187.75 462.29,-195.24 468.6,-198.28"/>
</g>
<!-- Node13 -->
<g id="node13" class="node">
<title>Node13</title>
<g id="a_node13"><a xlink:href="src_2util_2invariant_8h.html" target="_top" xlink:title=" ">
<polygon fill="none" stroke="black" points="789.5,-56.5 789.5,-75.5 858.5,-75.5 858.5,-56.5 789.5,-56.5"/>
<text text-anchor="middle" x="824" y="-63.5" font-family="Helvetica,sans-Serif" font-size="10.00">invariant.h</text>
</a>
</g>
</g>
<!-- Node11&#45;&gt;Node13 -->
<g id="edge13" class="edge">
<title>Node11&#45;&gt;Node13</title>
<path fill="none" stroke="midnightblue" d="M466.98,-224.4C480.89,-216.95 498.71,-204.74 507,-188 522,-157.69 480.8,-137.52 503,-112 538.25,-71.46 699.47,-66.36 779.16,-66.39"/>
<polygon fill="midnightblue" stroke="midnightblue" points="779.37,-69.89 789.38,-66.42 779.39,-62.89 779.37,-69.89"/>
</g>
<!-- Node17 -->
<g id="node17" class="node">
<title>Node17</title>
<g id="a_node17"><a xlink:href="irep__ids_8h.html" target="_top" xlink:title=" ">
<polygon fill="none" stroke="black" points="330,-168.5 330,-187.5 394,-187.5 394,-168.5 330,-168.5"/>
<text text-anchor="middle" x="362" y="-175.5" font-family="Helvetica,sans-Serif" font-size="10.00">irep_ids.h</text>
</a>
</g>
</g>
<!-- Node11&#45;&gt;Node17 -->
<g id="edge18" class="edge">
<title>Node11&#45;&gt;Node17</title>
<path fill="none" stroke="midnightblue" d="M434.18,-224.32C420.77,-215.9 400.18,-202.97 384.41,-193.07"/>
<polygon fill="midnightblue" stroke="midnightblue" points="386.11,-190.01 375.78,-187.65 382.39,-195.94 386.11,-190.01"/>
</g>
<!-- Node26 -->
<g id="node20" class="node">
<title>Node26</title>
<g id="a_node20"><a xlink:href="forward__list__as__map_8h.html" target="_top" xlink:title=" ">
<polygon fill="none" stroke="black" points="572.5,-168.5 572.5,-187.5 699.5,-187.5 699.5,-168.5 572.5,-168.5"/>
<text text-anchor="middle" x="636" y="-175.5" font-family="Helvetica,sans-Serif" font-size="10.00">forward_list_as_map.h</text>
</a>
</g>
</g>
<!-- Node11&#45;&gt;Node26 -->
<g id="edge24" class="edge">
<title>Node11&#45;&gt;Node26</title>
<path fill="none" stroke="midnightblue" d="M470.3,-226.59C501.38,-217.67 558.18,-201.35 596.51,-190.34"/>
<polygon fill="midnightblue" stroke="midnightblue" points="597.66,-193.65 606.31,-187.53 595.73,-186.93 597.66,-193.65"/>
</g>
<!-- Node13&#45;&gt;Node5 -->
<g id="edge16" class="edge">
<title>Node13&#45;&gt;Node5</title>
<path fill="none" stroke="midnightblue" d="M789.24,-58.35C784.47,-57.52 779.62,-56.71 775,-56 652.03,-37.19 504.93,-21.07 440.7,-14.35"/>
<polygon fill="midnightblue" stroke="midnightblue" points="440.71,-10.83 430.41,-13.28 439.99,-17.79 440.71,-10.83"/>
</g>
<!-- Node14 -->
<g id="node14" class="node">
<title>Node14</title>
<g id="a_node14"><a xlink:title=" ">
<polygon fill="none" stroke="#bfbfbf" points="728.5,-0.5 728.5,-19.5 777.5,-19.5 777.5,-0.5 728.5,-0.5"/>
<text text-anchor="middle" x="753" y="-7.5" font-family="Helvetica,sans-Serif" font-size="10.00">cstdlib</text>
</a>
</g>
</g>
<!-- Node13&#45;&gt;Node14 -->
<g id="edge14" class="edge">
<title>Node13&#45;&gt;Node14</title>
<path fill="none" stroke="midnightblue" d="M812.59,-56.32C801.89,-48.18 785.66,-35.84 772.84,-26.09"/>
<polygon fill="midnightblue" stroke="midnightblue" points="774.69,-23.1 764.61,-19.83 770.46,-28.67 774.69,-23.1"/>
</g>
<!-- Node15 -->
<g id="node15" class="node">
<title>Node15</title>
<g id="a_node15"><a xlink:title=" ">
<polygon fill="none" stroke="#bfbfbf" points="796,-0.5 796,-19.5 852,-19.5 852,-0.5 796,-0.5"/>
<text text-anchor="middle" x="824" y="-7.5" font-family="Helvetica,sans-Serif" font-size="10.00">sstream</text>
</a>
</g>
</g>
<!-- Node13&#45;&gt;Node15 -->
<g id="edge15" class="edge">
<title>Node13&#45;&gt;Node15</title>
<path fill="none" stroke="midnightblue" d="M824,-56.08C824,-49.01 824,-38.86 824,-29.99"/>
<polygon fill="midnightblue" stroke="midnightblue" points="827.5,-29.75 824,-19.75 820.5,-29.75 827.5,-29.75"/>
</g>
<!-- Node16 -->
<g id="node16" class="node">
<title>Node16</title>
<g id="a_node16"><a xlink:title=" ">
<polygon fill="none" stroke="#bfbfbf" points="870.5,-0.5 870.5,-19.5 939.5,-19.5 939.5,-0.5 870.5,-0.5"/>
<text text-anchor="middle" x="905" y="-7.5" font-family="Helvetica,sans-Serif" font-size="10.00">type_traits</text>
</a>
</g>
</g>
<!-- Node13&#45;&gt;Node16 -->
<g id="edge17" class="edge">
<title>Node13&#45;&gt;Node16</title>
<path fill="none" stroke="midnightblue" d="M837.01,-56.32C849.53,-47.98 868.68,-35.21 883.47,-25.35"/>
<polygon fill="midnightblue" stroke="midnightblue" points="885.64,-28.11 892.02,-19.65 881.76,-22.29 885.64,-28.11"/>
</g>
<!-- Node18 -->
<g id="node18" class="node">
<title>Node18</title>
<g id="a_node18"><a xlink:href="dstring_8h.html" target="_top" xlink:title=" ">
<polygon fill="none" stroke="red" points="266.5,-112.5 266.5,-131.5 325.5,-131.5 325.5,-112.5 266.5,-112.5"/>
<text text-anchor="middle" x="296" y="-119.5" font-family="Helvetica,sans-Serif" font-size="10.00">dstring.h</text>
</a>
</g>
</g>
<!-- Node17&#45;&gt;Node18 -->
<g id="edge19" class="edge">
<title>Node17&#45;&gt;Node18</title>
<path fill="none" stroke="midnightblue" d="M351.4,-168.32C341.54,-160.26 326.65,-148.08 314.78,-138.37"/>
<polygon fill="midnightblue" stroke="midnightblue" points="316.75,-135.46 306.8,-131.83 312.32,-140.88 316.75,-135.46"/>
</g>
<!-- Node25 -->
<g id="node19" class="node">
<title>Node25</title>
<g id="a_node19"><a xlink:title=" ">
<polygon fill="none" stroke="#bfbfbf" points="344,-112.5 344,-131.5 418,-131.5 418,-112.5 344,-112.5"/>
<text text-anchor="middle" x="381" y="-119.5" font-family="Helvetica,sans-Serif" font-size="10.00">irep_ids.def</text>
</a>
</g>
</g>
<!-- Node17&#45;&gt;Node25 -->
<g id="edge23" class="edge">
<title>Node17&#45;&gt;Node25</title>
<path fill="none" stroke="midnightblue" d="M365.14,-168.08C367.68,-160.85 371.36,-150.41 374.53,-141.4"/>
<polygon fill="midnightblue" stroke="midnightblue" points="377.9,-142.35 377.92,-131.75 371.3,-140.02 377.9,-142.35"/>
</g>
<!-- Node18&#45;&gt;Node4 -->
<g id="edge20" class="edge">
<title>Node18&#45;&gt;Node4</title>
<path fill="none" stroke="midnightblue" d="M278.17,-112.32C260.28,-103.62 232.52,-90.12 211.95,-80.11"/>
<polygon fill="midnightblue" stroke="midnightblue" points="213.31,-76.88 202.79,-75.65 210.25,-83.18 213.31,-76.88"/>
</g>
<!-- Node18&#45;&gt;Node5 -->
<g id="edge21" class="edge">
<title>Node18&#45;&gt;Node5</title>
<path fill="none" stroke="midnightblue" d="M304.79,-112.37C323.6,-93.89 367.99,-50.29 391.97,-26.74"/>
<polygon fill="midnightblue" stroke="midnightblue" points="394.57,-29.1 399.25,-19.59 389.67,-24.1 394.57,-29.1"/>
</g>
<!-- Node18&#45;&gt;Node13 -->
<g id="edge22" class="edge">
<title>Node18&#45;&gt;Node13</title>
<path fill="none" stroke="midnightblue" d="M325.73,-113.7C328.85,-113.07 331.98,-112.48 335,-112 497.42,-85.91 692.8,-73.58 779.18,-69.1"/>
<polygon fill="midnightblue" stroke="midnightblue" points="779.6,-72.58 789.41,-68.58 779.25,-65.59 779.6,-72.58"/>
</g>
<!-- Node26&#45;&gt;Node7 -->
<g id="edge27" class="edge">
<title>Node26&#45;&gt;Node7</title>
<path fill="none" stroke="midnightblue" d="M649.5,-168.32C662.6,-159.9 682.71,-146.97 698.11,-137.07"/>
<polygon fill="midnightblue" stroke="midnightblue" points="700.02,-140.01 706.54,-131.65 696.23,-134.12 700.02,-140.01"/>
</g>
<!-- Node27 -->
<g id="node21" class="node">
<title>Node27</title>
<g id="a_node21"><a xlink:title=" ">
<polygon fill="none" stroke="#bfbfbf" points="604,-112.5 604,-131.5 668,-131.5 668,-112.5 604,-112.5"/>
<text text-anchor="middle" x="636" y="-119.5" font-family="Helvetica,sans-Serif" font-size="10.00">algorithm</text>
</a>
</g>
</g>
<!-- Node26&#45;&gt;Node27 -->
<g id="edge25" class="edge">
<title>Node26&#45;&gt;Node27</title>
<path fill="none" stroke="midnightblue" d="M636,-168.08C636,-161.01 636,-150.86 636,-141.99"/>
<polygon fill="midnightblue" stroke="midnightblue" points="639.5,-141.75 636,-131.75 632.5,-141.75 639.5,-141.75"/>
</g>
<!-- Node28 -->
<g id="node22" class="node">
<title>Node28</title>
<g id="a_node22"><a xlink:title=" ">
<polygon fill="none" stroke="#bfbfbf" points="512,-112.5 512,-131.5 586,-131.5 586,-112.5 512,-112.5"/>
<text text-anchor="middle" x="549" y="-119.5" font-family="Helvetica,sans-Serif" font-size="10.00">forward_list</text>
</a>
</g>
</g>
<!-- Node26&#45;&gt;Node28 -->
<g id="edge26" class="edge">
<title>Node26&#45;&gt;Node28</title>
<path fill="none" stroke="midnightblue" d="M622.02,-168.32C608.45,-159.9 587.62,-146.97 571.68,-137.07"/>
<polygon fill="midnightblue" stroke="midnightblue" points="573.29,-133.95 562.94,-131.65 569.59,-139.9 573.29,-133.95"/>
</g>
<!-- Node29 -->
<g id="node23" class="node">
<title>Node29</title>
<g id="a_node23"><a xlink:href="narrow_8h.html" target="_top" xlink:title=" ">
<polygon fill="none" stroke="black" points="848.5,-112.5 848.5,-131.5 907.5,-131.5 907.5,-112.5 848.5,-112.5"/>
<text text-anchor="middle" x="878" y="-119.5" font-family="Helvetica,sans-Serif" font-size="10.00">narrow.h</text>
</a>
</g>
</g>
<!-- Node26&#45;&gt;Node29 -->
<g id="edge28" class="edge">
<title>Node26&#45;&gt;Node29</title>
<path fill="none" stroke="midnightblue" d="M674.35,-168.44C719.2,-158.43 793.08,-141.95 838.45,-131.83"/>
<polygon fill="midnightblue" stroke="midnightblue" points="839.23,-135.24 848.23,-129.64 837.7,-128.41 839.23,-135.24"/>
</g>
<!-- Node29&#45;&gt;Node13 -->
<g id="edge30" class="edge">
<title>Node29&#45;&gt;Node13</title>
<path fill="none" stroke="midnightblue" d="M869.08,-112.08C861.22,-104.22 849.57,-92.57 840.08,-83.08"/>
<polygon fill="midnightblue" stroke="midnightblue" points="842.3,-80.35 832.75,-75.75 837.35,-85.3 842.3,-80.35"/>
</g>
<!-- Node29&#45;&gt;Node16 -->
<g id="edge29" class="edge">
<title>Node29&#45;&gt;Node16</title>
<path fill="none" stroke="midnightblue" d="M880.12,-112.37C884.48,-94.62 894.53,-53.67 900.44,-29.6"/>
<polygon fill="midnightblue" stroke="midnightblue" points="903.91,-30.14 902.89,-19.59 897.11,-28.47 903.91,-30.14"/>
</g>
<!-- Node31 -->
<g id="node25" class="node">
<title>Node31</title>
<g id="a_node25"><a xlink:title=" ">
<polygon fill="none" stroke="#bfbfbf" points="128.5,-168.5 128.5,-187.5 241.5,-187.5 241.5,-168.5 128.5,-168.5"/>
<text text-anchor="middle" x="185" y="-175.5" font-family="Helvetica,sans-Serif" font-size="10.00">nonstd/optional.hpp</text>
</a>
</g>
</g>
<!-- Node30&#45;&gt;Node31 -->
<g id="edge32" class="edge">
<title>Node30&#45;&gt;Node31</title>
<path fill="none" stroke="midnightblue" d="M195.02,-224.08C193.43,-216.93 191.14,-206.64 189.15,-197.69"/>
<polygon fill="midnightblue" stroke="midnightblue" points="192.53,-196.75 186.94,-187.75 185.7,-198.27 192.53,-196.75"/>
</g>
<!-- Node32&#45;&gt;Node16 -->
<g id="edge35" class="edge">
<title>Node32&#45;&gt;Node16</title>
<path fill="none" stroke="midnightblue" d="M644.83,-395.74C689.29,-388.1 765.64,-372.97 788,-356 879.51,-286.54 887.33,-242.99 917,-132 926.46,-96.61 917.58,-53.61 910.88,-29.57"/>
<polygon fill="midnightblue" stroke="midnightblue" points="914.15,-28.27 907.94,-19.68 907.44,-30.26 914.15,-28.27"/>
</g>
<!-- Node33 -->
<g id="node27" class="node">
<title>Node33</title>
<g id="a_node27"><a xlink:href="exception__utils_8h.html" target="_top" xlink:title=" ">
<polygon fill="none" stroke="black" points="679,-336.5 679,-355.5 779,-355.5 779,-336.5 679,-336.5"/>
<text text-anchor="middle" x="729" y="-343.5" font-family="Helvetica,sans-Serif" font-size="10.00">exception_utils.h</text>
</a>
</g>
</g>
<!-- Node32&#45;&gt;Node33 -->
<g id="edge36" class="edge">
<title>Node32&#45;&gt;Node33</title>
<path fill="none" stroke="midnightblue" d="M630.54,-392.44C649.62,-383.64 679.57,-369.81 701.44,-359.72"/>
<polygon fill="midnightblue" stroke="midnightblue" points="702.93,-362.88 710.55,-355.52 700,-356.53 702.93,-362.88"/>
</g>
<!-- Node32&#45;&gt;Node34 -->
<g id="edge40" class="edge">
<title>Node32&#45;&gt;Node34</title>
<path fill="none" stroke="midnightblue" d="M597.22,-392.32C582.73,-383.82 560.43,-370.73 543.51,-360.8"/>
<polygon fill="midnightblue" stroke="midnightblue" points="545.14,-357.7 534.74,-355.65 541.6,-363.74 545.14,-357.7"/>
</g>
<!-- Node33&#45;&gt;Node5 -->
<g id="edge37" class="edge">
<title>Node33&#45;&gt;Node5</title>
<path fill="none" stroke="midnightblue" d="M736.59,-336.28C751.25,-318.52 782,-276.34 782,-235 782,-235 782,-235 782,-177 782,-146.9 784.36,-133.21 763,-112 673,-22.65 509.98,-11.09 440.64,-10.44"/>
<polygon fill="midnightblue" stroke="midnightblue" points="440.34,-6.94 430.34,-10.42 440.33,-13.94 440.34,-6.94"/>
</g>
<!-- Node33&#45;&gt;Node10 -->
<g id="edge39" class="edge">
<title>Node33&#45;&gt;Node10</title>
<path fill="none" stroke="midnightblue" d="M681.62,-336.44C628.92,-326.92 543.77,-311.55 487.34,-301.36"/>
<polygon fill="midnightblue" stroke="midnightblue" points="487.62,-297.85 477.16,-299.52 486.37,-304.74 487.62,-297.85"/>
</g>
<!-- Node33&#45;&gt;Node13 -->
<g id="edge38" class="edge">
<title>Node33&#45;&gt;Node13</title>
<path fill="none" stroke="midnightblue" d="M750.52,-336.43C765.86,-329.13 785.54,-317.09 796,-300 838.49,-230.62 831.73,-127.7 826.7,-85.79"/>
<polygon fill="midnightblue" stroke="midnightblue" points="830.17,-85.33 825.4,-75.87 823.23,-86.24 830.17,-85.33"/>
</g>
</g>
</svg>
