<?xml version="1.0" encoding="UTF-8" standalone="no"?>
<!DOCTYPE svg PUBLIC "-//W3C//DTD SVG 1.1//EN"
 "http://www.w3.org/Graphics/SVG/1.1/DTD/svg11.dtd">
<!-- Generated by graphviz version 2.43.0 (0)
 -->
<!-- Title: /home/runner/work/cbmc&#45;documentation/cbmc&#45;documentation/src/cpp/cpp_using.h Pages: 1 -->
<svg width="7733pt" height="373pt"
 viewBox="0.00 0.00 7733.00 373.00" xmlns="http://www.w3.org/2000/svg" xmlns:xlink="http://www.w3.org/1999/xlink">
<g id="graph0" class="graph" transform="scale(1 1) rotate(0) translate(4 369)">
<title>/home/runner/work/cbmc&#45;documentation/cbmc&#45;documentation/src/cpp/cpp_using.h</title>
<!-- Node1 -->
<g id="node1" class="node">
<title>Node1</title>
<g id="a_node1"><a xlink:title=" ">
<polygon fill="#bfbfbf" stroke="black" points="6544,-323.5 6544,-364.5 6744,-364.5 6744,-323.5 6544,-323.5"/>
<text text-anchor="start" x="6552" y="-352.5" font-family="Helvetica,sans-Serif" font-size="10.00">/home/runner/work/cbmc</text>
<text text-anchor="start" x="6552" y="-341.5" font-family="Helvetica,sans-Serif" font-size="10.00">&#45;documentation/cbmc&#45;documentation</text>
<text text-anchor="middle" x="6644" y="-330.5" font-family="Helvetica,sans-Serif" font-size="10.00">/src/cpp/cpp_using.h</text>
</a>
</g>
</g>
<!-- Node2 -->
<g id="node2" class="node">
<title>Node2</title>
<g id="a_node2"><a xlink:href="cpp__item_8h.html" target="_top" xlink:title=" ">
<polygon fill="none" stroke="black" points="6544,-245.5 6544,-286.5 6744,-286.5 6744,-245.5 6544,-245.5"/>
<text text-anchor="start" x="6552" y="-274.5" font-family="Helvetica,sans-Serif" font-size="10.00">/home/runner/work/cbmc</text>
<text text-anchor="start" x="6552" y="-263.5" font-family="Helvetica,sans-Serif" font-size="10.00">&#45;documentation/cbmc&#45;documentation</text>
<text text-anchor="middle" x="6644" y="-252.5" font-family="Helvetica,sans-Serif" font-size="10.00">/src/cpp/cpp_item.h</text>
</a>
</g>
</g>
<!-- Node1&#45;&gt;Node2 -->
<g id="edge1" class="edge">
<title>Node1&#45;&gt;Node2</title>
<path fill="none" stroke="midnightblue" d="M6644,-313.3C6644,-304.3 6644,-294.65 6644,-286.51"/>
<polygon fill="midnightblue" stroke="midnightblue" points="6640.5,-313.43 6644,-323.43 6647.5,-313.43 6640.5,-313.43"/>
</g>
<!-- Node3 -->
<g id="node3" class="node">
<title>Node3</title>
<g id="a_node3"><a xlink:href="cpp__parse__tree_8h.html" target="_top" xlink:title=" ">
<polygon fill="none" stroke="black" points="6544,-167.5 6544,-208.5 6744,-208.5 6744,-167.5 6544,-167.5"/>
<text text-anchor="start" x="6552" y="-196.5" font-family="Helvetica,sans-Serif" font-size="10.00">/home/runner/work/cbmc</text>
<text text-anchor="start" x="6552" y="-185.5" font-family="Helvetica,sans-Serif" font-size="10.00">&#45;documentation/cbmc&#45;documentation</text>
<text text-anchor="middle" x="6644" y="-174.5" font-family="Helvetica,sans-Serif" font-size="10.00">/src/cpp/cpp_parse_tree.h</text>
</a>
</g>
</g>
<!-- Node2&#45;&gt;Node3 -->
<g id="edge2" class="edge">
<title>Node2&#45;&gt;Node3</title>
<path fill="none" stroke="midnightblue" d="M6644,-235.3C6644,-226.3 6644,-216.65 6644,-208.51"/>
<polygon fill="midnightblue" stroke="midnightblue" points="6640.5,-235.43 6644,-245.43 6647.5,-235.43 6640.5,-235.43"/>
</g>
<!-- Node4 -->
<g id="node4" class="node">
<title>Node4</title>
<g id="a_node4"><a xlink:href="cpp__language_8h.html" target="_top" xlink:title=" ">
<polygon fill="none" stroke="black" points="6762,-89.5 6762,-130.5 6962,-130.5 6962,-89.5 6762,-89.5"/>
<text text-anchor="start" x="6770" y="-118.5" font-family="Helvetica,sans-Serif" font-size="10.00">/home/runner/work/cbmc</text>
<text text-anchor="start" x="6770" y="-107.5" font-family="Helvetica,sans-Serif" font-size="10.00">&#45;documentation/cbmc&#45;documentation</text>
<text text-anchor="middle" x="6862" y="-96.5" font-family="Helvetica,sans-Serif" font-size="10.00">/src/cpp/cpp_language.h</text>
</a>
</g>
</g>
<!-- Node3&#45;&gt;Node4 -->
<g id="edge3" class="edge">
<title>Node3&#45;&gt;Node4</title>
<path fill="none" stroke="midnightblue" d="M6709.9,-164.03C6740.59,-153.33 6776.71,-140.73 6806.05,-130.51"/>
<polygon fill="midnightblue" stroke="midnightblue" points="6708.43,-160.83 6700.14,-167.43 6710.74,-167.44 6708.43,-160.83"/>
</g>
<!-- Node11 -->
<g id="node11" class="node">
<title>Node11</title>
<g id="a_node11"><a xlink:href="cpp__typecheck_8h.html" target="_top" xlink:title=" ">
<polygon fill="none" stroke="black" points="3116,-89.5 3116,-130.5 3316,-130.5 3316,-89.5 3116,-89.5"/>
<text text-anchor="start" x="3124" y="-118.5" font-family="Helvetica,sans-Serif" font-size="10.00">/home/runner/work/cbmc</text>
<text text-anchor="start" x="3124" y="-107.5" font-family="Helvetica,sans-Serif" font-size="10.00">&#45;documentation/cbmc&#45;documentation</text>
<text text-anchor="middle" x="3216" y="-96.5" font-family="Helvetica,sans-Serif" font-size="10.00">/src/cpp/cpp_typecheck.h</text>
</a>
</g>
</g>
<!-- Node3&#45;&gt;Node11 -->
<g id="edge10" class="edge">
<title>Node3&#45;&gt;Node11</title>
<path fill="none" stroke="midnightblue" d="M6533.6,-184.55C6013.71,-173.03 3814.07,-124.26 3316.38,-113.23"/>
<polygon fill="midnightblue" stroke="midnightblue" points="6533.65,-188.05 6543.72,-184.78 6533.8,-181.06 6533.65,-188.05"/>
</g>
<!-- Node39 -->
<g id="node39" class="node">
<title>Node39</title>
<g id="a_node39"><a xlink:href="cpp__parser_8h.html" target="_top" xlink:title=" ">
<polygon fill="none" stroke="black" points="6326,-89.5 6326,-130.5 6526,-130.5 6526,-89.5 6326,-89.5"/>
<text text-anchor="start" x="6334" y="-118.5" font-family="Helvetica,sans-Serif" font-size="10.00">/home/runner/work/cbmc</text>
<text text-anchor="start" x="6334" y="-107.5" font-family="Helvetica,sans-Serif" font-size="10.00">&#45;documentation/cbmc&#45;documentation</text>
<text text-anchor="middle" x="6426" y="-96.5" font-family="Helvetica,sans-Serif" font-size="10.00">/src/cpp/cpp_parser.h</text>
</a>
</g>
</g>
<!-- Node3&#45;&gt;Node39 -->
<g id="edge39" class="edge">
<title>Node3&#45;&gt;Node39</title>
<path fill="none" stroke="midnightblue" d="M6578.1,-164.03C6547.41,-153.33 6511.29,-140.73 6481.95,-130.51"/>
<polygon fill="midnightblue" stroke="midnightblue" points="6577.26,-167.44 6587.86,-167.43 6579.57,-160.83 6577.26,-167.44"/>
</g>
<!-- Node42 -->
<g id="node42" class="node">
<title>Node42</title>
<g id="a_node42"><a xlink:href="cpp__parse__tree_8cpp.html" target="_top" xlink:title=" ">
<polygon fill="none" stroke="black" points="6980,-89.5 6980,-130.5 7180,-130.5 7180,-89.5 6980,-89.5"/>
<text text-anchor="start" x="6988" y="-118.5" font-family="Helvetica,sans-Serif" font-size="10.00">/home/runner/work/cbmc</text>
<text text-anchor="start" x="6988" y="-107.5" font-family="Helvetica,sans-Serif" font-size="10.00">&#45;documentation/cbmc&#45;documentation</text>
<text text-anchor="middle" x="7080" y="-96.5" font-family="Helvetica,sans-Serif" font-size="10.00">/src/cpp/cpp_parse_tree.cpp</text>
</a>
</g>
</g>
<!-- Node3&#45;&gt;Node42 -->
<g id="edge43" class="edge">
<title>Node3&#45;&gt;Node42</title>
<path fill="none" stroke="midnightblue" d="M6754.26,-168.45C6817.69,-157.7 6898.86,-143.79 6971,-131 6973.94,-130.48 6976.92,-129.95 6979.92,-129.41"/>
<polygon fill="midnightblue" stroke="midnightblue" points="6753.51,-165.03 6744.23,-170.15 6754.68,-171.93 6753.51,-165.03"/>
</g>
<!-- Node5 -->
<g id="node5" class="node">
<title>Node5</title>
<g id="a_node5"><a xlink:href="cbmc__languages_8cpp.html" target="_top" xlink:title=" ">
<polygon fill="none" stroke="black" points="6653,-6 6653,-47 6853,-47 6853,-6 6653,-6"/>
<text text-anchor="start" x="6661" y="-35" font-family="Helvetica,sans-Serif" font-size="10.00">/home/runner/work/cbmc</text>
<text text-anchor="start" x="6661" y="-24" font-family="Helvetica,sans-Serif" font-size="10.00">&#45;documentation/cbmc&#45;documentation</text>
<text text-anchor="middle" x="6753" y="-13" font-family="Helvetica,sans-Serif" font-size="10.00">/src/cbmc/cbmc_languages.cpp</text>
</a>
</g>
</g>
<!-- Node4&#45;&gt;Node5 -->
<g id="edge4" class="edge">
<title>Node4&#45;&gt;Node5</title>
<path fill="none" stroke="midnightblue" d="M6827.52,-83.22C6811.91,-71.55 6793.76,-57.97 6779.27,-47.14"/>
<polygon fill="midnightblue" stroke="midnightblue" points="6825.79,-86.29 6835.89,-89.48 6829.98,-80.69 6825.79,-86.29"/>
</g>
<!-- Node6 -->
<g id="node6" class="node">
<title>Node6</title>
<g id="a_node6"><a xlink:href="cpp__language_8cpp.html" target="_top" xlink:title=" ">
<polygon fill="none" stroke="black" points="5999,-6 5999,-47 6199,-47 6199,-6 5999,-6"/>
<text text-anchor="start" x="6007" y="-35" font-family="Helvetica,sans-Serif" font-size="10.00">/home/runner/work/cbmc</text>
<text text-anchor="start" x="6007" y="-24" font-family="Helvetica,sans-Serif" font-size="10.00">&#45;documentation/cbmc&#45;documentation</text>
<text text-anchor="middle" x="6099" y="-13" font-family="Helvetica,sans-Serif" font-size="10.00">/src/cpp/cpp_language.cpp</text>
</a>
</g>
</g>
<!-- Node4&#45;&gt;Node6 -->
<g id="edge5" class="edge">
<title>Node4&#45;&gt;Node6</title>
<path fill="none" stroke="midnightblue" d="M6751.5,-101.48C6593.15,-90.37 6309.59,-69.15 6208,-53 6197.73,-51.37 6186.99,-49.3 6176.43,-47.06"/>
<polygon fill="midnightblue" stroke="midnightblue" points="6751.52,-104.99 6761.74,-102.2 6752.01,-98.01 6751.52,-104.99"/>
</g>
<!-- Node7 -->
<g id="node7" class="node">
<title>Node7</title>
<g id="a_node7"><a xlink:href="goto__analyzer__languages_8cpp.html" target="_top" xlink:title=" ">
<polygon fill="none" stroke="black" points="6871,-0.5 6871,-52.5 7071,-52.5 7071,-0.5 6871,-0.5"/>
<text text-anchor="start" x="6879" y="-40.5" font-family="Helvetica,sans-Serif" font-size="10.00">/home/runner/work/cbmc</text>
<text text-anchor="start" x="6879" y="-29.5" font-family="Helvetica,sans-Serif" font-size="10.00">&#45;documentation/cbmc&#45;documentation</text>
<text text-anchor="start" x="6879" y="-18.5" font-family="Helvetica,sans-Serif" font-size="10.00">/src/goto&#45;analyzer/goto_analyzer</text>
<text text-anchor="middle" x="6971" y="-7.5" font-family="Helvetica,sans-Serif" font-size="10.00">_languages.cpp</text>
</a>
</g>
</g>
<!-- Node4&#45;&gt;Node7 -->
<g id="edge6" class="edge">
<title>Node4&#45;&gt;Node7</title>
<path fill="none" stroke="midnightblue" d="M6896.39,-83.29C6909.43,-73.53 6924.27,-62.44 6937.26,-52.73"/>
<polygon fill="midnightblue" stroke="midnightblue" points="6894.02,-80.69 6888.11,-89.48 6898.21,-86.29 6894.02,-80.69"/>
</g>
<!-- Node8 -->
<g id="node8" class="node">
<title>Node8</title>
<g id="a_node8"><a xlink:href="goto__cc__languages_8cpp.html" target="_top" xlink:title=" ">
<polygon fill="none" stroke="black" points="7089,-6 7089,-47 7289,-47 7289,-6 7089,-6"/>
<text text-anchor="start" x="7097" y="-35" font-family="Helvetica,sans-Serif" font-size="10.00">/home/runner/work/cbmc</text>
<text text-anchor="start" x="7097" y="-24" font-family="Helvetica,sans-Serif" font-size="10.00">&#45;documentation/cbmc&#45;documentation</text>
<text text-anchor="middle" x="7189" y="-13" font-family="Helvetica,sans-Serif" font-size="10.00">/src/goto&#45;cc/goto_cc_languages.cpp</text>
</a>
</g>
</g>
<!-- Node4&#45;&gt;Node8 -->
<g id="edge7" class="edge">
<title>Node4&#45;&gt;Node8</title>
<path fill="none" stroke="midnightblue" d="M6950.17,-87.02C7000.25,-74.54 7062.4,-59.05 7110.75,-47"/>
<polygon fill="midnightblue" stroke="midnightblue" points="6949.18,-83.66 6940.32,-89.48 6950.87,-90.46 6949.18,-83.66"/>
</g>
<!-- Node9 -->
<g id="node9" class="node">
<title>Node9</title>
<g id="a_node9"><a xlink:href="goto__diff__languages_8cpp.html" target="_top" xlink:title=" ">
<polygon fill="none" stroke="black" points="7307,-6 7307,-47 7507,-47 7507,-6 7307,-6"/>
<text text-anchor="start" x="7315" y="-35" font-family="Helvetica,sans-Serif" font-size="10.00">/home/runner/work/cbmc</text>
<text text-anchor="start" x="7315" y="-24" font-family="Helvetica,sans-Serif" font-size="10.00">&#45;documentation/cbmc&#45;documentation</text>
<text text-anchor="middle" x="7407" y="-13" font-family="Helvetica,sans-Serif" font-size="10.00">/src/goto&#45;diff/goto_diff_languages.cpp</text>
</a>
</g>
</g>
<!-- Node4&#45;&gt;Node9 -->
<g id="edge8" class="edge">
<title>Node4&#45;&gt;Node9</title>
<path fill="none" stroke="midnightblue" d="M6972.22,-88.88C7117.44,-68.22 7157.13,-77.14 7298,-53 7307.96,-51.29 7318.37,-49.23 7328.64,-47.02"/>
<polygon fill="midnightblue" stroke="midnightblue" points="6971.43,-85.46 6962.04,-90.36 6972.44,-92.39 6971.43,-85.46"/>
</g>
<!-- Node10 -->
<g id="node10" class="node">
<title>Node10</title>
<g id="a_node10"><a xlink:href="goto__instrument__languages_8cpp.html" target="_top" xlink:title=" ">
<polygon fill="none" stroke="black" points="7525,-0.5 7525,-52.5 7725,-52.5 7725,-0.5 7525,-0.5"/>
<text text-anchor="start" x="7533" y="-40.5" font-family="Helvetica,sans-Serif" font-size="10.00">/home/runner/work/cbmc</text>
<text text-anchor="start" x="7533" y="-29.5" font-family="Helvetica,sans-Serif" font-size="10.00">&#45;documentation/cbmc&#45;documentation</text>
<text text-anchor="start" x="7533" y="-18.5" font-family="Helvetica,sans-Serif" font-size="10.00">/src/goto&#45;instrument/goto_instrument</text>
<text text-anchor="middle" x="7625" y="-7.5" font-family="Helvetica,sans-Serif" font-size="10.00">_languages.cpp</text>
</a>
</g>
</g>
<!-- Node4&#45;&gt;Node10 -->
<g id="edge9" class="edge">
<title>Node4&#45;&gt;Node10</title>
<path fill="none" stroke="midnightblue" d="M6972.16,-88.94C7213.68,-59.85 7279.18,-88.28 7516,-53 7518.88,-52.57 7521.8,-52.1 7524.74,-51.61"/>
<polygon fill="midnightblue" stroke="midnightblue" points="6971.51,-85.49 6962.01,-90.19 6972.37,-92.44 6971.51,-85.49"/>
</g>
<!-- Node11&#45;&gt;Node6 -->
<g id="edge16" class="edge">
<title>Node11&#45;&gt;Node6</title>
<path fill="none" stroke="midnightblue" d="M3326.47,-108.14C3809.42,-104.19 5723.06,-86.54 5990,-53 6001.38,-51.57 6013.3,-49.45 6024.91,-47.02"/>
<polygon fill="midnightblue" stroke="midnightblue" points="3326.32,-104.64 3316.35,-108.22 3326.38,-111.64 3326.32,-104.64"/>
</g>
<!-- Node12 -->
<g id="node12" class="node">
<title>Node12</title>
<g id="a_node12"><a xlink:href="cpp__constructor_8cpp.html" target="_top" xlink:title=" ">
<polygon fill="none" stroke="black" points="654,-6 654,-47 854,-47 854,-6 654,-6"/>
<text text-anchor="start" x="662" y="-35" font-family="Helvetica,sans-Serif" font-size="10.00">/home/runner/work/cbmc</text>
<text text-anchor="start" x="662" y="-24" font-family="Helvetica,sans-Serif" font-size="10.00">&#45;documentation/cbmc&#45;documentation</text>
<text text-anchor="middle" x="754" y="-13" font-family="Helvetica,sans-Serif" font-size="10.00">/src/cpp/cpp_constructor.cpp</text>
</a>
</g>
</g>
<!-- Node11&#45;&gt;Node12 -->
<g id="edge11" class="edge">
<title>Node11&#45;&gt;Node12</title>
<path fill="none" stroke="midnightblue" d="M3105.73,-109.39C2702,-110.33 1305.07,-109.36 863,-53 851.72,-51.56 839.91,-49.45 828.39,-47.05"/>
<polygon fill="midnightblue" stroke="midnightblue" points="3105.95,-112.89 3115.94,-109.36 3105.94,-105.89 3105.95,-112.89"/>
</g>
<!-- Node13 -->
<g id="node13" class="node">
<title>Node13</title>
<g id="a_node13"><a xlink:href="cpp__declarator__converter_8cpp.html" target="_top" xlink:title=" ">
<polygon fill="none" stroke="black" points="872,-6 872,-47 1072,-47 1072,-6 872,-6"/>
<text text-anchor="start" x="880" y="-35" font-family="Helvetica,sans-Serif" font-size="10.00">/home/runner/work/cbmc</text>
<text text-anchor="start" x="880" y="-24" font-family="Helvetica,sans-Serif" font-size="10.00">&#45;documentation/cbmc&#45;documentation</text>
<text text-anchor="middle" x="972" y="-13" font-family="Helvetica,sans-Serif" font-size="10.00">/src/cpp/cpp_declarator_converter.cpp</text>
</a>
</g>
</g>
<!-- Node11&#45;&gt;Node13 -->
<g id="edge12" class="edge">
<title>Node11&#45;&gt;Node13</title>
<path fill="none" stroke="midnightblue" d="M3105.82,-109.07C2726.84,-108.85 1478.46,-104.16 1081,-53 1069.72,-51.55 1057.91,-49.43 1046.39,-47.02"/>
<polygon fill="midnightblue" stroke="midnightblue" points="3105.97,-112.57 3115.97,-109.08 3105.97,-105.57 3105.97,-112.57"/>
</g>
<!-- Node14 -->
<g id="node14" class="node">
<title>Node14</title>
<g id="a_node14"><a xlink:href="cpp__destructor_8cpp.html" target="_top" xlink:title=" ">
<polygon fill="none" stroke="black" points="1090,-6 1090,-47 1290,-47 1290,-6 1090,-6"/>
<text text-anchor="start" x="1098" y="-35" font-family="Helvetica,sans-Serif" font-size="10.00">/home/runner/work/cbmc</text>
<text text-anchor="start" x="1098" y="-24" font-family="Helvetica,sans-Serif" font-size="10.00">&#45;documentation/cbmc&#45;documentation</text>
<text text-anchor="middle" x="1190" y="-13" font-family="Helvetica,sans-Serif" font-size="10.00">/src/cpp/cpp_destructor.cpp</text>
</a>
</g>
</g>
<!-- Node11&#45;&gt;Node14 -->
<g id="edge13" class="edge">
<title>Node11&#45;&gt;Node14</title>
<path fill="none" stroke="midnightblue" d="M3105.51,-108.68C2752.1,-107.21 1651.89,-98.96 1299,-53 1287.82,-51.54 1276.11,-49.44 1264.69,-47.05"/>
<polygon fill="midnightblue" stroke="midnightblue" points="3105.73,-112.18 3115.74,-108.72 3105.76,-105.18 3105.73,-112.18"/>
</g>
<!-- Node15 -->
<g id="node15" class="node">
<title>Node15</title>
<g id="a_node15"><a xlink:href="cpp__instantiate__template_8cpp.html" target="_top" xlink:title=" ">
<polygon fill="none" stroke="black" points="1308,-6 1308,-47 1510,-47 1510,-6 1308,-6"/>
<text text-anchor="start" x="1316" y="-35" font-family="Helvetica,sans-Serif" font-size="10.00">/home/runner/work/cbmc</text>
<text text-anchor="start" x="1316" y="-24" font-family="Helvetica,sans-Serif" font-size="10.00">&#45;documentation/cbmc&#45;documentation</text>
<text text-anchor="middle" x="1409" y="-13" font-family="Helvetica,sans-Serif" font-size="10.00">/src/cpp/cpp_instantiate_template.cpp</text>
</a>
</g>
</g>
<!-- Node11&#45;&gt;Node15 -->
<g id="edge14" class="edge">
<title>Node11&#45;&gt;Node15</title>
<path fill="none" stroke="midnightblue" d="M3105.52,-108.16C2779.87,-105.25 1827.29,-93.43 1519,-53 1507.73,-51.52 1495.91,-49.4 1484.39,-47.01"/>
<polygon fill="midnightblue" stroke="midnightblue" points="3105.88,-111.67 3115.91,-108.26 3105.94,-104.67 3105.88,-111.67"/>
</g>
<!-- Node16 -->
<g id="node16" class="node">
<title>Node16</title>
<g id="a_node16"><a xlink:href="cpp__is__pod_8cpp.html" target="_top" xlink:title=" ">
<polygon fill="none" stroke="black" points="1528,-6 1528,-47 1728,-47 1728,-6 1528,-6"/>
<text text-anchor="start" x="1536" y="-35" font-family="Helvetica,sans-Serif" font-size="10.00">/home/runner/work/cbmc</text>
<text text-anchor="start" x="1536" y="-24" font-family="Helvetica,sans-Serif" font-size="10.00">&#45;documentation/cbmc&#45;documentation</text>
<text text-anchor="middle" x="1628" y="-13" font-family="Helvetica,sans-Serif" font-size="10.00">/src/cpp/cpp_is_pod.cpp</text>
</a>
</g>
</g>
<!-- Node11&#45;&gt;Node16 -->
<g id="edge15" class="edge">
<title>Node11&#45;&gt;Node16</title>
<path fill="none" stroke="midnightblue" d="M3105.48,-107.56C2809.1,-103.27 2001.26,-88.58 1737,-53 1725.93,-51.51 1714.33,-49.4 1703,-47.03"/>
<polygon fill="midnightblue" stroke="midnightblue" points="3105.75,-111.07 3115.8,-107.71 3105.85,-104.07 3105.75,-111.07"/>
</g>
<!-- Node17 -->
<g id="node17" class="node">
<title>Node17</title>
<g id="a_node17"><a xlink:href="cpp__typecheck_8cpp.html" target="_top" xlink:title=" ">
<polygon fill="none" stroke="black" points="1746,-6 1746,-47 1946,-47 1946,-6 1746,-6"/>
<text text-anchor="start" x="1754" y="-35" font-family="Helvetica,sans-Serif" font-size="10.00">/home/runner/work/cbmc</text>
<text text-anchor="start" x="1754" y="-24" font-family="Helvetica,sans-Serif" font-size="10.00">&#45;documentation/cbmc&#45;documentation</text>
<text text-anchor="middle" x="1846" y="-13" font-family="Helvetica,sans-Serif" font-size="10.00">/src/cpp/cpp_typecheck.cpp</text>
</a>
</g>
</g>
<!-- Node11&#45;&gt;Node17 -->
<g id="edge17" class="edge">
<title>Node11&#45;&gt;Node17</title>
<path fill="none" stroke="midnightblue" d="M3105.59,-106.72C2840.86,-100.84 2175.62,-83.44 1955,-53 1944.03,-51.49 1932.54,-49.38 1921.3,-47.03"/>
<polygon fill="midnightblue" stroke="midnightblue" points="3105.53,-110.22 3115.6,-106.95 3105.68,-103.23 3105.53,-110.22"/>
</g>
<!-- Node18 -->
<g id="node18" class="node">
<title>Node18</title>
<g id="a_node18"><a xlink:href="cpp__typecheck__bases_8cpp.html" target="_top" xlink:title=" ">
<polygon fill="none" stroke="black" points="1964,-6 1964,-47 2164,-47 2164,-6 1964,-6"/>
<text text-anchor="start" x="1972" y="-35" font-family="Helvetica,sans-Serif" font-size="10.00">/home/runner/work/cbmc</text>
<text text-anchor="start" x="1972" y="-24" font-family="Helvetica,sans-Serif" font-size="10.00">&#45;documentation/cbmc&#45;documentation</text>
<text text-anchor="middle" x="2064" y="-13" font-family="Helvetica,sans-Serif" font-size="10.00">/src/cpp/cpp_typecheck_bases.cpp</text>
</a>
</g>
</g>
<!-- Node11&#45;&gt;Node18 -->
<g id="edge18" class="edge">
<title>Node11&#45;&gt;Node18</title>
<path fill="none" stroke="midnightblue" d="M3105.79,-109.44C2914.84,-108.78 2510.52,-101.16 2173,-53 2162.23,-51.46 2150.95,-49.38 2139.91,-47.06"/>
<polygon fill="midnightblue" stroke="midnightblue" points="3105.83,-112.94 3115.84,-109.47 3105.85,-105.94 3105.83,-112.94"/>
</g>
<!-- Node19 -->
<g id="node19" class="node">
<title>Node19</title>
<g id="a_node19"><a xlink:href="cpp__typecheck__code_8cpp.html" target="_top" xlink:title=" ">
<polygon fill="none" stroke="black" points="2182,-6 2182,-47 2382,-47 2382,-6 2182,-6"/>
<text text-anchor="start" x="2190" y="-35" font-family="Helvetica,sans-Serif" font-size="10.00">/home/runner/work/cbmc</text>
<text text-anchor="start" x="2190" y="-24" font-family="Helvetica,sans-Serif" font-size="10.00">&#45;documentation/cbmc&#45;documentation</text>
<text text-anchor="middle" x="2282" y="-13" font-family="Helvetica,sans-Serif" font-size="10.00">/src/cpp/cpp_typecheck_code.cpp</text>
</a>
</g>
</g>
<!-- Node11&#45;&gt;Node19 -->
<g id="edge19" class="edge">
<title>Node11&#45;&gt;Node19</title>
<path fill="none" stroke="midnightblue" d="M3105.49,-107.18C2946.63,-103.27 2644.88,-91.06 2391,-53 2380.43,-51.42 2369.37,-49.33 2358.52,-47.04"/>
<polygon fill="midnightblue" stroke="midnightblue" points="3105.67,-110.68 3115.75,-107.42 3105.83,-103.68 3105.67,-110.68"/>
</g>
<!-- Node20 -->
<g id="node20" class="node">
<title>Node20</title>
<g id="a_node20"><a xlink:href="cpp__typecheck__compound__type_8cpp.html" target="_top" xlink:title=" ">
<polygon fill="none" stroke="black" points="2400.5,-6 2400.5,-47 2633.5,-47 2633.5,-6 2400.5,-6"/>
<text text-anchor="start" x="2408.5" y="-35" font-family="Helvetica,sans-Serif" font-size="10.00">/home/runner/work/cbmc</text>
<text text-anchor="start" x="2408.5" y="-24" font-family="Helvetica,sans-Serif" font-size="10.00">&#45;documentation/cbmc&#45;documentation</text>
<text text-anchor="middle" x="2517" y="-13" font-family="Helvetica,sans-Serif" font-size="10.00">/src/cpp/cpp_typecheck_compound_type.cpp</text>
</a>
</g>
</g>
<!-- Node11&#45;&gt;Node20 -->
<g id="edge20" class="edge">
<title>Node11&#45;&gt;Node20</title>
<path fill="none" stroke="midnightblue" d="M3105.51,-101.65C2989.62,-93.13 2802.39,-77.12 2642,-53 2630.61,-51.29 2618.69,-49.22 2606.93,-47.01"/>
<polygon fill="midnightblue" stroke="midnightblue" points="3105.58,-105.16 3115.81,-102.4 3106.09,-98.18 3105.58,-105.16"/>
</g>
<!-- Node21 -->
<g id="node21" class="node">
<title>Node21</title>
<g id="a_node21"><a xlink:href="cpp__typecheck__constructor_8cpp.html" target="_top" xlink:title=" ">
<polygon fill="none" stroke="black" points="2651.5,-6 2651.5,-47 2860.5,-47 2860.5,-6 2651.5,-6"/>
<text text-anchor="start" x="2659.5" y="-35" font-family="Helvetica,sans-Serif" font-size="10.00">/home/runner/work/cbmc</text>
<text text-anchor="start" x="2659.5" y="-24" font-family="Helvetica,sans-Serif" font-size="10.00">&#45;documentation/cbmc&#45;documentation</text>
<text text-anchor="middle" x="2756" y="-13" font-family="Helvetica,sans-Serif" font-size="10.00">/src/cpp/cpp_typecheck_constructor.cpp</text>
</a>
</g>
</g>
<!-- Node11&#45;&gt;Node21 -->
<g id="edge21" class="edge">
<title>Node11&#45;&gt;Node21</title>
<path fill="none" stroke="midnightblue" d="M3105.9,-92.89C3037.76,-82.5 2948.59,-68.14 2870,-53 2860.44,-51.16 2850.46,-49.11 2840.55,-47"/>
<polygon fill="midnightblue" stroke="midnightblue" points="3105.38,-96.35 3115.79,-94.4 3106.43,-89.43 3105.38,-96.35"/>
</g>
<!-- Node22 -->
<g id="node22" class="node">
<title>Node22</title>
<g id="a_node22"><a xlink:href="cpp__typecheck__conversions_8cpp.html" target="_top" xlink:title=" ">
<polygon fill="none" stroke="black" points="2879,-6 2879,-47 3093,-47 3093,-6 2879,-6"/>
<text text-anchor="start" x="2887" y="-35" font-family="Helvetica,sans-Serif" font-size="10.00">/home/runner/work/cbmc</text>
<text text-anchor="start" x="2887" y="-24" font-family="Helvetica,sans-Serif" font-size="10.00">&#45;documentation/cbmc&#45;documentation</text>
<text text-anchor="middle" x="2986" y="-13" font-family="Helvetica,sans-Serif" font-size="10.00">/src/cpp/cpp_typecheck_conversions.cpp</text>
</a>
</g>
</g>
<!-- Node11&#45;&gt;Node22 -->
<g id="edge22" class="edge">
<title>Node11&#45;&gt;Node22</title>
<path fill="none" stroke="midnightblue" d="M3151.33,-86.08C3116.58,-73.77 3074.19,-58.75 3041.04,-47"/>
<polygon fill="midnightblue" stroke="midnightblue" points="3150.31,-89.44 3160.91,-89.48 3152.65,-82.84 3150.31,-89.44"/>
</g>
<!-- Node23 -->
<g id="node23" class="node">
<title>Node23</title>
<g id="a_node23"><a xlink:href="cpp__typecheck__declaration_8cpp.html" target="_top" xlink:title=" ">
<polygon fill="none" stroke="black" points="3111,-6 3111,-47 3321,-47 3321,-6 3111,-6"/>
<text text-anchor="start" x="3119" y="-35" font-family="Helvetica,sans-Serif" font-size="10.00">/home/runner/work/cbmc</text>
<text text-anchor="start" x="3119" y="-24" font-family="Helvetica,sans-Serif" font-size="10.00">&#45;documentation/cbmc&#45;documentation</text>
<text text-anchor="middle" x="3216" y="-13" font-family="Helvetica,sans-Serif" font-size="10.00">/src/cpp/cpp_typecheck_declaration.cpp</text>
</a>
</g>
</g>
<!-- Node11&#45;&gt;Node23 -->
<g id="edge23" class="edge">
<title>Node11&#45;&gt;Node23</title>
<path fill="none" stroke="midnightblue" d="M3216,-79.06C3216,-68.38 3216,-56.63 3216,-47.05"/>
<polygon fill="midnightblue" stroke="midnightblue" points="3212.5,-79.27 3216,-89.27 3219.5,-79.27 3212.5,-79.27"/>
</g>
<!-- Node24 -->
<g id="node24" class="node">
<title>Node24</title>
<g id="a_node24"><a xlink:href="cpp__typecheck__destructor_8cpp.html" target="_top" xlink:title=" ">
<polygon fill="none" stroke="black" points="3339,-6 3339,-47 3543,-47 3543,-6 3339,-6"/>
<text text-anchor="start" x="3347" y="-35" font-family="Helvetica,sans-Serif" font-size="10.00">/home/runner/work/cbmc</text>
<text text-anchor="start" x="3347" y="-24" font-family="Helvetica,sans-Serif" font-size="10.00">&#45;documentation/cbmc&#45;documentation</text>
<text text-anchor="middle" x="3441" y="-13" font-family="Helvetica,sans-Serif" font-size="10.00">/src/cpp/cpp_typecheck_destructor.cpp</text>
</a>
</g>
</g>
<!-- Node11&#45;&gt;Node24 -->
<g id="edge24" class="edge">
<title>Node11&#45;&gt;Node24</title>
<path fill="none" stroke="midnightblue" d="M3279.71,-85.92C3313.62,-73.64 3354.86,-58.7 3387.16,-47"/>
<polygon fill="midnightblue" stroke="midnightblue" points="3278.1,-82.78 3269.89,-89.48 3280.49,-89.36 3278.1,-82.78"/>
</g>
<!-- Node25 -->
<g id="node25" class="node">
<title>Node25</title>
<g id="a_node25"><a xlink:href="cpp__typecheck__enum__type_8cpp.html" target="_top" xlink:title=" ">
<polygon fill="none" stroke="black" points="3561,-6 3561,-47 3771,-47 3771,-6 3561,-6"/>
<text text-anchor="start" x="3569" y="-35" font-family="Helvetica,sans-Serif" font-size="10.00">/home/runner/work/cbmc</text>
<text text-anchor="start" x="3569" y="-24" font-family="Helvetica,sans-Serif" font-size="10.00">&#45;documentation/cbmc&#45;documentation</text>
<text text-anchor="middle" x="3666" y="-13" font-family="Helvetica,sans-Serif" font-size="10.00">/src/cpp/cpp_typecheck_enum_type.cpp</text>
</a>
</g>
</g>
<!-- Node11&#45;&gt;Node25 -->
<g id="edge25" class="edge">
<title>Node11&#45;&gt;Node25</title>
<path fill="none" stroke="midnightblue" d="M3326.2,-92.2C3391.92,-81.79 3476.91,-67.64 3552,-53 3561.46,-51.16 3571.33,-49.12 3581.13,-47.02"/>
<polygon fill="midnightblue" stroke="midnightblue" points="3325.57,-88.75 3316.23,-93.77 3326.66,-95.67 3325.57,-88.75"/>
</g>
<!-- Node26 -->
<g id="node26" class="node">
<title>Node26</title>
<g id="a_node26"><a xlink:href="cpp__typecheck__expr_8cpp.html" target="_top" xlink:title=" ">
<polygon fill="none" stroke="black" points="3789,-6 3789,-47 3989,-47 3989,-6 3789,-6"/>
<text text-anchor="start" x="3797" y="-35" font-family="Helvetica,sans-Serif" font-size="10.00">/home/runner/work/cbmc</text>
<text text-anchor="start" x="3797" y="-24" font-family="Helvetica,sans-Serif" font-size="10.00">&#45;documentation/cbmc&#45;documentation</text>
<text text-anchor="middle" x="3889" y="-13" font-family="Helvetica,sans-Serif" font-size="10.00">/src/cpp/cpp_typecheck_expr.cpp</text>
</a>
</g>
</g>
<!-- Node11&#45;&gt;Node26 -->
<g id="edge26" class="edge">
<title>Node11&#45;&gt;Node26</title>
<path fill="none" stroke="midnightblue" d="M3326.25,-102.34C3440.35,-94.44 3623.46,-78.97 3780,-53 3790.07,-51.33 3800.59,-49.27 3810.95,-47.06"/>
<polygon fill="midnightblue" stroke="midnightblue" points="3325.84,-98.86 3316.11,-103.03 3326.32,-105.84 3325.84,-98.86"/>
</g>
<!-- Node27 -->
<g id="node27" class="node">
<title>Node27</title>
<g id="a_node27"><a xlink:href="cpp__typecheck__fargs_8cpp.html" target="_top" xlink:title=" ">
<polygon fill="none" stroke="black" points="4007,-6 4007,-47 4207,-47 4207,-6 4007,-6"/>
<text text-anchor="start" x="4015" y="-35" font-family="Helvetica,sans-Serif" font-size="10.00">/home/runner/work/cbmc</text>
<text text-anchor="start" x="4015" y="-24" font-family="Helvetica,sans-Serif" font-size="10.00">&#45;documentation/cbmc&#45;documentation</text>
<text text-anchor="middle" x="4107" y="-13" font-family="Helvetica,sans-Serif" font-size="10.00">/src/cpp/cpp_typecheck_fargs.cpp</text>
</a>
</g>
</g>
<!-- Node11&#45;&gt;Node27 -->
<g id="edge27" class="edge">
<title>Node11&#45;&gt;Node27</title>
<path fill="none" stroke="midnightblue" d="M3326.51,-106.59C3478.54,-102.02 3760.39,-89.07 3998,-53 4008.57,-51.4 4019.63,-49.3 4030.48,-47.01"/>
<polygon fill="midnightblue" stroke="midnightblue" points="3326.13,-103.1 3316.24,-106.89 3326.34,-110.1 3326.13,-103.1"/>
</g>
<!-- Node28 -->
<g id="node28" class="node">
<title>Node28</title>
<g id="a_node28"><a xlink:href="cpp__typecheck__function_8cpp.html" target="_top" xlink:title=" ">
<polygon fill="none" stroke="black" points="4225,-6 4225,-47 4425,-47 4425,-6 4225,-6"/>
<text text-anchor="start" x="4233" y="-35" font-family="Helvetica,sans-Serif" font-size="10.00">/home/runner/work/cbmc</text>
<text text-anchor="start" x="4233" y="-24" font-family="Helvetica,sans-Serif" font-size="10.00">&#45;documentation/cbmc&#45;documentation</text>
<text text-anchor="middle" x="4325" y="-13" font-family="Helvetica,sans-Serif" font-size="10.00">/src/cpp/cpp_typecheck_function.cpp</text>
</a>
</g>
</g>
<!-- Node11&#45;&gt;Node28 -->
<g id="edge28" class="edge">
<title>Node11&#45;&gt;Node28</title>
<path fill="none" stroke="midnightblue" d="M3326.28,-109.07C3511.21,-107.79 3895.11,-99.16 4216,-53 4226.77,-51.45 4238.05,-49.36 4249.09,-47.04"/>
<polygon fill="midnightblue" stroke="midnightblue" points="3326.26,-105.57 3316.28,-109.13 3326.3,-112.57 3326.26,-105.57"/>
</g>
<!-- Node29 -->
<g id="node29" class="node">
<title>Node29</title>
<g id="a_node29"><a xlink:href="cpp__typecheck__initializer_8cpp.html" target="_top" xlink:title=" ">
<polygon fill="none" stroke="black" points="4443,-6 4443,-47 4643,-47 4643,-6 4443,-6"/>
<text text-anchor="start" x="4451" y="-35" font-family="Helvetica,sans-Serif" font-size="10.00">/home/runner/work/cbmc</text>
<text text-anchor="start" x="4451" y="-24" font-family="Helvetica,sans-Serif" font-size="10.00">&#45;documentation/cbmc&#45;documentation</text>
<text text-anchor="middle" x="4543" y="-13" font-family="Helvetica,sans-Serif" font-size="10.00">/src/cpp/cpp_typecheck_initializer.cpp</text>
</a>
</g>
</g>
<!-- Node11&#45;&gt;Node29 -->
<g id="edge29" class="edge">
<title>Node11&#45;&gt;Node29</title>
<path fill="none" stroke="midnightblue" d="M3326.31,-106.53C3584.44,-100.32 4221.92,-82.43 4434,-53 4444.97,-51.48 4456.46,-49.37 4467.7,-47.01"/>
<polygon fill="midnightblue" stroke="midnightblue" points="3326.08,-103.03 3316.17,-106.77 3326.25,-110.03 3326.08,-103.03"/>
</g>
<!-- Node30 -->
<g id="node30" class="node">
<title>Node30</title>
<g id="a_node30"><a xlink:href="cpp__typecheck__linkage__spec_8cpp.html" target="_top" xlink:title=" ">
<polygon fill="none" stroke="black" points="4661,-6 4661,-47 4879,-47 4879,-6 4661,-6"/>
<text text-anchor="start" x="4669" y="-35" font-family="Helvetica,sans-Serif" font-size="10.00">/home/runner/work/cbmc</text>
<text text-anchor="start" x="4669" y="-24" font-family="Helvetica,sans-Serif" font-size="10.00">&#45;documentation/cbmc&#45;documentation</text>
<text text-anchor="middle" x="4770" y="-13" font-family="Helvetica,sans-Serif" font-size="10.00">/src/cpp/cpp_typecheck_linkage_spec.cpp</text>
</a>
</g>
</g>
<!-- Node11&#45;&gt;Node30 -->
<g id="edge30" class="edge">
<title>Node11&#45;&gt;Node30</title>
<path fill="none" stroke="midnightblue" d="M3326.12,-107.18C3616.1,-102 4395.99,-85.4 4652,-53 4663.85,-51.5 4676.28,-49.4 4688.43,-47.05"/>
<polygon fill="midnightblue" stroke="midnightblue" points="3325.95,-103.69 3316.02,-107.36 3326.08,-110.69 3325.95,-103.69"/>
</g>
<!-- Node31 -->
<g id="node31" class="node">
<title>Node31</title>
<g id="a_node31"><a xlink:href="cpp__typecheck__method__bodies_8cpp.html" target="_top" xlink:title=" ">
<polygon fill="none" stroke="black" points="4897,-0.5 4897,-52.5 5097,-52.5 5097,-0.5 4897,-0.5"/>
<text text-anchor="start" x="4905" y="-40.5" font-family="Helvetica,sans-Serif" font-size="10.00">/home/runner/work/cbmc</text>
<text text-anchor="start" x="4905" y="-29.5" font-family="Helvetica,sans-Serif" font-size="10.00">&#45;documentation/cbmc&#45;documentation</text>
<text text-anchor="start" x="4905" y="-18.5" font-family="Helvetica,sans-Serif" font-size="10.00">/src/cpp/cpp_typecheck_method</text>
<text text-anchor="middle" x="4997" y="-7.5" font-family="Helvetica,sans-Serif" font-size="10.00">_bodies.cpp</text>
</a>
</g>
</g>
<!-- Node11&#45;&gt;Node31 -->
<g id="edge31" class="edge">
<title>Node11&#45;&gt;Node31</title>
<path fill="none" stroke="midnightblue" d="M3326.55,-108.13C3649.02,-105.14 4584.83,-93.14 4888,-53 4890.89,-52.62 4893.82,-52.19 4896.76,-51.73"/>
<polygon fill="midnightblue" stroke="midnightblue" points="3326.23,-104.63 3316.27,-108.22 3326.3,-111.63 3326.23,-104.63"/>
</g>
<!-- Node32 -->
<g id="node32" class="node">
<title>Node32</title>
<g id="a_node32"><a xlink:href="cpp__typecheck__namespace_8cpp.html" target="_top" xlink:title=" ">
<polygon fill="none" stroke="black" points="5115,-6 5115,-47 5327,-47 5327,-6 5115,-6"/>
<text text-anchor="start" x="5123" y="-35" font-family="Helvetica,sans-Serif" font-size="10.00">/home/runner/work/cbmc</text>
<text text-anchor="start" x="5123" y="-24" font-family="Helvetica,sans-Serif" font-size="10.00">&#45;documentation/cbmc&#45;documentation</text>
<text text-anchor="middle" x="5221" y="-13" font-family="Helvetica,sans-Serif" font-size="10.00">/src/cpp/cpp_typecheck_namespace.cpp</text>
</a>
</g>
</g>
<!-- Node11&#45;&gt;Node32 -->
<g id="edge32" class="edge">
<title>Node11&#45;&gt;Node32</title>
<path fill="none" stroke="midnightblue" d="M3326.43,-108.46C3676.42,-106.33 4758.33,-96.3 5106,-53 5117.77,-51.53 5130.11,-49.42 5142.16,-47.04"/>
<polygon fill="midnightblue" stroke="midnightblue" points="3326.27,-104.96 3316.29,-108.52 3326.31,-111.96 3326.27,-104.96"/>
</g>
<!-- Node33 -->
<g id="node33" class="node">
<title>Node33</title>
<g id="a_node33"><a xlink:href="cpp__typecheck__resolve_8cpp.html" target="_top" xlink:title=" ">
<polygon fill="none" stroke="black" points="5345,-6 5345,-47 5545,-47 5545,-6 5345,-6"/>
<text text-anchor="start" x="5353" y="-35" font-family="Helvetica,sans-Serif" font-size="10.00">/home/runner/work/cbmc</text>
<text text-anchor="start" x="5353" y="-24" font-family="Helvetica,sans-Serif" font-size="10.00">&#45;documentation/cbmc&#45;documentation</text>
<text text-anchor="middle" x="5445" y="-13" font-family="Helvetica,sans-Serif" font-size="10.00">/src/cpp/cpp_typecheck_resolve.cpp</text>
</a>
</g>
</g>
<!-- Node11&#45;&gt;Node33 -->
<g id="edge33" class="edge">
<title>Node11&#45;&gt;Node33</title>
<path fill="none" stroke="midnightblue" d="M3326.38,-109.05C3703.86,-108.74 4941.68,-103.8 5336,-53 5347.28,-51.55 5359.09,-49.43 5370.61,-47.02"/>
<polygon fill="midnightblue" stroke="midnightblue" points="3326.27,-105.55 3316.27,-109.05 3326.27,-112.55 3326.27,-105.55"/>
</g>
<!-- Node34 -->
<g id="node34" class="node">
<title>Node34</title>
<g id="a_node34"><a xlink:href="cpp__typecheck__static__assert_8cpp.html" target="_top" xlink:title=" ">
<polygon fill="none" stroke="black" points="5563,-0.5 5563,-52.5 5763,-52.5 5763,-0.5 5563,-0.5"/>
<text text-anchor="start" x="5571" y="-40.5" font-family="Helvetica,sans-Serif" font-size="10.00">/home/runner/work/cbmc</text>
<text text-anchor="start" x="5571" y="-29.5" font-family="Helvetica,sans-Serif" font-size="10.00">&#45;documentation/cbmc&#45;documentation</text>
<text text-anchor="start" x="5571" y="-18.5" font-family="Helvetica,sans-Serif" font-size="10.00">/src/cpp/cpp_typecheck_static</text>
<text text-anchor="middle" x="5663" y="-7.5" font-family="Helvetica,sans-Serif" font-size="10.00">_assert.cpp</text>
</a>
</g>
</g>
<!-- Node11&#45;&gt;Node34 -->
<g id="edge34" class="edge">
<title>Node11&#45;&gt;Node34</title>
<path fill="none" stroke="midnightblue" d="M3326.25,-109.37C3728.3,-110.23 5115,-109 5554,-53 5556.89,-52.63 5559.82,-52.22 5562.77,-51.77"/>
<polygon fill="midnightblue" stroke="midnightblue" points="3326.09,-105.87 3316.08,-109.34 3326.07,-112.87 3326.09,-105.87"/>
</g>
<!-- Node35 -->
<g id="node35" class="node">
<title>Node35</title>
<g id="a_node35"><a xlink:href="cpp__typecheck__template_8cpp.html" target="_top" xlink:title=" ">
<polygon fill="none" stroke="black" points="5781,-6 5781,-47 5981,-47 5981,-6 5781,-6"/>
<text text-anchor="start" x="5789" y="-35" font-family="Helvetica,sans-Serif" font-size="10.00">/home/runner/work/cbmc</text>
<text text-anchor="start" x="5789" y="-24" font-family="Helvetica,sans-Serif" font-size="10.00">&#45;documentation/cbmc&#45;documentation</text>
<text text-anchor="middle" x="5881" y="-13" font-family="Helvetica,sans-Serif" font-size="10.00">/src/cpp/cpp_typecheck_template.cpp</text>
</a>
</g>
</g>
<!-- Node11&#45;&gt;Node35 -->
<g id="edge35" class="edge">
<title>Node11&#45;&gt;Node35</title>
<path fill="none" stroke="midnightblue" d="M3326.38,-107.93C3785.02,-103.33 5527.61,-83.92 5772,-53 5783.38,-51.56 5795.3,-49.43 5806.91,-47"/>
<polygon fill="midnightblue" stroke="midnightblue" points="3326.08,-104.44 3316.11,-108.04 3326.15,-111.44 3326.08,-104.44"/>
</g>
<!-- Node36 -->
<g id="node36" class="node">
<title>Node36</title>
<g id="a_node36"><a xlink:href="cpp__typecheck__type_8cpp.html" target="_top" xlink:title=" ">
<polygon fill="none" stroke="black" points="0,-6 0,-47 200,-47 200,-6 0,-6"/>
<text text-anchor="start" x="8" y="-35" font-family="Helvetica,sans-Serif" font-size="10.00">/home/runner/work/cbmc</text>
<text text-anchor="start" x="8" y="-24" font-family="Helvetica,sans-Serif" font-size="10.00">&#45;documentation/cbmc&#45;documentation</text>
<text text-anchor="middle" x="100" y="-13" font-family="Helvetica,sans-Serif" font-size="10.00">/src/cpp/cpp_typecheck_type.cpp</text>
</a>
</g>
</g>
<!-- Node11&#45;&gt;Node36 -->
<g id="edge36" class="edge">
<title>Node11&#45;&gt;Node36</title>
<path fill="none" stroke="midnightblue" d="M3105.63,-108.33C2598.04,-105.04 500.14,-89.35 209,-53 197.62,-51.58 185.7,-49.46 174.09,-47.04"/>
<polygon fill="midnightblue" stroke="midnightblue" points="3105.87,-111.83 3115.89,-108.39 3105.91,-104.83 3105.87,-111.83"/>
</g>
<!-- Node37 -->
<g id="node37" class="node">
<title>Node37</title>
<g id="a_node37"><a xlink:href="cpp__typecheck__using_8cpp.html" target="_top" xlink:title=" ">
<polygon fill="none" stroke="black" points="218,-6 218,-47 418,-47 418,-6 218,-6"/>
<text text-anchor="start" x="226" y="-35" font-family="Helvetica,sans-Serif" font-size="10.00">/home/runner/work/cbmc</text>
<text text-anchor="start" x="226" y="-24" font-family="Helvetica,sans-Serif" font-size="10.00">&#45;documentation/cbmc&#45;documentation</text>
<text text-anchor="middle" x="318" y="-13" font-family="Helvetica,sans-Serif" font-size="10.00">/src/cpp/cpp_typecheck_using.cpp</text>
</a>
</g>
</g>
<!-- Node11&#45;&gt;Node37 -->
<g id="edge37" class="edge">
<title>Node11&#45;&gt;Node37</title>
<path fill="none" stroke="midnightblue" d="M3105.75,-108.15C2621.51,-104.25 695.53,-86.73 427,-53 415.62,-51.57 403.7,-49.45 392.09,-47.02"/>
<polygon fill="midnightblue" stroke="midnightblue" points="3105.86,-111.65 3115.88,-108.24 3105.91,-104.65 3105.86,-111.65"/>
</g>
<!-- Node38 -->
<g id="node38" class="node">
<title>Node38</title>
<g id="a_node38"><a xlink:href="cpp__typecheck__virtual__table_8cpp.html" target="_top" xlink:title=" ">
<polygon fill="none" stroke="black" points="436,-0.5 436,-52.5 636,-52.5 636,-0.5 436,-0.5"/>
<text text-anchor="start" x="444" y="-40.5" font-family="Helvetica,sans-Serif" font-size="10.00">/home/runner/work/cbmc</text>
<text text-anchor="start" x="444" y="-29.5" font-family="Helvetica,sans-Serif" font-size="10.00">&#45;documentation/cbmc&#45;documentation</text>
<text text-anchor="start" x="444" y="-18.5" font-family="Helvetica,sans-Serif" font-size="10.00">/src/cpp/cpp_typecheck_virtual</text>
<text text-anchor="middle" x="536" y="-7.5" font-family="Helvetica,sans-Serif" font-size="10.00">_table.cpp</text>
</a>
</g>
</g>
<!-- Node11&#45;&gt;Node38 -->
<g id="edge38" class="edge">
<title>Node11&#45;&gt;Node38</title>
<path fill="none" stroke="midnightblue" d="M3105.36,-107.95C2644.62,-103.38 890.89,-84.1 645,-53 642.11,-52.63 639.18,-52.22 636.23,-51.78"/>
<polygon fill="midnightblue" stroke="midnightblue" points="3105.64,-111.45 3115.67,-108.05 3105.71,-104.45 3105.64,-111.45"/>
</g>
<!-- Node39&#45;&gt;Node6 -->
<g id="edge40" class="edge">
<title>Node39&#45;&gt;Node6</title>
<path fill="none" stroke="midnightblue" d="M6337.83,-87.02C6287.75,-74.54 6225.6,-59.05 6177.25,-47"/>
<polygon fill="midnightblue" stroke="midnightblue" points="6337.13,-90.46 6347.68,-89.48 6338.82,-83.66 6337.13,-90.46"/>
</g>
<!-- Node40 -->
<g id="node40" class="node">
<title>Node40</title>
<g id="a_node40"><a xlink:href="cpp__parser_8cpp.html" target="_top" xlink:title=" ">
<polygon fill="none" stroke="black" points="6217,-6 6217,-47 6417,-47 6417,-6 6217,-6"/>
<text text-anchor="start" x="6225" y="-35" font-family="Helvetica,sans-Serif" font-size="10.00">/home/runner/work/cbmc</text>
<text text-anchor="start" x="6225" y="-24" font-family="Helvetica,sans-Serif" font-size="10.00">&#45;documentation/cbmc&#45;documentation</text>
<text text-anchor="middle" x="6317" y="-13" font-family="Helvetica,sans-Serif" font-size="10.00">/src/cpp/cpp_parser.cpp</text>
</a>
</g>
</g>
<!-- Node39&#45;&gt;Node40 -->
<g id="edge41" class="edge">
<title>Node39&#45;&gt;Node40</title>
<path fill="none" stroke="midnightblue" d="M6391.52,-83.22C6375.91,-71.55 6357.76,-57.97 6343.27,-47.14"/>
<polygon fill="midnightblue" stroke="midnightblue" points="6389.79,-86.29 6399.89,-89.48 6393.98,-80.69 6389.79,-86.29"/>
</g>
<!-- Node41 -->
<g id="node41" class="node">
<title>Node41</title>
<g id="a_node41"><a xlink:href="parse_8cpp.html" target="_top" xlink:title=" ">
<polygon fill="none" stroke="black" points="6435,-6 6435,-47 6635,-47 6635,-6 6435,-6"/>
<text text-anchor="start" x="6443" y="-35" font-family="Helvetica,sans-Serif" font-size="10.00">/home/runner/work/cbmc</text>
<text text-anchor="start" x="6443" y="-24" font-family="Helvetica,sans-Serif" font-size="10.00">&#45;documentation/cbmc&#45;documentation</text>
<text text-anchor="middle" x="6535" y="-13" font-family="Helvetica,sans-Serif" font-size="10.00">/src/cpp/parse.cpp</text>
</a>
</g>
</g>
<!-- Node39&#45;&gt;Node41 -->
<g id="edge42" class="edge">
<title>Node39&#45;&gt;Node41</title>
<path fill="none" stroke="midnightblue" d="M6460.48,-83.22C6476.09,-71.55 6494.24,-57.97 6508.73,-47.14"/>
<polygon fill="midnightblue" stroke="midnightblue" points="6458.02,-80.69 6452.11,-89.48 6462.21,-86.29 6458.02,-80.69"/>
</g>
</g>
</svg>
