<?xml version="1.0" encoding="UTF-8" standalone="no"?>
<!DOCTYPE svg PUBLIC "-//W3C//DTD SVG 1.1//EN"
 "http://www.w3.org/Graphics/SVG/1.1/DTD/svg11.dtd">
<!-- Generated by graphviz version 2.43.0 (0)
 -->
<!-- Title: /home/runner/work/cbmc&#45;documentation/cbmc&#45;documentation/src/cpp/cpp_using.h Pages: 1 -->
<svg width="696pt" height="554pt"
 viewBox="0.00 0.00 695.69 554.00" xmlns="http://www.w3.org/2000/svg" xmlns:xlink="http://www.w3.org/1999/xlink">
<g id="graph0" class="graph" transform="scale(1 1) rotate(0) translate(4 550)">
<title>/home/runner/work/cbmc&#45;documentation/cbmc&#45;documentation/src/cpp/cpp_using.h</title>
<!-- Node1 -->
<g id="node1" class="node">
<title>Node1</title>
<g id="a_node1"><a xlink:title=" ">
<polygon fill="#bfbfbf" stroke="black" points="0,-504.5 0,-545.5 200,-545.5 200,-504.5 0,-504.5"/>
<text text-anchor="start" x="8" y="-533.5" font-family="Helvetica,sans-Serif" font-size="10.00">/home/runner/work/cbmc</text>
<text text-anchor="start" x="8" y="-522.5" font-family="Helvetica,sans-Serif" font-size="10.00">&#45;documentation/cbmc&#45;documentation</text>
<text text-anchor="middle" x="100" y="-511.5" font-family="Helvetica,sans-Serif" font-size="10.00">/src/cpp/cpp_using.h</text>
</a>
</g>
</g>
<!-- Node2 -->
<g id="node2" class="node">
<title>Node2</title>
<g id="a_node2"><a xlink:href="cpp__name_8h.html" target="_top" xlink:title=" ">
<polygon fill="none" stroke="black" points="62,-448.5 62,-467.5 138,-467.5 138,-448.5 62,-448.5"/>
<text text-anchor="middle" x="100" y="-455.5" font-family="Helvetica,sans-Serif" font-size="10.00">cpp_name.h</text>
</a>
</g>
</g>
<!-- Node1&#45;&gt;Node2 -->
<g id="edge1" class="edge">
<title>Node1&#45;&gt;Node2</title>
<path fill="none" stroke="midnightblue" d="M100,-504.5C100,-496.07 100,-486.24 100,-477.87"/>
<polygon fill="midnightblue" stroke="midnightblue" points="103.5,-477.65 100,-467.65 96.5,-477.65 103.5,-477.65"/>
</g>
<!-- Node3 -->
<g id="node3" class="node">
<title>Node3</title>
<g id="a_node3"><a xlink:href="expr_8h.html" target="_top" xlink:title=" ">
<polygon fill="none" stroke="black" points="152.5,-392.5 152.5,-411.5 217.5,-411.5 217.5,-392.5 152.5,-392.5"/>
<text text-anchor="middle" x="185" y="-399.5" font-family="Helvetica,sans-Serif" font-size="10.00">util/expr.h</text>
</a>
</g>
</g>
<!-- Node2&#45;&gt;Node3 -->
<g id="edge2" class="edge">
<title>Node2&#45;&gt;Node3</title>
<path fill="none" stroke="midnightblue" d="M113.66,-448.32C126.92,-439.9 147.27,-426.97 162.85,-417.07"/>
<polygon fill="midnightblue" stroke="midnightblue" points="164.81,-419.97 171.38,-411.65 161.06,-414.06 164.81,-419.97"/>
</g>
<!-- Node10 -->
<g id="node10" class="node">
<title>Node10</title>
<g id="a_node10"><a xlink:href="src_2util_2invariant_8h.html" target="_top" xlink:title=" ">
<polygon fill="none" stroke="red" points="50.5,-56.5 50.5,-75.5 119.5,-75.5 119.5,-56.5 50.5,-56.5"/>
<text text-anchor="middle" x="85" y="-63.5" font-family="Helvetica,sans-Serif" font-size="10.00">invariant.h</text>
</a>
</g>
</g>
<!-- Node2&#45;&gt;Node10 -->
<g id="edge31" class="edge">
<title>Node2&#45;&gt;Node10</title>
<path fill="none" stroke="midnightblue" d="M86.88,-448.46C63.25,-431.94 16,-393.14 16,-347 16,-347 16,-347 16,-289 16,-209.68 56.66,-121.32 75.56,-84.54"/>
<polygon fill="midnightblue" stroke="midnightblue" points="78.71,-86.06 80.26,-75.58 72.51,-82.81 78.71,-86.06"/>
</g>
<!-- Node4 -->
<g id="node4" class="node">
<title>Node4</title>
<g id="a_node4"><a xlink:href="as__const_8h.html" target="_top" xlink:title=" ">
<polygon fill="none" stroke="black" points="448,-0.5 448,-19.5 516,-19.5 516,-0.5 448,-0.5"/>
<text text-anchor="middle" x="482" y="-7.5" font-family="Helvetica,sans-Serif" font-size="10.00">as_const.h</text>
</a>
</g>
</g>
<!-- Node3&#45;&gt;Node4 -->
<g id="edge3" class="edge">
<title>Node3&#45;&gt;Node4</title>
<path fill="none" stroke="midnightblue" d="M217.55,-400.84C328.79,-399.45 687,-387.47 687,-291 687,-291 687,-291 687,-121 687,-90.9 689.78,-76.78 668,-56 647.86,-36.78 574.38,-23.44 526.03,-16.52"/>
<polygon fill="midnightblue" stroke="midnightblue" points="526.51,-13.05 516.12,-15.14 525.54,-19.99 526.51,-13.05"/>
</g>
<!-- Node5 -->
<g id="node5" class="node">
<title>Node5</title>
<g id="a_node5"><a xlink:href="type_8h.html" target="_top" xlink:title=" ">
<polygon fill="none" stroke="black" points="350.5,-336.5 350.5,-355.5 397.5,-355.5 397.5,-336.5 350.5,-336.5"/>
<text text-anchor="middle" x="374" y="-343.5" font-family="Helvetica,sans-Serif" font-size="10.00">type.h</text>
</a>
</g>
</g>
<!-- Node3&#45;&gt;Node5 -->
<g id="edge4" class="edge">
<title>Node3&#45;&gt;Node5</title>
<path fill="none" stroke="midnightblue" d="M214.95,-392.44C249.15,-382.67 304.95,-366.73 340.55,-356.56"/>
<polygon fill="midnightblue" stroke="midnightblue" points="341.81,-359.84 350.46,-353.73 339.89,-353.11 341.81,-359.84"/>
</g>
<!-- Node33 -->
<g id="node18" class="node">
<title>Node33</title>
<g id="a_node18"><a xlink:href="validation__mode_8h.html" target="_top" xlink:title=" ">
<polygon fill="none" stroke="black" points="44.5,-224.5 44.5,-243.5 151.5,-243.5 151.5,-224.5 44.5,-224.5"/>
<text text-anchor="middle" x="98" y="-231.5" font-family="Helvetica,sans-Serif" font-size="10.00">validation_mode.h</text>
</a>
</g>
</g>
<!-- Node3&#45;&gt;Node33 -->
<g id="edge29" class="edge">
<title>Node3&#45;&gt;Node33</title>
<path fill="none" stroke="midnightblue" d="M162.18,-392.42C144.61,-384.92 120.6,-372.62 104,-356 83.9,-335.87 80.12,-327.54 73,-300 68.67,-283.23 77.01,-264.88 85.2,-251.96"/>
<polygon fill="midnightblue" stroke="midnightblue" points="88.16,-253.84 90.95,-243.62 82.39,-249.87 88.16,-253.84"/>
</g>
<!-- Node34 -->
<g id="node19" class="node">
<title>Node34</title>
<g id="a_node19"><a xlink:href="validate__types_8h.html" target="_top" xlink:title=" ">
<polygon fill="none" stroke="black" points="82,-280.5 82,-299.5 180,-299.5 180,-280.5 82,-280.5"/>
<text text-anchor="middle" x="131" y="-287.5" font-family="Helvetica,sans-Serif" font-size="10.00">validate_types.h</text>
</a>
</g>
</g>
<!-- Node3&#45;&gt;Node34 -->
<g id="edge28" class="edge">
<title>Node3&#45;&gt;Node34</title>
<path fill="none" stroke="midnightblue" d="M158.79,-392.41C142.15,-385.44 121.94,-373.81 112,-356 103.7,-341.13 110.87,-322.28 118.67,-308.71"/>
<polygon fill="midnightblue" stroke="midnightblue" points="121.86,-310.22 124.24,-299.9 115.94,-306.48 121.86,-310.22"/>
</g>
<!-- Node35 -->
<g id="node20" class="node">
<title>Node35</title>
<g id="a_node20"><a xlink:href="validate__expressions_8h.html" target="_top" xlink:title=" ">
<polygon fill="none" stroke="black" points="120.5,-336.5 120.5,-355.5 249.5,-355.5 249.5,-336.5 120.5,-336.5"/>
<text text-anchor="middle" x="185" y="-343.5" font-family="Helvetica,sans-Serif" font-size="10.00">validate_expressions.h</text>
</a>
</g>
</g>
<!-- Node3&#45;&gt;Node35 -->
<g id="edge27" class="edge">
<title>Node3&#45;&gt;Node35</title>
<path fill="none" stroke="midnightblue" d="M185,-392.08C185,-385.01 185,-374.86 185,-365.99"/>
<polygon fill="midnightblue" stroke="midnightblue" points="188.5,-365.75 185,-355.75 181.5,-365.75 188.5,-365.75"/>
</g>
<!-- Node36 -->
<g id="node21" class="node">
<title>Node36</title>
<g id="a_node21"><a xlink:title=" ">
<polygon fill="none" stroke="#bfbfbf" points="267.5,-336.5 267.5,-355.5 332.5,-355.5 332.5,-336.5 267.5,-336.5"/>
<text text-anchor="middle" x="300" y="-343.5" font-family="Helvetica,sans-Serif" font-size="10.00">functional</text>
</a>
</g>
</g>
<!-- Node3&#45;&gt;Node36 -->
<g id="edge30" class="edge">
<title>Node3&#45;&gt;Node36</title>
<path fill="none" stroke="midnightblue" d="M203.22,-392.44C221.9,-383.68 251.16,-369.94 272.62,-359.86"/>
<polygon fill="midnightblue" stroke="midnightblue" points="274.3,-362.93 281.86,-355.52 271.32,-356.6 274.3,-362.93"/>
</g>
<!-- Node6 -->
<g id="node6" class="node">
<title>Node6</title>
<g id="a_node6"><a xlink:href="source__location_8h.html" target="_top" xlink:title=" ">
<polygon fill="none" stroke="black" points="323,-168.5 323,-187.5 425,-187.5 425,-168.5 323,-168.5"/>
<text text-anchor="middle" x="374" y="-175.5" font-family="Helvetica,sans-Serif" font-size="10.00">source_location.h</text>
</a>
</g>
</g>
<!-- Node5&#45;&gt;Node6 -->
<g id="edge5" class="edge">
<title>Node5&#45;&gt;Node6</title>
<path fill="none" stroke="midnightblue" d="M374,-336.08C374,-309.95 374,-233.21 374,-197.58"/>
<polygon fill="midnightblue" stroke="midnightblue" points="377.5,-197.57 374,-187.57 370.5,-197.57 377.5,-197.57"/>
</g>
<!-- Node31 -->
<g id="node16" class="node">
<title>Node31</title>
<g id="a_node16"><a xlink:href="validate_8h.html" target="_top" xlink:title=" ">
<polygon fill="none" stroke="black" points="236.5,-280.5 236.5,-299.5 301.5,-299.5 301.5,-280.5 236.5,-280.5"/>
<text text-anchor="middle" x="269" y="-287.5" font-family="Helvetica,sans-Serif" font-size="10.00">validate.h</text>
</a>
</g>
</g>
<!-- Node5&#45;&gt;Node31 -->
<g id="edge18" class="edge">
<title>Node5&#45;&gt;Node31</title>
<path fill="none" stroke="midnightblue" d="M357.13,-336.32C340.29,-327.66 314.19,-314.24 294.76,-304.25"/>
<polygon fill="midnightblue" stroke="midnightblue" points="296.32,-301.12 285.83,-299.65 293.12,-307.34 296.32,-301.12"/>
</g>
<!-- Node5&#45;&gt;Node33 -->
<g id="edge26" class="edge">
<title>Node5&#45;&gt;Node33</title>
<path fill="none" stroke="midnightblue" d="M350.35,-338.26C315.07,-328.11 250.42,-309.12 228,-300 209.96,-292.66 206.4,-288.76 189,-280 167.48,-269.16 143,-257.07 124.85,-248.15"/>
<polygon fill="midnightblue" stroke="midnightblue" points="126,-244.82 115.48,-243.55 122.92,-251.1 126,-244.82"/>
</g>
<!-- Node5&#45;&gt;Node34 -->
<g id="edge25" class="edge">
<title>Node5&#45;&gt;Node34</title>
<path fill="none" stroke="midnightblue" d="M350.28,-338.15C347.5,-337.4 344.69,-336.66 342,-336 288.98,-322.9 227.91,-310.13 185.15,-301.56"/>
<polygon fill="midnightblue" stroke="midnightblue" points="185.73,-298.1 175.24,-299.58 184.36,-304.97 185.73,-298.1"/>
</g>
<!-- Node7 -->
<g id="node7" class="node">
<title>Node7</title>
<g id="a_node7"><a xlink:href="irep_8h.html" target="_top" xlink:title=" ">
<polygon fill="none" stroke="black" points="308,-112.5 308,-131.5 352,-131.5 352,-112.5 308,-112.5"/>
<text text-anchor="middle" x="330" y="-119.5" font-family="Helvetica,sans-Serif" font-size="10.00">irep.h</text>
</a>
</g>
</g>
<!-- Node6&#45;&gt;Node7 -->
<g id="edge6" class="edge">
<title>Node6&#45;&gt;Node7</title>
<path fill="none" stroke="midnightblue" d="M366.73,-168.08C360.46,-160.38 351.21,-149.03 343.57,-139.65"/>
<polygon fill="midnightblue" stroke="midnightblue" points="346.16,-137.29 337.13,-131.75 340.73,-141.71 346.16,-137.29"/>
</g>
<!-- Node8 -->
<g id="node8" class="node">
<title>Node8</title>
<g id="a_node8"><a xlink:title=" ">
<polygon fill="none" stroke="#bfbfbf" points="144,-0.5 144,-19.5 188,-19.5 188,-0.5 144,-0.5"/>
<text text-anchor="middle" x="166" y="-7.5" font-family="Helvetica,sans-Serif" font-size="10.00">string</text>
</a>
</g>
</g>
<!-- Node6&#45;&gt;Node8 -->
<g id="edge17" class="edge">
<title>Node6&#45;&gt;Node8</title>
<path fill="none" stroke="midnightblue" d="M395.56,-168.38C440.61,-149.19 537.38,-101.08 498,-56 459.34,-11.74 274.87,-9.32 198.85,-10.26"/>
<polygon fill="midnightblue" stroke="midnightblue" points="198.4,-6.76 188.46,-10.42 198.51,-13.76 198.4,-6.76"/>
</g>
<!-- Node29 -->
<g id="node14" class="node">
<title>Node29</title>
<g id="a_node14"><a xlink:href="optional_8h.html" target="_top" xlink:title=" ">
<polygon fill="none" stroke="black" points="557.5,-112.5 557.5,-131.5 622.5,-131.5 622.5,-112.5 557.5,-112.5"/>
<text text-anchor="middle" x="590" y="-119.5" font-family="Helvetica,sans-Serif" font-size="10.00">optional.h</text>
</a>
</g>
</g>
<!-- Node6&#45;&gt;Node29 -->
<g id="edge15" class="edge">
<title>Node6&#45;&gt;Node29</title>
<path fill="none" stroke="midnightblue" d="M408.23,-168.44C445.95,-159.01 506.68,-143.83 547.44,-133.64"/>
<polygon fill="midnightblue" stroke="midnightblue" points="548.5,-136.98 557.35,-131.16 546.8,-130.19 548.5,-136.98"/>
</g>
<!-- Node7&#45;&gt;Node8 -->
<g id="edge7" class="edge">
<title>Node7&#45;&gt;Node8</title>
<path fill="none" stroke="midnightblue" d="M307.64,-117.5C280.96,-112.37 236.18,-100.59 206,-76 190.79,-63.61 179.79,-43.81 173.22,-29.31"/>
<polygon fill="midnightblue" stroke="midnightblue" points="176.35,-27.72 169.23,-19.88 169.91,-30.45 176.35,-27.72"/>
</g>
<!-- Node9 -->
<g id="node9" class="node">
<title>Node9</title>
<g id="a_node9"><a xlink:title=" ">
<polygon fill="none" stroke="#bfbfbf" points="359.5,-56.5 359.5,-75.5 406.5,-75.5 406.5,-56.5 359.5,-56.5"/>
<text text-anchor="middle" x="383" y="-63.5" font-family="Helvetica,sans-Serif" font-size="10.00">vector</text>
</a>
</g>
</g>
<!-- Node7&#45;&gt;Node9 -->
<g id="edge8" class="edge">
<title>Node7&#45;&gt;Node9</title>
<path fill="none" stroke="midnightblue" d="M338.75,-112.08C346.47,-104.22 357.9,-92.57 367.22,-83.08"/>
<polygon fill="midnightblue" stroke="midnightblue" points="369.9,-85.34 374.41,-75.75 364.91,-80.44 369.9,-85.34"/>
</g>
<!-- Node7&#45;&gt;Node10 -->
<g id="edge9" class="edge">
<title>Node7&#45;&gt;Node10</title>
<path fill="none" stroke="midnightblue" d="M307.83,-116.11C267.74,-107.28 182.5,-88.49 129.84,-76.88"/>
<polygon fill="midnightblue" stroke="midnightblue" points="130.29,-73.4 119.77,-74.66 128.78,-80.23 130.29,-73.4"/>
</g>
<!-- Node14 -->
<g id="node12" class="node">
<title>Node14</title>
<g id="a_node12"><a xlink:href="irep__ids_8h.html" target="_top" xlink:title=" ">
<polygon fill="none" stroke="red" points="425,-56.5 425,-75.5 489,-75.5 489,-56.5 425,-56.5"/>
<text text-anchor="middle" x="457" y="-63.5" font-family="Helvetica,sans-Serif" font-size="10.00">irep_ids.h</text>
</a>
</g>
</g>
<!-- Node7&#45;&gt;Node14 -->
<g id="edge12" class="edge">
<title>Node7&#45;&gt;Node14</title>
<path fill="none" stroke="midnightblue" d="M350.12,-112.44C371.02,-103.56 403.93,-89.56 427.72,-79.45"/>
<polygon fill="midnightblue" stroke="midnightblue" points="429.14,-82.65 436.97,-75.52 426.4,-76.21 429.14,-82.65"/>
</g>
<!-- Node25 -->
<g id="node13" class="node">
<title>Node25</title>
<g id="a_node13"><a xlink:href="forward__list__as__map_8h.html" target="_top" xlink:title=" ">
<polygon fill="none" stroke="red" points="214.5,-56.5 214.5,-75.5 341.5,-75.5 341.5,-56.5 214.5,-56.5"/>
<text text-anchor="middle" x="278" y="-63.5" font-family="Helvetica,sans-Serif" font-size="10.00">forward_list_as_map.h</text>
</a>
</g>
</g>
<!-- Node7&#45;&gt;Node25 -->
<g id="edge13" class="edge">
<title>Node7&#45;&gt;Node25</title>
<path fill="none" stroke="midnightblue" d="M321.41,-112.08C313.84,-104.22 302.62,-92.57 293.49,-83.08"/>
<polygon fill="midnightblue" stroke="midnightblue" points="295.88,-80.53 286.43,-75.75 290.84,-85.38 295.88,-80.53"/>
</g>
<!-- Node10&#45;&gt;Node8 -->
<g id="edge10" class="edge">
<title>Node10&#45;&gt;Node8</title>
<path fill="none" stroke="midnightblue" d="M98.01,-56.32C110.53,-47.98 129.68,-35.21 144.47,-25.35"/>
<polygon fill="midnightblue" stroke="midnightblue" points="146.64,-28.11 153.02,-19.65 142.76,-22.29 146.64,-28.11"/>
</g>
<!-- Node13 -->
<g id="node11" class="node">
<title>Node13</title>
<g id="a_node11"><a xlink:title=" ">
<polygon fill="none" stroke="#bfbfbf" points="31.5,-0.5 31.5,-19.5 100.5,-19.5 100.5,-0.5 31.5,-0.5"/>
<text text-anchor="middle" x="66" y="-7.5" font-family="Helvetica,sans-Serif" font-size="10.00">type_traits</text>
</a>
</g>
</g>
<!-- Node10&#45;&gt;Node13 -->
<g id="edge11" class="edge">
<title>Node10&#45;&gt;Node13</title>
<path fill="none" stroke="midnightblue" d="M81.86,-56.08C79.32,-48.85 75.64,-38.41 72.47,-29.4"/>
<polygon fill="midnightblue" stroke="midnightblue" points="75.7,-28.02 69.08,-19.75 69.1,-30.35 75.7,-28.02"/>
</g>
<!-- Node25&#45;&gt;Node4 -->
<g id="edge14" class="edge">
<title>Node25&#45;&gt;Node4</title>
<path fill="none" stroke="midnightblue" d="M310.32,-56.44C345.39,-47.16 401.5,-32.31 439.96,-22.13"/>
<polygon fill="midnightblue" stroke="midnightblue" points="441.06,-25.46 449.83,-19.52 439.26,-18.69 441.06,-25.46"/>
</g>
<!-- Node30 -->
<g id="node15" class="node">
<title>Node30</title>
<g id="a_node15"><a xlink:title=" ">
<polygon fill="none" stroke="#bfbfbf" points="545.5,-56.5 545.5,-75.5 658.5,-75.5 658.5,-56.5 545.5,-56.5"/>
<text text-anchor="middle" x="602" y="-63.5" font-family="Helvetica,sans-Serif" font-size="10.00">nonstd/optional.hpp</text>
</a>
</g>
</g>
<!-- Node29&#45;&gt;Node30 -->
<g id="edge16" class="edge">
<title>Node29&#45;&gt;Node30</title>
<path fill="none" stroke="midnightblue" d="M591.98,-112.08C593.57,-104.93 595.86,-94.64 597.85,-85.69"/>
<polygon fill="midnightblue" stroke="midnightblue" points="601.3,-86.27 600.06,-75.75 594.47,-84.75 601.3,-86.27"/>
</g>
<!-- Node31&#45;&gt;Node13 -->
<g id="edge19" class="edge">
<title>Node31&#45;&gt;Node13</title>
<path fill="none" stroke="midnightblue" d="M254.28,-280.48C220.18,-260.56 136.94,-210.94 114,-188 71.98,-145.99 57.92,-132.96 41,-76 36.07,-59.4 44.48,-41.03 52.85,-28.06"/>
<polygon fill="midnightblue" stroke="midnightblue" points="55.85,-29.87 58.74,-19.68 50.13,-25.85 55.85,-29.87"/>
</g>
<!-- Node32 -->
<g id="node17" class="node">
<title>Node32</title>
<g id="a_node17"><a xlink:href="exception__utils_8h.html" target="_top" xlink:title=" ">
<polygon fill="none" stroke="black" points="214,-224.5 214,-243.5 314,-243.5 314,-224.5 214,-224.5"/>
<text text-anchor="middle" x="264" y="-231.5" font-family="Helvetica,sans-Serif" font-size="10.00">exception_utils.h</text>
</a>
</g>
</g>
<!-- Node31&#45;&gt;Node32 -->
<g id="edge20" class="edge">
<title>Node31&#45;&gt;Node32</title>
<path fill="none" stroke="midnightblue" d="M268.17,-280.08C267.52,-273.01 266.58,-262.86 265.76,-253.99"/>
<polygon fill="midnightblue" stroke="midnightblue" points="269.22,-253.39 264.81,-243.75 262.25,-254.03 269.22,-253.39"/>
</g>
<!-- Node31&#45;&gt;Node33 -->
<g id="edge24" class="edge">
<title>Node31&#45;&gt;Node33</title>
<path fill="none" stroke="midnightblue" d="M241.9,-280.44C213.01,-271.32 167.08,-256.81 134.89,-246.65"/>
<polygon fill="midnightblue" stroke="midnightblue" points="135.56,-243.19 124.97,-243.52 133.45,-249.87 135.56,-243.19"/>
</g>
<!-- Node32&#45;&gt;Node6 -->
<g id="edge23" class="edge">
<title>Node32&#45;&gt;Node6</title>
<path fill="none" stroke="midnightblue" d="M281.67,-224.32C299.39,-215.62 326.9,-202.12 347.29,-192.11"/>
<polygon fill="midnightblue" stroke="midnightblue" points="348.94,-195.2 356.37,-187.65 345.85,-188.92 348.94,-195.2"/>
</g>
<!-- Node32&#45;&gt;Node8 -->
<g id="edge21" class="edge">
<title>Node32&#45;&gt;Node8</title>
<path fill="none" stroke="midnightblue" d="M258.97,-224.41C245.51,-201.15 208.15,-134.77 185,-76 178.94,-60.62 173.8,-42.52 170.41,-29.33"/>
<polygon fill="midnightblue" stroke="midnightblue" points="173.79,-28.44 167.98,-19.58 167,-30.13 173.79,-28.44"/>
</g>
<!-- Node32&#45;&gt;Node10 -->
<g id="edge22" class="edge">
<title>Node32&#45;&gt;Node10</title>
<path fill="none" stroke="midnightblue" d="M213.72,-225.86C187.15,-219.77 155.65,-208.56 134,-188 104.65,-160.13 92.41,-112.26 87.68,-85.86"/>
<polygon fill="midnightblue" stroke="midnightblue" points="91.09,-85 86.05,-75.68 84.18,-86.11 91.09,-85"/>
</g>
</g>
</svg>
