<?xml version="1.0" encoding="UTF-8" standalone="no"?>
<!DOCTYPE svg PUBLIC "-//W3C//DTD SVG 1.1//EN"
 "http://www.w3.org/Graphics/SVG/1.1/DTD/svg11.dtd">
<!-- Generated by graphviz version 2.43.0 (0)
 -->
<!-- Title: /home/runner/work/cbmc&#45;documentation/cbmc&#45;documentation/src/cpp/cpp_declarator_converter.h Pages: 1 -->
<svg width="1124pt" height="128pt"
 viewBox="0.00 0.00 1124.00 128.00" xmlns="http://www.w3.org/2000/svg" xmlns:xlink="http://www.w3.org/1999/xlink">
<g id="graph0" class="graph" transform="scale(1 1) rotate(0) translate(4 124)">
<title>/home/runner/work/cbmc&#45;documentation/cbmc&#45;documentation/src/cpp/cpp_declarator_converter.h</title>
<!-- Node1 -->
<g id="node1" class="node">
<title>Node1</title>
<g id="a_node1"><a xlink:title=" ">
<polygon fill="#bfbfbf" stroke="black" points="453,-78.5 453,-119.5 653,-119.5 653,-78.5 453,-78.5"/>
<text text-anchor="start" x="461" y="-107.5" font-family="Helvetica,sans-Serif" font-size="10.00">/home/runner/work/cbmc</text>
<text text-anchor="start" x="461" y="-96.5" font-family="Helvetica,sans-Serif" font-size="10.00">&#45;documentation/cbmc&#45;documentation</text>
<text text-anchor="middle" x="553" y="-85.5" font-family="Helvetica,sans-Serif" font-size="10.00">/src/cpp/cpp_declarator_converter.h</text>
</a>
</g>
</g>
<!-- Node2 -->
<g id="node2" class="node">
<title>Node2</title>
<g id="a_node2"><a xlink:href="cpp__declarator__converter_8cpp.html" target="_top" xlink:title=" ">
<polygon fill="none" stroke="black" points="0,-0.5 0,-41.5 200,-41.5 200,-0.5 0,-0.5"/>
<text text-anchor="start" x="8" y="-29.5" font-family="Helvetica,sans-Serif" font-size="10.00">/home/runner/work/cbmc</text>
<text text-anchor="start" x="8" y="-18.5" font-family="Helvetica,sans-Serif" font-size="10.00">&#45;documentation/cbmc&#45;documentation</text>
<text text-anchor="middle" x="100" y="-7.5" font-family="Helvetica,sans-Serif" font-size="10.00">/src/cpp/cpp_declarator_converter.cpp</text>
</a>
</g>
</g>
<!-- Node1&#45;&gt;Node2 -->
<g id="edge1" class="edge">
<title>Node1&#45;&gt;Node2</title>
<path fill="none" stroke="midnightblue" d="M442.58,-80.6C375.06,-69.82 286.98,-55.5 209,-42 206.06,-41.49 203.08,-40.97 200.07,-40.44"/>
<polygon fill="midnightblue" stroke="midnightblue" points="442.38,-84.12 452.81,-82.23 443.49,-77.2 442.38,-84.12"/>
</g>
<!-- Node3 -->
<g id="node3" class="node">
<title>Node3</title>
<g id="a_node3"><a xlink:href="cpp__typecheck__code_8cpp.html" target="_top" xlink:title=" ">
<polygon fill="none" stroke="black" points="218,-0.5 218,-41.5 418,-41.5 418,-0.5 218,-0.5"/>
<text text-anchor="start" x="226" y="-29.5" font-family="Helvetica,sans-Serif" font-size="10.00">/home/runner/work/cbmc</text>
<text text-anchor="start" x="226" y="-18.5" font-family="Helvetica,sans-Serif" font-size="10.00">&#45;documentation/cbmc&#45;documentation</text>
<text text-anchor="middle" x="318" y="-7.5" font-family="Helvetica,sans-Serif" font-size="10.00">/src/cpp/cpp_typecheck_code.cpp</text>
</a>
</g>
</g>
<!-- Node1&#45;&gt;Node3 -->
<g id="edge2" class="edge">
<title>Node1&#45;&gt;Node3</title>
<path fill="none" stroke="midnightblue" d="M482.82,-75.3C449.56,-64.55 410.22,-51.82 378.31,-41.51"/>
<polygon fill="midnightblue" stroke="midnightblue" points="481.89,-78.68 492.48,-78.43 484.04,-72.02 481.89,-78.68"/>
</g>
<!-- Node4 -->
<g id="node4" class="node">
<title>Node4</title>
<g id="a_node4"><a xlink:href="cpp__typecheck__compound__type_8cpp.html" target="_top" xlink:title=" ">
<polygon fill="none" stroke="black" points="436.5,-0.5 436.5,-41.5 669.5,-41.5 669.5,-0.5 436.5,-0.5"/>
<text text-anchor="start" x="444.5" y="-29.5" font-family="Helvetica,sans-Serif" font-size="10.00">/home/runner/work/cbmc</text>
<text text-anchor="start" x="444.5" y="-18.5" font-family="Helvetica,sans-Serif" font-size="10.00">&#45;documentation/cbmc&#45;documentation</text>
<text text-anchor="middle" x="553" y="-7.5" font-family="Helvetica,sans-Serif" font-size="10.00">/src/cpp/cpp_typecheck_compound_type.cpp</text>
</a>
</g>
</g>
<!-- Node1&#45;&gt;Node4 -->
<g id="edge3" class="edge">
<title>Node1&#45;&gt;Node4</title>
<path fill="none" stroke="midnightblue" d="M553,-68.3C553,-59.3 553,-49.65 553,-41.51"/>
<polygon fill="midnightblue" stroke="midnightblue" points="549.5,-68.43 553,-78.43 556.5,-68.43 549.5,-68.43"/>
</g>
<!-- Node5 -->
<g id="node5" class="node">
<title>Node5</title>
<g id="a_node5"><a xlink:href="cpp__typecheck__declaration_8cpp.html" target="_top" xlink:title=" ">
<polygon fill="none" stroke="black" points="688,-0.5 688,-41.5 898,-41.5 898,-0.5 688,-0.5"/>
<text text-anchor="start" x="696" y="-29.5" font-family="Helvetica,sans-Serif" font-size="10.00">/home/runner/work/cbmc</text>
<text text-anchor="start" x="696" y="-18.5" font-family="Helvetica,sans-Serif" font-size="10.00">&#45;documentation/cbmc&#45;documentation</text>
<text text-anchor="middle" x="793" y="-7.5" font-family="Helvetica,sans-Serif" font-size="10.00">/src/cpp/cpp_typecheck_declaration.cpp</text>
</a>
</g>
</g>
<!-- Node1&#45;&gt;Node5 -->
<g id="edge4" class="edge">
<title>Node1&#45;&gt;Node5</title>
<path fill="none" stroke="midnightblue" d="M624.67,-75.3C658.64,-64.55 698.82,-51.82 731.4,-41.51"/>
<polygon fill="midnightblue" stroke="midnightblue" points="623.28,-72.07 614.81,-78.43 625.4,-78.75 623.28,-72.07"/>
</g>
<!-- Node6 -->
<g id="node6" class="node">
<title>Node6</title>
<g id="a_node6"><a xlink:href="cpp__typecheck__template_8cpp.html" target="_top" xlink:title=" ">
<polygon fill="none" stroke="black" points="916,-0.5 916,-41.5 1116,-41.5 1116,-0.5 916,-0.5"/>
<text text-anchor="start" x="924" y="-29.5" font-family="Helvetica,sans-Serif" font-size="10.00">/home/runner/work/cbmc</text>
<text text-anchor="start" x="924" y="-18.5" font-family="Helvetica,sans-Serif" font-size="10.00">&#45;documentation/cbmc&#45;documentation</text>
<text text-anchor="middle" x="1016" y="-7.5" font-family="Helvetica,sans-Serif" font-size="10.00">/src/cpp/cpp_typecheck_template.cpp</text>
</a>
</g>
</g>
<!-- Node1&#45;&gt;Node6 -->
<g id="edge5" class="edge">
<title>Node1&#45;&gt;Node6</title>
<path fill="none" stroke="midnightblue" d="M663.2,-81.28C733.12,-70.5 825.45,-55.93 907,-42 909.94,-41.5 912.92,-40.98 915.93,-40.46"/>
<polygon fill="midnightblue" stroke="midnightblue" points="662.4,-77.86 653.05,-82.84 663.47,-84.78 662.4,-77.86"/>
</g>
</g>
</svg>
