<?xml version="1.0" encoding="UTF-8" standalone="no"?>
<!DOCTYPE svg PUBLIC "-//W3C//DTD SVG 1.1//EN"
 "http://www.w3.org/Graphics/SVG/1.1/DTD/svg11.dtd">
<!-- Generated by graphviz version 2.43.0 (0)
 -->
<!-- Title: /home/runner/work/cbmc&#45;documentation/cbmc&#45;documentation/src/cpp/cpp_declaration.h Pages: 1 -->
<svg width="7734pt" height="373pt"
 viewBox="0.00 0.00 7734.00 373.00" xmlns="http://www.w3.org/2000/svg" xmlns:xlink="http://www.w3.org/1999/xlink">
<g id="graph0" class="graph" transform="scale(1 1) rotate(0) translate(4 369)">
<title>/home/runner/work/cbmc&#45;documentation/cbmc&#45;documentation/src/cpp/cpp_declaration.h</title>
<!-- Node1 -->
<g id="node1" class="node">
<title>Node1</title>
<g id="a_node1"><a xlink:title=" ">
<polygon fill="#bfbfbf" stroke="black" points="3629,-323.5 3629,-364.5 3829,-364.5 3829,-323.5 3629,-323.5"/>
<text text-anchor="start" x="3637" y="-352.5" font-family="Helvetica,sans-Serif" font-size="10.00">/home/runner/work/cbmc</text>
<text text-anchor="start" x="3637" y="-341.5" font-family="Helvetica,sans-Serif" font-size="10.00">&#45;documentation/cbmc&#45;documentation</text>
<text text-anchor="middle" x="3729" y="-330.5" font-family="Helvetica,sans-Serif" font-size="10.00">/src/cpp/cpp_declaration.h</text>
</a>
</g>
</g>
<!-- Node2 -->
<g id="node2" class="node">
<title>Node2</title>
<g id="a_node2"><a xlink:href="cpp__item_8h.html" target="_top" xlink:title=" ">
<polygon fill="none" stroke="black" points="3520,-245.5 3520,-286.5 3720,-286.5 3720,-245.5 3520,-245.5"/>
<text text-anchor="start" x="3528" y="-274.5" font-family="Helvetica,sans-Serif" font-size="10.00">/home/runner/work/cbmc</text>
<text text-anchor="start" x="3528" y="-263.5" font-family="Helvetica,sans-Serif" font-size="10.00">&#45;documentation/cbmc&#45;documentation</text>
<text text-anchor="middle" x="3620" y="-252.5" font-family="Helvetica,sans-Serif" font-size="10.00">/src/cpp/cpp_item.h</text>
</a>
</g>
</g>
<!-- Node1&#45;&gt;Node2 -->
<g id="edge1" class="edge">
<title>Node1&#45;&gt;Node2</title>
<path fill="none" stroke="midnightblue" d="M3692.62,-317.64C3678.07,-307.49 3661.57,-295.98 3647.98,-286.51"/>
<polygon fill="midnightblue" stroke="midnightblue" points="3690.73,-320.58 3700.93,-323.43 3694.73,-314.84 3690.73,-320.58"/>
</g>
<!-- Node43 -->
<g id="node43" class="node">
<title>Node43</title>
<g id="a_node43"><a xlink:href="cpp__convert__type_8cpp.html" target="_top" xlink:title=" ">
<polygon fill="none" stroke="black" points="3738,-245.5 3738,-286.5 3938,-286.5 3938,-245.5 3738,-245.5"/>
<text text-anchor="start" x="3746" y="-274.5" font-family="Helvetica,sans-Serif" font-size="10.00">/home/runner/work/cbmc</text>
<text text-anchor="start" x="3746" y="-263.5" font-family="Helvetica,sans-Serif" font-size="10.00">&#45;documentation/cbmc&#45;documentation</text>
<text text-anchor="middle" x="3838" y="-252.5" font-family="Helvetica,sans-Serif" font-size="10.00">/src/cpp/cpp_convert_type.cpp</text>
</a>
</g>
</g>
<!-- Node1&#45;&gt;Node43 -->
<g id="edge44" class="edge">
<title>Node1&#45;&gt;Node43</title>
<path fill="none" stroke="midnightblue" d="M3765.38,-317.64C3779.93,-307.49 3796.43,-295.98 3810.02,-286.51"/>
<polygon fill="midnightblue" stroke="midnightblue" points="3763.27,-314.84 3757.07,-323.43 3767.27,-320.58 3763.27,-314.84"/>
</g>
<!-- Node44 -->
<g id="node44" class="node">
<title>Node44</title>
<g id="a_node44"><a xlink:href="cpp__declaration_8cpp.html" target="_top" xlink:title=" ">
<polygon fill="none" stroke="black" points="3956,-245.5 3956,-286.5 4156,-286.5 4156,-245.5 3956,-245.5"/>
<text text-anchor="start" x="3964" y="-274.5" font-family="Helvetica,sans-Serif" font-size="10.00">/home/runner/work/cbmc</text>
<text text-anchor="start" x="3964" y="-263.5" font-family="Helvetica,sans-Serif" font-size="10.00">&#45;documentation/cbmc&#45;documentation</text>
<text text-anchor="middle" x="4056" y="-252.5" font-family="Helvetica,sans-Serif" font-size="10.00">/src/cpp/cpp_declaration.cpp</text>
</a>
</g>
</g>
<!-- Node1&#45;&gt;Node44 -->
<g id="edge45" class="edge">
<title>Node1&#45;&gt;Node44</title>
<path fill="none" stroke="midnightblue" d="M3823.09,-321.13C3870.12,-310.2 3926.54,-297.09 3972.07,-286.51"/>
<polygon fill="midnightblue" stroke="midnightblue" points="3822.16,-317.76 3813.21,-323.43 3823.74,-324.57 3822.16,-317.76"/>
</g>
<!-- Node45 -->
<g id="node45" class="node">
<title>Node45</title>
<g id="a_node45"><a xlink:href="cpp__declarator__converter_8h.html" target="_top" xlink:title=" ">
<polygon fill="none" stroke="black" points="573,-89.5 573,-130.5 773,-130.5 773,-89.5 573,-89.5"/>
<text text-anchor="start" x="581" y="-118.5" font-family="Helvetica,sans-Serif" font-size="10.00">/home/runner/work/cbmc</text>
<text text-anchor="start" x="581" y="-107.5" font-family="Helvetica,sans-Serif" font-size="10.00">&#45;documentation/cbmc&#45;documentation</text>
<text text-anchor="middle" x="673" y="-96.5" font-family="Helvetica,sans-Serif" font-size="10.00">/src/cpp/cpp_declarator_converter.h</text>
</a>
</g>
</g>
<!-- Node1&#45;&gt;Node45 -->
<g id="edge46" class="edge">
<title>Node1&#45;&gt;Node45</title>
<path fill="none" stroke="midnightblue" d="M3618.57,-334.62C3138.08,-298.14 1233.11,-153.52 773.28,-118.61"/>
<polygon fill="midnightblue" stroke="midnightblue" points="3618.39,-338.11 3628.63,-335.38 3618.92,-331.13 3618.39,-338.11"/>
</g>
<!-- Node3 -->
<g id="node3" class="node">
<title>Node3</title>
<g id="a_node3"><a xlink:href="cpp__parse__tree_8h.html" target="_top" xlink:title=" ">
<polygon fill="none" stroke="black" points="6218,-167.5 6218,-208.5 6418,-208.5 6418,-167.5 6218,-167.5"/>
<text text-anchor="start" x="6226" y="-196.5" font-family="Helvetica,sans-Serif" font-size="10.00">/home/runner/work/cbmc</text>
<text text-anchor="start" x="6226" y="-185.5" font-family="Helvetica,sans-Serif" font-size="10.00">&#45;documentation/cbmc&#45;documentation</text>
<text text-anchor="middle" x="6318" y="-174.5" font-family="Helvetica,sans-Serif" font-size="10.00">/src/cpp/cpp_parse_tree.h</text>
</a>
</g>
</g>
<!-- Node2&#45;&gt;Node3 -->
<g id="edge2" class="edge">
<title>Node2&#45;&gt;Node3</title>
<path fill="none" stroke="midnightblue" d="M3730.4,-244.96C4245.53,-194.42 5806.12,-189.46 6217.65,-189.03"/>
<polygon fill="midnightblue" stroke="midnightblue" points="3729.89,-241.5 3720.29,-245.98 3730.59,-248.46 3729.89,-241.5"/>
</g>
<!-- Node4 -->
<g id="node4" class="node">
<title>Node4</title>
<g id="a_node4"><a xlink:href="cpp__language_8h.html" target="_top" xlink:title=" ">
<polygon fill="none" stroke="black" points="6763,-89.5 6763,-130.5 6963,-130.5 6963,-89.5 6763,-89.5"/>
<text text-anchor="start" x="6771" y="-118.5" font-family="Helvetica,sans-Serif" font-size="10.00">/home/runner/work/cbmc</text>
<text text-anchor="start" x="6771" y="-107.5" font-family="Helvetica,sans-Serif" font-size="10.00">&#45;documentation/cbmc&#45;documentation</text>
<text text-anchor="middle" x="6863" y="-96.5" font-family="Helvetica,sans-Serif" font-size="10.00">/src/cpp/cpp_language.h</text>
</a>
</g>
</g>
<!-- Node3&#45;&gt;Node4 -->
<g id="edge3" class="edge">
<title>Node3&#45;&gt;Node4</title>
<path fill="none" stroke="midnightblue" d="M6428.21,-171.63C6526.16,-157.97 6668.11,-138.18 6762.87,-124.96"/>
<polygon fill="midnightblue" stroke="midnightblue" points="6427.7,-168.17 6418.28,-173.02 6428.67,-175.1 6427.7,-168.17"/>
</g>
<!-- Node11 -->
<g id="node11" class="node">
<title>Node11</title>
<g id="a_node11"><a xlink:href="cpp__typecheck_8h.html" target="_top" xlink:title=" ">
<polygon fill="none" stroke="black" points="3131,-89.5 3131,-130.5 3331,-130.5 3331,-89.5 3131,-89.5"/>
<text text-anchor="start" x="3139" y="-118.5" font-family="Helvetica,sans-Serif" font-size="10.00">/home/runner/work/cbmc</text>
<text text-anchor="start" x="3139" y="-107.5" font-family="Helvetica,sans-Serif" font-size="10.00">&#45;documentation/cbmc&#45;documentation</text>
<text text-anchor="middle" x="3231" y="-96.5" font-family="Helvetica,sans-Serif" font-size="10.00">/src/cpp/cpp_typecheck.h</text>
</a>
</g>
</g>
<!-- Node3&#45;&gt;Node11 -->
<g id="edge10" class="edge">
<title>Node3&#45;&gt;Node11</title>
<path fill="none" stroke="midnightblue" d="M6207.8,-184.29C5724.32,-172.38 3794.43,-124.87 3331.29,-113.47"/>
<polygon fill="midnightblue" stroke="midnightblue" points="6207.83,-187.79 6217.92,-184.54 6208.01,-180.79 6207.83,-187.79"/>
</g>
<!-- Node39 -->
<g id="node39" class="node">
<title>Node39</title>
<g id="a_node39"><a xlink:href="cpp__parser_8h.html" target="_top" xlink:title=" ">
<polygon fill="none" stroke="black" points="6218,-89.5 6218,-130.5 6418,-130.5 6418,-89.5 6218,-89.5"/>
<text text-anchor="start" x="6226" y="-118.5" font-family="Helvetica,sans-Serif" font-size="10.00">/home/runner/work/cbmc</text>
<text text-anchor="start" x="6226" y="-107.5" font-family="Helvetica,sans-Serif" font-size="10.00">&#45;documentation/cbmc&#45;documentation</text>
<text text-anchor="middle" x="6318" y="-96.5" font-family="Helvetica,sans-Serif" font-size="10.00">/src/cpp/cpp_parser.h</text>
</a>
</g>
</g>
<!-- Node3&#45;&gt;Node39 -->
<g id="edge39" class="edge">
<title>Node3&#45;&gt;Node39</title>
<path fill="none" stroke="midnightblue" d="M6318,-157.3C6318,-148.3 6318,-138.65 6318,-130.51"/>
<polygon fill="midnightblue" stroke="midnightblue" points="6314.5,-157.43 6318,-167.43 6321.5,-157.43 6314.5,-157.43"/>
</g>
<!-- Node42 -->
<g id="node42" class="node">
<title>Node42</title>
<g id="a_node42"><a xlink:href="cpp__parse__tree_8cpp.html" target="_top" xlink:title=" ">
<polygon fill="none" stroke="black" points="6981,-89.5 6981,-130.5 7181,-130.5 7181,-89.5 6981,-89.5"/>
<text text-anchor="start" x="6989" y="-118.5" font-family="Helvetica,sans-Serif" font-size="10.00">/home/runner/work/cbmc</text>
<text text-anchor="start" x="6989" y="-107.5" font-family="Helvetica,sans-Serif" font-size="10.00">&#45;documentation/cbmc&#45;documentation</text>
<text text-anchor="middle" x="7081" y="-96.5" font-family="Helvetica,sans-Serif" font-size="10.00">/src/cpp/cpp_parse_tree.cpp</text>
</a>
</g>
</g>
<!-- Node3&#45;&gt;Node42 -->
<g id="edge43" class="edge">
<title>Node3&#45;&gt;Node42</title>
<path fill="none" stroke="midnightblue" d="M6428.03,-180.81C6558.29,-172.75 6781.57,-156.56 6972,-131 6974.96,-130.6 6977.95,-130.18 6980.98,-129.74"/>
<polygon fill="midnightblue" stroke="midnightblue" points="6427.81,-177.32 6418.05,-181.43 6428.24,-184.31 6427.81,-177.32"/>
</g>
<!-- Node5 -->
<g id="node5" class="node">
<title>Node5</title>
<g id="a_node5"><a xlink:href="cbmc__languages_8cpp.html" target="_top" xlink:title=" ">
<polygon fill="none" stroke="black" points="6654,-6 6654,-47 6854,-47 6854,-6 6654,-6"/>
<text text-anchor="start" x="6662" y="-35" font-family="Helvetica,sans-Serif" font-size="10.00">/home/runner/work/cbmc</text>
<text text-anchor="start" x="6662" y="-24" font-family="Helvetica,sans-Serif" font-size="10.00">&#45;documentation/cbmc&#45;documentation</text>
<text text-anchor="middle" x="6754" y="-13" font-family="Helvetica,sans-Serif" font-size="10.00">/src/cbmc/cbmc_languages.cpp</text>
</a>
</g>
</g>
<!-- Node4&#45;&gt;Node5 -->
<g id="edge4" class="edge">
<title>Node4&#45;&gt;Node5</title>
<path fill="none" stroke="midnightblue" d="M6828.52,-83.22C6812.91,-71.55 6794.76,-57.97 6780.27,-47.14"/>
<polygon fill="midnightblue" stroke="midnightblue" points="6826.79,-86.29 6836.89,-89.48 6830.98,-80.69 6826.79,-86.29"/>
</g>
<!-- Node6 -->
<g id="node6" class="node">
<title>Node6</title>
<g id="a_node6"><a xlink:href="cpp__language_8cpp.html" target="_top" xlink:title=" ">
<polygon fill="none" stroke="black" points="6000,-6 6000,-47 6200,-47 6200,-6 6000,-6"/>
<text text-anchor="start" x="6008" y="-35" font-family="Helvetica,sans-Serif" font-size="10.00">/home/runner/work/cbmc</text>
<text text-anchor="start" x="6008" y="-24" font-family="Helvetica,sans-Serif" font-size="10.00">&#45;documentation/cbmc&#45;documentation</text>
<text text-anchor="middle" x="6100" y="-13" font-family="Helvetica,sans-Serif" font-size="10.00">/src/cpp/cpp_language.cpp</text>
</a>
</g>
</g>
<!-- Node4&#45;&gt;Node6 -->
<g id="edge5" class="edge">
<title>Node4&#45;&gt;Node6</title>
<path fill="none" stroke="midnightblue" d="M6752.73,-104.42C6622.25,-97.88 6398.76,-83.16 6209,-53 6198.73,-51.37 6187.99,-49.3 6177.43,-47.06"/>
<polygon fill="midnightblue" stroke="midnightblue" points="6752.58,-107.92 6762.74,-104.92 6752.92,-100.93 6752.58,-107.92"/>
</g>
<!-- Node7 -->
<g id="node7" class="node">
<title>Node7</title>
<g id="a_node7"><a xlink:href="goto__analyzer__languages_8cpp.html" target="_top" xlink:title=" ">
<polygon fill="none" stroke="black" points="6872,-0.5 6872,-52.5 7072,-52.5 7072,-0.5 6872,-0.5"/>
<text text-anchor="start" x="6880" y="-40.5" font-family="Helvetica,sans-Serif" font-size="10.00">/home/runner/work/cbmc</text>
<text text-anchor="start" x="6880" y="-29.5" font-family="Helvetica,sans-Serif" font-size="10.00">&#45;documentation/cbmc&#45;documentation</text>
<text text-anchor="start" x="6880" y="-18.5" font-family="Helvetica,sans-Serif" font-size="10.00">/src/goto&#45;analyzer/goto_analyzer</text>
<text text-anchor="middle" x="6972" y="-7.5" font-family="Helvetica,sans-Serif" font-size="10.00">_languages.cpp</text>
</a>
</g>
</g>
<!-- Node4&#45;&gt;Node7 -->
<g id="edge6" class="edge">
<title>Node4&#45;&gt;Node7</title>
<path fill="none" stroke="midnightblue" d="M6897.39,-83.29C6910.43,-73.53 6925.27,-62.44 6938.26,-52.73"/>
<polygon fill="midnightblue" stroke="midnightblue" points="6895.02,-80.69 6889.11,-89.48 6899.21,-86.29 6895.02,-80.69"/>
</g>
<!-- Node8 -->
<g id="node8" class="node">
<title>Node8</title>
<g id="a_node8"><a xlink:href="goto__cc__languages_8cpp.html" target="_top" xlink:title=" ">
<polygon fill="none" stroke="black" points="7090,-6 7090,-47 7290,-47 7290,-6 7090,-6"/>
<text text-anchor="start" x="7098" y="-35" font-family="Helvetica,sans-Serif" font-size="10.00">/home/runner/work/cbmc</text>
<text text-anchor="start" x="7098" y="-24" font-family="Helvetica,sans-Serif" font-size="10.00">&#45;documentation/cbmc&#45;documentation</text>
<text text-anchor="middle" x="7190" y="-13" font-family="Helvetica,sans-Serif" font-size="10.00">/src/goto&#45;cc/goto_cc_languages.cpp</text>
</a>
</g>
</g>
<!-- Node4&#45;&gt;Node8 -->
<g id="edge7" class="edge">
<title>Node4&#45;&gt;Node8</title>
<path fill="none" stroke="midnightblue" d="M6951.17,-87.02C7001.25,-74.54 7063.4,-59.05 7111.75,-47"/>
<polygon fill="midnightblue" stroke="midnightblue" points="6950.18,-83.66 6941.32,-89.48 6951.87,-90.46 6950.18,-83.66"/>
</g>
<!-- Node9 -->
<g id="node9" class="node">
<title>Node9</title>
<g id="a_node9"><a xlink:href="goto__diff__languages_8cpp.html" target="_top" xlink:title=" ">
<polygon fill="none" stroke="black" points="7308,-6 7308,-47 7508,-47 7508,-6 7308,-6"/>
<text text-anchor="start" x="7316" y="-35" font-family="Helvetica,sans-Serif" font-size="10.00">/home/runner/work/cbmc</text>
<text text-anchor="start" x="7316" y="-24" font-family="Helvetica,sans-Serif" font-size="10.00">&#45;documentation/cbmc&#45;documentation</text>
<text text-anchor="middle" x="7408" y="-13" font-family="Helvetica,sans-Serif" font-size="10.00">/src/goto&#45;diff/goto_diff_languages.cpp</text>
</a>
</g>
</g>
<!-- Node4&#45;&gt;Node9 -->
<g id="edge8" class="edge">
<title>Node4&#45;&gt;Node9</title>
<path fill="none" stroke="midnightblue" d="M6973.22,-88.88C7118.44,-68.22 7158.13,-77.14 7299,-53 7308.96,-51.29 7319.37,-49.23 7329.64,-47.02"/>
<polygon fill="midnightblue" stroke="midnightblue" points="6972.43,-85.46 6963.04,-90.36 6973.44,-92.39 6972.43,-85.46"/>
</g>
<!-- Node10 -->
<g id="node10" class="node">
<title>Node10</title>
<g id="a_node10"><a xlink:href="goto__instrument__languages_8cpp.html" target="_top" xlink:title=" ">
<polygon fill="none" stroke="black" points="7526,-0.5 7526,-52.5 7726,-52.5 7726,-0.5 7526,-0.5"/>
<text text-anchor="start" x="7534" y="-40.5" font-family="Helvetica,sans-Serif" font-size="10.00">/home/runner/work/cbmc</text>
<text text-anchor="start" x="7534" y="-29.5" font-family="Helvetica,sans-Serif" font-size="10.00">&#45;documentation/cbmc&#45;documentation</text>
<text text-anchor="start" x="7534" y="-18.5" font-family="Helvetica,sans-Serif" font-size="10.00">/src/goto&#45;instrument/goto_instrument</text>
<text text-anchor="middle" x="7626" y="-7.5" font-family="Helvetica,sans-Serif" font-size="10.00">_languages.cpp</text>
</a>
</g>
</g>
<!-- Node4&#45;&gt;Node10 -->
<g id="edge9" class="edge">
<title>Node4&#45;&gt;Node10</title>
<path fill="none" stroke="midnightblue" d="M6973.16,-88.94C7214.68,-59.85 7280.18,-88.28 7517,-53 7519.88,-52.57 7522.8,-52.1 7525.74,-51.61"/>
<polygon fill="midnightblue" stroke="midnightblue" points="6972.51,-85.49 6963.01,-90.19 6973.37,-92.44 6972.51,-85.49"/>
</g>
<!-- Node11&#45;&gt;Node6 -->
<g id="edge16" class="edge">
<title>Node11&#45;&gt;Node6</title>
<path fill="none" stroke="midnightblue" d="M3341.31,-108.13C3822.48,-104.14 5725.49,-86.38 5991,-53 6002.38,-51.57 6014.3,-49.44 6025.91,-47.02"/>
<polygon fill="midnightblue" stroke="midnightblue" points="3341.2,-104.63 3331.23,-108.21 3341.26,-111.63 3341.2,-104.63"/>
</g>
<!-- Node12 -->
<g id="node12" class="node">
<title>Node12</title>
<g id="a_node12"><a xlink:href="cpp__constructor_8cpp.html" target="_top" xlink:title=" ">
<polygon fill="none" stroke="black" points="1134,-6 1134,-47 1334,-47 1334,-6 1134,-6"/>
<text text-anchor="start" x="1142" y="-35" font-family="Helvetica,sans-Serif" font-size="10.00">/home/runner/work/cbmc</text>
<text text-anchor="start" x="1142" y="-24" font-family="Helvetica,sans-Serif" font-size="10.00">&#45;documentation/cbmc&#45;documentation</text>
<text text-anchor="middle" x="1234" y="-13" font-family="Helvetica,sans-Serif" font-size="10.00">/src/cpp/cpp_constructor.cpp</text>
</a>
</g>
</g>
<!-- Node11&#45;&gt;Node12 -->
<g id="edge11" class="edge">
<title>Node11&#45;&gt;Node12</title>
<path fill="none" stroke="midnightblue" d="M3120.66,-108.63C2770.98,-106.98 1690.05,-98.28 1343,-53 1331.82,-51.54 1320.12,-49.44 1308.69,-47.05"/>
<polygon fill="midnightblue" stroke="midnightblue" points="3120.78,-112.13 3130.79,-108.67 3120.81,-105.13 3120.78,-112.13"/>
</g>
<!-- Node13 -->
<g id="node13" class="node">
<title>Node13</title>
<g id="a_node13"><a xlink:href="cpp__declarator__converter_8cpp.html" target="_top" xlink:title=" ">
<polygon fill="none" stroke="black" points="0,-6 0,-47 200,-47 200,-6 0,-6"/>
<text text-anchor="start" x="8" y="-35" font-family="Helvetica,sans-Serif" font-size="10.00">/home/runner/work/cbmc</text>
<text text-anchor="start" x="8" y="-24" font-family="Helvetica,sans-Serif" font-size="10.00">&#45;documentation/cbmc&#45;documentation</text>
<text text-anchor="middle" x="100" y="-13" font-family="Helvetica,sans-Serif" font-size="10.00">/src/cpp/cpp_declarator_converter.cpp</text>
</a>
</g>
</g>
<!-- Node11&#45;&gt;Node13 -->
<g id="edge12" class="edge">
<title>Node11&#45;&gt;Node13</title>
<path fill="none" stroke="midnightblue" d="M3120.51,-108.34C2611.12,-105.09 501.67,-89.53 209,-53 197.62,-51.58 185.7,-49.46 174.09,-47.04"/>
<polygon fill="midnightblue" stroke="midnightblue" points="3120.77,-111.84 3130.8,-108.4 3120.82,-104.84 3120.77,-111.84"/>
</g>
<!-- Node14 -->
<g id="node14" class="node">
<title>Node14</title>
<g id="a_node14"><a xlink:href="cpp__destructor_8cpp.html" target="_top" xlink:title=" ">
<polygon fill="none" stroke="black" points="1352,-6 1352,-47 1552,-47 1552,-6 1352,-6"/>
<text text-anchor="start" x="1360" y="-35" font-family="Helvetica,sans-Serif" font-size="10.00">/home/runner/work/cbmc</text>
<text text-anchor="start" x="1360" y="-24" font-family="Helvetica,sans-Serif" font-size="10.00">&#45;documentation/cbmc&#45;documentation</text>
<text text-anchor="middle" x="1452" y="-13" font-family="Helvetica,sans-Serif" font-size="10.00">/src/cpp/cpp_destructor.cpp</text>
</a>
</g>
</g>
<!-- Node11&#45;&gt;Node14 -->
<g id="edge13" class="edge">
<title>Node11&#45;&gt;Node14</title>
<path fill="none" stroke="midnightblue" d="M3120.58,-108.12C2798.5,-105.12 1863.81,-93.1 1561,-53 1549.83,-51.52 1538.12,-49.4 1526.7,-47.01"/>
<polygon fill="midnightblue" stroke="midnightblue" points="3120.82,-111.63 3130.85,-108.22 3120.89,-104.63 3120.82,-111.63"/>
</g>
<!-- Node15 -->
<g id="node15" class="node">
<title>Node15</title>
<g id="a_node15"><a xlink:href="cpp__instantiate__template_8cpp.html" target="_top" xlink:title=" ">
<polygon fill="none" stroke="black" points="1570,-6 1570,-47 1772,-47 1772,-6 1570,-6"/>
<text text-anchor="start" x="1578" y="-35" font-family="Helvetica,sans-Serif" font-size="10.00">/home/runner/work/cbmc</text>
<text text-anchor="start" x="1578" y="-24" font-family="Helvetica,sans-Serif" font-size="10.00">&#45;documentation/cbmc&#45;documentation</text>
<text text-anchor="middle" x="1671" y="-13" font-family="Helvetica,sans-Serif" font-size="10.00">/src/cpp/cpp_instantiate_template.cpp</text>
</a>
</g>
</g>
<!-- Node11&#45;&gt;Node15 -->
<g id="edge14" class="edge">
<title>Node11&#45;&gt;Node15</title>
<path fill="none" stroke="midnightblue" d="M3120.56,-107.44C2828.32,-102.88 2039.49,-87.64 1781,-53 1769.83,-51.5 1758.12,-49.39 1746.69,-47.02"/>
<polygon fill="midnightblue" stroke="midnightblue" points="3120.69,-110.94 3130.75,-107.6 3120.8,-103.94 3120.69,-110.94"/>
</g>
<!-- Node16 -->
<g id="node16" class="node">
<title>Node16</title>
<g id="a_node16"><a xlink:href="cpp__is__pod_8cpp.html" target="_top" xlink:title=" ">
<polygon fill="none" stroke="black" points="1790,-6 1790,-47 1990,-47 1990,-6 1790,-6"/>
<text text-anchor="start" x="1798" y="-35" font-family="Helvetica,sans-Serif" font-size="10.00">/home/runner/work/cbmc</text>
<text text-anchor="start" x="1798" y="-24" font-family="Helvetica,sans-Serif" font-size="10.00">&#45;documentation/cbmc&#45;documentation</text>
<text text-anchor="middle" x="1890" y="-13" font-family="Helvetica,sans-Serif" font-size="10.00">/src/cpp/cpp_is_pod.cpp</text>
</a>
</g>
</g>
<!-- Node11&#45;&gt;Node16 -->
<g id="edge15" class="edge">
<title>Node11&#45;&gt;Node16</title>
<path fill="none" stroke="midnightblue" d="M3120.37,-106.59C2859.9,-100.48 2213.78,-82.75 1999,-53 1988.03,-51.48 1976.54,-49.37 1965.3,-47.02"/>
<polygon fill="midnightblue" stroke="midnightblue" points="3120.53,-110.09 3130.61,-106.82 3120.69,-103.09 3120.53,-110.09"/>
</g>
<!-- Node17 -->
<g id="node17" class="node">
<title>Node17</title>
<g id="a_node17"><a xlink:href="cpp__typecheck_8cpp.html" target="_top" xlink:title=" ">
<polygon fill="none" stroke="black" points="2008,-6 2008,-47 2208,-47 2208,-6 2008,-6"/>
<text text-anchor="start" x="2016" y="-35" font-family="Helvetica,sans-Serif" font-size="10.00">/home/runner/work/cbmc</text>
<text text-anchor="start" x="2016" y="-24" font-family="Helvetica,sans-Serif" font-size="10.00">&#45;documentation/cbmc&#45;documentation</text>
<text text-anchor="middle" x="2108" y="-13" font-family="Helvetica,sans-Serif" font-size="10.00">/src/cpp/cpp_typecheck.cpp</text>
</a>
</g>
</g>
<!-- Node11&#45;&gt;Node17 -->
<g id="edge17" class="edge">
<title>Node11&#45;&gt;Node17</title>
<path fill="none" stroke="midnightblue" d="M3120.65,-109.19C2933.71,-108.11 2543.25,-99.8 2217,-53 2206.23,-51.45 2194.95,-49.36 2183.91,-47.04"/>
<polygon fill="midnightblue" stroke="midnightblue" points="3120.74,-112.69 3130.76,-109.24 3120.78,-105.69 3120.74,-112.69"/>
</g>
<!-- Node18 -->
<g id="node18" class="node">
<title>Node18</title>
<g id="a_node18"><a xlink:href="cpp__typecheck__bases_8cpp.html" target="_top" xlink:title=" ">
<polygon fill="none" stroke="black" points="2226,-6 2226,-47 2426,-47 2426,-6 2226,-6"/>
<text text-anchor="start" x="2234" y="-35" font-family="Helvetica,sans-Serif" font-size="10.00">/home/runner/work/cbmc</text>
<text text-anchor="start" x="2234" y="-24" font-family="Helvetica,sans-Serif" font-size="10.00">&#45;documentation/cbmc&#45;documentation</text>
<text text-anchor="middle" x="2326" y="-13" font-family="Helvetica,sans-Serif" font-size="10.00">/src/cpp/cpp_typecheck_bases.cpp</text>
</a>
</g>
</g>
<!-- Node11&#45;&gt;Node18 -->
<g id="edge18" class="edge">
<title>Node11&#45;&gt;Node18</title>
<path fill="none" stroke="midnightblue" d="M3120.43,-106.79C2966.14,-102.43 2677.87,-89.71 2435,-53 2424.43,-51.4 2413.37,-49.31 2402.52,-47.02"/>
<polygon fill="midnightblue" stroke="midnightblue" points="3120.76,-110.3 3130.85,-107.07 3120.95,-103.3 3120.76,-110.3"/>
</g>
<!-- Node19 -->
<g id="node19" class="node">
<title>Node19</title>
<g id="a_node19"><a xlink:href="cpp__typecheck__code_8cpp.html" target="_top" xlink:title=" ">
<polygon fill="none" stroke="black" points="218,-6 218,-47 418,-47 418,-6 218,-6"/>
<text text-anchor="start" x="226" y="-35" font-family="Helvetica,sans-Serif" font-size="10.00">/home/runner/work/cbmc</text>
<text text-anchor="start" x="226" y="-24" font-family="Helvetica,sans-Serif" font-size="10.00">&#45;documentation/cbmc&#45;documentation</text>
<text text-anchor="middle" x="318" y="-13" font-family="Helvetica,sans-Serif" font-size="10.00">/src/cpp/cpp_typecheck_code.cpp</text>
</a>
</g>
</g>
<!-- Node11&#45;&gt;Node19 -->
<g id="edge19" class="edge">
<title>Node11&#45;&gt;Node19</title>
<path fill="none" stroke="midnightblue" d="M3120.56,-108.16C2634.39,-104.3 697.05,-86.9 427,-53 415.62,-51.57 403.7,-49.45 392.09,-47.02"/>
<polygon fill="midnightblue" stroke="midnightblue" points="3120.71,-111.67 3130.74,-108.25 3120.76,-104.67 3120.71,-111.67"/>
</g>
<!-- Node20 -->
<g id="node20" class="node">
<title>Node20</title>
<g id="a_node20"><a xlink:href="cpp__typecheck__compound__type_8cpp.html" target="_top" xlink:title=" ">
<polygon fill="none" stroke="black" points="436.5,-6 436.5,-47 669.5,-47 669.5,-6 436.5,-6"/>
<text text-anchor="start" x="444.5" y="-35" font-family="Helvetica,sans-Serif" font-size="10.00">/home/runner/work/cbmc</text>
<text text-anchor="start" x="444.5" y="-24" font-family="Helvetica,sans-Serif" font-size="10.00">&#45;documentation/cbmc&#45;documentation</text>
<text text-anchor="middle" x="553" y="-13" font-family="Helvetica,sans-Serif" font-size="10.00">/src/cpp/cpp_typecheck_compound_type.cpp</text>
</a>
</g>
</g>
<!-- Node11&#45;&gt;Node20 -->
<g id="edge20" class="edge">
<title>Node11&#45;&gt;Node20</title>
<path fill="none" stroke="midnightblue" d="M3120.53,-109.19C2695.14,-109.51 1162.73,-106.82 679,-53 666.02,-51.56 652.4,-49.44 639.1,-47.04"/>
<polygon fill="midnightblue" stroke="midnightblue" points="3120.68,-112.69 3130.68,-109.18 3120.67,-105.69 3120.68,-112.69"/>
</g>
<!-- Node21 -->
<g id="node21" class="node">
<title>Node21</title>
<g id="a_node21"><a xlink:href="cpp__typecheck__constructor_8cpp.html" target="_top" xlink:title=" ">
<polygon fill="none" stroke="black" points="2444.5,-6 2444.5,-47 2653.5,-47 2653.5,-6 2444.5,-6"/>
<text text-anchor="start" x="2452.5" y="-35" font-family="Helvetica,sans-Serif" font-size="10.00">/home/runner/work/cbmc</text>
<text text-anchor="start" x="2452.5" y="-24" font-family="Helvetica,sans-Serif" font-size="10.00">&#45;documentation/cbmc&#45;documentation</text>
<text text-anchor="middle" x="2549" y="-13" font-family="Helvetica,sans-Serif" font-size="10.00">/src/cpp/cpp_typecheck_constructor.cpp</text>
</a>
</g>
</g>
<!-- Node11&#45;&gt;Node21 -->
<g id="edge21" class="edge">
<title>Node11&#45;&gt;Node21</title>
<path fill="none" stroke="midnightblue" d="M3120.54,-102.11C3005.71,-94.01 2821.01,-78.36 2663,-53 2652.49,-51.31 2641.49,-49.24 2630.65,-47.02"/>
<polygon fill="midnightblue" stroke="midnightblue" points="3120.52,-105.62 3130.74,-102.82 3121.01,-98.63 3120.52,-105.62"/>
</g>
<!-- Node22 -->
<g id="node22" class="node">
<title>Node22</title>
<g id="a_node22"><a xlink:href="cpp__typecheck__conversions_8cpp.html" target="_top" xlink:title=" ">
<polygon fill="none" stroke="black" points="2672,-6 2672,-47 2886,-47 2886,-6 2672,-6"/>
<text text-anchor="start" x="2680" y="-35" font-family="Helvetica,sans-Serif" font-size="10.00">/home/runner/work/cbmc</text>
<text text-anchor="start" x="2680" y="-24" font-family="Helvetica,sans-Serif" font-size="10.00">&#45;documentation/cbmc&#45;documentation</text>
<text text-anchor="middle" x="2779" y="-13" font-family="Helvetica,sans-Serif" font-size="10.00">/src/cpp/cpp_typecheck_conversions.cpp</text>
</a>
</g>
</g>
<!-- Node11&#45;&gt;Node22 -->
<g id="edge22" class="edge">
<title>Node11&#45;&gt;Node22</title>
<path fill="none" stroke="midnightblue" d="M3120.82,-92.1C3055.11,-81.65 2970.11,-67.51 2895,-53 2885.48,-51.16 2875.55,-49.14 2865.68,-47.06"/>
<polygon fill="midnightblue" stroke="midnightblue" points="3120.36,-95.57 3130.78,-93.67 3121.46,-88.65 3120.36,-95.57"/>
</g>
<!-- Node23 -->
<g id="node23" class="node">
<title>Node23</title>
<g id="a_node23"><a xlink:href="cpp__typecheck__declaration_8cpp.html" target="_top" xlink:title=" ">
<polygon fill="none" stroke="black" points="688,-6 688,-47 898,-47 898,-6 688,-6"/>
<text text-anchor="start" x="696" y="-35" font-family="Helvetica,sans-Serif" font-size="10.00">/home/runner/work/cbmc</text>
<text text-anchor="start" x="696" y="-24" font-family="Helvetica,sans-Serif" font-size="10.00">&#45;documentation/cbmc&#45;documentation</text>
<text text-anchor="middle" x="793" y="-13" font-family="Helvetica,sans-Serif" font-size="10.00">/src/cpp/cpp_typecheck_declaration.cpp</text>
</a>
</g>
</g>
<!-- Node11&#45;&gt;Node23 -->
<g id="edge23" class="edge">
<title>Node11&#45;&gt;Node23</title>
<path fill="none" stroke="midnightblue" d="M3120.74,-109.21C2720.28,-109.51 1343.38,-106.54 907,-53 895.22,-51.56 882.88,-49.44 870.83,-47.03"/>
<polygon fill="midnightblue" stroke="midnightblue" points="3120.88,-112.71 3130.88,-109.2 3120.87,-105.71 3120.88,-112.71"/>
</g>
<!-- Node24 -->
<g id="node24" class="node">
<title>Node24</title>
<g id="a_node24"><a xlink:href="cpp__typecheck__destructor_8cpp.html" target="_top" xlink:title=" ">
<polygon fill="none" stroke="black" points="2904,-6 2904,-47 3108,-47 3108,-6 2904,-6"/>
<text text-anchor="start" x="2912" y="-35" font-family="Helvetica,sans-Serif" font-size="10.00">/home/runner/work/cbmc</text>
<text text-anchor="start" x="2912" y="-24" font-family="Helvetica,sans-Serif" font-size="10.00">&#45;documentation/cbmc&#45;documentation</text>
<text text-anchor="middle" x="3006" y="-13" font-family="Helvetica,sans-Serif" font-size="10.00">/src/cpp/cpp_typecheck_destructor.cpp</text>
</a>
</g>
</g>
<!-- Node11&#45;&gt;Node24 -->
<g id="edge24" class="edge">
<title>Node11&#45;&gt;Node24</title>
<path fill="none" stroke="midnightblue" d="M3167.29,-85.92C3133.38,-73.64 3092.14,-58.7 3059.84,-47"/>
<polygon fill="midnightblue" stroke="midnightblue" points="3166.51,-89.36 3177.11,-89.48 3168.9,-82.78 3166.51,-89.36"/>
</g>
<!-- Node25 -->
<g id="node25" class="node">
<title>Node25</title>
<g id="a_node25"><a xlink:href="cpp__typecheck__enum__type_8cpp.html" target="_top" xlink:title=" ">
<polygon fill="none" stroke="black" points="3126,-6 3126,-47 3336,-47 3336,-6 3126,-6"/>
<text text-anchor="start" x="3134" y="-35" font-family="Helvetica,sans-Serif" font-size="10.00">/home/runner/work/cbmc</text>
<text text-anchor="start" x="3134" y="-24" font-family="Helvetica,sans-Serif" font-size="10.00">&#45;documentation/cbmc&#45;documentation</text>
<text text-anchor="middle" x="3231" y="-13" font-family="Helvetica,sans-Serif" font-size="10.00">/src/cpp/cpp_typecheck_enum_type.cpp</text>
</a>
</g>
</g>
<!-- Node11&#45;&gt;Node25 -->
<g id="edge25" class="edge">
<title>Node11&#45;&gt;Node25</title>
<path fill="none" stroke="midnightblue" d="M3231,-79.06C3231,-68.38 3231,-56.63 3231,-47.05"/>
<polygon fill="midnightblue" stroke="midnightblue" points="3227.5,-79.27 3231,-89.27 3234.5,-79.27 3227.5,-79.27"/>
</g>
<!-- Node26 -->
<g id="node26" class="node">
<title>Node26</title>
<g id="a_node26"><a xlink:href="cpp__typecheck__expr_8cpp.html" target="_top" xlink:title=" ">
<polygon fill="none" stroke="black" points="3354,-6 3354,-47 3554,-47 3554,-6 3354,-6"/>
<text text-anchor="start" x="3362" y="-35" font-family="Helvetica,sans-Serif" font-size="10.00">/home/runner/work/cbmc</text>
<text text-anchor="start" x="3362" y="-24" font-family="Helvetica,sans-Serif" font-size="10.00">&#45;documentation/cbmc&#45;documentation</text>
<text text-anchor="middle" x="3454" y="-13" font-family="Helvetica,sans-Serif" font-size="10.00">/src/cpp/cpp_typecheck_expr.cpp</text>
</a>
</g>
</g>
<!-- Node11&#45;&gt;Node26 -->
<g id="edge26" class="edge">
<title>Node11&#45;&gt;Node26</title>
<path fill="none" stroke="midnightblue" d="M3294.14,-85.92C3327.75,-73.64 3368.63,-58.7 3400.64,-47"/>
<polygon fill="midnightblue" stroke="midnightblue" points="3292.61,-82.76 3284.41,-89.48 3295.01,-89.33 3292.61,-82.76"/>
</g>
<!-- Node27 -->
<g id="node27" class="node">
<title>Node27</title>
<g id="a_node27"><a xlink:href="cpp__typecheck__fargs_8cpp.html" target="_top" xlink:title=" ">
<polygon fill="none" stroke="black" points="3572,-6 3572,-47 3772,-47 3772,-6 3572,-6"/>
<text text-anchor="start" x="3580" y="-35" font-family="Helvetica,sans-Serif" font-size="10.00">/home/runner/work/cbmc</text>
<text text-anchor="start" x="3580" y="-24" font-family="Helvetica,sans-Serif" font-size="10.00">&#45;documentation/cbmc&#45;documentation</text>
<text text-anchor="middle" x="3672" y="-13" font-family="Helvetica,sans-Serif" font-size="10.00">/src/cpp/cpp_typecheck_fargs.cpp</text>
</a>
</g>
</g>
<!-- Node11&#45;&gt;Node27 -->
<g id="edge27" class="edge">
<title>Node11&#45;&gt;Node27</title>
<path fill="none" stroke="midnightblue" d="M3341.41,-92.16C3406.15,-81.83 3489.43,-67.8 3563,-53 3572.15,-51.16 3581.69,-49.11 3591.17,-47"/>
<polygon fill="midnightblue" stroke="midnightblue" points="3340.51,-88.75 3331.18,-93.78 3341.61,-95.67 3340.51,-88.75"/>
</g>
<!-- Node28 -->
<g id="node28" class="node">
<title>Node28</title>
<g id="a_node28"><a xlink:href="cpp__typecheck__function_8cpp.html" target="_top" xlink:title=" ">
<polygon fill="none" stroke="black" points="3790,-6 3790,-47 3990,-47 3990,-6 3790,-6"/>
<text text-anchor="start" x="3798" y="-35" font-family="Helvetica,sans-Serif" font-size="10.00">/home/runner/work/cbmc</text>
<text text-anchor="start" x="3798" y="-24" font-family="Helvetica,sans-Serif" font-size="10.00">&#45;documentation/cbmc&#45;documentation</text>
<text text-anchor="middle" x="3890" y="-13" font-family="Helvetica,sans-Serif" font-size="10.00">/src/cpp/cpp_typecheck_function.cpp</text>
</a>
</g>
</g>
<!-- Node11&#45;&gt;Node28 -->
<g id="edge28" class="edge">
<title>Node11&#45;&gt;Node28</title>
<path fill="none" stroke="midnightblue" d="M3341.37,-101.95C3452.81,-93.84 3629.64,-78.3 3781,-53 3791.06,-51.32 3801.58,-49.25 3811.95,-47.03"/>
<polygon fill="midnightblue" stroke="midnightblue" points="3340.85,-98.47 3331.12,-102.68 3341.35,-105.46 3340.85,-98.47"/>
</g>
<!-- Node29 -->
<g id="node29" class="node">
<title>Node29</title>
<g id="a_node29"><a xlink:href="cpp__typecheck__initializer_8cpp.html" target="_top" xlink:title=" ">
<polygon fill="none" stroke="black" points="4008,-6 4008,-47 4208,-47 4208,-6 4008,-6"/>
<text text-anchor="start" x="4016" y="-35" font-family="Helvetica,sans-Serif" font-size="10.00">/home/runner/work/cbmc</text>
<text text-anchor="start" x="4016" y="-24" font-family="Helvetica,sans-Serif" font-size="10.00">&#45;documentation/cbmc&#45;documentation</text>
<text text-anchor="middle" x="4108" y="-13" font-family="Helvetica,sans-Serif" font-size="10.00">/src/cpp/cpp_typecheck_initializer.cpp</text>
</a>
</g>
</g>
<!-- Node11&#45;&gt;Node29 -->
<g id="edge29" class="edge">
<title>Node11&#45;&gt;Node29</title>
<path fill="none" stroke="midnightblue" d="M3341.4,-106.39C3491.14,-101.61 3766.62,-88.43 3999,-53 4009.47,-51.4 4020.42,-49.33 4031.18,-47.06"/>
<polygon fill="midnightblue" stroke="midnightblue" points="3341.17,-102.89 3331.28,-106.7 3341.39,-109.89 3341.17,-102.89"/>
</g>
<!-- Node30 -->
<g id="node30" class="node">
<title>Node30</title>
<g id="a_node30"><a xlink:href="cpp__typecheck__linkage__spec_8cpp.html" target="_top" xlink:title=" ">
<polygon fill="none" stroke="black" points="4226,-6 4226,-47 4444,-47 4444,-6 4226,-6"/>
<text text-anchor="start" x="4234" y="-35" font-family="Helvetica,sans-Serif" font-size="10.00">/home/runner/work/cbmc</text>
<text text-anchor="start" x="4234" y="-24" font-family="Helvetica,sans-Serif" font-size="10.00">&#45;documentation/cbmc&#45;documentation</text>
<text text-anchor="middle" x="4335" y="-13" font-family="Helvetica,sans-Serif" font-size="10.00">/src/cpp/cpp_typecheck_linkage_spec.cpp</text>
</a>
</g>
</g>
<!-- Node11&#45;&gt;Node30 -->
<g id="edge30" class="edge">
<title>Node11&#45;&gt;Node30</title>
<path fill="none" stroke="midnightblue" d="M3341.37,-108.34C3524.24,-105.98 3901.22,-95.82 4217,-53 4228.53,-51.44 4240.6,-49.35 4252.45,-47.05"/>
<polygon fill="midnightblue" stroke="midnightblue" points="3341.17,-104.84 3331.21,-108.46 3341.25,-111.84 3341.17,-104.84"/>
</g>
<!-- Node31 -->
<g id="node31" class="node">
<title>Node31</title>
<g id="a_node31"><a xlink:href="cpp__typecheck__method__bodies_8cpp.html" target="_top" xlink:title=" ">
<polygon fill="none" stroke="black" points="4462,-0.5 4462,-52.5 4662,-52.5 4662,-0.5 4462,-0.5"/>
<text text-anchor="start" x="4470" y="-40.5" font-family="Helvetica,sans-Serif" font-size="10.00">/home/runner/work/cbmc</text>
<text text-anchor="start" x="4470" y="-29.5" font-family="Helvetica,sans-Serif" font-size="10.00">&#45;documentation/cbmc&#45;documentation</text>
<text text-anchor="start" x="4470" y="-18.5" font-family="Helvetica,sans-Serif" font-size="10.00">/src/cpp/cpp_typecheck_method</text>
<text text-anchor="middle" x="4562" y="-7.5" font-family="Helvetica,sans-Serif" font-size="10.00">_bodies.cpp</text>
</a>
</g>
</g>
<!-- Node11&#45;&gt;Node31 -->
<g id="edge31" class="edge">
<title>Node11&#45;&gt;Node31</title>
<path fill="none" stroke="midnightblue" d="M3341.2,-106.55C3599.87,-100.37 4240.09,-82.53 4453,-53 4455.89,-52.6 4458.81,-52.16 4461.76,-51.68"/>
<polygon fill="midnightblue" stroke="midnightblue" points="3340.95,-103.05 3331.04,-106.79 3341.12,-110.05 3340.95,-103.05"/>
</g>
<!-- Node32 -->
<g id="node32" class="node">
<title>Node32</title>
<g id="a_node32"><a xlink:href="cpp__typecheck__namespace_8cpp.html" target="_top" xlink:title=" ">
<polygon fill="none" stroke="black" points="4680,-6 4680,-47 4892,-47 4892,-6 4680,-6"/>
<text text-anchor="start" x="4688" y="-35" font-family="Helvetica,sans-Serif" font-size="10.00">/home/runner/work/cbmc</text>
<text text-anchor="start" x="4688" y="-24" font-family="Helvetica,sans-Serif" font-size="10.00">&#45;documentation/cbmc&#45;documentation</text>
<text text-anchor="middle" x="4786" y="-13" font-family="Helvetica,sans-Serif" font-size="10.00">/src/cpp/cpp_typecheck_namespace.cpp</text>
</a>
</g>
</g>
<!-- Node11&#45;&gt;Node32 -->
<g id="edge32" class="edge">
<title>Node11&#45;&gt;Node32</title>
<path fill="none" stroke="midnightblue" d="M3341.18,-107.27C3631.78,-102.31 4414.29,-86.18 4671,-53 4682.56,-51.51 4694.67,-49.41 4706.52,-47.06"/>
<polygon fill="midnightblue" stroke="midnightblue" points="3340.99,-103.78 3331.05,-107.44 3341.11,-110.77 3340.99,-103.78"/>
</g>
<!-- Node33 -->
<g id="node33" class="node">
<title>Node33</title>
<g id="a_node33"><a xlink:href="cpp__typecheck__resolve_8cpp.html" target="_top" xlink:title=" ">
<polygon fill="none" stroke="black" points="4910,-6 4910,-47 5110,-47 5110,-6 4910,-6"/>
<text text-anchor="start" x="4918" y="-35" font-family="Helvetica,sans-Serif" font-size="10.00">/home/runner/work/cbmc</text>
<text text-anchor="start" x="4918" y="-24" font-family="Helvetica,sans-Serif" font-size="10.00">&#45;documentation/cbmc&#45;documentation</text>
<text text-anchor="middle" x="5010" y="-13" font-family="Helvetica,sans-Serif" font-size="10.00">/src/cpp/cpp_typecheck_resolve.cpp</text>
</a>
</g>
</g>
<!-- Node11&#45;&gt;Node33 -->
<g id="edge33" class="edge">
<title>Node11&#45;&gt;Node33</title>
<path fill="none" stroke="midnightblue" d="M3341.42,-108.12C3663.5,-105.12 4598.19,-93.1 4901,-53 4912.17,-51.52 4923.88,-49.4 4935.3,-47.01"/>
<polygon fill="midnightblue" stroke="midnightblue" points="3341.11,-104.63 3331.15,-108.22 3341.18,-111.63 3341.11,-104.63"/>
</g>
<!-- Node34 -->
<g id="node34" class="node">
<title>Node34</title>
<g id="a_node34"><a xlink:href="cpp__typecheck__static__assert_8cpp.html" target="_top" xlink:title=" ">
<polygon fill="none" stroke="black" points="5128,-0.5 5128,-52.5 5328,-52.5 5328,-0.5 5128,-0.5"/>
<text text-anchor="start" x="5136" y="-40.5" font-family="Helvetica,sans-Serif" font-size="10.00">/home/runner/work/cbmc</text>
<text text-anchor="start" x="5136" y="-29.5" font-family="Helvetica,sans-Serif" font-size="10.00">&#45;documentation/cbmc&#45;documentation</text>
<text text-anchor="start" x="5136" y="-18.5" font-family="Helvetica,sans-Serif" font-size="10.00">/src/cpp/cpp_typecheck_static</text>
<text text-anchor="middle" x="5228" y="-7.5" font-family="Helvetica,sans-Serif" font-size="10.00">_assert.cpp</text>
</a>
</g>
</g>
<!-- Node11&#45;&gt;Node34 -->
<g id="edge34" class="edge">
<title>Node11&#45;&gt;Node34</title>
<path fill="none" stroke="midnightblue" d="M3341.34,-108.63C3691.02,-106.98 4771.95,-98.28 5119,-53 5121.89,-52.62 5124.82,-52.2 5127.76,-51.74"/>
<polygon fill="midnightblue" stroke="midnightblue" points="3341.19,-105.13 3331.21,-108.67 3341.22,-112.13 3341.19,-105.13"/>
</g>
<!-- Node35 -->
<g id="node35" class="node">
<title>Node35</title>
<g id="a_node35"><a xlink:href="cpp__typecheck__template_8cpp.html" target="_top" xlink:title=" ">
<polygon fill="none" stroke="black" points="916,-6 916,-47 1116,-47 1116,-6 916,-6"/>
<text text-anchor="start" x="924" y="-35" font-family="Helvetica,sans-Serif" font-size="10.00">/home/runner/work/cbmc</text>
<text text-anchor="start" x="924" y="-24" font-family="Helvetica,sans-Serif" font-size="10.00">&#45;documentation/cbmc&#45;documentation</text>
<text text-anchor="middle" x="1016" y="-13" font-family="Helvetica,sans-Serif" font-size="10.00">/src/cpp/cpp_typecheck_template.cpp</text>
</a>
</g>
</g>
<!-- Node11&#45;&gt;Node35 -->
<g id="edge35" class="edge">
<title>Node11&#45;&gt;Node35</title>
<path fill="none" stroke="midnightblue" d="M3120.71,-109.02C2744.95,-108.64 1516.49,-103.47 1125,-53 1113.72,-51.55 1101.91,-49.43 1090.39,-47.02"/>
<polygon fill="midnightblue" stroke="midnightblue" points="3120.76,-112.52 3130.77,-109.03 3120.77,-105.52 3120.76,-112.52"/>
</g>
<!-- Node36 -->
<g id="node36" class="node">
<title>Node36</title>
<g id="a_node36"><a xlink:href="cpp__typecheck__type_8cpp.html" target="_top" xlink:title=" ">
<polygon fill="none" stroke="black" points="5346,-6 5346,-47 5546,-47 5546,-6 5346,-6"/>
<text text-anchor="start" x="5354" y="-35" font-family="Helvetica,sans-Serif" font-size="10.00">/home/runner/work/cbmc</text>
<text text-anchor="start" x="5354" y="-24" font-family="Helvetica,sans-Serif" font-size="10.00">&#45;documentation/cbmc&#45;documentation</text>
<text text-anchor="middle" x="5446" y="-13" font-family="Helvetica,sans-Serif" font-size="10.00">/src/cpp/cpp_typecheck_type.cpp</text>
</a>
</g>
</g>
<!-- Node11&#45;&gt;Node36 -->
<g id="edge36" class="edge">
<title>Node11&#45;&gt;Node36</title>
<path fill="none" stroke="midnightblue" d="M3341.29,-109.02C3717.05,-108.64 4945.51,-103.47 5337,-53 5348.28,-51.55 5360.09,-49.43 5371.61,-47.02"/>
<polygon fill="midnightblue" stroke="midnightblue" points="3341.23,-105.52 3331.23,-109.03 3341.24,-112.52 3341.23,-105.52"/>
</g>
<!-- Node37 -->
<g id="node37" class="node">
<title>Node37</title>
<g id="a_node37"><a xlink:href="cpp__typecheck__using_8cpp.html" target="_top" xlink:title=" ">
<polygon fill="none" stroke="black" points="5564,-6 5564,-47 5764,-47 5764,-6 5564,-6"/>
<text text-anchor="start" x="5572" y="-35" font-family="Helvetica,sans-Serif" font-size="10.00">/home/runner/work/cbmc</text>
<text text-anchor="start" x="5572" y="-24" font-family="Helvetica,sans-Serif" font-size="10.00">&#45;documentation/cbmc&#45;documentation</text>
<text text-anchor="middle" x="5664" y="-13" font-family="Helvetica,sans-Serif" font-size="10.00">/src/cpp/cpp_typecheck_using.cpp</text>
</a>
</g>
</g>
<!-- Node11&#45;&gt;Node37 -->
<g id="edge37" class="edge">
<title>Node11&#45;&gt;Node37</title>
<path fill="none" stroke="midnightblue" d="M3341.28,-109.35C3741.8,-110.14 5118.88,-108.67 5555,-53 5566.28,-51.56 5578.09,-49.45 5589.61,-47.04"/>
<polygon fill="midnightblue" stroke="midnightblue" points="3341.15,-105.85 3331.14,-109.33 3341.13,-112.85 3341.15,-105.85"/>
</g>
<!-- Node38 -->
<g id="node38" class="node">
<title>Node38</title>
<g id="a_node38"><a xlink:href="cpp__typecheck__virtual__table_8cpp.html" target="_top" xlink:title=" ">
<polygon fill="none" stroke="black" points="5782,-0.5 5782,-52.5 5982,-52.5 5982,-0.5 5782,-0.5"/>
<text text-anchor="start" x="5790" y="-40.5" font-family="Helvetica,sans-Serif" font-size="10.00">/home/runner/work/cbmc</text>
<text text-anchor="start" x="5790" y="-29.5" font-family="Helvetica,sans-Serif" font-size="10.00">&#45;documentation/cbmc&#45;documentation</text>
<text text-anchor="start" x="5790" y="-18.5" font-family="Helvetica,sans-Serif" font-size="10.00">/src/cpp/cpp_typecheck_virtual</text>
<text text-anchor="middle" x="5882" y="-7.5" font-family="Helvetica,sans-Serif" font-size="10.00">_table.cpp</text>
</a>
</g>
</g>
<!-- Node11&#45;&gt;Node38 -->
<g id="edge38" class="edge">
<title>Node11&#45;&gt;Node38</title>
<path fill="none" stroke="midnightblue" d="M3341.54,-107.92C3798.84,-103.26 5530.09,-83.75 5773,-53 5775.89,-52.63 5778.82,-52.22 5781.77,-51.77"/>
<polygon fill="midnightblue" stroke="midnightblue" points="3341.27,-104.42 3331.31,-108.02 3341.34,-111.42 3341.27,-104.42"/>
</g>
<!-- Node39&#45;&gt;Node6 -->
<g id="edge40" class="edge">
<title>Node39&#45;&gt;Node6</title>
<path fill="none" stroke="midnightblue" d="M6256.28,-85.92C6223.42,-73.64 6183.46,-58.7 6152.17,-47"/>
<polygon fill="midnightblue" stroke="midnightblue" points="6255.19,-89.26 6265.78,-89.48 6257.64,-82.7 6255.19,-89.26"/>
</g>
<!-- Node40 -->
<g id="node40" class="node">
<title>Node40</title>
<g id="a_node40"><a xlink:href="cpp__parser_8cpp.html" target="_top" xlink:title=" ">
<polygon fill="none" stroke="black" points="6218,-6 6218,-47 6418,-47 6418,-6 6218,-6"/>
<text text-anchor="start" x="6226" y="-35" font-family="Helvetica,sans-Serif" font-size="10.00">/home/runner/work/cbmc</text>
<text text-anchor="start" x="6226" y="-24" font-family="Helvetica,sans-Serif" font-size="10.00">&#45;documentation/cbmc&#45;documentation</text>
<text text-anchor="middle" x="6318" y="-13" font-family="Helvetica,sans-Serif" font-size="10.00">/src/cpp/cpp_parser.cpp</text>
</a>
</g>
</g>
<!-- Node39&#45;&gt;Node40 -->
<g id="edge41" class="edge">
<title>Node39&#45;&gt;Node40</title>
<path fill="none" stroke="midnightblue" d="M6318,-79.06C6318,-68.38 6318,-56.63 6318,-47.05"/>
<polygon fill="midnightblue" stroke="midnightblue" points="6314.5,-79.27 6318,-89.27 6321.5,-79.27 6314.5,-79.27"/>
</g>
<!-- Node41 -->
<g id="node41" class="node">
<title>Node41</title>
<g id="a_node41"><a xlink:href="parse_8cpp.html" target="_top" xlink:title=" ">
<polygon fill="none" stroke="black" points="6436,-6 6436,-47 6636,-47 6636,-6 6436,-6"/>
<text text-anchor="start" x="6444" y="-35" font-family="Helvetica,sans-Serif" font-size="10.00">/home/runner/work/cbmc</text>
<text text-anchor="start" x="6444" y="-24" font-family="Helvetica,sans-Serif" font-size="10.00">&#45;documentation/cbmc&#45;documentation</text>
<text text-anchor="middle" x="6536" y="-13" font-family="Helvetica,sans-Serif" font-size="10.00">/src/cpp/parse.cpp</text>
</a>
</g>
</g>
<!-- Node39&#45;&gt;Node41 -->
<g id="edge42" class="edge">
<title>Node39&#45;&gt;Node41</title>
<path fill="none" stroke="midnightblue" d="M6379.72,-85.92C6412.58,-73.64 6452.54,-58.7 6483.83,-47"/>
<polygon fill="midnightblue" stroke="midnightblue" points="6378.36,-82.7 6370.22,-89.48 6380.81,-89.26 6378.36,-82.7"/>
</g>
<!-- Node45&#45;&gt;Node13 -->
<g id="edge47" class="edge">
<title>Node45&#45;&gt;Node13</title>
<path fill="none" stroke="midnightblue" d="M562.84,-99.14C468.51,-89.88 329.26,-74.26 209,-53 199.24,-51.27 189.04,-49.22 178.97,-47.05"/>
<polygon fill="midnightblue" stroke="midnightblue" points="562.68,-102.64 572.97,-100.13 563.36,-95.67 562.68,-102.64"/>
</g>
<!-- Node45&#45;&gt;Node19 -->
<g id="edge48" class="edge">
<title>Node45&#45;&gt;Node19</title>
<path fill="none" stroke="midnightblue" d="M576.89,-87.26C531.43,-76.94 476.4,-64.4 427,-53 418.67,-51.08 409.98,-49.06 401.3,-47.04"/>
<polygon fill="midnightblue" stroke="midnightblue" points="576.21,-90.7 586.73,-89.49 577.75,-83.87 576.21,-90.7"/>
</g>
<!-- Node45&#45;&gt;Node20 -->
<g id="edge49" class="edge">
<title>Node45&#45;&gt;Node20</title>
<path fill="none" stroke="midnightblue" d="M635.52,-83.54C618.23,-71.8 598.02,-58.07 581.92,-47.14"/>
<polygon fill="midnightblue" stroke="midnightblue" points="634.02,-86.76 644.26,-89.48 637.95,-80.96 634.02,-86.76"/>
</g>
<!-- Node45&#45;&gt;Node23 -->
<g id="edge50" class="edge">
<title>Node45&#45;&gt;Node23</title>
<path fill="none" stroke="midnightblue" d="M710.48,-83.54C727.77,-71.8 747.98,-58.07 764.08,-47.14"/>
<polygon fill="midnightblue" stroke="midnightblue" points="708.05,-80.96 701.74,-89.48 711.98,-86.76 708.05,-80.96"/>
</g>
<!-- Node45&#45;&gt;Node35 -->
<g id="edge51" class="edge">
<title>Node45&#45;&gt;Node35</title>
<path fill="none" stroke="midnightblue" d="M765.16,-87.1C817.75,-74.61 883.1,-59.08 933.92,-47"/>
<polygon fill="midnightblue" stroke="midnightblue" points="764.08,-83.76 755.16,-89.48 765.7,-90.57 764.08,-83.76"/>
</g>
</g>
</svg>
