<?xml version="1.0" encoding="UTF-8" standalone="no"?>
<!DOCTYPE svg PUBLIC "-//W3C//DTD SVG 1.1//EN"
 "http://www.w3.org/Graphics/SVG/1.1/DTD/svg11.dtd">
<!-- Generated by graphviz version 2.43.0 (0)
 -->
<!-- Title: /home/runner/work/cbmc&#45;documentation/cbmc&#45;documentation/src/cpp/cpp_typecheck_fargs.h Pages: 1 -->
<svg width="1734pt" height="128pt"
 viewBox="0.00 0.00 1734.00 128.00" xmlns="http://www.w3.org/2000/svg" xmlns:xlink="http://www.w3.org/1999/xlink">
<g id="graph0" class="graph" transform="scale(1 1) rotate(0) translate(4 124)">
<title>/home/runner/work/cbmc&#45;documentation/cbmc&#45;documentation/src/cpp/cpp_typecheck_fargs.h</title>
<!-- Node1 -->
<g id="node1" class="node">
<title>Node1</title>
<g id="a_node1"><a xlink:title=" ">
<polygon fill="#bfbfbf" stroke="black" points="763,-78.5 763,-119.5 963,-119.5 963,-78.5 763,-78.5"/>
<text text-anchor="start" x="771" y="-107.5" font-family="Helvetica,sans-Serif" font-size="10.00">/home/runner/work/cbmc</text>
<text text-anchor="start" x="771" y="-96.5" font-family="Helvetica,sans-Serif" font-size="10.00">&#45;documentation/cbmc&#45;documentation</text>
<text text-anchor="middle" x="863" y="-85.5" font-family="Helvetica,sans-Serif" font-size="10.00">/src/cpp/cpp_typecheck_fargs.h</text>
</a>
</g>
</g>
<!-- Node2 -->
<g id="node2" class="node">
<title>Node2</title>
<g id="a_node2"><a xlink:href="cpp__declarator__converter_8cpp.html" target="_top" xlink:title=" ">
<polygon fill="none" stroke="black" points="0,-0.5 0,-41.5 200,-41.5 200,-0.5 0,-0.5"/>
<text text-anchor="start" x="8" y="-29.5" font-family="Helvetica,sans-Serif" font-size="10.00">/home/runner/work/cbmc</text>
<text text-anchor="start" x="8" y="-18.5" font-family="Helvetica,sans-Serif" font-size="10.00">&#45;documentation/cbmc&#45;documentation</text>
<text text-anchor="middle" x="100" y="-7.5" font-family="Helvetica,sans-Serif" font-size="10.00">/src/cpp/cpp_declarator_converter.cpp</text>
</a>
</g>
</g>
<!-- Node1&#45;&gt;Node2 -->
<g id="edge1" class="edge">
<title>Node1&#45;&gt;Node2</title>
<path fill="none" stroke="midnightblue" d="M752.97,-91.81C622.71,-83.75 399.43,-67.56 209,-42 206.04,-41.6 203.05,-41.18 200.02,-40.74"/>
<polygon fill="midnightblue" stroke="midnightblue" points="752.76,-95.31 762.95,-92.43 753.19,-88.32 752.76,-95.31"/>
</g>
<!-- Node3 -->
<g id="node3" class="node">
<title>Node3</title>
<g id="a_node3"><a xlink:href="cpp__typecheck__bases_8cpp.html" target="_top" xlink:title=" ">
<polygon fill="none" stroke="black" points="218,-0.5 218,-41.5 418,-41.5 418,-0.5 218,-0.5"/>
<text text-anchor="start" x="226" y="-29.5" font-family="Helvetica,sans-Serif" font-size="10.00">/home/runner/work/cbmc</text>
<text text-anchor="start" x="226" y="-18.5" font-family="Helvetica,sans-Serif" font-size="10.00">&#45;documentation/cbmc&#45;documentation</text>
<text text-anchor="middle" x="318" y="-7.5" font-family="Helvetica,sans-Serif" font-size="10.00">/src/cpp/cpp_typecheck_bases.cpp</text>
</a>
</g>
</g>
<!-- Node1&#45;&gt;Node3 -->
<g id="edge2" class="edge">
<title>Node1&#45;&gt;Node3</title>
<path fill="none" stroke="midnightblue" d="M752.75,-85.5C664.46,-75.09 537.55,-59.23 427,-42 424.05,-41.54 421.06,-41.06 418.05,-40.57"/>
<polygon fill="midnightblue" stroke="midnightblue" points="752.44,-88.99 762.78,-86.68 753.26,-82.03 752.44,-88.99"/>
</g>
<!-- Node4 -->
<g id="node4" class="node">
<title>Node4</title>
<g id="a_node4"><a xlink:href="cpp__typecheck__code_8cpp.html" target="_top" xlink:title=" ">
<polygon fill="none" stroke="black" points="436,-0.5 436,-41.5 636,-41.5 636,-0.5 436,-0.5"/>
<text text-anchor="start" x="444" y="-29.5" font-family="Helvetica,sans-Serif" font-size="10.00">/home/runner/work/cbmc</text>
<text text-anchor="start" x="444" y="-18.5" font-family="Helvetica,sans-Serif" font-size="10.00">&#45;documentation/cbmc&#45;documentation</text>
<text text-anchor="middle" x="536" y="-7.5" font-family="Helvetica,sans-Serif" font-size="10.00">/src/cpp/cpp_typecheck_code.cpp</text>
</a>
</g>
</g>
<!-- Node1&#45;&gt;Node4 -->
<g id="edge3" class="edge">
<title>Node1&#45;&gt;Node4</title>
<path fill="none" stroke="midnightblue" d="M768.91,-76.13C721.88,-65.2 665.46,-52.09 619.93,-41.51"/>
<polygon fill="midnightblue" stroke="midnightblue" points="768.26,-79.57 778.79,-78.43 769.84,-72.76 768.26,-79.57"/>
</g>
<!-- Node5 -->
<g id="node5" class="node">
<title>Node5</title>
<g id="a_node5"><a xlink:href="cpp__typecheck__expr_8cpp.html" target="_top" xlink:title=" ">
<polygon fill="none" stroke="black" points="654,-0.5 654,-41.5 854,-41.5 854,-0.5 654,-0.5"/>
<text text-anchor="start" x="662" y="-29.5" font-family="Helvetica,sans-Serif" font-size="10.00">/home/runner/work/cbmc</text>
<text text-anchor="start" x="662" y="-18.5" font-family="Helvetica,sans-Serif" font-size="10.00">&#45;documentation/cbmc&#45;documentation</text>
<text text-anchor="middle" x="754" y="-7.5" font-family="Helvetica,sans-Serif" font-size="10.00">/src/cpp/cpp_typecheck_expr.cpp</text>
</a>
</g>
</g>
<!-- Node1&#45;&gt;Node5 -->
<g id="edge4" class="edge">
<title>Node1&#45;&gt;Node5</title>
<path fill="none" stroke="midnightblue" d="M826.62,-72.64C812.07,-62.49 795.57,-50.98 781.98,-41.51"/>
<polygon fill="midnightblue" stroke="midnightblue" points="824.73,-75.58 834.93,-78.43 828.73,-69.84 824.73,-75.58"/>
</g>
<!-- Node6 -->
<g id="node6" class="node">
<title>Node6</title>
<g id="a_node6"><a xlink:href="cpp__typecheck__fargs_8cpp.html" target="_top" xlink:title=" ">
<polygon fill="none" stroke="black" points="872,-0.5 872,-41.5 1072,-41.5 1072,-0.5 872,-0.5"/>
<text text-anchor="start" x="880" y="-29.5" font-family="Helvetica,sans-Serif" font-size="10.00">/home/runner/work/cbmc</text>
<text text-anchor="start" x="880" y="-18.5" font-family="Helvetica,sans-Serif" font-size="10.00">&#45;documentation/cbmc&#45;documentation</text>
<text text-anchor="middle" x="972" y="-7.5" font-family="Helvetica,sans-Serif" font-size="10.00">/src/cpp/cpp_typecheck_fargs.cpp</text>
</a>
</g>
</g>
<!-- Node1&#45;&gt;Node6 -->
<g id="edge5" class="edge">
<title>Node1&#45;&gt;Node6</title>
<path fill="none" stroke="midnightblue" d="M899.38,-72.64C913.93,-62.49 930.43,-50.98 944.02,-41.51"/>
<polygon fill="midnightblue" stroke="midnightblue" points="897.27,-69.84 891.07,-78.43 901.27,-75.58 897.27,-69.84"/>
</g>
<!-- Node7 -->
<g id="node7" class="node">
<title>Node7</title>
<g id="a_node7"><a xlink:href="cpp__typecheck__initializer_8cpp.html" target="_top" xlink:title=" ">
<polygon fill="none" stroke="black" points="1090,-0.5 1090,-41.5 1290,-41.5 1290,-0.5 1090,-0.5"/>
<text text-anchor="start" x="1098" y="-29.5" font-family="Helvetica,sans-Serif" font-size="10.00">/home/runner/work/cbmc</text>
<text text-anchor="start" x="1098" y="-18.5" font-family="Helvetica,sans-Serif" font-size="10.00">&#45;documentation/cbmc&#45;documentation</text>
<text text-anchor="middle" x="1190" y="-7.5" font-family="Helvetica,sans-Serif" font-size="10.00">/src/cpp/cpp_typecheck_initializer.cpp</text>
</a>
</g>
</g>
<!-- Node1&#45;&gt;Node7 -->
<g id="edge6" class="edge">
<title>Node1&#45;&gt;Node7</title>
<path fill="none" stroke="midnightblue" d="M957.09,-76.13C1004.12,-65.2 1060.54,-52.09 1106.07,-41.51"/>
<polygon fill="midnightblue" stroke="midnightblue" points="956.16,-72.76 947.21,-78.43 957.74,-79.57 956.16,-72.76"/>
</g>
<!-- Node8 -->
<g id="node8" class="node">
<title>Node8</title>
<g id="a_node8"><a xlink:href="cpp__typecheck__resolve_8cpp.html" target="_top" xlink:title=" ">
<polygon fill="none" stroke="black" points="1308,-0.5 1308,-41.5 1508,-41.5 1508,-0.5 1308,-0.5"/>
<text text-anchor="start" x="1316" y="-29.5" font-family="Helvetica,sans-Serif" font-size="10.00">/home/runner/work/cbmc</text>
<text text-anchor="start" x="1316" y="-18.5" font-family="Helvetica,sans-Serif" font-size="10.00">&#45;documentation/cbmc&#45;documentation</text>
<text text-anchor="middle" x="1408" y="-7.5" font-family="Helvetica,sans-Serif" font-size="10.00">/src/cpp/cpp_typecheck_resolve.cpp</text>
</a>
</g>
</g>
<!-- Node1&#45;&gt;Node8 -->
<g id="edge7" class="edge">
<title>Node1&#45;&gt;Node8</title>
<path fill="none" stroke="midnightblue" d="M973.25,-85.5C1061.54,-75.09 1188.45,-59.23 1299,-42 1301.95,-41.54 1304.94,-41.06 1307.95,-40.57"/>
<polygon fill="midnightblue" stroke="midnightblue" points="972.74,-82.03 963.22,-86.68 973.56,-88.99 972.74,-82.03"/>
</g>
<!-- Node9 -->
<g id="node9" class="node">
<title>Node9</title>
<g id="a_node9"><a xlink:href="cpp__typecheck__type_8cpp.html" target="_top" xlink:title=" ">
<polygon fill="none" stroke="black" points="1526,-0.5 1526,-41.5 1726,-41.5 1726,-0.5 1526,-0.5"/>
<text text-anchor="start" x="1534" y="-29.5" font-family="Helvetica,sans-Serif" font-size="10.00">/home/runner/work/cbmc</text>
<text text-anchor="start" x="1534" y="-18.5" font-family="Helvetica,sans-Serif" font-size="10.00">&#45;documentation/cbmc&#45;documentation</text>
<text text-anchor="middle" x="1626" y="-7.5" font-family="Helvetica,sans-Serif" font-size="10.00">/src/cpp/cpp_typecheck_type.cpp</text>
</a>
</g>
</g>
<!-- Node1&#45;&gt;Node9 -->
<g id="edge8" class="edge">
<title>Node1&#45;&gt;Node9</title>
<path fill="none" stroke="midnightblue" d="M973.03,-91.81C1103.29,-83.75 1326.57,-67.56 1517,-42 1519.96,-41.6 1522.95,-41.18 1525.98,-40.74"/>
<polygon fill="midnightblue" stroke="midnightblue" points="972.81,-88.32 963.05,-92.43 973.24,-95.31 972.81,-88.32"/>
</g>
</g>
</svg>
