<?xml version="1.0" encoding="UTF-8" standalone="no"?>
<!DOCTYPE svg PUBLIC "-//W3C//DTD SVG 1.1//EN"
 "http://www.w3.org/Graphics/SVG/1.1/DTD/svg11.dtd">
<!-- Generated by graphviz version 2.43.0 (0)
 -->
<!-- Title: /home/runner/work/cbmc&#45;documentation/cbmc&#45;documentation/src/cpp/cpp_scope.h Pages: 1 -->
<svg width="1090pt" height="554pt"
 viewBox="0.00 0.00 1089.95 554.00" xmlns="http://www.w3.org/2000/svg" xmlns:xlink="http://www.w3.org/1999/xlink">
<g id="graph0" class="graph" transform="scale(1 1) rotate(0) translate(4 550)">
<title>/home/runner/work/cbmc&#45;documentation/cbmc&#45;documentation/src/cpp/cpp_scope.h</title>
<!-- Node1 -->
<g id="node1" class="node">
<title>Node1</title>
<g id="a_node1"><a xlink:title=" ">
<polygon fill="#bfbfbf" stroke="black" points="0,-504.5 0,-545.5 200,-545.5 200,-504.5 0,-504.5"/>
<text text-anchor="start" x="8" y="-533.5" font-family="Helvetica,sans-Serif" font-size="10.00">/home/runner/work/cbmc</text>
<text text-anchor="start" x="8" y="-522.5" font-family="Helvetica,sans-Serif" font-size="10.00">&#45;documentation/cbmc&#45;documentation</text>
<text text-anchor="middle" x="100" y="-511.5" font-family="Helvetica,sans-Serif" font-size="10.00">/src/cpp/cpp_scope.h</text>
</a>
</g>
</g>
<!-- Node2 -->
<g id="node2" class="node">
<title>Node2</title>
<g id="a_node2"><a xlink:title=" ">
<polygon fill="none" stroke="#bfbfbf" points="32,-392.5 32,-411.5 80,-411.5 80,-392.5 32,-392.5"/>
<text text-anchor="middle" x="56" y="-399.5" font-family="Helvetica,sans-Serif" font-size="10.00">iosfwd</text>
</a>
</g>
</g>
<!-- Node1&#45;&gt;Node2 -->
<g id="edge1" class="edge">
<title>Node1&#45;&gt;Node2</title>
<path fill="none" stroke="midnightblue" d="M90.43,-504.31C85.46,-493.7 79.52,-480.29 75,-468 69.3,-452.48 64.13,-434.4 60.62,-421.25"/>
<polygon fill="midnightblue" stroke="midnightblue" points="64,-420.33 58.1,-411.53 57.23,-422.09 64,-420.33"/>
</g>
<!-- Node3 -->
<g id="node3" class="node">
<title>Node3</title>
<g id="a_node3"><a xlink:title=" ">
<polygon fill="none" stroke="#bfbfbf" points="84,-448.5 84,-467.5 116,-467.5 116,-448.5 84,-448.5"/>
<text text-anchor="middle" x="100" y="-455.5" font-family="Helvetica,sans-Serif" font-size="10.00">set</text>
</a>
</g>
</g>
<!-- Node1&#45;&gt;Node3 -->
<g id="edge2" class="edge">
<title>Node1&#45;&gt;Node3</title>
<path fill="none" stroke="midnightblue" d="M100,-504.5C100,-496.07 100,-486.24 100,-477.87"/>
<polygon fill="midnightblue" stroke="midnightblue" points="103.5,-477.65 100,-467.65 96.5,-477.65 103.5,-477.65"/>
</g>
<!-- Node4 -->
<g id="node4" class="node">
<title>Node4</title>
<g id="a_node4"><a xlink:href="cpp__id_8h.html" target="_top" xlink:title=" ">
<polygon fill="none" stroke="black" points="134.5,-448.5 134.5,-467.5 191.5,-467.5 191.5,-448.5 134.5,-448.5"/>
<text text-anchor="middle" x="163" y="-455.5" font-family="Helvetica,sans-Serif" font-size="10.00">cpp_id.h</text>
</a>
</g>
</g>
<!-- Node1&#45;&gt;Node4 -->
<g id="edge3" class="edge">
<title>Node1&#45;&gt;Node4</title>
<path fill="none" stroke="midnightblue" d="M118.9,-504.5C128,-495.11 138.79,-483.98 147.41,-475.08"/>
<polygon fill="midnightblue" stroke="midnightblue" points="150.17,-477.27 154.61,-467.65 145.14,-472.4 150.17,-477.27"/>
</g>
<!-- Node4&#45;&gt;Node2 -->
<g id="edge6" class="edge">
<title>Node4&#45;&gt;Node2</title>
<path fill="none" stroke="midnightblue" d="M145.81,-448.32C128.65,-439.66 102.05,-426.24 82.25,-416.25"/>
<polygon fill="midnightblue" stroke="midnightblue" points="83.65,-413.04 73.15,-411.65 80.5,-419.28 83.65,-413.04"/>
</g>
<!-- Node5 -->
<g id="node5" class="node">
<title>Node5</title>
<g id="a_node5"><a xlink:title=" ">
<polygon fill="none" stroke="#bfbfbf" points="98,-392.5 98,-411.5 136,-411.5 136,-392.5 98,-392.5"/>
<text text-anchor="middle" x="117" y="-399.5" font-family="Helvetica,sans-Serif" font-size="10.00">map</text>
</a>
</g>
</g>
<!-- Node4&#45;&gt;Node5 -->
<g id="edge4" class="edge">
<title>Node4&#45;&gt;Node5</title>
<path fill="none" stroke="midnightblue" d="M155.4,-448.08C148.77,-440.3 138.98,-428.8 130.94,-419.37"/>
<polygon fill="midnightblue" stroke="midnightblue" points="133.6,-417.09 124.45,-411.75 128.27,-421.63 133.6,-417.09"/>
</g>
<!-- Node6 -->
<g id="node6" class="node">
<title>Node6</title>
<g id="a_node6"><a xlink:title=" ">
<polygon fill="none" stroke="#bfbfbf" points="350,-0.5 350,-19.5 394,-19.5 394,-0.5 350,-0.5"/>
<text text-anchor="middle" x="372" y="-7.5" font-family="Helvetica,sans-Serif" font-size="10.00">string</text>
</a>
</g>
</g>
<!-- Node4&#45;&gt;Node6 -->
<g id="edge5" class="edge">
<title>Node4&#45;&gt;Node6</title>
<path fill="none" stroke="midnightblue" d="M163.13,-448.44C163.4,-429.94 164,-384.81 164,-347 164,-347 164,-347 164,-121 164,-42.55 281.06,-19.9 339.54,-13.48"/>
<polygon fill="midnightblue" stroke="midnightblue" points="340.14,-16.93 349.74,-12.46 339.44,-9.97 340.14,-16.93"/>
</g>
<!-- Node7 -->
<g id="node7" class="node">
<title>Node7</title>
<g id="a_node7"><a xlink:href="expr_8h.html" target="_top" xlink:title=" ">
<polygon fill="none" stroke="black" points="777.5,-392.5 777.5,-411.5 842.5,-411.5 842.5,-392.5 777.5,-392.5"/>
<text text-anchor="middle" x="810" y="-399.5" font-family="Helvetica,sans-Serif" font-size="10.00">util/expr.h</text>
</a>
</g>
</g>
<!-- Node4&#45;&gt;Node7 -->
<g id="edge7" class="edge">
<title>Node4&#45;&gt;Node7</title>
<path fill="none" stroke="midnightblue" d="M191.64,-454.61C294.29,-446.04 644.26,-416.83 767.02,-406.59"/>
<polygon fill="midnightblue" stroke="midnightblue" points="767.49,-410.06 777.17,-405.74 766.91,-403.08 767.49,-410.06"/>
</g>
<!-- Node13 -->
<g id="node13" class="node">
<title>Node13</title>
<g id="a_node13"><a xlink:href="src_2util_2invariant_8h.html" target="_top" xlink:title=" ">
<polygon fill="none" stroke="red" points="731.5,-56.5 731.5,-75.5 800.5,-75.5 800.5,-56.5 731.5,-56.5"/>
<text text-anchor="middle" x="766" y="-63.5" font-family="Helvetica,sans-Serif" font-size="10.00">invariant.h</text>
</a>
</g>
</g>
<!-- Node4&#45;&gt;Node13 -->
<g id="edge36" class="edge">
<title>Node4&#45;&gt;Node13</title>
<path fill="none" stroke="midnightblue" d="M191.78,-454.31C281.77,-444.37 560.62,-401.62 709,-244 751.54,-198.8 762.34,-121.66 765.07,-86.05"/>
<polygon fill="midnightblue" stroke="midnightblue" points="768.59,-85.87 765.72,-75.67 761.6,-85.43 768.59,-85.87"/>
</g>
<!-- Node8 -->
<g id="node8" class="node">
<title>Node8</title>
<g id="a_node8"><a xlink:href="as__const_8h.html" target="_top" xlink:title=" ">
<polygon fill="none" stroke="black" points="657,-0.5 657,-19.5 725,-19.5 725,-0.5 657,-0.5"/>
<text text-anchor="middle" x="691" y="-7.5" font-family="Helvetica,sans-Serif" font-size="10.00">as_const.h</text>
</a>
</g>
</g>
<!-- Node7&#45;&gt;Node8 -->
<g id="edge8" class="edge">
<title>Node7&#45;&gt;Node8</title>
<path fill="none" stroke="midnightblue" d="M795.2,-392.32C766.24,-374.08 706.1,-329.4 720,-280 725.08,-261.95 733.57,-260.75 742,-244 781.97,-164.64 860.51,-129.1 810,-56 793.26,-31.78 761.69,-20.58 735.27,-15.41"/>
<polygon fill="midnightblue" stroke="midnightblue" points="735.52,-11.9 725.07,-13.65 734.33,-18.8 735.52,-11.9"/>
</g>
<!-- Node9 -->
<g id="node9" class="node">
<title>Node9</title>
<g id="a_node9"><a xlink:href="type_8h.html" target="_top" xlink:title=" ">
<polygon fill="none" stroke="black" points="786.5,-336.5 786.5,-355.5 833.5,-355.5 833.5,-336.5 786.5,-336.5"/>
<text text-anchor="middle" x="810" y="-343.5" font-family="Helvetica,sans-Serif" font-size="10.00">type.h</text>
</a>
</g>
</g>
<!-- Node7&#45;&gt;Node9 -->
<g id="edge9" class="edge">
<title>Node7&#45;&gt;Node9</title>
<path fill="none" stroke="midnightblue" d="M810,-392.08C810,-385.01 810,-374.86 810,-365.99"/>
<polygon fill="midnightblue" stroke="midnightblue" points="813.5,-365.75 810,-355.75 806.5,-365.75 813.5,-365.75"/>
</g>
<!-- Node35 -->
<g id="node21" class="node">
<title>Node35</title>
<g id="a_node21"><a xlink:href="validation__mode_8h.html" target="_top" xlink:title=" ">
<polygon fill="none" stroke="black" points="923.5,-224.5 923.5,-243.5 1030.5,-243.5 1030.5,-224.5 923.5,-224.5"/>
<text text-anchor="middle" x="977" y="-231.5" font-family="Helvetica,sans-Serif" font-size="10.00">validation_mode.h</text>
</a>
</g>
</g>
<!-- Node7&#45;&gt;Node35 -->
<g id="edge34" class="edge">
<title>Node7&#45;&gt;Node35</title>
<path fill="none" stroke="midnightblue" d="M842.72,-400.43C906.53,-398.56 1043.88,-390.52 1073,-356 1105.12,-317.92 1040.08,-271.4 1001.97,-248.73"/>
<polygon fill="midnightblue" stroke="midnightblue" points="1003.34,-245.48 992.94,-243.5 999.84,-251.54 1003.34,-245.48"/>
</g>
<!-- Node36 -->
<g id="node22" class="node">
<title>Node36</title>
<g id="a_node22"><a xlink:href="validate__types_8h.html" target="_top" xlink:title=" ">
<polygon fill="none" stroke="black" points="729,-280.5 729,-299.5 827,-299.5 827,-280.5 729,-280.5"/>
<text text-anchor="middle" x="778" y="-287.5" font-family="Helvetica,sans-Serif" font-size="10.00">validate_types.h</text>
</a>
</g>
</g>
<!-- Node7&#45;&gt;Node36 -->
<g id="edge33" class="edge">
<title>Node7&#45;&gt;Node36</title>
<path fill="none" stroke="midnightblue" d="M801.25,-392.29C793.44,-383.84 782.55,-370.25 778,-356 773.22,-341.03 773.64,-323.12 775.02,-309.9"/>
<polygon fill="midnightblue" stroke="midnightblue" points="778.53,-310.04 776.37,-299.67 771.59,-309.12 778.53,-310.04"/>
</g>
<!-- Node37 -->
<g id="node23" class="node">
<title>Node37</title>
<g id="a_node23"><a xlink:href="validate__expressions_8h.html" target="_top" xlink:title=" ">
<polygon fill="none" stroke="black" points="851.5,-336.5 851.5,-355.5 980.5,-355.5 980.5,-336.5 851.5,-336.5"/>
<text text-anchor="middle" x="916" y="-343.5" font-family="Helvetica,sans-Serif" font-size="10.00">validate_expressions.h</text>
</a>
</g>
</g>
<!-- Node7&#45;&gt;Node37 -->
<g id="edge32" class="edge">
<title>Node7&#45;&gt;Node37</title>
<path fill="none" stroke="midnightblue" d="M827.03,-392.32C844.03,-383.66 870.38,-370.24 889.99,-360.25"/>
<polygon fill="midnightblue" stroke="midnightblue" points="891.69,-363.31 899.01,-355.65 888.51,-357.08 891.69,-363.31"/>
</g>
<!-- Node38 -->
<g id="node24" class="node">
<title>Node38</title>
<g id="a_node24"><a xlink:title=" ">
<polygon fill="none" stroke="#bfbfbf" points="998.5,-336.5 998.5,-355.5 1063.5,-355.5 1063.5,-336.5 998.5,-336.5"/>
<text text-anchor="middle" x="1031" y="-343.5" font-family="Helvetica,sans-Serif" font-size="10.00">functional</text>
</a>
</g>
</g>
<!-- Node7&#45;&gt;Node38 -->
<g id="edge35" class="edge">
<title>Node7&#45;&gt;Node38</title>
<path fill="none" stroke="midnightblue" d="M842.61,-393.03C881.29,-383.58 945.89,-367.8 988.47,-357.39"/>
<polygon fill="midnightblue" stroke="midnightblue" points="989.37,-360.77 998.26,-355 987.71,-353.97 989.37,-360.77"/>
</g>
<!-- Node10 -->
<g id="node10" class="node">
<title>Node10</title>
<g id="a_node10"><a xlink:href="source__location_8h.html" target="_top" xlink:title=" ">
<polygon fill="none" stroke="black" points="242,-168.5 242,-187.5 344,-187.5 344,-168.5 242,-168.5"/>
<text text-anchor="middle" x="293" y="-175.5" font-family="Helvetica,sans-Serif" font-size="10.00">source_location.h</text>
</a>
</g>
</g>
<!-- Node9&#45;&gt;Node10 -->
<g id="edge10" class="edge">
<title>Node9&#45;&gt;Node10</title>
<path fill="none" stroke="midnightblue" d="M818.48,-336.48C830.79,-323.1 850.62,-296.92 836,-280 800.03,-238.36 645.14,-253.87 591,-244 501.07,-227.6 396.91,-203.76 338.61,-189.97"/>
<polygon fill="midnightblue" stroke="midnightblue" points="339.16,-186.51 328.62,-187.6 337.54,-193.32 339.16,-186.51"/>
</g>
<!-- Node33 -->
<g id="node19" class="node">
<title>Node33</title>
<g id="a_node19"><a xlink:href="validate_8h.html" target="_top" xlink:title=" ">
<polygon fill="none" stroke="black" points="883.5,-280.5 883.5,-299.5 948.5,-299.5 948.5,-280.5 883.5,-280.5"/>
<text text-anchor="middle" x="916" y="-287.5" font-family="Helvetica,sans-Serif" font-size="10.00">validate.h</text>
</a>
</g>
</g>
<!-- Node9&#45;&gt;Node33 -->
<g id="edge23" class="edge">
<title>Node9&#45;&gt;Node33</title>
<path fill="none" stroke="midnightblue" d="M827.03,-336.32C844.03,-327.66 870.38,-314.24 889.99,-304.25"/>
<polygon fill="midnightblue" stroke="midnightblue" points="891.69,-307.31 899.01,-299.65 888.51,-301.08 891.69,-307.31"/>
</g>
<!-- Node9&#45;&gt;Node35 -->
<g id="edge31" class="edge">
<title>Node9&#45;&gt;Node35</title>
<path fill="none" stroke="midnightblue" d="M833.54,-338.47C874.16,-327.13 953.51,-304.53 958,-300 970,-287.87 974.5,-268.59 976.15,-254.17"/>
<polygon fill="midnightblue" stroke="midnightblue" points="979.66,-254.12 976.95,-243.88 972.68,-253.58 979.66,-254.12"/>
</g>
<!-- Node9&#45;&gt;Node36 -->
<g id="edge30" class="edge">
<title>Node9&#45;&gt;Node36</title>
<path fill="none" stroke="midnightblue" d="M804.72,-336.08C800.29,-328.61 793.84,-317.72 788.38,-308.52"/>
<polygon fill="midnightblue" stroke="midnightblue" points="791.29,-306.57 783.19,-299.75 785.27,-310.14 791.29,-306.57"/>
</g>
<!-- Node10&#45;&gt;Node6 -->
<g id="edge22" class="edge">
<title>Node10&#45;&gt;Node6</title>
<path fill="none" stroke="midnightblue" d="M280.8,-168.4C253.38,-148.04 191.49,-95.59 221,-56 248.19,-19.53 303.77,-11.45 339.39,-10.27"/>
<polygon fill="midnightblue" stroke="midnightblue" points="339.8,-13.76 349.75,-10.1 339.69,-6.76 339.8,-13.76"/>
</g>
<!-- Node11 -->
<g id="node11" class="node">
<title>Node11</title>
<g id="a_node11"><a xlink:href="irep_8h.html" target="_top" xlink:title=" ">
<polygon fill="none" stroke="black" points="477,-112.5 477,-131.5 521,-131.5 521,-112.5 477,-112.5"/>
<text text-anchor="middle" x="499" y="-119.5" font-family="Helvetica,sans-Serif" font-size="10.00">irep.h</text>
</a>
</g>
</g>
<!-- Node10&#45;&gt;Node11 -->
<g id="edge11" class="edge">
<title>Node10&#45;&gt;Node11</title>
<path fill="none" stroke="midnightblue" d="M325.64,-168.44C364.32,-158.3 428.36,-141.52 466.83,-131.43"/>
<polygon fill="midnightblue" stroke="midnightblue" points="468.18,-134.7 476.96,-128.78 466.4,-127.93 468.18,-134.7"/>
</g>
<!-- Node31 -->
<g id="node17" class="node">
<title>Node31</title>
<g id="a_node17"><a xlink:href="optional_8h.html" target="_top" xlink:title=" ">
<polygon fill="none" stroke="black" points="257.5,-112.5 257.5,-131.5 322.5,-131.5 322.5,-112.5 257.5,-112.5"/>
<text text-anchor="middle" x="290" y="-119.5" font-family="Helvetica,sans-Serif" font-size="10.00">optional.h</text>
</a>
</g>
</g>
<!-- Node10&#45;&gt;Node31 -->
<g id="edge20" class="edge">
<title>Node10&#45;&gt;Node31</title>
<path fill="none" stroke="midnightblue" d="M292.5,-168.08C292.11,-161.01 291.55,-150.86 291.05,-141.99"/>
<polygon fill="midnightblue" stroke="midnightblue" points="294.54,-141.54 290.49,-131.75 287.55,-141.93 294.54,-141.54"/>
</g>
<!-- Node11&#45;&gt;Node6 -->
<g id="edge12" class="edge">
<title>Node11&#45;&gt;Node6</title>
<path fill="none" stroke="midnightblue" d="M483.38,-112.42C468.84,-104.07 446.92,-90.54 430,-76 412.88,-61.28 396,-41.62 384.91,-27.79"/>
<polygon fill="midnightblue" stroke="midnightblue" points="387.44,-25.35 378.5,-19.66 381.94,-29.68 387.44,-25.35"/>
</g>
<!-- Node12 -->
<g id="node12" class="node">
<title>Node12</title>
<g id="a_node12"><a xlink:title=" ">
<polygon fill="none" stroke="#bfbfbf" points="438.5,-56.5 438.5,-75.5 485.5,-75.5 485.5,-56.5 438.5,-56.5"/>
<text text-anchor="middle" x="462" y="-63.5" font-family="Helvetica,sans-Serif" font-size="10.00">vector</text>
</a>
</g>
</g>
<!-- Node11&#45;&gt;Node12 -->
<g id="edge13" class="edge">
<title>Node11&#45;&gt;Node12</title>
<path fill="none" stroke="midnightblue" d="M492.89,-112.08C487.72,-104.53 480.15,-93.49 473.81,-84.23"/>
<polygon fill="midnightblue" stroke="midnightblue" points="476.54,-82.02 468,-75.75 470.76,-85.98 476.54,-82.02"/>
</g>
<!-- Node11&#45;&gt;Node13 -->
<g id="edge14" class="edge">
<title>Node11&#45;&gt;Node13</title>
<path fill="none" stroke="midnightblue" d="M521.27,-116.59C559.89,-108.92 642.06,-92.56 721.14,-76.37"/>
<polygon fill="midnightblue" stroke="midnightblue" points="722.18,-79.73 731.27,-74.29 720.77,-72.87 722.18,-79.73"/>
</g>
<!-- Node17 -->
<g id="node15" class="node">
<title>Node17</title>
<g id="a_node15"><a xlink:href="irep__ids_8h.html" target="_top" xlink:title=" ">
<polygon fill="none" stroke="red" points="504,-56.5 504,-75.5 568,-75.5 568,-56.5 504,-56.5"/>
<text text-anchor="middle" x="536" y="-63.5" font-family="Helvetica,sans-Serif" font-size="10.00">irep_ids.h</text>
</a>
</g>
</g>
<!-- Node11&#45;&gt;Node17 -->
<g id="edge17" class="edge">
<title>Node11&#45;&gt;Node17</title>
<path fill="none" stroke="midnightblue" d="M505.11,-112.08C510.28,-104.53 517.85,-93.49 524.19,-84.23"/>
<polygon fill="midnightblue" stroke="midnightblue" points="527.24,-85.98 530,-75.75 521.46,-82.02 527.24,-85.98"/>
</g>
<!-- Node27 -->
<g id="node16" class="node">
<title>Node27</title>
<g id="a_node16"><a xlink:href="forward__list__as__map_8h.html" target="_top" xlink:title=" ">
<polygon fill="none" stroke="red" points="586.5,-56.5 586.5,-75.5 713.5,-75.5 713.5,-56.5 586.5,-56.5"/>
<text text-anchor="middle" x="650" y="-63.5" font-family="Helvetica,sans-Serif" font-size="10.00">forward_list_as_map.h</text>
</a>
</g>
</g>
<!-- Node11&#45;&gt;Node27 -->
<g id="edge18" class="edge">
<title>Node11&#45;&gt;Node27</title>
<path fill="none" stroke="midnightblue" d="M521.28,-113.03C546.38,-104.06 587.44,-89.37 616.43,-79.01"/>
<polygon fill="midnightblue" stroke="midnightblue" points="617.89,-82.2 626.13,-75.54 615.54,-75.61 617.89,-82.2"/>
</g>
<!-- Node13&#45;&gt;Node6 -->
<g id="edge15" class="edge">
<title>Node13&#45;&gt;Node6</title>
<path fill="none" stroke="midnightblue" d="M731.31,-57.49C728.5,-56.96 725.71,-56.46 723,-56 606.17,-36.32 466.18,-20.75 404.22,-14.27"/>
<polygon fill="midnightblue" stroke="midnightblue" points="404.57,-10.79 394.27,-13.24 403.85,-17.75 404.57,-10.79"/>
</g>
<!-- Node16 -->
<g id="node14" class="node">
<title>Node16</title>
<g id="a_node14"><a xlink:title=" ">
<polygon fill="none" stroke="#bfbfbf" points="784.5,-0.5 784.5,-19.5 853.5,-19.5 853.5,-0.5 784.5,-0.5"/>
<text text-anchor="middle" x="819" y="-7.5" font-family="Helvetica,sans-Serif" font-size="10.00">type_traits</text>
</a>
</g>
</g>
<!-- Node13&#45;&gt;Node16 -->
<g id="edge16" class="edge">
<title>Node13&#45;&gt;Node16</title>
<path fill="none" stroke="midnightblue" d="M774.75,-56.08C782.47,-48.22 793.9,-36.57 803.22,-27.08"/>
<polygon fill="midnightblue" stroke="midnightblue" points="805.9,-29.34 810.41,-19.75 800.91,-24.44 805.9,-29.34"/>
</g>
<!-- Node27&#45;&gt;Node8 -->
<g id="edge19" class="edge">
<title>Node27&#45;&gt;Node8</title>
<path fill="none" stroke="midnightblue" d="M656.77,-56.08C662.56,-48.46 671.06,-37.26 678.14,-27.94"/>
<polygon fill="midnightblue" stroke="midnightblue" points="681.1,-29.83 684.36,-19.75 675.52,-25.6 681.1,-29.83"/>
</g>
<!-- Node32 -->
<g id="node18" class="node">
<title>Node32</title>
<g id="a_node18"><a xlink:title=" ">
<polygon fill="none" stroke="#bfbfbf" points="230.5,-56.5 230.5,-75.5 343.5,-75.5 343.5,-56.5 230.5,-56.5"/>
<text text-anchor="middle" x="287" y="-63.5" font-family="Helvetica,sans-Serif" font-size="10.00">nonstd/optional.hpp</text>
</a>
</g>
</g>
<!-- Node31&#45;&gt;Node32 -->
<g id="edge21" class="edge">
<title>Node31&#45;&gt;Node32</title>
<path fill="none" stroke="midnightblue" d="M289.5,-112.08C289.11,-105.01 288.55,-94.86 288.05,-85.99"/>
<polygon fill="midnightblue" stroke="midnightblue" points="291.54,-85.54 287.49,-75.75 284.55,-85.93 291.54,-85.54"/>
</g>
<!-- Node33&#45;&gt;Node16 -->
<g id="edge24" class="edge">
<title>Node33&#45;&gt;Node16</title>
<path fill="none" stroke="midnightblue" d="M909.88,-280.35C897.79,-262.38 872,-219.31 872,-179 872,-179 872,-179 872,-121 872,-84.99 848.67,-48.34 832.96,-27.75"/>
<polygon fill="midnightblue" stroke="midnightblue" points="835.55,-25.38 826.59,-19.72 830.07,-29.73 835.55,-25.38"/>
</g>
<!-- Node34 -->
<g id="node20" class="node">
<title>Node34</title>
<g id="a_node20"><a xlink:href="exception__utils_8h.html" target="_top" xlink:title=" ">
<polygon fill="none" stroke="black" points="600,-224.5 600,-243.5 700,-243.5 700,-224.5 600,-224.5"/>
<text text-anchor="middle" x="650" y="-231.5" font-family="Helvetica,sans-Serif" font-size="10.00">exception_utils.h</text>
</a>
</g>
</g>
<!-- Node33&#45;&gt;Node34 -->
<g id="edge25" class="edge">
<title>Node33&#45;&gt;Node34</title>
<path fill="none" stroke="midnightblue" d="M883.38,-282.38C838.16,-273.2 755.91,-256.5 702.12,-245.58"/>
<polygon fill="midnightblue" stroke="midnightblue" points="702.59,-242.1 692.09,-243.55 701.2,-248.96 702.59,-242.1"/>
</g>
<!-- Node33&#45;&gt;Node35 -->
<g id="edge29" class="edge">
<title>Node33&#45;&gt;Node35</title>
<path fill="none" stroke="midnightblue" d="M925.8,-280.32C934.82,-272.34 948.41,-260.31 959.32,-250.65"/>
<polygon fill="midnightblue" stroke="midnightblue" points="961.85,-253.08 967.02,-243.83 957.21,-247.84 961.85,-253.08"/>
</g>
<!-- Node34&#45;&gt;Node6 -->
<g id="edge26" class="edge">
<title>Node34&#45;&gt;Node6</title>
<path fill="none" stroke="midnightblue" d="M626.64,-224.38C578.1,-205.3 465.78,-154.81 405,-76 393.79,-61.47 384.69,-42.54 378.91,-28.86"/>
<polygon fill="midnightblue" stroke="midnightblue" points="382.15,-27.54 375.15,-19.58 375.66,-30.16 382.15,-27.54"/>
</g>
<!-- Node34&#45;&gt;Node10 -->
<g id="edge28" class="edge">
<title>Node34&#45;&gt;Node10</title>
<path fill="none" stroke="midnightblue" d="M599.98,-225.43C535.51,-215.68 423.46,-198.73 354.04,-188.23"/>
<polygon fill="midnightblue" stroke="midnightblue" points="354.53,-184.77 344.12,-186.73 353.48,-191.69 354.53,-184.77"/>
</g>
<!-- Node34&#45;&gt;Node13 -->
<g id="edge27" class="edge">
<title>Node34&#45;&gt;Node13</title>
<path fill="none" stroke="midnightblue" d="M653.23,-224.44C661.32,-203.72 683.97,-149.75 714,-112 723.06,-100.61 735.28,-89.87 745.59,-81.74"/>
<polygon fill="midnightblue" stroke="midnightblue" points="747.87,-84.41 753.7,-75.56 743.63,-78.84 747.87,-84.41"/>
</g>
</g>
</svg>
