<?xml version="1.0" encoding="UTF-8" standalone="no"?>
<!DOCTYPE svg PUBLIC "-//W3C//DTD SVG 1.1//EN"
 "http://www.w3.org/Graphics/SVG/1.1/DTD/svg11.dtd">
<!-- Generated by graphviz version 2.43.0 (0)
 -->
<!-- Title: /home/runner/work/cbmc&#45;documentation/cbmc&#45;documentation/src/crangler/ctoken.h Pages: 1 -->
<svg width="900pt" height="284pt"
 viewBox="0.00 0.00 900.00 284.00" xmlns="http://www.w3.org/2000/svg" xmlns:xlink="http://www.w3.org/1999/xlink">
<g id="graph0" class="graph" transform="scale(1 1) rotate(0) translate(4 280)">
<title>/home/runner/work/cbmc&#45;documentation/cbmc&#45;documentation/src/crangler/ctoken.h</title>
<!-- Node1 -->
<g id="node1" class="node">
<title>Node1</title>
<g id="a_node1"><a xlink:title=" ">
<polygon fill="#bfbfbf" stroke="black" points="545,-234.5 545,-275.5 745,-275.5 745,-234.5 545,-234.5"/>
<text text-anchor="start" x="553" y="-263.5" font-family="Helvetica,sans-Serif" font-size="10.00">/home/runner/work/cbmc</text>
<text text-anchor="start" x="553" y="-252.5" font-family="Helvetica,sans-Serif" font-size="10.00">&#45;documentation/cbmc&#45;documentation</text>
<text text-anchor="middle" x="645" y="-241.5" font-family="Helvetica,sans-Serif" font-size="10.00">/src/crangler/ctoken.h</text>
</a>
</g>
</g>
<!-- Node2 -->
<g id="node2" class="node">
<title>Node2</title>
<g id="a_node2"><a xlink:href="cscanner_8h.html" target="_top" xlink:title=" ">
<polygon fill="none" stroke="black" points="436,-156.5 436,-197.5 636,-197.5 636,-156.5 436,-156.5"/>
<text text-anchor="start" x="444" y="-185.5" font-family="Helvetica,sans-Serif" font-size="10.00">/home/runner/work/cbmc</text>
<text text-anchor="start" x="444" y="-174.5" font-family="Helvetica,sans-Serif" font-size="10.00">&#45;documentation/cbmc&#45;documentation</text>
<text text-anchor="middle" x="536" y="-163.5" font-family="Helvetica,sans-Serif" font-size="10.00">/src/crangler/cscanner.h</text>
</a>
</g>
</g>
<!-- Node1&#45;&gt;Node2 -->
<g id="edge1" class="edge">
<title>Node1&#45;&gt;Node2</title>
<path fill="none" stroke="midnightblue" d="M608.62,-228.64C594.07,-218.49 577.57,-206.98 563.98,-197.51"/>
<polygon fill="midnightblue" stroke="midnightblue" points="606.73,-231.58 616.93,-234.43 610.73,-225.84 606.73,-231.58"/>
</g>
<!-- Node10 -->
<g id="node10" class="node">
<title>Node10</title>
<g id="a_node10"><a xlink:href="ctoken_8cpp.html" target="_top" xlink:title=" ">
<polygon fill="none" stroke="black" points="654,-156.5 654,-197.5 854,-197.5 854,-156.5 654,-156.5"/>
<text text-anchor="start" x="662" y="-185.5" font-family="Helvetica,sans-Serif" font-size="10.00">/home/runner/work/cbmc</text>
<text text-anchor="start" x="662" y="-174.5" font-family="Helvetica,sans-Serif" font-size="10.00">&#45;documentation/cbmc&#45;documentation</text>
<text text-anchor="middle" x="754" y="-163.5" font-family="Helvetica,sans-Serif" font-size="10.00">/src/crangler/ctoken.cpp</text>
</a>
</g>
</g>
<!-- Node1&#45;&gt;Node10 -->
<g id="edge11" class="edge">
<title>Node1&#45;&gt;Node10</title>
<path fill="none" stroke="midnightblue" d="M681.38,-228.64C695.93,-218.49 712.43,-206.98 726.02,-197.51"/>
<polygon fill="midnightblue" stroke="midnightblue" points="679.27,-225.84 673.07,-234.43 683.27,-231.58 679.27,-225.84"/>
</g>
<!-- Node3 -->
<g id="node3" class="node">
<title>Node3</title>
<g id="a_node3"><a xlink:href="c__defines_8cpp.html" target="_top" xlink:title=" ">
<polygon fill="none" stroke="black" points="0,-78.5 0,-119.5 200,-119.5 200,-78.5 0,-78.5"/>
<text text-anchor="start" x="8" y="-107.5" font-family="Helvetica,sans-Serif" font-size="10.00">/home/runner/work/cbmc</text>
<text text-anchor="start" x="8" y="-96.5" font-family="Helvetica,sans-Serif" font-size="10.00">&#45;documentation/cbmc&#45;documentation</text>
<text text-anchor="middle" x="100" y="-85.5" font-family="Helvetica,sans-Serif" font-size="10.00">/src/crangler/c_defines.cpp</text>
</a>
</g>
</g>
<!-- Node2&#45;&gt;Node3 -->
<g id="edge2" class="edge">
<title>Node2&#45;&gt;Node3</title>
<path fill="none" stroke="midnightblue" d="M425.74,-157.45C362.31,-146.7 281.14,-132.79 209,-120 206.06,-119.48 203.08,-118.95 200.08,-118.41"/>
<polygon fill="midnightblue" stroke="midnightblue" points="425.32,-160.93 435.77,-159.15 426.49,-154.03 425.32,-160.93"/>
</g>
<!-- Node4 -->
<g id="node4" class="node">
<title>Node4</title>
<g id="a_node4"><a xlink:href="ctokenit_8h.html" target="_top" xlink:title=" ">
<polygon fill="none" stroke="black" points="218,-78.5 218,-119.5 418,-119.5 418,-78.5 218,-78.5"/>
<text text-anchor="start" x="226" y="-107.5" font-family="Helvetica,sans-Serif" font-size="10.00">/home/runner/work/cbmc</text>
<text text-anchor="start" x="226" y="-96.5" font-family="Helvetica,sans-Serif" font-size="10.00">&#45;documentation/cbmc&#45;documentation</text>
<text text-anchor="middle" x="318" y="-85.5" font-family="Helvetica,sans-Serif" font-size="10.00">/src/crangler/ctokenit.h</text>
</a>
</g>
</g>
<!-- Node2&#45;&gt;Node4 -->
<g id="edge3" class="edge">
<title>Node2&#45;&gt;Node4</title>
<path fill="none" stroke="midnightblue" d="M470.1,-153.03C439.41,-142.33 403.29,-129.73 373.95,-119.51"/>
<polygon fill="midnightblue" stroke="midnightblue" points="469.26,-156.44 479.86,-156.43 471.57,-149.83 469.26,-156.44"/>
</g>
<!-- Node7 -->
<g id="node7" class="node">
<title>Node7</title>
<g id="a_node7"><a xlink:href="mini__c__parser_8h.html" target="_top" xlink:title=" ">
<polygon fill="none" stroke="black" points="436,-78.5 436,-119.5 636,-119.5 636,-78.5 436,-78.5"/>
<text text-anchor="start" x="444" y="-107.5" font-family="Helvetica,sans-Serif" font-size="10.00">/home/runner/work/cbmc</text>
<text text-anchor="start" x="444" y="-96.5" font-family="Helvetica,sans-Serif" font-size="10.00">&#45;documentation/cbmc&#45;documentation</text>
<text text-anchor="middle" x="536" y="-85.5" font-family="Helvetica,sans-Serif" font-size="10.00">/src/crangler/mini_c_parser.h</text>
</a>
</g>
</g>
<!-- Node2&#45;&gt;Node7 -->
<g id="edge6" class="edge">
<title>Node2&#45;&gt;Node7</title>
<path fill="none" stroke="midnightblue" d="M536,-146.3C536,-137.3 536,-127.65 536,-119.51"/>
<polygon fill="midnightblue" stroke="midnightblue" points="532.5,-146.43 536,-156.43 539.5,-146.43 532.5,-146.43"/>
</g>
<!-- Node8 -->
<g id="node8" class="node">
<title>Node8</title>
<g id="a_node8"><a xlink:href="mini__c__parser_8cpp.html" target="_top" xlink:title=" ">
<polygon fill="none" stroke="black" points="564,-0.5 564,-41.5 764,-41.5 764,-0.5 564,-0.5"/>
<text text-anchor="start" x="572" y="-29.5" font-family="Helvetica,sans-Serif" font-size="10.00">/home/runner/work/cbmc</text>
<text text-anchor="start" x="572" y="-18.5" font-family="Helvetica,sans-Serif" font-size="10.00">&#45;documentation/cbmc&#45;documentation</text>
<text text-anchor="middle" x="664" y="-7.5" font-family="Helvetica,sans-Serif" font-size="10.00">/src/crangler/mini_c_parser.cpp</text>
</a>
</g>
</g>
<!-- Node2&#45;&gt;Node8 -->
<g id="edge10" class="edge">
<title>Node2&#45;&gt;Node8</title>
<path fill="none" stroke="midnightblue" d="M606.22,-151.76C620.94,-143.72 635.01,-133.32 645,-120 662.17,-97.13 665.1,-63.03 665.01,-41.68"/>
<polygon fill="midnightblue" stroke="midnightblue" points="604.32,-148.8 597,-156.46 607.5,-155.03 604.32,-148.8"/>
</g>
<!-- Node9 -->
<g id="node9" class="node">
<title>Node9</title>
<g id="a_node9"><a xlink:href="cscanner_8cpp.html" target="_top" xlink:title=" ">
<polygon fill="none" stroke="black" points="692,-78.5 692,-119.5 892,-119.5 892,-78.5 692,-78.5"/>
<text text-anchor="start" x="700" y="-107.5" font-family="Helvetica,sans-Serif" font-size="10.00">/home/runner/work/cbmc</text>
<text text-anchor="start" x="700" y="-96.5" font-family="Helvetica,sans-Serif" font-size="10.00">&#45;documentation/cbmc&#45;documentation</text>
<text text-anchor="middle" x="792" y="-85.5" font-family="Helvetica,sans-Serif" font-size="10.00">/src/crangler/cscanner.cpp</text>
</a>
</g>
</g>
<!-- Node2&#45;&gt;Node9 -->
<g id="edge9" class="edge">
<title>Node2&#45;&gt;Node9</title>
<path fill="none" stroke="midnightblue" d="M611.52,-153.58C647.95,-142.76 691.25,-129.91 726.3,-119.51"/>
<polygon fill="midnightblue" stroke="midnightblue" points="610.52,-150.23 601.93,-156.43 612.51,-156.94 610.52,-150.23"/>
</g>
<!-- Node5 -->
<g id="node5" class="node">
<title>Node5</title>
<g id="a_node5"><a xlink:href="c__wrangler_8cpp.html" target="_top" xlink:title=" ">
<polygon fill="none" stroke="black" points="346,-0.5 346,-41.5 546,-41.5 546,-0.5 346,-0.5"/>
<text text-anchor="start" x="354" y="-29.5" font-family="Helvetica,sans-Serif" font-size="10.00">/home/runner/work/cbmc</text>
<text text-anchor="start" x="354" y="-18.5" font-family="Helvetica,sans-Serif" font-size="10.00">&#45;documentation/cbmc&#45;documentation</text>
<text text-anchor="middle" x="446" y="-7.5" font-family="Helvetica,sans-Serif" font-size="10.00">/src/crangler/c_wrangler.cpp</text>
</a>
</g>
</g>
<!-- Node4&#45;&gt;Node5 -->
<g id="edge4" class="edge">
<title>Node4&#45;&gt;Node5</title>
<path fill="none" stroke="midnightblue" d="M359.76,-73.2C377.09,-62.92 396.89,-51.16 413.15,-41.51"/>
<polygon fill="midnightblue" stroke="midnightblue" points="357.77,-70.31 350.96,-78.43 361.35,-76.33 357.77,-70.31"/>
</g>
<!-- Node6 -->
<g id="node6" class="node">
<title>Node6</title>
<g id="a_node6"><a xlink:href="ctokenit_8cpp.html" target="_top" xlink:title=" ">
<polygon fill="none" stroke="black" points="128,-0.5 128,-41.5 328,-41.5 328,-0.5 128,-0.5"/>
<text text-anchor="start" x="136" y="-29.5" font-family="Helvetica,sans-Serif" font-size="10.00">/home/runner/work/cbmc</text>
<text text-anchor="start" x="136" y="-18.5" font-family="Helvetica,sans-Serif" font-size="10.00">&#45;documentation/cbmc&#45;documentation</text>
<text text-anchor="middle" x="228" y="-7.5" font-family="Helvetica,sans-Serif" font-size="10.00">/src/crangler/ctokenit.cpp</text>
</a>
</g>
</g>
<!-- Node4&#45;&gt;Node6 -->
<g id="edge5" class="edge">
<title>Node4&#45;&gt;Node6</title>
<path fill="none" stroke="midnightblue" d="M286.95,-71.78C275.18,-61.84 262.01,-50.72 251.1,-41.51"/>
<polygon fill="midnightblue" stroke="midnightblue" points="284.92,-74.65 294.82,-78.43 289.44,-69.3 284.92,-74.65"/>
</g>
<!-- Node7&#45;&gt;Node5 -->
<g id="edge7" class="edge">
<title>Node7&#45;&gt;Node5</title>
<path fill="none" stroke="midnightblue" d="M504.95,-71.78C493.18,-61.84 480.01,-50.72 469.1,-41.51"/>
<polygon fill="midnightblue" stroke="midnightblue" points="502.92,-74.65 512.82,-78.43 507.44,-69.3 502.92,-74.65"/>
</g>
<!-- Node7&#45;&gt;Node8 -->
<g id="edge8" class="edge">
<title>Node7&#45;&gt;Node8</title>
<path fill="none" stroke="midnightblue" d="M577.76,-73.2C595.09,-62.92 614.89,-51.16 631.15,-41.51"/>
<polygon fill="midnightblue" stroke="midnightblue" points="575.77,-70.31 568.96,-78.43 579.35,-76.33 575.77,-70.31"/>
</g>
</g>
</svg>
