<?xml version="1.0" encoding="UTF-8" standalone="no"?>
<!DOCTYPE svg PUBLIC "-//W3C//DTD SVG 1.1//EN"
 "http://www.w3.org/Graphics/SVG/1.1/DTD/svg11.dtd">
<!-- Generated by graphviz version 2.43.0 (0)
 -->
<!-- Title: /home/runner/work/cbmc&#45;documentation/cbmc&#45;documentation/src/crangler/ctokenit.h Pages: 1 -->
<svg width="208pt" height="218pt"
 viewBox="0.00 0.00 208.00 218.00" xmlns="http://www.w3.org/2000/svg" xmlns:xlink="http://www.w3.org/1999/xlink">
<g id="graph0" class="graph" transform="scale(1 1) rotate(0) translate(4 214)">
<title>/home/runner/work/cbmc&#45;documentation/cbmc&#45;documentation/src/crangler/ctokenit.h</title>
<!-- Node1 -->
<g id="node1" class="node">
<title>Node1</title>
<g id="a_node1"><a xlink:title=" ">
<polygon fill="#bfbfbf" stroke="black" points="0,-168.5 0,-209.5 200,-209.5 200,-168.5 0,-168.5"/>
<text text-anchor="start" x="8" y="-197.5" font-family="Helvetica,sans-Serif" font-size="10.00">/home/runner/work/cbmc</text>
<text text-anchor="start" x="8" y="-186.5" font-family="Helvetica,sans-Serif" font-size="10.00">&#45;documentation/cbmc&#45;documentation</text>
<text text-anchor="middle" x="100" y="-175.5" font-family="Helvetica,sans-Serif" font-size="10.00">/src/crangler/ctokenit.h</text>
</a>
</g>
</g>
<!-- Node2 -->
<g id="node2" class="node">
<title>Node2</title>
<g id="a_node2"><a xlink:href="cscanner_8h.html" target="_top" xlink:title=" ">
<polygon fill="none" stroke="black" points="66,-112.5 66,-131.5 134,-131.5 134,-112.5 66,-112.5"/>
<text text-anchor="middle" x="100" y="-119.5" font-family="Helvetica,sans-Serif" font-size="10.00">cscanner.h</text>
</a>
</g>
</g>
<!-- Node1&#45;&gt;Node2 -->
<g id="edge1" class="edge">
<title>Node1&#45;&gt;Node2</title>
<path fill="none" stroke="midnightblue" d="M100,-168.5C100,-160.07 100,-150.24 100,-141.87"/>
<polygon fill="midnightblue" stroke="midnightblue" points="103.5,-141.65 100,-131.65 96.5,-141.65 103.5,-141.65"/>
</g>
<!-- Node3 -->
<g id="node3" class="node">
<title>Node3</title>
<g id="a_node3"><a xlink:title=" ">
<polygon fill="none" stroke="#bfbfbf" points="54,-0.5 54,-19.5 102,-19.5 102,-0.5 54,-0.5"/>
<text text-anchor="middle" x="78" y="-7.5" font-family="Helvetica,sans-Serif" font-size="10.00">iosfwd</text>
</a>
</g>
</g>
<!-- Node2&#45;&gt;Node3 -->
<g id="edge2" class="edge">
<title>Node2&#45;&gt;Node3</title>
<path fill="none" stroke="midnightblue" d="M90.98,-112.34C82.93,-103.93 71.7,-90.36 67,-76 61.94,-60.55 65.88,-42.24 70.39,-28.99"/>
<polygon fill="midnightblue" stroke="midnightblue" points="73.68,-30.2 73.97,-19.61 67.14,-27.7 73.68,-30.2"/>
</g>
<!-- Node4 -->
<g id="node4" class="node">
<title>Node4</title>
<g id="a_node4"><a xlink:title=" ">
<polygon fill="none" stroke="#bfbfbf" points="76.5,-56.5 76.5,-75.5 123.5,-75.5 123.5,-56.5 76.5,-56.5"/>
<text text-anchor="middle" x="100" y="-63.5" font-family="Helvetica,sans-Serif" font-size="10.00">vector</text>
</a>
</g>
</g>
<!-- Node2&#45;&gt;Node4 -->
<g id="edge3" class="edge">
<title>Node2&#45;&gt;Node4</title>
<path fill="none" stroke="midnightblue" d="M100,-112.08C100,-105.01 100,-94.86 100,-85.99"/>
<polygon fill="midnightblue" stroke="midnightblue" points="103.5,-85.75 100,-75.75 96.5,-85.75 103.5,-85.75"/>
</g>
<!-- Node5 -->
<g id="node5" class="node">
<title>Node5</title>
<g id="a_node5"><a xlink:href="ctoken_8h.html" target="_top" xlink:title=" ">
<polygon fill="none" stroke="black" points="142,-56.5 142,-75.5 200,-75.5 200,-56.5 142,-56.5"/>
<text text-anchor="middle" x="171" y="-63.5" font-family="Helvetica,sans-Serif" font-size="10.00">ctoken.h</text>
</a>
</g>
</g>
<!-- Node2&#45;&gt;Node5 -->
<g id="edge4" class="edge">
<title>Node2&#45;&gt;Node5</title>
<path fill="none" stroke="midnightblue" d="M111.41,-112.32C122.11,-104.18 138.34,-91.84 151.16,-82.09"/>
<polygon fill="midnightblue" stroke="midnightblue" points="153.54,-84.67 159.39,-75.83 149.31,-79.1 153.54,-84.67"/>
</g>
<!-- Node5&#45;&gt;Node3 -->
<g id="edge5" class="edge">
<title>Node5&#45;&gt;Node3</title>
<path fill="none" stroke="midnightblue" d="M156.06,-56.32C141.41,-47.82 118.87,-34.73 101.76,-24.8"/>
<polygon fill="midnightblue" stroke="midnightblue" points="103.31,-21.65 92.9,-19.65 99.8,-27.7 103.31,-21.65"/>
</g>
<!-- Node6 -->
<g id="node6" class="node">
<title>Node6</title>
<g id="a_node6"><a xlink:title=" ">
<polygon fill="none" stroke="#bfbfbf" points="149,-0.5 149,-19.5 193,-19.5 193,-0.5 149,-0.5"/>
<text text-anchor="middle" x="171" y="-7.5" font-family="Helvetica,sans-Serif" font-size="10.00">string</text>
</a>
</g>
</g>
<!-- Node5&#45;&gt;Node6 -->
<g id="edge6" class="edge">
<title>Node5&#45;&gt;Node6</title>
<path fill="none" stroke="midnightblue" d="M171,-56.08C171,-49.01 171,-38.86 171,-29.99"/>
<polygon fill="midnightblue" stroke="midnightblue" points="174.5,-29.75 171,-19.75 167.5,-29.75 174.5,-29.75"/>
</g>
</g>
</svg>
