<?xml version="1.0" encoding="UTF-8" standalone="no"?>
<!DOCTYPE svg PUBLIC "-//W3C//DTD SVG 1.1//EN"
 "http://www.w3.org/Graphics/SVG/1.1/DTD/svg11.dtd">
<!-- Generated by graphviz version 2.43.0 (0)
 -->
<!-- Title: /home/runner/work/cbmc&#45;documentation/cbmc&#45;documentation/src/solvers/decision_procedure.h Pages: 1 -->
<svg width="3199pt" height="662pt"
 viewBox="0.00 0.00 3199.00 662.00" xmlns="http://www.w3.org/2000/svg" xmlns:xlink="http://www.w3.org/1999/xlink">
<g id="graph0" class="graph" transform="scale(1 1) rotate(0) translate(4 658)">
<title>/home/runner/work/cbmc&#45;documentation/cbmc&#45;documentation/src/solvers/decision_procedure.h</title>
<!-- Node1 -->
<g id="node1" class="node">
<title>Node1</title>
<g id="a_node1"><a xlink:title=" ">
<polygon fill="#bfbfbf" stroke="black" points="2337,-612.5 2337,-653.5 2537,-653.5 2537,-612.5 2337,-612.5"/>
<text text-anchor="start" x="2345" y="-641.5" font-family="Helvetica,sans-Serif" font-size="10.00">/home/runner/work/cbmc</text>
<text text-anchor="start" x="2345" y="-630.5" font-family="Helvetica,sans-Serif" font-size="10.00">&#45;documentation/cbmc&#45;documentation</text>
<text text-anchor="middle" x="2437" y="-619.5" font-family="Helvetica,sans-Serif" font-size="10.00">/src/solvers/decision_procedure.h</text>
</a>
</g>
</g>
<!-- Node2 -->
<g id="node2" class="node">
<title>Node2</title>
<g id="a_node2"><a xlink:href="stack__decision__procedure_8h.html" target="_top" xlink:title=" ">
<polygon fill="none" stroke="black" points="1484,-534.5 1484,-575.5 1694,-575.5 1694,-534.5 1484,-534.5"/>
<text text-anchor="start" x="1492" y="-563.5" font-family="Helvetica,sans-Serif" font-size="10.00">/home/runner/work/cbmc</text>
<text text-anchor="start" x="1492" y="-552.5" font-family="Helvetica,sans-Serif" font-size="10.00">&#45;documentation/cbmc&#45;documentation</text>
<text text-anchor="middle" x="1589" y="-541.5" font-family="Helvetica,sans-Serif" font-size="10.00">/src/solvers/stack_decision_procedure.h</text>
</a>
</g>
</g>
<!-- Node1&#45;&gt;Node2 -->
<g id="edge1" class="edge">
<title>Node1&#45;&gt;Node2</title>
<path fill="none" stroke="midnightblue" d="M2326.68,-622.11C2162.4,-607.39 1855.53,-579.89 1694.24,-565.43"/>
<polygon fill="midnightblue" stroke="midnightblue" points="2326.54,-625.61 2336.81,-623.02 2327.16,-618.64 2326.54,-625.61"/>
</g>
<!-- Node107 -->
<g id="node25" class="node">
<title>Node107</title>
<g id="a_node25"><a xlink:href="bmc__util_8cpp.html" target="_top" xlink:title=" ">
<polygon fill="none" stroke="black" points="1922,-95 1922,-136 2122,-136 2122,-95 1922,-95"/>
<text text-anchor="start" x="1930" y="-124" font-family="Helvetica,sans-Serif" font-size="10.00">/home/runner/work/cbmc</text>
<text text-anchor="start" x="1930" y="-113" font-family="Helvetica,sans-Serif" font-size="10.00">&#45;documentation/cbmc&#45;documentation</text>
<text text-anchor="middle" x="2022" y="-102" font-family="Helvetica,sans-Serif" font-size="10.00">/src/goto&#45;checker/bmc_util.cpp</text>
</a>
</g>
</g>
<!-- Node1&#45;&gt;Node107 -->
<g id="edge39" class="edge">
<title>Node1&#45;&gt;Node107</title>
<path fill="none" stroke="midnightblue" d="M2351.37,-608.24C2334.24,-600.27 2317.65,-589.76 2305,-576 2272.23,-540.36 2271,-520.92 2271,-472.5 2271,-472.5 2271,-472.5 2271,-292.5 2271,-207.27 2172.51,-159.63 2099.42,-136.01"/>
<polygon fill="midnightblue" stroke="midnightblue" points="2350.35,-611.62 2360.91,-612.42 2353.15,-605.21 2350.35,-611.62"/>
</g>
<!-- Node38 -->
<g id="node28" class="node">
<title>Node38</title>
<g id="a_node28"><a xlink:href="scratch__program_8cpp.html" target="_top" xlink:title=" ">
<polygon fill="none" stroke="black" points="1749,-178.5 1749,-230.5 1949,-230.5 1949,-178.5 1749,-178.5"/>
<text text-anchor="start" x="1757" y="-218.5" font-family="Helvetica,sans-Serif" font-size="10.00">/home/runner/work/cbmc</text>
<text text-anchor="start" x="1757" y="-207.5" font-family="Helvetica,sans-Serif" font-size="10.00">&#45;documentation/cbmc&#45;documentation</text>
<text text-anchor="start" x="1757" y="-196.5" font-family="Helvetica,sans-Serif" font-size="10.00">/src/goto&#45;instrument/accelerate</text>
<text text-anchor="middle" x="1849" y="-185.5" font-family="Helvetica,sans-Serif" font-size="10.00">/scratch_program.cpp</text>
</a>
</g>
</g>
<!-- Node1&#45;&gt;Node38 -->
<g id="edge40" class="edge">
<title>Node1&#45;&gt;Node38</title>
<path fill="none" stroke="midnightblue" d="M2366.45,-607.7C2351.82,-599.68 2337.88,-589.29 2328,-576 2300.11,-538.46 2309,-519.27 2309,-472.5 2309,-472.5 2309,-472.5 2309,-381.5 2309,-305.02 2084.42,-249.49 1949.1,-222.97"/>
<polygon fill="midnightblue" stroke="midnightblue" points="2365.13,-610.95 2375.62,-612.39 2368.31,-604.72 2365.13,-610.95"/>
</g>
<!-- Node116 -->
<g id="node36" class="node">
<title>Node116</title>
<g id="a_node36"><a xlink:href="build__goto__trace_8cpp.html" target="_top" xlink:title=" ">
<polygon fill="none" stroke="black" points="2337,-534.5 2337,-575.5 2537,-575.5 2537,-534.5 2337,-534.5"/>
<text text-anchor="start" x="2345" y="-563.5" font-family="Helvetica,sans-Serif" font-size="10.00">/home/runner/work/cbmc</text>
<text text-anchor="start" x="2345" y="-552.5" font-family="Helvetica,sans-Serif" font-size="10.00">&#45;documentation/cbmc&#45;documentation</text>
<text text-anchor="middle" x="2437" y="-541.5" font-family="Helvetica,sans-Serif" font-size="10.00">/src/goto&#45;symex/build_goto_trace.cpp</text>
</a>
</g>
</g>
<!-- Node1&#45;&gt;Node116 -->
<g id="edge41" class="edge">
<title>Node1&#45;&gt;Node116</title>
<path fill="none" stroke="midnightblue" d="M2437,-602.3C2437,-593.3 2437,-583.65 2437,-575.51"/>
<polygon fill="midnightblue" stroke="midnightblue" points="2433.5,-602.43 2437,-612.43 2440.5,-602.43 2433.5,-602.43"/>
</g>
<!-- Node117 -->
<g id="node37" class="node">
<title>Node117</title>
<g id="a_node37"><a xlink:href="decision__procedure_8cpp.html" target="_top" xlink:title=" ">
<polygon fill="none" stroke="black" points="2555,-534.5 2555,-575.5 2755,-575.5 2755,-534.5 2555,-534.5"/>
<text text-anchor="start" x="2563" y="-563.5" font-family="Helvetica,sans-Serif" font-size="10.00">/home/runner/work/cbmc</text>
<text text-anchor="start" x="2563" y="-552.5" font-family="Helvetica,sans-Serif" font-size="10.00">&#45;documentation/cbmc&#45;documentation</text>
<text text-anchor="middle" x="2655" y="-541.5" font-family="Helvetica,sans-Serif" font-size="10.00">/src/solvers/decision_procedure.cpp</text>
</a>
</g>
</g>
<!-- Node1&#45;&gt;Node117 -->
<g id="edge42" class="edge">
<title>Node1&#45;&gt;Node117</title>
<path fill="none" stroke="midnightblue" d="M2502.9,-609.03C2533.59,-598.33 2569.71,-585.73 2599.05,-575.51"/>
<polygon fill="midnightblue" stroke="midnightblue" points="2501.43,-605.83 2493.14,-612.43 2503.74,-612.44 2501.43,-605.83"/>
</g>
<!-- Node118 -->
<g id="node38" class="node">
<title>Node118</title>
<g id="a_node38"><a xlink:href="functions_8cpp.html" target="_top" xlink:title=" ">
<polygon fill="none" stroke="black" points="2773,-534.5 2773,-575.5 2973,-575.5 2973,-534.5 2773,-534.5"/>
<text text-anchor="start" x="2781" y="-563.5" font-family="Helvetica,sans-Serif" font-size="10.00">/home/runner/work/cbmc</text>
<text text-anchor="start" x="2781" y="-552.5" font-family="Helvetica,sans-Serif" font-size="10.00">&#45;documentation/cbmc&#45;documentation</text>
<text text-anchor="middle" x="2873" y="-541.5" font-family="Helvetica,sans-Serif" font-size="10.00">/src/solvers/lowering/functions.cpp</text>
</a>
</g>
</g>
<!-- Node1&#45;&gt;Node118 -->
<g id="edge43" class="edge">
<title>Node1&#45;&gt;Node118</title>
<path fill="none" stroke="midnightblue" d="M2547.26,-613.45C2610.69,-602.7 2691.86,-588.79 2764,-576 2766.94,-575.48 2769.92,-574.95 2772.92,-574.41"/>
<polygon fill="midnightblue" stroke="midnightblue" points="2546.51,-610.03 2537.23,-615.15 2547.68,-616.93 2546.51,-610.03"/>
</g>
<!-- Node119 -->
<g id="node39" class="node">
<title>Node119</title>
<g id="a_node39"><a xlink:href="cover__goals_8h.html" target="_top" xlink:title=" ">
<polygon fill="none" stroke="black" points="2991,-534.5 2991,-575.5 3191,-575.5 3191,-534.5 2991,-534.5"/>
<text text-anchor="start" x="2999" y="-563.5" font-family="Helvetica,sans-Serif" font-size="10.00">/home/runner/work/cbmc</text>
<text text-anchor="start" x="2999" y="-552.5" font-family="Helvetica,sans-Serif" font-size="10.00">&#45;documentation/cbmc&#45;documentation</text>
<text text-anchor="middle" x="3091" y="-541.5" font-family="Helvetica,sans-Serif" font-size="10.00">/src/solvers/prop/cover_goals.h</text>
</a>
</g>
</g>
<!-- Node1&#45;&gt;Node119 -->
<g id="edge44" class="edge">
<title>Node1&#45;&gt;Node119</title>
<path fill="none" stroke="midnightblue" d="M2547.38,-623.24C2657.7,-613.87 2832.02,-597.43 2982,-576 2984.95,-575.58 2987.95,-575.13 2990.97,-574.67"/>
<polygon fill="midnightblue" stroke="midnightblue" points="2546.91,-619.76 2537.24,-624.09 2547.5,-626.74 2546.91,-619.76"/>
</g>
<!-- Node3 -->
<g id="node3" class="node">
<title>Node3</title>
<g id="a_node3"><a xlink:href="prop__conv_8h.html" target="_top" xlink:title=" ">
<polygon fill="none" stroke="black" points="730,-451 730,-492 930,-492 930,-451 730,-451"/>
<text text-anchor="start" x="738" y="-480" font-family="Helvetica,sans-Serif" font-size="10.00">/home/runner/work/cbmc</text>
<text text-anchor="start" x="738" y="-469" font-family="Helvetica,sans-Serif" font-size="10.00">&#45;documentation/cbmc&#45;documentation</text>
<text text-anchor="middle" x="830" y="-458" font-family="Helvetica,sans-Serif" font-size="10.00">/src/solvers/prop/prop_conv.h</text>
</a>
</g>
</g>
<!-- Node2&#45;&gt;Node3 -->
<g id="edge2" class="edge">
<title>Node2&#45;&gt;Node3</title>
<path fill="none" stroke="midnightblue" d="M1473.96,-542.31C1365.4,-531.2 1198.1,-513.88 1053,-498 1012.81,-493.6 968.57,-488.58 930.16,-484.16"/>
<polygon fill="midnightblue" stroke="midnightblue" points="1473.65,-545.8 1483.96,-543.33 1474.36,-538.83 1473.65,-545.8"/>
</g>
<!-- Node15 -->
<g id="node12" class="node">
<title>Node15</title>
<g id="a_node12"><a xlink:href="solver__factory_8cpp.html" target="_top" xlink:title=" ">
<polygon fill="none" stroke="black" points="1019,-184 1019,-225 1219,-225 1219,-184 1019,-184"/>
<text text-anchor="start" x="1027" y="-213" font-family="Helvetica,sans-Serif" font-size="10.00">/home/runner/work/cbmc</text>
<text text-anchor="start" x="1027" y="-202" font-family="Helvetica,sans-Serif" font-size="10.00">&#45;documentation/cbmc&#45;documentation</text>
<text text-anchor="middle" x="1119" y="-191" font-family="Helvetica,sans-Serif" font-size="10.00">/src/goto&#45;checker/solver_factory.cpp</text>
</a>
</g>
</g>
<!-- Node2&#45;&gt;Node15 -->
<g id="edge35" class="edge">
<title>Node2&#45;&gt;Node15</title>
<path fill="none" stroke="midnightblue" d="M1474.05,-537.26C1340.33,-515.13 1131.96,-471.5 1086,-409 1048.61,-358.16 1070.62,-328.21 1086,-267 1089.75,-252.08 1097.9,-236.82 1105.16,-225.24"/>
<polygon fill="midnightblue" stroke="midnightblue" points="1473.51,-540.72 1483.95,-538.88 1474.64,-533.81 1473.51,-540.72"/>
</g>
<!-- Node96 -->
<g id="node18" class="node">
<title>Node96</title>
<g id="a_node18"><a xlink:href="smt2__conv_8h.html" target="_top" xlink:title=" ">
<polygon fill="none" stroke="black" points="1380,-451 1380,-492 1580,-492 1580,-451 1380,-451"/>
<text text-anchor="start" x="1388" y="-480" font-family="Helvetica,sans-Serif" font-size="10.00">/home/runner/work/cbmc</text>
<text text-anchor="start" x="1388" y="-469" font-family="Helvetica,sans-Serif" font-size="10.00">&#45;documentation/cbmc&#45;documentation</text>
<text text-anchor="middle" x="1480" y="-458" font-family="Helvetica,sans-Serif" font-size="10.00">/src/solvers/smt2/smt2_conv.h</text>
</a>
</g>
</g>
<!-- Node2&#45;&gt;Node96 -->
<g id="edge17" class="edge">
<title>Node2&#45;&gt;Node96</title>
<path fill="none" stroke="midnightblue" d="M1554.52,-528.22C1538.91,-516.55 1520.76,-502.97 1506.27,-492.14"/>
<polygon fill="midnightblue" stroke="midnightblue" points="1552.79,-531.29 1562.89,-534.48 1556.98,-525.69 1552.79,-531.29"/>
</g>
<!-- Node113 -->
<g id="node33" class="node">
<title>Node113</title>
<g id="a_node33"><a xlink:href="goto__symex__fault__localizer_8cpp.html" target="_top" xlink:title=" ">
<polygon fill="none" stroke="black" points="1598,-445.5 1598,-497.5 1798,-497.5 1798,-445.5 1598,-445.5"/>
<text text-anchor="start" x="1606" y="-485.5" font-family="Helvetica,sans-Serif" font-size="10.00">/home/runner/work/cbmc</text>
<text text-anchor="start" x="1606" y="-474.5" font-family="Helvetica,sans-Serif" font-size="10.00">&#45;documentation/cbmc&#45;documentation</text>
<text text-anchor="start" x="1606" y="-463.5" font-family="Helvetica,sans-Serif" font-size="10.00">/src/goto&#45;checker/goto_symex</text>
<text text-anchor="middle" x="1698" y="-452.5" font-family="Helvetica,sans-Serif" font-size="10.00">_fault_localizer.cpp</text>
</a>
</g>
</g>
<!-- Node2&#45;&gt;Node113 -->
<g id="edge34" class="edge">
<title>Node2&#45;&gt;Node113</title>
<path fill="none" stroke="midnightblue" d="M1623.39,-528.29C1636.43,-518.53 1651.27,-507.44 1664.26,-497.73"/>
<polygon fill="midnightblue" stroke="midnightblue" points="1621.02,-525.69 1615.11,-534.48 1625.21,-531.29 1621.02,-525.69"/>
</g>
<!-- Node114 -->
<g id="node34" class="node">
<title>Node114</title>
<g id="a_node34"><a xlink:href="smt2__incremental__decision__procedure_8h.html" target="_top" xlink:title=" ">
<polygon fill="none" stroke="black" points="1878.5,-445.5 1878.5,-497.5 2095.5,-497.5 2095.5,-445.5 1878.5,-445.5"/>
<text text-anchor="start" x="1886.5" y="-485.5" font-family="Helvetica,sans-Serif" font-size="10.00">/home/runner/work/cbmc</text>
<text text-anchor="start" x="1886.5" y="-474.5" font-family="Helvetica,sans-Serif" font-size="10.00">&#45;documentation/cbmc&#45;documentation</text>
<text text-anchor="start" x="1886.5" y="-463.5" font-family="Helvetica,sans-Serif" font-size="10.00">/src/solvers/smt2_incremental</text>
<text text-anchor="middle" x="1987" y="-452.5" font-family="Helvetica,sans-Serif" font-size="10.00">/smt2_incremental_decision_procedure.h</text>
</a>
</g>
</g>
<!-- Node2&#45;&gt;Node114 -->
<g id="edge36" class="edge">
<title>Node2&#45;&gt;Node114</title>
<path fill="none" stroke="midnightblue" d="M1694.41,-532.41C1751.19,-520.79 1821.13,-506.47 1878.39,-494.74"/>
<polygon fill="midnightblue" stroke="midnightblue" points="1693.43,-529.04 1684.33,-534.48 1694.83,-535.9 1693.43,-529.04"/>
</g>
<!-- Node4 -->
<g id="node4" class="node">
<title>Node4</title>
<g id="a_node4"><a xlink:href="prop__conv__solver_8h.html" target="_top" xlink:title=" ">
<polygon fill="none" stroke="black" points="403,-362 403,-403 603,-403 603,-362 403,-362"/>
<text text-anchor="start" x="411" y="-391" font-family="Helvetica,sans-Serif" font-size="10.00">/home/runner/work/cbmc</text>
<text text-anchor="start" x="411" y="-380" font-family="Helvetica,sans-Serif" font-size="10.00">&#45;documentation/cbmc&#45;documentation</text>
<text text-anchor="middle" x="503" y="-369" font-family="Helvetica,sans-Serif" font-size="10.00">/src/solvers/prop/prop_conv_solver.h</text>
</a>
</g>
</g>
<!-- Node3&#45;&gt;Node4 -->
<g id="edge3" class="edge">
<title>Node3&#45;&gt;Node4</title>
<path fill="none" stroke="midnightblue" d="M746.65,-448.32C694.12,-434.35 626.94,-416.47 576.42,-403.03"/>
<polygon fill="midnightblue" stroke="midnightblue" points="746.05,-451.79 756.61,-450.98 747.85,-445.02 746.05,-451.79"/>
</g>
<!-- Node94 -->
<g id="node16" class="node">
<title>Node94</title>
<g id="a_node16"><a xlink:href="prop__conv_8cpp.html" target="_top" xlink:title=" ">
<polygon fill="none" stroke="black" points="621,-362 621,-403 821,-403 821,-362 621,-362"/>
<text text-anchor="start" x="629" y="-391" font-family="Helvetica,sans-Serif" font-size="10.00">/home/runner/work/cbmc</text>
<text text-anchor="start" x="629" y="-380" font-family="Helvetica,sans-Serif" font-size="10.00">&#45;documentation/cbmc&#45;documentation</text>
<text text-anchor="middle" x="721" y="-369" font-family="Helvetica,sans-Serif" font-size="10.00">/src/solvers/prop/prop_conv.cpp</text>
</a>
</g>
</g>
<!-- Node3&#45;&gt;Node94 -->
<g id="edge15" class="edge">
<title>Node3&#45;&gt;Node94</title>
<path fill="none" stroke="midnightblue" d="M797.68,-444.71C781.07,-431.44 761.14,-415.53 745.76,-403.26"/>
<polygon fill="midnightblue" stroke="midnightblue" points="795.54,-447.47 805.54,-450.98 799.91,-442 795.54,-447.47"/>
</g>
<!-- Node95 -->
<g id="node17" class="node">
<title>Node95</title>
<g id="a_node17"><a xlink:href="prop__minimize_8cpp.html" target="_top" xlink:title=" ">
<polygon fill="none" stroke="black" points="839,-362 839,-403 1039,-403 1039,-362 839,-362"/>
<text text-anchor="start" x="847" y="-391" font-family="Helvetica,sans-Serif" font-size="10.00">/home/runner/work/cbmc</text>
<text text-anchor="start" x="847" y="-380" font-family="Helvetica,sans-Serif" font-size="10.00">&#45;documentation/cbmc&#45;documentation</text>
<text text-anchor="middle" x="939" y="-369" font-family="Helvetica,sans-Serif" font-size="10.00">/src/solvers/prop/prop_minimize.cpp</text>
</a>
</g>
</g>
<!-- Node3&#45;&gt;Node95 -->
<g id="edge16" class="edge">
<title>Node3&#45;&gt;Node95</title>
<path fill="none" stroke="midnightblue" d="M862.32,-444.71C878.93,-431.44 898.86,-415.53 914.24,-403.26"/>
<polygon fill="midnightblue" stroke="midnightblue" points="860.09,-442 854.46,-450.98 864.46,-447.47 860.09,-442"/>
</g>
<!-- Node5 -->
<g id="node5" class="node">
<title>Node5</title>
<g id="a_node5"><a xlink:href="equality_8h.html" target="_top" xlink:title=" ">
<polygon fill="none" stroke="black" points="327,-273 327,-314 527,-314 527,-273 327,-273"/>
<text text-anchor="start" x="335" y="-302" font-family="Helvetica,sans-Serif" font-size="10.00">/home/runner/work/cbmc</text>
<text text-anchor="start" x="335" y="-291" font-family="Helvetica,sans-Serif" font-size="10.00">&#45;documentation/cbmc&#45;documentation</text>
<text text-anchor="middle" x="427" y="-280" font-family="Helvetica,sans-Serif" font-size="10.00">/src/solvers/flattening/equality.h</text>
</a>
</g>
</g>
<!-- Node4&#45;&gt;Node5 -->
<g id="edge4" class="edge">
<title>Node4&#45;&gt;Node5</title>
<path fill="none" stroke="midnightblue" d="M479.01,-354.03C467.7,-341.09 454.46,-325.94 444.18,-314.16"/>
<polygon fill="midnightblue" stroke="midnightblue" points="476.54,-356.53 485.75,-361.76 481.81,-351.92 476.54,-356.53"/>
</g>
<!-- Node90 -->
<g id="node10" class="node">
<title>Node90</title>
<g id="a_node10"><a xlink:href="solver__hardness_8h.html" target="_top" xlink:title=" ">
<polygon fill="none" stroke="black" points="564,-273 564,-314 764,-314 764,-273 564,-273"/>
<text text-anchor="start" x="572" y="-302" font-family="Helvetica,sans-Serif" font-size="10.00">/home/runner/work/cbmc</text>
<text text-anchor="start" x="572" y="-291" font-family="Helvetica,sans-Serif" font-size="10.00">&#45;documentation/cbmc&#45;documentation</text>
<text text-anchor="middle" x="664" y="-280" font-family="Helvetica,sans-Serif" font-size="10.00">/src/goto&#45;symex/solver_hardness.h</text>
</a>
</g>
</g>
<!-- Node4&#45;&gt;Node90 -->
<g id="edge9" class="edge">
<title>Node4&#45;&gt;Node90</title>
<path fill="none" stroke="midnightblue" d="M548.11,-357.12C573.25,-343.54 604.15,-326.84 627.71,-314.11"/>
<polygon fill="midnightblue" stroke="midnightblue" points="546.27,-354.14 539.13,-361.98 549.59,-360.3 546.27,-354.14"/>
</g>
<!-- Node93 -->
<g id="node15" class="node">
<title>Node93</title>
<g id="a_node15"><a xlink:href="prop__conv__solver_8cpp.html" target="_top" xlink:title=" ">
<polygon fill="none" stroke="black" points="782.5,-273 782.5,-314 987.5,-314 987.5,-273 782.5,-273"/>
<text text-anchor="start" x="790.5" y="-302" font-family="Helvetica,sans-Serif" font-size="10.00">/home/runner/work/cbmc</text>
<text text-anchor="start" x="790.5" y="-291" font-family="Helvetica,sans-Serif" font-size="10.00">&#45;documentation/cbmc&#45;documentation</text>
<text text-anchor="middle" x="885" y="-280" font-family="Helvetica,sans-Serif" font-size="10.00">/src/solvers/prop/prop_conv_solver.cpp</text>
</a>
</g>
</g>
<!-- Node4&#45;&gt;Node93 -->
<g id="edge14" class="edge">
<title>Node4&#45;&gt;Node93</title>
<path fill="none" stroke="midnightblue" d="M595.86,-359.71C601.32,-358.45 606.73,-357.21 612,-356 683.48,-339.65 701.48,-336.14 773,-320 781.56,-318.07 790.48,-316.05 799.4,-314.03"/>
<polygon fill="midnightblue" stroke="midnightblue" points="594.95,-356.33 586,-361.99 596.53,-363.15 594.95,-356.33"/>
</g>
<!-- Node6 -->
<g id="node6" class="node">
<title>Node6</title>
<g id="a_node6"><a xlink:href="arrays_8h.html" target="_top" xlink:title=" ">
<polygon fill="none" stroke="black" points="109,-184 109,-225 309,-225 309,-184 109,-184"/>
<text text-anchor="start" x="117" y="-213" font-family="Helvetica,sans-Serif" font-size="10.00">/home/runner/work/cbmc</text>
<text text-anchor="start" x="117" y="-202" font-family="Helvetica,sans-Serif" font-size="10.00">&#45;documentation/cbmc&#45;documentation</text>
<text text-anchor="middle" x="209" y="-191" font-family="Helvetica,sans-Serif" font-size="10.00">/src/solvers/flattening/arrays.h</text>
</a>
</g>
</g>
<!-- Node5&#45;&gt;Node6 -->
<g id="edge5" class="edge">
<title>Node5&#45;&gt;Node6</title>
<path fill="none" stroke="midnightblue" d="M368.59,-269.19C334.08,-255.42 290.89,-238.18 258.14,-225.11"/>
<polygon fill="midnightblue" stroke="midnightblue" points="367.49,-272.52 378.08,-272.98 370.09,-266.02 367.49,-272.52"/>
</g>
<!-- Node89 -->
<g id="node9" class="node">
<title>Node89</title>
<g id="a_node9"><a xlink:href="equality_8cpp.html" target="_top" xlink:title=" ">
<polygon fill="none" stroke="black" points="327,-184 327,-225 527,-225 527,-184 327,-184"/>
<text text-anchor="start" x="335" y="-213" font-family="Helvetica,sans-Serif" font-size="10.00">/home/runner/work/cbmc</text>
<text text-anchor="start" x="335" y="-202" font-family="Helvetica,sans-Serif" font-size="10.00">&#45;documentation/cbmc&#45;documentation</text>
<text text-anchor="middle" x="427" y="-191" font-family="Helvetica,sans-Serif" font-size="10.00">/src/solvers/flattening/equality.cpp</text>
</a>
</g>
</g>
<!-- Node5&#45;&gt;Node89 -->
<g id="edge8" class="edge">
<title>Node5&#45;&gt;Node89</title>
<path fill="none" stroke="midnightblue" d="M427,-262.44C427,-250.1 427,-236.16 427,-225.16"/>
<polygon fill="midnightblue" stroke="midnightblue" points="423.5,-262.76 427,-272.76 430.5,-262.76 423.5,-262.76"/>
</g>
<!-- Node7 -->
<g id="node7" class="node">
<title>Node7</title>
<g id="a_node7"><a xlink:href="boolbv_8h.html" target="_top" xlink:title=" ">
<polygon fill="none" stroke="red" points="0,-95 0,-136 200,-136 200,-95 0,-95"/>
<text text-anchor="start" x="8" y="-124" font-family="Helvetica,sans-Serif" font-size="10.00">/home/runner/work/cbmc</text>
<text text-anchor="start" x="8" y="-113" font-family="Helvetica,sans-Serif" font-size="10.00">&#45;documentation/cbmc&#45;documentation</text>
<text text-anchor="middle" x="100" y="-102" font-family="Helvetica,sans-Serif" font-size="10.00">/src/solvers/flattening/boolbv.h</text>
</a>
</g>
</g>
<!-- Node6&#45;&gt;Node7 -->
<g id="edge6" class="edge">
<title>Node6&#45;&gt;Node7</title>
<path fill="none" stroke="midnightblue" d="M176.68,-177.71C160.07,-164.44 140.14,-148.53 124.76,-136.26"/>
<polygon fill="midnightblue" stroke="midnightblue" points="174.54,-180.47 184.54,-183.98 178.91,-175 174.54,-180.47"/>
</g>
<!-- Node88 -->
<g id="node8" class="node">
<title>Node88</title>
<g id="a_node8"><a xlink:href="arrays_8cpp.html" target="_top" xlink:title=" ">
<polygon fill="none" stroke="black" points="218,-95 218,-136 418,-136 418,-95 218,-95"/>
<text text-anchor="start" x="226" y="-124" font-family="Helvetica,sans-Serif" font-size="10.00">/home/runner/work/cbmc</text>
<text text-anchor="start" x="226" y="-113" font-family="Helvetica,sans-Serif" font-size="10.00">&#45;documentation/cbmc&#45;documentation</text>
<text text-anchor="middle" x="318" y="-102" font-family="Helvetica,sans-Serif" font-size="10.00">/src/solvers/flattening/arrays.cpp</text>
</a>
</g>
</g>
<!-- Node6&#45;&gt;Node88 -->
<g id="edge7" class="edge">
<title>Node6&#45;&gt;Node88</title>
<path fill="none" stroke="midnightblue" d="M241.32,-177.71C257.93,-164.44 277.86,-148.53 293.24,-136.26"/>
<polygon fill="midnightblue" stroke="midnightblue" points="239.09,-175 233.46,-183.98 243.46,-180.47 239.09,-175"/>
</g>
<!-- Node26 -->
<g id="node11" class="node">
<title>Node26</title>
<g id="a_node11"><a xlink:href="multi__path__symex__checker_8cpp.html" target="_top" xlink:title=" ">
<polygon fill="none" stroke="black" points="628,-0.5 628,-52.5 828,-52.5 828,-0.5 628,-0.5"/>
<text text-anchor="start" x="636" y="-40.5" font-family="Helvetica,sans-Serif" font-size="10.00">/home/runner/work/cbmc</text>
<text text-anchor="start" x="636" y="-29.5" font-family="Helvetica,sans-Serif" font-size="10.00">&#45;documentation/cbmc&#45;documentation</text>
<text text-anchor="start" x="636" y="-18.5" font-family="Helvetica,sans-Serif" font-size="10.00">/src/goto&#45;checker/multi_path</text>
<text text-anchor="middle" x="728" y="-7.5" font-family="Helvetica,sans-Serif" font-size="10.00">_symex_checker.cpp</text>
</a>
</g>
</g>
<!-- Node90&#45;&gt;Node26 -->
<g id="edge10" class="edge">
<title>Node90&#45;&gt;Node26</title>
<path fill="none" stroke="midnightblue" d="M609.7,-267.54C595.51,-258.21 581.97,-246.11 574,-231 563,-210.17 564.86,-199.71 574,-178 596.99,-123.39 650.54,-78.71 688,-52.6"/>
<polygon fill="midnightblue" stroke="midnightblue" points="608.23,-270.74 618.58,-273 611.89,-264.78 608.23,-270.74"/>
</g>
<!-- Node90&#45;&gt;Node15 -->
<g id="edge11" class="edge">
<title>Node90&#45;&gt;Node15</title>
<path fill="none" stroke="midnightblue" d="M754.2,-270.82C760.55,-269.47 766.86,-268.18 773,-267 877.62,-246.85 905.38,-251.15 1010,-231 1019.35,-229.2 1029.12,-227.15 1038.79,-225.02"/>
<polygon fill="midnightblue" stroke="midnightblue" points="753.24,-267.44 744.21,-272.98 754.72,-274.28 753.24,-267.44"/>
</g>
<!-- Node91 -->
<g id="node13" class="node">
<title>Node91</title>
<g id="a_node13"><a xlink:href="solver__hardness_8cpp.html" target="_top" xlink:title=" ">
<polygon fill="none" stroke="black" points="583,-184 583,-225 783,-225 783,-184 583,-184"/>
<text text-anchor="start" x="591" y="-213" font-family="Helvetica,sans-Serif" font-size="10.00">/home/runner/work/cbmc</text>
<text text-anchor="start" x="591" y="-202" font-family="Helvetica,sans-Serif" font-size="10.00">&#45;documentation/cbmc&#45;documentation</text>
<text text-anchor="middle" x="683" y="-191" font-family="Helvetica,sans-Serif" font-size="10.00">/src/goto&#45;symex/solver_hardness.cpp</text>
</a>
</g>
</g>
<!-- Node90&#45;&gt;Node91 -->
<g id="edge12" class="edge">
<title>Node90&#45;&gt;Node91</title>
<path fill="none" stroke="midnightblue" d="M670.48,-262.81C673.2,-250.38 676.28,-236.27 678.71,-225.16"/>
<polygon fill="midnightblue" stroke="midnightblue" points="667.03,-262.24 668.31,-272.76 673.86,-263.74 667.03,-262.24"/>
</g>
<!-- Node92 -->
<g id="node14" class="node">
<title>Node92</title>
<g id="a_node14"><a xlink:href="symex__target__equation_8cpp.html" target="_top" xlink:title=" ">
<polygon fill="none" stroke="black" points="801,-178.5 801,-230.5 1001,-230.5 1001,-178.5 801,-178.5"/>
<text text-anchor="start" x="809" y="-218.5" font-family="Helvetica,sans-Serif" font-size="10.00">/home/runner/work/cbmc</text>
<text text-anchor="start" x="809" y="-207.5" font-family="Helvetica,sans-Serif" font-size="10.00">&#45;documentation/cbmc&#45;documentation</text>
<text text-anchor="start" x="809" y="-196.5" font-family="Helvetica,sans-Serif" font-size="10.00">/src/goto&#45;symex/symex_target</text>
<text text-anchor="middle" x="901" y="-185.5" font-family="Helvetica,sans-Serif" font-size="10.00">_equation.cpp</text>
</a>
</g>
</g>
<!-- Node90&#45;&gt;Node92 -->
<g id="edge13" class="edge">
<title>Node90&#45;&gt;Node92</title>
<path fill="none" stroke="midnightblue" d="M726.62,-269.51C759.26,-257.53 799.23,-242.86 832.67,-230.58"/>
<polygon fill="midnightblue" stroke="midnightblue" points="725.37,-266.24 717.19,-272.98 727.78,-272.82 725.37,-266.24"/>
</g>
<!-- Node97 -->
<g id="node19" class="node">
<title>Node97</title>
<g id="a_node19"><a xlink:href="smt2__dec_8h.html" target="_top" xlink:title=" ">
<polygon fill="none" stroke="black" points="1095,-362 1095,-403 1295,-403 1295,-362 1095,-362"/>
<text text-anchor="start" x="1103" y="-391" font-family="Helvetica,sans-Serif" font-size="10.00">/home/runner/work/cbmc</text>
<text text-anchor="start" x="1103" y="-380" font-family="Helvetica,sans-Serif" font-size="10.00">&#45;documentation/cbmc&#45;documentation</text>
<text text-anchor="middle" x="1195" y="-369" font-family="Helvetica,sans-Serif" font-size="10.00">/src/solvers/smt2/smt2_dec.h</text>
</a>
</g>
</g>
<!-- Node96&#45;&gt;Node97 -->
<g id="edge18" class="edge">
<title>Node96&#45;&gt;Node97</title>
<path fill="none" stroke="midnightblue" d="M1406.23,-447.98C1360.7,-434.08 1302.87,-416.43 1259.24,-403.11"/>
<polygon fill="midnightblue" stroke="midnightblue" points="1405.45,-451.4 1416.04,-450.98 1407.5,-444.71 1405.45,-451.4"/>
</g>
<!-- Node110 -->
<g id="node30" class="node">
<title>Node110</title>
<g id="a_node30"><a xlink:href="horn__encoding_8cpp.html" target="_top" xlink:title=" ">
<polygon fill="none" stroke="black" points="1313,-362 1313,-403 1523,-403 1523,-362 1313,-362"/>
<text text-anchor="start" x="1321" y="-391" font-family="Helvetica,sans-Serif" font-size="10.00">/home/runner/work/cbmc</text>
<text text-anchor="start" x="1321" y="-380" font-family="Helvetica,sans-Serif" font-size="10.00">&#45;documentation/cbmc&#45;documentation</text>
<text text-anchor="middle" x="1418" y="-369" font-family="Helvetica,sans-Serif" font-size="10.00">/src/goto&#45;instrument/horn_encoding.cpp</text>
</a>
</g>
</g>
<!-- Node96&#45;&gt;Node110 -->
<g id="edge31" class="edge">
<title>Node96&#45;&gt;Node110</title>
<path fill="none" stroke="midnightblue" d="M1459.9,-442.3C1450.79,-429.52 1440.25,-414.72 1432.01,-403.16"/>
<polygon fill="midnightblue" stroke="midnightblue" points="1457.28,-444.65 1465.93,-450.76 1462.98,-440.58 1457.28,-444.65"/>
</g>
<!-- Node111 -->
<g id="node31" class="node">
<title>Node111</title>
<g id="a_node31"><a xlink:href="smt2__conv_8cpp.html" target="_top" xlink:title=" ">
<polygon fill="none" stroke="black" points="1541,-362 1541,-403 1741,-403 1741,-362 1541,-362"/>
<text text-anchor="start" x="1549" y="-391" font-family="Helvetica,sans-Serif" font-size="10.00">/home/runner/work/cbmc</text>
<text text-anchor="start" x="1549" y="-380" font-family="Helvetica,sans-Serif" font-size="10.00">&#45;documentation/cbmc&#45;documentation</text>
<text text-anchor="middle" x="1641" y="-369" font-family="Helvetica,sans-Serif" font-size="10.00">/src/solvers/smt2/smt2_conv.cpp</text>
</a>
</g>
</g>
<!-- Node96&#45;&gt;Node111 -->
<g id="edge32" class="edge">
<title>Node96&#45;&gt;Node111</title>
<path fill="none" stroke="midnightblue" d="M1525.11,-446.12C1550.25,-432.54 1581.15,-415.84 1604.71,-403.11"/>
<polygon fill="midnightblue" stroke="midnightblue" points="1523.27,-443.14 1516.13,-450.98 1526.59,-449.3 1523.27,-443.14"/>
</g>
<!-- Node112 -->
<g id="node32" class="node">
<title>Node112</title>
<g id="a_node32"><a xlink:href="smt__to__smt2__string_8cpp.html" target="_top" xlink:title=" ">
<polygon fill="none" stroke="black" points="1759,-356.5 1759,-408.5 1959,-408.5 1959,-356.5 1759,-356.5"/>
<text text-anchor="start" x="1767" y="-396.5" font-family="Helvetica,sans-Serif" font-size="10.00">/home/runner/work/cbmc</text>
<text text-anchor="start" x="1767" y="-385.5" font-family="Helvetica,sans-Serif" font-size="10.00">&#45;documentation/cbmc&#45;documentation</text>
<text text-anchor="start" x="1767" y="-374.5" font-family="Helvetica,sans-Serif" font-size="10.00">/src/solvers/smt2_incremental</text>
<text text-anchor="middle" x="1859" y="-363.5" font-family="Helvetica,sans-Serif" font-size="10.00">/smt_to_smt2_string.cpp</text>
</a>
</g>
</g>
<!-- Node96&#45;&gt;Node112 -->
<g id="edge33" class="edge">
<title>Node96&#45;&gt;Node112</title>
<path fill="none" stroke="midnightblue" d="M1572.86,-448.71C1578.32,-447.45 1583.73,-446.21 1589,-445 1660.48,-428.65 1678.52,-425.35 1750,-409 1752.94,-408.33 1755.92,-407.64 1758.93,-406.95"/>
<polygon fill="midnightblue" stroke="midnightblue" points="1571.95,-445.33 1563,-450.99 1573.53,-452.15 1571.95,-445.33"/>
</g>
<!-- Node98 -->
<g id="node20" class="node">
<title>Node98</title>
<g id="a_node20"><a xlink:href="solver__factory_8h.html" target="_top" xlink:title=" ">
<polygon fill="none" stroke="black" points="1095,-273 1095,-314 1295,-314 1295,-273 1095,-273"/>
<text text-anchor="start" x="1103" y="-302" font-family="Helvetica,sans-Serif" font-size="10.00">/home/runner/work/cbmc</text>
<text text-anchor="start" x="1103" y="-291" font-family="Helvetica,sans-Serif" font-size="10.00">&#45;documentation/cbmc&#45;documentation</text>
<text text-anchor="middle" x="1195" y="-280" font-family="Helvetica,sans-Serif" font-size="10.00">/src/goto&#45;checker/solver_factory.h</text>
</a>
</g>
</g>
<!-- Node97&#45;&gt;Node98 -->
<g id="edge19" class="edge">
<title>Node97&#45;&gt;Node98</title>
<path fill="none" stroke="midnightblue" d="M1195,-351.44C1195,-339.1 1195,-325.16 1195,-314.16"/>
<polygon fill="midnightblue" stroke="midnightblue" points="1191.5,-351.76 1195,-361.76 1198.5,-351.76 1191.5,-351.76"/>
</g>
<!-- Node32 -->
<g id="node27" class="node">
<title>Node32</title>
<g id="a_node27"><a xlink:href="scratch__program_8h.html" target="_top" xlink:title=" ">
<polygon fill="none" stroke="red" points="1313,-267.5 1313,-319.5 1513,-319.5 1513,-267.5 1313,-267.5"/>
<text text-anchor="start" x="1321" y="-307.5" font-family="Helvetica,sans-Serif" font-size="10.00">/home/runner/work/cbmc</text>
<text text-anchor="start" x="1321" y="-296.5" font-family="Helvetica,sans-Serif" font-size="10.00">&#45;documentation/cbmc&#45;documentation</text>
<text text-anchor="start" x="1321" y="-285.5" font-family="Helvetica,sans-Serif" font-size="10.00">/src/goto&#45;instrument/accelerate</text>
<text text-anchor="middle" x="1413" y="-274.5" font-family="Helvetica,sans-Serif" font-size="10.00">/scratch_program.h</text>
</a>
</g>
</g>
<!-- Node97&#45;&gt;Node32 -->
<g id="edge28" class="edge">
<title>Node97&#45;&gt;Node32</title>
<path fill="none" stroke="midnightblue" d="M1253.38,-358.2C1283.25,-346.28 1319.65,-331.75 1350.14,-319.58"/>
<polygon fill="midnightblue" stroke="midnightblue" points="1251.91,-355.02 1243.92,-361.98 1254.51,-361.52 1251.91,-355.02"/>
</g>
<!-- Node109 -->
<g id="node29" class="node">
<title>Node109</title>
<g id="a_node29"><a xlink:href="smt2__dec_8cpp.html" target="_top" xlink:title=" ">
<polygon fill="none" stroke="black" points="1531,-273 1531,-314 1731,-314 1731,-273 1531,-273"/>
<text text-anchor="start" x="1539" y="-302" font-family="Helvetica,sans-Serif" font-size="10.00">/home/runner/work/cbmc</text>
<text text-anchor="start" x="1539" y="-291" font-family="Helvetica,sans-Serif" font-size="10.00">&#45;documentation/cbmc&#45;documentation</text>
<text text-anchor="middle" x="1631" y="-280" font-family="Helvetica,sans-Serif" font-size="10.00">/src/solvers/smt2/smt2_dec.cpp</text>
</a>
</g>
</g>
<!-- Node97&#45;&gt;Node109 -->
<g id="edge30" class="edge">
<title>Node97&#45;&gt;Node109</title>
<path fill="none" stroke="midnightblue" d="M1285.6,-359.82C1291.82,-358.48 1298,-357.2 1304,-356 1400.31,-336.8 1425.69,-339.2 1522,-320 1531.15,-318.18 1540.7,-316.14 1550.18,-314.04"/>
<polygon fill="midnightblue" stroke="midnightblue" points="1284.84,-356.41 1275.82,-361.96 1286.34,-363.25 1284.84,-356.41"/>
</g>
<!-- Node98&#45;&gt;Node15 -->
<g id="edge27" class="edge">
<title>Node98&#45;&gt;Node15</title>
<path fill="none" stroke="midnightblue" d="M1171.01,-265.03C1159.7,-252.09 1146.46,-236.94 1136.18,-225.16"/>
<polygon fill="midnightblue" stroke="midnightblue" points="1168.54,-267.53 1177.75,-272.76 1173.81,-262.92 1168.54,-267.53"/>
</g>
<!-- Node99 -->
<g id="node21" class="node">
<title>Node99</title>
<g id="a_node21"><a xlink:href="goto__symex__property__decider_8h.html" target="_top" xlink:title=" ">
<polygon fill="none" stroke="black" points="1237,-178.5 1237,-230.5 1437,-230.5 1437,-178.5 1237,-178.5"/>
<text text-anchor="start" x="1245" y="-218.5" font-family="Helvetica,sans-Serif" font-size="10.00">/home/runner/work/cbmc</text>
<text text-anchor="start" x="1245" y="-207.5" font-family="Helvetica,sans-Serif" font-size="10.00">&#45;documentation/cbmc&#45;documentation</text>
<text text-anchor="start" x="1245" y="-196.5" font-family="Helvetica,sans-Serif" font-size="10.00">/src/goto&#45;checker/goto_symex</text>
<text text-anchor="middle" x="1337" y="-185.5" font-family="Helvetica,sans-Serif" font-size="10.00">_property_decider.h</text>
</a>
</g>
</g>
<!-- Node98&#45;&gt;Node99 -->
<g id="edge20" class="edge">
<title>Node98&#45;&gt;Node99</title>
<path fill="none" stroke="midnightblue" d="M1235.58,-267.64C1254.53,-256.03 1277.06,-242.23 1296.06,-230.58"/>
<polygon fill="midnightblue" stroke="midnightblue" points="1233.57,-264.77 1226.87,-272.98 1237.22,-270.74 1233.57,-264.77"/>
</g>
<!-- Node100 -->
<g id="node22" class="node">
<title>Node100</title>
<g id="a_node22"><a xlink:href="multi__path__symex__checker_8h.html" target="_top" xlink:title=" ">
<polygon fill="none" stroke="red" points="715,-89.5 715,-141.5 915,-141.5 915,-89.5 715,-89.5"/>
<text text-anchor="start" x="723" y="-129.5" font-family="Helvetica,sans-Serif" font-size="10.00">/home/runner/work/cbmc</text>
<text text-anchor="start" x="723" y="-118.5" font-family="Helvetica,sans-Serif" font-size="10.00">&#45;documentation/cbmc&#45;documentation</text>
<text text-anchor="start" x="723" y="-107.5" font-family="Helvetica,sans-Serif" font-size="10.00">/src/goto&#45;checker/multi_path</text>
<text text-anchor="middle" x="815" y="-96.5" font-family="Helvetica,sans-Serif" font-size="10.00">_symex_checker.h</text>
</a>
</g>
</g>
<!-- Node99&#45;&gt;Node100 -->
<g id="edge21" class="edge">
<title>Node99&#45;&gt;Node100</title>
<path fill="none" stroke="midnightblue" d="M1226.84,-177.84C1114.57,-156.67 996.54,-139.83 915.11,-129.07"/>
<polygon fill="midnightblue" stroke="midnightblue" points="1226.51,-181.34 1236.98,-179.77 1227.81,-174.46 1226.51,-181.34"/>
</g>
<!-- Node103 -->
<g id="node23" class="node">
<title>Node103</title>
<g id="a_node23"><a xlink:href="single__loop__incremental__symex__checker_8h.html" target="_top" xlink:title=" ">
<polygon fill="none" stroke="red" points="1019,-89.5 1019,-141.5 1219,-141.5 1219,-89.5 1019,-89.5"/>
<text text-anchor="start" x="1027" y="-129.5" font-family="Helvetica,sans-Serif" font-size="10.00">/home/runner/work/cbmc</text>
<text text-anchor="start" x="1027" y="-118.5" font-family="Helvetica,sans-Serif" font-size="10.00">&#45;documentation/cbmc&#45;documentation</text>
<text text-anchor="start" x="1027" y="-107.5" font-family="Helvetica,sans-Serif" font-size="10.00">/src/goto&#45;checker/single_loop</text>
<text text-anchor="middle" x="1119" y="-96.5" font-family="Helvetica,sans-Serif" font-size="10.00">_incremental_symex_checker.h</text>
</a>
</g>
</g>
<!-- Node99&#45;&gt;Node103 -->
<g id="edge23" class="edge">
<title>Node99&#45;&gt;Node103</title>
<path fill="none" stroke="midnightblue" d="M1264.88,-174.72C1237.98,-163.98 1207.68,-151.89 1181.7,-141.52"/>
<polygon fill="midnightblue" stroke="midnightblue" points="1263.65,-178 1274.24,-178.45 1266.25,-171.5 1263.65,-178"/>
</g>
<!-- Node104 -->
<g id="node24" class="node">
<title>Node104</title>
<g id="a_node24"><a xlink:href="single__path__symex__checker_8h.html" target="_top" xlink:title=" ">
<polygon fill="none" stroke="red" points="1237,-89.5 1237,-141.5 1437,-141.5 1437,-89.5 1237,-89.5"/>
<text text-anchor="start" x="1245" y="-129.5" font-family="Helvetica,sans-Serif" font-size="10.00">/home/runner/work/cbmc</text>
<text text-anchor="start" x="1245" y="-118.5" font-family="Helvetica,sans-Serif" font-size="10.00">&#45;documentation/cbmc&#45;documentation</text>
<text text-anchor="start" x="1245" y="-107.5" font-family="Helvetica,sans-Serif" font-size="10.00">/src/goto&#45;checker/single_path</text>
<text text-anchor="middle" x="1337" y="-96.5" font-family="Helvetica,sans-Serif" font-size="10.00">_symex_checker.h</text>
</a>
</g>
</g>
<!-- Node99&#45;&gt;Node104 -->
<g id="edge24" class="edge">
<title>Node99&#45;&gt;Node104</title>
<path fill="none" stroke="midnightblue" d="M1337,-168.19C1337,-159.28 1337,-149.9 1337,-141.61"/>
<polygon fill="midnightblue" stroke="midnightblue" points="1333.5,-168.34 1337,-178.34 1340.5,-168.34 1333.5,-168.34"/>
</g>
<!-- Node99&#45;&gt;Node107 -->
<g id="edge25" class="edge">
<title>Node99&#45;&gt;Node107</title>
<path fill="none" stroke="midnightblue" d="M1447.41,-189.48C1578.58,-172.82 1795.51,-145.27 1921.95,-129.21"/>
<polygon fill="midnightblue" stroke="midnightblue" points="1446.82,-186.02 1437.34,-190.76 1447.7,-192.97 1446.82,-186.02"/>
</g>
<!-- Node108 -->
<g id="node26" class="node">
<title>Node108</title>
<g id="a_node26"><a xlink:href="goto__symex__property__decider_8cpp.html" target="_top" xlink:title=" ">
<polygon fill="none" stroke="black" points="1455,-89.5 1455,-141.5 1655,-141.5 1655,-89.5 1455,-89.5"/>
<text text-anchor="start" x="1463" y="-129.5" font-family="Helvetica,sans-Serif" font-size="10.00">/home/runner/work/cbmc</text>
<text text-anchor="start" x="1463" y="-118.5" font-family="Helvetica,sans-Serif" font-size="10.00">&#45;documentation/cbmc&#45;documentation</text>
<text text-anchor="start" x="1463" y="-107.5" font-family="Helvetica,sans-Serif" font-size="10.00">/src/goto&#45;checker/goto_symex</text>
<text text-anchor="middle" x="1555" y="-96.5" font-family="Helvetica,sans-Serif" font-size="10.00">_property_decider.cpp</text>
</a>
</g>
</g>
<!-- Node99&#45;&gt;Node108 -->
<g id="edge26" class="edge">
<title>Node99&#45;&gt;Node108</title>
<path fill="none" stroke="midnightblue" d="M1409.12,-174.72C1436.02,-163.98 1466.32,-151.89 1492.3,-141.52"/>
<polygon fill="midnightblue" stroke="midnightblue" points="1407.75,-171.5 1399.76,-178.45 1410.35,-178 1407.75,-171.5"/>
</g>
<!-- Node100&#45;&gt;Node26 -->
<g id="edge22" class="edge">
<title>Node100&#45;&gt;Node26</title>
<path fill="none" stroke="midnightblue" d="M782.58,-82.08C772.84,-72.34 762.3,-61.8 753.11,-52.61"/>
<polygon fill="midnightblue" stroke="midnightblue" points="780.29,-84.74 789.84,-89.34 785.24,-79.79 780.29,-84.74"/>
</g>
<!-- Node32&#45;&gt;Node38 -->
<g id="edge29" class="edge">
<title>Node32&#45;&gt;Node38</title>
<path fill="none" stroke="midnightblue" d="M1522.99,-266.82C1604.59,-249.74 1686.64,-234.41 1748.95,-223.14"/>
<polygon fill="midnightblue" stroke="midnightblue" points="1522.11,-263.43 1513.05,-268.92 1523.55,-270.28 1522.11,-263.43"/>
</g>
<!-- Node114&#45;&gt;Node15 -->
<g id="edge37" class="edge">
<title>Node114&#45;&gt;Node15</title>
<path fill="none" stroke="midnightblue" d="M1989.78,-435.23C1989.84,-410.5 1985.88,-378.05 1968,-356 1899.47,-271.52 1846.13,-290.86 1740,-267 1517.44,-216.96 1453.56,-265.09 1228,-231 1217.43,-229.4 1206.37,-227.31 1195.52,-225.02"/>
<polygon fill="midnightblue" stroke="midnightblue" points="1986.28,-435.23 1989.54,-445.31 1993.28,-435.39 1986.28,-435.23"/>
</g>
<!-- Node115 -->
<g id="node35" class="node">
<title>Node115</title>
<g id="a_node35"><a xlink:href="smt2__incremental__decision__procedure_8cpp.html" target="_top" xlink:title=" ">
<polygon fill="none" stroke="black" points="2015,-356.5 2015,-408.5 2243,-408.5 2243,-356.5 2015,-356.5"/>
<text text-anchor="start" x="2023" y="-396.5" font-family="Helvetica,sans-Serif" font-size="10.00">/home/runner/work/cbmc</text>
<text text-anchor="start" x="2023" y="-385.5" font-family="Helvetica,sans-Serif" font-size="10.00">&#45;documentation/cbmc&#45;documentation</text>
<text text-anchor="start" x="2023" y="-374.5" font-family="Helvetica,sans-Serif" font-size="10.00">/src/solvers/smt2_incremental</text>
<text text-anchor="middle" x="2129" y="-363.5" font-family="Helvetica,sans-Serif" font-size="10.00">/smt2_incremental_decision_procedure.cpp</text>
</a>
</g>
</g>
<!-- Node114&#45;&gt;Node115 -->
<g id="edge38" class="edge">
<title>Node114&#45;&gt;Node115</title>
<path fill="none" stroke="midnightblue" d="M2036.67,-440.07C2053.45,-429.79 2071.99,-418.43 2088.02,-408.61"/>
<polygon fill="midnightblue" stroke="midnightblue" points="2034.77,-437.13 2028.07,-445.34 2038.43,-443.1 2034.77,-437.13"/>
</g>
<!-- Node120 -->
<g id="node40" class="node">
<title>Node120</title>
<g id="a_node40"><a xlink:href="cover__goals_8cpp.html" target="_top" xlink:title=" ">
<polygon fill="none" stroke="black" points="2991,-451 2991,-492 3191,-492 3191,-451 2991,-451"/>
<text text-anchor="start" x="2999" y="-480" font-family="Helvetica,sans-Serif" font-size="10.00">/home/runner/work/cbmc</text>
<text text-anchor="start" x="2999" y="-469" font-family="Helvetica,sans-Serif" font-size="10.00">&#45;documentation/cbmc&#45;documentation</text>
<text text-anchor="middle" x="3091" y="-458" font-family="Helvetica,sans-Serif" font-size="10.00">/src/solvers/prop/cover_goals.cpp</text>
</a>
</g>
</g>
<!-- Node119&#45;&gt;Node120 -->
<g id="edge45" class="edge">
<title>Node119&#45;&gt;Node120</title>
<path fill="none" stroke="midnightblue" d="M3091,-524.06C3091,-513.38 3091,-501.63 3091,-492.05"/>
<polygon fill="midnightblue" stroke="midnightblue" points="3087.5,-524.27 3091,-534.27 3094.5,-524.27 3087.5,-524.27"/>
</g>
</g>
</svg>
