<?xml version="1.0" encoding="UTF-8" standalone="no"?>
<!DOCTYPE svg PUBLIC "-//W3C//DTD SVG 1.1//EN"
 "http://www.w3.org/Graphics/SVG/1.1/DTD/svg11.dtd">
<!-- Generated by graphviz version 2.43.0 (0)
 -->
<!-- Title: /home/runner/work/cbmc&#45;documentation/cbmc&#45;documentation/src/solvers/decision_procedure.h Pages: 1 -->
<svg width="2144pt" height="662pt"
 viewBox="0.00 0.00 2144.00 662.00" xmlns="http://www.w3.org/2000/svg" xmlns:xlink="http://www.w3.org/1999/xlink">
<g id="graph0" class="graph" transform="scale(1 1) rotate(0) translate(4 658)">
<title>/home/runner/work/cbmc&#45;documentation/cbmc&#45;documentation/src/solvers/decision_procedure.h</title>
<!-- Node1 -->
<g id="node1" class="node">
<title>Node1</title>
<g id="a_node1"><a xlink:title=" ">
<polygon fill="#bfbfbf" stroke="black" points="296,-612.5 296,-653.5 496,-653.5 496,-612.5 296,-612.5"/>
<text text-anchor="start" x="304" y="-641.5" font-family="Helvetica,sans-Serif" font-size="10.00">/home/runner/work/cbmc</text>
<text text-anchor="start" x="304" y="-630.5" font-family="Helvetica,sans-Serif" font-size="10.00">&#45;documentation/cbmc&#45;documentation</text>
<text text-anchor="middle" x="396" y="-619.5" font-family="Helvetica,sans-Serif" font-size="10.00">/src/solvers/decision_procedure.h</text>
</a>
</g>
</g>
<!-- Node2 -->
<g id="node2" class="node">
<title>Node2</title>
<g id="a_node2"><a xlink:href="bmc__util_8cpp.html" target="_top" xlink:title=" ">
<polygon fill="none" stroke="black" points="0,-95 0,-136 200,-136 200,-95 0,-95"/>
<text text-anchor="start" x="8" y="-124" font-family="Helvetica,sans-Serif" font-size="10.00">/home/runner/work/cbmc</text>
<text text-anchor="start" x="8" y="-113" font-family="Helvetica,sans-Serif" font-size="10.00">&#45;documentation/cbmc&#45;documentation</text>
<text text-anchor="middle" x="100" y="-102" font-family="Helvetica,sans-Serif" font-size="10.00">/src/goto&#45;checker/bmc_util.cpp</text>
</a>
</g>
</g>
<!-- Node1&#45;&gt;Node2 -->
<g id="edge1" class="edge">
<title>Node1&#45;&gt;Node2</title>
<path fill="none" stroke="midnightblue" d="M285.48,-626.96C196.06,-620.67 79.39,-606.69 44,-576 7.62,-544.46 12,-520.65 12,-472.5 12,-472.5 12,-472.5 12,-292.5 12,-229.98 56.97,-166.91 82.61,-136.02"/>
<polygon fill="midnightblue" stroke="midnightblue" points="285.47,-630.47 295.69,-627.66 285.95,-623.49 285.47,-630.47"/>
</g>
<!-- Node3 -->
<g id="node3" class="node">
<title>Node3</title>
<g id="a_node3"><a xlink:href="scratch__program_8cpp.html" target="_top" xlink:title=" ">
<polygon fill="none" stroke="black" points="173,-178.5 173,-230.5 373,-230.5 373,-178.5 173,-178.5"/>
<text text-anchor="start" x="181" y="-218.5" font-family="Helvetica,sans-Serif" font-size="10.00">/home/runner/work/cbmc</text>
<text text-anchor="start" x="181" y="-207.5" font-family="Helvetica,sans-Serif" font-size="10.00">&#45;documentation/cbmc&#45;documentation</text>
<text text-anchor="start" x="181" y="-196.5" font-family="Helvetica,sans-Serif" font-size="10.00">/src/goto&#45;instrument/accelerate</text>
<text text-anchor="middle" x="273" y="-185.5" font-family="Helvetica,sans-Serif" font-size="10.00">/scratch_program.cpp</text>
</a>
</g>
</g>
<!-- Node1&#45;&gt;Node3 -->
<g id="edge2" class="edge">
<title>Node1&#45;&gt;Node3</title>
<path fill="none" stroke="midnightblue" d="M285.86,-626.44C203.17,-619.9 99.22,-605.86 69,-576 35.73,-543.13 50,-519.27 50,-472.5 50,-472.5 50,-472.5 50,-381.5 50,-305.3 131.22,-256.97 195.63,-230.63"/>
<polygon fill="midnightblue" stroke="midnightblue" points="285.6,-629.93 295.83,-627.2 286.13,-622.95 285.6,-629.93"/>
</g>
<!-- Node4 -->
<g id="node4" class="node">
<title>Node4</title>
<g id="a_node4"><a xlink:href="build__goto__trace_8cpp.html" target="_top" xlink:title=" ">
<polygon fill="none" stroke="black" points="78,-534.5 78,-575.5 278,-575.5 278,-534.5 78,-534.5"/>
<text text-anchor="start" x="86" y="-563.5" font-family="Helvetica,sans-Serif" font-size="10.00">/home/runner/work/cbmc</text>
<text text-anchor="start" x="86" y="-552.5" font-family="Helvetica,sans-Serif" font-size="10.00">&#45;documentation/cbmc&#45;documentation</text>
<text text-anchor="middle" x="178" y="-541.5" font-family="Helvetica,sans-Serif" font-size="10.00">/src/goto&#45;symex/build_goto_trace.cpp</text>
</a>
</g>
</g>
<!-- Node1&#45;&gt;Node4 -->
<g id="edge3" class="edge">
<title>Node1&#45;&gt;Node4</title>
<path fill="none" stroke="midnightblue" d="M330.1,-609.03C299.41,-598.33 263.29,-585.73 233.95,-575.51"/>
<polygon fill="midnightblue" stroke="midnightblue" points="329.26,-612.44 339.86,-612.43 331.57,-605.83 329.26,-612.44"/>
</g>
<!-- Node5 -->
<g id="node5" class="node">
<title>Node5</title>
<g id="a_node5"><a xlink:href="decision__procedure_8cpp.html" target="_top" xlink:title=" ">
<polygon fill="none" stroke="black" points="296,-534.5 296,-575.5 496,-575.5 496,-534.5 296,-534.5"/>
<text text-anchor="start" x="304" y="-563.5" font-family="Helvetica,sans-Serif" font-size="10.00">/home/runner/work/cbmc</text>
<text text-anchor="start" x="304" y="-552.5" font-family="Helvetica,sans-Serif" font-size="10.00">&#45;documentation/cbmc&#45;documentation</text>
<text text-anchor="middle" x="396" y="-541.5" font-family="Helvetica,sans-Serif" font-size="10.00">/src/solvers/decision_procedure.cpp</text>
</a>
</g>
</g>
<!-- Node1&#45;&gt;Node5 -->
<g id="edge4" class="edge">
<title>Node1&#45;&gt;Node5</title>
<path fill="none" stroke="midnightblue" d="M396,-602.3C396,-593.3 396,-583.65 396,-575.51"/>
<polygon fill="midnightblue" stroke="midnightblue" points="392.5,-602.43 396,-612.43 399.5,-602.43 392.5,-602.43"/>
</g>
<!-- Node6 -->
<g id="node6" class="node">
<title>Node6</title>
<g id="a_node6"><a xlink:href="functions_8cpp.html" target="_top" xlink:title=" ">
<polygon fill="none" stroke="black" points="514,-534.5 514,-575.5 714,-575.5 714,-534.5 514,-534.5"/>
<text text-anchor="start" x="522" y="-563.5" font-family="Helvetica,sans-Serif" font-size="10.00">/home/runner/work/cbmc</text>
<text text-anchor="start" x="522" y="-552.5" font-family="Helvetica,sans-Serif" font-size="10.00">&#45;documentation/cbmc&#45;documentation</text>
<text text-anchor="middle" x="614" y="-541.5" font-family="Helvetica,sans-Serif" font-size="10.00">/src/solvers/lowering/functions.cpp</text>
</a>
</g>
</g>
<!-- Node1&#45;&gt;Node6 -->
<g id="edge5" class="edge">
<title>Node1&#45;&gt;Node6</title>
<path fill="none" stroke="midnightblue" d="M461.9,-609.03C492.59,-598.33 528.71,-585.73 558.05,-575.51"/>
<polygon fill="midnightblue" stroke="midnightblue" points="460.43,-605.83 452.14,-612.43 462.74,-612.44 460.43,-605.83"/>
</g>
<!-- Node7 -->
<g id="node7" class="node">
<title>Node7</title>
<g id="a_node7"><a xlink:href="cover__goals_8h.html" target="_top" xlink:title=" ">
<polygon fill="none" stroke="black" points="732,-534.5 732,-575.5 932,-575.5 932,-534.5 732,-534.5"/>
<text text-anchor="start" x="740" y="-563.5" font-family="Helvetica,sans-Serif" font-size="10.00">/home/runner/work/cbmc</text>
<text text-anchor="start" x="740" y="-552.5" font-family="Helvetica,sans-Serif" font-size="10.00">&#45;documentation/cbmc&#45;documentation</text>
<text text-anchor="middle" x="832" y="-541.5" font-family="Helvetica,sans-Serif" font-size="10.00">/src/solvers/prop/cover_goals.h</text>
</a>
</g>
</g>
<!-- Node1&#45;&gt;Node7 -->
<g id="edge6" class="edge">
<title>Node1&#45;&gt;Node7</title>
<path fill="none" stroke="midnightblue" d="M506.26,-613.45C569.69,-602.7 650.86,-588.79 723,-576 725.94,-575.48 728.92,-574.95 731.92,-574.41"/>
<polygon fill="midnightblue" stroke="midnightblue" points="505.51,-610.03 496.23,-615.15 506.68,-616.93 505.51,-610.03"/>
</g>
<!-- Node9 -->
<g id="node9" class="node">
<title>Node9</title>
<g id="a_node9"><a xlink:href="stack__decision__procedure_8h.html" target="_top" xlink:title=" ">
<polygon fill="none" stroke="black" points="986,-534.5 986,-575.5 1196,-575.5 1196,-534.5 986,-534.5"/>
<text text-anchor="start" x="994" y="-563.5" font-family="Helvetica,sans-Serif" font-size="10.00">/home/runner/work/cbmc</text>
<text text-anchor="start" x="994" y="-552.5" font-family="Helvetica,sans-Serif" font-size="10.00">&#45;documentation/cbmc&#45;documentation</text>
<text text-anchor="middle" x="1091" y="-541.5" font-family="Helvetica,sans-Serif" font-size="10.00">/src/solvers/stack_decision_procedure.h</text>
</a>
</g>
</g>
<!-- Node1&#45;&gt;Node9 -->
<g id="edge8" class="edge">
<title>Node1&#45;&gt;Node9</title>
<path fill="none" stroke="midnightblue" d="M506.18,-621.66C616.34,-611.1 790.55,-593.76 941,-576 955.48,-574.29 970.73,-572.38 985.74,-570.44"/>
<polygon fill="midnightblue" stroke="midnightblue" points="505.67,-618.2 496.05,-622.63 506.34,-625.16 505.67,-618.2"/>
</g>
<!-- Node8 -->
<g id="node8" class="node">
<title>Node8</title>
<g id="a_node8"><a xlink:href="cover__goals_8cpp.html" target="_top" xlink:title=" ">
<polygon fill="none" stroke="black" points="330,-451 330,-492 530,-492 530,-451 330,-451"/>
<text text-anchor="start" x="338" y="-480" font-family="Helvetica,sans-Serif" font-size="10.00">/home/runner/work/cbmc</text>
<text text-anchor="start" x="338" y="-469" font-family="Helvetica,sans-Serif" font-size="10.00">&#45;documentation/cbmc&#45;documentation</text>
<text text-anchor="middle" x="430" y="-458" font-family="Helvetica,sans-Serif" font-size="10.00">/src/solvers/prop/cover_goals.cpp</text>
</a>
</g>
</g>
<!-- Node7&#45;&gt;Node8 -->
<g id="edge7" class="edge">
<title>Node7&#45;&gt;Node8</title>
<path fill="none" stroke="midnightblue" d="M722.01,-533.46C654.06,-520.68 573.46,-505.32 539,-498 530.16,-496.12 520.94,-494.08 511.76,-492.01"/>
<polygon fill="midnightblue" stroke="midnightblue" points="721.46,-536.92 731.94,-535.33 722.76,-530.04 721.46,-536.92"/>
</g>
<!-- Node10 -->
<g id="node10" class="node">
<title>Node10</title>
<g id="a_node10"><a xlink:href="goto__symex__fault__localizer_8cpp.html" target="_top" xlink:title=" ">
<polygon fill="none" stroke="black" points="1026,-445.5 1026,-497.5 1226,-497.5 1226,-445.5 1026,-445.5"/>
<text text-anchor="start" x="1034" y="-485.5" font-family="Helvetica,sans-Serif" font-size="10.00">/home/runner/work/cbmc</text>
<text text-anchor="start" x="1034" y="-474.5" font-family="Helvetica,sans-Serif" font-size="10.00">&#45;documentation/cbmc&#45;documentation</text>
<text text-anchor="start" x="1034" y="-463.5" font-family="Helvetica,sans-Serif" font-size="10.00">/src/goto&#45;checker/goto_symex</text>
<text text-anchor="middle" x="1126" y="-452.5" font-family="Helvetica,sans-Serif" font-size="10.00">_fault_localizer.cpp</text>
</a>
</g>
</g>
<!-- Node9&#45;&gt;Node10 -->
<g id="edge9" class="edge">
<title>Node9&#45;&gt;Node10</title>
<path fill="none" stroke="midnightblue" d="M1103.46,-524.98C1107.3,-516.04 1111.5,-506.27 1115.22,-497.61"/>
<polygon fill="midnightblue" stroke="midnightblue" points="1100.2,-523.7 1099.47,-534.27 1106.63,-526.46 1100.2,-523.7"/>
</g>
<!-- Node11 -->
<g id="node11" class="node">
<title>Node11</title>
<g id="a_node11"><a xlink:href="solver__factory_8cpp.html" target="_top" xlink:title=" ">
<polygon fill="none" stroke="black" points="922,-184 922,-225 1122,-225 1122,-184 922,-184"/>
<text text-anchor="start" x="930" y="-213" font-family="Helvetica,sans-Serif" font-size="10.00">/home/runner/work/cbmc</text>
<text text-anchor="start" x="930" y="-202" font-family="Helvetica,sans-Serif" font-size="10.00">&#45;documentation/cbmc&#45;documentation</text>
<text text-anchor="middle" x="1022" y="-191" font-family="Helvetica,sans-Serif" font-size="10.00">/src/goto&#45;checker/solver_factory.cpp</text>
</a>
</g>
</g>
<!-- Node9&#45;&gt;Node11 -->
<g id="edge10" class="edge">
<title>Node9&#45;&gt;Node11</title>
<path fill="none" stroke="midnightblue" d="M1197.79,-529.8C1212.45,-521.99 1225.66,-511.66 1235,-498 1270.63,-445.91 1264.02,-412.04 1235,-356 1201.27,-290.86 1124.93,-247.9 1073.42,-225.13"/>
<polygon fill="midnightblue" stroke="midnightblue" points="1195.94,-526.8 1188.5,-534.34 1199.02,-533.09 1195.94,-526.8"/>
</g>
<!-- Node12 -->
<g id="node12" class="node">
<title>Node12</title>
<g id="a_node12"><a xlink:href="prop__conv_8h.html" target="_top" xlink:title=" ">
<polygon fill="none" stroke="black" points="1391,-451 1391,-492 1591,-492 1591,-451 1391,-451"/>
<text text-anchor="start" x="1399" y="-480" font-family="Helvetica,sans-Serif" font-size="10.00">/home/runner/work/cbmc</text>
<text text-anchor="start" x="1399" y="-469" font-family="Helvetica,sans-Serif" font-size="10.00">&#45;documentation/cbmc&#45;documentation</text>
<text text-anchor="middle" x="1491" y="-458" font-family="Helvetica,sans-Serif" font-size="10.00">/src/solvers/prop/prop_conv.h</text>
</a>
</g>
</g>
<!-- Node9&#45;&gt;Node12 -->
<g id="edge11" class="edge">
<title>Node9&#45;&gt;Node12</title>
<path fill="none" stroke="midnightblue" d="M1196.95,-532.41C1258.53,-519.87 1335.53,-504.18 1395.28,-492"/>
<polygon fill="midnightblue" stroke="midnightblue" points="1195.91,-529.05 1186.81,-534.48 1197.31,-535.91 1195.91,-529.05"/>
</g>
<!-- Node103 -->
<g id="node26" class="node">
<title>Node103</title>
<g id="a_node26"><a xlink:href="smt2__conv_8h.html" target="_top" xlink:title=" ">
<polygon fill="none" stroke="black" points="548,-451 548,-492 748,-492 748,-451 548,-451"/>
<text text-anchor="start" x="556" y="-480" font-family="Helvetica,sans-Serif" font-size="10.00">/home/runner/work/cbmc</text>
<text text-anchor="start" x="556" y="-469" font-family="Helvetica,sans-Serif" font-size="10.00">&#45;documentation/cbmc&#45;documentation</text>
<text text-anchor="middle" x="648" y="-458" font-family="Helvetica,sans-Serif" font-size="10.00">/src/solvers/smt2/smt2_conv.h</text>
</a>
</g>
</g>
<!-- Node9&#45;&gt;Node103 -->
<g id="edge26" class="edge">
<title>Node9&#45;&gt;Node103</title>
<path fill="none" stroke="midnightblue" d="M975.85,-533.5C917.45,-523.03 845.42,-509.99 781,-498 770.37,-496.02 759.26,-493.93 748.2,-491.83"/>
<polygon fill="midnightblue" stroke="midnightblue" points="975.38,-536.97 985.84,-535.29 976.62,-530.08 975.38,-536.97"/>
</g>
<!-- Node119 -->
<g id="node39" class="node">
<title>Node119</title>
<g id="a_node39"><a xlink:href="smt2__incremental__decision__procedure_8h.html" target="_top" xlink:title=" ">
<polygon fill="none" stroke="black" points="790.5,-445.5 790.5,-497.5 1007.5,-497.5 1007.5,-445.5 790.5,-445.5"/>
<text text-anchor="start" x="798.5" y="-485.5" font-family="Helvetica,sans-Serif" font-size="10.00">/home/runner/work/cbmc</text>
<text text-anchor="start" x="798.5" y="-474.5" font-family="Helvetica,sans-Serif" font-size="10.00">&#45;documentation/cbmc&#45;documentation</text>
<text text-anchor="start" x="798.5" y="-463.5" font-family="Helvetica,sans-Serif" font-size="10.00">/src/solvers/smt2_incremental</text>
<text text-anchor="middle" x="899" y="-452.5" font-family="Helvetica,sans-Serif" font-size="10.00">/smt2_incremental_decision_procedure.h</text>
</a>
</g>
</g>
<!-- Node9&#45;&gt;Node119 -->
<g id="edge43" class="edge">
<title>Node9&#45;&gt;Node119</title>
<path fill="none" stroke="midnightblue" d="M1035.58,-530.48C1011.3,-520.17 982.76,-508.06 958.08,-497.58"/>
<polygon fill="midnightblue" stroke="midnightblue" points="1034.44,-533.79 1045.01,-534.48 1037.17,-527.35 1034.44,-533.79"/>
</g>
<!-- Node13 -->
<g id="node13" class="node">
<title>Node13</title>
<g id="a_node13"><a xlink:href="prop__conv_8cpp.html" target="_top" xlink:title=" ">
<polygon fill="none" stroke="black" points="1283,-362 1283,-403 1483,-403 1483,-362 1283,-362"/>
<text text-anchor="start" x="1291" y="-391" font-family="Helvetica,sans-Serif" font-size="10.00">/home/runner/work/cbmc</text>
<text text-anchor="start" x="1291" y="-380" font-family="Helvetica,sans-Serif" font-size="10.00">&#45;documentation/cbmc&#45;documentation</text>
<text text-anchor="middle" x="1383" y="-369" font-family="Helvetica,sans-Serif" font-size="10.00">/src/solvers/prop/prop_conv.cpp</text>
</a>
</g>
</g>
<!-- Node12&#45;&gt;Node13 -->
<g id="edge12" class="edge">
<title>Node12&#45;&gt;Node13</title>
<path fill="none" stroke="midnightblue" d="M1458.53,-444.34C1442.16,-431.15 1422.63,-415.42 1407.53,-403.26"/>
<polygon fill="midnightblue" stroke="midnightblue" points="1456.78,-447.43 1466.76,-450.98 1461.17,-441.98 1456.78,-447.43"/>
</g>
<!-- Node14 -->
<g id="node14" class="node">
<title>Node14</title>
<g id="a_node14"><a xlink:href="prop__conv__solver_8h.html" target="_top" xlink:title=" ">
<polygon fill="none" stroke="black" points="1501,-362 1501,-403 1701,-403 1701,-362 1501,-362"/>
<text text-anchor="start" x="1509" y="-391" font-family="Helvetica,sans-Serif" font-size="10.00">/home/runner/work/cbmc</text>
<text text-anchor="start" x="1509" y="-380" font-family="Helvetica,sans-Serif" font-size="10.00">&#45;documentation/cbmc&#45;documentation</text>
<text text-anchor="middle" x="1601" y="-369" font-family="Helvetica,sans-Serif" font-size="10.00">/src/solvers/prop/prop_conv_solver.h</text>
</a>
</g>
</g>
<!-- Node12&#45;&gt;Node14 -->
<g id="edge13" class="edge">
<title>Node12&#45;&gt;Node14</title>
<path fill="none" stroke="midnightblue" d="M1523.61,-444.71C1540.38,-431.44 1560.5,-415.53 1576.02,-403.26"/>
<polygon fill="midnightblue" stroke="midnightblue" points="1521.36,-442.03 1515.69,-450.98 1525.7,-447.52 1521.36,-442.03"/>
</g>
<!-- Node102 -->
<g id="node25" class="node">
<title>Node102</title>
<g id="a_node25"><a xlink:href="prop__minimize_8cpp.html" target="_top" xlink:title=" ">
<polygon fill="none" stroke="black" points="1719,-362 1719,-403 1919,-403 1919,-362 1719,-362"/>
<text text-anchor="start" x="1727" y="-391" font-family="Helvetica,sans-Serif" font-size="10.00">/home/runner/work/cbmc</text>
<text text-anchor="start" x="1727" y="-380" font-family="Helvetica,sans-Serif" font-size="10.00">&#45;documentation/cbmc&#45;documentation</text>
<text text-anchor="middle" x="1819" y="-369" font-family="Helvetica,sans-Serif" font-size="10.00">/src/solvers/prop/prop_minimize.cpp</text>
</a>
</g>
</g>
<!-- Node12&#45;&gt;Node102 -->
<g id="edge25" class="edge">
<title>Node12&#45;&gt;Node102</title>
<path fill="none" stroke="midnightblue" d="M1574.28,-448.41C1627.01,-434.42 1694.58,-416.5 1745.35,-403.03"/>
<polygon fill="midnightblue" stroke="midnightblue" points="1573.38,-445.03 1564.61,-450.98 1575.17,-451.79 1573.38,-445.03"/>
</g>
<!-- Node15 -->
<g id="node15" class="node">
<title>Node15</title>
<g id="a_node15"><a xlink:href="solver__hardness_8h.html" target="_top" xlink:title=" ">
<polygon fill="none" stroke="black" points="1723,-273 1723,-314 1923,-314 1923,-273 1723,-273"/>
<text text-anchor="start" x="1731" y="-302" font-family="Helvetica,sans-Serif" font-size="10.00">/home/runner/work/cbmc</text>
<text text-anchor="start" x="1731" y="-291" font-family="Helvetica,sans-Serif" font-size="10.00">&#45;documentation/cbmc&#45;documentation</text>
<text text-anchor="middle" x="1823" y="-280" font-family="Helvetica,sans-Serif" font-size="10.00">/src/goto&#45;symex/solver_hardness.h</text>
</a>
</g>
</g>
<!-- Node14&#45;&gt;Node15 -->
<g id="edge14" class="edge">
<title>Node14&#45;&gt;Node15</title>
<path fill="none" stroke="midnightblue" d="M1660.48,-358.19C1695.62,-344.42 1739.61,-327.18 1772.96,-314.11"/>
<polygon fill="midnightblue" stroke="midnightblue" points="1658.85,-355.07 1650.82,-361.98 1661.41,-361.59 1658.85,-355.07"/>
</g>
<!-- Node19 -->
<g id="node19" class="node">
<title>Node19</title>
<g id="a_node19"><a xlink:href="equality_8h.html" target="_top" xlink:title=" ">
<polygon fill="none" stroke="black" points="1281,-273 1281,-314 1481,-314 1481,-273 1281,-273"/>
<text text-anchor="start" x="1289" y="-302" font-family="Helvetica,sans-Serif" font-size="10.00">/home/runner/work/cbmc</text>
<text text-anchor="start" x="1289" y="-291" font-family="Helvetica,sans-Serif" font-size="10.00">&#45;documentation/cbmc&#45;documentation</text>
<text text-anchor="middle" x="1381" y="-280" font-family="Helvetica,sans-Serif" font-size="10.00">/src/solvers/flattening/equality.h</text>
</a>
</g>
</g>
<!-- Node14&#45;&gt;Node19 -->
<g id="edge19" class="edge">
<title>Node14&#45;&gt;Node19</title>
<path fill="none" stroke="midnightblue" d="M1542.05,-358.19C1507.23,-344.42 1463.64,-327.18 1430.59,-314.11"/>
<polygon fill="midnightblue" stroke="midnightblue" points="1541.04,-361.55 1551.63,-361.98 1543.62,-355.04 1541.04,-361.55"/>
</g>
<!-- Node101 -->
<g id="node24" class="node">
<title>Node101</title>
<g id="a_node24"><a xlink:href="prop__conv__solver_8cpp.html" target="_top" xlink:title=" ">
<polygon fill="none" stroke="black" points="1499.5,-273 1499.5,-314 1704.5,-314 1704.5,-273 1499.5,-273"/>
<text text-anchor="start" x="1507.5" y="-302" font-family="Helvetica,sans-Serif" font-size="10.00">/home/runner/work/cbmc</text>
<text text-anchor="start" x="1507.5" y="-291" font-family="Helvetica,sans-Serif" font-size="10.00">&#45;documentation/cbmc&#45;documentation</text>
<text text-anchor="middle" x="1602" y="-280" font-family="Helvetica,sans-Serif" font-size="10.00">/src/solvers/prop/prop_conv_solver.cpp</text>
</a>
</g>
</g>
<!-- Node14&#45;&gt;Node101 -->
<g id="edge24" class="edge">
<title>Node14&#45;&gt;Node101</title>
<path fill="none" stroke="midnightblue" d="M1601.35,-351.44C1601.49,-339.1 1601.65,-325.16 1601.77,-314.16"/>
<polygon fill="midnightblue" stroke="midnightblue" points="1597.84,-351.72 1601.23,-361.76 1604.84,-351.8 1597.84,-351.72"/>
</g>
<!-- Node15&#45;&gt;Node11 -->
<g id="edge16" class="edge">
<title>Node15&#45;&gt;Node11</title>
<path fill="none" stroke="midnightblue" d="M1736.52,-270.93C1728.94,-269.44 1721.35,-268.1 1714,-267 1480.07,-231.94 1418.05,-257.53 1183,-231 1163.32,-228.78 1142.36,-225.87 1122.3,-222.8"/>
<polygon fill="midnightblue" stroke="midnightblue" points="1735.98,-274.39 1746.48,-272.96 1737.38,-267.53 1735.98,-274.39"/>
</g>
<!-- Node16 -->
<g id="node16" class="node">
<title>Node16</title>
<g id="a_node16"><a xlink:href="multi__path__symex__checker_8cpp.html" target="_top" xlink:title=" ">
<polygon fill="none" stroke="black" points="915,-0.5 915,-52.5 1115,-52.5 1115,-0.5 915,-0.5"/>
<text text-anchor="start" x="923" y="-40.5" font-family="Helvetica,sans-Serif" font-size="10.00">/home/runner/work/cbmc</text>
<text text-anchor="start" x="923" y="-29.5" font-family="Helvetica,sans-Serif" font-size="10.00">&#45;documentation/cbmc&#45;documentation</text>
<text text-anchor="start" x="923" y="-18.5" font-family="Helvetica,sans-Serif" font-size="10.00">/src/goto&#45;checker/multi_path</text>
<text text-anchor="middle" x="1015" y="-7.5" font-family="Helvetica,sans-Serif" font-size="10.00">_symex_checker.cpp</text>
</a>
</g>
</g>
<!-- Node15&#45;&gt;Node16 -->
<g id="edge15" class="edge">
<title>Node15&#45;&gt;Node16</title>
<path fill="none" stroke="midnightblue" d="M1765.71,-268.46C1746.37,-258.64 1725.52,-246.02 1709,-231 1652.82,-179.91 1679.06,-128.15 1614,-89 1532.38,-39.88 1263.39,-29.53 1115.17,-27.64"/>
<polygon fill="midnightblue" stroke="midnightblue" points="1764.24,-271.64 1774.76,-272.92 1767.33,-265.36 1764.24,-271.64"/>
</g>
<!-- Node17 -->
<g id="node17" class="node">
<title>Node17</title>
<g id="a_node17"><a xlink:href="solver__hardness_8cpp.html" target="_top" xlink:title=" ">
<polygon fill="none" stroke="black" points="1718,-184 1718,-225 1918,-225 1918,-184 1718,-184"/>
<text text-anchor="start" x="1726" y="-213" font-family="Helvetica,sans-Serif" font-size="10.00">/home/runner/work/cbmc</text>
<text text-anchor="start" x="1726" y="-202" font-family="Helvetica,sans-Serif" font-size="10.00">&#45;documentation/cbmc&#45;documentation</text>
<text text-anchor="middle" x="1818" y="-191" font-family="Helvetica,sans-Serif" font-size="10.00">/src/goto&#45;symex/solver_hardness.cpp</text>
</a>
</g>
</g>
<!-- Node15&#45;&gt;Node17 -->
<g id="edge17" class="edge">
<title>Node15&#45;&gt;Node17</title>
<path fill="none" stroke="midnightblue" d="M1821.27,-262.44C1820.56,-250.1 1819.76,-236.16 1819.13,-225.16"/>
<polygon fill="midnightblue" stroke="midnightblue" points="1817.8,-262.98 1821.87,-272.76 1824.79,-262.57 1817.8,-262.98"/>
</g>
<!-- Node18 -->
<g id="node18" class="node">
<title>Node18</title>
<g id="a_node18"><a xlink:href="symex__target__equation_8cpp.html" target="_top" xlink:title=" ">
<polygon fill="none" stroke="black" points="1936,-178.5 1936,-230.5 2136,-230.5 2136,-178.5 1936,-178.5"/>
<text text-anchor="start" x="1944" y="-218.5" font-family="Helvetica,sans-Serif" font-size="10.00">/home/runner/work/cbmc</text>
<text text-anchor="start" x="1944" y="-207.5" font-family="Helvetica,sans-Serif" font-size="10.00">&#45;documentation/cbmc&#45;documentation</text>
<text text-anchor="start" x="1944" y="-196.5" font-family="Helvetica,sans-Serif" font-size="10.00">/src/goto&#45;symex/symex_target</text>
<text text-anchor="middle" x="2036" y="-185.5" font-family="Helvetica,sans-Serif" font-size="10.00">_equation.cpp</text>
</a>
</g>
</g>
<!-- Node15&#45;&gt;Node18 -->
<g id="edge18" class="edge">
<title>Node15&#45;&gt;Node18</title>
<path fill="none" stroke="midnightblue" d="M1880.42,-269.05C1909.54,-257.15 1944.92,-242.7 1974.59,-230.58"/>
<polygon fill="midnightblue" stroke="midnightblue" points="1878.74,-265.95 1870.8,-272.98 1881.38,-272.43 1878.74,-265.95"/>
</g>
<!-- Node20 -->
<g id="node20" class="node">
<title>Node20</title>
<g id="a_node20"><a xlink:href="arrays_8h.html" target="_top" xlink:title=" ">
<polygon fill="none" stroke="black" points="1192,-184 1192,-225 1392,-225 1392,-184 1192,-184"/>
<text text-anchor="start" x="1200" y="-213" font-family="Helvetica,sans-Serif" font-size="10.00">/home/runner/work/cbmc</text>
<text text-anchor="start" x="1200" y="-202" font-family="Helvetica,sans-Serif" font-size="10.00">&#45;documentation/cbmc&#45;documentation</text>
<text text-anchor="middle" x="1292" y="-191" font-family="Helvetica,sans-Serif" font-size="10.00">/src/solvers/flattening/arrays.h</text>
</a>
</g>
</g>
<!-- Node19&#45;&gt;Node20 -->
<g id="edge20" class="edge">
<title>Node19&#45;&gt;Node20</title>
<path fill="none" stroke="midnightblue" d="M1353.65,-265.76C1340.24,-252.66 1324.39,-237.16 1312.12,-225.16"/>
<polygon fill="midnightblue" stroke="midnightblue" points="1351.21,-268.27 1360.8,-272.76 1356.1,-263.27 1351.21,-268.27"/>
</g>
<!-- Node100 -->
<g id="node23" class="node">
<title>Node100</title>
<g id="a_node23"><a xlink:href="equality_8cpp.html" target="_top" xlink:title=" ">
<polygon fill="none" stroke="black" points="1410,-184 1410,-225 1610,-225 1610,-184 1410,-184"/>
<text text-anchor="start" x="1418" y="-213" font-family="Helvetica,sans-Serif" font-size="10.00">/home/runner/work/cbmc</text>
<text text-anchor="start" x="1418" y="-202" font-family="Helvetica,sans-Serif" font-size="10.00">&#45;documentation/cbmc&#45;documentation</text>
<text text-anchor="middle" x="1510" y="-191" font-family="Helvetica,sans-Serif" font-size="10.00">/src/solvers/flattening/equality.cpp</text>
</a>
</g>
</g>
<!-- Node19&#45;&gt;Node100 -->
<g id="edge23" class="edge">
<title>Node19&#45;&gt;Node100</title>
<path fill="none" stroke="midnightblue" d="M1418.45,-267.25C1438.27,-253.88 1462.25,-237.7 1480.7,-225.26"/>
<polygon fill="midnightblue" stroke="midnightblue" points="1416.28,-264.48 1409.95,-272.98 1420.2,-270.29 1416.28,-264.48"/>
</g>
<!-- Node21 -->
<g id="node21" class="node">
<title>Node21</title>
<g id="a_node21"><a xlink:href="arrays_8cpp.html" target="_top" xlink:title=" ">
<polygon fill="none" stroke="black" points="1405,-95 1405,-136 1605,-136 1605,-95 1405,-95"/>
<text text-anchor="start" x="1413" y="-124" font-family="Helvetica,sans-Serif" font-size="10.00">/home/runner/work/cbmc</text>
<text text-anchor="start" x="1413" y="-113" font-family="Helvetica,sans-Serif" font-size="10.00">&#45;documentation/cbmc&#45;documentation</text>
<text text-anchor="middle" x="1505" y="-102" font-family="Helvetica,sans-Serif" font-size="10.00">/src/solvers/flattening/arrays.cpp</text>
</a>
</g>
</g>
<!-- Node20&#45;&gt;Node21 -->
<g id="edge21" class="edge">
<title>Node20&#45;&gt;Node21</title>
<path fill="none" stroke="midnightblue" d="M1349.07,-180.19C1382.78,-166.42 1424.99,-149.18 1456.99,-136.11"/>
<polygon fill="midnightblue" stroke="midnightblue" points="1347.74,-176.95 1339.8,-183.98 1350.38,-183.43 1347.74,-176.95"/>
</g>
<!-- Node22 -->
<g id="node22" class="node">
<title>Node22</title>
<g id="a_node22"><a xlink:href="boolbv_8h.html" target="_top" xlink:title=" ">
<polygon fill="none" stroke="red" points="1187,-95 1187,-136 1387,-136 1387,-95 1187,-95"/>
<text text-anchor="start" x="1195" y="-124" font-family="Helvetica,sans-Serif" font-size="10.00">/home/runner/work/cbmc</text>
<text text-anchor="start" x="1195" y="-113" font-family="Helvetica,sans-Serif" font-size="10.00">&#45;documentation/cbmc&#45;documentation</text>
<text text-anchor="middle" x="1287" y="-102" font-family="Helvetica,sans-Serif" font-size="10.00">/src/solvers/flattening/boolbv.h</text>
</a>
</g>
</g>
<!-- Node20&#45;&gt;Node22 -->
<g id="edge22" class="edge">
<title>Node20&#45;&gt;Node22</title>
<path fill="none" stroke="midnightblue" d="M1290.27,-173.44C1289.56,-161.1 1288.76,-147.16 1288.13,-136.16"/>
<polygon fill="midnightblue" stroke="midnightblue" points="1286.8,-173.98 1290.87,-183.76 1293.79,-173.57 1286.8,-173.98"/>
</g>
<!-- Node104 -->
<g id="node27" class="node">
<title>Node104</title>
<g id="a_node27"><a xlink:href="horn__encoding_8cpp.html" target="_top" xlink:title=" ">
<polygon fill="none" stroke="black" points="78,-362 78,-403 288,-403 288,-362 78,-362"/>
<text text-anchor="start" x="86" y="-391" font-family="Helvetica,sans-Serif" font-size="10.00">/home/runner/work/cbmc</text>
<text text-anchor="start" x="86" y="-380" font-family="Helvetica,sans-Serif" font-size="10.00">&#45;documentation/cbmc&#45;documentation</text>
<text text-anchor="middle" x="183" y="-369" font-family="Helvetica,sans-Serif" font-size="10.00">/src/goto&#45;instrument/horn_encoding.cpp</text>
</a>
</g>
</g>
<!-- Node103&#45;&gt;Node104 -->
<g id="edge27" class="edge">
<title>Node103&#45;&gt;Node104</title>
<path fill="none" stroke="midnightblue" d="M557.81,-448.8C551.45,-447.45 545.14,-446.17 539,-445 432.19,-424.6 403.91,-428.88 297,-409 287.33,-407.2 277.23,-405.17 267.22,-403.06"/>
<polygon fill="midnightblue" stroke="midnightblue" points="557.29,-452.26 567.8,-450.95 558.76,-445.42 557.29,-452.26"/>
</g>
<!-- Node105 -->
<g id="node28" class="node">
<title>Node105</title>
<g id="a_node28"><a xlink:href="smt2__conv_8cpp.html" target="_top" xlink:title=" ">
<polygon fill="none" stroke="black" points="306,-362 306,-403 506,-403 506,-362 306,-362"/>
<text text-anchor="start" x="314" y="-391" font-family="Helvetica,sans-Serif" font-size="10.00">/home/runner/work/cbmc</text>
<text text-anchor="start" x="314" y="-380" font-family="Helvetica,sans-Serif" font-size="10.00">&#45;documentation/cbmc&#45;documentation</text>
<text text-anchor="middle" x="406" y="-369" font-family="Helvetica,sans-Serif" font-size="10.00">/src/solvers/smt2/smt2_conv.cpp</text>
</a>
</g>
</g>
<!-- Node103&#45;&gt;Node105 -->
<g id="edge28" class="edge">
<title>Node103&#45;&gt;Node105</title>
<path fill="none" stroke="midnightblue" d="M584.14,-447.54C545.68,-433.71 497.21,-416.29 460.55,-403.11"/>
<polygon fill="midnightblue" stroke="midnightblue" points="583.1,-450.89 593.69,-450.98 585.46,-444.3 583.1,-450.89"/>
</g>
<!-- Node106 -->
<g id="node29" class="node">
<title>Node106</title>
<g id="a_node29"><a xlink:href="smt2__dec_8h.html" target="_top" xlink:title=" ">
<polygon fill="none" stroke="black" points="524,-362 524,-403 724,-403 724,-362 524,-362"/>
<text text-anchor="start" x="532" y="-391" font-family="Helvetica,sans-Serif" font-size="10.00">/home/runner/work/cbmc</text>
<text text-anchor="start" x="532" y="-380" font-family="Helvetica,sans-Serif" font-size="10.00">&#45;documentation/cbmc&#45;documentation</text>
<text text-anchor="middle" x="624" y="-369" font-family="Helvetica,sans-Serif" font-size="10.00">/src/solvers/smt2/smt2_dec.h</text>
</a>
</g>
</g>
<!-- Node103&#45;&gt;Node106 -->
<g id="edge29" class="edge">
<title>Node103&#45;&gt;Node106</title>
<path fill="none" stroke="midnightblue" d="M639.81,-440.81C636.38,-428.38 632.49,-414.27 629.42,-403.16"/>
<polygon fill="midnightblue" stroke="midnightblue" points="636.52,-442.05 642.55,-450.76 643.27,-440.19 636.52,-442.05"/>
</g>
<!-- Node118 -->
<g id="node38" class="node">
<title>Node118</title>
<g id="a_node38"><a xlink:href="smt__to__smt2__string_8cpp.html" target="_top" xlink:title=" ">
<polygon fill="none" stroke="black" points="742,-356.5 742,-408.5 942,-408.5 942,-356.5 742,-356.5"/>
<text text-anchor="start" x="750" y="-396.5" font-family="Helvetica,sans-Serif" font-size="10.00">/home/runner/work/cbmc</text>
<text text-anchor="start" x="750" y="-385.5" font-family="Helvetica,sans-Serif" font-size="10.00">&#45;documentation/cbmc&#45;documentation</text>
<text text-anchor="start" x="750" y="-374.5" font-family="Helvetica,sans-Serif" font-size="10.00">/src/solvers/smt2_incremental</text>
<text text-anchor="middle" x="842" y="-363.5" font-family="Helvetica,sans-Serif" font-size="10.00">/smt_to_smt2_string.cpp</text>
</a>
</g>
</g>
<!-- Node103&#45;&gt;Node118 -->
<g id="edge42" class="edge">
<title>Node103&#45;&gt;Node118</title>
<path fill="none" stroke="midnightblue" d="M700.99,-446.74C727.38,-434.9 759.28,-420.59 786.06,-408.58"/>
<polygon fill="midnightblue" stroke="midnightblue" points="699.23,-443.69 691.54,-450.98 702.09,-450.08 699.23,-443.69"/>
</g>
<!-- Node107 -->
<g id="node30" class="node">
<title>Node107</title>
<g id="a_node30"><a xlink:href="solver__factory_8h.html" target="_top" xlink:title=" ">
<polygon fill="none" stroke="black" points="524,-273 524,-314 724,-314 724,-273 524,-273"/>
<text text-anchor="start" x="532" y="-302" font-family="Helvetica,sans-Serif" font-size="10.00">/home/runner/work/cbmc</text>
<text text-anchor="start" x="532" y="-291" font-family="Helvetica,sans-Serif" font-size="10.00">&#45;documentation/cbmc&#45;documentation</text>
<text text-anchor="middle" x="624" y="-280" font-family="Helvetica,sans-Serif" font-size="10.00">/src/goto&#45;checker/solver_factory.h</text>
</a>
</g>
</g>
<!-- Node106&#45;&gt;Node107 -->
<g id="edge30" class="edge">
<title>Node106&#45;&gt;Node107</title>
<path fill="none" stroke="midnightblue" d="M624,-351.44C624,-339.1 624,-325.16 624,-314.16"/>
<polygon fill="midnightblue" stroke="midnightblue" points="620.5,-351.76 624,-361.76 627.5,-351.76 620.5,-351.76"/>
</g>
<!-- Node70 -->
<g id="node36" class="node">
<title>Node70</title>
<g id="a_node36"><a xlink:href="scratch__program_8h.html" target="_top" xlink:title=" ">
<polygon fill="none" stroke="red" points="306,-267.5 306,-319.5 506,-319.5 506,-267.5 306,-267.5"/>
<text text-anchor="start" x="314" y="-307.5" font-family="Helvetica,sans-Serif" font-size="10.00">/home/runner/work/cbmc</text>
<text text-anchor="start" x="314" y="-296.5" font-family="Helvetica,sans-Serif" font-size="10.00">&#45;documentation/cbmc&#45;documentation</text>
<text text-anchor="start" x="314" y="-285.5" font-family="Helvetica,sans-Serif" font-size="10.00">/src/goto&#45;instrument/accelerate</text>
<text text-anchor="middle" x="406" y="-274.5" font-family="Helvetica,sans-Serif" font-size="10.00">/scratch_program.h</text>
</a>
</g>
</g>
<!-- Node106&#45;&gt;Node70 -->
<g id="edge39" class="edge">
<title>Node106&#45;&gt;Node70</title>
<path fill="none" stroke="midnightblue" d="M565.62,-358.2C535.75,-346.28 499.35,-331.75 468.86,-319.58"/>
<polygon fill="midnightblue" stroke="midnightblue" points="564.49,-361.52 575.08,-361.98 567.09,-355.02 564.49,-361.52"/>
</g>
<!-- Node117 -->
<g id="node37" class="node">
<title>Node117</title>
<g id="a_node37"><a xlink:href="smt2__dec_8cpp.html" target="_top" xlink:title=" ">
<polygon fill="none" stroke="black" points="742,-273 742,-314 942,-314 942,-273 742,-273"/>
<text text-anchor="start" x="750" y="-302" font-family="Helvetica,sans-Serif" font-size="10.00">/home/runner/work/cbmc</text>
<text text-anchor="start" x="750" y="-291" font-family="Helvetica,sans-Serif" font-size="10.00">&#45;documentation/cbmc&#45;documentation</text>
<text text-anchor="middle" x="842" y="-280" font-family="Helvetica,sans-Serif" font-size="10.00">/src/solvers/smt2/smt2_dec.cpp</text>
</a>
</g>
</g>
<!-- Node106&#45;&gt;Node117 -->
<g id="edge41" class="edge">
<title>Node106&#45;&gt;Node117</title>
<path fill="none" stroke="midnightblue" d="M682.41,-358.19C716.92,-344.42 760.11,-327.18 792.86,-314.11"/>
<polygon fill="midnightblue" stroke="midnightblue" points="680.91,-355.02 672.92,-361.98 683.51,-361.52 680.91,-355.02"/>
</g>
<!-- Node107&#45;&gt;Node11 -->
<g id="edge38" class="edge">
<title>Node107&#45;&gt;Node11</title>
<path fill="none" stroke="midnightblue" d="M716.66,-270.69C722.19,-269.43 727.67,-268.19 733,-267 797.96,-252.49 871.31,-236.89 927.86,-225.03"/>
<polygon fill="midnightblue" stroke="midnightblue" points="715.65,-267.33 706.69,-272.97 717.21,-274.15 715.65,-267.33"/>
</g>
<!-- Node108 -->
<g id="node31" class="node">
<title>Node108</title>
<g id="a_node31"><a xlink:href="goto__symex__property__decider_8h.html" target="_top" xlink:title=" ">
<polygon fill="none" stroke="black" points="524,-178.5 524,-230.5 724,-230.5 724,-178.5 524,-178.5"/>
<text text-anchor="start" x="532" y="-218.5" font-family="Helvetica,sans-Serif" font-size="10.00">/home/runner/work/cbmc</text>
<text text-anchor="start" x="532" y="-207.5" font-family="Helvetica,sans-Serif" font-size="10.00">&#45;documentation/cbmc&#45;documentation</text>
<text text-anchor="start" x="532" y="-196.5" font-family="Helvetica,sans-Serif" font-size="10.00">/src/goto&#45;checker/goto_symex</text>
<text text-anchor="middle" x="624" y="-185.5" font-family="Helvetica,sans-Serif" font-size="10.00">_property_decider.h</text>
</a>
</g>
</g>
<!-- Node107&#45;&gt;Node108 -->
<g id="edge31" class="edge">
<title>Node107&#45;&gt;Node108</title>
<path fill="none" stroke="midnightblue" d="M624,-262.51C624,-252.17 624,-240.71 624,-230.79"/>
<polygon fill="midnightblue" stroke="midnightblue" points="620.5,-262.76 624,-272.76 627.5,-262.76 620.5,-262.76"/>
</g>
<!-- Node108&#45;&gt;Node2 -->
<g id="edge32" class="edge">
<title>Node108&#45;&gt;Node2</title>
<path fill="none" stroke="midnightblue" d="M513.93,-185.22C421.29,-169.84 289.93,-148.03 200.19,-133.14"/>
<polygon fill="midnightblue" stroke="midnightblue" points="513.46,-188.69 523.9,-186.88 514.61,-181.79 513.46,-188.69"/>
</g>
<!-- Node109 -->
<g id="node32" class="node">
<title>Node109</title>
<g id="a_node32"><a xlink:href="goto__symex__property__decider_8cpp.html" target="_top" xlink:title=" ">
<polygon fill="none" stroke="black" points="960,-89.5 960,-141.5 1160,-141.5 1160,-89.5 960,-89.5"/>
<text text-anchor="start" x="968" y="-129.5" font-family="Helvetica,sans-Serif" font-size="10.00">/home/runner/work/cbmc</text>
<text text-anchor="start" x="968" y="-118.5" font-family="Helvetica,sans-Serif" font-size="10.00">&#45;documentation/cbmc&#45;documentation</text>
<text text-anchor="start" x="968" y="-107.5" font-family="Helvetica,sans-Serif" font-size="10.00">/src/goto&#45;checker/goto_symex</text>
<text text-anchor="middle" x="1060" y="-96.5" font-family="Helvetica,sans-Serif" font-size="10.00">_property_decider.cpp</text>
</a>
</g>
</g>
<!-- Node108&#45;&gt;Node109 -->
<g id="edge33" class="edge">
<title>Node108&#45;&gt;Node109</title>
<path fill="none" stroke="midnightblue" d="M734.09,-184.04C797.63,-172.5 878.97,-157.19 951,-142 953.95,-141.38 956.94,-140.74 959.95,-140.08"/>
<polygon fill="midnightblue" stroke="midnightblue" points="733.26,-180.63 724.05,-185.86 734.51,-187.52 733.26,-180.63"/>
</g>
<!-- Node110 -->
<g id="node33" class="node">
<title>Node110</title>
<g id="a_node33"><a xlink:href="multi__path__symex__checker_8h.html" target="_top" xlink:title=" ">
<polygon fill="none" stroke="red" points="306,-89.5 306,-141.5 506,-141.5 506,-89.5 306,-89.5"/>
<text text-anchor="start" x="314" y="-129.5" font-family="Helvetica,sans-Serif" font-size="10.00">/home/runner/work/cbmc</text>
<text text-anchor="start" x="314" y="-118.5" font-family="Helvetica,sans-Serif" font-size="10.00">&#45;documentation/cbmc&#45;documentation</text>
<text text-anchor="start" x="314" y="-107.5" font-family="Helvetica,sans-Serif" font-size="10.00">/src/goto&#45;checker/multi_path</text>
<text text-anchor="middle" x="406" y="-96.5" font-family="Helvetica,sans-Serif" font-size="10.00">_symex_checker.h</text>
</a>
</g>
</g>
<!-- Node108&#45;&gt;Node110 -->
<g id="edge34" class="edge">
<title>Node108&#45;&gt;Node110</title>
<path fill="none" stroke="midnightblue" d="M551.88,-174.72C524.98,-163.98 494.68,-151.89 468.7,-141.52"/>
<polygon fill="midnightblue" stroke="midnightblue" points="550.65,-178 561.24,-178.45 553.25,-171.5 550.65,-178"/>
</g>
<!-- Node113 -->
<g id="node34" class="node">
<title>Node113</title>
<g id="a_node34"><a xlink:href="single__loop__incremental__symex__checker_8h.html" target="_top" xlink:title=" ">
<polygon fill="none" stroke="red" points="524,-89.5 524,-141.5 724,-141.5 724,-89.5 524,-89.5"/>
<text text-anchor="start" x="532" y="-129.5" font-family="Helvetica,sans-Serif" font-size="10.00">/home/runner/work/cbmc</text>
<text text-anchor="start" x="532" y="-118.5" font-family="Helvetica,sans-Serif" font-size="10.00">&#45;documentation/cbmc&#45;documentation</text>
<text text-anchor="start" x="532" y="-107.5" font-family="Helvetica,sans-Serif" font-size="10.00">/src/goto&#45;checker/single_loop</text>
<text text-anchor="middle" x="624" y="-96.5" font-family="Helvetica,sans-Serif" font-size="10.00">_incremental_symex_checker.h</text>
</a>
</g>
</g>
<!-- Node108&#45;&gt;Node113 -->
<g id="edge36" class="edge">
<title>Node108&#45;&gt;Node113</title>
<path fill="none" stroke="midnightblue" d="M624,-168.19C624,-159.28 624,-149.9 624,-141.61"/>
<polygon fill="midnightblue" stroke="midnightblue" points="620.5,-168.34 624,-178.34 627.5,-168.34 620.5,-168.34"/>
</g>
<!-- Node114 -->
<g id="node35" class="node">
<title>Node114</title>
<g id="a_node35"><a xlink:href="single__path__symex__checker_8h.html" target="_top" xlink:title=" ">
<polygon fill="none" stroke="red" points="742,-89.5 742,-141.5 942,-141.5 942,-89.5 742,-89.5"/>
<text text-anchor="start" x="750" y="-129.5" font-family="Helvetica,sans-Serif" font-size="10.00">/home/runner/work/cbmc</text>
<text text-anchor="start" x="750" y="-118.5" font-family="Helvetica,sans-Serif" font-size="10.00">&#45;documentation/cbmc&#45;documentation</text>
<text text-anchor="start" x="750" y="-107.5" font-family="Helvetica,sans-Serif" font-size="10.00">/src/goto&#45;checker/single_path</text>
<text text-anchor="middle" x="842" y="-96.5" font-family="Helvetica,sans-Serif" font-size="10.00">_symex_checker.h</text>
</a>
</g>
</g>
<!-- Node108&#45;&gt;Node114 -->
<g id="edge37" class="edge">
<title>Node108&#45;&gt;Node114</title>
<path fill="none" stroke="midnightblue" d="M696.12,-174.72C723.02,-163.98 753.32,-151.89 779.3,-141.52"/>
<polygon fill="midnightblue" stroke="midnightblue" points="694.75,-171.5 686.76,-178.45 697.35,-178 694.75,-171.5"/>
</g>
<!-- Node110&#45;&gt;Node16 -->
<g id="edge35" class="edge">
<title>Node110&#45;&gt;Node16</title>
<path fill="none" stroke="midnightblue" d="M516.18,-88.86C659.97,-63.68 815.92,-46.37 914.92,-36.62"/>
<polygon fill="midnightblue" stroke="midnightblue" points="515.53,-85.42 506.29,-90.61 516.75,-92.32 515.53,-85.42"/>
</g>
<!-- Node70&#45;&gt;Node3 -->
<g id="edge40" class="edge">
<title>Node70&#45;&gt;Node3</title>
<path fill="none" stroke="midnightblue" d="M359.05,-261.79C343.44,-251.58 326.26,-240.34 311.38,-230.61"/>
<polygon fill="midnightblue" stroke="midnightblue" points="357.25,-264.79 367.53,-267.34 361.08,-258.93 357.25,-264.79"/>
</g>
<!-- Node119&#45;&gt;Node11 -->
<g id="edge44" class="edge">
<title>Node119&#45;&gt;Node11</title>
<path fill="none" stroke="midnightblue" d="M930.55,-437.66C937.95,-428.83 945.32,-418.95 951,-409 986.81,-346.28 1008.98,-262.47 1017.72,-225.01"/>
<polygon fill="midnightblue" stroke="midnightblue" points="927.71,-435.6 923.8,-445.45 933,-440.19 927.71,-435.6"/>
</g>
<!-- Node120 -->
<g id="node40" class="node">
<title>Node120</title>
<g id="a_node40"><a xlink:href="smt2__incremental__decision__procedure_8cpp.html" target="_top" xlink:title=" ">
<polygon fill="none" stroke="black" points="998,-356.5 998,-408.5 1226,-408.5 1226,-356.5 998,-356.5"/>
<text text-anchor="start" x="1006" y="-396.5" font-family="Helvetica,sans-Serif" font-size="10.00">/home/runner/work/cbmc</text>
<text text-anchor="start" x="1006" y="-385.5" font-family="Helvetica,sans-Serif" font-size="10.00">&#45;documentation/cbmc&#45;documentation</text>
<text text-anchor="start" x="1006" y="-374.5" font-family="Helvetica,sans-Serif" font-size="10.00">/src/solvers/smt2_incremental</text>
<text text-anchor="middle" x="1112" y="-363.5" font-family="Helvetica,sans-Serif" font-size="10.00">/smt2_incremental_decision_procedure.cpp</text>
</a>
</g>
</g>
<!-- Node119&#45;&gt;Node120 -->
<g id="edge45" class="edge">
<title>Node119&#45;&gt;Node120</title>
<path fill="none" stroke="midnightblue" d="M969.81,-441.58C996.01,-430.88 1025.46,-418.85 1050.74,-408.52"/>
<polygon fill="midnightblue" stroke="midnightblue" points="968.26,-438.43 960.32,-445.45 970.9,-444.91 968.26,-438.43"/>
</g>
</g>
</svg>
