<?xml version="1.0" encoding="UTF-8" standalone="no"?>
<!DOCTYPE svg PUBLIC "-//W3C//DTD SVG 1.1//EN"
 "http://www.w3.org/Graphics/SVG/1.1/DTD/svg11.dtd">
<!-- Generated by graphviz version 2.43.0 (0)
 -->
<!-- Title: /home/runner/work/cbmc&#45;documentation/cbmc&#45;documentation/src/pointer&#45;analysis/dereference_callback.h Pages: 1 -->
<svg width="910pt" height="520pt"
 viewBox="0.00 0.00 909.50 520.00" xmlns="http://www.w3.org/2000/svg" xmlns:xlink="http://www.w3.org/1999/xlink">
<g id="graph0" class="graph" transform="scale(1 1) rotate(0) translate(4 516)">
<title>/home/runner/work/cbmc&#45;documentation/cbmc&#45;documentation/src/pointer&#45;analysis/dereference_callback.h</title>
<!-- Node1 -->
<g id="node1" class="node">
<title>Node1</title>
<g id="a_node1"><a xlink:title=" ">
<polygon fill="#bfbfbf" stroke="black" points="0,-459.5 0,-511.5 200,-511.5 200,-459.5 0,-459.5"/>
<text text-anchor="start" x="8" y="-499.5" font-family="Helvetica,sans-Serif" font-size="10.00">/home/runner/work/cbmc</text>
<text text-anchor="start" x="8" y="-488.5" font-family="Helvetica,sans-Serif" font-size="10.00">&#45;documentation/cbmc&#45;documentation</text>
<text text-anchor="start" x="8" y="-477.5" font-family="Helvetica,sans-Serif" font-size="10.00">/src/pointer&#45;analysis/dereference</text>
<text text-anchor="middle" x="100" y="-466.5" font-family="Helvetica,sans-Serif" font-size="10.00">_callback.h</text>
</a>
</g>
</g>
<!-- Node2 -->
<g id="node2" class="node">
<title>Node2</title>
<g id="a_node2"><a xlink:title=" ">
<polygon fill="none" stroke="#bfbfbf" points="198,-0.5 198,-19.5 242,-19.5 242,-0.5 198,-0.5"/>
<text text-anchor="middle" x="220" y="-7.5" font-family="Helvetica,sans-Serif" font-size="10.00">string</text>
</a>
</g>
</g>
<!-- Node1&#45;&gt;Node2 -->
<g id="edge1" class="edge">
<title>Node1&#45;&gt;Node2</title>
<path fill="none" stroke="midnightblue" d="M70.21,-459.48C44.68,-435.08 12,-395.47 12,-352.5 12,-352.5 12,-352.5 12,-121 12,-42.55 129.06,-19.9 187.54,-13.48"/>
<polygon fill="midnightblue" stroke="midnightblue" points="188.14,-16.93 197.74,-12.46 187.44,-9.97 188.14,-16.93"/>
</g>
<!-- Node3 -->
<g id="node3" class="node">
<title>Node3</title>
<g id="a_node3"><a xlink:href="value__sets_8h.html" target="_top" xlink:title=" ">
<polygon fill="none" stroke="black" points="192,-403.5 192,-422.5 270,-422.5 270,-403.5 192,-403.5"/>
<text text-anchor="middle" x="231" y="-410.5" font-family="Helvetica,sans-Serif" font-size="10.00">value_sets.h</text>
</a>
</g>
</g>
<!-- Node1&#45;&gt;Node3 -->
<g id="edge2" class="edge">
<title>Node1&#45;&gt;Node3</title>
<path fill="none" stroke="midnightblue" d="M146.55,-459.45C166.6,-448.66 189.23,-436.48 206.01,-427.45"/>
<polygon fill="midnightblue" stroke="midnightblue" points="208.01,-430.35 215.16,-422.53 204.69,-424.18 208.01,-430.35"/>
</g>
<!-- Node4 -->
<g id="node4" class="node">
<title>Node4</title>
<g id="a_node4"><a xlink:title=" ">
<polygon fill="none" stroke="#bfbfbf" points="306,-342 306,-361 338,-361 338,-342 306,-342"/>
<text text-anchor="middle" x="322" y="-349" font-family="Helvetica,sans-Serif" font-size="10.00">list</text>
</a>
</g>
</g>
<!-- Node3&#45;&gt;Node4 -->
<g id="edge3" class="edge">
<title>Node3&#45;&gt;Node4</title>
<path fill="none" stroke="midnightblue" d="M244.04,-403.48C258.77,-393.84 282.97,-378.02 300.51,-366.55"/>
<polygon fill="midnightblue" stroke="midnightblue" points="302.53,-369.41 308.99,-361.01 298.7,-363.55 302.53,-369.41"/>
</g>
<!-- Node5 -->
<g id="node5" class="node">
<title>Node5</title>
<g id="a_node5"><a xlink:href="goto__program_8h.html" target="_top" xlink:title=" ">
<polygon fill="none" stroke="black" points="174.5,-336.5 174.5,-366.5 287.5,-366.5 287.5,-336.5 174.5,-336.5"/>
<text text-anchor="start" x="182.5" y="-354.5" font-family="Helvetica,sans-Serif" font-size="10.00">goto&#45;programs/goto</text>
<text text-anchor="middle" x="231" y="-343.5" font-family="Helvetica,sans-Serif" font-size="10.00">_program.h</text>
</a>
</g>
</g>
<!-- Node3&#45;&gt;Node5 -->
<g id="edge4" class="edge">
<title>Node3&#45;&gt;Node5</title>
<path fill="none" stroke="midnightblue" d="M231,-403.48C231,-396.47 231,-386.19 231,-376.7"/>
<polygon fill="midnightblue" stroke="midnightblue" points="234.5,-376.52 231,-366.52 227.5,-376.52 234.5,-376.52"/>
</g>
<!-- Node5&#45;&gt;Node2 -->
<g id="edge36" class="edge">
<title>Node5&#45;&gt;Node2</title>
<path fill="none" stroke="midnightblue" d="M174.23,-339.25C121.15,-325.04 50,-294.83 50,-235 50,-235 50,-235 50,-121 50,-56.02 138.64,-27.53 187.91,-16.71"/>
<polygon fill="midnightblue" stroke="midnightblue" points="188.69,-20.12 197.78,-14.66 187.27,-13.27 188.69,-20.12"/>
</g>
<!-- Node6 -->
<g id="node6" class="node">
<title>Node6</title>
<g id="a_node6"><a xlink:href="goto__instruction__code_8h.html" target="_top" xlink:title=" ">
<polygon fill="none" stroke="black" points="535.5,-280.5 535.5,-299.5 668.5,-299.5 668.5,-280.5 535.5,-280.5"/>
<text text-anchor="middle" x="602" y="-287.5" font-family="Helvetica,sans-Serif" font-size="10.00">goto_instruction_code.h</text>
</a>
</g>
</g>
<!-- Node5&#45;&gt;Node6 -->
<g id="edge5" class="edge">
<title>Node5&#45;&gt;Node6</title>
<path fill="none" stroke="midnightblue" d="M287.83,-337.75C290.93,-337.14 294,-336.55 297,-336 374.42,-321.8 463.55,-309.07 525.38,-300.8"/>
<polygon fill="midnightblue" stroke="midnightblue" points="525.99,-304.25 535.44,-299.46 525.07,-297.31 525.99,-304.25"/>
</g>
<!-- Node13 -->
<g id="node13" class="node">
<title>Node13</title>
<g id="a_node13"><a xlink:href="src_2util_2invariant_8h.html" target="_top" xlink:title=" ">
<polygon fill="none" stroke="red" points="449.5,-56.5 449.5,-75.5 518.5,-75.5 518.5,-56.5 449.5,-56.5"/>
<text text-anchor="middle" x="484" y="-63.5" font-family="Helvetica,sans-Serif" font-size="10.00">invariant.h</text>
</a>
</g>
</g>
<!-- Node5&#45;&gt;Node13 -->
<g id="edge38" class="edge">
<title>Node5&#45;&gt;Node13</title>
<path fill="none" stroke="midnightblue" d="M287.57,-338.35C317.17,-330.36 353.16,-318 382,-300 416.39,-278.54 446,-275.54 446,-235 446,-235 446,-235 446,-177 446,-142.81 462.6,-105.76 473.86,-84.57"/>
<polygon fill="midnightblue" stroke="midnightblue" points="476.95,-86.22 478.72,-75.77 470.82,-82.83 476.95,-86.22"/>
</g>
<!-- Node24 -->
<g id="node17" class="node">
<title>Node24</title>
<g id="a_node17"><a xlink:title=" ">
<polygon fill="none" stroke="#bfbfbf" points="196,-56.5 196,-75.5 244,-75.5 244,-56.5 196,-56.5"/>
<text text-anchor="middle" x="220" y="-63.5" font-family="Helvetica,sans-Serif" font-size="10.00">iosfwd</text>
</a>
</g>
</g>
<!-- Node5&#45;&gt;Node24 -->
<g id="edge33" class="edge">
<title>Node5&#45;&gt;Node24</title>
<path fill="none" stroke="midnightblue" d="M283.69,-336.45C301.91,-328.79 320.4,-317.23 331,-300 335.66,-292.43 333.44,-288.55 331,-280 309.74,-205.52 270.6,-202.71 239,-132 232.25,-116.91 227.19,-98.78 223.99,-85.51"/>
<polygon fill="midnightblue" stroke="midnightblue" points="227.38,-84.65 221.75,-75.68 220.56,-86.2 227.38,-84.65"/>
</g>
<!-- Node47 -->
<g id="node21" class="node">
<title>Node47</title>
<g id="a_node21"><a xlink:title=" ">
<polygon fill="none" stroke="#bfbfbf" points="116,-280.5 116,-299.5 148,-299.5 148,-280.5 116,-280.5"/>
<text text-anchor="middle" x="132" y="-287.5" font-family="Helvetica,sans-Serif" font-size="10.00">set</text>
</a>
</g>
</g>
<!-- Node5&#45;&gt;Node47 -->
<g id="edge34" class="edge">
<title>Node5&#45;&gt;Node47</title>
<path fill="none" stroke="midnightblue" d="M207.54,-336.4C191.67,-326.86 170.81,-314.32 155.03,-304.84"/>
<polygon fill="midnightblue" stroke="midnightblue" points="156.78,-301.81 146.41,-299.66 153.17,-307.81 156.78,-301.81"/>
</g>
<!-- Node48 -->
<g id="node22" class="node">
<title>Node48</title>
<g id="a_node22"><a xlink:title=" ">
<polygon fill="none" stroke="#bfbfbf" points="166,-280.5 166,-299.5 210,-299.5 210,-280.5 166,-280.5"/>
<text text-anchor="middle" x="188" y="-287.5" font-family="Helvetica,sans-Serif" font-size="10.00">limits</text>
</a>
</g>
</g>
<!-- Node5&#45;&gt;Node48 -->
<g id="edge35" class="edge">
<title>Node5&#45;&gt;Node48</title>
<path fill="none" stroke="midnightblue" d="M220.81,-336.4C214.63,-327.84 206.7,-316.87 200.18,-307.86"/>
<polygon fill="midnightblue" stroke="midnightblue" points="202.95,-305.71 194.26,-299.66 197.28,-309.81 202.95,-305.71"/>
</g>
<!-- Node49 -->
<g id="node23" class="node">
<title>Node49</title>
<g id="a_node23"><a xlink:href="deprecate_8h.html" target="_top" xlink:title=" ">
<polygon fill="none" stroke="black" points="228.5,-280.5 228.5,-299.5 321.5,-299.5 321.5,-280.5 228.5,-280.5"/>
<text text-anchor="middle" x="275" y="-287.5" font-family="Helvetica,sans-Serif" font-size="10.00">util/deprecate.h</text>
</a>
</g>
</g>
<!-- Node5&#45;&gt;Node49 -->
<g id="edge37" class="edge">
<title>Node5&#45;&gt;Node49</title>
<path fill="none" stroke="midnightblue" d="M241.43,-336.4C247.76,-327.84 255.87,-316.87 262.53,-307.86"/>
<polygon fill="midnightblue" stroke="midnightblue" points="265.47,-309.78 268.6,-299.66 259.84,-305.62 265.47,-309.78"/>
</g>
<!-- Node50 -->
<g id="node24" class="node">
<title>Node50</title>
<g id="a_node24"><a xlink:href="namespace_8h.html" target="_top" xlink:title=" ">
<polygon fill="none" stroke="black" points="316.5,-168.5 316.5,-187.5 417.5,-187.5 417.5,-168.5 316.5,-168.5"/>
<text text-anchor="middle" x="367" y="-175.5" font-family="Helvetica,sans-Serif" font-size="10.00">util/namespace.h</text>
</a>
</g>
</g>
<!-- Node5&#45;&gt;Node50 -->
<g id="edge39" class="edge">
<title>Node5&#45;&gt;Node50</title>
<path fill="none" stroke="midnightblue" d="M285.59,-336.44C317.9,-326.9 354.36,-313.6 364,-300 385.59,-269.53 378.65,-223.06 372.39,-197.48"/>
<polygon fill="midnightblue" stroke="midnightblue" points="375.71,-196.37 369.75,-187.62 368.95,-198.18 375.71,-196.37"/>
</g>
<!-- Node19 -->
<g id="node26" class="node">
<title>Node19</title>
<g id="a_node26"><a xlink:href="source__location_8h.html" target="_top" xlink:title=" ">
<polygon fill="none" stroke="red" points="117,-168.5 117,-187.5 219,-187.5 219,-168.5 117,-168.5"/>
<text text-anchor="middle" x="168" y="-175.5" font-family="Helvetica,sans-Serif" font-size="10.00">source_location.h</text>
</a>
</g>
</g>
<!-- Node5&#45;&gt;Node19 -->
<g id="edge44" class="edge">
<title>Node5&#45;&gt;Node19</title>
<path fill="none" stroke="midnightblue" d="M174.45,-341.96C149.38,-335.06 122.18,-322.57 107,-300 83.07,-264.42 124.14,-218.16 149.78,-194.47"/>
<polygon fill="midnightblue" stroke="midnightblue" points="152.33,-196.89 157.46,-187.62 147.67,-191.67 152.33,-196.89"/>
</g>
<!-- Node7 -->
<g id="node7" class="node">
<title>Node7</title>
<g id="a_node7"><a xlink:href="cprover__prefix_8h.html" target="_top" xlink:title=" ">
<polygon fill="none" stroke="black" points="474,-224.5 474,-243.5 588,-243.5 588,-224.5 474,-224.5"/>
<text text-anchor="middle" x="531" y="-231.5" font-family="Helvetica,sans-Serif" font-size="10.00">util/cprover_prefix.h</text>
</a>
</g>
</g>
<!-- Node6&#45;&gt;Node7 -->
<g id="edge6" class="edge">
<title>Node6&#45;&gt;Node7</title>
<path fill="none" stroke="midnightblue" d="M590.59,-280.32C579.89,-272.18 563.66,-259.84 550.84,-250.09"/>
<polygon fill="midnightblue" stroke="midnightblue" points="552.69,-247.1 542.61,-243.83 548.46,-252.67 552.69,-247.1"/>
</g>
<!-- Node8 -->
<g id="node8" class="node">
<title>Node8</title>
<g id="a_node8"><a xlink:href="std__code__base_8h.html" target="_top" xlink:title=" ">
<polygon fill="none" stroke="black" points="606,-224.5 606,-243.5 722,-243.5 722,-224.5 606,-224.5"/>
<text text-anchor="middle" x="664" y="-231.5" font-family="Helvetica,sans-Serif" font-size="10.00">util/std_code_base.h</text>
</a>
</g>
</g>
<!-- Node6&#45;&gt;Node8 -->
<g id="edge7" class="edge">
<title>Node6&#45;&gt;Node8</title>
<path fill="none" stroke="midnightblue" d="M611.96,-280.32C621.13,-272.34 634.94,-260.31 646.03,-250.65"/>
<polygon fill="midnightblue" stroke="midnightblue" points="648.62,-253.04 653.86,-243.83 644.02,-247.76 648.62,-253.04"/>
</g>
<!-- Node46 -->
<g id="node20" class="node">
<title>Node46</title>
<g id="a_node20"><a xlink:href="std__expr_8h.html" target="_top" xlink:title=" ">
<polygon fill="none" stroke="black" points="740,-224.5 740,-243.5 826,-243.5 826,-224.5 740,-224.5"/>
<text text-anchor="middle" x="783" y="-231.5" font-family="Helvetica,sans-Serif" font-size="10.00">util/std_expr.h</text>
</a>
</g>
</g>
<!-- Node6&#45;&gt;Node46 -->
<g id="edge29" class="edge">
<title>Node6&#45;&gt;Node46</title>
<path fill="none" stroke="midnightblue" d="M630.68,-280.44C661.53,-271.24 710.73,-256.56 744.83,-246.39"/>
<polygon fill="midnightblue" stroke="midnightblue" points="745.87,-249.73 754.45,-243.52 743.87,-243.02 745.87,-249.73"/>
</g>
<!-- Node9 -->
<g id="node9" class="node">
<title>Node9</title>
<g id="a_node9"><a xlink:href="expr__cast_8h.html" target="_top" xlink:title="Templated functions to cast to specific exprt&#45;derived classes.">
<polygon fill="none" stroke="black" points="783.5,-112.5 783.5,-131.5 856.5,-131.5 856.5,-112.5 783.5,-112.5"/>
<text text-anchor="middle" x="820" y="-119.5" font-family="Helvetica,sans-Serif" font-size="10.00">expr_cast.h</text>
</a>
</g>
</g>
<!-- Node8&#45;&gt;Node9 -->
<g id="edge8" class="edge">
<title>Node8&#45;&gt;Node9</title>
<path fill="none" stroke="midnightblue" d="M676.24,-224.37C702.9,-205.57 766.44,-160.77 799.39,-137.53"/>
<polygon fill="midnightblue" stroke="midnightblue" points="801.66,-140.21 807.82,-131.59 797.63,-134.49 801.66,-140.21"/>
</g>
<!-- Node8&#45;&gt;Node13 -->
<g id="edge17" class="edge">
<title>Node8&#45;&gt;Node13</title>
<path fill="none" stroke="midnightblue" d="M642.45,-224.41C609.11,-210.07 545,-178.22 508,-132 497.21,-118.51 490.97,-99.7 487.57,-85.79"/>
<polygon fill="midnightblue" stroke="midnightblue" points="490.96,-84.9 485.43,-75.87 484.12,-86.38 490.96,-84.9"/>
</g>
<!-- Node43 -->
<g id="node15" class="node">
<title>Node43</title>
<g id="a_node15"><a xlink:href="std__types_8h.html" target="_top" xlink:title=" ">
<polygon fill="none" stroke="black" points="634.5,-168.5 634.5,-187.5 707.5,-187.5 707.5,-168.5 634.5,-168.5"/>
<text text-anchor="middle" x="671" y="-175.5" font-family="Helvetica,sans-Serif" font-size="10.00">std_types.h</text>
</a>
</g>
</g>
<!-- Node8&#45;&gt;Node43 -->
<g id="edge18" class="edge">
<title>Node8&#45;&gt;Node43</title>
<path fill="none" stroke="midnightblue" d="M665.16,-224.08C666.08,-216.93 667.42,-206.64 668.58,-197.69"/>
<polygon fill="midnightblue" stroke="midnightblue" points="672.05,-198.12 669.87,-187.75 665.11,-197.22 672.05,-198.12"/>
</g>
<!-- Node38 -->
<g id="node18" class="node">
<title>Node38</title>
<g id="a_node18"><a xlink:href="validate_8h.html" target="_top" xlink:title=" ">
<polygon fill="none" stroke="red" points="550.5,-112.5 550.5,-131.5 615.5,-131.5 615.5,-112.5 550.5,-112.5"/>
<text text-anchor="middle" x="583" y="-119.5" font-family="Helvetica,sans-Serif" font-size="10.00">validate.h</text>
</a>
</g>
</g>
<!-- Node8&#45;&gt;Node38 -->
<g id="edge28" class="edge">
<title>Node8&#45;&gt;Node38</title>
<path fill="none" stroke="midnightblue" d="M656.11,-224.29C648.2,-215.4 635.81,-201.09 626,-188 614.25,-172.31 602.03,-153.57 593.64,-140.25"/>
<polygon fill="midnightblue" stroke="midnightblue" points="596.52,-138.26 588.26,-131.63 590.58,-141.97 596.52,-138.26"/>
</g>
<!-- Node10 -->
<g id="node10" class="node">
<title>Node10</title>
<g id="a_node10"><a xlink:title=" ">
<polygon fill="none" stroke="#bfbfbf" points="702.5,-56.5 702.5,-75.5 759.5,-75.5 759.5,-56.5 702.5,-56.5"/>
<text text-anchor="middle" x="731" y="-63.5" font-family="Helvetica,sans-Serif" font-size="10.00">typeinfo</text>
</a>
</g>
</g>
<!-- Node9&#45;&gt;Node10 -->
<g id="edge9" class="edge">
<title>Node9&#45;&gt;Node10</title>
<path fill="none" stroke="midnightblue" d="M805.7,-112.32C791.82,-103.9 770.51,-90.97 754.2,-81.07"/>
<polygon fill="midnightblue" stroke="midnightblue" points="755.63,-77.85 745.26,-75.65 752,-83.83 755.63,-77.85"/>
</g>
<!-- Node11 -->
<g id="node11" class="node">
<title>Node11</title>
<g id="a_node11"><a xlink:title=" ">
<polygon fill="none" stroke="#bfbfbf" points="548.5,-0.5 548.5,-19.5 617.5,-19.5 617.5,-0.5 548.5,-0.5"/>
<text text-anchor="middle" x="583" y="-7.5" font-family="Helvetica,sans-Serif" font-size="10.00">type_traits</text>
</a>
</g>
</g>
<!-- Node9&#45;&gt;Node11 -->
<g id="edge10" class="edge">
<title>Node9&#45;&gt;Node11</title>
<path fill="none" stroke="midnightblue" d="M815.68,-112.31C808.19,-98.2 791.44,-70.43 769,-56 726.03,-28.37 667.58,-17.7 627.74,-13.58"/>
<polygon fill="midnightblue" stroke="midnightblue" points="627.82,-10.07 617.54,-12.62 627.17,-17.04 627.82,-10.07"/>
</g>
<!-- Node12 -->
<g id="node12" class="node">
<title>Node12</title>
<g id="a_node12"><a xlink:title=" ">
<polygon fill="none" stroke="#bfbfbf" points="819.5,-0.5 819.5,-19.5 884.5,-19.5 884.5,-0.5 819.5,-0.5"/>
<text text-anchor="middle" x="852" y="-7.5" font-family="Helvetica,sans-Serif" font-size="10.00">functional</text>
</a>
</g>
</g>
<!-- Node9&#45;&gt;Node12 -->
<g id="edge11" class="edge">
<title>Node9&#45;&gt;Node12</title>
<path fill="none" stroke="midnightblue" d="M822.51,-112.37C827.7,-94.54 839.7,-53.3 846.68,-29.27"/>
<polygon fill="midnightblue" stroke="midnightblue" points="850.07,-30.17 849.5,-19.59 843.35,-28.22 850.07,-30.17"/>
</g>
<!-- Node9&#45;&gt;Node13 -->
<g id="edge12" class="edge">
<title>Node9&#45;&gt;Node13</title>
<path fill="none" stroke="midnightblue" d="M783.19,-113.5C780.42,-112.98 777.67,-112.47 775,-112 688.04,-96.59 585.94,-81.49 528.72,-73.29"/>
<polygon fill="midnightblue" stroke="midnightblue" points="528.97,-69.79 518.57,-71.84 527.98,-76.72 528.97,-69.79"/>
</g>
<!-- Node16 -->
<g id="node14" class="node">
<title>Node16</title>
<g id="a_node14"><a xlink:href="expr_8h.html" target="_top" xlink:title=" ">
<polygon fill="none" stroke="red" points="854.5,-56.5 854.5,-75.5 901.5,-75.5 901.5,-56.5 854.5,-56.5"/>
<text text-anchor="middle" x="878" y="-63.5" font-family="Helvetica,sans-Serif" font-size="10.00">expr.h</text>
</a>
</g>
</g>
<!-- Node9&#45;&gt;Node16 -->
<g id="edge15" class="edge">
<title>Node9&#45;&gt;Node16</title>
<path fill="none" stroke="midnightblue" d="M829.32,-112.32C837.89,-104.34 850.81,-92.31 861.19,-82.65"/>
<polygon fill="midnightblue" stroke="midnightblue" points="863.58,-85.21 868.51,-75.83 858.81,-80.09 863.58,-85.21"/>
</g>
<!-- Node13&#45;&gt;Node2 -->
<g id="edge13" class="edge">
<title>Node13&#45;&gt;Node2</title>
<path fill="none" stroke="midnightblue" d="M449.49,-57.94C398.08,-47.42 302.09,-27.79 252.11,-17.57"/>
<polygon fill="midnightblue" stroke="midnightblue" points="252.67,-14.11 242.17,-15.54 251.27,-20.97 252.67,-14.11"/>
</g>
<!-- Node13&#45;&gt;Node11 -->
<g id="edge14" class="edge">
<title>Node13&#45;&gt;Node11</title>
<path fill="none" stroke="midnightblue" d="M499.91,-56.32C515.64,-47.74 539.94,-34.49 558.21,-24.52"/>
<polygon fill="midnightblue" stroke="midnightblue" points="560.03,-27.52 567.13,-19.65 556.68,-21.37 560.03,-27.52"/>
</g>
<!-- Node16&#45;&gt;Node12 -->
<g id="edge16" class="edge">
<title>Node16&#45;&gt;Node12</title>
<path fill="none" stroke="midnightblue" d="M873.71,-56.08C870.15,-48.69 864.98,-37.95 860.58,-28.81"/>
<polygon fill="midnightblue" stroke="midnightblue" points="863.71,-27.24 856.21,-19.75 857.4,-30.28 863.71,-27.24"/>
</g>
<!-- Node43&#45;&gt;Node9 -->
<g id="edge20" class="edge">
<title>Node43&#45;&gt;Node9</title>
<path fill="none" stroke="midnightblue" d="M694.61,-168.44C719.46,-159.44 758.77,-145.19 786.75,-135.05"/>
<polygon fill="midnightblue" stroke="midnightblue" points="788.29,-138.21 796.5,-131.52 785.91,-131.63 788.29,-138.21"/>
</g>
<!-- Node43&#45;&gt;Node13 -->
<g id="edge21" class="edge">
<title>Node43&#45;&gt;Node13</title>
<path fill="none" stroke="midnightblue" d="M667.22,-168.49C660.63,-154.62 645.75,-127.19 625,-112 596.62,-91.23 558.29,-79.8 528.75,-73.67"/>
<polygon fill="midnightblue" stroke="midnightblue" points="529.19,-70.19 518.7,-71.71 527.85,-77.06 529.19,-70.19"/>
</g>
<!-- Node43&#45;&gt;Node16 -->
<g id="edge19" class="edge">
<title>Node43&#45;&gt;Node16</title>
<path fill="none" stroke="midnightblue" d="M707.9,-173.29C758.22,-167.44 844.56,-154.41 866,-132 877.52,-119.96 879.83,-100.67 879.68,-86.23"/>
<polygon fill="midnightblue" stroke="midnightblue" points="883.15,-85.72 879.15,-75.91 876.16,-86.08 883.15,-85.72"/>
</g>
<!-- Node44 -->
<g id="node16" class="node">
<title>Node44</title>
<g id="a_node16"><a xlink:href="mp__arith_8h.html" target="_top" xlink:title=" ">
<polygon fill="none" stroke="red" points="310.5,-112.5 310.5,-131.5 379.5,-131.5 379.5,-112.5 310.5,-112.5"/>
<text text-anchor="middle" x="345" y="-119.5" font-family="Helvetica,sans-Serif" font-size="10.00">mp_arith.h</text>
</a>
</g>
</g>
<!-- Node43&#45;&gt;Node44 -->
<g id="edge22" class="edge">
<title>Node43&#45;&gt;Node44</title>
<path fill="none" stroke="midnightblue" d="M634.24,-170.91C574.02,-160.94 454.56,-141.15 389.6,-130.39"/>
<polygon fill="midnightblue" stroke="midnightblue" points="390.09,-126.92 379.65,-128.74 388.95,-133.83 390.09,-126.92"/>
</g>
<!-- Node43&#45;&gt;Node38 -->
<g id="edge25" class="edge">
<title>Node43&#45;&gt;Node38</title>
<path fill="none" stroke="midnightblue" d="M656.86,-168.32C643.13,-159.9 622.06,-146.97 605.94,-137.07"/>
<polygon fill="midnightblue" stroke="midnightblue" points="607.46,-133.9 597.1,-131.65 603.8,-139.87 607.46,-133.9"/>
</g>
<!-- Node28 -->
<g id="node19" class="node">
<title>Node28</title>
<g id="a_node19"><a xlink:title=" ">
<polygon fill="none" stroke="#bfbfbf" points="672.5,-112.5 672.5,-131.5 765.5,-131.5 765.5,-112.5 672.5,-112.5"/>
<text text-anchor="middle" x="719" y="-119.5" font-family="Helvetica,sans-Serif" font-size="10.00">unordered_map</text>
</a>
</g>
</g>
<!-- Node43&#45;&gt;Node28 -->
<g id="edge27" class="edge">
<title>Node43&#45;&gt;Node28</title>
<path fill="none" stroke="midnightblue" d="M678.93,-168.08C685.85,-160.3 696.07,-148.8 704.45,-139.37"/>
<polygon fill="midnightblue" stroke="midnightblue" points="707.19,-141.55 711.22,-131.75 701.96,-136.9 707.19,-141.55"/>
</g>
<!-- Node44&#45;&gt;Node2 -->
<g id="edge24" class="edge">
<title>Node44&#45;&gt;Node2</title>
<path fill="none" stroke="midnightblue" d="M335.19,-112.37C314.11,-93.81 264.22,-49.91 237.54,-26.44"/>
<polygon fill="midnightblue" stroke="midnightblue" points="239.58,-23.57 229.76,-19.59 234.96,-28.83 239.58,-23.57"/>
</g>
<!-- Node44&#45;&gt;Node24 -->
<g id="edge23" class="edge">
<title>Node44&#45;&gt;Node24</title>
<path fill="none" stroke="midnightblue" d="M325.19,-112.44C304.71,-103.6 272.52,-89.69 249.14,-79.59"/>
<polygon fill="midnightblue" stroke="midnightblue" points="250.28,-76.27 239.71,-75.52 247.51,-82.7 250.28,-76.27"/>
</g>
<!-- Node38&#45;&gt;Node11 -->
<g id="edge26" class="edge">
<title>Node38&#45;&gt;Node11</title>
<path fill="none" stroke="midnightblue" d="M583,-112.37C583,-94.62 583,-53.67 583,-29.6"/>
<polygon fill="midnightblue" stroke="midnightblue" points="586.5,-29.59 583,-19.59 579.5,-29.59 586.5,-29.59"/>
</g>
<!-- Node46&#45;&gt;Node9 -->
<g id="edge30" class="edge">
<title>Node46&#45;&gt;Node9</title>
<path fill="none" stroke="midnightblue" d="M785.9,-224.37C791.9,-206.54 805.77,-165.3 813.85,-141.27"/>
<polygon fill="midnightblue" stroke="midnightblue" points="817.24,-142.19 817.11,-131.59 810.6,-139.95 817.24,-142.19"/>
</g>
<!-- Node46&#45;&gt;Node13 -->
<g id="edge31" class="edge">
<title>Node46&#45;&gt;Node13</title>
<path fill="none" stroke="midnightblue" d="M740.08,-224.47C707.78,-217.16 662.92,-205.09 626,-188 585.28,-169.15 575.88,-161.42 542,-132 524.95,-117.19 508.06,-97.55 496.94,-83.75"/>
<polygon fill="midnightblue" stroke="midnightblue" points="499.47,-81.3 490.53,-75.63 493.98,-85.64 499.47,-81.3"/>
</g>
<!-- Node46&#45;&gt;Node43 -->
<g id="edge32" class="edge">
<title>Node46&#45;&gt;Node43</title>
<path fill="none" stroke="midnightblue" d="M765.01,-224.32C746.96,-215.62 718.95,-202.12 698.2,-192.11"/>
<polygon fill="midnightblue" stroke="midnightblue" points="699.48,-188.84 688.95,-187.65 696.44,-195.15 699.48,-188.84"/>
</g>
<!-- Node50&#45;&gt;Node13 -->
<g id="edge40" class="edge">
<title>Node50&#45;&gt;Node13</title>
<path fill="none" stroke="midnightblue" d="M375.22,-168.39C387.38,-155.75 410.97,-131.57 432,-112 442.93,-101.83 455.58,-90.87 465.67,-82.31"/>
<polygon fill="midnightblue" stroke="midnightblue" points="468.06,-84.87 473.45,-75.75 463.54,-79.52 468.06,-84.87"/>
</g>
<!-- Node20 -->
<g id="node25" class="node">
<title>Node20</title>
<g id="a_node25"><a xlink:href="irep_8h.html" target="_top" xlink:title=" ">
<polygon fill="none" stroke="red" points="248,-112.5 248,-131.5 292,-131.5 292,-112.5 248,-112.5"/>
<text text-anchor="middle" x="270" y="-119.5" font-family="Helvetica,sans-Serif" font-size="10.00">irep.h</text>
</a>
</g>
</g>
<!-- Node50&#45;&gt;Node20 -->
<g id="edge41" class="edge">
<title>Node50&#45;&gt;Node20</title>
<path fill="none" stroke="midnightblue" d="M351.42,-168.32C336,-159.74 312.19,-146.49 294.29,-136.52"/>
<polygon fill="midnightblue" stroke="midnightblue" points="295.99,-133.46 285.55,-131.65 292.58,-139.58 295.99,-133.46"/>
</g>
<!-- Node20&#45;&gt;Node2 -->
<g id="edge42" class="edge">
<title>Node20&#45;&gt;Node2</title>
<path fill="none" stroke="midnightblue" d="M268.78,-112.23C266.76,-99.39 262.02,-74.96 253,-56 248.17,-45.85 240.94,-35.66 234.47,-27.54"/>
<polygon fill="midnightblue" stroke="midnightblue" points="237,-25.11 227.91,-19.66 231.62,-29.58 237,-25.11"/>
</g>
<!-- Node20&#45;&gt;Node13 -->
<g id="edge43" class="edge">
<title>Node20&#45;&gt;Node13</title>
<path fill="none" stroke="midnightblue" d="M292.01,-114.71C295.35,-113.78 298.76,-112.85 302,-112 348.74,-99.65 402.51,-86.48 439.42,-77.6"/>
<polygon fill="midnightblue" stroke="midnightblue" points="440.46,-80.95 449.36,-75.22 438.82,-74.15 440.46,-80.95"/>
</g>
<!-- Node19&#45;&gt;Node2 -->
<g id="edge46" class="edge">
<title>Node19&#45;&gt;Node2</title>
<path fill="none" stroke="midnightblue" d="M167.98,-168.41C168.21,-148.07 170.5,-95.66 187,-56 191.32,-45.62 198.5,-35.41 205.06,-27.34"/>
<polygon fill="midnightblue" stroke="midnightblue" points="207.92,-29.39 211.78,-19.52 202.61,-24.83 207.92,-29.39"/>
</g>
<!-- Node19&#45;&gt;Node20 -->
<g id="edge45" class="edge">
<title>Node19&#45;&gt;Node20</title>
<path fill="none" stroke="midnightblue" d="M184.39,-168.32C200.67,-159.7 225.87,-146.36 244.72,-136.39"/>
<polygon fill="midnightblue" stroke="midnightblue" points="246.45,-139.43 253.65,-131.65 243.18,-133.24 246.45,-139.43"/>
</g>
</g>
</svg>
