<?xml version="1.0" encoding="UTF-8" standalone="no"?>
<!DOCTYPE svg PUBLIC "-//W3C//DTD SVG 1.1//EN"
 "http://www.w3.org/Graphics/SVG/1.1/DTD/svg11.dtd">
<!-- Generated by graphviz version 2.43.0 (0)
 -->
<!-- Title: /home/runner/work/cbmc&#45;documentation/cbmc&#45;documentation/src/pointer&#45;analysis/dereference_callback.h Pages: 1 -->
<svg width="893pt" height="520pt"
 viewBox="0.00 0.00 892.50 520.00" xmlns="http://www.w3.org/2000/svg" xmlns:xlink="http://www.w3.org/1999/xlink">
<g id="graph0" class="graph" transform="scale(1 1) rotate(0) translate(4 516)">
<title>/home/runner/work/cbmc&#45;documentation/cbmc&#45;documentation/src/pointer&#45;analysis/dereference_callback.h</title>
<!-- Node1 -->
<g id="node1" class="node">
<title>Node1</title>
<g id="a_node1"><a xlink:title=" ">
<polygon fill="#bfbfbf" stroke="black" points="0,-459.5 0,-511.5 200,-511.5 200,-459.5 0,-459.5"/>
<text text-anchor="start" x="8" y="-499.5" font-family="Helvetica,sans-Serif" font-size="10.00">/home/runner/work/cbmc</text>
<text text-anchor="start" x="8" y="-488.5" font-family="Helvetica,sans-Serif" font-size="10.00">&#45;documentation/cbmc&#45;documentation</text>
<text text-anchor="start" x="8" y="-477.5" font-family="Helvetica,sans-Serif" font-size="10.00">/src/pointer&#45;analysis/dereference</text>
<text text-anchor="middle" x="100" y="-466.5" font-family="Helvetica,sans-Serif" font-size="10.00">_callback.h</text>
</a>
</g>
</g>
<!-- Node2 -->
<g id="node2" class="node">
<title>Node2</title>
<g id="a_node2"><a xlink:title=" ">
<polygon fill="none" stroke="#bfbfbf" points="191,-0.5 191,-19.5 235,-19.5 235,-0.5 191,-0.5"/>
<text text-anchor="middle" x="213" y="-7.5" font-family="Helvetica,sans-Serif" font-size="10.00">string</text>
</a>
</g>
</g>
<!-- Node1&#45;&gt;Node2 -->
<g id="edge1" class="edge">
<title>Node1&#45;&gt;Node2</title>
<path fill="none" stroke="midnightblue" d="M81.97,-459.06C65.6,-433.41 44,-392.08 44,-352.5 44,-352.5 44,-352.5 44,-121 44,-56.29 132.12,-27.68 181.09,-16.77"/>
<polygon fill="midnightblue" stroke="midnightblue" points="181.84,-20.19 190.91,-14.71 180.4,-13.34 181.84,-20.19"/>
</g>
<!-- Node3 -->
<g id="node3" class="node">
<title>Node3</title>
<g id="a_node3"><a xlink:href="value__sets_8h.html" target="_top" xlink:title=" ">
<polygon fill="none" stroke="black" points="114,-403.5 114,-422.5 192,-422.5 192,-403.5 114,-403.5"/>
<text text-anchor="middle" x="153" y="-410.5" font-family="Helvetica,sans-Serif" font-size="10.00">value_sets.h</text>
</a>
</g>
</g>
<!-- Node1&#45;&gt;Node3 -->
<g id="edge2" class="edge">
<title>Node1&#45;&gt;Node3</title>
<path fill="none" stroke="midnightblue" d="M118.84,-459.45C125.99,-449.93 133.96,-439.33 140.4,-430.76"/>
<polygon fill="midnightblue" stroke="midnightblue" points="143.25,-432.79 146.46,-422.7 137.66,-428.59 143.25,-432.79"/>
</g>
<!-- Node4 -->
<g id="node4" class="node">
<title>Node4</title>
<g id="a_node4"><a xlink:title=" ">
<polygon fill="none" stroke="#bfbfbf" points="137,-342 137,-361 169,-361 169,-342 137,-342"/>
<text text-anchor="middle" x="153" y="-349" font-family="Helvetica,sans-Serif" font-size="10.00">list</text>
</a>
</g>
</g>
<!-- Node3&#45;&gt;Node4 -->
<g id="edge3" class="edge">
<title>Node3&#45;&gt;Node4</title>
<path fill="none" stroke="midnightblue" d="M153,-403.48C153,-395.08 153,-381.98 153,-371.16"/>
<polygon fill="midnightblue" stroke="midnightblue" points="156.5,-371.01 153,-361.01 149.5,-371.01 156.5,-371.01"/>
</g>
<!-- Node5 -->
<g id="node5" class="node">
<title>Node5</title>
<g id="a_node5"><a xlink:href="goto__program_8h.html" target="_top" xlink:title=" ">
<polygon fill="none" stroke="black" points="210.5,-336.5 210.5,-366.5 323.5,-366.5 323.5,-336.5 210.5,-336.5"/>
<text text-anchor="start" x="218.5" y="-354.5" font-family="Helvetica,sans-Serif" font-size="10.00">goto&#45;programs/goto</text>
<text text-anchor="middle" x="267" y="-343.5" font-family="Helvetica,sans-Serif" font-size="10.00">_program.h</text>
</a>
</g>
</g>
<!-- Node3&#45;&gt;Node5 -->
<g id="edge4" class="edge">
<title>Node3&#45;&gt;Node5</title>
<path fill="none" stroke="midnightblue" d="M169.33,-403.48C185.42,-395.08 210.53,-381.97 231.26,-371.15"/>
<polygon fill="midnightblue" stroke="midnightblue" points="232.89,-374.25 240.13,-366.52 229.65,-368.05 232.89,-374.25"/>
</g>
<!-- Node5&#45;&gt;Node2 -->
<g id="edge37" class="edge">
<title>Node5&#45;&gt;Node2</title>
<path fill="none" stroke="midnightblue" d="M210.49,-340.03C156.08,-326.3 82,-296.34 82,-235 82,-235 82,-235 82,-121 82,-69.48 142.17,-37.27 180.95,-21.86"/>
<polygon fill="midnightblue" stroke="midnightblue" points="182.67,-24.95 190.78,-18.13 180.19,-18.4 182.67,-24.95"/>
</g>
<!-- Node6 -->
<g id="node6" class="node">
<title>Node6</title>
<g id="a_node6"><a xlink:href="goto__instruction__code_8h.html" target="_top" xlink:title=" ">
<polygon fill="none" stroke="black" points="511.5,-280.5 511.5,-299.5 644.5,-299.5 644.5,-280.5 511.5,-280.5"/>
<text text-anchor="middle" x="578" y="-287.5" font-family="Helvetica,sans-Serif" font-size="10.00">goto_instruction_code.h</text>
</a>
</g>
</g>
<!-- Node5&#45;&gt;Node6 -->
<g id="edge5" class="edge">
<title>Node5&#45;&gt;Node6</title>
<path fill="none" stroke="midnightblue" d="M323.68,-339.66C380.42,-328.8 467.13,-312.21 523.19,-301.49"/>
<polygon fill="midnightblue" stroke="midnightblue" points="524.13,-304.87 533.29,-299.55 522.81,-298 524.13,-304.87"/>
</g>
<!-- Node13 -->
<g id="node13" class="node">
<title>Node13</title>
<g id="a_node13"><a xlink:href="src_2util_2invariant_8h.html" target="_top" xlink:title=" ">
<polygon fill="none" stroke="red" points="439.5,-56.5 439.5,-75.5 508.5,-75.5 508.5,-56.5 439.5,-56.5"/>
<text text-anchor="middle" x="474" y="-63.5" font-family="Helvetica,sans-Serif" font-size="10.00">invariant.h</text>
</a>
</g>
</g>
<!-- Node5&#45;&gt;Node13 -->
<g id="edge39" class="edge">
<title>Node5&#45;&gt;Node13</title>
<path fill="none" stroke="midnightblue" d="M323.73,-342.62C353.37,-335.83 388.32,-323.25 412,-300 433.98,-278.43 436,-265.8 436,-235 436,-235 436,-235 436,-177 436,-142.81 452.6,-105.76 463.86,-84.57"/>
<polygon fill="midnightblue" stroke="midnightblue" points="466.95,-86.22 468.72,-75.77 460.82,-82.83 466.95,-86.22"/>
</g>
<!-- Node18 -->
<g id="node15" class="node">
<title>Node18</title>
<g id="a_node15"><a xlink:href="deprecate_8h.html" target="_top" xlink:title=" ">
<polygon fill="none" stroke="black" points="448,-0.5 448,-19.5 522,-19.5 522,-0.5 448,-0.5"/>
<text text-anchor="middle" x="485" y="-7.5" font-family="Helvetica,sans-Serif" font-size="10.00">deprecate.h</text>
</a>
</g>
</g>
<!-- Node5&#45;&gt;Node18 -->
<g id="edge38" class="edge">
<title>Node5&#45;&gt;Node18</title>
<path fill="none" stroke="midnightblue" d="M321.39,-336.41C341.23,-328.7 362.18,-317.12 376,-300 445.84,-213.51 373,-150.84 431,-56 438.54,-43.68 450.65,-33.13 461.49,-25.35"/>
<polygon fill="midnightblue" stroke="midnightblue" points="463.48,-28.23 469.8,-19.72 459.56,-22.43 463.48,-28.23"/>
</g>
<!-- Node25 -->
<g id="node18" class="node">
<title>Node25</title>
<g id="a_node18"><a xlink:title=" ">
<polygon fill="none" stroke="#bfbfbf" points="189,-56.5 189,-75.5 237,-75.5 237,-56.5 189,-56.5"/>
<text text-anchor="middle" x="213" y="-63.5" font-family="Helvetica,sans-Serif" font-size="10.00">iosfwd</text>
</a>
</g>
</g>
<!-- Node5&#45;&gt;Node25 -->
<g id="edge34" class="edge">
<title>Node5&#45;&gt;Node25</title>
<path fill="none" stroke="midnightblue" d="M222.1,-336.49C178.87,-319.86 120,-287.58 120,-235 120,-235 120,-235 120,-177 120,-134.31 161.35,-99.64 188.91,-81.28"/>
<polygon fill="midnightblue" stroke="midnightblue" points="191.11,-84.03 197.64,-75.69 187.33,-78.13 191.11,-84.03"/>
</g>
<!-- Node48 -->
<g id="node22" class="node">
<title>Node48</title>
<g id="a_node22"><a xlink:title=" ">
<polygon fill="none" stroke="#bfbfbf" points="273,-280.5 273,-299.5 305,-299.5 305,-280.5 273,-280.5"/>
<text text-anchor="middle" x="289" y="-287.5" font-family="Helvetica,sans-Serif" font-size="10.00">set</text>
</a>
</g>
</g>
<!-- Node5&#45;&gt;Node48 -->
<g id="edge35" class="edge">
<title>Node5&#45;&gt;Node48</title>
<path fill="none" stroke="midnightblue" d="M272.21,-336.4C275.21,-328.29 279.01,-318.01 282.24,-309.28"/>
<polygon fill="midnightblue" stroke="midnightblue" points="285.61,-310.25 285.8,-299.66 279.05,-307.82 285.61,-310.25"/>
</g>
<!-- Node49 -->
<g id="node23" class="node">
<title>Node49</title>
<g id="a_node23"><a xlink:title=" ">
<polygon fill="none" stroke="#bfbfbf" points="323,-280.5 323,-299.5 367,-299.5 367,-280.5 323,-280.5"/>
<text text-anchor="middle" x="345" y="-287.5" font-family="Helvetica,sans-Serif" font-size="10.00">limits</text>
</a>
</g>
</g>
<!-- Node5&#45;&gt;Node49 -->
<g id="edge36" class="edge">
<title>Node5&#45;&gt;Node49</title>
<path fill="none" stroke="midnightblue" d="M285.48,-336.4C297.52,-327.22 313.2,-315.26 325.44,-305.92"/>
<polygon fill="midnightblue" stroke="midnightblue" points="327.82,-308.51 333.65,-299.66 323.58,-302.94 327.82,-308.51"/>
</g>
<!-- Node50 -->
<g id="node24" class="node">
<title>Node50</title>
<g id="a_node24"><a xlink:href="namespace_8h.html" target="_top" xlink:title=" ">
<polygon fill="none" stroke="black" points="268.5,-168.5 268.5,-187.5 369.5,-187.5 369.5,-168.5 268.5,-168.5"/>
<text text-anchor="middle" x="319" y="-175.5" font-family="Helvetica,sans-Serif" font-size="10.00">util/namespace.h</text>
</a>
</g>
</g>
<!-- Node5&#45;&gt;Node50 -->
<g id="edge40" class="edge">
<title>Node5&#45;&gt;Node50</title>
<path fill="none" stroke="midnightblue" d="M264.06,-336.48C261.57,-322.07 259.13,-299.11 264,-280 272.17,-247.91 292.84,-215 306.38,-195.81"/>
<polygon fill="midnightblue" stroke="midnightblue" points="309.34,-197.7 312.37,-187.56 303.67,-193.59 309.34,-197.7"/>
</g>
<!-- Node20 -->
<g id="node26" class="node">
<title>Node20</title>
<g id="a_node26"><a xlink:href="source__location_8h.html" target="_top" xlink:title=" ">
<polygon fill="none" stroke="red" points="148,-168.5 148,-187.5 250,-187.5 250,-168.5 148,-168.5"/>
<text text-anchor="middle" x="199" y="-175.5" font-family="Helvetica,sans-Serif" font-size="10.00">source_location.h</text>
</a>
</g>
</g>
<!-- Node5&#45;&gt;Node20 -->
<g id="edge45" class="edge">
<title>Node5&#45;&gt;Node20</title>
<path fill="none" stroke="midnightblue" d="M261.44,-336.47C249.19,-305.57 219.89,-231.69 206.24,-197.25"/>
<polygon fill="midnightblue" stroke="midnightblue" points="209.33,-195.57 202.39,-187.56 202.83,-198.15 209.33,-195.57"/>
</g>
<!-- Node7 -->
<g id="node7" class="node">
<title>Node7</title>
<g id="a_node7"><a xlink:href="cprover__prefix_8h.html" target="_top" xlink:title=" ">
<polygon fill="none" stroke="black" points="570,-224.5 570,-243.5 684,-243.5 684,-224.5 570,-224.5"/>
<text text-anchor="middle" x="627" y="-231.5" font-family="Helvetica,sans-Serif" font-size="10.00">util/cprover_prefix.h</text>
</a>
</g>
</g>
<!-- Node6&#45;&gt;Node7 -->
<g id="edge6" class="edge">
<title>Node6&#45;&gt;Node7</title>
<path fill="none" stroke="midnightblue" d="M586.09,-280.08C593.16,-272.3 603.59,-260.8 612.15,-251.37"/>
<polygon fill="midnightblue" stroke="midnightblue" points="614.93,-253.51 619.06,-243.75 609.75,-248.8 614.93,-253.51"/>
</g>
<!-- Node8 -->
<g id="node8" class="node">
<title>Node8</title>
<g id="a_node8"><a xlink:href="std__code__base_8h.html" target="_top" xlink:title=" ">
<polygon fill="none" stroke="black" points="702,-224.5 702,-243.5 818,-243.5 818,-224.5 702,-224.5"/>
<text text-anchor="middle" x="760" y="-231.5" font-family="Helvetica,sans-Serif" font-size="10.00">util/std_code_base.h</text>
</a>
</g>
</g>
<!-- Node6&#45;&gt;Node8 -->
<g id="edge7" class="edge">
<title>Node6&#45;&gt;Node8</title>
<path fill="none" stroke="midnightblue" d="M606.84,-280.44C637.86,-271.24 687.33,-256.56 721.62,-246.39"/>
<polygon fill="midnightblue" stroke="midnightblue" points="722.71,-249.72 731.3,-243.52 720.71,-243.01 722.71,-249.72"/>
</g>
<!-- Node47 -->
<g id="node21" class="node">
<title>Node47</title>
<g id="a_node21"><a xlink:href="std__expr_8h.html" target="_top" xlink:title=" ">
<polygon fill="none" stroke="black" points="466,-224.5 466,-243.5 552,-243.5 552,-224.5 466,-224.5"/>
<text text-anchor="middle" x="509" y="-231.5" font-family="Helvetica,sans-Serif" font-size="10.00">util/std_expr.h</text>
</a>
</g>
</g>
<!-- Node6&#45;&gt;Node47 -->
<g id="edge30" class="edge">
<title>Node6&#45;&gt;Node47</title>
<path fill="none" stroke="midnightblue" d="M566.91,-280.32C556.51,-272.18 540.74,-259.84 528.28,-250.09"/>
<polygon fill="midnightblue" stroke="midnightblue" points="530.32,-247.24 520.29,-243.83 526.01,-252.75 530.32,-247.24"/>
</g>
<!-- Node9 -->
<g id="node9" class="node">
<title>Node9</title>
<g id="a_node9"><a xlink:href="expr__cast_8h.html" target="_top" xlink:title="Templated functions to cast to specific exprt&#45;derived classes.">
<polygon fill="none" stroke="black" points="728.5,-112.5 728.5,-131.5 801.5,-131.5 801.5,-112.5 728.5,-112.5"/>
<text text-anchor="middle" x="765" y="-119.5" font-family="Helvetica,sans-Serif" font-size="10.00">expr_cast.h</text>
</a>
</g>
</g>
<!-- Node8&#45;&gt;Node9 -->
<g id="edge8" class="edge">
<title>Node8&#45;&gt;Node9</title>
<path fill="none" stroke="midnightblue" d="M760.39,-224.37C761.2,-206.62 763.06,-165.67 764.15,-141.6"/>
<polygon fill="midnightblue" stroke="midnightblue" points="767.65,-141.74 764.61,-131.59 760.66,-141.42 767.65,-141.74"/>
</g>
<!-- Node8&#45;&gt;Node13 -->
<g id="edge18" class="edge">
<title>Node8&#45;&gt;Node13</title>
<path fill="none" stroke="midnightblue" d="M754.29,-224.45C739.03,-202.26 694.9,-142.49 643,-112 604.52,-89.39 554.51,-77.91 518.9,-72.23"/>
<polygon fill="midnightblue" stroke="midnightblue" points="519.21,-68.74 508.8,-70.71 518.17,-75.66 519.21,-68.74"/>
</g>
<!-- Node44 -->
<g id="node16" class="node">
<title>Node44</title>
<g id="a_node16"><a xlink:href="std__types_8h.html" target="_top" xlink:title=" ">
<polygon fill="none" stroke="black" points="555.5,-168.5 555.5,-187.5 628.5,-187.5 628.5,-168.5 555.5,-168.5"/>
<text text-anchor="middle" x="592" y="-175.5" font-family="Helvetica,sans-Serif" font-size="10.00">std_types.h</text>
</a>
</g>
</g>
<!-- Node8&#45;&gt;Node44 -->
<g id="edge19" class="edge">
<title>Node8&#45;&gt;Node44</title>
<path fill="none" stroke="midnightblue" d="M733.38,-224.44C704.99,-215.32 659.86,-200.81 628.25,-190.65"/>
<polygon fill="midnightblue" stroke="midnightblue" points="629.09,-187.24 618.5,-187.52 626.94,-193.91 629.09,-187.24"/>
</g>
<!-- Node39 -->
<g id="node19" class="node">
<title>Node39</title>
<g id="a_node19"><a xlink:href="validate_8h.html" target="_top" xlink:title=" ">
<polygon fill="none" stroke="red" points="819.5,-112.5 819.5,-131.5 884.5,-131.5 884.5,-112.5 819.5,-112.5"/>
<text text-anchor="middle" x="852" y="-119.5" font-family="Helvetica,sans-Serif" font-size="10.00">validate.h</text>
</a>
</g>
</g>
<!-- Node8&#45;&gt;Node39 -->
<g id="edge29" class="edge">
<title>Node8&#45;&gt;Node39</title>
<path fill="none" stroke="midnightblue" d="M767.22,-224.37C782.54,-206.05 818.5,-163.05 838.32,-139.36"/>
<polygon fill="midnightblue" stroke="midnightblue" points="841.08,-141.51 844.81,-131.59 835.71,-137.02 841.08,-141.51"/>
</g>
<!-- Node10 -->
<g id="node10" class="node">
<title>Node10</title>
<g id="a_node10"><a xlink:title=" ">
<polygon fill="none" stroke="#bfbfbf" points="732.5,-56.5 732.5,-75.5 789.5,-75.5 789.5,-56.5 732.5,-56.5"/>
<text text-anchor="middle" x="761" y="-63.5" font-family="Helvetica,sans-Serif" font-size="10.00">typeinfo</text>
</a>
</g>
</g>
<!-- Node9&#45;&gt;Node10 -->
<g id="edge9" class="edge">
<title>Node9&#45;&gt;Node10</title>
<path fill="none" stroke="midnightblue" d="M764.34,-112.08C763.82,-105.01 763.06,-94.86 762.41,-85.99"/>
<polygon fill="midnightblue" stroke="midnightblue" points="765.88,-85.47 761.65,-75.75 758.9,-85.98 765.88,-85.47"/>
</g>
<!-- Node11 -->
<g id="node11" class="node">
<title>Node11</title>
<g id="a_node11"><a xlink:title=" ">
<polygon fill="none" stroke="#bfbfbf" points="669.5,-0.5 669.5,-19.5 738.5,-19.5 738.5,-0.5 669.5,-0.5"/>
<text text-anchor="middle" x="704" y="-7.5" font-family="Helvetica,sans-Serif" font-size="10.00">type_traits</text>
</a>
</g>
</g>
<!-- Node9&#45;&gt;Node11 -->
<g id="edge10" class="edge">
<title>Node9&#45;&gt;Node11</title>
<path fill="none" stroke="midnightblue" d="M754.86,-112.32C745.61,-103.9 732.17,-90.32 724,-76 715.77,-61.58 710.55,-43.39 707.51,-29.92"/>
<polygon fill="midnightblue" stroke="midnightblue" points="710.89,-29 705.46,-19.9 704.04,-30.4 710.89,-29"/>
</g>
<!-- Node12 -->
<g id="node12" class="node">
<title>Node12</title>
<g id="a_node12"><a xlink:title=" ">
<polygon fill="none" stroke="#bfbfbf" points="770.5,-0.5 770.5,-19.5 835.5,-19.5 835.5,-0.5 770.5,-0.5"/>
<text text-anchor="middle" x="803" y="-7.5" font-family="Helvetica,sans-Serif" font-size="10.00">functional</text>
</a>
</g>
</g>
<!-- Node9&#45;&gt;Node12 -->
<g id="edge11" class="edge">
<title>Node9&#45;&gt;Node12</title>
<path fill="none" stroke="midnightblue" d="M774.09,-112.32C782.23,-103.9 793.7,-90.33 799,-76 804.46,-61.24 805.16,-43.31 804.67,-30.02"/>
<polygon fill="midnightblue" stroke="midnightblue" points="808.14,-29.5 804.02,-19.74 801.16,-29.94 808.14,-29.5"/>
</g>
<!-- Node9&#45;&gt;Node13 -->
<g id="edge12" class="edge">
<title>Node9&#45;&gt;Node13</title>
<path fill="none" stroke="midnightblue" d="M728.44,-114.22C675.16,-104.33 576.27,-85.98 518.72,-75.3"/>
<polygon fill="midnightblue" stroke="midnightblue" points="519.3,-71.85 508.82,-73.46 518.02,-78.73 519.3,-71.85"/>
</g>
<!-- Node16 -->
<g id="node14" class="node">
<title>Node16</title>
<g id="a_node14"><a xlink:href="expr_8h.html" target="_top" xlink:title=" ">
<polygon fill="none" stroke="red" points="628.5,-56.5 628.5,-75.5 675.5,-75.5 675.5,-56.5 628.5,-56.5"/>
<text text-anchor="middle" x="652" y="-63.5" font-family="Helvetica,sans-Serif" font-size="10.00">expr.h</text>
</a>
</g>
</g>
<!-- Node9&#45;&gt;Node16 -->
<g id="edge15" class="edge">
<title>Node9&#45;&gt;Node16</title>
<path fill="none" stroke="midnightblue" d="M747.09,-112.44C728.75,-103.68 699.99,-89.94 678.91,-79.86"/>
<polygon fill="midnightblue" stroke="midnightblue" points="680.35,-76.67 669.82,-75.52 677.33,-82.99 680.35,-76.67"/>
</g>
<!-- Node13&#45;&gt;Node2 -->
<g id="edge13" class="edge">
<title>Node13&#45;&gt;Node2</title>
<path fill="none" stroke="midnightblue" d="M439.34,-57.83C388.46,-47.3 294.27,-27.82 244.97,-17.62"/>
<polygon fill="midnightblue" stroke="midnightblue" points="245.67,-14.18 235.17,-15.59 244.25,-21.04 245.67,-14.18"/>
</g>
<!-- Node13&#45;&gt;Node11 -->
<g id="edge14" class="edge">
<title>Node13&#45;&gt;Node11</title>
<path fill="none" stroke="midnightblue" d="M508.93,-56.8C549.27,-47.33 615.7,-31.73 659.65,-21.41"/>
<polygon fill="midnightblue" stroke="midnightblue" points="660.56,-24.79 669.49,-19.1 658.96,-17.98 660.56,-24.79"/>
</g>
<!-- Node16&#45;&gt;Node12 -->
<g id="edge17" class="edge">
<title>Node16&#45;&gt;Node12</title>
<path fill="none" stroke="midnightblue" d="M675.59,-56.56C700.82,-47.54 741.03,-33.16 769.53,-22.97"/>
<polygon fill="midnightblue" stroke="midnightblue" points="770.84,-26.22 779.07,-19.56 768.48,-19.63 770.84,-26.22"/>
</g>
<!-- Node16&#45;&gt;Node18 -->
<g id="edge16" class="edge">
<title>Node16&#45;&gt;Node18</title>
<path fill="none" stroke="midnightblue" d="M628.43,-57.38C600.48,-48.34 553.6,-33.18 521.08,-22.67"/>
<polygon fill="midnightblue" stroke="midnightblue" points="522.08,-19.31 511.48,-19.56 519.92,-25.97 522.08,-19.31"/>
</g>
<!-- Node44&#45;&gt;Node9 -->
<g id="edge21" class="edge">
<title>Node44&#45;&gt;Node9</title>
<path fill="none" stroke="midnightblue" d="M619.41,-168.44C648.77,-159.28 695.52,-144.69 728.1,-134.52"/>
<polygon fill="midnightblue" stroke="midnightblue" points="729.21,-137.84 737.72,-131.52 727.13,-131.16 729.21,-137.84"/>
</g>
<!-- Node44&#45;&gt;Node13 -->
<g id="edge22" class="edge">
<title>Node44&#45;&gt;Node13</title>
<path fill="none" stroke="midnightblue" d="M579.02,-168.38C566.46,-159.8 547.15,-145.92 532,-132 515.55,-116.89 498.78,-97.59 487.53,-83.96"/>
<polygon fill="midnightblue" stroke="midnightblue" points="490.02,-81.47 481,-75.92 484.59,-85.88 490.02,-81.47"/>
</g>
<!-- Node44&#45;&gt;Node16 -->
<g id="edge20" class="edge">
<title>Node44&#45;&gt;Node16</title>
<path fill="none" stroke="midnightblue" d="M606.68,-168.27C618.55,-160.37 634.62,-147.61 643,-132 650.66,-117.73 652.59,-99.26 652.79,-85.66"/>
<polygon fill="midnightblue" stroke="midnightblue" points="656.29,-85.52 652.64,-75.57 649.29,-85.63 656.29,-85.52"/>
</g>
<!-- Node45 -->
<g id="node17" class="node">
<title>Node45</title>
<g id="a_node17"><a xlink:href="mp__arith_8h.html" target="_top" xlink:title=" ">
<polygon fill="none" stroke="red" points="200.5,-112.5 200.5,-131.5 269.5,-131.5 269.5,-112.5 200.5,-112.5"/>
<text text-anchor="middle" x="235" y="-119.5" font-family="Helvetica,sans-Serif" font-size="10.00">mp_arith.h</text>
</a>
</g>
</g>
<!-- Node44&#45;&gt;Node45 -->
<g id="edge23" class="edge">
<title>Node44&#45;&gt;Node45</title>
<path fill="none" stroke="midnightblue" d="M555.27,-172.43C498.45,-165.21 385.62,-150.26 279.47,-131.99"/>
<polygon fill="midnightblue" stroke="midnightblue" points="280,-128.53 269.55,-130.27 278.81,-135.43 280,-128.53"/>
</g>
<!-- Node44&#45;&gt;Node39 -->
<g id="edge26" class="edge">
<title>Node44&#45;&gt;Node39</title>
<path fill="none" stroke="midnightblue" d="M628.84,-169.59C670.35,-161.2 740.1,-147 809.15,-132.37"/>
<polygon fill="midnightblue" stroke="midnightblue" points="810.28,-135.71 819.33,-130.21 808.83,-128.86 810.28,-135.71"/>
</g>
<!-- Node29 -->
<g id="node20" class="node">
<title>Node29</title>
<g id="a_node20"><a xlink:title=" ">
<polygon fill="none" stroke="#bfbfbf" points="540.5,-112.5 540.5,-131.5 633.5,-131.5 633.5,-112.5 540.5,-112.5"/>
<text text-anchor="middle" x="587" y="-119.5" font-family="Helvetica,sans-Serif" font-size="10.00">unordered_map</text>
</a>
</g>
</g>
<!-- Node44&#45;&gt;Node29 -->
<g id="edge28" class="edge">
<title>Node44&#45;&gt;Node29</title>
<path fill="none" stroke="midnightblue" d="M591.17,-168.08C590.52,-161.01 589.58,-150.86 588.76,-141.99"/>
<polygon fill="midnightblue" stroke="midnightblue" points="592.22,-141.39 587.81,-131.75 585.25,-142.03 592.22,-141.39"/>
</g>
<!-- Node45&#45;&gt;Node2 -->
<g id="edge25" class="edge">
<title>Node45&#45;&gt;Node2</title>
<path fill="none" stroke="midnightblue" d="M239.03,-112.39C244.37,-99.76 252.41,-75.58 246,-56 242.51,-45.34 235.43,-35.12 228.71,-27.12"/>
<polygon fill="midnightblue" stroke="midnightblue" points="231.3,-24.76 222.02,-19.66 226.1,-29.44 231.3,-24.76"/>
</g>
<!-- Node45&#45;&gt;Node25 -->
<g id="edge24" class="edge">
<title>Node45&#45;&gt;Node25</title>
<path fill="none" stroke="midnightblue" d="M231.37,-112.08C228.39,-104.77 224.07,-94.18 220.38,-85.1"/>
<polygon fill="midnightblue" stroke="midnightblue" points="223.58,-83.69 216.57,-75.75 217.1,-86.33 223.58,-83.69"/>
</g>
<!-- Node39&#45;&gt;Node11 -->
<g id="edge27" class="edge">
<title>Node39&#45;&gt;Node11</title>
<path fill="none" stroke="midnightblue" d="M846.79,-112.39C838.24,-98.87 820.09,-72.52 799,-56 781.02,-41.91 757.91,-30.84 738.98,-23.21"/>
<polygon fill="midnightblue" stroke="midnightblue" points="740.1,-19.89 729.52,-19.53 737.57,-26.41 740.1,-19.89"/>
</g>
<!-- Node47&#45;&gt;Node9 -->
<g id="edge31" class="edge">
<title>Node47&#45;&gt;Node9</title>
<path fill="none" stroke="midnightblue" d="M537.1,-224.43C563.52,-216.08 603.98,-202.56 638,-188 674.75,-172.27 715.64,-150.54 740.84,-136.63"/>
<polygon fill="midnightblue" stroke="midnightblue" points="742.65,-139.63 749.69,-131.71 739.25,-133.51 742.65,-139.63"/>
</g>
<!-- Node47&#45;&gt;Node13 -->
<g id="edge32" class="edge">
<title>Node47&#45;&gt;Node13</title>
<path fill="none" stroke="midnightblue" d="M507.12,-224.08C501.61,-197.95 485.43,-121.21 477.92,-85.58"/>
<polygon fill="midnightblue" stroke="midnightblue" points="481.29,-84.63 475.81,-75.57 474.44,-86.08 481.29,-84.63"/>
</g>
<!-- Node47&#45;&gt;Node44 -->
<g id="edge33" class="edge">
<title>Node47&#45;&gt;Node44</title>
<path fill="none" stroke="midnightblue" d="M522.34,-224.32C535.16,-215.98 554.78,-203.21 569.94,-193.35"/>
<polygon fill="midnightblue" stroke="midnightblue" points="572.22,-196.04 578.7,-187.65 568.41,-190.17 572.22,-196.04"/>
</g>
<!-- Node50&#45;&gt;Node13 -->
<g id="edge41" class="edge">
<title>Node50&#45;&gt;Node13</title>
<path fill="none" stroke="midnightblue" d="M331.16,-168.37C357.65,-149.57 420.78,-104.77 453.52,-81.53"/>
<polygon fill="midnightblue" stroke="midnightblue" points="455.76,-84.23 461.89,-75.59 451.71,-78.52 455.76,-84.23"/>
</g>
<!-- Node21 -->
<g id="node25" class="node">
<title>Node21</title>
<g id="a_node25"><a xlink:href="irep_8h.html" target="_top" xlink:title=" ">
<polygon fill="none" stroke="red" points="288,-112.5 288,-131.5 332,-131.5 332,-112.5 288,-112.5"/>
<text text-anchor="middle" x="310" y="-119.5" font-family="Helvetica,sans-Serif" font-size="10.00">irep.h</text>
</a>
</g>
</g>
<!-- Node50&#45;&gt;Node21 -->
<g id="edge42" class="edge">
<title>Node50&#45;&gt;Node21</title>
<path fill="none" stroke="midnightblue" d="M317.51,-168.08C316.32,-160.93 314.61,-150.64 313.12,-141.69"/>
<polygon fill="midnightblue" stroke="midnightblue" points="316.55,-141.04 311.46,-131.75 309.65,-142.19 316.55,-141.04"/>
</g>
<!-- Node21&#45;&gt;Node2 -->
<g id="edge43" class="edge">
<title>Node21&#45;&gt;Node2</title>
<path fill="none" stroke="midnightblue" d="M304.1,-112.22C295.32,-99.37 278,-74.92 261,-56 251.55,-45.48 240.02,-34.62 230.63,-26.2"/>
<polygon fill="midnightblue" stroke="midnightblue" points="232.85,-23.49 223.04,-19.5 228.22,-28.74 232.85,-23.49"/>
</g>
<!-- Node21&#45;&gt;Node13 -->
<g id="edge44" class="edge">
<title>Node21&#45;&gt;Node13</title>
<path fill="none" stroke="midnightblue" d="M332.12,-113.72C359.37,-104.74 406.04,-89.38 438.37,-78.73"/>
<polygon fill="midnightblue" stroke="midnightblue" points="439.51,-82.04 447.91,-75.59 437.32,-75.39 439.51,-82.04"/>
</g>
<!-- Node20&#45;&gt;Node2 -->
<g id="edge47" class="edge">
<title>Node20&#45;&gt;Node2</title>
<path fill="none" stroke="midnightblue" d="M194.9,-168.27C186,-148.05 166.7,-96.62 180,-56 183.49,-45.34 190.57,-35.12 197.29,-27.12"/>
<polygon fill="midnightblue" stroke="midnightblue" points="199.9,-29.44 203.98,-19.66 194.7,-24.76 199.9,-29.44"/>
</g>
<!-- Node20&#45;&gt;Node21 -->
<g id="edge46" class="edge">
<title>Node20&#45;&gt;Node21</title>
<path fill="none" stroke="midnightblue" d="M216.83,-168.32C234.72,-159.62 262.48,-146.12 283.05,-136.11"/>
<polygon fill="midnightblue" stroke="midnightblue" points="284.75,-139.18 292.21,-131.65 281.69,-132.88 284.75,-139.18"/>
</g>
</g>
</svg>
