<?xml version="1.0" encoding="UTF-8" standalone="no"?>
<!DOCTYPE svg PUBLIC "-//W3C//DTD SVG 1.1//EN"
 "http://www.w3.org/Graphics/SVG/1.1/DTD/svg11.dtd">
<!-- Generated by graphviz version 2.43.0 (0)
 -->
<!-- Title: /home/runner/work/cbmc&#45;documentation/cbmc&#45;documentation/src/ansi&#45;c/designator.h Pages: 1 -->
<svg width="6861pt" height="306pt"
 viewBox="0.00 0.00 6861.00 306.00" xmlns="http://www.w3.org/2000/svg" xmlns:xlink="http://www.w3.org/1999/xlink">
<g id="graph0" class="graph" transform="scale(1 1) rotate(0) translate(4 302)">
<title>/home/runner/work/cbmc&#45;documentation/cbmc&#45;documentation/src/ansi&#45;c/designator.h</title>
<!-- Node1 -->
<g id="node1" class="node">
<title>Node1</title>
<g id="a_node1"><a xlink:title=" ">
<polygon fill="#bfbfbf" stroke="black" points="1997,-256.5 1997,-297.5 2197,-297.5 2197,-256.5 1997,-256.5"/>
<text text-anchor="start" x="2005" y="-285.5" font-family="Helvetica,sans-Serif" font-size="10.00">/home/runner/work/cbmc</text>
<text text-anchor="start" x="2005" y="-274.5" font-family="Helvetica,sans-Serif" font-size="10.00">&#45;documentation/cbmc&#45;documentation</text>
<text text-anchor="middle" x="2097" y="-263.5" font-family="Helvetica,sans-Serif" font-size="10.00">/src/ansi&#45;c/designator.h</text>
</a>
</g>
</g>
<!-- Node2 -->
<g id="node2" class="node">
<title>Node2</title>
<g id="a_node2"><a xlink:href="c__typecheck__base_8h.html" target="_top" xlink:title=" ">
<polygon fill="none" stroke="black" points="1888,-178.5 1888,-219.5 2088,-219.5 2088,-178.5 1888,-178.5"/>
<text text-anchor="start" x="1896" y="-207.5" font-family="Helvetica,sans-Serif" font-size="10.00">/home/runner/work/cbmc</text>
<text text-anchor="start" x="1896" y="-196.5" font-family="Helvetica,sans-Serif" font-size="10.00">&#45;documentation/cbmc&#45;documentation</text>
<text text-anchor="middle" x="1988" y="-185.5" font-family="Helvetica,sans-Serif" font-size="10.00">/src/ansi&#45;c/c_typecheck_base.h</text>
</a>
</g>
</g>
<!-- Node1&#45;&gt;Node2 -->
<g id="edge1" class="edge">
<title>Node1&#45;&gt;Node2</title>
<path fill="none" stroke="midnightblue" d="M2060.62,-250.64C2046.07,-240.49 2029.57,-228.98 2015.98,-219.51"/>
<polygon fill="midnightblue" stroke="midnightblue" points="2058.73,-253.58 2068.93,-256.43 2062.73,-247.84 2058.73,-253.58"/>
</g>
<!-- Node43 -->
<g id="node43" class="node">
<title>Node43</title>
<g id="a_node43"><a xlink:href="designator_8cpp.html" target="_top" xlink:title=" ">
<polygon fill="none" stroke="black" points="2106,-178.5 2106,-219.5 2306,-219.5 2306,-178.5 2106,-178.5"/>
<text text-anchor="start" x="2114" y="-207.5" font-family="Helvetica,sans-Serif" font-size="10.00">/home/runner/work/cbmc</text>
<text text-anchor="start" x="2114" y="-196.5" font-family="Helvetica,sans-Serif" font-size="10.00">&#45;documentation/cbmc&#45;documentation</text>
<text text-anchor="middle" x="2206" y="-185.5" font-family="Helvetica,sans-Serif" font-size="10.00">/src/ansi&#45;c/designator.cpp</text>
</a>
</g>
</g>
<!-- Node1&#45;&gt;Node43 -->
<g id="edge42" class="edge">
<title>Node1&#45;&gt;Node43</title>
<path fill="none" stroke="midnightblue" d="M2133.38,-250.64C2147.93,-240.49 2164.43,-228.98 2178.02,-219.51"/>
<polygon fill="midnightblue" stroke="midnightblue" points="2131.27,-247.84 2125.07,-256.43 2135.27,-253.58 2131.27,-247.84"/>
</g>
<!-- Node3 -->
<g id="node3" class="node">
<title>Node3</title>
<g id="a_node3"><a xlink:href="ansi__c__typecheck_8h.html" target="_top" xlink:title=" ">
<polygon fill="none" stroke="black" points="327,-95 327,-136 527,-136 527,-95 327,-95"/>
<text text-anchor="start" x="335" y="-124" font-family="Helvetica,sans-Serif" font-size="10.00">/home/runner/work/cbmc</text>
<text text-anchor="start" x="335" y="-113" font-family="Helvetica,sans-Serif" font-size="10.00">&#45;documentation/cbmc&#45;documentation</text>
<text text-anchor="middle" x="427" y="-102" font-family="Helvetica,sans-Serif" font-size="10.00">/src/ansi&#45;c/ansi_c_typecheck.h</text>
</a>
</g>
</g>
<!-- Node2&#45;&gt;Node3 -->
<g id="edge2" class="edge">
<title>Node2&#45;&gt;Node3</title>
<path fill="none" stroke="midnightblue" d="M1877.87,-192.25C1587.75,-177.1 805.72,-136.27 527.2,-121.73"/>
<polygon fill="midnightblue" stroke="midnightblue" points="1877.81,-195.75 1887.98,-192.78 1878.17,-188.76 1877.81,-195.75"/>
</g>
<!-- Node7 -->
<g id="node7" class="node">
<title>Node7</title>
<g id="a_node7"><a xlink:href="c__typecheck__base_8cpp.html" target="_top" xlink:title=" ">
<polygon fill="none" stroke="black" points="1225,-95 1225,-136 1425,-136 1425,-95 1225,-95"/>
<text text-anchor="start" x="1233" y="-124" font-family="Helvetica,sans-Serif" font-size="10.00">/home/runner/work/cbmc</text>
<text text-anchor="start" x="1233" y="-113" font-family="Helvetica,sans-Serif" font-size="10.00">&#45;documentation/cbmc&#45;documentation</text>
<text text-anchor="middle" x="1325" y="-102" font-family="Helvetica,sans-Serif" font-size="10.00">/src/ansi&#45;c/c_typecheck_base.cpp</text>
</a>
</g>
</g>
<!-- Node2&#45;&gt;Node7 -->
<g id="edge6" class="edge">
<title>Node2&#45;&gt;Node7</title>
<path fill="none" stroke="midnightblue" d="M1877.59,-191.05C1765.38,-183.01 1586.8,-167.49 1434,-142 1423.94,-140.32 1413.42,-138.26 1403.05,-136.04"/>
<polygon fill="midnightblue" stroke="midnightblue" points="1877.68,-194.57 1887.91,-191.79 1878.18,-187.59 1877.68,-194.57"/>
</g>
<!-- Node8 -->
<g id="node8" class="node">
<title>Node8</title>
<g id="a_node8"><a xlink:href="c__typecheck__code_8cpp.html" target="_top" xlink:title=" ">
<polygon fill="none" stroke="black" points="1443,-95 1443,-136 1643,-136 1643,-95 1443,-95"/>
<text text-anchor="start" x="1451" y="-124" font-family="Helvetica,sans-Serif" font-size="10.00">/home/runner/work/cbmc</text>
<text text-anchor="start" x="1451" y="-113" font-family="Helvetica,sans-Serif" font-size="10.00">&#45;documentation/cbmc&#45;documentation</text>
<text text-anchor="middle" x="1543" y="-102" font-family="Helvetica,sans-Serif" font-size="10.00">/src/ansi&#45;c/c_typecheck_code.cpp</text>
</a>
</g>
</g>
<!-- Node2&#45;&gt;Node8 -->
<g id="edge7" class="edge">
<title>Node2&#45;&gt;Node8</title>
<path fill="none" stroke="midnightblue" d="M1877.75,-181.47C1812.01,-171.15 1727.01,-157.01 1652,-142 1642.85,-140.17 1633.3,-138.13 1623.83,-136.02"/>
<polygon fill="midnightblue" stroke="midnightblue" points="1877.29,-184.94 1887.72,-183.02 1878.38,-178.02 1877.29,-184.94"/>
</g>
<!-- Node9 -->
<g id="node9" class="node">
<title>Node9</title>
<g id="a_node9"><a xlink:href="c__typecheck__expr_8cpp.html" target="_top" xlink:title=" ">
<polygon fill="none" stroke="black" points="1661,-95 1661,-136 1861,-136 1861,-95 1661,-95"/>
<text text-anchor="start" x="1669" y="-124" font-family="Helvetica,sans-Serif" font-size="10.00">/home/runner/work/cbmc</text>
<text text-anchor="start" x="1669" y="-113" font-family="Helvetica,sans-Serif" font-size="10.00">&#45;documentation/cbmc&#45;documentation</text>
<text text-anchor="middle" x="1761" y="-102" font-family="Helvetica,sans-Serif" font-size="10.00">/src/ansi&#45;c/c_typecheck_expr.cpp</text>
</a>
</g>
</g>
<!-- Node2&#45;&gt;Node9 -->
<g id="edge8" class="edge">
<title>Node2&#45;&gt;Node9</title>
<path fill="none" stroke="midnightblue" d="M1924.17,-175.08C1889.87,-162.77 1848.04,-147.75 1815.32,-136"/>
<polygon fill="midnightblue" stroke="midnightblue" points="1923.03,-178.39 1933.63,-178.48 1925.4,-171.81 1923.03,-178.39"/>
</g>
<!-- Node10 -->
<g id="node10" class="node">
<title>Node10</title>
<g id="a_node10"><a xlink:href="c__typecheck__gcc__polymorphic__builtins_8cpp.html" target="_top" xlink:title=" ">
<polygon fill="none" stroke="black" points="1879,-89.5 1879,-141.5 2097,-141.5 2097,-89.5 1879,-89.5"/>
<text text-anchor="start" x="1887" y="-129.5" font-family="Helvetica,sans-Serif" font-size="10.00">/home/runner/work/cbmc</text>
<text text-anchor="start" x="1887" y="-118.5" font-family="Helvetica,sans-Serif" font-size="10.00">&#45;documentation/cbmc&#45;documentation</text>
<text text-anchor="start" x="1887" y="-107.5" font-family="Helvetica,sans-Serif" font-size="10.00">/src/ansi&#45;c/c_typecheck_gcc_polymorphic</text>
<text text-anchor="middle" x="1988" y="-96.5" font-family="Helvetica,sans-Serif" font-size="10.00">_builtins.cpp</text>
</a>
</g>
</g>
<!-- Node2&#45;&gt;Node10 -->
<g id="edge9" class="edge">
<title>Node2&#45;&gt;Node10</title>
<path fill="none" stroke="midnightblue" d="M1988,-168.12C1988,-159.41 1988,-149.99 1988,-141.61"/>
<polygon fill="midnightblue" stroke="midnightblue" points="1984.5,-168.27 1988,-178.27 1991.5,-168.27 1984.5,-168.27"/>
</g>
<!-- Node11 -->
<g id="node11" class="node">
<title>Node11</title>
<g id="a_node11"><a xlink:href="c__typecheck__initializer_8cpp.html" target="_top" xlink:title=" ">
<polygon fill="none" stroke="black" points="2115,-95 2115,-136 2315,-136 2315,-95 2115,-95"/>
<text text-anchor="start" x="2123" y="-124" font-family="Helvetica,sans-Serif" font-size="10.00">/home/runner/work/cbmc</text>
<text text-anchor="start" x="2123" y="-113" font-family="Helvetica,sans-Serif" font-size="10.00">&#45;documentation/cbmc&#45;documentation</text>
<text text-anchor="middle" x="2215" y="-102" font-family="Helvetica,sans-Serif" font-size="10.00">/src/ansi&#45;c/c_typecheck_initializer.cpp</text>
</a>
</g>
</g>
<!-- Node2&#45;&gt;Node11 -->
<g id="edge10" class="edge">
<title>Node2&#45;&gt;Node11</title>
<path fill="none" stroke="midnightblue" d="M2051.83,-175.08C2086.13,-162.77 2127.96,-147.75 2160.68,-136"/>
<polygon fill="midnightblue" stroke="midnightblue" points="2050.6,-171.81 2042.37,-178.48 2052.97,-178.39 2050.6,-171.81"/>
</g>
<!-- Node12 -->
<g id="node12" class="node">
<title>Node12</title>
<g id="a_node12"><a xlink:href="c__typecheck__type_8cpp.html" target="_top" xlink:title=" ">
<polygon fill="none" stroke="black" points="2333,-95 2333,-136 2533,-136 2533,-95 2333,-95"/>
<text text-anchor="start" x="2341" y="-124" font-family="Helvetica,sans-Serif" font-size="10.00">/home/runner/work/cbmc</text>
<text text-anchor="start" x="2341" y="-113" font-family="Helvetica,sans-Serif" font-size="10.00">&#45;documentation/cbmc&#45;documentation</text>
<text text-anchor="middle" x="2433" y="-102" font-family="Helvetica,sans-Serif" font-size="10.00">/src/ansi&#45;c/c_typecheck_type.cpp</text>
</a>
</g>
</g>
<!-- Node2&#45;&gt;Node12 -->
<g id="edge11" class="edge">
<title>Node2&#45;&gt;Node12</title>
<path fill="none" stroke="midnightblue" d="M2098.1,-177.84C2199.39,-160.82 2226.89,-161.03 2324,-142 2333.25,-140.19 2342.91,-138.15 2352.49,-136.03"/>
<polygon fill="midnightblue" stroke="midnightblue" points="2097.34,-174.42 2088.07,-179.54 2098.51,-181.32 2097.34,-174.42"/>
</g>
<!-- Node13 -->
<g id="node13" class="node">
<title>Node13</title>
<g id="a_node13"><a xlink:href="c__typecheck__typecast_8cpp.html" target="_top" xlink:title=" ">
<polygon fill="none" stroke="black" points="2551,-95 2551,-136 2751,-136 2751,-95 2551,-95"/>
<text text-anchor="start" x="2559" y="-124" font-family="Helvetica,sans-Serif" font-size="10.00">/home/runner/work/cbmc</text>
<text text-anchor="start" x="2559" y="-113" font-family="Helvetica,sans-Serif" font-size="10.00">&#45;documentation/cbmc&#45;documentation</text>
<text text-anchor="middle" x="2651" y="-102" font-family="Helvetica,sans-Serif" font-size="10.00">/src/ansi&#45;c/c_typecheck_typecast.cpp</text>
</a>
</g>
</g>
<!-- Node2&#45;&gt;Node13 -->
<g id="edge12" class="edge">
<title>Node2&#45;&gt;Node13</title>
<path fill="none" stroke="midnightblue" d="M2098.14,-177.93C2295.5,-152.73 2349.22,-172.18 2542,-142 2552.37,-140.38 2563.21,-138.3 2573.87,-136.04"/>
<polygon fill="midnightblue" stroke="midnightblue" points="2097.49,-174.48 2088.02,-179.24 2098.39,-181.43 2097.49,-174.48"/>
</g>
<!-- Node14 -->
<g id="node14" class="node">
<title>Node14</title>
<g id="a_node14"><a xlink:href="cpp__typecheck_8h.html" target="_top" xlink:title=" ">
<polygon fill="none" stroke="black" points="3559,-95 3559,-136 3759,-136 3759,-95 3559,-95"/>
<text text-anchor="start" x="3567" y="-124" font-family="Helvetica,sans-Serif" font-size="10.00">/home/runner/work/cbmc</text>
<text text-anchor="start" x="3567" y="-113" font-family="Helvetica,sans-Serif" font-size="10.00">&#45;documentation/cbmc&#45;documentation</text>
<text text-anchor="middle" x="3659" y="-102" font-family="Helvetica,sans-Serif" font-size="10.00">/src/cpp/cpp_typecheck.h</text>
</a>
</g>
</g>
<!-- Node2&#45;&gt;Node14 -->
<g id="edge13" class="edge">
<title>Node2&#45;&gt;Node14</title>
<path fill="none" stroke="midnightblue" d="M2098.21,-178.04C2280.99,-160.71 3243.47,-129.53 3558.88,-119.61"/>
<polygon fill="midnightblue" stroke="midnightblue" points="2097.59,-174.58 2088,-179.08 2098.31,-181.55 2097.59,-174.58"/>
</g>
<!-- Node4 -->
<g id="node4" class="node">
<title>Node4</title>
<g id="a_node4"><a xlink:href="ansi__c__language_8cpp.html" target="_top" xlink:title=" ">
<polygon fill="none" stroke="black" points="0,-6 0,-47 200,-47 200,-6 0,-6"/>
<text text-anchor="start" x="8" y="-35" font-family="Helvetica,sans-Serif" font-size="10.00">/home/runner/work/cbmc</text>
<text text-anchor="start" x="8" y="-24" font-family="Helvetica,sans-Serif" font-size="10.00">&#45;documentation/cbmc&#45;documentation</text>
<text text-anchor="middle" x="100" y="-13" font-family="Helvetica,sans-Serif" font-size="10.00">/src/ansi&#45;c/ansi_c_language.cpp</text>
</a>
</g>
</g>
<!-- Node3&#45;&gt;Node4 -->
<g id="edge3" class="edge">
<title>Node3&#45;&gt;Node4</title>
<path fill="none" stroke="midnightblue" d="M343.65,-92.32C291.12,-78.35 223.94,-60.47 173.42,-47.03"/>
<polygon fill="midnightblue" stroke="midnightblue" points="343.05,-95.79 353.61,-94.98 344.85,-89.02 343.05,-95.79"/>
</g>
<!-- Node5 -->
<g id="node5" class="node">
<title>Node5</title>
<g id="a_node5"><a xlink:href="ansi__c__typecheck_8cpp.html" target="_top" xlink:title=" ">
<polygon fill="none" stroke="black" points="218,-6 218,-47 418,-47 418,-6 218,-6"/>
<text text-anchor="start" x="226" y="-35" font-family="Helvetica,sans-Serif" font-size="10.00">/home/runner/work/cbmc</text>
<text text-anchor="start" x="226" y="-24" font-family="Helvetica,sans-Serif" font-size="10.00">&#45;documentation/cbmc&#45;documentation</text>
<text text-anchor="middle" x="318" y="-13" font-family="Helvetica,sans-Serif" font-size="10.00">/src/ansi&#45;c/ansi_c_typecheck.cpp</text>
</a>
</g>
</g>
<!-- Node3&#45;&gt;Node5 -->
<g id="edge4" class="edge">
<title>Node3&#45;&gt;Node5</title>
<path fill="none" stroke="midnightblue" d="M394.68,-88.71C378.07,-75.44 358.14,-59.53 342.76,-47.26"/>
<polygon fill="midnightblue" stroke="midnightblue" points="392.54,-91.47 402.54,-94.98 396.91,-86 392.54,-91.47"/>
</g>
<!-- Node6 -->
<g id="node6" class="node">
<title>Node6</title>
<g id="a_node6"><a xlink:href="builtin__factory_8cpp.html" target="_top" xlink:title=" ">
<polygon fill="none" stroke="black" points="436,-6 436,-47 636,-47 636,-6 436,-6"/>
<text text-anchor="start" x="444" y="-35" font-family="Helvetica,sans-Serif" font-size="10.00">/home/runner/work/cbmc</text>
<text text-anchor="start" x="444" y="-24" font-family="Helvetica,sans-Serif" font-size="10.00">&#45;documentation/cbmc&#45;documentation</text>
<text text-anchor="middle" x="536" y="-13" font-family="Helvetica,sans-Serif" font-size="10.00">/src/ansi&#45;c/builtin_factory.cpp</text>
</a>
</g>
</g>
<!-- Node3&#45;&gt;Node6 -->
<g id="edge5" class="edge">
<title>Node3&#45;&gt;Node6</title>
<path fill="none" stroke="midnightblue" d="M459.32,-88.71C475.93,-75.44 495.86,-59.53 511.24,-47.26"/>
<polygon fill="midnightblue" stroke="midnightblue" points="457.09,-86 451.46,-94.98 461.46,-91.47 457.09,-86"/>
</g>
<!-- Node15 -->
<g id="node15" class="node">
<title>Node15</title>
<g id="a_node15"><a xlink:href="cpp__constructor_8cpp.html" target="_top" xlink:title=" ">
<polygon fill="none" stroke="black" points="654,-6 654,-47 854,-47 854,-6 654,-6"/>
<text text-anchor="start" x="662" y="-35" font-family="Helvetica,sans-Serif" font-size="10.00">/home/runner/work/cbmc</text>
<text text-anchor="start" x="662" y="-24" font-family="Helvetica,sans-Serif" font-size="10.00">&#45;documentation/cbmc&#45;documentation</text>
<text text-anchor="middle" x="754" y="-13" font-family="Helvetica,sans-Serif" font-size="10.00">/src/cpp/cpp_constructor.cpp</text>
</a>
</g>
</g>
<!-- Node14&#45;&gt;Node15 -->
<g id="edge14" class="edge">
<title>Node14&#45;&gt;Node15</title>
<path fill="none" stroke="midnightblue" d="M3548.72,-111.04C3379.19,-105.79 3044.33,-95.73 2760,-89 2338.49,-79.02 1281.37,-105.31 863,-53 851.62,-51.58 839.7,-49.46 828.09,-47.03"/>
<polygon fill="midnightblue" stroke="midnightblue" points="3548.8,-114.54 3558.9,-111.35 3549.01,-107.55 3548.8,-114.54"/>
</g>
<!-- Node16 -->
<g id="node16" class="node">
<title>Node16</title>
<g id="a_node16"><a xlink:href="cpp__declarator__converter_8cpp.html" target="_top" xlink:title=" ">
<polygon fill="none" stroke="black" points="872,-6 872,-47 1072,-47 1072,-6 872,-6"/>
<text text-anchor="start" x="880" y="-35" font-family="Helvetica,sans-Serif" font-size="10.00">/home/runner/work/cbmc</text>
<text text-anchor="start" x="880" y="-24" font-family="Helvetica,sans-Serif" font-size="10.00">&#45;documentation/cbmc&#45;documentation</text>
<text text-anchor="middle" x="972" y="-13" font-family="Helvetica,sans-Serif" font-size="10.00">/src/cpp/cpp_declarator_converter.cpp</text>
</a>
</g>
</g>
<!-- Node14&#45;&gt;Node16 -->
<g id="edge15" class="edge">
<title>Node14&#45;&gt;Node16</title>
<path fill="none" stroke="midnightblue" d="M3548.72,-111.13C3379.19,-106 3044.33,-96.08 2760,-89 2386.92,-79.71 1451.26,-99.76 1081,-53 1069.62,-51.56 1057.7,-49.43 1046.09,-47.01"/>
<polygon fill="midnightblue" stroke="midnightblue" points="3548.8,-114.63 3558.9,-111.43 3549.01,-107.63 3548.8,-114.63"/>
</g>
<!-- Node17 -->
<g id="node17" class="node">
<title>Node17</title>
<g id="a_node17"><a xlink:href="cpp__destructor_8cpp.html" target="_top" xlink:title=" ">
<polygon fill="none" stroke="black" points="1090,-6 1090,-47 1290,-47 1290,-6 1090,-6"/>
<text text-anchor="start" x="1098" y="-35" font-family="Helvetica,sans-Serif" font-size="10.00">/home/runner/work/cbmc</text>
<text text-anchor="start" x="1098" y="-24" font-family="Helvetica,sans-Serif" font-size="10.00">&#45;documentation/cbmc&#45;documentation</text>
<text text-anchor="middle" x="1190" y="-13" font-family="Helvetica,sans-Serif" font-size="10.00">/src/cpp/cpp_destructor.cpp</text>
</a>
</g>
</g>
<!-- Node14&#45;&gt;Node17 -->
<g id="edge16" class="edge">
<title>Node14&#45;&gt;Node17</title>
<path fill="none" stroke="midnightblue" d="M3548.71,-111.24C3379.18,-106.26 3044.31,-96.54 2760,-89 2435.35,-80.4 1621.14,-94.21 1299,-53 1287.72,-51.56 1275.91,-49.44 1264.39,-47.04"/>
<polygon fill="midnightblue" stroke="midnightblue" points="3548.8,-114.74 3558.89,-111.54 3549,-107.75 3548.8,-114.74"/>
</g>
<!-- Node18 -->
<g id="node18" class="node">
<title>Node18</title>
<g id="a_node18"><a xlink:href="cpp__instantiate__template_8cpp.html" target="_top" xlink:title=" ">
<polygon fill="none" stroke="black" points="1308,-6 1308,-47 1510,-47 1510,-6 1308,-6"/>
<text text-anchor="start" x="1316" y="-35" font-family="Helvetica,sans-Serif" font-size="10.00">/home/runner/work/cbmc</text>
<text text-anchor="start" x="1316" y="-24" font-family="Helvetica,sans-Serif" font-size="10.00">&#45;documentation/cbmc&#45;documentation</text>
<text text-anchor="middle" x="1409" y="-13" font-family="Helvetica,sans-Serif" font-size="10.00">/src/cpp/cpp_instantiate_template.cpp</text>
</a>
</g>
</g>
<!-- Node14&#45;&gt;Node18 -->
<g id="edge17" class="edge">
<title>Node14&#45;&gt;Node18</title>
<path fill="none" stroke="midnightblue" d="M3548.88,-111.37C3112.16,-98.96 1525.36,-53.82 1519,-53 1507.72,-51.55 1495.91,-49.44 1484.38,-47.06"/>
<polygon fill="midnightblue" stroke="midnightblue" points="3548.89,-114.87 3558.98,-111.66 3549.09,-107.88 3548.89,-114.87"/>
</g>
<!-- Node19 -->
<g id="node19" class="node">
<title>Node19</title>
<g id="a_node19"><a xlink:href="cpp__is__pod_8cpp.html" target="_top" xlink:title=" ">
<polygon fill="none" stroke="black" points="1528,-6 1528,-47 1728,-47 1728,-6 1528,-6"/>
<text text-anchor="start" x="1536" y="-35" font-family="Helvetica,sans-Serif" font-size="10.00">/home/runner/work/cbmc</text>
<text text-anchor="start" x="1536" y="-24" font-family="Helvetica,sans-Serif" font-size="10.00">&#45;documentation/cbmc&#45;documentation</text>
<text text-anchor="middle" x="1628" y="-13" font-family="Helvetica,sans-Serif" font-size="10.00">/src/cpp/cpp_is_pod.cpp</text>
</a>
</g>
</g>
<!-- Node14&#45;&gt;Node19 -->
<g id="edge18" class="edge">
<title>Node14&#45;&gt;Node19</title>
<path fill="none" stroke="midnightblue" d="M3548.52,-111.26C3146.42,-99.43 1782.14,-58.94 1737,-53 1725.82,-51.53 1714.12,-49.42 1702.69,-47.03"/>
<polygon fill="midnightblue" stroke="midnightblue" points="3548.6,-114.76 3558.7,-111.56 3548.8,-107.77 3548.6,-114.76"/>
</g>
<!-- Node20 -->
<g id="node20" class="node">
<title>Node20</title>
<g id="a_node20"><a xlink:href="cpp__language_8cpp.html" target="_top" xlink:title=" ">
<polygon fill="none" stroke="black" points="1746,-6 1746,-47 1946,-47 1946,-6 1746,-6"/>
<text text-anchor="start" x="1754" y="-35" font-family="Helvetica,sans-Serif" font-size="10.00">/home/runner/work/cbmc</text>
<text text-anchor="start" x="1754" y="-24" font-family="Helvetica,sans-Serif" font-size="10.00">&#45;documentation/cbmc&#45;documentation</text>
<text text-anchor="middle" x="1846" y="-13" font-family="Helvetica,sans-Serif" font-size="10.00">/src/cpp/cpp_language.cpp</text>
</a>
</g>
</g>
<!-- Node14&#45;&gt;Node20 -->
<g id="edge19" class="edge">
<title>Node14&#45;&gt;Node20</title>
<path fill="none" stroke="midnightblue" d="M3548.82,-111.11C3184,-99.81 2033.92,-63.55 1955,-53 1943.92,-51.52 1932.32,-49.42 1921,-47.05"/>
<polygon fill="midnightblue" stroke="midnightblue" points="3548.76,-114.61 3558.87,-111.42 3548.98,-107.61 3548.76,-114.61"/>
</g>
<!-- Node21 -->
<g id="node21" class="node">
<title>Node21</title>
<g id="a_node21"><a xlink:href="cpp__typecheck_8cpp.html" target="_top" xlink:title=" ">
<polygon fill="none" stroke="black" points="1964,-6 1964,-47 2164,-47 2164,-6 1964,-6"/>
<text text-anchor="start" x="1972" y="-35" font-family="Helvetica,sans-Serif" font-size="10.00">/home/runner/work/cbmc</text>
<text text-anchor="start" x="1972" y="-24" font-family="Helvetica,sans-Serif" font-size="10.00">&#45;documentation/cbmc&#45;documentation</text>
<text text-anchor="middle" x="2064" y="-13" font-family="Helvetica,sans-Serif" font-size="10.00">/src/cpp/cpp_typecheck.cpp</text>
</a>
</g>
</g>
<!-- Node14&#45;&gt;Node21 -->
<g id="edge20" class="edge">
<title>Node14&#45;&gt;Node21</title>
<path fill="none" stroke="midnightblue" d="M3548.59,-111.13C3227.42,-101.17 2307.77,-71.39 2173,-53 2162.02,-51.5 2150.53,-49.41 2139.3,-47.06"/>
<polygon fill="midnightblue" stroke="midnightblue" points="3548.74,-114.64 3558.84,-111.45 3548.95,-107.64 3548.74,-114.64"/>
</g>
<!-- Node22 -->
<g id="node22" class="node">
<title>Node22</title>
<g id="a_node22"><a xlink:href="cpp__typecheck__bases_8cpp.html" target="_top" xlink:title=" ">
<polygon fill="none" stroke="black" points="2182,-6 2182,-47 2382,-47 2382,-6 2182,-6"/>
<text text-anchor="start" x="2190" y="-35" font-family="Helvetica,sans-Serif" font-size="10.00">/home/runner/work/cbmc</text>
<text text-anchor="start" x="2190" y="-24" font-family="Helvetica,sans-Serif" font-size="10.00">&#45;documentation/cbmc&#45;documentation</text>
<text text-anchor="middle" x="2282" y="-13" font-family="Helvetica,sans-Serif" font-size="10.00">/src/cpp/cpp_typecheck_bases.cpp</text>
</a>
</g>
</g>
<!-- Node14&#45;&gt;Node22 -->
<g id="edge21" class="edge">
<title>Node14&#45;&gt;Node22</title>
<path fill="none" stroke="midnightblue" d="M3548.94,-111.73C3283.39,-104.62 2613.1,-84.1 2391,-53 2380.13,-51.48 2368.74,-49.38 2357.6,-47.05"/>
<polygon fill="midnightblue" stroke="midnightblue" points="3548.89,-115.23 3558.98,-111.99 3549.08,-108.23 3548.89,-115.23"/>
</g>
<!-- Node23 -->
<g id="node23" class="node">
<title>Node23</title>
<g id="a_node23"><a xlink:href="cpp__typecheck__code_8cpp.html" target="_top" xlink:title=" ">
<polygon fill="none" stroke="black" points="2400,-6 2400,-47 2600,-47 2600,-6 2400,-6"/>
<text text-anchor="start" x="2408" y="-35" font-family="Helvetica,sans-Serif" font-size="10.00">/home/runner/work/cbmc</text>
<text text-anchor="start" x="2408" y="-24" font-family="Helvetica,sans-Serif" font-size="10.00">&#45;documentation/cbmc&#45;documentation</text>
<text text-anchor="middle" x="2500" y="-13" font-family="Helvetica,sans-Serif" font-size="10.00">/src/cpp/cpp_typecheck_code.cpp</text>
</a>
</g>
</g>
<!-- Node14&#45;&gt;Node23 -->
<g id="edge22" class="edge">
<title>Node14&#45;&gt;Node23</title>
<path fill="none" stroke="midnightblue" d="M3548.8,-114.23C3356.87,-112.39 2949.2,-102.38 2609,-53 2598.23,-51.44 2586.96,-49.34 2575.91,-47.01"/>
<polygon fill="midnightblue" stroke="midnightblue" points="3548.86,-117.73 3558.9,-114.33 3548.93,-110.74 3548.86,-117.73"/>
</g>
<!-- Node24 -->
<g id="node24" class="node">
<title>Node24</title>
<g id="a_node24"><a xlink:href="cpp__typecheck__compound__type_8cpp.html" target="_top" xlink:title=" ">
<polygon fill="none" stroke="black" points="2618.5,-6 2618.5,-47 2851.5,-47 2851.5,-6 2618.5,-6"/>
<text text-anchor="start" x="2626.5" y="-35" font-family="Helvetica,sans-Serif" font-size="10.00">/home/runner/work/cbmc</text>
<text text-anchor="start" x="2626.5" y="-24" font-family="Helvetica,sans-Serif" font-size="10.00">&#45;documentation/cbmc&#45;documentation</text>
<text text-anchor="middle" x="2735" y="-13" font-family="Helvetica,sans-Serif" font-size="10.00">/src/cpp/cpp_typecheck_compound_type.cpp</text>
</a>
</g>
</g>
<!-- Node14&#45;&gt;Node24 -->
<g id="edge23" class="edge">
<title>Node14&#45;&gt;Node24</title>
<path fill="none" stroke="midnightblue" d="M3548.48,-110.34C3393.85,-103.54 3104.46,-87.21 2860,-53 2848.26,-51.36 2835.98,-49.29 2823.88,-47.04"/>
<polygon fill="midnightblue" stroke="midnightblue" points="3548.78,-113.86 3558.92,-110.8 3549.08,-106.87 3548.78,-113.86"/>
</g>
<!-- Node25 -->
<g id="node25" class="node">
<title>Node25</title>
<g id="a_node25"><a xlink:href="cpp__typecheck__constructor_8cpp.html" target="_top" xlink:title=" ">
<polygon fill="none" stroke="black" points="2869.5,-6 2869.5,-47 3078.5,-47 3078.5,-6 2869.5,-6"/>
<text text-anchor="start" x="2877.5" y="-35" font-family="Helvetica,sans-Serif" font-size="10.00">/home/runner/work/cbmc</text>
<text text-anchor="start" x="2877.5" y="-24" font-family="Helvetica,sans-Serif" font-size="10.00">&#45;documentation/cbmc&#45;documentation</text>
<text text-anchor="middle" x="2974" y="-13" font-family="Helvetica,sans-Serif" font-size="10.00">/src/cpp/cpp_typecheck_constructor.cpp</text>
</a>
</g>
</g>
<!-- Node14&#45;&gt;Node25 -->
<g id="edge24" class="edge">
<title>Node14&#45;&gt;Node25</title>
<path fill="none" stroke="midnightblue" d="M3548.75,-106.34C3433.38,-96.93 3247.23,-79.3 3088,-53 3077.7,-51.3 3066.92,-49.25 3056.29,-47.06"/>
<polygon fill="midnightblue" stroke="midnightblue" points="3548.75,-109.85 3559,-107.17 3549.31,-102.87 3548.75,-109.85"/>
</g>
<!-- Node26 -->
<g id="node26" class="node">
<title>Node26</title>
<g id="a_node26"><a xlink:href="cpp__typecheck__conversions_8cpp.html" target="_top" xlink:title=" ">
<polygon fill="none" stroke="black" points="3097,-6 3097,-47 3311,-47 3311,-6 3097,-6"/>
<text text-anchor="start" x="3105" y="-35" font-family="Helvetica,sans-Serif" font-size="10.00">/home/runner/work/cbmc</text>
<text text-anchor="start" x="3105" y="-24" font-family="Helvetica,sans-Serif" font-size="10.00">&#45;documentation/cbmc&#45;documentation</text>
<text text-anchor="middle" x="3204" y="-13" font-family="Helvetica,sans-Serif" font-size="10.00">/src/cpp/cpp_typecheck_conversions.cpp</text>
</a>
</g>
</g>
<!-- Node14&#45;&gt;Node26 -->
<g id="edge25" class="edge">
<title>Node14&#45;&gt;Node26</title>
<path fill="none" stroke="midnightblue" d="M3548.63,-95.54C3482.25,-83.87 3396.14,-68.27 3320,-53 3310.7,-51.13 3301,-49.12 3291.34,-47.06"/>
<polygon fill="midnightblue" stroke="midnightblue" points="3548.24,-99.02 3558.69,-97.3 3549.44,-92.13 3548.24,-99.02"/>
</g>
<!-- Node27 -->
<g id="node27" class="node">
<title>Node27</title>
<g id="a_node27"><a xlink:href="cpp__typecheck__declaration_8cpp.html" target="_top" xlink:title=" ">
<polygon fill="none" stroke="black" points="3329,-6 3329,-47 3539,-47 3539,-6 3329,-6"/>
<text text-anchor="start" x="3337" y="-35" font-family="Helvetica,sans-Serif" font-size="10.00">/home/runner/work/cbmc</text>
<text text-anchor="start" x="3337" y="-24" font-family="Helvetica,sans-Serif" font-size="10.00">&#45;documentation/cbmc&#45;documentation</text>
<text text-anchor="middle" x="3434" y="-13" font-family="Helvetica,sans-Serif" font-size="10.00">/src/cpp/cpp_typecheck_declaration.cpp</text>
</a>
</g>
</g>
<!-- Node14&#45;&gt;Node27 -->
<g id="edge26" class="edge">
<title>Node14&#45;&gt;Node27</title>
<path fill="none" stroke="midnightblue" d="M3599.17,-91.37C3563.48,-77.57 3518.66,-60.23 3484.71,-47.11"/>
<polygon fill="midnightblue" stroke="midnightblue" points="3597.92,-94.63 3608.51,-94.98 3600.44,-88.1 3597.92,-94.63"/>
</g>
<!-- Node28 -->
<g id="node28" class="node">
<title>Node28</title>
<g id="a_node28"><a xlink:href="cpp__typecheck__destructor_8cpp.html" target="_top" xlink:title=" ">
<polygon fill="none" stroke="black" points="3557,-6 3557,-47 3761,-47 3761,-6 3557,-6"/>
<text text-anchor="start" x="3565" y="-35" font-family="Helvetica,sans-Serif" font-size="10.00">/home/runner/work/cbmc</text>
<text text-anchor="start" x="3565" y="-24" font-family="Helvetica,sans-Serif" font-size="10.00">&#45;documentation/cbmc&#45;documentation</text>
<text text-anchor="middle" x="3659" y="-13" font-family="Helvetica,sans-Serif" font-size="10.00">/src/cpp/cpp_typecheck_destructor.cpp</text>
</a>
</g>
</g>
<!-- Node14&#45;&gt;Node28 -->
<g id="edge27" class="edge">
<title>Node14&#45;&gt;Node28</title>
<path fill="none" stroke="midnightblue" d="M3659,-84.44C3659,-72.1 3659,-58.16 3659,-47.16"/>
<polygon fill="midnightblue" stroke="midnightblue" points="3655.5,-84.76 3659,-94.76 3662.5,-84.76 3655.5,-84.76"/>
</g>
<!-- Node29 -->
<g id="node29" class="node">
<title>Node29</title>
<g id="a_node29"><a xlink:href="cpp__typecheck__enum__type_8cpp.html" target="_top" xlink:title=" ">
<polygon fill="none" stroke="black" points="3779,-6 3779,-47 3989,-47 3989,-6 3779,-6"/>
<text text-anchor="start" x="3787" y="-35" font-family="Helvetica,sans-Serif" font-size="10.00">/home/runner/work/cbmc</text>
<text text-anchor="start" x="3787" y="-24" font-family="Helvetica,sans-Serif" font-size="10.00">&#45;documentation/cbmc&#45;documentation</text>
<text text-anchor="middle" x="3884" y="-13" font-family="Helvetica,sans-Serif" font-size="10.00">/src/cpp/cpp_typecheck_enum_type.cpp</text>
</a>
</g>
</g>
<!-- Node14&#45;&gt;Node29 -->
<g id="edge28" class="edge">
<title>Node14&#45;&gt;Node29</title>
<path fill="none" stroke="midnightblue" d="M3718.83,-91.37C3754.52,-77.57 3799.34,-60.23 3833.29,-47.11"/>
<polygon fill="midnightblue" stroke="midnightblue" points="3717.56,-88.1 3709.49,-94.98 3720.08,-94.63 3717.56,-88.1"/>
</g>
<!-- Node30 -->
<g id="node30" class="node">
<title>Node30</title>
<g id="a_node30"><a xlink:href="cpp__typecheck__expr_8cpp.html" target="_top" xlink:title=" ">
<polygon fill="none" stroke="black" points="4007,-6 4007,-47 4207,-47 4207,-6 4007,-6"/>
<text text-anchor="start" x="4015" y="-35" font-family="Helvetica,sans-Serif" font-size="10.00">/home/runner/work/cbmc</text>
<text text-anchor="start" x="4015" y="-24" font-family="Helvetica,sans-Serif" font-size="10.00">&#45;documentation/cbmc&#45;documentation</text>
<text text-anchor="middle" x="4107" y="-13" font-family="Helvetica,sans-Serif" font-size="10.00">/src/cpp/cpp_typecheck_expr.cpp</text>
</a>
</g>
</g>
<!-- Node14&#45;&gt;Node30 -->
<g id="edge29" class="edge">
<title>Node14&#45;&gt;Node30</title>
<path fill="none" stroke="midnightblue" d="M3769.08,-95.97C3835.54,-84.43 3921.82,-68.81 3998,-53 4006.94,-51.14 4016.28,-49.11 4025.56,-47.03"/>
<polygon fill="midnightblue" stroke="midnightblue" points="3768.27,-92.56 3759.01,-97.72 3769.46,-99.46 3768.27,-92.56"/>
</g>
<!-- Node31 -->
<g id="node31" class="node">
<title>Node31</title>
<g id="a_node31"><a xlink:href="cpp__typecheck__fargs_8cpp.html" target="_top" xlink:title=" ">
<polygon fill="none" stroke="black" points="4225,-6 4225,-47 4425,-47 4425,-6 4225,-6"/>
<text text-anchor="start" x="4233" y="-35" font-family="Helvetica,sans-Serif" font-size="10.00">/home/runner/work/cbmc</text>
<text text-anchor="start" x="4233" y="-24" font-family="Helvetica,sans-Serif" font-size="10.00">&#45;documentation/cbmc&#45;documentation</text>
<text text-anchor="middle" x="4325" y="-13" font-family="Helvetica,sans-Serif" font-size="10.00">/src/cpp/cpp_typecheck_fargs.cpp</text>
</a>
</g>
</g>
<!-- Node14&#45;&gt;Node31 -->
<g id="edge30" class="edge">
<title>Node14&#45;&gt;Node31</title>
<path fill="none" stroke="midnightblue" d="M3769.14,-106.26C3881.9,-96.9 4061.95,-79.43 4216,-53 4225.96,-51.29 4236.37,-49.22 4246.64,-47.02"/>
<polygon fill="midnightblue" stroke="midnightblue" points="3768.8,-102.77 3759.12,-107.08 3769.37,-109.75 3768.8,-102.77"/>
</g>
<!-- Node32 -->
<g id="node32" class="node">
<title>Node32</title>
<g id="a_node32"><a xlink:href="cpp__typecheck__function_8cpp.html" target="_top" xlink:title=" ">
<polygon fill="none" stroke="black" points="4443,-6 4443,-47 4643,-47 4643,-6 4443,-6"/>
<text text-anchor="start" x="4451" y="-35" font-family="Helvetica,sans-Serif" font-size="10.00">/home/runner/work/cbmc</text>
<text text-anchor="start" x="4451" y="-24" font-family="Helvetica,sans-Serif" font-size="10.00">&#45;documentation/cbmc&#45;documentation</text>
<text text-anchor="middle" x="4543" y="-13" font-family="Helvetica,sans-Serif" font-size="10.00">/src/cpp/cpp_typecheck_function.cpp</text>
</a>
</g>
</g>
<!-- Node14&#45;&gt;Node32 -->
<g id="edge31" class="edge">
<title>Node14&#45;&gt;Node32</title>
<path fill="none" stroke="midnightblue" d="M3769.46,-110.97C3920.35,-104.95 4199.01,-89.6 4434,-53 4444.37,-51.39 4455.21,-49.32 4465.87,-47.06"/>
<polygon fill="midnightblue" stroke="midnightblue" points="3769.12,-107.48 3759.27,-111.37 3769.4,-114.47 3769.12,-107.48"/>
</g>
<!-- Node33 -->
<g id="node33" class="node">
<title>Node33</title>
<g id="a_node33"><a xlink:href="cpp__typecheck__initializer_8cpp.html" target="_top" xlink:title=" ">
<polygon fill="none" stroke="black" points="4661,-6 4661,-47 4861,-47 4861,-6 4661,-6"/>
<text text-anchor="start" x="4669" y="-35" font-family="Helvetica,sans-Serif" font-size="10.00">/home/runner/work/cbmc</text>
<text text-anchor="start" x="4669" y="-24" font-family="Helvetica,sans-Serif" font-size="10.00">&#45;documentation/cbmc&#45;documentation</text>
<text text-anchor="middle" x="4761" y="-13" font-family="Helvetica,sans-Serif" font-size="10.00">/src/cpp/cpp_typecheck_initializer.cpp</text>
</a>
</g>
</g>
<!-- Node14&#45;&gt;Node33 -->
<g id="edge32" class="edge">
<title>Node14&#45;&gt;Node33</title>
<path fill="none" stroke="midnightblue" d="M3769.52,-113.7C3953.54,-111.01 4333.96,-99.71 4652,-53 4662.67,-51.43 4673.84,-49.35 4684.79,-47.04"/>
<polygon fill="midnightblue" stroke="midnightblue" points="3769.24,-110.2 3759.29,-113.84 3769.34,-117.2 3769.24,-110.2"/>
</g>
<!-- Node34 -->
<g id="node34" class="node">
<title>Node34</title>
<g id="a_node34"><a xlink:href="cpp__typecheck__linkage__spec_8cpp.html" target="_top" xlink:title=" ">
<polygon fill="none" stroke="black" points="4879,-6 4879,-47 5097,-47 5097,-6 4879,-6"/>
<text text-anchor="start" x="4887" y="-35" font-family="Helvetica,sans-Serif" font-size="10.00">/home/runner/work/cbmc</text>
<text text-anchor="start" x="4887" y="-24" font-family="Helvetica,sans-Serif" font-size="10.00">&#45;documentation/cbmc&#45;documentation</text>
<text text-anchor="middle" x="4988" y="-13" font-family="Helvetica,sans-Serif" font-size="10.00">/src/cpp/cpp_typecheck_linkage_spec.cpp</text>
</a>
</g>
</g>
<!-- Node14&#45;&gt;Node34 -->
<g id="edge33" class="edge">
<title>Node14&#45;&gt;Node34</title>
<path fill="none" stroke="midnightblue" d="M3769.46,-114.86C3983.02,-114.24 4467.05,-106.41 4870,-53 4881.64,-51.46 4893.83,-49.37 4905.77,-47.05"/>
<polygon fill="midnightblue" stroke="midnightblue" points="3769.17,-111.36 3759.18,-114.89 3769.19,-118.36 3769.17,-111.36"/>
</g>
<!-- Node35 -->
<g id="node35" class="node">
<title>Node35</title>
<g id="a_node35"><a xlink:href="cpp__typecheck__method__bodies_8cpp.html" target="_top" xlink:title=" ">
<polygon fill="none" stroke="black" points="5115,-0.5 5115,-52.5 5315,-52.5 5315,-0.5 5115,-0.5"/>
<text text-anchor="start" x="5123" y="-40.5" font-family="Helvetica,sans-Serif" font-size="10.00">/home/runner/work/cbmc</text>
<text text-anchor="start" x="5123" y="-29.5" font-family="Helvetica,sans-Serif" font-size="10.00">&#45;documentation/cbmc&#45;documentation</text>
<text text-anchor="start" x="5123" y="-18.5" font-family="Helvetica,sans-Serif" font-size="10.00">/src/cpp/cpp_typecheck_method</text>
<text text-anchor="middle" x="5215" y="-7.5" font-family="Helvetica,sans-Serif" font-size="10.00">_bodies.cpp</text>
</a>
</g>
</g>
<!-- Node14&#45;&gt;Node35 -->
<g id="edge34" class="edge">
<title>Node14&#45;&gt;Node35</title>
<path fill="none" stroke="midnightblue" d="M3769.22,-112.49C4060.87,-106.74 4848.11,-88.33 5106,-53 5108.89,-52.6 5111.81,-52.17 5114.76,-51.7"/>
<polygon fill="midnightblue" stroke="midnightblue" points="3768.98,-108.99 3759.05,-112.69 3769.12,-115.99 3768.98,-108.99"/>
</g>
<!-- Node36 -->
<g id="node36" class="node">
<title>Node36</title>
<g id="a_node36"><a xlink:href="cpp__typecheck__namespace_8cpp.html" target="_top" xlink:title=" ">
<polygon fill="none" stroke="black" points="5333,-6 5333,-47 5545,-47 5545,-6 5333,-6"/>
<text text-anchor="start" x="5341" y="-35" font-family="Helvetica,sans-Serif" font-size="10.00">/home/runner/work/cbmc</text>
<text text-anchor="start" x="5341" y="-24" font-family="Helvetica,sans-Serif" font-size="10.00">&#45;documentation/cbmc&#45;documentation</text>
<text text-anchor="middle" x="5439" y="-13" font-family="Helvetica,sans-Serif" font-size="10.00">/src/cpp/cpp_typecheck_namespace.cpp</text>
</a>
</g>
</g>
<!-- Node14&#45;&gt;Node36 -->
<g id="edge35" class="edge">
<title>Node14&#45;&gt;Node36</title>
<path fill="none" stroke="midnightblue" d="M3769.35,-113.03C4090.68,-108.35 5021.99,-91.74 5324,-53 5335.66,-51.5 5347.89,-49.39 5359.84,-47.02"/>
<polygon fill="midnightblue" stroke="midnightblue" points="3769.05,-109.54 3759.1,-113.18 3769.15,-116.54 3769.05,-109.54"/>
</g>
<!-- Node37 -->
<g id="node37" class="node">
<title>Node37</title>
<g id="a_node37"><a xlink:href="cpp__typecheck__resolve_8cpp.html" target="_top" xlink:title=" ">
<polygon fill="none" stroke="black" points="5563,-6 5563,-47 5763,-47 5763,-6 5563,-6"/>
<text text-anchor="start" x="5571" y="-35" font-family="Helvetica,sans-Serif" font-size="10.00">/home/runner/work/cbmc</text>
<text text-anchor="start" x="5571" y="-24" font-family="Helvetica,sans-Serif" font-size="10.00">&#45;documentation/cbmc&#45;documentation</text>
<text text-anchor="middle" x="5663" y="-13" font-family="Helvetica,sans-Serif" font-size="10.00">/src/cpp/cpp_typecheck_resolve.cpp</text>
</a>
</g>
</g>
<!-- Node14&#45;&gt;Node37 -->
<g id="edge36" class="edge">
<title>Node14&#45;&gt;Node37</title>
<path fill="none" stroke="midnightblue" d="M3769.44,-113.78C4120.11,-111.03 5205.6,-98.95 5554,-53 5565.18,-51.53 5576.88,-49.41 5588.31,-47.02"/>
<polygon fill="midnightblue" stroke="midnightblue" points="3769.26,-110.28 3759.29,-113.86 3769.31,-117.28 3769.26,-110.28"/>
</g>
<!-- Node38 -->
<g id="node38" class="node">
<title>Node38</title>
<g id="a_node38"><a xlink:href="cpp__typecheck__static__assert_8cpp.html" target="_top" xlink:title=" ">
<polygon fill="none" stroke="black" points="5781,-0.5 5781,-52.5 5981,-52.5 5981,-0.5 5781,-0.5"/>
<text text-anchor="start" x="5789" y="-40.5" font-family="Helvetica,sans-Serif" font-size="10.00">/home/runner/work/cbmc</text>
<text text-anchor="start" x="5789" y="-29.5" font-family="Helvetica,sans-Serif" font-size="10.00">&#45;documentation/cbmc&#45;documentation</text>
<text text-anchor="start" x="5789" y="-18.5" font-family="Helvetica,sans-Serif" font-size="10.00">/src/cpp/cpp_typecheck_static</text>
<text text-anchor="middle" x="5881" y="-7.5" font-family="Helvetica,sans-Serif" font-size="10.00">_assert.cpp</text>
</a>
</g>
</g>
<!-- Node14&#45;&gt;Node38 -->
<g id="edge37" class="edge">
<title>Node14&#45;&gt;Node38</title>
<path fill="none" stroke="midnightblue" d="M3769.34,-114.21C4145.96,-112.76 5379.13,-104.14 5772,-53 5774.89,-52.62 5777.82,-52.2 5780.76,-51.75"/>
<polygon fill="midnightblue" stroke="midnightblue" points="3769.24,-110.71 3759.25,-114.25 3769.27,-117.71 3769.24,-110.71"/>
</g>
<!-- Node39 -->
<g id="node39" class="node">
<title>Node39</title>
<g id="a_node39"><a xlink:href="cpp__typecheck__template_8cpp.html" target="_top" xlink:title=" ">
<polygon fill="none" stroke="black" points="5999,-6 5999,-47 6199,-47 6199,-6 5999,-6"/>
<text text-anchor="start" x="6007" y="-35" font-family="Helvetica,sans-Serif" font-size="10.00">/home/runner/work/cbmc</text>
<text text-anchor="start" x="6007" y="-24" font-family="Helvetica,sans-Serif" font-size="10.00">&#45;documentation/cbmc&#45;documentation</text>
<text text-anchor="middle" x="6099" y="-13" font-family="Helvetica,sans-Serif" font-size="10.00">/src/cpp/cpp_typecheck_template.cpp</text>
</a>
</g>
</g>
<!-- Node14&#45;&gt;Node39 -->
<g id="edge38" class="edge">
<title>Node14&#45;&gt;Node39</title>
<path fill="none" stroke="midnightblue" d="M3769.27,-114.56C4170.56,-114.33 5552.48,-109.35 5990,-53 6001.28,-51.55 6013.09,-49.43 6024.61,-47.02"/>
<polygon fill="midnightblue" stroke="midnightblue" points="3769.11,-111.06 3759.11,-114.57 3769.11,-118.06 3769.11,-111.06"/>
</g>
<!-- Node40 -->
<g id="node40" class="node">
<title>Node40</title>
<g id="a_node40"><a xlink:href="cpp__typecheck__type_8cpp.html" target="_top" xlink:title=" ">
<polygon fill="none" stroke="black" points="6217,-6 6217,-47 6417,-47 6417,-6 6217,-6"/>
<text text-anchor="start" x="6225" y="-35" font-family="Helvetica,sans-Serif" font-size="10.00">/home/runner/work/cbmc</text>
<text text-anchor="start" x="6225" y="-24" font-family="Helvetica,sans-Serif" font-size="10.00">&#45;documentation/cbmc&#45;documentation</text>
<text text-anchor="middle" x="6317" y="-13" font-family="Helvetica,sans-Serif" font-size="10.00">/src/cpp/cpp_typecheck_type.cpp</text>
</a>
</g>
</g>
<!-- Node14&#45;&gt;Node40 -->
<g id="edge39" class="edge">
<title>Node14&#45;&gt;Node40</title>
<path fill="none" stroke="midnightblue" d="M3769.39,-114.86C4194.49,-115.76 5725.75,-114.56 6208,-53 6219.28,-51.56 6231.09,-49.45 6242.61,-47.04"/>
<polygon fill="midnightblue" stroke="midnightblue" points="3769.26,-111.36 3759.26,-114.83 3769.25,-118.36 3769.26,-111.36"/>
</g>
<!-- Node41 -->
<g id="node41" class="node">
<title>Node41</title>
<g id="a_node41"><a xlink:href="cpp__typecheck__using_8cpp.html" target="_top" xlink:title=" ">
<polygon fill="none" stroke="black" points="6435,-6 6435,-47 6635,-47 6635,-6 6435,-6"/>
<text text-anchor="start" x="6443" y="-35" font-family="Helvetica,sans-Serif" font-size="10.00">/home/runner/work/cbmc</text>
<text text-anchor="start" x="6443" y="-24" font-family="Helvetica,sans-Serif" font-size="10.00">&#45;documentation/cbmc&#45;documentation</text>
<text text-anchor="middle" x="6535" y="-13" font-family="Helvetica,sans-Serif" font-size="10.00">/src/cpp/cpp_typecheck_using.cpp</text>
</a>
</g>
</g>
<!-- Node14&#45;&gt;Node41 -->
<g id="edge40" class="edge">
<title>Node14&#45;&gt;Node41</title>
<path fill="none" stroke="midnightblue" d="M3769.19,-113.4C4250.92,-108.43 6159.76,-86.73 6426,-53 6437.38,-51.56 6449.3,-49.43 6460.91,-47"/>
<polygon fill="midnightblue" stroke="midnightblue" points="3769.06,-109.9 3759.1,-113.51 3769.14,-116.9 3769.06,-109.9"/>
</g>
<!-- Node42 -->
<g id="node42" class="node">
<title>Node42</title>
<g id="a_node42"><a xlink:href="cpp__typecheck__virtual__table_8cpp.html" target="_top" xlink:title=" ">
<polygon fill="none" stroke="black" points="6653,-0.5 6653,-52.5 6853,-52.5 6853,-0.5 6653,-0.5"/>
<text text-anchor="start" x="6661" y="-40.5" font-family="Helvetica,sans-Serif" font-size="10.00">/home/runner/work/cbmc</text>
<text text-anchor="start" x="6661" y="-29.5" font-family="Helvetica,sans-Serif" font-size="10.00">&#45;documentation/cbmc&#45;documentation</text>
<text text-anchor="start" x="6661" y="-18.5" font-family="Helvetica,sans-Serif" font-size="10.00">/src/cpp/cpp_typecheck_virtual</text>
<text text-anchor="middle" x="6753" y="-7.5" font-family="Helvetica,sans-Serif" font-size="10.00">_table.cpp</text>
</a>
</g>
</g>
<!-- Node14&#45;&gt;Node42 -->
<g id="edge41" class="edge">
<title>Node14&#45;&gt;Node42</title>
<path fill="none" stroke="midnightblue" d="M3769.4,-113.59C4274.75,-109.26 6355.18,-89.35 6644,-53 6646.89,-52.64 6649.82,-52.23 6652.77,-51.78"/>
<polygon fill="midnightblue" stroke="midnightblue" points="3769.16,-110.1 3759.19,-113.68 3769.21,-117.1 3769.16,-110.1"/>
</g>
</g>
</svg>
