<?xml version="1.0" encoding="UTF-8" standalone="no"?>
<!DOCTYPE svg PUBLIC "-//W3C//DTD SVG 1.1//EN"
 "http://www.w3.org/Graphics/SVG/1.1/DTD/svg11.dtd">
<!-- Generated by graphviz version 2.43.0 (0)
 -->
<!-- Title: /home/runner/work/cbmc&#45;documentation/cbmc&#45;documentation/src/solvers/sat/dimacs_cnf.h Pages: 1 -->
<svg width="2606pt" height="440pt"
 viewBox="0.00 0.00 2606.00 440.00" xmlns="http://www.w3.org/2000/svg" xmlns:xlink="http://www.w3.org/1999/xlink">
<g id="graph0" class="graph" transform="scale(1 1) rotate(0) translate(4 436)">
<title>/home/runner/work/cbmc&#45;documentation/cbmc&#45;documentation/src/solvers/sat/dimacs_cnf.h</title>
<!-- Node1 -->
<g id="node1" class="node">
<title>Node1</title>
<g id="a_node1"><a xlink:title=" ">
<polygon fill="#bfbfbf" stroke="black" points="1744,-390.5 1744,-431.5 1944,-431.5 1944,-390.5 1744,-390.5"/>
<text text-anchor="start" x="1752" y="-419.5" font-family="Helvetica,sans-Serif" font-size="10.00">/home/runner/work/cbmc</text>
<text text-anchor="start" x="1752" y="-408.5" font-family="Helvetica,sans-Serif" font-size="10.00">&#45;documentation/cbmc&#45;documentation</text>
<text text-anchor="middle" x="1844" y="-397.5" font-family="Helvetica,sans-Serif" font-size="10.00">/src/solvers/sat/dimacs_cnf.h</text>
</a>
</g>
</g>
<!-- Node2 -->
<g id="node2" class="node">
<title>Node2</title>
<g id="a_node2"><a xlink:href="solver__factory_8cpp.html" target="_top" xlink:title=" ">
<polygon fill="none" stroke="black" points="1090,-312.5 1090,-353.5 1290,-353.5 1290,-312.5 1090,-312.5"/>
<text text-anchor="start" x="1098" y="-341.5" font-family="Helvetica,sans-Serif" font-size="10.00">/home/runner/work/cbmc</text>
<text text-anchor="start" x="1098" y="-330.5" font-family="Helvetica,sans-Serif" font-size="10.00">&#45;documentation/cbmc&#45;documentation</text>
<text text-anchor="middle" x="1190" y="-319.5" font-family="Helvetica,sans-Serif" font-size="10.00">/src/goto&#45;checker/solver_factory.cpp</text>
</a>
</g>
</g>
<!-- Node1&#45;&gt;Node2 -->
<g id="edge1" class="edge">
<title>Node1&#45;&gt;Node2</title>
<path fill="none" stroke="midnightblue" d="M1733.62,-401.24C1623.3,-391.87 1448.98,-375.43 1299,-354 1296.05,-353.58 1293.05,-353.13 1290.03,-352.67"/>
<polygon fill="midnightblue" stroke="midnightblue" points="1733.5,-404.74 1743.76,-402.09 1734.09,-397.76 1733.5,-404.74"/>
</g>
<!-- Node3 -->
<g id="node3" class="node">
<title>Node3</title>
<g id="a_node3"><a xlink:href="bv__dimacs_8cpp.html" target="_top" xlink:title=" ">
<polygon fill="none" stroke="black" points="1308,-312.5 1308,-353.5 1508,-353.5 1508,-312.5 1308,-312.5"/>
<text text-anchor="start" x="1316" y="-341.5" font-family="Helvetica,sans-Serif" font-size="10.00">/home/runner/work/cbmc</text>
<text text-anchor="start" x="1316" y="-330.5" font-family="Helvetica,sans-Serif" font-size="10.00">&#45;documentation/cbmc&#45;documentation</text>
<text text-anchor="middle" x="1408" y="-319.5" font-family="Helvetica,sans-Serif" font-size="10.00">/src/solvers/flattening/bv_dimacs.cpp</text>
</a>
</g>
</g>
<!-- Node1&#45;&gt;Node3 -->
<g id="edge2" class="edge">
<title>Node1&#45;&gt;Node3</title>
<path fill="none" stroke="midnightblue" d="M1733.74,-391.45C1670.31,-380.7 1589.14,-366.79 1517,-354 1514.06,-353.48 1511.08,-352.95 1508.08,-352.41"/>
<polygon fill="midnightblue" stroke="midnightblue" points="1733.32,-394.93 1743.77,-393.15 1734.49,-388.03 1733.32,-394.93"/>
</g>
<!-- Node4 -->
<g id="node4" class="node">
<title>Node4</title>
<g id="a_node4"><a xlink:href="qdimacs__cnf_8h.html" target="_top" xlink:title=" ">
<polygon fill="none" stroke="black" points="1526,-312.5 1526,-353.5 1726,-353.5 1726,-312.5 1526,-312.5"/>
<text text-anchor="start" x="1534" y="-341.5" font-family="Helvetica,sans-Serif" font-size="10.00">/home/runner/work/cbmc</text>
<text text-anchor="start" x="1534" y="-330.5" font-family="Helvetica,sans-Serif" font-size="10.00">&#45;documentation/cbmc&#45;documentation</text>
<text text-anchor="middle" x="1626" y="-319.5" font-family="Helvetica,sans-Serif" font-size="10.00">/src/solvers/qbf/qdimacs_cnf.h</text>
</a>
</g>
</g>
<!-- Node1&#45;&gt;Node4 -->
<g id="edge3" class="edge">
<title>Node1&#45;&gt;Node4</title>
<path fill="none" stroke="midnightblue" d="M1778.1,-387.03C1747.41,-376.33 1711.29,-363.73 1681.95,-353.51"/>
<polygon fill="midnightblue" stroke="midnightblue" points="1777.26,-390.44 1787.86,-390.43 1779.57,-383.83 1777.26,-390.44"/>
</g>
<!-- Node24 -->
<g id="node24" class="node">
<title>Node24</title>
<g id="a_node24"><a xlink:href="dimacs__cnf_8cpp.html" target="_top" xlink:title=" ">
<polygon fill="none" stroke="black" points="1744,-312.5 1744,-353.5 1944,-353.5 1944,-312.5 1744,-312.5"/>
<text text-anchor="start" x="1752" y="-341.5" font-family="Helvetica,sans-Serif" font-size="10.00">/home/runner/work/cbmc</text>
<text text-anchor="start" x="1752" y="-330.5" font-family="Helvetica,sans-Serif" font-size="10.00">&#45;documentation/cbmc&#45;documentation</text>
<text text-anchor="middle" x="1844" y="-319.5" font-family="Helvetica,sans-Serif" font-size="10.00">/src/solvers/sat/dimacs_cnf.cpp</text>
</a>
</g>
</g>
<!-- Node1&#45;&gt;Node24 -->
<g id="edge23" class="edge">
<title>Node1&#45;&gt;Node24</title>
<path fill="none" stroke="midnightblue" d="M1844,-380.3C1844,-371.3 1844,-361.65 1844,-353.51"/>
<polygon fill="midnightblue" stroke="midnightblue" points="1840.5,-380.43 1844,-390.43 1847.5,-380.43 1840.5,-380.43"/>
</g>
<!-- Node25 -->
<g id="node25" class="node">
<title>Node25</title>
<g id="a_node25"><a xlink:href="external__sat_8cpp.html" target="_top" xlink:title=" ">
<polygon fill="none" stroke="black" points="1962,-312.5 1962,-353.5 2162,-353.5 2162,-312.5 1962,-312.5"/>
<text text-anchor="start" x="1970" y="-341.5" font-family="Helvetica,sans-Serif" font-size="10.00">/home/runner/work/cbmc</text>
<text text-anchor="start" x="1970" y="-330.5" font-family="Helvetica,sans-Serif" font-size="10.00">&#45;documentation/cbmc&#45;documentation</text>
<text text-anchor="middle" x="2062" y="-319.5" font-family="Helvetica,sans-Serif" font-size="10.00">/src/solvers/sat/external_sat.cpp</text>
</a>
</g>
</g>
<!-- Node1&#45;&gt;Node25 -->
<g id="edge24" class="edge">
<title>Node1&#45;&gt;Node25</title>
<path fill="none" stroke="midnightblue" d="M1909.9,-387.03C1940.59,-376.33 1976.71,-363.73 2006.05,-353.51"/>
<polygon fill="midnightblue" stroke="midnightblue" points="1908.43,-383.83 1900.14,-390.43 1910.74,-390.44 1908.43,-383.83"/>
</g>
<!-- Node26 -->
<g id="node26" class="node">
<title>Node26</title>
<g id="a_node26"><a xlink:href="pbs__dimacs__cnf_8h.html" target="_top" xlink:title=" ">
<polygon fill="none" stroke="black" points="2180,-312.5 2180,-353.5 2380,-353.5 2380,-312.5 2180,-312.5"/>
<text text-anchor="start" x="2188" y="-341.5" font-family="Helvetica,sans-Serif" font-size="10.00">/home/runner/work/cbmc</text>
<text text-anchor="start" x="2188" y="-330.5" font-family="Helvetica,sans-Serif" font-size="10.00">&#45;documentation/cbmc&#45;documentation</text>
<text text-anchor="middle" x="2280" y="-319.5" font-family="Helvetica,sans-Serif" font-size="10.00">/src/solvers/sat/pbs_dimacs_cnf.h</text>
</a>
</g>
</g>
<!-- Node1&#45;&gt;Node26 -->
<g id="edge25" class="edge">
<title>Node1&#45;&gt;Node26</title>
<path fill="none" stroke="midnightblue" d="M1954.26,-391.45C2017.69,-380.7 2098.86,-366.79 2171,-354 2173.94,-353.48 2176.92,-352.95 2179.92,-352.41"/>
<polygon fill="midnightblue" stroke="midnightblue" points="1953.51,-388.03 1944.23,-393.15 1954.68,-394.93 1953.51,-388.03"/>
</g>
<!-- Node28 -->
<g id="node28" class="node">
<title>Node28</title>
<g id="a_node28"><a xlink:href="satcheck__zcore_8h.html" target="_top" xlink:title=" ">
<polygon fill="none" stroke="black" points="2398,-312.5 2398,-353.5 2598,-353.5 2598,-312.5 2398,-312.5"/>
<text text-anchor="start" x="2406" y="-341.5" font-family="Helvetica,sans-Serif" font-size="10.00">/home/runner/work/cbmc</text>
<text text-anchor="start" x="2406" y="-330.5" font-family="Helvetica,sans-Serif" font-size="10.00">&#45;documentation/cbmc&#45;documentation</text>
<text text-anchor="middle" x="2498" y="-319.5" font-family="Helvetica,sans-Serif" font-size="10.00">/src/solvers/sat/satcheck_zcore.h</text>
</a>
</g>
</g>
<!-- Node1&#45;&gt;Node28 -->
<g id="edge27" class="edge">
<title>Node1&#45;&gt;Node28</title>
<path fill="none" stroke="midnightblue" d="M1954.38,-401.24C2064.7,-391.87 2239.02,-375.43 2389,-354 2391.95,-353.58 2394.95,-353.13 2397.97,-352.67"/>
<polygon fill="midnightblue" stroke="midnightblue" points="1953.91,-397.76 1944.24,-402.09 1954.5,-404.74 1953.91,-397.76"/>
</g>
<!-- Node5 -->
<g id="node5" class="node">
<title>Node5</title>
<g id="a_node5"><a xlink:href="qdimacs__core_8h.html" target="_top" xlink:title=" ">
<polygon fill="none" stroke="black" points="654,-234.5 654,-275.5 854,-275.5 854,-234.5 654,-234.5"/>
<text text-anchor="start" x="662" y="-263.5" font-family="Helvetica,sans-Serif" font-size="10.00">/home/runner/work/cbmc</text>
<text text-anchor="start" x="662" y="-252.5" font-family="Helvetica,sans-Serif" font-size="10.00">&#45;documentation/cbmc&#45;documentation</text>
<text text-anchor="middle" x="754" y="-241.5" font-family="Helvetica,sans-Serif" font-size="10.00">/src/solvers/qbf/qdimacs_core.h</text>
</a>
</g>
</g>
<!-- Node4&#45;&gt;Node5 -->
<g id="edge4" class="edge">
<title>Node4&#45;&gt;Node5</title>
<path fill="none" stroke="midnightblue" d="M1515.75,-311.94C1374.19,-294.83 1026.91,-272.56 854.34,-262.01"/>
<polygon fill="midnightblue" stroke="midnightblue" points="1515.63,-315.45 1525.98,-313.21 1516.49,-308.51 1515.63,-315.45"/>
</g>
<!-- Node15 -->
<g id="node15" class="node">
<title>Node15</title>
<g id="a_node15"><a xlink:href="qbf__quantor_8h.html" target="_top" xlink:title=" ">
<polygon fill="none" stroke="black" points="1090,-234.5 1090,-275.5 1290,-275.5 1290,-234.5 1090,-234.5"/>
<text text-anchor="start" x="1098" y="-263.5" font-family="Helvetica,sans-Serif" font-size="10.00">/home/runner/work/cbmc</text>
<text text-anchor="start" x="1098" y="-252.5" font-family="Helvetica,sans-Serif" font-size="10.00">&#45;documentation/cbmc&#45;documentation</text>
<text text-anchor="middle" x="1190" y="-241.5" font-family="Helvetica,sans-Serif" font-size="10.00">/src/solvers/qbf/qbf_quantor.h</text>
</a>
</g>
</g>
<!-- Node4&#45;&gt;Node15 -->
<g id="edge14" class="edge">
<title>Node4&#45;&gt;Node15</title>
<path fill="none" stroke="midnightblue" d="M1515.96,-311.83C1418.6,-294.98 1392.62,-292.32 1299,-276 1296.06,-275.49 1293.08,-274.96 1290.07,-274.43"/>
<polygon fill="midnightblue" stroke="midnightblue" points="1515.48,-315.3 1525.93,-313.57 1516.68,-308.41 1515.48,-315.3"/>
</g>
<!-- Node17 -->
<g id="node17" class="node">
<title>Node17</title>
<g id="a_node17"><a xlink:href="qbf__qube_8h.html" target="_top" xlink:title=" ">
<polygon fill="none" stroke="black" points="1308,-234.5 1308,-275.5 1508,-275.5 1508,-234.5 1308,-234.5"/>
<text text-anchor="start" x="1316" y="-263.5" font-family="Helvetica,sans-Serif" font-size="10.00">/home/runner/work/cbmc</text>
<text text-anchor="start" x="1316" y="-252.5" font-family="Helvetica,sans-Serif" font-size="10.00">&#45;documentation/cbmc&#45;documentation</text>
<text text-anchor="middle" x="1408" y="-241.5" font-family="Helvetica,sans-Serif" font-size="10.00">/src/solvers/qbf/qbf_qube.h</text>
</a>
</g>
</g>
<!-- Node4&#45;&gt;Node17 -->
<g id="edge16" class="edge">
<title>Node4&#45;&gt;Node17</title>
<path fill="none" stroke="midnightblue" d="M1560.1,-309.03C1529.41,-298.33 1493.29,-285.73 1463.95,-275.51"/>
<polygon fill="midnightblue" stroke="midnightblue" points="1559.26,-312.44 1569.86,-312.43 1561.57,-305.83 1559.26,-312.44"/>
</g>
<!-- Node19 -->
<g id="node19" class="node">
<title>Node19</title>
<g id="a_node19"><a xlink:href="qbf__skizzo_8h.html" target="_top" xlink:title=" ">
<polygon fill="none" stroke="black" points="1526,-234.5 1526,-275.5 1726,-275.5 1726,-234.5 1526,-234.5"/>
<text text-anchor="start" x="1534" y="-263.5" font-family="Helvetica,sans-Serif" font-size="10.00">/home/runner/work/cbmc</text>
<text text-anchor="start" x="1534" y="-252.5" font-family="Helvetica,sans-Serif" font-size="10.00">&#45;documentation/cbmc&#45;documentation</text>
<text text-anchor="middle" x="1626" y="-241.5" font-family="Helvetica,sans-Serif" font-size="10.00">/src/solvers/qbf/qbf_skizzo.h</text>
</a>
</g>
</g>
<!-- Node4&#45;&gt;Node19 -->
<g id="edge18" class="edge">
<title>Node4&#45;&gt;Node19</title>
<path fill="none" stroke="midnightblue" d="M1626,-302.3C1626,-293.3 1626,-283.65 1626,-275.51"/>
<polygon fill="midnightblue" stroke="midnightblue" points="1622.5,-302.43 1626,-312.43 1629.5,-302.43 1622.5,-302.43"/>
</g>
<!-- Node21 -->
<g id="node21" class="node">
<title>Node21</title>
<g id="a_node21"><a xlink:href="qbf__squolem_8h.html" target="_top" xlink:title=" ">
<polygon fill="none" stroke="black" points="1744,-234.5 1744,-275.5 1944,-275.5 1944,-234.5 1744,-234.5"/>
<text text-anchor="start" x="1752" y="-263.5" font-family="Helvetica,sans-Serif" font-size="10.00">/home/runner/work/cbmc</text>
<text text-anchor="start" x="1752" y="-252.5" font-family="Helvetica,sans-Serif" font-size="10.00">&#45;documentation/cbmc&#45;documentation</text>
<text text-anchor="middle" x="1844" y="-241.5" font-family="Helvetica,sans-Serif" font-size="10.00">/src/solvers/qbf/qbf_squolem.h</text>
</a>
</g>
</g>
<!-- Node4&#45;&gt;Node21 -->
<g id="edge20" class="edge">
<title>Node4&#45;&gt;Node21</title>
<path fill="none" stroke="midnightblue" d="M1691.9,-309.03C1722.59,-298.33 1758.71,-285.73 1788.05,-275.51"/>
<polygon fill="midnightblue" stroke="midnightblue" points="1690.43,-305.83 1682.14,-312.43 1692.74,-312.44 1690.43,-305.83"/>
</g>
<!-- Node23 -->
<g id="node23" class="node">
<title>Node23</title>
<g id="a_node23"><a xlink:href="qdimacs__cnf_8cpp.html" target="_top" xlink:title=" ">
<polygon fill="none" stroke="black" points="1962,-234.5 1962,-275.5 2162,-275.5 2162,-234.5 1962,-234.5"/>
<text text-anchor="start" x="1970" y="-263.5" font-family="Helvetica,sans-Serif" font-size="10.00">/home/runner/work/cbmc</text>
<text text-anchor="start" x="1970" y="-252.5" font-family="Helvetica,sans-Serif" font-size="10.00">&#45;documentation/cbmc&#45;documentation</text>
<text text-anchor="middle" x="2062" y="-241.5" font-family="Helvetica,sans-Serif" font-size="10.00">/src/solvers/qbf/qdimacs_cnf.cpp</text>
</a>
</g>
</g>
<!-- Node4&#45;&gt;Node23 -->
<g id="edge22" class="edge">
<title>Node4&#45;&gt;Node23</title>
<path fill="none" stroke="midnightblue" d="M1736.04,-311.83C1833.4,-294.98 1859.38,-292.32 1953,-276 1955.94,-275.49 1958.92,-274.96 1961.93,-274.43"/>
<polygon fill="midnightblue" stroke="midnightblue" points="1735.32,-308.41 1726.07,-313.57 1736.52,-315.3 1735.32,-308.41"/>
</g>
<!-- Node6 -->
<g id="node6" class="node">
<title>Node6</title>
<g id="a_node6"><a xlink:href="qbf__bdd__core_8h.html" target="_top" xlink:title=" ">
<polygon fill="none" stroke="black" points="218,-156.5 218,-197.5 418,-197.5 418,-156.5 218,-156.5"/>
<text text-anchor="start" x="226" y="-185.5" font-family="Helvetica,sans-Serif" font-size="10.00">/home/runner/work/cbmc</text>
<text text-anchor="start" x="226" y="-174.5" font-family="Helvetica,sans-Serif" font-size="10.00">&#45;documentation/cbmc&#45;documentation</text>
<text text-anchor="middle" x="318" y="-163.5" font-family="Helvetica,sans-Serif" font-size="10.00">/src/solvers/qbf/qbf_bdd_core.h</text>
</a>
</g>
</g>
<!-- Node5&#45;&gt;Node6 -->
<g id="edge5" class="edge">
<title>Node5&#45;&gt;Node6</title>
<path fill="none" stroke="midnightblue" d="M643.74,-235.45C580.31,-224.7 499.14,-210.79 427,-198 424.06,-197.48 421.08,-196.95 418.08,-196.41"/>
<polygon fill="midnightblue" stroke="midnightblue" points="643.32,-238.93 653.77,-237.15 644.49,-232.03 643.32,-238.93"/>
</g>
<!-- Node10 -->
<g id="node10" class="node">
<title>Node10</title>
<g id="a_node10"><a xlink:href="qbf__qube__core_8h.html" target="_top" xlink:title=" ">
<polygon fill="none" stroke="black" points="436,-156.5 436,-197.5 636,-197.5 636,-156.5 436,-156.5"/>
<text text-anchor="start" x="444" y="-185.5" font-family="Helvetica,sans-Serif" font-size="10.00">/home/runner/work/cbmc</text>
<text text-anchor="start" x="444" y="-174.5" font-family="Helvetica,sans-Serif" font-size="10.00">&#45;documentation/cbmc&#45;documentation</text>
<text text-anchor="middle" x="536" y="-163.5" font-family="Helvetica,sans-Serif" font-size="10.00">/src/solvers/qbf/qbf_qube_core.h</text>
</a>
</g>
</g>
<!-- Node5&#45;&gt;Node10 -->
<g id="edge9" class="edge">
<title>Node5&#45;&gt;Node10</title>
<path fill="none" stroke="midnightblue" d="M688.1,-231.03C657.41,-220.33 621.29,-207.73 591.95,-197.51"/>
<polygon fill="midnightblue" stroke="midnightblue" points="687.26,-234.44 697.86,-234.43 689.57,-227.83 687.26,-234.44"/>
</g>
<!-- Node12 -->
<g id="node12" class="node">
<title>Node12</title>
<g id="a_node12"><a xlink:href="qbf__squolem__core_8h.html" target="_top" xlink:title=" ">
<polygon fill="none" stroke="black" points="654,-156.5 654,-197.5 854,-197.5 854,-156.5 654,-156.5"/>
<text text-anchor="start" x="662" y="-185.5" font-family="Helvetica,sans-Serif" font-size="10.00">/home/runner/work/cbmc</text>
<text text-anchor="start" x="662" y="-174.5" font-family="Helvetica,sans-Serif" font-size="10.00">&#45;documentation/cbmc&#45;documentation</text>
<text text-anchor="middle" x="754" y="-163.5" font-family="Helvetica,sans-Serif" font-size="10.00">/src/solvers/qbf/qbf_squolem_core.h</text>
</a>
</g>
</g>
<!-- Node5&#45;&gt;Node12 -->
<g id="edge11" class="edge">
<title>Node5&#45;&gt;Node12</title>
<path fill="none" stroke="midnightblue" d="M754,-224.3C754,-215.3 754,-205.65 754,-197.51"/>
<polygon fill="midnightblue" stroke="midnightblue" points="750.5,-224.43 754,-234.43 757.5,-224.43 750.5,-224.43"/>
</g>
<!-- Node14 -->
<g id="node14" class="node">
<title>Node14</title>
<g id="a_node14"><a xlink:href="qdimacs__core_8cpp.html" target="_top" xlink:title=" ">
<polygon fill="none" stroke="black" points="872,-156.5 872,-197.5 1072,-197.5 1072,-156.5 872,-156.5"/>
<text text-anchor="start" x="880" y="-185.5" font-family="Helvetica,sans-Serif" font-size="10.00">/home/runner/work/cbmc</text>
<text text-anchor="start" x="880" y="-174.5" font-family="Helvetica,sans-Serif" font-size="10.00">&#45;documentation/cbmc&#45;documentation</text>
<text text-anchor="middle" x="972" y="-163.5" font-family="Helvetica,sans-Serif" font-size="10.00">/src/solvers/qbf/qdimacs_core.cpp</text>
</a>
</g>
</g>
<!-- Node5&#45;&gt;Node14 -->
<g id="edge13" class="edge">
<title>Node5&#45;&gt;Node14</title>
<path fill="none" stroke="midnightblue" d="M819.9,-231.03C850.59,-220.33 886.71,-207.73 916.05,-197.51"/>
<polygon fill="midnightblue" stroke="midnightblue" points="818.43,-227.83 810.14,-234.43 820.74,-234.44 818.43,-227.83"/>
</g>
<!-- Node7 -->
<g id="node7" class="node">
<title>Node7</title>
<g id="a_node7"><a xlink:href="qbf__bdd__core_8cpp.html" target="_top" xlink:title=" ">
<polygon fill="none" stroke="black" points="0,-78.5 0,-119.5 200,-119.5 200,-78.5 0,-78.5"/>
<text text-anchor="start" x="8" y="-107.5" font-family="Helvetica,sans-Serif" font-size="10.00">/home/runner/work/cbmc</text>
<text text-anchor="start" x="8" y="-96.5" font-family="Helvetica,sans-Serif" font-size="10.00">&#45;documentation/cbmc&#45;documentation</text>
<text text-anchor="middle" x="100" y="-85.5" font-family="Helvetica,sans-Serif" font-size="10.00">/src/solvers/qbf/qbf_bdd_core.cpp</text>
</a>
</g>
</g>
<!-- Node6&#45;&gt;Node7 -->
<g id="edge6" class="edge">
<title>Node6&#45;&gt;Node7</title>
<path fill="none" stroke="midnightblue" d="M252.1,-153.03C221.41,-142.33 185.29,-129.73 155.95,-119.51"/>
<polygon fill="midnightblue" stroke="midnightblue" points="251.26,-156.44 261.86,-156.43 253.57,-149.83 251.26,-156.44"/>
</g>
<!-- Node8 -->
<g id="node8" class="node">
<title>Node8</title>
<g id="a_node8"><a xlink:href="qbf__skizzo__core_8h.html" target="_top" xlink:title=" ">
<polygon fill="none" stroke="black" points="218,-78.5 218,-119.5 418,-119.5 418,-78.5 218,-78.5"/>
<text text-anchor="start" x="226" y="-107.5" font-family="Helvetica,sans-Serif" font-size="10.00">/home/runner/work/cbmc</text>
<text text-anchor="start" x="226" y="-96.5" font-family="Helvetica,sans-Serif" font-size="10.00">&#45;documentation/cbmc&#45;documentation</text>
<text text-anchor="middle" x="318" y="-85.5" font-family="Helvetica,sans-Serif" font-size="10.00">/src/solvers/qbf/qbf_skizzo_core.h</text>
</a>
</g>
</g>
<!-- Node6&#45;&gt;Node8 -->
<g id="edge7" class="edge">
<title>Node6&#45;&gt;Node8</title>
<path fill="none" stroke="midnightblue" d="M318,-146.3C318,-137.3 318,-127.65 318,-119.51"/>
<polygon fill="midnightblue" stroke="midnightblue" points="314.5,-146.43 318,-156.43 321.5,-146.43 314.5,-146.43"/>
</g>
<!-- Node9 -->
<g id="node9" class="node">
<title>Node9</title>
<g id="a_node9"><a xlink:href="qbf__skizzo__core_8cpp.html" target="_top" xlink:title=" ">
<polygon fill="none" stroke="black" points="218,-0.5 218,-41.5 418,-41.5 418,-0.5 218,-0.5"/>
<text text-anchor="start" x="226" y="-29.5" font-family="Helvetica,sans-Serif" font-size="10.00">/home/runner/work/cbmc</text>
<text text-anchor="start" x="226" y="-18.5" font-family="Helvetica,sans-Serif" font-size="10.00">&#45;documentation/cbmc&#45;documentation</text>
<text text-anchor="middle" x="318" y="-7.5" font-family="Helvetica,sans-Serif" font-size="10.00">/src/solvers/qbf/qbf_skizzo_core.cpp</text>
</a>
</g>
</g>
<!-- Node8&#45;&gt;Node9 -->
<g id="edge8" class="edge">
<title>Node8&#45;&gt;Node9</title>
<path fill="none" stroke="midnightblue" d="M318,-68.3C318,-59.3 318,-49.65 318,-41.51"/>
<polygon fill="midnightblue" stroke="midnightblue" points="314.5,-68.43 318,-78.43 321.5,-68.43 314.5,-68.43"/>
</g>
<!-- Node11 -->
<g id="node11" class="node">
<title>Node11</title>
<g id="a_node11"><a xlink:href="qbf__qube__core_8cpp.html" target="_top" xlink:title=" ">
<polygon fill="none" stroke="black" points="436,-78.5 436,-119.5 636,-119.5 636,-78.5 436,-78.5"/>
<text text-anchor="start" x="444" y="-107.5" font-family="Helvetica,sans-Serif" font-size="10.00">/home/runner/work/cbmc</text>
<text text-anchor="start" x="444" y="-96.5" font-family="Helvetica,sans-Serif" font-size="10.00">&#45;documentation/cbmc&#45;documentation</text>
<text text-anchor="middle" x="536" y="-85.5" font-family="Helvetica,sans-Serif" font-size="10.00">/src/solvers/qbf/qbf_qube_core.cpp</text>
</a>
</g>
</g>
<!-- Node10&#45;&gt;Node11 -->
<g id="edge10" class="edge">
<title>Node10&#45;&gt;Node11</title>
<path fill="none" stroke="midnightblue" d="M536,-146.3C536,-137.3 536,-127.65 536,-119.51"/>
<polygon fill="midnightblue" stroke="midnightblue" points="532.5,-146.43 536,-156.43 539.5,-146.43 532.5,-146.43"/>
</g>
<!-- Node13 -->
<g id="node13" class="node">
<title>Node13</title>
<g id="a_node13"><a xlink:href="qbf__squolem__core_8cpp.html" target="_top" xlink:title=" ">
<polygon fill="none" stroke="black" points="654.5,-78.5 654.5,-119.5 857.5,-119.5 857.5,-78.5 654.5,-78.5"/>
<text text-anchor="start" x="662.5" y="-107.5" font-family="Helvetica,sans-Serif" font-size="10.00">/home/runner/work/cbmc</text>
<text text-anchor="start" x="662.5" y="-96.5" font-family="Helvetica,sans-Serif" font-size="10.00">&#45;documentation/cbmc&#45;documentation</text>
<text text-anchor="middle" x="756" y="-85.5" font-family="Helvetica,sans-Serif" font-size="10.00">/src/solvers/qbf/qbf_squolem_core.cpp</text>
</a>
</g>
</g>
<!-- Node12&#45;&gt;Node13 -->
<g id="edge12" class="edge">
<title>Node12&#45;&gt;Node13</title>
<path fill="none" stroke="midnightblue" d="M754.78,-146.3C755.02,-137.3 755.27,-127.65 755.49,-119.51"/>
<polygon fill="midnightblue" stroke="midnightblue" points="751.28,-146.34 754.52,-156.43 758.28,-146.52 751.28,-146.34"/>
</g>
<!-- Node16 -->
<g id="node16" class="node">
<title>Node16</title>
<g id="a_node16"><a xlink:href="qbf__quantor_8cpp.html" target="_top" xlink:title=" ">
<polygon fill="none" stroke="black" points="1090,-156.5 1090,-197.5 1290,-197.5 1290,-156.5 1090,-156.5"/>
<text text-anchor="start" x="1098" y="-185.5" font-family="Helvetica,sans-Serif" font-size="10.00">/home/runner/work/cbmc</text>
<text text-anchor="start" x="1098" y="-174.5" font-family="Helvetica,sans-Serif" font-size="10.00">&#45;documentation/cbmc&#45;documentation</text>
<text text-anchor="middle" x="1190" y="-163.5" font-family="Helvetica,sans-Serif" font-size="10.00">/src/solvers/qbf/qbf_quantor.cpp</text>
</a>
</g>
</g>
<!-- Node15&#45;&gt;Node16 -->
<g id="edge15" class="edge">
<title>Node15&#45;&gt;Node16</title>
<path fill="none" stroke="midnightblue" d="M1190,-224.3C1190,-215.3 1190,-205.65 1190,-197.51"/>
<polygon fill="midnightblue" stroke="midnightblue" points="1186.5,-224.43 1190,-234.43 1193.5,-224.43 1186.5,-224.43"/>
</g>
<!-- Node18 -->
<g id="node18" class="node">
<title>Node18</title>
<g id="a_node18"><a xlink:href="qbf__qube_8cpp.html" target="_top" xlink:title=" ">
<polygon fill="none" stroke="black" points="1308,-156.5 1308,-197.5 1508,-197.5 1508,-156.5 1308,-156.5"/>
<text text-anchor="start" x="1316" y="-185.5" font-family="Helvetica,sans-Serif" font-size="10.00">/home/runner/work/cbmc</text>
<text text-anchor="start" x="1316" y="-174.5" font-family="Helvetica,sans-Serif" font-size="10.00">&#45;documentation/cbmc&#45;documentation</text>
<text text-anchor="middle" x="1408" y="-163.5" font-family="Helvetica,sans-Serif" font-size="10.00">/src/solvers/qbf/qbf_qube.cpp</text>
</a>
</g>
</g>
<!-- Node17&#45;&gt;Node18 -->
<g id="edge17" class="edge">
<title>Node17&#45;&gt;Node18</title>
<path fill="none" stroke="midnightblue" d="M1408,-224.3C1408,-215.3 1408,-205.65 1408,-197.51"/>
<polygon fill="midnightblue" stroke="midnightblue" points="1404.5,-224.43 1408,-234.43 1411.5,-224.43 1404.5,-224.43"/>
</g>
<!-- Node20 -->
<g id="node20" class="node">
<title>Node20</title>
<g id="a_node20"><a xlink:href="qbf__skizzo_8cpp.html" target="_top" xlink:title=" ">
<polygon fill="none" stroke="black" points="1526,-156.5 1526,-197.5 1726,-197.5 1726,-156.5 1526,-156.5"/>
<text text-anchor="start" x="1534" y="-185.5" font-family="Helvetica,sans-Serif" font-size="10.00">/home/runner/work/cbmc</text>
<text text-anchor="start" x="1534" y="-174.5" font-family="Helvetica,sans-Serif" font-size="10.00">&#45;documentation/cbmc&#45;documentation</text>
<text text-anchor="middle" x="1626" y="-163.5" font-family="Helvetica,sans-Serif" font-size="10.00">/src/solvers/qbf/qbf_skizzo.cpp</text>
</a>
</g>
</g>
<!-- Node19&#45;&gt;Node20 -->
<g id="edge19" class="edge">
<title>Node19&#45;&gt;Node20</title>
<path fill="none" stroke="midnightblue" d="M1626,-224.3C1626,-215.3 1626,-205.65 1626,-197.51"/>
<polygon fill="midnightblue" stroke="midnightblue" points="1622.5,-224.43 1626,-234.43 1629.5,-224.43 1622.5,-224.43"/>
</g>
<!-- Node22 -->
<g id="node22" class="node">
<title>Node22</title>
<g id="a_node22"><a xlink:href="qbf__squolem_8cpp.html" target="_top" xlink:title=" ">
<polygon fill="none" stroke="black" points="1744,-156.5 1744,-197.5 1944,-197.5 1944,-156.5 1744,-156.5"/>
<text text-anchor="start" x="1752" y="-185.5" font-family="Helvetica,sans-Serif" font-size="10.00">/home/runner/work/cbmc</text>
<text text-anchor="start" x="1752" y="-174.5" font-family="Helvetica,sans-Serif" font-size="10.00">&#45;documentation/cbmc&#45;documentation</text>
<text text-anchor="middle" x="1844" y="-163.5" font-family="Helvetica,sans-Serif" font-size="10.00">/src/solvers/qbf/qbf_squolem.cpp</text>
</a>
</g>
</g>
<!-- Node21&#45;&gt;Node22 -->
<g id="edge21" class="edge">
<title>Node21&#45;&gt;Node22</title>
<path fill="none" stroke="midnightblue" d="M1844,-224.3C1844,-215.3 1844,-205.65 1844,-197.51"/>
<polygon fill="midnightblue" stroke="midnightblue" points="1840.5,-224.43 1844,-234.43 1847.5,-224.43 1840.5,-224.43"/>
</g>
<!-- Node27 -->
<g id="node27" class="node">
<title>Node27</title>
<g id="a_node27"><a xlink:href="pbs__dimacs__cnf_8cpp.html" target="_top" xlink:title=" ">
<polygon fill="none" stroke="black" points="2180,-234.5 2180,-275.5 2380,-275.5 2380,-234.5 2180,-234.5"/>
<text text-anchor="start" x="2188" y="-263.5" font-family="Helvetica,sans-Serif" font-size="10.00">/home/runner/work/cbmc</text>
<text text-anchor="start" x="2188" y="-252.5" font-family="Helvetica,sans-Serif" font-size="10.00">&#45;documentation/cbmc&#45;documentation</text>
<text text-anchor="middle" x="2280" y="-241.5" font-family="Helvetica,sans-Serif" font-size="10.00">/src/solvers/sat/pbs_dimacs_cnf.cpp</text>
</a>
</g>
</g>
<!-- Node26&#45;&gt;Node27 -->
<g id="edge26" class="edge">
<title>Node26&#45;&gt;Node27</title>
<path fill="none" stroke="midnightblue" d="M2280,-302.3C2280,-293.3 2280,-283.65 2280,-275.51"/>
<polygon fill="midnightblue" stroke="midnightblue" points="2276.5,-302.43 2280,-312.43 2283.5,-302.43 2276.5,-302.43"/>
</g>
<!-- Node29 -->
<g id="node29" class="node">
<title>Node29</title>
<g id="a_node29"><a xlink:href="satcheck__zcore_8cpp.html" target="_top" xlink:title=" ">
<polygon fill="none" stroke="black" points="2398,-234.5 2398,-275.5 2598,-275.5 2598,-234.5 2398,-234.5"/>
<text text-anchor="start" x="2406" y="-263.5" font-family="Helvetica,sans-Serif" font-size="10.00">/home/runner/work/cbmc</text>
<text text-anchor="start" x="2406" y="-252.5" font-family="Helvetica,sans-Serif" font-size="10.00">&#45;documentation/cbmc&#45;documentation</text>
<text text-anchor="middle" x="2498" y="-241.5" font-family="Helvetica,sans-Serif" font-size="10.00">/src/solvers/sat/satcheck_zcore.cpp</text>
</a>
</g>
</g>
<!-- Node28&#45;&gt;Node29 -->
<g id="edge28" class="edge">
<title>Node28&#45;&gt;Node29</title>
<path fill="none" stroke="midnightblue" d="M2498,-302.3C2498,-293.3 2498,-283.65 2498,-275.51"/>
<polygon fill="midnightblue" stroke="midnightblue" points="2494.5,-302.43 2498,-312.43 2501.5,-302.43 2494.5,-302.43"/>
</g>
</g>
</svg>
