<?xml version="1.0" encoding="UTF-8" standalone="no"?>
<!DOCTYPE svg PUBLIC "-//W3C//DTD SVG 1.1//EN"
 "http://www.w3.org/Graphics/SVG/1.1/DTD/svg11.dtd">
<!-- Generated by graphviz version 2.43.0 (0)
 -->
<!-- Title: /home/runner/work/cbmc&#45;documentation/cbmc&#45;documentation/src/goto&#45;instrument/wmm/event_graph.h Pages: 1 -->
<svg width="1150pt" height="228pt"
 viewBox="0.00 0.00 1150.00 228.00" xmlns="http://www.w3.org/2000/svg" xmlns:xlink="http://www.w3.org/1999/xlink">
<g id="graph0" class="graph" transform="scale(1 1) rotate(0) translate(4 224)">
<title>/home/runner/work/cbmc&#45;documentation/cbmc&#45;documentation/src/goto&#45;instrument/wmm/event_graph.h</title>
<!-- Node1 -->
<g id="node1" class="node">
<title>Node1</title>
<g id="a_node1"><a xlink:title=" ">
<polygon fill="#bfbfbf" stroke="black" points="336.5,-178.5 336.5,-219.5 555.5,-219.5 555.5,-178.5 336.5,-178.5"/>
<text text-anchor="start" x="344.5" y="-207.5" font-family="Helvetica,sans-Serif" font-size="10.00">/home/runner/work/cbmc</text>
<text text-anchor="start" x="344.5" y="-196.5" font-family="Helvetica,sans-Serif" font-size="10.00">&#45;documentation/cbmc&#45;documentation</text>
<text text-anchor="middle" x="446" y="-185.5" font-family="Helvetica,sans-Serif" font-size="10.00">/src/goto&#45;instrument/wmm/event_graph.h</text>
</a>
</g>
</g>
<!-- Node2 -->
<g id="node2" class="node">
<title>Node2</title>
<g id="a_node2"><a xlink:href="cycle__collection_8cpp.html" target="_top" xlink:title=" ">
<polygon fill="none" stroke="black" points="0,-89.5 0,-141.5 200,-141.5 200,-89.5 0,-89.5"/>
<text text-anchor="start" x="8" y="-129.5" font-family="Helvetica,sans-Serif" font-size="10.00">/home/runner/work/cbmc</text>
<text text-anchor="start" x="8" y="-118.5" font-family="Helvetica,sans-Serif" font-size="10.00">&#45;documentation/cbmc&#45;documentation</text>
<text text-anchor="start" x="8" y="-107.5" font-family="Helvetica,sans-Serif" font-size="10.00">/src/goto&#45;instrument/wmm/cycle</text>
<text text-anchor="middle" x="100" y="-96.5" font-family="Helvetica,sans-Serif" font-size="10.00">_collection.cpp</text>
</a>
</g>
</g>
<!-- Node1&#45;&gt;Node2 -->
<g id="edge1" class="edge">
<title>Node1&#45;&gt;Node2</title>
<path fill="none" stroke="midnightblue" d="M353.2,-176.14C305.91,-165 248.35,-151.44 200.08,-140.07"/>
<polygon fill="midnightblue" stroke="midnightblue" points="352.59,-179.59 363.12,-178.48 354.19,-172.78 352.59,-179.59"/>
</g>
<!-- Node3 -->
<g id="node3" class="node">
<title>Node3</title>
<g id="a_node3"><a xlink:href="event__graph_8cpp.html" target="_top" xlink:title=" ">
<polygon fill="none" stroke="black" points="218,-89.5 218,-141.5 418,-141.5 418,-89.5 218,-89.5"/>
<text text-anchor="start" x="226" y="-129.5" font-family="Helvetica,sans-Serif" font-size="10.00">/home/runner/work/cbmc</text>
<text text-anchor="start" x="226" y="-118.5" font-family="Helvetica,sans-Serif" font-size="10.00">&#45;documentation/cbmc&#45;documentation</text>
<text text-anchor="start" x="226" y="-107.5" font-family="Helvetica,sans-Serif" font-size="10.00">/src/goto&#45;instrument/wmm/event</text>
<text text-anchor="middle" x="318" y="-96.5" font-family="Helvetica,sans-Serif" font-size="10.00">_graph.cpp</text>
</a>
</g>
</g>
<!-- Node1&#45;&gt;Node3 -->
<g id="edge2" class="edge">
<title>Node1&#45;&gt;Node3</title>
<path fill="none" stroke="midnightblue" d="M406.49,-172.84C390.96,-162.96 373.16,-151.62 357.62,-141.73"/>
<polygon fill="midnightblue" stroke="midnightblue" points="405.03,-176.06 415.34,-178.48 408.79,-170.16 405.03,-176.06"/>
</g>
<!-- Node4 -->
<g id="node4" class="node">
<title>Node4</title>
<g id="a_node4"><a xlink:href="goto2graph_8h.html" target="_top" xlink:title=" ">
<polygon fill="none" stroke="black" points="474,-95 474,-136 688,-136 688,-95 474,-95"/>
<text text-anchor="start" x="482" y="-124" font-family="Helvetica,sans-Serif" font-size="10.00">/home/runner/work/cbmc</text>
<text text-anchor="start" x="482" y="-113" font-family="Helvetica,sans-Serif" font-size="10.00">&#45;documentation/cbmc&#45;documentation</text>
<text text-anchor="middle" x="581" y="-102" font-family="Helvetica,sans-Serif" font-size="10.00">/src/goto&#45;instrument/wmm/goto2graph.h</text>
</a>
</g>
</g>
<!-- Node1&#45;&gt;Node4 -->
<g id="edge3" class="edge">
<title>Node1&#45;&gt;Node4</title>
<path fill="none" stroke="midnightblue" d="M487.1,-173.19C506.78,-161.3 530.03,-147.27 548.46,-136.14"/>
<polygon fill="midnightblue" stroke="midnightblue" points="485.09,-170.31 478.34,-178.48 488.71,-176.31 485.09,-170.31"/>
</g>
<!-- Node6 -->
<g id="node6" class="node">
<title>Node6</title>
<g id="a_node6"><a xlink:href="instrumenter__pensieve_8h.html" target="_top" xlink:title=" ">
<polygon fill="none" stroke="black" points="238,-0.5 238,-52.5 450,-52.5 450,-0.5 238,-0.5"/>
<text text-anchor="start" x="246" y="-40.5" font-family="Helvetica,sans-Serif" font-size="10.00">/home/runner/work/cbmc</text>
<text text-anchor="start" x="246" y="-29.5" font-family="Helvetica,sans-Serif" font-size="10.00">&#45;documentation/cbmc&#45;documentation</text>
<text text-anchor="start" x="246" y="-18.5" font-family="Helvetica,sans-Serif" font-size="10.00">/src/goto&#45;instrument/wmm/instrumenter</text>
<text text-anchor="middle" x="344" y="-7.5" font-family="Helvetica,sans-Serif" font-size="10.00">_pensieve.h</text>
</a>
</g>
</g>
<!-- Node1&#45;&gt;Node6 -->
<g id="edge8" class="edge">
<title>Node1&#45;&gt;Node6</title>
<path fill="none" stroke="midnightblue" d="M446.65,-168.09C445.83,-144.92 441.72,-112.85 427,-89 418.05,-74.5 404.32,-62.29 390.58,-52.67"/>
<polygon fill="midnightblue" stroke="midnightblue" points="443.15,-168.42 446.81,-178.36 450.15,-168.31 443.15,-168.42"/>
</g>
<!-- Node9 -->
<g id="node9" class="node">
<title>Node9</title>
<g id="a_node9"><a xlink:href="pair__collection_8cpp.html" target="_top" xlink:title=" ">
<polygon fill="none" stroke="black" points="706,-89.5 706,-141.5 906,-141.5 906,-89.5 706,-89.5"/>
<text text-anchor="start" x="714" y="-129.5" font-family="Helvetica,sans-Serif" font-size="10.00">/home/runner/work/cbmc</text>
<text text-anchor="start" x="714" y="-118.5" font-family="Helvetica,sans-Serif" font-size="10.00">&#45;documentation/cbmc&#45;documentation</text>
<text text-anchor="start" x="714" y="-107.5" font-family="Helvetica,sans-Serif" font-size="10.00">/src/goto&#45;instrument/wmm/pair</text>
<text text-anchor="middle" x="806" y="-96.5" font-family="Helvetica,sans-Serif" font-size="10.00">_collection.cpp</text>
</a>
</g>
</g>
<!-- Node1&#45;&gt;Node9 -->
<g id="edge9" class="edge">
<title>Node1&#45;&gt;Node9</title>
<path fill="none" stroke="midnightblue" d="M544.65,-176.24C590.93,-165.96 646.82,-153.47 697,-142 699.94,-141.33 702.92,-140.65 705.93,-139.95"/>
<polygon fill="midnightblue" stroke="midnightblue" points="543.63,-172.88 534.62,-178.46 545.14,-179.71 543.63,-172.88"/>
</g>
<!-- Node5 -->
<g id="node5" class="node">
<title>Node5</title>
<g id="a_node5"><a xlink:href="goto2graph_8cpp.html" target="_top" xlink:title=" ">
<polygon fill="none" stroke="black" points="468.5,-6 468.5,-47 693.5,-47 693.5,-6 468.5,-6"/>
<text text-anchor="start" x="476.5" y="-35" font-family="Helvetica,sans-Serif" font-size="10.00">/home/runner/work/cbmc</text>
<text text-anchor="start" x="476.5" y="-24" font-family="Helvetica,sans-Serif" font-size="10.00">&#45;documentation/cbmc&#45;documentation</text>
<text text-anchor="middle" x="581" y="-13" font-family="Helvetica,sans-Serif" font-size="10.00">/src/goto&#45;instrument/wmm/goto2graph.cpp</text>
</a>
</g>
</g>
<!-- Node4&#45;&gt;Node5 -->
<g id="edge4" class="edge">
<title>Node4&#45;&gt;Node5</title>
<path fill="none" stroke="midnightblue" d="M581,-84.44C581,-72.1 581,-58.16 581,-47.16"/>
<polygon fill="midnightblue" stroke="midnightblue" points="577.5,-84.76 581,-94.76 584.5,-84.76 577.5,-84.76"/>
</g>
<!-- Node4&#45;&gt;Node6 -->
<g id="edge5" class="edge">
<title>Node4&#45;&gt;Node6</title>
<path fill="none" stroke="midnightblue" d="M518.38,-91.51C485.74,-79.53 445.77,-64.86 412.33,-52.58"/>
<polygon fill="midnightblue" stroke="midnightblue" points="517.22,-94.82 527.81,-94.98 519.63,-88.24 517.22,-94.82"/>
</g>
<!-- Node7 -->
<g id="node7" class="node">
<title>Node7</title>
<g id="a_node7"><a xlink:href="instrumenter__strategies_8cpp.html" target="_top" xlink:title=" ">
<polygon fill="none" stroke="black" points="712,-0.5 712,-52.5 924,-52.5 924,-0.5 712,-0.5"/>
<text text-anchor="start" x="720" y="-40.5" font-family="Helvetica,sans-Serif" font-size="10.00">/home/runner/work/cbmc</text>
<text text-anchor="start" x="720" y="-29.5" font-family="Helvetica,sans-Serif" font-size="10.00">&#45;documentation/cbmc&#45;documentation</text>
<text text-anchor="start" x="720" y="-18.5" font-family="Helvetica,sans-Serif" font-size="10.00">/src/goto&#45;instrument/wmm/instrumenter</text>
<text text-anchor="middle" x="818" y="-7.5" font-family="Helvetica,sans-Serif" font-size="10.00">_strategies.cpp</text>
</a>
</g>
</g>
<!-- Node4&#45;&gt;Node7 -->
<g id="edge6" class="edge">
<title>Node4&#45;&gt;Node7</title>
<path fill="none" stroke="midnightblue" d="M643.62,-91.51C676.26,-79.53 716.23,-64.86 749.67,-52.58"/>
<polygon fill="midnightblue" stroke="midnightblue" points="642.37,-88.24 634.19,-94.98 644.78,-94.82 642.37,-88.24"/>
</g>
<!-- Node8 -->
<g id="node8" class="node">
<title>Node8</title>
<g id="a_node8"><a xlink:href="weak__memory_8cpp.html" target="_top" xlink:title=" ">
<polygon fill="none" stroke="black" points="942,-0.5 942,-52.5 1142,-52.5 1142,-0.5 942,-0.5"/>
<text text-anchor="start" x="950" y="-40.5" font-family="Helvetica,sans-Serif" font-size="10.00">/home/runner/work/cbmc</text>
<text text-anchor="start" x="950" y="-29.5" font-family="Helvetica,sans-Serif" font-size="10.00">&#45;documentation/cbmc&#45;documentation</text>
<text text-anchor="start" x="950" y="-18.5" font-family="Helvetica,sans-Serif" font-size="10.00">/src/goto&#45;instrument/wmm/weak</text>
<text text-anchor="middle" x="1042" y="-7.5" font-family="Helvetica,sans-Serif" font-size="10.00">_memory.cpp</text>
</a>
</g>
</g>
<!-- Node4&#45;&gt;Node8 -->
<g id="edge7" class="edge">
<title>Node4&#45;&gt;Node8</title>
<path fill="none" stroke="midnightblue" d="M676.96,-92.9C683.73,-91.53 690.46,-90.22 697,-89 801.31,-69.6 828.82,-73.1 933,-53 935.96,-52.43 938.96,-51.83 941.98,-51.22"/>
<polygon fill="midnightblue" stroke="midnightblue" points="676.12,-89.5 667.02,-94.94 677.52,-96.36 676.12,-89.5"/>
</g>
</g>
</svg>
