<?xml version="1.0" encoding="UTF-8" standalone="no"?>
<!DOCTYPE svg PUBLIC "-//W3C//DTD SVG 1.1//EN"
 "http://www.w3.org/Graphics/SVG/1.1/DTD/svg11.dtd">
<!-- Generated by graphviz version 2.43.0 (0)
 -->
<!-- Title: /home/runner/work/cbmc&#45;documentation/cbmc&#45;documentation/src/util/expanding_vector.h Pages: 1 -->
<svg width="1554pt" height="317pt"
 viewBox="0.00 0.00 1554.00 317.00" xmlns="http://www.w3.org/2000/svg" xmlns:xlink="http://www.w3.org/1999/xlink">
<g id="graph0" class="graph" transform="scale(1 1) rotate(0) translate(4 313)">
<title>/home/runner/work/cbmc&#45;documentation/cbmc&#45;documentation/src/util/expanding_vector.h</title>
<!-- Node1 -->
<g id="node1" class="node">
<title>Node1</title>
<g id="a_node1"><a xlink:title=" ">
<polygon fill="#bfbfbf" stroke="black" points="609,-267.5 609,-308.5 809,-308.5 809,-267.5 609,-267.5"/>
<text text-anchor="start" x="617" y="-296.5" font-family="Helvetica,sans-Serif" font-size="10.00">/home/runner/work/cbmc</text>
<text text-anchor="start" x="617" y="-285.5" font-family="Helvetica,sans-Serif" font-size="10.00">&#45;documentation/cbmc&#45;documentation</text>
<text text-anchor="middle" x="709" y="-274.5" font-family="Helvetica,sans-Serif" font-size="10.00">/src/util/expanding_vector.h</text>
</a>
</g>
</g>
<!-- Node2 -->
<g id="node2" class="node">
<title>Node2</title>
<g id="a_node2"><a xlink:href="local__bitvector__analysis_8h.html" target="_top" xlink:title=" ">
<polygon fill="none" stroke="black" points="436,-178.5 436,-230.5 636,-230.5 636,-178.5 436,-178.5"/>
<text text-anchor="start" x="444" y="-218.5" font-family="Helvetica,sans-Serif" font-size="10.00">/home/runner/work/cbmc</text>
<text text-anchor="start" x="444" y="-207.5" font-family="Helvetica,sans-Serif" font-size="10.00">&#45;documentation/cbmc&#45;documentation</text>
<text text-anchor="start" x="444" y="-196.5" font-family="Helvetica,sans-Serif" font-size="10.00">/src/analyses/local_bitvector</text>
<text text-anchor="middle" x="536" y="-185.5" font-family="Helvetica,sans-Serif" font-size="10.00">_analysis.h</text>
</a>
</g>
</g>
<!-- Node1&#45;&gt;Node2 -->
<g id="edge1" class="edge">
<title>Node1&#45;&gt;Node2</title>
<path fill="none" stroke="midnightblue" d="M658.49,-263.2C636.73,-252.95 611.28,-240.96 589.23,-230.58"/>
<polygon fill="midnightblue" stroke="midnightblue" points="657.02,-266.38 667.56,-267.48 660.01,-260.05 657.02,-266.38"/>
</g>
<!-- Node7 -->
<g id="node7" class="node">
<title>Node7</title>
<g id="a_node7"><a xlink:href="java__bytecode__convert__method__class_8h.html" target="_top" xlink:title=" ">
<polygon fill="none" stroke="black" points="846,-178.5 846,-230.5 1046,-230.5 1046,-178.5 846,-178.5"/>
<text text-anchor="start" x="854" y="-218.5" font-family="Helvetica,sans-Serif" font-size="10.00">/home/runner/work/cbmc</text>
<text text-anchor="start" x="854" y="-207.5" font-family="Helvetica,sans-Serif" font-size="10.00">&#45;documentation/cbmc&#45;documentation</text>
<text text-anchor="start" x="854" y="-196.5" font-family="Helvetica,sans-Serif" font-size="10.00">/jbmc/src/java_bytecode/java</text>
<text text-anchor="middle" x="946" y="-185.5" font-family="Helvetica,sans-Serif" font-size="10.00">_bytecode_convert_method_class.h</text>
</a>
</g>
</g>
<!-- Node1&#45;&gt;Node7 -->
<g id="edge6" class="edge">
<title>Node1&#45;&gt;Node7</title>
<path fill="none" stroke="midnightblue" d="M775.42,-264.16C805.82,-253.7 841.93,-241.29 873.08,-230.58"/>
<polygon fill="midnightblue" stroke="midnightblue" points="774.09,-260.92 765.77,-267.48 776.36,-267.54 774.09,-260.92"/>
</g>
<!-- Node3 -->
<g id="node3" class="node">
<title>Node3</title>
<g id="a_node3"><a xlink:href="local__bitvector__analysis_8cpp.html" target="_top" xlink:title=" ">
<polygon fill="none" stroke="black" points="0,-89.5 0,-141.5 200,-141.5 200,-89.5 0,-89.5"/>
<text text-anchor="start" x="8" y="-129.5" font-family="Helvetica,sans-Serif" font-size="10.00">/home/runner/work/cbmc</text>
<text text-anchor="start" x="8" y="-118.5" font-family="Helvetica,sans-Serif" font-size="10.00">&#45;documentation/cbmc&#45;documentation</text>
<text text-anchor="start" x="8" y="-107.5" font-family="Helvetica,sans-Serif" font-size="10.00">/src/analyses/local_bitvector</text>
<text text-anchor="middle" x="100" y="-96.5" font-family="Helvetica,sans-Serif" font-size="10.00">_analysis.cpp</text>
</a>
</g>
</g>
<!-- Node2&#45;&gt;Node3 -->
<g id="edge2" class="edge">
<title>Node2&#45;&gt;Node3</title>
<path fill="none" stroke="midnightblue" d="M425.91,-184.04C362.37,-172.5 281.03,-157.19 209,-142 206.05,-141.38 203.06,-140.74 200.05,-140.08"/>
<polygon fill="midnightblue" stroke="midnightblue" points="425.49,-187.52 435.95,-185.86 426.74,-180.63 425.49,-187.52"/>
</g>
<!-- Node4 -->
<g id="node4" class="node">
<title>Node4</title>
<g id="a_node4"><a xlink:href="goto__check__c_8cpp.html" target="_top" xlink:title=" ">
<polygon fill="none" stroke="black" points="218,-95 218,-136 418,-136 418,-95 218,-95"/>
<text text-anchor="start" x="226" y="-124" font-family="Helvetica,sans-Serif" font-size="10.00">/home/runner/work/cbmc</text>
<text text-anchor="start" x="226" y="-113" font-family="Helvetica,sans-Serif" font-size="10.00">&#45;documentation/cbmc&#45;documentation</text>
<text text-anchor="middle" x="318" y="-102" font-family="Helvetica,sans-Serif" font-size="10.00">/src/ansi&#45;c/goto_check_c.cpp</text>
</a>
</g>
</g>
<!-- Node2&#45;&gt;Node4 -->
<g id="edge3" class="edge">
<title>Node2&#45;&gt;Node4</title>
<path fill="none" stroke="midnightblue" d="M463.58,-174.6C431.93,-161.97 395.63,-147.48 367.2,-136.13"/>
<polygon fill="midnightblue" stroke="midnightblue" points="462.65,-178 473.24,-178.45 465.25,-171.5 462.65,-178"/>
</g>
<!-- Node5 -->
<g id="node5" class="node">
<title>Node5</title>
<g id="a_node5"><a xlink:href="contracts_8cpp.html" target="_top" xlink:title=" ">
<polygon fill="none" stroke="black" points="436,-89.5 436,-141.5 636,-141.5 636,-89.5 436,-89.5"/>
<text text-anchor="start" x="444" y="-129.5" font-family="Helvetica,sans-Serif" font-size="10.00">/home/runner/work/cbmc</text>
<text text-anchor="start" x="444" y="-118.5" font-family="Helvetica,sans-Serif" font-size="10.00">&#45;documentation/cbmc&#45;documentation</text>
<text text-anchor="start" x="444" y="-107.5" font-family="Helvetica,sans-Serif" font-size="10.00">/src/goto&#45;instrument/contracts</text>
<text text-anchor="middle" x="536" y="-96.5" font-family="Helvetica,sans-Serif" font-size="10.00">/contracts.cpp</text>
</a>
</g>
</g>
<!-- Node2&#45;&gt;Node5 -->
<g id="edge4" class="edge">
<title>Node2&#45;&gt;Node5</title>
<path fill="none" stroke="midnightblue" d="M536,-168.19C536,-159.28 536,-149.9 536,-141.61"/>
<polygon fill="midnightblue" stroke="midnightblue" points="532.5,-168.34 536,-178.34 539.5,-168.34 532.5,-168.34"/>
</g>
<!-- Node6 -->
<g id="node6" class="node">
<title>Node6</title>
<g id="a_node6"><a xlink:href="goto__instrument__parse__options_8cpp.html" target="_top" xlink:title=" ">
<polygon fill="none" stroke="black" points="654,-89.5 654,-141.5 854,-141.5 854,-89.5 654,-89.5"/>
<text text-anchor="start" x="662" y="-129.5" font-family="Helvetica,sans-Serif" font-size="10.00">/home/runner/work/cbmc</text>
<text text-anchor="start" x="662" y="-118.5" font-family="Helvetica,sans-Serif" font-size="10.00">&#45;documentation/cbmc&#45;documentation</text>
<text text-anchor="start" x="662" y="-107.5" font-family="Helvetica,sans-Serif" font-size="10.00">/src/goto&#45;instrument/goto_instrument</text>
<text text-anchor="middle" x="754" y="-96.5" font-family="Helvetica,sans-Serif" font-size="10.00">_parse_options.cpp</text>
</a>
</g>
</g>
<!-- Node2&#45;&gt;Node6 -->
<g id="edge5" class="edge">
<title>Node2&#45;&gt;Node6</title>
<path fill="none" stroke="midnightblue" d="M608.12,-174.72C635.02,-163.98 665.32,-151.89 691.3,-141.52"/>
<polygon fill="midnightblue" stroke="midnightblue" points="606.75,-171.5 598.76,-178.45 609.35,-178 606.75,-171.5"/>
</g>
<!-- Node8 -->
<g id="node8" class="node">
<title>Node8</title>
<g id="a_node8"><a xlink:href="java__bytecode__convert__method_8h.html" target="_top" xlink:title=" ">
<polygon fill="none" stroke="black" points="910,-89.5 910,-141.5 1110,-141.5 1110,-89.5 910,-89.5"/>
<text text-anchor="start" x="918" y="-129.5" font-family="Helvetica,sans-Serif" font-size="10.00">/home/runner/work/cbmc</text>
<text text-anchor="start" x="918" y="-118.5" font-family="Helvetica,sans-Serif" font-size="10.00">&#45;documentation/cbmc&#45;documentation</text>
<text text-anchor="start" x="918" y="-107.5" font-family="Helvetica,sans-Serif" font-size="10.00">/jbmc/src/java_bytecode/java</text>
<text text-anchor="middle" x="1010" y="-96.5" font-family="Helvetica,sans-Serif" font-size="10.00">_bytecode_convert_method.h</text>
</a>
</g>
</g>
<!-- Node7&#45;&gt;Node8 -->
<g id="edge7" class="edge">
<title>Node7&#45;&gt;Node8</title>
<path fill="none" stroke="midnightblue" d="M970.49,-170.22C977.47,-160.72 984.97,-150.53 991.53,-141.61"/>
<polygon fill="midnightblue" stroke="midnightblue" points="967.62,-168.21 964.51,-178.34 973.26,-172.35 967.62,-168.21"/>
</g>
<!-- Node10 -->
<g id="node10" class="node">
<title>Node10</title>
<g id="a_node10"><a xlink:href="java__bytecode__convert__method_8cpp.html" target="_top" xlink:title=" ">
<polygon fill="none" stroke="black" points="692,-0.5 692,-52.5 892,-52.5 892,-0.5 692,-0.5"/>
<text text-anchor="start" x="700" y="-40.5" font-family="Helvetica,sans-Serif" font-size="10.00">/home/runner/work/cbmc</text>
<text text-anchor="start" x="700" y="-29.5" font-family="Helvetica,sans-Serif" font-size="10.00">&#45;documentation/cbmc&#45;documentation</text>
<text text-anchor="start" x="700" y="-18.5" font-family="Helvetica,sans-Serif" font-size="10.00">/jbmc/src/java_bytecode/java</text>
<text text-anchor="middle" x="792" y="-7.5" font-family="Helvetica,sans-Serif" font-size="10.00">_bytecode_convert_method.cpp</text>
</a>
</g>
</g>
<!-- Node7&#45;&gt;Node10 -->
<g id="edge12" class="edge">
<title>Node7&#45;&gt;Node10</title>
<path fill="none" stroke="midnightblue" d="M921.59,-170.27C914.9,-161.12 907.65,-151.19 901,-142 884,-118.53 882.53,-110.41 863,-89 851.24,-76.11 836.91,-63.25 824.21,-52.65"/>
<polygon fill="midnightblue" stroke="midnightblue" points="918.82,-172.41 927.55,-178.41 924.47,-168.27 918.82,-172.41"/>
</g>
<!-- Node13 -->
<g id="node13" class="node">
<title>Node13</title>
<g id="a_node13"><a xlink:href="java__local__variable__table_8cpp.html" target="_top" xlink:title=" ">
<polygon fill="none" stroke="black" points="1128,-89.5 1128,-141.5 1328,-141.5 1328,-89.5 1128,-89.5"/>
<text text-anchor="start" x="1136" y="-129.5" font-family="Helvetica,sans-Serif" font-size="10.00">/home/runner/work/cbmc</text>
<text text-anchor="start" x="1136" y="-118.5" font-family="Helvetica,sans-Serif" font-size="10.00">&#45;documentation/cbmc&#45;documentation</text>
<text text-anchor="start" x="1136" y="-107.5" font-family="Helvetica,sans-Serif" font-size="10.00">/jbmc/src/java_bytecode/java</text>
<text text-anchor="middle" x="1228" y="-96.5" font-family="Helvetica,sans-Serif" font-size="10.00">_local_variable_table.cpp</text>
</a>
</g>
</g>
<!-- Node7&#45;&gt;Node13 -->
<g id="edge13" class="edge">
<title>Node7&#45;&gt;Node13</title>
<path fill="none" stroke="midnightblue" d="M1037.02,-175.42C1072.38,-164.51 1112.55,-152.12 1146.9,-141.52"/>
<polygon fill="midnightblue" stroke="midnightblue" points="1035.71,-172.16 1027.19,-178.45 1037.78,-178.85 1035.71,-172.16"/>
</g>
<!-- Node9 -->
<g id="node9" class="node">
<title>Node9</title>
<g id="a_node9"><a xlink:href="java__bytecode__convert__class_8cpp.html" target="_top" xlink:title=" ">
<polygon fill="none" stroke="black" points="910,-0.5 910,-52.5 1110,-52.5 1110,-0.5 910,-0.5"/>
<text text-anchor="start" x="918" y="-40.5" font-family="Helvetica,sans-Serif" font-size="10.00">/home/runner/work/cbmc</text>
<text text-anchor="start" x="918" y="-29.5" font-family="Helvetica,sans-Serif" font-size="10.00">&#45;documentation/cbmc&#45;documentation</text>
<text text-anchor="start" x="918" y="-18.5" font-family="Helvetica,sans-Serif" font-size="10.00">/jbmc/src/java_bytecode/java</text>
<text text-anchor="middle" x="1010" y="-7.5" font-family="Helvetica,sans-Serif" font-size="10.00">_bytecode_convert_class.cpp</text>
</a>
</g>
</g>
<!-- Node8&#45;&gt;Node9 -->
<g id="edge8" class="edge">
<title>Node8&#45;&gt;Node9</title>
<path fill="none" stroke="midnightblue" d="M1010,-79.19C1010,-70.28 1010,-60.9 1010,-52.61"/>
<polygon fill="midnightblue" stroke="midnightblue" points="1006.5,-79.34 1010,-89.34 1013.5,-79.34 1006.5,-79.34"/>
</g>
<!-- Node8&#45;&gt;Node10 -->
<g id="edge9" class="edge">
<title>Node8&#45;&gt;Node10</title>
<path fill="none" stroke="midnightblue" d="M937.88,-85.72C910.98,-74.98 880.68,-62.89 854.7,-52.52"/>
<polygon fill="midnightblue" stroke="midnightblue" points="936.65,-89 947.24,-89.45 939.25,-82.5 936.65,-89"/>
</g>
<!-- Node11 -->
<g id="node11" class="node">
<title>Node11</title>
<g id="a_node11"><a xlink:href="java__bytecode__language_8cpp.html" target="_top" xlink:title=" ">
<polygon fill="none" stroke="black" points="1128,-0.5 1128,-52.5 1328,-52.5 1328,-0.5 1128,-0.5"/>
<text text-anchor="start" x="1136" y="-40.5" font-family="Helvetica,sans-Serif" font-size="10.00">/home/runner/work/cbmc</text>
<text text-anchor="start" x="1136" y="-29.5" font-family="Helvetica,sans-Serif" font-size="10.00">&#45;documentation/cbmc&#45;documentation</text>
<text text-anchor="start" x="1136" y="-18.5" font-family="Helvetica,sans-Serif" font-size="10.00">/jbmc/src/java_bytecode/java</text>
<text text-anchor="middle" x="1228" y="-7.5" font-family="Helvetica,sans-Serif" font-size="10.00">_bytecode_language.cpp</text>
</a>
</g>
</g>
<!-- Node8&#45;&gt;Node11 -->
<g id="edge10" class="edge">
<title>Node8&#45;&gt;Node11</title>
<path fill="none" stroke="midnightblue" d="M1082.12,-85.72C1109.02,-74.98 1139.32,-62.89 1165.3,-52.52"/>
<polygon fill="midnightblue" stroke="midnightblue" points="1080.75,-82.5 1072.76,-89.45 1083.35,-89 1080.75,-82.5"/>
</g>
<!-- Node12 -->
<g id="node12" class="node">
<title>Node12</title>
<g id="a_node12"><a xlink:href="lambda__synthesis_8cpp.html" target="_top" xlink:title=" ">
<polygon fill="none" stroke="black" points="1346,-0.5 1346,-52.5 1546,-52.5 1546,-0.5 1346,-0.5"/>
<text text-anchor="start" x="1354" y="-40.5" font-family="Helvetica,sans-Serif" font-size="10.00">/home/runner/work/cbmc</text>
<text text-anchor="start" x="1354" y="-29.5" font-family="Helvetica,sans-Serif" font-size="10.00">&#45;documentation/cbmc&#45;documentation</text>
<text text-anchor="start" x="1354" y="-18.5" font-family="Helvetica,sans-Serif" font-size="10.00">/jbmc/src/java_bytecode/lambda</text>
<text text-anchor="middle" x="1446" y="-7.5" font-family="Helvetica,sans-Serif" font-size="10.00">_synthesis.cpp</text>
</a>
</g>
</g>
<!-- Node8&#45;&gt;Node12 -->
<g id="edge11" class="edge">
<title>Node8&#45;&gt;Node12</title>
<path fill="none" stroke="midnightblue" d="M1119.96,-88.87C1217.02,-69.94 1243.8,-71.58 1337,-53 1339.95,-52.41 1342.95,-51.8 1345.97,-51.17"/>
<polygon fill="midnightblue" stroke="midnightblue" points="1119.16,-85.46 1110.03,-90.83 1120.52,-92.33 1119.16,-85.46"/>
</g>
</g>
</svg>
