<?xml version="1.0" encoding="UTF-8" standalone="no"?>
<!DOCTYPE svg PUBLIC "-//W3C//DTD SVG 1.1//EN"
 "http://www.w3.org/Graphics/SVG/1.1/DTD/svg11.dtd">
<!-- Generated by graphviz version 2.43.0 (0)
 -->
<!-- Title: /home/runner/work/cbmc&#45;documentation/cbmc&#45;documentation/src/util/expr_initializer.h Pages: 1 -->
<svg width="4162pt" height="139pt"
 viewBox="0.00 0.00 4162.00 139.00" xmlns="http://www.w3.org/2000/svg" xmlns:xlink="http://www.w3.org/1999/xlink">
<g id="graph0" class="graph" transform="scale(1 1) rotate(0) translate(4 135)">
<title>/home/runner/work/cbmc&#45;documentation/cbmc&#45;documentation/src/util/expr_initializer.h</title>
<!-- Node1 -->
<g id="node1" class="node">
<title>Node1</title>
<g id="a_node1"><a xlink:title=" ">
<polygon fill="#bfbfbf" stroke="black" points="1992,-89.5 1992,-130.5 2192,-130.5 2192,-89.5 1992,-89.5"/>
<text text-anchor="start" x="2000" y="-118.5" font-family="Helvetica,sans-Serif" font-size="10.00">/home/runner/work/cbmc</text>
<text text-anchor="start" x="2000" y="-107.5" font-family="Helvetica,sans-Serif" font-size="10.00">&#45;documentation/cbmc&#45;documentation</text>
<text text-anchor="middle" x="2092" y="-96.5" font-family="Helvetica,sans-Serif" font-size="10.00">/src/util/expr_initializer.h</text>
</a>
</g>
</g>
<!-- Node2 -->
<g id="node2" class="node">
<title>Node2</title>
<g id="a_node2"><a xlink:href="c__typecheck__initializer_8cpp.html" target="_top" xlink:title=" ">
<polygon fill="none" stroke="black" points="0,-6 0,-47 200,-47 200,-6 0,-6"/>
<text text-anchor="start" x="8" y="-35" font-family="Helvetica,sans-Serif" font-size="10.00">/home/runner/work/cbmc</text>
<text text-anchor="start" x="8" y="-24" font-family="Helvetica,sans-Serif" font-size="10.00">&#45;documentation/cbmc&#45;documentation</text>
<text text-anchor="middle" x="100" y="-13" font-family="Helvetica,sans-Serif" font-size="10.00">/src/ansi&#45;c/c_typecheck_initializer.cpp</text>
</a>
</g>
</g>
<!-- Node1&#45;&gt;Node2 -->
<g id="edge1" class="edge">
<title>Node1&#45;&gt;Node2</title>
<path fill="none" stroke="midnightblue" d="M1981.65,-108.62C1632.57,-106.94 555.03,-98.16 209,-53 197.82,-51.54 186.12,-49.43 174.69,-47.05"/>
<polygon fill="midnightblue" stroke="midnightblue" points="1981.75,-112.12 1991.76,-108.66 1981.78,-105.12 1981.75,-112.12"/>
</g>
<!-- Node3 -->
<g id="node3" class="node">
<title>Node3</title>
<g id="a_node3"><a xlink:href="cpp__typecheck__expr_8cpp.html" target="_top" xlink:title=" ">
<polygon fill="none" stroke="black" points="218,-6 218,-47 418,-47 418,-6 218,-6"/>
<text text-anchor="start" x="226" y="-35" font-family="Helvetica,sans-Serif" font-size="10.00">/home/runner/work/cbmc</text>
<text text-anchor="start" x="226" y="-24" font-family="Helvetica,sans-Serif" font-size="10.00">&#45;documentation/cbmc&#45;documentation</text>
<text text-anchor="middle" x="318" y="-13" font-family="Helvetica,sans-Serif" font-size="10.00">/src/cpp/cpp_typecheck_expr.cpp</text>
</a>
</g>
</g>
<!-- Node1&#45;&gt;Node3 -->
<g id="edge2" class="edge">
<title>Node1&#45;&gt;Node3</title>
<path fill="none" stroke="midnightblue" d="M1981.63,-108.11C1660.25,-105.08 728.81,-92.99 427,-53 415.83,-51.52 404.12,-49.4 392.7,-47.01"/>
<polygon fill="midnightblue" stroke="midnightblue" points="1981.85,-111.61 1991.88,-108.21 1981.91,-104.61 1981.85,-111.61"/>
</g>
<!-- Node4 -->
<g id="node4" class="node">
<title>Node4</title>
<g id="a_node4"><a xlink:href="cpp__typecheck__initializer_8cpp.html" target="_top" xlink:title=" ">
<polygon fill="none" stroke="black" points="436,-6 436,-47 636,-47 636,-6 436,-6"/>
<text text-anchor="start" x="444" y="-35" font-family="Helvetica,sans-Serif" font-size="10.00">/home/runner/work/cbmc</text>
<text text-anchor="start" x="444" y="-24" font-family="Helvetica,sans-Serif" font-size="10.00">&#45;documentation/cbmc&#45;documentation</text>
<text text-anchor="middle" x="536" y="-13" font-family="Helvetica,sans-Serif" font-size="10.00">/src/cpp/cpp_typecheck_initializer.cpp</text>
</a>
</g>
</g>
<!-- Node1&#45;&gt;Node4 -->
<g id="edge3" class="edge">
<title>Node1&#45;&gt;Node4</title>
<path fill="none" stroke="midnightblue" d="M1981.79,-107.46C1690.14,-102.95 902.92,-87.83 645,-53 633.93,-51.5 622.33,-49.39 611,-47.02"/>
<polygon fill="midnightblue" stroke="midnightblue" points="1981.9,-110.96 1991.95,-107.62 1982.01,-103.96 1981.9,-110.96"/>
</g>
<!-- Node5 -->
<g id="node5" class="node">
<title>Node5</title>
<g id="a_node5"><a xlink:href="linker__script__merge_8cpp.html" target="_top" xlink:title=" ">
<polygon fill="none" stroke="black" points="654,-6 654,-47 854,-47 854,-6 654,-6"/>
<text text-anchor="start" x="662" y="-35" font-family="Helvetica,sans-Serif" font-size="10.00">/home/runner/work/cbmc</text>
<text text-anchor="start" x="662" y="-24" font-family="Helvetica,sans-Serif" font-size="10.00">&#45;documentation/cbmc&#45;documentation</text>
<text text-anchor="middle" x="754" y="-13" font-family="Helvetica,sans-Serif" font-size="10.00">/src/goto&#45;cc/linker_script_merge.cpp</text>
</a>
</g>
</g>
<!-- Node1&#45;&gt;Node5 -->
<g id="edge4" class="edge">
<title>Node1&#45;&gt;Node5</title>
<path fill="none" stroke="midnightblue" d="M1981.64,-106.58C1721.81,-100.45 1077.26,-82.69 863,-53 852.03,-51.48 840.54,-49.37 829.3,-47.01"/>
<polygon fill="midnightblue" stroke="midnightblue" points="1981.77,-110.08 1991.85,-106.82 1981.93,-103.08 1981.77,-110.08"/>
</g>
<!-- Node6 -->
<g id="node6" class="node">
<title>Node6</title>
<g id="a_node6"><a xlink:href="dump__c_8cpp.html" target="_top" xlink:title=" ">
<polygon fill="none" stroke="black" points="872,-6 872,-47 1072,-47 1072,-6 872,-6"/>
<text text-anchor="start" x="880" y="-35" font-family="Helvetica,sans-Serif" font-size="10.00">/home/runner/work/cbmc</text>
<text text-anchor="start" x="880" y="-24" font-family="Helvetica,sans-Serif" font-size="10.00">&#45;documentation/cbmc&#45;documentation</text>
<text text-anchor="middle" x="972" y="-13" font-family="Helvetica,sans-Serif" font-size="10.00">/src/goto&#45;instrument/dump_c.cpp</text>
</a>
</g>
</g>
<!-- Node1&#45;&gt;Node6 -->
<g id="edge5" class="edge">
<title>Node1&#45;&gt;Node6</title>
<path fill="none" stroke="midnightblue" d="M1981.61,-109.16C1795.08,-108.04 1406.07,-99.66 1081,-53 1070.23,-51.45 1058.95,-49.36 1047.91,-47.04"/>
<polygon fill="midnightblue" stroke="midnightblue" points="1981.68,-112.67 1991.7,-109.22 1981.72,-105.67 1981.68,-112.67"/>
</g>
<!-- Node7 -->
<g id="node7" class="node">
<title>Node7</title>
<g id="a_node7"><a xlink:href="builtin__functions_8cpp.html" target="_top" xlink:title=" ">
<polygon fill="none" stroke="black" points="1090.5,-6 1090.5,-47 1303.5,-47 1303.5,-6 1090.5,-6"/>
<text text-anchor="start" x="1098.5" y="-35" font-family="Helvetica,sans-Serif" font-size="10.00">/home/runner/work/cbmc</text>
<text text-anchor="start" x="1098.5" y="-24" font-family="Helvetica,sans-Serif" font-size="10.00">&#45;documentation/cbmc&#45;documentation</text>
<text text-anchor="middle" x="1197" y="-13" font-family="Helvetica,sans-Serif" font-size="10.00">/src/goto&#45;programs/builtin_functions.cpp</text>
</a>
</g>
</g>
<!-- Node1&#45;&gt;Node7 -->
<g id="edge6" class="edge">
<title>Node1&#45;&gt;Node7</title>
<path fill="none" stroke="midnightblue" d="M1981.66,-106.09C1830.22,-100.95 1549.77,-87.35 1313,-53 1301.88,-51.39 1290.24,-49.3 1278.8,-47.03"/>
<polygon fill="midnightblue" stroke="midnightblue" points="1981.79,-109.59 1991.9,-106.43 1982.02,-102.6 1981.79,-109.59"/>
</g>
<!-- Node8 -->
<g id="node8" class="node">
<title>Node8</title>
<g id="a_node8"><a xlink:href="symex__builtin__functions_8cpp.html" target="_top" xlink:title=" ">
<polygon fill="none" stroke="black" points="1322,-0.5 1322,-52.5 1522,-52.5 1522,-0.5 1322,-0.5"/>
<text text-anchor="start" x="1330" y="-40.5" font-family="Helvetica,sans-Serif" font-size="10.00">/home/runner/work/cbmc</text>
<text text-anchor="start" x="1330" y="-29.5" font-family="Helvetica,sans-Serif" font-size="10.00">&#45;documentation/cbmc&#45;documentation</text>
<text text-anchor="start" x="1330" y="-18.5" font-family="Helvetica,sans-Serif" font-size="10.00">/src/goto&#45;symex/symex_builtin</text>
<text text-anchor="middle" x="1422" y="-7.5" font-family="Helvetica,sans-Serif" font-size="10.00">_functions.cpp</text>
</a>
</g>
</g>
<!-- Node1&#45;&gt;Node8 -->
<g id="edge7" class="edge">
<title>Node1&#45;&gt;Node8</title>
<path fill="none" stroke="midnightblue" d="M1981.83,-102.26C1868.3,-94.32 1686.47,-78.83 1531,-53 1528.12,-52.52 1525.21,-52.01 1522.28,-51.48"/>
<polygon fill="midnightblue" stroke="midnightblue" points="1981.7,-105.76 1991.92,-102.96 1982.18,-98.78 1981.7,-105.76"/>
</g>
<!-- Node9 -->
<g id="node9" class="node">
<title>Node9</title>
<g id="a_node9"><a xlink:href="symex__start__thread_8cpp.html" target="_top" xlink:title=" ">
<polygon fill="none" stroke="black" points="1540,-6 1540,-47 1756,-47 1756,-6 1540,-6"/>
<text text-anchor="start" x="1548" y="-35" font-family="Helvetica,sans-Serif" font-size="10.00">/home/runner/work/cbmc</text>
<text text-anchor="start" x="1548" y="-24" font-family="Helvetica,sans-Serif" font-size="10.00">&#45;documentation/cbmc&#45;documentation</text>
<text text-anchor="middle" x="1648" y="-13" font-family="Helvetica,sans-Serif" font-size="10.00">/src/goto&#45;symex/symex_start_thread.cpp</text>
</a>
</g>
</g>
<!-- Node1&#45;&gt;Node9 -->
<g id="edge8" class="edge">
<title>Node1&#45;&gt;Node9</title>
<path fill="none" stroke="midnightblue" d="M1981.93,-91.42C1918.39,-80.95 1837.05,-67.01 1765,-53 1755.41,-51.13 1745.4,-49.09 1735.44,-47.01"/>
<polygon fill="midnightblue" stroke="midnightblue" points="1981.53,-94.9 1991.97,-93.07 1982.67,-87.99 1981.53,-94.9"/>
</g>
<!-- Node10 -->
<g id="node10" class="node">
<title>Node10</title>
<g id="a_node10"><a xlink:href="static__lifetime__init_8cpp.html" target="_top" xlink:title=" ">
<polygon fill="none" stroke="black" points="1774,-6 1774,-47 1974,-47 1974,-6 1774,-6"/>
<text text-anchor="start" x="1782" y="-35" font-family="Helvetica,sans-Serif" font-size="10.00">/home/runner/work/cbmc</text>
<text text-anchor="start" x="1782" y="-24" font-family="Helvetica,sans-Serif" font-size="10.00">&#45;documentation/cbmc&#45;documentation</text>
<text text-anchor="middle" x="1874" y="-13" font-family="Helvetica,sans-Serif" font-size="10.00">/src/linking/static_lifetime_init.cpp</text>
</a>
</g>
</g>
<!-- Node1&#45;&gt;Node10 -->
<g id="edge9" class="edge">
<title>Node1&#45;&gt;Node10</title>
<path fill="none" stroke="midnightblue" d="M2030.28,-85.92C1997.42,-73.64 1957.46,-58.7 1926.17,-47"/>
<polygon fill="midnightblue" stroke="midnightblue" points="2029.19,-89.26 2039.78,-89.48 2031.64,-82.7 2029.19,-89.26"/>
</g>
<!-- Node11 -->
<g id="node11" class="node">
<title>Node11</title>
<g id="a_node11"><a xlink:href="analyze__symbol_8cpp.html" target="_top" xlink:title=" ">
<polygon fill="none" stroke="black" points="1992,-0.5 1992,-52.5 2192,-52.5 2192,-0.5 1992,-0.5"/>
<text text-anchor="start" x="2000" y="-40.5" font-family="Helvetica,sans-Serif" font-size="10.00">/home/runner/work/cbmc</text>
<text text-anchor="start" x="2000" y="-29.5" font-family="Helvetica,sans-Serif" font-size="10.00">&#45;documentation/cbmc&#45;documentation</text>
<text text-anchor="start" x="2000" y="-18.5" font-family="Helvetica,sans-Serif" font-size="10.00">/src/memory&#45;analyzer/analyze</text>
<text text-anchor="middle" x="2092" y="-7.5" font-family="Helvetica,sans-Serif" font-size="10.00">_symbol.cpp</text>
</a>
</g>
</g>
<!-- Node1&#45;&gt;Node11 -->
<g id="edge10" class="edge">
<title>Node1&#45;&gt;Node11</title>
<path fill="none" stroke="midnightblue" d="M2092,-79.12C2092,-70.41 2092,-60.99 2092,-52.61"/>
<polygon fill="midnightblue" stroke="midnightblue" points="2088.5,-79.27 2092,-89.27 2095.5,-79.27 2088.5,-79.27"/>
</g>
<!-- Node12 -->
<g id="node12" class="node">
<title>Node12</title>
<g id="a_node12"><a xlink:href="expr__initializer_8cpp.html" target="_top" xlink:title=" ">
<polygon fill="none" stroke="black" points="2210,-6 2210,-47 2410,-47 2410,-6 2210,-6"/>
<text text-anchor="start" x="2218" y="-35" font-family="Helvetica,sans-Serif" font-size="10.00">/home/runner/work/cbmc</text>
<text text-anchor="start" x="2218" y="-24" font-family="Helvetica,sans-Serif" font-size="10.00">&#45;documentation/cbmc&#45;documentation</text>
<text text-anchor="middle" x="2310" y="-13" font-family="Helvetica,sans-Serif" font-size="10.00">/src/util/expr_initializer.cpp</text>
</a>
</g>
</g>
<!-- Node1&#45;&gt;Node12 -->
<g id="edge11" class="edge">
<title>Node1&#45;&gt;Node12</title>
<path fill="none" stroke="midnightblue" d="M2153.72,-85.92C2186.58,-73.64 2226.54,-58.7 2257.83,-47"/>
<polygon fill="midnightblue" stroke="midnightblue" points="2152.36,-82.7 2144.22,-89.48 2154.81,-89.26 2152.36,-82.7"/>
</g>
<!-- Node13 -->
<g id="node13" class="node">
<title>Node13</title>
<g id="a_node13"><a xlink:href="assignments__from__json_8cpp.html" target="_top" xlink:title=" ">
<polygon fill="none" stroke="black" points="2428,-0.5 2428,-52.5 2628,-52.5 2628,-0.5 2428,-0.5"/>
<text text-anchor="start" x="2436" y="-40.5" font-family="Helvetica,sans-Serif" font-size="10.00">/home/runner/work/cbmc</text>
<text text-anchor="start" x="2436" y="-29.5" font-family="Helvetica,sans-Serif" font-size="10.00">&#45;documentation/cbmc&#45;documentation</text>
<text text-anchor="start" x="2436" y="-18.5" font-family="Helvetica,sans-Serif" font-size="10.00">/jbmc/src/java_bytecode/assignments</text>
<text text-anchor="middle" x="2528" y="-7.5" font-family="Helvetica,sans-Serif" font-size="10.00">_from_json.cpp</text>
</a>
</g>
</g>
<!-- Node1&#45;&gt;Node13 -->
<g id="edge12" class="edge">
<title>Node1&#45;&gt;Node13</title>
<path fill="none" stroke="midnightblue" d="M2202.15,-91.83C2265.72,-81.5 2347.06,-67.56 2419,-53 2421.95,-52.4 2424.95,-51.78 2427.97,-51.15"/>
<polygon fill="midnightblue" stroke="midnightblue" points="2201.42,-88.4 2192.11,-93.46 2202.54,-95.31 2201.42,-88.4"/>
</g>
<!-- Node14 -->
<g id="node14" class="node">
<title>Node14</title>
<g id="a_node14"><a xlink:href="java__bytecode__convert__class_8cpp.html" target="_top" xlink:title=" ">
<polygon fill="none" stroke="black" points="2646,-0.5 2646,-52.5 2846,-52.5 2846,-0.5 2646,-0.5"/>
<text text-anchor="start" x="2654" y="-40.5" font-family="Helvetica,sans-Serif" font-size="10.00">/home/runner/work/cbmc</text>
<text text-anchor="start" x="2654" y="-29.5" font-family="Helvetica,sans-Serif" font-size="10.00">&#45;documentation/cbmc&#45;documentation</text>
<text text-anchor="start" x="2654" y="-18.5" font-family="Helvetica,sans-Serif" font-size="10.00">/jbmc/src/java_bytecode/java</text>
<text text-anchor="middle" x="2746" y="-7.5" font-family="Helvetica,sans-Serif" font-size="10.00">_bytecode_convert_class.cpp</text>
</a>
</g>
</g>
<!-- Node1&#45;&gt;Node14 -->
<g id="edge13" class="edge">
<title>Node1&#45;&gt;Node14</title>
<path fill="none" stroke="midnightblue" d="M2202.37,-101.8C2312.86,-93.63 2487.47,-78.07 2637,-53 2639.88,-52.52 2642.79,-52 2645.72,-51.47"/>
<polygon fill="midnightblue" stroke="midnightblue" points="2201.93,-98.33 2192.21,-102.55 2202.44,-105.31 2201.93,-98.33"/>
</g>
<!-- Node15 -->
<g id="node15" class="node">
<title>Node15</title>
<g id="a_node15"><a xlink:href="java__bytecode__convert__method_8cpp.html" target="_top" xlink:title=" ">
<polygon fill="none" stroke="black" points="2864,-0.5 2864,-52.5 3064,-52.5 3064,-0.5 2864,-0.5"/>
<text text-anchor="start" x="2872" y="-40.5" font-family="Helvetica,sans-Serif" font-size="10.00">/home/runner/work/cbmc</text>
<text text-anchor="start" x="2872" y="-29.5" font-family="Helvetica,sans-Serif" font-size="10.00">&#45;documentation/cbmc&#45;documentation</text>
<text text-anchor="start" x="2872" y="-18.5" font-family="Helvetica,sans-Serif" font-size="10.00">/jbmc/src/java_bytecode/java</text>
<text text-anchor="middle" x="2964" y="-7.5" font-family="Helvetica,sans-Serif" font-size="10.00">_bytecode_convert_method.cpp</text>
</a>
</g>
</g>
<!-- Node1&#45;&gt;Node15 -->
<g id="edge14" class="edge">
<title>Node1&#45;&gt;Node15</title>
<path fill="none" stroke="midnightblue" d="M2202.3,-106.32C2351.21,-101.46 2624.45,-88.21 2855,-53 2857.88,-52.56 2860.8,-52.08 2863.74,-51.58"/>
<polygon fill="midnightblue" stroke="midnightblue" points="2202.12,-102.82 2192.24,-106.64 2202.35,-109.82 2202.12,-102.82"/>
</g>
<!-- Node16 -->
<g id="node16" class="node">
<title>Node16</title>
<g id="a_node16"><a xlink:href="java__entry__point_8cpp.html" target="_top" xlink:title=" ">
<polygon fill="none" stroke="black" points="3082,-0.5 3082,-52.5 3282,-52.5 3282,-0.5 3082,-0.5"/>
<text text-anchor="start" x="3090" y="-40.5" font-family="Helvetica,sans-Serif" font-size="10.00">/home/runner/work/cbmc</text>
<text text-anchor="start" x="3090" y="-29.5" font-family="Helvetica,sans-Serif" font-size="10.00">&#45;documentation/cbmc&#45;documentation</text>
<text text-anchor="start" x="3090" y="-18.5" font-family="Helvetica,sans-Serif" font-size="10.00">/jbmc/src/java_bytecode/java</text>
<text text-anchor="middle" x="3182" y="-7.5" font-family="Helvetica,sans-Serif" font-size="10.00">_entry_point.cpp</text>
</a>
</g>
</g>
<!-- Node1&#45;&gt;Node16 -->
<g id="edge15" class="edge">
<title>Node1&#45;&gt;Node16</title>
<path fill="none" stroke="midnightblue" d="M2202.26,-108.89C2384.45,-107.34 2759.4,-98.29 3073,-53 3075.89,-52.58 3078.81,-52.13 3081.75,-51.64"/>
<polygon fill="midnightblue" stroke="midnightblue" points="2202.11,-105.4 2192.13,-108.97 2202.16,-112.4 2202.11,-105.4"/>
</g>
<!-- Node17 -->
<g id="node17" class="node">
<title>Node17</title>
<g id="a_node17"><a xlink:href="java__object__factory_8cpp.html" target="_top" xlink:title=" ">
<polygon fill="none" stroke="black" points="3300,-0.5 3300,-52.5 3500,-52.5 3500,-0.5 3300,-0.5"/>
<text text-anchor="start" x="3308" y="-40.5" font-family="Helvetica,sans-Serif" font-size="10.00">/home/runner/work/cbmc</text>
<text text-anchor="start" x="3308" y="-29.5" font-family="Helvetica,sans-Serif" font-size="10.00">&#45;documentation/cbmc&#45;documentation</text>
<text text-anchor="start" x="3308" y="-18.5" font-family="Helvetica,sans-Serif" font-size="10.00">/jbmc/src/java_bytecode/java</text>
<text text-anchor="middle" x="3400" y="-7.5" font-family="Helvetica,sans-Serif" font-size="10.00">_object_factory.cpp</text>
</a>
</g>
</g>
<!-- Node1&#45;&gt;Node17 -->
<g id="edge16" class="edge">
<title>Node1&#45;&gt;Node17</title>
<path fill="none" stroke="midnightblue" d="M2202.46,-106.43C2457.75,-100.07 3082.74,-81.98 3291,-53 3293.89,-52.6 3296.81,-52.16 3299.76,-51.68"/>
<polygon fill="midnightblue" stroke="midnightblue" points="2202.34,-102.93 2192.43,-106.68 2202.51,-109.93 2202.34,-102.93"/>
</g>
<!-- Node18 -->
<g id="node18" class="node">
<title>Node18</title>
<g id="a_node18"><a xlink:href="java__string__library__preprocess_8cpp.html" target="_top" xlink:title=" ">
<polygon fill="none" stroke="black" points="3518,-0.5 3518,-52.5 3718,-52.5 3718,-0.5 3518,-0.5"/>
<text text-anchor="start" x="3526" y="-40.5" font-family="Helvetica,sans-Serif" font-size="10.00">/home/runner/work/cbmc</text>
<text text-anchor="start" x="3526" y="-29.5" font-family="Helvetica,sans-Serif" font-size="10.00">&#45;documentation/cbmc&#45;documentation</text>
<text text-anchor="start" x="3526" y="-18.5" font-family="Helvetica,sans-Serif" font-size="10.00">/jbmc/src/java_bytecode/java</text>
<text text-anchor="middle" x="3618" y="-7.5" font-family="Helvetica,sans-Serif" font-size="10.00">_string_library_preprocess.cpp</text>
</a>
</g>
</g>
<!-- Node1&#45;&gt;Node18 -->
<g id="edge17" class="edge">
<title>Node1&#45;&gt;Node18</title>
<path fill="none" stroke="midnightblue" d="M2202.24,-107.36C2489.67,-102.63 3257.11,-87.12 3509,-53 3511.89,-52.61 3514.81,-52.18 3517.76,-51.71"/>
<polygon fill="midnightblue" stroke="midnightblue" points="2202.16,-103.86 2192.22,-107.52 2202.28,-110.86 2202.16,-103.86"/>
</g>
<!-- Node19 -->
<g id="node19" class="node">
<title>Node19</title>
<g id="a_node19"><a xlink:href="java__string__literals_8cpp.html" target="_top" xlink:title=" ">
<polygon fill="none" stroke="black" points="3736,-0.5 3736,-52.5 3936,-52.5 3936,-0.5 3736,-0.5"/>
<text text-anchor="start" x="3744" y="-40.5" font-family="Helvetica,sans-Serif" font-size="10.00">/home/runner/work/cbmc</text>
<text text-anchor="start" x="3744" y="-29.5" font-family="Helvetica,sans-Serif" font-size="10.00">&#45;documentation/cbmc&#45;documentation</text>
<text text-anchor="start" x="3744" y="-18.5" font-family="Helvetica,sans-Serif" font-size="10.00">/jbmc/src/java_bytecode/java</text>
<text text-anchor="middle" x="3836" y="-7.5" font-family="Helvetica,sans-Serif" font-size="10.00">_string_literals.cpp</text>
</a>
</g>
</g>
<!-- Node1&#45;&gt;Node19 -->
<g id="edge18" class="edge">
<title>Node1&#45;&gt;Node19</title>
<path fill="none" stroke="midnightblue" d="M2202.34,-108.03C2519.73,-104.8 3431.24,-92.28 3727,-53 3729.89,-52.62 3732.82,-52.19 3735.76,-51.73"/>
<polygon fill="midnightblue" stroke="midnightblue" points="2202.18,-104.53 2192.21,-108.13 2202.25,-111.53 2202.18,-104.53"/>
</g>
<!-- Node20 -->
<g id="node20" class="node">
<title>Node20</title>
<g id="a_node20"><a xlink:href="remove__java__new_8cpp.html" target="_top" xlink:title=" ">
<polygon fill="none" stroke="black" points="3954,-0.5 3954,-52.5 4154,-52.5 4154,-0.5 3954,-0.5"/>
<text text-anchor="start" x="3962" y="-40.5" font-family="Helvetica,sans-Serif" font-size="10.00">/home/runner/work/cbmc</text>
<text text-anchor="start" x="3962" y="-29.5" font-family="Helvetica,sans-Serif" font-size="10.00">&#45;documentation/cbmc&#45;documentation</text>
<text text-anchor="start" x="3962" y="-18.5" font-family="Helvetica,sans-Serif" font-size="10.00">/jbmc/src/java_bytecode/remove</text>
<text text-anchor="middle" x="4054" y="-7.5" font-family="Helvetica,sans-Serif" font-size="10.00">_java_new.cpp</text>
</a>
</g>
</g>
<!-- Node1&#45;&gt;Node20 -->
<g id="edge19" class="edge">
<title>Node1&#45;&gt;Node20</title>
<path fill="none" stroke="midnightblue" d="M2202.09,-108.55C2547.18,-106.7 3604.99,-97.46 3945,-53 3947.89,-52.62 3950.82,-52.2 3953.76,-51.74"/>
<polygon fill="midnightblue" stroke="midnightblue" points="2202.07,-105.05 2192.09,-108.61 2202.11,-112.05 2202.07,-105.05"/>
</g>
</g>
</svg>
