<?xml version="1.0" encoding="UTF-8" standalone="no"?>
<!DOCTYPE svg PUBLIC "-//W3C//DTD SVG 1.1//EN"
 "http://www.w3.org/Graphics/SVG/1.1/DTD/svg11.dtd">
<!-- Generated by graphviz version 2.43.0 (0)
 -->
<!-- Title: /home/runner/work/cbmc&#45;documentation/cbmc&#45;documentation/jbmc/src/java_bytecode/expr2java.h Pages: 1 -->
<svg width="1888pt" height="317pt"
 viewBox="0.00 0.00 1888.00 317.00" xmlns="http://www.w3.org/2000/svg" xmlns:xlink="http://www.w3.org/1999/xlink">
<g id="graph0" class="graph" transform="scale(1 1) rotate(0) translate(4 313)">
<title>/home/runner/work/cbmc&#45;documentation/cbmc&#45;documentation/jbmc/src/java_bytecode/expr2java.h</title>
<!-- Node1 -->
<g id="node1" class="node">
<title>Node1</title>
<g id="a_node1"><a xlink:title=" ">
<polygon fill="#bfbfbf" stroke="black" points="1026,-267.5 1026,-308.5 1226,-308.5 1226,-267.5 1026,-267.5"/>
<text text-anchor="start" x="1034" y="-296.5" font-family="Helvetica,sans-Serif" font-size="10.00">/home/runner/work/cbmc</text>
<text text-anchor="start" x="1034" y="-285.5" font-family="Helvetica,sans-Serif" font-size="10.00">&#45;documentation/cbmc&#45;documentation</text>
<text text-anchor="middle" x="1126" y="-274.5" font-family="Helvetica,sans-Serif" font-size="10.00">/jbmc/src/java_bytecode/expr2java.h</text>
</a>
</g>
</g>
<!-- Node2 -->
<g id="node2" class="node">
<title>Node2</title>
<g id="a_node2"><a xlink:href="generic__parameter__specialization__map_8h.html" target="_top" xlink:title=" ">
<polygon fill="none" stroke="black" points="329,-178.5 329,-230.5 529,-230.5 529,-178.5 329,-178.5"/>
<text text-anchor="start" x="337" y="-218.5" font-family="Helvetica,sans-Serif" font-size="10.00">/home/runner/work/cbmc</text>
<text text-anchor="start" x="337" y="-207.5" font-family="Helvetica,sans-Serif" font-size="10.00">&#45;documentation/cbmc&#45;documentation</text>
<text text-anchor="start" x="337" y="-196.5" font-family="Helvetica,sans-Serif" font-size="10.00">/jbmc/src/java_bytecode/generic</text>
<text text-anchor="middle" x="429" y="-185.5" font-family="Helvetica,sans-Serif" font-size="10.00">_parameter_specialization_map.h</text>
</a>
</g>
</g>
<!-- Node1&#45;&gt;Node2 -->
<g id="edge1" class="edge">
<title>Node1&#45;&gt;Node2</title>
<path fill="none" stroke="midnightblue" d="M1015.61,-280.85C897.21,-273.24 703.94,-257.86 539,-231 535.71,-230.46 532.37,-229.89 529.01,-229.28"/>
<polygon fill="midnightblue" stroke="midnightblue" points="1015.57,-284.36 1025.77,-281.5 1016.02,-277.37 1015.57,-284.36"/>
</g>
<!-- Node9 -->
<g id="node9" class="node">
<title>Node9</title>
<g id="a_node9"><a xlink:href="expr2java_8cpp.html" target="_top" xlink:title=" ">
<polygon fill="none" stroke="black" points="547.5,-184 547.5,-225 754.5,-225 754.5,-184 547.5,-184"/>
<text text-anchor="start" x="555.5" y="-213" font-family="Helvetica,sans-Serif" font-size="10.00">/home/runner/work/cbmc</text>
<text text-anchor="start" x="555.5" y="-202" font-family="Helvetica,sans-Serif" font-size="10.00">&#45;documentation/cbmc&#45;documentation</text>
<text text-anchor="middle" x="651" y="-191" font-family="Helvetica,sans-Serif" font-size="10.00">/jbmc/src/java_bytecode/expr2java.cpp</text>
</a>
</g>
</g>
<!-- Node1&#45;&gt;Node9 -->
<g id="edge8" class="edge">
<title>Node1&#45;&gt;Node9</title>
<path fill="none" stroke="midnightblue" d="M1015.83,-271.96C943.93,-261.65 848.14,-246.98 764,-231 754.42,-229.18 744.41,-227.13 734.48,-225.01"/>
<polygon fill="midnightblue" stroke="midnightblue" points="1015.42,-275.43 1025.81,-273.38 1016.41,-268.5 1015.42,-275.43"/>
</g>
<!-- Node10 -->
<g id="node10" class="node">
<title>Node10</title>
<g id="a_node10"><a xlink:href="java__bytecode__concurrency__instrumentation_8cpp.html" target="_top" xlink:title=" ">
<polygon fill="none" stroke="black" points="772.5,-178.5 772.5,-230.5 1007.5,-230.5 1007.5,-178.5 772.5,-178.5"/>
<text text-anchor="start" x="780.5" y="-218.5" font-family="Helvetica,sans-Serif" font-size="10.00">/home/runner/work/cbmc</text>
<text text-anchor="start" x="780.5" y="-207.5" font-family="Helvetica,sans-Serif" font-size="10.00">&#45;documentation/cbmc&#45;documentation</text>
<text text-anchor="start" x="780.5" y="-196.5" font-family="Helvetica,sans-Serif" font-size="10.00">/jbmc/src/java_bytecode/java</text>
<text text-anchor="middle" x="890" y="-185.5" font-family="Helvetica,sans-Serif" font-size="10.00">_bytecode_concurrency_instrumentation.cpp</text>
</a>
</g>
</g>
<!-- Node1&#45;&gt;Node10 -->
<g id="edge9" class="edge">
<title>Node1&#45;&gt;Node10</title>
<path fill="none" stroke="midnightblue" d="M1059.86,-264.16C1029.59,-253.7 993.63,-241.29 962.61,-230.58"/>
<polygon fill="midnightblue" stroke="midnightblue" points="1058.88,-267.52 1069.47,-267.48 1061.16,-260.91 1058.88,-267.52"/>
</g>
<!-- Node11 -->
<g id="node11" class="node">
<title>Node11</title>
<g id="a_node11"><a xlink:href="java__bytecode__language_8cpp.html" target="_top" xlink:title=" ">
<polygon fill="none" stroke="black" points="1026,-178.5 1026,-230.5 1226,-230.5 1226,-178.5 1026,-178.5"/>
<text text-anchor="start" x="1034" y="-218.5" font-family="Helvetica,sans-Serif" font-size="10.00">/home/runner/work/cbmc</text>
<text text-anchor="start" x="1034" y="-207.5" font-family="Helvetica,sans-Serif" font-size="10.00">&#45;documentation/cbmc&#45;documentation</text>
<text text-anchor="start" x="1034" y="-196.5" font-family="Helvetica,sans-Serif" font-size="10.00">/jbmc/src/java_bytecode/java</text>
<text text-anchor="middle" x="1126" y="-185.5" font-family="Helvetica,sans-Serif" font-size="10.00">_bytecode_language.cpp</text>
</a>
</g>
</g>
<!-- Node1&#45;&gt;Node11 -->
<g id="edge10" class="edge">
<title>Node1&#45;&gt;Node11</title>
<path fill="none" stroke="midnightblue" d="M1126,-257.12C1126,-248.41 1126,-238.99 1126,-230.61"/>
<polygon fill="midnightblue" stroke="midnightblue" points="1122.5,-257.27 1126,-267.27 1129.5,-257.27 1122.5,-257.27"/>
</g>
<!-- Node12 -->
<g id="node12" class="node">
<title>Node12</title>
<g id="a_node12"><a xlink:href="java__bytecode__parse__tree_8cpp.html" target="_top" xlink:title=" ">
<polygon fill="none" stroke="black" points="1244,-178.5 1244,-230.5 1444,-230.5 1444,-178.5 1244,-178.5"/>
<text text-anchor="start" x="1252" y="-218.5" font-family="Helvetica,sans-Serif" font-size="10.00">/home/runner/work/cbmc</text>
<text text-anchor="start" x="1252" y="-207.5" font-family="Helvetica,sans-Serif" font-size="10.00">&#45;documentation/cbmc&#45;documentation</text>
<text text-anchor="start" x="1252" y="-196.5" font-family="Helvetica,sans-Serif" font-size="10.00">/jbmc/src/java_bytecode/java</text>
<text text-anchor="middle" x="1344" y="-185.5" font-family="Helvetica,sans-Serif" font-size="10.00">_bytecode_parse_tree.cpp</text>
</a>
</g>
</g>
<!-- Node1&#45;&gt;Node12 -->
<g id="edge11" class="edge">
<title>Node1&#45;&gt;Node12</title>
<path fill="none" stroke="midnightblue" d="M1187.83,-263.89C1215.63,-253.49 1248.52,-241.2 1276.92,-230.58"/>
<polygon fill="midnightblue" stroke="midnightblue" points="1186.36,-260.7 1178.22,-267.48 1188.81,-267.26 1186.36,-260.7"/>
</g>
<!-- Node13 -->
<g id="node13" class="node">
<title>Node13</title>
<g id="a_node13"><a xlink:href="java__bytecode__typecheck_8cpp.html" target="_top" xlink:title=" ">
<polygon fill="none" stroke="black" points="1462,-178.5 1462,-230.5 1662,-230.5 1662,-178.5 1462,-178.5"/>
<text text-anchor="start" x="1470" y="-218.5" font-family="Helvetica,sans-Serif" font-size="10.00">/home/runner/work/cbmc</text>
<text text-anchor="start" x="1470" y="-207.5" font-family="Helvetica,sans-Serif" font-size="10.00">&#45;documentation/cbmc&#45;documentation</text>
<text text-anchor="start" x="1470" y="-196.5" font-family="Helvetica,sans-Serif" font-size="10.00">/jbmc/src/java_bytecode/java</text>
<text text-anchor="middle" x="1562" y="-185.5" font-family="Helvetica,sans-Serif" font-size="10.00">_bytecode_typecheck.cpp</text>
</a>
</g>
</g>
<!-- Node1&#45;&gt;Node13 -->
<g id="edge12" class="edge">
<title>Node1&#45;&gt;Node13</title>
<path fill="none" stroke="midnightblue" d="M1236.15,-269.83C1299.72,-259.5 1381.06,-245.56 1453,-231 1455.95,-230.4 1458.95,-229.78 1461.97,-229.15"/>
<polygon fill="midnightblue" stroke="midnightblue" points="1235.42,-266.4 1226.11,-271.46 1236.54,-273.31 1235.42,-266.4"/>
</g>
<!-- Node14 -->
<g id="node14" class="node">
<title>Node14</title>
<g id="a_node14"><a xlink:href="java__qualifiers_8cpp.html" target="_top" xlink:title=" ">
<polygon fill="none" stroke="black" points="1680,-178.5 1680,-230.5 1880,-230.5 1880,-178.5 1680,-178.5"/>
<text text-anchor="start" x="1688" y="-218.5" font-family="Helvetica,sans-Serif" font-size="10.00">/home/runner/work/cbmc</text>
<text text-anchor="start" x="1688" y="-207.5" font-family="Helvetica,sans-Serif" font-size="10.00">&#45;documentation/cbmc&#45;documentation</text>
<text text-anchor="start" x="1688" y="-196.5" font-family="Helvetica,sans-Serif" font-size="10.00">/jbmc/src/java_bytecode/java</text>
<text text-anchor="middle" x="1780" y="-185.5" font-family="Helvetica,sans-Serif" font-size="10.00">_qualifiers.cpp</text>
</a>
</g>
</g>
<!-- Node1&#45;&gt;Node14 -->
<g id="edge13" class="edge">
<title>Node1&#45;&gt;Node14</title>
<path fill="none" stroke="midnightblue" d="M1236.37,-279.8C1346.86,-271.63 1521.47,-256.07 1671,-231 1673.88,-230.52 1676.79,-230 1679.72,-229.47"/>
<polygon fill="midnightblue" stroke="midnightblue" points="1235.93,-276.33 1226.21,-280.55 1236.44,-283.31 1235.93,-276.33"/>
</g>
<!-- Node3 -->
<g id="node3" class="node">
<title>Node3</title>
<g id="a_node3"><a xlink:href="ci__lazy__methods__needed_8cpp.html" target="_top" xlink:title=" ">
<polygon fill="none" stroke="black" points="0,-89.5 0,-141.5 200,-141.5 200,-89.5 0,-89.5"/>
<text text-anchor="start" x="8" y="-129.5" font-family="Helvetica,sans-Serif" font-size="10.00">/home/runner/work/cbmc</text>
<text text-anchor="start" x="8" y="-118.5" font-family="Helvetica,sans-Serif" font-size="10.00">&#45;documentation/cbmc&#45;documentation</text>
<text text-anchor="start" x="8" y="-107.5" font-family="Helvetica,sans-Serif" font-size="10.00">/jbmc/src/java_bytecode/ci_lazy</text>
<text text-anchor="middle" x="100" y="-96.5" font-family="Helvetica,sans-Serif" font-size="10.00">_methods_needed.cpp</text>
</a>
</g>
</g>
<!-- Node2&#45;&gt;Node3 -->
<g id="edge2" class="edge">
<title>Node2&#45;&gt;Node3</title>
<path fill="none" stroke="midnightblue" d="M324.39,-175.84C282.76,-164.83 235.2,-152.25 194.62,-141.52"/>
<polygon fill="midnightblue" stroke="midnightblue" points="323.72,-179.28 334.28,-178.45 325.51,-172.51 323.72,-179.28"/>
</g>
<!-- Node4 -->
<g id="node4" class="node">
<title>Node4</title>
<g id="a_node4"><a xlink:href="generic__parameter__specialization__map_8cpp.html" target="_top" xlink:title=" ">
<polygon fill="none" stroke="black" points="218,-89.5 218,-141.5 418,-141.5 418,-89.5 218,-89.5"/>
<text text-anchor="start" x="226" y="-129.5" font-family="Helvetica,sans-Serif" font-size="10.00">/home/runner/work/cbmc</text>
<text text-anchor="start" x="226" y="-118.5" font-family="Helvetica,sans-Serif" font-size="10.00">&#45;documentation/cbmc&#45;documentation</text>
<text text-anchor="start" x="226" y="-107.5" font-family="Helvetica,sans-Serif" font-size="10.00">/jbmc/src/java_bytecode/generic</text>
<text text-anchor="middle" x="318" y="-96.5" font-family="Helvetica,sans-Serif" font-size="10.00">_parameter_specialization_map.cpp</text>
</a>
</g>
</g>
<!-- Node2&#45;&gt;Node4 -->
<g id="edge3" class="edge">
<title>Node2&#45;&gt;Node4</title>
<path fill="none" stroke="midnightblue" d="M388.73,-171.93C376,-161.96 362.11,-151.07 350.03,-141.61"/>
<polygon fill="midnightblue" stroke="midnightblue" points="386.86,-174.92 396.89,-178.34 391.18,-169.41 386.86,-174.92"/>
</g>
<!-- Node5 -->
<g id="node5" class="node">
<title>Node5</title>
<g id="a_node5"><a xlink:href="generic__parameter__specialization__map__keys_8h.html" target="_top" xlink:title="Author: Diffblue Ltd.">
<polygon fill="none" stroke="black" points="436.5,-89.5 436.5,-141.5 645.5,-141.5 645.5,-89.5 436.5,-89.5"/>
<text text-anchor="start" x="444.5" y="-129.5" font-family="Helvetica,sans-Serif" font-size="10.00">/home/runner/work/cbmc</text>
<text text-anchor="start" x="444.5" y="-118.5" font-family="Helvetica,sans-Serif" font-size="10.00">&#45;documentation/cbmc&#45;documentation</text>
<text text-anchor="start" x="444.5" y="-107.5" font-family="Helvetica,sans-Serif" font-size="10.00">/jbmc/src/java_bytecode/generic</text>
<text text-anchor="middle" x="541" y="-96.5" font-family="Helvetica,sans-Serif" font-size="10.00">_parameter_specialization_map_keys.h</text>
</a>
</g>
</g>
<!-- Node2&#45;&gt;Node5 -->
<g id="edge4" class="edge">
<title>Node2&#45;&gt;Node5</title>
<path fill="none" stroke="midnightblue" d="M469.64,-171.93C482.48,-161.96 496.5,-151.07 508.68,-141.61"/>
<polygon fill="midnightblue" stroke="midnightblue" points="467.15,-169.44 461.4,-178.34 471.44,-174.97 467.15,-169.44"/>
</g>
<!-- Node8 -->
<g id="node8" class="node">
<title>Node8</title>
<g id="a_node8"><a xlink:href="select__pointer__type_8cpp.html" target="_top" xlink:title=" ">
<polygon fill="none" stroke="black" points="664,-89.5 664,-141.5 864,-141.5 864,-89.5 664,-89.5"/>
<text text-anchor="start" x="672" y="-129.5" font-family="Helvetica,sans-Serif" font-size="10.00">/home/runner/work/cbmc</text>
<text text-anchor="start" x="672" y="-118.5" font-family="Helvetica,sans-Serif" font-size="10.00">&#45;documentation/cbmc&#45;documentation</text>
<text text-anchor="start" x="672" y="-107.5" font-family="Helvetica,sans-Serif" font-size="10.00">/jbmc/src/java_bytecode/select</text>
<text text-anchor="middle" x="764" y="-96.5" font-family="Helvetica,sans-Serif" font-size="10.00">_pointer_type.cpp</text>
</a>
</g>
</g>
<!-- Node2&#45;&gt;Node8 -->
<g id="edge7" class="edge">
<title>Node2&#45;&gt;Node8</title>
<path fill="none" stroke="midnightblue" d="M535.25,-175.91C577.7,-164.88 626.24,-152.28 667.65,-141.52"/>
<polygon fill="midnightblue" stroke="midnightblue" points="534.25,-172.55 525.45,-178.45 536.01,-179.33 534.25,-172.55"/>
</g>
<!-- Node6 -->
<g id="node6" class="node">
<title>Node6</title>
<g id="a_node6"><a xlink:href="generic__parameter__specialization__map__keys_8cpp.html" target="_top" xlink:title=" ">
<polygon fill="none" stroke="black" points="315.5,-0.5 315.5,-52.5 536.5,-52.5 536.5,-0.5 315.5,-0.5"/>
<text text-anchor="start" x="323.5" y="-40.5" font-family="Helvetica,sans-Serif" font-size="10.00">/home/runner/work/cbmc</text>
<text text-anchor="start" x="323.5" y="-29.5" font-family="Helvetica,sans-Serif" font-size="10.00">&#45;documentation/cbmc&#45;documentation</text>
<text text-anchor="start" x="323.5" y="-18.5" font-family="Helvetica,sans-Serif" font-size="10.00">/jbmc/src/java_bytecode/generic</text>
<text text-anchor="middle" x="426" y="-7.5" font-family="Helvetica,sans-Serif" font-size="10.00">_parameter_specialization_map_keys.cpp</text>
</a>
</g>
</g>
<!-- Node5&#45;&gt;Node6 -->
<g id="edge5" class="edge">
<title>Node5&#45;&gt;Node6</title>
<path fill="none" stroke="midnightblue" d="M499.65,-83.22C486.36,-73.16 471.82,-62.16 459.19,-52.61"/>
<polygon fill="midnightblue" stroke="midnightblue" points="497.65,-86.09 507.74,-89.34 501.87,-80.51 497.65,-86.09"/>
</g>
<!-- Node7 -->
<g id="node7" class="node">
<title>Node7</title>
<g id="a_node7"><a xlink:href="java__object__factory_8cpp.html" target="_top" xlink:title=" ">
<polygon fill="none" stroke="black" points="555,-0.5 555,-52.5 755,-52.5 755,-0.5 555,-0.5"/>
<text text-anchor="start" x="563" y="-40.5" font-family="Helvetica,sans-Serif" font-size="10.00">/home/runner/work/cbmc</text>
<text text-anchor="start" x="563" y="-29.5" font-family="Helvetica,sans-Serif" font-size="10.00">&#45;documentation/cbmc&#45;documentation</text>
<text text-anchor="start" x="563" y="-18.5" font-family="Helvetica,sans-Serif" font-size="10.00">/jbmc/src/java_bytecode/java</text>
<text text-anchor="middle" x="655" y="-7.5" font-family="Helvetica,sans-Serif" font-size="10.00">_object_factory.cpp</text>
</a>
</g>
</g>
<!-- Node5&#45;&gt;Node7 -->
<g id="edge6" class="edge">
<title>Node5&#45;&gt;Node7</title>
<path fill="none" stroke="midnightblue" d="M581.99,-83.22C595.16,-73.16 609.58,-62.16 622.1,-52.61"/>
<polygon fill="midnightblue" stroke="midnightblue" points="579.8,-80.49 573.97,-89.34 584.05,-86.05 579.8,-80.49"/>
</g>
</g>
</svg>
