<?xml version="1.0" encoding="UTF-8" standalone="no"?>
<!DOCTYPE svg PUBLIC "-//W3C//DTD SVG 1.1//EN"
 "http://www.w3.org/Graphics/SVG/1.1/DTD/svg11.dtd">
<!-- Generated by graphviz version 2.43.0 (0)
 -->
<!-- Title: /home/runner/work/cbmc&#45;documentation/cbmc&#45;documentation/src/ansi&#45;c/expr2c.h Pages: 1 -->
<svg width="2897pt" height="484pt"
 viewBox="0.00 0.00 2897.00 484.00" xmlns="http://www.w3.org/2000/svg" xmlns:xlink="http://www.w3.org/1999/xlink">
<g id="graph0" class="graph" transform="scale(1 1) rotate(0) translate(4 480)">
<title>/home/runner/work/cbmc&#45;documentation/cbmc&#45;documentation/src/ansi&#45;c/expr2c.h</title>
<!-- Node1 -->
<g id="node1" class="node">
<title>Node1</title>
<g id="a_node1"><a xlink:title=" ">
<polygon fill="#bfbfbf" stroke="black" points="1237,-434.5 1237,-475.5 1437,-475.5 1437,-434.5 1237,-434.5"/>
<text text-anchor="start" x="1245" y="-463.5" font-family="Helvetica,sans-Serif" font-size="10.00">/home/runner/work/cbmc</text>
<text text-anchor="start" x="1245" y="-452.5" font-family="Helvetica,sans-Serif" font-size="10.00">&#45;documentation/cbmc&#45;documentation</text>
<text text-anchor="middle" x="1337" y="-441.5" font-family="Helvetica,sans-Serif" font-size="10.00">/src/ansi&#45;c/expr2c.h</text>
</a>
</g>
</g>
<!-- Node2 -->
<g id="node2" class="node">
<title>Node2</title>
<g id="a_node2"><a xlink:href="ansi__c__entry__point_8cpp.html" target="_top" xlink:title=" ">
<polygon fill="none" stroke="black" points="0,-351 0,-392 200,-392 200,-351 0,-351"/>
<text text-anchor="start" x="8" y="-380" font-family="Helvetica,sans-Serif" font-size="10.00">/home/runner/work/cbmc</text>
<text text-anchor="start" x="8" y="-369" font-family="Helvetica,sans-Serif" font-size="10.00">&#45;documentation/cbmc&#45;documentation</text>
<text text-anchor="middle" x="100" y="-358" font-family="Helvetica,sans-Serif" font-size="10.00">/src/ansi&#45;c/ansi_c_entry_point.cpp</text>
</a>
</g>
</g>
<!-- Node1&#45;&gt;Node2 -->
<g id="edge1" class="edge">
<title>Node1&#45;&gt;Node2</title>
<path fill="none" stroke="midnightblue" d="M1226.57,-451.05C982.44,-444.13 403.17,-425.3 209,-398 198.13,-396.47 186.74,-394.37 175.6,-392.04"/>
<polygon fill="midnightblue" stroke="midnightblue" points="1226.78,-454.56 1236.88,-451.34 1226.98,-447.56 1226.78,-454.56"/>
</g>
<!-- Node3 -->
<g id="node3" class="node">
<title>Node3</title>
<g id="a_node3"><a xlink:href="ansi__c__language_8cpp.html" target="_top" xlink:title=" ">
<polygon fill="none" stroke="black" points="218,-351 218,-392 418,-392 418,-351 218,-351"/>
<text text-anchor="start" x="226" y="-380" font-family="Helvetica,sans-Serif" font-size="10.00">/home/runner/work/cbmc</text>
<text text-anchor="start" x="226" y="-369" font-family="Helvetica,sans-Serif" font-size="10.00">&#45;documentation/cbmc&#45;documentation</text>
<text text-anchor="middle" x="318" y="-358" font-family="Helvetica,sans-Serif" font-size="10.00">/src/ansi&#45;c/ansi_c_language.cpp</text>
</a>
</g>
</g>
<!-- Node1&#45;&gt;Node3 -->
<g id="edge2" class="edge">
<title>Node1&#45;&gt;Node3</title>
<path fill="none" stroke="midnightblue" d="M1226.72,-453.18C1054.93,-450.57 713.37,-440 427,-398 416.33,-396.43 405.16,-394.35 394.21,-392.04"/>
<polygon fill="midnightblue" stroke="midnightblue" points="1226.74,-456.69 1236.79,-453.33 1226.84,-449.69 1226.74,-456.69"/>
</g>
<!-- Node4 -->
<g id="node4" class="node">
<title>Node4</title>
<g id="a_node4"><a xlink:href="c__typecheck__base_8cpp.html" target="_top" xlink:title=" ">
<polygon fill="none" stroke="black" points="436,-351 436,-392 636,-392 636,-351 436,-351"/>
<text text-anchor="start" x="444" y="-380" font-family="Helvetica,sans-Serif" font-size="10.00">/home/runner/work/cbmc</text>
<text text-anchor="start" x="444" y="-369" font-family="Helvetica,sans-Serif" font-size="10.00">&#45;documentation/cbmc&#45;documentation</text>
<text text-anchor="middle" x="536" y="-358" font-family="Helvetica,sans-Serif" font-size="10.00">/src/ansi&#45;c/c_typecheck_base.cpp</text>
</a>
</g>
</g>
<!-- Node1&#45;&gt;Node4 -->
<g id="edge3" class="edge">
<title>Node1&#45;&gt;Node4</title>
<path fill="none" stroke="midnightblue" d="M1226.66,-450.14C1089.59,-444.19 848.89,-429.92 645,-398 634.63,-396.38 623.79,-394.3 613.13,-392.04"/>
<polygon fill="midnightblue" stroke="midnightblue" points="1226.61,-453.64 1236.75,-450.58 1226.91,-446.65 1226.61,-453.64"/>
</g>
<!-- Node5 -->
<g id="node5" class="node">
<title>Node5</title>
<g id="a_node5"><a xlink:href="c__typecheck__expr_8cpp.html" target="_top" xlink:title=" ">
<polygon fill="none" stroke="black" points="654,-351 654,-392 854,-392 854,-351 654,-351"/>
<text text-anchor="start" x="662" y="-380" font-family="Helvetica,sans-Serif" font-size="10.00">/home/runner/work/cbmc</text>
<text text-anchor="start" x="662" y="-369" font-family="Helvetica,sans-Serif" font-size="10.00">&#45;documentation/cbmc&#45;documentation</text>
<text text-anchor="middle" x="754" y="-358" font-family="Helvetica,sans-Serif" font-size="10.00">/src/ansi&#45;c/c_typecheck_expr.cpp</text>
</a>
</g>
</g>
<!-- Node1&#45;&gt;Node5 -->
<g id="edge4" class="edge">
<title>Node1&#45;&gt;Node5</title>
<path fill="none" stroke="midnightblue" d="M1226.62,-444C1131.29,-434.61 990.05,-418.88 868,-398 857.8,-396.26 847.15,-394.19 836.62,-392.01"/>
<polygon fill="midnightblue" stroke="midnightblue" points="1226.56,-447.51 1236.85,-445.01 1227.24,-440.55 1226.56,-447.51"/>
</g>
<!-- Node6 -->
<g id="node6" class="node">
<title>Node6</title>
<g id="a_node6"><a xlink:href="expr2c_8cpp.html" target="_top" xlink:title=" ">
<polygon fill="none" stroke="black" points="474,-267.5 474,-308.5 674,-308.5 674,-267.5 474,-267.5"/>
<text text-anchor="start" x="482" y="-296.5" font-family="Helvetica,sans-Serif" font-size="10.00">/home/runner/work/cbmc</text>
<text text-anchor="start" x="482" y="-285.5" font-family="Helvetica,sans-Serif" font-size="10.00">&#45;documentation/cbmc&#45;documentation</text>
<text text-anchor="middle" x="574" y="-274.5" font-family="Helvetica,sans-Serif" font-size="10.00">/src/ansi&#45;c/expr2c.cpp</text>
</a>
</g>
</g>
<!-- Node1&#45;&gt;Node6 -->
<g id="edge5" class="edge">
<title>Node1&#45;&gt;Node6</title>
<path fill="none" stroke="midnightblue" d="M1226.66,-449.79C1115.91,-443.81 954.3,-429.82 901,-398 876.11,-383.14 887.4,-360.64 863,-345 858.88,-342.36 756.13,-322.81 674.31,-307.55"/>
<polygon fill="midnightblue" stroke="midnightblue" points="1226.71,-453.29 1236.88,-450.32 1227.08,-446.3 1226.71,-453.29"/>
</g>
<!-- Node7 -->
<g id="node7" class="node">
<title>Node7</title>
<g id="a_node7"><a xlink:href="expr2c__class_8h.html" target="_top" xlink:title=" ">
<polygon fill="none" stroke="black" points="910,-351 910,-392 1110,-392 1110,-351 910,-351"/>
<text text-anchor="start" x="918" y="-380" font-family="Helvetica,sans-Serif" font-size="10.00">/home/runner/work/cbmc</text>
<text text-anchor="start" x="918" y="-369" font-family="Helvetica,sans-Serif" font-size="10.00">&#45;documentation/cbmc&#45;documentation</text>
<text text-anchor="middle" x="1010" y="-358" font-family="Helvetica,sans-Serif" font-size="10.00">/src/ansi&#45;c/expr2c_class.h</text>
</a>
</g>
</g>
<!-- Node1&#45;&gt;Node7 -->
<g id="edge6" class="edge">
<title>Node1&#45;&gt;Node7</title>
<path fill="none" stroke="midnightblue" d="M1248.83,-432.02C1198.75,-419.54 1136.6,-404.05 1088.25,-392"/>
<polygon fill="midnightblue" stroke="midnightblue" points="1248.13,-435.46 1258.68,-434.48 1249.82,-428.66 1248.13,-435.46"/>
</g>
<!-- Node27 -->
<g id="node27" class="node">
<title>Node27</title>
<g id="a_node27"><a xlink:href="acceleration__utils_8cpp.html" target="_top" xlink:title=" ">
<polygon fill="none" stroke="black" points="1128,-345.5 1128,-397.5 1328,-397.5 1328,-345.5 1128,-345.5"/>
<text text-anchor="start" x="1136" y="-385.5" font-family="Helvetica,sans-Serif" font-size="10.00">/home/runner/work/cbmc</text>
<text text-anchor="start" x="1136" y="-374.5" font-family="Helvetica,sans-Serif" font-size="10.00">&#45;documentation/cbmc&#45;documentation</text>
<text text-anchor="start" x="1136" y="-363.5" font-family="Helvetica,sans-Serif" font-size="10.00">/src/goto&#45;instrument/accelerate</text>
<text text-anchor="middle" x="1228" y="-352.5" font-family="Helvetica,sans-Serif" font-size="10.00">/acceleration_utils.cpp</text>
</a>
</g>
</g>
<!-- Node1&#45;&gt;Node27 -->
<g id="edge28" class="edge">
<title>Node1&#45;&gt;Node27</title>
<path fill="none" stroke="midnightblue" d="M1302.61,-428.29C1289.57,-418.53 1274.73,-407.44 1261.74,-397.73"/>
<polygon fill="midnightblue" stroke="midnightblue" points="1300.79,-431.29 1310.89,-434.48 1304.98,-425.69 1300.79,-431.29"/>
</g>
<!-- Node28 -->
<g id="node28" class="node">
<title>Node28</title>
<g id="a_node28"><a xlink:href="polynomial__accelerator_8cpp.html" target="_top" xlink:title=" ">
<polygon fill="none" stroke="black" points="1346,-345.5 1346,-397.5 1546,-397.5 1546,-345.5 1346,-345.5"/>
<text text-anchor="start" x="1354" y="-385.5" font-family="Helvetica,sans-Serif" font-size="10.00">/home/runner/work/cbmc</text>
<text text-anchor="start" x="1354" y="-374.5" font-family="Helvetica,sans-Serif" font-size="10.00">&#45;documentation/cbmc&#45;documentation</text>
<text text-anchor="start" x="1354" y="-363.5" font-family="Helvetica,sans-Serif" font-size="10.00">/src/goto&#45;instrument/accelerate</text>
<text text-anchor="middle" x="1446" y="-352.5" font-family="Helvetica,sans-Serif" font-size="10.00">/polynomial_accelerator.cpp</text>
</a>
</g>
</g>
<!-- Node1&#45;&gt;Node28 -->
<g id="edge29" class="edge">
<title>Node1&#45;&gt;Node28</title>
<path fill="none" stroke="midnightblue" d="M1371.39,-428.29C1384.43,-418.53 1399.27,-407.44 1412.26,-397.73"/>
<polygon fill="midnightblue" stroke="midnightblue" points="1369.02,-425.69 1363.11,-434.48 1373.21,-431.29 1369.02,-425.69"/>
</g>
<!-- Node29 -->
<g id="node29" class="node">
<title>Node29</title>
<g id="a_node29"><a xlink:href="memory__predicates_8cpp.html" target="_top" xlink:title=" ">
<polygon fill="none" stroke="black" points="1564,-345.5 1564,-397.5 1764,-397.5 1764,-345.5 1564,-345.5"/>
<text text-anchor="start" x="1572" y="-385.5" font-family="Helvetica,sans-Serif" font-size="10.00">/home/runner/work/cbmc</text>
<text text-anchor="start" x="1572" y="-374.5" font-family="Helvetica,sans-Serif" font-size="10.00">&#45;documentation/cbmc&#45;documentation</text>
<text text-anchor="start" x="1572" y="-363.5" font-family="Helvetica,sans-Serif" font-size="10.00">/src/goto&#45;instrument/contracts</text>
<text text-anchor="middle" x="1664" y="-352.5" font-family="Helvetica,sans-Serif" font-size="10.00">/memory_predicates.cpp</text>
</a>
</g>
</g>
<!-- Node1&#45;&gt;Node29 -->
<g id="edge30" class="edge">
<title>Node1&#45;&gt;Node29</title>
<path fill="none" stroke="midnightblue" d="M1425.17,-432.03C1468.01,-421.35 1519.69,-408.47 1563.99,-397.43"/>
<polygon fill="midnightblue" stroke="midnightblue" points="1424.18,-428.66 1415.32,-434.48 1425.87,-435.46 1424.18,-428.66"/>
</g>
<!-- Node30 -->
<g id="node30" class="node">
<title>Node30</title>
<g id="a_node30"><a xlink:href="cover__instrument__assume_8cpp.html" target="_top" xlink:title=" ">
<polygon fill="none" stroke="black" points="1782,-345.5 1782,-397.5 1986,-397.5 1986,-345.5 1782,-345.5"/>
<text text-anchor="start" x="1790" y="-385.5" font-family="Helvetica,sans-Serif" font-size="10.00">/home/runner/work/cbmc</text>
<text text-anchor="start" x="1790" y="-374.5" font-family="Helvetica,sans-Serif" font-size="10.00">&#45;documentation/cbmc&#45;documentation</text>
<text text-anchor="start" x="1790" y="-363.5" font-family="Helvetica,sans-Serif" font-size="10.00">/src/goto&#45;instrument/cover_instrument</text>
<text text-anchor="middle" x="1884" y="-352.5" font-family="Helvetica,sans-Serif" font-size="10.00">_assume.cpp</text>
</a>
</g>
</g>
<!-- Node1&#45;&gt;Node30 -->
<g id="edge31" class="edge">
<title>Node1&#45;&gt;Node30</title>
<path fill="none" stroke="midnightblue" d="M1447.48,-442.84C1535.89,-433.18 1662.86,-417.67 1773,-398 1775.92,-397.48 1778.88,-396.93 1781.86,-396.36"/>
<polygon fill="midnightblue" stroke="midnightblue" points="1446.99,-439.37 1437.43,-443.93 1447.75,-446.33 1446.99,-439.37"/>
</g>
<!-- Node31 -->
<g id="node31" class="node">
<title>Node31</title>
<g id="a_node31"><a xlink:href="dump__c_8cpp.html" target="_top" xlink:title=" ">
<polygon fill="none" stroke="black" points="2004,-351 2004,-392 2204,-392 2204,-351 2004,-351"/>
<text text-anchor="start" x="2012" y="-380" font-family="Helvetica,sans-Serif" font-size="10.00">/home/runner/work/cbmc</text>
<text text-anchor="start" x="2012" y="-369" font-family="Helvetica,sans-Serif" font-size="10.00">&#45;documentation/cbmc&#45;documentation</text>
<text text-anchor="middle" x="2104" y="-358" font-family="Helvetica,sans-Serif" font-size="10.00">/src/goto&#45;instrument/dump_c.cpp</text>
</a>
</g>
</g>
<!-- Node1&#45;&gt;Node31 -->
<g id="edge32" class="edge">
<title>Node1&#45;&gt;Node31</title>
<path fill="none" stroke="midnightblue" d="M1447.09,-449.51C1578.24,-443.04 1803.67,-428.36 1995,-398 2005.37,-396.36 2016.21,-394.27 2026.86,-392"/>
<polygon fill="midnightblue" stroke="midnightblue" points="1446.85,-446.02 1437.04,-450 1447.19,-453.01 1446.85,-446.02"/>
</g>
<!-- Node32 -->
<g id="node32" class="node">
<title>Node32</title>
<g id="a_node32"><a xlink:href="graphml__witness_8cpp.html" target="_top" xlink:title=" ">
<polygon fill="none" stroke="black" points="2222.5,-351 2222.5,-392 2437.5,-392 2437.5,-351 2222.5,-351"/>
<text text-anchor="start" x="2230.5" y="-380" font-family="Helvetica,sans-Serif" font-size="10.00">/home/runner/work/cbmc</text>
<text text-anchor="start" x="2230.5" y="-369" font-family="Helvetica,sans-Serif" font-size="10.00">&#45;documentation/cbmc&#45;documentation</text>
<text text-anchor="middle" x="2330" y="-358" font-family="Helvetica,sans-Serif" font-size="10.00">/src/goto&#45;programs/graphml_witness.cpp</text>
</a>
</g>
</g>
<!-- Node1&#45;&gt;Node32 -->
<g id="edge33" class="edge">
<title>Node1&#45;&gt;Node32</title>
<path fill="none" stroke="midnightblue" d="M1447.26,-452.27C1613.86,-448.47 1939.34,-436.35 2213,-398 2224.32,-396.41 2236.18,-394.33 2247.82,-392.04"/>
<polygon fill="midnightblue" stroke="midnightblue" points="1446.93,-448.78 1437.01,-452.5 1447.09,-455.78 1446.93,-448.78"/>
</g>
<!-- Node33 -->
<g id="node33" class="node">
<title>Node33</title>
<g id="a_node33"><a xlink:href="restrict__function__pointers_8cpp.html" target="_top" xlink:title=" ">
<polygon fill="none" stroke="black" points="2456,-345.5 2456,-397.5 2656,-397.5 2656,-345.5 2456,-345.5"/>
<text text-anchor="start" x="2464" y="-385.5" font-family="Helvetica,sans-Serif" font-size="10.00">/home/runner/work/cbmc</text>
<text text-anchor="start" x="2464" y="-374.5" font-family="Helvetica,sans-Serif" font-size="10.00">&#45;documentation/cbmc&#45;documentation</text>
<text text-anchor="start" x="2464" y="-363.5" font-family="Helvetica,sans-Serif" font-size="10.00">/src/goto&#45;programs/restrict_function</text>
<text text-anchor="middle" x="2556" y="-352.5" font-family="Helvetica,sans-Serif" font-size="10.00">_pointers.cpp</text>
</a>
</g>
</g>
<!-- Node1&#45;&gt;Node33 -->
<g id="edge34" class="edge">
<title>Node1&#45;&gt;Node33</title>
<path fill="none" stroke="midnightblue" d="M1447.3,-454.96C1647.5,-455.26 2083.61,-449.25 2447,-398 2449.89,-397.59 2452.81,-397.15 2455.75,-396.67"/>
<polygon fill="midnightblue" stroke="midnightblue" points="1447.08,-451.46 1437.07,-454.94 1447.06,-458.46 1447.08,-451.46"/>
</g>
<!-- Node34 -->
<g id="node34" class="node">
<title>Node34</title>
<g id="a_node34"><a xlink:href="expr2statement__list_8cpp.html" target="_top" xlink:title=" ">
<polygon fill="none" stroke="black" points="2674,-345.5 2674,-397.5 2874,-397.5 2874,-345.5 2674,-345.5"/>
<text text-anchor="start" x="2682" y="-385.5" font-family="Helvetica,sans-Serif" font-size="10.00">/home/runner/work/cbmc</text>
<text text-anchor="start" x="2682" y="-374.5" font-family="Helvetica,sans-Serif" font-size="10.00">&#45;documentation/cbmc&#45;documentation</text>
<text text-anchor="start" x="2682" y="-363.5" font-family="Helvetica,sans-Serif" font-size="10.00">/src/statement&#45;list/converters</text>
<text text-anchor="middle" x="2774" y="-352.5" font-family="Helvetica,sans-Serif" font-size="10.00">/expr2statement_list.cpp</text>
</a>
</g>
</g>
<!-- Node1&#45;&gt;Node34 -->
<g id="edge35" class="edge">
<title>Node1&#45;&gt;Node34</title>
<path fill="none" stroke="midnightblue" d="M1447.75,-452.01C1722.69,-446.62 2431.09,-430 2665,-398 2667.89,-397.6 2670.81,-397.17 2673.76,-396.7"/>
<polygon fill="midnightblue" stroke="midnightblue" points="1447.29,-448.51 1437.36,-452.21 1447.42,-455.51 1447.29,-448.51"/>
</g>
<!-- Node7&#45;&gt;Node6 -->
<g id="edge7" class="edge">
<title>Node7&#45;&gt;Node6</title>
<path fill="none" stroke="midnightblue" d="M915.01,-348.86C908.59,-347.52 902.2,-346.22 896,-345 801.79,-326.51 777.55,-325.66 683,-309 680.06,-308.48 677.08,-307.95 674.07,-307.42"/>
<polygon fill="midnightblue" stroke="midnightblue" points="914.62,-352.35 925.13,-351 916.07,-345.5 914.62,-352.35"/>
</g>
<!-- Node8 -->
<g id="node8" class="node">
<title>Node8</title>
<g id="a_node8"><a xlink:href="expr2cpp_8cpp.html" target="_top" xlink:title=" ">
<polygon fill="none" stroke="black" points="692,-267.5 692,-308.5 892,-308.5 892,-267.5 692,-267.5"/>
<text text-anchor="start" x="700" y="-296.5" font-family="Helvetica,sans-Serif" font-size="10.00">/home/runner/work/cbmc</text>
<text text-anchor="start" x="700" y="-285.5" font-family="Helvetica,sans-Serif" font-size="10.00">&#45;documentation/cbmc&#45;documentation</text>
<text text-anchor="middle" x="792" y="-274.5" font-family="Helvetica,sans-Serif" font-size="10.00">/src/cpp/expr2cpp.cpp</text>
</a>
</g>
</g>
<!-- Node7&#45;&gt;Node8 -->
<g id="edge8" class="edge">
<title>Node7&#45;&gt;Node8</title>
<path fill="none" stroke="midnightblue" d="M948.28,-347.42C915.42,-335.14 875.46,-320.2 844.17,-308.5"/>
<polygon fill="midnightblue" stroke="midnightblue" points="947.19,-350.76 957.78,-350.98 949.64,-344.2 947.19,-350.76"/>
</g>
<!-- Node9 -->
<g id="node9" class="node">
<title>Node9</title>
<g id="a_node9"><a xlink:href="expr2jsil_8cpp.html" target="_top" xlink:title=" ">
<polygon fill="none" stroke="black" points="910,-267.5 910,-308.5 1110,-308.5 1110,-267.5 910,-267.5"/>
<text text-anchor="start" x="918" y="-296.5" font-family="Helvetica,sans-Serif" font-size="10.00">/home/runner/work/cbmc</text>
<text text-anchor="start" x="918" y="-285.5" font-family="Helvetica,sans-Serif" font-size="10.00">&#45;documentation/cbmc&#45;documentation</text>
<text text-anchor="middle" x="1010" y="-274.5" font-family="Helvetica,sans-Serif" font-size="10.00">/src/jsil/expr2jsil.cpp</text>
</a>
</g>
</g>
<!-- Node7&#45;&gt;Node9 -->
<g id="edge9" class="edge">
<title>Node7&#45;&gt;Node9</title>
<path fill="none" stroke="midnightblue" d="M1010,-340.56C1010,-329.88 1010,-318.13 1010,-308.55"/>
<polygon fill="midnightblue" stroke="midnightblue" points="1006.5,-340.77 1010,-350.77 1013.5,-340.77 1006.5,-340.77"/>
</g>
<!-- Node10 -->
<g id="node10" class="node">
<title>Node10</title>
<g id="a_node10"><a xlink:href="analyze__symbol_8h.html" target="_top" xlink:title=" ">
<polygon fill="none" stroke="black" points="1128.5,-267.5 1128.5,-308.5 1343.5,-308.5 1343.5,-267.5 1128.5,-267.5"/>
<text text-anchor="start" x="1136.5" y="-296.5" font-family="Helvetica,sans-Serif" font-size="10.00">/home/runner/work/cbmc</text>
<text text-anchor="start" x="1136.5" y="-285.5" font-family="Helvetica,sans-Serif" font-size="10.00">&#45;documentation/cbmc&#45;documentation</text>
<text text-anchor="middle" x="1236" y="-274.5" font-family="Helvetica,sans-Serif" font-size="10.00">/src/memory&#45;analyzer/analyze_symbol.h</text>
</a>
</g>
</g>
<!-- Node7&#45;&gt;Node10 -->
<g id="edge10" class="edge">
<title>Node7&#45;&gt;Node10</title>
<path fill="none" stroke="midnightblue" d="M1073.55,-347.58C1107.69,-335.27 1149.34,-320.25 1181.92,-308.5"/>
<polygon fill="midnightblue" stroke="midnightblue" points="1072.35,-344.29 1064.13,-350.98 1074.73,-350.88 1072.35,-344.29"/>
</g>
<!-- Node13 -->
<g id="node13" class="node">
<title>Node13</title>
<g id="a_node13"><a xlink:href="expr2java_8h.html" target="_top" xlink:title=" ">
<polygon fill="none" stroke="black" points="1917,-267.5 1917,-308.5 2117,-308.5 2117,-267.5 1917,-267.5"/>
<text text-anchor="start" x="1925" y="-296.5" font-family="Helvetica,sans-Serif" font-size="10.00">/home/runner/work/cbmc</text>
<text text-anchor="start" x="1925" y="-285.5" font-family="Helvetica,sans-Serif" font-size="10.00">&#45;documentation/cbmc&#45;documentation</text>
<text text-anchor="middle" x="2017" y="-274.5" font-family="Helvetica,sans-Serif" font-size="10.00">/jbmc/src/java_bytecode/expr2java.h</text>
</a>
</g>
</g>
<!-- Node7&#45;&gt;Node13 -->
<g id="edge13" class="edge">
<title>Node7&#45;&gt;Node13</title>
<path fill="none" stroke="midnightblue" d="M1096.26,-348.93C1103.92,-347.43 1111.58,-346.09 1119,-345 1406.45,-302.72 1750.25,-292.32 1916.77,-289.79"/>
<polygon fill="midnightblue" stroke="midnightblue" points="1095.32,-345.55 1086.21,-350.96 1096.71,-352.41 1095.32,-345.55"/>
</g>
<!-- Node21 -->
<g id="node21" class="node">
<title>Node21</title>
<g id="a_node21"><a xlink:href="expr2java_8cpp.html" target="_top" xlink:title=" ">
<polygon fill="none" stroke="black" points="1337.5,-184 1337.5,-225 1544.5,-225 1544.5,-184 1337.5,-184"/>
<text text-anchor="start" x="1345.5" y="-213" font-family="Helvetica,sans-Serif" font-size="10.00">/home/runner/work/cbmc</text>
<text text-anchor="start" x="1345.5" y="-202" font-family="Helvetica,sans-Serif" font-size="10.00">&#45;documentation/cbmc&#45;documentation</text>
<text text-anchor="middle" x="1441" y="-191" font-family="Helvetica,sans-Serif" font-size="10.00">/jbmc/src/java_bytecode/expr2java.cpp</text>
</a>
</g>
</g>
<!-- Node7&#45;&gt;Node21 -->
<g id="edge27" class="edge">
<title>Node7&#45;&gt;Node21</title>
<path fill="none" stroke="midnightblue" d="M1100.4,-348.79C1106.68,-347.46 1112.93,-346.18 1119,-345 1221.87,-325.05 1260.39,-359.87 1352,-309 1387.64,-289.21 1415.56,-249.29 1430.05,-225.23"/>
<polygon fill="midnightblue" stroke="midnightblue" points="1099.54,-345.4 1090.51,-350.94 1101.02,-352.24 1099.54,-345.4"/>
</g>
<!-- Node11 -->
<g id="node11" class="node">
<title>Node11</title>
<g id="a_node11"><a xlink:href="analyze__symbol_8cpp.html" target="_top" xlink:title=" ">
<polygon fill="none" stroke="black" points="886,-178.5 886,-230.5 1086,-230.5 1086,-178.5 886,-178.5"/>
<text text-anchor="start" x="894" y="-218.5" font-family="Helvetica,sans-Serif" font-size="10.00">/home/runner/work/cbmc</text>
<text text-anchor="start" x="894" y="-207.5" font-family="Helvetica,sans-Serif" font-size="10.00">&#45;documentation/cbmc&#45;documentation</text>
<text text-anchor="start" x="894" y="-196.5" font-family="Helvetica,sans-Serif" font-size="10.00">/src/memory&#45;analyzer/analyze</text>
<text text-anchor="middle" x="986" y="-185.5" font-family="Helvetica,sans-Serif" font-size="10.00">_symbol.cpp</text>
</a>
</g>
</g>
<!-- Node10&#45;&gt;Node11 -->
<g id="edge11" class="edge">
<title>Node10&#45;&gt;Node11</title>
<path fill="none" stroke="midnightblue" d="M1166.35,-264.29C1134.2,-253.81 1095.92,-241.33 1062.92,-230.58"/>
<polygon fill="midnightblue" stroke="midnightblue" points="1165.53,-267.71 1176.12,-267.48 1167.7,-261.05 1165.53,-267.71"/>
</g>
<!-- Node12 -->
<g id="node12" class="node">
<title>Node12</title>
<g id="a_node12"><a xlink:href="memory__analyzer__parse__options_8cpp.html" target="_top" xlink:title=" ">
<polygon fill="none" stroke="black" points="1104.5,-178.5 1104.5,-230.5 1319.5,-230.5 1319.5,-178.5 1104.5,-178.5"/>
<text text-anchor="start" x="1112.5" y="-218.5" font-family="Helvetica,sans-Serif" font-size="10.00">/home/runner/work/cbmc</text>
<text text-anchor="start" x="1112.5" y="-207.5" font-family="Helvetica,sans-Serif" font-size="10.00">&#45;documentation/cbmc&#45;documentation</text>
<text text-anchor="start" x="1112.5" y="-196.5" font-family="Helvetica,sans-Serif" font-size="10.00">/src/memory&#45;analyzer/memory_analyzer</text>
<text text-anchor="middle" x="1212" y="-185.5" font-family="Helvetica,sans-Serif" font-size="10.00">_parse_options.cpp</text>
</a>
</g>
</g>
<!-- Node10&#45;&gt;Node12 -->
<g id="edge12" class="edge">
<title>Node10&#45;&gt;Node12</title>
<path fill="none" stroke="midnightblue" d="M1227.29,-257.41C1224.7,-248.62 1221.89,-239.08 1219.39,-230.61"/>
<polygon fill="midnightblue" stroke="midnightblue" points="1224.01,-258.67 1230.19,-267.27 1230.72,-256.69 1224.01,-258.67"/>
</g>
<!-- Node14 -->
<g id="node14" class="node">
<title>Node14</title>
<g id="a_node14"><a xlink:href="generic__parameter__specialization__map_8h.html" target="_top" xlink:title=" ">
<polygon fill="none" stroke="black" points="1563,-178.5 1563,-230.5 1763,-230.5 1763,-178.5 1563,-178.5"/>
<text text-anchor="start" x="1571" y="-218.5" font-family="Helvetica,sans-Serif" font-size="10.00">/home/runner/work/cbmc</text>
<text text-anchor="start" x="1571" y="-207.5" font-family="Helvetica,sans-Serif" font-size="10.00">&#45;documentation/cbmc&#45;documentation</text>
<text text-anchor="start" x="1571" y="-196.5" font-family="Helvetica,sans-Serif" font-size="10.00">/jbmc/src/java_bytecode/generic</text>
<text text-anchor="middle" x="1663" y="-185.5" font-family="Helvetica,sans-Serif" font-size="10.00">_parameter_specialization_map.h</text>
</a>
</g>
</g>
<!-- Node13&#45;&gt;Node14 -->
<g id="edge14" class="edge">
<title>Node13&#45;&gt;Node14</title>
<path fill="none" stroke="midnightblue" d="M1921.28,-265.24C1876.01,-254.92 1821.21,-242.38 1772,-231 1769.07,-230.32 1766.09,-229.63 1763.08,-228.93"/>
<polygon fill="midnightblue" stroke="midnightblue" points="1920.56,-268.67 1931.09,-267.48 1922.12,-261.84 1920.56,-268.67"/>
</g>
<!-- Node13&#45;&gt;Node21 -->
<g id="edge21" class="edge">
<title>Node13&#45;&gt;Node21</title>
<path fill="none" stroke="midnightblue" d="M1906.67,-276.84C1812.57,-267.41 1673.9,-251.72 1554,-231 1543.89,-229.25 1533.33,-227.19 1522.89,-225.01"/>
<polygon fill="midnightblue" stroke="midnightblue" points="1906.47,-280.34 1916.77,-277.84 1907.17,-273.37 1906.47,-280.34"/>
</g>
<!-- Node22 -->
<g id="node22" class="node">
<title>Node22</title>
<g id="a_node22"><a xlink:href="java__bytecode__concurrency__instrumentation_8cpp.html" target="_top" xlink:title=" ">
<polygon fill="none" stroke="black" points="1781.5,-178.5 1781.5,-230.5 2016.5,-230.5 2016.5,-178.5 1781.5,-178.5"/>
<text text-anchor="start" x="1789.5" y="-218.5" font-family="Helvetica,sans-Serif" font-size="10.00">/home/runner/work/cbmc</text>
<text text-anchor="start" x="1789.5" y="-207.5" font-family="Helvetica,sans-Serif" font-size="10.00">&#45;documentation/cbmc&#45;documentation</text>
<text text-anchor="start" x="1789.5" y="-196.5" font-family="Helvetica,sans-Serif" font-size="10.00">/jbmc/src/java_bytecode/java</text>
<text text-anchor="middle" x="1899" y="-185.5" font-family="Helvetica,sans-Serif" font-size="10.00">_bytecode_concurrency_instrumentation.cpp</text>
</a>
</g>
</g>
<!-- Node13&#45;&gt;Node22 -->
<g id="edge22" class="edge">
<title>Node13&#45;&gt;Node22</title>
<path fill="none" stroke="midnightblue" d="M1980.18,-261.57C1965.95,-251.74 1949.72,-240.53 1935.53,-230.73"/>
<polygon fill="midnightblue" stroke="midnightblue" points="1978.52,-264.68 1988.74,-267.48 1982.5,-258.92 1978.52,-264.68"/>
</g>
<!-- Node23 -->
<g id="node23" class="node">
<title>Node23</title>
<g id="a_node23"><a xlink:href="java__bytecode__language_8cpp.html" target="_top" xlink:title=" ">
<polygon fill="none" stroke="black" points="2035,-178.5 2035,-230.5 2235,-230.5 2235,-178.5 2035,-178.5"/>
<text text-anchor="start" x="2043" y="-218.5" font-family="Helvetica,sans-Serif" font-size="10.00">/home/runner/work/cbmc</text>
<text text-anchor="start" x="2043" y="-207.5" font-family="Helvetica,sans-Serif" font-size="10.00">&#45;documentation/cbmc&#45;documentation</text>
<text text-anchor="start" x="2043" y="-196.5" font-family="Helvetica,sans-Serif" font-size="10.00">/jbmc/src/java_bytecode/java</text>
<text text-anchor="middle" x="2135" y="-185.5" font-family="Helvetica,sans-Serif" font-size="10.00">_bytecode_language.cpp</text>
</a>
</g>
</g>
<!-- Node13&#45;&gt;Node23 -->
<g id="edge23" class="edge">
<title>Node13&#45;&gt;Node23</title>
<path fill="none" stroke="midnightblue" d="M2053.82,-261.57C2068.05,-251.74 2084.28,-240.53 2098.47,-230.73"/>
<polygon fill="midnightblue" stroke="midnightblue" points="2051.5,-258.92 2045.26,-267.48 2055.48,-264.68 2051.5,-258.92"/>
</g>
<!-- Node24 -->
<g id="node24" class="node">
<title>Node24</title>
<g id="a_node24"><a xlink:href="java__bytecode__parse__tree_8cpp.html" target="_top" xlink:title=" ">
<polygon fill="none" stroke="black" points="2253,-178.5 2253,-230.5 2453,-230.5 2453,-178.5 2253,-178.5"/>
<text text-anchor="start" x="2261" y="-218.5" font-family="Helvetica,sans-Serif" font-size="10.00">/home/runner/work/cbmc</text>
<text text-anchor="start" x="2261" y="-207.5" font-family="Helvetica,sans-Serif" font-size="10.00">&#45;documentation/cbmc&#45;documentation</text>
<text text-anchor="start" x="2261" y="-196.5" font-family="Helvetica,sans-Serif" font-size="10.00">/jbmc/src/java_bytecode/java</text>
<text text-anchor="middle" x="2353" y="-185.5" font-family="Helvetica,sans-Serif" font-size="10.00">_bytecode_parse_tree.cpp</text>
</a>
</g>
</g>
<!-- Node13&#45;&gt;Node24 -->
<g id="edge24" class="edge">
<title>Node13&#45;&gt;Node24</title>
<path fill="none" stroke="midnightblue" d="M2107.2,-265.12C2152.11,-254.23 2206.52,-241.03 2252.73,-229.82"/>
<polygon fill="midnightblue" stroke="midnightblue" points="2106.37,-261.72 2097.48,-267.48 2108.02,-268.52 2106.37,-261.72"/>
</g>
<!-- Node25 -->
<g id="node25" class="node">
<title>Node25</title>
<g id="a_node25"><a xlink:href="java__bytecode__typecheck_8cpp.html" target="_top" xlink:title=" ">
<polygon fill="none" stroke="black" points="2471,-178.5 2471,-230.5 2671,-230.5 2671,-178.5 2471,-178.5"/>
<text text-anchor="start" x="2479" y="-218.5" font-family="Helvetica,sans-Serif" font-size="10.00">/home/runner/work/cbmc</text>
<text text-anchor="start" x="2479" y="-207.5" font-family="Helvetica,sans-Serif" font-size="10.00">&#45;documentation/cbmc&#45;documentation</text>
<text text-anchor="start" x="2479" y="-196.5" font-family="Helvetica,sans-Serif" font-size="10.00">/jbmc/src/java_bytecode/java</text>
<text text-anchor="middle" x="2571" y="-185.5" font-family="Helvetica,sans-Serif" font-size="10.00">_bytecode_typecheck.cpp</text>
</a>
</g>
</g>
<!-- Node13&#45;&gt;Node25 -->
<g id="edge25" class="edge">
<title>Node13&#45;&gt;Node25</title>
<path fill="none" stroke="midnightblue" d="M2127.3,-276.36C2217.64,-266.88 2348.6,-251.34 2462,-231 2464.87,-230.49 2467.78,-229.94 2470.71,-229.38"/>
<polygon fill="midnightblue" stroke="midnightblue" points="2126.89,-272.89 2117.31,-277.41 2127.62,-279.85 2126.89,-272.89"/>
</g>
<!-- Node26 -->
<g id="node26" class="node">
<title>Node26</title>
<g id="a_node26"><a xlink:href="java__qualifiers_8cpp.html" target="_top" xlink:title=" ">
<polygon fill="none" stroke="black" points="2689,-178.5 2689,-230.5 2889,-230.5 2889,-178.5 2689,-178.5"/>
<text text-anchor="start" x="2697" y="-218.5" font-family="Helvetica,sans-Serif" font-size="10.00">/home/runner/work/cbmc</text>
<text text-anchor="start" x="2697" y="-207.5" font-family="Helvetica,sans-Serif" font-size="10.00">&#45;documentation/cbmc&#45;documentation</text>
<text text-anchor="start" x="2697" y="-196.5" font-family="Helvetica,sans-Serif" font-size="10.00">/jbmc/src/java_bytecode/java</text>
<text text-anchor="middle" x="2789" y="-185.5" font-family="Helvetica,sans-Serif" font-size="10.00">_qualifiers.cpp</text>
</a>
</g>
</g>
<!-- Node13&#45;&gt;Node26 -->
<g id="edge26" class="edge">
<title>Node13&#45;&gt;Node26</title>
<path fill="none" stroke="midnightblue" d="M2127.36,-282.6C2259.42,-276.19 2486.94,-261.57 2680,-231 2682.88,-230.54 2685.8,-230.05 2688.73,-229.54"/>
<polygon fill="midnightblue" stroke="midnightblue" points="2127.05,-279.11 2117.23,-283.08 2127.39,-286.1 2127.05,-279.11"/>
</g>
<!-- Node15 -->
<g id="node15" class="node">
<title>Node15</title>
<g id="a_node15"><a xlink:href="ci__lazy__methods__needed_8cpp.html" target="_top" xlink:title=" ">
<polygon fill="none" stroke="black" points="1234,-89.5 1234,-141.5 1434,-141.5 1434,-89.5 1234,-89.5"/>
<text text-anchor="start" x="1242" y="-129.5" font-family="Helvetica,sans-Serif" font-size="10.00">/home/runner/work/cbmc</text>
<text text-anchor="start" x="1242" y="-118.5" font-family="Helvetica,sans-Serif" font-size="10.00">&#45;documentation/cbmc&#45;documentation</text>
<text text-anchor="start" x="1242" y="-107.5" font-family="Helvetica,sans-Serif" font-size="10.00">/jbmc/src/java_bytecode/ci_lazy</text>
<text text-anchor="middle" x="1334" y="-96.5" font-family="Helvetica,sans-Serif" font-size="10.00">_methods_needed.cpp</text>
</a>
</g>
</g>
<!-- Node14&#45;&gt;Node15 -->
<g id="edge15" class="edge">
<title>Node14&#45;&gt;Node15</title>
<path fill="none" stroke="midnightblue" d="M1558.39,-175.84C1516.76,-164.83 1469.2,-152.25 1428.62,-141.52"/>
<polygon fill="midnightblue" stroke="midnightblue" points="1557.72,-179.28 1568.28,-178.45 1559.51,-172.51 1557.72,-179.28"/>
</g>
<!-- Node16 -->
<g id="node16" class="node">
<title>Node16</title>
<g id="a_node16"><a xlink:href="generic__parameter__specialization__map_8cpp.html" target="_top" xlink:title=" ">
<polygon fill="none" stroke="black" points="1452,-89.5 1452,-141.5 1652,-141.5 1652,-89.5 1452,-89.5"/>
<text text-anchor="start" x="1460" y="-129.5" font-family="Helvetica,sans-Serif" font-size="10.00">/home/runner/work/cbmc</text>
<text text-anchor="start" x="1460" y="-118.5" font-family="Helvetica,sans-Serif" font-size="10.00">&#45;documentation/cbmc&#45;documentation</text>
<text text-anchor="start" x="1460" y="-107.5" font-family="Helvetica,sans-Serif" font-size="10.00">/jbmc/src/java_bytecode/generic</text>
<text text-anchor="middle" x="1552" y="-96.5" font-family="Helvetica,sans-Serif" font-size="10.00">_parameter_specialization_map.cpp</text>
</a>
</g>
</g>
<!-- Node14&#45;&gt;Node16 -->
<g id="edge16" class="edge">
<title>Node14&#45;&gt;Node16</title>
<path fill="none" stroke="midnightblue" d="M1622.73,-171.93C1610,-161.96 1596.11,-151.07 1584.03,-141.61"/>
<polygon fill="midnightblue" stroke="midnightblue" points="1620.86,-174.92 1630.89,-178.34 1625.18,-169.41 1620.86,-174.92"/>
</g>
<!-- Node17 -->
<g id="node17" class="node">
<title>Node17</title>
<g id="a_node17"><a xlink:href="generic__parameter__specialization__map__keys_8h.html" target="_top" xlink:title="Author: Diffblue Ltd.">
<polygon fill="none" stroke="black" points="1670.5,-89.5 1670.5,-141.5 1879.5,-141.5 1879.5,-89.5 1670.5,-89.5"/>
<text text-anchor="start" x="1678.5" y="-129.5" font-family="Helvetica,sans-Serif" font-size="10.00">/home/runner/work/cbmc</text>
<text text-anchor="start" x="1678.5" y="-118.5" font-family="Helvetica,sans-Serif" font-size="10.00">&#45;documentation/cbmc&#45;documentation</text>
<text text-anchor="start" x="1678.5" y="-107.5" font-family="Helvetica,sans-Serif" font-size="10.00">/jbmc/src/java_bytecode/generic</text>
<text text-anchor="middle" x="1775" y="-96.5" font-family="Helvetica,sans-Serif" font-size="10.00">_parameter_specialization_map_keys.h</text>
</a>
</g>
</g>
<!-- Node14&#45;&gt;Node17 -->
<g id="edge17" class="edge">
<title>Node14&#45;&gt;Node17</title>
<path fill="none" stroke="midnightblue" d="M1703.64,-171.93C1716.48,-161.96 1730.5,-151.07 1742.68,-141.61"/>
<polygon fill="midnightblue" stroke="midnightblue" points="1701.15,-169.44 1695.4,-178.34 1705.44,-174.97 1701.15,-169.44"/>
</g>
<!-- Node20 -->
<g id="node20" class="node">
<title>Node20</title>
<g id="a_node20"><a xlink:href="select__pointer__type_8cpp.html" target="_top" xlink:title=" ">
<polygon fill="none" stroke="black" points="1898,-89.5 1898,-141.5 2098,-141.5 2098,-89.5 1898,-89.5"/>
<text text-anchor="start" x="1906" y="-129.5" font-family="Helvetica,sans-Serif" font-size="10.00">/home/runner/work/cbmc</text>
<text text-anchor="start" x="1906" y="-118.5" font-family="Helvetica,sans-Serif" font-size="10.00">&#45;documentation/cbmc&#45;documentation</text>
<text text-anchor="start" x="1906" y="-107.5" font-family="Helvetica,sans-Serif" font-size="10.00">/jbmc/src/java_bytecode/select</text>
<text text-anchor="middle" x="1998" y="-96.5" font-family="Helvetica,sans-Serif" font-size="10.00">_pointer_type.cpp</text>
</a>
</g>
</g>
<!-- Node14&#45;&gt;Node20 -->
<g id="edge20" class="edge">
<title>Node14&#45;&gt;Node20</title>
<path fill="none" stroke="midnightblue" d="M1769.25,-175.91C1811.7,-164.88 1860.24,-152.28 1901.65,-141.52"/>
<polygon fill="midnightblue" stroke="midnightblue" points="1768.25,-172.55 1759.45,-178.45 1770.01,-179.33 1768.25,-172.55"/>
</g>
<!-- Node18 -->
<g id="node18" class="node">
<title>Node18</title>
<g id="a_node18"><a xlink:href="generic__parameter__specialization__map__keys_8cpp.html" target="_top" xlink:title=" ">
<polygon fill="none" stroke="black" points="1550.5,-0.5 1550.5,-52.5 1771.5,-52.5 1771.5,-0.5 1550.5,-0.5"/>
<text text-anchor="start" x="1558.5" y="-40.5" font-family="Helvetica,sans-Serif" font-size="10.00">/home/runner/work/cbmc</text>
<text text-anchor="start" x="1558.5" y="-29.5" font-family="Helvetica,sans-Serif" font-size="10.00">&#45;documentation/cbmc&#45;documentation</text>
<text text-anchor="start" x="1558.5" y="-18.5" font-family="Helvetica,sans-Serif" font-size="10.00">/jbmc/src/java_bytecode/generic</text>
<text text-anchor="middle" x="1661" y="-7.5" font-family="Helvetica,sans-Serif" font-size="10.00">_parameter_specialization_map_keys.cpp</text>
</a>
</g>
</g>
<!-- Node17&#45;&gt;Node18 -->
<g id="edge18" class="edge">
<title>Node17&#45;&gt;Node18</title>
<path fill="none" stroke="midnightblue" d="M1734.01,-83.22C1720.84,-73.16 1706.42,-62.16 1693.9,-52.61"/>
<polygon fill="midnightblue" stroke="midnightblue" points="1731.95,-86.05 1742.03,-89.34 1736.2,-80.49 1731.95,-86.05"/>
</g>
<!-- Node19 -->
<g id="node19" class="node">
<title>Node19</title>
<g id="a_node19"><a xlink:href="java__object__factory_8cpp.html" target="_top" xlink:title=" ">
<polygon fill="none" stroke="black" points="1790,-0.5 1790,-52.5 1990,-52.5 1990,-0.5 1790,-0.5"/>
<text text-anchor="start" x="1798" y="-40.5" font-family="Helvetica,sans-Serif" font-size="10.00">/home/runner/work/cbmc</text>
<text text-anchor="start" x="1798" y="-29.5" font-family="Helvetica,sans-Serif" font-size="10.00">&#45;documentation/cbmc&#45;documentation</text>
<text text-anchor="start" x="1798" y="-18.5" font-family="Helvetica,sans-Serif" font-size="10.00">/jbmc/src/java_bytecode/java</text>
<text text-anchor="middle" x="1890" y="-7.5" font-family="Helvetica,sans-Serif" font-size="10.00">_object_factory.cpp</text>
</a>
</g>
</g>
<!-- Node17&#45;&gt;Node19 -->
<g id="edge19" class="edge">
<title>Node17&#45;&gt;Node19</title>
<path fill="none" stroke="midnightblue" d="M1816.35,-83.22C1829.64,-73.16 1844.18,-62.16 1856.81,-52.61"/>
<polygon fill="midnightblue" stroke="midnightblue" points="1814.13,-80.51 1808.26,-89.34 1818.35,-86.09 1814.13,-80.51"/>
</g>
</g>
</svg>
