<?xml version="1.0" encoding="UTF-8" standalone="no"?>
<!DOCTYPE svg PUBLIC "-//W3C//DTD SVG 1.1//EN"
 "http://www.w3.org/Graphics/SVG/1.1/DTD/svg11.dtd">
<!-- Generated by graphviz version 2.43.0 (0)
 -->
<!-- Title: /home/runner/work/cbmc&#45;documentation/cbmc&#45;documentation/src/util/fixedbv.h Pages: 1 -->
<svg width="2606pt" height="139pt"
 viewBox="0.00 0.00 2606.00 139.00" xmlns="http://www.w3.org/2000/svg" xmlns:xlink="http://www.w3.org/1999/xlink">
<g id="graph0" class="graph" transform="scale(1 1) rotate(0) translate(4 135)">
<title>/home/runner/work/cbmc&#45;documentation/cbmc&#45;documentation/src/util/fixedbv.h</title>
<!-- Node1 -->
<g id="node1" class="node">
<title>Node1</title>
<g id="a_node1"><a xlink:title=" ">
<polygon fill="#bfbfbf" stroke="black" points="1199,-89.5 1199,-130.5 1399,-130.5 1399,-89.5 1199,-89.5"/>
<text text-anchor="start" x="1207" y="-118.5" font-family="Helvetica,sans-Serif" font-size="10.00">/home/runner/work/cbmc</text>
<text text-anchor="start" x="1207" y="-107.5" font-family="Helvetica,sans-Serif" font-size="10.00">&#45;documentation/cbmc&#45;documentation</text>
<text text-anchor="middle" x="1299" y="-96.5" font-family="Helvetica,sans-Serif" font-size="10.00">/src/util/fixedbv.h</text>
</a>
</g>
</g>
<!-- Node2 -->
<g id="node2" class="node">
<title>Node2</title>
<g id="a_node2"><a xlink:href="expr2c_8cpp.html" target="_top" xlink:title=" ">
<polygon fill="none" stroke="black" points="0,-6 0,-47 200,-47 200,-6 0,-6"/>
<text text-anchor="start" x="8" y="-35" font-family="Helvetica,sans-Serif" font-size="10.00">/home/runner/work/cbmc</text>
<text text-anchor="start" x="8" y="-24" font-family="Helvetica,sans-Serif" font-size="10.00">&#45;documentation/cbmc&#45;documentation</text>
<text text-anchor="middle" x="100" y="-13" font-family="Helvetica,sans-Serif" font-size="10.00">/src/ansi&#45;c/expr2c.cpp</text>
</a>
</g>
</g>
<!-- Node1&#45;&gt;Node2 -->
<g id="edge1" class="edge">
<title>Node1&#45;&gt;Node2</title>
<path fill="none" stroke="midnightblue" d="M1188.78,-109.81C991.33,-109.83 564.68,-103.33 209,-53 198.13,-51.46 186.75,-49.36 175.61,-47.02"/>
<polygon fill="midnightblue" stroke="midnightblue" points="1188.87,-113.31 1198.87,-109.8 1188.86,-106.31 1188.87,-113.31"/>
</g>
<!-- Node3 -->
<g id="node3" class="node">
<title>Node3</title>
<g id="a_node3"><a xlink:href="interpreter_8cpp.html" target="_top" xlink:title=" ">
<polygon fill="none" stroke="black" points="218,-6 218,-47 418,-47 418,-6 218,-6"/>
<text text-anchor="start" x="226" y="-35" font-family="Helvetica,sans-Serif" font-size="10.00">/home/runner/work/cbmc</text>
<text text-anchor="start" x="226" y="-24" font-family="Helvetica,sans-Serif" font-size="10.00">&#45;documentation/cbmc&#45;documentation</text>
<text text-anchor="middle" x="318" y="-13" font-family="Helvetica,sans-Serif" font-size="10.00">/src/goto&#45;programs/interpreter.cpp</text>
</a>
</g>
</g>
<!-- Node1&#45;&gt;Node3 -->
<g id="edge2" class="edge">
<title>Node1&#45;&gt;Node3</title>
<path fill="none" stroke="midnightblue" d="M1188.49,-107.75C1022.36,-104.57 698.74,-93.23 427,-53 416.33,-51.42 405.16,-49.33 394.22,-47.02"/>
<polygon fill="midnightblue" stroke="midnightblue" points="1188.65,-111.26 1198.72,-107.94 1188.78,-104.26 1188.65,-111.26"/>
</g>
<!-- Node4 -->
<g id="node4" class="node">
<title>Node4</title>
<g id="a_node4"><a xlink:href="interpreter__evaluate_8cpp.html" target="_top" xlink:title=" ">
<polygon fill="none" stroke="black" points="436,-0.5 436,-52.5 636,-52.5 636,-0.5 436,-0.5"/>
<text text-anchor="start" x="444" y="-40.5" font-family="Helvetica,sans-Serif" font-size="10.00">/home/runner/work/cbmc</text>
<text text-anchor="start" x="444" y="-29.5" font-family="Helvetica,sans-Serif" font-size="10.00">&#45;documentation/cbmc&#45;documentation</text>
<text text-anchor="start" x="444" y="-18.5" font-family="Helvetica,sans-Serif" font-size="10.00">/src/goto&#45;programs/interpreter</text>
<text text-anchor="middle" x="536" y="-7.5" font-family="Helvetica,sans-Serif" font-size="10.00">_evaluate.cpp</text>
</a>
</g>
</g>
<!-- Node1&#45;&gt;Node4 -->
<g id="edge3" class="edge">
<title>Node1&#45;&gt;Node4</title>
<path fill="none" stroke="midnightblue" d="M1188.73,-104.42C1058.25,-97.88 834.76,-83.16 645,-53 642.12,-52.54 639.21,-52.05 636.27,-51.53"/>
<polygon fill="midnightblue" stroke="midnightblue" points="1188.58,-107.92 1198.74,-104.92 1188.92,-100.93 1188.58,-107.92"/>
</g>
<!-- Node5 -->
<g id="node5" class="node">
<title>Node5</title>
<g id="a_node5"><a xlink:href="json__expr_8cpp.html" target="_top" xlink:title=" ">
<polygon fill="none" stroke="black" points="654,-6 654,-47 854,-47 854,-6 654,-6"/>
<text text-anchor="start" x="662" y="-35" font-family="Helvetica,sans-Serif" font-size="10.00">/home/runner/work/cbmc</text>
<text text-anchor="start" x="662" y="-24" font-family="Helvetica,sans-Serif" font-size="10.00">&#45;documentation/cbmc&#45;documentation</text>
<text text-anchor="middle" x="754" y="-13" font-family="Helvetica,sans-Serif" font-size="10.00">/src/goto&#45;programs/json_expr.cpp</text>
</a>
</g>
</g>
<!-- Node1&#45;&gt;Node5 -->
<g id="edge4" class="edge">
<title>Node1&#45;&gt;Node5</title>
<path fill="none" stroke="midnightblue" d="M1188.94,-98.01C1100.5,-88.42 973.28,-72.93 863,-53 853.34,-51.25 843.25,-49.21 833.28,-47.04"/>
<polygon fill="midnightblue" stroke="midnightblue" points="1188.67,-101.5 1198.99,-99.09 1189.42,-94.54 1188.67,-101.5"/>
</g>
<!-- Node6 -->
<g id="node6" class="node">
<title>Node6</title>
<g id="a_node6"><a xlink:href="xml__expr_8cpp.html" target="_top" xlink:title=" ">
<polygon fill="none" stroke="black" points="872,-6 872,-47 1072,-47 1072,-6 872,-6"/>
<text text-anchor="start" x="880" y="-35" font-family="Helvetica,sans-Serif" font-size="10.00">/home/runner/work/cbmc</text>
<text text-anchor="start" x="880" y="-24" font-family="Helvetica,sans-Serif" font-size="10.00">&#45;documentation/cbmc&#45;documentation</text>
<text text-anchor="middle" x="972" y="-13" font-family="Helvetica,sans-Serif" font-size="10.00">/src/goto&#45;programs/xml_expr.cpp</text>
</a>
</g>
</g>
<!-- Node1&#45;&gt;Node6 -->
<g id="edge5" class="edge">
<title>Node1&#45;&gt;Node6</title>
<path fill="none" stroke="midnightblue" d="M1210.83,-87.02C1160.75,-74.54 1098.6,-59.05 1050.25,-47"/>
<polygon fill="midnightblue" stroke="midnightblue" points="1210.13,-90.46 1220.68,-89.48 1211.82,-83.66 1210.13,-90.46"/>
</g>
<!-- Node7 -->
<g id="node7" class="node">
<title>Node7</title>
<g id="a_node7"><a xlink:href="smt2__conv_8cpp.html" target="_top" xlink:title=" ">
<polygon fill="none" stroke="black" points="1090,-6 1090,-47 1290,-47 1290,-6 1090,-6"/>
<text text-anchor="start" x="1098" y="-35" font-family="Helvetica,sans-Serif" font-size="10.00">/home/runner/work/cbmc</text>
<text text-anchor="start" x="1098" y="-24" font-family="Helvetica,sans-Serif" font-size="10.00">&#45;documentation/cbmc&#45;documentation</text>
<text text-anchor="middle" x="1190" y="-13" font-family="Helvetica,sans-Serif" font-size="10.00">/src/solvers/smt2/smt2_conv.cpp</text>
</a>
</g>
</g>
<!-- Node1&#45;&gt;Node7 -->
<g id="edge6" class="edge">
<title>Node1&#45;&gt;Node7</title>
<path fill="none" stroke="midnightblue" d="M1264.52,-83.22C1248.91,-71.55 1230.76,-57.97 1216.27,-47.14"/>
<polygon fill="midnightblue" stroke="midnightblue" points="1262.79,-86.29 1272.89,-89.48 1266.98,-80.69 1262.79,-86.29"/>
</g>
<!-- Node8 -->
<g id="node8" class="node">
<title>Node8</title>
<g id="a_node8"><a xlink:href="arith__tools_8cpp.html" target="_top" xlink:title=" ">
<polygon fill="none" stroke="black" points="1308,-6 1308,-47 1508,-47 1508,-6 1308,-6"/>
<text text-anchor="start" x="1316" y="-35" font-family="Helvetica,sans-Serif" font-size="10.00">/home/runner/work/cbmc</text>
<text text-anchor="start" x="1316" y="-24" font-family="Helvetica,sans-Serif" font-size="10.00">&#45;documentation/cbmc&#45;documentation</text>
<text text-anchor="middle" x="1408" y="-13" font-family="Helvetica,sans-Serif" font-size="10.00">/src/util/arith_tools.cpp</text>
</a>
</g>
</g>
<!-- Node1&#45;&gt;Node8 -->
<g id="edge7" class="edge">
<title>Node1&#45;&gt;Node8</title>
<path fill="none" stroke="midnightblue" d="M1333.48,-83.22C1349.09,-71.55 1367.24,-57.97 1381.73,-47.14"/>
<polygon fill="midnightblue" stroke="midnightblue" points="1331.02,-80.69 1325.11,-89.48 1335.21,-86.29 1331.02,-80.69"/>
</g>
<!-- Node9 -->
<g id="node9" class="node">
<title>Node9</title>
<g id="a_node9"><a xlink:href="expr_8cpp.html" target="_top" xlink:title=" ">
<polygon fill="none" stroke="black" points="1526,-6 1526,-47 1726,-47 1726,-6 1526,-6"/>
<text text-anchor="start" x="1534" y="-35" font-family="Helvetica,sans-Serif" font-size="10.00">/home/runner/work/cbmc</text>
<text text-anchor="start" x="1534" y="-24" font-family="Helvetica,sans-Serif" font-size="10.00">&#45;documentation/cbmc&#45;documentation</text>
<text text-anchor="middle" x="1626" y="-13" font-family="Helvetica,sans-Serif" font-size="10.00">/src/util/expr.cpp</text>
</a>
</g>
</g>
<!-- Node1&#45;&gt;Node9 -->
<g id="edge8" class="edge">
<title>Node1&#45;&gt;Node9</title>
<path fill="none" stroke="midnightblue" d="M1387.17,-87.02C1437.25,-74.54 1499.4,-59.05 1547.75,-47"/>
<polygon fill="midnightblue" stroke="midnightblue" points="1386.18,-83.66 1377.32,-89.48 1387.87,-90.46 1386.18,-83.66"/>
</g>
<!-- Node10 -->
<g id="node10" class="node">
<title>Node10</title>
<g id="a_node10"><a xlink:href="fixedbv_8cpp.html" target="_top" xlink:title=" ">
<polygon fill="none" stroke="black" points="1744,-6 1744,-47 1944,-47 1944,-6 1744,-6"/>
<text text-anchor="start" x="1752" y="-35" font-family="Helvetica,sans-Serif" font-size="10.00">/home/runner/work/cbmc</text>
<text text-anchor="start" x="1752" y="-24" font-family="Helvetica,sans-Serif" font-size="10.00">&#45;documentation/cbmc&#45;documentation</text>
<text text-anchor="middle" x="1844" y="-13" font-family="Helvetica,sans-Serif" font-size="10.00">/src/util/fixedbv.cpp</text>
</a>
</g>
</g>
<!-- Node1&#45;&gt;Node10 -->
<g id="edge9" class="edge">
<title>Node1&#45;&gt;Node10</title>
<path fill="none" stroke="midnightblue" d="M1409.06,-98.01C1497.5,-88.42 1624.72,-72.93 1735,-53 1744.66,-51.25 1754.75,-49.21 1764.72,-47.04"/>
<polygon fill="midnightblue" stroke="midnightblue" points="1408.58,-94.54 1399.01,-99.09 1409.33,-101.5 1408.58,-94.54"/>
</g>
<!-- Node11 -->
<g id="node11" class="node">
<title>Node11</title>
<g id="a_node11"><a xlink:href="format__constant_8cpp.html" target="_top" xlink:title=" ">
<polygon fill="none" stroke="black" points="1962,-6 1962,-47 2162,-47 2162,-6 1962,-6"/>
<text text-anchor="start" x="1970" y="-35" font-family="Helvetica,sans-Serif" font-size="10.00">/home/runner/work/cbmc</text>
<text text-anchor="start" x="1970" y="-24" font-family="Helvetica,sans-Serif" font-size="10.00">&#45;documentation/cbmc&#45;documentation</text>
<text text-anchor="middle" x="2062" y="-13" font-family="Helvetica,sans-Serif" font-size="10.00">/src/util/format_constant.cpp</text>
</a>
</g>
</g>
<!-- Node1&#45;&gt;Node11 -->
<g id="edge10" class="edge">
<title>Node1&#45;&gt;Node11</title>
<path fill="none" stroke="midnightblue" d="M1409.27,-104.42C1539.75,-97.88 1763.24,-83.16 1953,-53 1963.27,-51.37 1974.01,-49.3 1984.57,-47.06"/>
<polygon fill="midnightblue" stroke="midnightblue" points="1409.08,-100.93 1399.26,-104.92 1409.42,-107.92 1409.08,-100.93"/>
</g>
<!-- Node12 -->
<g id="node12" class="node">
<title>Node12</title>
<g id="a_node12"><a xlink:href="simplify__expr_8cpp.html" target="_top" xlink:title=" ">
<polygon fill="none" stroke="black" points="2180,-6 2180,-47 2380,-47 2380,-6 2180,-6"/>
<text text-anchor="start" x="2188" y="-35" font-family="Helvetica,sans-Serif" font-size="10.00">/home/runner/work/cbmc</text>
<text text-anchor="start" x="2188" y="-24" font-family="Helvetica,sans-Serif" font-size="10.00">&#45;documentation/cbmc&#45;documentation</text>
<text text-anchor="middle" x="2280" y="-13" font-family="Helvetica,sans-Serif" font-size="10.00">/src/util/simplify_expr.cpp</text>
</a>
</g>
</g>
<!-- Node1&#45;&gt;Node12 -->
<g id="edge11" class="edge">
<title>Node1&#45;&gt;Node12</title>
<path fill="none" stroke="midnightblue" d="M1409.51,-107.75C1575.64,-104.57 1899.26,-93.23 2171,-53 2181.67,-51.42 2192.84,-49.33 2203.78,-47.02"/>
<polygon fill="midnightblue" stroke="midnightblue" points="1409.22,-104.26 1399.28,-107.94 1409.35,-111.26 1409.22,-104.26"/>
</g>
<!-- Node13 -->
<g id="node13" class="node">
<title>Node13</title>
<g id="a_node13"><a xlink:href="simplify__expr__int_8cpp.html" target="_top" xlink:title=" ">
<polygon fill="none" stroke="black" points="2398,-6 2398,-47 2598,-47 2598,-6 2398,-6"/>
<text text-anchor="start" x="2406" y="-35" font-family="Helvetica,sans-Serif" font-size="10.00">/home/runner/work/cbmc</text>
<text text-anchor="start" x="2406" y="-24" font-family="Helvetica,sans-Serif" font-size="10.00">&#45;documentation/cbmc&#45;documentation</text>
<text text-anchor="middle" x="2498" y="-13" font-family="Helvetica,sans-Serif" font-size="10.00">/src/util/simplify_expr_int.cpp</text>
</a>
</g>
</g>
<!-- Node1&#45;&gt;Node13 -->
<g id="edge12" class="edge">
<title>Node1&#45;&gt;Node13</title>
<path fill="none" stroke="midnightblue" d="M1409.22,-109.81C1606.67,-109.83 2033.32,-103.33 2389,-53 2399.87,-51.46 2411.25,-49.36 2422.39,-47.02"/>
<polygon fill="midnightblue" stroke="midnightblue" points="1409.14,-106.31 1399.13,-109.8 1409.13,-113.31 1409.14,-106.31"/>
</g>
</g>
</svg>
