<?xml version="1.0" encoding="UTF-8" standalone="no"?>
<!DOCTYPE svg PUBLIC "-//W3C//DTD SVG 1.1//EN"
 "http://www.w3.org/Graphics/SVG/1.1/DTD/svg11.dtd">
<!-- Generated by graphviz version 2.43.0 (0)
 -->
<!-- Title: /home/runner/work/cbmc&#45;documentation/cbmc&#45;documentation/src/util/floatbv_expr.h Pages: 1 -->
<svg width="4132pt" height="139pt"
 viewBox="0.00 0.00 4132.00 139.00" xmlns="http://www.w3.org/2000/svg" xmlns:xlink="http://www.w3.org/1999/xlink">
<g id="graph0" class="graph" transform="scale(1 1) rotate(0) translate(4 135)">
<title>/home/runner/work/cbmc&#45;documentation/cbmc&#45;documentation/src/util/floatbv_expr.h</title>
<!-- Node1 -->
<g id="node1" class="node">
<title>Node1</title>
<g id="a_node1"><a xlink:title=" ">
<polygon fill="#bfbfbf" stroke="black" points="1962,-89.5 1962,-130.5 2162,-130.5 2162,-89.5 1962,-89.5"/>
<text text-anchor="start" x="1970" y="-118.5" font-family="Helvetica,sans-Serif" font-size="10.00">/home/runner/work/cbmc</text>
<text text-anchor="start" x="1970" y="-107.5" font-family="Helvetica,sans-Serif" font-size="10.00">&#45;documentation/cbmc&#45;documentation</text>
<text text-anchor="middle" x="2062" y="-96.5" font-family="Helvetica,sans-Serif" font-size="10.00">/src/util/floatbv_expr.h</text>
</a>
</g>
</g>
<!-- Node2 -->
<g id="node2" class="node">
<title>Node2</title>
<g id="a_node2"><a xlink:href="c__typecheck__expr_8cpp.html" target="_top" xlink:title=" ">
<polygon fill="none" stroke="black" points="0,-6 0,-47 200,-47 200,-6 0,-6"/>
<text text-anchor="start" x="8" y="-35" font-family="Helvetica,sans-Serif" font-size="10.00">/home/runner/work/cbmc</text>
<text text-anchor="start" x="8" y="-24" font-family="Helvetica,sans-Serif" font-size="10.00">&#45;documentation/cbmc&#45;documentation</text>
<text text-anchor="middle" x="100" y="-13" font-family="Helvetica,sans-Serif" font-size="10.00">/src/ansi&#45;c/c_typecheck_expr.cpp</text>
</a>
</g>
</g>
<!-- Node1&#45;&gt;Node2 -->
<g id="edge1" class="edge">
<title>Node1&#45;&gt;Node2</title>
<path fill="none" stroke="midnightblue" d="M1951.91,-108.55C1606.82,-106.7 549.01,-97.46 209,-53 197.82,-51.54 186.12,-49.43 174.69,-47.04"/>
<polygon fill="midnightblue" stroke="midnightblue" points="1951.89,-112.05 1961.91,-108.61 1951.93,-105.05 1951.89,-112.05"/>
</g>
<!-- Node3 -->
<g id="node3" class="node">
<title>Node3</title>
<g id="a_node3"><a xlink:href="expr2c_8cpp.html" target="_top" xlink:title=" ">
<polygon fill="none" stroke="black" points="218,-6 218,-47 418,-47 418,-6 218,-6"/>
<text text-anchor="start" x="226" y="-35" font-family="Helvetica,sans-Serif" font-size="10.00">/home/runner/work/cbmc</text>
<text text-anchor="start" x="226" y="-24" font-family="Helvetica,sans-Serif" font-size="10.00">&#45;documentation/cbmc&#45;documentation</text>
<text text-anchor="middle" x="318" y="-13" font-family="Helvetica,sans-Serif" font-size="10.00">/src/ansi&#45;c/expr2c.cpp</text>
</a>
</g>
</g>
<!-- Node1&#45;&gt;Node3 -->
<g id="edge2" class="edge">
<title>Node1&#45;&gt;Node3</title>
<path fill="none" stroke="midnightblue" d="M1951.66,-108.03C1634.27,-104.8 722.76,-92.28 427,-53 415.83,-51.52 404.12,-49.4 392.7,-47"/>
<polygon fill="midnightblue" stroke="midnightblue" points="1951.75,-111.53 1961.79,-108.13 1951.82,-104.53 1951.75,-111.53"/>
</g>
<!-- Node4 -->
<g id="node4" class="node">
<title>Node4</title>
<g id="a_node4"><a xlink:href="goto__check__c_8cpp.html" target="_top" xlink:title=" ">
<polygon fill="none" stroke="black" points="436,-6 436,-47 636,-47 636,-6 436,-6"/>
<text text-anchor="start" x="444" y="-35" font-family="Helvetica,sans-Serif" font-size="10.00">/home/runner/work/cbmc</text>
<text text-anchor="start" x="444" y="-24" font-family="Helvetica,sans-Serif" font-size="10.00">&#45;documentation/cbmc&#45;documentation</text>
<text text-anchor="middle" x="536" y="-13" font-family="Helvetica,sans-Serif" font-size="10.00">/src/ansi&#45;c/goto_check_c.cpp</text>
</a>
</g>
</g>
<!-- Node1&#45;&gt;Node4 -->
<g id="edge3" class="edge">
<title>Node1&#45;&gt;Node4</title>
<path fill="none" stroke="midnightblue" d="M1951.76,-107.36C1664.33,-102.63 896.89,-87.12 645,-53 633.93,-51.5 622.33,-49.39 611,-47.01"/>
<polygon fill="midnightblue" stroke="midnightblue" points="1951.72,-110.86 1961.78,-107.52 1951.84,-103.86 1951.72,-110.86"/>
</g>
<!-- Node5 -->
<g id="node5" class="node">
<title>Node5</title>
<g id="a_node5"><a xlink:href="adjust__float__expressions_8cpp.html" target="_top" xlink:title=" ">
<polygon fill="none" stroke="black" points="654,-0.5 654,-52.5 854,-52.5 854,-0.5 654,-0.5"/>
<text text-anchor="start" x="662" y="-40.5" font-family="Helvetica,sans-Serif" font-size="10.00">/home/runner/work/cbmc</text>
<text text-anchor="start" x="662" y="-29.5" font-family="Helvetica,sans-Serif" font-size="10.00">&#45;documentation/cbmc&#45;documentation</text>
<text text-anchor="start" x="662" y="-18.5" font-family="Helvetica,sans-Serif" font-size="10.00">/src/goto&#45;programs/adjust_float</text>
<text text-anchor="middle" x="754" y="-7.5" font-family="Helvetica,sans-Serif" font-size="10.00">_expressions.cpp</text>
</a>
</g>
</g>
<!-- Node1&#45;&gt;Node5 -->
<g id="edge4" class="edge">
<title>Node1&#45;&gt;Node5</title>
<path fill="none" stroke="midnightblue" d="M1951.54,-106.43C1696.25,-100.07 1071.26,-81.98 863,-53 860.11,-52.6 857.19,-52.16 854.24,-51.68"/>
<polygon fill="midnightblue" stroke="midnightblue" points="1951.49,-109.93 1961.57,-106.68 1951.66,-102.93 1951.49,-109.93"/>
</g>
<!-- Node6 -->
<g id="node6" class="node">
<title>Node6</title>
<g id="a_node6"><a xlink:href="boolbv_8cpp.html" target="_top" xlink:title=" ">
<polygon fill="none" stroke="black" points="872,-6 872,-47 1072,-47 1072,-6 872,-6"/>
<text text-anchor="start" x="880" y="-35" font-family="Helvetica,sans-Serif" font-size="10.00">/home/runner/work/cbmc</text>
<text text-anchor="start" x="880" y="-24" font-family="Helvetica,sans-Serif" font-size="10.00">&#45;documentation/cbmc&#45;documentation</text>
<text text-anchor="middle" x="972" y="-13" font-family="Helvetica,sans-Serif" font-size="10.00">/src/solvers/flattening/boolbv.cpp</text>
</a>
</g>
</g>
<!-- Node1&#45;&gt;Node6 -->
<g id="edge5" class="edge">
<title>Node1&#45;&gt;Node6</title>
<path fill="none" stroke="midnightblue" d="M1951.74,-108.89C1769.55,-107.34 1394.6,-98.29 1081,-53 1070.23,-51.44 1058.95,-49.35 1047.91,-47.02"/>
<polygon fill="midnightblue" stroke="midnightblue" points="1951.84,-112.4 1961.87,-108.97 1951.89,-105.4 1951.84,-112.4"/>
</g>
<!-- Node7 -->
<g id="node7" class="node">
<title>Node7</title>
<g id="a_node7"><a xlink:href="boolbv__floatbv__op_8cpp.html" target="_top" xlink:title=" ">
<polygon fill="none" stroke="black" points="1090,-0.5 1090,-52.5 1290,-52.5 1290,-0.5 1090,-0.5"/>
<text text-anchor="start" x="1098" y="-40.5" font-family="Helvetica,sans-Serif" font-size="10.00">/home/runner/work/cbmc</text>
<text text-anchor="start" x="1098" y="-29.5" font-family="Helvetica,sans-Serif" font-size="10.00">&#45;documentation/cbmc&#45;documentation</text>
<text text-anchor="start" x="1098" y="-18.5" font-family="Helvetica,sans-Serif" font-size="10.00">/src/solvers/flattening/boolbv</text>
<text text-anchor="middle" x="1190" y="-7.5" font-family="Helvetica,sans-Serif" font-size="10.00">_floatbv_op.cpp</text>
</a>
</g>
</g>
<!-- Node1&#45;&gt;Node7 -->
<g id="edge6" class="edge">
<title>Node1&#45;&gt;Node7</title>
<path fill="none" stroke="midnightblue" d="M1951.7,-106.32C1802.79,-101.46 1529.55,-88.21 1299,-53 1296.12,-52.56 1293.2,-52.08 1290.26,-51.58"/>
<polygon fill="midnightblue" stroke="midnightblue" points="1951.65,-109.82 1961.76,-106.64 1951.88,-102.82 1951.65,-109.82"/>
</g>
<!-- Node8 -->
<g id="node8" class="node">
<title>Node8</title>
<g id="a_node8"><a xlink:href="float__bv_8cpp.html" target="_top" xlink:title=" ">
<polygon fill="none" stroke="black" points="1308,-6 1308,-47 1508,-47 1508,-6 1308,-6"/>
<text text-anchor="start" x="1316" y="-35" font-family="Helvetica,sans-Serif" font-size="10.00">/home/runner/work/cbmc</text>
<text text-anchor="start" x="1316" y="-24" font-family="Helvetica,sans-Serif" font-size="10.00">&#45;documentation/cbmc&#45;documentation</text>
<text text-anchor="middle" x="1408" y="-13" font-family="Helvetica,sans-Serif" font-size="10.00">/src/solvers/floatbv/float_bv.cpp</text>
</a>
</g>
</g>
<!-- Node1&#45;&gt;Node8 -->
<g id="edge7" class="edge">
<title>Node1&#45;&gt;Node8</title>
<path fill="none" stroke="midnightblue" d="M1951.63,-101.8C1841.14,-93.63 1666.53,-78.07 1517,-53 1506.94,-51.31 1496.42,-49.25 1486.05,-47.02"/>
<polygon fill="midnightblue" stroke="midnightblue" points="1951.56,-105.31 1961.79,-102.55 1952.07,-98.33 1951.56,-105.31"/>
</g>
<!-- Node9 -->
<g id="node9" class="node">
<title>Node9</title>
<g id="a_node9"><a xlink:href="refine__arithmetic_8cpp.html" target="_top" xlink:title=" ">
<polygon fill="none" stroke="black" points="1526,-0.5 1526,-52.5 1726,-52.5 1726,-0.5 1526,-0.5"/>
<text text-anchor="start" x="1534" y="-40.5" font-family="Helvetica,sans-Serif" font-size="10.00">/home/runner/work/cbmc</text>
<text text-anchor="start" x="1534" y="-29.5" font-family="Helvetica,sans-Serif" font-size="10.00">&#45;documentation/cbmc&#45;documentation</text>
<text text-anchor="start" x="1534" y="-18.5" font-family="Helvetica,sans-Serif" font-size="10.00">/src/solvers/refinement/refine</text>
<text text-anchor="middle" x="1626" y="-7.5" font-family="Helvetica,sans-Serif" font-size="10.00">_arithmetic.cpp</text>
</a>
</g>
</g>
<!-- Node1&#45;&gt;Node9 -->
<g id="edge8" class="edge">
<title>Node1&#45;&gt;Node9</title>
<path fill="none" stroke="midnightblue" d="M1951.85,-91.83C1888.28,-81.5 1806.94,-67.56 1735,-53 1732.05,-52.4 1729.05,-51.78 1726.03,-51.15"/>
<polygon fill="midnightblue" stroke="midnightblue" points="1951.46,-95.31 1961.89,-93.46 1952.58,-88.4 1951.46,-95.31"/>
</g>
<!-- Node10 -->
<g id="node10" class="node">
<title>Node10</title>
<g id="a_node10"><a xlink:href="smt2__conv_8cpp.html" target="_top" xlink:title=" ">
<polygon fill="none" stroke="black" points="1744,-6 1744,-47 1944,-47 1944,-6 1744,-6"/>
<text text-anchor="start" x="1752" y="-35" font-family="Helvetica,sans-Serif" font-size="10.00">/home/runner/work/cbmc</text>
<text text-anchor="start" x="1752" y="-24" font-family="Helvetica,sans-Serif" font-size="10.00">&#45;documentation/cbmc&#45;documentation</text>
<text text-anchor="middle" x="1844" y="-13" font-family="Helvetica,sans-Serif" font-size="10.00">/src/solvers/smt2/smt2_conv.cpp</text>
</a>
</g>
</g>
<!-- Node1&#45;&gt;Node10 -->
<g id="edge9" class="edge">
<title>Node1&#45;&gt;Node10</title>
<path fill="none" stroke="midnightblue" d="M2000.28,-85.92C1967.42,-73.64 1927.46,-58.7 1896.17,-47"/>
<polygon fill="midnightblue" stroke="midnightblue" points="1999.19,-89.26 2009.78,-89.48 2001.64,-82.7 1999.19,-89.26"/>
</g>
<!-- Node11 -->
<g id="node11" class="node">
<title>Node11</title>
<g id="a_node11"><a xlink:href="smt2__parser_8cpp.html" target="_top" xlink:title=" ">
<polygon fill="none" stroke="black" points="1962,-6 1962,-47 2162,-47 2162,-6 1962,-6"/>
<text text-anchor="start" x="1970" y="-35" font-family="Helvetica,sans-Serif" font-size="10.00">/home/runner/work/cbmc</text>
<text text-anchor="start" x="1970" y="-24" font-family="Helvetica,sans-Serif" font-size="10.00">&#45;documentation/cbmc&#45;documentation</text>
<text text-anchor="middle" x="2062" y="-13" font-family="Helvetica,sans-Serif" font-size="10.00">/src/solvers/smt2/smt2_parser.cpp</text>
</a>
</g>
</g>
<!-- Node1&#45;&gt;Node11 -->
<g id="edge10" class="edge">
<title>Node1&#45;&gt;Node11</title>
<path fill="none" stroke="midnightblue" d="M2062,-79.06C2062,-68.38 2062,-56.63 2062,-47.05"/>
<polygon fill="midnightblue" stroke="midnightblue" points="2058.5,-79.27 2062,-89.27 2065.5,-79.27 2058.5,-79.27"/>
</g>
<!-- Node12 -->
<g id="node12" class="node">
<title>Node12</title>
<g id="a_node12"><a xlink:href="convert__expr__to__smt_8cpp.html" target="_top" xlink:title=" ">
<polygon fill="none" stroke="black" points="2180,-0.5 2180,-52.5 2380,-52.5 2380,-0.5 2180,-0.5"/>
<text text-anchor="start" x="2188" y="-40.5" font-family="Helvetica,sans-Serif" font-size="10.00">/home/runner/work/cbmc</text>
<text text-anchor="start" x="2188" y="-29.5" font-family="Helvetica,sans-Serif" font-size="10.00">&#45;documentation/cbmc&#45;documentation</text>
<text text-anchor="start" x="2188" y="-18.5" font-family="Helvetica,sans-Serif" font-size="10.00">/src/solvers/smt2_incremental</text>
<text text-anchor="middle" x="2280" y="-7.5" font-family="Helvetica,sans-Serif" font-size="10.00">/convert_expr_to_smt.cpp</text>
</a>
</g>
</g>
<!-- Node1&#45;&gt;Node12 -->
<g id="edge11" class="edge">
<title>Node1&#45;&gt;Node12</title>
<path fill="none" stroke="midnightblue" d="M2123.83,-85.89C2151.63,-75.49 2184.52,-63.2 2212.92,-52.58"/>
<polygon fill="midnightblue" stroke="midnightblue" points="2122.36,-82.7 2114.22,-89.48 2124.81,-89.26 2122.36,-82.7"/>
</g>
<!-- Node13 -->
<g id="node13" class="node">
<title>Node13</title>
<g id="a_node13"><a xlink:href="string__constraint__generator__float_8cpp.html" target="_top" xlink:title=" ">
<polygon fill="none" stroke="black" points="2398,-0.5 2398,-52.5 2598,-52.5 2598,-0.5 2398,-0.5"/>
<text text-anchor="start" x="2406" y="-40.5" font-family="Helvetica,sans-Serif" font-size="10.00">/home/runner/work/cbmc</text>
<text text-anchor="start" x="2406" y="-29.5" font-family="Helvetica,sans-Serif" font-size="10.00">&#45;documentation/cbmc&#45;documentation</text>
<text text-anchor="start" x="2406" y="-18.5" font-family="Helvetica,sans-Serif" font-size="10.00">/src/solvers/strings/string_constraint</text>
<text text-anchor="middle" x="2498" y="-7.5" font-family="Helvetica,sans-Serif" font-size="10.00">_generator_float.cpp</text>
</a>
</g>
</g>
<!-- Node1&#45;&gt;Node13 -->
<g id="edge12" class="edge">
<title>Node1&#45;&gt;Node13</title>
<path fill="none" stroke="midnightblue" d="M2172.15,-91.83C2235.72,-81.5 2317.06,-67.56 2389,-53 2391.95,-52.4 2394.95,-51.78 2397.97,-51.15"/>
<polygon fill="midnightblue" stroke="midnightblue" points="2171.42,-88.4 2162.11,-93.46 2172.54,-95.31 2171.42,-88.4"/>
</g>
<!-- Node14 -->
<g id="node14" class="node">
<title>Node14</title>
<g id="a_node14"><a xlink:href="floatbv__expr_8cpp.html" target="_top" xlink:title=" ">
<polygon fill="none" stroke="black" points="2616,-6 2616,-47 2816,-47 2816,-6 2616,-6"/>
<text text-anchor="start" x="2624" y="-35" font-family="Helvetica,sans-Serif" font-size="10.00">/home/runner/work/cbmc</text>
<text text-anchor="start" x="2624" y="-24" font-family="Helvetica,sans-Serif" font-size="10.00">&#45;documentation/cbmc&#45;documentation</text>
<text text-anchor="middle" x="2716" y="-13" font-family="Helvetica,sans-Serif" font-size="10.00">/src/util/floatbv_expr.cpp</text>
</a>
</g>
</g>
<!-- Node1&#45;&gt;Node14 -->
<g id="edge13" class="edge">
<title>Node1&#45;&gt;Node14</title>
<path fill="none" stroke="midnightblue" d="M2172.37,-101.8C2282.86,-93.63 2457.47,-78.07 2607,-53 2617.06,-51.31 2627.58,-49.25 2637.95,-47.02"/>
<polygon fill="midnightblue" stroke="midnightblue" points="2171.93,-98.33 2162.21,-102.55 2172.44,-105.31 2171.93,-98.33"/>
</g>
<!-- Node15 -->
<g id="node15" class="node">
<title>Node15</title>
<g id="a_node15"><a xlink:href="format__expr_8cpp.html" target="_top" xlink:title=" ">
<polygon fill="none" stroke="black" points="2834,-6 2834,-47 3034,-47 3034,-6 2834,-6"/>
<text text-anchor="start" x="2842" y="-35" font-family="Helvetica,sans-Serif" font-size="10.00">/home/runner/work/cbmc</text>
<text text-anchor="start" x="2842" y="-24" font-family="Helvetica,sans-Serif" font-size="10.00">&#45;documentation/cbmc&#45;documentation</text>
<text text-anchor="middle" x="2934" y="-13" font-family="Helvetica,sans-Serif" font-size="10.00">/src/util/format_expr.cpp</text>
</a>
</g>
</g>
<!-- Node1&#45;&gt;Node15 -->
<g id="edge14" class="edge">
<title>Node1&#45;&gt;Node15</title>
<path fill="none" stroke="midnightblue" d="M2172.3,-106.32C2321.21,-101.46 2594.45,-88.21 2825,-53 2835.47,-51.4 2846.42,-49.33 2857.18,-47.05"/>
<polygon fill="midnightblue" stroke="midnightblue" points="2172.12,-102.82 2162.24,-106.64 2172.35,-109.82 2172.12,-102.82"/>
</g>
<!-- Node16 -->
<g id="node16" class="node">
<title>Node16</title>
<g id="a_node16"><a xlink:href="ieee__float_8cpp.html" target="_top" xlink:title=" ">
<polygon fill="none" stroke="black" points="3052,-6 3052,-47 3252,-47 3252,-6 3052,-6"/>
<text text-anchor="start" x="3060" y="-35" font-family="Helvetica,sans-Serif" font-size="10.00">/home/runner/work/cbmc</text>
<text text-anchor="start" x="3060" y="-24" font-family="Helvetica,sans-Serif" font-size="10.00">&#45;documentation/cbmc&#45;documentation</text>
<text text-anchor="middle" x="3152" y="-13" font-family="Helvetica,sans-Serif" font-size="10.00">/src/util/ieee_float.cpp</text>
</a>
</g>
</g>
<!-- Node1&#45;&gt;Node16 -->
<g id="edge15" class="edge">
<title>Node1&#45;&gt;Node16</title>
<path fill="none" stroke="midnightblue" d="M2172.26,-108.89C2354.45,-107.34 2729.4,-98.29 3043,-53 3053.77,-51.44 3065.05,-49.35 3076.09,-47.02"/>
<polygon fill="midnightblue" stroke="midnightblue" points="2172.11,-105.4 2162.13,-108.97 2172.16,-112.4 2172.11,-105.4"/>
</g>
<!-- Node17 -->
<g id="node17" class="node">
<title>Node17</title>
<g id="a_node17"><a xlink:href="simplify__expr_8cpp.html" target="_top" xlink:title=" ">
<polygon fill="none" stroke="black" points="3270,-6 3270,-47 3470,-47 3470,-6 3270,-6"/>
<text text-anchor="start" x="3278" y="-35" font-family="Helvetica,sans-Serif" font-size="10.00">/home/runner/work/cbmc</text>
<text text-anchor="start" x="3278" y="-24" font-family="Helvetica,sans-Serif" font-size="10.00">&#45;documentation/cbmc&#45;documentation</text>
<text text-anchor="middle" x="3370" y="-13" font-family="Helvetica,sans-Serif" font-size="10.00">/src/util/simplify_expr.cpp</text>
</a>
</g>
</g>
<!-- Node1&#45;&gt;Node17 -->
<g id="edge16" class="edge">
<title>Node1&#45;&gt;Node17</title>
<path fill="none" stroke="midnightblue" d="M2172.46,-106.43C2427.75,-100.07 3052.74,-81.98 3261,-53 3271.97,-51.47 3283.46,-49.36 3294.69,-47"/>
<polygon fill="midnightblue" stroke="midnightblue" points="2172.34,-102.93 2162.43,-106.68 2172.51,-109.93 2172.34,-102.93"/>
</g>
<!-- Node18 -->
<g id="node18" class="node">
<title>Node18</title>
<g id="a_node18"><a xlink:href="simplify__expr__floatbv_8cpp.html" target="_top" xlink:title=" ">
<polygon fill="none" stroke="black" points="3488,-6 3488,-47 3688,-47 3688,-6 3488,-6"/>
<text text-anchor="start" x="3496" y="-35" font-family="Helvetica,sans-Serif" font-size="10.00">/home/runner/work/cbmc</text>
<text text-anchor="start" x="3496" y="-24" font-family="Helvetica,sans-Serif" font-size="10.00">&#45;documentation/cbmc&#45;documentation</text>
<text text-anchor="middle" x="3588" y="-13" font-family="Helvetica,sans-Serif" font-size="10.00">/src/util/simplify_expr_floatbv.cpp</text>
</a>
</g>
</g>
<!-- Node1&#45;&gt;Node18 -->
<g id="edge17" class="edge">
<title>Node1&#45;&gt;Node18</title>
<path fill="none" stroke="midnightblue" d="M2172.24,-107.36C2459.67,-102.63 3227.11,-87.12 3479,-53 3490.07,-51.5 3501.67,-49.39 3513,-47.01"/>
<polygon fill="midnightblue" stroke="midnightblue" points="2172.16,-103.86 2162.22,-107.52 2172.28,-110.86 2172.16,-103.86"/>
</g>
<!-- Node19 -->
<g id="node19" class="node">
<title>Node19</title>
<g id="a_node19"><a xlink:href="java__bytecode__convert__method_8cpp.html" target="_top" xlink:title=" ">
<polygon fill="none" stroke="black" points="3706,-0.5 3706,-52.5 3906,-52.5 3906,-0.5 3706,-0.5"/>
<text text-anchor="start" x="3714" y="-40.5" font-family="Helvetica,sans-Serif" font-size="10.00">/home/runner/work/cbmc</text>
<text text-anchor="start" x="3714" y="-29.5" font-family="Helvetica,sans-Serif" font-size="10.00">&#45;documentation/cbmc&#45;documentation</text>
<text text-anchor="start" x="3714" y="-18.5" font-family="Helvetica,sans-Serif" font-size="10.00">/jbmc/src/java_bytecode/java</text>
<text text-anchor="middle" x="3806" y="-7.5" font-family="Helvetica,sans-Serif" font-size="10.00">_bytecode_convert_method.cpp</text>
</a>
</g>
</g>
<!-- Node1&#45;&gt;Node19 -->
<g id="edge18" class="edge">
<title>Node1&#45;&gt;Node19</title>
<path fill="none" stroke="midnightblue" d="M2172.34,-108.03C2489.73,-104.8 3401.24,-92.28 3697,-53 3699.89,-52.62 3702.82,-52.19 3705.76,-51.73"/>
<polygon fill="midnightblue" stroke="midnightblue" points="2172.18,-104.53 2162.21,-108.13 2172.25,-111.53 2172.18,-104.53"/>
</g>
<!-- Node20 -->
<g id="node20" class="node">
<title>Node20</title>
<g id="a_node20"><a xlink:href="java__string__library__preprocess_8cpp.html" target="_top" xlink:title=" ">
<polygon fill="none" stroke="black" points="3924,-0.5 3924,-52.5 4124,-52.5 4124,-0.5 3924,-0.5"/>
<text text-anchor="start" x="3932" y="-40.5" font-family="Helvetica,sans-Serif" font-size="10.00">/home/runner/work/cbmc</text>
<text text-anchor="start" x="3932" y="-29.5" font-family="Helvetica,sans-Serif" font-size="10.00">&#45;documentation/cbmc&#45;documentation</text>
<text text-anchor="start" x="3932" y="-18.5" font-family="Helvetica,sans-Serif" font-size="10.00">/jbmc/src/java_bytecode/java</text>
<text text-anchor="middle" x="4024" y="-7.5" font-family="Helvetica,sans-Serif" font-size="10.00">_string_library_preprocess.cpp</text>
</a>
</g>
</g>
<!-- Node1&#45;&gt;Node20 -->
<g id="edge19" class="edge">
<title>Node1&#45;&gt;Node20</title>
<path fill="none" stroke="midnightblue" d="M2172.09,-108.55C2517.18,-106.7 3574.99,-97.46 3915,-53 3917.89,-52.62 3920.82,-52.2 3923.76,-51.74"/>
<polygon fill="midnightblue" stroke="midnightblue" points="2172.07,-105.05 2162.09,-108.61 2172.11,-112.05 2172.07,-105.05"/>
</g>
</g>
</svg>
