<?xml version="1.0" encoding="UTF-8" standalone="no"?>
<!DOCTYPE svg PUBLIC "-//W3C//DTD SVG 1.1//EN"
 "http://www.w3.org/Graphics/SVG/1.1/DTD/svg11.dtd">
<!-- Generated by graphviz version 2.43.0 (0)
 -->
<!-- Title: /home/runner/work/cbmc&#45;documentation/cbmc&#45;documentation/src/util/format_type.h Pages: 1 -->
<svg width="1534pt" height="139pt"
 viewBox="0.00 0.00 1534.00 139.00" xmlns="http://www.w3.org/2000/svg" xmlns:xlink="http://www.w3.org/1999/xlink">
<g id="graph0" class="graph" transform="scale(1 1) rotate(0) translate(4 135)">
<title>/home/runner/work/cbmc&#45;documentation/cbmc&#45;documentation/src/util/format_type.h</title>
<!-- Node1 -->
<g id="node1" class="node">
<title>Node1</title>
<g id="a_node1"><a xlink:title=" ">
<polygon fill="#bfbfbf" stroke="black" points="654,-89.5 654,-130.5 854,-130.5 854,-89.5 654,-89.5"/>
<text text-anchor="start" x="662" y="-118.5" font-family="Helvetica,sans-Serif" font-size="10.00">/home/runner/work/cbmc</text>
<text text-anchor="start" x="662" y="-107.5" font-family="Helvetica,sans-Serif" font-size="10.00">&#45;documentation/cbmc&#45;documentation</text>
<text text-anchor="middle" x="754" y="-96.5" font-family="Helvetica,sans-Serif" font-size="10.00">/src/util/format_type.h</text>
</a>
</g>
</g>
<!-- Node2 -->
<g id="node2" class="node">
<title>Node2</title>
<g id="a_node2"><a xlink:href="havoc__assigns__clause__targets_8cpp.html" target="_top" xlink:title=" ">
<polygon fill="none" stroke="black" points="0,-0.5 0,-52.5 200,-52.5 200,-0.5 0,-0.5"/>
<text text-anchor="start" x="8" y="-40.5" font-family="Helvetica,sans-Serif" font-size="10.00">/home/runner/work/cbmc</text>
<text text-anchor="start" x="8" y="-29.5" font-family="Helvetica,sans-Serif" font-size="10.00">&#45;documentation/cbmc&#45;documentation</text>
<text text-anchor="start" x="8" y="-18.5" font-family="Helvetica,sans-Serif" font-size="10.00">/src/goto&#45;instrument/contracts</text>
<text text-anchor="middle" x="100" y="-7.5" font-family="Helvetica,sans-Serif" font-size="10.00">/havoc_assigns_clause_targets.cpp</text>
</a>
</g>
</g>
<!-- Node1&#45;&gt;Node2 -->
<g id="edge1" class="edge">
<title>Node1&#45;&gt;Node2</title>
<path fill="none" stroke="midnightblue" d="M643.63,-101.8C533.14,-93.63 358.53,-78.07 209,-53 206.12,-52.52 203.21,-52 200.28,-51.47"/>
<polygon fill="midnightblue" stroke="midnightblue" points="643.56,-105.31 653.79,-102.55 644.07,-98.33 643.56,-105.31"/>
</g>
<!-- Node3 -->
<g id="node3" class="node">
<title>Node3</title>
<g id="a_node3"><a xlink:href="goto__program_8cpp.html" target="_top" xlink:title=" ">
<polygon fill="none" stroke="black" points="218,-6 218,-47 418,-47 418,-6 218,-6"/>
<text text-anchor="start" x="226" y="-35" font-family="Helvetica,sans-Serif" font-size="10.00">/home/runner/work/cbmc</text>
<text text-anchor="start" x="226" y="-24" font-family="Helvetica,sans-Serif" font-size="10.00">&#45;documentation/cbmc&#45;documentation</text>
<text text-anchor="middle" x="318" y="-13" font-family="Helvetica,sans-Serif" font-size="10.00">/src/goto&#45;programs/goto_program.cpp</text>
</a>
</g>
</g>
<!-- Node1&#45;&gt;Node3 -->
<g id="edge2" class="edge">
<title>Node1&#45;&gt;Node3</title>
<path fill="none" stroke="midnightblue" d="M643.85,-91.83C580.28,-81.5 498.94,-67.56 427,-53 417.95,-51.17 408.51,-49.14 399.13,-47.05"/>
<polygon fill="midnightblue" stroke="midnightblue" points="643.46,-95.31 653.89,-93.46 644.58,-88.4 643.46,-95.31"/>
</g>
<!-- Node4 -->
<g id="node4" class="node">
<title>Node4</title>
<g id="a_node4"><a xlink:href="solver__hardness_8cpp.html" target="_top" xlink:title=" ">
<polygon fill="none" stroke="black" points="436,-6 436,-47 636,-47 636,-6 436,-6"/>
<text text-anchor="start" x="444" y="-35" font-family="Helvetica,sans-Serif" font-size="10.00">/home/runner/work/cbmc</text>
<text text-anchor="start" x="444" y="-24" font-family="Helvetica,sans-Serif" font-size="10.00">&#45;documentation/cbmc&#45;documentation</text>
<text text-anchor="middle" x="536" y="-13" font-family="Helvetica,sans-Serif" font-size="10.00">/src/goto&#45;symex/solver_hardness.cpp</text>
</a>
</g>
</g>
<!-- Node1&#45;&gt;Node4 -->
<g id="edge3" class="edge">
<title>Node1&#45;&gt;Node4</title>
<path fill="none" stroke="midnightblue" d="M692.28,-85.92C659.42,-73.64 619.46,-58.7 588.17,-47"/>
<polygon fill="midnightblue" stroke="midnightblue" points="691.19,-89.26 701.78,-89.48 693.64,-82.7 691.19,-89.26"/>
</g>
<!-- Node5 -->
<g id="node5" class="node">
<title>Node5</title>
<g id="a_node5"><a xlink:href="value__set_8cpp.html" target="_top" xlink:title=" ">
<polygon fill="none" stroke="black" points="654,-6 654,-47 854,-47 854,-6 654,-6"/>
<text text-anchor="start" x="662" y="-35" font-family="Helvetica,sans-Serif" font-size="10.00">/home/runner/work/cbmc</text>
<text text-anchor="start" x="662" y="-24" font-family="Helvetica,sans-Serif" font-size="10.00">&#45;documentation/cbmc&#45;documentation</text>
<text text-anchor="middle" x="754" y="-13" font-family="Helvetica,sans-Serif" font-size="10.00">/src/pointer&#45;analysis/value_set.cpp</text>
</a>
</g>
</g>
<!-- Node1&#45;&gt;Node5 -->
<g id="edge4" class="edge">
<title>Node1&#45;&gt;Node5</title>
<path fill="none" stroke="midnightblue" d="M754,-79.06C754,-68.38 754,-56.63 754,-47.05"/>
<polygon fill="midnightblue" stroke="midnightblue" points="750.5,-79.27 754,-89.27 757.5,-79.27 750.5,-79.27"/>
</g>
<!-- Node6 -->
<g id="node6" class="node">
<title>Node6</title>
<g id="a_node6"><a xlink:href="string__refinement_8cpp.html" target="_top" xlink:title=" ">
<polygon fill="none" stroke="black" points="872,-6 872,-47 1090,-47 1090,-6 872,-6"/>
<text text-anchor="start" x="880" y="-35" font-family="Helvetica,sans-Serif" font-size="10.00">/home/runner/work/cbmc</text>
<text text-anchor="start" x="880" y="-24" font-family="Helvetica,sans-Serif" font-size="10.00">&#45;documentation/cbmc&#45;documentation</text>
<text text-anchor="middle" x="981" y="-13" font-family="Helvetica,sans-Serif" font-size="10.00">/src/solvers/strings/string_refinement.cpp</text>
</a>
</g>
</g>
<!-- Node1&#45;&gt;Node6 -->
<g id="edge5" class="edge">
<title>Node1&#45;&gt;Node6</title>
<path fill="none" stroke="midnightblue" d="M817.83,-86.08C852.13,-73.77 893.96,-58.75 926.68,-47"/>
<polygon fill="midnightblue" stroke="midnightblue" points="816.6,-82.81 808.37,-89.48 818.97,-89.39 816.6,-82.81"/>
</g>
<!-- Node7 -->
<g id="node7" class="node">
<title>Node7</title>
<g id="a_node7"><a xlink:href="format__expr_8cpp.html" target="_top" xlink:title=" ">
<polygon fill="none" stroke="black" points="1108,-6 1108,-47 1308,-47 1308,-6 1108,-6"/>
<text text-anchor="start" x="1116" y="-35" font-family="Helvetica,sans-Serif" font-size="10.00">/home/runner/work/cbmc</text>
<text text-anchor="start" x="1116" y="-24" font-family="Helvetica,sans-Serif" font-size="10.00">&#45;documentation/cbmc&#45;documentation</text>
<text text-anchor="middle" x="1208" y="-13" font-family="Helvetica,sans-Serif" font-size="10.00">/src/util/format_expr.cpp</text>
</a>
</g>
</g>
<!-- Node1&#45;&gt;Node7 -->
<g id="edge6" class="edge">
<title>Node1&#45;&gt;Node7</title>
<path fill="none" stroke="midnightblue" d="M864.63,-93.03C932.48,-82.74 1021.01,-68.43 1099,-53 1108.15,-51.19 1117.7,-49.16 1127.18,-47.06"/>
<polygon fill="midnightblue" stroke="midnightblue" points="863.71,-89.63 854.34,-94.58 864.75,-96.55 863.71,-89.63"/>
</g>
<!-- Node8 -->
<g id="node8" class="node">
<title>Node8</title>
<g id="a_node8"><a xlink:href="format__type_8cpp.html" target="_top" xlink:title=" ">
<polygon fill="none" stroke="black" points="1326,-6 1326,-47 1526,-47 1526,-6 1326,-6"/>
<text text-anchor="start" x="1334" y="-35" font-family="Helvetica,sans-Serif" font-size="10.00">/home/runner/work/cbmc</text>
<text text-anchor="start" x="1334" y="-24" font-family="Helvetica,sans-Serif" font-size="10.00">&#45;documentation/cbmc&#45;documentation</text>
<text text-anchor="middle" x="1426" y="-13" font-family="Helvetica,sans-Serif" font-size="10.00">/src/util/format_type.cpp</text>
</a>
</g>
</g>
<!-- Node1&#45;&gt;Node8 -->
<g id="edge7" class="edge">
<title>Node1&#45;&gt;Node8</title>
<path fill="none" stroke="midnightblue" d="M864.31,-102.31C978.22,-94.39 1160.86,-78.92 1317,-53 1327.07,-51.33 1337.59,-49.27 1347.95,-47.06"/>
<polygon fill="midnightblue" stroke="midnightblue" points="863.92,-98.82 854.18,-103 864.4,-105.81 863.92,-98.82"/>
</g>
</g>
</svg>
