<?xml version="1.0" encoding="UTF-8" standalone="no"?>
<!DOCTYPE svg PUBLIC "-//W3C//DTD SVG 1.1//EN"
 "http://www.w3.org/Graphics/SVG/1.1/DTD/svg11.dtd">
<!-- Generated by graphviz version 2.43.0 (0)
 -->
<!-- Title: /home/runner/work/cbmc&#45;documentation/cbmc&#45;documentation/src/util/fresh_symbol.h Pages: 1 -->
<svg width="6239pt" height="139pt"
 viewBox="0.00 0.00 6238.50 139.00" xmlns="http://www.w3.org/2000/svg" xmlns:xlink="http://www.w3.org/1999/xlink">
<g id="graph0" class="graph" transform="scale(1 1) rotate(0) translate(4 135)">
<title>/home/runner/work/cbmc&#45;documentation/cbmc&#45;documentation/src/util/fresh_symbol.h</title>
<!-- Node1 -->
<g id="node1" class="node">
<title>Node1</title>
<g id="a_node1"><a xlink:title=" ">
<polygon fill="#bfbfbf" stroke="black" points="3032.5,-89.5 3032.5,-130.5 3232.5,-130.5 3232.5,-89.5 3032.5,-89.5"/>
<text text-anchor="start" x="3040.5" y="-118.5" font-family="Helvetica,sans-Serif" font-size="10.00">/home/runner/work/cbmc</text>
<text text-anchor="start" x="3040.5" y="-107.5" font-family="Helvetica,sans-Serif" font-size="10.00">&#45;documentation/cbmc&#45;documentation</text>
<text text-anchor="middle" x="3132.5" y="-96.5" font-family="Helvetica,sans-Serif" font-size="10.00">/src/util/fresh_symbol.h</text>
</a>
</g>
</g>
<!-- Node2 -->
<g id="node2" class="node">
<title>Node2</title>
<g id="a_node2"><a xlink:href="c__nondet__symbol__factory_8cpp.html" target="_top" xlink:title=" ">
<polygon fill="none" stroke="black" points="0,-6 0,-47 213,-47 213,-6 0,-6"/>
<text text-anchor="start" x="8" y="-35" font-family="Helvetica,sans-Serif" font-size="10.00">/home/runner/work/cbmc</text>
<text text-anchor="start" x="8" y="-24" font-family="Helvetica,sans-Serif" font-size="10.00">&#45;documentation/cbmc&#45;documentation</text>
<text text-anchor="middle" x="106.5" y="-13" font-family="Helvetica,sans-Serif" font-size="10.00">/src/ansi&#45;c/c_nondet_symbol_factory.cpp</text>
</a>
</g>
</g>
<!-- Node1&#45;&gt;Node2 -->
<g id="edge1" class="edge">
<title>Node1&#45;&gt;Node2</title>
<path fill="none" stroke="midnightblue" d="M3022.43,-108.17C2525.57,-104.23 503.84,-86.3 222.5,-53 210.42,-51.57 197.74,-49.44 185.39,-47.02"/>
<polygon fill="midnightblue" stroke="midnightblue" points="3022.44,-111.67 3032.47,-108.25 3022.5,-104.67 3022.44,-111.67"/>
</g>
<!-- Node3 -->
<g id="node3" class="node">
<title>Node3</title>
<g id="a_node3"><a xlink:href="c__typecheck__type_8cpp.html" target="_top" xlink:title=" ">
<polygon fill="none" stroke="black" points="231.5,-6 231.5,-47 431.5,-47 431.5,-6 231.5,-6"/>
<text text-anchor="start" x="239.5" y="-35" font-family="Helvetica,sans-Serif" font-size="10.00">/home/runner/work/cbmc</text>
<text text-anchor="start" x="239.5" y="-24" font-family="Helvetica,sans-Serif" font-size="10.00">&#45;documentation/cbmc&#45;documentation</text>
<text text-anchor="middle" x="331.5" y="-13" font-family="Helvetica,sans-Serif" font-size="10.00">/src/ansi&#45;c/c_typecheck_type.cpp</text>
</a>
</g>
</g>
<!-- Node1&#45;&gt;Node3 -->
<g id="edge2" class="edge">
<title>Node1&#45;&gt;Node3</title>
<path fill="none" stroke="midnightblue" d="M3022.2,-108.07C2548.5,-103.88 698.97,-85.56 440.5,-53 429.12,-51.57 417.2,-49.44 405.59,-47.02"/>
<polygon fill="midnightblue" stroke="midnightblue" points="3022.43,-111.57 3032.46,-108.16 3022.49,-104.57 3022.43,-111.57"/>
</g>
<!-- Node4 -->
<g id="node4" class="node">
<title>Node4</title>
<g id="a_node4"><a xlink:href="memory__snapshot__harness__generator_8cpp.html" target="_top" xlink:title=" ">
<polygon fill="none" stroke="black" points="449.5,-0.5 449.5,-52.5 649.5,-52.5 649.5,-0.5 449.5,-0.5"/>
<text text-anchor="start" x="457.5" y="-40.5" font-family="Helvetica,sans-Serif" font-size="10.00">/home/runner/work/cbmc</text>
<text text-anchor="start" x="457.5" y="-29.5" font-family="Helvetica,sans-Serif" font-size="10.00">&#45;documentation/cbmc&#45;documentation</text>
<text text-anchor="start" x="457.5" y="-18.5" font-family="Helvetica,sans-Serif" font-size="10.00">/src/goto&#45;harness/memory_snapshot</text>
<text text-anchor="middle" x="549.5" y="-7.5" font-family="Helvetica,sans-Serif" font-size="10.00">_harness_generator.cpp</text>
</a>
</g>
</g>
<!-- Node1&#45;&gt;Node4 -->
<g id="edge3" class="edge">
<title>Node1&#45;&gt;Node4</title>
<path fill="none" stroke="midnightblue" d="M3022.29,-107.85C2573.26,-102.98 894.44,-82.94 658.5,-53 655.61,-52.63 652.68,-52.22 649.73,-51.77"/>
<polygon fill="midnightblue" stroke="midnightblue" points="3022.31,-111.35 3032.34,-107.96 3022.38,-104.35 3022.31,-111.35"/>
</g>
<!-- Node5 -->
<g id="node5" class="node">
<title>Node5</title>
<g id="a_node5"><a xlink:href="recursive__initialization_8cpp.html" target="_top" xlink:title=" ">
<polygon fill="none" stroke="black" points="668,-6 668,-47 903,-47 903,-6 668,-6"/>
<text text-anchor="start" x="676" y="-35" font-family="Helvetica,sans-Serif" font-size="10.00">/home/runner/work/cbmc</text>
<text text-anchor="start" x="676" y="-24" font-family="Helvetica,sans-Serif" font-size="10.00">&#45;documentation/cbmc&#45;documentation</text>
<text text-anchor="middle" x="785.5" y="-13" font-family="Helvetica,sans-Serif" font-size="10.00">/src/goto&#45;harness/recursive_initialization.cpp</text>
</a>
</g>
</g>
<!-- Node1&#45;&gt;Node5 -->
<g id="edge4" class="edge">
<title>Node1&#45;&gt;Node5</title>
<path fill="none" stroke="midnightblue" d="M3022.31,-108.74C2633.69,-107.44 1328.11,-99.61 912.5,-53 899.54,-51.55 885.93,-49.44 872.63,-47.06"/>
<polygon fill="midnightblue" stroke="midnightblue" points="3022.42,-112.24 3032.43,-108.78 3022.44,-105.24 3022.42,-112.24"/>
</g>
<!-- Node6 -->
<g id="node6" class="node">
<title>Node6</title>
<g id="a_node6"><a xlink:href="contracts_8cpp.html" target="_top" xlink:title=" ">
<polygon fill="none" stroke="black" points="921.5,-0.5 921.5,-52.5 1121.5,-52.5 1121.5,-0.5 921.5,-0.5"/>
<text text-anchor="start" x="929.5" y="-40.5" font-family="Helvetica,sans-Serif" font-size="10.00">/home/runner/work/cbmc</text>
<text text-anchor="start" x="929.5" y="-29.5" font-family="Helvetica,sans-Serif" font-size="10.00">&#45;documentation/cbmc&#45;documentation</text>
<text text-anchor="start" x="929.5" y="-18.5" font-family="Helvetica,sans-Serif" font-size="10.00">/src/goto&#45;instrument/contracts</text>
<text text-anchor="middle" x="1021.5" y="-7.5" font-family="Helvetica,sans-Serif" font-size="10.00">/contracts.cpp</text>
</a>
</g>
</g>
<!-- Node1&#45;&gt;Node6 -->
<g id="edge5" class="edge">
<title>Node1&#45;&gt;Node6</title>
<path fill="none" stroke="midnightblue" d="M3022.14,-108.84C2658.6,-107.87 1500.75,-100.99 1130.5,-53 1127.61,-52.63 1124.68,-52.21 1121.73,-51.75"/>
<polygon fill="midnightblue" stroke="midnightblue" points="3022.4,-112.34 3032.41,-108.87 3022.41,-105.34 3022.4,-112.34"/>
</g>
<!-- Node7 -->
<g id="node7" class="node">
<title>Node7</title>
<g id="a_node7"><a xlink:href="memory__predicates_8cpp.html" target="_top" xlink:title=" ">
<polygon fill="none" stroke="black" points="1139.5,-0.5 1139.5,-52.5 1339.5,-52.5 1339.5,-0.5 1139.5,-0.5"/>
<text text-anchor="start" x="1147.5" y="-40.5" font-family="Helvetica,sans-Serif" font-size="10.00">/home/runner/work/cbmc</text>
<text text-anchor="start" x="1147.5" y="-29.5" font-family="Helvetica,sans-Serif" font-size="10.00">&#45;documentation/cbmc&#45;documentation</text>
<text text-anchor="start" x="1147.5" y="-18.5" font-family="Helvetica,sans-Serif" font-size="10.00">/src/goto&#45;instrument/contracts</text>
<text text-anchor="middle" x="1239.5" y="-7.5" font-family="Helvetica,sans-Serif" font-size="10.00">/memory_predicates.cpp</text>
</a>
</g>
</g>
<!-- Node1&#45;&gt;Node7 -->
<g id="edge6" class="edge">
<title>Node1&#45;&gt;Node7</title>
<path fill="none" stroke="midnightblue" d="M3022.22,-108.4C2685.59,-106.13 1674.44,-95.81 1348.5,-53 1345.61,-52.62 1342.68,-52.2 1339.74,-51.74"/>
<polygon fill="midnightblue" stroke="midnightblue" points="3022.44,-111.9 3032.46,-108.47 3022.48,-104.9 3022.44,-111.9"/>
</g>
<!-- Node8 -->
<g id="node8" class="node">
<title>Node8</title>
<g id="a_node8"><a xlink:href="utils_8cpp.html" target="_top" xlink:title=" ">
<polygon fill="none" stroke="black" points="1357.5,-0.5 1357.5,-52.5 1557.5,-52.5 1557.5,-0.5 1357.5,-0.5"/>
<text text-anchor="start" x="1365.5" y="-40.5" font-family="Helvetica,sans-Serif" font-size="10.00">/home/runner/work/cbmc</text>
<text text-anchor="start" x="1365.5" y="-29.5" font-family="Helvetica,sans-Serif" font-size="10.00">&#45;documentation/cbmc&#45;documentation</text>
<text text-anchor="start" x="1365.5" y="-18.5" font-family="Helvetica,sans-Serif" font-size="10.00">/src/goto&#45;instrument/contracts</text>
<text text-anchor="middle" x="1457.5" y="-7.5" font-family="Helvetica,sans-Serif" font-size="10.00">/utils.cpp</text>
</a>
</g>
</g>
<!-- Node1&#45;&gt;Node8 -->
<g id="edge7" class="edge">
<title>Node1&#45;&gt;Node8</title>
<path fill="none" stroke="midnightblue" d="M3022.03,-107.84C2713.75,-104.15 1848.29,-90.64 1566.5,-53 1563.61,-52.61 1560.69,-52.19 1557.74,-51.72"/>
<polygon fill="midnightblue" stroke="midnightblue" points="3022.27,-111.34 3032.31,-107.96 3022.36,-104.34 3022.27,-111.34"/>
</g>
<!-- Node9 -->
<g id="node9" class="node">
<title>Node9</title>
<g id="a_node9"><a xlink:href="generate__function__bodies_8cpp.html" target="_top" xlink:title=" ">
<polygon fill="none" stroke="black" points="1575.5,-0.5 1575.5,-52.5 1775.5,-52.5 1775.5,-0.5 1575.5,-0.5"/>
<text text-anchor="start" x="1583.5" y="-40.5" font-family="Helvetica,sans-Serif" font-size="10.00">/home/runner/work/cbmc</text>
<text text-anchor="start" x="1583.5" y="-29.5" font-family="Helvetica,sans-Serif" font-size="10.00">&#45;documentation/cbmc&#45;documentation</text>
<text text-anchor="start" x="1583.5" y="-18.5" font-family="Helvetica,sans-Serif" font-size="10.00">/src/goto&#45;instrument/generate</text>
<text text-anchor="middle" x="1675.5" y="-7.5" font-family="Helvetica,sans-Serif" font-size="10.00">_function_bodies.cpp</text>
</a>
</g>
</g>
<!-- Node1&#45;&gt;Node9 -->
<g id="edge8" class="edge">
<title>Node1&#45;&gt;Node9</title>
<path fill="none" stroke="midnightblue" d="M3022.01,-107.09C2744.32,-101.86 2022.48,-85.49 1784.5,-53 1781.61,-52.61 1778.69,-52.17 1775.74,-51.7"/>
<polygon fill="midnightblue" stroke="midnightblue" points="3022.03,-110.59 3032.1,-107.28 3022.17,-103.59 3022.03,-110.59"/>
</g>
<!-- Node10 -->
<g id="node10" class="node">
<title>Node10</title>
<g id="a_node10"><a xlink:href="nondet__volatile_8cpp.html" target="_top" xlink:title=" ">
<polygon fill="none" stroke="black" points="1794,-6 1794,-47 2009,-47 2009,-6 1794,-6"/>
<text text-anchor="start" x="1802" y="-35" font-family="Helvetica,sans-Serif" font-size="10.00">/home/runner/work/cbmc</text>
<text text-anchor="start" x="1802" y="-24" font-family="Helvetica,sans-Serif" font-size="10.00">&#45;documentation/cbmc&#45;documentation</text>
<text text-anchor="middle" x="1901.5" y="-13" font-family="Helvetica,sans-Serif" font-size="10.00">/src/goto&#45;instrument/nondet_volatile.cpp</text>
</a>
</g>
</g>
<!-- Node1&#45;&gt;Node10 -->
<g id="edge9" class="edge">
<title>Node1&#45;&gt;Node10</title>
<path fill="none" stroke="midnightblue" d="M3021.88,-109.44C2821.08,-108.91 2383.58,-101.62 2018.5,-53 2006.96,-51.46 1994.87,-49.38 1983.02,-47.06"/>
<polygon fill="midnightblue" stroke="midnightblue" points="3022.13,-112.94 3032.14,-109.46 3022.15,-105.94 3022.13,-112.94"/>
</g>
<!-- Node11 -->
<g id="node11" class="node">
<title>Node11</title>
<g id="a_node11"><a xlink:href="shared__buffers_8cpp.html" target="_top" xlink:title=" ">
<polygon fill="none" stroke="black" points="2027.5,-0.5 2027.5,-52.5 2227.5,-52.5 2227.5,-0.5 2027.5,-0.5"/>
<text text-anchor="start" x="2035.5" y="-40.5" font-family="Helvetica,sans-Serif" font-size="10.00">/home/runner/work/cbmc</text>
<text text-anchor="start" x="2035.5" y="-29.5" font-family="Helvetica,sans-Serif" font-size="10.00">&#45;documentation/cbmc&#45;documentation</text>
<text text-anchor="start" x="2035.5" y="-18.5" font-family="Helvetica,sans-Serif" font-size="10.00">/src/goto&#45;instrument/wmm/shared</text>
<text text-anchor="middle" x="2127.5" y="-7.5" font-family="Helvetica,sans-Serif" font-size="10.00">_buffers.cpp</text>
</a>
</g>
</g>
<!-- Node1&#45;&gt;Node11 -->
<g id="edge10" class="edge">
<title>Node1&#45;&gt;Node11</title>
<path fill="none" stroke="midnightblue" d="M3022.3,-108.03C2852.63,-105.21 2517.57,-94.36 2236.5,-53 2233.62,-52.58 2230.7,-52.11 2227.75,-51.62"/>
<polygon fill="midnightblue" stroke="midnightblue" points="3022.44,-111.54 3032.49,-108.2 3022.55,-104.54 3022.44,-111.54"/>
</g>
<!-- Node12 -->
<g id="node12" class="node">
<title>Node12</title>
<g id="a_node12"><a xlink:href="weak__memory_8cpp.html" target="_top" xlink:title=" ">
<polygon fill="none" stroke="black" points="2245.5,-0.5 2245.5,-52.5 2445.5,-52.5 2445.5,-0.5 2245.5,-0.5"/>
<text text-anchor="start" x="2253.5" y="-40.5" font-family="Helvetica,sans-Serif" font-size="10.00">/home/runner/work/cbmc</text>
<text text-anchor="start" x="2253.5" y="-29.5" font-family="Helvetica,sans-Serif" font-size="10.00">&#45;documentation/cbmc&#45;documentation</text>
<text text-anchor="start" x="2253.5" y="-18.5" font-family="Helvetica,sans-Serif" font-size="10.00">/src/goto&#45;instrument/wmm/weak</text>
<text text-anchor="middle" x="2345.5" y="-7.5" font-family="Helvetica,sans-Serif" font-size="10.00">_memory.cpp</text>
</a>
</g>
</g>
<!-- Node1&#45;&gt;Node12 -->
<g id="edge11" class="edge">
<title>Node1&#45;&gt;Node12</title>
<path fill="none" stroke="midnightblue" d="M3021.97,-104.88C2887.27,-98.7 2653.07,-84.25 2454.5,-53 2451.62,-52.55 2448.7,-52.06 2445.76,-51.54"/>
<polygon fill="midnightblue" stroke="midnightblue" points="3022.14,-108.39 3032.29,-105.34 3022.46,-101.4 3022.14,-108.39"/>
</g>
<!-- Node13 -->
<g id="node13" class="node">
<title>Node13</title>
<g id="a_node13"><a xlink:href="allocate__objects_8cpp.html" target="_top" xlink:title=" ">
<polygon fill="none" stroke="black" points="2463.5,-6 2463.5,-47 2675.5,-47 2675.5,-6 2463.5,-6"/>
<text text-anchor="start" x="2471.5" y="-35" font-family="Helvetica,sans-Serif" font-size="10.00">/home/runner/work/cbmc</text>
<text text-anchor="start" x="2471.5" y="-24" font-family="Helvetica,sans-Serif" font-size="10.00">&#45;documentation/cbmc&#45;documentation</text>
<text text-anchor="middle" x="2569.5" y="-13" font-family="Helvetica,sans-Serif" font-size="10.00">/src/goto&#45;programs/allocate_objects.cpp</text>
</a>
</g>
</g>
<!-- Node1&#45;&gt;Node13 -->
<g id="edge12" class="edge">
<title>Node1&#45;&gt;Node13</title>
<path fill="none" stroke="midnightblue" d="M3022.41,-98.15C2931.46,-88.49 2799.15,-72.83 2684.5,-53 2674.32,-51.24 2663.69,-49.18 2653.17,-47.01"/>
<polygon fill="midnightblue" stroke="midnightblue" points="3022.15,-101.64 3032.46,-99.21 3022.88,-94.68 3022.15,-101.64"/>
</g>
<!-- Node14 -->
<g id="node14" class="node">
<title>Node14</title>
<g id="a_node14"><a xlink:href="goto__clean__expr_8cpp.html" target="_top" xlink:title=" ">
<polygon fill="none" stroke="black" points="2693.5,-6 2693.5,-47 2905.5,-47 2905.5,-6 2693.5,-6"/>
<text text-anchor="start" x="2701.5" y="-35" font-family="Helvetica,sans-Serif" font-size="10.00">/home/runner/work/cbmc</text>
<text text-anchor="start" x="2701.5" y="-24" font-family="Helvetica,sans-Serif" font-size="10.00">&#45;documentation/cbmc&#45;documentation</text>
<text text-anchor="middle" x="2799.5" y="-13" font-family="Helvetica,sans-Serif" font-size="10.00">/src/goto&#45;programs/goto_clean_expr.cpp</text>
</a>
</g>
</g>
<!-- Node1&#45;&gt;Node14 -->
<g id="edge13" class="edge">
<title>Node1&#45;&gt;Node14</title>
<path fill="none" stroke="midnightblue" d="M3042.71,-87.02C2991.71,-74.54 2928.42,-59.05 2879.19,-47"/>
<polygon fill="midnightblue" stroke="midnightblue" points="3042.19,-90.5 3052.74,-89.48 3043.86,-83.7 3042.19,-90.5"/>
</g>
<!-- Node15 -->
<g id="node15" class="node">
<title>Node15</title>
<g id="a_node15"><a xlink:href="goto__convert_8cpp.html" target="_top" xlink:title=" ">
<polygon fill="none" stroke="black" points="2923.5,-6 2923.5,-47 3123.5,-47 3123.5,-6 2923.5,-6"/>
<text text-anchor="start" x="2931.5" y="-35" font-family="Helvetica,sans-Serif" font-size="10.00">/home/runner/work/cbmc</text>
<text text-anchor="start" x="2931.5" y="-24" font-family="Helvetica,sans-Serif" font-size="10.00">&#45;documentation/cbmc&#45;documentation</text>
<text text-anchor="middle" x="3023.5" y="-13" font-family="Helvetica,sans-Serif" font-size="10.00">/src/goto&#45;programs/goto_convert.cpp</text>
</a>
</g>
</g>
<!-- Node1&#45;&gt;Node15 -->
<g id="edge14" class="edge">
<title>Node1&#45;&gt;Node15</title>
<path fill="none" stroke="midnightblue" d="M3098.02,-83.22C3082.41,-71.55 3064.26,-57.97 3049.77,-47.14"/>
<polygon fill="midnightblue" stroke="midnightblue" points="3096.29,-86.29 3106.39,-89.48 3100.48,-80.69 3096.29,-86.29"/>
</g>
<!-- Node16 -->
<g id="node16" class="node">
<title>Node16</title>
<g id="a_node16"><a xlink:href="goto__convert__side__effect_8cpp.html" target="_top" xlink:title=" ">
<polygon fill="none" stroke="black" points="3141.5,-0.5 3141.5,-52.5 3341.5,-52.5 3341.5,-0.5 3141.5,-0.5"/>
<text text-anchor="start" x="3149.5" y="-40.5" font-family="Helvetica,sans-Serif" font-size="10.00">/home/runner/work/cbmc</text>
<text text-anchor="start" x="3149.5" y="-29.5" font-family="Helvetica,sans-Serif" font-size="10.00">&#45;documentation/cbmc&#45;documentation</text>
<text text-anchor="start" x="3149.5" y="-18.5" font-family="Helvetica,sans-Serif" font-size="10.00">/src/goto&#45;programs/goto_convert</text>
<text text-anchor="middle" x="3241.5" y="-7.5" font-family="Helvetica,sans-Serif" font-size="10.00">_side_effect.cpp</text>
</a>
</g>
</g>
<!-- Node1&#45;&gt;Node16 -->
<g id="edge15" class="edge">
<title>Node1&#45;&gt;Node16</title>
<path fill="none" stroke="midnightblue" d="M3166.89,-83.29C3179.93,-73.53 3194.77,-62.44 3207.76,-52.73"/>
<polygon fill="midnightblue" stroke="midnightblue" points="3164.52,-80.69 3158.61,-89.48 3168.71,-86.29 3164.52,-80.69"/>
</g>
<!-- Node17 -->
<g id="node17" class="node">
<title>Node17</title>
<g id="a_node17"><a xlink:href="mm__io_8cpp.html" target="_top" xlink:title=" ">
<polygon fill="none" stroke="black" points="3359.5,-6 3359.5,-47 3559.5,-47 3559.5,-6 3359.5,-6"/>
<text text-anchor="start" x="3367.5" y="-35" font-family="Helvetica,sans-Serif" font-size="10.00">/home/runner/work/cbmc</text>
<text text-anchor="start" x="3367.5" y="-24" font-family="Helvetica,sans-Serif" font-size="10.00">&#45;documentation/cbmc&#45;documentation</text>
<text text-anchor="middle" x="3459.5" y="-13" font-family="Helvetica,sans-Serif" font-size="10.00">/src/goto&#45;programs/mm_io.cpp</text>
</a>
</g>
</g>
<!-- Node1&#45;&gt;Node17 -->
<g id="edge16" class="edge">
<title>Node1&#45;&gt;Node17</title>
<path fill="none" stroke="midnightblue" d="M3220.67,-87.02C3270.75,-74.54 3332.9,-59.05 3381.25,-47"/>
<polygon fill="midnightblue" stroke="midnightblue" points="3219.68,-83.66 3210.82,-89.48 3221.37,-90.46 3219.68,-83.66"/>
</g>
<!-- Node18 -->
<g id="node18" class="node">
<title>Node18</title>
<g id="a_node18"><a xlink:href="remove__function__pointers_8cpp.html" target="_top" xlink:title=" ">
<polygon fill="none" stroke="black" points="3577.5,-0.5 3577.5,-52.5 3777.5,-52.5 3777.5,-0.5 3577.5,-0.5"/>
<text text-anchor="start" x="3585.5" y="-40.5" font-family="Helvetica,sans-Serif" font-size="10.00">/home/runner/work/cbmc</text>
<text text-anchor="start" x="3585.5" y="-29.5" font-family="Helvetica,sans-Serif" font-size="10.00">&#45;documentation/cbmc&#45;documentation</text>
<text text-anchor="start" x="3585.5" y="-18.5" font-family="Helvetica,sans-Serif" font-size="10.00">/src/goto&#45;programs/remove_function</text>
<text text-anchor="middle" x="3677.5" y="-7.5" font-family="Helvetica,sans-Serif" font-size="10.00">_pointers.cpp</text>
</a>
</g>
</g>
<!-- Node1&#45;&gt;Node18 -->
<g id="edge17" class="edge">
<title>Node1&#45;&gt;Node18</title>
<path fill="none" stroke="midnightblue" d="M3242.56,-98.01C3331,-88.42 3458.22,-72.93 3568.5,-53 3571.46,-52.46 3574.47,-51.9 3577.5,-51.31"/>
<polygon fill="midnightblue" stroke="midnightblue" points="3242.08,-94.54 3232.51,-99.09 3242.83,-101.5 3242.08,-94.54"/>
</g>
<!-- Node19 -->
<g id="node19" class="node">
<title>Node19</title>
<g id="a_node19"><a xlink:href="remove__virtual__functions_8cpp.html" target="_top" xlink:title=" ">
<polygon fill="none" stroke="black" points="3795.5,-0.5 3795.5,-52.5 3995.5,-52.5 3995.5,-0.5 3795.5,-0.5"/>
<text text-anchor="start" x="3803.5" y="-40.5" font-family="Helvetica,sans-Serif" font-size="10.00">/home/runner/work/cbmc</text>
<text text-anchor="start" x="3803.5" y="-29.5" font-family="Helvetica,sans-Serif" font-size="10.00">&#45;documentation/cbmc&#45;documentation</text>
<text text-anchor="start" x="3803.5" y="-18.5" font-family="Helvetica,sans-Serif" font-size="10.00">/src/goto&#45;programs/remove_virtual</text>
<text text-anchor="middle" x="3895.5" y="-7.5" font-family="Helvetica,sans-Serif" font-size="10.00">_functions.cpp</text>
</a>
</g>
</g>
<!-- Node1&#45;&gt;Node19 -->
<g id="edge18" class="edge">
<title>Node1&#45;&gt;Node19</title>
<path fill="none" stroke="midnightblue" d="M3242.77,-104.42C3373.25,-97.88 3596.74,-83.16 3786.5,-53 3789.38,-52.54 3792.29,-52.05 3795.23,-51.53"/>
<polygon fill="midnightblue" stroke="midnightblue" points="3242.58,-100.93 3232.76,-104.92 3242.92,-107.92 3242.58,-100.93"/>
</g>
<!-- Node20 -->
<g id="node20" class="node">
<title>Node20</title>
<g id="a_node20"><a xlink:href="string__abstraction_8cpp.html" target="_top" xlink:title=" ">
<polygon fill="none" stroke="black" points="4013.5,-6 4013.5,-47 4233.5,-47 4233.5,-6 4013.5,-6"/>
<text text-anchor="start" x="4021.5" y="-35" font-family="Helvetica,sans-Serif" font-size="10.00">/home/runner/work/cbmc</text>
<text text-anchor="start" x="4021.5" y="-24" font-family="Helvetica,sans-Serif" font-size="10.00">&#45;documentation/cbmc&#45;documentation</text>
<text text-anchor="middle" x="4123.5" y="-13" font-family="Helvetica,sans-Serif" font-size="10.00">/src/goto&#45;programs/string_abstraction.cpp</text>
</a>
</g>
</g>
<!-- Node1&#45;&gt;Node20 -->
<g id="edge19" class="edge">
<title>Node1&#45;&gt;Node20</title>
<path fill="none" stroke="midnightblue" d="M3242.92,-107.1C3408.93,-103.08 3732.39,-90.68 4004.5,-53 4016.01,-51.41 4028.07,-49.32 4039.91,-47.03"/>
<polygon fill="midnightblue" stroke="midnightblue" points="3242.61,-103.61 3232.7,-107.34 3242.78,-110.61 3242.61,-103.61"/>
</g>
<!-- Node21 -->
<g id="node21" class="node">
<title>Node21</title>
<g id="a_node21"><a xlink:href="goto__symex_8cpp.html" target="_top" xlink:title=" ">
<polygon fill="none" stroke="black" points="4251.5,-6 4251.5,-47 4451.5,-47 4451.5,-6 4251.5,-6"/>
<text text-anchor="start" x="4259.5" y="-35" font-family="Helvetica,sans-Serif" font-size="10.00">/home/runner/work/cbmc</text>
<text text-anchor="start" x="4259.5" y="-24" font-family="Helvetica,sans-Serif" font-size="10.00">&#45;documentation/cbmc&#45;documentation</text>
<text text-anchor="middle" x="4351.5" y="-13" font-family="Helvetica,sans-Serif" font-size="10.00">/src/goto&#45;symex/goto_symex.cpp</text>
</a>
</g>
</g>
<!-- Node1&#45;&gt;Node21 -->
<g id="edge20" class="edge">
<title>Node1&#45;&gt;Node21</title>
<path fill="none" stroke="midnightblue" d="M3242.8,-109.96C3443,-110.26 3879.11,-104.25 4242.5,-53 4253.37,-51.47 4264.76,-49.37 4275.89,-47.03"/>
<polygon fill="midnightblue" stroke="midnightblue" points="3242.58,-106.46 3232.57,-109.94 3242.56,-113.46 3242.58,-106.46"/>
</g>
<!-- Node22 -->
<g id="node22" class="node">
<title>Node22</title>
<g id="a_node22"><a xlink:href="symex__builtin__functions_8cpp.html" target="_top" xlink:title=" ">
<polygon fill="none" stroke="black" points="4469.5,-0.5 4469.5,-52.5 4669.5,-52.5 4669.5,-0.5 4469.5,-0.5"/>
<text text-anchor="start" x="4477.5" y="-40.5" font-family="Helvetica,sans-Serif" font-size="10.00">/home/runner/work/cbmc</text>
<text text-anchor="start" x="4477.5" y="-29.5" font-family="Helvetica,sans-Serif" font-size="10.00">&#45;documentation/cbmc&#45;documentation</text>
<text text-anchor="start" x="4477.5" y="-18.5" font-family="Helvetica,sans-Serif" font-size="10.00">/src/goto&#45;symex/symex_builtin</text>
<text text-anchor="middle" x="4569.5" y="-7.5" font-family="Helvetica,sans-Serif" font-size="10.00">_functions.cpp</text>
</a>
</g>
</g>
<!-- Node1&#45;&gt;Node22 -->
<g id="edge21" class="edge">
<title>Node1&#45;&gt;Node22</title>
<path fill="none" stroke="midnightblue" d="M3243.25,-107.01C3518.19,-101.62 4226.59,-85 4460.5,-53 4463.39,-52.6 4466.31,-52.17 4469.26,-51.7"/>
<polygon fill="midnightblue" stroke="midnightblue" points="3242.79,-103.51 3232.86,-107.21 3242.92,-110.51 3242.79,-103.51"/>
</g>
<!-- Node23 -->
<g id="node23" class="node">
<title>Node23</title>
<g id="a_node23"><a xlink:href="symex__dereference_8cpp.html" target="_top" xlink:title=" ">
<polygon fill="none" stroke="black" points="4688,-6 4688,-47 4903,-47 4903,-6 4688,-6"/>
<text text-anchor="start" x="4696" y="-35" font-family="Helvetica,sans-Serif" font-size="10.00">/home/runner/work/cbmc</text>
<text text-anchor="start" x="4696" y="-24" font-family="Helvetica,sans-Serif" font-size="10.00">&#45;documentation/cbmc&#45;documentation</text>
<text text-anchor="middle" x="4795.5" y="-13" font-family="Helvetica,sans-Serif" font-size="10.00">/src/goto&#45;symex/symex_dereference.cpp</text>
</a>
</g>
</g>
<!-- Node1&#45;&gt;Node23 -->
<g id="edge22" class="edge">
<title>Node1&#45;&gt;Node23</title>
<path fill="none" stroke="midnightblue" d="M3242.89,-107.56C3548.33,-103.17 4400.45,-88.05 4678.5,-53 4690.36,-51.5 4702.79,-49.39 4714.95,-47.02"/>
<polygon fill="midnightblue" stroke="midnightblue" points="3242.64,-104.06 3232.69,-107.71 3242.74,-111.06 3242.64,-104.06"/>
</g>
<!-- Node24 -->
<g id="node24" class="node">
<title>Node24</title>
<g id="a_node24"><a xlink:href="symex__function__call_8cpp.html" target="_top" xlink:title=" ">
<polygon fill="none" stroke="black" points="4921,-6 4921,-47 5140,-47 5140,-6 4921,-6"/>
<text text-anchor="start" x="4929" y="-35" font-family="Helvetica,sans-Serif" font-size="10.00">/home/runner/work/cbmc</text>
<text text-anchor="start" x="4929" y="-24" font-family="Helvetica,sans-Serif" font-size="10.00">&#45;documentation/cbmc&#45;documentation</text>
<text text-anchor="middle" x="5030.5" y="-13" font-family="Helvetica,sans-Serif" font-size="10.00">/src/goto&#45;symex/symex_function_call.cpp</text>
</a>
</g>
</g>
<!-- Node1&#45;&gt;Node24 -->
<g id="edge23" class="edge">
<title>Node1&#45;&gt;Node24</title>
<path fill="none" stroke="midnightblue" d="M3242.8,-108.15C3578.88,-105.14 4587.03,-92.95 4912.5,-53 4924.57,-51.52 4937.22,-49.4 4949.58,-47.01"/>
<polygon fill="midnightblue" stroke="midnightblue" points="3242.54,-104.65 3232.57,-108.24 3242.6,-111.65 3242.54,-104.65"/>
</g>
<!-- Node25 -->
<g id="node25" class="node">
<title>Node25</title>
<g id="a_node25"><a xlink:href="value__set__dereference_8cpp.html" target="_top" xlink:title=" ">
<polygon fill="none" stroke="black" points="5158.5,-0.5 5158.5,-52.5 5358.5,-52.5 5358.5,-0.5 5158.5,-0.5"/>
<text text-anchor="start" x="5166.5" y="-40.5" font-family="Helvetica,sans-Serif" font-size="10.00">/home/runner/work/cbmc</text>
<text text-anchor="start" x="5166.5" y="-29.5" font-family="Helvetica,sans-Serif" font-size="10.00">&#45;documentation/cbmc&#45;documentation</text>
<text text-anchor="start" x="5166.5" y="-18.5" font-family="Helvetica,sans-Serif" font-size="10.00">/src/pointer&#45;analysis/value_set</text>
<text text-anchor="middle" x="5258.5" y="-7.5" font-family="Helvetica,sans-Serif" font-size="10.00">_dereference.cpp</text>
</a>
</g>
</g>
<!-- Node1&#45;&gt;Node25 -->
<g id="edge24" class="edge">
<title>Node1&#45;&gt;Node25</title>
<path fill="none" stroke="midnightblue" d="M3242.78,-108.87C3608.03,-107.99 4776.17,-101.35 5149.5,-53 5152.39,-52.63 5155.32,-52.21 5158.27,-51.75"/>
<polygon fill="midnightblue" stroke="midnightblue" points="3242.72,-105.37 3232.73,-108.89 3242.74,-112.37 3242.72,-105.37"/>
</g>
<!-- Node26 -->
<g id="node26" class="node">
<title>Node26</title>
<g id="a_node26"><a xlink:href="fresh__symbol_8cpp.html" target="_top" xlink:title=" ">
<polygon fill="none" stroke="black" points="5376.5,-6 5376.5,-47 5576.5,-47 5576.5,-6 5376.5,-6"/>
<text text-anchor="start" x="5384.5" y="-35" font-family="Helvetica,sans-Serif" font-size="10.00">/home/runner/work/cbmc</text>
<text text-anchor="start" x="5384.5" y="-24" font-family="Helvetica,sans-Serif" font-size="10.00">&#45;documentation/cbmc&#45;documentation</text>
<text text-anchor="middle" x="5476.5" y="-13" font-family="Helvetica,sans-Serif" font-size="10.00">/src/util/fresh_symbol.cpp</text>
</a>
</g>
</g>
<!-- Node1&#45;&gt;Node26 -->
<g id="edge25" class="edge">
<title>Node1&#45;&gt;Node26</title>
<path fill="none" stroke="midnightblue" d="M3242.82,-109.22C3633.42,-109.55 4949.64,-106.54 5367.5,-53 5378.78,-51.56 5390.59,-49.44 5402.11,-47.03"/>
<polygon fill="midnightblue" stroke="midnightblue" points="3242.65,-105.72 3232.65,-109.21 3242.64,-112.72 3242.65,-105.72"/>
</g>
<!-- Node27 -->
<g id="node27" class="node">
<title>Node27</title>
<g id="a_node27"><a xlink:href="create__array__with__type__intrinsic_8cpp.html" target="_top" xlink:title=" ">
<polygon fill="none" stroke="black" points="5594.5,-0.5 5594.5,-52.5 5794.5,-52.5 5794.5,-0.5 5594.5,-0.5"/>
<text text-anchor="start" x="5602.5" y="-40.5" font-family="Helvetica,sans-Serif" font-size="10.00">/home/runner/work/cbmc</text>
<text text-anchor="start" x="5602.5" y="-29.5" font-family="Helvetica,sans-Serif" font-size="10.00">&#45;documentation/cbmc&#45;documentation</text>
<text text-anchor="start" x="5602.5" y="-18.5" font-family="Helvetica,sans-Serif" font-size="10.00">/jbmc/src/java_bytecode/create</text>
<text text-anchor="middle" x="5694.5" y="-7.5" font-family="Helvetica,sans-Serif" font-size="10.00">_array_with_type_intrinsic.cpp</text>
</a>
</g>
</g>
<!-- Node1&#45;&gt;Node27 -->
<g id="edge26" class="edge">
<title>Node1&#45;&gt;Node27</title>
<path fill="none" stroke="midnightblue" d="M3242.88,-109.51C3657.67,-110.97 5122.94,-111.74 5585.5,-53 5588.39,-52.63 5591.32,-52.22 5594.27,-51.77"/>
<polygon fill="midnightblue" stroke="midnightblue" points="3242.7,-106.01 3232.69,-109.48 3242.68,-113.01 3242.7,-106.01"/>
</g>
<!-- Node28 -->
<g id="node28" class="node">
<title>Node28</title>
<g id="a_node28"><a xlink:href="java__object__factory_8cpp.html" target="_top" xlink:title=" ">
<polygon fill="none" stroke="black" points="5812.5,-0.5 5812.5,-52.5 6012.5,-52.5 6012.5,-0.5 5812.5,-0.5"/>
<text text-anchor="start" x="5820.5" y="-40.5" font-family="Helvetica,sans-Serif" font-size="10.00">/home/runner/work/cbmc</text>
<text text-anchor="start" x="5820.5" y="-29.5" font-family="Helvetica,sans-Serif" font-size="10.00">&#45;documentation/cbmc&#45;documentation</text>
<text text-anchor="start" x="5820.5" y="-18.5" font-family="Helvetica,sans-Serif" font-size="10.00">/jbmc/src/java_bytecode/java</text>
<text text-anchor="middle" x="5912.5" y="-7.5" font-family="Helvetica,sans-Serif" font-size="10.00">_object_factory.cpp</text>
</a>
</g>
</g>
<!-- Node1&#45;&gt;Node28 -->
<g id="edge27" class="edge">
<title>Node1&#45;&gt;Node28</title>
<path fill="none" stroke="midnightblue" d="M3242.72,-108.05C3713.99,-103.8 5547.19,-85.31 5803.5,-53 5806.39,-52.64 5809.32,-52.23 5812.27,-51.78"/>
<polygon fill="midnightblue" stroke="midnightblue" points="3242.49,-104.55 3232.52,-108.14 3242.55,-111.55 3242.49,-104.55"/>
</g>
<!-- Node29 -->
<g id="node29" class="node">
<title>Node29</title>
<g id="a_node29"><a xlink:href="java__utils_8cpp.html" target="_top" xlink:title=" ">
<polygon fill="none" stroke="black" points="6030.5,-0.5 6030.5,-52.5 6230.5,-52.5 6230.5,-0.5 6030.5,-0.5"/>
<text text-anchor="start" x="6038.5" y="-40.5" font-family="Helvetica,sans-Serif" font-size="10.00">/home/runner/work/cbmc</text>
<text text-anchor="start" x="6038.5" y="-29.5" font-family="Helvetica,sans-Serif" font-size="10.00">&#45;documentation/cbmc&#45;documentation</text>
<text text-anchor="start" x="6038.5" y="-18.5" font-family="Helvetica,sans-Serif" font-size="10.00">/jbmc/src/java_bytecode/java</text>
<text text-anchor="middle" x="6130.5" y="-7.5" font-family="Helvetica,sans-Serif" font-size="10.00">_utils.cpp</text>
</a>
</g>
</g>
<!-- Node1&#45;&gt;Node29 -->
<g id="edge28" class="edge">
<title>Node1&#45;&gt;Node29</title>
<path fill="none" stroke="midnightblue" d="M3242.61,-108.24C3737.33,-104.62 5742.57,-87.93 6021.5,-53 6024.39,-52.64 6027.32,-52.23 6030.27,-51.78"/>
<polygon fill="midnightblue" stroke="midnightblue" points="3242.58,-104.74 3232.61,-108.31 3242.64,-111.74 3242.58,-104.74"/>
</g>
</g>
</svg>
