<?xml version="1.0" encoding="UTF-8" standalone="no"?>
<!DOCTYPE svg PUBLIC "-//W3C//DTD SVG 1.1//EN"
 "http://www.w3.org/Graphics/SVG/1.1/DTD/svg11.dtd">
<!-- Generated by graphviz version 2.43.0 (0)
 -->
<!-- Title: /home/runner/work/cbmc&#45;documentation/cbmc&#45;documentation/src/goto&#45;instrument/full_slicer.h Pages: 1 -->
<svg width="916pt" height="228pt"
 viewBox="0.00 0.00 915.50 228.00" xmlns="http://www.w3.org/2000/svg" xmlns:xlink="http://www.w3.org/1999/xlink">
<g id="graph0" class="graph" transform="scale(1 1) rotate(0) translate(4 224)">
<title>/home/runner/work/cbmc&#45;documentation/cbmc&#45;documentation/src/goto&#45;instrument/full_slicer.h</title>
<!-- Node1 -->
<g id="node1" class="node">
<title>Node1</title>
<g id="a_node1"><a xlink:title=" ">
<polygon fill="#bfbfbf" stroke="black" points="259,-178.5 259,-219.5 459,-219.5 459,-178.5 259,-178.5"/>
<text text-anchor="start" x="267" y="-207.5" font-family="Helvetica,sans-Serif" font-size="10.00">/home/runner/work/cbmc</text>
<text text-anchor="start" x="267" y="-196.5" font-family="Helvetica,sans-Serif" font-size="10.00">&#45;documentation/cbmc&#45;documentation</text>
<text text-anchor="middle" x="359" y="-185.5" font-family="Helvetica,sans-Serif" font-size="10.00">/src/goto&#45;instrument/full_slicer.h</text>
</a>
</g>
</g>
<!-- Node2 -->
<g id="node2" class="node">
<title>Node2</title>
<g id="a_node2"><a xlink:href="cbmc__parse__options_8cpp.html" target="_top" xlink:title=" ">
<polygon fill="none" stroke="black" points="0,-95 0,-136 200,-136 200,-95 0,-95"/>
<text text-anchor="start" x="8" y="-124" font-family="Helvetica,sans-Serif" font-size="10.00">/home/runner/work/cbmc</text>
<text text-anchor="start" x="8" y="-113" font-family="Helvetica,sans-Serif" font-size="10.00">&#45;documentation/cbmc&#45;documentation</text>
<text text-anchor="middle" x="100" y="-102" font-family="Helvetica,sans-Serif" font-size="10.00">/src/cbmc/cbmc_parse_options.cpp</text>
</a>
</g>
</g>
<!-- Node1&#45;&gt;Node2 -->
<g id="edge1" class="edge">
<title>Node1&#45;&gt;Node2</title>
<path fill="none" stroke="midnightblue" d="M287.17,-175.4C247.86,-163.03 199.63,-147.85 161.98,-136"/>
<polygon fill="midnightblue" stroke="midnightblue" points="286.37,-178.82 296.96,-178.48 288.47,-172.14 286.37,-178.82"/>
</g>
<!-- Node3 -->
<g id="node3" class="node">
<title>Node3</title>
<g id="a_node3"><a xlink:href="full__slicer_8cpp.html" target="_top" xlink:title=" ">
<polygon fill="none" stroke="black" points="128,-6 128,-47 328,-47 328,-6 128,-6"/>
<text text-anchor="start" x="136" y="-35" font-family="Helvetica,sans-Serif" font-size="10.00">/home/runner/work/cbmc</text>
<text text-anchor="start" x="136" y="-24" font-family="Helvetica,sans-Serif" font-size="10.00">&#45;documentation/cbmc&#45;documentation</text>
<text text-anchor="middle" x="228" y="-13" font-family="Helvetica,sans-Serif" font-size="10.00">/src/goto&#45;instrument/full_slicer.cpp</text>
</a>
</g>
</g>
<!-- Node1&#45;&gt;Node3 -->
<g id="edge2" class="edge">
<title>Node1&#45;&gt;Node3</title>
<path fill="none" stroke="midnightblue" d="M286.62,-173.73C271.89,-165.74 257.9,-155.35 248,-142 227.32,-114.12 225.4,-72.02 226.37,-47.39"/>
<polygon fill="midnightblue" stroke="midnightblue" points="285.35,-177.01 295.85,-178.41 288.51,-170.77 285.35,-177.01"/>
</g>
<!-- Node4 -->
<g id="node4" class="node">
<title>Node4</title>
<g id="a_node4"><a xlink:href="full__slicer__class_8h.html" target="_top" xlink:title=" ">
<polygon fill="none" stroke="black" points="256.5,-95 256.5,-136 461.5,-136 461.5,-95 256.5,-95"/>
<text text-anchor="start" x="264.5" y="-124" font-family="Helvetica,sans-Serif" font-size="10.00">/home/runner/work/cbmc</text>
<text text-anchor="start" x="264.5" y="-113" font-family="Helvetica,sans-Serif" font-size="10.00">&#45;documentation/cbmc&#45;documentation</text>
<text text-anchor="middle" x="359" y="-102" font-family="Helvetica,sans-Serif" font-size="10.00">/src/goto&#45;instrument/full_slicer_class.h</text>
</a>
</g>
</g>
<!-- Node1&#45;&gt;Node4 -->
<g id="edge3" class="edge">
<title>Node1&#45;&gt;Node4</title>
<path fill="none" stroke="midnightblue" d="M359,-168.06C359,-157.38 359,-145.63 359,-136.05"/>
<polygon fill="midnightblue" stroke="midnightblue" points="355.5,-168.27 359,-178.27 362.5,-168.27 355.5,-168.27"/>
</g>
<!-- Node6 -->
<g id="node6" class="node">
<title>Node6</title>
<g id="a_node6"><a xlink:href="goto__instrument__parse__options_8cpp.html" target="_top" xlink:title=" ">
<polygon fill="none" stroke="black" points="480,-89.5 480,-141.5 680,-141.5 680,-89.5 480,-89.5"/>
<text text-anchor="start" x="488" y="-129.5" font-family="Helvetica,sans-Serif" font-size="10.00">/home/runner/work/cbmc</text>
<text text-anchor="start" x="488" y="-118.5" font-family="Helvetica,sans-Serif" font-size="10.00">&#45;documentation/cbmc&#45;documentation</text>
<text text-anchor="start" x="488" y="-107.5" font-family="Helvetica,sans-Serif" font-size="10.00">/src/goto&#45;instrument/goto_instrument</text>
<text text-anchor="middle" x="580" y="-96.5" font-family="Helvetica,sans-Serif" font-size="10.00">_parse_options.cpp</text>
</a>
</g>
</g>
<!-- Node1&#45;&gt;Node6 -->
<g id="edge6" class="edge">
<title>Node1&#45;&gt;Node6</title>
<path fill="none" stroke="midnightblue" d="M421.68,-174.89C449.87,-164.49 483.21,-152.2 512,-141.58"/>
<polygon fill="midnightblue" stroke="midnightblue" points="420.11,-171.73 411.94,-178.48 422.53,-178.3 420.11,-171.73"/>
</g>
<!-- Node7 -->
<g id="node7" class="node">
<title>Node7</title>
<g id="a_node7"><a xlink:href="jbmc__parse__options_8cpp.html" target="_top" xlink:title=" ">
<polygon fill="none" stroke="black" points="698.5,-95 698.5,-136 907.5,-136 907.5,-95 698.5,-95"/>
<text text-anchor="start" x="706.5" y="-124" font-family="Helvetica,sans-Serif" font-size="10.00">/home/runner/work/cbmc</text>
<text text-anchor="start" x="706.5" y="-113" font-family="Helvetica,sans-Serif" font-size="10.00">&#45;documentation/cbmc&#45;documentation</text>
<text text-anchor="middle" x="803" y="-102" font-family="Helvetica,sans-Serif" font-size="10.00">/jbmc/src/jbmc/jbmc_parse_options.cpp</text>
</a>
</g>
</g>
<!-- Node1&#45;&gt;Node7 -->
<g id="edge7" class="edge">
<title>Node1&#45;&gt;Node7</title>
<path fill="none" stroke="midnightblue" d="M469.4,-180.74C533.63,-170.33 616.07,-156.34 689,-142 698.35,-140.16 708.11,-138.14 717.82,-136.06"/>
<polygon fill="midnightblue" stroke="midnightblue" points="468.57,-177.33 459.25,-182.38 469.68,-184.24 468.57,-177.33"/>
</g>
<!-- Node4&#45;&gt;Node3 -->
<g id="edge4" class="edge">
<title>Node4&#45;&gt;Node3</title>
<path fill="none" stroke="midnightblue" d="M321.24,-89.43C301.06,-76.02 276.57,-59.76 257.75,-47.26"/>
<polygon fill="midnightblue" stroke="midnightblue" points="319.33,-92.36 329.6,-94.98 323.21,-86.53 319.33,-92.36"/>
</g>
<!-- Node5 -->
<g id="node5" class="node">
<title>Node5</title>
<g id="a_node5"><a xlink:href="reachability__slicer_8cpp.html" target="_top" xlink:title=" ">
<polygon fill="none" stroke="black" points="346,-0.5 346,-52.5 546,-52.5 546,-0.5 346,-0.5"/>
<text text-anchor="start" x="354" y="-40.5" font-family="Helvetica,sans-Serif" font-size="10.00">/home/runner/work/cbmc</text>
<text text-anchor="start" x="354" y="-29.5" font-family="Helvetica,sans-Serif" font-size="10.00">&#45;documentation/cbmc&#45;documentation</text>
<text text-anchor="start" x="354" y="-18.5" font-family="Helvetica,sans-Serif" font-size="10.00">/src/goto&#45;instrument/reachability</text>
<text text-anchor="middle" x="446" y="-7.5" font-family="Helvetica,sans-Serif" font-size="10.00">_slicer.cpp</text>
</a>
</g>
</g>
<!-- Node4&#45;&gt;Node5 -->
<g id="edge5" class="edge">
<title>Node4&#45;&gt;Node5</title>
<path fill="none" stroke="midnightblue" d="M386.09,-87.41C397.14,-76.36 409.85,-63.65 420.71,-52.79"/>
<polygon fill="midnightblue" stroke="midnightblue" points="383.34,-85.21 378.74,-94.76 388.29,-90.16 383.34,-85.21"/>
</g>
</g>
</svg>
