<?xml version="1.0" encoding="UTF-8" standalone="no"?>
<!DOCTYPE svg PUBLIC "-//W3C//DTD SVG 1.1//EN"
 "http://www.w3.org/Graphics/SVG/1.1/DTD/svg11.dtd">
<!-- Generated by graphviz version 2.43.0 (0)
 -->
<!-- Title: /home/runner/work/cbmc&#45;documentation/cbmc&#45;documentation/src/goto&#45;cc/gcc_message_handler.h Pages: 1 -->
<svg width="1193pt" height="206pt"
 viewBox="0.00 0.00 1192.50 206.00" xmlns="http://www.w3.org/2000/svg" xmlns:xlink="http://www.w3.org/1999/xlink">
<g id="graph0" class="graph" transform="scale(1 1) rotate(0) translate(4 202)">
<title>/home/runner/work/cbmc&#45;documentation/cbmc&#45;documentation/src/goto&#45;cc/gcc_message_handler.h</title>
<!-- Node1 -->
<g id="node1" class="node">
<title>Node1</title>
<g id="a_node1"><a xlink:title=" ">
<polygon fill="#bfbfbf" stroke="black" points="545,-156.5 545,-197.5 745,-197.5 745,-156.5 545,-156.5"/>
<text text-anchor="start" x="553" y="-185.5" font-family="Helvetica,sans-Serif" font-size="10.00">/home/runner/work/cbmc</text>
<text text-anchor="start" x="553" y="-174.5" font-family="Helvetica,sans-Serif" font-size="10.00">&#45;documentation/cbmc&#45;documentation</text>
<text text-anchor="middle" x="645" y="-163.5" font-family="Helvetica,sans-Serif" font-size="10.00">/src/goto&#45;cc/gcc_message_handler.h</text>
</a>
</g>
</g>
<!-- Node2 -->
<g id="node2" class="node">
<title>Node2</title>
<g id="a_node2"><a xlink:href="armcc__mode_8h.html" target="_top" xlink:title=" ">
<polygon fill="none" stroke="black" points="109,-78.5 109,-119.5 309,-119.5 309,-78.5 109,-78.5"/>
<text text-anchor="start" x="117" y="-107.5" font-family="Helvetica,sans-Serif" font-size="10.00">/home/runner/work/cbmc</text>
<text text-anchor="start" x="117" y="-96.5" font-family="Helvetica,sans-Serif" font-size="10.00">&#45;documentation/cbmc&#45;documentation</text>
<text text-anchor="middle" x="209" y="-85.5" font-family="Helvetica,sans-Serif" font-size="10.00">/src/goto&#45;cc/armcc_mode.h</text>
</a>
</g>
</g>
<!-- Node1&#45;&gt;Node2 -->
<g id="edge1" class="edge">
<title>Node1&#45;&gt;Node2</title>
<path fill="none" stroke="midnightblue" d="M534.74,-157.45C471.31,-146.7 390.14,-132.79 318,-120 315.06,-119.48 312.08,-118.95 309.08,-118.41"/>
<polygon fill="midnightblue" stroke="midnightblue" points="534.32,-160.93 544.77,-159.15 535.49,-154.03 534.32,-160.93"/>
</g>
<!-- Node5 -->
<g id="node5" class="node">
<title>Node5</title>
<g id="a_node5"><a xlink:href="as__mode_8h.html" target="_top" xlink:title=" ">
<polygon fill="none" stroke="black" points="327,-78.5 327,-119.5 527,-119.5 527,-78.5 327,-78.5"/>
<text text-anchor="start" x="335" y="-107.5" font-family="Helvetica,sans-Serif" font-size="10.00">/home/runner/work/cbmc</text>
<text text-anchor="start" x="335" y="-96.5" font-family="Helvetica,sans-Serif" font-size="10.00">&#45;documentation/cbmc&#45;documentation</text>
<text text-anchor="middle" x="427" y="-85.5" font-family="Helvetica,sans-Serif" font-size="10.00">/src/goto&#45;cc/as_mode.h</text>
</a>
</g>
</g>
<!-- Node1&#45;&gt;Node5 -->
<g id="edge4" class="edge">
<title>Node1&#45;&gt;Node5</title>
<path fill="none" stroke="midnightblue" d="M579.1,-153.03C548.41,-142.33 512.29,-129.73 482.95,-119.51"/>
<polygon fill="midnightblue" stroke="midnightblue" points="578.26,-156.44 588.86,-156.43 580.57,-149.83 578.26,-156.44"/>
</g>
<!-- Node7 -->
<g id="node7" class="node">
<title>Node7</title>
<g id="a_node7"><a xlink:href="gcc__message__handler_8cpp.html" target="_top" xlink:title=" ">
<polygon fill="none" stroke="black" points="981.5,-78.5 981.5,-119.5 1184.5,-119.5 1184.5,-78.5 981.5,-78.5"/>
<text text-anchor="start" x="989.5" y="-107.5" font-family="Helvetica,sans-Serif" font-size="10.00">/home/runner/work/cbmc</text>
<text text-anchor="start" x="989.5" y="-96.5" font-family="Helvetica,sans-Serif" font-size="10.00">&#45;documentation/cbmc&#45;documentation</text>
<text text-anchor="middle" x="1083" y="-85.5" font-family="Helvetica,sans-Serif" font-size="10.00">/src/goto&#45;cc/gcc_message_handler.cpp</text>
</a>
</g>
</g>
<!-- Node1&#45;&gt;Node7 -->
<g id="edge7" class="edge">
<title>Node1&#45;&gt;Node7</title>
<path fill="none" stroke="midnightblue" d="M755.24,-157.36C818.67,-146.58 899.84,-132.68 972,-120 975.09,-119.46 978.22,-118.91 981.38,-118.35"/>
<polygon fill="midnightblue" stroke="midnightblue" points="754.49,-153.94 745.22,-159.07 755.67,-160.84 754.49,-153.94"/>
</g>
<!-- Node8 -->
<g id="node8" class="node">
<title>Node8</title>
<g id="a_node8"><a xlink:href="gcc__mode_8h.html" target="_top" xlink:title=" ">
<polygon fill="none" stroke="black" points="545,-78.5 545,-119.5 745,-119.5 745,-78.5 545,-78.5"/>
<text text-anchor="start" x="553" y="-107.5" font-family="Helvetica,sans-Serif" font-size="10.00">/home/runner/work/cbmc</text>
<text text-anchor="start" x="553" y="-96.5" font-family="Helvetica,sans-Serif" font-size="10.00">&#45;documentation/cbmc&#45;documentation</text>
<text text-anchor="middle" x="645" y="-85.5" font-family="Helvetica,sans-Serif" font-size="10.00">/src/goto&#45;cc/gcc_mode.h</text>
</a>
</g>
</g>
<!-- Node1&#45;&gt;Node8 -->
<g id="edge8" class="edge">
<title>Node1&#45;&gt;Node8</title>
<path fill="none" stroke="midnightblue" d="M645,-146.3C645,-137.3 645,-127.65 645,-119.51"/>
<polygon fill="midnightblue" stroke="midnightblue" points="641.5,-146.43 645,-156.43 648.5,-146.43 641.5,-146.43"/>
</g>
<!-- Node10 -->
<g id="node10" class="node">
<title>Node10</title>
<g id="a_node10"><a xlink:href="ld__mode_8h.html" target="_top" xlink:title=" ">
<polygon fill="none" stroke="black" points="763,-78.5 763,-119.5 963,-119.5 963,-78.5 763,-78.5"/>
<text text-anchor="start" x="771" y="-107.5" font-family="Helvetica,sans-Serif" font-size="10.00">/home/runner/work/cbmc</text>
<text text-anchor="start" x="771" y="-96.5" font-family="Helvetica,sans-Serif" font-size="10.00">&#45;documentation/cbmc&#45;documentation</text>
<text text-anchor="middle" x="863" y="-85.5" font-family="Helvetica,sans-Serif" font-size="10.00">/src/goto&#45;cc/ld_mode.h</text>
</a>
</g>
</g>
<!-- Node1&#45;&gt;Node10 -->
<g id="edge11" class="edge">
<title>Node1&#45;&gt;Node10</title>
<path fill="none" stroke="midnightblue" d="M710.9,-153.03C741.59,-142.33 777.71,-129.73 807.05,-119.51"/>
<polygon fill="midnightblue" stroke="midnightblue" points="709.43,-149.83 701.14,-156.43 711.74,-156.44 709.43,-149.83"/>
</g>
<!-- Node3 -->
<g id="node3" class="node">
<title>Node3</title>
<g id="a_node3"><a xlink:href="armcc__mode_8cpp.html" target="_top" xlink:title=" ">
<polygon fill="none" stroke="black" points="0,-0.5 0,-41.5 200,-41.5 200,-0.5 0,-0.5"/>
<text text-anchor="start" x="8" y="-29.5" font-family="Helvetica,sans-Serif" font-size="10.00">/home/runner/work/cbmc</text>
<text text-anchor="start" x="8" y="-18.5" font-family="Helvetica,sans-Serif" font-size="10.00">&#45;documentation/cbmc&#45;documentation</text>
<text text-anchor="middle" x="100" y="-7.5" font-family="Helvetica,sans-Serif" font-size="10.00">/src/goto&#45;cc/armcc_mode.cpp</text>
</a>
</g>
</g>
<!-- Node2&#45;&gt;Node3 -->
<g id="edge2" class="edge">
<title>Node2&#45;&gt;Node3</title>
<path fill="none" stroke="midnightblue" d="M172.62,-72.64C158.07,-62.49 141.57,-50.98 127.98,-41.51"/>
<polygon fill="midnightblue" stroke="midnightblue" points="170.73,-75.58 180.93,-78.43 174.73,-69.84 170.73,-75.58"/>
</g>
<!-- Node4 -->
<g id="node4" class="node">
<title>Node4</title>
<g id="a_node4"><a xlink:href="goto__cc__main_8cpp.html" target="_top" xlink:title=" ">
<polygon fill="none" stroke="black" points="436,-0.5 436,-41.5 636,-41.5 636,-0.5 436,-0.5"/>
<text text-anchor="start" x="444" y="-29.5" font-family="Helvetica,sans-Serif" font-size="10.00">/home/runner/work/cbmc</text>
<text text-anchor="start" x="444" y="-18.5" font-family="Helvetica,sans-Serif" font-size="10.00">&#45;documentation/cbmc&#45;documentation</text>
<text text-anchor="middle" x="536" y="-7.5" font-family="Helvetica,sans-Serif" font-size="10.00">/src/goto&#45;cc/goto_cc_main.cpp</text>
</a>
</g>
</g>
<!-- Node2&#45;&gt;Node4 -->
<g id="edge3" class="edge">
<title>Node2&#45;&gt;Node4</title>
<path fill="none" stroke="midnightblue" d="M303.09,-76.13C350.12,-65.2 406.54,-52.09 452.07,-41.51"/>
<polygon fill="midnightblue" stroke="midnightblue" points="302.16,-72.76 293.21,-78.43 303.74,-79.57 302.16,-72.76"/>
</g>
<!-- Node5&#45;&gt;Node4 -->
<g id="edge6" class="edge">
<title>Node5&#45;&gt;Node4</title>
<path fill="none" stroke="midnightblue" d="M463.38,-72.64C477.93,-62.49 494.43,-50.98 508.02,-41.51"/>
<polygon fill="midnightblue" stroke="midnightblue" points="461.27,-69.84 455.07,-78.43 465.27,-75.58 461.27,-69.84"/>
</g>
<!-- Node6 -->
<g id="node6" class="node">
<title>Node6</title>
<g id="a_node6"><a xlink:href="as__mode_8cpp.html" target="_top" xlink:title=" ">
<polygon fill="none" stroke="black" points="218,-0.5 218,-41.5 418,-41.5 418,-0.5 218,-0.5"/>
<text text-anchor="start" x="226" y="-29.5" font-family="Helvetica,sans-Serif" font-size="10.00">/home/runner/work/cbmc</text>
<text text-anchor="start" x="226" y="-18.5" font-family="Helvetica,sans-Serif" font-size="10.00">&#45;documentation/cbmc&#45;documentation</text>
<text text-anchor="middle" x="318" y="-7.5" font-family="Helvetica,sans-Serif" font-size="10.00">/src/goto&#45;cc/as_mode.cpp</text>
</a>
</g>
</g>
<!-- Node5&#45;&gt;Node6 -->
<g id="edge5" class="edge">
<title>Node5&#45;&gt;Node6</title>
<path fill="none" stroke="midnightblue" d="M390.62,-72.64C376.07,-62.49 359.57,-50.98 345.98,-41.51"/>
<polygon fill="midnightblue" stroke="midnightblue" points="388.73,-75.58 398.93,-78.43 392.73,-69.84 388.73,-75.58"/>
</g>
<!-- Node8&#45;&gt;Node4 -->
<g id="edge10" class="edge">
<title>Node8&#45;&gt;Node4</title>
<path fill="none" stroke="midnightblue" d="M608.62,-72.64C594.07,-62.49 577.57,-50.98 563.98,-41.51"/>
<polygon fill="midnightblue" stroke="midnightblue" points="606.73,-75.58 616.93,-78.43 610.73,-69.84 606.73,-75.58"/>
</g>
<!-- Node9 -->
<g id="node9" class="node">
<title>Node9</title>
<g id="a_node9"><a xlink:href="gcc__mode_8cpp.html" target="_top" xlink:title=" ">
<polygon fill="none" stroke="black" points="654,-0.5 654,-41.5 854,-41.5 854,-0.5 654,-0.5"/>
<text text-anchor="start" x="662" y="-29.5" font-family="Helvetica,sans-Serif" font-size="10.00">/home/runner/work/cbmc</text>
<text text-anchor="start" x="662" y="-18.5" font-family="Helvetica,sans-Serif" font-size="10.00">&#45;documentation/cbmc&#45;documentation</text>
<text text-anchor="middle" x="754" y="-7.5" font-family="Helvetica,sans-Serif" font-size="10.00">/src/goto&#45;cc/gcc_mode.cpp</text>
</a>
</g>
</g>
<!-- Node8&#45;&gt;Node9 -->
<g id="edge9" class="edge">
<title>Node8&#45;&gt;Node9</title>
<path fill="none" stroke="midnightblue" d="M681.38,-72.64C695.93,-62.49 712.43,-50.98 726.02,-41.51"/>
<polygon fill="midnightblue" stroke="midnightblue" points="679.27,-69.84 673.07,-78.43 683.27,-75.58 679.27,-69.84"/>
</g>
<!-- Node10&#45;&gt;Node4 -->
<g id="edge12" class="edge">
<title>Node10&#45;&gt;Node4</title>
<path fill="none" stroke="midnightblue" d="M768.91,-76.13C721.88,-65.2 665.46,-52.09 619.93,-41.51"/>
<polygon fill="midnightblue" stroke="midnightblue" points="768.26,-79.57 778.79,-78.43 769.84,-72.76 768.26,-79.57"/>
</g>
<!-- Node11 -->
<g id="node11" class="node">
<title>Node11</title>
<g id="a_node11"><a xlink:href="ld__mode_8cpp.html" target="_top" xlink:title=" ">
<polygon fill="none" stroke="black" points="872,-0.5 872,-41.5 1072,-41.5 1072,-0.5 872,-0.5"/>
<text text-anchor="start" x="880" y="-29.5" font-family="Helvetica,sans-Serif" font-size="10.00">/home/runner/work/cbmc</text>
<text text-anchor="start" x="880" y="-18.5" font-family="Helvetica,sans-Serif" font-size="10.00">&#45;documentation/cbmc&#45;documentation</text>
<text text-anchor="middle" x="972" y="-7.5" font-family="Helvetica,sans-Serif" font-size="10.00">/src/goto&#45;cc/ld_mode.cpp</text>
</a>
</g>
</g>
<!-- Node10&#45;&gt;Node11 -->
<g id="edge13" class="edge">
<title>Node10&#45;&gt;Node11</title>
<path fill="none" stroke="midnightblue" d="M899.38,-72.64C913.93,-62.49 930.43,-50.98 944.02,-41.51"/>
<polygon fill="midnightblue" stroke="midnightblue" points="897.27,-69.84 891.07,-78.43 901.27,-75.58 897.27,-69.84"/>
</g>
</g>
</svg>
