<?xml version="1.0" encoding="UTF-8" standalone="no"?>
<!DOCTYPE svg PUBLIC "-//W3C//DTD SVG 1.1//EN"
 "http://www.w3.org/Graphics/SVG/1.1/DTD/svg11.dtd">
<!-- Generated by graphviz version 2.43.0 (0)
 -->
<!-- Title: /home/runner/work/cbmc&#45;documentation/cbmc&#45;documentation/src/memory&#45;analyzer/gdb_api.h Pages: 1 -->
<svg width="547pt" height="217pt"
 viewBox="0.00 0.00 547.00 217.00" xmlns="http://www.w3.org/2000/svg" xmlns:xlink="http://www.w3.org/1999/xlink">
<g id="graph0" class="graph" transform="scale(1 1) rotate(0) translate(4 213)">
<title>/home/runner/work/cbmc&#45;documentation/cbmc&#45;documentation/src/memory&#45;analyzer/gdb_api.h</title>
<!-- Node1 -->
<g id="node1" class="node">
<title>Node1</title>
<g id="a_node1"><a xlink:title=" ">
<polygon fill="#bfbfbf" stroke="black" points="226,-167.5 226,-208.5 426,-208.5 426,-167.5 226,-167.5"/>
<text text-anchor="start" x="234" y="-196.5" font-family="Helvetica,sans-Serif" font-size="10.00">/home/runner/work/cbmc</text>
<text text-anchor="start" x="234" y="-185.5" font-family="Helvetica,sans-Serif" font-size="10.00">&#45;documentation/cbmc&#45;documentation</text>
<text text-anchor="middle" x="326" y="-174.5" font-family="Helvetica,sans-Serif" font-size="10.00">/src/memory&#45;analyzer/gdb_api.h</text>
</a>
</g>
</g>
<!-- Node2 -->
<g id="node2" class="node">
<title>Node2</title>
<g id="a_node2"><a xlink:href="analyze__symbol_8h.html" target="_top" xlink:title=" ">
<polygon fill="none" stroke="black" points="105.5,-89.5 105.5,-130.5 320.5,-130.5 320.5,-89.5 105.5,-89.5"/>
<text text-anchor="start" x="113.5" y="-118.5" font-family="Helvetica,sans-Serif" font-size="10.00">/home/runner/work/cbmc</text>
<text text-anchor="start" x="113.5" y="-107.5" font-family="Helvetica,sans-Serif" font-size="10.00">&#45;documentation/cbmc&#45;documentation</text>
<text text-anchor="middle" x="213" y="-96.5" font-family="Helvetica,sans-Serif" font-size="10.00">/src/memory&#45;analyzer/analyze_symbol.h</text>
</a>
</g>
</g>
<!-- Node1&#45;&gt;Node2 -->
<g id="edge1" class="edge">
<title>Node1&#45;&gt;Node2</title>
<path fill="none" stroke="midnightblue" d="M288.29,-161.64C273.2,-151.49 256.09,-139.98 242,-130.51"/>
<polygon fill="midnightblue" stroke="midnightblue" points="286.65,-164.75 296.9,-167.43 290.56,-158.94 286.65,-164.75"/>
</g>
<!-- Node5 -->
<g id="node5" class="node">
<title>Node5</title>
<g id="a_node5"><a xlink:href="gdb__api_8cpp.html" target="_top" xlink:title=" ">
<polygon fill="none" stroke="black" points="339,-89.5 339,-130.5 539,-130.5 539,-89.5 339,-89.5"/>
<text text-anchor="start" x="347" y="-118.5" font-family="Helvetica,sans-Serif" font-size="10.00">/home/runner/work/cbmc</text>
<text text-anchor="start" x="347" y="-107.5" font-family="Helvetica,sans-Serif" font-size="10.00">&#45;documentation/cbmc&#45;documentation</text>
<text text-anchor="middle" x="439" y="-96.5" font-family="Helvetica,sans-Serif" font-size="10.00">/src/memory&#45;analyzer/gdb_api.cpp</text>
</a>
</g>
</g>
<!-- Node1&#45;&gt;Node5 -->
<g id="edge4" class="edge">
<title>Node1&#45;&gt;Node5</title>
<path fill="none" stroke="midnightblue" d="M363.71,-161.64C378.8,-151.49 395.91,-139.98 410,-130.51"/>
<polygon fill="midnightblue" stroke="midnightblue" points="361.44,-158.94 355.1,-167.43 365.35,-164.75 361.44,-158.94"/>
</g>
<!-- Node3 -->
<g id="node3" class="node">
<title>Node3</title>
<g id="a_node3"><a xlink:href="analyze__symbol_8cpp.html" target="_top" xlink:title=" ">
<polygon fill="none" stroke="black" points="0,-0.5 0,-52.5 200,-52.5 200,-0.5 0,-0.5"/>
<text text-anchor="start" x="8" y="-40.5" font-family="Helvetica,sans-Serif" font-size="10.00">/home/runner/work/cbmc</text>
<text text-anchor="start" x="8" y="-29.5" font-family="Helvetica,sans-Serif" font-size="10.00">&#45;documentation/cbmc&#45;documentation</text>
<text text-anchor="start" x="8" y="-18.5" font-family="Helvetica,sans-Serif" font-size="10.00">/src/memory&#45;analyzer/analyze</text>
<text text-anchor="middle" x="100" y="-7.5" font-family="Helvetica,sans-Serif" font-size="10.00">_symbol.cpp</text>
</a>
</g>
</g>
<!-- Node2&#45;&gt;Node3 -->
<g id="edge2" class="edge">
<title>Node2&#45;&gt;Node3</title>
<path fill="none" stroke="midnightblue" d="M177.74,-83.57C164.12,-73.74 148.57,-62.53 134.98,-52.73"/>
<polygon fill="midnightblue" stroke="midnightblue" points="175.78,-86.47 185.93,-89.48 179.87,-80.79 175.78,-86.47"/>
</g>
<!-- Node4 -->
<g id="node4" class="node">
<title>Node4</title>
<g id="a_node4"><a xlink:href="memory__analyzer__parse__options_8cpp.html" target="_top" xlink:title=" ">
<polygon fill="none" stroke="black" points="218.5,-0.5 218.5,-52.5 433.5,-52.5 433.5,-0.5 218.5,-0.5"/>
<text text-anchor="start" x="226.5" y="-40.5" font-family="Helvetica,sans-Serif" font-size="10.00">/home/runner/work/cbmc</text>
<text text-anchor="start" x="226.5" y="-29.5" font-family="Helvetica,sans-Serif" font-size="10.00">&#45;documentation/cbmc&#45;documentation</text>
<text text-anchor="start" x="226.5" y="-18.5" font-family="Helvetica,sans-Serif" font-size="10.00">/src/memory&#45;analyzer/memory_analyzer</text>
<text text-anchor="middle" x="326" y="-7.5" font-family="Helvetica,sans-Serif" font-size="10.00">_parse_options.cpp</text>
</a>
</g>
</g>
<!-- Node2&#45;&gt;Node4 -->
<g id="edge3" class="edge">
<title>Node2&#45;&gt;Node4</title>
<path fill="none" stroke="midnightblue" d="M248.26,-83.57C261.88,-73.74 277.43,-62.53 291.02,-52.73"/>
<polygon fill="midnightblue" stroke="midnightblue" points="246.13,-80.79 240.07,-89.48 250.22,-86.47 246.13,-80.79"/>
</g>
</g>
</svg>
