<?xml version="1.0" encoding="UTF-8" standalone="no"?>
<!DOCTYPE svg PUBLIC "-//W3C//DTD SVG 1.1//EN"
 "http://www.w3.org/Graphics/SVG/1.1/DTD/svg11.dtd">
<!-- Generated by graphviz version 2.43.0 (0)
 -->
<!-- Title: /home/runner/work/cbmc&#45;documentation/cbmc&#45;documentation/src/analyses/goto_rw.h Pages: 1 -->
<svg width="1522pt" height="384pt"
 viewBox="0.00 0.00 1522.00 384.00" xmlns="http://www.w3.org/2000/svg" xmlns:xlink="http://www.w3.org/1999/xlink">
<g id="graph0" class="graph" transform="scale(1 1) rotate(0) translate(4 380)">
<title>/home/runner/work/cbmc&#45;documentation/cbmc&#45;documentation/src/analyses/goto_rw.h</title>
<!-- Node1 -->
<g id="node1" class="node">
<title>Node1</title>
<g id="a_node1"><a xlink:title=" ">
<polygon fill="#bfbfbf" stroke="black" points="842,-334.5 842,-375.5 1042,-375.5 1042,-334.5 842,-334.5"/>
<text text-anchor="start" x="850" y="-363.5" font-family="Helvetica,sans-Serif" font-size="10.00">/home/runner/work/cbmc</text>
<text text-anchor="start" x="850" y="-352.5" font-family="Helvetica,sans-Serif" font-size="10.00">&#45;documentation/cbmc&#45;documentation</text>
<text text-anchor="middle" x="942" y="-341.5" font-family="Helvetica,sans-Serif" font-size="10.00">/src/analyses/goto_rw.h</text>
</a>
</g>
</g>
<!-- Node2 -->
<g id="node2" class="node">
<title>Node2</title>
<g id="a_node2"><a xlink:href="reaching__definitions_8h.html" target="_top" xlink:title=" ">
<polygon fill="none" stroke="black" points="605,-256.5 605,-297.5 805,-297.5 805,-256.5 605,-256.5"/>
<text text-anchor="start" x="613" y="-285.5" font-family="Helvetica,sans-Serif" font-size="10.00">/home/runner/work/cbmc</text>
<text text-anchor="start" x="613" y="-274.5" font-family="Helvetica,sans-Serif" font-size="10.00">&#45;documentation/cbmc&#45;documentation</text>
<text text-anchor="middle" x="705" y="-263.5" font-family="Helvetica,sans-Serif" font-size="10.00">/src/analyses/reaching_definitions.h</text>
</a>
</g>
</g>
<!-- Node1&#45;&gt;Node2 -->
<g id="edge1" class="edge">
<title>Node1&#45;&gt;Node2</title>
<path fill="none" stroke="midnightblue" d="M871.22,-331.3C837.68,-320.55 798,-307.82 765.83,-297.51"/>
<polygon fill="midnightblue" stroke="midnightblue" points="870.38,-334.71 880.97,-334.43 872.51,-328.04 870.38,-334.71"/>
</g>
<!-- Node4 -->
<g id="node4" class="node">
<title>Node4</title>
<g id="a_node4"><a xlink:href="dependence__graph_8cpp.html" target="_top" xlink:title=" ">
<polygon fill="none" stroke="black" points="1314,-95 1314,-136 1514,-136 1514,-95 1314,-95"/>
<text text-anchor="start" x="1322" y="-124" font-family="Helvetica,sans-Serif" font-size="10.00">/home/runner/work/cbmc</text>
<text text-anchor="start" x="1322" y="-113" font-family="Helvetica,sans-Serif" font-size="10.00">&#45;documentation/cbmc&#45;documentation</text>
<text text-anchor="middle" x="1414" y="-102" font-family="Helvetica,sans-Serif" font-size="10.00">/src/analyses/dependence_graph.cpp</text>
</a>
</g>
</g>
<!-- Node1&#45;&gt;Node4 -->
<g id="edge14" class="edge">
<title>Node1&#45;&gt;Node4</title>
<path fill="none" stroke="midnightblue" d="M940.16,-323.9C940.51,-302.46 944.56,-274.31 961,-256 986.47,-227.65 1212.29,-167.28 1335.16,-136.08"/>
<polygon fill="midnightblue" stroke="midnightblue" points="936.67,-324.15 940.27,-334.12 943.67,-324.08 936.67,-324.15"/>
</g>
<!-- Node14 -->
<g id="node14" class="node">
<title>Node14</title>
<g id="a_node14"><a xlink:href="goto__rw_8cpp.html" target="_top" xlink:title=" ">
<polygon fill="none" stroke="black" points="970,-256.5 970,-297.5 1170,-297.5 1170,-256.5 970,-256.5"/>
<text text-anchor="start" x="978" y="-285.5" font-family="Helvetica,sans-Serif" font-size="10.00">/home/runner/work/cbmc</text>
<text text-anchor="start" x="978" y="-274.5" font-family="Helvetica,sans-Serif" font-size="10.00">&#45;documentation/cbmc&#45;documentation</text>
<text text-anchor="middle" x="1070" y="-263.5" font-family="Helvetica,sans-Serif" font-size="10.00">/src/analyses/goto_rw.cpp</text>
</a>
</g>
</g>
<!-- Node1&#45;&gt;Node14 -->
<g id="edge15" class="edge">
<title>Node1&#45;&gt;Node14</title>
<path fill="none" stroke="midnightblue" d="M983.76,-329.2C1001.09,-318.92 1020.89,-307.16 1037.15,-297.51"/>
<polygon fill="midnightblue" stroke="midnightblue" points="981.77,-326.31 974.96,-334.43 985.35,-332.33 981.77,-326.31"/>
</g>
<!-- Node3 -->
<g id="node3" class="node">
<title>Node3</title>
<g id="a_node3"><a xlink:href="dependence__graph_8h.html" target="_top" xlink:title=" ">
<polygon fill="none" stroke="black" points="660,-178.5 660,-219.5 860,-219.5 860,-178.5 660,-178.5"/>
<text text-anchor="start" x="668" y="-207.5" font-family="Helvetica,sans-Serif" font-size="10.00">/home/runner/work/cbmc</text>
<text text-anchor="start" x="668" y="-196.5" font-family="Helvetica,sans-Serif" font-size="10.00">&#45;documentation/cbmc&#45;documentation</text>
<text text-anchor="middle" x="760" y="-185.5" font-family="Helvetica,sans-Serif" font-size="10.00">/src/analyses/dependence_graph.h</text>
</a>
</g>
</g>
<!-- Node2&#45;&gt;Node3 -->
<g id="edge2" class="edge">
<title>Node2&#45;&gt;Node3</title>
<path fill="none" stroke="midnightblue" d="M725.23,-248.05C732.09,-238.57 739.6,-228.18 745.88,-219.51"/>
<polygon fill="midnightblue" stroke="midnightblue" points="722.19,-246.27 719.16,-256.43 727.86,-250.38 722.19,-246.27"/>
</g>
<!-- Node11 -->
<g id="node11" class="node">
<title>Node11</title>
<g id="a_node11"><a xlink:href="goto__instrument__parse__options_8cpp.html" target="_top" xlink:title=" ">
<polygon fill="none" stroke="black" points="0,-89.5 0,-141.5 200,-141.5 200,-89.5 0,-89.5"/>
<text text-anchor="start" x="8" y="-129.5" font-family="Helvetica,sans-Serif" font-size="10.00">/home/runner/work/cbmc</text>
<text text-anchor="start" x="8" y="-118.5" font-family="Helvetica,sans-Serif" font-size="10.00">&#45;documentation/cbmc&#45;documentation</text>
<text text-anchor="start" x="8" y="-107.5" font-family="Helvetica,sans-Serif" font-size="10.00">/src/goto&#45;instrument/goto_instrument</text>
<text text-anchor="middle" x="100" y="-96.5" font-family="Helvetica,sans-Serif" font-size="10.00">_parse_options.cpp</text>
</a>
</g>
</g>
<!-- Node2&#45;&gt;Node11 -->
<g id="edge13" class="edge">
<title>Node2&#45;&gt;Node11</title>
<path fill="none" stroke="midnightblue" d="M594.96,-256.16C544.7,-246.41 484.55,-233.81 431,-220 341.07,-196.81 239.34,-163.99 172.68,-141.57"/>
<polygon fill="midnightblue" stroke="midnightblue" points="594.4,-259.61 604.88,-258.07 595.72,-252.74 594.4,-259.61"/>
</g>
<!-- Node13 -->
<g id="node13" class="node">
<title>Node13</title>
<g id="a_node13"><a xlink:href="reaching__definitions_8cpp.html" target="_top" xlink:title=" ">
<polygon fill="none" stroke="black" points="440,-178.5 440,-219.5 642,-219.5 642,-178.5 440,-178.5"/>
<text text-anchor="start" x="448" y="-207.5" font-family="Helvetica,sans-Serif" font-size="10.00">/home/runner/work/cbmc</text>
<text text-anchor="start" x="448" y="-196.5" font-family="Helvetica,sans-Serif" font-size="10.00">&#45;documentation/cbmc&#45;documentation</text>
<text text-anchor="middle" x="541" y="-185.5" font-family="Helvetica,sans-Serif" font-size="10.00">/src/analyses/reaching_definitions.cpp</text>
</a>
</g>
</g>
<!-- Node2&#45;&gt;Node13 -->
<g id="edge12" class="edge">
<title>Node2&#45;&gt;Node13</title>
<path fill="none" stroke="midnightblue" d="M653.62,-252.19C630.93,-241.67 604.59,-229.47 583.09,-219.51"/>
<polygon fill="midnightblue" stroke="midnightblue" points="652.22,-255.4 662.77,-256.43 655.16,-249.05 652.22,-255.4"/>
</g>
<!-- Node3&#45;&gt;Node4 -->
<g id="edge3" class="edge">
<title>Node3&#45;&gt;Node4</title>
<path fill="none" stroke="midnightblue" d="M870.33,-184.49C889.55,-182.25 909.35,-180 928,-178 1095.36,-160.05 1138.9,-169.23 1305,-142 1315.16,-140.33 1325.79,-138.26 1336.26,-136.03"/>
<polygon fill="midnightblue" stroke="midnightblue" points="869.86,-181.02 860.34,-185.67 870.68,-187.98 869.86,-181.02"/>
</g>
<!-- Node5 -->
<g id="node5" class="node">
<title>Node5</title>
<g id="a_node5"><a xlink:href="build__analyzer_8cpp.html" target="_top" xlink:title=" ">
<polygon fill="none" stroke="black" points="878,-95 878,-136 1078,-136 1078,-95 878,-95"/>
<text text-anchor="start" x="886" y="-124" font-family="Helvetica,sans-Serif" font-size="10.00">/home/runner/work/cbmc</text>
<text text-anchor="start" x="886" y="-113" font-family="Helvetica,sans-Serif" font-size="10.00">&#45;documentation/cbmc&#45;documentation</text>
<text text-anchor="middle" x="978" y="-102" font-family="Helvetica,sans-Serif" font-size="10.00">/src/goto&#45;analyzer/build_analyzer.cpp</text>
</a>
</g>
</g>
<!-- Node3&#45;&gt;Node5 -->
<g id="edge4" class="edge">
<title>Node3&#45;&gt;Node5</title>
<path fill="none" stroke="midnightblue" d="M821.72,-174.92C854.58,-162.64 894.54,-147.7 925.83,-136"/>
<polygon fill="midnightblue" stroke="midnightblue" points="820.36,-171.7 812.22,-178.48 822.81,-178.26 820.36,-171.7"/>
</g>
<!-- Node6 -->
<g id="node6" class="node">
<title>Node6</title>
<g id="a_node6"><a xlink:href="static__show__domain_8cpp.html" target="_top" xlink:title=" ">
<polygon fill="none" stroke="black" points="1096,-89.5 1096,-141.5 1296,-141.5 1296,-89.5 1096,-89.5"/>
<text text-anchor="start" x="1104" y="-129.5" font-family="Helvetica,sans-Serif" font-size="10.00">/home/runner/work/cbmc</text>
<text text-anchor="start" x="1104" y="-118.5" font-family="Helvetica,sans-Serif" font-size="10.00">&#45;documentation/cbmc&#45;documentation</text>
<text text-anchor="start" x="1104" y="-107.5" font-family="Helvetica,sans-Serif" font-size="10.00">/src/goto&#45;analyzer/static_show</text>
<text text-anchor="middle" x="1196" y="-96.5" font-family="Helvetica,sans-Serif" font-size="10.00">_domain.cpp</text>
</a>
</g>
</g>
<!-- Node3&#45;&gt;Node6 -->
<g id="edge5" class="edge">
<title>Node3&#45;&gt;Node6</title>
<path fill="none" stroke="midnightblue" d="M870.15,-180.83C933.72,-170.5 1015.06,-156.56 1087,-142 1089.95,-141.4 1092.95,-140.78 1095.97,-140.15"/>
<polygon fill="midnightblue" stroke="midnightblue" points="869.42,-177.4 860.11,-182.46 870.54,-184.31 869.42,-177.4"/>
</g>
<!-- Node7 -->
<g id="node7" class="node">
<title>Node7</title>
<g id="a_node7"><a xlink:href="change__impact_8cpp.html" target="_top" xlink:title=" ">
<polygon fill="none" stroke="black" points="218,-95 218,-136 418,-136 418,-95 218,-95"/>
<text text-anchor="start" x="226" y="-124" font-family="Helvetica,sans-Serif" font-size="10.00">/home/runner/work/cbmc</text>
<text text-anchor="start" x="226" y="-113" font-family="Helvetica,sans-Serif" font-size="10.00">&#45;documentation/cbmc&#45;documentation</text>
<text text-anchor="middle" x="318" y="-102" font-family="Helvetica,sans-Serif" font-size="10.00">/src/goto&#45;diff/change_impact.cpp</text>
</a>
</g>
</g>
<!-- Node3&#45;&gt;Node7 -->
<g id="edge6" class="edge">
<title>Node3&#45;&gt;Node7</title>
<path fill="none" stroke="midnightblue" d="M650.06,-177.86C550.4,-160.95 523.43,-160.74 428,-142 418.77,-140.19 409.13,-138.16 399.56,-136.06"/>
<polygon fill="midnightblue" stroke="midnightblue" points="649.48,-181.32 659.93,-179.55 650.67,-174.42 649.48,-181.32"/>
</g>
<!-- Node8 -->
<g id="node8" class="node">
<title>Node8</title>
<g id="a_node8"><a xlink:href="full__slicer__class_8h.html" target="_top" xlink:title=" ">
<polygon fill="none" stroke="black" points="436.5,-95 436.5,-136 641.5,-136 641.5,-95 436.5,-95"/>
<text text-anchor="start" x="444.5" y="-124" font-family="Helvetica,sans-Serif" font-size="10.00">/home/runner/work/cbmc</text>
<text text-anchor="start" x="444.5" y="-113" font-family="Helvetica,sans-Serif" font-size="10.00">&#45;documentation/cbmc&#45;documentation</text>
<text text-anchor="middle" x="539" y="-102" font-family="Helvetica,sans-Serif" font-size="10.00">/src/goto&#45;instrument/full_slicer_class.h</text>
</a>
</g>
</g>
<!-- Node3&#45;&gt;Node8 -->
<g id="edge7" class="edge">
<title>Node3&#45;&gt;Node8</title>
<path fill="none" stroke="midnightblue" d="M697.43,-174.92C664.12,-162.64 623.61,-147.7 591.89,-136"/>
<polygon fill="midnightblue" stroke="midnightblue" points="696.47,-178.3 707.06,-178.48 698.89,-171.73 696.47,-178.3"/>
</g>
<!-- Node3&#45;&gt;Node11 -->
<g id="edge10" class="edge">
<title>Node3&#45;&gt;Node11</title>
<path fill="none" stroke="midnightblue" d="M649.92,-177.94C453.84,-152.84 400.48,-172.03 209,-142 206.12,-141.55 203.2,-141.06 200.26,-140.55"/>
<polygon fill="midnightblue" stroke="midnightblue" points="649.61,-181.42 659.98,-179.25 650.51,-174.48 649.61,-181.42"/>
</g>
<!-- Node12 -->
<g id="node12" class="node">
<title>Node12</title>
<g id="a_node12"><a xlink:href="janalyzer__parse__options_8cpp.html" target="_top" xlink:title=" ">
<polygon fill="none" stroke="black" points="660,-89.5 660,-141.5 860,-141.5 860,-89.5 660,-89.5"/>
<text text-anchor="start" x="668" y="-129.5" font-family="Helvetica,sans-Serif" font-size="10.00">/home/runner/work/cbmc</text>
<text text-anchor="start" x="668" y="-118.5" font-family="Helvetica,sans-Serif" font-size="10.00">&#45;documentation/cbmc&#45;documentation</text>
<text text-anchor="start" x="668" y="-107.5" font-family="Helvetica,sans-Serif" font-size="10.00">/jbmc/src/janalyzer/janalyzer</text>
<text text-anchor="middle" x="760" y="-96.5" font-family="Helvetica,sans-Serif" font-size="10.00">_parse_options.cpp</text>
</a>
</g>
</g>
<!-- Node3&#45;&gt;Node12 -->
<g id="edge11" class="edge">
<title>Node3&#45;&gt;Node12</title>
<path fill="none" stroke="midnightblue" d="M760,-168.12C760,-159.41 760,-149.99 760,-141.61"/>
<polygon fill="midnightblue" stroke="midnightblue" points="756.5,-168.27 760,-178.27 763.5,-168.27 756.5,-168.27"/>
</g>
<!-- Node9 -->
<g id="node9" class="node">
<title>Node9</title>
<g id="a_node9"><a xlink:href="full__slicer_8cpp.html" target="_top" xlink:title=" ">
<polygon fill="none" stroke="black" points="330,-6 330,-47 530,-47 530,-6 330,-6"/>
<text text-anchor="start" x="338" y="-35" font-family="Helvetica,sans-Serif" font-size="10.00">/home/runner/work/cbmc</text>
<text text-anchor="start" x="338" y="-24" font-family="Helvetica,sans-Serif" font-size="10.00">&#45;documentation/cbmc&#45;documentation</text>
<text text-anchor="middle" x="430" y="-13" font-family="Helvetica,sans-Serif" font-size="10.00">/src/goto&#45;instrument/full_slicer.cpp</text>
</a>
</g>
</g>
<!-- Node8&#45;&gt;Node9 -->
<g id="edge8" class="edge">
<title>Node8&#45;&gt;Node9</title>
<path fill="none" stroke="midnightblue" d="M506.68,-88.71C490.07,-75.44 470.14,-59.53 454.76,-47.26"/>
<polygon fill="midnightblue" stroke="midnightblue" points="504.54,-91.47 514.54,-94.98 508.91,-86 504.54,-91.47"/>
</g>
<!-- Node10 -->
<g id="node10" class="node">
<title>Node10</title>
<g id="a_node10"><a xlink:href="reachability__slicer_8cpp.html" target="_top" xlink:title=" ">
<polygon fill="none" stroke="black" points="548,-0.5 548,-52.5 748,-52.5 748,-0.5 548,-0.5"/>
<text text-anchor="start" x="556" y="-40.5" font-family="Helvetica,sans-Serif" font-size="10.00">/home/runner/work/cbmc</text>
<text text-anchor="start" x="556" y="-29.5" font-family="Helvetica,sans-Serif" font-size="10.00">&#45;documentation/cbmc&#45;documentation</text>
<text text-anchor="start" x="556" y="-18.5" font-family="Helvetica,sans-Serif" font-size="10.00">/src/goto&#45;instrument/reachability</text>
<text text-anchor="middle" x="648" y="-7.5" font-family="Helvetica,sans-Serif" font-size="10.00">_slicer.cpp</text>
</a>
</g>
</g>
<!-- Node8&#45;&gt;Node10 -->
<g id="edge9" class="edge">
<title>Node8&#45;&gt;Node10</title>
<path fill="none" stroke="midnightblue" d="M571.54,-88.53C585.79,-77.15 602.45,-63.86 616.57,-52.58"/>
<polygon fill="midnightblue" stroke="midnightblue" points="569.09,-86 563.46,-94.98 573.46,-91.47 569.09,-86"/>
</g>
</g>
</svg>
