<?xml version="1.0" encoding="UTF-8" standalone="no"?>
<!DOCTYPE svg PUBLIC "-//W3C//DTD SVG 1.1//EN"
 "http://www.w3.org/Graphics/SVG/1.1/DTD/svg11.dtd">
<!-- Generated by graphviz version 2.43.0 (0)
 -->
<!-- Title: /home/runner/work/cbmc&#45;documentation/cbmc&#45;documentation/src/goto&#45;cc/goto_cc_mode.h Pages: 1 -->
<svg width="2061pt" height="206pt"
 viewBox="0.00 0.00 2061.00 206.00" xmlns="http://www.w3.org/2000/svg" xmlns:xlink="http://www.w3.org/1999/xlink">
<g id="graph0" class="graph" transform="scale(1 1) rotate(0) translate(4 202)">
<title>/home/runner/work/cbmc&#45;documentation/cbmc&#45;documentation/src/goto&#45;cc/goto_cc_mode.h</title>
<!-- Node1 -->
<g id="node1" class="node">
<title>Node1</title>
<g id="a_node1"><a xlink:title=" ">
<polygon fill="#bfbfbf" stroke="black" points="981,-156.5 981,-197.5 1181,-197.5 1181,-156.5 981,-156.5"/>
<text text-anchor="start" x="989" y="-185.5" font-family="Helvetica,sans-Serif" font-size="10.00">/home/runner/work/cbmc</text>
<text text-anchor="start" x="989" y="-174.5" font-family="Helvetica,sans-Serif" font-size="10.00">&#45;documentation/cbmc&#45;documentation</text>
<text text-anchor="middle" x="1081" y="-163.5" font-family="Helvetica,sans-Serif" font-size="10.00">/src/goto&#45;cc/goto_cc_mode.h</text>
</a>
</g>
</g>
<!-- Node2 -->
<g id="node2" class="node">
<title>Node2</title>
<g id="a_node2"><a xlink:href="armcc__mode_8h.html" target="_top" xlink:title=" ">
<polygon fill="none" stroke="black" points="109,-78.5 109,-119.5 309,-119.5 309,-78.5 109,-78.5"/>
<text text-anchor="start" x="117" y="-107.5" font-family="Helvetica,sans-Serif" font-size="10.00">/home/runner/work/cbmc</text>
<text text-anchor="start" x="117" y="-96.5" font-family="Helvetica,sans-Serif" font-size="10.00">&#45;documentation/cbmc&#45;documentation</text>
<text text-anchor="middle" x="209" y="-85.5" font-family="Helvetica,sans-Serif" font-size="10.00">/src/goto&#45;cc/armcc_mode.h</text>
</a>
</g>
</g>
<!-- Node1&#45;&gt;Node2 -->
<g id="edge1" class="edge">
<title>Node1&#45;&gt;Node2</title>
<path fill="none" stroke="midnightblue" d="M970.93,-171.66C822.28,-164.96 549.33,-149.62 318,-120 315.04,-119.62 312.04,-119.21 309.02,-118.79"/>
<polygon fill="midnightblue" stroke="midnightblue" points="970.83,-175.16 980.98,-172.11 971.14,-168.17 970.83,-175.16"/>
</g>
<!-- Node5 -->
<g id="node5" class="node">
<title>Node5</title>
<g id="a_node5"><a xlink:href="as__mode_8h.html" target="_top" xlink:title=" ">
<polygon fill="none" stroke="black" points="327,-78.5 327,-119.5 527,-119.5 527,-78.5 327,-78.5"/>
<text text-anchor="start" x="335" y="-107.5" font-family="Helvetica,sans-Serif" font-size="10.00">/home/runner/work/cbmc</text>
<text text-anchor="start" x="335" y="-96.5" font-family="Helvetica,sans-Serif" font-size="10.00">&#45;documentation/cbmc&#45;documentation</text>
<text text-anchor="middle" x="427" y="-85.5" font-family="Helvetica,sans-Serif" font-size="10.00">/src/goto&#45;cc/as_mode.h</text>
</a>
</g>
</g>
<!-- Node1&#45;&gt;Node5 -->
<g id="edge4" class="edge">
<title>Node1&#45;&gt;Node5</title>
<path fill="none" stroke="midnightblue" d="M970.62,-167.24C860.3,-157.87 685.98,-141.43 536,-120 533.05,-119.58 530.05,-119.13 527.03,-118.67"/>
<polygon fill="midnightblue" stroke="midnightblue" points="970.5,-170.74 980.76,-168.09 971.09,-163.76 970.5,-170.74"/>
</g>
<!-- Node7 -->
<g id="node7" class="node">
<title>Node7</title>
<g id="a_node7"><a xlink:href="cw__mode_8h.html" target="_top" xlink:title=" ">
<polygon fill="none" stroke="black" points="545,-78.5 545,-119.5 745,-119.5 745,-78.5 545,-78.5"/>
<text text-anchor="start" x="553" y="-107.5" font-family="Helvetica,sans-Serif" font-size="10.00">/home/runner/work/cbmc</text>
<text text-anchor="start" x="553" y="-96.5" font-family="Helvetica,sans-Serif" font-size="10.00">&#45;documentation/cbmc&#45;documentation</text>
<text text-anchor="middle" x="645" y="-85.5" font-family="Helvetica,sans-Serif" font-size="10.00">/src/goto&#45;cc/cw_mode.h</text>
</a>
</g>
</g>
<!-- Node1&#45;&gt;Node7 -->
<g id="edge7" class="edge">
<title>Node1&#45;&gt;Node7</title>
<path fill="none" stroke="midnightblue" d="M970.74,-157.45C907.31,-146.7 826.14,-132.79 754,-120 751.06,-119.48 748.08,-118.95 745.08,-118.41"/>
<polygon fill="midnightblue" stroke="midnightblue" points="970.32,-160.93 980.77,-159.15 971.49,-154.03 970.32,-160.93"/>
</g>
<!-- Node9 -->
<g id="node9" class="node">
<title>Node9</title>
<g id="a_node9"><a xlink:href="gcc__mode_8h.html" target="_top" xlink:title=" ">
<polygon fill="none" stroke="black" points="763,-78.5 763,-119.5 963,-119.5 963,-78.5 763,-78.5"/>
<text text-anchor="start" x="771" y="-107.5" font-family="Helvetica,sans-Serif" font-size="10.00">/home/runner/work/cbmc</text>
<text text-anchor="start" x="771" y="-96.5" font-family="Helvetica,sans-Serif" font-size="10.00">&#45;documentation/cbmc&#45;documentation</text>
<text text-anchor="middle" x="863" y="-85.5" font-family="Helvetica,sans-Serif" font-size="10.00">/src/goto&#45;cc/gcc_mode.h</text>
</a>
</g>
</g>
<!-- Node1&#45;&gt;Node9 -->
<g id="edge10" class="edge">
<title>Node1&#45;&gt;Node9</title>
<path fill="none" stroke="midnightblue" d="M1015.1,-153.03C984.41,-142.33 948.29,-129.73 918.95,-119.51"/>
<polygon fill="midnightblue" stroke="midnightblue" points="1014.26,-156.44 1024.86,-156.43 1016.57,-149.83 1014.26,-156.44"/>
</g>
<!-- Node11 -->
<g id="node11" class="node">
<title>Node11</title>
<g id="a_node11"><a xlink:href="goto__cc__languages_8cpp.html" target="_top" xlink:title=" ">
<polygon fill="none" stroke="black" points="1635,-78.5 1635,-119.5 1835,-119.5 1835,-78.5 1635,-78.5"/>
<text text-anchor="start" x="1643" y="-107.5" font-family="Helvetica,sans-Serif" font-size="10.00">/home/runner/work/cbmc</text>
<text text-anchor="start" x="1643" y="-96.5" font-family="Helvetica,sans-Serif" font-size="10.00">&#45;documentation/cbmc&#45;documentation</text>
<text text-anchor="middle" x="1735" y="-85.5" font-family="Helvetica,sans-Serif" font-size="10.00">/src/goto&#45;cc/goto_cc_languages.cpp</text>
</a>
</g>
</g>
<!-- Node1&#45;&gt;Node11 -->
<g id="edge13" class="edge">
<title>Node1&#45;&gt;Node11</title>
<path fill="none" stroke="midnightblue" d="M1191.38,-167.24C1301.7,-157.87 1476.02,-141.43 1626,-120 1628.95,-119.58 1631.95,-119.13 1634.97,-118.67"/>
<polygon fill="midnightblue" stroke="midnightblue" points="1190.91,-163.76 1181.24,-168.09 1191.5,-170.74 1190.91,-163.76"/>
</g>
<!-- Node12 -->
<g id="node12" class="node">
<title>Node12</title>
<g id="a_node12"><a xlink:href="ld__mode_8h.html" target="_top" xlink:title=" ">
<polygon fill="none" stroke="black" points="981,-78.5 981,-119.5 1181,-119.5 1181,-78.5 981,-78.5"/>
<text text-anchor="start" x="989" y="-107.5" font-family="Helvetica,sans-Serif" font-size="10.00">/home/runner/work/cbmc</text>
<text text-anchor="start" x="989" y="-96.5" font-family="Helvetica,sans-Serif" font-size="10.00">&#45;documentation/cbmc&#45;documentation</text>
<text text-anchor="middle" x="1081" y="-85.5" font-family="Helvetica,sans-Serif" font-size="10.00">/src/goto&#45;cc/ld_mode.h</text>
</a>
</g>
</g>
<!-- Node1&#45;&gt;Node12 -->
<g id="edge14" class="edge">
<title>Node1&#45;&gt;Node12</title>
<path fill="none" stroke="midnightblue" d="M1081,-146.3C1081,-137.3 1081,-127.65 1081,-119.51"/>
<polygon fill="midnightblue" stroke="midnightblue" points="1077.5,-146.43 1081,-156.43 1084.5,-146.43 1077.5,-146.43"/>
</g>
<!-- Node14 -->
<g id="node14" class="node">
<title>Node14</title>
<g id="a_node14"><a xlink:href="ms__cl__mode_8h.html" target="_top" xlink:title=" ">
<polygon fill="none" stroke="black" points="1199,-78.5 1199,-119.5 1399,-119.5 1399,-78.5 1199,-78.5"/>
<text text-anchor="start" x="1207" y="-107.5" font-family="Helvetica,sans-Serif" font-size="10.00">/home/runner/work/cbmc</text>
<text text-anchor="start" x="1207" y="-96.5" font-family="Helvetica,sans-Serif" font-size="10.00">&#45;documentation/cbmc&#45;documentation</text>
<text text-anchor="middle" x="1299" y="-85.5" font-family="Helvetica,sans-Serif" font-size="10.00">/src/goto&#45;cc/ms_cl_mode.h</text>
</a>
</g>
</g>
<!-- Node1&#45;&gt;Node14 -->
<g id="edge17" class="edge">
<title>Node1&#45;&gt;Node14</title>
<path fill="none" stroke="midnightblue" d="M1146.9,-153.03C1177.59,-142.33 1213.71,-129.73 1243.05,-119.51"/>
<polygon fill="midnightblue" stroke="midnightblue" points="1145.43,-149.83 1137.14,-156.43 1147.74,-156.44 1145.43,-149.83"/>
</g>
<!-- Node16 -->
<g id="node16" class="node">
<title>Node16</title>
<g id="a_node16"><a xlink:href="ms__link__mode_8h.html" target="_top" xlink:title=" ">
<polygon fill="none" stroke="black" points="1417,-78.5 1417,-119.5 1617,-119.5 1617,-78.5 1417,-78.5"/>
<text text-anchor="start" x="1425" y="-107.5" font-family="Helvetica,sans-Serif" font-size="10.00">/home/runner/work/cbmc</text>
<text text-anchor="start" x="1425" y="-96.5" font-family="Helvetica,sans-Serif" font-size="10.00">&#45;documentation/cbmc&#45;documentation</text>
<text text-anchor="middle" x="1517" y="-85.5" font-family="Helvetica,sans-Serif" font-size="10.00">/src/goto&#45;cc/ms_link_mode.h</text>
</a>
</g>
</g>
<!-- Node1&#45;&gt;Node16 -->
<g id="edge20" class="edge">
<title>Node1&#45;&gt;Node16</title>
<path fill="none" stroke="midnightblue" d="M1191.26,-157.45C1254.69,-146.7 1335.86,-132.79 1408,-120 1410.94,-119.48 1413.92,-118.95 1416.92,-118.41"/>
<polygon fill="midnightblue" stroke="midnightblue" points="1190.51,-154.03 1181.23,-159.15 1191.68,-160.93 1190.51,-154.03"/>
</g>
<!-- Node18 -->
<g id="node18" class="node">
<title>Node18</title>
<g id="a_node18"><a xlink:href="goto__cc__mode_8cpp.html" target="_top" xlink:title=" ">
<polygon fill="none" stroke="black" points="1853,-78.5 1853,-119.5 2053,-119.5 2053,-78.5 1853,-78.5"/>
<text text-anchor="start" x="1861" y="-107.5" font-family="Helvetica,sans-Serif" font-size="10.00">/home/runner/work/cbmc</text>
<text text-anchor="start" x="1861" y="-96.5" font-family="Helvetica,sans-Serif" font-size="10.00">&#45;documentation/cbmc&#45;documentation</text>
<text text-anchor="middle" x="1953" y="-85.5" font-family="Helvetica,sans-Serif" font-size="10.00">/src/goto&#45;cc/goto_cc_mode.cpp</text>
</a>
</g>
</g>
<!-- Node1&#45;&gt;Node18 -->
<g id="edge23" class="edge">
<title>Node1&#45;&gt;Node18</title>
<path fill="none" stroke="midnightblue" d="M1191.07,-171.66C1339.72,-164.96 1612.67,-149.62 1844,-120 1846.96,-119.62 1849.96,-119.21 1852.98,-118.79"/>
<polygon fill="midnightblue" stroke="midnightblue" points="1190.86,-168.17 1181.02,-172.11 1191.17,-175.16 1190.86,-168.17"/>
</g>
<!-- Node3 -->
<g id="node3" class="node">
<title>Node3</title>
<g id="a_node3"><a xlink:href="armcc__mode_8cpp.html" target="_top" xlink:title=" ">
<polygon fill="none" stroke="black" points="0,-0.5 0,-41.5 200,-41.5 200,-0.5 0,-0.5"/>
<text text-anchor="start" x="8" y="-29.5" font-family="Helvetica,sans-Serif" font-size="10.00">/home/runner/work/cbmc</text>
<text text-anchor="start" x="8" y="-18.5" font-family="Helvetica,sans-Serif" font-size="10.00">&#45;documentation/cbmc&#45;documentation</text>
<text text-anchor="middle" x="100" y="-7.5" font-family="Helvetica,sans-Serif" font-size="10.00">/src/goto&#45;cc/armcc_mode.cpp</text>
</a>
</g>
</g>
<!-- Node2&#45;&gt;Node3 -->
<g id="edge2" class="edge">
<title>Node2&#45;&gt;Node3</title>
<path fill="none" stroke="midnightblue" d="M172.62,-72.64C158.07,-62.49 141.57,-50.98 127.98,-41.51"/>
<polygon fill="midnightblue" stroke="midnightblue" points="170.73,-75.58 180.93,-78.43 174.73,-69.84 170.73,-75.58"/>
</g>
<!-- Node4 -->
<g id="node4" class="node">
<title>Node4</title>
<g id="a_node4"><a xlink:href="goto__cc__main_8cpp.html" target="_top" xlink:title=" ">
<polygon fill="none" stroke="black" points="654,-0.5 654,-41.5 854,-41.5 854,-0.5 654,-0.5"/>
<text text-anchor="start" x="662" y="-29.5" font-family="Helvetica,sans-Serif" font-size="10.00">/home/runner/work/cbmc</text>
<text text-anchor="start" x="662" y="-18.5" font-family="Helvetica,sans-Serif" font-size="10.00">&#45;documentation/cbmc&#45;documentation</text>
<text text-anchor="middle" x="754" y="-7.5" font-family="Helvetica,sans-Serif" font-size="10.00">/src/goto&#45;cc/goto_cc_main.cpp</text>
</a>
</g>
</g>
<!-- Node2&#45;&gt;Node4 -->
<g id="edge3" class="edge">
<title>Node2&#45;&gt;Node4</title>
<path fill="none" stroke="midnightblue" d="M319.22,-77.88C464.41,-57.07 503.58,-62.73 645,-42 647.95,-41.57 650.94,-41.11 653.96,-40.64"/>
<polygon fill="midnightblue" stroke="midnightblue" points="318.43,-74.46 309.04,-79.36 319.44,-81.38 318.43,-74.46"/>
</g>
<!-- Node5&#45;&gt;Node4 -->
<g id="edge6" class="edge">
<title>Node5&#45;&gt;Node4</title>
<path fill="none" stroke="midnightblue" d="M521.09,-76.13C568.12,-65.2 624.54,-52.09 670.07,-41.51"/>
<polygon fill="midnightblue" stroke="midnightblue" points="520.16,-72.76 511.21,-78.43 521.74,-79.57 520.16,-72.76"/>
</g>
<!-- Node6 -->
<g id="node6" class="node">
<title>Node6</title>
<g id="a_node6"><a xlink:href="as__mode_8cpp.html" target="_top" xlink:title=" ">
<polygon fill="none" stroke="black" points="218,-0.5 218,-41.5 418,-41.5 418,-0.5 218,-0.5"/>
<text text-anchor="start" x="226" y="-29.5" font-family="Helvetica,sans-Serif" font-size="10.00">/home/runner/work/cbmc</text>
<text text-anchor="start" x="226" y="-18.5" font-family="Helvetica,sans-Serif" font-size="10.00">&#45;documentation/cbmc&#45;documentation</text>
<text text-anchor="middle" x="318" y="-7.5" font-family="Helvetica,sans-Serif" font-size="10.00">/src/goto&#45;cc/as_mode.cpp</text>
</a>
</g>
</g>
<!-- Node5&#45;&gt;Node6 -->
<g id="edge5" class="edge">
<title>Node5&#45;&gt;Node6</title>
<path fill="none" stroke="midnightblue" d="M390.62,-72.64C376.07,-62.49 359.57,-50.98 345.98,-41.51"/>
<polygon fill="midnightblue" stroke="midnightblue" points="388.73,-75.58 398.93,-78.43 392.73,-69.84 388.73,-75.58"/>
</g>
<!-- Node7&#45;&gt;Node4 -->
<g id="edge9" class="edge">
<title>Node7&#45;&gt;Node4</title>
<path fill="none" stroke="midnightblue" d="M681.38,-72.64C695.93,-62.49 712.43,-50.98 726.02,-41.51"/>
<polygon fill="midnightblue" stroke="midnightblue" points="679.27,-69.84 673.07,-78.43 683.27,-75.58 679.27,-69.84"/>
</g>
<!-- Node8 -->
<g id="node8" class="node">
<title>Node8</title>
<g id="a_node8"><a xlink:href="cw__mode_8cpp.html" target="_top" xlink:title=" ">
<polygon fill="none" stroke="black" points="436,-0.5 436,-41.5 636,-41.5 636,-0.5 436,-0.5"/>
<text text-anchor="start" x="444" y="-29.5" font-family="Helvetica,sans-Serif" font-size="10.00">/home/runner/work/cbmc</text>
<text text-anchor="start" x="444" y="-18.5" font-family="Helvetica,sans-Serif" font-size="10.00">&#45;documentation/cbmc&#45;documentation</text>
<text text-anchor="middle" x="536" y="-7.5" font-family="Helvetica,sans-Serif" font-size="10.00">/src/goto&#45;cc/cw_mode.cpp</text>
</a>
</g>
</g>
<!-- Node7&#45;&gt;Node8 -->
<g id="edge8" class="edge">
<title>Node7&#45;&gt;Node8</title>
<path fill="none" stroke="midnightblue" d="M608.62,-72.64C594.07,-62.49 577.57,-50.98 563.98,-41.51"/>
<polygon fill="midnightblue" stroke="midnightblue" points="606.73,-75.58 616.93,-78.43 610.73,-69.84 606.73,-75.58"/>
</g>
<!-- Node9&#45;&gt;Node4 -->
<g id="edge12" class="edge">
<title>Node9&#45;&gt;Node4</title>
<path fill="none" stroke="midnightblue" d="M826.62,-72.64C812.07,-62.49 795.57,-50.98 781.98,-41.51"/>
<polygon fill="midnightblue" stroke="midnightblue" points="824.73,-75.58 834.93,-78.43 828.73,-69.84 824.73,-75.58"/>
</g>
<!-- Node10 -->
<g id="node10" class="node">
<title>Node10</title>
<g id="a_node10"><a xlink:href="gcc__mode_8cpp.html" target="_top" xlink:title=" ">
<polygon fill="none" stroke="black" points="872,-0.5 872,-41.5 1072,-41.5 1072,-0.5 872,-0.5"/>
<text text-anchor="start" x="880" y="-29.5" font-family="Helvetica,sans-Serif" font-size="10.00">/home/runner/work/cbmc</text>
<text text-anchor="start" x="880" y="-18.5" font-family="Helvetica,sans-Serif" font-size="10.00">&#45;documentation/cbmc&#45;documentation</text>
<text text-anchor="middle" x="972" y="-7.5" font-family="Helvetica,sans-Serif" font-size="10.00">/src/goto&#45;cc/gcc_mode.cpp</text>
</a>
</g>
</g>
<!-- Node9&#45;&gt;Node10 -->
<g id="edge11" class="edge">
<title>Node9&#45;&gt;Node10</title>
<path fill="none" stroke="midnightblue" d="M899.38,-72.64C913.93,-62.49 930.43,-50.98 944.02,-41.51"/>
<polygon fill="midnightblue" stroke="midnightblue" points="897.27,-69.84 891.07,-78.43 901.27,-75.58 897.27,-69.84"/>
</g>
<!-- Node12&#45;&gt;Node4 -->
<g id="edge15" class="edge">
<title>Node12&#45;&gt;Node4</title>
<path fill="none" stroke="midnightblue" d="M986.91,-76.13C939.88,-65.2 883.46,-52.09 837.93,-41.51"/>
<polygon fill="midnightblue" stroke="midnightblue" points="986.26,-79.57 996.79,-78.43 987.84,-72.76 986.26,-79.57"/>
</g>
<!-- Node13 -->
<g id="node13" class="node">
<title>Node13</title>
<g id="a_node13"><a xlink:href="ld__mode_8cpp.html" target="_top" xlink:title=" ">
<polygon fill="none" stroke="black" points="1090,-0.5 1090,-41.5 1290,-41.5 1290,-0.5 1090,-0.5"/>
<text text-anchor="start" x="1098" y="-29.5" font-family="Helvetica,sans-Serif" font-size="10.00">/home/runner/work/cbmc</text>
<text text-anchor="start" x="1098" y="-18.5" font-family="Helvetica,sans-Serif" font-size="10.00">&#45;documentation/cbmc&#45;documentation</text>
<text text-anchor="middle" x="1190" y="-7.5" font-family="Helvetica,sans-Serif" font-size="10.00">/src/goto&#45;cc/ld_mode.cpp</text>
</a>
</g>
</g>
<!-- Node12&#45;&gt;Node13 -->
<g id="edge16" class="edge">
<title>Node12&#45;&gt;Node13</title>
<path fill="none" stroke="midnightblue" d="M1117.38,-72.64C1131.93,-62.49 1148.43,-50.98 1162.02,-41.51"/>
<polygon fill="midnightblue" stroke="midnightblue" points="1115.27,-69.84 1109.07,-78.43 1119.27,-75.58 1115.27,-69.84"/>
</g>
<!-- Node14&#45;&gt;Node4 -->
<g id="edge18" class="edge">
<title>Node14&#45;&gt;Node4</title>
<path fill="none" stroke="midnightblue" d="M1188.78,-77.88C1043.59,-57.07 1004.42,-62.73 863,-42 860.05,-41.57 857.06,-41.11 854.04,-40.64"/>
<polygon fill="midnightblue" stroke="midnightblue" points="1188.56,-81.38 1198.96,-79.36 1189.57,-74.46 1188.56,-81.38"/>
</g>
<!-- Node15 -->
<g id="node15" class="node">
<title>Node15</title>
<g id="a_node15"><a xlink:href="ms__cl__mode_8cpp.html" target="_top" xlink:title=" ">
<polygon fill="none" stroke="black" points="1308,-0.5 1308,-41.5 1508,-41.5 1508,-0.5 1308,-0.5"/>
<text text-anchor="start" x="1316" y="-29.5" font-family="Helvetica,sans-Serif" font-size="10.00">/home/runner/work/cbmc</text>
<text text-anchor="start" x="1316" y="-18.5" font-family="Helvetica,sans-Serif" font-size="10.00">&#45;documentation/cbmc&#45;documentation</text>
<text text-anchor="middle" x="1408" y="-7.5" font-family="Helvetica,sans-Serif" font-size="10.00">/src/goto&#45;cc/ms_cl_mode.cpp</text>
</a>
</g>
</g>
<!-- Node14&#45;&gt;Node15 -->
<g id="edge19" class="edge">
<title>Node14&#45;&gt;Node15</title>
<path fill="none" stroke="midnightblue" d="M1335.38,-72.64C1349.93,-62.49 1366.43,-50.98 1380.02,-41.51"/>
<polygon fill="midnightblue" stroke="midnightblue" points="1333.27,-69.84 1327.07,-78.43 1337.27,-75.58 1333.27,-69.84"/>
</g>
<!-- Node16&#45;&gt;Node4 -->
<g id="edge21" class="edge">
<title>Node16&#45;&gt;Node4</title>
<path fill="none" stroke="midnightblue" d="M1406.84,-77.94C1165.34,-48.69 1100.6,-71.55 863,-42 860.04,-41.63 857.04,-41.24 854.01,-40.81"/>
<polygon fill="midnightblue" stroke="midnightblue" points="1406.63,-81.44 1416.99,-79.19 1407.49,-74.49 1406.63,-81.44"/>
</g>
<!-- Node17 -->
<g id="node17" class="node">
<title>Node17</title>
<g id="a_node17"><a xlink:href="ms__link__mode_8cpp.html" target="_top" xlink:title=" ">
<polygon fill="none" stroke="black" points="1526,-0.5 1526,-41.5 1726,-41.5 1726,-0.5 1526,-0.5"/>
<text text-anchor="start" x="1534" y="-29.5" font-family="Helvetica,sans-Serif" font-size="10.00">/home/runner/work/cbmc</text>
<text text-anchor="start" x="1534" y="-18.5" font-family="Helvetica,sans-Serif" font-size="10.00">&#45;documentation/cbmc&#45;documentation</text>
<text text-anchor="middle" x="1626" y="-7.5" font-family="Helvetica,sans-Serif" font-size="10.00">/src/goto&#45;cc/ms_link_mode.cpp</text>
</a>
</g>
</g>
<!-- Node16&#45;&gt;Node17 -->
<g id="edge22" class="edge">
<title>Node16&#45;&gt;Node17</title>
<path fill="none" stroke="midnightblue" d="M1553.38,-72.64C1567.93,-62.49 1584.43,-50.98 1598.02,-41.51"/>
<polygon fill="midnightblue" stroke="midnightblue" points="1551.27,-69.84 1545.07,-78.43 1555.27,-75.58 1551.27,-69.84"/>
</g>
</g>
</svg>
