<?xml version="1.0" encoding="UTF-8" standalone="no"?>
<!DOCTYPE svg PUBLIC "-//W3C//DTD SVG 1.1//EN"
 "http://www.w3.org/Graphics/SVG/1.1/DTD/svg11.dtd">
<!-- Generated by graphviz version 2.43.0 (0)
 -->
<!-- Title: /home/runner/work/cbmc&#45;documentation/cbmc&#45;documentation/src/goto&#45;programs/goto_convert_functions.h Pages: 1 -->
<svg width="3118pt" height="328pt"
 viewBox="0.00 0.00 3118.00 328.00" xmlns="http://www.w3.org/2000/svg" xmlns:xlink="http://www.w3.org/1999/xlink">
<g id="graph0" class="graph" transform="scale(1 1) rotate(0) translate(4 324)">
<title>/home/runner/work/cbmc&#45;documentation/cbmc&#45;documentation/src/goto&#45;programs/goto_convert_functions.h</title>
<!-- Node1 -->
<g id="node1" class="node">
<title>Node1</title>
<g id="a_node1"><a xlink:title=" ">
<polygon fill="#bfbfbf" stroke="black" points="1635,-267.5 1635,-319.5 1835,-319.5 1835,-267.5 1635,-267.5"/>
<text text-anchor="start" x="1643" y="-307.5" font-family="Helvetica,sans-Serif" font-size="10.00">/home/runner/work/cbmc</text>
<text text-anchor="start" x="1643" y="-296.5" font-family="Helvetica,sans-Serif" font-size="10.00">&#45;documentation/cbmc&#45;documentation</text>
<text text-anchor="start" x="1643" y="-285.5" font-family="Helvetica,sans-Serif" font-size="10.00">/src/goto&#45;programs/goto_convert</text>
<text text-anchor="middle" x="1735" y="-274.5" font-family="Helvetica,sans-Serif" font-size="10.00">_functions.h</text>
</a>
</g>
</g>
<!-- Node2 -->
<g id="node2" class="node">
<title>Node2</title>
<g id="a_node2"><a xlink:href="compile_8cpp.html" target="_top" xlink:title=" ">
<polygon fill="none" stroke="black" points="0,-184 0,-225 200,-225 200,-184 0,-184"/>
<text text-anchor="start" x="8" y="-213" font-family="Helvetica,sans-Serif" font-size="10.00">/home/runner/work/cbmc</text>
<text text-anchor="start" x="8" y="-202" font-family="Helvetica,sans-Serif" font-size="10.00">&#45;documentation/cbmc&#45;documentation</text>
<text text-anchor="middle" x="100" y="-191" font-family="Helvetica,sans-Serif" font-size="10.00">/src/goto&#45;cc/compile.cpp</text>
</a>
</g>
</g>
<!-- Node1&#45;&gt;Node2 -->
<g id="edge1" class="edge">
<title>Node1&#45;&gt;Node2</title>
<path fill="none" stroke="midnightblue" d="M1624.67,-290.77C1321.95,-285.59 482.74,-268.19 209,-231 197.93,-229.5 186.33,-227.38 175,-225"/>
<polygon fill="midnightblue" stroke="midnightblue" points="1624.71,-294.27 1634.77,-290.94 1624.83,-287.27 1624.71,-294.27"/>
</g>
<!-- Node3 -->
<g id="node3" class="node">
<title>Node3</title>
<g id="a_node3"><a xlink:href="linker__script__merge_8cpp.html" target="_top" xlink:title=" ">
<polygon fill="none" stroke="black" points="218,-184 218,-225 418,-225 418,-184 218,-184"/>
<text text-anchor="start" x="226" y="-213" font-family="Helvetica,sans-Serif" font-size="10.00">/home/runner/work/cbmc</text>
<text text-anchor="start" x="226" y="-202" font-family="Helvetica,sans-Serif" font-size="10.00">&#45;documentation/cbmc&#45;documentation</text>
<text text-anchor="middle" x="318" y="-191" font-family="Helvetica,sans-Serif" font-size="10.00">/src/goto&#45;cc/linker_script_merge.cpp</text>
</a>
</g>
</g>
<!-- Node1&#45;&gt;Node3 -->
<g id="edge2" class="edge">
<title>Node1&#45;&gt;Node3</title>
<path fill="none" stroke="midnightblue" d="M1624.44,-289.9C1352.59,-283.1 656.94,-263.03 427,-231 416.03,-229.47 404.54,-227.36 393.31,-225"/>
<polygon fill="midnightblue" stroke="midnightblue" points="1624.63,-293.41 1634.72,-290.16 1624.81,-286.41 1624.63,-293.41"/>
</g>
<!-- Node4 -->
<g id="node4" class="node">
<title>Node4</title>
<g id="a_node4"><a xlink:href="function__call__harness__generator_8cpp.html" target="_top" xlink:title=" ">
<polygon fill="none" stroke="black" points="436,-178.5 436,-230.5 636,-230.5 636,-178.5 436,-178.5"/>
<text text-anchor="start" x="444" y="-218.5" font-family="Helvetica,sans-Serif" font-size="10.00">/home/runner/work/cbmc</text>
<text text-anchor="start" x="444" y="-207.5" font-family="Helvetica,sans-Serif" font-size="10.00">&#45;documentation/cbmc&#45;documentation</text>
<text text-anchor="start" x="444" y="-196.5" font-family="Helvetica,sans-Serif" font-size="10.00">/src/goto&#45;harness/function_call</text>
<text text-anchor="middle" x="536" y="-185.5" font-family="Helvetica,sans-Serif" font-size="10.00">_harness_generator.cpp</text>
</a>
</g>
</g>
<!-- Node1&#45;&gt;Node4 -->
<g id="edge3" class="edge">
<title>Node1&#45;&gt;Node4</title>
<path fill="none" stroke="midnightblue" d="M1624.77,-292.58C1427.31,-291.32 1000.65,-282.24 645,-231 642.11,-230.58 639.19,-230.13 636.25,-229.64"/>
<polygon fill="midnightblue" stroke="midnightblue" points="1624.84,-296.08 1634.86,-292.63 1624.88,-289.08 1624.84,-296.08"/>
</g>
<!-- Node5 -->
<g id="node5" class="node">
<title>Node5</title>
<g id="a_node5"><a xlink:href="memory__snapshot__harness__generator_8cpp.html" target="_top" xlink:title=" ">
<polygon fill="none" stroke="black" points="654,-178.5 654,-230.5 854,-230.5 854,-178.5 654,-178.5"/>
<text text-anchor="start" x="662" y="-218.5" font-family="Helvetica,sans-Serif" font-size="10.00">/home/runner/work/cbmc</text>
<text text-anchor="start" x="662" y="-207.5" font-family="Helvetica,sans-Serif" font-size="10.00">&#45;documentation/cbmc&#45;documentation</text>
<text text-anchor="start" x="662" y="-196.5" font-family="Helvetica,sans-Serif" font-size="10.00">/src/goto&#45;harness/memory_snapshot</text>
<text text-anchor="middle" x="754" y="-185.5" font-family="Helvetica,sans-Serif" font-size="10.00">_harness_generator.cpp</text>
</a>
</g>
</g>
<!-- Node1&#45;&gt;Node5 -->
<g id="edge4" class="edge">
<title>Node1&#45;&gt;Node5</title>
<path fill="none" stroke="midnightblue" d="M1624.49,-290.34C1458.35,-285.83 1134.73,-272.1 863,-231 860.12,-230.56 857.2,-230.09 854.26,-229.59"/>
<polygon fill="midnightblue" stroke="midnightblue" points="1624.62,-293.85 1634.71,-290.61 1624.81,-286.85 1624.62,-293.85"/>
</g>
<!-- Node6 -->
<g id="node6" class="node">
<title>Node6</title>
<g id="a_node6"><a xlink:href="memory__predicates_8cpp.html" target="_top" xlink:title=" ">
<polygon fill="none" stroke="black" points="872,-178.5 872,-230.5 1072,-230.5 1072,-178.5 872,-178.5"/>
<text text-anchor="start" x="880" y="-218.5" font-family="Helvetica,sans-Serif" font-size="10.00">/home/runner/work/cbmc</text>
<text text-anchor="start" x="880" y="-207.5" font-family="Helvetica,sans-Serif" font-size="10.00">&#45;documentation/cbmc&#45;documentation</text>
<text text-anchor="start" x="880" y="-196.5" font-family="Helvetica,sans-Serif" font-size="10.00">/src/goto&#45;instrument/contracts</text>
<text text-anchor="middle" x="972" y="-185.5" font-family="Helvetica,sans-Serif" font-size="10.00">/memory_predicates.cpp</text>
</a>
</g>
</g>
<!-- Node1&#45;&gt;Node6 -->
<g id="edge5" class="edge">
<title>Node1&#45;&gt;Node6</title>
<path fill="none" stroke="midnightblue" d="M1624.74,-286.72C1494.26,-278.82 1270.77,-261.97 1081,-231 1078.12,-230.53 1075.21,-230.03 1072.27,-229.5"/>
<polygon fill="midnightblue" stroke="midnightblue" points="1624.55,-290.22 1634.74,-287.32 1624.97,-283.23 1624.55,-290.22"/>
</g>
<!-- Node7 -->
<g id="node7" class="node">
<title>Node7</title>
<g id="a_node7"><a xlink:href="generate__function__bodies_8cpp.html" target="_top" xlink:title=" ">
<polygon fill="none" stroke="black" points="1090,-178.5 1090,-230.5 1290,-230.5 1290,-178.5 1090,-178.5"/>
<text text-anchor="start" x="1098" y="-218.5" font-family="Helvetica,sans-Serif" font-size="10.00">/home/runner/work/cbmc</text>
<text text-anchor="start" x="1098" y="-207.5" font-family="Helvetica,sans-Serif" font-size="10.00">&#45;documentation/cbmc&#45;documentation</text>
<text text-anchor="start" x="1098" y="-196.5" font-family="Helvetica,sans-Serif" font-size="10.00">/src/goto&#45;instrument/generate</text>
<text text-anchor="middle" x="1190" y="-185.5" font-family="Helvetica,sans-Serif" font-size="10.00">_function_bodies.cpp</text>
</a>
</g>
</g>
<!-- Node1&#45;&gt;Node7 -->
<g id="edge6" class="edge">
<title>Node1&#45;&gt;Node7</title>
<path fill="none" stroke="midnightblue" d="M1624.53,-279.7C1536.13,-268.78 1409.15,-251.61 1299,-231 1296.04,-230.45 1293.04,-229.87 1290.01,-229.26"/>
<polygon fill="midnightblue" stroke="midnightblue" points="1624.23,-283.19 1634.58,-280.93 1625.08,-276.24 1624.23,-283.19"/>
</g>
<!-- Node8 -->
<g id="node8" class="node">
<title>Node8</title>
<g id="a_node8"><a xlink:href="stack__depth_8cpp.html" target="_top" xlink:title=" ">
<polygon fill="none" stroke="black" points="1308,-184 1308,-225 1508,-225 1508,-184 1308,-184"/>
<text text-anchor="start" x="1316" y="-213" font-family="Helvetica,sans-Serif" font-size="10.00">/home/runner/work/cbmc</text>
<text text-anchor="start" x="1316" y="-202" font-family="Helvetica,sans-Serif" font-size="10.00">&#45;documentation/cbmc&#45;documentation</text>
<text text-anchor="middle" x="1408" y="-191" font-family="Helvetica,sans-Serif" font-size="10.00">/src/goto&#45;instrument/stack_depth.cpp</text>
</a>
</g>
</g>
<!-- Node1&#45;&gt;Node8 -->
<g id="edge7" class="edge">
<title>Node1&#45;&gt;Node8</title>
<path fill="none" stroke="midnightblue" d="M1630.93,-264.81C1582.32,-251.88 1525.6,-236.79 1481.53,-225.06"/>
<polygon fill="midnightblue" stroke="midnightblue" points="1630.29,-268.26 1640.86,-267.45 1632.09,-261.5 1630.29,-268.26"/>
</g>
<!-- Node9 -->
<g id="node9" class="node">
<title>Node9</title>
<g id="a_node9"><a xlink:href="goto__convert__functions_8cpp.html" target="_top" xlink:title=" ">
<polygon fill="none" stroke="black" points="1526,-178.5 1526,-230.5 1726,-230.5 1726,-178.5 1526,-178.5"/>
<text text-anchor="start" x="1534" y="-218.5" font-family="Helvetica,sans-Serif" font-size="10.00">/home/runner/work/cbmc</text>
<text text-anchor="start" x="1534" y="-207.5" font-family="Helvetica,sans-Serif" font-size="10.00">&#45;documentation/cbmc&#45;documentation</text>
<text text-anchor="start" x="1534" y="-196.5" font-family="Helvetica,sans-Serif" font-size="10.00">/src/goto&#45;programs/goto_convert</text>
<text text-anchor="middle" x="1626" y="-185.5" font-family="Helvetica,sans-Serif" font-size="10.00">_functions.cpp</text>
</a>
</g>
</g>
<!-- Node1&#45;&gt;Node9 -->
<g id="edge8" class="edge">
<title>Node1&#45;&gt;Node9</title>
<path fill="none" stroke="midnightblue" d="M1695.45,-260.93C1682.95,-250.96 1669.31,-240.07 1657.46,-230.61"/>
<polygon fill="midnightblue" stroke="midnightblue" points="1693.47,-263.83 1703.47,-267.34 1697.84,-258.36 1693.47,-263.83"/>
</g>
<!-- Node10 -->
<g id="node10" class="node">
<title>Node10</title>
<g id="a_node10"><a xlink:href="initialize__goto__model_8cpp.html" target="_top" xlink:title=" ">
<polygon fill="none" stroke="black" points="1744,-178.5 1744,-230.5 1944,-230.5 1944,-178.5 1744,-178.5"/>
<text text-anchor="start" x="1752" y="-218.5" font-family="Helvetica,sans-Serif" font-size="10.00">/home/runner/work/cbmc</text>
<text text-anchor="start" x="1752" y="-207.5" font-family="Helvetica,sans-Serif" font-size="10.00">&#45;documentation/cbmc&#45;documentation</text>
<text text-anchor="start" x="1752" y="-196.5" font-family="Helvetica,sans-Serif" font-size="10.00">/src/goto&#45;programs/initialize</text>
<text text-anchor="middle" x="1844" y="-185.5" font-family="Helvetica,sans-Serif" font-size="10.00">_goto_model.cpp</text>
</a>
</g>
</g>
<!-- Node1&#45;&gt;Node10 -->
<g id="edge9" class="edge">
<title>Node1&#45;&gt;Node10</title>
<path fill="none" stroke="midnightblue" d="M1774.55,-260.93C1787.05,-250.96 1800.69,-240.07 1812.54,-230.61"/>
<polygon fill="midnightblue" stroke="midnightblue" points="1772.16,-258.36 1766.53,-267.34 1776.53,-263.83 1772.16,-258.36"/>
</g>
<!-- Node11 -->
<g id="node11" class="node">
<title>Node11</title>
<g id="a_node11"><a xlink:href="link__to__library_8cpp.html" target="_top" xlink:title=" ">
<polygon fill="none" stroke="black" points="1962,-184 1962,-225 2162,-225 2162,-184 1962,-184"/>
<text text-anchor="start" x="1970" y="-213" font-family="Helvetica,sans-Serif" font-size="10.00">/home/runner/work/cbmc</text>
<text text-anchor="start" x="1970" y="-202" font-family="Helvetica,sans-Serif" font-size="10.00">&#45;documentation/cbmc&#45;documentation</text>
<text text-anchor="middle" x="2062" y="-191" font-family="Helvetica,sans-Serif" font-size="10.00">/src/goto&#45;programs/link_to_library.cpp</text>
</a>
</g>
</g>
<!-- Node1&#45;&gt;Node11 -->
<g id="edge10" class="edge">
<title>Node1&#45;&gt;Node11</title>
<path fill="none" stroke="midnightblue" d="M1839.07,-264.81C1887.68,-251.88 1944.4,-236.79 1988.47,-225.06"/>
<polygon fill="midnightblue" stroke="midnightblue" points="1837.91,-261.5 1829.14,-267.45 1839.71,-268.26 1837.91,-261.5"/>
</g>
<!-- Node12 -->
<g id="node12" class="node">
<title>Node12</title>
<g id="a_node12"><a xlink:href="slice__global__inits_8cpp.html" target="_top" xlink:title=" ">
<polygon fill="none" stroke="black" points="2180,-178.5 2180,-230.5 2380,-230.5 2380,-178.5 2180,-178.5"/>
<text text-anchor="start" x="2188" y="-218.5" font-family="Helvetica,sans-Serif" font-size="10.00">/home/runner/work/cbmc</text>
<text text-anchor="start" x="2188" y="-207.5" font-family="Helvetica,sans-Serif" font-size="10.00">&#45;documentation/cbmc&#45;documentation</text>
<text text-anchor="start" x="2188" y="-196.5" font-family="Helvetica,sans-Serif" font-size="10.00">/src/goto&#45;programs/slice_global</text>
<text text-anchor="middle" x="2280" y="-185.5" font-family="Helvetica,sans-Serif" font-size="10.00">_inits.cpp</text>
</a>
</g>
</g>
<!-- Node1&#45;&gt;Node12 -->
<g id="edge11" class="edge">
<title>Node1&#45;&gt;Node12</title>
<path fill="none" stroke="midnightblue" d="M1845.47,-279.7C1933.87,-268.78 2060.85,-251.61 2171,-231 2173.96,-230.45 2176.96,-229.87 2179.99,-229.26"/>
<polygon fill="midnightblue" stroke="midnightblue" points="1844.92,-276.24 1835.42,-280.93 1845.77,-283.19 1844.92,-276.24"/>
</g>
<!-- Node13 -->
<g id="node13" class="node">
<title>Node13</title>
<g id="a_node13"><a xlink:href="symtab2gb__parse__options_8cpp.html" target="_top" xlink:title=" ">
<polygon fill="none" stroke="black" points="2398,-178.5 2398,-230.5 2598,-230.5 2598,-178.5 2398,-178.5"/>
<text text-anchor="start" x="2406" y="-218.5" font-family="Helvetica,sans-Serif" font-size="10.00">/home/runner/work/cbmc</text>
<text text-anchor="start" x="2406" y="-207.5" font-family="Helvetica,sans-Serif" font-size="10.00">&#45;documentation/cbmc&#45;documentation</text>
<text text-anchor="start" x="2406" y="-196.5" font-family="Helvetica,sans-Serif" font-size="10.00">/src/symtab2gb/symtab2gb_parse</text>
<text text-anchor="middle" x="2498" y="-185.5" font-family="Helvetica,sans-Serif" font-size="10.00">_options.cpp</text>
</a>
</g>
</g>
<!-- Node1&#45;&gt;Node13 -->
<g id="edge12" class="edge">
<title>Node1&#45;&gt;Node13</title>
<path fill="none" stroke="midnightblue" d="M1845.26,-286.72C1975.74,-278.82 2199.23,-261.97 2389,-231 2391.88,-230.53 2394.79,-230.03 2397.73,-229.5"/>
<polygon fill="midnightblue" stroke="midnightblue" points="1845.03,-283.23 1835.26,-287.32 1845.45,-290.22 1845.03,-283.23"/>
</g>
<!-- Node14 -->
<g id="node14" class="node">
<title>Node14</title>
<g id="a_node14"><a xlink:href="lazy__goto__functions__map_8h.html" target="_top" xlink:title="Author: Diffblue Ltd.">
<polygon fill="none" stroke="black" points="2616,-178.5 2616,-230.5 2816,-230.5 2816,-178.5 2616,-178.5"/>
<text text-anchor="start" x="2624" y="-218.5" font-family="Helvetica,sans-Serif" font-size="10.00">/home/runner/work/cbmc</text>
<text text-anchor="start" x="2624" y="-207.5" font-family="Helvetica,sans-Serif" font-size="10.00">&#45;documentation/cbmc&#45;documentation</text>
<text text-anchor="start" x="2624" y="-196.5" font-family="Helvetica,sans-Serif" font-size="10.00">/jbmc/src/java_bytecode/lazy</text>
<text text-anchor="middle" x="2716" y="-185.5" font-family="Helvetica,sans-Serif" font-size="10.00">_goto_functions_map.h</text>
</a>
</g>
</g>
<!-- Node1&#45;&gt;Node14 -->
<g id="edge13" class="edge">
<title>Node1&#45;&gt;Node14</title>
<path fill="none" stroke="midnightblue" d="M1845.51,-290.34C2011.65,-285.83 2335.27,-272.1 2607,-231 2609.88,-230.56 2612.8,-230.09 2615.74,-229.59"/>
<polygon fill="midnightblue" stroke="midnightblue" points="1845.19,-286.85 1835.29,-290.61 1845.38,-293.85 1845.19,-286.85"/>
</g>
<!-- Node15 -->
<g id="node15" class="node">
<title>Node15</title>
<g id="a_node15"><a xlink:href="lazy__goto__model_8h.html" target="_top" xlink:title="Author: Diffblue Ltd.">
<polygon fill="none" stroke="black" points="2616,-89.5 2616,-141.5 2816,-141.5 2816,-89.5 2616,-89.5"/>
<text text-anchor="start" x="2624" y="-129.5" font-family="Helvetica,sans-Serif" font-size="10.00">/home/runner/work/cbmc</text>
<text text-anchor="start" x="2624" y="-118.5" font-family="Helvetica,sans-Serif" font-size="10.00">&#45;documentation/cbmc&#45;documentation</text>
<text text-anchor="start" x="2624" y="-107.5" font-family="Helvetica,sans-Serif" font-size="10.00">/jbmc/src/java_bytecode/lazy</text>
<text text-anchor="middle" x="2716" y="-96.5" font-family="Helvetica,sans-Serif" font-size="10.00">_goto_model.h</text>
</a>
</g>
</g>
<!-- Node1&#45;&gt;Node15 -->
<g id="edge19" class="edge">
<title>Node1&#45;&gt;Node15</title>
<path fill="none" stroke="midnightblue" d="M1845.57,-290.31C2116.08,-284.41 2791.72,-266.21 2825,-231 2841.18,-213.88 2836.88,-198.34 2825,-178 2815.96,-162.52 2801.43,-150.63 2785.88,-141.63"/>
<polygon fill="midnightblue" stroke="midnightblue" points="1845.26,-286.82 1835.33,-290.53 1845.41,-293.81 1845.26,-286.82"/>
</g>
<!-- Node18 -->
<g id="node18" class="node">
<title>Node18</title>
<g id="a_node18"><a xlink:href="jbmc__parse__options_8cpp.html" target="_top" xlink:title=" ">
<polygon fill="none" stroke="black" points="2834.5,-6 2834.5,-47 3043.5,-47 3043.5,-6 2834.5,-6"/>
<text text-anchor="start" x="2842.5" y="-35" font-family="Helvetica,sans-Serif" font-size="10.00">/home/runner/work/cbmc</text>
<text text-anchor="start" x="2842.5" y="-24" font-family="Helvetica,sans-Serif" font-size="10.00">&#45;documentation/cbmc&#45;documentation</text>
<text text-anchor="middle" x="2939" y="-13" font-family="Helvetica,sans-Serif" font-size="10.00">/jbmc/src/jbmc/jbmc_parse_options.cpp</text>
</a>
</g>
</g>
<!-- Node1&#45;&gt;Node18 -->
<g id="edge20" class="edge">
<title>Node1&#45;&gt;Node18</title>
<path fill="none" stroke="midnightblue" d="M1845.53,-292.76C2110.08,-292.49 2763.77,-286.18 2845,-231 2908.9,-187.59 2930.22,-89.15 2936.57,-47.12"/>
<polygon fill="midnightblue" stroke="midnightblue" points="1845.14,-289.26 1835.14,-292.77 1845.14,-296.26 1845.14,-289.26"/>
</g>
<!-- Node20 -->
<g id="node20" class="node">
<title>Node20</title>
<g id="a_node20"><a xlink:href="get__goto__model__from__c_8cpp.html" target="_top" xlink:title=" ">
<polygon fill="none" stroke="black" points="2910,-178.5 2910,-230.5 3110,-230.5 3110,-178.5 2910,-178.5"/>
<text text-anchor="start" x="2918" y="-218.5" font-family="Helvetica,sans-Serif" font-size="10.00">/home/runner/work/cbmc</text>
<text text-anchor="start" x="2918" y="-207.5" font-family="Helvetica,sans-Serif" font-size="10.00">&#45;documentation/cbmc&#45;documentation</text>
<text text-anchor="start" x="2918" y="-196.5" font-family="Helvetica,sans-Serif" font-size="10.00">/unit/testing&#45;utils/get_goto</text>
<text text-anchor="middle" x="3010" y="-185.5" font-family="Helvetica,sans-Serif" font-size="10.00">_model_from_c.cpp</text>
</a>
</g>
</g>
<!-- Node1&#45;&gt;Node20 -->
<g id="edge21" class="edge">
<title>Node1&#45;&gt;Node20</title>
<path fill="none" stroke="midnightblue" d="M1845.58,-292.77C2052.7,-291.93 2512.78,-283.63 2896,-231 2900.52,-230.38 2905.13,-229.67 2909.77,-228.89"/>
<polygon fill="midnightblue" stroke="midnightblue" points="1845.3,-289.27 1835.31,-292.81 1845.32,-296.27 1845.3,-289.27"/>
</g>
<!-- Node14&#45;&gt;Node15 -->
<g id="edge14" class="edge">
<title>Node14&#45;&gt;Node15</title>
<path fill="none" stroke="midnightblue" d="M2716,-168.19C2716,-159.28 2716,-149.9 2716,-141.61"/>
<polygon fill="midnightblue" stroke="midnightblue" points="2712.5,-168.34 2716,-178.34 2719.5,-168.34 2712.5,-168.34"/>
</g>
<!-- Node16 -->
<g id="node16" class="node">
<title>Node16</title>
<g id="a_node16"><a xlink:href="janalyzer__parse__options_8cpp.html" target="_top" xlink:title=" ">
<polygon fill="none" stroke="black" points="2180,-0.5 2180,-52.5 2380,-52.5 2380,-0.5 2180,-0.5"/>
<text text-anchor="start" x="2188" y="-40.5" font-family="Helvetica,sans-Serif" font-size="10.00">/home/runner/work/cbmc</text>
<text text-anchor="start" x="2188" y="-29.5" font-family="Helvetica,sans-Serif" font-size="10.00">&#45;documentation/cbmc&#45;documentation</text>
<text text-anchor="start" x="2188" y="-18.5" font-family="Helvetica,sans-Serif" font-size="10.00">/jbmc/src/janalyzer/janalyzer</text>
<text text-anchor="middle" x="2280" y="-7.5" font-family="Helvetica,sans-Serif" font-size="10.00">_parse_options.cpp</text>
</a>
</g>
</g>
<!-- Node15&#45;&gt;Node16 -->
<g id="edge15" class="edge">
<title>Node15&#45;&gt;Node16</title>
<path fill="none" stroke="midnightblue" d="M2605.91,-95.04C2542.37,-83.5 2461.03,-68.19 2389,-53 2386.05,-52.38 2383.06,-51.74 2380.05,-51.08"/>
<polygon fill="midnightblue" stroke="midnightblue" points="2605.49,-98.52 2615.95,-96.86 2606.74,-91.63 2605.49,-98.52"/>
</g>
<!-- Node17 -->
<g id="node17" class="node">
<title>Node17</title>
<g id="a_node17"><a xlink:href="lazy__goto__model_8cpp.html" target="_top" xlink:title="Author: Diffblue Ltd.">
<polygon fill="none" stroke="black" points="2398,-0.5 2398,-52.5 2598,-52.5 2598,-0.5 2398,-0.5"/>
<text text-anchor="start" x="2406" y="-40.5" font-family="Helvetica,sans-Serif" font-size="10.00">/home/runner/work/cbmc</text>
<text text-anchor="start" x="2406" y="-29.5" font-family="Helvetica,sans-Serif" font-size="10.00">&#45;documentation/cbmc&#45;documentation</text>
<text text-anchor="start" x="2406" y="-18.5" font-family="Helvetica,sans-Serif" font-size="10.00">/jbmc/src/java_bytecode/lazy</text>
<text text-anchor="middle" x="2498" y="-7.5" font-family="Helvetica,sans-Serif" font-size="10.00">_goto_model.cpp</text>
</a>
</g>
</g>
<!-- Node15&#45;&gt;Node17 -->
<g id="edge16" class="edge">
<title>Node15&#45;&gt;Node17</title>
<path fill="none" stroke="midnightblue" d="M2643.88,-85.72C2616.98,-74.98 2586.68,-62.89 2560.7,-52.52"/>
<polygon fill="midnightblue" stroke="midnightblue" points="2642.65,-89 2653.24,-89.45 2645.25,-82.5 2642.65,-89"/>
</g>
<!-- Node15&#45;&gt;Node18 -->
<g id="edge17" class="edge">
<title>Node15&#45;&gt;Node18</title>
<path fill="none" stroke="midnightblue" d="M2789.66,-85.76C2822.13,-73.09 2859.46,-58.53 2888.67,-47.13"/>
<polygon fill="midnightblue" stroke="midnightblue" points="2788.25,-82.56 2780.2,-89.45 2790.79,-89.08 2788.25,-82.56"/>
</g>
<!-- Node19 -->
<g id="node19" class="node">
<title>Node19</title>
<g id="a_node19"><a xlink:href="load__java__class_8cpp.html" target="_top" xlink:title=" ">
<polygon fill="none" stroke="black" points="2616,-0.5 2616,-52.5 2816,-52.5 2816,-0.5 2616,-0.5"/>
<text text-anchor="start" x="2624" y="-40.5" font-family="Helvetica,sans-Serif" font-size="10.00">/home/runner/work/cbmc</text>
<text text-anchor="start" x="2624" y="-29.5" font-family="Helvetica,sans-Serif" font-size="10.00">&#45;documentation/cbmc&#45;documentation</text>
<text text-anchor="start" x="2624" y="-18.5" font-family="Helvetica,sans-Serif" font-size="10.00">/jbmc/unit/java&#45;testing&#45;utils</text>
<text text-anchor="middle" x="2716" y="-7.5" font-family="Helvetica,sans-Serif" font-size="10.00">/load_java_class.cpp</text>
</a>
</g>
</g>
<!-- Node15&#45;&gt;Node19 -->
<g id="edge18" class="edge">
<title>Node15&#45;&gt;Node19</title>
<path fill="none" stroke="midnightblue" d="M2716,-79.19C2716,-70.28 2716,-60.9 2716,-52.61"/>
<polygon fill="midnightblue" stroke="midnightblue" points="2712.5,-79.34 2716,-89.34 2719.5,-79.34 2712.5,-79.34"/>
</g>
</g>
</svg>
