<?xml version="1.0" encoding="UTF-8" standalone="no"?>
<!DOCTYPE svg PUBLIC "-//W3C//DTD SVG 1.1//EN"
 "http://www.w3.org/Graphics/SVG/1.1/DTD/svg11.dtd">
<!-- Generated by graphviz version 2.43.0 (0)
 -->
<!-- Title: /home/runner/work/cbmc&#45;documentation/cbmc&#45;documentation/src/goto&#45;symex/goto_state.h Pages: 1 -->
<svg width="3068pt" height="796pt"
 viewBox="0.00 0.00 3067.50 796.00" xmlns="http://www.w3.org/2000/svg" xmlns:xlink="http://www.w3.org/1999/xlink">
<g id="graph0" class="graph" transform="scale(1 1) rotate(0) translate(4 792)">
<title>/home/runner/work/cbmc&#45;documentation/cbmc&#45;documentation/src/goto&#45;symex/goto_state.h</title>
<!-- Node1 -->
<g id="node1" class="node">
<title>Node1</title>
<g id="a_node1"><a xlink:title=" ">
<polygon fill="#bfbfbf" stroke="black" points="1464,-746.5 1464,-787.5 1664,-787.5 1664,-746.5 1464,-746.5"/>
<text text-anchor="start" x="1472" y="-775.5" font-family="Helvetica,sans-Serif" font-size="10.00">/home/runner/work/cbmc</text>
<text text-anchor="start" x="1472" y="-764.5" font-family="Helvetica,sans-Serif" font-size="10.00">&#45;documentation/cbmc&#45;documentation</text>
<text text-anchor="middle" x="1564" y="-753.5" font-family="Helvetica,sans-Serif" font-size="10.00">/src/goto&#45;symex/goto_state.h</text>
</a>
</g>
</g>
<!-- Node2 -->
<g id="node2" class="node">
<title>Node2</title>
<g id="a_node2"><a xlink:href="frame_8h.html" target="_top" xlink:title=" ">
<polygon fill="none" stroke="black" points="1464,-668.5 1464,-709.5 1664,-709.5 1664,-668.5 1464,-668.5"/>
<text text-anchor="start" x="1472" y="-697.5" font-family="Helvetica,sans-Serif" font-size="10.00">/home/runner/work/cbmc</text>
<text text-anchor="start" x="1472" y="-686.5" font-family="Helvetica,sans-Serif" font-size="10.00">&#45;documentation/cbmc&#45;documentation</text>
<text text-anchor="middle" x="1564" y="-675.5" font-family="Helvetica,sans-Serif" font-size="10.00">/src/goto&#45;symex/frame.h</text>
</a>
</g>
</g>
<!-- Node1&#45;&gt;Node2 -->
<g id="edge1" class="edge">
<title>Node1&#45;&gt;Node2</title>
<path fill="none" stroke="midnightblue" d="M1564,-736.3C1564,-727.3 1564,-717.65 1564,-709.51"/>
<polygon fill="midnightblue" stroke="midnightblue" points="1560.5,-736.43 1564,-746.43 1567.5,-736.43 1560.5,-736.43"/>
</g>
<!-- Node4 -->
<g id="node4" class="node">
<title>Node4</title>
<g id="a_node4"><a xlink:href="goto__symex__state_8h.html" target="_top" xlink:title=" ">
<polygon fill="none" stroke="black" points="1289,-507 1289,-548 1489,-548 1489,-507 1289,-507"/>
<text text-anchor="start" x="1297" y="-536" font-family="Helvetica,sans-Serif" font-size="10.00">/home/runner/work/cbmc</text>
<text text-anchor="start" x="1297" y="-525" font-family="Helvetica,sans-Serif" font-size="10.00">&#45;documentation/cbmc&#45;documentation</text>
<text text-anchor="middle" x="1389" y="-514" font-family="Helvetica,sans-Serif" font-size="10.00">/src/goto&#45;symex/goto_symex_state.h</text>
</a>
</g>
</g>
<!-- Node1&#45;&gt;Node4 -->
<g id="edge49" class="edge">
<title>Node1&#45;&gt;Node4</title>
<path fill="none" stroke="midnightblue" d="M1497.8,-741.92C1482.15,-733.73 1466.64,-723.21 1455,-710 1412.54,-661.83 1396.67,-584.17 1391.37,-548.09"/>
<polygon fill="midnightblue" stroke="midnightblue" points="1496.5,-745.18 1507.01,-746.48 1499.6,-738.9 1496.5,-745.18"/>
</g>
<!-- Node54 -->
<g id="node19" class="node">
<title>Node54</title>
<g id="a_node19"><a xlink:href="goto__state_8cpp.html" target="_top" xlink:title=" ">
<polygon fill="none" stroke="black" points="1763,-418 1763,-459 1963,-459 1963,-418 1763,-418"/>
<text text-anchor="start" x="1771" y="-447" font-family="Helvetica,sans-Serif" font-size="10.00">/home/runner/work/cbmc</text>
<text text-anchor="start" x="1771" y="-436" font-family="Helvetica,sans-Serif" font-size="10.00">&#45;documentation/cbmc&#45;documentation</text>
<text text-anchor="middle" x="1863" y="-425" font-family="Helvetica,sans-Serif" font-size="10.00">/src/goto&#45;symex/goto_state.cpp</text>
</a>
</g>
</g>
<!-- Node1&#45;&gt;Node54 -->
<g id="edge50" class="edge">
<title>Node1&#45;&gt;Node54</title>
<path fill="none" stroke="midnightblue" d="M1623.45,-741.96C1640.52,-733.4 1658.45,-722.67 1673,-710 1761.07,-633.3 1829.18,-507.61 1853.42,-459.29"/>
<polygon fill="midnightblue" stroke="midnightblue" points="1621.55,-738.99 1614.07,-746.49 1624.6,-745.29 1621.55,-738.99"/>
</g>
<!-- Node3 -->
<g id="node3" class="node">
<title>Node3</title>
<g id="a_node3"><a xlink:href="call__stack_8h.html" target="_top" xlink:title=" ">
<polygon fill="none" stroke="black" points="1464,-590.5 1464,-631.5 1664,-631.5 1664,-590.5 1464,-590.5"/>
<text text-anchor="start" x="1472" y="-619.5" font-family="Helvetica,sans-Serif" font-size="10.00">/home/runner/work/cbmc</text>
<text text-anchor="start" x="1472" y="-608.5" font-family="Helvetica,sans-Serif" font-size="10.00">&#45;documentation/cbmc&#45;documentation</text>
<text text-anchor="middle" x="1564" y="-597.5" font-family="Helvetica,sans-Serif" font-size="10.00">/src/goto&#45;symex/call_stack.h</text>
</a>
</g>
</g>
<!-- Node2&#45;&gt;Node3 -->
<g id="edge2" class="edge">
<title>Node2&#45;&gt;Node3</title>
<path fill="none" stroke="midnightblue" d="M1564,-658.3C1564,-649.3 1564,-639.65 1564,-631.51"/>
<polygon fill="midnightblue" stroke="midnightblue" points="1560.5,-658.43 1564,-668.43 1567.5,-658.43 1560.5,-658.43"/>
</g>
<!-- Node3&#45;&gt;Node4 -->
<g id="edge3" class="edge">
<title>Node3&#45;&gt;Node4</title>
<path fill="none" stroke="midnightblue" d="M1512.75,-586.13C1486.7,-574 1455.46,-559.45 1430.88,-548"/>
<polygon fill="midnightblue" stroke="midnightblue" points="1511.54,-589.43 1522.08,-590.48 1514.5,-583.08 1511.54,-589.43"/>
</g>
<!-- Node65 -->
<g id="node33" class="node">
<title>Node65</title>
<g id="a_node33"><a xlink:href="java__enum__static__init__unwind__handler_8cpp.html" target="_top" xlink:title=" ">
<polygon fill="none" stroke="black" points="1507.5,-501.5 1507.5,-553.5 1712.5,-553.5 1712.5,-501.5 1507.5,-501.5"/>
<text text-anchor="start" x="1515.5" y="-541.5" font-family="Helvetica,sans-Serif" font-size="10.00">/home/runner/work/cbmc</text>
<text text-anchor="start" x="1515.5" y="-530.5" font-family="Helvetica,sans-Serif" font-size="10.00">&#45;documentation/cbmc&#45;documentation</text>
<text text-anchor="start" x="1515.5" y="-519.5" font-family="Helvetica,sans-Serif" font-size="10.00">/jbmc/src/java_bytecode/java</text>
<text text-anchor="middle" x="1610" y="-508.5" font-family="Helvetica,sans-Serif" font-size="10.00">_enum_static_init_unwind_handler.cpp</text>
</a>
</g>
</g>
<!-- Node3&#45;&gt;Node65 -->
<g id="edge48" class="edge">
<title>Node3&#45;&gt;Node65</title>
<path fill="none" stroke="midnightblue" d="M1580.06,-581.55C1585.19,-572.45 1590.84,-562.45 1595.83,-553.61"/>
<polygon fill="midnightblue" stroke="midnightblue" points="1577,-579.84 1575.14,-590.27 1583.1,-583.28 1577,-579.84"/>
</g>
<!-- Node5 -->
<g id="node5" class="node">
<title>Node5</title>
<g id="a_node5"><a xlink:href="symex__complexity__limit__exceeded__action_8h.html" target="_top" xlink:title=" ">
<polygon fill="none" stroke="black" points="1507,-412.5 1507,-464.5 1707,-464.5 1707,-412.5 1507,-412.5"/>
<text text-anchor="start" x="1515" y="-452.5" font-family="Helvetica,sans-Serif" font-size="10.00">/home/runner/work/cbmc</text>
<text text-anchor="start" x="1515" y="-441.5" font-family="Helvetica,sans-Serif" font-size="10.00">&#45;documentation/cbmc&#45;documentation</text>
<text text-anchor="start" x="1515" y="-430.5" font-family="Helvetica,sans-Serif" font-size="10.00">/src/goto&#45;symex/symex_complexity</text>
<text text-anchor="middle" x="1607" y="-419.5" font-family="Helvetica,sans-Serif" font-size="10.00">_limit_exceeded_action.h</text>
</a>
</g>
</g>
<!-- Node4&#45;&gt;Node5 -->
<g id="edge4" class="edge">
<title>Node4&#45;&gt;Node5</title>
<path fill="none" stroke="midnightblue" d="M1447.38,-503.2C1477.25,-491.28 1513.65,-476.75 1544.14,-464.58"/>
<polygon fill="midnightblue" stroke="midnightblue" points="1445.91,-500.02 1437.92,-506.98 1448.51,-506.52 1445.91,-500.02"/>
</g>
<!-- Node52 -->
<g id="node17" class="node">
<title>Node52</title>
<g id="a_node17"><a xlink:href="complexity__limiter_8cpp.html" target="_top" xlink:title=" ">
<polygon fill="none" stroke="black" points="550,-256.5 550,-297.5 760,-297.5 760,-256.5 550,-256.5"/>
<text text-anchor="start" x="558" y="-285.5" font-family="Helvetica,sans-Serif" font-size="10.00">/home/runner/work/cbmc</text>
<text text-anchor="start" x="558" y="-274.5" font-family="Helvetica,sans-Serif" font-size="10.00">&#45;documentation/cbmc&#45;documentation</text>
<text text-anchor="middle" x="655" y="-263.5" font-family="Helvetica,sans-Serif" font-size="10.00">/src/goto&#45;symex/complexity_limiter.cpp</text>
</a>
</g>
</g>
<!-- Node4&#45;&gt;Node52 -->
<g id="edge17" class="edge">
<title>Node4&#45;&gt;Node52</title>
<path fill="none" stroke="midnightblue" d="M1278.8,-525.82C1075.95,-523.41 660.01,-512.66 616,-465 572.46,-417.86 617.02,-335.14 641.38,-297.57"/>
<polygon fill="midnightblue" stroke="midnightblue" points="1278.85,-529.32 1288.89,-525.93 1278.93,-522.32 1278.85,-529.32"/>
</g>
<!-- Node53 -->
<g id="node18" class="node">
<title>Node53</title>
<g id="a_node18"><a xlink:href="field__sensitivity_8cpp.html" target="_top" xlink:title=" ">
<polygon fill="none" stroke="black" points="625,-418 625,-459 825,-459 825,-418 625,-418"/>
<text text-anchor="start" x="633" y="-447" font-family="Helvetica,sans-Serif" font-size="10.00">/home/runner/work/cbmc</text>
<text text-anchor="start" x="633" y="-436" font-family="Helvetica,sans-Serif" font-size="10.00">&#45;documentation/cbmc&#45;documentation</text>
<text text-anchor="middle" x="725" y="-425" font-family="Helvetica,sans-Serif" font-size="10.00">/src/goto&#45;symex/field_sensitivity.cpp</text>
</a>
</g>
</g>
<!-- Node4&#45;&gt;Node53 -->
<g id="edge18" class="edge">
<title>Node4&#45;&gt;Node53</title>
<path fill="none" stroke="midnightblue" d="M1279,-518.21C1166.63,-508.83 987.38,-491.34 834,-465 824.04,-463.29 813.63,-461.22 803.36,-459.01"/>
<polygon fill="midnightblue" stroke="midnightblue" points="1278.74,-521.7 1288.99,-519.04 1279.31,-514.72 1278.74,-521.7"/>
</g>
<!-- Node4&#45;&gt;Node54 -->
<g id="edge19" class="edge">
<title>Node4&#45;&gt;Node54</title>
<path fill="none" stroke="midnightblue" d="M1478.99,-504.8C1485.41,-503.45 1491.8,-502.17 1498,-501 1608.75,-480.14 1638.15,-485.32 1749,-465 1758.77,-463.21 1768.98,-461.17 1779.1,-459.04"/>
<polygon fill="midnightblue" stroke="midnightblue" points="1477.94,-501.45 1468.9,-506.97 1479.41,-508.29 1477.94,-501.45"/>
</g>
<!-- Node55 -->
<g id="node20" class="node">
<title>Node55</title>
<g id="a_node20"><a xlink:href="goto__symex__state_8cpp.html" target="_top" xlink:title=" ">
<polygon fill="none" stroke="black" points="843.5,-418 843.5,-459 1052.5,-459 1052.5,-418 843.5,-418"/>
<text text-anchor="start" x="851.5" y="-447" font-family="Helvetica,sans-Serif" font-size="10.00">/home/runner/work/cbmc</text>
<text text-anchor="start" x="851.5" y="-436" font-family="Helvetica,sans-Serif" font-size="10.00">&#45;documentation/cbmc&#45;documentation</text>
<text text-anchor="middle" x="948" y="-425" font-family="Helvetica,sans-Serif" font-size="10.00">/src/goto&#45;symex/goto_symex_state.cpp</text>
</a>
</g>
</g>
<!-- Node4&#45;&gt;Node55 -->
<g id="edge20" class="edge">
<title>Node4&#45;&gt;Node55</title>
<path fill="none" stroke="midnightblue" d="M1278.61,-506.71C1215.15,-495.09 1133.97,-479.81 1062,-465 1052.86,-463.12 1043.33,-461.09 1033.83,-459.03"/>
<polygon fill="midnightblue" stroke="midnightblue" points="1278.18,-510.19 1288.64,-508.54 1279.44,-503.3 1278.18,-510.19"/>
</g>
<!-- Node56 -->
<g id="node21" class="node">
<title>Node56</title>
<g id="a_node21"><a xlink:href="path__storage_8h.html" target="_top" xlink:title="Storage of symbolic execution paths to resume.">
<polygon fill="none" stroke="black" points="1635,-256.5 1635,-297.5 1835,-297.5 1835,-256.5 1635,-256.5"/>
<text text-anchor="start" x="1643" y="-285.5" font-family="Helvetica,sans-Serif" font-size="10.00">/home/runner/work/cbmc</text>
<text text-anchor="start" x="1643" y="-274.5" font-family="Helvetica,sans-Serif" font-size="10.00">&#45;documentation/cbmc&#45;documentation</text>
<text text-anchor="middle" x="1735" y="-263.5" font-family="Helvetica,sans-Serif" font-size="10.00">/src/goto&#45;symex/path_storage.h</text>
</a>
</g>
</g>
<!-- Node4&#45;&gt;Node56 -->
<g id="edge21" class="edge">
<title>Node4&#45;&gt;Node56</title>
<path fill="none" stroke="midnightblue" d="M1479.6,-504.82C1485.82,-503.48 1492,-502.2 1498,-501 1546.15,-491.4 1682.38,-500.79 1716,-465 1759.23,-418.98 1747.97,-335.69 1739.89,-297.77"/>
<polygon fill="midnightblue" stroke="midnightblue" points="1478.84,-501.41 1469.82,-506.96 1480.34,-508.25 1478.84,-501.41"/>
</g>
<!-- Node63 -->
<g id="node31" class="node">
<title>Node63</title>
<g id="a_node31"><a xlink:href="renaming__level_8cpp.html" target="_top" xlink:title=" ">
<polygon fill="none" stroke="black" points="1071,-418 1071,-459 1271,-459 1271,-418 1071,-418"/>
<text text-anchor="start" x="1079" y="-447" font-family="Helvetica,sans-Serif" font-size="10.00">/home/runner/work/cbmc</text>
<text text-anchor="start" x="1079" y="-436" font-family="Helvetica,sans-Serif" font-size="10.00">&#45;documentation/cbmc&#45;documentation</text>
<text text-anchor="middle" x="1171" y="-425" font-family="Helvetica,sans-Serif" font-size="10.00">/src/goto&#45;symex/renaming_level.cpp</text>
</a>
</g>
</g>
<!-- Node4&#45;&gt;Node63 -->
<g id="edge46" class="edge">
<title>Node4&#45;&gt;Node63</title>
<path fill="none" stroke="midnightblue" d="M1330.59,-503.19C1296.08,-489.42 1252.89,-472.18 1220.14,-459.11"/>
<polygon fill="midnightblue" stroke="midnightblue" points="1329.49,-506.52 1340.08,-506.98 1332.09,-500.02 1329.49,-506.52"/>
</g>
<!-- Node64 -->
<g id="node32" class="node">
<title>Node64</title>
<g id="a_node32"><a xlink:href="symex__assign_8cpp.html" target="_top" xlink:title=" ">
<polygon fill="none" stroke="black" points="1289,-418 1289,-459 1489,-459 1489,-418 1289,-418"/>
<text text-anchor="start" x="1297" y="-447" font-family="Helvetica,sans-Serif" font-size="10.00">/home/runner/work/cbmc</text>
<text text-anchor="start" x="1297" y="-436" font-family="Helvetica,sans-Serif" font-size="10.00">&#45;documentation/cbmc&#45;documentation</text>
<text text-anchor="middle" x="1389" y="-425" font-family="Helvetica,sans-Serif" font-size="10.00">/src/goto&#45;symex/symex_assign.cpp</text>
</a>
</g>
</g>
<!-- Node4&#45;&gt;Node64 -->
<g id="edge47" class="edge">
<title>Node4&#45;&gt;Node64</title>
<path fill="none" stroke="midnightblue" d="M1389,-496.44C1389,-484.1 1389,-470.16 1389,-459.16"/>
<polygon fill="midnightblue" stroke="midnightblue" points="1385.5,-496.76 1389,-506.76 1392.5,-496.76 1385.5,-496.76"/>
</g>
<!-- Node6 -->
<g id="node6" class="node">
<title>Node6</title>
<g id="a_node6"><a xlink:href="complexity__limiter_8h.html" target="_top" xlink:title=" ">
<polygon fill="none" stroke="black" points="893,-334.5 893,-375.5 1093,-375.5 1093,-334.5 893,-334.5"/>
<text text-anchor="start" x="901" y="-363.5" font-family="Helvetica,sans-Serif" font-size="10.00">/home/runner/work/cbmc</text>
<text text-anchor="start" x="901" y="-352.5" font-family="Helvetica,sans-Serif" font-size="10.00">&#45;documentation/cbmc&#45;documentation</text>
<text text-anchor="middle" x="993" y="-341.5" font-family="Helvetica,sans-Serif" font-size="10.00">/src/goto&#45;symex/complexity_limiter.h</text>
</a>
</g>
</g>
<!-- Node5&#45;&gt;Node6 -->
<g id="edge5" class="edge">
<title>Node5&#45;&gt;Node6</title>
<path fill="none" stroke="midnightblue" d="M1496.71,-411.86C1351.17,-387.32 1193.1,-371.91 1093.14,-363.56"/>
<polygon fill="midnightblue" stroke="midnightblue" points="1496.27,-415.33 1506.72,-413.56 1497.45,-408.43 1496.27,-415.33"/>
</g>
<!-- Node7 -->
<g id="node7" class="node">
<title>Node7</title>
<g id="a_node7"><a xlink:href="goto__symex_8h.html" target="_top" xlink:title=" ">
<polygon fill="none" stroke="red" points="893,-256.5 893,-297.5 1093,-297.5 1093,-256.5 893,-256.5"/>
<text text-anchor="start" x="901" y="-285.5" font-family="Helvetica,sans-Serif" font-size="10.00">/home/runner/work/cbmc</text>
<text text-anchor="start" x="901" y="-274.5" font-family="Helvetica,sans-Serif" font-size="10.00">&#45;documentation/cbmc&#45;documentation</text>
<text text-anchor="middle" x="993" y="-263.5" font-family="Helvetica,sans-Serif" font-size="10.00">/src/goto&#45;symex/goto_symex.h</text>
</a>
</g>
</g>
<!-- Node6&#45;&gt;Node7 -->
<g id="edge6" class="edge">
<title>Node6&#45;&gt;Node7</title>
<path fill="none" stroke="midnightblue" d="M993,-324.3C993,-315.3 993,-305.65 993,-297.51"/>
<polygon fill="midnightblue" stroke="midnightblue" points="989.5,-324.43 993,-334.43 996.5,-324.43 989.5,-324.43"/>
</g>
<!-- Node6&#45;&gt;Node52 -->
<g id="edge16" class="edge">
<title>Node6&#45;&gt;Node52</title>
<path fill="none" stroke="midnightblue" d="M896.05,-332.2C847.38,-321.26 788.91,-308.11 741.75,-297.51"/>
<polygon fill="midnightblue" stroke="midnightblue" points="895.43,-335.65 905.96,-334.43 896.97,-328.82 895.43,-335.65"/>
</g>
<!-- Node27 -->
<g id="node8" class="node">
<title>Node27</title>
<g id="a_node8"><a xlink:href="scratch__program_8h.html" target="_top" xlink:title=" ">
<polygon fill="none" stroke="red" points="452,-167.5 452,-219.5 652,-219.5 652,-167.5 452,-167.5"/>
<text text-anchor="start" x="460" y="-207.5" font-family="Helvetica,sans-Serif" font-size="10.00">/home/runner/work/cbmc</text>
<text text-anchor="start" x="460" y="-196.5" font-family="Helvetica,sans-Serif" font-size="10.00">&#45;documentation/cbmc&#45;documentation</text>
<text text-anchor="start" x="460" y="-185.5" font-family="Helvetica,sans-Serif" font-size="10.00">/src/goto&#45;instrument/accelerate</text>
<text text-anchor="middle" x="552" y="-174.5" font-family="Helvetica,sans-Serif" font-size="10.00">/scratch_program.h</text>
</a>
</g>
</g>
<!-- Node7&#45;&gt;Node27 -->
<g id="edge7" class="edge">
<title>Node7&#45;&gt;Node27</title>
<path fill="none" stroke="midnightblue" d="M882.59,-259.16C817.85,-248.83 734.57,-234.8 661,-220 658.05,-219.41 655.05,-218.79 652.03,-218.16"/>
<polygon fill="midnightblue" stroke="midnightblue" points="882.39,-262.67 892.82,-260.78 883.49,-255.75 882.39,-262.67"/>
</g>
<!-- Node37 -->
<g id="node9" class="node">
<title>Node37</title>
<g id="a_node9"><a xlink:href="symex__builtin__functions_8cpp.html" target="_top" xlink:title=" ">
<polygon fill="none" stroke="black" points="670,-167.5 670,-219.5 870,-219.5 870,-167.5 670,-167.5"/>
<text text-anchor="start" x="678" y="-207.5" font-family="Helvetica,sans-Serif" font-size="10.00">/home/runner/work/cbmc</text>
<text text-anchor="start" x="678" y="-196.5" font-family="Helvetica,sans-Serif" font-size="10.00">&#45;documentation/cbmc&#45;documentation</text>
<text text-anchor="start" x="678" y="-185.5" font-family="Helvetica,sans-Serif" font-size="10.00">/src/goto&#45;symex/symex_builtin</text>
<text text-anchor="middle" x="770" y="-174.5" font-family="Helvetica,sans-Serif" font-size="10.00">_functions.cpp</text>
</a>
</g>
</g>
<!-- Node7&#45;&gt;Node37 -->
<g id="edge8" class="edge">
<title>Node7&#45;&gt;Node37</title>
<path fill="none" stroke="midnightblue" d="M930.13,-253.02C901.6,-242.6 867.8,-230.24 838.61,-219.58"/>
<polygon fill="midnightblue" stroke="midnightblue" points="928.99,-256.33 939.59,-256.48 931.39,-249.76 928.99,-256.33"/>
</g>
<!-- Node39 -->
<g id="node10" class="node">
<title>Node39</title>
<g id="a_node10"><a xlink:href="symex__clean__expr_8cpp.html" target="_top" xlink:title=" ">
<polygon fill="none" stroke="black" points="888.5,-173 888.5,-214 1097.5,-214 1097.5,-173 888.5,-173"/>
<text text-anchor="start" x="896.5" y="-202" font-family="Helvetica,sans-Serif" font-size="10.00">/home/runner/work/cbmc</text>
<text text-anchor="start" x="896.5" y="-191" font-family="Helvetica,sans-Serif" font-size="10.00">&#45;documentation/cbmc&#45;documentation</text>
<text text-anchor="middle" x="993" y="-180" font-family="Helvetica,sans-Serif" font-size="10.00">/src/goto&#45;symex/symex_clean_expr.cpp</text>
</a>
</g>
</g>
<!-- Node7&#45;&gt;Node39 -->
<g id="edge9" class="edge">
<title>Node7&#45;&gt;Node39</title>
<path fill="none" stroke="midnightblue" d="M993,-246.06C993,-235.38 993,-223.63 993,-214.05"/>
<polygon fill="midnightblue" stroke="midnightblue" points="989.5,-246.27 993,-256.27 996.5,-246.27 989.5,-246.27"/>
</g>
<!-- Node44 -->
<g id="node11" class="node">
<title>Node44</title>
<g id="a_node11"><a xlink:href="symex__decl_8cpp.html" target="_top" xlink:title=" ">
<polygon fill="none" stroke="black" points="1116,-173 1116,-214 1316,-214 1316,-173 1116,-173"/>
<text text-anchor="start" x="1124" y="-202" font-family="Helvetica,sans-Serif" font-size="10.00">/home/runner/work/cbmc</text>
<text text-anchor="start" x="1124" y="-191" font-family="Helvetica,sans-Serif" font-size="10.00">&#45;documentation/cbmc&#45;documentation</text>
<text text-anchor="middle" x="1216" y="-180" font-family="Helvetica,sans-Serif" font-size="10.00">/src/goto&#45;symex/symex_decl.cpp</text>
</a>
</g>
</g>
<!-- Node7&#45;&gt;Node44 -->
<g id="edge10" class="edge">
<title>Node7&#45;&gt;Node44</title>
<path fill="none" stroke="midnightblue" d="M1056.14,-252.92C1089.75,-240.64 1130.63,-225.7 1162.64,-214"/>
<polygon fill="midnightblue" stroke="midnightblue" points="1054.61,-249.76 1046.41,-256.48 1057.01,-256.33 1054.61,-249.76"/>
</g>
<!-- Node41 -->
<g id="node12" class="node">
<title>Node41</title>
<g id="a_node12"><a xlink:href="symex__dereference_8cpp.html" target="_top" xlink:title=" ">
<polygon fill="none" stroke="black" points="1334.5,-173 1334.5,-214 1549.5,-214 1549.5,-173 1334.5,-173"/>
<text text-anchor="start" x="1342.5" y="-202" font-family="Helvetica,sans-Serif" font-size="10.00">/home/runner/work/cbmc</text>
<text text-anchor="start" x="1342.5" y="-191" font-family="Helvetica,sans-Serif" font-size="10.00">&#45;documentation/cbmc&#45;documentation</text>
<text text-anchor="middle" x="1442" y="-180" font-family="Helvetica,sans-Serif" font-size="10.00">/src/goto&#45;symex/symex_dereference.cpp</text>
</a>
</g>
</g>
<!-- Node7&#45;&gt;Node41 -->
<g id="edge11" class="edge">
<title>Node7&#45;&gt;Node41</title>
<path fill="none" stroke="midnightblue" d="M1103.33,-258.74C1168.04,-248.28 1251.32,-234.24 1325,-220 1334.59,-218.15 1344.61,-216.11 1354.57,-214.03"/>
<polygon fill="midnightblue" stroke="midnightblue" points="1102.42,-255.34 1093.1,-260.39 1103.53,-262.25 1102.42,-255.34"/>
</g>
<!-- Node45 -->
<g id="node13" class="node">
<title>Node45</title>
<g id="a_node13"><a xlink:href="symex__function__call_8cpp.html" target="_top" xlink:title=" ">
<polygon fill="none" stroke="black" points="1567.5,-173 1567.5,-214 1786.5,-214 1786.5,-173 1567.5,-173"/>
<text text-anchor="start" x="1575.5" y="-202" font-family="Helvetica,sans-Serif" font-size="10.00">/home/runner/work/cbmc</text>
<text text-anchor="start" x="1575.5" y="-191" font-family="Helvetica,sans-Serif" font-size="10.00">&#45;documentation/cbmc&#45;documentation</text>
<text text-anchor="middle" x="1677" y="-180" font-family="Helvetica,sans-Serif" font-size="10.00">/src/goto&#45;symex/symex_function_call.cpp</text>
</a>
</g>
</g>
<!-- Node7&#45;&gt;Node45 -->
<g id="edge12" class="edge">
<title>Node7&#45;&gt;Node45</title>
<path fill="none" stroke="midnightblue" d="M1103.35,-268.75C1217.57,-260.38 1400.95,-244.53 1558,-220 1568.86,-218.3 1580.21,-216.25 1591.41,-214.04"/>
<polygon fill="midnightblue" stroke="midnightblue" points="1102.91,-265.27 1093.19,-269.48 1103.42,-272.25 1102.91,-265.27"/>
</g>
<!-- Node46 -->
<g id="node14" class="node">
<title>Node46</title>
<g id="a_node14"><a xlink:href="symex__goto_8cpp.html" target="_top" xlink:title=" ">
<polygon fill="none" stroke="black" points="1805,-173 1805,-214 2005,-214 2005,-173 1805,-173"/>
<text text-anchor="start" x="1813" y="-202" font-family="Helvetica,sans-Serif" font-size="10.00">/home/runner/work/cbmc</text>
<text text-anchor="start" x="1813" y="-191" font-family="Helvetica,sans-Serif" font-size="10.00">&#45;documentation/cbmc&#45;documentation</text>
<text text-anchor="middle" x="1905" y="-180" font-family="Helvetica,sans-Serif" font-size="10.00">/src/goto&#45;symex/symex_goto.cpp</text>
</a>
</g>
</g>
<!-- Node7&#45;&gt;Node46 -->
<g id="edge13" class="edge">
<title>Node7&#45;&gt;Node46</title>
<path fill="none" stroke="midnightblue" d="M1103.11,-273.89C1258.4,-269.66 1550.24,-257.07 1796,-220 1806.57,-218.41 1817.63,-216.32 1828.48,-214.03"/>
<polygon fill="midnightblue" stroke="midnightblue" points="1102.99,-270.4 1093.08,-274.16 1103.17,-277.39 1102.99,-270.4"/>
</g>
<!-- Node47 -->
<g id="node15" class="node">
<title>Node47</title>
<g id="a_node15"><a xlink:href="symex__main_8cpp.html" target="_top" xlink:title=" ">
<polygon fill="none" stroke="black" points="0,-173 0,-214 200,-214 200,-173 0,-173"/>
<text text-anchor="start" x="8" y="-202" font-family="Helvetica,sans-Serif" font-size="10.00">/home/runner/work/cbmc</text>
<text text-anchor="start" x="8" y="-191" font-family="Helvetica,sans-Serif" font-size="10.00">&#45;documentation/cbmc&#45;documentation</text>
<text text-anchor="middle" x="100" y="-180" font-family="Helvetica,sans-Serif" font-size="10.00">/src/goto&#45;symex/symex_main.cpp</text>
</a>
</g>
</g>
<!-- Node7&#45;&gt;Node47 -->
<g id="edge14" class="edge">
<title>Node7&#45;&gt;Node47</title>
<path fill="none" stroke="midnightblue" d="M882.86,-265.62C846.61,-262.35 806.1,-258.85 769,-256 520.33,-236.91 455.71,-256.53 209,-220 198.33,-218.42 187.16,-216.33 176.22,-214.02"/>
<polygon fill="midnightblue" stroke="midnightblue" points="882.69,-269.12 892.97,-266.53 883.32,-262.14 882.69,-269.12"/>
</g>
<!-- Node50 -->
<g id="node16" class="node">
<title>Node50</title>
<g id="a_node16"><a xlink:href="symex__start__thread_8cpp.html" target="_top" xlink:title=" ">
<polygon fill="none" stroke="black" points="218,-173 218,-214 434,-214 434,-173 218,-173"/>
<text text-anchor="start" x="226" y="-202" font-family="Helvetica,sans-Serif" font-size="10.00">/home/runner/work/cbmc</text>
<text text-anchor="start" x="226" y="-191" font-family="Helvetica,sans-Serif" font-size="10.00">&#45;documentation/cbmc&#45;documentation</text>
<text text-anchor="middle" x="326" y="-180" font-family="Helvetica,sans-Serif" font-size="10.00">/src/goto&#45;symex/symex_start_thread.cpp</text>
</a>
</g>
</g>
<!-- Node7&#45;&gt;Node50 -->
<g id="edge15" class="edge">
<title>Node7&#45;&gt;Node50</title>
<path fill="none" stroke="midnightblue" d="M882.72,-266.26C747.14,-254.03 524.95,-233.06 443,-220 432.32,-218.3 421.16,-216.24 410.14,-214.03"/>
<polygon fill="midnightblue" stroke="midnightblue" points="882.46,-269.75 892.73,-267.16 883.08,-262.78 882.46,-269.75"/>
</g>
<!-- Node56&#45;&gt;Node27 -->
<g id="edge35" class="edge">
<title>Node56&#45;&gt;Node27</title>
<path fill="none" stroke="midnightblue" d="M1624.29,-272.73C1388.73,-265.35 844.4,-246.02 661,-220 658.11,-219.59 655.19,-219.14 652.25,-218.66"/>
<polygon fill="midnightblue" stroke="midnightblue" points="1624.49,-276.23 1634.59,-273.05 1624.71,-269.24 1624.49,-276.23"/>
</g>
<!-- Node56&#45;&gt;Node37 -->
<g id="edge37" class="edge">
<title>Node56&#45;&gt;Node37</title>
<path fill="none" stroke="midnightblue" d="M1624.86,-274.57C1461.28,-271.15 1144.85,-259.52 879,-220 876.12,-219.57 873.2,-219.11 870.25,-218.61"/>
<polygon fill="midnightblue" stroke="midnightblue" points="1624.86,-278.07 1634.93,-274.78 1625,-271.07 1624.86,-278.07"/>
</g>
<!-- Node56&#45;&gt;Node39 -->
<g id="edge38" class="edge">
<title>Node56&#45;&gt;Node39</title>
<path fill="none" stroke="midnightblue" d="M1624.96,-270.57C1499.16,-263.34 1287.33,-248.09 1107,-220 1096.38,-218.35 1085.27,-216.28 1074.33,-214.05"/>
<polygon fill="midnightblue" stroke="midnightblue" points="1624.81,-274.06 1634.99,-271.14 1625.2,-267.07 1624.81,-274.06"/>
</g>
<!-- Node56&#45;&gt;Node44 -->
<g id="edge39" class="edge">
<title>Node56&#45;&gt;Node44</title>
<path fill="none" stroke="midnightblue" d="M1624.56,-263.77C1541.78,-253.91 1425.88,-238.65 1325,-220 1315.44,-218.23 1305.46,-216.18 1295.59,-214.03"/>
<polygon fill="midnightblue" stroke="midnightblue" points="1624.4,-267.28 1634.74,-264.98 1625.22,-260.33 1624.4,-267.28"/>
</g>
<!-- Node56&#45;&gt;Node41 -->
<g id="edge40" class="edge">
<title>Node56&#45;&gt;Node41</title>
<path fill="none" stroke="midnightblue" d="M1655.15,-253.79C1610.42,-241.35 1555.16,-225.98 1512.12,-214"/>
<polygon fill="midnightblue" stroke="midnightblue" points="1654.25,-257.17 1664.82,-256.48 1656.12,-250.43 1654.25,-257.17"/>
</g>
<!-- Node56&#45;&gt;Node45 -->
<g id="edge41" class="edge">
<title>Node56&#45;&gt;Node45</title>
<path fill="none" stroke="midnightblue" d="M1715.11,-248.05C1707.15,-236.86 1698.16,-224.23 1690.91,-214.05"/>
<polygon fill="midnightblue" stroke="midnightblue" points="1712.31,-250.15 1720.96,-256.27 1718.01,-246.09 1712.31,-250.15"/>
</g>
<!-- Node56&#45;&gt;Node46 -->
<g id="edge42" class="edge">
<title>Node56&#45;&gt;Node46</title>
<path fill="none" stroke="midnightblue" d="M1784.79,-252.13C1810.09,-240 1840.44,-225.45 1864.32,-214"/>
<polygon fill="midnightblue" stroke="midnightblue" points="1783.22,-249 1775.72,-256.48 1786.25,-255.31 1783.22,-249"/>
</g>
<!-- Node56&#45;&gt;Node47 -->
<g id="edge43" class="edge">
<title>Node56&#45;&gt;Node47</title>
<path fill="none" stroke="midnightblue" d="M1624.91,-272.54C1286.3,-261.83 278.87,-229.37 209,-220 197.92,-218.52 186.32,-216.41 175,-214.04"/>
<polygon fill="midnightblue" stroke="midnightblue" points="1624.87,-276.04 1634.97,-272.86 1625.09,-269.05 1624.87,-276.04"/>
</g>
<!-- Node56&#45;&gt;Node50 -->
<g id="edge44" class="edge">
<title>Node56&#45;&gt;Node50</title>
<path fill="none" stroke="midnightblue" d="M1624.75,-272.31C1333.57,-262.39 558.35,-234.96 443,-220 431.25,-218.48 418.93,-216.37 406.88,-214.01"/>
<polygon fill="midnightblue" stroke="midnightblue" points="1624.79,-275.81 1634.91,-272.65 1625.03,-268.81 1624.79,-275.81"/>
</g>
<!-- Node11 -->
<g id="node22" class="node">
<title>Node11</title>
<g id="a_node22"><a xlink:href="cbmc__parse__options_8cpp.html" target="_top" xlink:title=" ">
<polygon fill="none" stroke="black" points="2099,-0.5 2099,-41.5 2299,-41.5 2299,-0.5 2099,-0.5"/>
<text text-anchor="start" x="2107" y="-29.5" font-family="Helvetica,sans-Serif" font-size="10.00">/home/runner/work/cbmc</text>
<text text-anchor="start" x="2107" y="-18.5" font-family="Helvetica,sans-Serif" font-size="10.00">&#45;documentation/cbmc&#45;documentation</text>
<text text-anchor="middle" x="2199" y="-7.5" font-family="Helvetica,sans-Serif" font-size="10.00">/src/cbmc/cbmc_parse_options.cpp</text>
</a>
</g>
</g>
<!-- Node56&#45;&gt;Node11 -->
<g id="edge22" class="edge">
<title>Node56&#45;&gt;Node11</title>
<path fill="none" stroke="midnightblue" d="M1845.28,-266.22C1917.49,-257.78 2003.57,-243.22 2032,-220 2084.81,-176.89 2043.93,-128.25 2090,-78 2104.38,-62.32 2124.15,-50.34 2142.92,-41.57"/>
<polygon fill="midnightblue" stroke="midnightblue" points="1844.73,-262.76 1835.19,-267.37 1845.52,-269.71 1844.73,-262.76"/>
</g>
<!-- Node10 -->
<g id="node23" class="node">
<title>Node10</title>
<g id="a_node23"><a xlink:href="multi__path__symex__only__checker_8h.html" target="_top" xlink:title=" ">
<polygon fill="none" stroke="red" points="2099,-78.5 2099,-130.5 2299,-130.5 2299,-78.5 2099,-78.5"/>
<text text-anchor="start" x="2107" y="-118.5" font-family="Helvetica,sans-Serif" font-size="10.00">/home/runner/work/cbmc</text>
<text text-anchor="start" x="2107" y="-107.5" font-family="Helvetica,sans-Serif" font-size="10.00">&#45;documentation/cbmc&#45;documentation</text>
<text text-anchor="start" x="2107" y="-96.5" font-family="Helvetica,sans-Serif" font-size="10.00">/src/goto&#45;checker/multi_path</text>
<text text-anchor="middle" x="2199" y="-85.5" font-family="Helvetica,sans-Serif" font-size="10.00">_symex_only_checker.h</text>
</a>
</g>
</g>
<!-- Node56&#45;&gt;Node10 -->
<g id="edge23" class="edge">
<title>Node56&#45;&gt;Node10</title>
<path fill="none" stroke="midnightblue" d="M1845.19,-266.38C1931.87,-257.35 2044.54,-241.93 2085,-220 2112.94,-204.85 2110.69,-189.63 2133,-167 2145.1,-154.73 2158.98,-141.65 2170.89,-130.72"/>
<polygon fill="midnightblue" stroke="midnightblue" points="1844.61,-262.93 1835.02,-267.43 1845.33,-269.89 1844.61,-262.93"/>
</g>
<!-- Node20 -->
<g id="node24" class="node">
<title>Node20</title>
<g id="a_node24"><a xlink:href="single__loop__incremental__symex__checker_8h.html" target="_top" xlink:title=" ">
<polygon fill="none" stroke="red" points="1843,-78.5 1843,-130.5 2043,-130.5 2043,-78.5 1843,-78.5"/>
<text text-anchor="start" x="1851" y="-118.5" font-family="Helvetica,sans-Serif" font-size="10.00">/home/runner/work/cbmc</text>
<text text-anchor="start" x="1851" y="-107.5" font-family="Helvetica,sans-Serif" font-size="10.00">&#45;documentation/cbmc&#45;documentation</text>
<text text-anchor="start" x="1851" y="-96.5" font-family="Helvetica,sans-Serif" font-size="10.00">/src/goto&#45;checker/single_loop</text>
<text text-anchor="middle" x="1943" y="-85.5" font-family="Helvetica,sans-Serif" font-size="10.00">_incremental_symex_checker.h</text>
</a>
</g>
</g>
<!-- Node56&#45;&gt;Node20 -->
<g id="edge25" class="edge">
<title>Node56&#45;&gt;Node20</title>
<path fill="none" stroke="midnightblue" d="M1845.18,-268C1913.6,-260.48 1992.48,-246.27 2014,-220 2028.93,-201.78 2023.79,-188.43 2014,-167 2007.43,-152.61 1995.64,-140.3 1983.54,-130.55"/>
<polygon fill="midnightblue" stroke="midnightblue" points="1844.74,-264.53 1835.17,-269.06 1845.48,-271.49 1844.74,-264.53"/>
</g>
<!-- Node57 -->
<g id="node25" class="node">
<title>Node57</title>
<g id="a_node25"><a xlink:href="single__path__symex__only__checker_8h.html" target="_top" xlink:title=" ">
<polygon fill="none" stroke="black" points="2445,-167.5 2445,-219.5 2645,-219.5 2645,-167.5 2445,-167.5"/>
<text text-anchor="start" x="2453" y="-207.5" font-family="Helvetica,sans-Serif" font-size="10.00">/home/runner/work/cbmc</text>
<text text-anchor="start" x="2453" y="-196.5" font-family="Helvetica,sans-Serif" font-size="10.00">&#45;documentation/cbmc&#45;documentation</text>
<text text-anchor="start" x="2453" y="-185.5" font-family="Helvetica,sans-Serif" font-size="10.00">/src/goto&#45;checker/single_path</text>
<text text-anchor="middle" x="2545" y="-174.5" font-family="Helvetica,sans-Serif" font-size="10.00">_symex_only_checker.h</text>
</a>
</g>
</g>
<!-- Node56&#45;&gt;Node57 -->
<g id="edge27" class="edge">
<title>Node56&#45;&gt;Node57</title>
<path fill="none" stroke="midnightblue" d="M1845.32,-268.88C1974.65,-259.97 2195.33,-243.05 2384,-220 2403.66,-217.6 2424.61,-214.6 2444.67,-211.52"/>
<polygon fill="midnightblue" stroke="midnightblue" points="1844.75,-265.41 1835.01,-269.58 1845.23,-272.39 1844.75,-265.41"/>
</g>
<!-- Node24 -->
<g id="node27" class="node">
<title>Node24</title>
<g id="a_node27"><a xlink:href="single__path__symex__only__checker_8cpp.html" target="_top" xlink:title=" ">
<polygon fill="none" stroke="black" points="2317,-78.5 2317,-130.5 2517,-130.5 2517,-78.5 2317,-78.5"/>
<text text-anchor="start" x="2325" y="-118.5" font-family="Helvetica,sans-Serif" font-size="10.00">/home/runner/work/cbmc</text>
<text text-anchor="start" x="2325" y="-107.5" font-family="Helvetica,sans-Serif" font-size="10.00">&#45;documentation/cbmc&#45;documentation</text>
<text text-anchor="start" x="2325" y="-96.5" font-family="Helvetica,sans-Serif" font-size="10.00">/src/goto&#45;checker/single_path</text>
<text text-anchor="middle" x="2417" y="-85.5" font-family="Helvetica,sans-Serif" font-size="10.00">_symex_only_checker.cpp</text>
</a>
</g>
</g>
<!-- Node56&#45;&gt;Node24 -->
<g id="edge34" class="edge">
<title>Node56&#45;&gt;Node24</title>
<path fill="none" stroke="midnightblue" d="M1845.26,-269.03C1942.89,-261.26 2076.84,-246.2 2123,-220 2149.38,-205.03 2140.38,-183.23 2166,-167 2169.41,-164.84 2248.4,-145.65 2316.87,-129.27"/>
<polygon fill="midnightblue" stroke="midnightblue" points="1844.74,-265.56 1835.04,-269.83 1845.28,-272.54 1844.74,-265.56"/>
</g>
<!-- Node16 -->
<g id="node29" class="node">
<title>Node16</title>
<g id="a_node29"><a xlink:href="jbmc__parse__options_8cpp.html" target="_top" xlink:title=" ">
<polygon fill="none" stroke="black" points="2850.5,-0.5 2850.5,-41.5 3059.5,-41.5 3059.5,-0.5 2850.5,-0.5"/>
<text text-anchor="start" x="2858.5" y="-29.5" font-family="Helvetica,sans-Serif" font-size="10.00">/home/runner/work/cbmc</text>
<text text-anchor="start" x="2858.5" y="-18.5" font-family="Helvetica,sans-Serif" font-size="10.00">&#45;documentation/cbmc&#45;documentation</text>
<text text-anchor="middle" x="2955" y="-7.5" font-family="Helvetica,sans-Serif" font-size="10.00">/jbmc/src/jbmc/jbmc_parse_options.cpp</text>
</a>
</g>
</g>
<!-- Node56&#45;&gt;Node16 -->
<g id="edge45" class="edge">
<title>Node56&#45;&gt;Node16</title>
<path fill="none" stroke="midnightblue" d="M1845.44,-276.05C2018.75,-274.61 2364.7,-265.59 2654,-220 2810.85,-195.28 2902.71,-256.49 3000,-131 3014.43,-112.38 3007.82,-100.22 3000,-78 2995.2,-64.35 2985.51,-51.58 2976.34,-41.68"/>
<polygon fill="midnightblue" stroke="midnightblue" points="1845.26,-272.55 1835.29,-276.13 1845.31,-279.55 1845.26,-272.55"/>
</g>
<!-- Node62 -->
<g id="node30" class="node">
<title>Node62</title>
<g id="a_node30"><a xlink:href="path__storage_8cpp.html" target="_top" xlink:title=" ">
<polygon fill="none" stroke="black" points="2175,-173 2175,-214 2375,-214 2375,-173 2175,-173"/>
<text text-anchor="start" x="2183" y="-202" font-family="Helvetica,sans-Serif" font-size="10.00">/home/runner/work/cbmc</text>
<text text-anchor="start" x="2183" y="-191" font-family="Helvetica,sans-Serif" font-size="10.00">&#45;documentation/cbmc&#45;documentation</text>
<text text-anchor="middle" x="2275" y="-180" font-family="Helvetica,sans-Serif" font-size="10.00">/src/goto&#45;symex/path_storage.cpp</text>
</a>
</g>
</g>
<!-- Node56&#45;&gt;Node62 -->
<g id="edge36" class="edge">
<title>Node56&#45;&gt;Node62</title>
<path fill="none" stroke="midnightblue" d="M1845.3,-264.24C1931.55,-254.39 2054.31,-238.91 2161,-220 2170.98,-218.23 2181.42,-216.18 2191.74,-214.02"/>
<polygon fill="midnightblue" stroke="midnightblue" points="1844.77,-260.78 1835.23,-265.38 1845.56,-267.73 1844.77,-260.78"/>
</g>
<!-- Node10&#45;&gt;Node11 -->
<g id="edge24" class="edge">
<title>Node10&#45;&gt;Node11</title>
<path fill="none" stroke="midnightblue" d="M2199,-68.15C2199,-59.05 2199,-49.6 2199,-41.63"/>
<polygon fill="midnightblue" stroke="midnightblue" points="2195.5,-68.16 2199,-78.16 2202.5,-68.16 2195.5,-68.16"/>
</g>
<!-- Node20&#45;&gt;Node11 -->
<g id="edge26" class="edge">
<title>Node20&#45;&gt;Node11</title>
<path fill="none" stroke="midnightblue" d="M2031.31,-75.39C2066.37,-64.22 2105.84,-51.66 2137.67,-41.52"/>
<polygon fill="midnightblue" stroke="midnightblue" points="2030.02,-72.12 2021.55,-78.49 2032.14,-78.79 2030.02,-72.12"/>
</g>
<!-- Node57&#45;&gt;Node11 -->
<g id="edge28" class="edge">
<title>Node57&#45;&gt;Node11</title>
<path fill="none" stroke="midnightblue" d="M2549.04,-157.35C2549.88,-131.88 2546.36,-98.47 2526,-78 2494.82,-46.66 2383.47,-32.77 2299.29,-26.67"/>
<polygon fill="midnightblue" stroke="midnightblue" points="2545.54,-157.18 2548.47,-167.37 2552.53,-157.58 2545.54,-157.18"/>
</g>
<!-- Node58 -->
<g id="node26" class="node">
<title>Node58</title>
<g id="a_node26"><a xlink:href="single__path__symex__checker_8h.html" target="_top" xlink:title=" ">
<polygon fill="none" stroke="red" points="2573,-78.5 2573,-130.5 2773,-130.5 2773,-78.5 2573,-78.5"/>
<text text-anchor="start" x="2581" y="-118.5" font-family="Helvetica,sans-Serif" font-size="10.00">/home/runner/work/cbmc</text>
<text text-anchor="start" x="2581" y="-107.5" font-family="Helvetica,sans-Serif" font-size="10.00">&#45;documentation/cbmc&#45;documentation</text>
<text text-anchor="start" x="2581" y="-96.5" font-family="Helvetica,sans-Serif" font-size="10.00">/src/goto&#45;checker/single_path</text>
<text text-anchor="middle" x="2673" y="-85.5" font-family="Helvetica,sans-Serif" font-size="10.00">_symex_checker.h</text>
</a>
</g>
</g>
<!-- Node57&#45;&gt;Node58 -->
<g id="edge29" class="edge">
<title>Node57&#45;&gt;Node58</title>
<path fill="none" stroke="midnightblue" d="M2590.6,-161.5C2605.51,-151.37 2621.87,-140.25 2636.06,-130.61"/>
<polygon fill="midnightblue" stroke="midnightblue" points="2588.33,-158.82 2582.02,-167.34 2592.26,-164.61 2588.33,-158.82"/>
</g>
<!-- Node57&#45;&gt;Node24 -->
<g id="edge31" class="edge">
<title>Node57&#45;&gt;Node24</title>
<path fill="none" stroke="midnightblue" d="M2499.4,-161.5C2484.49,-151.37 2468.13,-140.25 2453.94,-130.61"/>
<polygon fill="midnightblue" stroke="midnightblue" points="2497.74,-164.61 2507.98,-167.34 2501.67,-158.82 2497.74,-164.61"/>
</g>
<!-- Node61 -->
<g id="node28" class="node">
<title>Node61</title>
<g id="a_node28"><a xlink:href="java__single__path__symex__only__checker_8h.html" target="_top" xlink:title=" ">
<polygon fill="none" stroke="black" points="2791,-78.5 2791,-130.5 2991,-130.5 2991,-78.5 2791,-78.5"/>
<text text-anchor="start" x="2799" y="-118.5" font-family="Helvetica,sans-Serif" font-size="10.00">/home/runner/work/cbmc</text>
<text text-anchor="start" x="2799" y="-107.5" font-family="Helvetica,sans-Serif" font-size="10.00">&#45;documentation/cbmc&#45;documentation</text>
<text text-anchor="start" x="2799" y="-96.5" font-family="Helvetica,sans-Serif" font-size="10.00">/jbmc/src/java_bytecode/java</text>
<text text-anchor="middle" x="2891" y="-85.5" font-family="Helvetica,sans-Serif" font-size="10.00">_single_path_symex_only_checker.h</text>
</a>
</g>
</g>
<!-- Node57&#45;&gt;Node61 -->
<g id="edge32" class="edge">
<title>Node57&#45;&gt;Node61</title>
<path fill="none" stroke="midnightblue" d="M2654.46,-164.98C2698.37,-153.93 2748.63,-141.3 2791.49,-130.52"/>
<polygon fill="midnightblue" stroke="midnightblue" points="2653.46,-161.62 2644.61,-167.45 2655.16,-168.41 2653.46,-161.62"/>
</g>
<!-- Node58&#45;&gt;Node11 -->
<g id="edge30" class="edge">
<title>Node58&#45;&gt;Node11</title>
<path fill="none" stroke="midnightblue" d="M2562.89,-78.74C2561.59,-78.49 2560.29,-78.24 2559,-78 2471.53,-61.43 2371.42,-46.15 2299.01,-35.76"/>
<polygon fill="midnightblue" stroke="midnightblue" points="2562.5,-82.23 2572.98,-80.74 2563.85,-75.37 2562.5,-82.23"/>
</g>
<!-- Node61&#45;&gt;Node16 -->
<g id="edge33" class="edge">
<title>Node61&#45;&gt;Node16</title>
<path fill="none" stroke="midnightblue" d="M2917.15,-70.19C2924.78,-60.49 2932.86,-50.2 2939.59,-41.63"/>
<polygon fill="midnightblue" stroke="midnightblue" points="2914.32,-68.13 2910.9,-78.16 2919.83,-72.46 2914.32,-68.13"/>
</g>
</g>
</svg>
