<?xml version="1.0" encoding="UTF-8" standalone="no"?>
<!DOCTYPE svg PUBLIC "-//W3C//DTD SVG 1.1//EN"
 "http://www.w3.org/Graphics/SVG/1.1/DTD/svg11.dtd">
<!-- Generated by graphviz version 2.43.0 (0)
 -->
<!-- Title: /home/runner/work/cbmc&#45;documentation/cbmc&#45;documentation/src/goto&#45;checker/goto_trace_storage.h Pages: 1 -->
<svg width="1298pt" height="228pt"
 viewBox="0.00 0.00 1298.00 228.00" xmlns="http://www.w3.org/2000/svg" xmlns:xlink="http://www.w3.org/1999/xlink">
<g id="graph0" class="graph" transform="scale(1 1) rotate(0) translate(4 224)">
<title>/home/runner/work/cbmc&#45;documentation/cbmc&#45;documentation/src/goto&#45;checker/goto_trace_storage.h</title>
<!-- Node1 -->
<g id="node1" class="node">
<title>Node1</title>
<g id="a_node1"><a xlink:title=" ">
<polygon fill="#bfbfbf" stroke="black" points="545,-167.5 545,-219.5 745,-219.5 745,-167.5 545,-167.5"/>
<text text-anchor="start" x="553" y="-207.5" font-family="Helvetica,sans-Serif" font-size="10.00">/home/runner/work/cbmc</text>
<text text-anchor="start" x="553" y="-196.5" font-family="Helvetica,sans-Serif" font-size="10.00">&#45;documentation/cbmc&#45;documentation</text>
<text text-anchor="start" x="553" y="-185.5" font-family="Helvetica,sans-Serif" font-size="10.00">/src/goto&#45;checker/goto_trace</text>
<text text-anchor="middle" x="645" y="-174.5" font-family="Helvetica,sans-Serif" font-size="10.00">_storage.h</text>
</a>
</g>
</g>
<!-- Node2 -->
<g id="node2" class="node">
<title>Node2</title>
<g id="a_node2"><a xlink:href="c__test__input__generator_8cpp.html" target="_top" xlink:title=" ">
<polygon fill="none" stroke="black" points="0,-84 0,-125 200,-125 200,-84 0,-84"/>
<text text-anchor="start" x="8" y="-113" font-family="Helvetica,sans-Serif" font-size="10.00">/home/runner/work/cbmc</text>
<text text-anchor="start" x="8" y="-102" font-family="Helvetica,sans-Serif" font-size="10.00">&#45;documentation/cbmc&#45;documentation</text>
<text text-anchor="middle" x="100" y="-91" font-family="Helvetica,sans-Serif" font-size="10.00">/src/cbmc/c_test_input_generator.cpp</text>
</a>
</g>
</g>
<!-- Node1&#45;&gt;Node2 -->
<g id="edge1" class="edge">
<title>Node1&#45;&gt;Node2</title>
<path fill="none" stroke="midnightblue" d="M534.53,-179.7C446.13,-168.78 319.15,-151.61 209,-131 199.54,-129.23 189.67,-127.19 179.89,-125.05"/>
<polygon fill="midnightblue" stroke="midnightblue" points="534.23,-183.19 544.58,-180.93 535.08,-176.24 534.23,-183.19"/>
</g>
<!-- Node3 -->
<g id="node3" class="node">
<title>Node3</title>
<g id="a_node3"><a xlink:href="all__properties__verifier__with__fault__localization_8h.html" target="_top" xlink:title=" ">
<polygon fill="none" stroke="black" points="436,-78.5 436,-130.5 636,-130.5 636,-78.5 436,-78.5"/>
<text text-anchor="start" x="444" y="-118.5" font-family="Helvetica,sans-Serif" font-size="10.00">/home/runner/work/cbmc</text>
<text text-anchor="start" x="444" y="-107.5" font-family="Helvetica,sans-Serif" font-size="10.00">&#45;documentation/cbmc&#45;documentation</text>
<text text-anchor="start" x="444" y="-96.5" font-family="Helvetica,sans-Serif" font-size="10.00">/src/goto&#45;checker/all_properties</text>
<text text-anchor="middle" x="536" y="-85.5" font-family="Helvetica,sans-Serif" font-size="10.00">_verifier_with_fault_localization.h</text>
</a>
</g>
</g>
<!-- Node1&#45;&gt;Node3 -->
<g id="edge2" class="edge">
<title>Node1&#45;&gt;Node3</title>
<path fill="none" stroke="midnightblue" d="M605.45,-160.93C592.95,-150.96 579.31,-140.07 567.46,-130.61"/>
<polygon fill="midnightblue" stroke="midnightblue" points="603.47,-163.83 613.47,-167.34 607.84,-158.36 603.47,-163.83"/>
</g>
<!-- Node6 -->
<g id="node6" class="node">
<title>Node6</title>
<g id="a_node6"><a xlink:href="all__properties__verifier__with__trace__storage_8h.html" target="_top" xlink:title=" ">
<polygon fill="none" stroke="black" points="654,-78.5 654,-130.5 854,-130.5 854,-78.5 654,-78.5"/>
<text text-anchor="start" x="662" y="-118.5" font-family="Helvetica,sans-Serif" font-size="10.00">/home/runner/work/cbmc</text>
<text text-anchor="start" x="662" y="-107.5" font-family="Helvetica,sans-Serif" font-size="10.00">&#45;documentation/cbmc&#45;documentation</text>
<text text-anchor="start" x="662" y="-96.5" font-family="Helvetica,sans-Serif" font-size="10.00">/src/goto&#45;checker/all_properties</text>
<text text-anchor="middle" x="754" y="-85.5" font-family="Helvetica,sans-Serif" font-size="10.00">_verifier_with_trace_storage.h</text>
</a>
</g>
</g>
<!-- Node1&#45;&gt;Node6 -->
<g id="edge5" class="edge">
<title>Node1&#45;&gt;Node6</title>
<path fill="none" stroke="midnightblue" d="M684.55,-160.93C697.05,-150.96 710.69,-140.07 722.54,-130.61"/>
<polygon fill="midnightblue" stroke="midnightblue" points="682.16,-158.36 676.53,-167.34 686.53,-163.83 682.16,-158.36"/>
</g>
<!-- Node7 -->
<g id="node7" class="node">
<title>Node7</title>
<g id="a_node7"><a xlink:href="cover__goals__verifier__with__trace__storage_8h.html" target="_top" xlink:title=" ">
<polygon fill="none" stroke="black" points="218,-78.5 218,-130.5 418,-130.5 418,-78.5 218,-78.5"/>
<text text-anchor="start" x="226" y="-118.5" font-family="Helvetica,sans-Serif" font-size="10.00">/home/runner/work/cbmc</text>
<text text-anchor="start" x="226" y="-107.5" font-family="Helvetica,sans-Serif" font-size="10.00">&#45;documentation/cbmc&#45;documentation</text>
<text text-anchor="start" x="226" y="-96.5" font-family="Helvetica,sans-Serif" font-size="10.00">/src/goto&#45;checker/cover_goals</text>
<text text-anchor="middle" x="318" y="-85.5" font-family="Helvetica,sans-Serif" font-size="10.00">_verifier_with_trace_storage.h</text>
</a>
</g>
</g>
<!-- Node1&#45;&gt;Node7 -->
<g id="edge8" class="edge">
<title>Node1&#45;&gt;Node7</title>
<path fill="none" stroke="midnightblue" d="M541.03,-164.84C499.65,-153.83 452.38,-141.25 412.04,-130.52"/>
<polygon fill="midnightblue" stroke="midnightblue" points="540.29,-168.26 550.86,-167.45 542.09,-161.5 540.29,-168.26"/>
</g>
<!-- Node8 -->
<g id="node8" class="node">
<title>Node8</title>
<g id="a_node8"><a xlink:href="goto__trace__storage_8cpp.html" target="_top" xlink:title=" ">
<polygon fill="none" stroke="black" points="872,-78.5 872,-130.5 1072,-130.5 1072,-78.5 872,-78.5"/>
<text text-anchor="start" x="880" y="-118.5" font-family="Helvetica,sans-Serif" font-size="10.00">/home/runner/work/cbmc</text>
<text text-anchor="start" x="880" y="-107.5" font-family="Helvetica,sans-Serif" font-size="10.00">&#45;documentation/cbmc&#45;documentation</text>
<text text-anchor="start" x="880" y="-96.5" font-family="Helvetica,sans-Serif" font-size="10.00">/src/goto&#45;checker/goto_trace</text>
<text text-anchor="middle" x="972" y="-85.5" font-family="Helvetica,sans-Serif" font-size="10.00">_storage.cpp</text>
</a>
</g>
</g>
<!-- Node1&#45;&gt;Node8 -->
<g id="edge10" class="edge">
<title>Node1&#45;&gt;Node8</title>
<path fill="none" stroke="midnightblue" d="M748.97,-164.84C790.35,-153.83 837.62,-141.25 877.96,-130.52"/>
<polygon fill="midnightblue" stroke="midnightblue" points="747.91,-161.5 739.14,-167.45 749.71,-168.26 747.91,-161.5"/>
</g>
<!-- Node9 -->
<g id="node9" class="node">
<title>Node9</title>
<g id="a_node9"><a xlink:href="report__util_8cpp.html" target="_top" xlink:title=" ">
<polygon fill="none" stroke="black" points="1090,-84 1090,-125 1290,-125 1290,-84 1090,-84"/>
<text text-anchor="start" x="1098" y="-113" font-family="Helvetica,sans-Serif" font-size="10.00">/home/runner/work/cbmc</text>
<text text-anchor="start" x="1098" y="-102" font-family="Helvetica,sans-Serif" font-size="10.00">&#45;documentation/cbmc&#45;documentation</text>
<text text-anchor="middle" x="1190" y="-91" font-family="Helvetica,sans-Serif" font-size="10.00">/src/goto&#45;checker/report_util.cpp</text>
</a>
</g>
</g>
<!-- Node1&#45;&gt;Node9 -->
<g id="edge11" class="edge">
<title>Node1&#45;&gt;Node9</title>
<path fill="none" stroke="midnightblue" d="M755.47,-179.7C843.87,-168.78 970.85,-151.61 1081,-131 1090.46,-129.23 1100.33,-127.19 1110.11,-125.05"/>
<polygon fill="midnightblue" stroke="midnightblue" points="754.92,-176.24 745.42,-180.93 755.77,-183.19 754.92,-176.24"/>
</g>
<!-- Node4 -->
<g id="node4" class="node">
<title>Node4</title>
<g id="a_node4"><a xlink:href="cbmc__parse__options_8cpp.html" target="_top" xlink:title=" ">
<polygon fill="none" stroke="black" points="431,-0.5 431,-41.5 631,-41.5 631,-0.5 431,-0.5"/>
<text text-anchor="start" x="439" y="-29.5" font-family="Helvetica,sans-Serif" font-size="10.00">/home/runner/work/cbmc</text>
<text text-anchor="start" x="439" y="-18.5" font-family="Helvetica,sans-Serif" font-size="10.00">&#45;documentation/cbmc&#45;documentation</text>
<text text-anchor="middle" x="531" y="-7.5" font-family="Helvetica,sans-Serif" font-size="10.00">/src/cbmc/cbmc_parse_options.cpp</text>
</a>
</g>
</g>
<!-- Node3&#45;&gt;Node4 -->
<g id="edge3" class="edge">
<title>Node3&#45;&gt;Node4</title>
<path fill="none" stroke="midnightblue" d="M533.83,-68.15C533.27,-59.05 532.69,-49.6 532.2,-41.63"/>
<polygon fill="midnightblue" stroke="midnightblue" points="530.34,-68.39 534.45,-78.16 537.33,-67.96 530.34,-68.39"/>
</g>
<!-- Node5 -->
<g id="node5" class="node">
<title>Node5</title>
<g id="a_node5"><a xlink:href="jbmc__parse__options_8cpp.html" target="_top" xlink:title=" ">
<polygon fill="none" stroke="black" points="649.5,-0.5 649.5,-41.5 858.5,-41.5 858.5,-0.5 649.5,-0.5"/>
<text text-anchor="start" x="657.5" y="-29.5" font-family="Helvetica,sans-Serif" font-size="10.00">/home/runner/work/cbmc</text>
<text text-anchor="start" x="657.5" y="-18.5" font-family="Helvetica,sans-Serif" font-size="10.00">&#45;documentation/cbmc&#45;documentation</text>
<text text-anchor="middle" x="754" y="-7.5" font-family="Helvetica,sans-Serif" font-size="10.00">/jbmc/src/jbmc/jbmc_parse_options.cpp</text>
</a>
</g>
</g>
<!-- Node3&#45;&gt;Node5 -->
<g id="edge4" class="edge">
<title>Node3&#45;&gt;Node5</title>
<path fill="none" stroke="midnightblue" d="M612.35,-74.96C641.92,-63.9 675.01,-51.53 701.78,-41.52"/>
<polygon fill="midnightblue" stroke="midnightblue" points="611.03,-71.71 602.89,-78.49 613.48,-78.27 611.03,-71.71"/>
</g>
<!-- Node6&#45;&gt;Node4 -->
<g id="edge6" class="edge">
<title>Node6&#45;&gt;Node4</title>
<path fill="none" stroke="midnightblue" d="M675.9,-74.96C645.65,-63.9 611.8,-51.53 584.42,-41.52"/>
<polygon fill="midnightblue" stroke="midnightblue" points="674.98,-78.35 685.58,-78.49 677.39,-71.77 674.98,-78.35"/>
</g>
<!-- Node6&#45;&gt;Node5 -->
<g id="edge7" class="edge">
<title>Node6&#45;&gt;Node5</title>
<path fill="none" stroke="midnightblue" d="M754,-68.15C754,-59.05 754,-49.6 754,-41.63"/>
<polygon fill="midnightblue" stroke="midnightblue" points="750.5,-68.16 754,-78.16 757.5,-68.16 750.5,-68.16"/>
</g>
<!-- Node7&#45;&gt;Node4 -->
<g id="edge9" class="edge">
<title>Node7&#45;&gt;Node4</title>
<path fill="none" stroke="midnightblue" d="M392.98,-74.81C421.77,-63.8 453.94,-51.49 479.97,-41.52"/>
<polygon fill="midnightblue" stroke="midnightblue" points="391.44,-71.65 383.35,-78.49 393.95,-78.19 391.44,-71.65"/>
</g>
</g>
</svg>
