<?xml version="1.0" encoding="UTF-8" standalone="no"?>
<!DOCTYPE svg PUBLIC "-//W3C//DTD SVG 1.1//EN"
 "http://www.w3.org/Graphics/SVG/1.1/DTD/svg11.dtd">
<!-- Generated by graphviz version 2.43.0 (0)
 -->
<!-- Title: /home/runner/work/cbmc&#45;documentation/cbmc&#45;documentation/src/ansi&#45;c/goto_check_c.h Pages: 1 -->
<svg width="2684pt" height="228pt"
 viewBox="0.00 0.00 2684.00 228.00" xmlns="http://www.w3.org/2000/svg" xmlns:xlink="http://www.w3.org/1999/xlink">
<g id="graph0" class="graph" transform="scale(1 1) rotate(0) translate(4 224)">
<title>/home/runner/work/cbmc&#45;documentation/cbmc&#45;documentation/src/ansi&#45;c/goto_check_c.h</title>
<!-- Node1 -->
<g id="node1" class="node">
<title>Node1</title>
<g id="a_node1"><a xlink:title=" ">
<polygon fill="#bfbfbf" stroke="black" points="1223,-178.5 1223,-219.5 1423,-219.5 1423,-178.5 1223,-178.5"/>
<text text-anchor="start" x="1231" y="-207.5" font-family="Helvetica,sans-Serif" font-size="10.00">/home/runner/work/cbmc</text>
<text text-anchor="start" x="1231" y="-196.5" font-family="Helvetica,sans-Serif" font-size="10.00">&#45;documentation/cbmc&#45;documentation</text>
<text text-anchor="middle" x="1323" y="-185.5" font-family="Helvetica,sans-Serif" font-size="10.00">/src/ansi&#45;c/goto_check_c.h</text>
</a>
</g>
</g>
<!-- Node2 -->
<g id="node2" class="node">
<title>Node2</title>
<g id="a_node2"><a xlink:href="goto__check__c_8cpp.html" target="_top" xlink:title=" ">
<polygon fill="none" stroke="black" points="218,-95 218,-136 418,-136 418,-95 218,-95"/>
<text text-anchor="start" x="226" y="-124" font-family="Helvetica,sans-Serif" font-size="10.00">/home/runner/work/cbmc</text>
<text text-anchor="start" x="226" y="-113" font-family="Helvetica,sans-Serif" font-size="10.00">&#45;documentation/cbmc&#45;documentation</text>
<text text-anchor="middle" x="318" y="-102" font-family="Helvetica,sans-Serif" font-size="10.00">/src/ansi&#45;c/goto_check_c.cpp</text>
</a>
</g>
</g>
<!-- Node1&#45;&gt;Node2 -->
<g id="edge1" class="edge">
<title>Node1&#45;&gt;Node2</title>
<path fill="none" stroke="midnightblue" d="M1212.8,-197.03C1043.13,-194.21 708.07,-183.36 427,-142 416.33,-140.43 405.16,-138.34 394.21,-136.03"/>
<polygon fill="midnightblue" stroke="midnightblue" points="1212.94,-200.54 1222.99,-197.2 1213.05,-193.54 1212.94,-200.54"/>
</g>
<!-- Node3 -->
<g id="node3" class="node">
<title>Node3</title>
<g id="a_node3"><a xlink:href="cbmc__parse__options_8h.html" target="_top" xlink:title=" ">
<polygon fill="none" stroke="black" points="436,-95 436,-136 636,-136 636,-95 436,-95"/>
<text text-anchor="start" x="444" y="-124" font-family="Helvetica,sans-Serif" font-size="10.00">/home/runner/work/cbmc</text>
<text text-anchor="start" x="444" y="-113" font-family="Helvetica,sans-Serif" font-size="10.00">&#45;documentation/cbmc&#45;documentation</text>
<text text-anchor="middle" x="536" y="-102" font-family="Helvetica,sans-Serif" font-size="10.00">/src/cbmc/cbmc_parse_options.h</text>
</a>
</g>
</g>
<!-- Node1&#45;&gt;Node3 -->
<g id="edge2" class="edge">
<title>Node1&#45;&gt;Node3</title>
<path fill="none" stroke="midnightblue" d="M1212.55,-186.56C1059.21,-170.68 784.05,-142.19 636.3,-126.89"/>
<polygon fill="midnightblue" stroke="midnightblue" points="1212.62,-190.09 1222.93,-187.64 1213.34,-183.13 1212.62,-190.09"/>
</g>
<!-- Node7 -->
<g id="node7" class="node">
<title>Node7</title>
<g id="a_node7"><a xlink:href="goto__analyzer__parse__options_8h.html" target="_top" xlink:title=" ">
<polygon fill="none" stroke="black" points="998,-89.5 998,-141.5 1198,-141.5 1198,-89.5 998,-89.5"/>
<text text-anchor="start" x="1006" y="-129.5" font-family="Helvetica,sans-Serif" font-size="10.00">/home/runner/work/cbmc</text>
<text text-anchor="start" x="1006" y="-118.5" font-family="Helvetica,sans-Serif" font-size="10.00">&#45;documentation/cbmc&#45;documentation</text>
<text text-anchor="start" x="1006" y="-107.5" font-family="Helvetica,sans-Serif" font-size="10.00">/src/goto&#45;analyzer/goto_analyzer</text>
<text text-anchor="middle" x="1098" y="-96.5" font-family="Helvetica,sans-Serif" font-size="10.00">_parse_options.h</text>
</a>
</g>
</g>
<!-- Node1&#45;&gt;Node7 -->
<g id="edge6" class="edge">
<title>Node1&#45;&gt;Node7</title>
<path fill="none" stroke="midnightblue" d="M1259.56,-175.02C1230.78,-164.6 1196.67,-152.24 1167.23,-141.58"/>
<polygon fill="midnightblue" stroke="midnightblue" points="1258.51,-178.36 1269.11,-178.48 1260.9,-171.78 1258.51,-178.36"/>
</g>
<!-- Node11 -->
<g id="node11" class="node">
<title>Node11</title>
<g id="a_node11"><a xlink:href="goto__diff__parse__options_8h.html" target="_top" xlink:title=" ">
<polygon fill="none" stroke="black" points="1445,-89.5 1445,-141.5 1645,-141.5 1645,-89.5 1445,-89.5"/>
<text text-anchor="start" x="1453" y="-129.5" font-family="Helvetica,sans-Serif" font-size="10.00">/home/runner/work/cbmc</text>
<text text-anchor="start" x="1453" y="-118.5" font-family="Helvetica,sans-Serif" font-size="10.00">&#45;documentation/cbmc&#45;documentation</text>
<text text-anchor="start" x="1453" y="-107.5" font-family="Helvetica,sans-Serif" font-size="10.00">/src/goto&#45;diff/goto_diff_parse</text>
<text text-anchor="middle" x="1545" y="-96.5" font-family="Helvetica,sans-Serif" font-size="10.00">_options.h</text>
</a>
</g>
</g>
<!-- Node1&#45;&gt;Node11 -->
<g id="edge10" class="edge">
<title>Node1&#45;&gt;Node11</title>
<path fill="none" stroke="midnightblue" d="M1385.59,-175.02C1413.99,-164.6 1447.64,-152.24 1476.69,-141.58"/>
<polygon fill="midnightblue" stroke="midnightblue" points="1384.36,-171.75 1376.17,-178.48 1386.77,-178.32 1384.36,-171.75"/>
</g>
<!-- Node15 -->
<g id="node15" class="node">
<title>Node15</title>
<g id="a_node15"><a xlink:href="goto__instrument__parse__options_8h.html" target="_top" xlink:title=" ">
<polygon fill="none" stroke="black" points="1990,-89.5 1990,-141.5 2190,-141.5 2190,-89.5 1990,-89.5"/>
<text text-anchor="start" x="1998" y="-129.5" font-family="Helvetica,sans-Serif" font-size="10.00">/home/runner/work/cbmc</text>
<text text-anchor="start" x="1998" y="-118.5" font-family="Helvetica,sans-Serif" font-size="10.00">&#45;documentation/cbmc&#45;documentation</text>
<text text-anchor="start" x="1998" y="-107.5" font-family="Helvetica,sans-Serif" font-size="10.00">/src/goto&#45;instrument/goto_instrument</text>
<text text-anchor="middle" x="2090" y="-96.5" font-family="Helvetica,sans-Serif" font-size="10.00">_parse_options.h</text>
</a>
</g>
</g>
<!-- Node1&#45;&gt;Node15 -->
<g id="edge14" class="edge">
<title>Node1&#45;&gt;Node15</title>
<path fill="none" stroke="midnightblue" d="M1433.36,-186.27C1582.44,-170.43 1846,-142.43 1989.7,-127.16"/>
<polygon fill="midnightblue" stroke="midnightblue" points="1432.85,-182.81 1423.27,-187.35 1433.59,-189.77 1432.85,-182.81"/>
</g>
<!-- Node19 -->
<g id="node19" class="node">
<title>Node19</title>
<g id="a_node19"><a xlink:href="process__goto__program_8cpp.html" target="_top" xlink:title=" ">
<polygon fill="none" stroke="black" points="2208,-89.5 2208,-141.5 2408,-141.5 2408,-89.5 2208,-89.5"/>
<text text-anchor="start" x="2216" y="-129.5" font-family="Helvetica,sans-Serif" font-size="10.00">/home/runner/work/cbmc</text>
<text text-anchor="start" x="2216" y="-118.5" font-family="Helvetica,sans-Serif" font-size="10.00">&#45;documentation/cbmc&#45;documentation</text>
<text text-anchor="start" x="2216" y="-107.5" font-family="Helvetica,sans-Serif" font-size="10.00">/src/goto&#45;programs/process_goto</text>
<text text-anchor="middle" x="2308" y="-96.5" font-family="Helvetica,sans-Serif" font-size="10.00">_program.cpp</text>
</a>
</g>
</g>
<!-- Node1&#45;&gt;Node19 -->
<g id="edge18" class="edge">
<title>Node1&#45;&gt;Node19</title>
<path fill="none" stroke="midnightblue" d="M1433.34,-196.8C1600.03,-193.68 1925.64,-182.43 2199,-142 2201.88,-141.57 2204.8,-141.11 2207.75,-140.61"/>
<polygon fill="midnightblue" stroke="midnightblue" points="1433.02,-193.31 1423.08,-196.99 1433.14,-200.31 1433.02,-193.31"/>
</g>
<!-- Node4 -->
<g id="node4" class="node">
<title>Node4</title>
<g id="a_node4"><a xlink:href="cbmc__languages_8cpp.html" target="_top" xlink:title=" ">
<polygon fill="none" stroke="black" points="0,-6 0,-47 200,-47 200,-6 0,-6"/>
<text text-anchor="start" x="8" y="-35" font-family="Helvetica,sans-Serif" font-size="10.00">/home/runner/work/cbmc</text>
<text text-anchor="start" x="8" y="-24" font-family="Helvetica,sans-Serif" font-size="10.00">&#45;documentation/cbmc&#45;documentation</text>
<text text-anchor="middle" x="100" y="-13" font-family="Helvetica,sans-Serif" font-size="10.00">/src/cbmc/cbmc_languages.cpp</text>
</a>
</g>
</g>
<!-- Node3&#45;&gt;Node4 -->
<g id="edge3" class="edge">
<title>Node3&#45;&gt;Node4</title>
<path fill="none" stroke="midnightblue" d="M445.4,-92.82C439.18,-91.48 433,-90.2 427,-89 330.69,-69.8 305.31,-72.2 209,-53 199.85,-51.18 190.3,-49.14 180.82,-47.04"/>
<polygon fill="midnightblue" stroke="midnightblue" points="444.66,-96.25 455.18,-94.96 446.16,-89.41 444.66,-96.25"/>
</g>
<!-- Node5 -->
<g id="node5" class="node">
<title>Node5</title>
<g id="a_node5"><a xlink:href="cbmc__main_8cpp.html" target="_top" xlink:title=" ">
<polygon fill="none" stroke="black" points="218,-6 218,-47 418,-47 418,-6 218,-6"/>
<text text-anchor="start" x="226" y="-35" font-family="Helvetica,sans-Serif" font-size="10.00">/home/runner/work/cbmc</text>
<text text-anchor="start" x="226" y="-24" font-family="Helvetica,sans-Serif" font-size="10.00">&#45;documentation/cbmc&#45;documentation</text>
<text text-anchor="middle" x="318" y="-13" font-family="Helvetica,sans-Serif" font-size="10.00">/src/cbmc/cbmc_main.cpp</text>
</a>
</g>
</g>
<!-- Node3&#45;&gt;Node5 -->
<g id="edge4" class="edge">
<title>Node3&#45;&gt;Node5</title>
<path fill="none" stroke="midnightblue" d="M477.59,-91.19C443.08,-77.42 399.89,-60.18 367.14,-47.11"/>
<polygon fill="midnightblue" stroke="midnightblue" points="476.49,-94.52 487.08,-94.98 479.09,-88.02 476.49,-94.52"/>
</g>
<!-- Node6 -->
<g id="node6" class="node">
<title>Node6</title>
<g id="a_node6"><a xlink:href="cbmc__parse__options_8cpp.html" target="_top" xlink:title=" ">
<polygon fill="none" stroke="black" points="436,-6 436,-47 636,-47 636,-6 436,-6"/>
<text text-anchor="start" x="444" y="-35" font-family="Helvetica,sans-Serif" font-size="10.00">/home/runner/work/cbmc</text>
<text text-anchor="start" x="444" y="-24" font-family="Helvetica,sans-Serif" font-size="10.00">&#45;documentation/cbmc&#45;documentation</text>
<text text-anchor="middle" x="536" y="-13" font-family="Helvetica,sans-Serif" font-size="10.00">/src/cbmc/cbmc_parse_options.cpp</text>
</a>
</g>
</g>
<!-- Node3&#45;&gt;Node6 -->
<g id="edge5" class="edge">
<title>Node3&#45;&gt;Node6</title>
<path fill="none" stroke="midnightblue" d="M536,-84.44C536,-72.1 536,-58.16 536,-47.16"/>
<polygon fill="midnightblue" stroke="midnightblue" points="532.5,-84.76 536,-94.76 539.5,-84.76 532.5,-84.76"/>
</g>
<!-- Node8 -->
<g id="node8" class="node">
<title>Node8</title>
<g id="a_node8"><a xlink:href="goto__analyzer__languages_8cpp.html" target="_top" xlink:title=" ">
<polygon fill="none" stroke="black" points="654,-0.5 654,-52.5 854,-52.5 854,-0.5 654,-0.5"/>
<text text-anchor="start" x="662" y="-40.5" font-family="Helvetica,sans-Serif" font-size="10.00">/home/runner/work/cbmc</text>
<text text-anchor="start" x="662" y="-29.5" font-family="Helvetica,sans-Serif" font-size="10.00">&#45;documentation/cbmc&#45;documentation</text>
<text text-anchor="start" x="662" y="-18.5" font-family="Helvetica,sans-Serif" font-size="10.00">/src/goto&#45;analyzer/goto_analyzer</text>
<text text-anchor="middle" x="754" y="-7.5" font-family="Helvetica,sans-Serif" font-size="10.00">_languages.cpp</text>
</a>
</g>
</g>
<!-- Node7&#45;&gt;Node8 -->
<g id="edge7" class="edge">
<title>Node7&#45;&gt;Node8</title>
<path fill="none" stroke="midnightblue" d="M989.17,-86.98C945.51,-75.93 895.55,-63.3 852.93,-52.52"/>
<polygon fill="midnightblue" stroke="midnightblue" points="988.41,-90.39 998.96,-89.45 990.13,-83.61 988.41,-90.39"/>
</g>
<!-- Node9 -->
<g id="node9" class="node">
<title>Node9</title>
<g id="a_node9"><a xlink:href="goto__analyzer__main_8cpp.html" target="_top" xlink:title=" ">
<polygon fill="none" stroke="black" points="872.5,-6 872.5,-47 1099.5,-47 1099.5,-6 872.5,-6"/>
<text text-anchor="start" x="880.5" y="-35" font-family="Helvetica,sans-Serif" font-size="10.00">/home/runner/work/cbmc</text>
<text text-anchor="start" x="880.5" y="-24" font-family="Helvetica,sans-Serif" font-size="10.00">&#45;documentation/cbmc&#45;documentation</text>
<text text-anchor="middle" x="986" y="-13" font-family="Helvetica,sans-Serif" font-size="10.00">/src/goto&#45;analyzer/goto_analyzer_main.cpp</text>
</a>
</g>
</g>
<!-- Node7&#45;&gt;Node9 -->
<g id="edge8" class="edge">
<title>Node7&#45;&gt;Node9</title>
<path fill="none" stroke="midnightblue" d="M1057.68,-83.18C1042.16,-71.13 1024.9,-57.72 1011.21,-47.08"/>
<polygon fill="midnightblue" stroke="midnightblue" points="1055.56,-85.97 1065.6,-89.34 1059.85,-80.44 1055.56,-85.97"/>
</g>
<!-- Node10 -->
<g id="node10" class="node">
<title>Node10</title>
<g id="a_node10"><a xlink:href="goto__analyzer__parse__options_8cpp.html" target="_top" xlink:title=" ">
<polygon fill="none" stroke="black" points="1118,-0.5 1118,-52.5 1318,-52.5 1318,-0.5 1118,-0.5"/>
<text text-anchor="start" x="1126" y="-40.5" font-family="Helvetica,sans-Serif" font-size="10.00">/home/runner/work/cbmc</text>
<text text-anchor="start" x="1126" y="-29.5" font-family="Helvetica,sans-Serif" font-size="10.00">&#45;documentation/cbmc&#45;documentation</text>
<text text-anchor="start" x="1126" y="-18.5" font-family="Helvetica,sans-Serif" font-size="10.00">/src/goto&#45;analyzer/goto_analyzer</text>
<text text-anchor="middle" x="1218" y="-7.5" font-family="Helvetica,sans-Serif" font-size="10.00">_parse_options.cpp</text>
</a>
</g>
</g>
<!-- Node7&#45;&gt;Node10 -->
<g id="edge9" class="edge">
<title>Node7&#45;&gt;Node10</title>
<path fill="none" stroke="midnightblue" d="M1141.15,-83.22C1155.02,-73.16 1170.19,-62.16 1183.37,-52.61"/>
<polygon fill="midnightblue" stroke="midnightblue" points="1138.75,-80.63 1132.71,-89.34 1142.86,-86.3 1138.75,-80.63"/>
</g>
<!-- Node12 -->
<g id="node12" class="node">
<title>Node12</title>
<g id="a_node12"><a xlink:href="goto__diff__languages_8cpp.html" target="_top" xlink:title=" ">
<polygon fill="none" stroke="black" points="1336,-6 1336,-47 1536,-47 1536,-6 1336,-6"/>
<text text-anchor="start" x="1344" y="-35" font-family="Helvetica,sans-Serif" font-size="10.00">/home/runner/work/cbmc</text>
<text text-anchor="start" x="1344" y="-24" font-family="Helvetica,sans-Serif" font-size="10.00">&#45;documentation/cbmc&#45;documentation</text>
<text text-anchor="middle" x="1436" y="-13" font-family="Helvetica,sans-Serif" font-size="10.00">/src/goto&#45;diff/goto_diff_languages.cpp</text>
</a>
</g>
</g>
<!-- Node11&#45;&gt;Node12 -->
<g id="edge11" class="edge">
<title>Node11&#45;&gt;Node12</title>
<path fill="none" stroke="midnightblue" d="M1505.34,-82.85C1490.35,-70.88 1473.74,-57.62 1460.53,-47.08"/>
<polygon fill="midnightblue" stroke="midnightblue" points="1503.47,-85.83 1513.47,-89.34 1507.84,-80.36 1503.47,-85.83"/>
</g>
<!-- Node13 -->
<g id="node13" class="node">
<title>Node13</title>
<g id="a_node13"><a xlink:href="goto__diff__main_8cpp.html" target="_top" xlink:title=" ">
<polygon fill="none" stroke="black" points="1554,-6 1554,-47 1754,-47 1754,-6 1554,-6"/>
<text text-anchor="start" x="1562" y="-35" font-family="Helvetica,sans-Serif" font-size="10.00">/home/runner/work/cbmc</text>
<text text-anchor="start" x="1562" y="-24" font-family="Helvetica,sans-Serif" font-size="10.00">&#45;documentation/cbmc&#45;documentation</text>
<text text-anchor="middle" x="1654" y="-13" font-family="Helvetica,sans-Serif" font-size="10.00">/src/goto&#45;diff/goto_diff_main.cpp</text>
</a>
</g>
</g>
<!-- Node11&#45;&gt;Node13 -->
<g id="edge12" class="edge">
<title>Node11&#45;&gt;Node13</title>
<path fill="none" stroke="midnightblue" d="M1584.66,-82.85C1599.65,-70.88 1616.26,-57.62 1629.47,-47.08"/>
<polygon fill="midnightblue" stroke="midnightblue" points="1582.16,-80.36 1576.53,-89.34 1586.53,-85.83 1582.16,-80.36"/>
</g>
<!-- Node14 -->
<g id="node14" class="node">
<title>Node14</title>
<g id="a_node14"><a xlink:href="goto__diff__parse__options_8cpp.html" target="_top" xlink:title=" ">
<polygon fill="none" stroke="black" points="1772,-0.5 1772,-52.5 1972,-52.5 1972,-0.5 1772,-0.5"/>
<text text-anchor="start" x="1780" y="-40.5" font-family="Helvetica,sans-Serif" font-size="10.00">/home/runner/work/cbmc</text>
<text text-anchor="start" x="1780" y="-29.5" font-family="Helvetica,sans-Serif" font-size="10.00">&#45;documentation/cbmc&#45;documentation</text>
<text text-anchor="start" x="1780" y="-18.5" font-family="Helvetica,sans-Serif" font-size="10.00">/src/goto&#45;diff/goto_diff_parse</text>
<text text-anchor="middle" x="1872" y="-7.5" font-family="Helvetica,sans-Serif" font-size="10.00">_options.cpp</text>
</a>
</g>
</g>
<!-- Node11&#45;&gt;Node14 -->
<g id="edge13" class="edge">
<title>Node11&#45;&gt;Node14</title>
<path fill="none" stroke="midnightblue" d="M1648.97,-86.84C1690.35,-75.83 1737.62,-63.25 1777.96,-52.52"/>
<polygon fill="midnightblue" stroke="midnightblue" points="1647.91,-83.5 1639.14,-89.45 1649.71,-90.26 1647.91,-83.5"/>
</g>
<!-- Node16 -->
<g id="node16" class="node">
<title>Node16</title>
<g id="a_node16"><a xlink:href="goto__instrument__languages_8cpp.html" target="_top" xlink:title=" ">
<polygon fill="none" stroke="black" points="1990,-0.5 1990,-52.5 2190,-52.5 2190,-0.5 1990,-0.5"/>
<text text-anchor="start" x="1998" y="-40.5" font-family="Helvetica,sans-Serif" font-size="10.00">/home/runner/work/cbmc</text>
<text text-anchor="start" x="1998" y="-29.5" font-family="Helvetica,sans-Serif" font-size="10.00">&#45;documentation/cbmc&#45;documentation</text>
<text text-anchor="start" x="1998" y="-18.5" font-family="Helvetica,sans-Serif" font-size="10.00">/src/goto&#45;instrument/goto_instrument</text>
<text text-anchor="middle" x="2090" y="-7.5" font-family="Helvetica,sans-Serif" font-size="10.00">_languages.cpp</text>
</a>
</g>
</g>
<!-- Node15&#45;&gt;Node16 -->
<g id="edge15" class="edge">
<title>Node15&#45;&gt;Node16</title>
<path fill="none" stroke="midnightblue" d="M2090,-79.19C2090,-70.28 2090,-60.9 2090,-52.61"/>
<polygon fill="midnightblue" stroke="midnightblue" points="2086.5,-79.34 2090,-89.34 2093.5,-79.34 2086.5,-79.34"/>
</g>
<!-- Node17 -->
<g id="node17" class="node">
<title>Node17</title>
<g id="a_node17"><a xlink:href="goto__instrument__main_8cpp.html" target="_top" xlink:title=" ">
<polygon fill="none" stroke="black" points="2208.5,-6 2208.5,-47 2457.5,-47 2457.5,-6 2208.5,-6"/>
<text text-anchor="start" x="2216.5" y="-35" font-family="Helvetica,sans-Serif" font-size="10.00">/home/runner/work/cbmc</text>
<text text-anchor="start" x="2216.5" y="-24" font-family="Helvetica,sans-Serif" font-size="10.00">&#45;documentation/cbmc&#45;documentation</text>
<text text-anchor="middle" x="2333" y="-13" font-family="Helvetica,sans-Serif" font-size="10.00">/src/goto&#45;instrument/goto_instrument_main.cpp</text>
</a>
</g>
</g>
<!-- Node15&#45;&gt;Node17 -->
<g id="edge16" class="edge">
<title>Node15&#45;&gt;Node17</title>
<path fill="none" stroke="midnightblue" d="M2169.81,-85.92C2205.3,-73.22 2246.19,-58.58 2278.16,-47.13"/>
<polygon fill="midnightblue" stroke="midnightblue" points="2168.19,-82.79 2159.96,-89.45 2170.55,-89.38 2168.19,-82.79"/>
</g>
<!-- Node18 -->
<g id="node18" class="node">
<title>Node18</title>
<g id="a_node18"><a xlink:href="goto__instrument__parse__options_8cpp.html" target="_top" xlink:title=" ">
<polygon fill="none" stroke="black" points="2476,-0.5 2476,-52.5 2676,-52.5 2676,-0.5 2476,-0.5"/>
<text text-anchor="start" x="2484" y="-40.5" font-family="Helvetica,sans-Serif" font-size="10.00">/home/runner/work/cbmc</text>
<text text-anchor="start" x="2484" y="-29.5" font-family="Helvetica,sans-Serif" font-size="10.00">&#45;documentation/cbmc&#45;documentation</text>
<text text-anchor="start" x="2484" y="-18.5" font-family="Helvetica,sans-Serif" font-size="10.00">/src/goto&#45;instrument/goto_instrument</text>
<text text-anchor="middle" x="2576" y="-7.5" font-family="Helvetica,sans-Serif" font-size="10.00">_parse_options.cpp</text>
</a>
</g>
</g>
<!-- Node15&#45;&gt;Node18 -->
<g id="edge17" class="edge">
<title>Node15&#45;&gt;Node18</title>
<path fill="none" stroke="midnightblue" d="M2199.87,-88.92C2318.93,-67.66 2351.91,-74.14 2467,-53 2469.96,-52.46 2472.97,-51.88 2475.99,-51.29"/>
<polygon fill="midnightblue" stroke="midnightblue" points="2199.22,-85.48 2190.01,-90.71 2200.47,-92.37 2199.22,-85.48"/>
</g>
</g>
</svg>
