<?xml version="1.0" encoding="UTF-8" standalone="no"?>
<!DOCTYPE svg PUBLIC "-//W3C//DTD SVG 1.1//EN"
 "http://www.w3.org/Graphics/SVG/1.1/DTD/svg11.dtd">
<!-- Generated by graphviz version 2.43.0 (0)
 -->
<!-- Title: /home/runner/work/cbmc&#45;documentation/cbmc&#45;documentation/src/goto&#45;cc/goto_cc_cmdline.h Pages: 1 -->
<svg width="3687pt" height="284pt"
 viewBox="0.00 0.00 3687.00 284.00" xmlns="http://www.w3.org/2000/svg" xmlns:xlink="http://www.w3.org/1999/xlink">
<g id="graph0" class="graph" transform="scale(1 1) rotate(0) translate(4 280)">
<title>/home/runner/work/cbmc&#45;documentation/cbmc&#45;documentation/src/goto&#45;cc/goto_cc_cmdline.h</title>
<!-- Node1 -->
<g id="node1" class="node">
<title>Node1</title>
<g id="a_node1"><a xlink:title=" ">
<polygon fill="#bfbfbf" stroke="black" points="2062,-234.5 2062,-275.5 2262,-275.5 2262,-234.5 2062,-234.5"/>
<text text-anchor="start" x="2070" y="-263.5" font-family="Helvetica,sans-Serif" font-size="10.00">/home/runner/work/cbmc</text>
<text text-anchor="start" x="2070" y="-252.5" font-family="Helvetica,sans-Serif" font-size="10.00">&#45;documentation/cbmc&#45;documentation</text>
<text text-anchor="middle" x="2162" y="-241.5" font-family="Helvetica,sans-Serif" font-size="10.00">/src/goto&#45;cc/goto_cc_cmdline.h</text>
</a>
</g>
</g>
<!-- Node2 -->
<g id="node2" class="node">
<title>Node2</title>
<g id="a_node2"><a xlink:href="armcc__cmdline_8h.html" target="_top" xlink:title=" ">
<polygon fill="none" stroke="black" points="294,-156.5 294,-197.5 494,-197.5 494,-156.5 294,-156.5"/>
<text text-anchor="start" x="302" y="-185.5" font-family="Helvetica,sans-Serif" font-size="10.00">/home/runner/work/cbmc</text>
<text text-anchor="start" x="302" y="-174.5" font-family="Helvetica,sans-Serif" font-size="10.00">&#45;documentation/cbmc&#45;documentation</text>
<text text-anchor="middle" x="394" y="-163.5" font-family="Helvetica,sans-Serif" font-size="10.00">/src/goto&#45;cc/armcc_cmdline.h</text>
</a>
</g>
</g>
<!-- Node1&#45;&gt;Node2 -->
<g id="edge1" class="edge">
<title>Node1&#45;&gt;Node2</title>
<path fill="none" stroke="midnightblue" d="M2051.33,-253.37C1790.93,-251.17 1119.24,-241.39 560,-198 538.73,-196.35 515.99,-194 494.37,-191.48"/>
<polygon fill="midnightblue" stroke="midnightblue" points="2051.52,-256.87 2061.55,-253.45 2051.58,-249.87 2051.52,-256.87"/>
</g>
<!-- Node7 -->
<g id="node7" class="node">
<title>Node7</title>
<g id="a_node7"><a xlink:href="as86__cmdline_8h.html" target="_top" xlink:title=" ">
<polygon fill="none" stroke="black" points="787,-156.5 787,-197.5 987,-197.5 987,-156.5 787,-156.5"/>
<text text-anchor="start" x="795" y="-185.5" font-family="Helvetica,sans-Serif" font-size="10.00">/home/runner/work/cbmc</text>
<text text-anchor="start" x="795" y="-174.5" font-family="Helvetica,sans-Serif" font-size="10.00">&#45;documentation/cbmc&#45;documentation</text>
<text text-anchor="middle" x="887" y="-163.5" font-family="Helvetica,sans-Serif" font-size="10.00">/src/goto&#45;cc/as86_cmdline.h</text>
</a>
</g>
</g>
<!-- Node1&#45;&gt;Node7 -->
<g id="edge7" class="edge">
<title>Node1&#45;&gt;Node7</title>
<path fill="none" stroke="midnightblue" d="M2051.46,-252.5C1846.55,-248.86 1394.11,-236.76 1015,-198 1005.94,-197.07 996.54,-195.94 987.14,-194.69"/>
<polygon fill="midnightblue" stroke="midnightblue" points="2051.56,-256 2061.62,-252.68 2051.68,-249.01 2051.56,-256"/>
</g>
<!-- Node9 -->
<g id="node9" class="node">
<title>Node9</title>
<g id="a_node9"><a xlink:href="as__cmdline_8h.html" target="_top" xlink:title=" ">
<polygon fill="none" stroke="black" points="1024,-156.5 1024,-197.5 1224,-197.5 1224,-156.5 1024,-156.5"/>
<text text-anchor="start" x="1032" y="-185.5" font-family="Helvetica,sans-Serif" font-size="10.00">/home/runner/work/cbmc</text>
<text text-anchor="start" x="1032" y="-174.5" font-family="Helvetica,sans-Serif" font-size="10.00">&#45;documentation/cbmc&#45;documentation</text>
<text text-anchor="middle" x="1124" y="-163.5" font-family="Helvetica,sans-Serif" font-size="10.00">/src/goto&#45;cc/as_cmdline.h</text>
</a>
</g>
</g>
<!-- Node1&#45;&gt;Node9 -->
<g id="edge10" class="edge">
<title>Node1&#45;&gt;Node9</title>
<path fill="none" stroke="midnightblue" d="M2051.44,-245.91C1848.41,-231.04 1419.14,-199.61 1224.14,-185.33"/>
<polygon fill="midnightblue" stroke="midnightblue" points="2051.3,-249.4 2061.53,-246.64 2051.81,-242.42 2051.3,-249.4"/>
</g>
<!-- Node11 -->
<g id="node11" class="node">
<title>Node11</title>
<g id="a_node11"><a xlink:href="as__mode_8cpp.html" target="_top" xlink:title=" ">
<polygon fill="none" stroke="black" points="2389,-156.5 2389,-197.5 2589,-197.5 2589,-156.5 2389,-156.5"/>
<text text-anchor="start" x="2397" y="-185.5" font-family="Helvetica,sans-Serif" font-size="10.00">/home/runner/work/cbmc</text>
<text text-anchor="start" x="2397" y="-174.5" font-family="Helvetica,sans-Serif" font-size="10.00">&#45;documentation/cbmc&#45;documentation</text>
<text text-anchor="middle" x="2489" y="-163.5" font-family="Helvetica,sans-Serif" font-size="10.00">/src/goto&#45;cc/as_mode.cpp</text>
</a>
</g>
</g>
<!-- Node1&#45;&gt;Node11 -->
<g id="edge13" class="edge">
<title>Node1&#45;&gt;Node11</title>
<path fill="none" stroke="midnightblue" d="M2256.09,-232.13C2303.12,-221.2 2359.54,-208.09 2405.07,-197.51"/>
<polygon fill="midnightblue" stroke="midnightblue" points="2255.16,-228.76 2246.21,-234.43 2256.74,-235.57 2255.16,-228.76"/>
</g>
<!-- Node12 -->
<g id="node12" class="node">
<title>Node12</title>
<g id="a_node12"><a xlink:href="bcc__cmdline_8h.html" target="_top" xlink:title=" ">
<polygon fill="none" stroke="black" points="569,-156.5 569,-197.5 769,-197.5 769,-156.5 569,-156.5"/>
<text text-anchor="start" x="577" y="-185.5" font-family="Helvetica,sans-Serif" font-size="10.00">/home/runner/work/cbmc</text>
<text text-anchor="start" x="577" y="-174.5" font-family="Helvetica,sans-Serif" font-size="10.00">&#45;documentation/cbmc&#45;documentation</text>
<text text-anchor="middle" x="669" y="-163.5" font-family="Helvetica,sans-Serif" font-size="10.00">/src/goto&#45;cc/bcc_cmdline.h</text>
</a>
</g>
</g>
<!-- Node1&#45;&gt;Node12 -->
<g id="edge14" class="edge">
<title>Node1&#45;&gt;Node12</title>
<path fill="none" stroke="midnightblue" d="M2051.51,-254.8C1816.41,-255.36 1249.58,-250.54 778,-198 775.04,-197.67 772.03,-197.31 769,-196.91"/>
<polygon fill="midnightblue" stroke="midnightblue" points="2051.78,-258.3 2061.77,-254.78 2051.76,-251.3 2051.78,-258.3"/>
</g>
<!-- Node14 -->
<g id="node14" class="node">
<title>Node14</title>
<g id="a_node14"><a xlink:href="gcc__cmdline_8h.html" target="_top" xlink:title=" ">
<polygon fill="none" stroke="black" points="1434,-156.5 1434,-197.5 1634,-197.5 1634,-156.5 1434,-156.5"/>
<text text-anchor="start" x="1442" y="-185.5" font-family="Helvetica,sans-Serif" font-size="10.00">/home/runner/work/cbmc</text>
<text text-anchor="start" x="1442" y="-174.5" font-family="Helvetica,sans-Serif" font-size="10.00">&#45;documentation/cbmc&#45;documentation</text>
<text text-anchor="middle" x="1534" y="-163.5" font-family="Helvetica,sans-Serif" font-size="10.00">/src/goto&#45;cc/gcc_cmdline.h</text>
</a>
</g>
</g>
<!-- Node1&#45;&gt;Node14 -->
<g id="edge17" class="edge">
<title>Node1&#45;&gt;Node14</title>
<path fill="none" stroke="midnightblue" d="M2051.65,-240.65C1933.61,-226.36 1748.05,-203.9 1634.11,-190.11"/>
<polygon fill="midnightblue" stroke="midnightblue" points="2051.45,-244.15 2061.8,-241.87 2052.29,-237.2 2051.45,-244.15"/>
</g>
<!-- Node18 -->
<g id="node18" class="node">
<title>Node18</title>
<g id="a_node18"><a xlink:href="gcc__mode_8cpp.html" target="_top" xlink:title=" ">
<polygon fill="none" stroke="black" points="2607,-156.5 2607,-197.5 2807,-197.5 2807,-156.5 2607,-156.5"/>
<text text-anchor="start" x="2615" y="-185.5" font-family="Helvetica,sans-Serif" font-size="10.00">/home/runner/work/cbmc</text>
<text text-anchor="start" x="2615" y="-174.5" font-family="Helvetica,sans-Serif" font-size="10.00">&#45;documentation/cbmc&#45;documentation</text>
<text text-anchor="middle" x="2707" y="-163.5" font-family="Helvetica,sans-Serif" font-size="10.00">/src/goto&#45;cc/gcc_mode.cpp</text>
</a>
</g>
</g>
<!-- Node1&#45;&gt;Node18 -->
<g id="edge23" class="edge">
<title>Node1&#45;&gt;Node18</title>
<path fill="none" stroke="midnightblue" d="M2272.25,-241.5C2360.54,-231.09 2487.45,-215.23 2598,-198 2600.95,-197.54 2603.94,-197.06 2606.95,-196.57"/>
<polygon fill="midnightblue" stroke="midnightblue" points="2271.74,-238.03 2262.22,-242.68 2272.56,-244.99 2271.74,-238.03"/>
</g>
<!-- Node19 -->
<g id="node19" class="node">
<title>Node19</title>
<g id="a_node19"><a xlink:href="goto__cc__cmdline_8cpp.html" target="_top" xlink:title=" ">
<polygon fill="none" stroke="black" points="2825,-156.5 2825,-197.5 3025,-197.5 3025,-156.5 2825,-156.5"/>
<text text-anchor="start" x="2833" y="-185.5" font-family="Helvetica,sans-Serif" font-size="10.00">/home/runner/work/cbmc</text>
<text text-anchor="start" x="2833" y="-174.5" font-family="Helvetica,sans-Serif" font-size="10.00">&#45;documentation/cbmc&#45;documentation</text>
<text text-anchor="middle" x="2925" y="-163.5" font-family="Helvetica,sans-Serif" font-size="10.00">/src/goto&#45;cc/goto_cc_cmdline.cpp</text>
</a>
</g>
</g>
<!-- Node1&#45;&gt;Node19 -->
<g id="edge24" class="edge">
<title>Node1&#45;&gt;Node19</title>
<path fill="none" stroke="midnightblue" d="M2272.03,-247.81C2402.29,-239.75 2625.57,-223.56 2816,-198 2818.96,-197.6 2821.95,-197.18 2824.98,-196.74"/>
<polygon fill="midnightblue" stroke="midnightblue" points="2271.81,-244.32 2262.05,-248.43 2272.24,-251.31 2271.81,-244.32"/>
</g>
<!-- Node20 -->
<g id="node20" class="node">
<title>Node20</title>
<g id="a_node20"><a xlink:href="ld__cmdline_8h.html" target="_top" xlink:title=" ">
<polygon fill="none" stroke="black" points="1735,-156.5 1735,-197.5 1935,-197.5 1935,-156.5 1735,-156.5"/>
<text text-anchor="start" x="1743" y="-185.5" font-family="Helvetica,sans-Serif" font-size="10.00">/home/runner/work/cbmc</text>
<text text-anchor="start" x="1743" y="-174.5" font-family="Helvetica,sans-Serif" font-size="10.00">&#45;documentation/cbmc&#45;documentation</text>
<text text-anchor="middle" x="1835" y="-163.5" font-family="Helvetica,sans-Serif" font-size="10.00">/src/goto&#45;cc/ld_cmdline.h</text>
</a>
</g>
</g>
<!-- Node1&#45;&gt;Node20 -->
<g id="edge25" class="edge">
<title>Node1&#45;&gt;Node20</title>
<path fill="none" stroke="midnightblue" d="M2067.91,-232.13C2020.88,-221.2 1964.46,-208.09 1918.93,-197.51"/>
<polygon fill="midnightblue" stroke="midnightblue" points="2067.26,-235.57 2077.79,-234.43 2068.84,-228.76 2067.26,-235.57"/>
</g>
<!-- Node22 -->
<g id="node22" class="node">
<title>Node22</title>
<g id="a_node22"><a xlink:href="ms__cl__cmdline_8h.html" target="_top" xlink:title=" ">
<polygon fill="none" stroke="black" points="1953,-156.5 1953,-197.5 2153,-197.5 2153,-156.5 1953,-156.5"/>
<text text-anchor="start" x="1961" y="-185.5" font-family="Helvetica,sans-Serif" font-size="10.00">/home/runner/work/cbmc</text>
<text text-anchor="start" x="1961" y="-174.5" font-family="Helvetica,sans-Serif" font-size="10.00">&#45;documentation/cbmc&#45;documentation</text>
<text text-anchor="middle" x="2053" y="-163.5" font-family="Helvetica,sans-Serif" font-size="10.00">/src/goto&#45;cc/ms_cl_cmdline.h</text>
</a>
</g>
</g>
<!-- Node1&#45;&gt;Node22 -->
<g id="edge28" class="edge">
<title>Node1&#45;&gt;Node22</title>
<path fill="none" stroke="midnightblue" d="M2125.62,-228.64C2111.07,-218.49 2094.57,-206.98 2080.98,-197.51"/>
<polygon fill="midnightblue" stroke="midnightblue" points="2123.73,-231.58 2133.93,-234.43 2127.73,-225.84 2123.73,-231.58"/>
</g>
<!-- Node26 -->
<g id="node26" class="node">
<title>Node26</title>
<g id="a_node26"><a xlink:href="ms__link__cmdline_8h.html" target="_top" xlink:title=" ">
<polygon fill="none" stroke="black" points="2171,-156.5 2171,-197.5 2371,-197.5 2371,-156.5 2171,-156.5"/>
<text text-anchor="start" x="2179" y="-185.5" font-family="Helvetica,sans-Serif" font-size="10.00">/home/runner/work/cbmc</text>
<text text-anchor="start" x="2179" y="-174.5" font-family="Helvetica,sans-Serif" font-size="10.00">&#45;documentation/cbmc&#45;documentation</text>
<text text-anchor="middle" x="2271" y="-163.5" font-family="Helvetica,sans-Serif" font-size="10.00">/src/goto&#45;cc/ms_link_cmdline.h</text>
</a>
</g>
</g>
<!-- Node1&#45;&gt;Node26 -->
<g id="edge34" class="edge">
<title>Node1&#45;&gt;Node26</title>
<path fill="none" stroke="midnightblue" d="M2198.38,-228.64C2212.93,-218.49 2229.43,-206.98 2243.02,-197.51"/>
<polygon fill="midnightblue" stroke="midnightblue" points="2196.27,-225.84 2190.07,-234.43 2200.27,-231.58 2196.27,-225.84"/>
</g>
<!-- Node28 -->
<g id="node28" class="node">
<title>Node28</title>
<g id="a_node28"><a xlink:href="goto__cc__mode_8cpp.html" target="_top" xlink:title=" ">
<polygon fill="none" stroke="black" points="3043,-156.5 3043,-197.5 3243,-197.5 3243,-156.5 3043,-156.5"/>
<text text-anchor="start" x="3051" y="-185.5" font-family="Helvetica,sans-Serif" font-size="10.00">/home/runner/work/cbmc</text>
<text text-anchor="start" x="3051" y="-174.5" font-family="Helvetica,sans-Serif" font-size="10.00">&#45;documentation/cbmc&#45;documentation</text>
<text text-anchor="middle" x="3143" y="-163.5" font-family="Helvetica,sans-Serif" font-size="10.00">/src/goto&#45;cc/goto_cc_mode.cpp</text>
</a>
</g>
</g>
<!-- Node1&#45;&gt;Node28 -->
<g id="edge37" class="edge">
<title>Node1&#45;&gt;Node28</title>
<path fill="none" stroke="midnightblue" d="M2272.28,-251.06C2438.12,-245.71 2761.36,-231.65 3034,-198 3036.96,-197.63 3039.96,-197.24 3042.99,-196.82"/>
<polygon fill="midnightblue" stroke="midnightblue" points="2271.96,-247.57 2262.07,-251.39 2272.18,-254.57 2271.96,-247.57"/>
</g>
<!-- Node29 -->
<g id="node29" class="node">
<title>Node29</title>
<g id="a_node29"><a xlink:href="ld__mode_8cpp.html" target="_top" xlink:title=" ">
<polygon fill="none" stroke="black" points="3261,-156.5 3261,-197.5 3461,-197.5 3461,-156.5 3261,-156.5"/>
<text text-anchor="start" x="3269" y="-185.5" font-family="Helvetica,sans-Serif" font-size="10.00">/home/runner/work/cbmc</text>
<text text-anchor="start" x="3269" y="-174.5" font-family="Helvetica,sans-Serif" font-size="10.00">&#45;documentation/cbmc&#45;documentation</text>
<text text-anchor="middle" x="3361" y="-163.5" font-family="Helvetica,sans-Serif" font-size="10.00">/src/goto&#45;cc/ld_mode.cpp</text>
</a>
</g>
</g>
<!-- Node1&#45;&gt;Node29 -->
<g id="edge38" class="edge">
<title>Node1&#45;&gt;Node29</title>
<path fill="none" stroke="midnightblue" d="M2272.38,-253.07C2469.65,-250.35 2895.44,-239.69 3252,-198 3254.96,-197.65 3257.96,-197.28 3260.99,-196.87"/>
<polygon fill="midnightblue" stroke="midnightblue" points="2272.25,-249.57 2262.3,-253.2 2272.35,-256.57 2272.25,-249.57"/>
</g>
<!-- Node30 -->
<g id="node30" class="node">
<title>Node30</title>
<g id="a_node30"><a xlink:href="ms__link__mode_8cpp.html" target="_top" xlink:title=" ">
<polygon fill="none" stroke="black" points="3479,-156.5 3479,-197.5 3679,-197.5 3679,-156.5 3479,-156.5"/>
<text text-anchor="start" x="3487" y="-185.5" font-family="Helvetica,sans-Serif" font-size="10.00">/home/runner/work/cbmc</text>
<text text-anchor="start" x="3487" y="-174.5" font-family="Helvetica,sans-Serif" font-size="10.00">&#45;documentation/cbmc&#45;documentation</text>
<text text-anchor="middle" x="3579" y="-163.5" font-family="Helvetica,sans-Serif" font-size="10.00">/src/goto&#45;cc/ms_link_mode.cpp</text>
</a>
</g>
</g>
<!-- Node1&#45;&gt;Node30 -->
<g id="edge39" class="edge">
<title>Node1&#45;&gt;Node30</title>
<path fill="none" stroke="midnightblue" d="M2272.23,-254.43C2497.83,-254.17 3028.17,-247.75 3470,-198 3472.96,-197.67 3475.97,-197.3 3479,-196.91"/>
<polygon fill="midnightblue" stroke="midnightblue" points="2272.05,-250.93 2262.05,-254.43 2272.05,-257.93 2272.05,-250.93"/>
</g>
<!-- Node3 -->
<g id="node3" class="node">
<title>Node3</title>
<g id="a_node3"><a xlink:href="armcc__cmdline_8cpp.html" target="_top" xlink:title=" ">
<polygon fill="none" stroke="black" points="0,-78.5 0,-119.5 200,-119.5 200,-78.5 0,-78.5"/>
<text text-anchor="start" x="8" y="-107.5" font-family="Helvetica,sans-Serif" font-size="10.00">/home/runner/work/cbmc</text>
<text text-anchor="start" x="8" y="-96.5" font-family="Helvetica,sans-Serif" font-size="10.00">&#45;documentation/cbmc&#45;documentation</text>
<text text-anchor="middle" x="100" y="-85.5" font-family="Helvetica,sans-Serif" font-size="10.00">/src/goto&#45;cc/armcc_cmdline.cpp</text>
</a>
</g>
</g>
<!-- Node2&#45;&gt;Node3 -->
<g id="edge2" class="edge">
<title>Node2&#45;&gt;Node3</title>
<path fill="none" stroke="midnightblue" d="M308.6,-153.92C266.49,-143.04 216.14,-130.02 175.46,-119.51"/>
<polygon fill="midnightblue" stroke="midnightblue" points="307.73,-157.31 318.29,-156.43 309.48,-150.54 307.73,-157.31"/>
</g>
<!-- Node4 -->
<g id="node4" class="node">
<title>Node4</title>
<g id="a_node4"><a xlink:href="armcc__mode_8h.html" target="_top" xlink:title=" ">
<polygon fill="none" stroke="black" points="218,-78.5 218,-119.5 418,-119.5 418,-78.5 218,-78.5"/>
<text text-anchor="start" x="226" y="-107.5" font-family="Helvetica,sans-Serif" font-size="10.00">/home/runner/work/cbmc</text>
<text text-anchor="start" x="226" y="-96.5" font-family="Helvetica,sans-Serif" font-size="10.00">&#45;documentation/cbmc&#45;documentation</text>
<text text-anchor="middle" x="318" y="-85.5" font-family="Helvetica,sans-Serif" font-size="10.00">/src/goto&#45;cc/armcc_mode.h</text>
</a>
</g>
</g>
<!-- Node2&#45;&gt;Node4 -->
<g id="edge3" class="edge">
<title>Node2&#45;&gt;Node4</title>
<path fill="none" stroke="midnightblue" d="M367.2,-149.2C357.42,-139.42 346.54,-128.54 337.51,-119.51"/>
<polygon fill="midnightblue" stroke="midnightblue" points="364.88,-151.83 374.43,-156.43 369.83,-146.88 364.88,-151.83"/>
</g>
<!-- Node6 -->
<g id="node6" class="node">
<title>Node6</title>
<g id="a_node6"><a xlink:href="goto__cc__main_8cpp.html" target="_top" xlink:title=" ">
<polygon fill="none" stroke="black" points="1325,-0.5 1325,-41.5 1525,-41.5 1525,-0.5 1325,-0.5"/>
<text text-anchor="start" x="1333" y="-29.5" font-family="Helvetica,sans-Serif" font-size="10.00">/home/runner/work/cbmc</text>
<text text-anchor="start" x="1333" y="-18.5" font-family="Helvetica,sans-Serif" font-size="10.00">&#45;documentation/cbmc&#45;documentation</text>
<text text-anchor="middle" x="1425" y="-7.5" font-family="Helvetica,sans-Serif" font-size="10.00">/src/goto&#45;cc/goto_cc_main.cpp</text>
</a>
</g>
</g>
<!-- Node2&#45;&gt;Node6 -->
<g id="edge6" class="edge">
<title>Node2&#45;&gt;Node6</title>
<path fill="none" stroke="midnightblue" d="M410.75,-147.58C426.71,-121.58 450.41,-85.99 465,-78 538.95,-37.5 1093.91,-26.05 1324.75,-23.02"/>
<polygon fill="midnightblue" stroke="midnightblue" points="407.64,-145.95 405.45,-156.31 413.63,-149.58 407.64,-145.95"/>
</g>
<!-- Node5 -->
<g id="node5" class="node">
<title>Node5</title>
<g id="a_node5"><a xlink:href="armcc__mode_8cpp.html" target="_top" xlink:title=" ">
<polygon fill="none" stroke="black" points="218,-0.5 218,-41.5 418,-41.5 418,-0.5 218,-0.5"/>
<text text-anchor="start" x="226" y="-29.5" font-family="Helvetica,sans-Serif" font-size="10.00">/home/runner/work/cbmc</text>
<text text-anchor="start" x="226" y="-18.5" font-family="Helvetica,sans-Serif" font-size="10.00">&#45;documentation/cbmc&#45;documentation</text>
<text text-anchor="middle" x="318" y="-7.5" font-family="Helvetica,sans-Serif" font-size="10.00">/src/goto&#45;cc/armcc_mode.cpp</text>
</a>
</g>
</g>
<!-- Node4&#45;&gt;Node5 -->
<g id="edge4" class="edge">
<title>Node4&#45;&gt;Node5</title>
<path fill="none" stroke="midnightblue" d="M318,-68.3C318,-59.3 318,-49.65 318,-41.51"/>
<polygon fill="midnightblue" stroke="midnightblue" points="314.5,-68.43 318,-78.43 321.5,-68.43 314.5,-68.43"/>
</g>
<!-- Node4&#45;&gt;Node6 -->
<g id="edge5" class="edge">
<title>Node4&#45;&gt;Node6</title>
<path fill="none" stroke="midnightblue" d="M428.62,-78.4C429.75,-78.26 430.88,-78.13 432,-78 757.26,-40.43 1145.5,-27.79 1324.95,-23.76"/>
<polygon fill="midnightblue" stroke="midnightblue" points="427.77,-74.98 418.3,-79.73 428.67,-81.92 427.77,-74.98"/>
</g>
<!-- Node7&#45;&gt;Node6 -->
<g id="edge9" class="edge">
<title>Node7&#45;&gt;Node6</title>
<path fill="none" stroke="midnightblue" d="M795.58,-151.91C781.09,-144.07 767.96,-133.7 759,-120 748.78,-104.38 746.37,-91.74 759,-78 796.48,-37.24 1148.32,-26.13 1324.9,-23.12"/>
<polygon fill="midnightblue" stroke="midnightblue" points="794.23,-155.15 804.74,-156.47 797.35,-148.88 794.23,-155.15"/>
</g>
<!-- Node8 -->
<g id="node8" class="node">
<title>Node8</title>
<g id="a_node8"><a xlink:href="as86__cmdline_8cpp.html" target="_top" xlink:title=" ">
<polygon fill="none" stroke="black" points="768,-78.5 768,-119.5 968,-119.5 968,-78.5 768,-78.5"/>
<text text-anchor="start" x="776" y="-107.5" font-family="Helvetica,sans-Serif" font-size="10.00">/home/runner/work/cbmc</text>
<text text-anchor="start" x="776" y="-96.5" font-family="Helvetica,sans-Serif" font-size="10.00">&#45;documentation/cbmc&#45;documentation</text>
<text text-anchor="middle" x="868" y="-85.5" font-family="Helvetica,sans-Serif" font-size="10.00">/src/goto&#45;cc/as86_cmdline.cpp</text>
</a>
</g>
</g>
<!-- Node7&#45;&gt;Node8 -->
<g id="edge8" class="edge">
<title>Node7&#45;&gt;Node8</title>
<path fill="none" stroke="midnightblue" d="M879.65,-146.59C877.38,-137.51 874.94,-127.74 872.88,-119.51"/>
<polygon fill="midnightblue" stroke="midnightblue" points="876.29,-147.58 882.11,-156.43 883.08,-145.88 876.29,-147.58"/>
</g>
<!-- Node9&#45;&gt;Node6 -->
<g id="edge12" class="edge">
<title>Node9&#45;&gt;Node6</title>
<path fill="none" stroke="midnightblue" d="M1049.17,-151.52C1035.57,-143.62 1023.14,-133.33 1015,-120 1005.27,-104.07 1002.73,-92.06 1015,-78 1035.12,-54.94 1210.06,-37.77 1324.83,-28.87"/>
<polygon fill="midnightblue" stroke="midnightblue" points="1047.77,-154.74 1058.24,-156.37 1051.08,-148.57 1047.77,-154.74"/>
</g>
<!-- Node10 -->
<g id="node10" class="node">
<title>Node10</title>
<g id="a_node10"><a xlink:href="as__cmdline_8cpp.html" target="_top" xlink:title=" ">
<polygon fill="none" stroke="black" points="1024,-78.5 1024,-119.5 1224,-119.5 1224,-78.5 1024,-78.5"/>
<text text-anchor="start" x="1032" y="-107.5" font-family="Helvetica,sans-Serif" font-size="10.00">/home/runner/work/cbmc</text>
<text text-anchor="start" x="1032" y="-96.5" font-family="Helvetica,sans-Serif" font-size="10.00">&#45;documentation/cbmc&#45;documentation</text>
<text text-anchor="middle" x="1124" y="-85.5" font-family="Helvetica,sans-Serif" font-size="10.00">/src/goto&#45;cc/as_cmdline.cpp</text>
</a>
</g>
</g>
<!-- Node9&#45;&gt;Node10 -->
<g id="edge11" class="edge">
<title>Node9&#45;&gt;Node10</title>
<path fill="none" stroke="midnightblue" d="M1124,-146.3C1124,-137.3 1124,-127.65 1124,-119.51"/>
<polygon fill="midnightblue" stroke="midnightblue" points="1120.5,-146.43 1124,-156.43 1127.5,-146.43 1120.5,-146.43"/>
</g>
<!-- Node12&#45;&gt;Node6 -->
<g id="edge16" class="edge">
<title>Node12&#45;&gt;Node6</title>
<path fill="none" stroke="midnightblue" d="M683.12,-147.15C696.06,-124.14 717.53,-93.32 746,-78 795.67,-51.28 1148.3,-33.29 1324.83,-25.85"/>
<polygon fill="midnightblue" stroke="midnightblue" points="679.93,-145.69 678.26,-156.15 686.09,-149.01 679.93,-145.69"/>
</g>
<!-- Node13 -->
<g id="node13" class="node">
<title>Node13</title>
<g id="a_node13"><a xlink:href="bcc__cmdline_8cpp.html" target="_top" xlink:title=" ">
<polygon fill="none" stroke="black" points="474,-78.5 474,-119.5 674,-119.5 674,-78.5 474,-78.5"/>
<text text-anchor="start" x="482" y="-107.5" font-family="Helvetica,sans-Serif" font-size="10.00">/home/runner/work/cbmc</text>
<text text-anchor="start" x="482" y="-96.5" font-family="Helvetica,sans-Serif" font-size="10.00">&#45;documentation/cbmc&#45;documentation</text>
<text text-anchor="middle" x="574" y="-85.5" font-family="Helvetica,sans-Serif" font-size="10.00">/src/goto&#45;cc/bcc_cmdline.cpp</text>
</a>
</g>
</g>
<!-- Node12&#45;&gt;Node13 -->
<g id="edge15" class="edge">
<title>Node12&#45;&gt;Node13</title>
<path fill="none" stroke="midnightblue" d="M636.58,-150.06C624.07,-140.06 610.01,-128.8 598.38,-119.51"/>
<polygon fill="midnightblue" stroke="midnightblue" points="634.54,-152.91 644.54,-156.43 638.91,-147.45 634.54,-152.91"/>
</g>
<!-- Node14&#45;&gt;Node6 -->
<g id="edge22" class="edge">
<title>Node14&#45;&gt;Node6</title>
<path fill="none" stroke="midnightblue" d="M1511.06,-148.55C1503.81,-139.6 1495.9,-129.51 1489,-120 1469.79,-93.52 1449.43,-61.59 1436.96,-41.53"/>
<polygon fill="midnightblue" stroke="midnightblue" points="1508.44,-150.88 1517.48,-156.41 1513.86,-146.46 1508.44,-150.88"/>
</g>
<!-- Node15 -->
<g id="node15" class="node">
<title>Node15</title>
<g id="a_node15"><a xlink:href="cw__mode_8h.html" target="_top" xlink:title=" ">
<polygon fill="none" stroke="black" points="1498,-78.5 1498,-119.5 1698,-119.5 1698,-78.5 1498,-78.5"/>
<text text-anchor="start" x="1506" y="-107.5" font-family="Helvetica,sans-Serif" font-size="10.00">/home/runner/work/cbmc</text>
<text text-anchor="start" x="1506" y="-96.5" font-family="Helvetica,sans-Serif" font-size="10.00">&#45;documentation/cbmc&#45;documentation</text>
<text text-anchor="middle" x="1598" y="-85.5" font-family="Helvetica,sans-Serif" font-size="10.00">/src/goto&#45;cc/cw_mode.h</text>
</a>
</g>
</g>
<!-- Node14&#45;&gt;Node15 -->
<g id="edge18" class="edge">
<title>Node14&#45;&gt;Node15</title>
<path fill="none" stroke="midnightblue" d="M1557.05,-148.63C1565.17,-138.99 1574.12,-128.36 1581.57,-119.51"/>
<polygon fill="midnightblue" stroke="midnightblue" points="1554.25,-146.52 1550.48,-156.43 1559.6,-151.03 1554.25,-146.52"/>
</g>
<!-- Node17 -->
<g id="node17" class="node">
<title>Node17</title>
<g id="a_node17"><a xlink:href="gcc__cmdline_8cpp.html" target="_top" xlink:title=" ">
<polygon fill="none" stroke="black" points="1242,-78.5 1242,-119.5 1442,-119.5 1442,-78.5 1242,-78.5"/>
<text text-anchor="start" x="1250" y="-107.5" font-family="Helvetica,sans-Serif" font-size="10.00">/home/runner/work/cbmc</text>
<text text-anchor="start" x="1250" y="-96.5" font-family="Helvetica,sans-Serif" font-size="10.00">&#45;documentation/cbmc&#45;documentation</text>
<text text-anchor="middle" x="1342" y="-85.5" font-family="Helvetica,sans-Serif" font-size="10.00">/src/goto&#45;cc/gcc_cmdline.cpp</text>
</a>
</g>
</g>
<!-- Node14&#45;&gt;Node17 -->
<g id="edge21" class="edge">
<title>Node14&#45;&gt;Node17</title>
<path fill="none" stroke="midnightblue" d="M1474.91,-152.61C1448.11,-142 1416.78,-129.6 1391.28,-119.51"/>
<polygon fill="midnightblue" stroke="midnightblue" points="1473.97,-156 1484.56,-156.43 1476.55,-149.49 1473.97,-156"/>
</g>
<!-- Node15&#45;&gt;Node6 -->
<g id="edge20" class="edge">
<title>Node15&#45;&gt;Node6</title>
<path fill="none" stroke="midnightblue" d="M1544.12,-74.33C1520.11,-63.78 1492.18,-51.51 1469.4,-41.51"/>
<polygon fill="midnightblue" stroke="midnightblue" points="1542.88,-77.61 1553.45,-78.43 1545.7,-71.2 1542.88,-77.61"/>
</g>
<!-- Node16 -->
<g id="node16" class="node">
<title>Node16</title>
<g id="a_node16"><a xlink:href="cw__mode_8cpp.html" target="_top" xlink:title=" ">
<polygon fill="none" stroke="black" points="1543,-0.5 1543,-41.5 1743,-41.5 1743,-0.5 1543,-0.5"/>
<text text-anchor="start" x="1551" y="-29.5" font-family="Helvetica,sans-Serif" font-size="10.00">/home/runner/work/cbmc</text>
<text text-anchor="start" x="1551" y="-18.5" font-family="Helvetica,sans-Serif" font-size="10.00">&#45;documentation/cbmc&#45;documentation</text>
<text text-anchor="middle" x="1643" y="-7.5" font-family="Helvetica,sans-Serif" font-size="10.00">/src/goto&#45;cc/cw_mode.cpp</text>
</a>
</g>
</g>
<!-- Node15&#45;&gt;Node16 -->
<g id="edge19" class="edge">
<title>Node15&#45;&gt;Node16</title>
<path fill="none" stroke="midnightblue" d="M1614.72,-69.76C1620.29,-60.35 1626.36,-50.1 1631.45,-41.51"/>
<polygon fill="midnightblue" stroke="midnightblue" points="1611.67,-68.04 1609.59,-78.43 1617.7,-71.61 1611.67,-68.04"/>
</g>
<!-- Node20&#45;&gt;Node6 -->
<g id="edge26" class="edge">
<title>Node20&#45;&gt;Node6</title>
<path fill="none" stroke="midnightblue" d="M1894.16,-151.12C1906.49,-143.07 1917.88,-132.81 1925,-120 1934.07,-103.68 1937.58,-91.79 1925,-78 1895.6,-45.77 1577.22,-47.94 1534,-42 1531.05,-41.59 1528.05,-41.16 1525.03,-40.71"/>
<polygon fill="midnightblue" stroke="midnightblue" points="1892.26,-148.18 1885.52,-156.35 1895.89,-154.17 1892.26,-148.18"/>
</g>
<!-- Node21 -->
<g id="node21" class="node">
<title>Node21</title>
<g id="a_node21"><a xlink:href="ld__cmdline_8cpp.html" target="_top" xlink:title=" ">
<polygon fill="none" stroke="black" points="1716,-78.5 1716,-119.5 1916,-119.5 1916,-78.5 1716,-78.5"/>
<text text-anchor="start" x="1724" y="-107.5" font-family="Helvetica,sans-Serif" font-size="10.00">/home/runner/work/cbmc</text>
<text text-anchor="start" x="1724" y="-96.5" font-family="Helvetica,sans-Serif" font-size="10.00">&#45;documentation/cbmc&#45;documentation</text>
<text text-anchor="middle" x="1816" y="-85.5" font-family="Helvetica,sans-Serif" font-size="10.00">/src/goto&#45;cc/ld_cmdline.cpp</text>
</a>
</g>
</g>
<!-- Node20&#45;&gt;Node21 -->
<g id="edge27" class="edge">
<title>Node20&#45;&gt;Node21</title>
<path fill="none" stroke="midnightblue" d="M1827.65,-146.59C1825.38,-137.51 1822.94,-127.74 1820.88,-119.51"/>
<polygon fill="midnightblue" stroke="midnightblue" points="1824.29,-147.58 1830.11,-156.43 1831.08,-145.88 1824.29,-147.58"/>
</g>
<!-- Node22&#45;&gt;Node6 -->
<g id="edge29" class="edge">
<title>Node22&#45;&gt;Node6</title>
<path fill="none" stroke="midnightblue" d="M2144.42,-151.91C2158.91,-144.07 2172.04,-133.7 2181,-120 2191.22,-104.38 2193.83,-91.56 2181,-78 2131.52,-25.69 1605.49,-50.51 1534,-42 1531.04,-41.65 1528.04,-41.26 1525.01,-40.86"/>
<polygon fill="midnightblue" stroke="midnightblue" points="2142.65,-148.88 2135.26,-156.47 2145.77,-155.15 2142.65,-148.88"/>
</g>
<!-- Node23 -->
<g id="node23" class="node">
<title>Node23</title>
<g id="a_node23"><a xlink:href="ms__cl__mode_8h.html" target="_top" xlink:title=" ">
<polygon fill="none" stroke="black" points="2228,-78.5 2228,-119.5 2428,-119.5 2428,-78.5 2228,-78.5"/>
<text text-anchor="start" x="2236" y="-107.5" font-family="Helvetica,sans-Serif" font-size="10.00">/home/runner/work/cbmc</text>
<text text-anchor="start" x="2236" y="-96.5" font-family="Helvetica,sans-Serif" font-size="10.00">&#45;documentation/cbmc&#45;documentation</text>
<text text-anchor="middle" x="2328" y="-85.5" font-family="Helvetica,sans-Serif" font-size="10.00">/src/goto&#45;cc/ms_cl_mode.h</text>
</a>
</g>
</g>
<!-- Node22&#45;&gt;Node23 -->
<g id="edge30" class="edge">
<title>Node22&#45;&gt;Node23</title>
<path fill="none" stroke="midnightblue" d="M2133.62,-153.72C2172.86,-142.87 2219.61,-129.96 2257.42,-119.51"/>
<polygon fill="midnightblue" stroke="midnightblue" points="2132.53,-150.39 2123.82,-156.43 2134.39,-157.14 2132.53,-150.39"/>
</g>
<!-- Node25 -->
<g id="node25" class="node">
<title>Node25</title>
<g id="a_node25"><a xlink:href="ms__cl__cmdline_8cpp.html" target="_top" xlink:title=" ">
<polygon fill="none" stroke="black" points="1972,-78.5 1972,-119.5 2172,-119.5 2172,-78.5 1972,-78.5"/>
<text text-anchor="start" x="1980" y="-107.5" font-family="Helvetica,sans-Serif" font-size="10.00">/home/runner/work/cbmc</text>
<text text-anchor="start" x="1980" y="-96.5" font-family="Helvetica,sans-Serif" font-size="10.00">&#45;documentation/cbmc&#45;documentation</text>
<text text-anchor="middle" x="2072" y="-85.5" font-family="Helvetica,sans-Serif" font-size="10.00">/src/goto&#45;cc/ms_cl_cmdline.cpp</text>
</a>
</g>
</g>
<!-- Node22&#45;&gt;Node25 -->
<g id="edge33" class="edge">
<title>Node22&#45;&gt;Node25</title>
<path fill="none" stroke="midnightblue" d="M2060.35,-146.59C2062.62,-137.51 2065.06,-127.74 2067.12,-119.51"/>
<polygon fill="midnightblue" stroke="midnightblue" points="2056.92,-145.88 2057.89,-156.43 2063.71,-147.58 2056.92,-145.88"/>
</g>
<!-- Node23&#45;&gt;Node6 -->
<g id="edge31" class="edge">
<title>Node23&#45;&gt;Node6</title>
<path fill="none" stroke="midnightblue" d="M2217.39,-78.4C2216.25,-78.26 2215.12,-78.13 2214,-78 1913.29,-43.79 1834.57,-77.38 1534,-42 1531.04,-41.65 1528.04,-41.27 1525.01,-40.87"/>
<polygon fill="midnightblue" stroke="midnightblue" points="2217.34,-81.92 2227.7,-79.71 2218.22,-74.97 2217.34,-81.92"/>
</g>
<!-- Node24 -->
<g id="node24" class="node">
<title>Node24</title>
<g id="a_node24"><a xlink:href="ms__cl__mode_8cpp.html" target="_top" xlink:title=" ">
<polygon fill="none" stroke="black" points="2228,-0.5 2228,-41.5 2428,-41.5 2428,-0.5 2228,-0.5"/>
<text text-anchor="start" x="2236" y="-29.5" font-family="Helvetica,sans-Serif" font-size="10.00">/home/runner/work/cbmc</text>
<text text-anchor="start" x="2236" y="-18.5" font-family="Helvetica,sans-Serif" font-size="10.00">&#45;documentation/cbmc&#45;documentation</text>
<text text-anchor="middle" x="2328" y="-7.5" font-family="Helvetica,sans-Serif" font-size="10.00">/src/goto&#45;cc/ms_cl_mode.cpp</text>
</a>
</g>
</g>
<!-- Node23&#45;&gt;Node24 -->
<g id="edge32" class="edge">
<title>Node23&#45;&gt;Node24</title>
<path fill="none" stroke="midnightblue" d="M2328,-68.3C2328,-59.3 2328,-49.65 2328,-41.51"/>
<polygon fill="midnightblue" stroke="midnightblue" points="2324.5,-68.43 2328,-78.43 2331.5,-68.43 2324.5,-68.43"/>
</g>
<!-- Node26&#45;&gt;Node6 -->
<g id="edge35" class="edge">
<title>Node26&#45;&gt;Node6</title>
<path fill="none" stroke="midnightblue" d="M2381.08,-155.98C2516.92,-137.82 2741.22,-167.04 2655,-78 2611.65,-33.24 1595.95,-48.64 1534,-42 1531.13,-41.69 1528.22,-41.35 1525.29,-40.98"/>
<polygon fill="midnightblue" stroke="midnightblue" points="2380.44,-152.54 2371.05,-157.44 2381.45,-159.46 2380.44,-152.54"/>
</g>
<!-- Node27 -->
<g id="node27" class="node">
<title>Node27</title>
<g id="a_node27"><a xlink:href="ms__link__cmdline_8cpp.html" target="_top" xlink:title=" ">
<polygon fill="none" stroke="black" points="2446,-78.5 2446,-119.5 2646,-119.5 2646,-78.5 2446,-78.5"/>
<text text-anchor="start" x="2454" y="-107.5" font-family="Helvetica,sans-Serif" font-size="10.00">/home/runner/work/cbmc</text>
<text text-anchor="start" x="2454" y="-96.5" font-family="Helvetica,sans-Serif" font-size="10.00">&#45;documentation/cbmc&#45;documentation</text>
<text text-anchor="middle" x="2546" y="-85.5" font-family="Helvetica,sans-Serif" font-size="10.00">/src/goto&#45;cc/ms_link_cmdline.cpp</text>
</a>
</g>
</g>
<!-- Node26&#45;&gt;Node27 -->
<g id="edge36" class="edge">
<title>Node26&#45;&gt;Node27</title>
<path fill="none" stroke="midnightblue" d="M2351.62,-153.72C2390.86,-142.87 2437.61,-129.96 2475.42,-119.51"/>
<polygon fill="midnightblue" stroke="midnightblue" points="2350.53,-150.39 2341.82,-156.43 2352.39,-157.14 2350.53,-150.39"/>
</g>
</g>
</svg>
