<?xml version="1.0" encoding="UTF-8" standalone="no"?>
<!DOCTYPE svg PUBLIC "-//W3C//DTD SVG 1.1//EN"
 "http://www.w3.org/Graphics/SVG/1.1/DTD/svg11.dtd">
<!-- Generated by graphviz version 2.43.0 (0)
 -->
<!-- Title: /home/runner/work/cbmc&#45;documentation/cbmc&#45;documentation/src/analyses/guard_bdd.cpp Pages: 1 -->
<svg width="1220pt" height="699pt"
 viewBox="0.00 0.00 1220.22 699.00" xmlns="http://www.w3.org/2000/svg" xmlns:xlink="http://www.w3.org/1999/xlink">
<g id="graph0" class="graph" transform="scale(1 1) rotate(0) translate(4 695)">
<title>/home/runner/work/cbmc&#45;documentation/cbmc&#45;documentation/src/analyses/guard_bdd.cpp</title>
<!-- Node1 -->
<g id="node1" class="node">
<title>Node1</title>
<g id="a_node1"><a xlink:title=" ">
<polygon fill="#bfbfbf" stroke="black" points="754,-649.5 754,-690.5 954,-690.5 954,-649.5 754,-649.5"/>
<text text-anchor="start" x="762" y="-678.5" font-family="Helvetica,sans-Serif" font-size="10.00">/home/runner/work/cbmc</text>
<text text-anchor="start" x="762" y="-667.5" font-family="Helvetica,sans-Serif" font-size="10.00">&#45;documentation/cbmc&#45;documentation</text>
<text text-anchor="middle" x="854" y="-656.5" font-family="Helvetica,sans-Serif" font-size="10.00">/src/analyses/guard_bdd.cpp</text>
</a>
</g>
</g>
<!-- Node2 -->
<g id="node2" class="node">
<title>Node2</title>
<g id="a_node2"><a xlink:href="guard__bdd_8h.html" target="_top" xlink:title=" ">
<polygon fill="none" stroke="black" points="271.5,-593.5 271.5,-612.5 348.5,-612.5 348.5,-593.5 271.5,-593.5"/>
<text text-anchor="middle" x="310" y="-600.5" font-family="Helvetica,sans-Serif" font-size="10.00">guard_bdd.h</text>
</a>
</g>
</g>
<!-- Node1&#45;&gt;Node2 -->
<g id="edge1" class="edge">
<title>Node1&#45;&gt;Node2</title>
<path fill="none" stroke="midnightblue" d="M753.75,-659.99C655.52,-650.64 501.36,-634.57 358.92,-613.2"/>
<polygon fill="midnightblue" stroke="midnightblue" points="359.1,-609.69 348.69,-611.65 358.05,-616.61 359.1,-609.69"/>
</g>
<!-- Node13 -->
<g id="node13" class="node">
<title>Node13</title>
<g id="a_node13"><a xlink:title=" ">
<polygon fill="none" stroke="#bfbfbf" points="982,-56.5 982,-97.5 1182,-97.5 1182,-56.5 982,-56.5"/>
<text text-anchor="start" x="990" y="-85.5" font-family="Helvetica,sans-Serif" font-size="10.00">/home/runner/work/cbmc</text>
<text text-anchor="start" x="990" y="-74.5" font-family="Helvetica,sans-Serif" font-size="10.00">&#45;documentation/cbmc&#45;documentation</text>
<text text-anchor="middle" x="1082" y="-63.5" font-family="Helvetica,sans-Serif" font-size="10.00">/src/util/invariant.h</text>
</a>
</g>
</g>
<!-- Node1&#45;&gt;Node13 -->
<g id="edge12" class="edge">
<title>Node1&#45;&gt;Node13</title>
<path fill="none" stroke="midnightblue" d="M954.18,-650.74C1047.39,-630.82 1172,-595.33 1172,-548 1172,-548 1172,-548 1172,-210 1172,-167.59 1139.89,-128.75 1114.03,-104.35"/>
<polygon fill="midnightblue" stroke="midnightblue" points="1116.34,-101.71 1106.59,-97.55 1111.62,-106.88 1116.34,-101.71"/>
</g>
<!-- Node14 -->
<g id="node14" class="node">
<title>Node14</title>
<g id="a_node14"><a xlink:title=" ">
<polygon fill="none" stroke="#bfbfbf" points="1023,-0.5 1023,-19.5 1087,-19.5 1087,-0.5 1023,-0.5"/>
<text text-anchor="middle" x="1055" y="-7.5" font-family="Helvetica,sans-Serif" font-size="10.00">algorithm</text>
</a>
</g>
</g>
<!-- Node1&#45;&gt;Node14 -->
<g id="edge13" class="edge">
<title>Node1&#45;&gt;Node14</title>
<path fill="none" stroke="midnightblue" d="M954.11,-654.9C1059.41,-637.18 1210,-602.34 1210,-548 1210,-548 1210,-548 1210,-148.5 1210,-106.53 1218.89,-87.36 1191,-56 1167.32,-29.37 1127.53,-18.45 1097.09,-14"/>
<polygon fill="midnightblue" stroke="midnightblue" points="1097.53,-10.53 1087.17,-12.73 1096.64,-17.47 1097.53,-10.53"/>
</g>
<!-- Node15 -->
<g id="node15" class="node">
<title>Node15</title>
<g id="a_node15"><a xlink:href="bdd__expr_8h.html" target="_top" xlink:title="Binary decision diagram.">
<polygon fill="none" stroke="black" points="366.5,-593.5 366.5,-612.5 499.5,-612.5 499.5,-593.5 366.5,-593.5"/>
<text text-anchor="middle" x="433" y="-600.5" font-family="Helvetica,sans-Serif" font-size="10.00">solvers/prop/bdd_expr.h</text>
</a>
</g>
</g>
<!-- Node1&#45;&gt;Node15 -->
<g id="edge14" class="edge">
<title>Node1&#45;&gt;Node15</title>
<path fill="none" stroke="midnightblue" d="M753.96,-653.55C674.85,-641.34 566.71,-624.64 498.35,-614.09"/>
<polygon fill="midnightblue" stroke="midnightblue" points="498.57,-610.58 488.15,-612.51 497.5,-617.5 498.57,-610.58"/>
</g>
<!-- Node42 -->
<g id="node32" class="node">
<title>Node42</title>
<g id="a_node32"><a xlink:href="expr__util_8h.html" target="_top" xlink:title="Deprecated expression utility functions.">
<polygon fill="none" stroke="black" points="726.5,-425.5 726.5,-444.5 813.5,-444.5 813.5,-425.5 726.5,-425.5"/>
<text text-anchor="middle" x="770" y="-432.5" font-family="Helvetica,sans-Serif" font-size="10.00">util/expr_util.h</text>
</a>
</g>
</g>
<!-- Node1&#45;&gt;Node42 -->
<g id="edge45" class="edge">
<title>Node1&#45;&gt;Node42</title>
<path fill="none" stroke="midnightblue" d="M863.8,-649.45C870.25,-634 876.57,-611.94 871,-593 854.1,-535.48 808.89,-479.11 785.1,-452.26"/>
<polygon fill="midnightblue" stroke="midnightblue" points="787.5,-449.69 778.2,-444.62 782.3,-454.39 787.5,-449.69"/>
</g>
<!-- Node43 -->
<g id="node33" class="node">
<title>Node43</title>
<g id="a_node33"><a xlink:href="std__expr_8h.html" target="_top" xlink:title=" ">
<polygon fill="none" stroke="black" points="776,-593.5 776,-612.5 862,-612.5 862,-593.5 776,-593.5"/>
<text text-anchor="middle" x="819" y="-600.5" font-family="Helvetica,sans-Serif" font-size="10.00">util/std_expr.h</text>
</a>
</g>
</g>
<!-- Node1&#45;&gt;Node43 -->
<g id="edge48" class="edge">
<title>Node1&#45;&gt;Node43</title>
<path fill="none" stroke="midnightblue" d="M843.5,-649.5C838.7,-640.59 833.06,-630.11 828.4,-621.46"/>
<polygon fill="midnightblue" stroke="midnightblue" points="831.48,-619.8 823.66,-612.65 825.32,-623.12 831.48,-619.8"/>
</g>
<!-- Node3 -->
<g id="node3" class="node">
<title>Node3</title>
<g id="a_node3"><a xlink:href="bdd_8h.html" target="_top" xlink:title=" ">
<polygon fill="none" stroke="black" points="260.5,-537.5 260.5,-556.5 363.5,-556.5 363.5,-537.5 260.5,-537.5"/>
<text text-anchor="middle" x="312" y="-544.5" font-family="Helvetica,sans-Serif" font-size="10.00">solvers/bdd/bdd.h</text>
</a>
</g>
</g>
<!-- Node2&#45;&gt;Node3 -->
<g id="edge2" class="edge">
<title>Node2&#45;&gt;Node3</title>
<path fill="none" stroke="midnightblue" d="M310.33,-593.08C310.59,-586.01 310.97,-575.86 311.3,-566.99"/>
<polygon fill="midnightblue" stroke="midnightblue" points="314.8,-566.87 311.68,-556.75 307.81,-566.61 314.8,-566.87"/>
</g>
<!-- Node4 -->
<g id="node4" class="node">
<title>Node4</title>
<g id="a_node4"><a xlink:href="bdd__mini_b_d_d_8h.html" target="_top" xlink:title=" ">
<polygon fill="none" stroke="black" points="266,-481.5 266,-500.5 358,-500.5 358,-481.5 266,-481.5"/>
<text text-anchor="middle" x="312" y="-488.5" font-family="Helvetica,sans-Serif" font-size="10.00">bdd_miniBDD.h</text>
</a>
</g>
</g>
<!-- Node3&#45;&gt;Node4 -->
<g id="edge3" class="edge">
<title>Node3&#45;&gt;Node4</title>
<path fill="none" stroke="midnightblue" d="M312,-537.08C312,-530.01 312,-519.86 312,-510.99"/>
<polygon fill="midnightblue" stroke="midnightblue" points="315.5,-510.75 312,-500.75 308.5,-510.75 315.5,-510.75"/>
</g>
<!-- Node5 -->
<g id="node5" class="node">
<title>Node5</title>
<g id="a_node5"><a xlink:title=" ">
<polygon fill="none" stroke="#bfbfbf" points="341.5,-425.5 341.5,-444.5 434.5,-444.5 434.5,-425.5 341.5,-425.5"/>
<text text-anchor="middle" x="388" y="-432.5" font-family="Helvetica,sans-Serif" font-size="10.00">unordered_map</text>
</a>
</g>
</g>
<!-- Node4&#45;&gt;Node5 -->
<g id="edge4" class="edge">
<title>Node4&#45;&gt;Node5</title>
<path fill="none" stroke="midnightblue" d="M324.21,-481.32C335.78,-473.11 353.38,-460.6 367.16,-450.81"/>
<polygon fill="midnightblue" stroke="midnightblue" points="369.44,-453.48 375.57,-444.83 365.39,-447.77 369.44,-453.48"/>
</g>
<!-- Node6 -->
<g id="node6" class="node">
<title>Node6</title>
<g id="a_node6"><a xlink:href="mini_b_d_d_8h.html" target="_top" xlink:title="Small BDD implementation.">
<polygon fill="none" stroke="black" points="125.5,-134.5 125.5,-164.5 244.5,-164.5 244.5,-134.5 125.5,-134.5"/>
<text text-anchor="start" x="133.5" y="-152.5" font-family="Helvetica,sans-Serif" font-size="10.00">solvers/bdd/miniBDD</text>
<text text-anchor="middle" x="185" y="-141.5" font-family="Helvetica,sans-Serif" font-size="10.00">/miniBDD.h</text>
</a>
</g>
</g>
<!-- Node4&#45;&gt;Node6 -->
<g id="edge5" class="edge">
<title>Node4&#45;&gt;Node6</title>
<path fill="none" stroke="midnightblue" d="M294.7,-481.45C265.6,-465.72 210,-429.22 210,-380 210,-380 210,-380 210,-266 210,-233.62 200.5,-197.26 193.21,-174.14"/>
<polygon fill="midnightblue" stroke="midnightblue" points="196.5,-172.93 190.06,-164.51 189.84,-175.11 196.5,-172.93"/>
</g>
<!-- Node7 -->
<g id="node7" class="node">
<title>Node7</title>
<g id="a_node7"><a xlink:title=" ">
<polygon fill="none" stroke="#bfbfbf" points="213,-67.5 213,-86.5 245,-86.5 245,-67.5 213,-67.5"/>
<text text-anchor="middle" x="229" y="-74.5" font-family="Helvetica,sans-Serif" font-size="10.00">list</text>
</a>
</g>
</g>
<!-- Node6&#45;&gt;Node7 -->
<g id="edge6" class="edge">
<title>Node6&#45;&gt;Node7</title>
<path fill="none" stroke="midnightblue" d="M193.9,-134.23C200.88,-123.06 210.61,-107.46 218.06,-95.52"/>
<polygon fill="midnightblue" stroke="midnightblue" points="221.12,-97.23 223.45,-86.89 215.19,-93.52 221.12,-97.23"/>
</g>
<!-- Node8 -->
<g id="node8" class="node">
<title>Node8</title>
<g id="a_node8"><a xlink:title=" ">
<polygon fill="none" stroke="#bfbfbf" points="0,-67.5 0,-86.5 38,-86.5 38,-67.5 0,-67.5"/>
<text text-anchor="middle" x="19" y="-74.5" font-family="Helvetica,sans-Serif" font-size="10.00">map</text>
</a>
</g>
</g>
<!-- Node6&#45;&gt;Node8 -->
<g id="edge7" class="edge">
<title>Node6&#45;&gt;Node8</title>
<path fill="none" stroke="midnightblue" d="M137.02,-134.47C109.84,-125.67 75.66,-113.12 47,-98 43.94,-96.38 40.82,-94.47 37.84,-92.48"/>
<polygon fill="midnightblue" stroke="midnightblue" points="39.64,-89.47 29.46,-86.5 35.57,-95.16 39.64,-89.47"/>
</g>
<!-- Node9 -->
<g id="node9" class="node">
<title>Node9</title>
<g id="a_node9"><a xlink:title=" ">
<polygon fill="none" stroke="#bfbfbf" points="56.5,-67.5 56.5,-86.5 99.5,-86.5 99.5,-67.5 56.5,-67.5"/>
<text text-anchor="middle" x="78" y="-74.5" font-family="Helvetica,sans-Serif" font-size="10.00">stack</text>
</a>
</g>
</g>
<!-- Node6&#45;&gt;Node9 -->
<g id="edge8" class="edge">
<title>Node6&#45;&gt;Node9</title>
<path fill="none" stroke="midnightblue" d="M163.4,-134.39C147.95,-124.29 126.67,-110.34 108,-98 105.18,-96.14 102.22,-94.17 99.29,-92.22"/>
<polygon fill="midnightblue" stroke="midnightblue" points="101.1,-89.22 90.83,-86.59 97.21,-95.04 101.1,-89.22"/>
</g>
<!-- Node10 -->
<g id="node10" class="node">
<title>Node10</title>
<g id="a_node10"><a xlink:title=" ">
<polygon fill="none" stroke="#bfbfbf" points="626,-67.5 626,-86.5 670,-86.5 670,-67.5 626,-67.5"/>
<text text-anchor="middle" x="648" y="-74.5" font-family="Helvetica,sans-Serif" font-size="10.00">string</text>
</a>
</g>
</g>
<!-- Node6&#45;&gt;Node10 -->
<g id="edge9" class="edge">
<title>Node6&#45;&gt;Node10</title>
<path fill="none" stroke="midnightblue" d="M244.71,-144.75C346.45,-137.83 548.91,-121.55 616,-98 620.24,-96.51 624.51,-94.38 628.48,-92.07"/>
<polygon fill="midnightblue" stroke="midnightblue" points="630.57,-94.89 637.07,-86.53 626.77,-89 630.57,-94.89"/>
</g>
<!-- Node11 -->
<g id="node11" class="node">
<title>Node11</title>
<g id="a_node11"><a xlink:title=" ">
<polygon fill="none" stroke="#bfbfbf" points="688.5,-67.5 688.5,-86.5 735.5,-86.5 735.5,-67.5 688.5,-67.5"/>
<text text-anchor="middle" x="712" y="-74.5" font-family="Helvetica,sans-Serif" font-size="10.00">vector</text>
</a>
</g>
</g>
<!-- Node6&#45;&gt;Node11 -->
<g id="edge10" class="edge">
<title>Node6&#45;&gt;Node11</title>
<path fill="none" stroke="midnightblue" d="M244.82,-145.68C358.15,-139.79 599.91,-124.5 679,-98 683.48,-96.5 688,-94.31 692.19,-91.92"/>
<polygon fill="midnightblue" stroke="midnightblue" points="694.1,-94.85 700.71,-86.57 690.38,-88.92 694.1,-94.85"/>
</g>
<!-- Node12 -->
<g id="node12" class="node">
<title>Node12</title>
<g id="a_node12"><a xlink:title=" ">
<polygon fill="none" stroke="#bfbfbf" points="117.5,-67.5 117.5,-86.5 194.5,-86.5 194.5,-67.5 117.5,-67.5"/>
<text text-anchor="middle" x="156" y="-74.5" font-family="Helvetica,sans-Serif" font-size="10.00">miniBDD.inc</text>
</a>
</g>
</g>
<!-- Node6&#45;&gt;Node12 -->
<g id="edge11" class="edge">
<title>Node6&#45;&gt;Node12</title>
<path fill="none" stroke="midnightblue" d="M179.13,-134.23C174.63,-123.28 168.37,-108.07 163.5,-96.24"/>
<polygon fill="midnightblue" stroke="midnightblue" points="166.7,-94.81 159.66,-86.89 160.23,-97.47 166.7,-94.81"/>
</g>
<!-- Node15&#45;&gt;Node3 -->
<g id="edge43" class="edge">
<title>Node15&#45;&gt;Node3</title>
<path fill="none" stroke="midnightblue" d="M413.83,-593.44C394.09,-584.64 363.11,-570.81 340.51,-560.72"/>
<polygon fill="midnightblue" stroke="midnightblue" points="341.64,-557.4 331.08,-556.52 338.79,-563.79 341.64,-557.4"/>
</g>
<!-- Node15&#45;&gt;Node5 -->
<g id="edge44" class="edge">
<title>Node15&#45;&gt;Node5</title>
<path fill="none" stroke="midnightblue" d="M429.92,-593.44C426.74,-584.43 421.72,-569.81 418,-557 407.54,-520.93 397.47,-478.17 392.08,-454.36"/>
<polygon fill="midnightblue" stroke="midnightblue" points="395.49,-453.56 389.88,-444.57 388.66,-455.09 395.49,-453.56"/>
</g>
<!-- Node16 -->
<g id="node16" class="node">
<title>Node16</title>
<g id="a_node16"><a xlink:href="expr_8h.html" target="_top" xlink:title=" ">
<polygon fill="none" stroke="black" points="452.5,-425.5 452.5,-444.5 517.5,-444.5 517.5,-425.5 452.5,-425.5"/>
<text text-anchor="middle" x="485" y="-432.5" font-family="Helvetica,sans-Serif" font-size="10.00">util/expr.h</text>
</a>
</g>
</g>
<!-- Node15&#45;&gt;Node16 -->
<g id="edge15" class="edge">
<title>Node15&#45;&gt;Node16</title>
<path fill="none" stroke="midnightblue" d="M435.8,-593.08C444.02,-566.83 468.23,-489.55 479.32,-454.12"/>
<polygon fill="midnightblue" stroke="midnightblue" points="482.67,-455.16 482.32,-444.57 475.99,-453.06 482.67,-455.16"/>
</g>
<!-- Node17 -->
<g id="node17" class="node">
<title>Node17</title>
<g id="a_node17"><a xlink:href="as__const_8h.html" target="_top" xlink:title=" ">
<polygon fill="none" stroke="black" points="666,-0.5 666,-19.5 734,-19.5 734,-0.5 666,-0.5"/>
<text text-anchor="middle" x="700" y="-7.5" font-family="Helvetica,sans-Serif" font-size="10.00">as_const.h</text>
</a>
</g>
</g>
<!-- Node16&#45;&gt;Node17 -->
<g id="edge16" class="edge">
<title>Node16&#45;&gt;Node17</title>
<path fill="none" stroke="midnightblue" d="M452.31,-426.58C399.05,-414.44 299.11,-391.43 296,-389 267.51,-366.74 254.54,-346.94 267,-313 318.6,-172.39 356.29,-132.6 485,-56 538.05,-24.43 609.99,-14.79 655.7,-11.97"/>
<polygon fill="midnightblue" stroke="midnightblue" points="656.09,-15.46 665.89,-11.43 655.72,-8.47 656.09,-15.46"/>
</g>
<!-- Node18 -->
<g id="node18" class="node">
<title>Node18</title>
<g id="a_node18"><a xlink:href="type_8h.html" target="_top" xlink:title=" ">
<polygon fill="none" stroke="black" points="461.5,-369.5 461.5,-388.5 508.5,-388.5 508.5,-369.5 461.5,-369.5"/>
<text text-anchor="middle" x="485" y="-376.5" font-family="Helvetica,sans-Serif" font-size="10.00">type.h</text>
</a>
</g>
</g>
<!-- Node16&#45;&gt;Node18 -->
<g id="edge17" class="edge">
<title>Node16&#45;&gt;Node18</title>
<path fill="none" stroke="midnightblue" d="M485,-425.08C485,-418.01 485,-407.86 485,-398.99"/>
<polygon fill="midnightblue" stroke="midnightblue" points="488.5,-398.75 485,-388.75 481.5,-398.75 488.5,-398.75"/>
</g>
<!-- Node38 -->
<g id="node28" class="node">
<title>Node38</title>
<g id="a_node28"><a xlink:href="validation__mode_8h.html" target="_top" xlink:title=" ">
<polygon fill="none" stroke="black" points="430.5,-257.5 430.5,-276.5 537.5,-276.5 537.5,-257.5 430.5,-257.5"/>
<text text-anchor="middle" x="484" y="-264.5" font-family="Helvetica,sans-Serif" font-size="10.00">validation_mode.h</text>
</a>
</g>
</g>
<!-- Node16&#45;&gt;Node38 -->
<g id="edge41" class="edge">
<title>Node16&#45;&gt;Node38</title>
<path fill="none" stroke="midnightblue" d="M494.02,-425.34C502.07,-416.93 513.3,-403.36 518,-389 529.99,-352.37 509.24,-308.67 495.23,-285.11"/>
<polygon fill="midnightblue" stroke="midnightblue" points="498.18,-283.22 489.92,-276.58 492.24,-286.92 498.18,-283.22"/>
</g>
<!-- Node39 -->
<g id="node29" class="node">
<title>Node39</title>
<g id="a_node29"><a xlink:href="validate__types_8h.html" target="_top" xlink:title=" ">
<polygon fill="none" stroke="black" points="276,-313.5 276,-332.5 374,-332.5 374,-313.5 276,-313.5"/>
<text text-anchor="middle" x="325" y="-320.5" font-family="Helvetica,sans-Serif" font-size="10.00">validate_types.h</text>
</a>
</g>
</g>
<!-- Node16&#45;&gt;Node39 -->
<g id="edge40" class="edge">
<title>Node16&#45;&gt;Node39</title>
<path fill="none" stroke="midnightblue" d="M452.09,-426.31C400.78,-414.25 307.3,-391.94 305,-389 294.15,-375.11 302.76,-355.31 311.82,-341.22"/>
<polygon fill="midnightblue" stroke="midnightblue" points="314.77,-343.11 317.64,-332.91 309.04,-339.09 314.77,-343.11"/>
</g>
<!-- Node40 -->
<g id="node30" class="node">
<title>Node40</title>
<g id="a_node30"><a xlink:href="validate__expressions_8h.html" target="_top" xlink:title=" ">
<polygon fill="none" stroke="black" points="314.5,-369.5 314.5,-388.5 443.5,-388.5 443.5,-369.5 314.5,-369.5"/>
<text text-anchor="middle" x="379" y="-376.5" font-family="Helvetica,sans-Serif" font-size="10.00">validate_expressions.h</text>
</a>
</g>
</g>
<!-- Node16&#45;&gt;Node40 -->
<g id="edge39" class="edge">
<title>Node16&#45;&gt;Node40</title>
<path fill="none" stroke="midnightblue" d="M467.97,-425.32C450.97,-416.66 424.62,-403.24 405.01,-393.25"/>
<polygon fill="midnightblue" stroke="midnightblue" points="406.49,-390.08 395.99,-388.65 403.31,-396.31 406.49,-390.08"/>
</g>
<!-- Node41 -->
<g id="node31" class="node">
<title>Node41</title>
<g id="a_node31"><a xlink:title=" ">
<polygon fill="none" stroke="#bfbfbf" points="604.5,-369.5 604.5,-388.5 669.5,-388.5 669.5,-369.5 604.5,-369.5"/>
<text text-anchor="middle" x="637" y="-376.5" font-family="Helvetica,sans-Serif" font-size="10.00">functional</text>
</a>
</g>
</g>
<!-- Node16&#45;&gt;Node41 -->
<g id="edge42" class="edge">
<title>Node16&#45;&gt;Node41</title>
<path fill="none" stroke="midnightblue" d="M509.08,-425.44C534.54,-416.4 574.89,-402.06 603.46,-391.92"/>
<polygon fill="midnightblue" stroke="midnightblue" points="604.78,-395.16 613.03,-388.52 602.43,-388.57 604.78,-395.16"/>
</g>
<!-- Node19 -->
<g id="node19" class="node">
<title>Node19</title>
<g id="a_node19"><a xlink:href="source__location_8h.html" target="_top" xlink:title=" ">
<polygon fill="none" stroke="black" points="519,-201.5 519,-220.5 621,-220.5 621,-201.5 519,-201.5"/>
<text text-anchor="middle" x="570" y="-208.5" font-family="Helvetica,sans-Serif" font-size="10.00">source_location.h</text>
</a>
</g>
</g>
<!-- Node18&#45;&gt;Node19 -->
<g id="edge18" class="edge">
<title>Node18&#45;&gt;Node19</title>
<path fill="none" stroke="midnightblue" d="M473.97,-369.25C449.21,-348.55 393.51,-295.44 422,-257 441.91,-230.13 477.47,-218.76 508.74,-214.16"/>
<polygon fill="midnightblue" stroke="midnightblue" points="509.24,-217.62 518.72,-212.89 508.36,-210.68 509.24,-217.62"/>
</g>
<!-- Node36 -->
<g id="node25" class="node">
<title>Node36</title>
<g id="a_node25"><a xlink:href="validate_8h.html" target="_top" xlink:title=" ">
<polygon fill="none" stroke="black" points="565.5,-313.5 565.5,-332.5 630.5,-332.5 630.5,-313.5 565.5,-313.5"/>
<text text-anchor="middle" x="598" y="-320.5" font-family="Helvetica,sans-Serif" font-size="10.00">validate.h</text>
</a>
</g>
</g>
<!-- Node18&#45;&gt;Node36 -->
<g id="edge30" class="edge">
<title>Node18&#45;&gt;Node36</title>
<path fill="none" stroke="midnightblue" d="M502.91,-369.44C521.25,-360.68 550.01,-346.94 571.09,-336.86"/>
<polygon fill="midnightblue" stroke="midnightblue" points="572.67,-339.99 580.18,-332.52 569.65,-333.67 572.67,-339.99"/>
</g>
<!-- Node18&#45;&gt;Node38 -->
<g id="edge38" class="edge">
<title>Node18&#45;&gt;Node38</title>
<path fill="none" stroke="midnightblue" d="M484.92,-369.37C484.76,-351.62 484.39,-310.67 484.17,-286.6"/>
<polygon fill="midnightblue" stroke="midnightblue" points="487.67,-286.56 484.08,-276.59 480.67,-286.62 487.67,-286.56"/>
</g>
<!-- Node18&#45;&gt;Node39 -->
<g id="edge37" class="edge">
<title>Node18&#45;&gt;Node39</title>
<path fill="none" stroke="midnightblue" d="M461.39,-370.03C434.57,-360.98 390.53,-346.12 359.77,-335.74"/>
<polygon fill="midnightblue" stroke="midnightblue" points="360.89,-332.42 350.29,-332.54 358.65,-339.05 360.89,-332.42"/>
</g>
<!-- Node19&#45;&gt;Node10 -->
<g id="edge29" class="edge">
<title>Node19&#45;&gt;Node10</title>
<path fill="none" stroke="midnightblue" d="M575.12,-201.34C587.79,-179.89 620.82,-123.99 637.72,-95.4"/>
<polygon fill="midnightblue" stroke="midnightblue" points="640.89,-96.91 642.96,-86.52 634.86,-93.35 640.89,-96.91"/>
</g>
<!-- Node20 -->
<g id="node20" class="node">
<title>Node20</title>
<g id="a_node20"><a xlink:href="irep_8h.html" target="_top" xlink:title=" ">
<polygon fill="none" stroke="black" points="770,-140 770,-159 814,-159 814,-140 770,-140"/>
<text text-anchor="middle" x="792" y="-147" font-family="Helvetica,sans-Serif" font-size="10.00">irep.h</text>
</a>
</g>
</g>
<!-- Node19&#45;&gt;Node20 -->
<g id="edge19" class="edge">
<title>Node19&#45;&gt;Node20</title>
<path fill="none" stroke="midnightblue" d="M601.81,-201.48C644.01,-190.16 718.07,-170.31 760.24,-159.01"/>
<polygon fill="midnightblue" stroke="midnightblue" points="761.24,-162.37 769.99,-156.4 759.42,-155.61 761.24,-162.37"/>
</g>
<!-- Node34 -->
<g id="node23" class="node">
<title>Node34</title>
<g id="a_node23"><a xlink:href="optional_8h.html" target="_top" xlink:title=" ">
<polygon fill="none" stroke="black" points="517.5,-140 517.5,-159 582.5,-159 582.5,-140 517.5,-140"/>
<text text-anchor="middle" x="550" y="-147" font-family="Helvetica,sans-Serif" font-size="10.00">optional.h</text>
</a>
</g>
</g>
<!-- Node19&#45;&gt;Node34 -->
<g id="edge27" class="edge">
<title>Node19&#45;&gt;Node34</title>
<path fill="none" stroke="midnightblue" d="M567.13,-201.48C564.28,-192.99 559.82,-179.7 556.16,-168.82"/>
<polygon fill="midnightblue" stroke="midnightblue" points="559.36,-167.37 552.86,-159.01 552.73,-169.6 559.36,-167.37"/>
</g>
<!-- Node20&#45;&gt;Node10 -->
<g id="edge20" class="edge">
<title>Node20&#45;&gt;Node10</title>
<path fill="none" stroke="midnightblue" d="M770.53,-139.84C747.68,-130.39 710.66,-114.4 680,-98 676.56,-96.16 672.99,-94.1 669.54,-92.01"/>
<polygon fill="midnightblue" stroke="midnightblue" points="671.18,-88.91 660.84,-86.58 667.47,-94.85 671.18,-88.91"/>
</g>
<!-- Node20&#45;&gt;Node11 -->
<g id="edge21" class="edge">
<title>Node20&#45;&gt;Node11</title>
<path fill="none" stroke="midnightblue" d="M782.19,-139.86C769.12,-128.33 745.75,-107.74 729.59,-93.5"/>
<polygon fill="midnightblue" stroke="midnightblue" points="731.71,-90.7 721.89,-86.72 727.08,-95.95 731.71,-90.7"/>
</g>
<!-- Node20&#45;&gt;Node13 -->
<g id="edge22" class="edge">
<title>Node20&#45;&gt;Node13</title>
<path fill="none" stroke="midnightblue" d="M814.09,-140.36C820.47,-138.15 827.47,-135.86 834,-134 879.49,-121.05 930.34,-109.14 974.1,-99.65"/>
<polygon fill="midnightblue" stroke="midnightblue" points="974.86,-103.07 983.9,-97.54 973.39,-96.22 974.86,-103.07"/>
</g>
<!-- Node21 -->
<g id="node21" class="node">
<title>Node21</title>
<g id="a_node21"><a xlink:href="irep__ids_8h.html" target="_top" xlink:title=" ">
<polygon fill="none" stroke="red" points="754,-67.5 754,-86.5 818,-86.5 818,-67.5 754,-67.5"/>
<text text-anchor="middle" x="786" y="-74.5" font-family="Helvetica,sans-Serif" font-size="10.00">irep_ids.h</text>
</a>
</g>
</g>
<!-- Node20&#45;&gt;Node21 -->
<g id="edge23" class="edge">
<title>Node20&#45;&gt;Node21</title>
<path fill="none" stroke="midnightblue" d="M791.26,-139.86C790.36,-129.18 788.78,-110.72 787.59,-96.73"/>
<polygon fill="midnightblue" stroke="midnightblue" points="791.08,-96.38 786.74,-86.72 784.1,-96.98 791.08,-96.38"/>
</g>
<!-- Node30 -->
<g id="node22" class="node">
<title>Node30</title>
<g id="a_node22"><a xlink:href="forward__list__as__map_8h.html" target="_top" xlink:title=" ">
<polygon fill="none" stroke="red" points="836.5,-67.5 836.5,-86.5 963.5,-86.5 963.5,-67.5 836.5,-67.5"/>
<text text-anchor="middle" x="900" y="-74.5" font-family="Helvetica,sans-Serif" font-size="10.00">forward_list_as_map.h</text>
</a>
</g>
</g>
<!-- Node20&#45;&gt;Node30 -->
<g id="edge24" class="edge">
<title>Node20&#45;&gt;Node30</title>
<path fill="none" stroke="midnightblue" d="M805.24,-139.86C823.38,-128.02 856.18,-106.6 878.03,-92.34"/>
<polygon fill="midnightblue" stroke="midnightblue" points="880.19,-95.11 886.65,-86.72 876.36,-89.25 880.19,-95.11"/>
</g>
<!-- Node30&#45;&gt;Node14 -->
<g id="edge25" class="edge">
<title>Node30&#45;&gt;Node14</title>
<path fill="none" stroke="midnightblue" d="M920.58,-67.37C947.33,-56.15 994.25,-36.48 1024.97,-23.59"/>
<polygon fill="midnightblue" stroke="midnightblue" points="1026.46,-26.76 1034.33,-19.67 1023.76,-20.31 1026.46,-26.76"/>
</g>
<!-- Node30&#45;&gt;Node17 -->
<g id="edge26" class="edge">
<title>Node30&#45;&gt;Node17</title>
<path fill="none" stroke="midnightblue" d="M873.44,-67.37C838.08,-55.88 775.41,-35.51 735.87,-22.66"/>
<polygon fill="midnightblue" stroke="midnightblue" points="736.94,-19.33 726.35,-19.56 734.78,-25.98 736.94,-19.33"/>
</g>
<!-- Node35 -->
<g id="node24" class="node">
<title>Node35</title>
<g id="a_node24"><a xlink:title=" ">
<polygon fill="none" stroke="#bfbfbf" points="493.5,-67.5 493.5,-86.5 606.5,-86.5 606.5,-67.5 493.5,-67.5"/>
<text text-anchor="middle" x="550" y="-74.5" font-family="Helvetica,sans-Serif" font-size="10.00">nonstd/optional.hpp</text>
</a>
</g>
</g>
<!-- Node34&#45;&gt;Node35 -->
<g id="edge28" class="edge">
<title>Node34&#45;&gt;Node35</title>
<path fill="none" stroke="midnightblue" d="M550,-139.86C550,-129.18 550,-110.72 550,-96.73"/>
<polygon fill="midnightblue" stroke="midnightblue" points="553.5,-96.72 550,-86.72 546.5,-96.72 553.5,-96.72"/>
</g>
<!-- Node33 -->
<g id="node26" class="node">
<title>Node33</title>
<g id="a_node26"><a xlink:title=" ">
<polygon fill="none" stroke="#bfbfbf" points="674.5,-257.5 674.5,-276.5 743.5,-276.5 743.5,-257.5 674.5,-257.5"/>
<text text-anchor="middle" x="709" y="-264.5" font-family="Helvetica,sans-Serif" font-size="10.00">type_traits</text>
</a>
</g>
</g>
<!-- Node36&#45;&gt;Node33 -->
<g id="edge31" class="edge">
<title>Node36&#45;&gt;Node33</title>
<path fill="none" stroke="midnightblue" d="M615.83,-313.32C633.72,-304.62 661.48,-291.12 682.05,-281.11"/>
<polygon fill="midnightblue" stroke="midnightblue" points="683.75,-284.18 691.21,-276.65 680.69,-277.88 683.75,-284.18"/>
</g>
<!-- Node37 -->
<g id="node27" class="node">
<title>Node37</title>
<g id="a_node27"><a xlink:href="exception__utils_8h.html" target="_top" xlink:title=" ">
<polygon fill="none" stroke="black" points="556,-257.5 556,-276.5 656,-276.5 656,-257.5 556,-257.5"/>
<text text-anchor="middle" x="606" y="-264.5" font-family="Helvetica,sans-Serif" font-size="10.00">exception_utils.h</text>
</a>
</g>
</g>
<!-- Node36&#45;&gt;Node37 -->
<g id="edge32" class="edge">
<title>Node36&#45;&gt;Node37</title>
<path fill="none" stroke="midnightblue" d="M599.32,-313.08C600.38,-305.93 601.91,-295.64 603.23,-286.69"/>
<polygon fill="midnightblue" stroke="midnightblue" points="606.7,-287.16 604.7,-276.75 599.78,-286.13 606.7,-287.16"/>
</g>
<!-- Node36&#45;&gt;Node38 -->
<g id="edge36" class="edge">
<title>Node36&#45;&gt;Node38</title>
<path fill="none" stroke="midnightblue" d="M579.94,-313.44C561.43,-304.68 532.42,-290.94 511.14,-280.86"/>
<polygon fill="midnightblue" stroke="midnightblue" points="512.51,-277.63 501.98,-276.52 509.52,-283.96 512.51,-277.63"/>
</g>
<!-- Node37&#45;&gt;Node10 -->
<g id="edge33" class="edge">
<title>Node37&#45;&gt;Node10</title>
<path fill="none" stroke="midnightblue" d="M611.78,-257.46C617.41,-248.7 625.71,-234.5 630,-221 643.66,-178.01 647,-124.67 647.79,-96.86"/>
<polygon fill="midnightblue" stroke="midnightblue" points="651.3,-96.68 647.99,-86.61 644.3,-96.54 651.3,-96.68"/>
</g>
<!-- Node37&#45;&gt;Node13 -->
<g id="edge34" class="edge">
<title>Node37&#45;&gt;Node13</title>
<path fill="none" stroke="midnightblue" d="M626.78,-257.39C665.93,-240.93 752.98,-203.24 823,-165 845.62,-152.65 848.39,-144.33 872,-134 904.25,-119.89 940.88,-108.63 974.42,-100.01"/>
<polygon fill="midnightblue" stroke="midnightblue" points="975.41,-103.37 984.26,-97.54 973.71,-96.59 975.41,-103.37"/>
</g>
<!-- Node37&#45;&gt;Node19 -->
<g id="edge35" class="edge">
<title>Node37&#45;&gt;Node19</title>
<path fill="none" stroke="midnightblue" d="M600.06,-257.08C595.02,-249.53 587.66,-238.49 581.49,-229.23"/>
<polygon fill="midnightblue" stroke="midnightblue" points="584.29,-227.13 575.83,-220.75 578.47,-231.01 584.29,-227.13"/>
</g>
<!-- Node42&#45;&gt;Node20 -->
<g id="edge46" class="edge">
<title>Node42&#45;&gt;Node20</title>
<path fill="none" stroke="midnightblue" d="M770.26,-425.44C770.8,-406.94 772,-361.82 772,-324 772,-324 772,-324 772,-266 772,-231.36 780.84,-191.71 786.77,-169.04"/>
<polygon fill="midnightblue" stroke="midnightblue" points="790.22,-169.67 789.47,-159.11 783.47,-167.84 790.22,-169.67"/>
</g>
<!-- Node42&#45;&gt;Node41 -->
<g id="edge47" class="edge">
<title>Node42&#45;&gt;Node41</title>
<path fill="none" stroke="midnightblue" d="M748.93,-425.44C726.94,-416.52 692.27,-402.44 667.34,-392.32"/>
<polygon fill="midnightblue" stroke="midnightblue" points="668.56,-389.04 657.98,-388.52 665.92,-395.52 668.56,-389.04"/>
</g>
<!-- Node43&#45;&gt;Node13 -->
<g id="edge55" class="edge">
<title>Node43&#45;&gt;Node13</title>
<path fill="none" stroke="midnightblue" d="M862.14,-598.95C948.41,-590.27 1134,-557.47 1134,-436 1134,-436 1134,-436 1134,-210 1134,-172.27 1115.38,-132.43 1100.42,-106.51"/>
<polygon fill="midnightblue" stroke="midnightblue" points="1103.25,-104.42 1095.12,-97.63 1097.24,-108.01 1103.25,-104.42"/>
</g>
<!-- Node44 -->
<g id="node34" class="node">
<title>Node44</title>
<g id="a_node34"><a xlink:href="expr__cast_8h.html" target="_top" xlink:title="Templated functions to cast to specific exprt&#45;derived classes.">
<polygon fill="none" stroke="black" points="642.5,-481.5 642.5,-500.5 715.5,-500.5 715.5,-481.5 642.5,-481.5"/>
<text text-anchor="middle" x="679" y="-488.5" font-family="Helvetica,sans-Serif" font-size="10.00">expr_cast.h</text>
</a>
</g>
</g>
<!-- Node43&#45;&gt;Node44 -->
<g id="edge49" class="edge">
<title>Node43&#45;&gt;Node44</title>
<path fill="none" stroke="midnightblue" d="M808.01,-593.37C784.19,-574.65 727.56,-530.15 697.88,-506.83"/>
<polygon fill="midnightblue" stroke="midnightblue" points="699.96,-504.02 689.93,-500.59 695.64,-509.52 699.96,-504.02"/>
</g>
<!-- Node46 -->
<g id="node36" class="node">
<title>Node46</title>
<g id="a_node36"><a xlink:href="std__types_8h.html" target="_top" xlink:title=" ">
<polygon fill="none" stroke="black" points="642.5,-537.5 642.5,-556.5 715.5,-556.5 715.5,-537.5 642.5,-537.5"/>
<text text-anchor="middle" x="679" y="-544.5" font-family="Helvetica,sans-Serif" font-size="10.00">std_types.h</text>
</a>
</g>
</g>
<!-- Node43&#45;&gt;Node46 -->
<g id="edge56" class="edge">
<title>Node43&#45;&gt;Node46</title>
<path fill="none" stroke="midnightblue" d="M796.82,-593.44C773.57,-584.48 736.85,-570.31 710.58,-560.18"/>
<polygon fill="midnightblue" stroke="midnightblue" points="711.67,-556.85 701.08,-556.52 709.15,-563.38 711.67,-556.85"/>
</g>
<!-- Node44&#45;&gt;Node13 -->
<g id="edge53" class="edge">
<title>Node44&#45;&gt;Node13</title>
<path fill="none" stroke="midnightblue" d="M715.59,-488.01C748.07,-484.29 794.65,-473.88 823,-445 844.08,-423.52 842,-410.1 842,-380 842,-380 842,-380 842,-322 842,-215.8 958.98,-138.96 1029.6,-102.25"/>
<polygon fill="midnightblue" stroke="midnightblue" points="1031.5,-105.21 1038.82,-97.54 1028.32,-98.97 1031.5,-105.21"/>
</g>
<!-- Node44&#45;&gt;Node16 -->
<g id="edge54" class="edge">
<title>Node44&#45;&gt;Node16</title>
<path fill="none" stroke="midnightblue" d="M648.26,-481.44C615.06,-472.2 562.01,-457.44 525.44,-447.26"/>
<polygon fill="midnightblue" stroke="midnightblue" points="526.17,-443.83 515.6,-444.52 524.29,-450.57 526.17,-443.83"/>
</g>
<!-- Node44&#45;&gt;Node33 -->
<g id="edge51" class="edge">
<title>Node44&#45;&gt;Node33</title>
<path fill="none" stroke="midnightblue" d="M680.18,-481.3C684.59,-448.63 700.23,-332.87 706.44,-286.96"/>
<polygon fill="midnightblue" stroke="midnightblue" points="709.93,-287.26 707.8,-276.88 702.99,-286.32 709.93,-287.26"/>
</g>
<!-- Node44&#45;&gt;Node41 -->
<g id="edge52" class="edge">
<title>Node44&#45;&gt;Node41</title>
<path fill="none" stroke="midnightblue" d="M675.7,-481.37C668.87,-463.46 653.01,-421.92 643.85,-397.95"/>
<polygon fill="midnightblue" stroke="midnightblue" points="647.12,-396.69 640.28,-388.59 640.58,-399.18 647.12,-396.69"/>
</g>
<!-- Node45 -->
<g id="node35" class="node">
<title>Node45</title>
<g id="a_node35"><a xlink:title=" ">
<polygon fill="none" stroke="#bfbfbf" points="574.5,-425.5 574.5,-444.5 631.5,-444.5 631.5,-425.5 574.5,-425.5"/>
<text text-anchor="middle" x="603" y="-432.5" font-family="Helvetica,sans-Serif" font-size="10.00">typeinfo</text>
</a>
</g>
</g>
<!-- Node44&#45;&gt;Node45 -->
<g id="edge50" class="edge">
<title>Node44&#45;&gt;Node45</title>
<path fill="none" stroke="midnightblue" d="M666.79,-481.32C655.22,-473.11 637.62,-460.6 623.84,-450.81"/>
<polygon fill="midnightblue" stroke="midnightblue" points="625.61,-447.77 615.43,-444.83 621.56,-453.48 625.61,-447.77"/>
</g>
<!-- Node46&#45;&gt;Node5 -->
<g id="edge65" class="edge">
<title>Node46&#45;&gt;Node5</title>
<path fill="none" stroke="midnightblue" d="M642.27,-539.11C606.87,-531.84 552.18,-518.94 507,-501 471.42,-486.88 433.03,-464.47 409.76,-450"/>
<polygon fill="midnightblue" stroke="midnightblue" points="411.37,-446.88 401.04,-444.52 407.64,-452.81 411.37,-446.88"/>
</g>
<!-- Node46&#45;&gt;Node13 -->
<g id="edge59" class="edge">
<title>Node46&#45;&gt;Node13</title>
<path fill="none" stroke="midnightblue" d="M715.64,-544.17C817.4,-538.1 1096,-514.34 1096,-436 1096,-436 1096,-436 1096,-210 1096,-174.76 1091,-134.51 1086.98,-107.82"/>
<polygon fill="midnightblue" stroke="midnightblue" points="1090.39,-106.95 1085.39,-97.61 1083.47,-108.03 1090.39,-106.95"/>
</g>
<!-- Node46&#45;&gt;Node16 -->
<g id="edge57" class="edge">
<title>Node46&#45;&gt;Node16</title>
<path fill="none" stroke="midnightblue" d="M642.27,-541.44C610.63,-536.04 565,-524.6 532,-501 514.88,-488.76 501.6,-468.32 493.58,-453.62"/>
<polygon fill="midnightblue" stroke="midnightblue" points="496.59,-451.82 488.9,-444.54 490.37,-455.03 496.59,-451.82"/>
</g>
<!-- Node46&#45;&gt;Node36 -->
<g id="edge64" class="edge">
<title>Node46&#45;&gt;Node36</title>
<path fill="none" stroke="midnightblue" d="M662.76,-537.5C636.58,-522.75 585.99,-489.67 566,-445 550.24,-409.79 571.73,-365.22 586.38,-341.21"/>
<polygon fill="midnightblue" stroke="midnightblue" points="589.49,-342.84 591.94,-332.53 583.6,-339.07 589.49,-342.84"/>
</g>
<!-- Node46&#45;&gt;Node44 -->
<g id="edge58" class="edge">
<title>Node46&#45;&gt;Node44</title>
<path fill="none" stroke="midnightblue" d="M679,-537.08C679,-530.01 679,-519.86 679,-510.99"/>
<polygon fill="midnightblue" stroke="midnightblue" points="682.5,-510.75 679,-500.75 675.5,-510.75 682.5,-510.75"/>
</g>
<!-- Node47 -->
<g id="node37" class="node">
<title>Node47</title>
<g id="a_node37"><a xlink:href="mp__arith_8h.html" target="_top" xlink:title=" ">
<polygon fill="none" stroke="black" points="920.5,-481.5 920.5,-500.5 989.5,-500.5 989.5,-481.5 920.5,-481.5"/>
<text text-anchor="middle" x="955" y="-488.5" font-family="Helvetica,sans-Serif" font-size="10.00">mp_arith.h</text>
</a>
</g>
</g>
<!-- Node46&#45;&gt;Node47 -->
<g id="edge60" class="edge">
<title>Node46&#45;&gt;Node47</title>
<path fill="none" stroke="midnightblue" d="M715.65,-538.83C765.93,-528.99 856.22,-511.33 910.38,-500.73"/>
<polygon fill="midnightblue" stroke="midnightblue" points="911.23,-504.13 920.38,-498.77 909.89,-497.26 911.23,-504.13"/>
</g>
<!-- Node47&#45;&gt;Node10 -->
<g id="edge62" class="edge">
<title>Node47&#45;&gt;Node10</title>
<path fill="none" stroke="midnightblue" d="M939.75,-481.4C927.07,-473.5 909.46,-460.66 899,-445 882.28,-419.98 880,-410.1 880,-380 880,-380 880,-380 880,-322 880,-260.55 723.51,-135.45 667.58,-92.7"/>
<polygon fill="midnightblue" stroke="midnightblue" points="669.59,-89.83 659.5,-86.57 665.35,-95.41 669.59,-89.83"/>
</g>
<!-- Node23 -->
<g id="node38" class="node">
<title>Node23</title>
<g id="a_node38"><a xlink:title=" ">
<polygon fill="none" stroke="#bfbfbf" points="1020,-425.5 1020,-444.5 1068,-444.5 1068,-425.5 1020,-425.5"/>
<text text-anchor="middle" x="1044" y="-432.5" font-family="Helvetica,sans-Serif" font-size="10.00">iosfwd</text>
</a>
</g>
</g>
<!-- Node47&#45;&gt;Node23 -->
<g id="edge61" class="edge">
<title>Node47&#45;&gt;Node23</title>
<path fill="none" stroke="midnightblue" d="M969.3,-481.32C983.18,-472.9 1004.49,-459.97 1020.8,-450.07"/>
<polygon fill="midnightblue" stroke="midnightblue" points="1023,-452.83 1029.74,-444.65 1019.37,-446.85 1023,-452.83"/>
</g>
<!-- Node48 -->
<g id="node39" class="node">
<title>Node48</title>
<g id="a_node39"><a xlink:title=" ">
<polygon fill="none" stroke="#bfbfbf" points="908,-425.5 908,-444.5 1002,-444.5 1002,-425.5 908,-425.5"/>
<text text-anchor="middle" x="955" y="-432.5" font-family="Helvetica,sans-Serif" font-size="10.00">big&#45;int/bigint.hh</text>
</a>
</g>
</g>
<!-- Node47&#45;&gt;Node48 -->
<g id="edge63" class="edge">
<title>Node47&#45;&gt;Node48</title>
<path fill="none" stroke="midnightblue" d="M955,-481.08C955,-474.01 955,-463.86 955,-454.99"/>
<polygon fill="midnightblue" stroke="midnightblue" points="958.5,-454.75 955,-444.75 951.5,-454.75 958.5,-454.75"/>
</g>
</g>
</svg>
