<?xml version="1.0" encoding="UTF-8" standalone="no"?>
<!DOCTYPE svg PUBLIC "-//W3C//DTD SVG 1.1//EN"
 "http://www.w3.org/Graphics/SVG/1.1/DTD/svg11.dtd">
<!-- Generated by graphviz version 2.43.0 (0)
 -->
<!-- Title: /home/runner/work/cbmc&#45;documentation/cbmc&#45;documentation/src/goto&#45;instrument/horn_encoding.h Pages: 1 -->
<svg width="436pt" height="139pt"
 viewBox="0.00 0.00 436.00 139.00" xmlns="http://www.w3.org/2000/svg" xmlns:xlink="http://www.w3.org/1999/xlink">
<g id="graph0" class="graph" transform="scale(1 1) rotate(0) translate(4 135)">
<title>/home/runner/work/cbmc&#45;documentation/cbmc&#45;documentation/src/goto&#45;instrument/horn_encoding.h</title>
<!-- Node1 -->
<g id="node1" class="node">
<title>Node1</title>
<g id="a_node1"><a xlink:title=" ">
<polygon fill="#bfbfbf" stroke="black" points="111,-89.5 111,-130.5 311,-130.5 311,-89.5 111,-89.5"/>
<text text-anchor="start" x="119" y="-118.5" font-family="Helvetica,sans-Serif" font-size="10.00">/home/runner/work/cbmc</text>
<text text-anchor="start" x="119" y="-107.5" font-family="Helvetica,sans-Serif" font-size="10.00">&#45;documentation/cbmc&#45;documentation</text>
<text text-anchor="middle" x="211" y="-96.5" font-family="Helvetica,sans-Serif" font-size="10.00">/src/goto&#45;instrument/horn_encoding.h</text>
</a>
</g>
</g>
<!-- Node2 -->
<g id="node2" class="node">
<title>Node2</title>
<g id="a_node2"><a xlink:href="goto__instrument__parse__options_8cpp.html" target="_top" xlink:title=" ">
<polygon fill="none" stroke="black" points="0,-0.5 0,-52.5 200,-52.5 200,-0.5 0,-0.5"/>
<text text-anchor="start" x="8" y="-40.5" font-family="Helvetica,sans-Serif" font-size="10.00">/home/runner/work/cbmc</text>
<text text-anchor="start" x="8" y="-29.5" font-family="Helvetica,sans-Serif" font-size="10.00">&#45;documentation/cbmc&#45;documentation</text>
<text text-anchor="start" x="8" y="-18.5" font-family="Helvetica,sans-Serif" font-size="10.00">/src/goto&#45;instrument/goto_instrument</text>
<text text-anchor="middle" x="100" y="-7.5" font-family="Helvetica,sans-Serif" font-size="10.00">_parse_options.cpp</text>
</a>
</g>
</g>
<!-- Node1&#45;&gt;Node2 -->
<g id="edge1" class="edge">
<title>Node1&#45;&gt;Node2</title>
<path fill="none" stroke="midnightblue" d="M175.98,-83.29C162.69,-73.53 147.59,-62.44 134.36,-52.73"/>
<polygon fill="midnightblue" stroke="midnightblue" points="174.28,-86.38 184.41,-89.48 178.42,-80.74 174.28,-86.38"/>
</g>
<!-- Node3 -->
<g id="node3" class="node">
<title>Node3</title>
<g id="a_node3"><a xlink:href="horn__encoding_8cpp.html" target="_top" xlink:title=" ">
<polygon fill="none" stroke="black" points="218,-6 218,-47 428,-47 428,-6 218,-6"/>
<text text-anchor="start" x="226" y="-35" font-family="Helvetica,sans-Serif" font-size="10.00">/home/runner/work/cbmc</text>
<text text-anchor="start" x="226" y="-24" font-family="Helvetica,sans-Serif" font-size="10.00">&#45;documentation/cbmc&#45;documentation</text>
<text text-anchor="middle" x="323" y="-13" font-family="Helvetica,sans-Serif" font-size="10.00">/src/goto&#45;instrument/horn_encoding.cpp</text>
</a>
</g>
</g>
<!-- Node1&#45;&gt;Node3 -->
<g id="edge2" class="edge">
<title>Node1&#45;&gt;Node3</title>
<path fill="none" stroke="midnightblue" d="M245.98,-83.54C262.12,-71.8 280.99,-58.07 296,-47.14"/>
<polygon fill="midnightblue" stroke="midnightblue" points="243.85,-80.76 237.83,-89.48 247.97,-86.42 243.85,-80.76"/>
</g>
</g>
</svg>
