<?xml version="1.0" encoding="UTF-8" standalone="no"?>
<!DOCTYPE svg PUBLIC "-//W3C//DTD SVG 1.1//EN"
 "http://www.w3.org/Graphics/SVG/1.1/DTD/svg11.dtd">
<!-- Generated by graphviz version 2.43.0 (0)
 -->
<!-- Title: /home/runner/work/cbmc&#45;documentation/cbmc&#45;documentation/src/goto&#45;programs/instrument_preconditions.h Pages: 1 -->
<svg width="1263pt" height="328pt"
 viewBox="0.00 0.00 1263.00 328.00" xmlns="http://www.w3.org/2000/svg" xmlns:xlink="http://www.w3.org/1999/xlink">
<g id="graph0" class="graph" transform="scale(1 1) rotate(0) translate(4 324)">
<title>/home/runner/work/cbmc&#45;documentation/cbmc&#45;documentation/src/goto&#45;programs/instrument_preconditions.h</title>
<!-- Node1 -->
<g id="node1" class="node">
<title>Node1</title>
<g id="a_node1"><a xlink:title=" ">
<polygon fill="#bfbfbf" stroke="black" points="609,-267.5 609,-319.5 809,-319.5 809,-267.5 609,-267.5"/>
<text text-anchor="start" x="617" y="-307.5" font-family="Helvetica,sans-Serif" font-size="10.00">/home/runner/work/cbmc</text>
<text text-anchor="start" x="617" y="-296.5" font-family="Helvetica,sans-Serif" font-size="10.00">&#45;documentation/cbmc&#45;documentation</text>
<text text-anchor="start" x="617" y="-285.5" font-family="Helvetica,sans-Serif" font-size="10.00">/src/goto&#45;programs/instrument</text>
<text text-anchor="middle" x="709" y="-274.5" font-family="Helvetica,sans-Serif" font-size="10.00">_preconditions.h</text>
</a>
</g>
</g>
<!-- Node2 -->
<g id="node2" class="node">
<title>Node2</title>
<g id="a_node2"><a xlink:href="contracts_8h.html" target="_top" xlink:title=" ">
<polygon fill="none" stroke="black" points="173,-178.5 173,-230.5 373,-230.5 373,-178.5 173,-178.5"/>
<text text-anchor="start" x="181" y="-218.5" font-family="Helvetica,sans-Serif" font-size="10.00">/home/runner/work/cbmc</text>
<text text-anchor="start" x="181" y="-207.5" font-family="Helvetica,sans-Serif" font-size="10.00">&#45;documentation/cbmc&#45;documentation</text>
<text text-anchor="start" x="181" y="-196.5" font-family="Helvetica,sans-Serif" font-size="10.00">/src/goto&#45;instrument/contracts</text>
<text text-anchor="middle" x="273" y="-185.5" font-family="Helvetica,sans-Serif" font-size="10.00">/contracts.h</text>
</a>
</g>
</g>
<!-- Node1&#45;&gt;Node2 -->
<g id="edge1" class="edge">
<title>Node1&#45;&gt;Node2</title>
<path fill="none" stroke="midnightblue" d="M598.91,-273.04C535.37,-261.5 454.03,-246.19 382,-231 379.05,-230.38 376.06,-229.74 373.05,-229.08"/>
<polygon fill="midnightblue" stroke="midnightblue" points="598.49,-276.52 608.95,-274.86 599.74,-269.63 598.49,-276.52"/>
</g>
<!-- Node10 -->
<g id="node10" class="node">
<title>Node10</title>
<g id="a_node10"><a xlink:href="instrument__preconditions_8cpp.html" target="_top" xlink:title=" ">
<polygon fill="none" stroke="black" points="391,-178.5 391,-230.5 591,-230.5 591,-178.5 391,-178.5"/>
<text text-anchor="start" x="399" y="-218.5" font-family="Helvetica,sans-Serif" font-size="10.00">/home/runner/work/cbmc</text>
<text text-anchor="start" x="399" y="-207.5" font-family="Helvetica,sans-Serif" font-size="10.00">&#45;documentation/cbmc&#45;documentation</text>
<text text-anchor="start" x="399" y="-196.5" font-family="Helvetica,sans-Serif" font-size="10.00">/src/goto&#45;programs/instrument</text>
<text text-anchor="middle" x="491" y="-185.5" font-family="Helvetica,sans-Serif" font-size="10.00">_preconditions.cpp</text>
</a>
</g>
</g>
<!-- Node1&#45;&gt;Node10 -->
<g id="edge10" class="edge">
<title>Node1&#45;&gt;Node10</title>
<path fill="none" stroke="midnightblue" d="M636.88,-263.72C609.98,-252.98 579.68,-240.89 553.7,-230.52"/>
<polygon fill="midnightblue" stroke="midnightblue" points="635.65,-267 646.24,-267.45 638.25,-260.5 635.65,-267"/>
</g>
<!-- Node11 -->
<g id="node11" class="node">
<title>Node11</title>
<g id="a_node11"><a xlink:href="process__goto__program_8cpp.html" target="_top" xlink:title=" ">
<polygon fill="none" stroke="black" points="609,-178.5 609,-230.5 809,-230.5 809,-178.5 609,-178.5"/>
<text text-anchor="start" x="617" y="-218.5" font-family="Helvetica,sans-Serif" font-size="10.00">/home/runner/work/cbmc</text>
<text text-anchor="start" x="617" y="-207.5" font-family="Helvetica,sans-Serif" font-size="10.00">&#45;documentation/cbmc&#45;documentation</text>
<text text-anchor="start" x="617" y="-196.5" font-family="Helvetica,sans-Serif" font-size="10.00">/src/goto&#45;programs/process_goto</text>
<text text-anchor="middle" x="709" y="-185.5" font-family="Helvetica,sans-Serif" font-size="10.00">_program.cpp</text>
</a>
</g>
</g>
<!-- Node1&#45;&gt;Node11 -->
<g id="edge11" class="edge">
<title>Node1&#45;&gt;Node11</title>
<path fill="none" stroke="midnightblue" d="M709,-257.19C709,-248.28 709,-238.9 709,-230.61"/>
<polygon fill="midnightblue" stroke="midnightblue" points="705.5,-257.34 709,-267.34 712.5,-257.34 705.5,-257.34"/>
</g>
<!-- Node12 -->
<g id="node12" class="node">
<title>Node12</title>
<g id="a_node12"><a xlink:href="jbmc__parse__options_8cpp.html" target="_top" xlink:title=" ">
<polygon fill="none" stroke="black" points="827.5,-184 827.5,-225 1036.5,-225 1036.5,-184 827.5,-184"/>
<text text-anchor="start" x="835.5" y="-213" font-family="Helvetica,sans-Serif" font-size="10.00">/home/runner/work/cbmc</text>
<text text-anchor="start" x="835.5" y="-202" font-family="Helvetica,sans-Serif" font-size="10.00">&#45;documentation/cbmc&#45;documentation</text>
<text text-anchor="middle" x="932" y="-191" font-family="Helvetica,sans-Serif" font-size="10.00">/jbmc/src/jbmc/jbmc_parse_options.cpp</text>
</a>
</g>
</g>
<!-- Node1&#45;&gt;Node12 -->
<g id="edge12" class="edge">
<title>Node1&#45;&gt;Node12</title>
<path fill="none" stroke="midnightblue" d="M782.66,-263.76C815.13,-251.09 852.46,-236.53 881.67,-225.13"/>
<polygon fill="midnightblue" stroke="midnightblue" points="781.25,-260.56 773.2,-267.45 783.79,-267.08 781.25,-260.56"/>
</g>
<!-- Node13 -->
<g id="node13" class="node">
<title>Node13</title>
<g id="a_node13"><a xlink:href="jdiff__parse__options_8cpp.html" target="_top" xlink:title=" ">
<polygon fill="none" stroke="black" points="1055,-184 1055,-225 1255,-225 1255,-184 1055,-184"/>
<text text-anchor="start" x="1063" y="-213" font-family="Helvetica,sans-Serif" font-size="10.00">/home/runner/work/cbmc</text>
<text text-anchor="start" x="1063" y="-202" font-family="Helvetica,sans-Serif" font-size="10.00">&#45;documentation/cbmc&#45;documentation</text>
<text text-anchor="middle" x="1155" y="-191" font-family="Helvetica,sans-Serif" font-size="10.00">/jbmc/src/jdiff/jdiff_parse_options.cpp</text>
</a>
</g>
</g>
<!-- Node1&#45;&gt;Node13 -->
<g id="edge13" class="edge">
<title>Node1&#45;&gt;Node13</title>
<path fill="none" stroke="midnightblue" d="M819.16,-273.81C885.12,-262.27 970.54,-246.7 1046,-231 1054.94,-229.14 1064.28,-227.1 1073.55,-225.02"/>
<polygon fill="midnightblue" stroke="midnightblue" points="818.4,-270.39 809.16,-275.56 819.61,-277.28 818.4,-270.39"/>
</g>
<!-- Node3 -->
<g id="node3" class="node">
<title>Node3</title>
<g id="a_node3"><a xlink:href="contracts_8cpp.html" target="_top" xlink:title=" ">
<polygon fill="none" stroke="black" points="0,-0.5 0,-52.5 200,-52.5 200,-0.5 0,-0.5"/>
<text text-anchor="start" x="8" y="-40.5" font-family="Helvetica,sans-Serif" font-size="10.00">/home/runner/work/cbmc</text>
<text text-anchor="start" x="8" y="-29.5" font-family="Helvetica,sans-Serif" font-size="10.00">&#45;documentation/cbmc&#45;documentation</text>
<text text-anchor="start" x="8" y="-18.5" font-family="Helvetica,sans-Serif" font-size="10.00">/src/goto&#45;instrument/contracts</text>
<text text-anchor="middle" x="100" y="-7.5" font-family="Helvetica,sans-Serif" font-size="10.00">/contracts.cpp</text>
</a>
</g>
</g>
<!-- Node2&#45;&gt;Node3 -->
<g id="edge2" class="edge">
<title>Node2&#45;&gt;Node3</title>
<path fill="none" stroke="midnightblue" d="M206.34,-173.53C191.29,-164.78 176.18,-154.23 164,-142 138.29,-116.18 119.72,-77.91 109.4,-52.84"/>
<polygon fill="midnightblue" stroke="midnightblue" points="204.74,-176.65 215.17,-178.48 208.16,-170.54 204.74,-176.65"/>
</g>
<!-- Node4 -->
<g id="node4" class="node">
<title>Node4</title>
<g id="a_node4"><a xlink:href="memory__predicates_8h.html" target="_top" xlink:title=" ">
<polygon fill="none" stroke="black" points="173,-89.5 173,-141.5 373,-141.5 373,-89.5 173,-89.5"/>
<text text-anchor="start" x="181" y="-129.5" font-family="Helvetica,sans-Serif" font-size="10.00">/home/runner/work/cbmc</text>
<text text-anchor="start" x="181" y="-118.5" font-family="Helvetica,sans-Serif" font-size="10.00">&#45;documentation/cbmc&#45;documentation</text>
<text text-anchor="start" x="181" y="-107.5" font-family="Helvetica,sans-Serif" font-size="10.00">/src/goto&#45;instrument/contracts</text>
<text text-anchor="middle" x="273" y="-96.5" font-family="Helvetica,sans-Serif" font-size="10.00">/memory_predicates.h</text>
</a>
</g>
</g>
<!-- Node2&#45;&gt;Node4 -->
<g id="edge3" class="edge">
<title>Node2&#45;&gt;Node4</title>
<path fill="none" stroke="midnightblue" d="M273,-168.19C273,-159.28 273,-149.9 273,-141.61"/>
<polygon fill="midnightblue" stroke="midnightblue" points="269.5,-168.34 273,-178.34 276.5,-168.34 269.5,-168.34"/>
</g>
<!-- Node6 -->
<g id="node6" class="node">
<title>Node6</title>
<g id="a_node6"><a xlink:href="goto__instrument__parse__options_8h.html" target="_top" xlink:title=" ">
<polygon fill="none" stroke="black" points="557,-89.5 557,-141.5 757,-141.5 757,-89.5 557,-89.5"/>
<text text-anchor="start" x="565" y="-129.5" font-family="Helvetica,sans-Serif" font-size="10.00">/home/runner/work/cbmc</text>
<text text-anchor="start" x="565" y="-118.5" font-family="Helvetica,sans-Serif" font-size="10.00">&#45;documentation/cbmc&#45;documentation</text>
<text text-anchor="start" x="565" y="-107.5" font-family="Helvetica,sans-Serif" font-size="10.00">/src/goto&#45;instrument/goto_instrument</text>
<text text-anchor="middle" x="657" y="-96.5" font-family="Helvetica,sans-Serif" font-size="10.00">_parse_options.h</text>
</a>
</g>
</g>
<!-- Node2&#45;&gt;Node6 -->
<g id="edge6" class="edge">
<title>Node2&#45;&gt;Node6</title>
<path fill="none" stroke="midnightblue" d="M382.84,-177.82C446.12,-163.36 507.11,-149.71 556.7,-138.68"/>
<polygon fill="midnightblue" stroke="midnightblue" points="382.04,-174.41 373.07,-180.05 383.6,-181.23 382.04,-174.41"/>
</g>
<!-- Node4&#45;&gt;Node3 -->
<g id="edge4" class="edge">
<title>Node4&#45;&gt;Node3</title>
<path fill="none" stroke="midnightblue" d="M213.89,-84.78C193.08,-74.31 169.91,-62.66 149.93,-52.61"/>
<polygon fill="midnightblue" stroke="midnightblue" points="212.45,-87.97 222.96,-89.34 215.6,-81.72 212.45,-87.97"/>
</g>
<!-- Node5 -->
<g id="node5" class="node">
<title>Node5</title>
<g id="a_node5"><a xlink:href="memory__predicates_8cpp.html" target="_top" xlink:title=" ">
<polygon fill="none" stroke="black" points="218,-0.5 218,-52.5 418,-52.5 418,-0.5 218,-0.5"/>
<text text-anchor="start" x="226" y="-40.5" font-family="Helvetica,sans-Serif" font-size="10.00">/home/runner/work/cbmc</text>
<text text-anchor="start" x="226" y="-29.5" font-family="Helvetica,sans-Serif" font-size="10.00">&#45;documentation/cbmc&#45;documentation</text>
<text text-anchor="start" x="226" y="-18.5" font-family="Helvetica,sans-Serif" font-size="10.00">/src/goto&#45;instrument/contracts</text>
<text text-anchor="middle" x="318" y="-7.5" font-family="Helvetica,sans-Serif" font-size="10.00">/memory_predicates.cpp</text>
</a>
</g>
</g>
<!-- Node4&#45;&gt;Node5 -->
<g id="edge5" class="edge">
<title>Node4&#45;&gt;Node5</title>
<path fill="none" stroke="midnightblue" d="M290.66,-80.35C295.45,-71.1 300.54,-61.26 305.01,-52.61"/>
<polygon fill="midnightblue" stroke="midnightblue" points="287.5,-78.85 286.02,-89.34 293.72,-82.06 287.5,-78.85"/>
</g>
<!-- Node7 -->
<g id="node7" class="node">
<title>Node7</title>
<g id="a_node7"><a xlink:href="goto__instrument__languages_8cpp.html" target="_top" xlink:title=" ">
<polygon fill="none" stroke="black" points="436,-0.5 436,-52.5 636,-52.5 636,-0.5 436,-0.5"/>
<text text-anchor="start" x="444" y="-40.5" font-family="Helvetica,sans-Serif" font-size="10.00">/home/runner/work/cbmc</text>
<text text-anchor="start" x="444" y="-29.5" font-family="Helvetica,sans-Serif" font-size="10.00">&#45;documentation/cbmc&#45;documentation</text>
<text text-anchor="start" x="444" y="-18.5" font-family="Helvetica,sans-Serif" font-size="10.00">/src/goto&#45;instrument/goto_instrument</text>
<text text-anchor="middle" x="536" y="-7.5" font-family="Helvetica,sans-Serif" font-size="10.00">_languages.cpp</text>
</a>
</g>
</g>
<!-- Node6&#45;&gt;Node7 -->
<g id="edge7" class="edge">
<title>Node6&#45;&gt;Node7</title>
<path fill="none" stroke="midnightblue" d="M613.49,-83.22C599.51,-73.16 584.21,-62.16 570.92,-52.61"/>
<polygon fill="midnightblue" stroke="midnightblue" points="611.84,-86.34 622,-89.34 615.93,-80.66 611.84,-86.34"/>
</g>
<!-- Node8 -->
<g id="node8" class="node">
<title>Node8</title>
<g id="a_node8"><a xlink:href="goto__instrument__main_8cpp.html" target="_top" xlink:title=" ">
<polygon fill="none" stroke="black" points="654.5,-6 654.5,-47 903.5,-47 903.5,-6 654.5,-6"/>
<text text-anchor="start" x="662.5" y="-35" font-family="Helvetica,sans-Serif" font-size="10.00">/home/runner/work/cbmc</text>
<text text-anchor="start" x="662.5" y="-24" font-family="Helvetica,sans-Serif" font-size="10.00">&#45;documentation/cbmc&#45;documentation</text>
<text text-anchor="middle" x="779" y="-13" font-family="Helvetica,sans-Serif" font-size="10.00">/src/goto&#45;instrument/goto_instrument_main.cpp</text>
</a>
</g>
</g>
<!-- Node6&#45;&gt;Node8 -->
<g id="edge8" class="edge">
<title>Node6&#45;&gt;Node8</title>
<path fill="none" stroke="midnightblue" d="M700.46,-83.51C717.47,-71.37 736.49,-57.82 751.54,-47.08"/>
<polygon fill="midnightblue" stroke="midnightblue" points="698.4,-80.68 692.29,-89.34 702.46,-86.38 698.4,-80.68"/>
</g>
<!-- Node9 -->
<g id="node9" class="node">
<title>Node9</title>
<g id="a_node9"><a xlink:href="goto__instrument__parse__options_8cpp.html" target="_top" xlink:title=" ">
<polygon fill="none" stroke="black" points="922,-0.5 922,-52.5 1122,-52.5 1122,-0.5 922,-0.5"/>
<text text-anchor="start" x="930" y="-40.5" font-family="Helvetica,sans-Serif" font-size="10.00">/home/runner/work/cbmc</text>
<text text-anchor="start" x="930" y="-29.5" font-family="Helvetica,sans-Serif" font-size="10.00">&#45;documentation/cbmc&#45;documentation</text>
<text text-anchor="start" x="930" y="-18.5" font-family="Helvetica,sans-Serif" font-size="10.00">/src/goto&#45;instrument/goto_instrument</text>
<text text-anchor="middle" x="1022" y="-7.5" font-family="Helvetica,sans-Serif" font-size="10.00">_parse_options.cpp</text>
</a>
</g>
</g>
<!-- Node6&#45;&gt;Node9 -->
<g id="edge9" class="edge">
<title>Node6&#45;&gt;Node9</title>
<path fill="none" stroke="midnightblue" d="M767.25,-88.22C816.36,-76.52 873.79,-62.83 921.69,-51.41"/>
<polygon fill="midnightblue" stroke="midnightblue" points="766.14,-84.89 757.22,-90.61 767.76,-91.7 766.14,-84.89"/>
</g>
</g>
</svg>
