<?xml version="1.0" encoding="UTF-8" standalone="no"?>
<!DOCTYPE svg PUBLIC "-//W3C//DTD SVG 1.1//EN"
 "http://www.w3.org/Graphics/SVG/1.1/DTD/svg11.dtd">
<!-- Generated by graphviz version 2.43.0 (0)
 -->
<!-- Title: /home/runner/work/cbmc&#45;documentation/cbmc&#45;documentation/src/util/interval_template.h Pages: 1 -->
<svg width="3259pt" height="484pt"
 viewBox="0.00 0.00 3258.50 484.00" xmlns="http://www.w3.org/2000/svg" xmlns:xlink="http://www.w3.org/1999/xlink">
<g id="graph0" class="graph" transform="scale(1 1) rotate(0) translate(4 480)">
<title>/home/runner/work/cbmc&#45;documentation/cbmc&#45;documentation/src/util/interval_template.h</title>
<!-- Node1 -->
<g id="node1" class="node">
<title>Node1</title>
<g id="a_node1"><a xlink:title=" ">
<polygon fill="#bfbfbf" stroke="black" points="1602,-434.5 1602,-475.5 1802,-475.5 1802,-434.5 1602,-434.5"/>
<text text-anchor="start" x="1610" y="-463.5" font-family="Helvetica,sans-Serif" font-size="10.00">/home/runner/work/cbmc</text>
<text text-anchor="start" x="1610" y="-452.5" font-family="Helvetica,sans-Serif" font-size="10.00">&#45;documentation/cbmc&#45;documentation</text>
<text text-anchor="middle" x="1702" y="-441.5" font-family="Helvetica,sans-Serif" font-size="10.00">/src/util/interval_template.h</text>
</a>
</g>
</g>
<!-- Node2 -->
<g id="node2" class="node">
<title>Node2</title>
<g id="a_node2"><a xlink:href="integer__interval_8h.html" target="_top" xlink:title=" ">
<polygon fill="none" stroke="black" points="1275,-356.5 1275,-397.5 1475,-397.5 1475,-356.5 1275,-356.5"/>
<text text-anchor="start" x="1283" y="-385.5" font-family="Helvetica,sans-Serif" font-size="10.00">/home/runner/work/cbmc</text>
<text text-anchor="start" x="1283" y="-374.5" font-family="Helvetica,sans-Serif" font-size="10.00">&#45;documentation/cbmc&#45;documentation</text>
<text text-anchor="middle" x="1375" y="-363.5" font-family="Helvetica,sans-Serif" font-size="10.00">/src/util/integer_interval.h</text>
</a>
</g>
</g>
<!-- Node1&#45;&gt;Node2 -->
<g id="edge1" class="edge">
<title>Node1&#45;&gt;Node2</title>
<path fill="none" stroke="midnightblue" d="M1607.91,-432.13C1560.88,-421.2 1504.46,-408.09 1458.93,-397.51"/>
<polygon fill="midnightblue" stroke="midnightblue" points="1607.26,-435.57 1617.79,-434.43 1608.84,-428.76 1607.26,-435.57"/>
</g>
<!-- Node3 -->
<g id="node3" class="node">
<title>Node3</title>
<g id="a_node3"><a xlink:href="interval__domain_8h.html" target="_top" xlink:title=" ">
<polygon fill="none" stroke="black" points="654,-273 654,-314 854,-314 854,-273 654,-273"/>
<text text-anchor="start" x="662" y="-302" font-family="Helvetica,sans-Serif" font-size="10.00">/home/runner/work/cbmc</text>
<text text-anchor="start" x="662" y="-291" font-family="Helvetica,sans-Serif" font-size="10.00">&#45;documentation/cbmc&#45;documentation</text>
<text text-anchor="middle" x="754" y="-280" font-family="Helvetica,sans-Serif" font-size="10.00">/src/analyses/interval_domain.h</text>
</a>
</g>
</g>
<!-- Node1&#45;&gt;Node3 -->
<g id="edge12" class="edge">
<title>Node1&#45;&gt;Node3</title>
<path fill="none" stroke="midnightblue" d="M1591.66,-442.04C1503.33,-431.94 1376.39,-416.22 1266,-398 1115.9,-373.22 942.67,-336.48 841.07,-314.09"/>
<polygon fill="midnightblue" stroke="midnightblue" points="1591.37,-445.53 1601.7,-443.19 1592.16,-438.58 1591.37,-445.53"/>
</g>
<!-- Node13 -->
<g id="node13" class="node">
<title>Node13</title>
<g id="a_node13"><a xlink:href="invariant__set_8h.html" target="_top" xlink:title=" ">
<polygon fill="none" stroke="black" points="2823,-356.5 2823,-397.5 3023,-397.5 3023,-356.5 2823,-356.5"/>
<text text-anchor="start" x="2831" y="-385.5" font-family="Helvetica,sans-Serif" font-size="10.00">/home/runner/work/cbmc</text>
<text text-anchor="start" x="2831" y="-374.5" font-family="Helvetica,sans-Serif" font-size="10.00">&#45;documentation/cbmc&#45;documentation</text>
<text text-anchor="middle" x="2923" y="-363.5" font-family="Helvetica,sans-Serif" font-size="10.00">/src/analyses/invariant_set.h</text>
</a>
</g>
</g>
<!-- Node1&#45;&gt;Node13 -->
<g id="edge13" class="edge">
<title>Node1&#45;&gt;Node13</title>
<path fill="none" stroke="midnightblue" d="M1812.47,-447.12C2047.98,-432.46 2596.35,-398.33 2822.61,-384.25"/>
<polygon fill="midnightblue" stroke="midnightblue" points="1811.94,-443.65 1802.18,-447.76 1812.38,-450.64 1811.94,-443.65"/>
</g>
<!-- Node19 -->
<g id="node19" class="node">
<title>Node19</title>
<g id="a_node19"><a xlink:href="interval__union_8h.html" target="_top" xlink:title=" ">
<polygon fill="none" stroke="black" points="1929,-356.5 1929,-397.5 2129,-397.5 2129,-356.5 1929,-356.5"/>
<text text-anchor="start" x="1937" y="-385.5" font-family="Helvetica,sans-Serif" font-size="10.00">/home/runner/work/cbmc</text>
<text text-anchor="start" x="1937" y="-374.5" font-family="Helvetica,sans-Serif" font-size="10.00">&#45;documentation/cbmc&#45;documentation</text>
<text text-anchor="middle" x="2029" y="-363.5" font-family="Helvetica,sans-Serif" font-size="10.00">/src/util/interval_union.h</text>
</a>
</g>
</g>
<!-- Node1&#45;&gt;Node19 -->
<g id="edge19" class="edge">
<title>Node1&#45;&gt;Node19</title>
<path fill="none" stroke="midnightblue" d="M1796.09,-432.13C1843.12,-421.2 1899.54,-408.09 1945.07,-397.51"/>
<polygon fill="midnightblue" stroke="midnightblue" points="1795.16,-428.76 1786.21,-434.43 1796.74,-435.57 1795.16,-428.76"/>
</g>
<!-- Node2&#45;&gt;Node3 -->
<g id="edge2" class="edge">
<title>Node2&#45;&gt;Node3</title>
<path fill="none" stroke="midnightblue" d="M1264.88,-361.55C1148.52,-346.28 966.63,-322.41 854.18,-307.65"/>
<polygon fill="midnightblue" stroke="midnightblue" points="1264.51,-365.03 1274.88,-362.86 1265.42,-358.09 1264.51,-365.03"/>
</g>
<!-- Node9 -->
<g id="node9" class="node">
<title>Node9</title>
<g id="a_node9"><a xlink:href="interval__constraint_8h.html" target="_top" xlink:title=" ">
<polygon fill="none" stroke="black" points="1275,-273 1275,-314 1475,-314 1475,-273 1275,-273"/>
<text text-anchor="start" x="1283" y="-302" font-family="Helvetica,sans-Serif" font-size="10.00">/home/runner/work/cbmc</text>
<text text-anchor="start" x="1283" y="-291" font-family="Helvetica,sans-Serif" font-size="10.00">&#45;documentation/cbmc&#45;documentation</text>
<text text-anchor="middle" x="1375" y="-280" font-family="Helvetica,sans-Serif" font-size="10.00">/src/util/interval_constraint.h</text>
</a>
</g>
</g>
<!-- Node2&#45;&gt;Node9 -->
<g id="edge8" class="edge">
<title>Node2&#45;&gt;Node9</title>
<path fill="none" stroke="midnightblue" d="M1375,-346.06C1375,-335.38 1375,-323.63 1375,-314.05"/>
<polygon fill="midnightblue" stroke="midnightblue" points="1371.5,-346.27 1375,-356.27 1378.5,-346.27 1371.5,-346.27"/>
</g>
<!-- Node4 -->
<g id="node4" class="node">
<title>Node4</title>
<g id="a_node4"><a xlink:href="interval__analysis_8cpp.html" target="_top" xlink:title=" ">
<polygon fill="none" stroke="black" points="0,-184 0,-225 200,-225 200,-184 0,-184"/>
<text text-anchor="start" x="8" y="-213" font-family="Helvetica,sans-Serif" font-size="10.00">/home/runner/work/cbmc</text>
<text text-anchor="start" x="8" y="-202" font-family="Helvetica,sans-Serif" font-size="10.00">&#45;documentation/cbmc&#45;documentation</text>
<text text-anchor="middle" x="100" y="-191" font-family="Helvetica,sans-Serif" font-size="10.00">/src/analyses/interval_analysis.cpp</text>
</a>
</g>
</g>
<!-- Node3&#45;&gt;Node4 -->
<g id="edge3" class="edge">
<title>Node3&#45;&gt;Node4</title>
<path fill="none" stroke="midnightblue" d="M643.65,-283.88C533.17,-274.35 358.56,-256.84 209,-231 199.14,-229.3 188.83,-227.25 178.66,-225.06"/>
<polygon fill="midnightblue" stroke="midnightblue" points="643.54,-287.38 653.8,-284.75 644.14,-280.41 643.54,-287.38"/>
</g>
<!-- Node5 -->
<g id="node5" class="node">
<title>Node5</title>
<g id="a_node5"><a xlink:href="interval__domain_8cpp.html" target="_top" xlink:title=" ">
<polygon fill="none" stroke="black" points="218,-184 218,-225 418,-225 418,-184 218,-184"/>
<text text-anchor="start" x="226" y="-213" font-family="Helvetica,sans-Serif" font-size="10.00">/home/runner/work/cbmc</text>
<text text-anchor="start" x="226" y="-202" font-family="Helvetica,sans-Serif" font-size="10.00">&#45;documentation/cbmc&#45;documentation</text>
<text text-anchor="middle" x="318" y="-191" font-family="Helvetica,sans-Serif" font-size="10.00">/src/analyses/interval_domain.cpp</text>
</a>
</g>
</g>
<!-- Node3&#45;&gt;Node5 -->
<g id="edge4" class="edge">
<title>Node3&#45;&gt;Node5</title>
<path fill="none" stroke="midnightblue" d="M643.91,-273.04C580.37,-261.5 499.03,-246.19 427,-231 418.16,-229.14 408.93,-227.11 399.75,-225.03"/>
<polygon fill="midnightblue" stroke="midnightblue" points="643.49,-276.52 653.95,-274.86 644.74,-269.63 643.49,-276.52"/>
</g>
<!-- Node6 -->
<g id="node6" class="node">
<title>Node6</title>
<g id="a_node6"><a xlink:href="build__analyzer_8cpp.html" target="_top" xlink:title=" ">
<polygon fill="none" stroke="black" points="436,-184 436,-225 636,-225 636,-184 436,-184"/>
<text text-anchor="start" x="444" y="-213" font-family="Helvetica,sans-Serif" font-size="10.00">/home/runner/work/cbmc</text>
<text text-anchor="start" x="444" y="-202" font-family="Helvetica,sans-Serif" font-size="10.00">&#45;documentation/cbmc&#45;documentation</text>
<text text-anchor="middle" x="536" y="-191" font-family="Helvetica,sans-Serif" font-size="10.00">/src/goto&#45;analyzer/build_analyzer.cpp</text>
</a>
</g>
</g>
<!-- Node3&#45;&gt;Node6 -->
<g id="edge5" class="edge">
<title>Node3&#45;&gt;Node6</title>
<path fill="none" stroke="midnightblue" d="M695.59,-269.19C661.08,-255.42 617.89,-238.18 585.14,-225.11"/>
<polygon fill="midnightblue" stroke="midnightblue" points="694.49,-272.52 705.08,-272.98 697.09,-266.02 694.49,-272.52"/>
</g>
<!-- Node7 -->
<g id="node7" class="node">
<title>Node7</title>
<g id="a_node7"><a xlink:href="goto__instrument__parse__options_8cpp.html" target="_top" xlink:title=" ">
<polygon fill="none" stroke="black" points="654,-178.5 654,-230.5 854,-230.5 854,-178.5 654,-178.5"/>
<text text-anchor="start" x="662" y="-218.5" font-family="Helvetica,sans-Serif" font-size="10.00">/home/runner/work/cbmc</text>
<text text-anchor="start" x="662" y="-207.5" font-family="Helvetica,sans-Serif" font-size="10.00">&#45;documentation/cbmc&#45;documentation</text>
<text text-anchor="start" x="662" y="-196.5" font-family="Helvetica,sans-Serif" font-size="10.00">/src/goto&#45;instrument/goto_instrument</text>
<text text-anchor="middle" x="754" y="-185.5" font-family="Helvetica,sans-Serif" font-size="10.00">_parse_options.cpp</text>
</a>
</g>
</g>
<!-- Node3&#45;&gt;Node7 -->
<g id="edge6" class="edge">
<title>Node3&#45;&gt;Node7</title>
<path fill="none" stroke="midnightblue" d="M754,-262.51C754,-252.17 754,-240.71 754,-230.79"/>
<polygon fill="midnightblue" stroke="midnightblue" points="750.5,-262.76 754,-272.76 757.5,-262.76 750.5,-262.76"/>
</g>
<!-- Node8 -->
<g id="node8" class="node">
<title>Node8</title>
<g id="a_node8"><a xlink:href="janalyzer__parse__options_8cpp.html" target="_top" xlink:title=" ">
<polygon fill="none" stroke="black" points="801,-0.5 801,-52.5 1001,-52.5 1001,-0.5 801,-0.5"/>
<text text-anchor="start" x="809" y="-40.5" font-family="Helvetica,sans-Serif" font-size="10.00">/home/runner/work/cbmc</text>
<text text-anchor="start" x="809" y="-29.5" font-family="Helvetica,sans-Serif" font-size="10.00">&#45;documentation/cbmc&#45;documentation</text>
<text text-anchor="start" x="809" y="-18.5" font-family="Helvetica,sans-Serif" font-size="10.00">/jbmc/src/janalyzer/janalyzer</text>
<text text-anchor="middle" x="901" y="-7.5" font-family="Helvetica,sans-Serif" font-size="10.00">_parse_options.cpp</text>
</a>
</g>
</g>
<!-- Node3&#45;&gt;Node8 -->
<g id="edge7" class="edge">
<title>Node3&#45;&gt;Node8</title>
<path fill="none" stroke="midnightblue" d="M818.51,-268.08C835.3,-258.84 851.8,-246.66 863,-231 901.89,-176.63 904.33,-93.84 902.75,-52.63"/>
<polygon fill="midnightblue" stroke="midnightblue" points="816.45,-265.21 809.18,-272.92 819.67,-271.43 816.45,-265.21"/>
</g>
<!-- Node10 -->
<g id="node10" class="node">
<title>Node10</title>
<g id="a_node10"><a xlink:href="string__constraint__generator__main_8cpp.html" target="_top" xlink:title=" ">
<polygon fill="none" stroke="black" points="1057,-178.5 1057,-230.5 1257,-230.5 1257,-178.5 1057,-178.5"/>
<text text-anchor="start" x="1065" y="-218.5" font-family="Helvetica,sans-Serif" font-size="10.00">/home/runner/work/cbmc</text>
<text text-anchor="start" x="1065" y="-207.5" font-family="Helvetica,sans-Serif" font-size="10.00">&#45;documentation/cbmc&#45;documentation</text>
<text text-anchor="start" x="1065" y="-196.5" font-family="Helvetica,sans-Serif" font-size="10.00">/src/solvers/strings/string_constraint</text>
<text text-anchor="middle" x="1157" y="-185.5" font-family="Helvetica,sans-Serif" font-size="10.00">_generator_main.cpp</text>
</a>
</g>
</g>
<!-- Node9&#45;&gt;Node10 -->
<g id="edge9" class="edge">
<title>Node9&#45;&gt;Node10</title>
<path fill="none" stroke="midnightblue" d="M1316.62,-269.2C1286.75,-257.28 1250.35,-242.75 1219.86,-230.58"/>
<polygon fill="midnightblue" stroke="midnightblue" points="1315.49,-272.52 1326.08,-272.98 1318.09,-266.02 1315.49,-272.52"/>
</g>
<!-- Node11 -->
<g id="node11" class="node">
<title>Node11</title>
<g id="a_node11"><a xlink:href="interval__constraint_8cpp.html" target="_top" xlink:title=" ">
<polygon fill="none" stroke="black" points="1275,-184 1275,-225 1475,-225 1475,-184 1275,-184"/>
<text text-anchor="start" x="1283" y="-213" font-family="Helvetica,sans-Serif" font-size="10.00">/home/runner/work/cbmc</text>
<text text-anchor="start" x="1283" y="-202" font-family="Helvetica,sans-Serif" font-size="10.00">&#45;documentation/cbmc&#45;documentation</text>
<text text-anchor="middle" x="1375" y="-191" font-family="Helvetica,sans-Serif" font-size="10.00">/src/util/interval_constraint.cpp</text>
</a>
</g>
</g>
<!-- Node9&#45;&gt;Node11 -->
<g id="edge10" class="edge">
<title>Node9&#45;&gt;Node11</title>
<path fill="none" stroke="midnightblue" d="M1375,-262.44C1375,-250.1 1375,-236.16 1375,-225.16"/>
<polygon fill="midnightblue" stroke="midnightblue" points="1371.5,-262.76 1375,-272.76 1378.5,-262.76 1371.5,-262.76"/>
</g>
<!-- Node12 -->
<g id="node12" class="node">
<title>Node12</title>
<g id="a_node12"><a xlink:href="java__object__factory_8cpp.html" target="_top" xlink:title=" ">
<polygon fill="none" stroke="black" points="1493,-178.5 1493,-230.5 1693,-230.5 1693,-178.5 1493,-178.5"/>
<text text-anchor="start" x="1501" y="-218.5" font-family="Helvetica,sans-Serif" font-size="10.00">/home/runner/work/cbmc</text>
<text text-anchor="start" x="1501" y="-207.5" font-family="Helvetica,sans-Serif" font-size="10.00">&#45;documentation/cbmc&#45;documentation</text>
<text text-anchor="start" x="1501" y="-196.5" font-family="Helvetica,sans-Serif" font-size="10.00">/jbmc/src/java_bytecode/java</text>
<text text-anchor="middle" x="1593" y="-185.5" font-family="Helvetica,sans-Serif" font-size="10.00">_object_factory.cpp</text>
</a>
</g>
</g>
<!-- Node9&#45;&gt;Node12 -->
<g id="edge11" class="edge">
<title>Node9&#45;&gt;Node12</title>
<path fill="none" stroke="midnightblue" d="M1433.38,-269.2C1463.25,-257.28 1499.65,-242.75 1530.14,-230.58"/>
<polygon fill="midnightblue" stroke="midnightblue" points="1431.91,-266.02 1423.92,-272.98 1434.51,-272.52 1431.91,-266.02"/>
</g>
<!-- Node14 -->
<g id="node14" class="node">
<title>Node14</title>
<g id="a_node14"><a xlink:href="invariant__set__domain_8h.html" target="_top" xlink:title=" ">
<polygon fill="none" stroke="black" points="2823,-273 2823,-314 3023,-314 3023,-273 2823,-273"/>
<text text-anchor="start" x="2831" y="-302" font-family="Helvetica,sans-Serif" font-size="10.00">/home/runner/work/cbmc</text>
<text text-anchor="start" x="2831" y="-291" font-family="Helvetica,sans-Serif" font-size="10.00">&#45;documentation/cbmc&#45;documentation</text>
<text text-anchor="middle" x="2923" y="-280" font-family="Helvetica,sans-Serif" font-size="10.00">/src/analyses/invariant_set_domain.h</text>
</a>
</g>
</g>
<!-- Node13&#45;&gt;Node14 -->
<g id="edge14" class="edge">
<title>Node13&#45;&gt;Node14</title>
<path fill="none" stroke="midnightblue" d="M2923,-346.06C2923,-335.38 2923,-323.63 2923,-314.05"/>
<polygon fill="midnightblue" stroke="midnightblue" points="2919.5,-346.27 2923,-356.27 2926.5,-346.27 2919.5,-346.27"/>
</g>
<!-- Node18 -->
<g id="node18" class="node">
<title>Node18</title>
<g id="a_node18"><a xlink:href="invariant__set_8cpp.html" target="_top" xlink:title=" ">
<polygon fill="none" stroke="black" points="3041,-273 3041,-314 3241,-314 3241,-273 3041,-273"/>
<text text-anchor="start" x="3049" y="-302" font-family="Helvetica,sans-Serif" font-size="10.00">/home/runner/work/cbmc</text>
<text text-anchor="start" x="3049" y="-291" font-family="Helvetica,sans-Serif" font-size="10.00">&#45;documentation/cbmc&#45;documentation</text>
<text text-anchor="middle" x="3141" y="-280" font-family="Helvetica,sans-Serif" font-size="10.00">/src/analyses/invariant_set.cpp</text>
</a>
</g>
</g>
<!-- Node13&#45;&gt;Node18 -->
<g id="edge18" class="edge">
<title>Node13&#45;&gt;Node18</title>
<path fill="none" stroke="midnightblue" d="M2984.72,-352.92C3017.58,-340.64 3057.54,-325.7 3088.83,-314"/>
<polygon fill="midnightblue" stroke="midnightblue" points="2983.36,-349.7 2975.22,-356.48 2985.81,-356.26 2983.36,-349.7"/>
</g>
<!-- Node15 -->
<g id="node15" class="node">
<title>Node15</title>
<g id="a_node15"><a xlink:href="invariant__propagation_8h.html" target="_top" xlink:title=" ">
<polygon fill="none" stroke="black" points="2823,-184 2823,-225 3023,-225 3023,-184 2823,-184"/>
<text text-anchor="start" x="2831" y="-213" font-family="Helvetica,sans-Serif" font-size="10.00">/home/runner/work/cbmc</text>
<text text-anchor="start" x="2831" y="-202" font-family="Helvetica,sans-Serif" font-size="10.00">&#45;documentation/cbmc&#45;documentation</text>
<text text-anchor="middle" x="2923" y="-191" font-family="Helvetica,sans-Serif" font-size="10.00">/src/analyses/invariant_propagation.h</text>
</a>
</g>
</g>
<!-- Node14&#45;&gt;Node15 -->
<g id="edge15" class="edge">
<title>Node14&#45;&gt;Node15</title>
<path fill="none" stroke="midnightblue" d="M2923,-262.44C2923,-250.1 2923,-236.16 2923,-225.16"/>
<polygon fill="midnightblue" stroke="midnightblue" points="2919.5,-262.76 2923,-272.76 2926.5,-262.76 2919.5,-262.76"/>
</g>
<!-- Node17 -->
<g id="node17" class="node">
<title>Node17</title>
<g id="a_node17"><a xlink:href="invariant__set__domain_8cpp.html" target="_top" xlink:title=" ">
<polygon fill="none" stroke="black" points="3041.5,-184 3041.5,-225 3250.5,-225 3250.5,-184 3041.5,-184"/>
<text text-anchor="start" x="3049.5" y="-213" font-family="Helvetica,sans-Serif" font-size="10.00">/home/runner/work/cbmc</text>
<text text-anchor="start" x="3049.5" y="-202" font-family="Helvetica,sans-Serif" font-size="10.00">&#45;documentation/cbmc&#45;documentation</text>
<text text-anchor="middle" x="3146" y="-191" font-family="Helvetica,sans-Serif" font-size="10.00">/src/analyses/invariant_set_domain.cpp</text>
</a>
</g>
</g>
<!-- Node14&#45;&gt;Node17 -->
<g id="edge17" class="edge">
<title>Node14&#45;&gt;Node17</title>
<path fill="none" stroke="midnightblue" d="M2982.75,-269.19C3018.05,-255.42 3062.24,-238.18 3095.74,-225.11"/>
<polygon fill="midnightblue" stroke="midnightblue" points="2981.09,-266.08 2973.05,-272.98 2983.63,-272.6 2981.09,-266.08"/>
</g>
<!-- Node16 -->
<g id="node16" class="node">
<title>Node16</title>
<g id="a_node16"><a xlink:href="invariant__propagation_8cpp.html" target="_top" xlink:title=" ">
<polygon fill="none" stroke="black" points="2948.5,-95 2948.5,-136 3159.5,-136 3159.5,-95 2948.5,-95"/>
<text text-anchor="start" x="2956.5" y="-124" font-family="Helvetica,sans-Serif" font-size="10.00">/home/runner/work/cbmc</text>
<text text-anchor="start" x="2956.5" y="-113" font-family="Helvetica,sans-Serif" font-size="10.00">&#45;documentation/cbmc&#45;documentation</text>
<text text-anchor="middle" x="3054" y="-102" font-family="Helvetica,sans-Serif" font-size="10.00">/src/analyses/invariant_propagation.cpp</text>
</a>
</g>
</g>
<!-- Node15&#45;&gt;Node16 -->
<g id="edge16" class="edge">
<title>Node15&#45;&gt;Node16</title>
<path fill="none" stroke="midnightblue" d="M2960.76,-178.43C2980.94,-165.02 3005.43,-148.76 3024.25,-136.26"/>
<polygon fill="midnightblue" stroke="midnightblue" points="2958.79,-175.53 2952.4,-183.98 2962.67,-181.36 2958.79,-175.53"/>
</g>
<!-- Node20 -->
<g id="node20" class="node">
<title>Node20</title>
<g id="a_node20"><a xlink:href="interval__union_8cpp.html" target="_top" xlink:title=" ">
<polygon fill="none" stroke="black" points="2147,-273 2147,-314 2347,-314 2347,-273 2147,-273"/>
<text text-anchor="start" x="2155" y="-302" font-family="Helvetica,sans-Serif" font-size="10.00">/home/runner/work/cbmc</text>
<text text-anchor="start" x="2155" y="-291" font-family="Helvetica,sans-Serif" font-size="10.00">&#45;documentation/cbmc&#45;documentation</text>
<text text-anchor="middle" x="2247" y="-280" font-family="Helvetica,sans-Serif" font-size="10.00">/src/util/interval_union.cpp</text>
</a>
</g>
</g>
<!-- Node19&#45;&gt;Node20 -->
<g id="edge20" class="edge">
<title>Node19&#45;&gt;Node20</title>
<path fill="none" stroke="midnightblue" d="M2090.72,-352.92C2123.58,-340.64 2163.54,-325.7 2194.83,-314"/>
<polygon fill="midnightblue" stroke="midnightblue" points="2089.36,-349.7 2081.22,-356.48 2091.81,-356.26 2089.36,-349.7"/>
</g>
<!-- Node21 -->
<g id="node21" class="node">
<title>Node21</title>
<g id="a_node21"><a xlink:href="java__object__factory__parameters_8h.html" target="_top" xlink:title=" ">
<polygon fill="none" stroke="black" points="1929,-267.5 1929,-319.5 2129,-319.5 2129,-267.5 1929,-267.5"/>
<text text-anchor="start" x="1937" y="-307.5" font-family="Helvetica,sans-Serif" font-size="10.00">/home/runner/work/cbmc</text>
<text text-anchor="start" x="1937" y="-296.5" font-family="Helvetica,sans-Serif" font-size="10.00">&#45;documentation/cbmc&#45;documentation</text>
<text text-anchor="start" x="1937" y="-285.5" font-family="Helvetica,sans-Serif" font-size="10.00">/jbmc/src/java_bytecode/java</text>
<text text-anchor="middle" x="2029" y="-274.5" font-family="Helvetica,sans-Serif" font-size="10.00">_object_factory_parameters.h</text>
</a>
</g>
</g>
<!-- Node19&#45;&gt;Node21 -->
<g id="edge21" class="edge">
<title>Node19&#45;&gt;Node21</title>
<path fill="none" stroke="midnightblue" d="M2029,-346.12C2029,-337.41 2029,-327.99 2029,-319.61"/>
<polygon fill="midnightblue" stroke="midnightblue" points="2025.5,-346.27 2029,-356.27 2032.5,-346.27 2025.5,-346.27"/>
</g>
<!-- Node21&#45;&gt;Node12 -->
<g id="edge39" class="edge">
<title>Node21&#45;&gt;Node12</title>
<path fill="none" stroke="midnightblue" d="M1918.91,-273.04C1855.37,-261.5 1774.03,-246.19 1702,-231 1699.05,-230.38 1696.06,-229.74 1693.05,-229.08"/>
<polygon fill="midnightblue" stroke="midnightblue" points="1918.49,-276.52 1928.95,-274.86 1919.74,-269.63 1918.49,-276.52"/>
</g>
<!-- Node22 -->
<g id="node22" class="node">
<title>Node22</title>
<g id="a_node22"><a xlink:href="java__bytecode__language_8h.html" target="_top" xlink:title=" ">
<polygon fill="none" stroke="black" points="1711,-178.5 1711,-230.5 1911,-230.5 1911,-178.5 1711,-178.5"/>
<text text-anchor="start" x="1719" y="-218.5" font-family="Helvetica,sans-Serif" font-size="10.00">/home/runner/work/cbmc</text>
<text text-anchor="start" x="1719" y="-207.5" font-family="Helvetica,sans-Serif" font-size="10.00">&#45;documentation/cbmc&#45;documentation</text>
<text text-anchor="start" x="1719" y="-196.5" font-family="Helvetica,sans-Serif" font-size="10.00">/jbmc/src/java_bytecode/java</text>
<text text-anchor="middle" x="1811" y="-185.5" font-family="Helvetica,sans-Serif" font-size="10.00">_bytecode_language.h</text>
</a>
</g>
</g>
<!-- Node21&#45;&gt;Node22 -->
<g id="edge22" class="edge">
<title>Node21&#45;&gt;Node22</title>
<path fill="none" stroke="midnightblue" d="M1956.88,-263.72C1929.98,-252.98 1899.68,-240.89 1873.7,-230.52"/>
<polygon fill="midnightblue" stroke="midnightblue" points="1955.65,-267 1966.24,-267.45 1958.25,-260.5 1955.65,-267"/>
</g>
<!-- Node35 -->
<g id="node35" class="node">
<title>Node35</title>
<g id="a_node35"><a xlink:href="convert__java__nondet_8cpp.html" target="_top" xlink:title=" ">
<polygon fill="none" stroke="black" points="1929,-178.5 1929,-230.5 2129,-230.5 2129,-178.5 1929,-178.5"/>
<text text-anchor="start" x="1937" y="-218.5" font-family="Helvetica,sans-Serif" font-size="10.00">/home/runner/work/cbmc</text>
<text text-anchor="start" x="1937" y="-207.5" font-family="Helvetica,sans-Serif" font-size="10.00">&#45;documentation/cbmc&#45;documentation</text>
<text text-anchor="start" x="1937" y="-196.5" font-family="Helvetica,sans-Serif" font-size="10.00">/jbmc/src/java_bytecode/convert</text>
<text text-anchor="middle" x="2029" y="-185.5" font-family="Helvetica,sans-Serif" font-size="10.00">_java_nondet.cpp</text>
</a>
</g>
</g>
<!-- Node21&#45;&gt;Node35 -->
<g id="edge38" class="edge">
<title>Node21&#45;&gt;Node35</title>
<path fill="none" stroke="midnightblue" d="M2029,-257.19C2029,-248.28 2029,-238.9 2029,-230.61"/>
<polygon fill="midnightblue" stroke="midnightblue" points="2025.5,-257.34 2029,-267.34 2032.5,-257.34 2025.5,-257.34"/>
</g>
<!-- Node36 -->
<g id="node36" class="node">
<title>Node36</title>
<g id="a_node36"><a xlink:href="java__object__factory__parameters_8cpp.html" target="_top" xlink:title=" ">
<polygon fill="none" stroke="black" points="2147,-178.5 2147,-230.5 2347,-230.5 2347,-178.5 2147,-178.5"/>
<text text-anchor="start" x="2155" y="-218.5" font-family="Helvetica,sans-Serif" font-size="10.00">/home/runner/work/cbmc</text>
<text text-anchor="start" x="2155" y="-207.5" font-family="Helvetica,sans-Serif" font-size="10.00">&#45;documentation/cbmc&#45;documentation</text>
<text text-anchor="start" x="2155" y="-196.5" font-family="Helvetica,sans-Serif" font-size="10.00">/jbmc/src/java_bytecode/java</text>
<text text-anchor="middle" x="2247" y="-185.5" font-family="Helvetica,sans-Serif" font-size="10.00">_object_factory_parameters.cpp</text>
</a>
</g>
</g>
<!-- Node21&#45;&gt;Node36 -->
<g id="edge40" class="edge">
<title>Node21&#45;&gt;Node36</title>
<path fill="none" stroke="midnightblue" d="M2101.12,-263.72C2128.02,-252.98 2158.32,-240.89 2184.3,-230.52"/>
<polygon fill="midnightblue" stroke="midnightblue" points="2099.75,-260.5 2091.76,-267.45 2102.35,-267 2099.75,-260.5"/>
</g>
<!-- Node37 -->
<g id="node37" class="node">
<title>Node37</title>
<g id="a_node37"><a xlink:href="java__static__initializers_8cpp.html" target="_top" xlink:title=" ">
<polygon fill="none" stroke="black" points="2365,-178.5 2365,-230.5 2565,-230.5 2565,-178.5 2365,-178.5"/>
<text text-anchor="start" x="2373" y="-218.5" font-family="Helvetica,sans-Serif" font-size="10.00">/home/runner/work/cbmc</text>
<text text-anchor="start" x="2373" y="-207.5" font-family="Helvetica,sans-Serif" font-size="10.00">&#45;documentation/cbmc&#45;documentation</text>
<text text-anchor="start" x="2373" y="-196.5" font-family="Helvetica,sans-Serif" font-size="10.00">/jbmc/src/java_bytecode/java</text>
<text text-anchor="middle" x="2465" y="-185.5" font-family="Helvetica,sans-Serif" font-size="10.00">_static_initializers.cpp</text>
</a>
</g>
</g>
<!-- Node21&#45;&gt;Node37 -->
<g id="edge41" class="edge">
<title>Node21&#45;&gt;Node37</title>
<path fill="none" stroke="midnightblue" d="M2138.96,-266.87C2236.02,-247.94 2262.8,-249.58 2356,-231 2358.95,-230.41 2361.95,-229.8 2364.97,-229.17"/>
<polygon fill="midnightblue" stroke="midnightblue" points="2138.16,-263.46 2129.03,-268.83 2139.52,-270.33 2138.16,-263.46"/>
</g>
<!-- Node38 -->
<g id="node38" class="node">
<title>Node38</title>
<g id="a_node38"><a xlink:href="simple__method__stubbing_8cpp.html" target="_top" xlink:title=" ">
<polygon fill="none" stroke="black" points="2583,-178.5 2583,-230.5 2783,-230.5 2783,-178.5 2583,-178.5"/>
<text text-anchor="start" x="2591" y="-218.5" font-family="Helvetica,sans-Serif" font-size="10.00">/home/runner/work/cbmc</text>
<text text-anchor="start" x="2591" y="-207.5" font-family="Helvetica,sans-Serif" font-size="10.00">&#45;documentation/cbmc&#45;documentation</text>
<text text-anchor="start" x="2591" y="-196.5" font-family="Helvetica,sans-Serif" font-size="10.00">/jbmc/src/java_bytecode/simple</text>
<text text-anchor="middle" x="2683" y="-185.5" font-family="Helvetica,sans-Serif" font-size="10.00">_method_stubbing.cpp</text>
</a>
</g>
</g>
<!-- Node21&#45;&gt;Node38 -->
<g id="edge42" class="edge">
<title>Node21&#45;&gt;Node38</title>
<path fill="none" stroke="midnightblue" d="M2139.43,-266.88C2331.89,-237.59 2385.21,-260.71 2574,-231 2576.88,-230.55 2579.8,-230.06 2582.74,-229.54"/>
<polygon fill="midnightblue" stroke="midnightblue" points="2138.61,-263.47 2129.26,-268.46 2139.68,-270.38 2138.61,-263.47"/>
</g>
<!-- Node22&#45;&gt;Node8 -->
<g id="edge26" class="edge">
<title>Node22&#45;&gt;Node8</title>
<path fill="none" stroke="midnightblue" d="M1700.57,-178.21C1580.26,-167.9 1004.52,-191.68 939,-142 911.46,-121.12 903.64,-79.59 901.55,-52.7"/>
<polygon fill="midnightblue" stroke="midnightblue" points="1700.44,-181.72 1710.76,-179.32 1701.19,-174.76 1700.44,-181.72"/>
</g>
<!-- Node23 -->
<g id="node23" class="node">
<title>Node23</title>
<g id="a_node23"><a xlink:href="janalyzer__parse__options_8h.html" target="_top" xlink:title=" ">
<polygon fill="none" stroke="black" points="948,-89.5 948,-141.5 1148,-141.5 1148,-89.5 948,-89.5"/>
<text text-anchor="start" x="956" y="-129.5" font-family="Helvetica,sans-Serif" font-size="10.00">/home/runner/work/cbmc</text>
<text text-anchor="start" x="956" y="-118.5" font-family="Helvetica,sans-Serif" font-size="10.00">&#45;documentation/cbmc&#45;documentation</text>
<text text-anchor="start" x="956" y="-107.5" font-family="Helvetica,sans-Serif" font-size="10.00">/jbmc/src/janalyzer/janalyzer</text>
<text text-anchor="middle" x="1048" y="-96.5" font-family="Helvetica,sans-Serif" font-size="10.00">_parse_options.h</text>
</a>
</g>
</g>
<!-- Node22&#45;&gt;Node23 -->
<g id="edge23" class="edge">
<title>Node22&#45;&gt;Node23</title>
<path fill="none" stroke="midnightblue" d="M1700.64,-177.91C1460.09,-143.19 1393.82,-177.28 1157,-142 1154.12,-141.57 1151.2,-141.1 1148.26,-140.61"/>
<polygon fill="midnightblue" stroke="midnightblue" points="1700.34,-181.4 1710.74,-179.39 1701.36,-174.48 1700.34,-181.4"/>
</g>
<!-- Node25 -->
<g id="node25" class="node">
<title>Node25</title>
<g id="a_node25"><a xlink:href="ci__lazy__methods_8cpp.html" target="_top" xlink:title=" ">
<polygon fill="none" stroke="black" points="1166,-89.5 1166,-141.5 1366,-141.5 1366,-89.5 1166,-89.5"/>
<text text-anchor="start" x="1174" y="-129.5" font-family="Helvetica,sans-Serif" font-size="10.00">/home/runner/work/cbmc</text>
<text text-anchor="start" x="1174" y="-118.5" font-family="Helvetica,sans-Serif" font-size="10.00">&#45;documentation/cbmc&#45;documentation</text>
<text text-anchor="start" x="1174" y="-107.5" font-family="Helvetica,sans-Serif" font-size="10.00">/jbmc/src/java_bytecode/ci_lazy</text>
<text text-anchor="middle" x="1266" y="-96.5" font-family="Helvetica,sans-Serif" font-size="10.00">_methods.cpp</text>
</a>
</g>
</g>
<!-- Node22&#45;&gt;Node25 -->
<g id="edge27" class="edge">
<title>Node22&#45;&gt;Node25</title>
<path fill="none" stroke="midnightblue" d="M1700.59,-177.85C1556.09,-153.88 1515.87,-166.14 1375,-142 1372.13,-141.51 1369.22,-140.99 1366.28,-140.44"/>
<polygon fill="midnightblue" stroke="midnightblue" points="1700.27,-181.35 1710.72,-179.56 1701.44,-174.45 1700.27,-181.35"/>
</g>
<!-- Node26 -->
<g id="node26" class="node">
<title>Node26</title>
<g id="a_node26"><a xlink:href="java__bytecode__language_8cpp.html" target="_top" xlink:title=" ">
<polygon fill="none" stroke="black" points="1384,-89.5 1384,-141.5 1584,-141.5 1584,-89.5 1384,-89.5"/>
<text text-anchor="start" x="1392" y="-129.5" font-family="Helvetica,sans-Serif" font-size="10.00">/home/runner/work/cbmc</text>
<text text-anchor="start" x="1392" y="-118.5" font-family="Helvetica,sans-Serif" font-size="10.00">&#45;documentation/cbmc&#45;documentation</text>
<text text-anchor="start" x="1392" y="-107.5" font-family="Helvetica,sans-Serif" font-size="10.00">/jbmc/src/java_bytecode/java</text>
<text text-anchor="middle" x="1484" y="-96.5" font-family="Helvetica,sans-Serif" font-size="10.00">_bytecode_language.cpp</text>
</a>
</g>
</g>
<!-- Node22&#45;&gt;Node26 -->
<g id="edge28" class="edge">
<title>Node22&#45;&gt;Node26</title>
<path fill="none" stroke="midnightblue" d="M1707.03,-175.84C1665.65,-164.83 1618.38,-152.25 1578.04,-141.52"/>
<polygon fill="midnightblue" stroke="midnightblue" points="1706.29,-179.26 1716.86,-178.45 1708.09,-172.5 1706.29,-179.26"/>
</g>
<!-- Node27 -->
<g id="node27" class="node">
<title>Node27</title>
<g id="a_node27"><a xlink:href="java__entry__point_8cpp.html" target="_top" xlink:title=" ">
<polygon fill="none" stroke="black" points="1602,-89.5 1602,-141.5 1802,-141.5 1802,-89.5 1602,-89.5"/>
<text text-anchor="start" x="1610" y="-129.5" font-family="Helvetica,sans-Serif" font-size="10.00">/home/runner/work/cbmc</text>
<text text-anchor="start" x="1610" y="-118.5" font-family="Helvetica,sans-Serif" font-size="10.00">&#45;documentation/cbmc&#45;documentation</text>
<text text-anchor="start" x="1610" y="-107.5" font-family="Helvetica,sans-Serif" font-size="10.00">/jbmc/src/java_bytecode/java</text>
<text text-anchor="middle" x="1702" y="-96.5" font-family="Helvetica,sans-Serif" font-size="10.00">_entry_point.cpp</text>
</a>
</g>
</g>
<!-- Node22&#45;&gt;Node27 -->
<g id="edge29" class="edge">
<title>Node22&#45;&gt;Node27</title>
<path fill="none" stroke="midnightblue" d="M1771.45,-171.93C1758.95,-161.96 1745.31,-151.07 1733.46,-141.61"/>
<polygon fill="midnightblue" stroke="midnightblue" points="1769.47,-174.83 1779.47,-178.34 1773.84,-169.36 1769.47,-174.83"/>
</g>
<!-- Node28 -->
<g id="node28" class="node">
<title>Node28</title>
<g id="a_node28"><a xlink:href="lazy__goto__model_8cpp.html" target="_top" xlink:title="Author: Diffblue Ltd.">
<polygon fill="none" stroke="black" points="1820,-89.5 1820,-141.5 2020,-141.5 2020,-89.5 1820,-89.5"/>
<text text-anchor="start" x="1828" y="-129.5" font-family="Helvetica,sans-Serif" font-size="10.00">/home/runner/work/cbmc</text>
<text text-anchor="start" x="1828" y="-118.5" font-family="Helvetica,sans-Serif" font-size="10.00">&#45;documentation/cbmc&#45;documentation</text>
<text text-anchor="start" x="1828" y="-107.5" font-family="Helvetica,sans-Serif" font-size="10.00">/jbmc/src/java_bytecode/lazy</text>
<text text-anchor="middle" x="1920" y="-96.5" font-family="Helvetica,sans-Serif" font-size="10.00">_goto_model.cpp</text>
</a>
</g>
</g>
<!-- Node22&#45;&gt;Node28 -->
<g id="edge30" class="edge">
<title>Node22&#45;&gt;Node28</title>
<path fill="none" stroke="midnightblue" d="M1850.55,-171.93C1863.05,-161.96 1876.69,-151.07 1888.54,-141.61"/>
<polygon fill="midnightblue" stroke="midnightblue" points="1848.16,-169.36 1842.53,-178.34 1852.53,-174.83 1848.16,-169.36"/>
</g>
<!-- Node29 -->
<g id="node29" class="node">
<title>Node29</title>
<g id="a_node29"><a xlink:href="jbmc__parse__options_8h.html" target="_top" xlink:title=" ">
<polygon fill="none" stroke="black" points="2038,-95 2038,-136 2238,-136 2238,-95 2038,-95"/>
<text text-anchor="start" x="2046" y="-124" font-family="Helvetica,sans-Serif" font-size="10.00">/home/runner/work/cbmc</text>
<text text-anchor="start" x="2046" y="-113" font-family="Helvetica,sans-Serif" font-size="10.00">&#45;documentation/cbmc&#45;documentation</text>
<text text-anchor="middle" x="2138" y="-102" font-family="Helvetica,sans-Serif" font-size="10.00">/jbmc/src/jbmc/jbmc_parse_options.h</text>
</a>
</g>
</g>
<!-- Node22&#45;&gt;Node29 -->
<g id="edge31" class="edge">
<title>Node22&#45;&gt;Node29</title>
<path fill="none" stroke="midnightblue" d="M1915.07,-175.81C1963.68,-162.88 2020.4,-147.79 2064.47,-136.06"/>
<polygon fill="midnightblue" stroke="midnightblue" points="1913.91,-172.5 1905.14,-178.45 1915.71,-179.26 1913.91,-172.5"/>
</g>
<!-- Node31 -->
<g id="node31" class="node">
<title>Node31</title>
<g id="a_node31"><a xlink:href="jbmc__parse__options_8cpp.html" target="_top" xlink:title=" ">
<polygon fill="none" stroke="black" points="2161.5,-6 2161.5,-47 2370.5,-47 2370.5,-6 2161.5,-6"/>
<text text-anchor="start" x="2169.5" y="-35" font-family="Helvetica,sans-Serif" font-size="10.00">/home/runner/work/cbmc</text>
<text text-anchor="start" x="2169.5" y="-24" font-family="Helvetica,sans-Serif" font-size="10.00">&#45;documentation/cbmc&#45;documentation</text>
<text text-anchor="middle" x="2266" y="-13" font-family="Helvetica,sans-Serif" font-size="10.00">/jbmc/src/jbmc/jbmc_parse_options.cpp</text>
</a>
</g>
</g>
<!-- Node22&#45;&gt;Node31 -->
<g id="edge34" class="edge">
<title>Node22&#45;&gt;Node31</title>
<path fill="none" stroke="midnightblue" d="M1921.29,-178.11C2007.6,-167.61 2195.98,-190.29 2247,-142 2272.61,-117.76 2272.08,-73.15 2269.19,-47.35"/>
<polygon fill="midnightblue" stroke="midnightblue" points="1920.68,-174.66 1911.28,-179.56 1921.68,-181.59 1920.68,-174.66"/>
</g>
<!-- Node32 -->
<g id="node32" class="node">
<title>Node32</title>
<g id="a_node32"><a xlink:href="jdiff__languages_8cpp.html" target="_top" xlink:title=" ">
<polygon fill="none" stroke="black" points="2294,-95 2294,-136 2494,-136 2494,-95 2294,-95"/>
<text text-anchor="start" x="2302" y="-124" font-family="Helvetica,sans-Serif" font-size="10.00">/home/runner/work/cbmc</text>
<text text-anchor="start" x="2302" y="-113" font-family="Helvetica,sans-Serif" font-size="10.00">&#45;documentation/cbmc&#45;documentation</text>
<text text-anchor="middle" x="2394" y="-102" font-family="Helvetica,sans-Serif" font-size="10.00">/jbmc/src/jdiff/jdiff_languages.cpp</text>
</a>
</g>
</g>
<!-- Node22&#45;&gt;Node32 -->
<g id="edge35" class="edge">
<title>Node22&#45;&gt;Node32</title>
<path fill="none" stroke="midnightblue" d="M1921.42,-177.86C2080.42,-152.27 2124.51,-167.07 2280,-142 2290.51,-140.31 2301.51,-138.23 2312.34,-136.01"/>
<polygon fill="midnightblue" stroke="midnightblue" points="1920.58,-174.45 1911.28,-179.52 1921.71,-181.36 1920.58,-174.45"/>
</g>
<!-- Node33 -->
<g id="node33" class="node">
<title>Node33</title>
<g id="a_node33"><a xlink:href="jdiff__parse__options_8cpp.html" target="_top" xlink:title=" ">
<polygon fill="none" stroke="black" points="2512,-95 2512,-136 2712,-136 2712,-95 2512,-95"/>
<text text-anchor="start" x="2520" y="-124" font-family="Helvetica,sans-Serif" font-size="10.00">/home/runner/work/cbmc</text>
<text text-anchor="start" x="2520" y="-113" font-family="Helvetica,sans-Serif" font-size="10.00">&#45;documentation/cbmc&#45;documentation</text>
<text text-anchor="middle" x="2612" y="-102" font-family="Helvetica,sans-Serif" font-size="10.00">/jbmc/src/jdiff/jdiff_parse_options.cpp</text>
</a>
</g>
</g>
<!-- Node22&#45;&gt;Node33 -->
<g id="edge36" class="edge">
<title>Node22&#45;&gt;Node33</title>
<path fill="none" stroke="midnightblue" d="M1921.27,-177.93C2178.64,-141.29 2249.41,-179.22 2503,-142 2513.67,-140.43 2524.84,-138.35 2535.79,-136.04"/>
<polygon fill="midnightblue" stroke="midnightblue" points="1920.65,-174.48 1911.25,-179.38 1921.65,-181.41 1920.65,-174.48"/>
</g>
<!-- Node34 -->
<g id="node34" class="node">
<title>Node34</title>
<g id="a_node34"><a xlink:href="load__java__class_8cpp.html" target="_top" xlink:title=" ">
<polygon fill="none" stroke="black" points="2730,-89.5 2730,-141.5 2930,-141.5 2930,-89.5 2730,-89.5"/>
<text text-anchor="start" x="2738" y="-129.5" font-family="Helvetica,sans-Serif" font-size="10.00">/home/runner/work/cbmc</text>
<text text-anchor="start" x="2738" y="-118.5" font-family="Helvetica,sans-Serif" font-size="10.00">&#45;documentation/cbmc&#45;documentation</text>
<text text-anchor="start" x="2738" y="-107.5" font-family="Helvetica,sans-Serif" font-size="10.00">/jbmc/unit/java&#45;testing&#45;utils</text>
<text text-anchor="middle" x="2830" y="-96.5" font-family="Helvetica,sans-Serif" font-size="10.00">/load_java_class.cpp</text>
</a>
</g>
</g>
<!-- Node22&#45;&gt;Node34 -->
<g id="edge37" class="edge">
<title>Node22&#45;&gt;Node34</title>
<path fill="none" stroke="midnightblue" d="M1921.24,-177.95C2274.79,-130.34 2371.27,-190.34 2721,-142 2723.89,-141.6 2726.81,-141.16 2729.76,-140.69"/>
<polygon fill="midnightblue" stroke="midnightblue" points="1920.68,-174.49 1911.24,-179.31 1921.63,-181.43 1920.68,-174.49"/>
</g>
<!-- Node23&#45;&gt;Node8 -->
<g id="edge25" class="edge">
<title>Node23&#45;&gt;Node8</title>
<path fill="none" stroke="midnightblue" d="M996.58,-84.07C979.21,-73.79 960.02,-62.43 943.42,-52.61"/>
<polygon fill="midnightblue" stroke="midnightblue" points="995.09,-87.25 1005.48,-89.34 998.66,-81.23 995.09,-87.25"/>
</g>
<!-- Node24 -->
<g id="node24" class="node">
<title>Node24</title>
<g id="a_node24"><a xlink:href="janalyzer__main_8cpp.html" target="_top" xlink:title=" ">
<polygon fill="none" stroke="black" points="1019.5,-6 1019.5,-47 1226.5,-47 1226.5,-6 1019.5,-6"/>
<text text-anchor="start" x="1027.5" y="-35" font-family="Helvetica,sans-Serif" font-size="10.00">/home/runner/work/cbmc</text>
<text text-anchor="start" x="1027.5" y="-24" font-family="Helvetica,sans-Serif" font-size="10.00">&#45;documentation/cbmc&#45;documentation</text>
<text text-anchor="middle" x="1123" y="-13" font-family="Helvetica,sans-Serif" font-size="10.00">/jbmc/src/janalyzer/janalyzer_main.cpp</text>
</a>
</g>
</g>
<!-- Node23&#45;&gt;Node24 -->
<g id="edge24" class="edge">
<title>Node23&#45;&gt;Node24</title>
<path fill="none" stroke="midnightblue" d="M1076.44,-81.51C1086.44,-69.9 1097.37,-57.23 1106.12,-47.08"/>
<polygon fill="midnightblue" stroke="midnightblue" points="1073.57,-79.48 1069.69,-89.34 1078.87,-84.05 1073.57,-79.48"/>
</g>
<!-- Node30 -->
<g id="node30" class="node">
<title>Node30</title>
<g id="a_node30"><a xlink:href="jbmc__main_8cpp.html" target="_top" xlink:title=" ">
<polygon fill="none" stroke="black" points="1943,-6 1943,-47 2143,-47 2143,-6 1943,-6"/>
<text text-anchor="start" x="1951" y="-35" font-family="Helvetica,sans-Serif" font-size="10.00">/home/runner/work/cbmc</text>
<text text-anchor="start" x="1951" y="-24" font-family="Helvetica,sans-Serif" font-size="10.00">&#45;documentation/cbmc&#45;documentation</text>
<text text-anchor="middle" x="2043" y="-13" font-family="Helvetica,sans-Serif" font-size="10.00">/jbmc/src/jbmc/jbmc_main.cpp</text>
</a>
</g>
</g>
<!-- Node29&#45;&gt;Node30 -->
<g id="edge32" class="edge">
<title>Node29&#45;&gt;Node30</title>
<path fill="none" stroke="midnightblue" d="M2108.8,-87.76C2094.5,-74.66 2077.57,-59.16 2064.47,-47.16"/>
<polygon fill="midnightblue" stroke="midnightblue" points="2106.7,-90.59 2116.44,-94.76 2111.43,-85.42 2106.7,-90.59"/>
</g>
<!-- Node29&#45;&gt;Node31 -->
<g id="edge33" class="edge">
<title>Node29&#45;&gt;Node31</title>
<path fill="none" stroke="midnightblue" d="M2175.15,-89.25C2194.82,-75.88 2218.62,-59.7 2236.93,-47.26"/>
<polygon fill="midnightblue" stroke="midnightblue" points="2173.03,-86.46 2166.73,-94.98 2176.96,-92.25 2173.03,-86.46"/>
</g>
</g>
</svg>
