<?xml version="1.0" encoding="UTF-8" standalone="no"?>
<!DOCTYPE svg PUBLIC "-//W3C//DTD SVG 1.1//EN"
 "http://www.w3.org/Graphics/SVG/1.1/DTD/svg11.dtd">
<!-- Generated by graphviz version 2.43.0 (0)
 -->
<!-- Title: /home/runner/work/cbmc&#45;documentation/cbmc&#45;documentation/src/util/interval.h Pages: 1 -->
<svg width="1521pt" height="317pt"
 viewBox="0.00 0.00 1521.00 317.00" xmlns="http://www.w3.org/2000/svg" xmlns:xlink="http://www.w3.org/1999/xlink">
<g id="graph0" class="graph" transform="scale(1 1) rotate(0) translate(4 313)">
<title>/home/runner/work/cbmc&#45;documentation/cbmc&#45;documentation/src/util/interval.h</title>
<!-- Node1 -->
<g id="node1" class="node">
<title>Node1</title>
<g id="a_node1"><a xlink:title=" ">
<polygon fill="#bfbfbf" stroke="black" points="877,-267.5 877,-308.5 1077,-308.5 1077,-267.5 877,-267.5"/>
<text text-anchor="start" x="885" y="-296.5" font-family="Helvetica,sans-Serif" font-size="10.00">/home/runner/work/cbmc</text>
<text text-anchor="start" x="885" y="-285.5" font-family="Helvetica,sans-Serif" font-size="10.00">&#45;documentation/cbmc&#45;documentation</text>
<text text-anchor="middle" x="977" y="-274.5" font-family="Helvetica,sans-Serif" font-size="10.00">/src/util/interval.h</text>
</a>
</g>
</g>
<!-- Node2 -->
<g id="node2" class="node">
<title>Node2</title>
<g id="a_node2"><a xlink:href="interval__abstract__value_8h.html" target="_top" xlink:title=" ">
<polygon fill="none" stroke="black" points="441,-178.5 441,-230.5 641,-230.5 641,-178.5 441,-178.5"/>
<text text-anchor="start" x="449" y="-218.5" font-family="Helvetica,sans-Serif" font-size="10.00">/home/runner/work/cbmc</text>
<text text-anchor="start" x="449" y="-207.5" font-family="Helvetica,sans-Serif" font-size="10.00">&#45;documentation/cbmc&#45;documentation</text>
<text text-anchor="start" x="449" y="-196.5" font-family="Helvetica,sans-Serif" font-size="10.00">/src/analyses/variable&#45;sensitivity</text>
<text text-anchor="middle" x="541" y="-185.5" font-family="Helvetica,sans-Serif" font-size="10.00">/interval_abstract_value.h</text>
</a>
</g>
</g>
<!-- Node1&#45;&gt;Node2 -->
<g id="edge1" class="edge">
<title>Node1&#45;&gt;Node2</title>
<path fill="none" stroke="midnightblue" d="M866.85,-269.83C803.28,-259.5 721.94,-245.56 650,-231 647.05,-230.4 644.05,-229.78 641.03,-229.15"/>
<polygon fill="midnightblue" stroke="midnightblue" points="866.46,-273.31 876.89,-271.46 867.58,-266.4 866.46,-273.31"/>
</g>
<!-- Node10 -->
<g id="node10" class="node">
<title>Node10</title>
<g id="a_node10"><a xlink:href="abstract__object__set_8cpp.html" target="_top" xlink:title=" ">
<polygon fill="none" stroke="black" points="877,-178.5 877,-230.5 1077,-230.5 1077,-178.5 877,-178.5"/>
<text text-anchor="start" x="885" y="-218.5" font-family="Helvetica,sans-Serif" font-size="10.00">/home/runner/work/cbmc</text>
<text text-anchor="start" x="885" y="-207.5" font-family="Helvetica,sans-Serif" font-size="10.00">&#45;documentation/cbmc&#45;documentation</text>
<text text-anchor="start" x="885" y="-196.5" font-family="Helvetica,sans-Serif" font-size="10.00">/src/analyses/variable&#45;sensitivity</text>
<text text-anchor="middle" x="977" y="-185.5" font-family="Helvetica,sans-Serif" font-size="10.00">/abstract_object_set.cpp</text>
</a>
</g>
</g>
<!-- Node1&#45;&gt;Node10 -->
<g id="edge9" class="edge">
<title>Node1&#45;&gt;Node10</title>
<path fill="none" stroke="midnightblue" d="M977,-257.12C977,-248.41 977,-238.99 977,-230.61"/>
<polygon fill="midnightblue" stroke="midnightblue" points="973.5,-257.27 977,-267.27 980.5,-257.27 973.5,-257.27"/>
</g>
<!-- Node11 -->
<g id="node11" class="node">
<title>Node11</title>
<g id="a_node11"><a xlink:href="constant__abstract__value_8cpp.html" target="_top" xlink:title=" ">
<polygon fill="none" stroke="black" points="1095,-178.5 1095,-230.5 1295,-230.5 1295,-178.5 1095,-178.5"/>
<text text-anchor="start" x="1103" y="-218.5" font-family="Helvetica,sans-Serif" font-size="10.00">/home/runner/work/cbmc</text>
<text text-anchor="start" x="1103" y="-207.5" font-family="Helvetica,sans-Serif" font-size="10.00">&#45;documentation/cbmc&#45;documentation</text>
<text text-anchor="start" x="1103" y="-196.5" font-family="Helvetica,sans-Serif" font-size="10.00">/src/analyses/variable&#45;sensitivity</text>
<text text-anchor="middle" x="1195" y="-185.5" font-family="Helvetica,sans-Serif" font-size="10.00">/constant_abstract_value.cpp</text>
</a>
</g>
</g>
<!-- Node1&#45;&gt;Node11 -->
<g id="edge10" class="edge">
<title>Node1&#45;&gt;Node11</title>
<path fill="none" stroke="midnightblue" d="M1038.83,-263.89C1066.63,-253.49 1099.52,-241.2 1127.92,-230.58"/>
<polygon fill="midnightblue" stroke="midnightblue" points="1037.36,-260.7 1029.22,-267.48 1039.81,-267.26 1037.36,-260.7"/>
</g>
<!-- Node12 -->
<g id="node12" class="node">
<title>Node12</title>
<g id="a_node12"><a xlink:href="widened__range_8h.html" target="_top" xlink:title=" ">
<polygon fill="none" stroke="black" points="659,-178.5 659,-230.5 859,-230.5 859,-178.5 659,-178.5"/>
<text text-anchor="start" x="667" y="-218.5" font-family="Helvetica,sans-Serif" font-size="10.00">/home/runner/work/cbmc</text>
<text text-anchor="start" x="667" y="-207.5" font-family="Helvetica,sans-Serif" font-size="10.00">&#45;documentation/cbmc&#45;documentation</text>
<text text-anchor="start" x="667" y="-196.5" font-family="Helvetica,sans-Serif" font-size="10.00">/src/analyses/variable&#45;sensitivity</text>
<text text-anchor="middle" x="759" y="-185.5" font-family="Helvetica,sans-Serif" font-size="10.00">/widened_range.h</text>
</a>
</g>
</g>
<!-- Node1&#45;&gt;Node12 -->
<g id="edge11" class="edge">
<title>Node1&#45;&gt;Node12</title>
<path fill="none" stroke="midnightblue" d="M915.17,-263.89C887.37,-253.49 854.48,-241.2 826.08,-230.58"/>
<polygon fill="midnightblue" stroke="midnightblue" points="914.19,-267.26 924.78,-267.48 916.64,-260.7 914.19,-267.26"/>
</g>
<!-- Node14 -->
<g id="node14" class="node">
<title>Node14</title>
<g id="a_node14"><a xlink:href="interval_8cpp.html" target="_top" xlink:title=" ">
<polygon fill="none" stroke="black" points="1313,-184 1313,-225 1513,-225 1513,-184 1313,-184"/>
<text text-anchor="start" x="1321" y="-213" font-family="Helvetica,sans-Serif" font-size="10.00">/home/runner/work/cbmc</text>
<text text-anchor="start" x="1321" y="-202" font-family="Helvetica,sans-Serif" font-size="10.00">&#45;documentation/cbmc&#45;documentation</text>
<text text-anchor="middle" x="1413" y="-191" font-family="Helvetica,sans-Serif" font-size="10.00">/src/util/interval.cpp</text>
</a>
</g>
</g>
<!-- Node1&#45;&gt;Node14 -->
<g id="edge15" class="edge">
<title>Node1&#45;&gt;Node14</title>
<path fill="none" stroke="midnightblue" d="M1087.15,-269.83C1150.72,-259.5 1232.06,-245.56 1304,-231 1313.05,-229.17 1322.49,-227.14 1331.87,-225.05"/>
<polygon fill="midnightblue" stroke="midnightblue" points="1086.42,-266.4 1077.11,-271.46 1087.54,-273.31 1086.42,-266.4"/>
</g>
<!-- Node3 -->
<g id="node3" class="node">
<title>Node3</title>
<g id="a_node3"><a xlink:href="variable__sensitivity__object__factory_8h.html" target="_top" xlink:title=" ">
<polygon fill="none" stroke="black" points="223,-89.5 223,-141.5 423,-141.5 423,-89.5 223,-89.5"/>
<text text-anchor="start" x="231" y="-129.5" font-family="Helvetica,sans-Serif" font-size="10.00">/home/runner/work/cbmc</text>
<text text-anchor="start" x="231" y="-118.5" font-family="Helvetica,sans-Serif" font-size="10.00">&#45;documentation/cbmc&#45;documentation</text>
<text text-anchor="start" x="231" y="-107.5" font-family="Helvetica,sans-Serif" font-size="10.00">/src/analyses/variable&#45;sensitivity</text>
<text text-anchor="middle" x="323" y="-96.5" font-family="Helvetica,sans-Serif" font-size="10.00">/variable_sensitivity_object_factory.h</text>
</a>
</g>
</g>
<!-- Node2&#45;&gt;Node3 -->
<g id="edge2" class="edge">
<title>Node2&#45;&gt;Node3</title>
<path fill="none" stroke="midnightblue" d="M468.88,-174.72C441.98,-163.98 411.68,-151.89 385.7,-141.52"/>
<polygon fill="midnightblue" stroke="midnightblue" points="467.65,-178 478.24,-178.45 470.25,-171.5 467.65,-178"/>
</g>
<!-- Node7 -->
<g id="node7" class="node">
<title>Node7</title>
<g id="a_node7"><a xlink:href="abstract__value__object_8cpp.html" target="_top" xlink:title=" ">
<polygon fill="none" stroke="black" points="5,-89.5 5,-141.5 205,-141.5 205,-89.5 5,-89.5"/>
<text text-anchor="start" x="13" y="-129.5" font-family="Helvetica,sans-Serif" font-size="10.00">/home/runner/work/cbmc</text>
<text text-anchor="start" x="13" y="-118.5" font-family="Helvetica,sans-Serif" font-size="10.00">&#45;documentation/cbmc&#45;documentation</text>
<text text-anchor="start" x="13" y="-107.5" font-family="Helvetica,sans-Serif" font-size="10.00">/src/analyses/variable&#45;sensitivity</text>
<text text-anchor="middle" x="105" y="-96.5" font-family="Helvetica,sans-Serif" font-size="10.00">/abstract_value_object.cpp</text>
</a>
</g>
</g>
<!-- Node2&#45;&gt;Node7 -->
<g id="edge6" class="edge">
<title>Node2&#45;&gt;Node7</title>
<path fill="none" stroke="midnightblue" d="M430.91,-184.04C367.37,-172.5 286.03,-157.19 214,-142 211.05,-141.38 208.06,-140.74 205.05,-140.08"/>
<polygon fill="midnightblue" stroke="midnightblue" points="430.49,-187.52 440.95,-185.86 431.74,-180.63 430.49,-187.52"/>
</g>
<!-- Node8 -->
<g id="node8" class="node">
<title>Node8</title>
<g id="a_node8"><a xlink:href="interval__abstract__value_8cpp.html" target="_top" xlink:title=" ">
<polygon fill="none" stroke="black" points="659,-89.5 659,-141.5 859,-141.5 859,-89.5 659,-89.5"/>
<text text-anchor="start" x="667" y="-129.5" font-family="Helvetica,sans-Serif" font-size="10.00">/home/runner/work/cbmc</text>
<text text-anchor="start" x="667" y="-118.5" font-family="Helvetica,sans-Serif" font-size="10.00">&#45;documentation/cbmc&#45;documentation</text>
<text text-anchor="start" x="667" y="-107.5" font-family="Helvetica,sans-Serif" font-size="10.00">/src/analyses/variable&#45;sensitivity</text>
<text text-anchor="middle" x="759" y="-96.5" font-family="Helvetica,sans-Serif" font-size="10.00">/interval_abstract_value.cpp</text>
</a>
</g>
</g>
<!-- Node2&#45;&gt;Node8 -->
<g id="edge7" class="edge">
<title>Node2&#45;&gt;Node8</title>
<path fill="none" stroke="midnightblue" d="M613.12,-174.72C640.02,-163.98 670.32,-151.89 696.3,-141.52"/>
<polygon fill="midnightblue" stroke="midnightblue" points="611.75,-171.5 603.76,-178.45 614.35,-178 611.75,-171.5"/>
</g>
<!-- Node9 -->
<g id="node9" class="node">
<title>Node9</title>
<g id="a_node9"><a xlink:href="value__set__abstract__object_8cpp.html" target="_top" xlink:title=" ">
<polygon fill="none" stroke="black" points="441,-89.5 441,-141.5 641,-141.5 641,-89.5 441,-89.5"/>
<text text-anchor="start" x="449" y="-129.5" font-family="Helvetica,sans-Serif" font-size="10.00">/home/runner/work/cbmc</text>
<text text-anchor="start" x="449" y="-118.5" font-family="Helvetica,sans-Serif" font-size="10.00">&#45;documentation/cbmc&#45;documentation</text>
<text text-anchor="start" x="449" y="-107.5" font-family="Helvetica,sans-Serif" font-size="10.00">/src/analyses/variable&#45;sensitivity</text>
<text text-anchor="middle" x="541" y="-96.5" font-family="Helvetica,sans-Serif" font-size="10.00">/value_set_abstract_object.cpp</text>
</a>
</g>
</g>
<!-- Node2&#45;&gt;Node9 -->
<g id="edge8" class="edge">
<title>Node2&#45;&gt;Node9</title>
<path fill="none" stroke="midnightblue" d="M541,-168.19C541,-159.28 541,-149.9 541,-141.61"/>
<polygon fill="midnightblue" stroke="midnightblue" points="537.5,-168.34 541,-178.34 544.5,-168.34 537.5,-168.34"/>
</g>
<!-- Node4 -->
<g id="node4" class="node">
<title>Node4</title>
<g id="a_node4"><a xlink:href="abstract__environment_8cpp.html" target="_top" xlink:title=" ">
<polygon fill="none" stroke="black" points="0,-0.5 0,-52.5 200,-52.5 200,-0.5 0,-0.5"/>
<text text-anchor="start" x="8" y="-40.5" font-family="Helvetica,sans-Serif" font-size="10.00">/home/runner/work/cbmc</text>
<text text-anchor="start" x="8" y="-29.5" font-family="Helvetica,sans-Serif" font-size="10.00">&#45;documentation/cbmc&#45;documentation</text>
<text text-anchor="start" x="8" y="-18.5" font-family="Helvetica,sans-Serif" font-size="10.00">/src/analyses/variable&#45;sensitivity</text>
<text text-anchor="middle" x="100" y="-7.5" font-family="Helvetica,sans-Serif" font-size="10.00">/abstract_environment.cpp</text>
</a>
</g>
</g>
<!-- Node3&#45;&gt;Node4 -->
<g id="edge3" class="edge">
<title>Node3&#45;&gt;Node4</title>
<path fill="none" stroke="midnightblue" d="M249.22,-85.72C221.71,-74.98 190.71,-62.89 164.13,-52.52"/>
<polygon fill="midnightblue" stroke="midnightblue" points="248.21,-89.08 258.8,-89.45 250.75,-82.56 248.21,-89.08"/>
</g>
<!-- Node5 -->
<g id="node5" class="node">
<title>Node5</title>
<g id="a_node5"><a xlink:href="variable__sensitivity__object__factory_8cpp.html" target="_top" xlink:title=" ">
<polygon fill="none" stroke="black" points="218.5,-0.5 218.5,-52.5 427.5,-52.5 427.5,-0.5 218.5,-0.5"/>
<text text-anchor="start" x="226.5" y="-40.5" font-family="Helvetica,sans-Serif" font-size="10.00">/home/runner/work/cbmc</text>
<text text-anchor="start" x="226.5" y="-29.5" font-family="Helvetica,sans-Serif" font-size="10.00">&#45;documentation/cbmc&#45;documentation</text>
<text text-anchor="start" x="226.5" y="-18.5" font-family="Helvetica,sans-Serif" font-size="10.00">/src/analyses/variable&#45;sensitivity</text>
<text text-anchor="middle" x="323" y="-7.5" font-family="Helvetica,sans-Serif" font-size="10.00">/variable_sensitivity_object_factory.cpp</text>
</a>
</g>
</g>
<!-- Node3&#45;&gt;Node5 -->
<g id="edge4" class="edge">
<title>Node3&#45;&gt;Node5</title>
<path fill="none" stroke="midnightblue" d="M323,-79.19C323,-70.28 323,-60.9 323,-52.61"/>
<polygon fill="midnightblue" stroke="midnightblue" points="319.5,-79.34 323,-89.34 326.5,-79.34 319.5,-79.34"/>
</g>
<!-- Node6 -->
<g id="node6" class="node">
<title>Node6</title>
<g id="a_node6"><a xlink:href="build__analyzer_8cpp.html" target="_top" xlink:title=" ">
<polygon fill="none" stroke="black" points="446,-6 446,-47 646,-47 646,-6 446,-6"/>
<text text-anchor="start" x="454" y="-35" font-family="Helvetica,sans-Serif" font-size="10.00">/home/runner/work/cbmc</text>
<text text-anchor="start" x="454" y="-24" font-family="Helvetica,sans-Serif" font-size="10.00">&#45;documentation/cbmc&#45;documentation</text>
<text text-anchor="middle" x="546" y="-13" font-family="Helvetica,sans-Serif" font-size="10.00">/src/goto&#45;analyzer/build_analyzer.cpp</text>
</a>
</g>
</g>
<!-- Node3&#45;&gt;Node6 -->
<g id="edge5" class="edge">
<title>Node3&#45;&gt;Node6</title>
<path fill="none" stroke="midnightblue" d="M396.66,-85.76C429.13,-73.09 466.46,-58.53 495.67,-47.13"/>
<polygon fill="midnightblue" stroke="midnightblue" points="395.25,-82.56 387.2,-89.45 397.79,-89.08 395.25,-82.56"/>
</g>
<!-- Node12&#45;&gt;Node8 -->
<g id="edge12" class="edge">
<title>Node12&#45;&gt;Node8</title>
<path fill="none" stroke="midnightblue" d="M759,-168.19C759,-159.28 759,-149.9 759,-141.61"/>
<polygon fill="midnightblue" stroke="midnightblue" points="755.5,-168.34 759,-178.34 762.5,-168.34 755.5,-168.34"/>
</g>
<!-- Node12&#45;&gt;Node9 -->
<g id="edge13" class="edge">
<title>Node12&#45;&gt;Node9</title>
<path fill="none" stroke="midnightblue" d="M686.88,-174.72C659.98,-163.98 629.68,-151.89 603.7,-141.52"/>
<polygon fill="midnightblue" stroke="midnightblue" points="685.65,-178 696.24,-178.45 688.25,-171.5 685.65,-178"/>
</g>
<!-- Node13 -->
<g id="node13" class="node">
<title>Node13</title>
<g id="a_node13"><a xlink:href="widened__range_8cpp.html" target="_top" xlink:title=" ">
<polygon fill="none" stroke="black" points="877,-89.5 877,-141.5 1077,-141.5 1077,-89.5 877,-89.5"/>
<text text-anchor="start" x="885" y="-129.5" font-family="Helvetica,sans-Serif" font-size="10.00">/home/runner/work/cbmc</text>
<text text-anchor="start" x="885" y="-118.5" font-family="Helvetica,sans-Serif" font-size="10.00">&#45;documentation/cbmc&#45;documentation</text>
<text text-anchor="start" x="885" y="-107.5" font-family="Helvetica,sans-Serif" font-size="10.00">/src/analyses/variable&#45;sensitivity</text>
<text text-anchor="middle" x="977" y="-96.5" font-family="Helvetica,sans-Serif" font-size="10.00">/widened_range.cpp</text>
</a>
</g>
</g>
<!-- Node12&#45;&gt;Node13 -->
<g id="edge14" class="edge">
<title>Node12&#45;&gt;Node13</title>
<path fill="none" stroke="midnightblue" d="M831.12,-174.72C858.02,-163.98 888.32,-151.89 914.3,-141.52"/>
<polygon fill="midnightblue" stroke="midnightblue" points="829.75,-171.5 821.76,-178.45 832.35,-178 829.75,-171.5"/>
</g>
</g>
</svg>
