<?xml version="1.0" encoding="UTF-8" standalone="no"?>
<!DOCTYPE svg PUBLIC "-//W3C//DTD SVG 1.1//EN"
 "http://www.w3.org/Graphics/SVG/1.1/DTD/svg11.dtd">
<!-- Generated by graphviz version 2.43.0 (0)
 -->
<!-- Title: /home/runner/work/cbmc&#45;documentation/cbmc&#45;documentation/src/analyses/invariant_set.h Pages: 1 -->
<svg width="543pt" height="284pt"
 viewBox="0.00 0.00 542.50 284.00" xmlns="http://www.w3.org/2000/svg" xmlns:xlink="http://www.w3.org/1999/xlink">
<g id="graph0" class="graph" transform="scale(1 1) rotate(0) translate(4 280)">
<title>/home/runner/work/cbmc&#45;documentation/cbmc&#45;documentation/src/analyses/invariant_set.h</title>
<!-- Node1 -->
<g id="node1" class="node">
<title>Node1</title>
<g id="a_node1"><a xlink:title=" ">
<polygon fill="#bfbfbf" stroke="black" points="225.5,-234.5 225.5,-275.5 425.5,-275.5 425.5,-234.5 225.5,-234.5"/>
<text text-anchor="start" x="233.5" y="-263.5" font-family="Helvetica,sans-Serif" font-size="10.00">/home/runner/work/cbmc</text>
<text text-anchor="start" x="233.5" y="-252.5" font-family="Helvetica,sans-Serif" font-size="10.00">&#45;documentation/cbmc&#45;documentation</text>
<text text-anchor="middle" x="325.5" y="-241.5" font-family="Helvetica,sans-Serif" font-size="10.00">/src/analyses/invariant_set.h</text>
</a>
</g>
</g>
<!-- Node2 -->
<g id="node2" class="node">
<title>Node2</title>
<g id="a_node2"><a xlink:href="invariant__set__domain_8h.html" target="_top" xlink:title=" ">
<polygon fill="none" stroke="black" points="116.5,-156.5 116.5,-197.5 316.5,-197.5 316.5,-156.5 116.5,-156.5"/>
<text text-anchor="start" x="124.5" y="-185.5" font-family="Helvetica,sans-Serif" font-size="10.00">/home/runner/work/cbmc</text>
<text text-anchor="start" x="124.5" y="-174.5" font-family="Helvetica,sans-Serif" font-size="10.00">&#45;documentation/cbmc&#45;documentation</text>
<text text-anchor="middle" x="216.5" y="-163.5" font-family="Helvetica,sans-Serif" font-size="10.00">/src/analyses/invariant_set_domain.h</text>
</a>
</g>
</g>
<!-- Node1&#45;&gt;Node2 -->
<g id="edge1" class="edge">
<title>Node1&#45;&gt;Node2</title>
<path fill="none" stroke="midnightblue" d="M289.12,-228.64C274.57,-218.49 258.07,-206.98 244.48,-197.51"/>
<polygon fill="midnightblue" stroke="midnightblue" points="287.23,-231.58 297.43,-234.43 291.23,-225.84 287.23,-231.58"/>
</g>
<!-- Node6 -->
<g id="node6" class="node">
<title>Node6</title>
<g id="a_node6"><a xlink:href="invariant__set_8cpp.html" target="_top" xlink:title=" ">
<polygon fill="none" stroke="black" points="334.5,-156.5 334.5,-197.5 534.5,-197.5 534.5,-156.5 334.5,-156.5"/>
<text text-anchor="start" x="342.5" y="-185.5" font-family="Helvetica,sans-Serif" font-size="10.00">/home/runner/work/cbmc</text>
<text text-anchor="start" x="342.5" y="-174.5" font-family="Helvetica,sans-Serif" font-size="10.00">&#45;documentation/cbmc&#45;documentation</text>
<text text-anchor="middle" x="434.5" y="-163.5" font-family="Helvetica,sans-Serif" font-size="10.00">/src/analyses/invariant_set.cpp</text>
</a>
</g>
</g>
<!-- Node1&#45;&gt;Node6 -->
<g id="edge5" class="edge">
<title>Node1&#45;&gt;Node6</title>
<path fill="none" stroke="midnightblue" d="M361.88,-228.64C376.43,-218.49 392.93,-206.98 406.52,-197.51"/>
<polygon fill="midnightblue" stroke="midnightblue" points="359.77,-225.84 353.57,-234.43 363.77,-231.58 359.77,-225.84"/>
</g>
<!-- Node3 -->
<g id="node3" class="node">
<title>Node3</title>
<g id="a_node3"><a xlink:href="invariant__propagation_8h.html" target="_top" xlink:title=" ">
<polygon fill="none" stroke="black" points="5.5,-78.5 5.5,-119.5 205.5,-119.5 205.5,-78.5 5.5,-78.5"/>
<text text-anchor="start" x="13.5" y="-107.5" font-family="Helvetica,sans-Serif" font-size="10.00">/home/runner/work/cbmc</text>
<text text-anchor="start" x="13.5" y="-96.5" font-family="Helvetica,sans-Serif" font-size="10.00">&#45;documentation/cbmc&#45;documentation</text>
<text text-anchor="middle" x="105.5" y="-85.5" font-family="Helvetica,sans-Serif" font-size="10.00">/src/analyses/invariant_propagation.h</text>
</a>
</g>
</g>
<!-- Node2&#45;&gt;Node3 -->
<g id="edge2" class="edge">
<title>Node2&#45;&gt;Node3</title>
<path fill="none" stroke="midnightblue" d="M179.45,-150.64C164.63,-140.49 147.83,-128.98 133.99,-119.51"/>
<polygon fill="midnightblue" stroke="midnightblue" points="177.69,-153.67 187.91,-156.43 181.64,-147.89 177.69,-153.67"/>
</g>
<!-- Node5 -->
<g id="node5" class="node">
<title>Node5</title>
<g id="a_node5"><a xlink:href="invariant__set__domain_8cpp.html" target="_top" xlink:title=" ">
<polygon fill="none" stroke="black" points="224,-78.5 224,-119.5 433,-119.5 433,-78.5 224,-78.5"/>
<text text-anchor="start" x="232" y="-107.5" font-family="Helvetica,sans-Serif" font-size="10.00">/home/runner/work/cbmc</text>
<text text-anchor="start" x="232" y="-96.5" font-family="Helvetica,sans-Serif" font-size="10.00">&#45;documentation/cbmc&#45;documentation</text>
<text text-anchor="middle" x="328.5" y="-85.5" font-family="Helvetica,sans-Serif" font-size="10.00">/src/analyses/invariant_set_domain.cpp</text>
</a>
</g>
</g>
<!-- Node2&#45;&gt;Node5 -->
<g id="edge4" class="edge">
<title>Node2&#45;&gt;Node5</title>
<path fill="none" stroke="midnightblue" d="M253.88,-150.64C268.84,-140.49 285.79,-128.98 299.75,-119.51"/>
<polygon fill="midnightblue" stroke="midnightblue" points="251.65,-147.92 245.34,-156.43 255.58,-153.71 251.65,-147.92"/>
</g>
<!-- Node4 -->
<g id="node4" class="node">
<title>Node4</title>
<g id="a_node4"><a xlink:href="invariant__propagation_8cpp.html" target="_top" xlink:title=" ">
<polygon fill="none" stroke="black" points="0,-0.5 0,-41.5 211,-41.5 211,-0.5 0,-0.5"/>
<text text-anchor="start" x="8" y="-29.5" font-family="Helvetica,sans-Serif" font-size="10.00">/home/runner/work/cbmc</text>
<text text-anchor="start" x="8" y="-18.5" font-family="Helvetica,sans-Serif" font-size="10.00">&#45;documentation/cbmc&#45;documentation</text>
<text text-anchor="middle" x="105.5" y="-7.5" font-family="Helvetica,sans-Serif" font-size="10.00">/src/analyses/invariant_propagation.cpp</text>
</a>
</g>
</g>
<!-- Node3&#45;&gt;Node4 -->
<g id="edge3" class="edge">
<title>Node3&#45;&gt;Node4</title>
<path fill="none" stroke="midnightblue" d="M105.5,-68.3C105.5,-59.3 105.5,-49.65 105.5,-41.51"/>
<polygon fill="midnightblue" stroke="midnightblue" points="102,-68.43 105.5,-78.43 109,-68.43 102,-68.43"/>
</g>
</g>
</svg>
