<?xml version="1.0" encoding="UTF-8" standalone="no"?>
<!DOCTYPE svg PUBLIC "-//W3C//DTD SVG 1.1//EN"
 "http://www.w3.org/Graphics/SVG/1.1/DTD/svg11.dtd">
<!-- Generated by graphviz version 2.43.0 (0)
 -->
<!-- Title: /home/runner/work/cbmc&#45;documentation/cbmc&#45;documentation/jbmc/src/java_bytecode/jar_file.h Pages: 1 -->
<svg width="2864pt" height="662pt"
 viewBox="0.00 0.00 2864.00 662.00" xmlns="http://www.w3.org/2000/svg" xmlns:xlink="http://www.w3.org/1999/xlink">
<g id="graph0" class="graph" transform="scale(1 1) rotate(0) translate(4 658)">
<title>/home/runner/work/cbmc&#45;documentation/cbmc&#45;documentation/jbmc/src/java_bytecode/jar_file.h</title>
<!-- Node1 -->
<g id="node1" class="node">
<title>Node1</title>
<g id="a_node1"><a xlink:title=" ">
<polygon fill="#bfbfbf" stroke="black" points="2490,-612.5 2490,-653.5 2690,-653.5 2690,-612.5 2490,-612.5"/>
<text text-anchor="start" x="2498" y="-641.5" font-family="Helvetica,sans-Serif" font-size="10.00">/home/runner/work/cbmc</text>
<text text-anchor="start" x="2498" y="-630.5" font-family="Helvetica,sans-Serif" font-size="10.00">&#45;documentation/cbmc&#45;documentation</text>
<text text-anchor="middle" x="2590" y="-619.5" font-family="Helvetica,sans-Serif" font-size="10.00">/jbmc/src/java_bytecode/jar_file.h</text>
</a>
</g>
</g>
<!-- Node2 -->
<g id="node2" class="node">
<title>Node2</title>
<g id="a_node2"><a xlink:href="jar__pool_8h.html" target="_top" xlink:title=" ">
<polygon fill="none" stroke="black" points="2324,-534.5 2324,-575.5 2524,-575.5 2524,-534.5 2324,-534.5"/>
<text text-anchor="start" x="2332" y="-563.5" font-family="Helvetica,sans-Serif" font-size="10.00">/home/runner/work/cbmc</text>
<text text-anchor="start" x="2332" y="-552.5" font-family="Helvetica,sans-Serif" font-size="10.00">&#45;documentation/cbmc&#45;documentation</text>
<text text-anchor="middle" x="2424" y="-541.5" font-family="Helvetica,sans-Serif" font-size="10.00">/jbmc/src/java_bytecode/jar_pool.h</text>
</a>
</g>
</g>
<!-- Node1&#45;&gt;Node2 -->
<g id="edge1" class="edge">
<title>Node1&#45;&gt;Node2</title>
<path fill="none" stroke="midnightblue" d="M2537.99,-608.19C2515.03,-597.67 2488.37,-585.47 2466.6,-575.51"/>
<polygon fill="midnightblue" stroke="midnightblue" points="2536.7,-611.45 2547.25,-612.43 2539.62,-605.08 2536.7,-611.45"/>
</g>
<!-- Node24 -->
<g id="node24" class="node">
<title>Node24</title>
<g id="a_node24"><a xlink:href="lambda__synthesis_8cpp.html" target="_top" xlink:title=" ">
<polygon fill="none" stroke="black" points="2518,-0.5 2518,-52.5 2718,-52.5 2718,-0.5 2518,-0.5"/>
<text text-anchor="start" x="2526" y="-40.5" font-family="Helvetica,sans-Serif" font-size="10.00">/home/runner/work/cbmc</text>
<text text-anchor="start" x="2526" y="-29.5" font-family="Helvetica,sans-Serif" font-size="10.00">&#45;documentation/cbmc&#45;documentation</text>
<text text-anchor="start" x="2526" y="-18.5" font-family="Helvetica,sans-Serif" font-size="10.00">/jbmc/src/java_bytecode/lambda</text>
<text text-anchor="middle" x="2618" y="-7.5" font-family="Helvetica,sans-Serif" font-size="10.00">_synthesis.cpp</text>
</a>
</g>
</g>
<!-- Node1&#45;&gt;Node24 -->
<g id="edge39" class="edge">
<title>Node1&#45;&gt;Node24</title>
<path fill="none" stroke="midnightblue" d="M2603.4,-603.22C2606.97,-594.62 2610.52,-585.06 2613,-576 2625.26,-531.16 2628,-518.98 2628,-472.5 2628,-472.5 2628,-472.5 2628,-203.5 2628,-149.64 2623.27,-86.65 2620.32,-52.54"/>
<polygon fill="midnightblue" stroke="midnightblue" points="2600.16,-601.89 2599.41,-612.46 2606.59,-604.66 2600.16,-601.89"/>
</g>
<!-- Node27 -->
<g id="node27" class="node">
<title>Node27</title>
<g id="a_node27"><a xlink:href="java__class__loader__base_8cpp.html" target="_top" xlink:title=" ">
<polygon fill="none" stroke="black" points="2304,-356.5 2304,-408.5 2504,-408.5 2504,-356.5 2304,-356.5"/>
<text text-anchor="start" x="2312" y="-396.5" font-family="Helvetica,sans-Serif" font-size="10.00">/home/runner/work/cbmc</text>
<text text-anchor="start" x="2312" y="-385.5" font-family="Helvetica,sans-Serif" font-size="10.00">&#45;documentation/cbmc&#45;documentation</text>
<text text-anchor="start" x="2312" y="-374.5" font-family="Helvetica,sans-Serif" font-size="10.00">/jbmc/src/java_bytecode/java</text>
<text text-anchor="middle" x="2404" y="-363.5" font-family="Helvetica,sans-Serif" font-size="10.00">_class_loader_base.cpp</text>
</a>
</g>
</g>
<!-- Node1&#45;&gt;Node27 -->
<g id="edge38" class="edge">
<title>Node1&#45;&gt;Node27</title>
<path fill="none" stroke="midnightblue" d="M2595.83,-602.41C2601.94,-562.33 2606.34,-490.57 2571,-445 2554.43,-423.64 2529.68,-409.69 2504.28,-400.59"/>
<polygon fill="midnightblue" stroke="midnightblue" points="2592.36,-601.92 2594.18,-612.35 2599.27,-603.06 2592.36,-601.92"/>
</g>
<!-- Node28 -->
<g id="node28" class="node">
<title>Node28</title>
<g id="a_node28"><a xlink:href="jar__pool_8cpp.html" target="_top" xlink:title=" ">
<polygon fill="none" stroke="black" points="2362,-451 2362,-492 2562,-492 2562,-451 2362,-451"/>
<text text-anchor="start" x="2370" y="-480" font-family="Helvetica,sans-Serif" font-size="10.00">/home/runner/work/cbmc</text>
<text text-anchor="start" x="2370" y="-469" font-family="Helvetica,sans-Serif" font-size="10.00">&#45;documentation/cbmc&#45;documentation</text>
<text text-anchor="middle" x="2462" y="-458" font-family="Helvetica,sans-Serif" font-size="10.00">/jbmc/src/java_bytecode/jar_pool.cpp</text>
</a>
</g>
</g>
<!-- Node1&#45;&gt;Node28 -->
<g id="edge37" class="edge">
<title>Node1&#45;&gt;Node28</title>
<path fill="none" stroke="midnightblue" d="M2576.48,-603.25C2566.14,-582.82 2550.67,-555.33 2533,-534 2520.1,-518.43 2503.04,-503.51 2488.87,-492.27"/>
<polygon fill="midnightblue" stroke="midnightblue" points="2573.43,-604.97 2581,-612.38 2579.7,-601.86 2573.43,-604.97"/>
</g>
<!-- Node29 -->
<g id="node29" class="node">
<title>Node29</title>
<g id="a_node29"><a xlink:href="jar__file_8cpp.html" target="_top" xlink:title=" ">
<polygon fill="none" stroke="black" points="2656,-534.5 2656,-575.5 2856,-575.5 2856,-534.5 2656,-534.5"/>
<text text-anchor="start" x="2664" y="-563.5" font-family="Helvetica,sans-Serif" font-size="10.00">/home/runner/work/cbmc</text>
<text text-anchor="start" x="2664" y="-552.5" font-family="Helvetica,sans-Serif" font-size="10.00">&#45;documentation/cbmc&#45;documentation</text>
<text text-anchor="middle" x="2756" y="-541.5" font-family="Helvetica,sans-Serif" font-size="10.00">/jbmc/src/java_bytecode/jar_file.cpp</text>
</a>
</g>
</g>
<!-- Node1&#45;&gt;Node29 -->
<g id="edge36" class="edge">
<title>Node1&#45;&gt;Node29</title>
<path fill="none" stroke="midnightblue" d="M2642.01,-608.19C2664.97,-597.67 2691.63,-585.47 2713.4,-575.51"/>
<polygon fill="midnightblue" stroke="midnightblue" points="2640.38,-605.08 2632.75,-612.43 2643.3,-611.45 2640.38,-605.08"/>
</g>
<!-- Node3 -->
<g id="node3" class="node">
<title>Node3</title>
<g id="a_node3"><a xlink:href="java__class__loader__base_8h.html" target="_top" xlink:title=" ">
<polygon fill="none" stroke="black" points="2144,-445.5 2144,-497.5 2344,-497.5 2344,-445.5 2144,-445.5"/>
<text text-anchor="start" x="2152" y="-485.5" font-family="Helvetica,sans-Serif" font-size="10.00">/home/runner/work/cbmc</text>
<text text-anchor="start" x="2152" y="-474.5" font-family="Helvetica,sans-Serif" font-size="10.00">&#45;documentation/cbmc&#45;documentation</text>
<text text-anchor="start" x="2152" y="-463.5" font-family="Helvetica,sans-Serif" font-size="10.00">/jbmc/src/java_bytecode/java</text>
<text text-anchor="middle" x="2244" y="-452.5" font-family="Helvetica,sans-Serif" font-size="10.00">_class_loader_base.h</text>
</a>
</g>
</g>
<!-- Node2&#45;&gt;Node3 -->
<g id="edge2" class="edge">
<title>Node2&#45;&gt;Node3</title>
<path fill="none" stroke="midnightblue" d="M2371.74,-530.34C2349.04,-520.06 2322.43,-508.01 2299.38,-497.58"/>
<polygon fill="midnightblue" stroke="midnightblue" points="2370.33,-533.54 2380.89,-534.48 2373.22,-527.17 2370.33,-533.54"/>
</g>
<!-- Node2&#45;&gt;Node28 -->
<g id="edge35" class="edge">
<title>Node2&#45;&gt;Node28</title>
<path fill="none" stroke="midnightblue" d="M2437.49,-525.06C2442.6,-514.12 2448.28,-501.93 2452.89,-492.05"/>
<polygon fill="midnightblue" stroke="midnightblue" points="2434.25,-523.73 2433.2,-534.27 2440.6,-526.69 2434.25,-523.73"/>
</g>
<!-- Node4 -->
<g id="node4" class="node">
<title>Node4</title>
<g id="a_node4"><a xlink:href="java__class__loader_8h.html" target="_top" xlink:title=" ">
<polygon fill="none" stroke="black" points="1927,-356.5 1927,-408.5 2127,-408.5 2127,-356.5 1927,-356.5"/>
<text text-anchor="start" x="1935" y="-396.5" font-family="Helvetica,sans-Serif" font-size="10.00">/home/runner/work/cbmc</text>
<text text-anchor="start" x="1935" y="-385.5" font-family="Helvetica,sans-Serif" font-size="10.00">&#45;documentation/cbmc&#45;documentation</text>
<text text-anchor="start" x="1935" y="-374.5" font-family="Helvetica,sans-Serif" font-size="10.00">/jbmc/src/java_bytecode/java</text>
<text text-anchor="middle" x="2027" y="-363.5" font-family="Helvetica,sans-Serif" font-size="10.00">_class_loader.h</text>
</a>
</g>
</g>
<!-- Node3&#45;&gt;Node4 -->
<g id="edge3" class="edge">
<title>Node3&#45;&gt;Node4</title>
<path fill="none" stroke="midnightblue" d="M2172.21,-441.72C2145.43,-430.98 2115.27,-418.89 2089.41,-408.52"/>
<polygon fill="midnightblue" stroke="midnightblue" points="2170.94,-444.98 2181.53,-445.45 2173.55,-438.48 2170.94,-444.98"/>
</g>
<!-- Node3&#45;&gt;Node27 -->
<g id="edge34" class="edge">
<title>Node3&#45;&gt;Node27</title>
<path fill="none" stroke="midnightblue" d="M2299.18,-440.49C2318.3,-430.1 2339.51,-418.57 2357.83,-408.61"/>
<polygon fill="midnightblue" stroke="midnightblue" points="2297.39,-437.48 2290.28,-445.34 2300.74,-443.63 2297.39,-437.48"/>
</g>
<!-- Node5 -->
<g id="node5" class="node">
<title>Node5</title>
<g id="a_node5"><a xlink:href="java__bytecode__language_8h.html" target="_top" xlink:title=" ">
<polygon fill="none" stroke="black" points="1069,-267.5 1069,-319.5 1269,-319.5 1269,-267.5 1069,-267.5"/>
<text text-anchor="start" x="1077" y="-307.5" font-family="Helvetica,sans-Serif" font-size="10.00">/home/runner/work/cbmc</text>
<text text-anchor="start" x="1077" y="-296.5" font-family="Helvetica,sans-Serif" font-size="10.00">&#45;documentation/cbmc&#45;documentation</text>
<text text-anchor="start" x="1077" y="-285.5" font-family="Helvetica,sans-Serif" font-size="10.00">/jbmc/src/java_bytecode/java</text>
<text text-anchor="middle" x="1169" y="-274.5" font-family="Helvetica,sans-Serif" font-size="10.00">_bytecode_language.h</text>
</a>
</g>
</g>
<!-- Node4&#45;&gt;Node5 -->
<g id="edge4" class="edge">
<title>Node4&#45;&gt;Node5</title>
<path fill="none" stroke="midnightblue" d="M1916.79,-370.32C1748.74,-353.28 1430.94,-321.06 1269.13,-304.65"/>
<polygon fill="midnightblue" stroke="midnightblue" points="1916.6,-373.82 1926.9,-371.35 1917.3,-366.86 1916.6,-373.82"/>
</g>
<!-- Node9 -->
<g id="node9" class="node">
<title>Node9</title>
<g id="a_node9"><a xlink:href="ci__lazy__methods_8cpp.html" target="_top" xlink:title=" ">
<polygon fill="none" stroke="black" points="1735,-178.5 1735,-230.5 1935,-230.5 1935,-178.5 1735,-178.5"/>
<text text-anchor="start" x="1743" y="-218.5" font-family="Helvetica,sans-Serif" font-size="10.00">/home/runner/work/cbmc</text>
<text text-anchor="start" x="1743" y="-207.5" font-family="Helvetica,sans-Serif" font-size="10.00">&#45;documentation/cbmc&#45;documentation</text>
<text text-anchor="start" x="1743" y="-196.5" font-family="Helvetica,sans-Serif" font-size="10.00">/jbmc/src/java_bytecode/ci_lazy</text>
<text text-anchor="middle" x="1835" y="-185.5" font-family="Helvetica,sans-Serif" font-size="10.00">_methods.cpp</text>
</a>
</g>
</g>
<!-- Node4&#45;&gt;Node9 -->
<g id="edge20" class="edge">
<title>Node4&#45;&gt;Node9</title>
<path fill="none" stroke="midnightblue" d="M1985.18,-350.02C1973.25,-340.65 1960.4,-330.16 1949,-320 1916.32,-290.9 1881.14,-254.74 1858.64,-230.94"/>
<polygon fill="midnightblue" stroke="midnightblue" points="1983.22,-352.94 1993.26,-356.32 1987.53,-347.41 1983.22,-352.94"/>
</g>
<!-- Node10 -->
<g id="node10" class="node">
<title>Node10</title>
<g id="a_node10"><a xlink:href="java__bytecode__language_8cpp.html" target="_top" xlink:title=" ">
<polygon fill="none" stroke="black" points="1845,-0.5 1845,-52.5 2045,-52.5 2045,-0.5 1845,-0.5"/>
<text text-anchor="start" x="1853" y="-40.5" font-family="Helvetica,sans-Serif" font-size="10.00">/home/runner/work/cbmc</text>
<text text-anchor="start" x="1853" y="-29.5" font-family="Helvetica,sans-Serif" font-size="10.00">&#45;documentation/cbmc&#45;documentation</text>
<text text-anchor="start" x="1853" y="-18.5" font-family="Helvetica,sans-Serif" font-size="10.00">/jbmc/src/java_bytecode/java</text>
<text text-anchor="middle" x="1945" y="-7.5" font-family="Helvetica,sans-Serif" font-size="10.00">_bytecode_language.cpp</text>
</a>
</g>
</g>
<!-- Node4&#45;&gt;Node10 -->
<g id="edge32" class="edge">
<title>Node4&#45;&gt;Node10</title>
<path fill="none" stroke="midnightblue" d="M1998.06,-348.31C1991.82,-339.61 1985.93,-329.87 1982,-320 1944.9,-226.79 1942.92,-104.85 1944.03,-52.81"/>
<polygon fill="midnightblue" stroke="midnightblue" points="1995.28,-350.44 2004.1,-356.32 2000.87,-346.23 1995.28,-350.44"/>
</g>
<!-- Node19 -->
<g id="node19" class="node">
<title>Node19</title>
<g id="a_node19"><a xlink:href="java__bytecode__convert__class_8h.html" target="_top" xlink:title=" ">
<polygon fill="none" stroke="black" points="2209,-267.5 2209,-319.5 2409,-319.5 2409,-267.5 2209,-267.5"/>
<text text-anchor="start" x="2217" y="-307.5" font-family="Helvetica,sans-Serif" font-size="10.00">/home/runner/work/cbmc</text>
<text text-anchor="start" x="2217" y="-296.5" font-family="Helvetica,sans-Serif" font-size="10.00">&#45;documentation/cbmc&#45;documentation</text>
<text text-anchor="start" x="2217" y="-285.5" font-family="Helvetica,sans-Serif" font-size="10.00">/jbmc/src/java_bytecode/java</text>
<text text-anchor="middle" x="2309" y="-274.5" font-family="Helvetica,sans-Serif" font-size="10.00">_bytecode_convert_class.h</text>
</a>
</g>
</g>
<!-- Node4&#45;&gt;Node19 -->
<g id="edge21" class="edge">
<title>Node4&#45;&gt;Node19</title>
<path fill="none" stroke="midnightblue" d="M2118.02,-353.42C2153.38,-342.51 2193.55,-330.12 2227.9,-319.52"/>
<polygon fill="midnightblue" stroke="midnightblue" points="2116.71,-350.16 2108.19,-356.45 2118.78,-356.85 2116.71,-350.16"/>
</g>
<!-- Node26 -->
<g id="node26" class="node">
<title>Node26</title>
<g id="a_node26"><a xlink:href="java__class__loader_8cpp.html" target="_top" xlink:title=" ">
<polygon fill="none" stroke="black" points="1991,-267.5 1991,-319.5 2191,-319.5 2191,-267.5 1991,-267.5"/>
<text text-anchor="start" x="1999" y="-307.5" font-family="Helvetica,sans-Serif" font-size="10.00">/home/runner/work/cbmc</text>
<text text-anchor="start" x="1999" y="-296.5" font-family="Helvetica,sans-Serif" font-size="10.00">&#45;documentation/cbmc&#45;documentation</text>
<text text-anchor="start" x="1999" y="-285.5" font-family="Helvetica,sans-Serif" font-size="10.00">/jbmc/src/java_bytecode/java</text>
<text text-anchor="middle" x="2091" y="-274.5" font-family="Helvetica,sans-Serif" font-size="10.00">_class_loader.cpp</text>
</a>
</g>
</g>
<!-- Node4&#45;&gt;Node26 -->
<g id="edge33" class="edge">
<title>Node4&#45;&gt;Node26</title>
<path fill="none" stroke="midnightblue" d="M2051.49,-348.22C2058.47,-338.72 2065.97,-328.53 2072.53,-319.61"/>
<polygon fill="midnightblue" stroke="midnightblue" points="2048.62,-346.21 2045.51,-356.34 2054.26,-350.35 2048.62,-346.21"/>
</g>
<!-- Node6 -->
<g id="node6" class="node">
<title>Node6</title>
<g id="a_node6"><a xlink:href="janalyzer__parse__options_8h.html" target="_top" xlink:title=" ">
<polygon fill="none" stroke="black" points="1005,-178.5 1005,-230.5 1205,-230.5 1205,-178.5 1005,-178.5"/>
<text text-anchor="start" x="1013" y="-218.5" font-family="Helvetica,sans-Serif" font-size="10.00">/home/runner/work/cbmc</text>
<text text-anchor="start" x="1013" y="-207.5" font-family="Helvetica,sans-Serif" font-size="10.00">&#45;documentation/cbmc&#45;documentation</text>
<text text-anchor="start" x="1013" y="-196.5" font-family="Helvetica,sans-Serif" font-size="10.00">/jbmc/src/janalyzer/janalyzer</text>
<text text-anchor="middle" x="1105" y="-185.5" font-family="Helvetica,sans-Serif" font-size="10.00">_parse_options.h</text>
</a>
</g>
</g>
<!-- Node5&#45;&gt;Node6 -->
<g id="edge5" class="edge">
<title>Node5&#45;&gt;Node6</title>
<path fill="none" stroke="midnightblue" d="M1144.51,-259.22C1137.53,-249.72 1130.03,-239.53 1123.47,-230.61"/>
<polygon fill="midnightblue" stroke="midnightblue" points="1141.74,-261.35 1150.49,-267.34 1147.38,-257.21 1141.74,-261.35"/>
</g>
<!-- Node8 -->
<g id="node8" class="node">
<title>Node8</title>
<g id="a_node8"><a xlink:href="janalyzer__parse__options_8cpp.html" target="_top" xlink:title=" ">
<polygon fill="none" stroke="black" points="1043,-89.5 1043,-141.5 1243,-141.5 1243,-89.5 1043,-89.5"/>
<text text-anchor="start" x="1051" y="-129.5" font-family="Helvetica,sans-Serif" font-size="10.00">/home/runner/work/cbmc</text>
<text text-anchor="start" x="1051" y="-118.5" font-family="Helvetica,sans-Serif" font-size="10.00">&#45;documentation/cbmc&#45;documentation</text>
<text text-anchor="start" x="1051" y="-107.5" font-family="Helvetica,sans-Serif" font-size="10.00">/jbmc/src/janalyzer/janalyzer</text>
<text text-anchor="middle" x="1143" y="-96.5" font-family="Helvetica,sans-Serif" font-size="10.00">_parse_options.cpp</text>
</a>
</g>
</g>
<!-- Node5&#45;&gt;Node8 -->
<g id="edge8" class="edge">
<title>Node5&#45;&gt;Node8</title>
<path fill="none" stroke="midnightblue" d="M1199.19,-259.12C1205.26,-250.53 1210.76,-240.9 1214,-231 1221.32,-208.61 1223.79,-199.43 1214,-178 1207.43,-163.61 1195.64,-151.3 1183.54,-141.55"/>
<polygon fill="midnightblue" stroke="midnightblue" points="1196.22,-257.24 1193,-267.33 1201.81,-261.46 1196.22,-257.24"/>
</g>
<!-- Node5&#45;&gt;Node9 -->
<g id="edge9" class="edge">
<title>Node5&#45;&gt;Node9</title>
<path fill="none" stroke="midnightblue" d="M1279.14,-284.26C1391.9,-274.9 1571.95,-257.43 1726,-231 1728.87,-230.51 1731.78,-229.98 1734.72,-229.44"/>
<polygon fill="midnightblue" stroke="midnightblue" points="1278.8,-280.77 1269.12,-285.08 1279.37,-287.75 1278.8,-280.77"/>
</g>
<!-- Node5&#45;&gt;Node10 -->
<g id="edge10" class="edge">
<title>Node5&#45;&gt;Node10</title>
<path fill="none" stroke="midnightblue" d="M1202.28,-260.18C1236.26,-227.32 1284.76,-180.81 1290,-178 1470.5,-81.3 1711.35,-46.45 1844.98,-34.1"/>
<polygon fill="midnightblue" stroke="midnightblue" points="1199.6,-257.91 1194.85,-267.38 1204.46,-262.94 1199.6,-257.91"/>
</g>
<!-- Node11 -->
<g id="node11" class="node">
<title>Node11</title>
<g id="a_node11"><a xlink:href="java__entry__point_8cpp.html" target="_top" xlink:title=" ">
<polygon fill="none" stroke="black" points="1299,-178.5 1299,-230.5 1499,-230.5 1499,-178.5 1299,-178.5"/>
<text text-anchor="start" x="1307" y="-218.5" font-family="Helvetica,sans-Serif" font-size="10.00">/home/runner/work/cbmc</text>
<text text-anchor="start" x="1307" y="-207.5" font-family="Helvetica,sans-Serif" font-size="10.00">&#45;documentation/cbmc&#45;documentation</text>
<text text-anchor="start" x="1307" y="-196.5" font-family="Helvetica,sans-Serif" font-size="10.00">/jbmc/src/java_bytecode/java</text>
<text text-anchor="middle" x="1399" y="-185.5" font-family="Helvetica,sans-Serif" font-size="10.00">_entry_point.cpp</text>
</a>
</g>
</g>
<!-- Node5&#45;&gt;Node11 -->
<g id="edge11" class="edge">
<title>Node5&#45;&gt;Node11</title>
<path fill="none" stroke="midnightblue" d="M1244.72,-263.86C1273.19,-253.09 1305.32,-240.94 1332.85,-230.52"/>
<polygon fill="midnightblue" stroke="midnightblue" points="1243.33,-260.64 1235.22,-267.45 1245.81,-267.19 1243.33,-260.64"/>
</g>
<!-- Node12 -->
<g id="node12" class="node">
<title>Node12</title>
<g id="a_node12"><a xlink:href="lazy__goto__model_8cpp.html" target="_top" xlink:title="Author: Diffblue Ltd.">
<polygon fill="none" stroke="black" points="1517,-178.5 1517,-230.5 1717,-230.5 1717,-178.5 1517,-178.5"/>
<text text-anchor="start" x="1525" y="-218.5" font-family="Helvetica,sans-Serif" font-size="10.00">/home/runner/work/cbmc</text>
<text text-anchor="start" x="1525" y="-207.5" font-family="Helvetica,sans-Serif" font-size="10.00">&#45;documentation/cbmc&#45;documentation</text>
<text text-anchor="start" x="1525" y="-196.5" font-family="Helvetica,sans-Serif" font-size="10.00">/jbmc/src/java_bytecode/lazy</text>
<text text-anchor="middle" x="1617" y="-185.5" font-family="Helvetica,sans-Serif" font-size="10.00">_goto_model.cpp</text>
</a>
</g>
</g>
<!-- Node5&#45;&gt;Node12 -->
<g id="edge12" class="edge">
<title>Node5&#45;&gt;Node12</title>
<path fill="none" stroke="midnightblue" d="M1279.08,-273.97C1345.54,-262.43 1431.82,-246.81 1508,-231 1510.95,-230.39 1513.94,-229.76 1516.96,-229.11"/>
<polygon fill="midnightblue" stroke="midnightblue" points="1278.27,-270.56 1269.01,-275.72 1279.46,-277.46 1278.27,-270.56"/>
</g>
<!-- Node13 -->
<g id="node13" class="node">
<title>Node13</title>
<g id="a_node13"><a xlink:href="jbmc__parse__options_8h.html" target="_top" xlink:title=" ">
<polygon fill="none" stroke="black" points="95,-184 95,-225 295,-225 295,-184 95,-184"/>
<text text-anchor="start" x="103" y="-213" font-family="Helvetica,sans-Serif" font-size="10.00">/home/runner/work/cbmc</text>
<text text-anchor="start" x="103" y="-202" font-family="Helvetica,sans-Serif" font-size="10.00">&#45;documentation/cbmc&#45;documentation</text>
<text text-anchor="middle" x="195" y="-191" font-family="Helvetica,sans-Serif" font-size="10.00">/jbmc/src/jbmc/jbmc_parse_options.h</text>
</a>
</g>
</g>
<!-- Node5&#45;&gt;Node13 -->
<g id="edge13" class="edge">
<title>Node5&#45;&gt;Node13</title>
<path fill="none" stroke="midnightblue" d="M1058.73,-289.85C894.54,-284.73 576.46,-270.25 309,-231 298.06,-229.39 286.62,-227.32 275.37,-225.04"/>
<polygon fill="midnightblue" stroke="midnightblue" points="1058.73,-293.35 1068.83,-290.16 1058.95,-286.36 1058.73,-293.35"/>
</g>
<!-- Node15 -->
<g id="node15" class="node">
<title>Node15</title>
<g id="a_node15"><a xlink:href="jbmc__parse__options_8cpp.html" target="_top" xlink:title=" ">
<polygon fill="none" stroke="black" points="218.5,-95 218.5,-136 427.5,-136 427.5,-95 218.5,-95"/>
<text text-anchor="start" x="226.5" y="-124" font-family="Helvetica,sans-Serif" font-size="10.00">/home/runner/work/cbmc</text>
<text text-anchor="start" x="226.5" y="-113" font-family="Helvetica,sans-Serif" font-size="10.00">&#45;documentation/cbmc&#45;documentation</text>
<text text-anchor="middle" x="323" y="-102" font-family="Helvetica,sans-Serif" font-size="10.00">/jbmc/src/jbmc/jbmc_parse_options.cpp</text>
</a>
</g>
</g>
<!-- Node5&#45;&gt;Node15 -->
<g id="edge16" class="edge">
<title>Node5&#45;&gt;Node15</title>
<path fill="none" stroke="midnightblue" d="M1058.71,-291.74C845.65,-289.22 393.77,-278.29 342,-231 315.82,-207.08 316.66,-161.93 319.74,-136.05"/>
<polygon fill="midnightblue" stroke="midnightblue" points="1058.95,-295.25 1068.99,-291.86 1059.03,-288.25 1058.95,-295.25"/>
</g>
<!-- Node16 -->
<g id="node16" class="node">
<title>Node16</title>
<g id="a_node16"><a xlink:href="jdiff__languages_8cpp.html" target="_top" xlink:title=" ">
<polygon fill="none" stroke="black" points="351,-184 351,-225 551,-225 551,-184 351,-184"/>
<text text-anchor="start" x="359" y="-213" font-family="Helvetica,sans-Serif" font-size="10.00">/home/runner/work/cbmc</text>
<text text-anchor="start" x="359" y="-202" font-family="Helvetica,sans-Serif" font-size="10.00">&#45;documentation/cbmc&#45;documentation</text>
<text text-anchor="middle" x="451" y="-191" font-family="Helvetica,sans-Serif" font-size="10.00">/jbmc/src/jdiff/jdiff_languages.cpp</text>
</a>
</g>
</g>
<!-- Node5&#45;&gt;Node16 -->
<g id="edge17" class="edge">
<title>Node5&#45;&gt;Node16</title>
<path fill="none" stroke="midnightblue" d="M1058.66,-285.66C936.22,-277.07 733.07,-259.86 560,-231 549.94,-229.32 539.42,-227.26 529.05,-225.04"/>
<polygon fill="midnightblue" stroke="midnightblue" points="1058.57,-289.16 1068.79,-286.36 1059.05,-282.18 1058.57,-289.16"/>
</g>
<!-- Node17 -->
<g id="node17" class="node">
<title>Node17</title>
<g id="a_node17"><a xlink:href="jdiff__parse__options_8cpp.html" target="_top" xlink:title=" ">
<polygon fill="none" stroke="black" points="569,-184 569,-225 769,-225 769,-184 569,-184"/>
<text text-anchor="start" x="577" y="-213" font-family="Helvetica,sans-Serif" font-size="10.00">/home/runner/work/cbmc</text>
<text text-anchor="start" x="577" y="-202" font-family="Helvetica,sans-Serif" font-size="10.00">&#45;documentation/cbmc&#45;documentation</text>
<text text-anchor="middle" x="669" y="-191" font-family="Helvetica,sans-Serif" font-size="10.00">/jbmc/src/jdiff/jdiff_parse_options.cpp</text>
</a>
</g>
</g>
<!-- Node5&#45;&gt;Node17 -->
<g id="edge18" class="edge">
<title>Node5&#45;&gt;Node17</title>
<path fill="none" stroke="midnightblue" d="M1058.69,-277.37C980.15,-266.05 872.26,-249.41 778,-231 768.75,-229.19 759.09,-227.16 749.51,-225.04"/>
<polygon fill="midnightblue" stroke="midnightblue" points="1058.2,-280.83 1068.6,-278.79 1059.2,-273.9 1058.2,-280.83"/>
</g>
<!-- Node18 -->
<g id="node18" class="node">
<title>Node18</title>
<g id="a_node18"><a xlink:href="load__java__class_8cpp.html" target="_top" xlink:title=" ">
<polygon fill="none" stroke="black" points="787,-178.5 787,-230.5 987,-230.5 987,-178.5 787,-178.5"/>
<text text-anchor="start" x="795" y="-218.5" font-family="Helvetica,sans-Serif" font-size="10.00">/home/runner/work/cbmc</text>
<text text-anchor="start" x="795" y="-207.5" font-family="Helvetica,sans-Serif" font-size="10.00">&#45;documentation/cbmc&#45;documentation</text>
<text text-anchor="start" x="795" y="-196.5" font-family="Helvetica,sans-Serif" font-size="10.00">/jbmc/unit/java&#45;testing&#45;utils</text>
<text text-anchor="middle" x="887" y="-185.5" font-family="Helvetica,sans-Serif" font-size="10.00">/load_java_class.cpp</text>
</a>
</g>
</g>
<!-- Node5&#45;&gt;Node18 -->
<g id="edge19" class="edge">
<title>Node5&#45;&gt;Node18</title>
<path fill="none" stroke="midnightblue" d="M1077.98,-264.42C1042.62,-253.51 1002.45,-241.12 968.1,-230.52"/>
<polygon fill="midnightblue" stroke="midnightblue" points="1077.22,-267.85 1087.81,-267.45 1079.29,-261.16 1077.22,-267.85"/>
</g>
<!-- Node7 -->
<g id="node7" class="node">
<title>Node7</title>
<g id="a_node7"><a xlink:href="janalyzer__main_8cpp.html" target="_top" xlink:title=" ">
<polygon fill="none" stroke="black" points="817.5,-95 817.5,-136 1024.5,-136 1024.5,-95 817.5,-95"/>
<text text-anchor="start" x="825.5" y="-124" font-family="Helvetica,sans-Serif" font-size="10.00">/home/runner/work/cbmc</text>
<text text-anchor="start" x="825.5" y="-113" font-family="Helvetica,sans-Serif" font-size="10.00">&#45;documentation/cbmc&#45;documentation</text>
<text text-anchor="middle" x="921" y="-102" font-family="Helvetica,sans-Serif" font-size="10.00">/jbmc/src/janalyzer/janalyzer_main.cpp</text>
</a>
</g>
</g>
<!-- Node6&#45;&gt;Node7 -->
<g id="edge6" class="edge">
<title>Node6&#45;&gt;Node7</title>
<path fill="none" stroke="midnightblue" d="M1042.59,-173.99C1016.15,-161.49 986.05,-147.26 962.42,-136.08"/>
<polygon fill="midnightblue" stroke="midnightblue" points="1041.24,-177.23 1051.78,-178.34 1044.24,-170.9 1041.24,-177.23"/>
</g>
<!-- Node6&#45;&gt;Node8 -->
<g id="edge7" class="edge">
<title>Node6&#45;&gt;Node8</title>
<path fill="none" stroke="midnightblue" d="M1120.04,-169.06C1124.05,-159.9 1128.29,-150.17 1132.03,-141.61"/>
<polygon fill="midnightblue" stroke="midnightblue" points="1116.79,-167.77 1115.99,-178.34 1123.2,-170.57 1116.79,-167.77"/>
</g>
<!-- Node14 -->
<g id="node14" class="node">
<title>Node14</title>
<g id="a_node14"><a xlink:href="jbmc__main_8cpp.html" target="_top" xlink:title=" ">
<polygon fill="none" stroke="black" points="0,-95 0,-136 200,-136 200,-95 0,-95"/>
<text text-anchor="start" x="8" y="-124" font-family="Helvetica,sans-Serif" font-size="10.00">/home/runner/work/cbmc</text>
<text text-anchor="start" x="8" y="-113" font-family="Helvetica,sans-Serif" font-size="10.00">&#45;documentation/cbmc&#45;documentation</text>
<text text-anchor="middle" x="100" y="-102" font-family="Helvetica,sans-Serif" font-size="10.00">/jbmc/src/jbmc/jbmc_main.cpp</text>
</a>
</g>
</g>
<!-- Node13&#45;&gt;Node14 -->
<g id="edge14" class="edge">
<title>Node13&#45;&gt;Node14</title>
<path fill="none" stroke="midnightblue" d="M165.8,-176.76C151.5,-163.66 134.57,-148.16 121.47,-136.16"/>
<polygon fill="midnightblue" stroke="midnightblue" points="163.7,-179.59 173.44,-183.76 168.43,-174.42 163.7,-179.59"/>
</g>
<!-- Node13&#45;&gt;Node15 -->
<g id="edge15" class="edge">
<title>Node13&#45;&gt;Node15</title>
<path fill="none" stroke="midnightblue" d="M232.15,-178.25C251.82,-164.88 275.62,-148.7 293.93,-136.26"/>
<polygon fill="midnightblue" stroke="midnightblue" points="230.03,-175.46 223.73,-183.98 233.96,-181.25 230.03,-175.46"/>
</g>
<!-- Node19&#45;&gt;Node10 -->
<g id="edge31" class="edge">
<title>Node19&#45;&gt;Node10</title>
<path fill="none" stroke="midnightblue" d="M2219.94,-263.76C2197.87,-254.82 2174.87,-243.87 2155,-231 2075.32,-179.39 1999.99,-94.59 1965.18,-52.63"/>
<polygon fill="midnightblue" stroke="midnightblue" points="2218.74,-267.05 2229.33,-267.46 2221.31,-260.54 2218.74,-267.05"/>
</g>
<!-- Node20 -->
<g id="node20" class="node">
<title>Node20</title>
<g id="a_node20"><a xlink:href="java__bytecode__convert__class_8cpp.html" target="_top" xlink:title=" ">
<polygon fill="none" stroke="black" points="2063,-0.5 2063,-52.5 2263,-52.5 2263,-0.5 2063,-0.5"/>
<text text-anchor="start" x="2071" y="-40.5" font-family="Helvetica,sans-Serif" font-size="10.00">/home/runner/work/cbmc</text>
<text text-anchor="start" x="2071" y="-29.5" font-family="Helvetica,sans-Serif" font-size="10.00">&#45;documentation/cbmc&#45;documentation</text>
<text text-anchor="start" x="2071" y="-18.5" font-family="Helvetica,sans-Serif" font-size="10.00">/jbmc/src/java_bytecode/java</text>
<text text-anchor="middle" x="2163" y="-7.5" font-family="Helvetica,sans-Serif" font-size="10.00">_bytecode_convert_class.cpp</text>
</a>
</g>
</g>
<!-- Node19&#45;&gt;Node20 -->
<g id="edge22" class="edge">
<title>Node19&#45;&gt;Node20</title>
<path fill="none" stroke="midnightblue" d="M2253.36,-262.2C2212.17,-236.32 2159.19,-194.9 2135,-142 2121.64,-112.78 2135.2,-76.34 2147.68,-52.52"/>
<polygon fill="midnightblue" stroke="midnightblue" points="2251.6,-265.23 2261.95,-267.49 2255.27,-259.27 2251.6,-265.23"/>
</g>
<!-- Node21 -->
<g id="node21" class="node">
<title>Node21</title>
<g id="a_node21"><a xlink:href="java__bytecode__convert__method__class_8h.html" target="_top" xlink:title=" ">
<polygon fill="none" stroke="black" points="2254,-178.5 2254,-230.5 2454,-230.5 2454,-178.5 2254,-178.5"/>
<text text-anchor="start" x="2262" y="-218.5" font-family="Helvetica,sans-Serif" font-size="10.00">/home/runner/work/cbmc</text>
<text text-anchor="start" x="2262" y="-207.5" font-family="Helvetica,sans-Serif" font-size="10.00">&#45;documentation/cbmc&#45;documentation</text>
<text text-anchor="start" x="2262" y="-196.5" font-family="Helvetica,sans-Serif" font-size="10.00">/jbmc/src/java_bytecode/java</text>
<text text-anchor="middle" x="2354" y="-185.5" font-family="Helvetica,sans-Serif" font-size="10.00">_bytecode_convert_method_class.h</text>
</a>
</g>
</g>
<!-- Node19&#45;&gt;Node21 -->
<g id="edge23" class="edge">
<title>Node19&#45;&gt;Node21</title>
<path fill="none" stroke="midnightblue" d="M2326.66,-258.35C2331.45,-249.1 2336.54,-239.26 2341.01,-230.61"/>
<polygon fill="midnightblue" stroke="midnightblue" points="2323.5,-256.85 2322.02,-267.34 2329.72,-260.06 2323.5,-256.85"/>
</g>
<!-- Node22 -->
<g id="node22" class="node">
<title>Node22</title>
<g id="a_node22"><a xlink:href="java__bytecode__convert__method_8h.html" target="_top" xlink:title=" ">
<polygon fill="none" stroke="black" points="2144,-89.5 2144,-141.5 2344,-141.5 2344,-89.5 2144,-89.5"/>
<text text-anchor="start" x="2152" y="-129.5" font-family="Helvetica,sans-Serif" font-size="10.00">/home/runner/work/cbmc</text>
<text text-anchor="start" x="2152" y="-118.5" font-family="Helvetica,sans-Serif" font-size="10.00">&#45;documentation/cbmc&#45;documentation</text>
<text text-anchor="start" x="2152" y="-107.5" font-family="Helvetica,sans-Serif" font-size="10.00">/jbmc/src/java_bytecode/java</text>
<text text-anchor="middle" x="2244" y="-96.5" font-family="Helvetica,sans-Serif" font-size="10.00">_bytecode_convert_method.h</text>
</a>
</g>
</g>
<!-- Node21&#45;&gt;Node22 -->
<g id="edge24" class="edge">
<title>Node21&#45;&gt;Node22</title>
<path fill="none" stroke="midnightblue" d="M2314.09,-171.93C2301.47,-161.96 2287.71,-151.07 2275.75,-141.61"/>
<polygon fill="midnightblue" stroke="midnightblue" points="2312.17,-174.88 2322.18,-178.34 2316.51,-169.39 2312.17,-174.88"/>
</g>
<!-- Node23 -->
<g id="node23" class="node">
<title>Node23</title>
<g id="a_node23"><a xlink:href="java__bytecode__convert__method_8cpp.html" target="_top" xlink:title=" ">
<polygon fill="none" stroke="black" points="2281,-0.5 2281,-52.5 2481,-52.5 2481,-0.5 2281,-0.5"/>
<text text-anchor="start" x="2289" y="-40.5" font-family="Helvetica,sans-Serif" font-size="10.00">/home/runner/work/cbmc</text>
<text text-anchor="start" x="2289" y="-29.5" font-family="Helvetica,sans-Serif" font-size="10.00">&#45;documentation/cbmc&#45;documentation</text>
<text text-anchor="start" x="2289" y="-18.5" font-family="Helvetica,sans-Serif" font-size="10.00">/jbmc/src/java_bytecode/java</text>
<text text-anchor="middle" x="2381" y="-7.5" font-family="Helvetica,sans-Serif" font-size="10.00">_bytecode_convert_method.cpp</text>
</a>
</g>
</g>
<!-- Node21&#45;&gt;Node23 -->
<g id="edge29" class="edge">
<title>Node21&#45;&gt;Node23</title>
<path fill="none" stroke="midnightblue" d="M2359.41,-168.25C2364.66,-134.04 2372.49,-82.97 2377.14,-52.67"/>
<polygon fill="midnightblue" stroke="midnightblue" points="2355.93,-167.87 2357.87,-178.28 2362.84,-168.93 2355.93,-167.87"/>
</g>
<!-- Node25 -->
<g id="node25" class="node">
<title>Node25</title>
<g id="a_node25"><a xlink:href="java__local__variable__table_8cpp.html" target="_top" xlink:title=" ">
<polygon fill="none" stroke="black" points="2400,-89.5 2400,-141.5 2600,-141.5 2600,-89.5 2400,-89.5"/>
<text text-anchor="start" x="2408" y="-129.5" font-family="Helvetica,sans-Serif" font-size="10.00">/home/runner/work/cbmc</text>
<text text-anchor="start" x="2408" y="-118.5" font-family="Helvetica,sans-Serif" font-size="10.00">&#45;documentation/cbmc&#45;documentation</text>
<text text-anchor="start" x="2408" y="-107.5" font-family="Helvetica,sans-Serif" font-size="10.00">/jbmc/src/java_bytecode/java</text>
<text text-anchor="middle" x="2500" y="-96.5" font-family="Helvetica,sans-Serif" font-size="10.00">_local_variable_table.cpp</text>
</a>
</g>
</g>
<!-- Node21&#45;&gt;Node25 -->
<g id="edge30" class="edge">
<title>Node21&#45;&gt;Node25</title>
<path fill="none" stroke="midnightblue" d="M2405.07,-173.07C2422.32,-162.79 2441.38,-151.43 2457.87,-141.61"/>
<polygon fill="midnightblue" stroke="midnightblue" points="2403.03,-170.21 2396.23,-178.34 2406.61,-176.22 2403.03,-170.21"/>
</g>
<!-- Node22&#45;&gt;Node10 -->
<g id="edge27" class="edge">
<title>Node22&#45;&gt;Node10</title>
<path fill="none" stroke="midnightblue" d="M2147.97,-86.56C2110.37,-75.62 2067.56,-63.16 2030.99,-52.52"/>
<polygon fill="midnightblue" stroke="midnightblue" points="2147.34,-90.02 2157.92,-89.45 2149.29,-83.3 2147.34,-90.02"/>
</g>
<!-- Node22&#45;&gt;Node20 -->
<g id="edge25" class="edge">
<title>Node22&#45;&gt;Node20</title>
<path fill="none" stroke="midnightblue" d="M2213.55,-81.79C2204.55,-72.13 2194.85,-61.71 2186.38,-52.61"/>
<polygon fill="midnightblue" stroke="midnightblue" points="2211.2,-84.4 2220.57,-89.34 2216.32,-79.63 2211.2,-84.4"/>
</g>
<!-- Node22&#45;&gt;Node23 -->
<g id="edge26" class="edge">
<title>Node22&#45;&gt;Node23</title>
<path fill="none" stroke="midnightblue" d="M2292.36,-83.79C2308.44,-73.58 2326.14,-62.34 2341.46,-52.61"/>
<polygon fill="midnightblue" stroke="midnightblue" points="2290.19,-81.02 2283.63,-89.34 2293.94,-86.93 2290.19,-81.02"/>
</g>
<!-- Node22&#45;&gt;Node24 -->
<g id="edge28" class="edge">
<title>Node22&#45;&gt;Node24</title>
<path fill="none" stroke="midnightblue" d="M2354.12,-88.88C2405.95,-76.83 2467.32,-62.55 2517.82,-50.8"/>
<polygon fill="midnightblue" stroke="midnightblue" points="2353.17,-85.51 2344.23,-91.19 2354.76,-92.33 2353.17,-85.51"/>
</g>
</g>
</svg>
