<?xml version="1.0" encoding="UTF-8" standalone="no"?>
<!DOCTYPE svg PUBLIC "-//W3C//DTD SVG 1.1//EN"
 "http://www.w3.org/Graphics/SVG/1.1/DTD/svg11.dtd">
<!-- Generated by graphviz version 2.43.0 (0)
 -->
<!-- Title: /home/runner/work/cbmc&#45;documentation/cbmc&#45;documentation/jbmc/src/java_bytecode/jar_pool.h Pages: 1 -->
<svg width="2592pt" height="584pt"
 viewBox="0.00 0.00 2592.00 584.00" xmlns="http://www.w3.org/2000/svg" xmlns:xlink="http://www.w3.org/1999/xlink">
<g id="graph0" class="graph" transform="scale(1 1) rotate(0) translate(4 580)">
<title>/home/runner/work/cbmc&#45;documentation/cbmc&#45;documentation/jbmc/src/java_bytecode/jar_pool.h</title>
<!-- Node1 -->
<g id="node1" class="node">
<title>Node1</title>
<g id="a_node1"><a xlink:title=" ">
<polygon fill="#bfbfbf" stroke="black" points="1986,-534.5 1986,-575.5 2186,-575.5 2186,-534.5 1986,-534.5"/>
<text text-anchor="start" x="1994" y="-563.5" font-family="Helvetica,sans-Serif" font-size="10.00">/home/runner/work/cbmc</text>
<text text-anchor="start" x="1994" y="-552.5" font-family="Helvetica,sans-Serif" font-size="10.00">&#45;documentation/cbmc&#45;documentation</text>
<text text-anchor="middle" x="2086" y="-541.5" font-family="Helvetica,sans-Serif" font-size="10.00">/jbmc/src/java_bytecode/jar_pool.h</text>
</a>
</g>
</g>
<!-- Node2 -->
<g id="node2" class="node">
<title>Node2</title>
<g id="a_node2"><a xlink:href="java__class__loader__base_8h.html" target="_top" xlink:title=" ">
<polygon fill="none" stroke="black" points="1877,-445.5 1877,-497.5 2077,-497.5 2077,-445.5 1877,-445.5"/>
<text text-anchor="start" x="1885" y="-485.5" font-family="Helvetica,sans-Serif" font-size="10.00">/home/runner/work/cbmc</text>
<text text-anchor="start" x="1885" y="-474.5" font-family="Helvetica,sans-Serif" font-size="10.00">&#45;documentation/cbmc&#45;documentation</text>
<text text-anchor="start" x="1885" y="-463.5" font-family="Helvetica,sans-Serif" font-size="10.00">/jbmc/src/java_bytecode/java</text>
<text text-anchor="middle" x="1977" y="-452.5" font-family="Helvetica,sans-Serif" font-size="10.00">_class_loader_base.h</text>
</a>
</g>
</g>
<!-- Node1&#45;&gt;Node2 -->
<g id="edge1" class="edge">
<title>Node1&#45;&gt;Node2</title>
<path fill="none" stroke="midnightblue" d="M2051.61,-528.29C2038.57,-518.53 2023.73,-507.44 2010.74,-497.73"/>
<polygon fill="midnightblue" stroke="midnightblue" points="2049.79,-531.29 2059.89,-534.48 2053.98,-525.69 2049.79,-531.29"/>
</g>
<!-- Node27 -->
<g id="node27" class="node">
<title>Node27</title>
<g id="a_node27"><a xlink:href="jar__pool_8cpp.html" target="_top" xlink:title=" ">
<polygon fill="none" stroke="black" points="2095,-451 2095,-492 2295,-492 2295,-451 2095,-451"/>
<text text-anchor="start" x="2103" y="-480" font-family="Helvetica,sans-Serif" font-size="10.00">/home/runner/work/cbmc</text>
<text text-anchor="start" x="2103" y="-469" font-family="Helvetica,sans-Serif" font-size="10.00">&#45;documentation/cbmc&#45;documentation</text>
<text text-anchor="middle" x="2195" y="-458" font-family="Helvetica,sans-Serif" font-size="10.00">/jbmc/src/java_bytecode/jar_pool.cpp</text>
</a>
</g>
</g>
<!-- Node1&#45;&gt;Node27 -->
<g id="edge34" class="edge">
<title>Node1&#45;&gt;Node27</title>
<path fill="none" stroke="midnightblue" d="M2120.48,-528.22C2136.09,-516.55 2154.24,-502.97 2168.73,-492.14"/>
<polygon fill="midnightblue" stroke="midnightblue" points="2118.02,-525.69 2112.11,-534.48 2122.21,-531.29 2118.02,-525.69"/>
</g>
<!-- Node3 -->
<g id="node3" class="node">
<title>Node3</title>
<g id="a_node3"><a xlink:href="java__class__loader_8h.html" target="_top" xlink:title=" ">
<polygon fill="none" stroke="black" points="1768,-356.5 1768,-408.5 1968,-408.5 1968,-356.5 1768,-356.5"/>
<text text-anchor="start" x="1776" y="-396.5" font-family="Helvetica,sans-Serif" font-size="10.00">/home/runner/work/cbmc</text>
<text text-anchor="start" x="1776" y="-385.5" font-family="Helvetica,sans-Serif" font-size="10.00">&#45;documentation/cbmc&#45;documentation</text>
<text text-anchor="start" x="1776" y="-374.5" font-family="Helvetica,sans-Serif" font-size="10.00">/jbmc/src/java_bytecode/java</text>
<text text-anchor="middle" x="1868" y="-363.5" font-family="Helvetica,sans-Serif" font-size="10.00">_class_loader.h</text>
</a>
</g>
</g>
<!-- Node2&#45;&gt;Node3 -->
<g id="edge2" class="edge">
<title>Node2&#45;&gt;Node3</title>
<path fill="none" stroke="midnightblue" d="M1937.45,-438.93C1924.95,-428.96 1911.31,-418.07 1899.46,-408.61"/>
<polygon fill="midnightblue" stroke="midnightblue" points="1935.47,-441.83 1945.47,-445.34 1939.84,-436.36 1935.47,-441.83"/>
</g>
<!-- Node26 -->
<g id="node26" class="node">
<title>Node26</title>
<g id="a_node26"><a xlink:href="java__class__loader__base_8cpp.html" target="_top" xlink:title=" ">
<polygon fill="none" stroke="black" points="1986,-356.5 1986,-408.5 2186,-408.5 2186,-356.5 1986,-356.5"/>
<text text-anchor="start" x="1994" y="-396.5" font-family="Helvetica,sans-Serif" font-size="10.00">/home/runner/work/cbmc</text>
<text text-anchor="start" x="1994" y="-385.5" font-family="Helvetica,sans-Serif" font-size="10.00">&#45;documentation/cbmc&#45;documentation</text>
<text text-anchor="start" x="1994" y="-374.5" font-family="Helvetica,sans-Serif" font-size="10.00">/jbmc/src/java_bytecode/java</text>
<text text-anchor="middle" x="2086" y="-363.5" font-family="Helvetica,sans-Serif" font-size="10.00">_class_loader_base.cpp</text>
</a>
</g>
</g>
<!-- Node2&#45;&gt;Node26 -->
<g id="edge33" class="edge">
<title>Node2&#45;&gt;Node26</title>
<path fill="none" stroke="midnightblue" d="M2016.55,-438.93C2029.05,-428.96 2042.69,-418.07 2054.54,-408.61"/>
<polygon fill="midnightblue" stroke="midnightblue" points="2014.16,-436.36 2008.53,-445.34 2018.53,-441.83 2014.16,-436.36"/>
</g>
<!-- Node4 -->
<g id="node4" class="node">
<title>Node4</title>
<g id="a_node4"><a xlink:href="java__bytecode__language_8h.html" target="_top" xlink:title=" ">
<polygon fill="none" stroke="black" points="1019,-267.5 1019,-319.5 1219,-319.5 1219,-267.5 1019,-267.5"/>
<text text-anchor="start" x="1027" y="-307.5" font-family="Helvetica,sans-Serif" font-size="10.00">/home/runner/work/cbmc</text>
<text text-anchor="start" x="1027" y="-296.5" font-family="Helvetica,sans-Serif" font-size="10.00">&#45;documentation/cbmc&#45;documentation</text>
<text text-anchor="start" x="1027" y="-285.5" font-family="Helvetica,sans-Serif" font-size="10.00">/jbmc/src/java_bytecode/java</text>
<text text-anchor="middle" x="1119" y="-274.5" font-family="Helvetica,sans-Serif" font-size="10.00">_bytecode_language.h</text>
</a>
</g>
</g>
<!-- Node3&#45;&gt;Node4 -->
<g id="edge3" class="edge">
<title>Node3&#45;&gt;Node4</title>
<path fill="none" stroke="midnightblue" d="M1757.5,-368.66C1612.25,-351.79 1359.19,-322.4 1219.24,-306.14"/>
<polygon fill="midnightblue" stroke="midnightblue" points="1757.43,-372.18 1767.76,-369.86 1758.23,-365.23 1757.43,-372.18"/>
</g>
<!-- Node8 -->
<g id="node8" class="node">
<title>Node8</title>
<g id="a_node8"><a xlink:href="ci__lazy__methods_8cpp.html" target="_top" xlink:title=" ">
<polygon fill="none" stroke="black" points="0,-178.5 0,-230.5 200,-230.5 200,-178.5 0,-178.5"/>
<text text-anchor="start" x="8" y="-218.5" font-family="Helvetica,sans-Serif" font-size="10.00">/home/runner/work/cbmc</text>
<text text-anchor="start" x="8" y="-207.5" font-family="Helvetica,sans-Serif" font-size="10.00">&#45;documentation/cbmc&#45;documentation</text>
<text text-anchor="start" x="8" y="-196.5" font-family="Helvetica,sans-Serif" font-size="10.00">/jbmc/src/java_bytecode/ci_lazy</text>
<text text-anchor="middle" x="100" y="-185.5" font-family="Helvetica,sans-Serif" font-size="10.00">_methods.cpp</text>
</a>
</g>
</g>
<!-- Node3&#45;&gt;Node8 -->
<g id="edge19" class="edge">
<title>Node3&#45;&gt;Node8</title>
<path fill="none" stroke="midnightblue" d="M1757.6,-377.57C1490.14,-366.73 786.93,-330.35 209,-231 206.13,-230.51 203.22,-229.98 200.28,-229.43"/>
<polygon fill="midnightblue" stroke="midnightblue" points="1757.57,-381.07 1767.7,-377.98 1757.85,-374.08 1757.57,-381.07"/>
</g>
<!-- Node9 -->
<g id="node9" class="node">
<title>Node9</title>
<g id="a_node9"><a xlink:href="java__bytecode__language_8cpp.html" target="_top" xlink:title=" ">
<polygon fill="none" stroke="black" points="1730,-0.5 1730,-52.5 1930,-52.5 1930,-0.5 1730,-0.5"/>
<text text-anchor="start" x="1738" y="-40.5" font-family="Helvetica,sans-Serif" font-size="10.00">/home/runner/work/cbmc</text>
<text text-anchor="start" x="1738" y="-29.5" font-family="Helvetica,sans-Serif" font-size="10.00">&#45;documentation/cbmc&#45;documentation</text>
<text text-anchor="start" x="1738" y="-18.5" font-family="Helvetica,sans-Serif" font-size="10.00">/jbmc/src/java_bytecode/java</text>
<text text-anchor="middle" x="1830" y="-7.5" font-family="Helvetica,sans-Serif" font-size="10.00">_bytecode_language.cpp</text>
</a>
</g>
</g>
<!-- Node3&#45;&gt;Node9 -->
<g id="edge31" class="edge">
<title>Node3&#45;&gt;Node9</title>
<path fill="none" stroke="midnightblue" d="M1868.36,-345.88C1868.33,-290.47 1865.86,-180.49 1849,-89 1846.75,-76.8 1842.88,-63.62 1839.22,-52.6"/>
<polygon fill="midnightblue" stroke="midnightblue" points="1864.86,-346.21 1868.34,-356.21 1871.86,-346.22 1864.86,-346.21"/>
</g>
<!-- Node18 -->
<g id="node18" class="node">
<title>Node18</title>
<g id="a_node18"><a xlink:href="java__bytecode__convert__class_8h.html" target="_top" xlink:title=" ">
<polygon fill="none" stroke="black" points="1896,-267.5 1896,-319.5 2096,-319.5 2096,-267.5 1896,-267.5"/>
<text text-anchor="start" x="1904" y="-307.5" font-family="Helvetica,sans-Serif" font-size="10.00">/home/runner/work/cbmc</text>
<text text-anchor="start" x="1904" y="-296.5" font-family="Helvetica,sans-Serif" font-size="10.00">&#45;documentation/cbmc&#45;documentation</text>
<text text-anchor="start" x="1904" y="-285.5" font-family="Helvetica,sans-Serif" font-size="10.00">/jbmc/src/java_bytecode/java</text>
<text text-anchor="middle" x="1996" y="-274.5" font-family="Helvetica,sans-Serif" font-size="10.00">_bytecode_convert_class.h</text>
</a>
</g>
</g>
<!-- Node3&#45;&gt;Node18 -->
<g id="edge20" class="edge">
<title>Node3&#45;&gt;Node18</title>
<path fill="none" stroke="midnightblue" d="M1913.6,-350.5C1928.51,-340.37 1944.87,-329.25 1959.06,-319.61"/>
<polygon fill="midnightblue" stroke="midnightblue" points="1911.33,-347.82 1905.02,-356.34 1915.26,-353.61 1911.33,-347.82"/>
</g>
<!-- Node25 -->
<g id="node25" class="node">
<title>Node25</title>
<g id="a_node25"><a xlink:href="java__class__loader_8cpp.html" target="_top" xlink:title=" ">
<polygon fill="none" stroke="black" points="2114,-267.5 2114,-319.5 2314,-319.5 2314,-267.5 2114,-267.5"/>
<text text-anchor="start" x="2122" y="-307.5" font-family="Helvetica,sans-Serif" font-size="10.00">/home/runner/work/cbmc</text>
<text text-anchor="start" x="2122" y="-296.5" font-family="Helvetica,sans-Serif" font-size="10.00">&#45;documentation/cbmc&#45;documentation</text>
<text text-anchor="start" x="2122" y="-285.5" font-family="Helvetica,sans-Serif" font-size="10.00">/jbmc/src/java_bytecode/java</text>
<text text-anchor="middle" x="2214" y="-274.5" font-family="Helvetica,sans-Serif" font-size="10.00">_class_loader.cpp</text>
</a>
</g>
</g>
<!-- Node3&#45;&gt;Node25 -->
<g id="edge32" class="edge">
<title>Node3&#45;&gt;Node25</title>
<path fill="none" stroke="midnightblue" d="M1977.46,-353.98C2021.37,-342.93 2071.63,-330.3 2114.49,-319.52"/>
<polygon fill="midnightblue" stroke="midnightblue" points="1976.46,-350.62 1967.61,-356.45 1978.16,-357.41 1976.46,-350.62"/>
</g>
<!-- Node5 -->
<g id="node5" class="node">
<title>Node5</title>
<g id="a_node5"><a xlink:href="janalyzer__parse__options_8h.html" target="_top" xlink:title=" ">
<polygon fill="none" stroke="black" points="1128,-178.5 1128,-230.5 1328,-230.5 1328,-178.5 1128,-178.5"/>
<text text-anchor="start" x="1136" y="-218.5" font-family="Helvetica,sans-Serif" font-size="10.00">/home/runner/work/cbmc</text>
<text text-anchor="start" x="1136" y="-207.5" font-family="Helvetica,sans-Serif" font-size="10.00">&#45;documentation/cbmc&#45;documentation</text>
<text text-anchor="start" x="1136" y="-196.5" font-family="Helvetica,sans-Serif" font-size="10.00">/jbmc/src/janalyzer/janalyzer</text>
<text text-anchor="middle" x="1228" y="-185.5" font-family="Helvetica,sans-Serif" font-size="10.00">_parse_options.h</text>
</a>
</g>
</g>
<!-- Node4&#45;&gt;Node5 -->
<g id="edge4" class="edge">
<title>Node4&#45;&gt;Node5</title>
<path fill="none" stroke="midnightblue" d="M1158.55,-260.93C1171.05,-250.96 1184.69,-240.07 1196.54,-230.61"/>
<polygon fill="midnightblue" stroke="midnightblue" points="1156.16,-258.36 1150.53,-267.34 1160.53,-263.83 1156.16,-258.36"/>
</g>
<!-- Node7 -->
<g id="node7" class="node">
<title>Node7</title>
<g id="a_node7"><a xlink:href="janalyzer__parse__options_8cpp.html" target="_top" xlink:title=" ">
<polygon fill="none" stroke="black" points="1478,-89.5 1478,-141.5 1678,-141.5 1678,-89.5 1478,-89.5"/>
<text text-anchor="start" x="1486" y="-129.5" font-family="Helvetica,sans-Serif" font-size="10.00">/home/runner/work/cbmc</text>
<text text-anchor="start" x="1486" y="-118.5" font-family="Helvetica,sans-Serif" font-size="10.00">&#45;documentation/cbmc&#45;documentation</text>
<text text-anchor="start" x="1486" y="-107.5" font-family="Helvetica,sans-Serif" font-size="10.00">/jbmc/src/janalyzer/janalyzer</text>
<text text-anchor="middle" x="1578" y="-96.5" font-family="Helvetica,sans-Serif" font-size="10.00">_parse_options.cpp</text>
</a>
</g>
</g>
<!-- Node4&#45;&gt;Node7 -->
<g id="edge7" class="edge">
<title>Node4&#45;&gt;Node7</title>
<path fill="none" stroke="midnightblue" d="M1229.16,-290.07C1406.01,-285.01 1737.18,-270.35 1773,-231 1788.86,-213.58 1786.93,-197 1773,-178 1750.91,-147.87 1714.02,-132.12 1678.24,-124.02"/>
<polygon fill="midnightblue" stroke="midnightblue" points="1228.93,-286.57 1219.04,-290.35 1229.13,-293.57 1228.93,-286.57"/>
</g>
<!-- Node4&#45;&gt;Node8 -->
<g id="edge8" class="edge">
<title>Node4&#45;&gt;Node8</title>
<path fill="none" stroke="midnightblue" d="M1008.72,-290.81C836.92,-286.88 495.36,-273.88 209,-231 206.12,-230.57 203.2,-230.1 200.26,-229.6"/>
<polygon fill="midnightblue" stroke="midnightblue" points="1008.71,-294.31 1018.78,-291.03 1008.86,-287.31 1008.71,-294.31"/>
</g>
<!-- Node4&#45;&gt;Node9 -->
<g id="edge9" class="edge">
<title>Node4&#45;&gt;Node9</title>
<path fill="none" stroke="midnightblue" d="M1229.16,-289.6C1409.37,-283.8 1751.35,-268.02 1792,-231 1842.22,-185.26 1839,-96.14 1833.87,-52.62"/>
<polygon fill="midnightblue" stroke="midnightblue" points="1229,-286.1 1219.12,-289.91 1229.22,-293.1 1229,-286.1"/>
</g>
<!-- Node10 -->
<g id="node10" class="node">
<title>Node10</title>
<g id="a_node10"><a xlink:href="java__entry__point_8cpp.html" target="_top" xlink:title=" ">
<polygon fill="none" stroke="black" points="1346,-178.5 1346,-230.5 1546,-230.5 1546,-178.5 1346,-178.5"/>
<text text-anchor="start" x="1354" y="-218.5" font-family="Helvetica,sans-Serif" font-size="10.00">/home/runner/work/cbmc</text>
<text text-anchor="start" x="1354" y="-207.5" font-family="Helvetica,sans-Serif" font-size="10.00">&#45;documentation/cbmc&#45;documentation</text>
<text text-anchor="start" x="1354" y="-196.5" font-family="Helvetica,sans-Serif" font-size="10.00">/jbmc/src/java_bytecode/java</text>
<text text-anchor="middle" x="1446" y="-185.5" font-family="Helvetica,sans-Serif" font-size="10.00">_entry_point.cpp</text>
</a>
</g>
</g>
<!-- Node4&#45;&gt;Node10 -->
<g id="edge10" class="edge">
<title>Node4&#45;&gt;Node10</title>
<path fill="none" stroke="midnightblue" d="M1222.97,-264.84C1264.35,-253.83 1311.62,-241.25 1351.96,-230.52"/>
<polygon fill="midnightblue" stroke="midnightblue" points="1221.91,-261.5 1213.14,-267.45 1223.71,-268.26 1221.91,-261.5"/>
</g>
<!-- Node11 -->
<g id="node11" class="node">
<title>Node11</title>
<g id="a_node11"><a xlink:href="lazy__goto__model_8cpp.html" target="_top" xlink:title="Author: Diffblue Ltd.">
<polygon fill="none" stroke="black" points="1564,-178.5 1564,-230.5 1764,-230.5 1764,-178.5 1564,-178.5"/>
<text text-anchor="start" x="1572" y="-218.5" font-family="Helvetica,sans-Serif" font-size="10.00">/home/runner/work/cbmc</text>
<text text-anchor="start" x="1572" y="-207.5" font-family="Helvetica,sans-Serif" font-size="10.00">&#45;documentation/cbmc&#45;documentation</text>
<text text-anchor="start" x="1572" y="-196.5" font-family="Helvetica,sans-Serif" font-size="10.00">/jbmc/src/java_bytecode/lazy</text>
<text text-anchor="middle" x="1664" y="-185.5" font-family="Helvetica,sans-Serif" font-size="10.00">_goto_model.cpp</text>
</a>
</g>
</g>
<!-- Node4&#45;&gt;Node11 -->
<g id="edge11" class="edge">
<title>Node4&#45;&gt;Node11</title>
<path fill="none" stroke="midnightblue" d="M1229.47,-279.7C1317.87,-268.78 1444.85,-251.61 1555,-231 1557.96,-230.45 1560.96,-229.87 1563.99,-229.26"/>
<polygon fill="midnightblue" stroke="midnightblue" points="1228.92,-276.24 1219.42,-280.93 1229.77,-283.19 1228.92,-276.24"/>
</g>
<!-- Node12 -->
<g id="node12" class="node">
<title>Node12</title>
<g id="a_node12"><a xlink:href="jbmc__parse__options_8h.html" target="_top" xlink:title=" ">
<polygon fill="none" stroke="black" points="910,-184 910,-225 1110,-225 1110,-184 910,-184"/>
<text text-anchor="start" x="918" y="-213" font-family="Helvetica,sans-Serif" font-size="10.00">/home/runner/work/cbmc</text>
<text text-anchor="start" x="918" y="-202" font-family="Helvetica,sans-Serif" font-size="10.00">&#45;documentation/cbmc&#45;documentation</text>
<text text-anchor="middle" x="1010" y="-191" font-family="Helvetica,sans-Serif" font-size="10.00">/jbmc/src/jbmc/jbmc_parse_options.h</text>
</a>
</g>
</g>
<!-- Node4&#45;&gt;Node12 -->
<g id="edge12" class="edge">
<title>Node4&#45;&gt;Node12</title>
<path fill="none" stroke="midnightblue" d="M1079.34,-260.85C1064.35,-248.88 1047.74,-235.62 1034.53,-225.08"/>
<polygon fill="midnightblue" stroke="midnightblue" points="1077.47,-263.83 1087.47,-267.34 1081.84,-258.36 1077.47,-263.83"/>
</g>
<!-- Node14 -->
<g id="node14" class="node">
<title>Node14</title>
<g id="a_node14"><a xlink:href="jbmc__parse__options_8cpp.html" target="_top" xlink:title=" ">
<polygon fill="none" stroke="black" points="729.5,-95 729.5,-136 938.5,-136 938.5,-95 729.5,-95"/>
<text text-anchor="start" x="737.5" y="-124" font-family="Helvetica,sans-Serif" font-size="10.00">/home/runner/work/cbmc</text>
<text text-anchor="start" x="737.5" y="-113" font-family="Helvetica,sans-Serif" font-size="10.00">&#45;documentation/cbmc&#45;documentation</text>
<text text-anchor="middle" x="834" y="-102" font-family="Helvetica,sans-Serif" font-size="10.00">/jbmc/src/jbmc/jbmc_parse_options.cpp</text>
</a>
</g>
</g>
<!-- Node4&#45;&gt;Node14 -->
<g id="edge15" class="edge">
<title>Node4&#45;&gt;Node14</title>
<path fill="none" stroke="midnightblue" d="M1009.01,-278.51C971.86,-269.58 931.99,-254.96 901,-231 884.42,-218.18 857.55,-165.72 843.4,-136.46"/>
<polygon fill="midnightblue" stroke="midnightblue" points="1008.37,-281.95 1018.9,-280.77 1009.93,-275.13 1008.37,-281.95"/>
</g>
<!-- Node15 -->
<g id="node15" class="node">
<title>Node15</title>
<g id="a_node15"><a xlink:href="jdiff__languages_8cpp.html" target="_top" xlink:title=" ">
<polygon fill="none" stroke="black" points="218,-184 218,-225 418,-225 418,-184 218,-184"/>
<text text-anchor="start" x="226" y="-213" font-family="Helvetica,sans-Serif" font-size="10.00">/home/runner/work/cbmc</text>
<text text-anchor="start" x="226" y="-202" font-family="Helvetica,sans-Serif" font-size="10.00">&#45;documentation/cbmc&#45;documentation</text>
<text text-anchor="middle" x="318" y="-191" font-family="Helvetica,sans-Serif" font-size="10.00">/jbmc/src/jdiff/jdiff_languages.cpp</text>
</a>
</g>
</g>
<!-- Node4&#45;&gt;Node15 -->
<g id="edge16" class="edge">
<title>Node4&#45;&gt;Node15</title>
<path fill="none" stroke="midnightblue" d="M1008.66,-287.51C871.59,-280.2 630.89,-263.74 427,-231 416.73,-229.35 406,-227.28 395.44,-225.03"/>
<polygon fill="midnightblue" stroke="midnightblue" points="1008.58,-291.01 1018.75,-288.04 1008.95,-284.02 1008.58,-291.01"/>
</g>
<!-- Node16 -->
<g id="node16" class="node">
<title>Node16</title>
<g id="a_node16"><a xlink:href="jdiff__parse__options_8cpp.html" target="_top" xlink:title=" ">
<polygon fill="none" stroke="black" points="436,-184 436,-225 636,-225 636,-184 436,-184"/>
<text text-anchor="start" x="444" y="-213" font-family="Helvetica,sans-Serif" font-size="10.00">/home/runner/work/cbmc</text>
<text text-anchor="start" x="444" y="-202" font-family="Helvetica,sans-Serif" font-size="10.00">&#45;documentation/cbmc&#45;documentation</text>
<text text-anchor="middle" x="536" y="-191" font-family="Helvetica,sans-Serif" font-size="10.00">/jbmc/src/jdiff/jdiff_parse_options.cpp</text>
</a>
</g>
</g>
<!-- Node4&#45;&gt;Node16 -->
<g id="edge17" class="edge">
<title>Node4&#45;&gt;Node16</title>
<path fill="none" stroke="midnightblue" d="M1008.63,-281.37C912.25,-270.89 768.81,-253.45 645,-231 635.34,-229.25 625.25,-227.2 615.28,-225.03"/>
<polygon fill="midnightblue" stroke="midnightblue" points="1008.36,-284.86 1018.68,-282.45 1009.11,-277.9 1008.36,-284.86"/>
</g>
<!-- Node17 -->
<g id="node17" class="node">
<title>Node17</title>
<g id="a_node17"><a xlink:href="load__java__class_8cpp.html" target="_top" xlink:title=" ">
<polygon fill="none" stroke="black" points="654,-178.5 654,-230.5 854,-230.5 854,-178.5 654,-178.5"/>
<text text-anchor="start" x="662" y="-218.5" font-family="Helvetica,sans-Serif" font-size="10.00">/home/runner/work/cbmc</text>
<text text-anchor="start" x="662" y="-207.5" font-family="Helvetica,sans-Serif" font-size="10.00">&#45;documentation/cbmc&#45;documentation</text>
<text text-anchor="start" x="662" y="-196.5" font-family="Helvetica,sans-Serif" font-size="10.00">/jbmc/unit/java&#45;testing&#45;utils</text>
<text text-anchor="middle" x="754" y="-185.5" font-family="Helvetica,sans-Serif" font-size="10.00">/load_java_class.cpp</text>
</a>
</g>
</g>
<!-- Node4&#45;&gt;Node17 -->
<g id="edge18" class="edge">
<title>Node4&#45;&gt;Node17</title>
<path fill="none" stroke="midnightblue" d="M1008.75,-266.22C959.64,-254.52 902.21,-240.83 854.31,-229.41"/>
<polygon fill="midnightblue" stroke="midnightblue" points="1008.24,-269.7 1018.78,-268.61 1009.86,-262.89 1008.24,-269.7"/>
</g>
<!-- Node6 -->
<g id="node6" class="node">
<title>Node6</title>
<g id="a_node6"><a xlink:href="janalyzer__main_8cpp.html" target="_top" xlink:title=" ">
<polygon fill="none" stroke="black" points="1175.5,-95 1175.5,-136 1382.5,-136 1382.5,-95 1175.5,-95"/>
<text text-anchor="start" x="1183.5" y="-124" font-family="Helvetica,sans-Serif" font-size="10.00">/home/runner/work/cbmc</text>
<text text-anchor="start" x="1183.5" y="-113" font-family="Helvetica,sans-Serif" font-size="10.00">&#45;documentation/cbmc&#45;documentation</text>
<text text-anchor="middle" x="1279" y="-102" font-family="Helvetica,sans-Serif" font-size="10.00">/jbmc/src/janalyzer/janalyzer_main.cpp</text>
</a>
</g>
</g>
<!-- Node5&#45;&gt;Node6 -->
<g id="edge5" class="edge">
<title>Node5&#45;&gt;Node6</title>
<path fill="none" stroke="midnightblue" d="M1247.93,-169.51C1254.57,-158.17 1261.74,-145.94 1267.52,-136.08"/>
<polygon fill="midnightblue" stroke="midnightblue" points="1244.79,-167.94 1242.75,-178.34 1250.83,-171.48 1244.79,-167.94"/>
</g>
<!-- Node5&#45;&gt;Node7 -->
<g id="edge6" class="edge">
<title>Node5&#45;&gt;Node7</title>
<path fill="none" stroke="midnightblue" d="M1338.05,-176.15C1382.85,-165.01 1434.27,-152.23 1477.99,-141.36"/>
<polygon fill="midnightblue" stroke="midnightblue" points="1337.16,-172.76 1328.3,-178.57 1338.84,-179.55 1337.16,-172.76"/>
</g>
<!-- Node13 -->
<g id="node13" class="node">
<title>Node13</title>
<g id="a_node13"><a xlink:href="jbmc__main_8cpp.html" target="_top" xlink:title=" ">
<polygon fill="none" stroke="black" points="957,-95 957,-136 1157,-136 1157,-95 957,-95"/>
<text text-anchor="start" x="965" y="-124" font-family="Helvetica,sans-Serif" font-size="10.00">/home/runner/work/cbmc</text>
<text text-anchor="start" x="965" y="-113" font-family="Helvetica,sans-Serif" font-size="10.00">&#45;documentation/cbmc&#45;documentation</text>
<text text-anchor="middle" x="1057" y="-102" font-family="Helvetica,sans-Serif" font-size="10.00">/jbmc/src/jbmc/jbmc_main.cpp</text>
</a>
</g>
</g>
<!-- Node12&#45;&gt;Node13 -->
<g id="edge13" class="edge">
<title>Node12&#45;&gt;Node13</title>
<path fill="none" stroke="midnightblue" d="M1025.44,-174.93C1032.29,-162.23 1040.2,-147.61 1046.38,-136.16"/>
<polygon fill="midnightblue" stroke="midnightblue" points="1022.34,-173.3 1020.67,-183.76 1028.5,-176.62 1022.34,-173.3"/>
</g>
<!-- Node12&#45;&gt;Node14 -->
<g id="edge14" class="edge">
<title>Node12&#45;&gt;Node14</title>
<path fill="none" stroke="midnightblue" d="M961.41,-179.48C933.8,-165.83 899.66,-148.96 873.67,-136.11"/>
<polygon fill="midnightblue" stroke="midnightblue" points="959.99,-182.68 970.5,-183.98 963.09,-176.41 959.99,-182.68"/>
</g>
<!-- Node18&#45;&gt;Node9 -->
<g id="edge30" class="edge">
<title>Node18&#45;&gt;Node9</title>
<path fill="none" stroke="midnightblue" d="M1979.42,-258.36C1958.73,-216.95 1921.28,-145.65 1882,-89 1873.32,-76.48 1862.6,-63.47 1853.16,-52.66"/>
<polygon fill="midnightblue" stroke="midnightblue" points="1976.36,-260.07 1983.94,-267.47 1982.63,-256.96 1976.36,-260.07"/>
</g>
<!-- Node19 -->
<g id="node19" class="node">
<title>Node19</title>
<g id="a_node19"><a xlink:href="java__bytecode__convert__class_8cpp.html" target="_top" xlink:title=" ">
<polygon fill="none" stroke="black" points="1948,-0.5 1948,-52.5 2148,-52.5 2148,-0.5 1948,-0.5"/>
<text text-anchor="start" x="1956" y="-40.5" font-family="Helvetica,sans-Serif" font-size="10.00">/home/runner/work/cbmc</text>
<text text-anchor="start" x="1956" y="-29.5" font-family="Helvetica,sans-Serif" font-size="10.00">&#45;documentation/cbmc&#45;documentation</text>
<text text-anchor="start" x="1956" y="-18.5" font-family="Helvetica,sans-Serif" font-size="10.00">/jbmc/src/java_bytecode/java</text>
<text text-anchor="middle" x="2048" y="-7.5" font-family="Helvetica,sans-Serif" font-size="10.00">_bytecode_convert_class.cpp</text>
</a>
</g>
</g>
<!-- Node18&#45;&gt;Node19 -->
<g id="edge21" class="edge">
<title>Node18&#45;&gt;Node19</title>
<path fill="none" stroke="midnightblue" d="M2002.92,-257.23C2013.57,-202.98 2033.7,-100.36 2043.03,-52.83"/>
<polygon fill="midnightblue" stroke="midnightblue" points="1999.48,-256.6 2000.99,-267.09 2006.35,-257.95 1999.48,-256.6"/>
</g>
<!-- Node20 -->
<g id="node20" class="node">
<title>Node20</title>
<g id="a_node20"><a xlink:href="java__bytecode__convert__method__class_8h.html" target="_top" xlink:title=" ">
<polygon fill="none" stroke="black" points="2182,-178.5 2182,-230.5 2382,-230.5 2382,-178.5 2182,-178.5"/>
<text text-anchor="start" x="2190" y="-218.5" font-family="Helvetica,sans-Serif" font-size="10.00">/home/runner/work/cbmc</text>
<text text-anchor="start" x="2190" y="-207.5" font-family="Helvetica,sans-Serif" font-size="10.00">&#45;documentation/cbmc&#45;documentation</text>
<text text-anchor="start" x="2190" y="-196.5" font-family="Helvetica,sans-Serif" font-size="10.00">/jbmc/src/java_bytecode/java</text>
<text text-anchor="middle" x="2282" y="-185.5" font-family="Helvetica,sans-Serif" font-size="10.00">_bytecode_convert_method_class.h</text>
</a>
</g>
</g>
<!-- Node18&#45;&gt;Node20 -->
<g id="edge22" class="edge">
<title>Node18&#45;&gt;Node20</title>
<path fill="none" stroke="midnightblue" d="M2088.31,-264.42C2124.17,-253.51 2164.91,-241.12 2199.75,-230.52"/>
<polygon fill="midnightblue" stroke="midnightblue" points="2086.89,-261.19 2078.34,-267.45 2088.93,-267.89 2086.89,-261.19"/>
</g>
<!-- Node21 -->
<g id="node21" class="node">
<title>Node21</title>
<g id="a_node21"><a xlink:href="java__bytecode__convert__method_8h.html" target="_top" xlink:title=" ">
<polygon fill="none" stroke="black" points="2118,-89.5 2118,-141.5 2318,-141.5 2318,-89.5 2118,-89.5"/>
<text text-anchor="start" x="2126" y="-129.5" font-family="Helvetica,sans-Serif" font-size="10.00">/home/runner/work/cbmc</text>
<text text-anchor="start" x="2126" y="-118.5" font-family="Helvetica,sans-Serif" font-size="10.00">&#45;documentation/cbmc&#45;documentation</text>
<text text-anchor="start" x="2126" y="-107.5" font-family="Helvetica,sans-Serif" font-size="10.00">/jbmc/src/java_bytecode/java</text>
<text text-anchor="middle" x="2218" y="-96.5" font-family="Helvetica,sans-Serif" font-size="10.00">_bytecode_convert_method.h</text>
</a>
</g>
</g>
<!-- Node20&#45;&gt;Node21 -->
<g id="edge23" class="edge">
<title>Node20&#45;&gt;Node21</title>
<path fill="none" stroke="midnightblue" d="M2257.51,-170.22C2250.53,-160.72 2243.03,-150.53 2236.47,-141.61"/>
<polygon fill="midnightblue" stroke="midnightblue" points="2254.74,-172.35 2263.49,-178.34 2260.38,-168.21 2254.74,-172.35"/>
</g>
<!-- Node22 -->
<g id="node22" class="node">
<title>Node22</title>
<g id="a_node22"><a xlink:href="java__bytecode__convert__method_8cpp.html" target="_top" xlink:title=" ">
<polygon fill="none" stroke="black" points="2384,-0.5 2384,-52.5 2584,-52.5 2584,-0.5 2384,-0.5"/>
<text text-anchor="start" x="2392" y="-40.5" font-family="Helvetica,sans-Serif" font-size="10.00">/home/runner/work/cbmc</text>
<text text-anchor="start" x="2392" y="-29.5" font-family="Helvetica,sans-Serif" font-size="10.00">&#45;documentation/cbmc&#45;documentation</text>
<text text-anchor="start" x="2392" y="-18.5" font-family="Helvetica,sans-Serif" font-size="10.00">/jbmc/src/java_bytecode/java</text>
<text text-anchor="middle" x="2484" y="-7.5" font-family="Helvetica,sans-Serif" font-size="10.00">_bytecode_convert_method.cpp</text>
</a>
</g>
</g>
<!-- Node20&#45;&gt;Node22 -->
<g id="edge28" class="edge">
<title>Node20&#45;&gt;Node22</title>
<path fill="none" stroke="midnightblue" d="M2306.41,-170.27C2313.1,-161.12 2320.35,-151.19 2327,-142 2344,-118.53 2343.07,-107.96 2365,-89 2381.8,-74.47 2402.63,-62.23 2422.14,-52.58"/>
<polygon fill="midnightblue" stroke="midnightblue" points="2303.53,-168.27 2300.45,-178.41 2309.18,-172.41 2303.53,-168.27"/>
</g>
<!-- Node24 -->
<g id="node24" class="node">
<title>Node24</title>
<g id="a_node24"><a xlink:href="java__local__variable__table_8cpp.html" target="_top" xlink:title=" ">
<polygon fill="none" stroke="black" points="2374,-89.5 2374,-141.5 2574,-141.5 2574,-89.5 2374,-89.5"/>
<text text-anchor="start" x="2382" y="-129.5" font-family="Helvetica,sans-Serif" font-size="10.00">/home/runner/work/cbmc</text>
<text text-anchor="start" x="2382" y="-118.5" font-family="Helvetica,sans-Serif" font-size="10.00">&#45;documentation/cbmc&#45;documentation</text>
<text text-anchor="start" x="2382" y="-107.5" font-family="Helvetica,sans-Serif" font-size="10.00">/jbmc/src/java_bytecode/java</text>
<text text-anchor="middle" x="2474" y="-96.5" font-family="Helvetica,sans-Serif" font-size="10.00">_local_variable_table.cpp</text>
</a>
</g>
</g>
<!-- Node20&#45;&gt;Node24 -->
<g id="edge29" class="edge">
<title>Node20&#45;&gt;Node24</title>
<path fill="none" stroke="midnightblue" d="M2346.45,-174.29C2369.91,-163.67 2396.2,-151.76 2418.78,-141.52"/>
<polygon fill="midnightblue" stroke="midnightblue" points="2344.94,-171.14 2337.28,-178.45 2347.83,-177.51 2344.94,-171.14"/>
</g>
<!-- Node21&#45;&gt;Node9 -->
<g id="edge26" class="edge">
<title>Node21&#45;&gt;Node9</title>
<path fill="none" stroke="midnightblue" d="M2108.05,-90.61C2056.66,-79.35 1994.66,-65.65 1939,-53 1936.06,-52.33 1933.08,-51.65 1930.07,-50.96"/>
<polygon fill="midnightblue" stroke="midnightblue" points="2107.34,-94.03 2117.85,-92.75 2108.83,-87.19 2107.34,-94.03"/>
</g>
<!-- Node21&#45;&gt;Node19 -->
<g id="edge24" class="edge">
<title>Node21&#45;&gt;Node19</title>
<path fill="none" stroke="midnightblue" d="M2159.92,-84.78C2139.47,-74.31 2116.7,-62.66 2097.06,-52.61"/>
<polygon fill="midnightblue" stroke="midnightblue" points="2158.33,-87.9 2168.83,-89.34 2161.52,-81.66 2158.33,-87.9"/>
</g>
<!-- Node21&#45;&gt;Node22 -->
<g id="edge25" class="edge">
<title>Node21&#45;&gt;Node22</title>
<path fill="none" stroke="midnightblue" d="M2304.29,-86.28C2337.53,-75.4 2375.24,-63.07 2407.5,-52.52"/>
<polygon fill="midnightblue" stroke="midnightblue" points="2303,-83.02 2294.58,-89.45 2305.17,-89.67 2303,-83.02"/>
</g>
<!-- Node23 -->
<g id="node23" class="node">
<title>Node23</title>
<g id="a_node23"><a xlink:href="lambda__synthesis_8cpp.html" target="_top" xlink:title=" ">
<polygon fill="none" stroke="black" points="2166,-0.5 2166,-52.5 2366,-52.5 2366,-0.5 2166,-0.5"/>
<text text-anchor="start" x="2174" y="-40.5" font-family="Helvetica,sans-Serif" font-size="10.00">/home/runner/work/cbmc</text>
<text text-anchor="start" x="2174" y="-29.5" font-family="Helvetica,sans-Serif" font-size="10.00">&#45;documentation/cbmc&#45;documentation</text>
<text text-anchor="start" x="2174" y="-18.5" font-family="Helvetica,sans-Serif" font-size="10.00">/jbmc/src/java_bytecode/lambda</text>
<text text-anchor="middle" x="2266" y="-7.5" font-family="Helvetica,sans-Serif" font-size="10.00">_synthesis.cpp</text>
</a>
</g>
</g>
<!-- Node21&#45;&gt;Node23 -->
<g id="edge27" class="edge">
<title>Node21&#45;&gt;Node23</title>
<path fill="none" stroke="midnightblue" d="M2236.84,-80.35C2241.94,-71.1 2247.37,-61.26 2252.15,-52.61"/>
<polygon fill="midnightblue" stroke="midnightblue" points="2233.65,-78.89 2231.88,-89.34 2239.78,-82.27 2233.65,-78.89"/>
</g>
</g>
</svg>
