<?xml version="1.0" encoding="UTF-8" standalone="no"?>
<!DOCTYPE svg PUBLIC "-//W3C//DTD SVG 1.1//EN"
 "http://www.w3.org/Graphics/SVG/1.1/DTD/svg11.dtd">
<!-- Generated by graphviz version 2.43.0 (0)
 -->
<!-- Title: /home/runner/work/cbmc&#45;documentation/cbmc&#45;documentation/jbmc/src/java_bytecode/java_bytecode_language.h Pages: 1 -->
<svg width="2126pt" height="239pt"
 viewBox="0.00 0.00 2125.50 239.00" xmlns="http://www.w3.org/2000/svg" xmlns:xlink="http://www.w3.org/1999/xlink">
<g id="graph0" class="graph" transform="scale(1 1) rotate(0) translate(4 235)">
<title>/home/runner/work/cbmc&#45;documentation/cbmc&#45;documentation/jbmc/src/java_bytecode/java_bytecode_language.h</title>
<!-- Node1 -->
<g id="node1" class="node">
<title>Node1</title>
<g id="a_node1"><a xlink:title=" ">
<polygon fill="#bfbfbf" stroke="black" points="1007.5,-178.5 1007.5,-230.5 1207.5,-230.5 1207.5,-178.5 1007.5,-178.5"/>
<text text-anchor="start" x="1015.5" y="-218.5" font-family="Helvetica,sans-Serif" font-size="10.00">/home/runner/work/cbmc</text>
<text text-anchor="start" x="1015.5" y="-207.5" font-family="Helvetica,sans-Serif" font-size="10.00">&#45;documentation/cbmc&#45;documentation</text>
<text text-anchor="start" x="1015.5" y="-196.5" font-family="Helvetica,sans-Serif" font-size="10.00">/jbmc/src/java_bytecode/java</text>
<text text-anchor="middle" x="1107.5" y="-185.5" font-family="Helvetica,sans-Serif" font-size="10.00">_bytecode_language.h</text>
</a>
</g>
</g>
<!-- Node2 -->
<g id="node2" class="node">
<title>Node2</title>
<g id="a_node2"><a xlink:href="janalyzer__parse__options_8h.html" target="_top" xlink:title=" ">
<polygon fill="none" stroke="black" points="97.5,-89.5 97.5,-141.5 297.5,-141.5 297.5,-89.5 97.5,-89.5"/>
<text text-anchor="start" x="105.5" y="-129.5" font-family="Helvetica,sans-Serif" font-size="10.00">/home/runner/work/cbmc</text>
<text text-anchor="start" x="105.5" y="-118.5" font-family="Helvetica,sans-Serif" font-size="10.00">&#45;documentation/cbmc&#45;documentation</text>
<text text-anchor="start" x="105.5" y="-107.5" font-family="Helvetica,sans-Serif" font-size="10.00">/jbmc/src/janalyzer/janalyzer</text>
<text text-anchor="middle" x="197.5" y="-96.5" font-family="Helvetica,sans-Serif" font-size="10.00">_parse_options.h</text>
</a>
</g>
</g>
<!-- Node1&#45;&gt;Node2 -->
<g id="edge1" class="edge">
<title>Node1&#45;&gt;Node2</title>
<path fill="none" stroke="midnightblue" d="M996.98,-199.95C842.75,-193.87 554.54,-178.38 311.5,-142 306.99,-141.32 302.39,-140.57 297.75,-139.76"/>
<polygon fill="midnightblue" stroke="midnightblue" points="997.27,-203.47 1007.4,-200.36 997.54,-196.47 997.27,-203.47"/>
</g>
<!-- Node4 -->
<g id="node4" class="node">
<title>Node4</title>
<g id="a_node4"><a xlink:href="janalyzer__parse__options_8cpp.html" target="_top" xlink:title=" ">
<polygon fill="none" stroke="black" points="225.5,-0.5 225.5,-52.5 425.5,-52.5 425.5,-0.5 225.5,-0.5"/>
<text text-anchor="start" x="233.5" y="-40.5" font-family="Helvetica,sans-Serif" font-size="10.00">/home/runner/work/cbmc</text>
<text text-anchor="start" x="233.5" y="-29.5" font-family="Helvetica,sans-Serif" font-size="10.00">&#45;documentation/cbmc&#45;documentation</text>
<text text-anchor="start" x="233.5" y="-18.5" font-family="Helvetica,sans-Serif" font-size="10.00">/jbmc/src/janalyzer/janalyzer</text>
<text text-anchor="middle" x="325.5" y="-7.5" font-family="Helvetica,sans-Serif" font-size="10.00">_parse_options.cpp</text>
</a>
</g>
</g>
<!-- Node1&#45;&gt;Node4 -->
<g id="edge4" class="edge">
<title>Node1&#45;&gt;Node4</title>
<path fill="none" stroke="midnightblue" d="M997.2,-201.99C797.32,-198.18 391.47,-185.18 344.5,-142 320.17,-119.63 319.22,-78.93 321.67,-52.57"/>
<polygon fill="midnightblue" stroke="midnightblue" points="997.37,-205.49 1007.44,-202.18 997.5,-198.49 997.37,-205.49"/>
</g>
<!-- Node5 -->
<g id="node5" class="node">
<title>Node5</title>
<g id="a_node5"><a xlink:href="ci__lazy__methods_8cpp.html" target="_top" xlink:title=" ">
<polygon fill="none" stroke="black" points="353.5,-89.5 353.5,-141.5 553.5,-141.5 553.5,-89.5 353.5,-89.5"/>
<text text-anchor="start" x="361.5" y="-129.5" font-family="Helvetica,sans-Serif" font-size="10.00">/home/runner/work/cbmc</text>
<text text-anchor="start" x="361.5" y="-118.5" font-family="Helvetica,sans-Serif" font-size="10.00">&#45;documentation/cbmc&#45;documentation</text>
<text text-anchor="start" x="361.5" y="-107.5" font-family="Helvetica,sans-Serif" font-size="10.00">/jbmc/src/java_bytecode/ci_lazy</text>
<text text-anchor="middle" x="453.5" y="-96.5" font-family="Helvetica,sans-Serif" font-size="10.00">_methods.cpp</text>
</a>
</g>
</g>
<!-- Node1&#45;&gt;Node5 -->
<g id="edge5" class="edge">
<title>Node1&#45;&gt;Node5</title>
<path fill="none" stroke="midnightblue" d="M997.15,-194.88C886.67,-185.35 712.06,-167.84 562.5,-142 559.63,-141.5 556.72,-140.98 553.78,-140.43"/>
<polygon fill="midnightblue" stroke="midnightblue" points="997.04,-198.38 1007.3,-195.75 997.64,-191.41 997.04,-198.38"/>
</g>
<!-- Node6 -->
<g id="node6" class="node">
<title>Node6</title>
<g id="a_node6"><a xlink:href="java__bytecode__language_8cpp.html" target="_top" xlink:title=" ">
<polygon fill="none" stroke="black" points="571.5,-89.5 571.5,-141.5 771.5,-141.5 771.5,-89.5 571.5,-89.5"/>
<text text-anchor="start" x="579.5" y="-129.5" font-family="Helvetica,sans-Serif" font-size="10.00">/home/runner/work/cbmc</text>
<text text-anchor="start" x="579.5" y="-118.5" font-family="Helvetica,sans-Serif" font-size="10.00">&#45;documentation/cbmc&#45;documentation</text>
<text text-anchor="start" x="579.5" y="-107.5" font-family="Helvetica,sans-Serif" font-size="10.00">/jbmc/src/java_bytecode/java</text>
<text text-anchor="middle" x="671.5" y="-96.5" font-family="Helvetica,sans-Serif" font-size="10.00">_bytecode_language.cpp</text>
</a>
</g>
</g>
<!-- Node1&#45;&gt;Node6 -->
<g id="edge6" class="edge">
<title>Node1&#45;&gt;Node6</title>
<path fill="none" stroke="midnightblue" d="M997.41,-184.04C933.87,-172.5 852.53,-157.19 780.5,-142 777.55,-141.38 774.56,-140.74 771.55,-140.08"/>
<polygon fill="midnightblue" stroke="midnightblue" points="996.99,-187.52 1007.45,-185.86 998.24,-180.63 996.99,-187.52"/>
</g>
<!-- Node7 -->
<g id="node7" class="node">
<title>Node7</title>
<g id="a_node7"><a xlink:href="java__entry__point_8cpp.html" target="_top" xlink:title=" ">
<polygon fill="none" stroke="black" points="789.5,-89.5 789.5,-141.5 989.5,-141.5 989.5,-89.5 789.5,-89.5"/>
<text text-anchor="start" x="797.5" y="-129.5" font-family="Helvetica,sans-Serif" font-size="10.00">/home/runner/work/cbmc</text>
<text text-anchor="start" x="797.5" y="-118.5" font-family="Helvetica,sans-Serif" font-size="10.00">&#45;documentation/cbmc&#45;documentation</text>
<text text-anchor="start" x="797.5" y="-107.5" font-family="Helvetica,sans-Serif" font-size="10.00">/jbmc/src/java_bytecode/java</text>
<text text-anchor="middle" x="889.5" y="-96.5" font-family="Helvetica,sans-Serif" font-size="10.00">_entry_point.cpp</text>
</a>
</g>
</g>
<!-- Node1&#45;&gt;Node7 -->
<g id="edge7" class="edge">
<title>Node1&#45;&gt;Node7</title>
<path fill="none" stroke="midnightblue" d="M1035.38,-174.72C1008.48,-163.98 978.18,-151.89 952.2,-141.52"/>
<polygon fill="midnightblue" stroke="midnightblue" points="1034.15,-178 1044.74,-178.45 1036.75,-171.5 1034.15,-178"/>
</g>
<!-- Node8 -->
<g id="node8" class="node">
<title>Node8</title>
<g id="a_node8"><a xlink:href="lazy__goto__model_8cpp.html" target="_top" xlink:title="Author: Diffblue Ltd.">
<polygon fill="none" stroke="black" points="1007.5,-89.5 1007.5,-141.5 1207.5,-141.5 1207.5,-89.5 1007.5,-89.5"/>
<text text-anchor="start" x="1015.5" y="-129.5" font-family="Helvetica,sans-Serif" font-size="10.00">/home/runner/work/cbmc</text>
<text text-anchor="start" x="1015.5" y="-118.5" font-family="Helvetica,sans-Serif" font-size="10.00">&#45;documentation/cbmc&#45;documentation</text>
<text text-anchor="start" x="1015.5" y="-107.5" font-family="Helvetica,sans-Serif" font-size="10.00">/jbmc/src/java_bytecode/lazy</text>
<text text-anchor="middle" x="1107.5" y="-96.5" font-family="Helvetica,sans-Serif" font-size="10.00">_goto_model.cpp</text>
</a>
</g>
</g>
<!-- Node1&#45;&gt;Node8 -->
<g id="edge8" class="edge">
<title>Node1&#45;&gt;Node8</title>
<path fill="none" stroke="midnightblue" d="M1107.5,-168.19C1107.5,-159.28 1107.5,-149.9 1107.5,-141.61"/>
<polygon fill="midnightblue" stroke="midnightblue" points="1104,-168.34 1107.5,-178.34 1111,-168.34 1104,-168.34"/>
</g>
<!-- Node9 -->
<g id="node9" class="node">
<title>Node9</title>
<g id="a_node9"><a xlink:href="jbmc__parse__options_8h.html" target="_top" xlink:title=" ">
<polygon fill="none" stroke="black" points="1225.5,-95 1225.5,-136 1425.5,-136 1425.5,-95 1225.5,-95"/>
<text text-anchor="start" x="1233.5" y="-124" font-family="Helvetica,sans-Serif" font-size="10.00">/home/runner/work/cbmc</text>
<text text-anchor="start" x="1233.5" y="-113" font-family="Helvetica,sans-Serif" font-size="10.00">&#45;documentation/cbmc&#45;documentation</text>
<text text-anchor="middle" x="1325.5" y="-102" font-family="Helvetica,sans-Serif" font-size="10.00">/jbmc/src/jbmc/jbmc_parse_options.h</text>
</a>
</g>
</g>
<!-- Node1&#45;&gt;Node9 -->
<g id="edge9" class="edge">
<title>Node1&#45;&gt;Node9</title>
<path fill="none" stroke="midnightblue" d="M1179.92,-174.6C1211.57,-161.97 1247.87,-147.48 1276.3,-136.13"/>
<polygon fill="midnightblue" stroke="midnightblue" points="1178.25,-171.5 1170.26,-178.45 1180.85,-178 1178.25,-171.5"/>
</g>
<!-- Node11 -->
<g id="node11" class="node">
<title>Node11</title>
<g id="a_node11"><a xlink:href="jbmc__parse__options_8cpp.html" target="_top" xlink:title=" ">
<polygon fill="none" stroke="black" points="1349,-6 1349,-47 1558,-47 1558,-6 1349,-6"/>
<text text-anchor="start" x="1357" y="-35" font-family="Helvetica,sans-Serif" font-size="10.00">/home/runner/work/cbmc</text>
<text text-anchor="start" x="1357" y="-24" font-family="Helvetica,sans-Serif" font-size="10.00">&#45;documentation/cbmc&#45;documentation</text>
<text text-anchor="middle" x="1453.5" y="-13" font-family="Helvetica,sans-Serif" font-size="10.00">/jbmc/src/jbmc/jbmc_parse_options.cpp</text>
</a>
</g>
</g>
<!-- Node1&#45;&gt;Node11 -->
<g id="edge12" class="edge">
<title>Node1&#45;&gt;Node11</title>
<path fill="none" stroke="midnightblue" d="M1217.86,-196.13C1300.68,-188.23 1404.7,-172.45 1434.5,-142 1459.17,-116.8 1458.99,-72.55 1456.41,-47.07"/>
<polygon fill="midnightblue" stroke="midnightblue" points="1217.51,-192.65 1207.87,-197.06 1218.15,-199.62 1217.51,-192.65"/>
</g>
<!-- Node12 -->
<g id="node12" class="node">
<title>Node12</title>
<g id="a_node12"><a xlink:href="jdiff__languages_8cpp.html" target="_top" xlink:title=" ">
<polygon fill="none" stroke="black" points="1481.5,-95 1481.5,-136 1681.5,-136 1681.5,-95 1481.5,-95"/>
<text text-anchor="start" x="1489.5" y="-124" font-family="Helvetica,sans-Serif" font-size="10.00">/home/runner/work/cbmc</text>
<text text-anchor="start" x="1489.5" y="-113" font-family="Helvetica,sans-Serif" font-size="10.00">&#45;documentation/cbmc&#45;documentation</text>
<text text-anchor="middle" x="1581.5" y="-102" font-family="Helvetica,sans-Serif" font-size="10.00">/jbmc/src/jdiff/jdiff_languages.cpp</text>
</a>
</g>
</g>
<!-- Node1&#45;&gt;Node12 -->
<g id="edge13" class="edge">
<title>Node1&#45;&gt;Node12</title>
<path fill="none" stroke="midnightblue" d="M1217.76,-186.16C1289.15,-174.56 1384.02,-158.46 1467.5,-142 1476.85,-140.16 1486.61,-138.13 1496.32,-136.05"/>
<polygon fill="midnightblue" stroke="midnightblue" points="1217.15,-182.71 1207.84,-187.76 1218.27,-189.62 1217.15,-182.71"/>
</g>
<!-- Node13 -->
<g id="node13" class="node">
<title>Node13</title>
<g id="a_node13"><a xlink:href="jdiff__parse__options_8cpp.html" target="_top" xlink:title=" ">
<polygon fill="none" stroke="black" points="1699.5,-95 1699.5,-136 1899.5,-136 1899.5,-95 1699.5,-95"/>
<text text-anchor="start" x="1707.5" y="-124" font-family="Helvetica,sans-Serif" font-size="10.00">/home/runner/work/cbmc</text>
<text text-anchor="start" x="1707.5" y="-113" font-family="Helvetica,sans-Serif" font-size="10.00">&#45;documentation/cbmc&#45;documentation</text>
<text text-anchor="middle" x="1799.5" y="-102" font-family="Helvetica,sans-Serif" font-size="10.00">/jbmc/src/jdiff/jdiff_parse_options.cpp</text>
</a>
</g>
</g>
<!-- Node1&#45;&gt;Node13 -->
<g id="edge14" class="edge">
<title>Node1&#45;&gt;Node13</title>
<path fill="none" stroke="midnightblue" d="M1217.66,-196C1335.3,-187.02 1526.92,-169.65 1690.5,-142 1700.46,-140.32 1710.88,-138.26 1721.15,-136.06"/>
<polygon fill="midnightblue" stroke="midnightblue" points="1217.27,-192.51 1207.56,-196.76 1217.8,-199.49 1217.27,-192.51"/>
</g>
<!-- Node14 -->
<g id="node14" class="node">
<title>Node14</title>
<g id="a_node14"><a xlink:href="load__java__class_8cpp.html" target="_top" xlink:title=" ">
<polygon fill="none" stroke="black" points="1917.5,-89.5 1917.5,-141.5 2117.5,-141.5 2117.5,-89.5 1917.5,-89.5"/>
<text text-anchor="start" x="1925.5" y="-129.5" font-family="Helvetica,sans-Serif" font-size="10.00">/home/runner/work/cbmc</text>
<text text-anchor="start" x="1925.5" y="-118.5" font-family="Helvetica,sans-Serif" font-size="10.00">&#45;documentation/cbmc&#45;documentation</text>
<text text-anchor="start" x="1925.5" y="-107.5" font-family="Helvetica,sans-Serif" font-size="10.00">/jbmc/unit/java&#45;testing&#45;utils</text>
<text text-anchor="middle" x="2017.5" y="-96.5" font-family="Helvetica,sans-Serif" font-size="10.00">/load_java_class.cpp</text>
</a>
</g>
</g>
<!-- Node1&#45;&gt;Node14 -->
<g id="edge15" class="edge">
<title>Node1&#45;&gt;Node14</title>
<path fill="none" stroke="midnightblue" d="M1217.66,-200.38C1372.65,-194.78 1663.53,-179.83 1908.5,-142 1911.38,-141.56 1914.3,-141.07 1917.24,-140.56"/>
<polygon fill="midnightblue" stroke="midnightblue" points="1217.52,-196.88 1207.65,-200.73 1217.77,-203.88 1217.52,-196.88"/>
</g>
<!-- Node3 -->
<g id="node3" class="node">
<title>Node3</title>
<g id="a_node3"><a xlink:href="janalyzer__main_8cpp.html" target="_top" xlink:title=" ">
<polygon fill="none" stroke="black" points="0,-6 0,-47 207,-47 207,-6 0,-6"/>
<text text-anchor="start" x="8" y="-35" font-family="Helvetica,sans-Serif" font-size="10.00">/home/runner/work/cbmc</text>
<text text-anchor="start" x="8" y="-24" font-family="Helvetica,sans-Serif" font-size="10.00">&#45;documentation/cbmc&#45;documentation</text>
<text text-anchor="middle" x="103.5" y="-13" font-family="Helvetica,sans-Serif" font-size="10.00">/jbmc/src/janalyzer/janalyzer_main.cpp</text>
</a>
</g>
</g>
<!-- Node2&#45;&gt;Node3 -->
<g id="edge2" class="edge">
<title>Node2&#45;&gt;Node3</title>
<path fill="none" stroke="midnightblue" d="M162.94,-82.51C150.11,-70.64 135.94,-57.53 124.66,-47.08"/>
<polygon fill="midnightblue" stroke="midnightblue" points="160.59,-85.11 170.31,-89.34 165.35,-79.97 160.59,-85.11"/>
</g>
<!-- Node2&#45;&gt;Node4 -->
<g id="edge3" class="edge">
<title>Node2&#45;&gt;Node4</title>
<path fill="none" stroke="midnightblue" d="M243.1,-83.5C258.01,-73.37 274.37,-62.25 288.56,-52.61"/>
<polygon fill="midnightblue" stroke="midnightblue" points="240.83,-80.82 234.52,-89.34 244.76,-86.61 240.83,-80.82"/>
</g>
<!-- Node10 -->
<g id="node10" class="node">
<title>Node10</title>
<g id="a_node10"><a xlink:href="jbmc__main_8cpp.html" target="_top" xlink:title=" ">
<polygon fill="none" stroke="black" points="1130.5,-6 1130.5,-47 1330.5,-47 1330.5,-6 1130.5,-6"/>
<text text-anchor="start" x="1138.5" y="-35" font-family="Helvetica,sans-Serif" font-size="10.00">/home/runner/work/cbmc</text>
<text text-anchor="start" x="1138.5" y="-24" font-family="Helvetica,sans-Serif" font-size="10.00">&#45;documentation/cbmc&#45;documentation</text>
<text text-anchor="middle" x="1230.5" y="-13" font-family="Helvetica,sans-Serif" font-size="10.00">/jbmc/src/jbmc/jbmc_main.cpp</text>
</a>
</g>
</g>
<!-- Node9&#45;&gt;Node10 -->
<g id="edge10" class="edge">
<title>Node9&#45;&gt;Node10</title>
<path fill="none" stroke="midnightblue" d="M1296.3,-87.76C1282,-74.66 1265.07,-59.16 1251.97,-47.16"/>
<polygon fill="midnightblue" stroke="midnightblue" points="1294.2,-90.59 1303.94,-94.76 1298.93,-85.42 1294.2,-90.59"/>
</g>
<!-- Node9&#45;&gt;Node11 -->
<g id="edge11" class="edge">
<title>Node9&#45;&gt;Node11</title>
<path fill="none" stroke="midnightblue" d="M1362.65,-89.25C1382.32,-75.88 1406.12,-59.7 1424.43,-47.26"/>
<polygon fill="midnightblue" stroke="midnightblue" points="1360.53,-86.46 1354.23,-94.98 1364.46,-92.25 1360.53,-86.46"/>
</g>
</g>
</svg>
