<?xml version="1.0" encoding="UTF-8" standalone="no"?>
<!DOCTYPE svg PUBLIC "-//W3C//DTD SVG 1.1//EN"
 "http://www.w3.org/Graphics/SVG/1.1/DTD/svg11.dtd">
<!-- Generated by graphviz version 2.43.0 (0)
 -->
<!-- Title: /home/runner/work/cbmc&#45;documentation/cbmc&#45;documentation/jbmc/src/java_bytecode/java_utils.h Pages: 1 -->
<svg width="4174pt" height="139pt"
 viewBox="0.00 0.00 4174.00 139.00" xmlns="http://www.w3.org/2000/svg" xmlns:xlink="http://www.w3.org/1999/xlink">
<g id="graph0" class="graph" transform="scale(1 1) rotate(0) translate(4 135)">
<title>/home/runner/work/cbmc&#45;documentation/cbmc&#45;documentation/jbmc/src/java_bytecode/java_utils.h</title>
<!-- Node1 -->
<g id="node1" class="node">
<title>Node1</title>
<g id="a_node1"><a xlink:title=" ">
<polygon fill="#bfbfbf" stroke="black" points="2004,-89.5 2004,-130.5 2204,-130.5 2204,-89.5 2004,-89.5"/>
<text text-anchor="start" x="2012" y="-118.5" font-family="Helvetica,sans-Serif" font-size="10.00">/home/runner/work/cbmc</text>
<text text-anchor="start" x="2012" y="-107.5" font-family="Helvetica,sans-Serif" font-size="10.00">&#45;documentation/cbmc&#45;documentation</text>
<text text-anchor="middle" x="2104" y="-96.5" font-family="Helvetica,sans-Serif" font-size="10.00">/jbmc/src/java_bytecode/java_utils.h</text>
</a>
</g>
</g>
<!-- Node2 -->
<g id="node2" class="node">
<title>Node2</title>
<g id="a_node2"><a xlink:href="assignments__from__json_8cpp.html" target="_top" xlink:title=" ">
<polygon fill="none" stroke="black" points="0,-0.5 0,-52.5 200,-52.5 200,-0.5 0,-0.5"/>
<text text-anchor="start" x="8" y="-40.5" font-family="Helvetica,sans-Serif" font-size="10.00">/home/runner/work/cbmc</text>
<text text-anchor="start" x="8" y="-29.5" font-family="Helvetica,sans-Serif" font-size="10.00">&#45;documentation/cbmc&#45;documentation</text>
<text text-anchor="start" x="8" y="-18.5" font-family="Helvetica,sans-Serif" font-size="10.00">/jbmc/src/java_bytecode/assignments</text>
<text text-anchor="middle" x="100" y="-7.5" font-family="Helvetica,sans-Serif" font-size="10.00">_from_json.cpp</text>
</a>
</g>
</g>
<!-- Node1&#45;&gt;Node2 -->
<g id="edge1" class="edge">
<title>Node1&#45;&gt;Node2</title>
<path fill="none" stroke="midnightblue" d="M1993.56,-108.64C1642.91,-107.04 557.43,-98.44 209,-53 206.11,-52.62 203.18,-52.2 200.24,-51.75"/>
<polygon fill="midnightblue" stroke="midnightblue" points="1993.7,-112.14 2003.72,-108.68 1993.73,-105.14 1993.7,-112.14"/>
</g>
<!-- Node3 -->
<g id="node3" class="node">
<title>Node3</title>
<g id="a_node3"><a xlink:href="convert__java__nondet_8cpp.html" target="_top" xlink:title=" ">
<polygon fill="none" stroke="black" points="218,-0.5 218,-52.5 418,-52.5 418,-0.5 218,-0.5"/>
<text text-anchor="start" x="226" y="-40.5" font-family="Helvetica,sans-Serif" font-size="10.00">/home/runner/work/cbmc</text>
<text text-anchor="start" x="226" y="-29.5" font-family="Helvetica,sans-Serif" font-size="10.00">&#45;documentation/cbmc&#45;documentation</text>
<text text-anchor="start" x="226" y="-18.5" font-family="Helvetica,sans-Serif" font-size="10.00">/jbmc/src/java_bytecode/convert</text>
<text text-anchor="middle" x="318" y="-7.5" font-family="Helvetica,sans-Serif" font-size="10.00">_java_nondet.cpp</text>
</a>
</g>
</g>
<!-- Node1&#45;&gt;Node3 -->
<g id="edge2" class="edge">
<title>Node1&#45;&gt;Node3</title>
<path fill="none" stroke="midnightblue" d="M1993.69,-108.14C1670.79,-105.19 731.26,-93.27 427,-53 424.11,-52.62 421.18,-52.19 418.24,-51.73"/>
<polygon fill="midnightblue" stroke="midnightblue" points="1993.95,-111.65 2003.98,-108.24 1994.02,-104.65 1993.95,-111.65"/>
</g>
<!-- Node4 -->
<g id="node4" class="node">
<title>Node4</title>
<g id="a_node4"><a xlink:href="java__bytecode__concurrency__instrumentation_8cpp.html" target="_top" xlink:title=" ">
<polygon fill="none" stroke="black" points="436.5,-0.5 436.5,-52.5 671.5,-52.5 671.5,-0.5 436.5,-0.5"/>
<text text-anchor="start" x="444.5" y="-40.5" font-family="Helvetica,sans-Serif" font-size="10.00">/home/runner/work/cbmc</text>
<text text-anchor="start" x="444.5" y="-29.5" font-family="Helvetica,sans-Serif" font-size="10.00">&#45;documentation/cbmc&#45;documentation</text>
<text text-anchor="start" x="444.5" y="-18.5" font-family="Helvetica,sans-Serif" font-size="10.00">/jbmc/src/java_bytecode/java</text>
<text text-anchor="middle" x="554" y="-7.5" font-family="Helvetica,sans-Serif" font-size="10.00">_bytecode_concurrency_instrumentation.cpp</text>
</a>
</g>
</g>
<!-- Node1&#45;&gt;Node4 -->
<g id="edge3" class="edge">
<title>Node1&#45;&gt;Node4</title>
<path fill="none" stroke="midnightblue" d="M1993.87,-106.93C1705.77,-101.15 934.62,-83.26 681,-53 677.87,-52.63 674.71,-52.22 671.52,-51.78"/>
<polygon fill="midnightblue" stroke="midnightblue" points="1993.84,-110.43 2003.91,-107.13 1993.98,-103.43 1993.84,-110.43"/>
</g>
<!-- Node5 -->
<g id="node5" class="node">
<title>Node5</title>
<g id="a_node5"><a xlink:href="java__bytecode__convert__class_8cpp.html" target="_top" xlink:title=" ">
<polygon fill="none" stroke="black" points="690,-0.5 690,-52.5 890,-52.5 890,-0.5 690,-0.5"/>
<text text-anchor="start" x="698" y="-40.5" font-family="Helvetica,sans-Serif" font-size="10.00">/home/runner/work/cbmc</text>
<text text-anchor="start" x="698" y="-29.5" font-family="Helvetica,sans-Serif" font-size="10.00">&#45;documentation/cbmc&#45;documentation</text>
<text text-anchor="start" x="698" y="-18.5" font-family="Helvetica,sans-Serif" font-size="10.00">/jbmc/src/java_bytecode/java</text>
<text text-anchor="middle" x="790" y="-7.5" font-family="Helvetica,sans-Serif" font-size="10.00">_bytecode_convert_class.cpp</text>
</a>
</g>
</g>
<!-- Node1&#45;&gt;Node5 -->
<g id="edge4" class="edge">
<title>Node1&#45;&gt;Node5</title>
<path fill="none" stroke="midnightblue" d="M1993.93,-106.47C1737.96,-100.16 1108.56,-82.13 899,-53 896.11,-52.6 893.19,-52.16 890.24,-51.68"/>
<polygon fill="midnightblue" stroke="midnightblue" points="1993.9,-109.97 2003.99,-106.71 1994.08,-102.97 1993.9,-109.97"/>
</g>
<!-- Node6 -->
<g id="node6" class="node">
<title>Node6</title>
<g id="a_node6"><a xlink:href="java__bytecode__convert__method_8cpp.html" target="_top" xlink:title=" ">
<polygon fill="none" stroke="black" points="908,-0.5 908,-52.5 1108,-52.5 1108,-0.5 908,-0.5"/>
<text text-anchor="start" x="916" y="-40.5" font-family="Helvetica,sans-Serif" font-size="10.00">/home/runner/work/cbmc</text>
<text text-anchor="start" x="916" y="-29.5" font-family="Helvetica,sans-Serif" font-size="10.00">&#45;documentation/cbmc&#45;documentation</text>
<text text-anchor="start" x="916" y="-18.5" font-family="Helvetica,sans-Serif" font-size="10.00">/jbmc/src/java_bytecode/java</text>
<text text-anchor="middle" x="1008" y="-7.5" font-family="Helvetica,sans-Serif" font-size="10.00">_bytecode_convert_method.cpp</text>
</a>
</g>
</g>
<!-- Node1&#45;&gt;Node6 -->
<g id="edge5" class="edge">
<title>Node1&#45;&gt;Node6</title>
<path fill="none" stroke="midnightblue" d="M1993.79,-108.95C1810.76,-107.48 1432.93,-98.57 1117,-53 1114.11,-52.58 1111.19,-52.13 1108.25,-51.64"/>
<polygon fill="midnightblue" stroke="midnightblue" points="1993.94,-112.45 2003.96,-109.03 1993.99,-105.45 1993.94,-112.45"/>
</g>
<!-- Node7 -->
<g id="node7" class="node">
<title>Node7</title>
<g id="a_node7"><a xlink:href="java__bytecode__instrument_8cpp.html" target="_top" xlink:title=" ">
<polygon fill="none" stroke="black" points="1126,-0.5 1126,-52.5 1326,-52.5 1326,-0.5 1126,-0.5"/>
<text text-anchor="start" x="1134" y="-40.5" font-family="Helvetica,sans-Serif" font-size="10.00">/home/runner/work/cbmc</text>
<text text-anchor="start" x="1134" y="-29.5" font-family="Helvetica,sans-Serif" font-size="10.00">&#45;documentation/cbmc&#45;documentation</text>
<text text-anchor="start" x="1134" y="-18.5" font-family="Helvetica,sans-Serif" font-size="10.00">/jbmc/src/java_bytecode/java</text>
<text text-anchor="middle" x="1226" y="-7.5" font-family="Helvetica,sans-Serif" font-size="10.00">_bytecode_instrument.cpp</text>
</a>
</g>
</g>
<!-- Node1&#45;&gt;Node7 -->
<g id="edge6" class="edge">
<title>Node1&#45;&gt;Node7</title>
<path fill="none" stroke="midnightblue" d="M1993.77,-106.41C1843.9,-101.65 1567.85,-88.49 1335,-53 1332.12,-52.56 1329.2,-52.09 1326.26,-51.58"/>
<polygon fill="midnightblue" stroke="midnightblue" points="1993.79,-109.91 2003.9,-106.72 1994.01,-102.91 1993.79,-109.91"/>
</g>
<!-- Node8 -->
<g id="node8" class="node">
<title>Node8</title>
<g id="a_node8"><a xlink:href="java__bytecode__language_8cpp.html" target="_top" xlink:title=" ">
<polygon fill="none" stroke="black" points="1344,-0.5 1344,-52.5 1544,-52.5 1544,-0.5 1344,-0.5"/>
<text text-anchor="start" x="1352" y="-40.5" font-family="Helvetica,sans-Serif" font-size="10.00">/home/runner/work/cbmc</text>
<text text-anchor="start" x="1352" y="-29.5" font-family="Helvetica,sans-Serif" font-size="10.00">&#45;documentation/cbmc&#45;documentation</text>
<text text-anchor="start" x="1352" y="-18.5" font-family="Helvetica,sans-Serif" font-size="10.00">/jbmc/src/java_bytecode/java</text>
<text text-anchor="middle" x="1444" y="-7.5" font-family="Helvetica,sans-Serif" font-size="10.00">_bytecode_language.cpp</text>
</a>
</g>
</g>
<!-- Node1&#45;&gt;Node8 -->
<g id="edge7" class="edge">
<title>Node1&#45;&gt;Node8</title>
<path fill="none" stroke="midnightblue" d="M1993.69,-101.98C1882.05,-93.89 1704.75,-78.35 1553,-53 1550.12,-52.52 1547.21,-52.01 1544.28,-51.47"/>
<polygon fill="midnightblue" stroke="midnightblue" points="1993.72,-105.49 2003.95,-102.71 1994.22,-98.51 1993.72,-105.49"/>
</g>
<!-- Node9 -->
<g id="node9" class="node">
<title>Node9</title>
<g id="a_node9"><a xlink:href="java__entry__point_8cpp.html" target="_top" xlink:title=" ">
<polygon fill="none" stroke="black" points="1562,-0.5 1562,-52.5 1762,-52.5 1762,-0.5 1562,-0.5"/>
<text text-anchor="start" x="1570" y="-40.5" font-family="Helvetica,sans-Serif" font-size="10.00">/home/runner/work/cbmc</text>
<text text-anchor="start" x="1570" y="-29.5" font-family="Helvetica,sans-Serif" font-size="10.00">&#45;documentation/cbmc&#45;documentation</text>
<text text-anchor="start" x="1570" y="-18.5" font-family="Helvetica,sans-Serif" font-size="10.00">/jbmc/src/java_bytecode/java</text>
<text text-anchor="middle" x="1662" y="-7.5" font-family="Helvetica,sans-Serif" font-size="10.00">_entry_point.cpp</text>
</a>
</g>
</g>
<!-- Node1&#45;&gt;Node9 -->
<g id="edge8" class="edge">
<title>Node1&#45;&gt;Node9</title>
<path fill="none" stroke="midnightblue" d="M1993.62,-92.23C1928.63,-81.91 1844.93,-67.85 1771,-53 1768.05,-52.41 1765.05,-51.79 1762.03,-51.16"/>
<polygon fill="midnightblue" stroke="midnightblue" points="1993.46,-95.75 2003.88,-93.86 1994.55,-88.84 1993.46,-95.75"/>
</g>
<!-- Node10 -->
<g id="node10" class="node">
<title>Node10</title>
<g id="a_node10"><a xlink:href="java__enum__static__init__unwind__handler_8cpp.html" target="_top" xlink:title=" ">
<polygon fill="none" stroke="black" points="1780.5,-0.5 1780.5,-52.5 1985.5,-52.5 1985.5,-0.5 1780.5,-0.5"/>
<text text-anchor="start" x="1788.5" y="-40.5" font-family="Helvetica,sans-Serif" font-size="10.00">/home/runner/work/cbmc</text>
<text text-anchor="start" x="1788.5" y="-29.5" font-family="Helvetica,sans-Serif" font-size="10.00">&#45;documentation/cbmc&#45;documentation</text>
<text text-anchor="start" x="1788.5" y="-18.5" font-family="Helvetica,sans-Serif" font-size="10.00">/jbmc/src/java_bytecode/java</text>
<text text-anchor="middle" x="1883" y="-7.5" font-family="Helvetica,sans-Serif" font-size="10.00">_enum_static_init_unwind_handler.cpp</text>
</a>
</g>
</g>
<!-- Node1&#45;&gt;Node10 -->
<g id="edge9" class="edge">
<title>Node1&#45;&gt;Node10</title>
<path fill="none" stroke="midnightblue" d="M2041.32,-85.89C2013.13,-75.49 1979.79,-63.2 1951,-52.58"/>
<polygon fill="midnightblue" stroke="midnightblue" points="2040.47,-89.3 2051.06,-89.48 2042.89,-82.73 2040.47,-89.3"/>
</g>
<!-- Node11 -->
<g id="node11" class="node">
<title>Node11</title>
<g id="a_node11"><a xlink:href="java__object__factory_8cpp.html" target="_top" xlink:title=" ">
<polygon fill="none" stroke="black" points="2004,-0.5 2004,-52.5 2204,-52.5 2204,-0.5 2004,-0.5"/>
<text text-anchor="start" x="2012" y="-40.5" font-family="Helvetica,sans-Serif" font-size="10.00">/home/runner/work/cbmc</text>
<text text-anchor="start" x="2012" y="-29.5" font-family="Helvetica,sans-Serif" font-size="10.00">&#45;documentation/cbmc&#45;documentation</text>
<text text-anchor="start" x="2012" y="-18.5" font-family="Helvetica,sans-Serif" font-size="10.00">/jbmc/src/java_bytecode/java</text>
<text text-anchor="middle" x="2104" y="-7.5" font-family="Helvetica,sans-Serif" font-size="10.00">_object_factory.cpp</text>
</a>
</g>
</g>
<!-- Node1&#45;&gt;Node11 -->
<g id="edge10" class="edge">
<title>Node1&#45;&gt;Node11</title>
<path fill="none" stroke="midnightblue" d="M2104,-79.12C2104,-70.41 2104,-60.99 2104,-52.61"/>
<polygon fill="midnightblue" stroke="midnightblue" points="2100.5,-79.27 2104,-89.27 2107.5,-79.27 2100.5,-79.27"/>
</g>
<!-- Node12 -->
<g id="node12" class="node">
<title>Node12</title>
<g id="a_node12"><a xlink:href="java__static__initializers_8cpp.html" target="_top" xlink:title=" ">
<polygon fill="none" stroke="black" points="2222,-0.5 2222,-52.5 2422,-52.5 2422,-0.5 2222,-0.5"/>
<text text-anchor="start" x="2230" y="-40.5" font-family="Helvetica,sans-Serif" font-size="10.00">/home/runner/work/cbmc</text>
<text text-anchor="start" x="2230" y="-29.5" font-family="Helvetica,sans-Serif" font-size="10.00">&#45;documentation/cbmc&#45;documentation</text>
<text text-anchor="start" x="2230" y="-18.5" font-family="Helvetica,sans-Serif" font-size="10.00">/jbmc/src/java_bytecode/java</text>
<text text-anchor="middle" x="2322" y="-7.5" font-family="Helvetica,sans-Serif" font-size="10.00">_static_initializers.cpp</text>
</a>
</g>
</g>
<!-- Node1&#45;&gt;Node12 -->
<g id="edge11" class="edge">
<title>Node1&#45;&gt;Node12</title>
<path fill="none" stroke="midnightblue" d="M2165.83,-85.89C2193.63,-75.49 2226.52,-63.2 2254.92,-52.58"/>
<polygon fill="midnightblue" stroke="midnightblue" points="2164.36,-82.7 2156.22,-89.48 2166.81,-89.26 2164.36,-82.7"/>
</g>
<!-- Node13 -->
<g id="node13" class="node">
<title>Node13</title>
<g id="a_node13"><a xlink:href="java__string__library__preprocess_8cpp.html" target="_top" xlink:title=" ">
<polygon fill="none" stroke="black" points="2440,-0.5 2440,-52.5 2640,-52.5 2640,-0.5 2440,-0.5"/>
<text text-anchor="start" x="2448" y="-40.5" font-family="Helvetica,sans-Serif" font-size="10.00">/home/runner/work/cbmc</text>
<text text-anchor="start" x="2448" y="-29.5" font-family="Helvetica,sans-Serif" font-size="10.00">&#45;documentation/cbmc&#45;documentation</text>
<text text-anchor="start" x="2448" y="-18.5" font-family="Helvetica,sans-Serif" font-size="10.00">/jbmc/src/java_bytecode/java</text>
<text text-anchor="middle" x="2540" y="-7.5" font-family="Helvetica,sans-Serif" font-size="10.00">_string_library_preprocess.cpp</text>
</a>
</g>
</g>
<!-- Node1&#45;&gt;Node13 -->
<g id="edge12" class="edge">
<title>Node1&#45;&gt;Node13</title>
<path fill="none" stroke="midnightblue" d="M2214.15,-91.83C2277.72,-81.5 2359.06,-67.56 2431,-53 2433.95,-52.4 2436.95,-51.78 2439.97,-51.15"/>
<polygon fill="midnightblue" stroke="midnightblue" points="2213.42,-88.4 2204.11,-93.46 2214.54,-95.31 2213.42,-88.4"/>
</g>
<!-- Node14 -->
<g id="node14" class="node">
<title>Node14</title>
<g id="a_node14"><a xlink:href="java__string__literals_8cpp.html" target="_top" xlink:title=" ">
<polygon fill="none" stroke="black" points="2658,-0.5 2658,-52.5 2858,-52.5 2858,-0.5 2658,-0.5"/>
<text text-anchor="start" x="2666" y="-40.5" font-family="Helvetica,sans-Serif" font-size="10.00">/home/runner/work/cbmc</text>
<text text-anchor="start" x="2666" y="-29.5" font-family="Helvetica,sans-Serif" font-size="10.00">&#45;documentation/cbmc&#45;documentation</text>
<text text-anchor="start" x="2666" y="-18.5" font-family="Helvetica,sans-Serif" font-size="10.00">/jbmc/src/java_bytecode/java</text>
<text text-anchor="middle" x="2758" y="-7.5" font-family="Helvetica,sans-Serif" font-size="10.00">_string_literals.cpp</text>
</a>
</g>
</g>
<!-- Node1&#45;&gt;Node14 -->
<g id="edge13" class="edge">
<title>Node1&#45;&gt;Node14</title>
<path fill="none" stroke="midnightblue" d="M2214.37,-101.8C2324.86,-93.63 2499.47,-78.07 2649,-53 2651.88,-52.52 2654.79,-52 2657.72,-51.47"/>
<polygon fill="midnightblue" stroke="midnightblue" points="2213.93,-98.33 2204.21,-102.55 2214.44,-105.31 2213.93,-98.33"/>
</g>
<!-- Node15 -->
<g id="node15" class="node">
<title>Node15</title>
<g id="a_node15"><a xlink:href="java__types_8cpp.html" target="_top" xlink:title=" ">
<polygon fill="none" stroke="black" points="2876,-0.5 2876,-52.5 3076,-52.5 3076,-0.5 2876,-0.5"/>
<text text-anchor="start" x="2884" y="-40.5" font-family="Helvetica,sans-Serif" font-size="10.00">/home/runner/work/cbmc</text>
<text text-anchor="start" x="2884" y="-29.5" font-family="Helvetica,sans-Serif" font-size="10.00">&#45;documentation/cbmc&#45;documentation</text>
<text text-anchor="start" x="2884" y="-18.5" font-family="Helvetica,sans-Serif" font-size="10.00">/jbmc/src/java_bytecode/java</text>
<text text-anchor="middle" x="2976" y="-7.5" font-family="Helvetica,sans-Serif" font-size="10.00">_types.cpp</text>
</a>
</g>
</g>
<!-- Node1&#45;&gt;Node15 -->
<g id="edge14" class="edge">
<title>Node1&#45;&gt;Node15</title>
<path fill="none" stroke="midnightblue" d="M2214.3,-106.32C2363.21,-101.46 2636.45,-88.21 2867,-53 2869.88,-52.56 2872.8,-52.08 2875.74,-51.58"/>
<polygon fill="midnightblue" stroke="midnightblue" points="2214.12,-102.82 2204.24,-106.64 2214.35,-109.82 2214.12,-102.82"/>
</g>
<!-- Node16 -->
<g id="node16" class="node">
<title>Node16</title>
<g id="a_node16"><a xlink:href="java__utils_8cpp.html" target="_top" xlink:title=" ">
<polygon fill="none" stroke="black" points="3094,-0.5 3094,-52.5 3294,-52.5 3294,-0.5 3094,-0.5"/>
<text text-anchor="start" x="3102" y="-40.5" font-family="Helvetica,sans-Serif" font-size="10.00">/home/runner/work/cbmc</text>
<text text-anchor="start" x="3102" y="-29.5" font-family="Helvetica,sans-Serif" font-size="10.00">&#45;documentation/cbmc&#45;documentation</text>
<text text-anchor="start" x="3102" y="-18.5" font-family="Helvetica,sans-Serif" font-size="10.00">/jbmc/src/java_bytecode/java</text>
<text text-anchor="middle" x="3194" y="-7.5" font-family="Helvetica,sans-Serif" font-size="10.00">_utils.cpp</text>
</a>
</g>
</g>
<!-- Node1&#45;&gt;Node16 -->
<g id="edge15" class="edge">
<title>Node1&#45;&gt;Node16</title>
<path fill="none" stroke="midnightblue" d="M2214.26,-108.89C2396.45,-107.34 2771.4,-98.29 3085,-53 3087.89,-52.58 3090.81,-52.13 3093.75,-51.64"/>
<polygon fill="midnightblue" stroke="midnightblue" points="2214.11,-105.4 2204.13,-108.97 2214.16,-112.4 2214.11,-105.4"/>
</g>
<!-- Node17 -->
<g id="node17" class="node">
<title>Node17</title>
<g id="a_node17"><a xlink:href="lambda__synthesis_8cpp.html" target="_top" xlink:title=" ">
<polygon fill="none" stroke="black" points="3312,-0.5 3312,-52.5 3512,-52.5 3512,-0.5 3312,-0.5"/>
<text text-anchor="start" x="3320" y="-40.5" font-family="Helvetica,sans-Serif" font-size="10.00">/home/runner/work/cbmc</text>
<text text-anchor="start" x="3320" y="-29.5" font-family="Helvetica,sans-Serif" font-size="10.00">&#45;documentation/cbmc&#45;documentation</text>
<text text-anchor="start" x="3320" y="-18.5" font-family="Helvetica,sans-Serif" font-size="10.00">/jbmc/src/java_bytecode/lambda</text>
<text text-anchor="middle" x="3412" y="-7.5" font-family="Helvetica,sans-Serif" font-size="10.00">_synthesis.cpp</text>
</a>
</g>
</g>
<!-- Node1&#45;&gt;Node17 -->
<g id="edge16" class="edge">
<title>Node1&#45;&gt;Node17</title>
<path fill="none" stroke="midnightblue" d="M2214.46,-106.43C2469.75,-100.07 3094.74,-81.98 3303,-53 3305.89,-52.6 3308.81,-52.16 3311.76,-51.68"/>
<polygon fill="midnightblue" stroke="midnightblue" points="2214.34,-102.93 2204.43,-106.68 2214.51,-109.93 2214.34,-102.93"/>
</g>
<!-- Node18 -->
<g id="node18" class="node">
<title>Node18</title>
<g id="a_node18"><a xlink:href="remove__java__new_8cpp.html" target="_top" xlink:title=" ">
<polygon fill="none" stroke="black" points="3530,-0.5 3530,-52.5 3730,-52.5 3730,-0.5 3530,-0.5"/>
<text text-anchor="start" x="3538" y="-40.5" font-family="Helvetica,sans-Serif" font-size="10.00">/home/runner/work/cbmc</text>
<text text-anchor="start" x="3538" y="-29.5" font-family="Helvetica,sans-Serif" font-size="10.00">&#45;documentation/cbmc&#45;documentation</text>
<text text-anchor="start" x="3538" y="-18.5" font-family="Helvetica,sans-Serif" font-size="10.00">/jbmc/src/java_bytecode/remove</text>
<text text-anchor="middle" x="3630" y="-7.5" font-family="Helvetica,sans-Serif" font-size="10.00">_java_new.cpp</text>
</a>
</g>
</g>
<!-- Node1&#45;&gt;Node18 -->
<g id="edge17" class="edge">
<title>Node1&#45;&gt;Node18</title>
<path fill="none" stroke="midnightblue" d="M2214.24,-107.36C2501.67,-102.63 3269.11,-87.12 3521,-53 3523.89,-52.61 3526.81,-52.18 3529.76,-51.71"/>
<polygon fill="midnightblue" stroke="midnightblue" points="2214.16,-103.86 2204.22,-107.52 2214.28,-110.86 2214.16,-103.86"/>
</g>
<!-- Node19 -->
<g id="node19" class="node">
<title>Node19</title>
<g id="a_node19"><a xlink:href="simple__method__stubbing_8cpp.html" target="_top" xlink:title=" ">
<polygon fill="none" stroke="black" points="3748,-0.5 3748,-52.5 3948,-52.5 3948,-0.5 3748,-0.5"/>
<text text-anchor="start" x="3756" y="-40.5" font-family="Helvetica,sans-Serif" font-size="10.00">/home/runner/work/cbmc</text>
<text text-anchor="start" x="3756" y="-29.5" font-family="Helvetica,sans-Serif" font-size="10.00">&#45;documentation/cbmc&#45;documentation</text>
<text text-anchor="start" x="3756" y="-18.5" font-family="Helvetica,sans-Serif" font-size="10.00">/jbmc/src/java_bytecode/simple</text>
<text text-anchor="middle" x="3848" y="-7.5" font-family="Helvetica,sans-Serif" font-size="10.00">_method_stubbing.cpp</text>
</a>
</g>
</g>
<!-- Node1&#45;&gt;Node19 -->
<g id="edge18" class="edge">
<title>Node1&#45;&gt;Node19</title>
<path fill="none" stroke="midnightblue" d="M2214.34,-108.03C2531.73,-104.8 3443.24,-92.28 3739,-53 3741.89,-52.62 3744.82,-52.19 3747.76,-51.73"/>
<polygon fill="midnightblue" stroke="midnightblue" points="2214.18,-104.53 2204.21,-108.13 2214.25,-111.53 2214.18,-104.53"/>
</g>
<!-- Node20 -->
<g id="node20" class="node">
<title>Node20</title>
<g id="a_node20"><a xlink:href="java__syntactic__diff_8cpp.html" target="_top" xlink:title=" ">
<polygon fill="none" stroke="black" points="3966,-6 3966,-47 4166,-47 4166,-6 3966,-6"/>
<text text-anchor="start" x="3974" y="-35" font-family="Helvetica,sans-Serif" font-size="10.00">/home/runner/work/cbmc</text>
<text text-anchor="start" x="3974" y="-24" font-family="Helvetica,sans-Serif" font-size="10.00">&#45;documentation/cbmc&#45;documentation</text>
<text text-anchor="middle" x="4066" y="-13" font-family="Helvetica,sans-Serif" font-size="10.00">/jbmc/src/jdiff/java_syntactic_diff.cpp</text>
</a>
</g>
</g>
<!-- Node1&#45;&gt;Node20 -->
<g id="edge19" class="edge">
<title>Node1&#45;&gt;Node20</title>
<path fill="none" stroke="midnightblue" d="M2214.09,-108.55C2559.18,-106.7 3616.99,-97.46 3957,-53 3968.18,-51.54 3979.88,-49.43 3991.31,-47.04"/>
<polygon fill="midnightblue" stroke="midnightblue" points="2214.07,-105.05 2204.09,-108.61 2214.11,-112.05 2214.07,-105.05"/>
</g>
</g>
</svg>
