<?xml version="1.0" encoding="UTF-8" standalone="no"?>
<!DOCTYPE svg PUBLIC "-//W3C//DTD SVG 1.1//EN"
 "http://www.w3.org/Graphics/SVG/1.1/DTD/svg11.dtd">
<!-- Generated by graphviz version 2.43.0 (0)
 -->
<!-- Title: /home/runner/work/cbmc&#45;documentation/cbmc&#45;documentation/jbmc/src/java_bytecode/java_static_initializers.h Pages: 1 -->
<svg width="2317pt" height="328pt"
 viewBox="0.00 0.00 2317.00 328.00" xmlns="http://www.w3.org/2000/svg" xmlns:xlink="http://www.w3.org/1999/xlink">
<g id="graph0" class="graph" transform="scale(1 1) rotate(0) translate(4 324)">
<title>/home/runner/work/cbmc&#45;documentation/cbmc&#45;documentation/jbmc/src/java_bytecode/java_static_initializers.h</title>
<!-- Node1 -->
<g id="node1" class="node">
<title>Node1</title>
<g id="a_node1"><a xlink:title=" ">
<polygon fill="#bfbfbf" stroke="black" points="1237,-267.5 1237,-319.5 1437,-319.5 1437,-267.5 1237,-267.5"/>
<text text-anchor="start" x="1245" y="-307.5" font-family="Helvetica,sans-Serif" font-size="10.00">/home/runner/work/cbmc</text>
<text text-anchor="start" x="1245" y="-296.5" font-family="Helvetica,sans-Serif" font-size="10.00">&#45;documentation/cbmc&#45;documentation</text>
<text text-anchor="start" x="1245" y="-285.5" font-family="Helvetica,sans-Serif" font-size="10.00">/jbmc/src/java_bytecode/java</text>
<text text-anchor="middle" x="1337" y="-274.5" font-family="Helvetica,sans-Serif" font-size="10.00">_static_initializers.h</text>
</a>
</g>
</g>
<!-- Node2 -->
<g id="node2" class="node">
<title>Node2</title>
<g id="a_node2"><a xlink:href="assignments__from__json_8cpp.html" target="_top" xlink:title=" ">
<polygon fill="none" stroke="black" points="545,-178.5 545,-230.5 745,-230.5 745,-178.5 545,-178.5"/>
<text text-anchor="start" x="553" y="-218.5" font-family="Helvetica,sans-Serif" font-size="10.00">/home/runner/work/cbmc</text>
<text text-anchor="start" x="553" y="-207.5" font-family="Helvetica,sans-Serif" font-size="10.00">&#45;documentation/cbmc&#45;documentation</text>
<text text-anchor="start" x="553" y="-196.5" font-family="Helvetica,sans-Serif" font-size="10.00">/jbmc/src/java_bytecode/assignments</text>
<text text-anchor="middle" x="645" y="-185.5" font-family="Helvetica,sans-Serif" font-size="10.00">_from_json.cpp</text>
</a>
</g>
</g>
<!-- Node1&#45;&gt;Node2 -->
<g id="edge1" class="edge">
<title>Node1&#45;&gt;Node2</title>
<path fill="none" stroke="midnightblue" d="M1226.8,-284.53C1110.12,-275.23 920.82,-257.62 759,-231 754.5,-230.26 749.91,-229.45 745.28,-228.6"/>
<polygon fill="midnightblue" stroke="midnightblue" points="1226.57,-288.03 1236.81,-285.33 1227.12,-281.05 1226.57,-288.03"/>
</g>
<!-- Node3 -->
<g id="node3" class="node">
<title>Node3</title>
<g id="a_node3"><a xlink:href="java__bytecode__language_8h.html" target="_top" xlink:title=" ">
<polygon fill="none" stroke="black" points="801,-178.5 801,-230.5 1001,-230.5 1001,-178.5 801,-178.5"/>
<text text-anchor="start" x="809" y="-218.5" font-family="Helvetica,sans-Serif" font-size="10.00">/home/runner/work/cbmc</text>
<text text-anchor="start" x="809" y="-207.5" font-family="Helvetica,sans-Serif" font-size="10.00">&#45;documentation/cbmc&#45;documentation</text>
<text text-anchor="start" x="809" y="-196.5" font-family="Helvetica,sans-Serif" font-size="10.00">/jbmc/src/java_bytecode/java</text>
<text text-anchor="middle" x="901" y="-185.5" font-family="Helvetica,sans-Serif" font-size="10.00">_bytecode_language.h</text>
</a>
</g>
</g>
<!-- Node1&#45;&gt;Node3 -->
<g id="edge2" class="edge">
<title>Node1&#45;&gt;Node3</title>
<path fill="none" stroke="midnightblue" d="M1226.91,-273.04C1163.37,-261.5 1082.03,-246.19 1010,-231 1007.05,-230.38 1004.06,-229.74 1001.05,-229.08"/>
<polygon fill="midnightblue" stroke="midnightblue" points="1226.49,-276.52 1236.95,-274.86 1227.74,-269.63 1226.49,-276.52"/>
</g>
<!-- Node8 -->
<g id="node8" class="node">
<title>Node8</title>
<g id="a_node8"><a xlink:href="java__bytecode__language_8cpp.html" target="_top" xlink:title=" ">
<polygon fill="none" stroke="black" points="0,-89.5 0,-141.5 200,-141.5 200,-89.5 0,-89.5"/>
<text text-anchor="start" x="8" y="-129.5" font-family="Helvetica,sans-Serif" font-size="10.00">/home/runner/work/cbmc</text>
<text text-anchor="start" x="8" y="-118.5" font-family="Helvetica,sans-Serif" font-size="10.00">&#45;documentation/cbmc&#45;documentation</text>
<text text-anchor="start" x="8" y="-107.5" font-family="Helvetica,sans-Serif" font-size="10.00">/jbmc/src/java_bytecode/java</text>
<text text-anchor="middle" x="100" y="-96.5" font-family="Helvetica,sans-Serif" font-size="10.00">_bytecode_language.cpp</text>
</a>
</g>
</g>
<!-- Node1&#45;&gt;Node8 -->
<g id="edge20" class="edge">
<title>Node1&#45;&gt;Node8</title>
<path fill="none" stroke="midnightblue" d="M1226.82,-290.51C1089.29,-286.25 863.41,-272.89 792,-231 767,-216.33 779.33,-192.08 754,-178 647.91,-119.03 329.05,-159.88 209,-142 206.12,-141.57 203.2,-141.1 200.26,-140.61"/>
<polygon fill="midnightblue" stroke="midnightblue" points="1226.88,-294.01 1236.98,-290.81 1227.09,-287.01 1226.88,-294.01"/>
</g>
<!-- Node17 -->
<g id="node17" class="node">
<title>Node17</title>
<g id="a_node17"><a xlink:href="ci__lazy__methods__needed_8cpp.html" target="_top" xlink:title=" ">
<polygon fill="none" stroke="black" points="1019,-178.5 1019,-230.5 1219,-230.5 1219,-178.5 1019,-178.5"/>
<text text-anchor="start" x="1027" y="-218.5" font-family="Helvetica,sans-Serif" font-size="10.00">/home/runner/work/cbmc</text>
<text text-anchor="start" x="1027" y="-207.5" font-family="Helvetica,sans-Serif" font-size="10.00">&#45;documentation/cbmc&#45;documentation</text>
<text text-anchor="start" x="1027" y="-196.5" font-family="Helvetica,sans-Serif" font-size="10.00">/jbmc/src/java_bytecode/ci_lazy</text>
<text text-anchor="middle" x="1119" y="-185.5" font-family="Helvetica,sans-Serif" font-size="10.00">_methods_needed.cpp</text>
</a>
</g>
</g>
<!-- Node1&#45;&gt;Node17 -->
<g id="edge18" class="edge">
<title>Node1&#45;&gt;Node17</title>
<path fill="none" stroke="midnightblue" d="M1264.88,-263.72C1237.98,-252.98 1207.68,-240.89 1181.7,-230.52"/>
<polygon fill="midnightblue" stroke="midnightblue" points="1263.65,-267 1274.24,-267.45 1266.25,-260.5 1263.65,-267"/>
</g>
<!-- Node18 -->
<g id="node18" class="node">
<title>Node18</title>
<g id="a_node18"><a xlink:href="java__bytecode__convert__method_8cpp.html" target="_top" xlink:title=" ">
<polygon fill="none" stroke="black" points="1237,-178.5 1237,-230.5 1437,-230.5 1437,-178.5 1237,-178.5"/>
<text text-anchor="start" x="1245" y="-218.5" font-family="Helvetica,sans-Serif" font-size="10.00">/home/runner/work/cbmc</text>
<text text-anchor="start" x="1245" y="-207.5" font-family="Helvetica,sans-Serif" font-size="10.00">&#45;documentation/cbmc&#45;documentation</text>
<text text-anchor="start" x="1245" y="-196.5" font-family="Helvetica,sans-Serif" font-size="10.00">/jbmc/src/java_bytecode/java</text>
<text text-anchor="middle" x="1337" y="-185.5" font-family="Helvetica,sans-Serif" font-size="10.00">_bytecode_convert_method.cpp</text>
</a>
</g>
</g>
<!-- Node1&#45;&gt;Node18 -->
<g id="edge19" class="edge">
<title>Node1&#45;&gt;Node18</title>
<path fill="none" stroke="midnightblue" d="M1337,-257.19C1337,-248.28 1337,-238.9 1337,-230.61"/>
<polygon fill="midnightblue" stroke="midnightblue" points="1333.5,-257.34 1337,-267.34 1340.5,-257.34 1333.5,-257.34"/>
</g>
<!-- Node19 -->
<g id="node19" class="node">
<title>Node19</title>
<g id="a_node19"><a xlink:href="java__object__factory_8cpp.html" target="_top" xlink:title=" ">
<polygon fill="none" stroke="black" points="1455,-178.5 1455,-230.5 1655,-230.5 1655,-178.5 1455,-178.5"/>
<text text-anchor="start" x="1463" y="-218.5" font-family="Helvetica,sans-Serif" font-size="10.00">/home/runner/work/cbmc</text>
<text text-anchor="start" x="1463" y="-207.5" font-family="Helvetica,sans-Serif" font-size="10.00">&#45;documentation/cbmc&#45;documentation</text>
<text text-anchor="start" x="1463" y="-196.5" font-family="Helvetica,sans-Serif" font-size="10.00">/jbmc/src/java_bytecode/java</text>
<text text-anchor="middle" x="1555" y="-185.5" font-family="Helvetica,sans-Serif" font-size="10.00">_object_factory.cpp</text>
</a>
</g>
</g>
<!-- Node1&#45;&gt;Node19 -->
<g id="edge21" class="edge">
<title>Node1&#45;&gt;Node19</title>
<path fill="none" stroke="midnightblue" d="M1409.12,-263.72C1436.02,-252.98 1466.32,-240.89 1492.3,-230.52"/>
<polygon fill="midnightblue" stroke="midnightblue" points="1407.75,-260.5 1399.76,-267.45 1410.35,-267 1407.75,-260.5"/>
</g>
<!-- Node20 -->
<g id="node20" class="node">
<title>Node20</title>
<g id="a_node20"><a xlink:href="java__static__initializers_8cpp.html" target="_top" xlink:title=" ">
<polygon fill="none" stroke="black" points="1673,-178.5 1673,-230.5 1873,-230.5 1873,-178.5 1673,-178.5"/>
<text text-anchor="start" x="1681" y="-218.5" font-family="Helvetica,sans-Serif" font-size="10.00">/home/runner/work/cbmc</text>
<text text-anchor="start" x="1681" y="-207.5" font-family="Helvetica,sans-Serif" font-size="10.00">&#45;documentation/cbmc&#45;documentation</text>
<text text-anchor="start" x="1681" y="-196.5" font-family="Helvetica,sans-Serif" font-size="10.00">/jbmc/src/java_bytecode/java</text>
<text text-anchor="middle" x="1773" y="-185.5" font-family="Helvetica,sans-Serif" font-size="10.00">_static_initializers.cpp</text>
</a>
</g>
</g>
<!-- Node1&#45;&gt;Node20 -->
<g id="edge22" class="edge">
<title>Node1&#45;&gt;Node20</title>
<path fill="none" stroke="midnightblue" d="M1447.09,-273.04C1510.63,-261.5 1591.97,-246.19 1664,-231 1666.95,-230.38 1669.94,-229.74 1672.95,-229.08"/>
<polygon fill="midnightblue" stroke="midnightblue" points="1446.26,-269.63 1437.05,-274.86 1447.51,-276.52 1446.26,-269.63"/>
</g>
<!-- Node21 -->
<g id="node21" class="node">
<title>Node21</title>
<g id="a_node21"><a xlink:href="lambda__synthesis_8cpp.html" target="_top" xlink:title=" ">
<polygon fill="none" stroke="black" points="1891,-178.5 1891,-230.5 2091,-230.5 2091,-178.5 1891,-178.5"/>
<text text-anchor="start" x="1899" y="-218.5" font-family="Helvetica,sans-Serif" font-size="10.00">/home/runner/work/cbmc</text>
<text text-anchor="start" x="1899" y="-207.5" font-family="Helvetica,sans-Serif" font-size="10.00">&#45;documentation/cbmc&#45;documentation</text>
<text text-anchor="start" x="1899" y="-196.5" font-family="Helvetica,sans-Serif" font-size="10.00">/jbmc/src/java_bytecode/lambda</text>
<text text-anchor="middle" x="1991" y="-185.5" font-family="Helvetica,sans-Serif" font-size="10.00">_synthesis.cpp</text>
</a>
</g>
</g>
<!-- Node1&#45;&gt;Node21 -->
<g id="edge23" class="edge">
<title>Node1&#45;&gt;Node21</title>
<path fill="none" stroke="midnightblue" d="M1447.35,-283.88C1557.83,-274.35 1732.44,-256.84 1882,-231 1884.87,-230.5 1887.78,-229.98 1890.72,-229.43"/>
<polygon fill="midnightblue" stroke="midnightblue" points="1446.86,-280.41 1437.2,-284.75 1447.46,-287.38 1446.86,-280.41"/>
</g>
<!-- Node22 -->
<g id="node22" class="node">
<title>Node22</title>
<g id="a_node22"><a xlink:href="lift__clinit__calls_8cpp.html" target="_top" xlink:title=" ">
<polygon fill="none" stroke="black" points="2109,-178.5 2109,-230.5 2309,-230.5 2309,-178.5 2109,-178.5"/>
<text text-anchor="start" x="2117" y="-218.5" font-family="Helvetica,sans-Serif" font-size="10.00">/home/runner/work/cbmc</text>
<text text-anchor="start" x="2117" y="-207.5" font-family="Helvetica,sans-Serif" font-size="10.00">&#45;documentation/cbmc&#45;documentation</text>
<text text-anchor="start" x="2117" y="-196.5" font-family="Helvetica,sans-Serif" font-size="10.00">/jbmc/src/java_bytecode/lift</text>
<text text-anchor="middle" x="2209" y="-185.5" font-family="Helvetica,sans-Serif" font-size="10.00">_clinit_calls.cpp</text>
</a>
</g>
</g>
<!-- Node1&#45;&gt;Node22 -->
<g id="edge24" class="edge">
<title>Node1&#45;&gt;Node22</title>
<path fill="none" stroke="midnightblue" d="M1447.3,-288.78C1596.21,-282.58 1869.45,-267.05 2100,-231 2102.88,-230.55 2105.8,-230.06 2108.74,-229.55"/>
<polygon fill="midnightblue" stroke="midnightblue" points="1447.09,-285.29 1437.24,-289.19 1447.37,-292.28 1447.09,-285.29"/>
</g>
<!-- Node4 -->
<g id="node4" class="node">
<title>Node4</title>
<g id="a_node4"><a xlink:href="janalyzer__parse__options_8h.html" target="_top" xlink:title=" ">
<polygon fill="none" stroke="black" points="218,-89.5 218,-141.5 418,-141.5 418,-89.5 218,-89.5"/>
<text text-anchor="start" x="226" y="-129.5" font-family="Helvetica,sans-Serif" font-size="10.00">/home/runner/work/cbmc</text>
<text text-anchor="start" x="226" y="-118.5" font-family="Helvetica,sans-Serif" font-size="10.00">&#45;documentation/cbmc&#45;documentation</text>
<text text-anchor="start" x="226" y="-107.5" font-family="Helvetica,sans-Serif" font-size="10.00">/jbmc/src/janalyzer/janalyzer</text>
<text text-anchor="middle" x="318" y="-96.5" font-family="Helvetica,sans-Serif" font-size="10.00">_parse_options.h</text>
</a>
</g>
</g>
<!-- Node3&#45;&gt;Node4 -->
<g id="edge3" class="edge">
<title>Node3&#45;&gt;Node4</title>
<path fill="none" stroke="midnightblue" d="M790.82,-178.63C789.54,-178.42 788.27,-178.21 787,-178 630.45,-152.65 588.55,-167.35 432,-142 427.5,-141.27 422.9,-140.47 418.27,-139.62"/>
<polygon fill="midnightblue" stroke="midnightblue" points="790.27,-182.09 800.73,-180.38 791.49,-175.2 790.27,-182.09"/>
</g>
<!-- Node6 -->
<g id="node6" class="node">
<title>Node6</title>
<g id="a_node6"><a xlink:href="janalyzer__parse__options_8cpp.html" target="_top" xlink:title=" ">
<polygon fill="none" stroke="black" points="346,-0.5 346,-52.5 546,-52.5 546,-0.5 346,-0.5"/>
<text text-anchor="start" x="354" y="-40.5" font-family="Helvetica,sans-Serif" font-size="10.00">/home/runner/work/cbmc</text>
<text text-anchor="start" x="354" y="-29.5" font-family="Helvetica,sans-Serif" font-size="10.00">&#45;documentation/cbmc&#45;documentation</text>
<text text-anchor="start" x="354" y="-18.5" font-family="Helvetica,sans-Serif" font-size="10.00">/jbmc/src/janalyzer/janalyzer</text>
<text text-anchor="middle" x="446" y="-7.5" font-family="Helvetica,sans-Serif" font-size="10.00">_parse_options.cpp</text>
</a>
</g>
</g>
<!-- Node3&#45;&gt;Node6 -->
<g id="edge6" class="edge">
<title>Node3&#45;&gt;Node6</title>
<path fill="none" stroke="midnightblue" d="M790.82,-178.65C789.54,-178.43 788.27,-178.21 787,-178 715.98,-166.12 517.25,-191.54 465,-142 441.17,-119.4 439.98,-79.16 442.26,-52.91"/>
<polygon fill="midnightblue" stroke="midnightblue" points="790.26,-182.11 800.72,-180.43 791.5,-175.22 790.26,-182.11"/>
</g>
<!-- Node7 -->
<g id="node7" class="node">
<title>Node7</title>
<g id="a_node7"><a xlink:href="ci__lazy__methods_8cpp.html" target="_top" xlink:title=" ">
<polygon fill="none" stroke="black" points="474,-89.5 474,-141.5 674,-141.5 674,-89.5 474,-89.5"/>
<text text-anchor="start" x="482" y="-129.5" font-family="Helvetica,sans-Serif" font-size="10.00">/home/runner/work/cbmc</text>
<text text-anchor="start" x="482" y="-118.5" font-family="Helvetica,sans-Serif" font-size="10.00">&#45;documentation/cbmc&#45;documentation</text>
<text text-anchor="start" x="482" y="-107.5" font-family="Helvetica,sans-Serif" font-size="10.00">/jbmc/src/java_bytecode/ci_lazy</text>
<text text-anchor="middle" x="574" y="-96.5" font-family="Helvetica,sans-Serif" font-size="10.00">_methods.cpp</text>
</a>
</g>
</g>
<!-- Node3&#45;&gt;Node7 -->
<g id="edge7" class="edge">
<title>Node3&#45;&gt;Node7</title>
<path fill="none" stroke="midnightblue" d="M797.03,-175.84C755.65,-164.83 708.38,-152.25 668.04,-141.52"/>
<polygon fill="midnightblue" stroke="midnightblue" points="796.29,-179.26 806.86,-178.45 798.09,-172.5 796.29,-179.26"/>
</g>
<!-- Node3&#45;&gt;Node8 -->
<g id="edge8" class="edge">
<title>Node3&#45;&gt;Node8</title>
<path fill="none" stroke="midnightblue" d="M790.83,-178.56C789.55,-178.37 788.27,-178.18 787,-178 532.17,-141.79 463.65,-179.45 209,-142 206.12,-141.58 203.2,-141.11 200.25,-140.62"/>
<polygon fill="midnightblue" stroke="midnightblue" points="790.33,-182.03 800.76,-180.16 791.45,-175.11 790.33,-182.03"/>
</g>
<!-- Node9 -->
<g id="node9" class="node">
<title>Node9</title>
<g id="a_node9"><a xlink:href="java__entry__point_8cpp.html" target="_top" xlink:title=" ">
<polygon fill="none" stroke="black" points="692,-89.5 692,-141.5 892,-141.5 892,-89.5 692,-89.5"/>
<text text-anchor="start" x="700" y="-129.5" font-family="Helvetica,sans-Serif" font-size="10.00">/home/runner/work/cbmc</text>
<text text-anchor="start" x="700" y="-118.5" font-family="Helvetica,sans-Serif" font-size="10.00">&#45;documentation/cbmc&#45;documentation</text>
<text text-anchor="start" x="700" y="-107.5" font-family="Helvetica,sans-Serif" font-size="10.00">/jbmc/src/java_bytecode/java</text>
<text text-anchor="middle" x="792" y="-96.5" font-family="Helvetica,sans-Serif" font-size="10.00">_entry_point.cpp</text>
</a>
</g>
</g>
<!-- Node3&#45;&gt;Node9 -->
<g id="edge9" class="edge">
<title>Node3&#45;&gt;Node9</title>
<path fill="none" stroke="midnightblue" d="M861.45,-171.93C848.95,-161.96 835.31,-151.07 823.46,-141.61"/>
<polygon fill="midnightblue" stroke="midnightblue" points="859.47,-174.83 869.47,-178.34 863.84,-169.36 859.47,-174.83"/>
</g>
<!-- Node10 -->
<g id="node10" class="node">
<title>Node10</title>
<g id="a_node10"><a xlink:href="lazy__goto__model_8cpp.html" target="_top" xlink:title="Author: Diffblue Ltd.">
<polygon fill="none" stroke="black" points="910,-89.5 910,-141.5 1110,-141.5 1110,-89.5 910,-89.5"/>
<text text-anchor="start" x="918" y="-129.5" font-family="Helvetica,sans-Serif" font-size="10.00">/home/runner/work/cbmc</text>
<text text-anchor="start" x="918" y="-118.5" font-family="Helvetica,sans-Serif" font-size="10.00">&#45;documentation/cbmc&#45;documentation</text>
<text text-anchor="start" x="918" y="-107.5" font-family="Helvetica,sans-Serif" font-size="10.00">/jbmc/src/java_bytecode/lazy</text>
<text text-anchor="middle" x="1010" y="-96.5" font-family="Helvetica,sans-Serif" font-size="10.00">_goto_model.cpp</text>
</a>
</g>
</g>
<!-- Node3&#45;&gt;Node10 -->
<g id="edge10" class="edge">
<title>Node3&#45;&gt;Node10</title>
<path fill="none" stroke="midnightblue" d="M940.55,-171.93C953.05,-161.96 966.69,-151.07 978.54,-141.61"/>
<polygon fill="midnightblue" stroke="midnightblue" points="938.16,-169.36 932.53,-178.34 942.53,-174.83 938.16,-169.36"/>
</g>
<!-- Node11 -->
<g id="node11" class="node">
<title>Node11</title>
<g id="a_node11"><a xlink:href="jbmc__parse__options_8h.html" target="_top" xlink:title=" ">
<polygon fill="none" stroke="black" points="1128,-95 1128,-136 1328,-136 1328,-95 1128,-95"/>
<text text-anchor="start" x="1136" y="-124" font-family="Helvetica,sans-Serif" font-size="10.00">/home/runner/work/cbmc</text>
<text text-anchor="start" x="1136" y="-113" font-family="Helvetica,sans-Serif" font-size="10.00">&#45;documentation/cbmc&#45;documentation</text>
<text text-anchor="middle" x="1228" y="-102" font-family="Helvetica,sans-Serif" font-size="10.00">/jbmc/src/jbmc/jbmc_parse_options.h</text>
</a>
</g>
</g>
<!-- Node3&#45;&gt;Node11 -->
<g id="edge11" class="edge">
<title>Node3&#45;&gt;Node11</title>
<path fill="none" stroke="midnightblue" d="M1005.07,-175.81C1053.68,-162.88 1110.4,-147.79 1154.47,-136.06"/>
<polygon fill="midnightblue" stroke="midnightblue" points="1003.91,-172.5 995.14,-178.45 1005.71,-179.26 1003.91,-172.5"/>
</g>
<!-- Node13 -->
<g id="node13" class="node">
<title>Node13</title>
<g id="a_node13"><a xlink:href="jbmc__parse__options_8cpp.html" target="_top" xlink:title=" ">
<polygon fill="none" stroke="black" points="1251.5,-6 1251.5,-47 1460.5,-47 1460.5,-6 1251.5,-6"/>
<text text-anchor="start" x="1259.5" y="-35" font-family="Helvetica,sans-Serif" font-size="10.00">/home/runner/work/cbmc</text>
<text text-anchor="start" x="1259.5" y="-24" font-family="Helvetica,sans-Serif" font-size="10.00">&#45;documentation/cbmc&#45;documentation</text>
<text text-anchor="middle" x="1356" y="-13" font-family="Helvetica,sans-Serif" font-size="10.00">/jbmc/src/jbmc/jbmc_parse_options.cpp</text>
</a>
</g>
</g>
<!-- Node3&#45;&gt;Node13 -->
<g id="edge14" class="edge">
<title>Node3&#45;&gt;Node13</title>
<path fill="none" stroke="midnightblue" d="M1011.29,-178.11C1097.6,-167.61 1285.98,-190.29 1337,-142 1362.61,-117.76 1362.08,-73.15 1359.19,-47.35"/>
<polygon fill="midnightblue" stroke="midnightblue" points="1010.68,-174.66 1001.28,-179.56 1011.68,-181.59 1010.68,-174.66"/>
</g>
<!-- Node14 -->
<g id="node14" class="node">
<title>Node14</title>
<g id="a_node14"><a xlink:href="jdiff__languages_8cpp.html" target="_top" xlink:title=" ">
<polygon fill="none" stroke="black" points="1384,-95 1384,-136 1584,-136 1584,-95 1384,-95"/>
<text text-anchor="start" x="1392" y="-124" font-family="Helvetica,sans-Serif" font-size="10.00">/home/runner/work/cbmc</text>
<text text-anchor="start" x="1392" y="-113" font-family="Helvetica,sans-Serif" font-size="10.00">&#45;documentation/cbmc&#45;documentation</text>
<text text-anchor="middle" x="1484" y="-102" font-family="Helvetica,sans-Serif" font-size="10.00">/jbmc/src/jdiff/jdiff_languages.cpp</text>
</a>
</g>
</g>
<!-- Node3&#45;&gt;Node14 -->
<g id="edge15" class="edge">
<title>Node3&#45;&gt;Node14</title>
<path fill="none" stroke="midnightblue" d="M1011.42,-177.86C1170.42,-152.27 1214.51,-167.07 1370,-142 1380.51,-140.31 1391.51,-138.23 1402.34,-136.01"/>
<polygon fill="midnightblue" stroke="midnightblue" points="1010.58,-174.45 1001.28,-179.52 1011.71,-181.36 1010.58,-174.45"/>
</g>
<!-- Node15 -->
<g id="node15" class="node">
<title>Node15</title>
<g id="a_node15"><a xlink:href="jdiff__parse__options_8cpp.html" target="_top" xlink:title=" ">
<polygon fill="none" stroke="black" points="1602,-95 1602,-136 1802,-136 1802,-95 1602,-95"/>
<text text-anchor="start" x="1610" y="-124" font-family="Helvetica,sans-Serif" font-size="10.00">/home/runner/work/cbmc</text>
<text text-anchor="start" x="1610" y="-113" font-family="Helvetica,sans-Serif" font-size="10.00">&#45;documentation/cbmc&#45;documentation</text>
<text text-anchor="middle" x="1702" y="-102" font-family="Helvetica,sans-Serif" font-size="10.00">/jbmc/src/jdiff/jdiff_parse_options.cpp</text>
</a>
</g>
</g>
<!-- Node3&#45;&gt;Node15 -->
<g id="edge16" class="edge">
<title>Node3&#45;&gt;Node15</title>
<path fill="none" stroke="midnightblue" d="M1011.27,-177.93C1268.64,-141.29 1339.41,-179.22 1593,-142 1603.67,-140.43 1614.84,-138.35 1625.79,-136.04"/>
<polygon fill="midnightblue" stroke="midnightblue" points="1010.65,-174.48 1001.25,-179.38 1011.65,-181.41 1010.65,-174.48"/>
</g>
<!-- Node16 -->
<g id="node16" class="node">
<title>Node16</title>
<g id="a_node16"><a xlink:href="load__java__class_8cpp.html" target="_top" xlink:title=" ">
<polygon fill="none" stroke="black" points="1820,-89.5 1820,-141.5 2020,-141.5 2020,-89.5 1820,-89.5"/>
<text text-anchor="start" x="1828" y="-129.5" font-family="Helvetica,sans-Serif" font-size="10.00">/home/runner/work/cbmc</text>
<text text-anchor="start" x="1828" y="-118.5" font-family="Helvetica,sans-Serif" font-size="10.00">&#45;documentation/cbmc&#45;documentation</text>
<text text-anchor="start" x="1828" y="-107.5" font-family="Helvetica,sans-Serif" font-size="10.00">/jbmc/unit/java&#45;testing&#45;utils</text>
<text text-anchor="middle" x="1920" y="-96.5" font-family="Helvetica,sans-Serif" font-size="10.00">/load_java_class.cpp</text>
</a>
</g>
</g>
<!-- Node3&#45;&gt;Node16 -->
<g id="edge17" class="edge">
<title>Node3&#45;&gt;Node16</title>
<path fill="none" stroke="midnightblue" d="M1011.24,-177.95C1364.79,-130.34 1461.27,-190.34 1811,-142 1813.89,-141.6 1816.81,-141.16 1819.76,-140.69"/>
<polygon fill="midnightblue" stroke="midnightblue" points="1010.68,-174.49 1001.24,-179.31 1011.63,-181.43 1010.68,-174.49"/>
</g>
<!-- Node5 -->
<g id="node5" class="node">
<title>Node5</title>
<g id="a_node5"><a xlink:href="janalyzer__main_8cpp.html" target="_top" xlink:title=" ">
<polygon fill="none" stroke="black" points="120.5,-6 120.5,-47 327.5,-47 327.5,-6 120.5,-6"/>
<text text-anchor="start" x="128.5" y="-35" font-family="Helvetica,sans-Serif" font-size="10.00">/home/runner/work/cbmc</text>
<text text-anchor="start" x="128.5" y="-24" font-family="Helvetica,sans-Serif" font-size="10.00">&#45;documentation/cbmc&#45;documentation</text>
<text text-anchor="middle" x="224" y="-13" font-family="Helvetica,sans-Serif" font-size="10.00">/jbmc/src/janalyzer/janalyzer_main.cpp</text>
</a>
</g>
</g>
<!-- Node4&#45;&gt;Node5 -->
<g id="edge4" class="edge">
<title>Node4&#45;&gt;Node5</title>
<path fill="none" stroke="midnightblue" d="M283.44,-82.51C270.61,-70.64 256.44,-57.53 245.16,-47.08"/>
<polygon fill="midnightblue" stroke="midnightblue" points="281.09,-85.11 290.81,-89.34 285.85,-79.97 281.09,-85.11"/>
</g>
<!-- Node4&#45;&gt;Node6 -->
<g id="edge5" class="edge">
<title>Node4&#45;&gt;Node6</title>
<path fill="none" stroke="midnightblue" d="M363.6,-83.5C378.51,-73.37 394.87,-62.25 409.06,-52.61"/>
<polygon fill="midnightblue" stroke="midnightblue" points="361.33,-80.82 355.02,-89.34 365.26,-86.61 361.33,-80.82"/>
</g>
<!-- Node12 -->
<g id="node12" class="node">
<title>Node12</title>
<g id="a_node12"><a xlink:href="jbmc__main_8cpp.html" target="_top" xlink:title=" ">
<polygon fill="none" stroke="black" points="1033,-6 1033,-47 1233,-47 1233,-6 1033,-6"/>
<text text-anchor="start" x="1041" y="-35" font-family="Helvetica,sans-Serif" font-size="10.00">/home/runner/work/cbmc</text>
<text text-anchor="start" x="1041" y="-24" font-family="Helvetica,sans-Serif" font-size="10.00">&#45;documentation/cbmc&#45;documentation</text>
<text text-anchor="middle" x="1133" y="-13" font-family="Helvetica,sans-Serif" font-size="10.00">/jbmc/src/jbmc/jbmc_main.cpp</text>
</a>
</g>
</g>
<!-- Node11&#45;&gt;Node12 -->
<g id="edge12" class="edge">
<title>Node11&#45;&gt;Node12</title>
<path fill="none" stroke="midnightblue" d="M1198.8,-87.76C1184.5,-74.66 1167.57,-59.16 1154.47,-47.16"/>
<polygon fill="midnightblue" stroke="midnightblue" points="1196.7,-90.59 1206.44,-94.76 1201.43,-85.42 1196.7,-90.59"/>
</g>
<!-- Node11&#45;&gt;Node13 -->
<g id="edge13" class="edge">
<title>Node11&#45;&gt;Node13</title>
<path fill="none" stroke="midnightblue" d="M1265.15,-89.25C1284.82,-75.88 1308.62,-59.7 1326.93,-47.26"/>
<polygon fill="midnightblue" stroke="midnightblue" points="1263.03,-86.46 1256.73,-94.98 1266.96,-92.25 1263.03,-86.46"/>
</g>
</g>
</svg>
