<?xml version="1.0" encoding="UTF-8" standalone="no"?>
<!DOCTYPE svg PUBLIC "-//W3C//DTD SVG 1.1//EN"
 "http://www.w3.org/Graphics/SVG/1.1/DTD/svg11.dtd">
<!-- Generated by graphviz version 2.43.0 (0)
 -->
<!-- Title: /home/runner/work/cbmc&#45;documentation/cbmc&#45;documentation/src/json/json_parser.h Pages: 1 -->
<svg width="2170pt" height="139pt"
 viewBox="0.00 0.00 2170.00 139.00" xmlns="http://www.w3.org/2000/svg" xmlns:xlink="http://www.w3.org/1999/xlink">
<g id="graph0" class="graph" transform="scale(1 1) rotate(0) translate(4 135)">
<title>/home/runner/work/cbmc&#45;documentation/cbmc&#45;documentation/src/json/json_parser.h</title>
<!-- Node1 -->
<g id="node1" class="node">
<title>Node1</title>
<g id="a_node1"><a xlink:title=" ">
<polygon fill="#bfbfbf" stroke="black" points="981,-89.5 981,-130.5 1181,-130.5 1181,-89.5 981,-89.5"/>
<text text-anchor="start" x="989" y="-118.5" font-family="Helvetica,sans-Serif" font-size="10.00">/home/runner/work/cbmc</text>
<text text-anchor="start" x="989" y="-107.5" font-family="Helvetica,sans-Serif" font-size="10.00">&#45;documentation/cbmc&#45;documentation</text>
<text text-anchor="middle" x="1081" y="-96.5" font-family="Helvetica,sans-Serif" font-size="10.00">/src/json/json_parser.h</text>
</a>
</g>
</g>
<!-- Node2 -->
<g id="node2" class="node">
<title>Node2</title>
<g id="a_node2"><a xlink:href="crangler__parse__options_8cpp.html" target="_top" xlink:title=" ">
<polygon fill="none" stroke="black" points="0,-0.5 0,-52.5 200,-52.5 200,-0.5 0,-0.5"/>
<text text-anchor="start" x="8" y="-40.5" font-family="Helvetica,sans-Serif" font-size="10.00">/home/runner/work/cbmc</text>
<text text-anchor="start" x="8" y="-29.5" font-family="Helvetica,sans-Serif" font-size="10.00">&#45;documentation/cbmc&#45;documentation</text>
<text text-anchor="start" x="8" y="-18.5" font-family="Helvetica,sans-Serif" font-size="10.00">/src/crangler/crangler_parse</text>
<text text-anchor="middle" x="100" y="-7.5" font-family="Helvetica,sans-Serif" font-size="10.00">_options.cpp</text>
</a>
</g>
</g>
<!-- Node1&#45;&gt;Node2 -->
<g id="edge1" class="edge">
<title>Node1&#45;&gt;Node2</title>
<path fill="none" stroke="midnightblue" d="M970.49,-107.75C804.36,-104.57 480.74,-93.23 209,-53 206.12,-52.57 203.2,-52.11 200.25,-51.61"/>
<polygon fill="midnightblue" stroke="midnightblue" points="970.65,-111.26 980.72,-107.94 970.78,-104.26 970.65,-111.26"/>
</g>
<!-- Node3 -->
<g id="node3" class="node">
<title>Node3</title>
<g id="a_node3"><a xlink:href="taint__parser_8cpp.html" target="_top" xlink:title=" ">
<polygon fill="none" stroke="black" points="218,-6 218,-47 418,-47 418,-6 218,-6"/>
<text text-anchor="start" x="226" y="-35" font-family="Helvetica,sans-Serif" font-size="10.00">/home/runner/work/cbmc</text>
<text text-anchor="start" x="226" y="-24" font-family="Helvetica,sans-Serif" font-size="10.00">&#45;documentation/cbmc&#45;documentation</text>
<text text-anchor="middle" x="318" y="-13" font-family="Helvetica,sans-Serif" font-size="10.00">/src/goto&#45;analyzer/taint_parser.cpp</text>
</a>
</g>
</g>
<!-- Node1&#45;&gt;Node3 -->
<g id="edge2" class="edge">
<title>Node1&#45;&gt;Node3</title>
<path fill="none" stroke="midnightblue" d="M970.73,-104.42C840.25,-97.88 616.76,-83.16 427,-53 416.73,-51.37 405.99,-49.3 395.43,-47.06"/>
<polygon fill="midnightblue" stroke="midnightblue" points="970.58,-107.92 980.74,-104.92 970.92,-100.93 970.58,-107.92"/>
</g>
<!-- Node4 -->
<g id="node4" class="node">
<title>Node4</title>
<g id="a_node4"><a xlink:href="linker__script__merge_8cpp.html" target="_top" xlink:title=" ">
<polygon fill="none" stroke="black" points="436,-6 436,-47 636,-47 636,-6 436,-6"/>
<text text-anchor="start" x="444" y="-35" font-family="Helvetica,sans-Serif" font-size="10.00">/home/runner/work/cbmc</text>
<text text-anchor="start" x="444" y="-24" font-family="Helvetica,sans-Serif" font-size="10.00">&#45;documentation/cbmc&#45;documentation</text>
<text text-anchor="middle" x="536" y="-13" font-family="Helvetica,sans-Serif" font-size="10.00">/src/goto&#45;cc/linker_script_merge.cpp</text>
</a>
</g>
</g>
<!-- Node1&#45;&gt;Node4 -->
<g id="edge3" class="edge">
<title>Node1&#45;&gt;Node4</title>
<path fill="none" stroke="midnightblue" d="M970.94,-98.01C882.5,-88.42 755.28,-72.93 645,-53 635.34,-51.25 625.25,-49.21 615.28,-47.04"/>
<polygon fill="midnightblue" stroke="midnightblue" points="970.67,-101.5 980.99,-99.09 971.42,-94.54 970.67,-101.5"/>
</g>
<!-- Node5 -->
<g id="node5" class="node">
<title>Node5</title>
<g id="a_node5"><a xlink:href="memory__snapshot__harness__generator_8cpp.html" target="_top" xlink:title=" ">
<polygon fill="none" stroke="black" points="654,-0.5 654,-52.5 854,-52.5 854,-0.5 654,-0.5"/>
<text text-anchor="start" x="662" y="-40.5" font-family="Helvetica,sans-Serif" font-size="10.00">/home/runner/work/cbmc</text>
<text text-anchor="start" x="662" y="-29.5" font-family="Helvetica,sans-Serif" font-size="10.00">&#45;documentation/cbmc&#45;documentation</text>
<text text-anchor="start" x="662" y="-18.5" font-family="Helvetica,sans-Serif" font-size="10.00">/src/goto&#45;harness/memory_snapshot</text>
<text text-anchor="middle" x="754" y="-7.5" font-family="Helvetica,sans-Serif" font-size="10.00">_harness_generator.cpp</text>
</a>
</g>
</g>
<!-- Node1&#45;&gt;Node5 -->
<g id="edge4" class="edge">
<title>Node1&#45;&gt;Node5</title>
<path fill="none" stroke="midnightblue" d="M992.83,-87.03C949.99,-76.35 898.31,-63.47 854.01,-52.43"/>
<polygon fill="midnightblue" stroke="midnightblue" points="992.13,-90.46 1002.68,-89.48 993.82,-83.66 992.13,-90.46"/>
</g>
<!-- Node6 -->
<g id="node6" class="node">
<title>Node6</title>
<g id="a_node6"><a xlink:href="restrict__function__pointers_8cpp.html" target="_top" xlink:title=" ">
<polygon fill="none" stroke="black" points="872,-0.5 872,-52.5 1072,-52.5 1072,-0.5 872,-0.5"/>
<text text-anchor="start" x="880" y="-40.5" font-family="Helvetica,sans-Serif" font-size="10.00">/home/runner/work/cbmc</text>
<text text-anchor="start" x="880" y="-29.5" font-family="Helvetica,sans-Serif" font-size="10.00">&#45;documentation/cbmc&#45;documentation</text>
<text text-anchor="start" x="880" y="-18.5" font-family="Helvetica,sans-Serif" font-size="10.00">/src/goto&#45;programs/restrict_function</text>
<text text-anchor="middle" x="972" y="-7.5" font-family="Helvetica,sans-Serif" font-size="10.00">_pointers.cpp</text>
</a>
</g>
</g>
<!-- Node1&#45;&gt;Node6 -->
<g id="edge5" class="edge">
<title>Node1&#45;&gt;Node6</title>
<path fill="none" stroke="midnightblue" d="M1046.61,-83.29C1033.57,-73.53 1018.73,-62.44 1005.74,-52.73"/>
<polygon fill="midnightblue" stroke="midnightblue" points="1044.79,-86.29 1054.89,-89.48 1048.98,-80.69 1044.79,-86.29"/>
</g>
<!-- Node7 -->
<g id="node7" class="node">
<title>Node7</title>
<g id="a_node7"><a xlink:href="json__interface_8cpp.html" target="_top" xlink:title=" ">
<polygon fill="none" stroke="black" points="1090,-6 1090,-47 1290,-47 1290,-6 1090,-6"/>
<text text-anchor="start" x="1098" y="-35" font-family="Helvetica,sans-Serif" font-size="10.00">/home/runner/work/cbmc</text>
<text text-anchor="start" x="1098" y="-24" font-family="Helvetica,sans-Serif" font-size="10.00">&#45;documentation/cbmc&#45;documentation</text>
<text text-anchor="middle" x="1190" y="-13" font-family="Helvetica,sans-Serif" font-size="10.00">/src/json/json_interface.cpp</text>
</a>
</g>
</g>
<!-- Node1&#45;&gt;Node7 -->
<g id="edge6" class="edge">
<title>Node1&#45;&gt;Node7</title>
<path fill="none" stroke="midnightblue" d="M1115.48,-83.22C1131.09,-71.55 1149.24,-57.97 1163.73,-47.14"/>
<polygon fill="midnightblue" stroke="midnightblue" points="1113.02,-80.69 1107.11,-89.48 1117.21,-86.29 1113.02,-80.69"/>
</g>
<!-- Node8 -->
<g id="node8" class="node">
<title>Node8</title>
<g id="a_node8"><a xlink:href="json__parser_8cpp.html" target="_top" xlink:title=" ">
<polygon fill="none" stroke="black" points="1308,-6 1308,-47 1508,-47 1508,-6 1308,-6"/>
<text text-anchor="start" x="1316" y="-35" font-family="Helvetica,sans-Serif" font-size="10.00">/home/runner/work/cbmc</text>
<text text-anchor="start" x="1316" y="-24" font-family="Helvetica,sans-Serif" font-size="10.00">&#45;documentation/cbmc&#45;documentation</text>
<text text-anchor="middle" x="1408" y="-13" font-family="Helvetica,sans-Serif" font-size="10.00">/src/json/json_parser.cpp</text>
</a>
</g>
</g>
<!-- Node1&#45;&gt;Node8 -->
<g id="edge7" class="edge">
<title>Node1&#45;&gt;Node8</title>
<path fill="none" stroke="midnightblue" d="M1169.17,-87.02C1219.25,-74.54 1281.4,-59.05 1329.75,-47"/>
<polygon fill="midnightblue" stroke="midnightblue" points="1168.18,-83.66 1159.32,-89.48 1169.87,-90.46 1168.18,-83.66"/>
</g>
<!-- Node9 -->
<g id="node9" class="node">
<title>Node9</title>
<g id="a_node9"><a xlink:href="json__symtab__language_8cpp.html" target="_top" xlink:title=" ">
<polygon fill="none" stroke="black" points="1526,-0.5 1526,-52.5 1726,-52.5 1726,-0.5 1526,-0.5"/>
<text text-anchor="start" x="1534" y="-40.5" font-family="Helvetica,sans-Serif" font-size="10.00">/home/runner/work/cbmc</text>
<text text-anchor="start" x="1534" y="-29.5" font-family="Helvetica,sans-Serif" font-size="10.00">&#45;documentation/cbmc&#45;documentation</text>
<text text-anchor="start" x="1534" y="-18.5" font-family="Helvetica,sans-Serif" font-size="10.00">/src/json&#45;symtab&#45;language/json</text>
<text text-anchor="middle" x="1626" y="-7.5" font-family="Helvetica,sans-Serif" font-size="10.00">_symtab_language.cpp</text>
</a>
</g>
</g>
<!-- Node1&#45;&gt;Node9 -->
<g id="edge8" class="edge">
<title>Node1&#45;&gt;Node9</title>
<path fill="none" stroke="midnightblue" d="M1191.06,-98.01C1279.5,-88.42 1406.72,-72.93 1517,-53 1519.96,-52.46 1522.97,-51.9 1526,-51.31"/>
<polygon fill="midnightblue" stroke="midnightblue" points="1190.58,-94.54 1181.01,-99.09 1191.33,-101.5 1190.58,-94.54"/>
</g>
<!-- Node10 -->
<g id="node10" class="node">
<title>Node10</title>
<g id="a_node10"><a xlink:href="java__bytecode__language_8cpp.html" target="_top" xlink:title=" ">
<polygon fill="none" stroke="black" points="1744,-0.5 1744,-52.5 1944,-52.5 1944,-0.5 1744,-0.5"/>
<text text-anchor="start" x="1752" y="-40.5" font-family="Helvetica,sans-Serif" font-size="10.00">/home/runner/work/cbmc</text>
<text text-anchor="start" x="1752" y="-29.5" font-family="Helvetica,sans-Serif" font-size="10.00">&#45;documentation/cbmc&#45;documentation</text>
<text text-anchor="start" x="1752" y="-18.5" font-family="Helvetica,sans-Serif" font-size="10.00">/jbmc/src/java_bytecode/java</text>
<text text-anchor="middle" x="1844" y="-7.5" font-family="Helvetica,sans-Serif" font-size="10.00">_bytecode_language.cpp</text>
</a>
</g>
</g>
<!-- Node1&#45;&gt;Node10 -->
<g id="edge9" class="edge">
<title>Node1&#45;&gt;Node10</title>
<path fill="none" stroke="midnightblue" d="M1191.27,-104.42C1321.75,-97.88 1545.24,-83.16 1735,-53 1737.88,-52.54 1740.79,-52.05 1743.73,-51.53"/>
<polygon fill="midnightblue" stroke="midnightblue" points="1191.08,-100.93 1181.26,-104.92 1191.42,-107.92 1191.08,-100.93"/>
</g>
<!-- Node11 -->
<g id="node11" class="node">
<title>Node11</title>
<g id="a_node11"><a xlink:href="java__class__loader__limit_8cpp.html" target="_top" xlink:title=" ">
<polygon fill="none" stroke="black" points="1962,-0.5 1962,-52.5 2162,-52.5 2162,-0.5 1962,-0.5"/>
<text text-anchor="start" x="1970" y="-40.5" font-family="Helvetica,sans-Serif" font-size="10.00">/home/runner/work/cbmc</text>
<text text-anchor="start" x="1970" y="-29.5" font-family="Helvetica,sans-Serif" font-size="10.00">&#45;documentation/cbmc&#45;documentation</text>
<text text-anchor="start" x="1970" y="-18.5" font-family="Helvetica,sans-Serif" font-size="10.00">/jbmc/src/java_bytecode/java</text>
<text text-anchor="middle" x="2062" y="-7.5" font-family="Helvetica,sans-Serif" font-size="10.00">_class_loader_limit.cpp</text>
</a>
</g>
</g>
<!-- Node1&#45;&gt;Node11 -->
<g id="edge10" class="edge">
<title>Node1&#45;&gt;Node11</title>
<path fill="none" stroke="midnightblue" d="M1191.51,-107.75C1357.64,-104.57 1681.26,-93.23 1953,-53 1955.88,-52.57 1958.8,-52.11 1961.75,-51.61"/>
<polygon fill="midnightblue" stroke="midnightblue" points="1191.22,-104.26 1181.28,-107.94 1191.35,-111.26 1191.22,-104.26"/>
</g>
</g>
</svg>
