<?xml version="1.0" encoding="UTF-8" standalone="no"?>
<!DOCTYPE svg PUBLIC "-//W3C//DTD SVG 1.1//EN"
 "http://www.w3.org/Graphics/SVG/1.1/DTD/svg11.dtd">
<!-- Generated by graphviz version 2.43.0 (0)
 -->
<!-- Title: /home/runner/work/cbmc&#45;documentation/cbmc&#45;documentation/src/util/json_irep.h Pages: 1 -->
<svg width="3998pt" height="317pt"
 viewBox="0.00 0.00 3998.00 317.00" xmlns="http://www.w3.org/2000/svg" xmlns:xlink="http://www.w3.org/1999/xlink">
<g id="graph0" class="graph" transform="scale(1 1) rotate(0) translate(4 313)">
<title>/home/runner/work/cbmc&#45;documentation/cbmc&#45;documentation/src/util/json_irep.h</title>
<!-- Node1 -->
<g id="node1" class="node">
<title>Node1</title>
<g id="a_node1"><a xlink:title=" ">
<polygon fill="#bfbfbf" stroke="black" points="1816,-267.5 1816,-308.5 2016,-308.5 2016,-267.5 1816,-267.5"/>
<text text-anchor="start" x="1824" y="-296.5" font-family="Helvetica,sans-Serif" font-size="10.00">/home/runner/work/cbmc</text>
<text text-anchor="start" x="1824" y="-285.5" font-family="Helvetica,sans-Serif" font-size="10.00">&#45;documentation/cbmc&#45;documentation</text>
<text text-anchor="middle" x="1916" y="-274.5" font-family="Helvetica,sans-Serif" font-size="10.00">/src/util/json_irep.h</text>
</a>
</g>
</g>
<!-- Node2 -->
<g id="node2" class="node">
<title>Node2</title>
<g id="a_node2"><a xlink:href="dependence__graph_8cpp.html" target="_top" xlink:title=" ">
<polygon fill="none" stroke="black" points="0,-184 0,-225 200,-225 200,-184 0,-184"/>
<text text-anchor="start" x="8" y="-213" font-family="Helvetica,sans-Serif" font-size="10.00">/home/runner/work/cbmc</text>
<text text-anchor="start" x="8" y="-202" font-family="Helvetica,sans-Serif" font-size="10.00">&#45;documentation/cbmc&#45;documentation</text>
<text text-anchor="middle" x="100" y="-191" font-family="Helvetica,sans-Serif" font-size="10.00">/src/analyses/dependence_graph.cpp</text>
</a>
</g>
</g>
<!-- Node1&#45;&gt;Node2 -->
<g id="edge1" class="edge">
<title>Node1&#45;&gt;Node2</title>
<path fill="none" stroke="midnightblue" d="M1805.44,-286.22C1478.41,-283.45 519.25,-271.97 209,-231 197.82,-229.52 186.12,-227.41 174.7,-225.02"/>
<polygon fill="midnightblue" stroke="midnightblue" points="1805.84,-289.72 1815.87,-286.3 1805.9,-282.72 1805.84,-289.72"/>
</g>
<!-- Node3 -->
<g id="node3" class="node">
<title>Node3</title>
<g id="a_node3"><a xlink:href="variable__sensitivity__dependence__graph_8cpp.html" target="_top" xlink:title=" ">
<polygon fill="none" stroke="black" points="218.5,-178.5 218.5,-230.5 451.5,-230.5 451.5,-178.5 218.5,-178.5"/>
<text text-anchor="start" x="226.5" y="-218.5" font-family="Helvetica,sans-Serif" font-size="10.00">/home/runner/work/cbmc</text>
<text text-anchor="start" x="226.5" y="-207.5" font-family="Helvetica,sans-Serif" font-size="10.00">&#45;documentation/cbmc&#45;documentation</text>
<text text-anchor="start" x="226.5" y="-196.5" font-family="Helvetica,sans-Serif" font-size="10.00">/src/analyses/variable&#45;sensitivity</text>
<text text-anchor="middle" x="335" y="-185.5" font-family="Helvetica,sans-Serif" font-size="10.00">/variable_sensitivity_dependence_graph.cpp</text>
</a>
</g>
</g>
<!-- Node1&#45;&gt;Node3 -->
<g id="edge2" class="edge">
<title>Node1&#45;&gt;Node3</title>
<path fill="none" stroke="midnightblue" d="M1805.63,-284.93C1513.54,-279.12 725.06,-261.04 466,-231 461.28,-230.45 456.48,-229.83 451.64,-229.15"/>
<polygon fill="midnightblue" stroke="midnightblue" points="1805.74,-288.44 1815.8,-285.14 1805.88,-281.44 1805.74,-288.44"/>
</g>
<!-- Node4 -->
<g id="node4" class="node">
<title>Node4</title>
<g id="a_node4"><a xlink:href="json__goto__trace_8h.html" target="_top" xlink:title=" ">
<polygon fill="none" stroke="black" points="508,-184 508,-225 708,-225 708,-184 508,-184"/>
<text text-anchor="start" x="516" y="-213" font-family="Helvetica,sans-Serif" font-size="10.00">/home/runner/work/cbmc</text>
<text text-anchor="start" x="516" y="-202" font-family="Helvetica,sans-Serif" font-size="10.00">&#45;documentation/cbmc&#45;documentation</text>
<text text-anchor="middle" x="608" y="-191" font-family="Helvetica,sans-Serif" font-size="10.00">/src/goto&#45;programs/json_goto_trace.h</text>
</a>
</g>
</g>
<!-- Node1&#45;&gt;Node4 -->
<g id="edge3" class="edge">
<title>Node1&#45;&gt;Node4</title>
<path fill="none" stroke="midnightblue" d="M1805.54,-284.43C1550.25,-278.07 925.26,-259.98 717,-231 706.03,-229.47 694.54,-227.36 683.31,-225"/>
<polygon fill="midnightblue" stroke="midnightblue" points="1805.49,-287.93 1815.57,-284.68 1805.66,-280.93 1805.49,-287.93"/>
</g>
<!-- Node7 -->
<g id="node7" class="node">
<title>Node7</title>
<g id="a_node7"><a xlink:href="report__util_8cpp.html" target="_top" xlink:title=" ">
<polygon fill="none" stroke="black" points="72,-95 72,-136 272,-136 272,-95 72,-95"/>
<text text-anchor="start" x="80" y="-124" font-family="Helvetica,sans-Serif" font-size="10.00">/home/runner/work/cbmc</text>
<text text-anchor="start" x="80" y="-113" font-family="Helvetica,sans-Serif" font-size="10.00">&#45;documentation/cbmc&#45;documentation</text>
<text text-anchor="middle" x="172" y="-102" font-family="Helvetica,sans-Serif" font-size="10.00">/src/goto&#45;checker/report_util.cpp</text>
</a>
</g>
</g>
<!-- Node1&#45;&gt;Node7 -->
<g id="edge16" class="edge">
<title>Node1&#45;&gt;Node7</title>
<path fill="none" stroke="midnightblue" d="M1805.45,-285.24C1481.97,-279.75 556.36,-261.45 499,-231 473.17,-217.29 484.66,-193.72 460,-178 391.57,-134.38 360.3,-159.24 281,-142 272.36,-140.12 263.35,-138.1 254.37,-136.06"/>
<polygon fill="midnightblue" stroke="midnightblue" points="1805.72,-288.75 1815.78,-285.42 1805.84,-281.75 1805.72,-288.75"/>
</g>
<!-- Node12 -->
<g id="node12" class="node">
<title>Node12</title>
<g id="a_node12"><a xlink:href="static__verifier_8cpp.html" target="_top" xlink:title=" ">
<polygon fill="none" stroke="black" points="726,-184 726,-225 926,-225 926,-184 726,-184"/>
<text text-anchor="start" x="734" y="-213" font-family="Helvetica,sans-Serif" font-size="10.00">/home/runner/work/cbmc</text>
<text text-anchor="start" x="734" y="-202" font-family="Helvetica,sans-Serif" font-size="10.00">&#45;documentation/cbmc&#45;documentation</text>
<text text-anchor="middle" x="826" y="-191" font-family="Helvetica,sans-Serif" font-size="10.00">/src/goto&#45;analyzer/static_verifier.cpp</text>
</a>
</g>
</g>
<!-- Node1&#45;&gt;Node12 -->
<g id="edge12" class="edge">
<title>Node1&#45;&gt;Node12</title>
<path fill="none" stroke="midnightblue" d="M1805.74,-286.89C1623.55,-285.34 1248.6,-276.29 935,-231 924.23,-229.44 912.95,-227.35 901.91,-225.02"/>
<polygon fill="midnightblue" stroke="midnightblue" points="1805.84,-290.4 1815.87,-286.97 1805.89,-283.4 1805.84,-290.4"/>
</g>
<!-- Node13 -->
<g id="node13" class="node">
<title>Node13</title>
<g id="a_node13"><a xlink:href="unreachable__instructions_8cpp.html" target="_top" xlink:title=" ">
<polygon fill="none" stroke="black" points="944,-178.5 944,-230.5 1144,-230.5 1144,-178.5 944,-178.5"/>
<text text-anchor="start" x="952" y="-218.5" font-family="Helvetica,sans-Serif" font-size="10.00">/home/runner/work/cbmc</text>
<text text-anchor="start" x="952" y="-207.5" font-family="Helvetica,sans-Serif" font-size="10.00">&#45;documentation/cbmc&#45;documentation</text>
<text text-anchor="start" x="952" y="-196.5" font-family="Helvetica,sans-Serif" font-size="10.00">/src/goto&#45;analyzer/unreachable</text>
<text text-anchor="middle" x="1044" y="-185.5" font-family="Helvetica,sans-Serif" font-size="10.00">_instructions.cpp</text>
</a>
</g>
</g>
<!-- Node1&#45;&gt;Node13 -->
<g id="edge13" class="edge">
<title>Node1&#45;&gt;Node13</title>
<path fill="none" stroke="midnightblue" d="M1805.7,-284.32C1656.79,-279.46 1383.55,-266.21 1153,-231 1150.12,-230.56 1147.2,-230.08 1144.26,-229.58"/>
<polygon fill="midnightblue" stroke="midnightblue" points="1805.65,-287.82 1815.76,-284.64 1805.88,-280.82 1805.65,-287.82"/>
</g>
<!-- Node14 -->
<g id="node14" class="node">
<title>Node14</title>
<g id="a_node14"><a xlink:href="cover__goals__report__util_8cpp.html" target="_top" xlink:title=" ">
<polygon fill="none" stroke="black" points="1162,-178.5 1162,-230.5 1362,-230.5 1362,-178.5 1162,-178.5"/>
<text text-anchor="start" x="1170" y="-218.5" font-family="Helvetica,sans-Serif" font-size="10.00">/home/runner/work/cbmc</text>
<text text-anchor="start" x="1170" y="-207.5" font-family="Helvetica,sans-Serif" font-size="10.00">&#45;documentation/cbmc&#45;documentation</text>
<text text-anchor="start" x="1170" y="-196.5" font-family="Helvetica,sans-Serif" font-size="10.00">/src/goto&#45;checker/cover_goals</text>
<text text-anchor="middle" x="1262" y="-185.5" font-family="Helvetica,sans-Serif" font-size="10.00">_report_util.cpp</text>
</a>
</g>
</g>
<!-- Node1&#45;&gt;Node14 -->
<g id="edge14" class="edge">
<title>Node1&#45;&gt;Node14</title>
<path fill="none" stroke="midnightblue" d="M1805.63,-279.8C1695.14,-271.63 1520.53,-256.07 1371,-231 1368.12,-230.52 1365.21,-230 1362.28,-229.47"/>
<polygon fill="midnightblue" stroke="midnightblue" points="1805.56,-283.31 1815.79,-280.55 1806.07,-276.33 1805.56,-283.31"/>
</g>
<!-- Node15 -->
<g id="node15" class="node">
<title>Node15</title>
<g id="a_node15"><a xlink:href="properties_8cpp.html" target="_top" xlink:title=" ">
<polygon fill="none" stroke="black" points="1380,-184 1380,-225 1580,-225 1580,-184 1380,-184"/>
<text text-anchor="start" x="1388" y="-213" font-family="Helvetica,sans-Serif" font-size="10.00">/home/runner/work/cbmc</text>
<text text-anchor="start" x="1388" y="-202" font-family="Helvetica,sans-Serif" font-size="10.00">&#45;documentation/cbmc&#45;documentation</text>
<text text-anchor="middle" x="1480" y="-191" font-family="Helvetica,sans-Serif" font-size="10.00">/src/goto&#45;checker/properties.cpp</text>
</a>
</g>
</g>
<!-- Node1&#45;&gt;Node15 -->
<g id="edge15" class="edge">
<title>Node1&#45;&gt;Node15</title>
<path fill="none" stroke="midnightblue" d="M1805.85,-269.83C1742.28,-259.5 1660.94,-245.56 1589,-231 1579.95,-229.17 1570.51,-227.14 1561.13,-225.05"/>
<polygon fill="midnightblue" stroke="midnightblue" points="1805.46,-273.31 1815.89,-271.46 1806.58,-266.4 1805.46,-273.31"/>
</g>
<!-- Node16 -->
<g id="node16" class="node">
<title>Node16</title>
<g id="a_node16"><a xlink:href="goto__diff__base_8cpp.html" target="_top" xlink:title=" ">
<polygon fill="none" stroke="black" points="1598,-184 1598,-225 1798,-225 1798,-184 1598,-184"/>
<text text-anchor="start" x="1606" y="-213" font-family="Helvetica,sans-Serif" font-size="10.00">/home/runner/work/cbmc</text>
<text text-anchor="start" x="1606" y="-202" font-family="Helvetica,sans-Serif" font-size="10.00">&#45;documentation/cbmc&#45;documentation</text>
<text text-anchor="middle" x="1698" y="-191" font-family="Helvetica,sans-Serif" font-size="10.00">/src/goto&#45;diff/goto_diff_base.cpp</text>
</a>
</g>
</g>
<!-- Node1&#45;&gt;Node16 -->
<g id="edge17" class="edge">
<title>Node1&#45;&gt;Node16</title>
<path fill="none" stroke="midnightblue" d="M1854.28,-263.92C1821.42,-251.64 1781.46,-236.7 1750.17,-225"/>
<polygon fill="midnightblue" stroke="midnightblue" points="1853.19,-267.26 1863.78,-267.48 1855.64,-260.7 1853.19,-267.26"/>
</g>
<!-- Node17 -->
<g id="node17" class="node">
<title>Node17</title>
<g id="a_node17"><a xlink:href="loop__ids_8cpp.html" target="_top" xlink:title=" ">
<polygon fill="none" stroke="black" points="1816,-184 1816,-225 2016,-225 2016,-184 1816,-184"/>
<text text-anchor="start" x="1824" y="-213" font-family="Helvetica,sans-Serif" font-size="10.00">/home/runner/work/cbmc</text>
<text text-anchor="start" x="1824" y="-202" font-family="Helvetica,sans-Serif" font-size="10.00">&#45;documentation/cbmc&#45;documentation</text>
<text text-anchor="middle" x="1916" y="-191" font-family="Helvetica,sans-Serif" font-size="10.00">/src/goto&#45;programs/loop_ids.cpp</text>
</a>
</g>
</g>
<!-- Node1&#45;&gt;Node17 -->
<g id="edge18" class="edge">
<title>Node1&#45;&gt;Node17</title>
<path fill="none" stroke="midnightblue" d="M1916,-257.06C1916,-246.38 1916,-234.63 1916,-225.05"/>
<polygon fill="midnightblue" stroke="midnightblue" points="1912.5,-257.27 1916,-267.27 1919.5,-257.27 1912.5,-257.27"/>
</g>
<!-- Node18 -->
<g id="node18" class="node">
<title>Node18</title>
<g id="a_node18"><a xlink:href="show__goto__functions__json_8cpp.html" target="_top" xlink:title=" ">
<polygon fill="none" stroke="black" points="2034,-178.5 2034,-230.5 2234,-230.5 2234,-178.5 2034,-178.5"/>
<text text-anchor="start" x="2042" y="-218.5" font-family="Helvetica,sans-Serif" font-size="10.00">/home/runner/work/cbmc</text>
<text text-anchor="start" x="2042" y="-207.5" font-family="Helvetica,sans-Serif" font-size="10.00">&#45;documentation/cbmc&#45;documentation</text>
<text text-anchor="start" x="2042" y="-196.5" font-family="Helvetica,sans-Serif" font-size="10.00">/src/goto&#45;programs/show_goto</text>
<text text-anchor="middle" x="2134" y="-185.5" font-family="Helvetica,sans-Serif" font-size="10.00">_functions_json.cpp</text>
</a>
</g>
</g>
<!-- Node1&#45;&gt;Node18 -->
<g id="edge19" class="edge">
<title>Node1&#45;&gt;Node18</title>
<path fill="none" stroke="midnightblue" d="M1977.83,-263.89C2005.63,-253.49 2038.52,-241.2 2066.92,-230.58"/>
<polygon fill="midnightblue" stroke="midnightblue" points="1976.36,-260.7 1968.22,-267.48 1978.81,-267.26 1976.36,-260.7"/>
</g>
<!-- Node19 -->
<g id="node19" class="node">
<title>Node19</title>
<g id="a_node19"><a xlink:href="show__properties_8cpp.html" target="_top" xlink:title=" ">
<polygon fill="none" stroke="black" points="2252,-184 2252,-225 2464,-225 2464,-184 2252,-184"/>
<text text-anchor="start" x="2260" y="-213" font-family="Helvetica,sans-Serif" font-size="10.00">/home/runner/work/cbmc</text>
<text text-anchor="start" x="2260" y="-202" font-family="Helvetica,sans-Serif" font-size="10.00">&#45;documentation/cbmc&#45;documentation</text>
<text text-anchor="middle" x="2358" y="-191" font-family="Helvetica,sans-Serif" font-size="10.00">/src/goto&#45;programs/show_properties.cpp</text>
</a>
</g>
</g>
<!-- Node1&#45;&gt;Node19 -->
<g id="edge20" class="edge">
<title>Node1&#45;&gt;Node19</title>
<path fill="none" stroke="midnightblue" d="M2026.09,-269.52C2089.63,-259.08 2170.98,-245.14 2243,-231 2252.43,-229.15 2262.28,-227.12 2272.06,-225.03"/>
<polygon fill="midnightblue" stroke="midnightblue" points="2025.35,-266.09 2016.05,-271.16 2026.48,-273 2025.35,-266.09"/>
</g>
<!-- Node20 -->
<g id="node20" class="node">
<title>Node20</title>
<g id="a_node20"><a xlink:href="show__symbol__table_8cpp.html" target="_top" xlink:title=" ">
<polygon fill="none" stroke="black" points="2482,-178.5 2482,-230.5 2682,-230.5 2682,-178.5 2482,-178.5"/>
<text text-anchor="start" x="2490" y="-218.5" font-family="Helvetica,sans-Serif" font-size="10.00">/home/runner/work/cbmc</text>
<text text-anchor="start" x="2490" y="-207.5" font-family="Helvetica,sans-Serif" font-size="10.00">&#45;documentation/cbmc&#45;documentation</text>
<text text-anchor="start" x="2490" y="-196.5" font-family="Helvetica,sans-Serif" font-size="10.00">/src/goto&#45;programs/show_symbol</text>
<text text-anchor="middle" x="2582" y="-185.5" font-family="Helvetica,sans-Serif" font-size="10.00">_table.cpp</text>
</a>
</g>
</g>
<!-- Node1&#45;&gt;Node20 -->
<g id="edge21" class="edge">
<title>Node1&#45;&gt;Node20</title>
<path fill="none" stroke="midnightblue" d="M2026.15,-280.15C2138.92,-272.16 2318.99,-256.65 2473,-231 2475.88,-230.52 2478.79,-230.01 2481.72,-229.47"/>
<polygon fill="midnightblue" stroke="midnightblue" points="2025.86,-276.67 2016.13,-280.86 2026.35,-283.65 2025.86,-276.67"/>
</g>
<!-- Node21 -->
<g id="node21" class="node">
<title>Node21</title>
<g id="a_node21"><a xlink:href="show__program_8cpp.html" target="_top" xlink:title=" ">
<polygon fill="none" stroke="black" points="2700,-184 2700,-225 2900,-225 2900,-184 2700,-184"/>
<text text-anchor="start" x="2708" y="-213" font-family="Helvetica,sans-Serif" font-size="10.00">/home/runner/work/cbmc</text>
<text text-anchor="start" x="2708" y="-202" font-family="Helvetica,sans-Serif" font-size="10.00">&#45;documentation/cbmc&#45;documentation</text>
<text text-anchor="middle" x="2800" y="-191" font-family="Helvetica,sans-Serif" font-size="10.00">/src/goto&#45;symex/show_program.cpp</text>
</a>
</g>
</g>
<!-- Node1&#45;&gt;Node21 -->
<g id="edge22" class="edge">
<title>Node1&#45;&gt;Node21</title>
<path fill="none" stroke="midnightblue" d="M2026.46,-284.49C2177.35,-279.82 2456.01,-266.75 2691,-231 2701.57,-229.39 2712.63,-227.3 2723.48,-225"/>
<polygon fill="midnightblue" stroke="midnightblue" points="2026.16,-281 2016.27,-284.8 2026.37,-287.99 2026.16,-281"/>
</g>
<!-- Node22 -->
<g id="node22" class="node">
<title>Node22</title>
<g id="a_node22"><a xlink:href="show__vcc_8cpp.html" target="_top" xlink:title=" ">
<polygon fill="none" stroke="black" points="2918,-184 2918,-225 3118,-225 3118,-184 2918,-184"/>
<text text-anchor="start" x="2926" y="-213" font-family="Helvetica,sans-Serif" font-size="10.00">/home/runner/work/cbmc</text>
<text text-anchor="start" x="2926" y="-202" font-family="Helvetica,sans-Serif" font-size="10.00">&#45;documentation/cbmc&#45;documentation</text>
<text text-anchor="middle" x="3018" y="-191" font-family="Helvetica,sans-Serif" font-size="10.00">/src/goto&#45;symex/show_vcc.cpp</text>
</a>
</g>
</g>
<!-- Node1&#45;&gt;Node22 -->
<g id="edge23" class="edge">
<title>Node1&#45;&gt;Node22</title>
<path fill="none" stroke="midnightblue" d="M2026.51,-287C2210.52,-285.62 2590.93,-276.82 2909,-231 2919.77,-229.45 2931.05,-227.36 2942.09,-225.03"/>
<polygon fill="midnightblue" stroke="midnightblue" points="2026.26,-283.5 2016.29,-287.07 2026.31,-290.5 2026.26,-283.5"/>
</g>
<!-- Node23 -->
<g id="node23" class="node">
<title>Node23</title>
<g id="a_node23"><a xlink:href="solver__hardness_8cpp.html" target="_top" xlink:title=" ">
<polygon fill="none" stroke="black" points="3136,-184 3136,-225 3336,-225 3336,-184 3136,-184"/>
<text text-anchor="start" x="3144" y="-213" font-family="Helvetica,sans-Serif" font-size="10.00">/home/runner/work/cbmc</text>
<text text-anchor="start" x="3144" y="-202" font-family="Helvetica,sans-Serif" font-size="10.00">&#45;documentation/cbmc&#45;documentation</text>
<text text-anchor="middle" x="3236" y="-191" font-family="Helvetica,sans-Serif" font-size="10.00">/src/goto&#45;symex/solver_hardness.cpp</text>
</a>
</g>
</g>
<!-- Node1&#45;&gt;Node23 -->
<g id="edge24" class="edge">
<title>Node1&#45;&gt;Node23</title>
<path fill="none" stroke="midnightblue" d="M2026.15,-284.5C2283.09,-278.24 2916.27,-260.27 3127,-231 3137.97,-229.48 3149.46,-227.37 3160.7,-225.01"/>
<polygon fill="midnightblue" stroke="midnightblue" points="2025.97,-281 2016.05,-284.74 2026.13,-288 2025.97,-281"/>
</g>
<!-- Node24 -->
<g id="node24" class="node">
<title>Node24</title>
<g id="a_node24"><a xlink:href="json__symbol_8cpp.html" target="_top" xlink:title=" ">
<polygon fill="none" stroke="black" points="3354,-178.5 3354,-230.5 3554,-230.5 3554,-178.5 3354,-178.5"/>
<text text-anchor="start" x="3362" y="-218.5" font-family="Helvetica,sans-Serif" font-size="10.00">/home/runner/work/cbmc</text>
<text text-anchor="start" x="3362" y="-207.5" font-family="Helvetica,sans-Serif" font-size="10.00">&#45;documentation/cbmc&#45;documentation</text>
<text text-anchor="start" x="3362" y="-196.5" font-family="Helvetica,sans-Serif" font-size="10.00">/src/json&#45;symtab&#45;language/json</text>
<text text-anchor="middle" x="3454" y="-185.5" font-family="Helvetica,sans-Serif" font-size="10.00">_symbol.cpp</text>
</a>
</g>
</g>
<!-- Node1&#45;&gt;Node24 -->
<g id="edge25" class="edge">
<title>Node1&#45;&gt;Node24</title>
<path fill="none" stroke="midnightblue" d="M2026.13,-285.4C2315.18,-280.77 3090.67,-265.41 3345,-231 3347.89,-230.61 3350.81,-230.18 3353.76,-229.71"/>
<polygon fill="midnightblue" stroke="midnightblue" points="2026,-281.9 2016.06,-285.56 2026.11,-288.9 2026,-281.9"/>
</g>
<!-- Node25 -->
<g id="node25" class="node">
<title>Node25</title>
<g id="a_node25"><a xlink:href="json__irep_8cpp.html" target="_top" xlink:title=" ">
<polygon fill="none" stroke="black" points="3572,-184 3572,-225 3772,-225 3772,-184 3572,-184"/>
<text text-anchor="start" x="3580" y="-213" font-family="Helvetica,sans-Serif" font-size="10.00">/home/runner/work/cbmc</text>
<text text-anchor="start" x="3580" y="-202" font-family="Helvetica,sans-Serif" font-size="10.00">&#45;documentation/cbmc&#45;documentation</text>
<text text-anchor="middle" x="3672" y="-191" font-family="Helvetica,sans-Serif" font-size="10.00">/src/util/json_irep.cpp</text>
</a>
</g>
</g>
<!-- Node1&#45;&gt;Node25 -->
<g id="edge26" class="edge">
<title>Node1&#45;&gt;Node25</title>
<path fill="none" stroke="midnightblue" d="M2026.3,-286.07C2345.25,-282.91 3264.81,-270.56 3563,-231 3574.17,-229.52 3585.88,-227.4 3597.3,-225.01"/>
<polygon fill="midnightblue" stroke="midnightblue" points="2026.09,-282.57 2016.13,-286.16 2026.16,-289.57 2026.09,-282.57"/>
</g>
<!-- Node26 -->
<g id="node26" class="node">
<title>Node26</title>
<g id="a_node26"><a xlink:href="ui__message_8cpp.html" target="_top" xlink:title=" ">
<polygon fill="none" stroke="black" points="3790,-184 3790,-225 3990,-225 3990,-184 3790,-184"/>
<text text-anchor="start" x="3798" y="-213" font-family="Helvetica,sans-Serif" font-size="10.00">/home/runner/work/cbmc</text>
<text text-anchor="start" x="3798" y="-202" font-family="Helvetica,sans-Serif" font-size="10.00">&#45;documentation/cbmc&#45;documentation</text>
<text text-anchor="middle" x="3890" y="-191" font-family="Helvetica,sans-Serif" font-size="10.00">/src/util/ui_message.cpp</text>
</a>
</g>
</g>
<!-- Node1&#45;&gt;Node26 -->
<g id="edge27" class="edge">
<title>Node1&#45;&gt;Node26</title>
<path fill="none" stroke="midnightblue" d="M2026.2,-286.58C2372.89,-284.8 3438.58,-275.74 3781,-231 3792.18,-229.54 3803.88,-227.43 3815.31,-225.05"/>
<polygon fill="midnightblue" stroke="midnightblue" points="2026.13,-283.08 2016.15,-286.63 2026.17,-290.08 2026.13,-283.08"/>
</g>
<!-- Node5 -->
<g id="node5" class="node">
<title>Node5</title>
<g id="a_node5"><a xlink:href="c__test__input__generator_8cpp.html" target="_top" xlink:title=" ">
<polygon fill="none" stroke="black" points="290,-95 290,-136 490,-136 490,-95 290,-95"/>
<text text-anchor="start" x="298" y="-124" font-family="Helvetica,sans-Serif" font-size="10.00">/home/runner/work/cbmc</text>
<text text-anchor="start" x="298" y="-113" font-family="Helvetica,sans-Serif" font-size="10.00">&#45;documentation/cbmc&#45;documentation</text>
<text text-anchor="middle" x="390" y="-102" font-family="Helvetica,sans-Serif" font-size="10.00">/src/cbmc/c_test_input_generator.cpp</text>
</a>
</g>
</g>
<!-- Node4&#45;&gt;Node5 -->
<g id="edge4" class="edge">
<title>Node4&#45;&gt;Node5</title>
<path fill="none" stroke="midnightblue" d="M549.59,-180.19C515.08,-166.42 471.89,-149.18 439.14,-136.11"/>
<polygon fill="midnightblue" stroke="midnightblue" points="548.49,-183.52 559.08,-183.98 551.09,-177.02 548.49,-183.52"/>
</g>
<!-- Node6 -->
<g id="node6" class="node">
<title>Node6</title>
<g id="a_node6"><a xlink:href="bmc__util_8cpp.html" target="_top" xlink:title=" ">
<polygon fill="none" stroke="black" points="508,-95 508,-136 708,-136 708,-95 508,-95"/>
<text text-anchor="start" x="516" y="-124" font-family="Helvetica,sans-Serif" font-size="10.00">/home/runner/work/cbmc</text>
<text text-anchor="start" x="516" y="-113" font-family="Helvetica,sans-Serif" font-size="10.00">&#45;documentation/cbmc&#45;documentation</text>
<text text-anchor="middle" x="608" y="-102" font-family="Helvetica,sans-Serif" font-size="10.00">/src/goto&#45;checker/bmc_util.cpp</text>
</a>
</g>
</g>
<!-- Node4&#45;&gt;Node6 -->
<g id="edge5" class="edge">
<title>Node4&#45;&gt;Node6</title>
<path fill="none" stroke="midnightblue" d="M608,-173.44C608,-161.1 608,-147.16 608,-136.16"/>
<polygon fill="midnightblue" stroke="midnightblue" points="604.5,-173.76 608,-183.76 611.5,-173.76 604.5,-173.76"/>
</g>
<!-- Node4&#45;&gt;Node7 -->
<g id="edge6" class="edge">
<title>Node4&#45;&gt;Node7</title>
<path fill="none" stroke="midnightblue" d="M513.01,-181.86C506.59,-180.52 500.2,-179.22 494,-178 399.79,-159.51 375.12,-160.94 281,-142 271.85,-140.16 262.31,-138.11 252.83,-136"/>
<polygon fill="midnightblue" stroke="midnightblue" points="512.62,-185.35 523.13,-184 514.07,-178.5 512.62,-185.35"/>
</g>
<!-- Node8 -->
<g id="node8" class="node">
<title>Node8</title>
<g id="a_node8"><a xlink:href="interpreter__class_8h.html" target="_top" xlink:title=" ">
<polygon fill="none" stroke="black" points="764.5,-95 764.5,-136 967.5,-136 967.5,-95 764.5,-95"/>
<text text-anchor="start" x="772.5" y="-124" font-family="Helvetica,sans-Serif" font-size="10.00">/home/runner/work/cbmc</text>
<text text-anchor="start" x="772.5" y="-113" font-family="Helvetica,sans-Serif" font-size="10.00">&#45;documentation/cbmc&#45;documentation</text>
<text text-anchor="middle" x="866" y="-102" font-family="Helvetica,sans-Serif" font-size="10.00">/src/goto&#45;programs/interpreter_class.h</text>
</a>
</g>
</g>
<!-- Node4&#45;&gt;Node8 -->
<g id="edge7" class="edge">
<title>Node4&#45;&gt;Node8</title>
<path fill="none" stroke="midnightblue" d="M675.56,-180.72C716.65,-166.86 768.59,-149.35 807.85,-136.11"/>
<polygon fill="midnightblue" stroke="midnightblue" points="674.26,-177.46 665.9,-183.98 676.49,-184.1 674.26,-177.46"/>
</g>
<!-- Node9 -->
<g id="node9" class="node">
<title>Node9</title>
<g id="a_node9"><a xlink:href="interpreter_8cpp.html" target="_top" xlink:title=" ">
<polygon fill="none" stroke="black" points="636,-6 636,-47 836,-47 836,-6 636,-6"/>
<text text-anchor="start" x="644" y="-35" font-family="Helvetica,sans-Serif" font-size="10.00">/home/runner/work/cbmc</text>
<text text-anchor="start" x="644" y="-24" font-family="Helvetica,sans-Serif" font-size="10.00">&#45;documentation/cbmc&#45;documentation</text>
<text text-anchor="middle" x="736" y="-13" font-family="Helvetica,sans-Serif" font-size="10.00">/src/goto&#45;programs/interpreter.cpp</text>
</a>
</g>
</g>
<!-- Node4&#45;&gt;Node9 -->
<g id="edge10" class="edge">
<title>Node4&#45;&gt;Node9</title>
<path fill="none" stroke="midnightblue" d="M672.95,-179.1C689.66,-169.87 706.01,-157.69 717,-142 736.88,-113.61 738.62,-71.68 737.63,-47.22"/>
<polygon fill="midnightblue" stroke="midnightblue" points="670.92,-176.21 663.66,-183.92 674.15,-182.42 670.92,-176.21"/>
</g>
<!-- Node11 -->
<g id="node11" class="node">
<title>Node11</title>
<g id="a_node11"><a xlink:href="json__goto__trace_8cpp.html" target="_top" xlink:title=" ">
<polygon fill="none" stroke="black" points="986,-89.5 986,-141.5 1186,-141.5 1186,-89.5 986,-89.5"/>
<text text-anchor="start" x="994" y="-129.5" font-family="Helvetica,sans-Serif" font-size="10.00">/home/runner/work/cbmc</text>
<text text-anchor="start" x="994" y="-118.5" font-family="Helvetica,sans-Serif" font-size="10.00">&#45;documentation/cbmc&#45;documentation</text>
<text text-anchor="start" x="994" y="-107.5" font-family="Helvetica,sans-Serif" font-size="10.00">/src/goto&#45;programs/json_goto</text>
<text text-anchor="middle" x="1086" y="-96.5" font-family="Helvetica,sans-Serif" font-size="10.00">_trace.cpp</text>
</a>
</g>
</g>
<!-- Node4&#45;&gt;Node11 -->
<g id="edge11" class="edge">
<title>Node4&#45;&gt;Node11</title>
<path fill="none" stroke="midnightblue" d="M697.79,-181.81C704.28,-180.45 710.73,-179.17 717,-178 831.26,-156.74 861.72,-163.14 976,-142 979.28,-141.39 982.6,-140.76 985.96,-140.09"/>
<polygon fill="midnightblue" stroke="midnightblue" points="696.64,-178.48 687.59,-183.99 698.1,-185.32 696.64,-178.48"/>
</g>
<!-- Node8&#45;&gt;Node9 -->
<g id="edge8" class="edge">
<title>Node8&#45;&gt;Node9</title>
<path fill="none" stroke="midnightblue" d="M828.26,-89.25C808.29,-75.88 784.12,-59.7 765.53,-47.26"/>
<polygon fill="midnightblue" stroke="midnightblue" points="826.57,-92.32 836.83,-94.98 830.46,-86.5 826.57,-92.32"/>
</g>
<!-- Node10 -->
<g id="node10" class="node">
<title>Node10</title>
<g id="a_node10"><a xlink:href="interpreter__evaluate_8cpp.html" target="_top" xlink:title=" ">
<polygon fill="none" stroke="black" points="854,-0.5 854,-52.5 1054,-52.5 1054,-0.5 854,-0.5"/>
<text text-anchor="start" x="862" y="-40.5" font-family="Helvetica,sans-Serif" font-size="10.00">/home/runner/work/cbmc</text>
<text text-anchor="start" x="862" y="-29.5" font-family="Helvetica,sans-Serif" font-size="10.00">&#45;documentation/cbmc&#45;documentation</text>
<text text-anchor="start" x="862" y="-18.5" font-family="Helvetica,sans-Serif" font-size="10.00">/src/goto&#45;programs/interpreter</text>
<text text-anchor="middle" x="954" y="-7.5" font-family="Helvetica,sans-Serif" font-size="10.00">_evaluate.cpp</text>
</a>
</g>
</g>
<!-- Node8&#45;&gt;Node10 -->
<g id="edge9" class="edge">
<title>Node8&#45;&gt;Node10</title>
<path fill="none" stroke="midnightblue" d="M893.4,-87.41C904.58,-76.36 917.43,-63.65 928.42,-52.79"/>
<polygon fill="midnightblue" stroke="midnightblue" points="890.62,-85.24 885.97,-94.76 895.54,-90.22 890.62,-85.24"/>
</g>
</g>
</svg>
