<?xml version="1.0" encoding="UTF-8" standalone="no"?>
<!DOCTYPE svg PUBLIC "-//W3C//DTD SVG 1.1//EN"
 "http://www.w3.org/Graphics/SVG/1.1/DTD/svg11.dtd">
<!-- Generated by graphviz version 2.43.0 (0)
 -->
<!-- Title: /home/runner/work/cbmc&#45;documentation/cbmc&#45;documentation/src/langapi/language_util.h Pages: 1 -->
<svg width="7360pt" height="139pt"
 viewBox="0.00 0.00 7359.50 139.00" xmlns="http://www.w3.org/2000/svg" xmlns:xlink="http://www.w3.org/1999/xlink">
<g id="graph0" class="graph" transform="scale(1 1) rotate(0) translate(4 135)">
<title>/home/runner/work/cbmc&#45;documentation/cbmc&#45;documentation/src/langapi/language_util.h</title>
<!-- Node1 -->
<g id="node1" class="node">
<title>Node1</title>
<g id="a_node1"><a xlink:title=" ">
<polygon fill="#bfbfbf" stroke="black" points="3581.5,-89.5 3581.5,-130.5 3781.5,-130.5 3781.5,-89.5 3581.5,-89.5"/>
<text text-anchor="start" x="3589.5" y="-118.5" font-family="Helvetica,sans-Serif" font-size="10.00">/home/runner/work/cbmc</text>
<text text-anchor="start" x="3589.5" y="-107.5" font-family="Helvetica,sans-Serif" font-size="10.00">&#45;documentation/cbmc&#45;documentation</text>
<text text-anchor="middle" x="3681.5" y="-96.5" font-family="Helvetica,sans-Serif" font-size="10.00">/src/langapi/language_util.h</text>
</a>
</g>
</g>
<!-- Node2 -->
<g id="node2" class="node">
<title>Node2</title>
<g id="a_node2"><a xlink:href="constant__propagator_8cpp.html" target="_top" xlink:title=" ">
<polygon fill="none" stroke="black" points="0,-6 0,-47 203,-47 203,-6 0,-6"/>
<text text-anchor="start" x="8" y="-35" font-family="Helvetica,sans-Serif" font-size="10.00">/home/runner/work/cbmc</text>
<text text-anchor="start" x="8" y="-24" font-family="Helvetica,sans-Serif" font-size="10.00">&#45;documentation/cbmc&#45;documentation</text>
<text text-anchor="middle" x="101.5" y="-13" font-family="Helvetica,sans-Serif" font-size="10.00">/src/analyses/constant_propagator.cpp</text>
</a>
</g>
</g>
<!-- Node1&#45;&gt;Node2 -->
<g id="edge1" class="edge">
<title>Node1&#45;&gt;Node2</title>
<path fill="none" stroke="midnightblue" d="M3571.01,-108.59C3016.68,-106.38 551.81,-94.25 212.5,-53 200.92,-51.59 188.78,-49.48 176.96,-47.06"/>
<polygon fill="midnightblue" stroke="midnightblue" points="3571.38,-112.1 3581.4,-108.64 3571.41,-105.1 3571.38,-112.1"/>
</g>
<!-- Node3 -->
<g id="node3" class="node">
<title>Node3</title>
<g id="a_node3"><a xlink:href="custom__bitvector__analysis_8cpp.html" target="_top" xlink:title=" ">
<polygon fill="none" stroke="black" points="221.5,-0.5 221.5,-52.5 421.5,-52.5 421.5,-0.5 221.5,-0.5"/>
<text text-anchor="start" x="229.5" y="-40.5" font-family="Helvetica,sans-Serif" font-size="10.00">/home/runner/work/cbmc</text>
<text text-anchor="start" x="229.5" y="-29.5" font-family="Helvetica,sans-Serif" font-size="10.00">&#45;documentation/cbmc&#45;documentation</text>
<text text-anchor="start" x="229.5" y="-18.5" font-family="Helvetica,sans-Serif" font-size="10.00">/src/analyses/custom_bitvector</text>
<text text-anchor="middle" x="321.5" y="-7.5" font-family="Helvetica,sans-Serif" font-size="10.00">_analysis.cpp</text>
</a>
</g>
</g>
<!-- Node1&#45;&gt;Node3 -->
<g id="edge2" class="edge">
<title>Node1&#45;&gt;Node3</title>
<path fill="none" stroke="midnightblue" d="M3571.07,-108.49C3038.38,-105.85 747.01,-92.29 430.5,-53 427.61,-52.64 424.68,-52.24 421.73,-51.79"/>
<polygon fill="midnightblue" stroke="midnightblue" points="3571.42,-111.99 3581.44,-108.54 3571.46,-104.99 3571.42,-111.99"/>
</g>
<!-- Node4 -->
<g id="node4" class="node">
<title>Node4</title>
<g id="a_node4"><a xlink:href="goto__rw_8cpp.html" target="_top" xlink:title=" ">
<polygon fill="none" stroke="black" points="439.5,-6 439.5,-47 639.5,-47 639.5,-6 439.5,-6"/>
<text text-anchor="start" x="447.5" y="-35" font-family="Helvetica,sans-Serif" font-size="10.00">/home/runner/work/cbmc</text>
<text text-anchor="start" x="447.5" y="-24" font-family="Helvetica,sans-Serif" font-size="10.00">&#45;documentation/cbmc&#45;documentation</text>
<text text-anchor="middle" x="539.5" y="-13" font-family="Helvetica,sans-Serif" font-size="10.00">/src/analyses/goto_rw.cpp</text>
</a>
</g>
</g>
<!-- Node1&#45;&gt;Node4 -->
<g id="edge3" class="edge">
<title>Node1&#45;&gt;Node4</title>
<path fill="none" stroke="midnightblue" d="M3571.03,-108.34C3060.53,-105.13 942.32,-89.66 648.5,-53 637.12,-51.58 625.2,-49.46 613.59,-47.04"/>
<polygon fill="midnightblue" stroke="midnightblue" points="3571.32,-111.85 3581.34,-108.41 3571.36,-104.85 3571.32,-111.85"/>
</g>
<!-- Node5 -->
<g id="node5" class="node">
<title>Node5</title>
<g id="a_node5"><a xlink:href="invariant__set_8cpp.html" target="_top" xlink:title=" ">
<polygon fill="none" stroke="black" points="657.5,-6 657.5,-47 857.5,-47 857.5,-6 657.5,-6"/>
<text text-anchor="start" x="665.5" y="-35" font-family="Helvetica,sans-Serif" font-size="10.00">/home/runner/work/cbmc</text>
<text text-anchor="start" x="665.5" y="-24" font-family="Helvetica,sans-Serif" font-size="10.00">&#45;documentation/cbmc&#45;documentation</text>
<text text-anchor="middle" x="757.5" y="-13" font-family="Helvetica,sans-Serif" font-size="10.00">/src/analyses/invariant_set.cpp</text>
</a>
</g>
</g>
<!-- Node1&#45;&gt;Node5 -->
<g id="edge4" class="edge">
<title>Node1&#45;&gt;Node5</title>
<path fill="none" stroke="midnightblue" d="M3571.03,-108.17C3083.63,-104.34 1137.69,-87.03 866.5,-53 855.12,-51.57 843.2,-49.45 831.59,-47.02"/>
<polygon fill="midnightblue" stroke="midnightblue" points="3571.21,-111.68 3581.23,-108.25 3571.26,-104.68 3571.21,-111.68"/>
</g>
<!-- Node6 -->
<g id="node6" class="node">
<title>Node6</title>
<g id="a_node6"><a xlink:href="local__may__alias_8cpp.html" target="_top" xlink:title=" ">
<polygon fill="none" stroke="black" points="875.5,-6 875.5,-47 1075.5,-47 1075.5,-6 875.5,-6"/>
<text text-anchor="start" x="883.5" y="-35" font-family="Helvetica,sans-Serif" font-size="10.00">/home/runner/work/cbmc</text>
<text text-anchor="start" x="883.5" y="-24" font-family="Helvetica,sans-Serif" font-size="10.00">&#45;documentation/cbmc&#45;documentation</text>
<text text-anchor="middle" x="975.5" y="-13" font-family="Helvetica,sans-Serif" font-size="10.00">/src/analyses/local_may_alias.cpp</text>
</a>
</g>
</g>
<!-- Node1&#45;&gt;Node6 -->
<g id="edge5" class="edge">
<title>Node1&#45;&gt;Node6</title>
<path fill="none" stroke="midnightblue" d="M3571.25,-107.98C3108.19,-103.5 1333.15,-84.42 1084.5,-53 1073.12,-51.56 1061.2,-49.43 1049.59,-47.01"/>
<polygon fill="midnightblue" stroke="midnightblue" points="3571.25,-111.48 3581.28,-108.07 3571.32,-104.48 3571.25,-111.48"/>
</g>
<!-- Node7 -->
<g id="node7" class="node">
<title>Node7</title>
<g id="a_node7"><a xlink:href="constant__abstract__value_8cpp.html" target="_top" xlink:title=" ">
<polygon fill="none" stroke="black" points="1093.5,-0.5 1093.5,-52.5 1293.5,-52.5 1293.5,-0.5 1093.5,-0.5"/>
<text text-anchor="start" x="1101.5" y="-40.5" font-family="Helvetica,sans-Serif" font-size="10.00">/home/runner/work/cbmc</text>
<text text-anchor="start" x="1101.5" y="-29.5" font-family="Helvetica,sans-Serif" font-size="10.00">&#45;documentation/cbmc&#45;documentation</text>
<text text-anchor="start" x="1101.5" y="-18.5" font-family="Helvetica,sans-Serif" font-size="10.00">/src/analyses/variable&#45;sensitivity</text>
<text text-anchor="middle" x="1193.5" y="-7.5" font-family="Helvetica,sans-Serif" font-size="10.00">/constant_abstract_value.cpp</text>
</a>
</g>
</g>
<!-- Node1&#45;&gt;Node7 -->
<g id="edge6" class="edge">
<title>Node1&#45;&gt;Node7</title>
<path fill="none" stroke="midnightblue" d="M3571.05,-109.42C3164.23,-110.5 1749.84,-109.97 1302.5,-53 1299.61,-52.63 1296.68,-52.22 1293.73,-51.77"/>
<polygon fill="midnightblue" stroke="midnightblue" points="3571.35,-112.92 3581.34,-109.39 3571.34,-105.92 3571.35,-112.92"/>
</g>
<!-- Node8 -->
<g id="node8" class="node">
<title>Node8</title>
<g id="a_node8"><a xlink:href="variable__sensitivity__dependence__graph_8cpp.html" target="_top" xlink:title=" ">
<polygon fill="none" stroke="black" points="1312,-0.5 1312,-52.5 1545,-52.5 1545,-0.5 1312,-0.5"/>
<text text-anchor="start" x="1320" y="-40.5" font-family="Helvetica,sans-Serif" font-size="10.00">/home/runner/work/cbmc</text>
<text text-anchor="start" x="1320" y="-29.5" font-family="Helvetica,sans-Serif" font-size="10.00">&#45;documentation/cbmc&#45;documentation</text>
<text text-anchor="start" x="1320" y="-18.5" font-family="Helvetica,sans-Serif" font-size="10.00">/src/analyses/variable&#45;sensitivity</text>
<text text-anchor="middle" x="1428.5" y="-7.5" font-family="Helvetica,sans-Serif" font-size="10.00">/variable_sensitivity_dependence_graph.cpp</text>
</a>
</g>
</g>
<!-- Node1&#45;&gt;Node8 -->
<g id="edge7" class="edge">
<title>Node1&#45;&gt;Node8</title>
<path fill="none" stroke="midnightblue" d="M3571.14,-108.62C3192.97,-106.93 1950.96,-97.99 1554.5,-53 1551.4,-52.65 1548.25,-52.26 1545.09,-51.83"/>
<polygon fill="midnightblue" stroke="midnightblue" points="3571.25,-112.12 3581.26,-108.67 3571.28,-105.12 3571.25,-112.12"/>
</g>
<!-- Node9 -->
<g id="node9" class="node">
<title>Node9</title>
<g id="a_node9"><a xlink:href="c__test__input__generator_8cpp.html" target="_top" xlink:title=" ">
<polygon fill="none" stroke="black" points="1563.5,-6 1563.5,-47 1763.5,-47 1763.5,-6 1563.5,-6"/>
<text text-anchor="start" x="1571.5" y="-35" font-family="Helvetica,sans-Serif" font-size="10.00">/home/runner/work/cbmc</text>
<text text-anchor="start" x="1571.5" y="-24" font-family="Helvetica,sans-Serif" font-size="10.00">&#45;documentation/cbmc&#45;documentation</text>
<text text-anchor="middle" x="1663.5" y="-13" font-family="Helvetica,sans-Serif" font-size="10.00">/src/cbmc/c_test_input_generator.cpp</text>
</a>
</g>
</g>
<!-- Node1&#45;&gt;Node9 -->
<g id="edge8" class="edge">
<title>Node1&#45;&gt;Node9</title>
<path fill="none" stroke="midnightblue" d="M3571.16,-108.67C3218.9,-107.15 2123.82,-98.78 1772.5,-53 1761.32,-51.54 1749.61,-49.44 1738.19,-47.05"/>
<polygon fill="midnightblue" stroke="midnightblue" points="3571.35,-112.17 3581.37,-108.71 3571.38,-105.17 3571.35,-112.17"/>
</g>
<!-- Node10 -->
<g id="node10" class="node">
<title>Node10</title>
<g id="a_node10"><a xlink:href="symex__coverage_8cpp.html" target="_top" xlink:title=" ">
<polygon fill="none" stroke="black" points="1781.5,-6 1781.5,-47 1987.5,-47 1987.5,-6 1781.5,-6"/>
<text text-anchor="start" x="1789.5" y="-35" font-family="Helvetica,sans-Serif" font-size="10.00">/home/runner/work/cbmc</text>
<text text-anchor="start" x="1789.5" y="-24" font-family="Helvetica,sans-Serif" font-size="10.00">&#45;documentation/cbmc&#45;documentation</text>
<text text-anchor="middle" x="1884.5" y="-13" font-family="Helvetica,sans-Serif" font-size="10.00">/src/goto&#45;checker/symex_coverage.cpp</text>
</a>
</g>
</g>
<!-- Node1&#45;&gt;Node10 -->
<g id="edge9" class="edge">
<title>Node1&#45;&gt;Node10</title>
<path fill="none" stroke="midnightblue" d="M3570.96,-108.08C3246.82,-104.93 2302.42,-92.54 1996.5,-53 1985.03,-51.52 1973.01,-49.4 1961.27,-47.01"/>
<polygon fill="midnightblue" stroke="midnightblue" points="3571.26,-111.58 3581.29,-108.18 3571.33,-104.58 3571.26,-111.58"/>
</g>
<!-- Node11 -->
<g id="node11" class="node">
<title>Node11</title>
<g id="a_node11"><a xlink:href="call__sequences_8cpp.html" target="_top" xlink:title=" ">
<polygon fill="none" stroke="black" points="2006,-6 2006,-47 2219,-47 2219,-6 2006,-6"/>
<text text-anchor="start" x="2014" y="-35" font-family="Helvetica,sans-Serif" font-size="10.00">/home/runner/work/cbmc</text>
<text text-anchor="start" x="2014" y="-24" font-family="Helvetica,sans-Serif" font-size="10.00">&#45;documentation/cbmc&#45;documentation</text>
<text text-anchor="middle" x="2112.5" y="-13" font-family="Helvetica,sans-Serif" font-size="10.00">/src/goto&#45;instrument/call_sequences.cpp</text>
</a>
</g>
</g>
<!-- Node1&#45;&gt;Node11 -->
<g id="edge10" class="edge">
<title>Node1&#45;&gt;Node11</title>
<path fill="none" stroke="midnightblue" d="M3571.12,-107.29C3278.53,-102.34 2487.79,-86.23 2228.5,-53 2216.74,-51.49 2204.41,-49.38 2192.36,-47"/>
<polygon fill="midnightblue" stroke="midnightblue" points="3571.26,-110.79 3581.31,-107.46 3571.37,-103.79 3571.26,-110.79"/>
</g>
<!-- Node12 -->
<g id="node12" class="node">
<title>Node12</title>
<g id="a_node12"><a xlink:href="contracts_8cpp.html" target="_top" xlink:title=" ">
<polygon fill="none" stroke="black" points="2237.5,-0.5 2237.5,-52.5 2437.5,-52.5 2437.5,-0.5 2237.5,-0.5"/>
<text text-anchor="start" x="2245.5" y="-40.5" font-family="Helvetica,sans-Serif" font-size="10.00">/home/runner/work/cbmc</text>
<text text-anchor="start" x="2245.5" y="-29.5" font-family="Helvetica,sans-Serif" font-size="10.00">&#45;documentation/cbmc&#45;documentation</text>
<text text-anchor="start" x="2245.5" y="-18.5" font-family="Helvetica,sans-Serif" font-size="10.00">/src/goto&#45;instrument/contracts</text>
<text text-anchor="middle" x="2337.5" y="-7.5" font-family="Helvetica,sans-Serif" font-size="10.00">/contracts.cpp</text>
</a>
</g>
</g>
<!-- Node1&#45;&gt;Node12 -->
<g id="edge11" class="edge">
<title>Node1&#45;&gt;Node12</title>
<path fill="none" stroke="midnightblue" d="M3571.08,-106.6C3310.29,-100.52 2661.94,-82.82 2446.5,-53 2443.61,-52.6 2440.69,-52.16 2437.74,-51.68"/>
<polygon fill="midnightblue" stroke="midnightblue" points="3571.25,-110.11 3581.32,-106.84 3571.41,-103.11 3571.25,-110.11"/>
</g>
<!-- Node13 -->
<g id="node13" class="node">
<title>Node13</title>
<g id="a_node13"><a xlink:href="havoc__assigns__clause__targets_8cpp.html" target="_top" xlink:title=" ">
<polygon fill="none" stroke="black" points="2455.5,-0.5 2455.5,-52.5 2655.5,-52.5 2655.5,-0.5 2455.5,-0.5"/>
<text text-anchor="start" x="2463.5" y="-40.5" font-family="Helvetica,sans-Serif" font-size="10.00">/home/runner/work/cbmc</text>
<text text-anchor="start" x="2463.5" y="-29.5" font-family="Helvetica,sans-Serif" font-size="10.00">&#45;documentation/cbmc&#45;documentation</text>
<text text-anchor="start" x="2463.5" y="-18.5" font-family="Helvetica,sans-Serif" font-size="10.00">/src/goto&#45;instrument/contracts</text>
<text text-anchor="middle" x="2555.5" y="-7.5" font-family="Helvetica,sans-Serif" font-size="10.00">/havoc_assigns_clause_targets.cpp</text>
</a>
</g>
</g>
<!-- Node1&#45;&gt;Node13 -->
<g id="edge12" class="edge">
<title>Node1&#45;&gt;Node13</title>
<path fill="none" stroke="midnightblue" d="M3571.19,-109.22C3383.85,-108.19 2991.93,-99.95 2664.5,-53 2661.61,-52.59 2658.69,-52.13 2655.75,-51.65"/>
<polygon fill="midnightblue" stroke="midnightblue" points="3571.31,-112.72 3581.33,-109.27 3571.34,-105.72 3571.31,-112.72"/>
</g>
<!-- Node14 -->
<g id="node14" class="node">
<title>Node14</title>
<g id="a_node14"><a xlink:href="instrument__spec__assigns_8cpp.html" target="_top" xlink:title=" ">
<polygon fill="none" stroke="black" points="2673.5,-0.5 2673.5,-52.5 2873.5,-52.5 2873.5,-0.5 2673.5,-0.5"/>
<text text-anchor="start" x="2681.5" y="-40.5" font-family="Helvetica,sans-Serif" font-size="10.00">/home/runner/work/cbmc</text>
<text text-anchor="start" x="2681.5" y="-29.5" font-family="Helvetica,sans-Serif" font-size="10.00">&#45;documentation/cbmc&#45;documentation</text>
<text text-anchor="start" x="2681.5" y="-18.5" font-family="Helvetica,sans-Serif" font-size="10.00">/src/goto&#45;instrument/contracts</text>
<text text-anchor="middle" x="2773.5" y="-7.5" font-family="Helvetica,sans-Serif" font-size="10.00">/instrument_spec_assigns.cpp</text>
</a>
</g>
</g>
<!-- Node1&#45;&gt;Node14 -->
<g id="edge13" class="edge">
<title>Node1&#45;&gt;Node14</title>
<path fill="none" stroke="midnightblue" d="M3570.83,-106.82C3416.04,-102.52 3126.45,-89.84 2882.5,-53 2879.62,-52.56 2876.7,-52.09 2873.76,-51.59"/>
<polygon fill="midnightblue" stroke="midnightblue" points="3571.2,-110.34 3581.29,-107.11 3571.39,-103.34 3571.2,-110.34"/>
</g>
<!-- Node15 -->
<g id="node15" class="node">
<title>Node15</title>
<g id="a_node15"><a xlink:href="utils_8cpp.html" target="_top" xlink:title=" ">
<polygon fill="none" stroke="black" points="2891.5,-0.5 2891.5,-52.5 3091.5,-52.5 3091.5,-0.5 2891.5,-0.5"/>
<text text-anchor="start" x="2899.5" y="-40.5" font-family="Helvetica,sans-Serif" font-size="10.00">/home/runner/work/cbmc</text>
<text text-anchor="start" x="2899.5" y="-29.5" font-family="Helvetica,sans-Serif" font-size="10.00">&#45;documentation/cbmc&#45;documentation</text>
<text text-anchor="start" x="2899.5" y="-18.5" font-family="Helvetica,sans-Serif" font-size="10.00">/src/goto&#45;instrument/contracts</text>
<text text-anchor="middle" x="2991.5" y="-7.5" font-family="Helvetica,sans-Serif" font-size="10.00">/utils.cpp</text>
</a>
</g>
</g>
<!-- Node1&#45;&gt;Node15 -->
<g id="edge14" class="edge">
<title>Node1&#45;&gt;Node15</title>
<path fill="none" stroke="midnightblue" d="M3571.19,-102.77C3453.89,-95.13 3263.25,-79.76 3100.5,-53 3097.62,-52.53 3094.71,-52.02 3091.77,-51.49"/>
<polygon fill="midnightblue" stroke="midnightblue" points="3571.05,-106.27 3581.25,-103.42 3571.5,-99.29 3571.05,-106.27"/>
</g>
<!-- Node16 -->
<g id="node16" class="node">
<title>Node16</title>
<g id="a_node16"><a xlink:href="cover__instrument__condition_8cpp.html" target="_top" xlink:title=" ">
<polygon fill="none" stroke="black" points="3109.5,-0.5 3109.5,-52.5 3313.5,-52.5 3313.5,-0.5 3109.5,-0.5"/>
<text text-anchor="start" x="3117.5" y="-40.5" font-family="Helvetica,sans-Serif" font-size="10.00">/home/runner/work/cbmc</text>
<text text-anchor="start" x="3117.5" y="-29.5" font-family="Helvetica,sans-Serif" font-size="10.00">&#45;documentation/cbmc&#45;documentation</text>
<text text-anchor="start" x="3117.5" y="-18.5" font-family="Helvetica,sans-Serif" font-size="10.00">/src/goto&#45;instrument/cover_instrument</text>
<text text-anchor="middle" x="3211.5" y="-7.5" font-family="Helvetica,sans-Serif" font-size="10.00">_condition.cpp</text>
</a>
</g>
</g>
<!-- Node1&#45;&gt;Node16 -->
<g id="edge15" class="edge">
<title>Node1&#45;&gt;Node16</title>
<path fill="none" stroke="midnightblue" d="M3571.03,-93.84C3499.85,-83.56 3405.45,-68.98 3322.5,-53 3319.59,-52.44 3316.64,-51.86 3313.66,-51.26"/>
<polygon fill="midnightblue" stroke="midnightblue" points="3570.96,-97.37 3581.36,-95.32 3571.96,-90.44 3570.96,-97.37"/>
</g>
<!-- Node17 -->
<g id="node17" class="node">
<title>Node17</title>
<g id="a_node17"><a xlink:href="cover__instrument__decision_8cpp.html" target="_top" xlink:title=" ">
<polygon fill="none" stroke="black" points="3331.5,-0.5 3331.5,-52.5 3535.5,-52.5 3535.5,-0.5 3331.5,-0.5"/>
<text text-anchor="start" x="3339.5" y="-40.5" font-family="Helvetica,sans-Serif" font-size="10.00">/home/runner/work/cbmc</text>
<text text-anchor="start" x="3339.5" y="-29.5" font-family="Helvetica,sans-Serif" font-size="10.00">&#45;documentation/cbmc&#45;documentation</text>
<text text-anchor="start" x="3339.5" y="-18.5" font-family="Helvetica,sans-Serif" font-size="10.00">/src/goto&#45;instrument/cover_instrument</text>
<text text-anchor="middle" x="3433.5" y="-7.5" font-family="Helvetica,sans-Serif" font-size="10.00">_decision.cpp</text>
</a>
</g>
</g>
<!-- Node1&#45;&gt;Node17 -->
<g id="edge16" class="edge">
<title>Node1&#45;&gt;Node17</title>
<path fill="none" stroke="midnightblue" d="M3612.41,-86.29C3580.51,-75.81 3542.54,-63.33 3509.81,-52.58"/>
<polygon fill="midnightblue" stroke="midnightblue" points="3611.5,-89.68 3622.1,-89.48 3613.69,-83.03 3611.5,-89.68"/>
</g>
<!-- Node18 -->
<g id="node18" class="node">
<title>Node18</title>
<g id="a_node18"><a xlink:href="cover__instrument__mcdc_8cpp.html" target="_top" xlink:title=" ">
<polygon fill="none" stroke="black" points="3553.5,-6 3553.5,-47 3809.5,-47 3809.5,-6 3553.5,-6"/>
<text text-anchor="start" x="3561.5" y="-35" font-family="Helvetica,sans-Serif" font-size="10.00">/home/runner/work/cbmc</text>
<text text-anchor="start" x="3561.5" y="-24" font-family="Helvetica,sans-Serif" font-size="10.00">&#45;documentation/cbmc&#45;documentation</text>
<text text-anchor="middle" x="3681.5" y="-13" font-family="Helvetica,sans-Serif" font-size="10.00">/src/goto&#45;instrument/cover_instrument_mcdc.cpp</text>
</a>
</g>
</g>
<!-- Node1&#45;&gt;Node18 -->
<g id="edge17" class="edge">
<title>Node1&#45;&gt;Node18</title>
<path fill="none" stroke="midnightblue" d="M3681.5,-79.06C3681.5,-68.38 3681.5,-56.63 3681.5,-47.05"/>
<polygon fill="midnightblue" stroke="midnightblue" points="3678,-79.27 3681.5,-89.27 3685,-79.27 3678,-79.27"/>
</g>
<!-- Node19 -->
<g id="node19" class="node">
<title>Node19</title>
<g id="a_node19"><a xlink:href="cover__instrument__other_8cpp.html" target="_top" xlink:title=" ">
<polygon fill="none" stroke="black" points="3827.5,-0.5 3827.5,-52.5 4031.5,-52.5 4031.5,-0.5 3827.5,-0.5"/>
<text text-anchor="start" x="3835.5" y="-40.5" font-family="Helvetica,sans-Serif" font-size="10.00">/home/runner/work/cbmc</text>
<text text-anchor="start" x="3835.5" y="-29.5" font-family="Helvetica,sans-Serif" font-size="10.00">&#45;documentation/cbmc&#45;documentation</text>
<text text-anchor="start" x="3835.5" y="-18.5" font-family="Helvetica,sans-Serif" font-size="10.00">/src/goto&#45;instrument/cover_instrument</text>
<text text-anchor="middle" x="3929.5" y="-7.5" font-family="Helvetica,sans-Serif" font-size="10.00">_other.cpp</text>
</a>
</g>
</g>
<!-- Node1&#45;&gt;Node19 -->
<g id="edge18" class="edge">
<title>Node1&#45;&gt;Node19</title>
<path fill="none" stroke="midnightblue" d="M3750.59,-86.29C3782.49,-75.81 3820.46,-63.33 3853.19,-52.58"/>
<polygon fill="midnightblue" stroke="midnightblue" points="3749.31,-83.03 3740.9,-89.48 3751.5,-89.68 3749.31,-83.03"/>
</g>
<!-- Node20 -->
<g id="node20" class="node">
<title>Node20</title>
<g id="a_node20"><a xlink:href="dot_8cpp.html" target="_top" xlink:title=" ">
<polygon fill="none" stroke="black" points="4049.5,-6 4049.5,-47 4249.5,-47 4249.5,-6 4049.5,-6"/>
<text text-anchor="start" x="4057.5" y="-35" font-family="Helvetica,sans-Serif" font-size="10.00">/home/runner/work/cbmc</text>
<text text-anchor="start" x="4057.5" y="-24" font-family="Helvetica,sans-Serif" font-size="10.00">&#45;documentation/cbmc&#45;documentation</text>
<text text-anchor="middle" x="4149.5" y="-13" font-family="Helvetica,sans-Serif" font-size="10.00">/src/goto&#45;instrument/dot.cpp</text>
</a>
</g>
</g>
<!-- Node1&#45;&gt;Node20 -->
<g id="edge19" class="edge">
<title>Node1&#45;&gt;Node20</title>
<path fill="none" stroke="midnightblue" d="M3792,-93.95C3863.18,-83.72 3957.58,-69.14 4040.5,-53 4049.75,-51.2 4059.41,-49.16 4068.99,-47.05"/>
<polygon fill="midnightblue" stroke="midnightblue" points="3791.07,-90.55 3781.66,-95.43 3792.06,-97.48 3791.07,-90.55"/>
</g>
<!-- Node21 -->
<g id="node21" class="node">
<title>Node21</title>
<g id="a_node21"><a xlink:href="rw__set_8cpp.html" target="_top" xlink:title=" ">
<polygon fill="none" stroke="black" points="4267.5,-6 4267.5,-47 4467.5,-47 4467.5,-6 4267.5,-6"/>
<text text-anchor="start" x="4275.5" y="-35" font-family="Helvetica,sans-Serif" font-size="10.00">/home/runner/work/cbmc</text>
<text text-anchor="start" x="4275.5" y="-24" font-family="Helvetica,sans-Serif" font-size="10.00">&#45;documentation/cbmc&#45;documentation</text>
<text text-anchor="middle" x="4367.5" y="-13" font-family="Helvetica,sans-Serif" font-size="10.00">/src/goto&#45;instrument/rw_set.cpp</text>
</a>
</g>
</g>
<!-- Node1&#45;&gt;Node21 -->
<g id="edge20" class="edge">
<title>Node1&#45;&gt;Node21</title>
<path fill="none" stroke="midnightblue" d="M3791.58,-102.69C3908.1,-94.99 4097.11,-79.59 4258.5,-53 4268.66,-51.33 4279.29,-49.25 4289.75,-47.02"/>
<polygon fill="midnightblue" stroke="midnightblue" points="3791.33,-99.2 3781.58,-103.34 3791.78,-106.18 3791.33,-99.2"/>
</g>
<!-- Node22 -->
<g id="node22" class="node">
<title>Node22</title>
<g id="a_node22"><a xlink:href="builtin__functions_8cpp.html" target="_top" xlink:title=" ">
<polygon fill="none" stroke="black" points="4486,-6 4486,-47 4699,-47 4699,-6 4486,-6"/>
<text text-anchor="start" x="4494" y="-35" font-family="Helvetica,sans-Serif" font-size="10.00">/home/runner/work/cbmc</text>
<text text-anchor="start" x="4494" y="-24" font-family="Helvetica,sans-Serif" font-size="10.00">&#45;documentation/cbmc&#45;documentation</text>
<text text-anchor="middle" x="4592.5" y="-13" font-family="Helvetica,sans-Serif" font-size="10.00">/src/goto&#45;programs/builtin_functions.cpp</text>
</a>
</g>
</g>
<!-- Node1&#45;&gt;Node22 -->
<g id="edge21" class="edge">
<title>Node1&#45;&gt;Node22</title>
<path fill="none" stroke="midnightblue" d="M3792.18,-106.3C3946.28,-101.39 4233.86,-88.02 4476.5,-53 4487.62,-51.39 4499.27,-49.32 4510.71,-47.04"/>
<polygon fill="midnightblue" stroke="midnightblue" points="3791.66,-102.82 3781.77,-106.63 3791.88,-109.81 3791.66,-102.82"/>
</g>
<!-- Node23 -->
<g id="node23" class="node">
<title>Node23</title>
<g id="a_node23"><a xlink:href="goto__program_8cpp.html" target="_top" xlink:title=" ">
<polygon fill="none" stroke="black" points="4717.5,-6 4717.5,-47 4917.5,-47 4917.5,-6 4717.5,-6"/>
<text text-anchor="start" x="4725.5" y="-35" font-family="Helvetica,sans-Serif" font-size="10.00">/home/runner/work/cbmc</text>
<text text-anchor="start" x="4725.5" y="-24" font-family="Helvetica,sans-Serif" font-size="10.00">&#45;documentation/cbmc&#45;documentation</text>
<text text-anchor="middle" x="4817.5" y="-13" font-family="Helvetica,sans-Serif" font-size="10.00">/src/goto&#45;programs/goto_program.cpp</text>
</a>
</g>
</g>
<!-- Node1&#45;&gt;Node23 -->
<g id="edge22" class="edge">
<title>Node1&#45;&gt;Node23</title>
<path fill="none" stroke="midnightblue" d="M3791.78,-109.3C3980.52,-108.42 4377.2,-100.41 4708.5,-53 4719.27,-51.46 4730.55,-49.37 4741.59,-47.05"/>
<polygon fill="midnightblue" stroke="midnightblue" points="3791.56,-105.8 3781.57,-109.35 3791.58,-112.8 3791.56,-105.8"/>
</g>
<!-- Node24 -->
<g id="node24" class="node">
<title>Node24</title>
<g id="a_node24"><a xlink:href="goto__trace_8cpp.html" target="_top" xlink:title=" ">
<polygon fill="none" stroke="black" points="4935.5,-6 4935.5,-47 5135.5,-47 5135.5,-6 4935.5,-6"/>
<text text-anchor="start" x="4943.5" y="-35" font-family="Helvetica,sans-Serif" font-size="10.00">/home/runner/work/cbmc</text>
<text text-anchor="start" x="4943.5" y="-24" font-family="Helvetica,sans-Serif" font-size="10.00">&#45;documentation/cbmc&#45;documentation</text>
<text text-anchor="middle" x="5035.5" y="-13" font-family="Helvetica,sans-Serif" font-size="10.00">/src/goto&#45;programs/goto_trace.cpp</text>
</a>
</g>
</g>
<!-- Node1&#45;&gt;Node24 -->
<g id="edge23" class="edge">
<title>Node1&#45;&gt;Node24</title>
<path fill="none" stroke="midnightblue" d="M3791.85,-106.65C4054.12,-100.65 4709.05,-83.06 4926.5,-53 4937.47,-51.48 4948.96,-49.38 4960.2,-47.02"/>
<polygon fill="midnightblue" stroke="midnightblue" points="3791.47,-103.16 3781.55,-106.89 3791.63,-110.16 3791.47,-103.16"/>
</g>
<!-- Node25 -->
<g id="node25" class="node">
<title>Node25</title>
<g id="a_node25"><a xlink:href="graphml__witness_8cpp.html" target="_top" xlink:title=" ">
<polygon fill="none" stroke="black" points="5154,-6 5154,-47 5369,-47 5369,-6 5154,-6"/>
<text text-anchor="start" x="5162" y="-35" font-family="Helvetica,sans-Serif" font-size="10.00">/home/runner/work/cbmc</text>
<text text-anchor="start" x="5162" y="-24" font-family="Helvetica,sans-Serif" font-size="10.00">&#45;documentation/cbmc&#45;documentation</text>
<text text-anchor="middle" x="5261.5" y="-13" font-family="Helvetica,sans-Serif" font-size="10.00">/src/goto&#45;programs/graphml_witness.cpp</text>
</a>
</g>
</g>
<!-- Node1&#45;&gt;Node25 -->
<g id="edge24" class="edge">
<title>Node1&#45;&gt;Node25</title>
<path fill="none" stroke="midnightblue" d="M3791.85,-107.3C4085.81,-102.36 4883.16,-86.22 5144.5,-53 5156.26,-51.51 5168.58,-49.41 5180.63,-47.06"/>
<polygon fill="midnightblue" stroke="midnightblue" points="3791.55,-103.8 3781.61,-107.47 3791.66,-110.8 3791.55,-103.8"/>
</g>
<!-- Node26 -->
<g id="node26" class="node">
<title>Node26</title>
<g id="a_node26"><a xlink:href="interpreter__evaluate_8cpp.html" target="_top" xlink:title=" ">
<polygon fill="none" stroke="black" points="5387.5,-0.5 5387.5,-52.5 5587.5,-52.5 5587.5,-0.5 5387.5,-0.5"/>
<text text-anchor="start" x="5395.5" y="-40.5" font-family="Helvetica,sans-Serif" font-size="10.00">/home/runner/work/cbmc</text>
<text text-anchor="start" x="5395.5" y="-29.5" font-family="Helvetica,sans-Serif" font-size="10.00">&#45;documentation/cbmc&#45;documentation</text>
<text text-anchor="start" x="5395.5" y="-18.5" font-family="Helvetica,sans-Serif" font-size="10.00">/src/goto&#45;programs/interpreter</text>
<text text-anchor="middle" x="5487.5" y="-7.5" font-family="Helvetica,sans-Serif" font-size="10.00">_evaluate.cpp</text>
</a>
</g>
</g>
<!-- Node1&#45;&gt;Node26 -->
<g id="edge25" class="edge">
<title>Node1&#45;&gt;Node26</title>
<path fill="none" stroke="midnightblue" d="M3791.98,-108.19C4117.64,-105.36 5070.25,-93.74 5378.5,-53 5381.39,-52.62 5384.32,-52.19 5387.26,-51.73"/>
<polygon fill="midnightblue" stroke="midnightblue" points="3791.57,-104.7 3781.6,-108.28 3791.63,-111.7 3791.57,-104.7"/>
</g>
<!-- Node27 -->
<g id="node27" class="node">
<title>Node27</title>
<g id="a_node27"><a xlink:href="json__goto__trace_8cpp.html" target="_top" xlink:title=" ">
<polygon fill="none" stroke="black" points="5605.5,-0.5 5605.5,-52.5 5805.5,-52.5 5805.5,-0.5 5605.5,-0.5"/>
<text text-anchor="start" x="5613.5" y="-40.5" font-family="Helvetica,sans-Serif" font-size="10.00">/home/runner/work/cbmc</text>
<text text-anchor="start" x="5613.5" y="-29.5" font-family="Helvetica,sans-Serif" font-size="10.00">&#45;documentation/cbmc&#45;documentation</text>
<text text-anchor="start" x="5613.5" y="-18.5" font-family="Helvetica,sans-Serif" font-size="10.00">/src/goto&#45;programs/json_goto</text>
<text text-anchor="middle" x="5705.5" y="-7.5" font-family="Helvetica,sans-Serif" font-size="10.00">_trace.cpp</text>
</a>
</g>
</g>
<!-- Node1&#45;&gt;Node27 -->
<g id="edge26" class="edge">
<title>Node1&#45;&gt;Node27</title>
<path fill="none" stroke="midnightblue" d="M3791.88,-108.68C4144.91,-107.2 5243.98,-98.92 5596.5,-53 5599.39,-52.62 5602.32,-52.2 5605.26,-51.75"/>
<polygon fill="midnightblue" stroke="midnightblue" points="3791.64,-105.18 3781.65,-108.72 3791.67,-112.18 3791.64,-105.18"/>
</g>
<!-- Node28 -->
<g id="node28" class="node">
<title>Node28</title>
<g id="a_node28"><a xlink:href="show__properties_8cpp.html" target="_top" xlink:title=" ">
<polygon fill="none" stroke="black" points="5823.5,-6 5823.5,-47 6035.5,-47 6035.5,-6 5823.5,-6"/>
<text text-anchor="start" x="5831.5" y="-35" font-family="Helvetica,sans-Serif" font-size="10.00">/home/runner/work/cbmc</text>
<text text-anchor="start" x="5831.5" y="-24" font-family="Helvetica,sans-Serif" font-size="10.00">&#45;documentation/cbmc&#45;documentation</text>
<text text-anchor="middle" x="5929.5" y="-13" font-family="Helvetica,sans-Serif" font-size="10.00">/src/goto&#45;programs/show_properties.cpp</text>
</a>
</g>
</g>
<!-- Node1&#45;&gt;Node28 -->
<g id="edge27" class="edge">
<title>Node1&#45;&gt;Node28</title>
<path fill="none" stroke="midnightblue" d="M3791.88,-108.9C4170.83,-108.12 5417.24,-101.8 5814.5,-53 5826.37,-51.54 5838.83,-49.42 5850.97,-47.01"/>
<polygon fill="midnightblue" stroke="midnightblue" points="3791.73,-105.4 3781.73,-108.92 3791.74,-112.4 3791.73,-105.4"/>
</g>
<!-- Node29 -->
<g id="node29" class="node">
<title>Node29</title>
<g id="a_node29"><a xlink:href="xml__goto__trace_8cpp.html" target="_top" xlink:title=" ">
<polygon fill="none" stroke="black" points="6053.5,-6 6053.5,-47 6261.5,-47 6261.5,-6 6053.5,-6"/>
<text text-anchor="start" x="6061.5" y="-35" font-family="Helvetica,sans-Serif" font-size="10.00">/home/runner/work/cbmc</text>
<text text-anchor="start" x="6061.5" y="-24" font-family="Helvetica,sans-Serif" font-size="10.00">&#45;documentation/cbmc&#45;documentation</text>
<text text-anchor="middle" x="6157.5" y="-13" font-family="Helvetica,sans-Serif" font-size="10.00">/src/goto&#45;programs/xml_goto_trace.cpp</text>
</a>
</g>
</g>
<!-- Node1&#45;&gt;Node29 -->
<g id="edge28" class="edge">
<title>Node1&#45;&gt;Node29</title>
<path fill="none" stroke="midnightblue" d="M3791.88,-109.29C4196.82,-109.88 5600.21,-107.84 6044.5,-53 6056.18,-51.56 6068.42,-49.44 6080.35,-47.04"/>
<polygon fill="midnightblue" stroke="midnightblue" points="3791.64,-105.79 3781.63,-109.27 3791.63,-112.79 3791.64,-105.79"/>
</g>
<!-- Node30 -->
<g id="node30" class="node">
<title>Node30</title>
<g id="a_node30"><a xlink:href="show__program_8cpp.html" target="_top" xlink:title=" ">
<polygon fill="none" stroke="black" points="6279.5,-6 6279.5,-47 6479.5,-47 6479.5,-6 6279.5,-6"/>
<text text-anchor="start" x="6287.5" y="-35" font-family="Helvetica,sans-Serif" font-size="10.00">/home/runner/work/cbmc</text>
<text text-anchor="start" x="6287.5" y="-24" font-family="Helvetica,sans-Serif" font-size="10.00">&#45;documentation/cbmc&#45;documentation</text>
<text text-anchor="middle" x="6379.5" y="-13" font-family="Helvetica,sans-Serif" font-size="10.00">/src/goto&#45;symex/show_program.cpp</text>
</a>
</g>
</g>
<!-- Node1&#45;&gt;Node30 -->
<g id="edge29" class="edge">
<title>Node1&#45;&gt;Node30</title>
<path fill="none" stroke="midnightblue" d="M3791.8,-107.97C4254.04,-103.46 6022.69,-84.32 6270.5,-53 6281.88,-51.56 6293.8,-49.43 6305.41,-47.01"/>
<polygon fill="midnightblue" stroke="midnightblue" points="3791.75,-104.47 3781.78,-108.07 3791.82,-111.47 3791.75,-104.47"/>
</g>
<!-- Node31 -->
<g id="node31" class="node">
<title>Node31</title>
<g id="a_node31"><a xlink:href="symex__goto_8cpp.html" target="_top" xlink:title=" ">
<polygon fill="none" stroke="black" points="6497.5,-6 6497.5,-47 6697.5,-47 6697.5,-6 6497.5,-6"/>
<text text-anchor="start" x="6505.5" y="-35" font-family="Helvetica,sans-Serif" font-size="10.00">/home/runner/work/cbmc</text>
<text text-anchor="start" x="6505.5" y="-24" font-family="Helvetica,sans-Serif" font-size="10.00">&#45;documentation/cbmc&#45;documentation</text>
<text text-anchor="middle" x="6597.5" y="-13" font-family="Helvetica,sans-Serif" font-size="10.00">/src/goto&#45;symex/symex_goto.cpp</text>
</a>
</g>
</g>
<!-- Node1&#45;&gt;Node31 -->
<g id="edge30" class="edge">
<title>Node1&#45;&gt;Node31</title>
<path fill="none" stroke="midnightblue" d="M3792.06,-108.17C4278.75,-104.31 6218.16,-86.94 6488.5,-53 6499.88,-51.57 6511.8,-49.45 6523.41,-47.02"/>
<polygon fill="midnightblue" stroke="midnightblue" points="3791.84,-104.67 3781.87,-108.25 3791.9,-111.67 3791.84,-104.67"/>
</g>
<!-- Node32 -->
<g id="node32" class="node">
<title>Node32</title>
<g id="a_node32"><a xlink:href="language__util_8cpp.html" target="_top" xlink:title=" ">
<polygon fill="none" stroke="black" points="6715.5,-6 6715.5,-47 6915.5,-47 6915.5,-6 6715.5,-6"/>
<text text-anchor="start" x="6723.5" y="-35" font-family="Helvetica,sans-Serif" font-size="10.00">/home/runner/work/cbmc</text>
<text text-anchor="start" x="6723.5" y="-24" font-family="Helvetica,sans-Serif" font-size="10.00">&#45;documentation/cbmc&#45;documentation</text>
<text text-anchor="middle" x="6815.5" y="-13" font-family="Helvetica,sans-Serif" font-size="10.00">/src/langapi/language_util.cpp</text>
</a>
</g>
</g>
<!-- Node1&#45;&gt;Node32 -->
<g id="edge31" class="edge">
<title>Node1&#45;&gt;Node32</title>
<path fill="none" stroke="midnightblue" d="M3792.1,-108.34C4301.99,-105.1 6413.54,-89.56 6706.5,-53 6717.88,-51.58 6729.8,-49.46 6741.41,-47.04"/>
<polygon fill="midnightblue" stroke="midnightblue" points="3791.78,-104.84 3781.8,-108.4 3791.83,-111.84 3791.78,-104.84"/>
</g>
<!-- Node33 -->
<g id="node33" class="node">
<title>Node33</title>
<g id="a_node33"><a xlink:href="linking_8cpp.html" target="_top" xlink:title=" ">
<polygon fill="none" stroke="black" points="6933.5,-6 6933.5,-47 7133.5,-47 7133.5,-6 6933.5,-6"/>
<text text-anchor="start" x="6941.5" y="-35" font-family="Helvetica,sans-Serif" font-size="10.00">/home/runner/work/cbmc</text>
<text text-anchor="start" x="6941.5" y="-24" font-family="Helvetica,sans-Serif" font-size="10.00">&#45;documentation/cbmc&#45;documentation</text>
<text text-anchor="middle" x="7033.5" y="-13" font-family="Helvetica,sans-Serif" font-size="10.00">/src/linking/linking.cpp</text>
</a>
</g>
</g>
<!-- Node1&#45;&gt;Node33 -->
<g id="edge32" class="edge">
<title>Node1&#45;&gt;Node33</title>
<path fill="none" stroke="midnightblue" d="M3792.1,-108.49C4324.29,-105.83 6608.86,-92.19 6924.5,-53 6935.88,-51.59 6947.8,-49.47 6959.42,-47.05"/>
<polygon fill="midnightblue" stroke="midnightblue" points="3791.72,-104.99 3781.74,-108.54 3791.75,-111.99 3791.72,-104.99"/>
</g>
<!-- Node34 -->
<g id="node34" class="node">
<title>Node34</title>
<g id="a_node34"><a xlink:href="value__set__fi_8cpp.html" target="_top" xlink:title=" ">
<polygon fill="none" stroke="black" points="7151.5,-6 7151.5,-47 7351.5,-47 7351.5,-6 7151.5,-6"/>
<text text-anchor="start" x="7159.5" y="-35" font-family="Helvetica,sans-Serif" font-size="10.00">/home/runner/work/cbmc</text>
<text text-anchor="start" x="7159.5" y="-24" font-family="Helvetica,sans-Serif" font-size="10.00">&#45;documentation/cbmc&#45;documentation</text>
<text text-anchor="middle" x="7251.5" y="-13" font-family="Helvetica,sans-Serif" font-size="10.00">/src/pointer&#45;analysis/value_set_fi.cpp</text>
</a>
</g>
</g>
<!-- Node1&#45;&gt;Node34 -->
<g id="edge33" class="edge">
<title>Node1&#45;&gt;Node34</title>
<path fill="none" stroke="midnightblue" d="M3792.19,-108.62C4346.15,-106.5 6804.15,-94.83 7142.5,-53 7153.98,-51.58 7166.01,-49.44 7177.71,-47"/>
<polygon fill="midnightblue" stroke="midnightblue" points="3791.8,-105.12 3781.81,-108.65 3791.83,-112.12 3791.8,-105.12"/>
</g>
</g>
</svg>
