<?xml version="1.0" encoding="UTF-8" standalone="no"?>
<!DOCTYPE svg PUBLIC "-//W3C//DTD SVG 1.1//EN"
 "http://www.w3.org/Graphics/SVG/1.1/DTD/svg11.dtd">
<!-- Generated by graphviz version 2.43.0 (0)
 -->
<!-- Title: /home/runner/work/cbmc&#45;documentation/cbmc&#45;documentation/src/util/lazy.h Pages: 1 -->
<svg width="212pt" height="162pt"
 viewBox="0.00 0.00 211.50 162.00" xmlns="http://www.w3.org/2000/svg" xmlns:xlink="http://www.w3.org/1999/xlink">
<g id="graph0" class="graph" transform="scale(1 1) rotate(0) translate(4 158)">
<title>/home/runner/work/cbmc&#45;documentation/cbmc&#45;documentation/src/util/lazy.h</title>
<!-- Node1 -->
<g id="node1" class="node">
<title>Node1</title>
<g id="a_node1"><a xlink:title=" ">
<polygon fill="#bfbfbf" stroke="black" points="0,-112.5 0,-153.5 200,-153.5 200,-112.5 0,-112.5"/>
<text text-anchor="start" x="8" y="-141.5" font-family="Helvetica,sans-Serif" font-size="10.00">/home/runner/work/cbmc</text>
<text text-anchor="start" x="8" y="-130.5" font-family="Helvetica,sans-Serif" font-size="10.00">&#45;documentation/cbmc&#45;documentation</text>
<text text-anchor="middle" x="100" y="-119.5" font-family="Helvetica,sans-Serif" font-size="10.00">/src/util/lazy.h</text>
</a>
</g>
</g>
<!-- Node2 -->
<g id="node2" class="node">
<title>Node2</title>
<g id="a_node2"><a xlink:title=" ">
<polygon fill="none" stroke="#bfbfbf" points="21.5,-56.5 21.5,-75.5 86.5,-75.5 86.5,-56.5 21.5,-56.5"/>
<text text-anchor="middle" x="54" y="-63.5" font-family="Helvetica,sans-Serif" font-size="10.00">functional</text>
</a>
</g>
</g>
<!-- Node1&#45;&gt;Node2 -->
<g id="edge1" class="edge">
<title>Node1&#45;&gt;Node2</title>
<path fill="none" stroke="midnightblue" d="M86.2,-112.5C79.76,-103.39 72.16,-92.66 65.97,-83.91"/>
<polygon fill="midnightblue" stroke="midnightblue" points="68.76,-81.79 60.12,-75.65 63.04,-85.84 68.76,-81.79"/>
</g>
<!-- Node3 -->
<g id="node3" class="node">
<title>Node3</title>
<g id="a_node3"><a xlink:href="optional_8h.html" target="_top" xlink:title=" ">
<polygon fill="none" stroke="black" points="105,-56.5 105,-75.5 189,-75.5 189,-56.5 105,-56.5"/>
<text text-anchor="middle" x="147" y="-63.5" font-family="Helvetica,sans-Serif" font-size="10.00">util/optional.h</text>
</a>
</g>
</g>
<!-- Node1&#45;&gt;Node3 -->
<g id="edge2" class="edge">
<title>Node1&#45;&gt;Node3</title>
<path fill="none" stroke="midnightblue" d="M114.1,-112.5C120.68,-103.39 128.44,-92.66 134.77,-83.91"/>
<polygon fill="midnightblue" stroke="midnightblue" points="137.72,-85.81 140.74,-75.65 132.05,-81.71 137.72,-85.81"/>
</g>
<!-- Node4 -->
<g id="node4" class="node">
<title>Node4</title>
<g id="a_node4"><a xlink:title=" ">
<polygon fill="none" stroke="#bfbfbf" points="90.5,-0.5 90.5,-19.5 203.5,-19.5 203.5,-0.5 90.5,-0.5"/>
<text text-anchor="middle" x="147" y="-7.5" font-family="Helvetica,sans-Serif" font-size="10.00">nonstd/optional.hpp</text>
</a>
</g>
</g>
<!-- Node3&#45;&gt;Node4 -->
<g id="edge3" class="edge">
<title>Node3&#45;&gt;Node4</title>
<path fill="none" stroke="midnightblue" d="M147,-56.08C147,-49.01 147,-38.86 147,-29.99"/>
<polygon fill="midnightblue" stroke="midnightblue" points="150.5,-29.75 147,-19.75 143.5,-29.75 150.5,-29.75"/>
</g>
</g>
</svg>
