<?xml version="1.0" encoding="UTF-8" standalone="no"?>
<!DOCTYPE svg PUBLIC "-//W3C//DTD SVG 1.1//EN"
 "http://www.w3.org/Graphics/SVG/1.1/DTD/svg11.dtd">
<!-- Generated by graphviz version 2.43.0 (0)
 -->
<!-- Title: /home/runner/work/cbmc&#45;documentation/cbmc&#45;documentation/src/util/lispexpr.cpp Pages: 1 -->
<svg width="316pt" height="162pt"
 viewBox="0.00 0.00 315.50 162.00" xmlns="http://www.w3.org/2000/svg" xmlns:xlink="http://www.w3.org/1999/xlink">
<g id="graph0" class="graph" transform="scale(1 1) rotate(0) translate(4 158)">
<title>/home/runner/work/cbmc&#45;documentation/cbmc&#45;documentation/src/util/lispexpr.cpp</title>
<!-- Node1 -->
<g id="node1" class="node">
<title>Node1</title>
<g id="a_node1"><a xlink:title=" ">
<polygon fill="#bfbfbf" stroke="black" points="89.5,-112.5 89.5,-153.5 289.5,-153.5 289.5,-112.5 89.5,-112.5"/>
<text text-anchor="start" x="97.5" y="-141.5" font-family="Helvetica,sans-Serif" font-size="10.00">/home/runner/work/cbmc</text>
<text text-anchor="start" x="97.5" y="-130.5" font-family="Helvetica,sans-Serif" font-size="10.00">&#45;documentation/cbmc&#45;documentation</text>
<text text-anchor="middle" x="189.5" y="-119.5" font-family="Helvetica,sans-Serif" font-size="10.00">/src/util/lispexpr.cpp</text>
</a>
</g>
</g>
<!-- Node2 -->
<g id="node2" class="node">
<title>Node2</title>
<g id="a_node2"><a xlink:href="lispexpr_8h.html" target="_top" xlink:title=" ">
<polygon fill="none" stroke="black" points="67.5,-56.5 67.5,-75.5 131.5,-75.5 131.5,-56.5 67.5,-56.5"/>
<text text-anchor="middle" x="99.5" y="-63.5" font-family="Helvetica,sans-Serif" font-size="10.00">lispexpr.h</text>
</a>
</g>
</g>
<!-- Node1&#45;&gt;Node2 -->
<g id="edge1" class="edge">
<title>Node1&#45;&gt;Node2</title>
<path fill="none" stroke="midnightblue" d="M162.5,-112.5C148.83,-102.63 132.51,-90.84 119.91,-81.74"/>
<polygon fill="midnightblue" stroke="midnightblue" points="121.64,-78.67 111.48,-75.65 117.54,-84.34 121.64,-78.67"/>
</g>
<!-- Node7 -->
<g id="node7" class="node">
<title>Node7</title>
<g id="a_node7"><a xlink:href="string__utils_8h.html" target="_top" xlink:title=" ">
<polygon fill="none" stroke="black" points="149.5,-56.5 149.5,-75.5 229.5,-75.5 229.5,-56.5 149.5,-56.5"/>
<text text-anchor="middle" x="189.5" y="-63.5" font-family="Helvetica,sans-Serif" font-size="10.00">string_utils.h</text>
</a>
</g>
</g>
<!-- Node1&#45;&gt;Node7 -->
<g id="edge6" class="edge">
<title>Node1&#45;&gt;Node7</title>
<path fill="none" stroke="midnightblue" d="M189.5,-112.5C189.5,-104.07 189.5,-94.24 189.5,-85.87"/>
<polygon fill="midnightblue" stroke="midnightblue" points="193,-85.65 189.5,-75.65 186,-85.65 193,-85.65"/>
</g>
<!-- Node8 -->
<g id="node8" class="node">
<title>Node8</title>
<g id="a_node8"><a xlink:title=" ">
<polygon fill="none" stroke="#bfbfbf" points="247.5,-56.5 247.5,-75.5 307.5,-75.5 307.5,-56.5 247.5,-56.5"/>
<text text-anchor="middle" x="277.5" y="-63.5" font-family="Helvetica,sans-Serif" font-size="10.00">iostream</text>
</a>
</g>
</g>
<!-- Node1&#45;&gt;Node8 -->
<g id="edge10" class="edge">
<title>Node1&#45;&gt;Node8</title>
<path fill="none" stroke="midnightblue" d="M215.9,-112.5C229.27,-102.63 245.22,-90.84 257.54,-81.74"/>
<polygon fill="midnightblue" stroke="midnightblue" points="259.82,-84.41 265.79,-75.65 255.66,-78.78 259.82,-84.41"/>
</g>
<!-- Node3 -->
<g id="node3" class="node">
<title>Node3</title>
<g id="a_node3"><a xlink:title=" ">
<polygon fill="none" stroke="#bfbfbf" points="0,-0.5 0,-19.5 59,-19.5 59,-0.5 0,-0.5"/>
<text text-anchor="middle" x="29.5" y="-7.5" font-family="Helvetica,sans-Serif" font-size="10.00">strings.h</text>
</a>
</g>
</g>
<!-- Node2&#45;&gt;Node3 -->
<g id="edge2" class="edge">
<title>Node2&#45;&gt;Node3</title>
<path fill="none" stroke="midnightblue" d="M88.25,-56.32C77.7,-48.18 61.7,-35.84 49.06,-26.09"/>
<polygon fill="midnightblue" stroke="midnightblue" points="51.01,-23.17 40.95,-19.83 46.73,-28.71 51.01,-23.17"/>
</g>
<!-- Node4 -->
<g id="node4" class="node">
<title>Node4</title>
<g id="a_node4"><a xlink:title=" ">
<polygon fill="none" stroke="#bfbfbf" points="77.5,-0.5 77.5,-19.5 121.5,-19.5 121.5,-0.5 77.5,-0.5"/>
<text text-anchor="middle" x="99.5" y="-7.5" font-family="Helvetica,sans-Serif" font-size="10.00">string</text>
</a>
</g>
</g>
<!-- Node2&#45;&gt;Node4 -->
<g id="edge3" class="edge">
<title>Node2&#45;&gt;Node4</title>
<path fill="none" stroke="midnightblue" d="M99.5,-56.08C99.5,-49.01 99.5,-38.86 99.5,-29.99"/>
<polygon fill="midnightblue" stroke="midnightblue" points="103,-29.75 99.5,-19.75 96,-29.75 103,-29.75"/>
</g>
<!-- Node5 -->
<g id="node5" class="node">
<title>Node5</title>
<g id="a_node5"><a xlink:title=" ">
<polygon fill="none" stroke="#bfbfbf" points="140,-0.5 140,-19.5 187,-19.5 187,-0.5 140,-0.5"/>
<text text-anchor="middle" x="163.5" y="-7.5" font-family="Helvetica,sans-Serif" font-size="10.00">vector</text>
</a>
</g>
</g>
<!-- Node2&#45;&gt;Node5 -->
<g id="edge4" class="edge">
<title>Node2&#45;&gt;Node5</title>
<path fill="none" stroke="midnightblue" d="M109.78,-56.32C119.34,-48.26 133.78,-36.08 145.28,-26.37"/>
<polygon fill="midnightblue" stroke="midnightblue" points="147.64,-28.96 153.03,-19.83 143.13,-23.61 147.64,-28.96"/>
</g>
<!-- Node6 -->
<g id="node6" class="node">
<title>Node6</title>
<g id="a_node6"><a xlink:title=" ">
<polygon fill="none" stroke="#bfbfbf" points="205.5,-0.5 205.5,-19.5 253.5,-19.5 253.5,-0.5 205.5,-0.5"/>
<text text-anchor="middle" x="229.5" y="-7.5" font-family="Helvetica,sans-Serif" font-size="10.00">iosfwd</text>
</a>
</g>
</g>
<!-- Node2&#45;&gt;Node6 -->
<g id="edge5" class="edge">
<title>Node2&#45;&gt;Node6</title>
<path fill="none" stroke="midnightblue" d="M120.1,-56.44C141.49,-47.56 175.18,-33.56 199.52,-23.45"/>
<polygon fill="midnightblue" stroke="midnightblue" points="201.11,-26.58 209,-19.52 198.42,-20.12 201.11,-26.58"/>
</g>
<!-- Node7&#45;&gt;Node4 -->
<g id="edge8" class="edge">
<title>Node7&#45;&gt;Node4</title>
<path fill="none" stroke="midnightblue" d="M175.04,-56.32C161,-47.9 139.45,-34.97 122.96,-25.07"/>
<polygon fill="midnightblue" stroke="midnightblue" points="124.3,-21.8 113.92,-19.65 120.7,-27.8 124.3,-21.8"/>
</g>
<!-- Node7&#45;&gt;Node5 -->
<g id="edge9" class="edge">
<title>Node7&#45;&gt;Node5</title>
<path fill="none" stroke="midnightblue" d="M185.21,-56.08C181.65,-48.69 176.48,-37.95 172.08,-28.81"/>
<polygon fill="midnightblue" stroke="midnightblue" points="175.21,-27.24 167.71,-19.75 168.9,-30.28 175.21,-27.24"/>
</g>
<!-- Node7&#45;&gt;Node6 -->
<g id="edge7" class="edge">
<title>Node7&#45;&gt;Node6</title>
<path fill="none" stroke="midnightblue" d="M196.11,-56.08C201.76,-48.46 210.04,-37.26 216.95,-27.94"/>
<polygon fill="midnightblue" stroke="midnightblue" points="219.88,-29.87 223.02,-19.75 214.25,-25.7 219.88,-29.87"/>
</g>
</g>
</svg>
