<?xml version="1.0" encoding="UTF-8" standalone="no"?>
<!DOCTYPE svg PUBLIC "-//W3C//DTD SVG 1.1//EN"
 "http://www.w3.org/Graphics/SVG/1.1/DTD/svg11.dtd">
<!-- Generated by graphviz version 2.43.0 (0)
 -->
<!-- Title: /home/runner/work/cbmc&#45;documentation/cbmc&#45;documentation/src/analyses/local_safe_pointers.h Pages: 1 -->
<svg width="3795pt" height="495pt"
 viewBox="0.00 0.00 3795.00 495.00" xmlns="http://www.w3.org/2000/svg" xmlns:xlink="http://www.w3.org/1999/xlink">
<g id="graph0" class="graph" transform="scale(1 1) rotate(0) translate(4 491)">
<title>/home/runner/work/cbmc&#45;documentation/cbmc&#45;documentation/src/analyses/local_safe_pointers.h</title>
<!-- Node1 -->
<g id="node1" class="node">
<title>Node1</title>
<g id="a_node1"><a xlink:title=" ">
<polygon fill="#bfbfbf" stroke="black" points="1673,-445.5 1673,-486.5 1873,-486.5 1873,-445.5 1673,-445.5"/>
<text text-anchor="start" x="1681" y="-474.5" font-family="Helvetica,sans-Serif" font-size="10.00">/home/runner/work/cbmc</text>
<text text-anchor="start" x="1681" y="-463.5" font-family="Helvetica,sans-Serif" font-size="10.00">&#45;documentation/cbmc&#45;documentation</text>
<text text-anchor="middle" x="1773" y="-452.5" font-family="Helvetica,sans-Serif" font-size="10.00">/src/analyses/local_safe_pointers.h</text>
</a>
</g>
</g>
<!-- Node2 -->
<g id="node2" class="node">
<title>Node2</title>
<g id="a_node2"><a xlink:href="local__safe__pointers_8cpp.html" target="_top" xlink:title=" ">
<polygon fill="none" stroke="black" points="1455,-362 1455,-403 1655,-403 1655,-362 1455,-362"/>
<text text-anchor="start" x="1463" y="-391" font-family="Helvetica,sans-Serif" font-size="10.00">/home/runner/work/cbmc</text>
<text text-anchor="start" x="1463" y="-380" font-family="Helvetica,sans-Serif" font-size="10.00">&#45;documentation/cbmc&#45;documentation</text>
<text text-anchor="middle" x="1555" y="-369" font-family="Helvetica,sans-Serif" font-size="10.00">/src/analyses/local_safe_pointers.cpp</text>
</a>
</g>
</g>
<!-- Node1&#45;&gt;Node2 -->
<g id="edge1" class="edge">
<title>Node1&#45;&gt;Node2</title>
<path fill="none" stroke="midnightblue" d="M1711.28,-441.92C1678.42,-429.64 1638.46,-414.7 1607.17,-403"/>
<polygon fill="midnightblue" stroke="midnightblue" points="1710.19,-445.26 1720.78,-445.48 1712.64,-438.7 1710.19,-445.26"/>
</g>
<!-- Node3 -->
<g id="node3" class="node">
<title>Node3</title>
<g id="a_node3"><a xlink:href="goto__instrument__parse__options_8cpp.html" target="_top" xlink:title=" ">
<polygon fill="none" stroke="black" points="1673,-356.5 1673,-408.5 1873,-408.5 1873,-356.5 1673,-356.5"/>
<text text-anchor="start" x="1681" y="-396.5" font-family="Helvetica,sans-Serif" font-size="10.00">/home/runner/work/cbmc</text>
<text text-anchor="start" x="1681" y="-385.5" font-family="Helvetica,sans-Serif" font-size="10.00">&#45;documentation/cbmc&#45;documentation</text>
<text text-anchor="start" x="1681" y="-374.5" font-family="Helvetica,sans-Serif" font-size="10.00">/src/goto&#45;instrument/goto_instrument</text>
<text text-anchor="middle" x="1773" y="-363.5" font-family="Helvetica,sans-Serif" font-size="10.00">_parse_options.cpp</text>
</a>
</g>
</g>
<!-- Node1&#45;&gt;Node3 -->
<g id="edge2" class="edge">
<title>Node1&#45;&gt;Node3</title>
<path fill="none" stroke="midnightblue" d="M1773,-435.12C1773,-426.41 1773,-416.99 1773,-408.61"/>
<polygon fill="midnightblue" stroke="midnightblue" points="1769.5,-435.27 1773,-445.27 1776.5,-435.27 1769.5,-435.27"/>
</g>
<!-- Node4 -->
<g id="node4" class="node">
<title>Node4</title>
<g id="a_node4"><a xlink:href="path__storage_8h.html" target="_top" xlink:title="Storage of symbolic execution paths to resume.">
<polygon fill="none" stroke="black" points="1891,-362 1891,-403 2091,-403 2091,-362 1891,-362"/>
<text text-anchor="start" x="1899" y="-391" font-family="Helvetica,sans-Serif" font-size="10.00">/home/runner/work/cbmc</text>
<text text-anchor="start" x="1899" y="-380" font-family="Helvetica,sans-Serif" font-size="10.00">&#45;documentation/cbmc&#45;documentation</text>
<text text-anchor="middle" x="1991" y="-369" font-family="Helvetica,sans-Serif" font-size="10.00">/src/goto&#45;symex/path_storage.h</text>
</a>
</g>
</g>
<!-- Node1&#45;&gt;Node4 -->
<g id="edge3" class="edge">
<title>Node1&#45;&gt;Node4</title>
<path fill="none" stroke="midnightblue" d="M1834.72,-441.92C1867.58,-429.64 1907.54,-414.7 1938.83,-403"/>
<polygon fill="midnightblue" stroke="midnightblue" points="1833.36,-438.7 1825.22,-445.48 1835.81,-445.26 1833.36,-438.7"/>
</g>
<!-- Node5 -->
<g id="node5" class="node">
<title>Node5</title>
<g id="a_node5"><a xlink:href="cbmc__parse__options_8cpp.html" target="_top" xlink:title=" ">
<polygon fill="none" stroke="black" points="654,-95 654,-136 854,-136 854,-95 654,-95"/>
<text text-anchor="start" x="662" y="-124" font-family="Helvetica,sans-Serif" font-size="10.00">/home/runner/work/cbmc</text>
<text text-anchor="start" x="662" y="-113" font-family="Helvetica,sans-Serif" font-size="10.00">&#45;documentation/cbmc&#45;documentation</text>
<text text-anchor="middle" x="754" y="-102" font-family="Helvetica,sans-Serif" font-size="10.00">/src/cbmc/cbmc_parse_options.cpp</text>
</a>
</g>
</g>
<!-- Node4&#45;&gt;Node5 -->
<g id="edge4" class="edge">
<title>Node4&#45;&gt;Node5</title>
<path fill="none" stroke="midnightblue" d="M1906.13,-359.97C1898.01,-358.42 1889.87,-357.05 1882,-356 1770.47,-341.11 976.27,-356.98 870,-320 806.95,-298.06 779.13,-290.57 749,-231 733.73,-200.82 740.95,-160.23 747.52,-136.36"/>
<polygon fill="midnightblue" stroke="midnightblue" points="1905.51,-363.41 1916.01,-361.95 1906.89,-356.55 1905.51,-363.41"/>
</g>
<!-- Node6 -->
<g id="node6" class="node">
<title>Node6</title>
<g id="a_node6"><a xlink:href="multi__path__symex__only__checker_8h.html" target="_top" xlink:title=" ">
<polygon fill="none" stroke="black" points="443,-267.5 443,-319.5 643,-319.5 643,-267.5 443,-267.5"/>
<text text-anchor="start" x="451" y="-307.5" font-family="Helvetica,sans-Serif" font-size="10.00">/home/runner/work/cbmc</text>
<text text-anchor="start" x="451" y="-296.5" font-family="Helvetica,sans-Serif" font-size="10.00">&#45;documentation/cbmc&#45;documentation</text>
<text text-anchor="start" x="451" y="-285.5" font-family="Helvetica,sans-Serif" font-size="10.00">/src/goto&#45;checker/multi_path</text>
<text text-anchor="middle" x="543" y="-274.5" font-family="Helvetica,sans-Serif" font-size="10.00">_symex_only_checker.h</text>
</a>
</g>
</g>
<!-- Node4&#45;&gt;Node6 -->
<g id="edge5" class="edge">
<title>Node4&#45;&gt;Node6</title>
<path fill="none" stroke="midnightblue" d="M1906.35,-359.97C1898.16,-358.41 1889.95,-357.04 1882,-356 1367.93,-288.61 1232.44,-365.88 716,-320 692.41,-317.9 667.14,-314.72 643.4,-311.3"/>
<polygon fill="midnightblue" stroke="midnightblue" points="1905.81,-363.43 1916.31,-361.96 1907.19,-356.57 1905.81,-363.43"/>
</g>
<!-- Node11 -->
<g id="node11" class="node">
<title>Node11</title>
<g id="a_node11"><a xlink:href="jbmc__parse__options_8cpp.html" target="_top" xlink:title=" ">
<polygon fill="none" stroke="black" points="867.5,-6 867.5,-47 1076.5,-47 1076.5,-6 867.5,-6"/>
<text text-anchor="start" x="875.5" y="-35" font-family="Helvetica,sans-Serif" font-size="10.00">/home/runner/work/cbmc</text>
<text text-anchor="start" x="875.5" y="-24" font-family="Helvetica,sans-Serif" font-size="10.00">&#45;documentation/cbmc&#45;documentation</text>
<text text-anchor="middle" x="972" y="-13" font-family="Helvetica,sans-Serif" font-size="10.00">/jbmc/src/jbmc/jbmc_parse_options.cpp</text>
</a>
</g>
</g>
<!-- Node4&#45;&gt;Node11 -->
<g id="edge47" class="edge">
<title>Node4&#45;&gt;Node11</title>
<path fill="none" stroke="midnightblue" d="M1902.51,-359.86C1895.59,-358.46 1888.69,-357.15 1882,-356 1809.94,-343.65 1608.05,-370.3 1555,-320 1479.49,-248.42 1592.41,-160.68 1517,-89 1501.25,-74.02 1230.61,-49.12 1076.77,-36.07"/>
<polygon fill="midnightblue" stroke="midnightblue" points="1902.14,-363.36 1912.64,-361.98 1903.57,-356.51 1902.14,-363.36"/>
</g>
<!-- Node14 -->
<g id="node14" class="node">
<title>Node14</title>
<g id="a_node14"><a xlink:href="single__loop__incremental__symex__checker_8h.html" target="_top" xlink:title=" ">
<polygon fill="none" stroke="black" points="879,-267.5 879,-319.5 1079,-319.5 1079,-267.5 879,-267.5"/>
<text text-anchor="start" x="887" y="-307.5" font-family="Helvetica,sans-Serif" font-size="10.00">/home/runner/work/cbmc</text>
<text text-anchor="start" x="887" y="-296.5" font-family="Helvetica,sans-Serif" font-size="10.00">&#45;documentation/cbmc&#45;documentation</text>
<text text-anchor="start" x="887" y="-285.5" font-family="Helvetica,sans-Serif" font-size="10.00">/src/goto&#45;checker/single_loop</text>
<text text-anchor="middle" x="979" y="-274.5" font-family="Helvetica,sans-Serif" font-size="10.00">_incremental_symex_checker.h</text>
</a>
</g>
</g>
<!-- Node4&#45;&gt;Node14 -->
<g id="edge16" class="edge">
<title>Node4&#45;&gt;Node14</title>
<path fill="none" stroke="midnightblue" d="M1905.64,-359.96C1897.69,-358.43 1889.72,-357.07 1882,-356 1532.09,-307.56 1437.91,-368.44 1088,-320 1085.11,-319.6 1082.19,-319.16 1079.24,-318.68"/>
<polygon fill="midnightblue" stroke="midnightblue" points="1905.2,-363.44 1915.7,-361.98 1906.58,-356.58 1905.2,-363.44"/>
</g>
<!-- Node16 -->
<g id="node16" class="node">
<title>Node16</title>
<g id="a_node16"><a xlink:href="single__path__symex__only__checker_8h.html" target="_top" xlink:title=" ">
<polygon fill="none" stroke="black" points="1097,-267.5 1097,-319.5 1297,-319.5 1297,-267.5 1097,-267.5"/>
<text text-anchor="start" x="1105" y="-307.5" font-family="Helvetica,sans-Serif" font-size="10.00">/home/runner/work/cbmc</text>
<text text-anchor="start" x="1105" y="-296.5" font-family="Helvetica,sans-Serif" font-size="10.00">&#45;documentation/cbmc&#45;documentation</text>
<text text-anchor="start" x="1105" y="-285.5" font-family="Helvetica,sans-Serif" font-size="10.00">/src/goto&#45;checker/single_path</text>
<text text-anchor="middle" x="1197" y="-274.5" font-family="Helvetica,sans-Serif" font-size="10.00">_symex_only_checker.h</text>
</a>
</g>
</g>
<!-- Node4&#45;&gt;Node16 -->
<g id="edge19" class="edge">
<title>Node4&#45;&gt;Node16</title>
<path fill="none" stroke="midnightblue" d="M1903.84,-359.9C1896.48,-358.45 1889.13,-357.12 1882,-356 1686.84,-325.42 1635.68,-338.35 1439,-320 1392.31,-315.64 1340.61,-310.27 1297.03,-305.58"/>
<polygon fill="midnightblue" stroke="midnightblue" points="1903.37,-363.38 1913.87,-361.96 1904.78,-356.52 1903.37,-363.38"/>
</g>
<!-- Node21 -->
<g id="node21" class="node">
<title>Node21</title>
<g id="a_node21"><a xlink:href="single__path__symex__only__checker_8cpp.html" target="_top" xlink:title=" ">
<polygon fill="none" stroke="black" points="1308,-178.5 1308,-230.5 1508,-230.5 1508,-178.5 1308,-178.5"/>
<text text-anchor="start" x="1316" y="-218.5" font-family="Helvetica,sans-Serif" font-size="10.00">/home/runner/work/cbmc</text>
<text text-anchor="start" x="1316" y="-207.5" font-family="Helvetica,sans-Serif" font-size="10.00">&#45;documentation/cbmc&#45;documentation</text>
<text text-anchor="start" x="1316" y="-196.5" font-family="Helvetica,sans-Serif" font-size="10.00">/src/goto&#45;checker/single_path</text>
<text text-anchor="middle" x="1408" y="-185.5" font-family="Helvetica,sans-Serif" font-size="10.00">_symex_only_checker.cpp</text>
</a>
</g>
</g>
<!-- Node4&#45;&gt;Node21 -->
<g id="edge30" class="edge">
<title>Node4&#45;&gt;Node21</title>
<path fill="none" stroke="midnightblue" d="M1902.72,-359.83C1895.73,-358.42 1888.76,-357.12 1882,-356 1723.38,-329.63 1667.23,-389.02 1522,-320 1479.94,-300.01 1444.49,-257.8 1424.77,-230.59"/>
<polygon fill="midnightblue" stroke="midnightblue" points="1902.45,-363.34 1912.95,-361.95 1903.87,-356.49 1902.45,-363.34"/>
</g>
<!-- Node23 -->
<g id="node23" class="node">
<title>Node23</title>
<g id="a_node23"><a xlink:href="scratch__program_8h.html" target="_top" xlink:title=" ">
<polygon fill="none" stroke="black" points="1564,-267.5 1564,-319.5 1764,-319.5 1764,-267.5 1564,-267.5"/>
<text text-anchor="start" x="1572" y="-307.5" font-family="Helvetica,sans-Serif" font-size="10.00">/home/runner/work/cbmc</text>
<text text-anchor="start" x="1572" y="-296.5" font-family="Helvetica,sans-Serif" font-size="10.00">&#45;documentation/cbmc&#45;documentation</text>
<text text-anchor="start" x="1572" y="-285.5" font-family="Helvetica,sans-Serif" font-size="10.00">/src/goto&#45;instrument/accelerate</text>
<text text-anchor="middle" x="1664" y="-274.5" font-family="Helvetica,sans-Serif" font-size="10.00">/scratch_program.h</text>
</a>
</g>
</g>
<!-- Node4&#45;&gt;Node23 -->
<g id="edge31" class="edge">
<title>Node4&#45;&gt;Node23</title>
<path fill="none" stroke="midnightblue" d="M1907.75,-359.35C1862.06,-347.19 1805.25,-332.08 1757.98,-319.5"/>
<polygon fill="midnightblue" stroke="midnightblue" points="1907.05,-362.79 1917.61,-361.98 1908.85,-356.02 1907.05,-362.79"/>
</g>
<!-- Node30 -->
<g id="node30" class="node">
<title>Node30</title>
<g id="a_node30"><a xlink:href="path__storage_8cpp.html" target="_top" xlink:title=" ">
<polygon fill="none" stroke="black" points="1782,-273 1782,-314 1982,-314 1982,-273 1782,-273"/>
<text text-anchor="start" x="1790" y="-302" font-family="Helvetica,sans-Serif" font-size="10.00">/home/runner/work/cbmc</text>
<text text-anchor="start" x="1790" y="-291" font-family="Helvetica,sans-Serif" font-size="10.00">&#45;documentation/cbmc&#45;documentation</text>
<text text-anchor="middle" x="1882" y="-280" font-family="Helvetica,sans-Serif" font-size="10.00">/src/goto&#45;symex/path_storage.cpp</text>
</a>
</g>
</g>
<!-- Node4&#45;&gt;Node30 -->
<g id="edge38" class="edge">
<title>Node4&#45;&gt;Node30</title>
<path fill="none" stroke="midnightblue" d="M1958.68,-355.71C1942.07,-342.44 1922.14,-326.53 1906.76,-314.26"/>
<polygon fill="midnightblue" stroke="midnightblue" points="1956.54,-358.47 1966.54,-361.98 1960.91,-353 1956.54,-358.47"/>
</g>
<!-- Node31 -->
<g id="node31" class="node">
<title>Node31</title>
<g id="a_node31"><a xlink:href="symex__builtin__functions_8cpp.html" target="_top" xlink:title=" ">
<polygon fill="none" stroke="black" points="2000,-267.5 2000,-319.5 2200,-319.5 2200,-267.5 2000,-267.5"/>
<text text-anchor="start" x="2008" y="-307.5" font-family="Helvetica,sans-Serif" font-size="10.00">/home/runner/work/cbmc</text>
<text text-anchor="start" x="2008" y="-296.5" font-family="Helvetica,sans-Serif" font-size="10.00">&#45;documentation/cbmc&#45;documentation</text>
<text text-anchor="start" x="2008" y="-285.5" font-family="Helvetica,sans-Serif" font-size="10.00">/src/goto&#45;symex/symex_builtin</text>
<text text-anchor="middle" x="2100" y="-274.5" font-family="Helvetica,sans-Serif" font-size="10.00">_functions.cpp</text>
</a>
</g>
</g>
<!-- Node4&#45;&gt;Node31 -->
<g id="edge39" class="edge">
<title>Node4&#45;&gt;Node31</title>
<path fill="none" stroke="midnightblue" d="M2023.54,-355.53C2037.79,-344.15 2054.45,-330.86 2068.57,-319.58"/>
<polygon fill="midnightblue" stroke="midnightblue" points="2021.09,-353 2015.46,-361.98 2025.46,-358.47 2021.09,-353"/>
</g>
<!-- Node32 -->
<g id="node32" class="node">
<title>Node32</title>
<g id="a_node32"><a xlink:href="symex__clean__expr_8cpp.html" target="_top" xlink:title=" ">
<polygon fill="none" stroke="black" points="2218.5,-273 2218.5,-314 2427.5,-314 2427.5,-273 2218.5,-273"/>
<text text-anchor="start" x="2226.5" y="-302" font-family="Helvetica,sans-Serif" font-size="10.00">/home/runner/work/cbmc</text>
<text text-anchor="start" x="2226.5" y="-291" font-family="Helvetica,sans-Serif" font-size="10.00">&#45;documentation/cbmc&#45;documentation</text>
<text text-anchor="middle" x="2323" y="-280" font-family="Helvetica,sans-Serif" font-size="10.00">/src/goto&#45;symex/symex_clean_expr.cpp</text>
</a>
</g>
</g>
<!-- Node4&#45;&gt;Node32 -->
<g id="edge40" class="edge">
<title>Node4&#45;&gt;Node32</title>
<path fill="none" stroke="midnightblue" d="M2075.29,-359.41C2128.67,-345.42 2197.06,-327.5 2248.45,-314.03"/>
<polygon fill="midnightblue" stroke="midnightblue" points="2074.29,-356.05 2065.51,-361.98 2076.07,-362.83 2074.29,-356.05"/>
</g>
<!-- Node33 -->
<g id="node33" class="node">
<title>Node33</title>
<g id="a_node33"><a xlink:href="symex__decl_8cpp.html" target="_top" xlink:title=" ">
<polygon fill="none" stroke="black" points="2446,-273 2446,-314 2646,-314 2646,-273 2446,-273"/>
<text text-anchor="start" x="2454" y="-302" font-family="Helvetica,sans-Serif" font-size="10.00">/home/runner/work/cbmc</text>
<text text-anchor="start" x="2454" y="-291" font-family="Helvetica,sans-Serif" font-size="10.00">&#45;documentation/cbmc&#45;documentation</text>
<text text-anchor="middle" x="2546" y="-280" font-family="Helvetica,sans-Serif" font-size="10.00">/src/goto&#45;symex/symex_decl.cpp</text>
</a>
</g>
</g>
<!-- Node4&#45;&gt;Node33 -->
<g id="edge41" class="edge">
<title>Node4&#45;&gt;Node33</title>
<path fill="none" stroke="midnightblue" d="M2101.07,-369.21C2191.62,-358.4 2323.11,-341.13 2437,-320 2446.55,-318.23 2456.53,-316.17 2466.41,-314.02"/>
<polygon fill="midnightblue" stroke="midnightblue" points="2100.58,-365.74 2091.06,-370.39 2101.41,-372.69 2100.58,-365.74"/>
</g>
<!-- Node34 -->
<g id="node34" class="node">
<title>Node34</title>
<g id="a_node34"><a xlink:href="symex__dereference_8cpp.html" target="_top" xlink:title=" ">
<polygon fill="none" stroke="black" points="2664.5,-273 2664.5,-314 2879.5,-314 2879.5,-273 2664.5,-273"/>
<text text-anchor="start" x="2672.5" y="-302" font-family="Helvetica,sans-Serif" font-size="10.00">/home/runner/work/cbmc</text>
<text text-anchor="start" x="2672.5" y="-291" font-family="Helvetica,sans-Serif" font-size="10.00">&#45;documentation/cbmc&#45;documentation</text>
<text text-anchor="middle" x="2772" y="-280" font-family="Helvetica,sans-Serif" font-size="10.00">/src/goto&#45;symex/symex_dereference.cpp</text>
</a>
</g>
</g>
<!-- Node4&#45;&gt;Node34 -->
<g id="edge42" class="edge">
<title>Node4&#45;&gt;Node34</title>
<path fill="none" stroke="midnightblue" d="M2101.15,-375.43C2233.29,-367.2 2461.26,-349.97 2655,-320 2665.79,-318.33 2677.07,-316.27 2688.19,-314.06"/>
<polygon fill="midnightblue" stroke="midnightblue" points="2100.79,-371.95 2091.02,-376.06 2101.22,-378.93 2100.79,-371.95"/>
</g>
<!-- Node35 -->
<g id="node35" class="node">
<title>Node35</title>
<g id="a_node35"><a xlink:href="symex__function__call_8cpp.html" target="_top" xlink:title=" ">
<polygon fill="none" stroke="black" points="2897.5,-273 2897.5,-314 3116.5,-314 3116.5,-273 2897.5,-273"/>
<text text-anchor="start" x="2905.5" y="-302" font-family="Helvetica,sans-Serif" font-size="10.00">/home/runner/work/cbmc</text>
<text text-anchor="start" x="2905.5" y="-291" font-family="Helvetica,sans-Serif" font-size="10.00">&#45;documentation/cbmc&#45;documentation</text>
<text text-anchor="middle" x="3007" y="-280" font-family="Helvetica,sans-Serif" font-size="10.00">/src/goto&#45;symex/symex_function_call.cpp</text>
</a>
</g>
</g>
<!-- Node4&#45;&gt;Node35 -->
<g id="edge43" class="edge">
<title>Node4&#45;&gt;Node35</title>
<path fill="none" stroke="midnightblue" d="M2101.36,-379.07C2271.3,-374.17 2606.97,-359.92 2889,-320 2900.31,-318.4 2912.15,-316.32 2923.79,-314.05"/>
<polygon fill="midnightblue" stroke="midnightblue" points="2101.05,-375.58 2091.15,-379.36 2101.25,-382.57 2101.05,-375.58"/>
</g>
<!-- Node36 -->
<g id="node36" class="node">
<title>Node36</title>
<g id="a_node36"><a xlink:href="symex__goto_8cpp.html" target="_top" xlink:title=" ">
<polygon fill="none" stroke="black" points="3135,-273 3135,-314 3335,-314 3335,-273 3135,-273"/>
<text text-anchor="start" x="3143" y="-302" font-family="Helvetica,sans-Serif" font-size="10.00">/home/runner/work/cbmc</text>
<text text-anchor="start" x="3143" y="-291" font-family="Helvetica,sans-Serif" font-size="10.00">&#45;documentation/cbmc&#45;documentation</text>
<text text-anchor="middle" x="3235" y="-280" font-family="Helvetica,sans-Serif" font-size="10.00">/src/goto&#45;symex/symex_goto.cpp</text>
</a>
</g>
</g>
<!-- Node4&#45;&gt;Node36 -->
<g id="edge44" class="edge">
<title>Node4&#45;&gt;Node36</title>
<path fill="none" stroke="midnightblue" d="M2101.11,-381.93C2304.6,-381.32 2752.83,-373.34 3126,-320 3136.77,-318.46 3148.05,-316.37 3159.09,-314.05"/>
<polygon fill="midnightblue" stroke="midnightblue" points="2101.01,-378.43 2091.02,-381.96 2101.03,-385.43 2101.01,-378.43"/>
</g>
<!-- Node37 -->
<g id="node37" class="node">
<title>Node37</title>
<g id="a_node37"><a xlink:href="symex__main_8cpp.html" target="_top" xlink:title=" ">
<polygon fill="none" stroke="black" points="3353,-273 3353,-314 3553,-314 3553,-273 3353,-273"/>
<text text-anchor="start" x="3361" y="-302" font-family="Helvetica,sans-Serif" font-size="10.00">/home/runner/work/cbmc</text>
<text text-anchor="start" x="3361" y="-291" font-family="Helvetica,sans-Serif" font-size="10.00">&#45;documentation/cbmc&#45;documentation</text>
<text text-anchor="middle" x="3453" y="-280" font-family="Helvetica,sans-Serif" font-size="10.00">/src/goto&#45;symex/symex_main.cpp</text>
</a>
</g>
</g>
<!-- Node4&#45;&gt;Node37 -->
<g id="edge45" class="edge">
<title>Node4&#45;&gt;Node37</title>
<path fill="none" stroke="midnightblue" d="M2101.4,-379.11C2379.75,-372.65 3105.01,-353.1 3344,-320 3354.97,-318.48 3366.46,-316.37 3377.7,-314.02"/>
<polygon fill="midnightblue" stroke="midnightblue" points="2101.2,-375.61 2091.29,-379.34 2101.37,-382.61 2101.2,-375.61"/>
</g>
<!-- Node38 -->
<g id="node38" class="node">
<title>Node38</title>
<g id="a_node38"><a xlink:href="symex__start__thread_8cpp.html" target="_top" xlink:title=" ">
<polygon fill="none" stroke="black" points="3571,-273 3571,-314 3787,-314 3787,-273 3571,-273"/>
<text text-anchor="start" x="3579" y="-302" font-family="Helvetica,sans-Serif" font-size="10.00">/home/runner/work/cbmc</text>
<text text-anchor="start" x="3579" y="-291" font-family="Helvetica,sans-Serif" font-size="10.00">&#45;documentation/cbmc&#45;documentation</text>
<text text-anchor="middle" x="3679" y="-280" font-family="Helvetica,sans-Serif" font-size="10.00">/src/goto&#45;symex/symex_start_thread.cpp</text>
</a>
</g>
</g>
<!-- Node4&#45;&gt;Node38 -->
<g id="edge46" class="edge">
<title>Node4&#45;&gt;Node38</title>
<path fill="none" stroke="midnightblue" d="M2101.53,-379.7C2410.48,-374.25 3278.97,-356.1 3562,-320 3573.75,-318.5 3586.08,-316.4 3598.13,-314.05"/>
<polygon fill="midnightblue" stroke="midnightblue" points="2101.15,-376.2 2091.22,-379.88 2101.28,-383.2 2101.15,-376.2"/>
</g>
<!-- Node6&#45;&gt;Node5 -->
<g id="edge6" class="edge">
<title>Node6&#45;&gt;Node5</title>
<path fill="none" stroke="midnightblue" d="M604.32,-262.56C620.52,-253.42 637.51,-242.68 652,-231 687.65,-202.27 721.44,-160.46 739.78,-136.11"/>
<polygon fill="midnightblue" stroke="midnightblue" points="602.49,-259.57 595.42,-267.46 605.87,-265.7 602.49,-259.57"/>
</g>
<!-- Node7 -->
<g id="node7" class="node">
<title>Node7</title>
<g id="a_node7"><a xlink:href="multi__path__symex__checker_8h.html" target="_top" xlink:title=" ">
<polygon fill="none" stroke="black" points="443,-178.5 443,-230.5 643,-230.5 643,-178.5 443,-178.5"/>
<text text-anchor="start" x="451" y="-218.5" font-family="Helvetica,sans-Serif" font-size="10.00">/home/runner/work/cbmc</text>
<text text-anchor="start" x="451" y="-207.5" font-family="Helvetica,sans-Serif" font-size="10.00">&#45;documentation/cbmc&#45;documentation</text>
<text text-anchor="start" x="451" y="-196.5" font-family="Helvetica,sans-Serif" font-size="10.00">/src/goto&#45;checker/multi_path</text>
<text text-anchor="middle" x="543" y="-185.5" font-family="Helvetica,sans-Serif" font-size="10.00">_symex_checker.h</text>
</a>
</g>
</g>
<!-- Node6&#45;&gt;Node7 -->
<g id="edge7" class="edge">
<title>Node6&#45;&gt;Node7</title>
<path fill="none" stroke="midnightblue" d="M543,-257.19C543,-248.28 543,-238.9 543,-230.61"/>
<polygon fill="midnightblue" stroke="midnightblue" points="539.5,-257.34 543,-267.34 546.5,-257.34 539.5,-257.34"/>
</g>
<!-- Node12 -->
<g id="node12" class="node">
<title>Node12</title>
<g id="a_node12"><a xlink:href="multi__path__symex__only__checker_8cpp.html" target="_top" xlink:title=" ">
<polygon fill="none" stroke="black" points="187,-178.5 187,-230.5 387,-230.5 387,-178.5 187,-178.5"/>
<text text-anchor="start" x="195" y="-218.5" font-family="Helvetica,sans-Serif" font-size="10.00">/home/runner/work/cbmc</text>
<text text-anchor="start" x="195" y="-207.5" font-family="Helvetica,sans-Serif" font-size="10.00">&#45;documentation/cbmc&#45;documentation</text>
<text text-anchor="start" x="195" y="-196.5" font-family="Helvetica,sans-Serif" font-size="10.00">/src/goto&#45;checker/multi_path</text>
<text text-anchor="middle" x="287" y="-185.5" font-family="Helvetica,sans-Serif" font-size="10.00">_symex_only_checker.cpp</text>
</a>
</g>
</g>
<!-- Node6&#45;&gt;Node12 -->
<g id="edge13" class="edge">
<title>Node6&#45;&gt;Node12</title>
<path fill="none" stroke="midnightblue" d="M459.54,-264.14C427.65,-253.3 391.54,-241.03 360.63,-230.52"/>
<polygon fill="midnightblue" stroke="midnightblue" points="458.7,-267.55 469.3,-267.45 460.96,-260.92 458.7,-267.55"/>
</g>
<!-- Node13 -->
<g id="node13" class="node">
<title>Node13</title>
<g id="a_node13"><a xlink:href="java__multi__path__symex__only__checker_8h.html" target="_top" xlink:title=" ">
<polygon fill="none" stroke="black" points="0,-89.5 0,-141.5 200,-141.5 200,-89.5 0,-89.5"/>
<text text-anchor="start" x="8" y="-129.5" font-family="Helvetica,sans-Serif" font-size="10.00">/home/runner/work/cbmc</text>
<text text-anchor="start" x="8" y="-118.5" font-family="Helvetica,sans-Serif" font-size="10.00">&#45;documentation/cbmc&#45;documentation</text>
<text text-anchor="start" x="8" y="-107.5" font-family="Helvetica,sans-Serif" font-size="10.00">/jbmc/src/java_bytecode/java</text>
<text text-anchor="middle" x="100" y="-96.5" font-family="Helvetica,sans-Serif" font-size="10.00">_multi_path_symex_only_checker.h</text>
</a>
</g>
</g>
<!-- Node6&#45;&gt;Node13 -->
<g id="edge14" class="edge">
<title>Node6&#45;&gt;Node13</title>
<path fill="none" stroke="midnightblue" d="M478.72,-262.35C463.18,-253.46 447.25,-242.89 434,-231 412.43,-211.64 420.41,-193.63 396,-178 324.72,-132.36 291.78,-159.64 209,-142 206.05,-141.37 203.06,-140.73 200.05,-140.07"/>
<polygon fill="midnightblue" stroke="midnightblue" points="477.36,-265.6 487.8,-267.39 480.75,-259.48 477.36,-265.6"/>
</g>
<!-- Node7&#45;&gt;Node5 -->
<g id="edge8" class="edge">
<title>Node7&#45;&gt;Node5</title>
<path fill="none" stroke="midnightblue" d="M613.09,-174.6C643.73,-161.97 678.86,-147.48 706.38,-136.13"/>
<polygon fill="midnightblue" stroke="midnightblue" points="611.66,-171.41 603.75,-178.45 614.33,-177.88 611.66,-171.41"/>
</g>
<!-- Node8 -->
<g id="node8" class="node">
<title>Node8</title>
<g id="a_node8"><a xlink:href="multi__path__symex__checker_8cpp.html" target="_top" xlink:title=" ">
<polygon fill="none" stroke="black" points="436,-89.5 436,-141.5 636,-141.5 636,-89.5 436,-89.5"/>
<text text-anchor="start" x="444" y="-129.5" font-family="Helvetica,sans-Serif" font-size="10.00">/home/runner/work/cbmc</text>
<text text-anchor="start" x="444" y="-118.5" font-family="Helvetica,sans-Serif" font-size="10.00">&#45;documentation/cbmc&#45;documentation</text>
<text text-anchor="start" x="444" y="-107.5" font-family="Helvetica,sans-Serif" font-size="10.00">/src/goto&#45;checker/multi_path</text>
<text text-anchor="middle" x="536" y="-96.5" font-family="Helvetica,sans-Serif" font-size="10.00">_symex_checker.cpp</text>
</a>
</g>
</g>
<!-- Node7&#45;&gt;Node8 -->
<g id="edge9" class="edge">
<title>Node7&#45;&gt;Node8</title>
<path fill="none" stroke="midnightblue" d="M540.16,-168.19C539.44,-159.28 538.69,-149.9 538.02,-141.61"/>
<polygon fill="midnightblue" stroke="midnightblue" points="536.68,-168.65 540.98,-178.34 543.66,-168.09 536.68,-168.65"/>
</g>
<!-- Node9 -->
<g id="node9" class="node">
<title>Node9</title>
<g id="a_node9"><a xlink:href="java__multi__path__symex__checker_8h.html" target="_top" xlink:title=" ">
<polygon fill="none" stroke="black" points="218,-89.5 218,-141.5 418,-141.5 418,-89.5 218,-89.5"/>
<text text-anchor="start" x="226" y="-129.5" font-family="Helvetica,sans-Serif" font-size="10.00">/home/runner/work/cbmc</text>
<text text-anchor="start" x="226" y="-118.5" font-family="Helvetica,sans-Serif" font-size="10.00">&#45;documentation/cbmc&#45;documentation</text>
<text text-anchor="start" x="226" y="-107.5" font-family="Helvetica,sans-Serif" font-size="10.00">/jbmc/src/java_bytecode/java</text>
<text text-anchor="middle" x="318" y="-96.5" font-family="Helvetica,sans-Serif" font-size="10.00">_multi_path_symex_checker.h</text>
</a>
</g>
</g>
<!-- Node7&#45;&gt;Node9 -->
<g id="edge10" class="edge">
<title>Node7&#45;&gt;Node9</title>
<path fill="none" stroke="midnightblue" d="M468.56,-174.72C440.8,-163.98 409.53,-151.89 382.71,-141.52"/>
<polygon fill="midnightblue" stroke="midnightblue" points="467.63,-178.11 478.22,-178.45 470.16,-171.58 467.63,-178.11"/>
</g>
<!-- Node10 -->
<g id="node10" class="node">
<title>Node10</title>
<g id="a_node10"><a xlink:href="java__multi__path__symex__checker_8cpp.html" target="_top" xlink:title=" ">
<polygon fill="none" stroke="black" points="218,-0.5 218,-52.5 418,-52.5 418,-0.5 218,-0.5"/>
<text text-anchor="start" x="226" y="-40.5" font-family="Helvetica,sans-Serif" font-size="10.00">/home/runner/work/cbmc</text>
<text text-anchor="start" x="226" y="-29.5" font-family="Helvetica,sans-Serif" font-size="10.00">&#45;documentation/cbmc&#45;documentation</text>
<text text-anchor="start" x="226" y="-18.5" font-family="Helvetica,sans-Serif" font-size="10.00">/jbmc/src/java_bytecode/java</text>
<text text-anchor="middle" x="318" y="-7.5" font-family="Helvetica,sans-Serif" font-size="10.00">_multi_path_symex_checker.cpp</text>
</a>
</g>
</g>
<!-- Node9&#45;&gt;Node10 -->
<g id="edge11" class="edge">
<title>Node9&#45;&gt;Node10</title>
<path fill="none" stroke="midnightblue" d="M318,-79.19C318,-70.28 318,-60.9 318,-52.61"/>
<polygon fill="midnightblue" stroke="midnightblue" points="314.5,-79.34 318,-89.34 321.5,-79.34 314.5,-79.34"/>
</g>
<!-- Node9&#45;&gt;Node11 -->
<g id="edge12" class="edge">
<title>Node9&#45;&gt;Node11</title>
<path fill="none" stroke="midnightblue" d="M428.2,-88.87C586.39,-62 759.41,-44.87 867.26,-35.64"/>
<polygon fill="midnightblue" stroke="midnightblue" points="427.55,-85.43 418.28,-90.57 428.73,-92.33 427.55,-85.43"/>
</g>
<!-- Node13&#45;&gt;Node11 -->
<g id="edge15" class="edge">
<title>Node13&#45;&gt;Node11</title>
<path fill="none" stroke="midnightblue" d="M210.22,-88.91C450.11,-52.06 721.93,-36.94 867.44,-30.98"/>
<polygon fill="midnightblue" stroke="midnightblue" points="209.61,-85.46 200.26,-90.45 210.68,-92.38 209.61,-85.46"/>
</g>
<!-- Node14&#45;&gt;Node5 -->
<g id="edge17" class="edge">
<title>Node14&#45;&gt;Node5</title>
<path fill="none" stroke="midnightblue" d="M984.87,-256.96C986.89,-232.09 985.08,-199.59 967,-178 958.24,-167.54 893.88,-149.81 838.17,-136.07"/>
<polygon fill="midnightblue" stroke="midnightblue" points="981.37,-256.78 983.8,-267.09 988.33,-257.51 981.37,-256.78"/>
</g>
<!-- Node15 -->
<g id="node15" class="node">
<title>Node15</title>
<g id="a_node15"><a xlink:href="single__loop__incremental__symex__checker_8cpp.html" target="_top" xlink:title=" ">
<polygon fill="none" stroke="black" points="758,-178.5 758,-230.5 958,-230.5 958,-178.5 758,-178.5"/>
<text text-anchor="start" x="766" y="-218.5" font-family="Helvetica,sans-Serif" font-size="10.00">/home/runner/work/cbmc</text>
<text text-anchor="start" x="766" y="-207.5" font-family="Helvetica,sans-Serif" font-size="10.00">&#45;documentation/cbmc&#45;documentation</text>
<text text-anchor="start" x="766" y="-196.5" font-family="Helvetica,sans-Serif" font-size="10.00">/src/goto&#45;checker/single_loop</text>
<text text-anchor="middle" x="858" y="-185.5" font-family="Helvetica,sans-Serif" font-size="10.00">_incremental_symex_checker.cpp</text>
</a>
</g>
</g>
<!-- Node14&#45;&gt;Node15 -->
<g id="edge18" class="edge">
<title>Node14&#45;&gt;Node15</title>
<path fill="none" stroke="midnightblue" d="M935.49,-261.22C921.51,-251.16 906.21,-240.16 892.92,-230.61"/>
<polygon fill="midnightblue" stroke="midnightblue" points="933.84,-264.34 944,-267.34 937.93,-258.66 933.84,-264.34"/>
</g>
<!-- Node16&#45;&gt;Node5 -->
<g id="edge20" class="edge">
<title>Node16&#45;&gt;Node5</title>
<path fill="none" stroke="midnightblue" d="M1100.75,-263.74C1079.1,-255.02 1056.95,-244.17 1038,-231 1012.14,-213.04 1017.85,-194.45 991,-178 984.03,-173.73 899.95,-152.41 833.89,-136.05"/>
<polygon fill="midnightblue" stroke="midnightblue" points="1099.73,-267.1 1110.32,-267.47 1102.28,-260.58 1099.73,-267.1"/>
</g>
<!-- Node17 -->
<g id="node17" class="node">
<title>Node17</title>
<g id="a_node17"><a xlink:href="single__path__symex__checker_8h.html" target="_top" xlink:title=" ">
<polygon fill="none" stroke="black" points="1090,-178.5 1090,-230.5 1290,-230.5 1290,-178.5 1090,-178.5"/>
<text text-anchor="start" x="1098" y="-218.5" font-family="Helvetica,sans-Serif" font-size="10.00">/home/runner/work/cbmc</text>
<text text-anchor="start" x="1098" y="-207.5" font-family="Helvetica,sans-Serif" font-size="10.00">&#45;documentation/cbmc&#45;documentation</text>
<text text-anchor="start" x="1098" y="-196.5" font-family="Helvetica,sans-Serif" font-size="10.00">/src/goto&#45;checker/single_path</text>
<text text-anchor="middle" x="1190" y="-185.5" font-family="Helvetica,sans-Serif" font-size="10.00">_symex_checker.h</text>
</a>
</g>
</g>
<!-- Node16&#45;&gt;Node17 -->
<g id="edge21" class="edge">
<title>Node16&#45;&gt;Node17</title>
<path fill="none" stroke="midnightblue" d="M1194.16,-257.19C1193.44,-248.28 1192.69,-238.9 1192.02,-230.61"/>
<polygon fill="midnightblue" stroke="midnightblue" points="1190.68,-257.65 1194.98,-267.34 1197.66,-257.09 1190.68,-257.65"/>
</g>
<!-- Node16&#45;&gt;Node21 -->
<g id="edge27" class="edge">
<title>Node16&#45;&gt;Node21</title>
<path fill="none" stroke="midnightblue" d="M1267.15,-263.58C1293.1,-252.88 1322.28,-240.85 1347.32,-230.52"/>
<polygon fill="midnightblue" stroke="midnightblue" points="1265.66,-260.41 1257.75,-267.45 1268.33,-266.88 1265.66,-260.41"/>
</g>
<!-- Node22 -->
<g id="node22" class="node">
<title>Node22</title>
<g id="a_node22"><a xlink:href="java__single__path__symex__only__checker_8h.html" target="_top" xlink:title=" ">
<polygon fill="none" stroke="black" points="872,-89.5 872,-141.5 1072,-141.5 1072,-89.5 872,-89.5"/>
<text text-anchor="start" x="880" y="-129.5" font-family="Helvetica,sans-Serif" font-size="10.00">/home/runner/work/cbmc</text>
<text text-anchor="start" x="880" y="-118.5" font-family="Helvetica,sans-Serif" font-size="10.00">&#45;documentation/cbmc&#45;documentation</text>
<text text-anchor="start" x="880" y="-107.5" font-family="Helvetica,sans-Serif" font-size="10.00">/jbmc/src/java_bytecode/java</text>
<text text-anchor="middle" x="972" y="-96.5" font-family="Helvetica,sans-Serif" font-size="10.00">_single_path_symex_only_checker.h</text>
</a>
</g>
</g>
<!-- Node16&#45;&gt;Node22 -->
<g id="edge28" class="edge">
<title>Node16&#45;&gt;Node22</title>
<path fill="none" stroke="midnightblue" d="M1129.5,-262.57C1112.81,-253.63 1095.56,-242.97 1081,-231 1057.57,-211.73 1058.7,-200.17 1038,-178 1026.35,-165.52 1012.65,-152.52 1000.77,-141.7"/>
<polygon fill="midnightblue" stroke="midnightblue" points="1128.21,-265.84 1138.7,-267.35 1131.44,-259.63 1128.21,-265.84"/>
</g>
<!-- Node17&#45;&gt;Node5 -->
<g id="edge22" class="edge">
<title>Node17&#45;&gt;Node5</title>
<path fill="none" stroke="midnightblue" d="M1079.91,-184.04C1016.37,-172.5 935.03,-157.19 863,-142 854.16,-140.14 844.93,-138.11 835.75,-136.03"/>
<polygon fill="midnightblue" stroke="midnightblue" points="1079.49,-187.52 1089.95,-185.86 1080.74,-180.63 1079.49,-187.52"/>
</g>
<!-- Node18 -->
<g id="node18" class="node">
<title>Node18</title>
<g id="a_node18"><a xlink:href="single__path__symex__checker_8cpp.html" target="_top" xlink:title=" ">
<polygon fill="none" stroke="black" points="1090,-89.5 1090,-141.5 1290,-141.5 1290,-89.5 1090,-89.5"/>
<text text-anchor="start" x="1098" y="-129.5" font-family="Helvetica,sans-Serif" font-size="10.00">/home/runner/work/cbmc</text>
<text text-anchor="start" x="1098" y="-118.5" font-family="Helvetica,sans-Serif" font-size="10.00">&#45;documentation/cbmc&#45;documentation</text>
<text text-anchor="start" x="1098" y="-107.5" font-family="Helvetica,sans-Serif" font-size="10.00">/src/goto&#45;checker/single_path</text>
<text text-anchor="middle" x="1190" y="-96.5" font-family="Helvetica,sans-Serif" font-size="10.00">_symex_checker.cpp</text>
</a>
</g>
</g>
<!-- Node17&#45;&gt;Node18 -->
<g id="edge23" class="edge">
<title>Node17&#45;&gt;Node18</title>
<path fill="none" stroke="midnightblue" d="M1190,-168.19C1190,-159.28 1190,-149.9 1190,-141.61"/>
<polygon fill="midnightblue" stroke="midnightblue" points="1186.5,-168.34 1190,-178.34 1193.5,-168.34 1186.5,-168.34"/>
</g>
<!-- Node19 -->
<g id="node19" class="node">
<title>Node19</title>
<g id="a_node19"><a xlink:href="java__single__path__symex__checker_8h.html" target="_top" xlink:title=" ">
<polygon fill="none" stroke="black" points="1308,-89.5 1308,-141.5 1508,-141.5 1508,-89.5 1308,-89.5"/>
<text text-anchor="start" x="1316" y="-129.5" font-family="Helvetica,sans-Serif" font-size="10.00">/home/runner/work/cbmc</text>
<text text-anchor="start" x="1316" y="-118.5" font-family="Helvetica,sans-Serif" font-size="10.00">&#45;documentation/cbmc&#45;documentation</text>
<text text-anchor="start" x="1316" y="-107.5" font-family="Helvetica,sans-Serif" font-size="10.00">/jbmc/src/java_bytecode/java</text>
<text text-anchor="middle" x="1408" y="-96.5" font-family="Helvetica,sans-Serif" font-size="10.00">_single_path_symex_checker.h</text>
</a>
</g>
</g>
<!-- Node17&#45;&gt;Node19 -->
<g id="edge24" class="edge">
<title>Node17&#45;&gt;Node19</title>
<path fill="none" stroke="midnightblue" d="M1262.12,-174.72C1289.02,-163.98 1319.32,-151.89 1345.3,-141.52"/>
<polygon fill="midnightblue" stroke="midnightblue" points="1260.75,-171.5 1252.76,-178.45 1263.35,-178 1260.75,-171.5"/>
</g>
<!-- Node19&#45;&gt;Node11 -->
<g id="edge26" class="edge">
<title>Node19&#45;&gt;Node11</title>
<path fill="none" stroke="midnightblue" d="M1297.74,-88.77C1218.11,-72.1 1138.43,-57.17 1076.79,-46"/>
<polygon fill="midnightblue" stroke="midnightblue" points="1297.45,-92.28 1307.95,-90.92 1298.89,-85.43 1297.45,-92.28"/>
</g>
<!-- Node20 -->
<g id="node20" class="node">
<title>Node20</title>
<g id="a_node20"><a xlink:href="java__single__path__symex__checker_8cpp.html" target="_top" xlink:title=" ">
<polygon fill="none" stroke="black" points="1308,-0.5 1308,-52.5 1508,-52.5 1508,-0.5 1308,-0.5"/>
<text text-anchor="start" x="1316" y="-40.5" font-family="Helvetica,sans-Serif" font-size="10.00">/home/runner/work/cbmc</text>
<text text-anchor="start" x="1316" y="-29.5" font-family="Helvetica,sans-Serif" font-size="10.00">&#45;documentation/cbmc&#45;documentation</text>
<text text-anchor="start" x="1316" y="-18.5" font-family="Helvetica,sans-Serif" font-size="10.00">/jbmc/src/java_bytecode/java</text>
<text text-anchor="middle" x="1408" y="-7.5" font-family="Helvetica,sans-Serif" font-size="10.00">_single_path_symex_checker.cpp</text>
</a>
</g>
</g>
<!-- Node19&#45;&gt;Node20 -->
<g id="edge25" class="edge">
<title>Node19&#45;&gt;Node20</title>
<path fill="none" stroke="midnightblue" d="M1408,-79.19C1408,-70.28 1408,-60.9 1408,-52.61"/>
<polygon fill="midnightblue" stroke="midnightblue" points="1404.5,-79.34 1408,-89.34 1411.5,-79.34 1404.5,-79.34"/>
</g>
<!-- Node22&#45;&gt;Node11 -->
<g id="edge29" class="edge">
<title>Node22&#45;&gt;Node11</title>
<path fill="none" stroke="midnightblue" d="M972,-79.16C972,-68.21 972,-56.55 972,-47.08"/>
<polygon fill="midnightblue" stroke="midnightblue" points="968.5,-79.34 972,-89.34 975.5,-79.34 968.5,-79.34"/>
</g>
<!-- Node24 -->
<g id="node24" class="node">
<title>Node24</title>
<g id="a_node24"><a xlink:href="accelerate_8cpp.html" target="_top" xlink:title=" ">
<polygon fill="none" stroke="black" points="1564,-178.5 1564,-230.5 1764,-230.5 1764,-178.5 1564,-178.5"/>
<text text-anchor="start" x="1572" y="-218.5" font-family="Helvetica,sans-Serif" font-size="10.00">/home/runner/work/cbmc</text>
<text text-anchor="start" x="1572" y="-207.5" font-family="Helvetica,sans-Serif" font-size="10.00">&#45;documentation/cbmc&#45;documentation</text>
<text text-anchor="start" x="1572" y="-196.5" font-family="Helvetica,sans-Serif" font-size="10.00">/src/goto&#45;instrument/accelerate</text>
<text text-anchor="middle" x="1664" y="-185.5" font-family="Helvetica,sans-Serif" font-size="10.00">/accelerate.cpp</text>
</a>
</g>
</g>
<!-- Node23&#45;&gt;Node24 -->
<g id="edge32" class="edge">
<title>Node23&#45;&gt;Node24</title>
<path fill="none" stroke="midnightblue" d="M1664,-257.19C1664,-248.28 1664,-238.9 1664,-230.61"/>
<polygon fill="midnightblue" stroke="midnightblue" points="1660.5,-257.34 1664,-267.34 1667.5,-257.34 1660.5,-257.34"/>
</g>
<!-- Node25 -->
<g id="node25" class="node">
<title>Node25</title>
<g id="a_node25"><a xlink:href="acceleration__utils_8cpp.html" target="_top" xlink:title=" ">
<polygon fill="none" stroke="black" points="1782,-178.5 1782,-230.5 1982,-230.5 1982,-178.5 1782,-178.5"/>
<text text-anchor="start" x="1790" y="-218.5" font-family="Helvetica,sans-Serif" font-size="10.00">/home/runner/work/cbmc</text>
<text text-anchor="start" x="1790" y="-207.5" font-family="Helvetica,sans-Serif" font-size="10.00">&#45;documentation/cbmc&#45;documentation</text>
<text text-anchor="start" x="1790" y="-196.5" font-family="Helvetica,sans-Serif" font-size="10.00">/src/goto&#45;instrument/accelerate</text>
<text text-anchor="middle" x="1882" y="-185.5" font-family="Helvetica,sans-Serif" font-size="10.00">/acceleration_utils.cpp</text>
</a>
</g>
</g>
<!-- Node23&#45;&gt;Node25 -->
<g id="edge33" class="edge">
<title>Node23&#45;&gt;Node25</title>
<path fill="none" stroke="midnightblue" d="M1736.12,-263.72C1763.02,-252.98 1793.32,-240.89 1819.3,-230.52"/>
<polygon fill="midnightblue" stroke="midnightblue" points="1734.75,-260.5 1726.76,-267.45 1737.35,-267 1734.75,-260.5"/>
</g>
<!-- Node26 -->
<g id="node26" class="node">
<title>Node26</title>
<g id="a_node26"><a xlink:href="disjunctive__polynomial__acceleration_8cpp.html" target="_top" xlink:title=" ">
<polygon fill="none" stroke="black" points="2000,-178.5 2000,-230.5 2218,-230.5 2218,-178.5 2000,-178.5"/>
<text text-anchor="start" x="2008" y="-218.5" font-family="Helvetica,sans-Serif" font-size="10.00">/home/runner/work/cbmc</text>
<text text-anchor="start" x="2008" y="-207.5" font-family="Helvetica,sans-Serif" font-size="10.00">&#45;documentation/cbmc&#45;documentation</text>
<text text-anchor="start" x="2008" y="-196.5" font-family="Helvetica,sans-Serif" font-size="10.00">/src/goto&#45;instrument/accelerate</text>
<text text-anchor="middle" x="2109" y="-185.5" font-family="Helvetica,sans-Serif" font-size="10.00">/disjunctive_polynomial_acceleration.cpp</text>
</a>
</g>
</g>
<!-- Node23&#45;&gt;Node26 -->
<g id="edge34" class="edge">
<title>Node23&#45;&gt;Node26</title>
<path fill="none" stroke="midnightblue" d="M1773.96,-266.86C1871.01,-247.89 1897.64,-248.78 1991,-231 1993.88,-230.45 1996.8,-229.89 1999.75,-229.31"/>
<polygon fill="midnightblue" stroke="midnightblue" points="1773.16,-263.46 1764.03,-268.83 1774.52,-270.32 1773.16,-263.46"/>
</g>
<!-- Node27 -->
<g id="node27" class="node">
<title>Node27</title>
<g id="a_node27"><a xlink:href="polynomial__accelerator_8cpp.html" target="_top" xlink:title=" ">
<polygon fill="none" stroke="black" points="2236,-178.5 2236,-230.5 2436,-230.5 2436,-178.5 2236,-178.5"/>
<text text-anchor="start" x="2244" y="-218.5" font-family="Helvetica,sans-Serif" font-size="10.00">/home/runner/work/cbmc</text>
<text text-anchor="start" x="2244" y="-207.5" font-family="Helvetica,sans-Serif" font-size="10.00">&#45;documentation/cbmc&#45;documentation</text>
<text text-anchor="start" x="2244" y="-196.5" font-family="Helvetica,sans-Serif" font-size="10.00">/src/goto&#45;instrument/accelerate</text>
<text text-anchor="middle" x="2336" y="-185.5" font-family="Helvetica,sans-Serif" font-size="10.00">/polynomial_accelerator.cpp</text>
</a>
</g>
</g>
<!-- Node23&#45;&gt;Node27 -->
<g id="edge35" class="edge">
<title>Node23&#45;&gt;Node27</title>
<path fill="none" stroke="midnightblue" d="M1774.23,-266.91C1974.78,-236.69 2030.22,-261.64 2227,-231 2229.88,-230.55 2232.8,-230.07 2235.74,-229.56"/>
<polygon fill="midnightblue" stroke="midnightblue" points="1773.62,-263.47 1764.26,-268.44 1774.68,-270.39 1773.62,-263.47"/>
</g>
<!-- Node28 -->
<g id="node28" class="node">
<title>Node28</title>
<g id="a_node28"><a xlink:href="sat__path__enumerator_8cpp.html" target="_top" xlink:title=" ">
<polygon fill="none" stroke="black" points="2454,-178.5 2454,-230.5 2654,-230.5 2654,-178.5 2454,-178.5"/>
<text text-anchor="start" x="2462" y="-218.5" font-family="Helvetica,sans-Serif" font-size="10.00">/home/runner/work/cbmc</text>
<text text-anchor="start" x="2462" y="-207.5" font-family="Helvetica,sans-Serif" font-size="10.00">&#45;documentation/cbmc&#45;documentation</text>
<text text-anchor="start" x="2462" y="-196.5" font-family="Helvetica,sans-Serif" font-size="10.00">/src/goto&#45;instrument/accelerate</text>
<text text-anchor="middle" x="2554" y="-185.5" font-family="Helvetica,sans-Serif" font-size="10.00">/sat_path_enumerator.cpp</text>
</a>
</g>
</g>
<!-- Node23&#45;&gt;Node28 -->
<g id="edge36" class="edge">
<title>Node23&#45;&gt;Node28</title>
<path fill="none" stroke="midnightblue" d="M1774.43,-266.91C2070.92,-225.85 2152.23,-272.76 2445,-231 2447.89,-230.59 2450.81,-230.14 2453.75,-229.65"/>
<polygon fill="midnightblue" stroke="midnightblue" points="1773.66,-263.49 1764.25,-268.35 1774.64,-270.42 1773.66,-263.49"/>
</g>
<!-- Node29 -->
<g id="node29" class="node">
<title>Node29</title>
<g id="a_node29"><a xlink:href="scratch__program_8cpp.html" target="_top" xlink:title=" ">
<polygon fill="none" stroke="black" points="2672,-178.5 2672,-230.5 2872,-230.5 2872,-178.5 2672,-178.5"/>
<text text-anchor="start" x="2680" y="-218.5" font-family="Helvetica,sans-Serif" font-size="10.00">/home/runner/work/cbmc</text>
<text text-anchor="start" x="2680" y="-207.5" font-family="Helvetica,sans-Serif" font-size="10.00">&#45;documentation/cbmc&#45;documentation</text>
<text text-anchor="start" x="2680" y="-196.5" font-family="Helvetica,sans-Serif" font-size="10.00">/src/goto&#45;instrument/accelerate</text>
<text text-anchor="middle" x="2772" y="-185.5" font-family="Helvetica,sans-Serif" font-size="10.00">/scratch_program.cpp</text>
</a>
</g>
</g>
<!-- Node23&#45;&gt;Node29 -->
<g id="edge37" class="edge">
<title>Node23&#45;&gt;Node29</title>
<path fill="none" stroke="midnightblue" d="M1774.17,-266.96C2167.04,-214.84 2273.99,-283.89 2663,-231 2665.89,-230.61 2668.81,-230.17 2671.76,-229.7"/>
<polygon fill="midnightblue" stroke="midnightblue" points="1773.69,-263.5 1764.24,-268.3 1774.62,-270.43 1773.69,-263.5"/>
</g>
</g>
</svg>
