<?xml version="1.0" encoding="UTF-8" standalone="no"?>
<!DOCTYPE svg PUBLIC "-//W3C//DTD SVG 1.1//EN"
 "http://www.w3.org/Graphics/SVG/1.1/DTD/svg11.dtd">
<!-- Generated by graphviz version 2.43.0 (0)
 -->
<!-- Title: /home/runner/work/cbmc&#45;documentation/cbmc&#45;documentation/src/analyses/local_bitvector_analysis.h Pages: 1 -->
<svg width="862pt" height="150pt"
 viewBox="0.00 0.00 862.00 150.00" xmlns="http://www.w3.org/2000/svg" xmlns:xlink="http://www.w3.org/1999/xlink">
<g id="graph0" class="graph" transform="scale(1 1) rotate(0) translate(4 146)">
<title>/home/runner/work/cbmc&#45;documentation/cbmc&#45;documentation/src/analyses/local_bitvector_analysis.h</title>
<!-- Node1 -->
<g id="node1" class="node">
<title>Node1</title>
<g id="a_node1"><a xlink:title=" ">
<polygon fill="#bfbfbf" stroke="black" points="327,-89.5 327,-141.5 527,-141.5 527,-89.5 327,-89.5"/>
<text text-anchor="start" x="335" y="-129.5" font-family="Helvetica,sans-Serif" font-size="10.00">/home/runner/work/cbmc</text>
<text text-anchor="start" x="335" y="-118.5" font-family="Helvetica,sans-Serif" font-size="10.00">&#45;documentation/cbmc&#45;documentation</text>
<text text-anchor="start" x="335" y="-107.5" font-family="Helvetica,sans-Serif" font-size="10.00">/src/analyses/local_bitvector</text>
<text text-anchor="middle" x="427" y="-96.5" font-family="Helvetica,sans-Serif" font-size="10.00">_analysis.h</text>
</a>
</g>
</g>
<!-- Node2 -->
<g id="node2" class="node">
<title>Node2</title>
<g id="a_node2"><a xlink:href="local__bitvector__analysis_8cpp.html" target="_top" xlink:title=" ">
<polygon fill="none" stroke="black" points="0,-0.5 0,-52.5 200,-52.5 200,-0.5 0,-0.5"/>
<text text-anchor="start" x="8" y="-40.5" font-family="Helvetica,sans-Serif" font-size="10.00">/home/runner/work/cbmc</text>
<text text-anchor="start" x="8" y="-29.5" font-family="Helvetica,sans-Serif" font-size="10.00">&#45;documentation/cbmc&#45;documentation</text>
<text text-anchor="start" x="8" y="-18.5" font-family="Helvetica,sans-Serif" font-size="10.00">/src/analyses/local_bitvector</text>
<text text-anchor="middle" x="100" y="-7.5" font-family="Helvetica,sans-Serif" font-size="10.00">_analysis.cpp</text>
</a>
</g>
</g>
<!-- Node1&#45;&gt;Node2 -->
<g id="edge1" class="edge">
<title>Node1&#45;&gt;Node2</title>
<path fill="none" stroke="midnightblue" d="M323.03,-86.84C281.65,-75.83 234.38,-63.25 194.04,-52.52"/>
<polygon fill="midnightblue" stroke="midnightblue" points="322.29,-90.26 332.86,-89.45 324.09,-83.5 322.29,-90.26"/>
</g>
<!-- Node3 -->
<g id="node3" class="node">
<title>Node3</title>
<g id="a_node3"><a xlink:href="goto__check__c_8cpp.html" target="_top" xlink:title=" ">
<polygon fill="none" stroke="black" points="218,-6 218,-47 418,-47 418,-6 218,-6"/>
<text text-anchor="start" x="226" y="-35" font-family="Helvetica,sans-Serif" font-size="10.00">/home/runner/work/cbmc</text>
<text text-anchor="start" x="226" y="-24" font-family="Helvetica,sans-Serif" font-size="10.00">&#45;documentation/cbmc&#45;documentation</text>
<text text-anchor="middle" x="318" y="-13" font-family="Helvetica,sans-Serif" font-size="10.00">/src/ansi&#45;c/goto_check_c.cpp</text>
</a>
</g>
</g>
<!-- Node1&#45;&gt;Node3 -->
<g id="edge2" class="edge">
<title>Node1&#45;&gt;Node3</title>
<path fill="none" stroke="midnightblue" d="M387.34,-82.85C372.35,-70.88 355.74,-57.62 342.53,-47.08"/>
<polygon fill="midnightblue" stroke="midnightblue" points="385.47,-85.83 395.47,-89.34 389.84,-80.36 385.47,-85.83"/>
</g>
<!-- Node4 -->
<g id="node4" class="node">
<title>Node4</title>
<g id="a_node4"><a xlink:href="contracts_8cpp.html" target="_top" xlink:title=" ">
<polygon fill="none" stroke="black" points="436,-0.5 436,-52.5 636,-52.5 636,-0.5 436,-0.5"/>
<text text-anchor="start" x="444" y="-40.5" font-family="Helvetica,sans-Serif" font-size="10.00">/home/runner/work/cbmc</text>
<text text-anchor="start" x="444" y="-29.5" font-family="Helvetica,sans-Serif" font-size="10.00">&#45;documentation/cbmc&#45;documentation</text>
<text text-anchor="start" x="444" y="-18.5" font-family="Helvetica,sans-Serif" font-size="10.00">/src/goto&#45;instrument/contracts</text>
<text text-anchor="middle" x="536" y="-7.5" font-family="Helvetica,sans-Serif" font-size="10.00">/contracts.cpp</text>
</a>
</g>
</g>
<!-- Node1&#45;&gt;Node4 -->
<g id="edge3" class="edge">
<title>Node1&#45;&gt;Node4</title>
<path fill="none" stroke="midnightblue" d="M466.55,-82.93C479.05,-72.96 492.69,-62.07 504.54,-52.61"/>
<polygon fill="midnightblue" stroke="midnightblue" points="464.16,-80.36 458.53,-89.34 468.53,-85.83 464.16,-80.36"/>
</g>
<!-- Node5 -->
<g id="node5" class="node">
<title>Node5</title>
<g id="a_node5"><a xlink:href="goto__instrument__parse__options_8cpp.html" target="_top" xlink:title=" ">
<polygon fill="none" stroke="black" points="654,-0.5 654,-52.5 854,-52.5 854,-0.5 654,-0.5"/>
<text text-anchor="start" x="662" y="-40.5" font-family="Helvetica,sans-Serif" font-size="10.00">/home/runner/work/cbmc</text>
<text text-anchor="start" x="662" y="-29.5" font-family="Helvetica,sans-Serif" font-size="10.00">&#45;documentation/cbmc&#45;documentation</text>
<text text-anchor="start" x="662" y="-18.5" font-family="Helvetica,sans-Serif" font-size="10.00">/src/goto&#45;instrument/goto_instrument</text>
<text text-anchor="middle" x="754" y="-7.5" font-family="Helvetica,sans-Serif" font-size="10.00">_parse_options.cpp</text>
</a>
</g>
</g>
<!-- Node1&#45;&gt;Node5 -->
<g id="edge4" class="edge">
<title>Node1&#45;&gt;Node5</title>
<path fill="none" stroke="midnightblue" d="M530.97,-86.84C572.35,-75.83 619.62,-63.25 659.96,-52.52"/>
<polygon fill="midnightblue" stroke="midnightblue" points="529.91,-83.5 521.14,-89.45 531.71,-90.26 529.91,-83.5"/>
</g>
</g>
</svg>
