<?xml version="1.0" encoding="UTF-8" standalone="no"?>
<!DOCTYPE svg PUBLIC "-//W3C//DTD SVG 1.1//EN"
 "http://www.w3.org/Graphics/SVG/1.1/DTD/svg11.dtd">
<!-- Generated by graphviz version 2.43.0 (0)
 -->
<!-- Title: /home/runner/work/cbmc&#45;documentation/cbmc&#45;documentation/src/analyses/local_safe_pointers.h Pages: 1 -->
<svg width="3795pt" height="495pt"
 viewBox="0.00 0.00 3795.00 495.00" xmlns="http://www.w3.org/2000/svg" xmlns:xlink="http://www.w3.org/1999/xlink">
<g id="graph0" class="graph" transform="scale(1 1) rotate(0) translate(4 491)">
<title>/home/runner/work/cbmc&#45;documentation/cbmc&#45;documentation/src/analyses/local_safe_pointers.h</title>
<!-- Node1 -->
<g id="node1" class="node">
<title>Node1</title>
<g id="a_node1"><a xlink:title=" ">
<polygon fill="#bfbfbf" stroke="black" points="1891,-445.5 1891,-486.5 2091,-486.5 2091,-445.5 1891,-445.5"/>
<text text-anchor="start" x="1899" y="-474.5" font-family="Helvetica,sans-Serif" font-size="10.00">/home/runner/work/cbmc</text>
<text text-anchor="start" x="1899" y="-463.5" font-family="Helvetica,sans-Serif" font-size="10.00">&#45;documentation/cbmc&#45;documentation</text>
<text text-anchor="middle" x="1991" y="-452.5" font-family="Helvetica,sans-Serif" font-size="10.00">/src/analyses/local_safe_pointers.h</text>
</a>
</g>
</g>
<!-- Node2 -->
<g id="node2" class="node">
<title>Node2</title>
<g id="a_node2"><a xlink:href="local__safe__pointers_8cpp.html" target="_top" xlink:title=" ">
<polygon fill="none" stroke="black" points="1673,-362 1673,-403 1873,-403 1873,-362 1673,-362"/>
<text text-anchor="start" x="1681" y="-391" font-family="Helvetica,sans-Serif" font-size="10.00">/home/runner/work/cbmc</text>
<text text-anchor="start" x="1681" y="-380" font-family="Helvetica,sans-Serif" font-size="10.00">&#45;documentation/cbmc&#45;documentation</text>
<text text-anchor="middle" x="1773" y="-369" font-family="Helvetica,sans-Serif" font-size="10.00">/src/analyses/local_safe_pointers.cpp</text>
</a>
</g>
</g>
<!-- Node1&#45;&gt;Node2 -->
<g id="edge1" class="edge">
<title>Node1&#45;&gt;Node2</title>
<path fill="none" stroke="midnightblue" d="M1929.28,-441.92C1896.42,-429.64 1856.46,-414.7 1825.17,-403"/>
<polygon fill="midnightblue" stroke="midnightblue" points="1928.19,-445.26 1938.78,-445.48 1930.64,-438.7 1928.19,-445.26"/>
</g>
<!-- Node3 -->
<g id="node3" class="node">
<title>Node3</title>
<g id="a_node3"><a xlink:href="path__storage_8h.html" target="_top" xlink:title="Storage of symbolic execution paths to resume.">
<polygon fill="none" stroke="black" points="1891,-362 1891,-403 2091,-403 2091,-362 1891,-362"/>
<text text-anchor="start" x="1899" y="-391" font-family="Helvetica,sans-Serif" font-size="10.00">/home/runner/work/cbmc</text>
<text text-anchor="start" x="1899" y="-380" font-family="Helvetica,sans-Serif" font-size="10.00">&#45;documentation/cbmc&#45;documentation</text>
<text text-anchor="middle" x="1991" y="-369" font-family="Helvetica,sans-Serif" font-size="10.00">/src/goto&#45;symex/path_storage.h</text>
</a>
</g>
</g>
<!-- Node1&#45;&gt;Node3 -->
<g id="edge2" class="edge">
<title>Node1&#45;&gt;Node3</title>
<path fill="none" stroke="midnightblue" d="M1991,-435.06C1991,-424.38 1991,-412.63 1991,-403.05"/>
<polygon fill="midnightblue" stroke="midnightblue" points="1987.5,-435.27 1991,-445.27 1994.5,-435.27 1987.5,-435.27"/>
</g>
<!-- Node38 -->
<g id="node38" class="node">
<title>Node38</title>
<g id="a_node38"><a xlink:href="goto__instrument__parse__options_8cpp.html" target="_top" xlink:title=" ">
<polygon fill="none" stroke="black" points="2109,-356.5 2109,-408.5 2309,-408.5 2309,-356.5 2109,-356.5"/>
<text text-anchor="start" x="2117" y="-396.5" font-family="Helvetica,sans-Serif" font-size="10.00">/home/runner/work/cbmc</text>
<text text-anchor="start" x="2117" y="-385.5" font-family="Helvetica,sans-Serif" font-size="10.00">&#45;documentation/cbmc&#45;documentation</text>
<text text-anchor="start" x="2117" y="-374.5" font-family="Helvetica,sans-Serif" font-size="10.00">/src/goto&#45;instrument/goto_instrument</text>
<text text-anchor="middle" x="2209" y="-363.5" font-family="Helvetica,sans-Serif" font-size="10.00">_parse_options.cpp</text>
</a>
</g>
</g>
<!-- Node1&#45;&gt;Node38 -->
<g id="edge47" class="edge">
<title>Node1&#45;&gt;Node38</title>
<path fill="none" stroke="midnightblue" d="M2052.83,-441.89C2080.63,-431.49 2113.52,-419.2 2141.92,-408.58"/>
<polygon fill="midnightblue" stroke="midnightblue" points="2051.36,-438.7 2043.22,-445.48 2053.81,-445.26 2051.36,-438.7"/>
</g>
<!-- Node4 -->
<g id="node4" class="node">
<title>Node4</title>
<g id="a_node4"><a xlink:href="multi__path__symex__only__checker_8h.html" target="_top" xlink:title=" ">
<polygon fill="none" stroke="black" points="443,-267.5 443,-319.5 643,-319.5 643,-267.5 443,-267.5"/>
<text text-anchor="start" x="451" y="-307.5" font-family="Helvetica,sans-Serif" font-size="10.00">/home/runner/work/cbmc</text>
<text text-anchor="start" x="451" y="-296.5" font-family="Helvetica,sans-Serif" font-size="10.00">&#45;documentation/cbmc&#45;documentation</text>
<text text-anchor="start" x="451" y="-285.5" font-family="Helvetica,sans-Serif" font-size="10.00">/src/goto&#45;checker/multi_path</text>
<text text-anchor="middle" x="543" y="-274.5" font-family="Helvetica,sans-Serif" font-size="10.00">_symex_only_checker.h</text>
</a>
</g>
</g>
<!-- Node3&#45;&gt;Node4 -->
<g id="edge3" class="edge">
<title>Node3&#45;&gt;Node4</title>
<path fill="none" stroke="midnightblue" d="M1906.35,-359.98C1898.16,-358.42 1889.95,-357.05 1882,-356 1382.49,-290.3 1251.3,-358.99 749,-320 714.42,-317.32 676.72,-313.05 643.14,-308.76"/>
<polygon fill="midnightblue" stroke="midnightblue" points="1905.81,-363.44 1916.31,-361.97 1907.19,-356.58 1905.81,-363.44"/>
</g>
<!-- Node6 -->
<g id="node6" class="node">
<title>Node6</title>
<g id="a_node6"><a xlink:href="cbmc__parse__options_8cpp.html" target="_top" xlink:title=" ">
<polygon fill="none" stroke="black" points="654,-95 654,-136 854,-136 854,-95 654,-95"/>
<text text-anchor="start" x="662" y="-124" font-family="Helvetica,sans-Serif" font-size="10.00">/home/runner/work/cbmc</text>
<text text-anchor="start" x="662" y="-113" font-family="Helvetica,sans-Serif" font-size="10.00">&#45;documentation/cbmc&#45;documentation</text>
<text text-anchor="middle" x="754" y="-102" font-family="Helvetica,sans-Serif" font-size="10.00">/src/cbmc/cbmc_parse_options.cpp</text>
</a>
</g>
</g>
<!-- Node3&#45;&gt;Node6 -->
<g id="edge28" class="edge">
<title>Node3&#45;&gt;Node6</title>
<path fill="none" stroke="midnightblue" d="M1905.64,-359.96C1897.69,-358.42 1889.72,-357.07 1882,-356 1793.75,-343.8 1161.65,-357.84 1081,-320 1032.58,-297.28 1032.27,-273.65 1000,-231 983.26,-208.87 989.13,-194.74 967,-178 955.78,-169.51 887.86,-150.65 831.69,-136.04"/>
<polygon fill="midnightblue" stroke="midnightblue" points="1905.2,-363.44 1915.7,-361.98 1906.58,-356.57 1905.2,-363.44"/>
</g>
<!-- Node10 -->
<g id="node10" class="node">
<title>Node10</title>
<g id="a_node10"><a xlink:href="jbmc__parse__options_8cpp.html" target="_top" xlink:title=" ">
<polygon fill="none" stroke="black" points="867.5,-6 867.5,-47 1076.5,-47 1076.5,-6 867.5,-6"/>
<text text-anchor="start" x="875.5" y="-35" font-family="Helvetica,sans-Serif" font-size="10.00">/home/runner/work/cbmc</text>
<text text-anchor="start" x="875.5" y="-24" font-family="Helvetica,sans-Serif" font-size="10.00">&#45;documentation/cbmc&#45;documentation</text>
<text text-anchor="middle" x="972" y="-13" font-family="Helvetica,sans-Serif" font-size="10.00">/jbmc/src/jbmc/jbmc_parse_options.cpp</text>
</a>
</g>
</g>
<!-- Node3&#45;&gt;Node10 -->
<g id="edge46" class="edge">
<title>Node3&#45;&gt;Node10</title>
<path fill="none" stroke="midnightblue" d="M1902.51,-359.86C1895.59,-358.46 1888.69,-357.15 1882,-356 1809.94,-343.65 1608.05,-370.3 1555,-320 1479.49,-248.42 1592.41,-160.68 1517,-89 1501.25,-74.02 1230.61,-49.12 1076.77,-36.07"/>
<polygon fill="midnightblue" stroke="midnightblue" points="1902.14,-363.36 1912.64,-361.98 1903.57,-356.51 1902.14,-363.36"/>
</g>
<!-- Node13 -->
<g id="node13" class="node">
<title>Node13</title>
<g id="a_node13"><a xlink:href="single__loop__incremental__symex__checker_8h.html" target="_top" xlink:title=" ">
<polygon fill="none" stroke="black" points="758,-267.5 758,-319.5 958,-319.5 958,-267.5 758,-267.5"/>
<text text-anchor="start" x="766" y="-307.5" font-family="Helvetica,sans-Serif" font-size="10.00">/home/runner/work/cbmc</text>
<text text-anchor="start" x="766" y="-296.5" font-family="Helvetica,sans-Serif" font-size="10.00">&#45;documentation/cbmc&#45;documentation</text>
<text text-anchor="start" x="766" y="-285.5" font-family="Helvetica,sans-Serif" font-size="10.00">/src/goto&#45;checker/single_loop</text>
<text text-anchor="middle" x="858" y="-274.5" font-family="Helvetica,sans-Serif" font-size="10.00">_incremental_symex_checker.h</text>
</a>
</g>
</g>
<!-- Node3&#45;&gt;Node13 -->
<g id="edge14" class="edge">
<title>Node3&#45;&gt;Node13</title>
<path fill="none" stroke="midnightblue" d="M1906.13,-360C1898.01,-358.44 1889.87,-357.07 1882,-356 1480.9,-301.65 1373.36,-372.39 972,-320 967.48,-319.41 962.87,-318.73 958.22,-317.97"/>
<polygon fill="midnightblue" stroke="midnightblue" points="1905.51,-363.45 1916,-361.99 1906.89,-356.59 1905.51,-363.45"/>
</g>
<!-- Node15 -->
<g id="node15" class="node">
<title>Node15</title>
<g id="a_node15"><a xlink:href="single__path__symex__only__checker_8h.html" target="_top" xlink:title=" ">
<polygon fill="none" stroke="black" points="1090,-267.5 1090,-319.5 1290,-319.5 1290,-267.5 1090,-267.5"/>
<text text-anchor="start" x="1098" y="-307.5" font-family="Helvetica,sans-Serif" font-size="10.00">/home/runner/work/cbmc</text>
<text text-anchor="start" x="1098" y="-296.5" font-family="Helvetica,sans-Serif" font-size="10.00">&#45;documentation/cbmc&#45;documentation</text>
<text text-anchor="start" x="1098" y="-285.5" font-family="Helvetica,sans-Serif" font-size="10.00">/src/goto&#45;checker/single_path</text>
<text text-anchor="middle" x="1190" y="-274.5" font-family="Helvetica,sans-Serif" font-size="10.00">_symex_only_checker.h</text>
</a>
</g>
</g>
<!-- Node3&#45;&gt;Node15 -->
<g id="edge17" class="edge">
<title>Node3&#45;&gt;Node15</title>
<path fill="none" stroke="midnightblue" d="M1903.84,-359.9C1896.48,-358.45 1889.13,-357.12 1882,-356 1686.84,-325.42 1635.71,-338.06 1439,-320 1389.99,-315.5 1335.62,-309.99 1290.21,-305.25"/>
<polygon fill="midnightblue" stroke="midnightblue" points="1903.37,-363.38 1913.87,-361.96 1904.78,-356.52 1903.37,-363.38"/>
</g>
<!-- Node20 -->
<g id="node20" class="node">
<title>Node20</title>
<g id="a_node20"><a xlink:href="single__path__symex__only__checker_8cpp.html" target="_top" xlink:title=" ">
<polygon fill="none" stroke="black" points="1308,-178.5 1308,-230.5 1508,-230.5 1508,-178.5 1308,-178.5"/>
<text text-anchor="start" x="1316" y="-218.5" font-family="Helvetica,sans-Serif" font-size="10.00">/home/runner/work/cbmc</text>
<text text-anchor="start" x="1316" y="-207.5" font-family="Helvetica,sans-Serif" font-size="10.00">&#45;documentation/cbmc&#45;documentation</text>
<text text-anchor="start" x="1316" y="-196.5" font-family="Helvetica,sans-Serif" font-size="10.00">/src/goto&#45;checker/single_path</text>
<text text-anchor="middle" x="1408" y="-185.5" font-family="Helvetica,sans-Serif" font-size="10.00">_symex_only_checker.cpp</text>
</a>
</g>
</g>
<!-- Node3&#45;&gt;Node20 -->
<g id="edge29" class="edge">
<title>Node3&#45;&gt;Node20</title>
<path fill="none" stroke="midnightblue" d="M1902.72,-359.83C1895.73,-358.42 1888.76,-357.12 1882,-356 1723.38,-329.63 1667.23,-389.02 1522,-320 1479.94,-300.01 1444.49,-257.8 1424.77,-230.59"/>
<polygon fill="midnightblue" stroke="midnightblue" points="1902.45,-363.34 1912.95,-361.95 1903.87,-356.49 1902.45,-363.34"/>
</g>
<!-- Node22 -->
<g id="node22" class="node">
<title>Node22</title>
<g id="a_node22"><a xlink:href="scratch__program_8h.html" target="_top" xlink:title=" ">
<polygon fill="none" stroke="black" points="1564,-267.5 1564,-319.5 1764,-319.5 1764,-267.5 1564,-267.5"/>
<text text-anchor="start" x="1572" y="-307.5" font-family="Helvetica,sans-Serif" font-size="10.00">/home/runner/work/cbmc</text>
<text text-anchor="start" x="1572" y="-296.5" font-family="Helvetica,sans-Serif" font-size="10.00">&#45;documentation/cbmc&#45;documentation</text>
<text text-anchor="start" x="1572" y="-285.5" font-family="Helvetica,sans-Serif" font-size="10.00">/src/goto&#45;instrument/accelerate</text>
<text text-anchor="middle" x="1664" y="-274.5" font-family="Helvetica,sans-Serif" font-size="10.00">/scratch_program.h</text>
</a>
</g>
</g>
<!-- Node3&#45;&gt;Node22 -->
<g id="edge30" class="edge">
<title>Node3&#45;&gt;Node22</title>
<path fill="none" stroke="midnightblue" d="M1907.75,-359.35C1862.06,-347.19 1805.25,-332.08 1757.98,-319.5"/>
<polygon fill="midnightblue" stroke="midnightblue" points="1907.05,-362.79 1917.61,-361.98 1908.85,-356.02 1907.05,-362.79"/>
</g>
<!-- Node29 -->
<g id="node29" class="node">
<title>Node29</title>
<g id="a_node29"><a xlink:href="path__storage_8cpp.html" target="_top" xlink:title=" ">
<polygon fill="none" stroke="black" points="1782,-273 1782,-314 1982,-314 1982,-273 1782,-273"/>
<text text-anchor="start" x="1790" y="-302" font-family="Helvetica,sans-Serif" font-size="10.00">/home/runner/work/cbmc</text>
<text text-anchor="start" x="1790" y="-291" font-family="Helvetica,sans-Serif" font-size="10.00">&#45;documentation/cbmc&#45;documentation</text>
<text text-anchor="middle" x="1882" y="-280" font-family="Helvetica,sans-Serif" font-size="10.00">/src/goto&#45;symex/path_storage.cpp</text>
</a>
</g>
</g>
<!-- Node3&#45;&gt;Node29 -->
<g id="edge37" class="edge">
<title>Node3&#45;&gt;Node29</title>
<path fill="none" stroke="midnightblue" d="M1958.68,-355.71C1942.07,-342.44 1922.14,-326.53 1906.76,-314.26"/>
<polygon fill="midnightblue" stroke="midnightblue" points="1956.54,-358.47 1966.54,-361.98 1960.91,-353 1956.54,-358.47"/>
</g>
<!-- Node30 -->
<g id="node30" class="node">
<title>Node30</title>
<g id="a_node30"><a xlink:href="symex__builtin__functions_8cpp.html" target="_top" xlink:title=" ">
<polygon fill="none" stroke="black" points="2000,-267.5 2000,-319.5 2200,-319.5 2200,-267.5 2000,-267.5"/>
<text text-anchor="start" x="2008" y="-307.5" font-family="Helvetica,sans-Serif" font-size="10.00">/home/runner/work/cbmc</text>
<text text-anchor="start" x="2008" y="-296.5" font-family="Helvetica,sans-Serif" font-size="10.00">&#45;documentation/cbmc&#45;documentation</text>
<text text-anchor="start" x="2008" y="-285.5" font-family="Helvetica,sans-Serif" font-size="10.00">/src/goto&#45;symex/symex_builtin</text>
<text text-anchor="middle" x="2100" y="-274.5" font-family="Helvetica,sans-Serif" font-size="10.00">_functions.cpp</text>
</a>
</g>
</g>
<!-- Node3&#45;&gt;Node30 -->
<g id="edge38" class="edge">
<title>Node3&#45;&gt;Node30</title>
<path fill="none" stroke="midnightblue" d="M2023.54,-355.53C2037.79,-344.15 2054.45,-330.86 2068.57,-319.58"/>
<polygon fill="midnightblue" stroke="midnightblue" points="2021.09,-353 2015.46,-361.98 2025.46,-358.47 2021.09,-353"/>
</g>
<!-- Node31 -->
<g id="node31" class="node">
<title>Node31</title>
<g id="a_node31"><a xlink:href="symex__clean__expr_8cpp.html" target="_top" xlink:title=" ">
<polygon fill="none" stroke="black" points="2218.5,-273 2218.5,-314 2427.5,-314 2427.5,-273 2218.5,-273"/>
<text text-anchor="start" x="2226.5" y="-302" font-family="Helvetica,sans-Serif" font-size="10.00">/home/runner/work/cbmc</text>
<text text-anchor="start" x="2226.5" y="-291" font-family="Helvetica,sans-Serif" font-size="10.00">&#45;documentation/cbmc&#45;documentation</text>
<text text-anchor="middle" x="2323" y="-280" font-family="Helvetica,sans-Serif" font-size="10.00">/src/goto&#45;symex/symex_clean_expr.cpp</text>
</a>
</g>
</g>
<!-- Node3&#45;&gt;Node31 -->
<g id="edge39" class="edge">
<title>Node3&#45;&gt;Node31</title>
<path fill="none" stroke="midnightblue" d="M2075.29,-359.41C2128.67,-345.42 2197.06,-327.5 2248.45,-314.03"/>
<polygon fill="midnightblue" stroke="midnightblue" points="2074.29,-356.05 2065.51,-361.98 2076.07,-362.83 2074.29,-356.05"/>
</g>
<!-- Node32 -->
<g id="node32" class="node">
<title>Node32</title>
<g id="a_node32"><a xlink:href="symex__decl_8cpp.html" target="_top" xlink:title=" ">
<polygon fill="none" stroke="black" points="2446,-273 2446,-314 2646,-314 2646,-273 2446,-273"/>
<text text-anchor="start" x="2454" y="-302" font-family="Helvetica,sans-Serif" font-size="10.00">/home/runner/work/cbmc</text>
<text text-anchor="start" x="2454" y="-291" font-family="Helvetica,sans-Serif" font-size="10.00">&#45;documentation/cbmc&#45;documentation</text>
<text text-anchor="middle" x="2546" y="-280" font-family="Helvetica,sans-Serif" font-size="10.00">/src/goto&#45;symex/symex_decl.cpp</text>
</a>
</g>
</g>
<!-- Node3&#45;&gt;Node32 -->
<g id="edge40" class="edge">
<title>Node3&#45;&gt;Node32</title>
<path fill="none" stroke="midnightblue" d="M2079.49,-359.84C2086.41,-358.44 2093.31,-357.14 2100,-356 2248.51,-330.8 2288.49,-345.2 2437,-320 2446.96,-318.31 2457.38,-316.25 2467.65,-314.05"/>
<polygon fill="midnightblue" stroke="midnightblue" points="2078.43,-356.48 2069.35,-361.95 2079.86,-363.33 2078.43,-356.48"/>
</g>
<!-- Node33 -->
<g id="node33" class="node">
<title>Node33</title>
<g id="a_node33"><a xlink:href="symex__dereference_8cpp.html" target="_top" xlink:title=" ">
<polygon fill="none" stroke="black" points="2664.5,-273 2664.5,-314 2879.5,-314 2879.5,-273 2664.5,-273"/>
<text text-anchor="start" x="2672.5" y="-302" font-family="Helvetica,sans-Serif" font-size="10.00">/home/runner/work/cbmc</text>
<text text-anchor="start" x="2672.5" y="-291" font-family="Helvetica,sans-Serif" font-size="10.00">&#45;documentation/cbmc&#45;documentation</text>
<text text-anchor="middle" x="2772" y="-280" font-family="Helvetica,sans-Serif" font-size="10.00">/src/goto&#45;symex/symex_dereference.cpp</text>
</a>
</g>
</g>
<!-- Node3&#45;&gt;Node33 -->
<g id="edge41" class="edge">
<title>Node3&#45;&gt;Node33</title>
<path fill="none" stroke="midnightblue" d="M2077.26,-359.95C2084.92,-358.45 2092.58,-357.1 2100,-356 2344.51,-319.72 2410.22,-354.42 2655,-320 2666.32,-318.41 2678.18,-316.32 2689.82,-314.03"/>
<polygon fill="midnightblue" stroke="midnightblue" points="2076.32,-356.57 2067.22,-361.99 2077.72,-363.43 2076.32,-356.57"/>
</g>
<!-- Node34 -->
<g id="node34" class="node">
<title>Node34</title>
<g id="a_node34"><a xlink:href="symex__function__call_8cpp.html" target="_top" xlink:title=" ">
<polygon fill="none" stroke="black" points="2897.5,-273 2897.5,-314 3116.5,-314 3116.5,-273 2897.5,-273"/>
<text text-anchor="start" x="2905.5" y="-302" font-family="Helvetica,sans-Serif" font-size="10.00">/home/runner/work/cbmc</text>
<text text-anchor="start" x="2905.5" y="-291" font-family="Helvetica,sans-Serif" font-size="10.00">&#45;documentation/cbmc&#45;documentation</text>
<text text-anchor="middle" x="3007" y="-280" font-family="Helvetica,sans-Serif" font-size="10.00">/src/goto&#45;symex/symex_function_call.cpp</text>
</a>
</g>
</g>
<!-- Node3&#45;&gt;Node34 -->
<g id="edge42" class="edge">
<title>Node3&#45;&gt;Node34</title>
<path fill="none" stroke="midnightblue" d="M2076.36,-359.96C2084.31,-358.43 2092.28,-357.07 2100,-356 2447.71,-307.81 2540.89,-365.23 2889,-320 2900.74,-318.47 2913.05,-316.38 2925.1,-314.04"/>
<polygon fill="midnightblue" stroke="midnightblue" points="2075.42,-356.58 2066.3,-361.99 2076.8,-363.44 2075.42,-356.58"/>
</g>
<!-- Node35 -->
<g id="node35" class="node">
<title>Node35</title>
<g id="a_node35"><a xlink:href="symex__goto_8cpp.html" target="_top" xlink:title=" ">
<polygon fill="none" stroke="black" points="3135,-273 3135,-314 3335,-314 3335,-273 3135,-273"/>
<text text-anchor="start" x="3143" y="-302" font-family="Helvetica,sans-Serif" font-size="10.00">/home/runner/work/cbmc</text>
<text text-anchor="start" x="3143" y="-291" font-family="Helvetica,sans-Serif" font-size="10.00">&#45;documentation/cbmc&#45;documentation</text>
<text text-anchor="middle" x="3235" y="-280" font-family="Helvetica,sans-Serif" font-size="10.00">/src/goto&#45;symex/symex_goto.cpp</text>
</a>
</g>
</g>
<!-- Node3&#45;&gt;Node35 -->
<g id="edge43" class="edge">
<title>Node3&#45;&gt;Node35</title>
<path fill="none" stroke="midnightblue" d="M2075.87,-359.97C2083.99,-358.41 2092.12,-357.05 2100,-356 2552.28,-295.75 2673.72,-380.25 3126,-320 3137.08,-318.52 3148.68,-316.43 3160.01,-314.06"/>
<polygon fill="midnightblue" stroke="midnightblue" points="2075.11,-356.55 2065.99,-361.94 2076.49,-363.41 2075.11,-356.55"/>
</g>
<!-- Node36 -->
<g id="node36" class="node">
<title>Node36</title>
<g id="a_node36"><a xlink:href="symex__main_8cpp.html" target="_top" xlink:title=" ">
<polygon fill="none" stroke="black" points="3353,-273 3353,-314 3553,-314 3553,-273 3353,-273"/>
<text text-anchor="start" x="3361" y="-302" font-family="Helvetica,sans-Serif" font-size="10.00">/home/runner/work/cbmc</text>
<text text-anchor="start" x="3361" y="-291" font-family="Helvetica,sans-Serif" font-size="10.00">&#45;documentation/cbmc&#45;documentation</text>
<text text-anchor="middle" x="3453" y="-280" font-family="Helvetica,sans-Serif" font-size="10.00">/src/goto&#45;symex/symex_main.cpp</text>
</a>
</g>
</g>
<!-- Node3&#45;&gt;Node36 -->
<g id="edge44" class="edge">
<title>Node3&#45;&gt;Node36</title>
<path fill="none" stroke="midnightblue" d="M2075.65,-359.95C2083.84,-358.4 2092.05,-357.03 2100,-356 2648.5,-284.64 2795.5,-391.36 3344,-320 3355.18,-318.55 3366.89,-316.44 3378.31,-314.06"/>
<polygon fill="midnightblue" stroke="midnightblue" points="2074.81,-356.55 2065.69,-361.94 2076.18,-363.42 2074.81,-356.55"/>
</g>
<!-- Node37 -->
<g id="node37" class="node">
<title>Node37</title>
<g id="a_node37"><a xlink:href="symex__start__thread_8cpp.html" target="_top" xlink:title=" ">
<polygon fill="none" stroke="black" points="3571,-273 3571,-314 3787,-314 3787,-273 3571,-273"/>
<text text-anchor="start" x="3579" y="-302" font-family="Helvetica,sans-Serif" font-size="10.00">/home/runner/work/cbmc</text>
<text text-anchor="start" x="3579" y="-291" font-family="Helvetica,sans-Serif" font-size="10.00">&#45;documentation/cbmc&#45;documentation</text>
<text text-anchor="middle" x="3679" y="-280" font-family="Helvetica,sans-Serif" font-size="10.00">/src/goto&#45;symex/symex_start_thread.cpp</text>
</a>
</g>
</g>
<!-- Node3&#45;&gt;Node37 -->
<g id="edge45" class="edge">
<title>Node3&#45;&gt;Node37</title>
<path fill="none" stroke="midnightblue" d="M2075.43,-359.96C2083.69,-358.39 2091.98,-357.03 2100,-356 2744.72,-273.54 2916.67,-397.56 3562,-320 3574.07,-318.55 3586.74,-316.43 3599.1,-314.02"/>
<polygon fill="midnightblue" stroke="midnightblue" points="2074.51,-356.57 2065.39,-361.96 2075.88,-363.44 2074.51,-356.57"/>
</g>
<!-- Node5 -->
<g id="node5" class="node">
<title>Node5</title>
<g id="a_node5"><a xlink:href="multi__path__symex__checker_8h.html" target="_top" xlink:title=" ">
<polygon fill="none" stroke="black" points="443,-178.5 443,-230.5 643,-230.5 643,-178.5 443,-178.5"/>
<text text-anchor="start" x="451" y="-218.5" font-family="Helvetica,sans-Serif" font-size="10.00">/home/runner/work/cbmc</text>
<text text-anchor="start" x="451" y="-207.5" font-family="Helvetica,sans-Serif" font-size="10.00">&#45;documentation/cbmc&#45;documentation</text>
<text text-anchor="start" x="451" y="-196.5" font-family="Helvetica,sans-Serif" font-size="10.00">/src/goto&#45;checker/multi_path</text>
<text text-anchor="middle" x="543" y="-185.5" font-family="Helvetica,sans-Serif" font-size="10.00">_symex_checker.h</text>
</a>
</g>
</g>
<!-- Node4&#45;&gt;Node5 -->
<g id="edge4" class="edge">
<title>Node4&#45;&gt;Node5</title>
<path fill="none" stroke="midnightblue" d="M543,-257.19C543,-248.28 543,-238.9 543,-230.61"/>
<polygon fill="midnightblue" stroke="midnightblue" points="539.5,-257.34 543,-267.34 546.5,-257.34 539.5,-257.34"/>
</g>
<!-- Node4&#45;&gt;Node6 -->
<g id="edge10" class="edge">
<title>Node4&#45;&gt;Node6</title>
<path fill="none" stroke="midnightblue" d="M604.32,-262.56C620.52,-253.42 637.51,-242.68 652,-231 687.65,-202.27 721.44,-160.46 739.78,-136.11"/>
<polygon fill="midnightblue" stroke="midnightblue" points="602.49,-259.57 595.42,-267.46 605.87,-265.7 602.49,-259.57"/>
</g>
<!-- Node11 -->
<g id="node11" class="node">
<title>Node11</title>
<g id="a_node11"><a xlink:href="multi__path__symex__only__checker_8cpp.html" target="_top" xlink:title=" ">
<polygon fill="none" stroke="black" points="187,-178.5 187,-230.5 387,-230.5 387,-178.5 187,-178.5"/>
<text text-anchor="start" x="195" y="-218.5" font-family="Helvetica,sans-Serif" font-size="10.00">/home/runner/work/cbmc</text>
<text text-anchor="start" x="195" y="-207.5" font-family="Helvetica,sans-Serif" font-size="10.00">&#45;documentation/cbmc&#45;documentation</text>
<text text-anchor="start" x="195" y="-196.5" font-family="Helvetica,sans-Serif" font-size="10.00">/src/goto&#45;checker/multi_path</text>
<text text-anchor="middle" x="287" y="-185.5" font-family="Helvetica,sans-Serif" font-size="10.00">_symex_only_checker.cpp</text>
</a>
</g>
</g>
<!-- Node4&#45;&gt;Node11 -->
<g id="edge11" class="edge">
<title>Node4&#45;&gt;Node11</title>
<path fill="none" stroke="midnightblue" d="M459.54,-264.14C427.65,-253.3 391.54,-241.03 360.63,-230.52"/>
<polygon fill="midnightblue" stroke="midnightblue" points="458.7,-267.55 469.3,-267.45 460.96,-260.92 458.7,-267.55"/>
</g>
<!-- Node12 -->
<g id="node12" class="node">
<title>Node12</title>
<g id="a_node12"><a xlink:href="java__multi__path__symex__only__checker_8h.html" target="_top" xlink:title=" ">
<polygon fill="none" stroke="black" points="0,-89.5 0,-141.5 200,-141.5 200,-89.5 0,-89.5"/>
<text text-anchor="start" x="8" y="-129.5" font-family="Helvetica,sans-Serif" font-size="10.00">/home/runner/work/cbmc</text>
<text text-anchor="start" x="8" y="-118.5" font-family="Helvetica,sans-Serif" font-size="10.00">&#45;documentation/cbmc&#45;documentation</text>
<text text-anchor="start" x="8" y="-107.5" font-family="Helvetica,sans-Serif" font-size="10.00">/jbmc/src/java_bytecode/java</text>
<text text-anchor="middle" x="100" y="-96.5" font-family="Helvetica,sans-Serif" font-size="10.00">_multi_path_symex_only_checker.h</text>
</a>
</g>
</g>
<!-- Node4&#45;&gt;Node12 -->
<g id="edge12" class="edge">
<title>Node4&#45;&gt;Node12</title>
<path fill="none" stroke="midnightblue" d="M478.72,-262.35C463.18,-253.46 447.25,-242.89 434,-231 412.43,-211.64 420.41,-193.63 396,-178 324.72,-132.36 291.78,-159.64 209,-142 206.05,-141.37 203.06,-140.73 200.05,-140.07"/>
<polygon fill="midnightblue" stroke="midnightblue" points="477.36,-265.6 487.8,-267.39 480.75,-259.48 477.36,-265.6"/>
</g>
<!-- Node5&#45;&gt;Node6 -->
<g id="edge5" class="edge">
<title>Node5&#45;&gt;Node6</title>
<path fill="none" stroke="midnightblue" d="M613.09,-174.6C643.73,-161.97 678.86,-147.48 706.38,-136.13"/>
<polygon fill="midnightblue" stroke="midnightblue" points="611.66,-171.41 603.75,-178.45 614.33,-177.88 611.66,-171.41"/>
</g>
<!-- Node7 -->
<g id="node7" class="node">
<title>Node7</title>
<g id="a_node7"><a xlink:href="multi__path__symex__checker_8cpp.html" target="_top" xlink:title=" ">
<polygon fill="none" stroke="black" points="436,-89.5 436,-141.5 636,-141.5 636,-89.5 436,-89.5"/>
<text text-anchor="start" x="444" y="-129.5" font-family="Helvetica,sans-Serif" font-size="10.00">/home/runner/work/cbmc</text>
<text text-anchor="start" x="444" y="-118.5" font-family="Helvetica,sans-Serif" font-size="10.00">&#45;documentation/cbmc&#45;documentation</text>
<text text-anchor="start" x="444" y="-107.5" font-family="Helvetica,sans-Serif" font-size="10.00">/src/goto&#45;checker/multi_path</text>
<text text-anchor="middle" x="536" y="-96.5" font-family="Helvetica,sans-Serif" font-size="10.00">_symex_checker.cpp</text>
</a>
</g>
</g>
<!-- Node5&#45;&gt;Node7 -->
<g id="edge6" class="edge">
<title>Node5&#45;&gt;Node7</title>
<path fill="none" stroke="midnightblue" d="M540.16,-168.19C539.44,-159.28 538.69,-149.9 538.02,-141.61"/>
<polygon fill="midnightblue" stroke="midnightblue" points="536.68,-168.65 540.98,-178.34 543.66,-168.09 536.68,-168.65"/>
</g>
<!-- Node8 -->
<g id="node8" class="node">
<title>Node8</title>
<g id="a_node8"><a xlink:href="java__multi__path__symex__checker_8h.html" target="_top" xlink:title=" ">
<polygon fill="none" stroke="black" points="218,-89.5 218,-141.5 418,-141.5 418,-89.5 218,-89.5"/>
<text text-anchor="start" x="226" y="-129.5" font-family="Helvetica,sans-Serif" font-size="10.00">/home/runner/work/cbmc</text>
<text text-anchor="start" x="226" y="-118.5" font-family="Helvetica,sans-Serif" font-size="10.00">&#45;documentation/cbmc&#45;documentation</text>
<text text-anchor="start" x="226" y="-107.5" font-family="Helvetica,sans-Serif" font-size="10.00">/jbmc/src/java_bytecode/java</text>
<text text-anchor="middle" x="318" y="-96.5" font-family="Helvetica,sans-Serif" font-size="10.00">_multi_path_symex_checker.h</text>
</a>
</g>
</g>
<!-- Node5&#45;&gt;Node8 -->
<g id="edge7" class="edge">
<title>Node5&#45;&gt;Node8</title>
<path fill="none" stroke="midnightblue" d="M468.56,-174.72C440.8,-163.98 409.53,-151.89 382.71,-141.52"/>
<polygon fill="midnightblue" stroke="midnightblue" points="467.63,-178.11 478.22,-178.45 470.16,-171.58 467.63,-178.11"/>
</g>
<!-- Node9 -->
<g id="node9" class="node">
<title>Node9</title>
<g id="a_node9"><a xlink:href="java__multi__path__symex__checker_8cpp.html" target="_top" xlink:title=" ">
<polygon fill="none" stroke="black" points="218,-0.5 218,-52.5 418,-52.5 418,-0.5 218,-0.5"/>
<text text-anchor="start" x="226" y="-40.5" font-family="Helvetica,sans-Serif" font-size="10.00">/home/runner/work/cbmc</text>
<text text-anchor="start" x="226" y="-29.5" font-family="Helvetica,sans-Serif" font-size="10.00">&#45;documentation/cbmc&#45;documentation</text>
<text text-anchor="start" x="226" y="-18.5" font-family="Helvetica,sans-Serif" font-size="10.00">/jbmc/src/java_bytecode/java</text>
<text text-anchor="middle" x="318" y="-7.5" font-family="Helvetica,sans-Serif" font-size="10.00">_multi_path_symex_checker.cpp</text>
</a>
</g>
</g>
<!-- Node8&#45;&gt;Node9 -->
<g id="edge8" class="edge">
<title>Node8&#45;&gt;Node9</title>
<path fill="none" stroke="midnightblue" d="M318,-79.19C318,-70.28 318,-60.9 318,-52.61"/>
<polygon fill="midnightblue" stroke="midnightblue" points="314.5,-79.34 318,-89.34 321.5,-79.34 314.5,-79.34"/>
</g>
<!-- Node8&#45;&gt;Node10 -->
<g id="edge9" class="edge">
<title>Node8&#45;&gt;Node10</title>
<path fill="none" stroke="midnightblue" d="M428.2,-88.87C586.39,-62 759.41,-44.87 867.26,-35.64"/>
<polygon fill="midnightblue" stroke="midnightblue" points="427.55,-85.43 418.28,-90.57 428.73,-92.33 427.55,-85.43"/>
</g>
<!-- Node12&#45;&gt;Node10 -->
<g id="edge13" class="edge">
<title>Node12&#45;&gt;Node10</title>
<path fill="none" stroke="midnightblue" d="M210.22,-88.91C450.11,-52.06 721.93,-36.94 867.44,-30.98"/>
<polygon fill="midnightblue" stroke="midnightblue" points="209.61,-85.46 200.26,-90.45 210.68,-92.38 209.61,-85.46"/>
</g>
<!-- Node13&#45;&gt;Node6 -->
<g id="edge15" class="edge">
<title>Node13&#45;&gt;Node6</title>
<path fill="none" stroke="midnightblue" d="M779.51,-262C767.32,-253.78 756.34,-243.58 749,-231 731.84,-201.62 739.84,-160.4 747.04,-136.27"/>
<polygon fill="midnightblue" stroke="midnightblue" points="777.78,-265.05 788.12,-267.37 781.49,-259.11 777.78,-265.05"/>
</g>
<!-- Node14 -->
<g id="node14" class="node">
<title>Node14</title>
<g id="a_node14"><a xlink:href="single__loop__incremental__symex__checker_8cpp.html" target="_top" xlink:title=" ">
<polygon fill="none" stroke="black" points="758,-178.5 758,-230.5 958,-230.5 958,-178.5 758,-178.5"/>
<text text-anchor="start" x="766" y="-218.5" font-family="Helvetica,sans-Serif" font-size="10.00">/home/runner/work/cbmc</text>
<text text-anchor="start" x="766" y="-207.5" font-family="Helvetica,sans-Serif" font-size="10.00">&#45;documentation/cbmc&#45;documentation</text>
<text text-anchor="start" x="766" y="-196.5" font-family="Helvetica,sans-Serif" font-size="10.00">/src/goto&#45;checker/single_loop</text>
<text text-anchor="middle" x="858" y="-185.5" font-family="Helvetica,sans-Serif" font-size="10.00">_incremental_symex_checker.cpp</text>
</a>
</g>
</g>
<!-- Node13&#45;&gt;Node14 -->
<g id="edge16" class="edge">
<title>Node13&#45;&gt;Node14</title>
<path fill="none" stroke="midnightblue" d="M858,-257.19C858,-248.28 858,-238.9 858,-230.61"/>
<polygon fill="midnightblue" stroke="midnightblue" points="854.5,-257.34 858,-267.34 861.5,-257.34 854.5,-257.34"/>
</g>
<!-- Node15&#45;&gt;Node6 -->
<g id="edge24" class="edge">
<title>Node15&#45;&gt;Node6</title>
<path fill="none" stroke="midnightblue" d="M1094.4,-263.43C1074.6,-254.85 1054.71,-244.14 1038,-231 1015.22,-213.08 1023.97,-194.29 1000,-178 996.44,-175.58 905.3,-153.13 834.98,-136.05"/>
<polygon fill="midnightblue" stroke="midnightblue" points="1093.21,-266.72 1103.79,-267.34 1095.9,-260.26 1093.21,-266.72"/>
</g>
<!-- Node16 -->
<g id="node16" class="node">
<title>Node16</title>
<g id="a_node16"><a xlink:href="single__path__symex__checker_8h.html" target="_top" xlink:title=" ">
<polygon fill="none" stroke="black" points="1090,-178.5 1090,-230.5 1290,-230.5 1290,-178.5 1090,-178.5"/>
<text text-anchor="start" x="1098" y="-218.5" font-family="Helvetica,sans-Serif" font-size="10.00">/home/runner/work/cbmc</text>
<text text-anchor="start" x="1098" y="-207.5" font-family="Helvetica,sans-Serif" font-size="10.00">&#45;documentation/cbmc&#45;documentation</text>
<text text-anchor="start" x="1098" y="-196.5" font-family="Helvetica,sans-Serif" font-size="10.00">/src/goto&#45;checker/single_path</text>
<text text-anchor="middle" x="1190" y="-185.5" font-family="Helvetica,sans-Serif" font-size="10.00">_symex_checker.h</text>
</a>
</g>
</g>
<!-- Node15&#45;&gt;Node16 -->
<g id="edge18" class="edge">
<title>Node15&#45;&gt;Node16</title>
<path fill="none" stroke="midnightblue" d="M1190,-257.19C1190,-248.28 1190,-238.9 1190,-230.61"/>
<polygon fill="midnightblue" stroke="midnightblue" points="1186.5,-257.34 1190,-267.34 1193.5,-257.34 1186.5,-257.34"/>
</g>
<!-- Node15&#45;&gt;Node20 -->
<g id="edge25" class="edge">
<title>Node15&#45;&gt;Node20</title>
<path fill="none" stroke="midnightblue" d="M1262.12,-263.72C1289.02,-252.98 1319.32,-240.89 1345.3,-230.52"/>
<polygon fill="midnightblue" stroke="midnightblue" points="1260.75,-260.5 1252.76,-267.45 1263.35,-267 1260.75,-260.5"/>
</g>
<!-- Node21 -->
<g id="node21" class="node">
<title>Node21</title>
<g id="a_node21"><a xlink:href="java__single__path__symex__only__checker_8h.html" target="_top" xlink:title=" ">
<polygon fill="none" stroke="black" points="872,-89.5 872,-141.5 1072,-141.5 1072,-89.5 872,-89.5"/>
<text text-anchor="start" x="880" y="-129.5" font-family="Helvetica,sans-Serif" font-size="10.00">/home/runner/work/cbmc</text>
<text text-anchor="start" x="880" y="-118.5" font-family="Helvetica,sans-Serif" font-size="10.00">&#45;documentation/cbmc&#45;documentation</text>
<text text-anchor="start" x="880" y="-107.5" font-family="Helvetica,sans-Serif" font-size="10.00">/jbmc/src/java_bytecode/java</text>
<text text-anchor="middle" x="972" y="-96.5" font-family="Helvetica,sans-Serif" font-size="10.00">_single_path_symex_only_checker.h</text>
</a>
</g>
</g>
<!-- Node15&#45;&gt;Node21 -->
<g id="edge26" class="edge">
<title>Node15&#45;&gt;Node21</title>
<path fill="none" stroke="midnightblue" d="M1127.6,-262.59C1111.62,-253.54 1095,-242.83 1081,-231 1057.83,-211.43 1058.7,-200.17 1038,-178 1026.35,-165.52 1012.65,-152.52 1000.77,-141.7"/>
<polygon fill="midnightblue" stroke="midnightblue" points="1125.95,-265.68 1136.39,-267.44 1129.33,-259.55 1125.95,-265.68"/>
</g>
<!-- Node16&#45;&gt;Node6 -->
<g id="edge19" class="edge">
<title>Node16&#45;&gt;Node6</title>
<path fill="none" stroke="midnightblue" d="M1079.91,-184.04C1016.37,-172.5 935.03,-157.19 863,-142 854.16,-140.14 844.93,-138.11 835.75,-136.03"/>
<polygon fill="midnightblue" stroke="midnightblue" points="1079.49,-187.52 1089.95,-185.86 1080.74,-180.63 1079.49,-187.52"/>
</g>
<!-- Node17 -->
<g id="node17" class="node">
<title>Node17</title>
<g id="a_node17"><a xlink:href="single__path__symex__checker_8cpp.html" target="_top" xlink:title=" ">
<polygon fill="none" stroke="black" points="1090,-89.5 1090,-141.5 1290,-141.5 1290,-89.5 1090,-89.5"/>
<text text-anchor="start" x="1098" y="-129.5" font-family="Helvetica,sans-Serif" font-size="10.00">/home/runner/work/cbmc</text>
<text text-anchor="start" x="1098" y="-118.5" font-family="Helvetica,sans-Serif" font-size="10.00">&#45;documentation/cbmc&#45;documentation</text>
<text text-anchor="start" x="1098" y="-107.5" font-family="Helvetica,sans-Serif" font-size="10.00">/src/goto&#45;checker/single_path</text>
<text text-anchor="middle" x="1190" y="-96.5" font-family="Helvetica,sans-Serif" font-size="10.00">_symex_checker.cpp</text>
</a>
</g>
</g>
<!-- Node16&#45;&gt;Node17 -->
<g id="edge20" class="edge">
<title>Node16&#45;&gt;Node17</title>
<path fill="none" stroke="midnightblue" d="M1190,-168.19C1190,-159.28 1190,-149.9 1190,-141.61"/>
<polygon fill="midnightblue" stroke="midnightblue" points="1186.5,-168.34 1190,-178.34 1193.5,-168.34 1186.5,-168.34"/>
</g>
<!-- Node18 -->
<g id="node18" class="node">
<title>Node18</title>
<g id="a_node18"><a xlink:href="java__single__path__symex__checker_8h.html" target="_top" xlink:title=" ">
<polygon fill="none" stroke="black" points="1308,-89.5 1308,-141.5 1508,-141.5 1508,-89.5 1308,-89.5"/>
<text text-anchor="start" x="1316" y="-129.5" font-family="Helvetica,sans-Serif" font-size="10.00">/home/runner/work/cbmc</text>
<text text-anchor="start" x="1316" y="-118.5" font-family="Helvetica,sans-Serif" font-size="10.00">&#45;documentation/cbmc&#45;documentation</text>
<text text-anchor="start" x="1316" y="-107.5" font-family="Helvetica,sans-Serif" font-size="10.00">/jbmc/src/java_bytecode/java</text>
<text text-anchor="middle" x="1408" y="-96.5" font-family="Helvetica,sans-Serif" font-size="10.00">_single_path_symex_checker.h</text>
</a>
</g>
</g>
<!-- Node16&#45;&gt;Node18 -->
<g id="edge21" class="edge">
<title>Node16&#45;&gt;Node18</title>
<path fill="none" stroke="midnightblue" d="M1262.12,-174.72C1289.02,-163.98 1319.32,-151.89 1345.3,-141.52"/>
<polygon fill="midnightblue" stroke="midnightblue" points="1260.75,-171.5 1252.76,-178.45 1263.35,-178 1260.75,-171.5"/>
</g>
<!-- Node18&#45;&gt;Node10 -->
<g id="edge23" class="edge">
<title>Node18&#45;&gt;Node10</title>
<path fill="none" stroke="midnightblue" d="M1297.74,-88.77C1218.11,-72.1 1138.43,-57.17 1076.79,-46"/>
<polygon fill="midnightblue" stroke="midnightblue" points="1297.45,-92.28 1307.95,-90.92 1298.89,-85.43 1297.45,-92.28"/>
</g>
<!-- Node19 -->
<g id="node19" class="node">
<title>Node19</title>
<g id="a_node19"><a xlink:href="java__single__path__symex__checker_8cpp.html" target="_top" xlink:title=" ">
<polygon fill="none" stroke="black" points="1308,-0.5 1308,-52.5 1508,-52.5 1508,-0.5 1308,-0.5"/>
<text text-anchor="start" x="1316" y="-40.5" font-family="Helvetica,sans-Serif" font-size="10.00">/home/runner/work/cbmc</text>
<text text-anchor="start" x="1316" y="-29.5" font-family="Helvetica,sans-Serif" font-size="10.00">&#45;documentation/cbmc&#45;documentation</text>
<text text-anchor="start" x="1316" y="-18.5" font-family="Helvetica,sans-Serif" font-size="10.00">/jbmc/src/java_bytecode/java</text>
<text text-anchor="middle" x="1408" y="-7.5" font-family="Helvetica,sans-Serif" font-size="10.00">_single_path_symex_checker.cpp</text>
</a>
</g>
</g>
<!-- Node18&#45;&gt;Node19 -->
<g id="edge22" class="edge">
<title>Node18&#45;&gt;Node19</title>
<path fill="none" stroke="midnightblue" d="M1408,-79.19C1408,-70.28 1408,-60.9 1408,-52.61"/>
<polygon fill="midnightblue" stroke="midnightblue" points="1404.5,-79.34 1408,-89.34 1411.5,-79.34 1404.5,-79.34"/>
</g>
<!-- Node21&#45;&gt;Node10 -->
<g id="edge27" class="edge">
<title>Node21&#45;&gt;Node10</title>
<path fill="none" stroke="midnightblue" d="M972,-79.16C972,-68.21 972,-56.55 972,-47.08"/>
<polygon fill="midnightblue" stroke="midnightblue" points="968.5,-79.34 972,-89.34 975.5,-79.34 968.5,-79.34"/>
</g>
<!-- Node23 -->
<g id="node23" class="node">
<title>Node23</title>
<g id="a_node23"><a xlink:href="accelerate_8cpp.html" target="_top" xlink:title=" ">
<polygon fill="none" stroke="black" points="1564,-178.5 1564,-230.5 1764,-230.5 1764,-178.5 1564,-178.5"/>
<text text-anchor="start" x="1572" y="-218.5" font-family="Helvetica,sans-Serif" font-size="10.00">/home/runner/work/cbmc</text>
<text text-anchor="start" x="1572" y="-207.5" font-family="Helvetica,sans-Serif" font-size="10.00">&#45;documentation/cbmc&#45;documentation</text>
<text text-anchor="start" x="1572" y="-196.5" font-family="Helvetica,sans-Serif" font-size="10.00">/src/goto&#45;instrument/accelerate</text>
<text text-anchor="middle" x="1664" y="-185.5" font-family="Helvetica,sans-Serif" font-size="10.00">/accelerate.cpp</text>
</a>
</g>
</g>
<!-- Node22&#45;&gt;Node23 -->
<g id="edge31" class="edge">
<title>Node22&#45;&gt;Node23</title>
<path fill="none" stroke="midnightblue" d="M1664,-257.19C1664,-248.28 1664,-238.9 1664,-230.61"/>
<polygon fill="midnightblue" stroke="midnightblue" points="1660.5,-257.34 1664,-267.34 1667.5,-257.34 1660.5,-257.34"/>
</g>
<!-- Node24 -->
<g id="node24" class="node">
<title>Node24</title>
<g id="a_node24"><a xlink:href="acceleration__utils_8cpp.html" target="_top" xlink:title=" ">
<polygon fill="none" stroke="black" points="1782,-178.5 1782,-230.5 1982,-230.5 1982,-178.5 1782,-178.5"/>
<text text-anchor="start" x="1790" y="-218.5" font-family="Helvetica,sans-Serif" font-size="10.00">/home/runner/work/cbmc</text>
<text text-anchor="start" x="1790" y="-207.5" font-family="Helvetica,sans-Serif" font-size="10.00">&#45;documentation/cbmc&#45;documentation</text>
<text text-anchor="start" x="1790" y="-196.5" font-family="Helvetica,sans-Serif" font-size="10.00">/src/goto&#45;instrument/accelerate</text>
<text text-anchor="middle" x="1882" y="-185.5" font-family="Helvetica,sans-Serif" font-size="10.00">/acceleration_utils.cpp</text>
</a>
</g>
</g>
<!-- Node22&#45;&gt;Node24 -->
<g id="edge32" class="edge">
<title>Node22&#45;&gt;Node24</title>
<path fill="none" stroke="midnightblue" d="M1736.12,-263.72C1763.02,-252.98 1793.32,-240.89 1819.3,-230.52"/>
<polygon fill="midnightblue" stroke="midnightblue" points="1734.75,-260.5 1726.76,-267.45 1737.35,-267 1734.75,-260.5"/>
</g>
<!-- Node25 -->
<g id="node25" class="node">
<title>Node25</title>
<g id="a_node25"><a xlink:href="disjunctive__polynomial__acceleration_8cpp.html" target="_top" xlink:title=" ">
<polygon fill="none" stroke="black" points="2000,-178.5 2000,-230.5 2218,-230.5 2218,-178.5 2000,-178.5"/>
<text text-anchor="start" x="2008" y="-218.5" font-family="Helvetica,sans-Serif" font-size="10.00">/home/runner/work/cbmc</text>
<text text-anchor="start" x="2008" y="-207.5" font-family="Helvetica,sans-Serif" font-size="10.00">&#45;documentation/cbmc&#45;documentation</text>
<text text-anchor="start" x="2008" y="-196.5" font-family="Helvetica,sans-Serif" font-size="10.00">/src/goto&#45;instrument/accelerate</text>
<text text-anchor="middle" x="2109" y="-185.5" font-family="Helvetica,sans-Serif" font-size="10.00">/disjunctive_polynomial_acceleration.cpp</text>
</a>
</g>
</g>
<!-- Node22&#45;&gt;Node25 -->
<g id="edge33" class="edge">
<title>Node22&#45;&gt;Node25</title>
<path fill="none" stroke="midnightblue" d="M1773.96,-266.86C1871.01,-247.89 1897.64,-248.78 1991,-231 1993.88,-230.45 1996.8,-229.89 1999.75,-229.31"/>
<polygon fill="midnightblue" stroke="midnightblue" points="1773.16,-263.46 1764.03,-268.83 1774.52,-270.32 1773.16,-263.46"/>
</g>
<!-- Node26 -->
<g id="node26" class="node">
<title>Node26</title>
<g id="a_node26"><a xlink:href="polynomial__accelerator_8cpp.html" target="_top" xlink:title=" ">
<polygon fill="none" stroke="black" points="2236,-178.5 2236,-230.5 2436,-230.5 2436,-178.5 2236,-178.5"/>
<text text-anchor="start" x="2244" y="-218.5" font-family="Helvetica,sans-Serif" font-size="10.00">/home/runner/work/cbmc</text>
<text text-anchor="start" x="2244" y="-207.5" font-family="Helvetica,sans-Serif" font-size="10.00">&#45;documentation/cbmc&#45;documentation</text>
<text text-anchor="start" x="2244" y="-196.5" font-family="Helvetica,sans-Serif" font-size="10.00">/src/goto&#45;instrument/accelerate</text>
<text text-anchor="middle" x="2336" y="-185.5" font-family="Helvetica,sans-Serif" font-size="10.00">/polynomial_accelerator.cpp</text>
</a>
</g>
</g>
<!-- Node22&#45;&gt;Node26 -->
<g id="edge34" class="edge">
<title>Node22&#45;&gt;Node26</title>
<path fill="none" stroke="midnightblue" d="M1774.23,-266.91C1974.78,-236.69 2030.22,-261.64 2227,-231 2229.88,-230.55 2232.8,-230.07 2235.74,-229.56"/>
<polygon fill="midnightblue" stroke="midnightblue" points="1773.62,-263.47 1764.26,-268.44 1774.68,-270.39 1773.62,-263.47"/>
</g>
<!-- Node27 -->
<g id="node27" class="node">
<title>Node27</title>
<g id="a_node27"><a xlink:href="sat__path__enumerator_8cpp.html" target="_top" xlink:title=" ">
<polygon fill="none" stroke="black" points="2454,-178.5 2454,-230.5 2654,-230.5 2654,-178.5 2454,-178.5"/>
<text text-anchor="start" x="2462" y="-218.5" font-family="Helvetica,sans-Serif" font-size="10.00">/home/runner/work/cbmc</text>
<text text-anchor="start" x="2462" y="-207.5" font-family="Helvetica,sans-Serif" font-size="10.00">&#45;documentation/cbmc&#45;documentation</text>
<text text-anchor="start" x="2462" y="-196.5" font-family="Helvetica,sans-Serif" font-size="10.00">/src/goto&#45;instrument/accelerate</text>
<text text-anchor="middle" x="2554" y="-185.5" font-family="Helvetica,sans-Serif" font-size="10.00">/sat_path_enumerator.cpp</text>
</a>
</g>
</g>
<!-- Node22&#45;&gt;Node27 -->
<g id="edge35" class="edge">
<title>Node22&#45;&gt;Node27</title>
<path fill="none" stroke="midnightblue" d="M1774.43,-266.91C2070.92,-225.85 2152.23,-272.76 2445,-231 2447.89,-230.59 2450.81,-230.14 2453.75,-229.65"/>
<polygon fill="midnightblue" stroke="midnightblue" points="1773.66,-263.49 1764.25,-268.35 1774.64,-270.42 1773.66,-263.49"/>
</g>
<!-- Node28 -->
<g id="node28" class="node">
<title>Node28</title>
<g id="a_node28"><a xlink:href="scratch__program_8cpp.html" target="_top" xlink:title=" ">
<polygon fill="none" stroke="black" points="2672,-178.5 2672,-230.5 2872,-230.5 2872,-178.5 2672,-178.5"/>
<text text-anchor="start" x="2680" y="-218.5" font-family="Helvetica,sans-Serif" font-size="10.00">/home/runner/work/cbmc</text>
<text text-anchor="start" x="2680" y="-207.5" font-family="Helvetica,sans-Serif" font-size="10.00">&#45;documentation/cbmc&#45;documentation</text>
<text text-anchor="start" x="2680" y="-196.5" font-family="Helvetica,sans-Serif" font-size="10.00">/src/goto&#45;instrument/accelerate</text>
<text text-anchor="middle" x="2772" y="-185.5" font-family="Helvetica,sans-Serif" font-size="10.00">/scratch_program.cpp</text>
</a>
</g>
</g>
<!-- Node22&#45;&gt;Node28 -->
<g id="edge36" class="edge">
<title>Node22&#45;&gt;Node28</title>
<path fill="none" stroke="midnightblue" d="M1774.17,-266.96C2167.04,-214.84 2273.99,-283.89 2663,-231 2665.89,-230.61 2668.81,-230.17 2671.76,-229.7"/>
<polygon fill="midnightblue" stroke="midnightblue" points="1773.69,-263.5 1764.24,-268.3 1774.62,-270.43 1773.69,-263.5"/>
</g>
</g>
</svg>
