<?xml version="1.0" encoding="UTF-8" standalone="no"?>
<!DOCTYPE svg PUBLIC "-//W3C//DTD SVG 1.1//EN"
 "http://www.w3.org/Graphics/SVG/1.1/DTD/svg11.dtd">
<!-- Generated by graphviz version 2.43.0 (0)
 -->
<!-- Title: /home/runner/work/cbmc&#45;documentation/cbmc&#45;documentation/src/analyses/local_cfg.h Pages: 1 -->
<svg width="2535pt" height="317pt"
 viewBox="0.00 0.00 2535.00 317.00" xmlns="http://www.w3.org/2000/svg" xmlns:xlink="http://www.w3.org/1999/xlink">
<g id="graph0" class="graph" transform="scale(1 1) rotate(0) translate(4 313)">
<title>/home/runner/work/cbmc&#45;documentation/cbmc&#45;documentation/src/analyses/local_cfg.h</title>
<!-- Node1 -->
<g id="node1" class="node">
<title>Node1</title>
<g id="a_node1"><a xlink:title=" ">
<polygon fill="#bfbfbf" stroke="black" points="1981,-267.5 1981,-308.5 2181,-308.5 2181,-267.5 1981,-267.5"/>
<text text-anchor="start" x="1989" y="-296.5" font-family="Helvetica,sans-Serif" font-size="10.00">/home/runner/work/cbmc</text>
<text text-anchor="start" x="1989" y="-285.5" font-family="Helvetica,sans-Serif" font-size="10.00">&#45;documentation/cbmc&#45;documentation</text>
<text text-anchor="middle" x="2081" y="-274.5" font-family="Helvetica,sans-Serif" font-size="10.00">/src/analyses/local_cfg.h</text>
</a>
</g>
</g>
<!-- Node2 -->
<g id="node2" class="node">
<title>Node2</title>
<g id="a_node2"><a xlink:href="local__may__alias_8h.html" target="_top" xlink:title=" ">
<polygon fill="none" stroke="black" points="1090,-184 1090,-225 1290,-225 1290,-184 1090,-184"/>
<text text-anchor="start" x="1098" y="-213" font-family="Helvetica,sans-Serif" font-size="10.00">/home/runner/work/cbmc</text>
<text text-anchor="start" x="1098" y="-202" font-family="Helvetica,sans-Serif" font-size="10.00">&#45;documentation/cbmc&#45;documentation</text>
<text text-anchor="middle" x="1190" y="-191" font-family="Helvetica,sans-Serif" font-size="10.00">/src/analyses/local_may_alias.h</text>
</a>
</g>
</g>
<!-- Node1&#45;&gt;Node2 -->
<g id="edge1" class="edge">
<title>Node1&#45;&gt;Node2</title>
<path fill="none" stroke="midnightblue" d="M1970.97,-276.94C1796.38,-260.97 1458.47,-230.06 1290.22,-214.67"/>
<polygon fill="midnightblue" stroke="midnightblue" points="1970.68,-280.42 1980.95,-277.85 1971.31,-273.45 1970.68,-280.42"/>
</g>
<!-- Node15 -->
<g id="node15" class="node">
<title>Node15</title>
<g id="a_node15"><a xlink:href="local__bitvector__analysis_8h.html" target="_top" xlink:title=" ">
<polygon fill="none" stroke="black" points="1981,-178.5 1981,-230.5 2181,-230.5 2181,-178.5 1981,-178.5"/>
<text text-anchor="start" x="1989" y="-218.5" font-family="Helvetica,sans-Serif" font-size="10.00">/home/runner/work/cbmc</text>
<text text-anchor="start" x="1989" y="-207.5" font-family="Helvetica,sans-Serif" font-size="10.00">&#45;documentation/cbmc&#45;documentation</text>
<text text-anchor="start" x="1989" y="-196.5" font-family="Helvetica,sans-Serif" font-size="10.00">/src/analyses/local_bitvector</text>
<text text-anchor="middle" x="2081" y="-185.5" font-family="Helvetica,sans-Serif" font-size="10.00">_analysis.h</text>
</a>
</g>
</g>
<!-- Node1&#45;&gt;Node15 -->
<g id="edge14" class="edge">
<title>Node1&#45;&gt;Node15</title>
<path fill="none" stroke="midnightblue" d="M2081,-257.12C2081,-248.41 2081,-238.99 2081,-230.61"/>
<polygon fill="midnightblue" stroke="midnightblue" points="2077.5,-257.27 2081,-267.27 2084.5,-257.27 2077.5,-257.27"/>
</g>
<!-- Node18 -->
<g id="node18" class="node">
<title>Node18</title>
<g id="a_node18"><a xlink:href="local__cfg_8cpp.html" target="_top" xlink:title=" ">
<polygon fill="none" stroke="black" points="2199,-184 2199,-225 2399,-225 2399,-184 2199,-184"/>
<text text-anchor="start" x="2207" y="-213" font-family="Helvetica,sans-Serif" font-size="10.00">/home/runner/work/cbmc</text>
<text text-anchor="start" x="2207" y="-202" font-family="Helvetica,sans-Serif" font-size="10.00">&#45;documentation/cbmc&#45;documentation</text>
<text text-anchor="middle" x="2299" y="-191" font-family="Helvetica,sans-Serif" font-size="10.00">/src/analyses/local_cfg.cpp</text>
</a>
</g>
</g>
<!-- Node1&#45;&gt;Node18 -->
<g id="edge19" class="edge">
<title>Node1&#45;&gt;Node18</title>
<path fill="none" stroke="midnightblue" d="M2142.72,-263.92C2175.58,-251.64 2215.54,-236.7 2246.83,-225"/>
<polygon fill="midnightblue" stroke="midnightblue" points="2141.36,-260.7 2133.22,-267.48 2143.81,-267.26 2141.36,-260.7"/>
</g>
<!-- Node3 -->
<g id="node3" class="node">
<title>Node3</title>
<g id="a_node3"><a xlink:href="custom__bitvector__analysis_8h.html" target="_top" xlink:title=" ">
<polygon fill="none" stroke="black" points="109,-89.5 109,-141.5 309,-141.5 309,-89.5 109,-89.5"/>
<text text-anchor="start" x="117" y="-129.5" font-family="Helvetica,sans-Serif" font-size="10.00">/home/runner/work/cbmc</text>
<text text-anchor="start" x="117" y="-118.5" font-family="Helvetica,sans-Serif" font-size="10.00">&#45;documentation/cbmc&#45;documentation</text>
<text text-anchor="start" x="117" y="-107.5" font-family="Helvetica,sans-Serif" font-size="10.00">/src/analyses/custom_bitvector</text>
<text text-anchor="middle" x="209" y="-96.5" font-family="Helvetica,sans-Serif" font-size="10.00">_analysis.h</text>
</a>
</g>
</g>
<!-- Node2&#45;&gt;Node3 -->
<g id="edge2" class="edge">
<title>Node2&#45;&gt;Node3</title>
<path fill="none" stroke="midnightblue" d="M1079.49,-201.34C913.35,-196.83 589.73,-183.1 318,-142 315.12,-141.56 312.2,-141.09 309.26,-140.59"/>
<polygon fill="midnightblue" stroke="midnightblue" points="1079.62,-204.85 1089.71,-201.61 1079.81,-197.85 1079.62,-204.85"/>
</g>
<!-- Node7 -->
<g id="node7" class="node">
<title>Node7</title>
<g id="a_node7"><a xlink:href="local__may__alias_8cpp.html" target="_top" xlink:title=" ">
<polygon fill="none" stroke="black" points="327,-95 327,-136 527,-136 527,-95 327,-95"/>
<text text-anchor="start" x="335" y="-124" font-family="Helvetica,sans-Serif" font-size="10.00">/home/runner/work/cbmc</text>
<text text-anchor="start" x="335" y="-113" font-family="Helvetica,sans-Serif" font-size="10.00">&#45;documentation/cbmc&#45;documentation</text>
<text text-anchor="middle" x="427" y="-102" font-family="Helvetica,sans-Serif" font-size="10.00">/src/analyses/local_may_alias.cpp</text>
</a>
</g>
</g>
<!-- Node2&#45;&gt;Node7 -->
<g id="edge6" class="edge">
<title>Node2&#45;&gt;Node7</title>
<path fill="none" stroke="midnightblue" d="M1079.74,-197.72C949.26,-189.82 725.77,-172.97 536,-142 525.83,-140.34 515.21,-138.28 504.74,-136.04"/>
<polygon fill="midnightblue" stroke="midnightblue" points="1079.55,-201.22 1089.74,-198.32 1079.97,-194.23 1079.55,-201.22"/>
</g>
<!-- Node8 -->
<g id="node8" class="node">
<title>Node8</title>
<g id="a_node8"><a xlink:href="goto__analyzer__parse__options_8cpp.html" target="_top" xlink:title=" ">
<polygon fill="none" stroke="black" points="545,-89.5 545,-141.5 745,-141.5 745,-89.5 545,-89.5"/>
<text text-anchor="start" x="553" y="-129.5" font-family="Helvetica,sans-Serif" font-size="10.00">/home/runner/work/cbmc</text>
<text text-anchor="start" x="553" y="-118.5" font-family="Helvetica,sans-Serif" font-size="10.00">&#45;documentation/cbmc&#45;documentation</text>
<text text-anchor="start" x="553" y="-107.5" font-family="Helvetica,sans-Serif" font-size="10.00">/src/goto&#45;analyzer/goto_analyzer</text>
<text text-anchor="middle" x="645" y="-96.5" font-family="Helvetica,sans-Serif" font-size="10.00">_parse_options.cpp</text>
</a>
</g>
</g>
<!-- Node2&#45;&gt;Node8 -->
<g id="edge7" class="edge">
<title>Node2&#45;&gt;Node8</title>
<path fill="none" stroke="midnightblue" d="M1079.53,-190.7C991.13,-179.78 864.15,-162.61 754,-142 751.04,-141.45 748.04,-140.87 745.01,-140.26"/>
<polygon fill="midnightblue" stroke="midnightblue" points="1079.23,-194.19 1089.58,-191.93 1080.08,-187.24 1079.23,-194.19"/>
</g>
<!-- Node9 -->
<g id="node9" class="node">
<title>Node9</title>
<g id="a_node9"><a xlink:href="contracts_8cpp.html" target="_top" xlink:title=" ">
<polygon fill="none" stroke="black" points="1853,-89.5 1853,-141.5 2053,-141.5 2053,-89.5 1853,-89.5"/>
<text text-anchor="start" x="1861" y="-129.5" font-family="Helvetica,sans-Serif" font-size="10.00">/home/runner/work/cbmc</text>
<text text-anchor="start" x="1861" y="-118.5" font-family="Helvetica,sans-Serif" font-size="10.00">&#45;documentation/cbmc&#45;documentation</text>
<text text-anchor="start" x="1861" y="-107.5" font-family="Helvetica,sans-Serif" font-size="10.00">/src/goto&#45;instrument/contracts</text>
<text text-anchor="middle" x="1953" y="-96.5" font-family="Helvetica,sans-Serif" font-size="10.00">/contracts.cpp</text>
</a>
</g>
</g>
<!-- Node2&#45;&gt;Node9 -->
<g id="edge8" class="edge">
<title>Node2&#45;&gt;Node9</title>
<path fill="none" stroke="midnightblue" d="M1300.26,-197.72C1430.74,-189.82 1654.23,-172.97 1844,-142 1846.88,-141.53 1849.79,-141.03 1852.73,-140.5"/>
<polygon fill="midnightblue" stroke="midnightblue" points="1300.03,-194.23 1290.26,-198.32 1300.45,-201.22 1300.03,-194.23"/>
</g>
<!-- Node10 -->
<g id="node10" class="node">
<title>Node10</title>
<g id="a_node10"><a xlink:href="function__assigns_8cpp.html" target="_top" xlink:title=" ">
<polygon fill="none" stroke="black" points="763,-89.5 763,-141.5 963,-141.5 963,-89.5 763,-89.5"/>
<text text-anchor="start" x="771" y="-129.5" font-family="Helvetica,sans-Serif" font-size="10.00">/home/runner/work/cbmc</text>
<text text-anchor="start" x="771" y="-118.5" font-family="Helvetica,sans-Serif" font-size="10.00">&#45;documentation/cbmc&#45;documentation</text>
<text text-anchor="start" x="771" y="-107.5" font-family="Helvetica,sans-Serif" font-size="10.00">/src/goto&#45;instrument/function</text>
<text text-anchor="middle" x="863" y="-96.5" font-family="Helvetica,sans-Serif" font-size="10.00">_assigns.cpp</text>
</a>
</g>
</g>
<!-- Node2&#45;&gt;Node10 -->
<g id="edge9" class="edge">
<title>Node2&#45;&gt;Node10</title>
<path fill="none" stroke="midnightblue" d="M1106.75,-181.35C1061.06,-169.19 1004.25,-154.08 956.98,-141.5"/>
<polygon fill="midnightblue" stroke="midnightblue" points="1106.05,-184.79 1116.61,-183.98 1107.85,-178.02 1106.05,-184.79"/>
</g>
<!-- Node11 -->
<g id="node11" class="node">
<title>Node11</title>
<g id="a_node11"><a xlink:href="havoc__loops_8cpp.html" target="_top" xlink:title=" ">
<polygon fill="none" stroke="black" points="981,-95 981,-136 1181,-136 1181,-95 981,-95"/>
<text text-anchor="start" x="989" y="-124" font-family="Helvetica,sans-Serif" font-size="10.00">/home/runner/work/cbmc</text>
<text text-anchor="start" x="989" y="-113" font-family="Helvetica,sans-Serif" font-size="10.00">&#45;documentation/cbmc&#45;documentation</text>
<text text-anchor="middle" x="1081" y="-102" font-family="Helvetica,sans-Serif" font-size="10.00">/src/goto&#45;instrument/havoc_loops.cpp</text>
</a>
</g>
</g>
<!-- Node2&#45;&gt;Node11 -->
<g id="edge10" class="edge">
<title>Node2&#45;&gt;Node11</title>
<path fill="none" stroke="midnightblue" d="M1157.68,-177.71C1141.07,-164.44 1121.14,-148.53 1105.76,-136.26"/>
<polygon fill="midnightblue" stroke="midnightblue" points="1155.54,-180.47 1165.54,-183.98 1159.91,-175 1155.54,-180.47"/>
</g>
<!-- Node12 -->
<g id="node12" class="node">
<title>Node12</title>
<g id="a_node12"><a xlink:href="k__induction_8cpp.html" target="_top" xlink:title=" ">
<polygon fill="none" stroke="black" points="1199,-95 1199,-136 1399,-136 1399,-95 1199,-95"/>
<text text-anchor="start" x="1207" y="-124" font-family="Helvetica,sans-Serif" font-size="10.00">/home/runner/work/cbmc</text>
<text text-anchor="start" x="1207" y="-113" font-family="Helvetica,sans-Serif" font-size="10.00">&#45;documentation/cbmc&#45;documentation</text>
<text text-anchor="middle" x="1299" y="-102" font-family="Helvetica,sans-Serif" font-size="10.00">/src/goto&#45;instrument/k_induction.cpp</text>
</a>
</g>
</g>
<!-- Node2&#45;&gt;Node12 -->
<g id="edge11" class="edge">
<title>Node2&#45;&gt;Node12</title>
<path fill="none" stroke="midnightblue" d="M1222.32,-177.71C1238.93,-164.44 1258.86,-148.53 1274.24,-136.26"/>
<polygon fill="midnightblue" stroke="midnightblue" points="1220.09,-175 1214.46,-183.98 1224.46,-180.47 1220.09,-175"/>
</g>
<!-- Node13 -->
<g id="node13" class="node">
<title>Node13</title>
<g id="a_node13"><a xlink:href="loop__utils_8cpp.html" target="_top" xlink:title=" ">
<polygon fill="none" stroke="black" points="1417,-95 1417,-136 1617,-136 1617,-95 1417,-95"/>
<text text-anchor="start" x="1425" y="-124" font-family="Helvetica,sans-Serif" font-size="10.00">/home/runner/work/cbmc</text>
<text text-anchor="start" x="1425" y="-113" font-family="Helvetica,sans-Serif" font-size="10.00">&#45;documentation/cbmc&#45;documentation</text>
<text text-anchor="middle" x="1517" y="-102" font-family="Helvetica,sans-Serif" font-size="10.00">/src/goto&#45;instrument/loop_utils.cpp</text>
</a>
</g>
</g>
<!-- Node2&#45;&gt;Node13 -->
<g id="edge12" class="edge">
<title>Node2&#45;&gt;Node13</title>
<path fill="none" stroke="midnightblue" d="M1273.35,-181.32C1325.88,-167.35 1393.06,-149.47 1443.58,-136.03"/>
<polygon fill="midnightblue" stroke="midnightblue" points="1272.15,-178.02 1263.39,-183.98 1273.95,-184.79 1272.15,-178.02"/>
</g>
<!-- Node14 -->
<g id="node14" class="node">
<title>Node14</title>
<g id="a_node14"><a xlink:href="janalyzer__parse__options_8cpp.html" target="_top" xlink:title=" ">
<polygon fill="none" stroke="black" points="1635,-89.5 1635,-141.5 1835,-141.5 1835,-89.5 1635,-89.5"/>
<text text-anchor="start" x="1643" y="-129.5" font-family="Helvetica,sans-Serif" font-size="10.00">/home/runner/work/cbmc</text>
<text text-anchor="start" x="1643" y="-118.5" font-family="Helvetica,sans-Serif" font-size="10.00">&#45;documentation/cbmc&#45;documentation</text>
<text text-anchor="start" x="1643" y="-107.5" font-family="Helvetica,sans-Serif" font-size="10.00">/jbmc/src/janalyzer/janalyzer</text>
<text text-anchor="middle" x="1735" y="-96.5" font-family="Helvetica,sans-Serif" font-size="10.00">_parse_options.cpp</text>
</a>
</g>
</g>
<!-- Node2&#45;&gt;Node14 -->
<g id="edge13" class="edge">
<title>Node2&#45;&gt;Node14</title>
<path fill="none" stroke="midnightblue" d="M1300.47,-190.7C1388.87,-179.78 1515.85,-162.61 1626,-142 1628.96,-141.45 1631.96,-140.87 1634.99,-140.26"/>
<polygon fill="midnightblue" stroke="midnightblue" points="1299.92,-187.24 1290.42,-191.93 1300.77,-194.19 1299.92,-187.24"/>
</g>
<!-- Node4 -->
<g id="node4" class="node">
<title>Node4</title>
<g id="a_node4"><a xlink:href="custom__bitvector__analysis_8cpp.html" target="_top" xlink:title=" ">
<polygon fill="none" stroke="black" points="0,-0.5 0,-52.5 200,-52.5 200,-0.5 0,-0.5"/>
<text text-anchor="start" x="8" y="-40.5" font-family="Helvetica,sans-Serif" font-size="10.00">/home/runner/work/cbmc</text>
<text text-anchor="start" x="8" y="-29.5" font-family="Helvetica,sans-Serif" font-size="10.00">&#45;documentation/cbmc&#45;documentation</text>
<text text-anchor="start" x="8" y="-18.5" font-family="Helvetica,sans-Serif" font-size="10.00">/src/analyses/custom_bitvector</text>
<text text-anchor="middle" x="100" y="-7.5" font-family="Helvetica,sans-Serif" font-size="10.00">_analysis.cpp</text>
</a>
</g>
</g>
<!-- Node3&#45;&gt;Node4 -->
<g id="edge3" class="edge">
<title>Node3&#45;&gt;Node4</title>
<path fill="none" stroke="midnightblue" d="M169.45,-82.93C156.95,-72.96 143.31,-62.07 131.46,-52.61"/>
<polygon fill="midnightblue" stroke="midnightblue" points="167.47,-85.83 177.47,-89.34 171.84,-80.36 167.47,-85.83"/>
</g>
<!-- Node5 -->
<g id="node5" class="node">
<title>Node5</title>
<g id="a_node5"><a xlink:href="taint__analysis_8cpp.html" target="_top" xlink:title=" ">
<polygon fill="none" stroke="black" points="218,-6 218,-47 418,-47 418,-6 218,-6"/>
<text text-anchor="start" x="226" y="-35" font-family="Helvetica,sans-Serif" font-size="10.00">/home/runner/work/cbmc</text>
<text text-anchor="start" x="226" y="-24" font-family="Helvetica,sans-Serif" font-size="10.00">&#45;documentation/cbmc&#45;documentation</text>
<text text-anchor="middle" x="318" y="-13" font-family="Helvetica,sans-Serif" font-size="10.00">/src/goto&#45;analyzer/taint_analysis.cpp</text>
</a>
</g>
</g>
<!-- Node3&#45;&gt;Node5 -->
<g id="edge4" class="edge">
<title>Node3&#45;&gt;Node5</title>
<path fill="none" stroke="midnightblue" d="M248.66,-82.85C263.65,-70.88 280.26,-57.62 293.47,-47.08"/>
<polygon fill="midnightblue" stroke="midnightblue" points="246.16,-80.36 240.53,-89.34 250.53,-85.83 246.16,-80.36"/>
</g>
<!-- Node6 -->
<g id="node6" class="node">
<title>Node6</title>
<g id="a_node6"><a xlink:href="goto__instrument__parse__options_8cpp.html" target="_top" xlink:title=" ">
<polygon fill="none" stroke="black" points="1208,-0.5 1208,-52.5 1408,-52.5 1408,-0.5 1208,-0.5"/>
<text text-anchor="start" x="1216" y="-40.5" font-family="Helvetica,sans-Serif" font-size="10.00">/home/runner/work/cbmc</text>
<text text-anchor="start" x="1216" y="-29.5" font-family="Helvetica,sans-Serif" font-size="10.00">&#45;documentation/cbmc&#45;documentation</text>
<text text-anchor="start" x="1216" y="-18.5" font-family="Helvetica,sans-Serif" font-size="10.00">/src/goto&#45;instrument/goto_instrument</text>
<text text-anchor="middle" x="1308" y="-7.5" font-family="Helvetica,sans-Serif" font-size="10.00">_parse_options.cpp</text>
</a>
</g>
</g>
<!-- Node3&#45;&gt;Node6 -->
<g id="edge5" class="edge">
<title>Node3&#45;&gt;Node6</title>
<path fill="none" stroke="midnightblue" d="M319.47,-88.89C648.78,-41.33 1030.04,-30.62 1207.65,-28.19"/>
<polygon fill="midnightblue" stroke="midnightblue" points="318.64,-85.47 309.25,-90.38 319.65,-92.4 318.64,-85.47"/>
</g>
<!-- Node15&#45;&gt;Node6 -->
<g id="edge18" class="edge">
<title>Node15&#45;&gt;Node6</title>
<path fill="none" stroke="midnightblue" d="M2085.53,-168.29C2086.7,-142.49 2083.37,-108.67 2062,-89 2014.89,-45.64 1602.06,-32.66 1408,-28.93"/>
<polygon fill="midnightblue" stroke="midnightblue" points="2082.03,-168.22 2084.82,-178.44 2089.01,-168.7 2082.03,-168.22"/>
</g>
<!-- Node15&#45;&gt;Node9 -->
<g id="edge17" class="edge">
<title>Node15&#45;&gt;Node9</title>
<path fill="none" stroke="midnightblue" d="M2035.4,-172.5C2020.49,-162.37 2004.13,-151.25 1989.94,-141.61"/>
<polygon fill="midnightblue" stroke="midnightblue" points="2033.74,-175.61 2043.98,-178.34 2037.67,-169.82 2033.74,-175.61"/>
</g>
<!-- Node16 -->
<g id="node16" class="node">
<title>Node16</title>
<g id="a_node16"><a xlink:href="local__bitvector__analysis_8cpp.html" target="_top" xlink:title=" ">
<polygon fill="none" stroke="black" points="2109,-89.5 2109,-141.5 2309,-141.5 2309,-89.5 2109,-89.5"/>
<text text-anchor="start" x="2117" y="-129.5" font-family="Helvetica,sans-Serif" font-size="10.00">/home/runner/work/cbmc</text>
<text text-anchor="start" x="2117" y="-118.5" font-family="Helvetica,sans-Serif" font-size="10.00">&#45;documentation/cbmc&#45;documentation</text>
<text text-anchor="start" x="2117" y="-107.5" font-family="Helvetica,sans-Serif" font-size="10.00">/src/analyses/local_bitvector</text>
<text text-anchor="middle" x="2209" y="-96.5" font-family="Helvetica,sans-Serif" font-size="10.00">_analysis.cpp</text>
</a>
</g>
</g>
<!-- Node15&#45;&gt;Node16 -->
<g id="edge15" class="edge">
<title>Node15&#45;&gt;Node16</title>
<path fill="none" stroke="midnightblue" d="M2126.6,-172.5C2141.51,-162.37 2157.87,-151.25 2172.06,-141.61"/>
<polygon fill="midnightblue" stroke="midnightblue" points="2124.33,-169.82 2118.02,-178.34 2128.26,-175.61 2124.33,-169.82"/>
</g>
<!-- Node17 -->
<g id="node17" class="node">
<title>Node17</title>
<g id="a_node17"><a xlink:href="goto__check__c_8cpp.html" target="_top" xlink:title=" ">
<polygon fill="none" stroke="black" points="2327,-95 2327,-136 2527,-136 2527,-95 2327,-95"/>
<text text-anchor="start" x="2335" y="-124" font-family="Helvetica,sans-Serif" font-size="10.00">/home/runner/work/cbmc</text>
<text text-anchor="start" x="2335" y="-113" font-family="Helvetica,sans-Serif" font-size="10.00">&#45;documentation/cbmc&#45;documentation</text>
<text text-anchor="middle" x="2427" y="-102" font-family="Helvetica,sans-Serif" font-size="10.00">/src/ansi&#45;c/goto_check_c.cpp</text>
</a>
</g>
</g>
<!-- Node15&#45;&gt;Node17 -->
<g id="edge16" class="edge">
<title>Node15&#45;&gt;Node17</title>
<path fill="none" stroke="midnightblue" d="M2190.47,-175.97C2242.05,-163.01 2302.38,-147.84 2349.19,-136.06"/>
<polygon fill="midnightblue" stroke="midnightblue" points="2189.46,-172.62 2180.61,-178.45 2191.16,-179.41 2189.46,-172.62"/>
</g>
</g>
</svg>
