<?xml version="1.0" encoding="UTF-8" standalone="no"?>
<!DOCTYPE svg PUBLIC "-//W3C//DTD SVG 1.1//EN"
 "http://www.w3.org/Graphics/SVG/1.1/DTD/svg11.dtd">
<!-- Generated by graphviz version 2.43.0 (0)
 -->
<!-- Title: /home/runner/work/cbmc&#45;documentation/cbmc&#45;documentation/src/goto&#45;instrument/synthesizer/loop_invariant_synthesizer_base.h Pages: 1 -->
<svg width="707pt" height="328pt"
 viewBox="0.00 0.00 707.00 328.00" xmlns="http://www.w3.org/2000/svg" xmlns:xlink="http://www.w3.org/1999/xlink">
<g id="graph0" class="graph" transform="scale(1 1) rotate(0) translate(4 324)">
<title>/home/runner/work/cbmc&#45;documentation/cbmc&#45;documentation/src/goto&#45;instrument/synthesizer/loop_invariant_synthesizer_base.h</title>
<!-- Node1 -->
<g id="node1" class="node">
<title>Node1</title>
<g id="a_node1"><a xlink:title=" ">
<polygon fill="#bfbfbf" stroke="black" points="361,-267.5 361,-319.5 561,-319.5 561,-267.5 361,-267.5"/>
<text text-anchor="start" x="369" y="-307.5" font-family="Helvetica,sans-Serif" font-size="10.00">/home/runner/work/cbmc</text>
<text text-anchor="start" x="369" y="-296.5" font-family="Helvetica,sans-Serif" font-size="10.00">&#45;documentation/cbmc&#45;documentation</text>
<text text-anchor="start" x="369" y="-285.5" font-family="Helvetica,sans-Serif" font-size="10.00">/src/goto&#45;instrument/synthesizer</text>
<text text-anchor="middle" x="461" y="-274.5" font-family="Helvetica,sans-Serif" font-size="10.00">/loop_invariant_synthesizer_base.h</text>
</a>
</g>
</g>
<!-- Node2 -->
<g id="node2" class="node">
<title>Node2</title>
<g id="a_node2"><a xlink:href="enumerative__loop__invariant__synthesizer_8h.html" target="_top" xlink:title=" ">
<polygon fill="none" stroke="black" points="347.5,-178.5 347.5,-230.5 574.5,-230.5 574.5,-178.5 347.5,-178.5"/>
<text text-anchor="start" x="355.5" y="-218.5" font-family="Helvetica,sans-Serif" font-size="10.00">/home/runner/work/cbmc</text>
<text text-anchor="start" x="355.5" y="-207.5" font-family="Helvetica,sans-Serif" font-size="10.00">&#45;documentation/cbmc&#45;documentation</text>
<text text-anchor="start" x="355.5" y="-196.5" font-family="Helvetica,sans-Serif" font-size="10.00">/src/goto&#45;instrument/synthesizer</text>
<text text-anchor="middle" x="461" y="-185.5" font-family="Helvetica,sans-Serif" font-size="10.00">/enumerative_loop_invariant_synthesizer.h</text>
</a>
</g>
</g>
<!-- Node1&#45;&gt;Node2 -->
<g id="edge1" class="edge">
<title>Node1&#45;&gt;Node2</title>
<path fill="none" stroke="midnightblue" d="M461,-257.19C461,-248.28 461,-238.9 461,-230.61"/>
<polygon fill="midnightblue" stroke="midnightblue" points="457.5,-257.34 461,-267.34 464.5,-257.34 457.5,-257.34"/>
</g>
<!-- Node3 -->
<g id="node3" class="node">
<title>Node3</title>
<g id="a_node3"><a xlink:href="goto__instrument__parse__options_8h.html" target="_top" xlink:title=" ">
<polygon fill="none" stroke="black" points="243,-89.5 243,-141.5 443,-141.5 443,-89.5 243,-89.5"/>
<text text-anchor="start" x="251" y="-129.5" font-family="Helvetica,sans-Serif" font-size="10.00">/home/runner/work/cbmc</text>
<text text-anchor="start" x="251" y="-118.5" font-family="Helvetica,sans-Serif" font-size="10.00">&#45;documentation/cbmc&#45;documentation</text>
<text text-anchor="start" x="251" y="-107.5" font-family="Helvetica,sans-Serif" font-size="10.00">/src/goto&#45;instrument/goto_instrument</text>
<text text-anchor="middle" x="343" y="-96.5" font-family="Helvetica,sans-Serif" font-size="10.00">_parse_options.h</text>
</a>
</g>
</g>
<!-- Node2&#45;&gt;Node3 -->
<g id="edge2" class="edge">
<title>Node2&#45;&gt;Node3</title>
<path fill="none" stroke="midnightblue" d="M418.57,-172.22C404.93,-162.16 390.01,-151.16 377.05,-141.61"/>
<polygon fill="midnightblue" stroke="midnightblue" points="416.74,-175.22 426.87,-178.34 420.9,-169.58 416.74,-175.22"/>
</g>
<!-- Node7 -->
<g id="node7" class="node">
<title>Node7</title>
<g id="a_node7"><a xlink:href="enumerative__loop__invariant__synthesizer_8cpp.html" target="_top" xlink:title=" ">
<polygon fill="none" stroke="black" points="461,-89.5 461,-141.5 699,-141.5 699,-89.5 461,-89.5"/>
<text text-anchor="start" x="469" y="-129.5" font-family="Helvetica,sans-Serif" font-size="10.00">/home/runner/work/cbmc</text>
<text text-anchor="start" x="469" y="-118.5" font-family="Helvetica,sans-Serif" font-size="10.00">&#45;documentation/cbmc&#45;documentation</text>
<text text-anchor="start" x="469" y="-107.5" font-family="Helvetica,sans-Serif" font-size="10.00">/src/goto&#45;instrument/synthesizer</text>
<text text-anchor="middle" x="580" y="-96.5" font-family="Helvetica,sans-Serif" font-size="10.00">/enumerative_loop_invariant_synthesizer.cpp</text>
</a>
</g>
</g>
<!-- Node2&#45;&gt;Node7 -->
<g id="edge6" class="edge">
<title>Node2&#45;&gt;Node7</title>
<path fill="none" stroke="midnightblue" d="M503.79,-172.22C517.54,-162.16 532.59,-151.16 545.66,-141.61"/>
<polygon fill="midnightblue" stroke="midnightblue" points="501.43,-169.61 495.42,-178.34 505.56,-175.26 501.43,-169.61"/>
</g>
<!-- Node4 -->
<g id="node4" class="node">
<title>Node4</title>
<g id="a_node4"><a xlink:href="goto__instrument__languages_8cpp.html" target="_top" xlink:title=" ">
<polygon fill="none" stroke="black" points="0,-0.5 0,-52.5 200,-52.5 200,-0.5 0,-0.5"/>
<text text-anchor="start" x="8" y="-40.5" font-family="Helvetica,sans-Serif" font-size="10.00">/home/runner/work/cbmc</text>
<text text-anchor="start" x="8" y="-29.5" font-family="Helvetica,sans-Serif" font-size="10.00">&#45;documentation/cbmc&#45;documentation</text>
<text text-anchor="start" x="8" y="-18.5" font-family="Helvetica,sans-Serif" font-size="10.00">/src/goto&#45;instrument/goto_instrument</text>
<text text-anchor="middle" x="100" y="-7.5" font-family="Helvetica,sans-Serif" font-size="10.00">_languages.cpp</text>
</a>
</g>
</g>
<!-- Node3&#45;&gt;Node4 -->
<g id="edge3" class="edge">
<title>Node3&#45;&gt;Node4</title>
<path fill="none" stroke="midnightblue" d="M263.39,-86C233.21,-75.19 199.1,-62.98 169.89,-52.52"/>
<polygon fill="midnightblue" stroke="midnightblue" points="262.45,-89.38 273.04,-89.45 264.81,-82.79 262.45,-89.38"/>
</g>
<!-- Node5 -->
<g id="node5" class="node">
<title>Node5</title>
<g id="a_node5"><a xlink:href="goto__instrument__main_8cpp.html" target="_top" xlink:title=" ">
<polygon fill="none" stroke="black" points="218.5,-6 218.5,-47 467.5,-47 467.5,-6 218.5,-6"/>
<text text-anchor="start" x="226.5" y="-35" font-family="Helvetica,sans-Serif" font-size="10.00">/home/runner/work/cbmc</text>
<text text-anchor="start" x="226.5" y="-24" font-family="Helvetica,sans-Serif" font-size="10.00">&#45;documentation/cbmc&#45;documentation</text>
<text text-anchor="middle" x="343" y="-13" font-family="Helvetica,sans-Serif" font-size="10.00">/src/goto&#45;instrument/goto_instrument_main.cpp</text>
</a>
</g>
</g>
<!-- Node3&#45;&gt;Node5 -->
<g id="edge4" class="edge">
<title>Node3&#45;&gt;Node5</title>
<path fill="none" stroke="midnightblue" d="M343,-79.16C343,-68.21 343,-56.55 343,-47.08"/>
<polygon fill="midnightblue" stroke="midnightblue" points="339.5,-79.34 343,-89.34 346.5,-79.34 339.5,-79.34"/>
</g>
<!-- Node6 -->
<g id="node6" class="node">
<title>Node6</title>
<g id="a_node6"><a xlink:href="goto__instrument__parse__options_8cpp.html" target="_top" xlink:title=" ">
<polygon fill="none" stroke="black" points="486,-0.5 486,-52.5 686,-52.5 686,-0.5 486,-0.5"/>
<text text-anchor="start" x="494" y="-40.5" font-family="Helvetica,sans-Serif" font-size="10.00">/home/runner/work/cbmc</text>
<text text-anchor="start" x="494" y="-29.5" font-family="Helvetica,sans-Serif" font-size="10.00">&#45;documentation/cbmc&#45;documentation</text>
<text text-anchor="start" x="494" y="-18.5" font-family="Helvetica,sans-Serif" font-size="10.00">/src/goto&#45;instrument/goto_instrument</text>
<text text-anchor="middle" x="586" y="-7.5" font-family="Helvetica,sans-Serif" font-size="10.00">_parse_options.cpp</text>
</a>
</g>
</g>
<!-- Node3&#45;&gt;Node6 -->
<g id="edge5" class="edge">
<title>Node3&#45;&gt;Node6</title>
<path fill="none" stroke="midnightblue" d="M422.61,-86C452.79,-75.19 486.9,-62.98 516.11,-52.52"/>
<polygon fill="midnightblue" stroke="midnightblue" points="421.19,-82.79 412.96,-89.45 423.55,-89.38 421.19,-82.79"/>
</g>
</g>
</svg>
