<?xml version="1.0" encoding="UTF-8" standalone="no"?>
<!DOCTYPE svg PUBLIC "-//W3C//DTD SVG 1.1//EN"
 "http://www.w3.org/Graphics/SVG/1.1/DTD/svg11.dtd">
<!-- Generated by graphviz version 2.43.0 (0)
 -->
<!-- Title: /home/runner/work/cbmc&#45;documentation/cbmc&#45;documentation/src/goto&#45;programs/loop_ids.h Pages: 1 -->
<svg width="878pt" height="498pt"
 viewBox="0.00 0.00 878.00 498.00" xmlns="http://www.w3.org/2000/svg" xmlns:xlink="http://www.w3.org/1999/xlink">
<g id="graph0" class="graph" transform="scale(1 1) rotate(0) translate(4 494)">
<title>/home/runner/work/cbmc&#45;documentation/cbmc&#45;documentation/src/goto&#45;programs/loop_ids.h</title>
<!-- Node1 -->
<g id="node1" class="node">
<title>Node1</title>
<g id="a_node1"><a xlink:title=" ">
<polygon fill="#bfbfbf" stroke="black" points="0,-448.5 0,-489.5 200,-489.5 200,-448.5 0,-448.5"/>
<text text-anchor="start" x="8" y="-477.5" font-family="Helvetica,sans-Serif" font-size="10.00">/home/runner/work/cbmc</text>
<text text-anchor="start" x="8" y="-466.5" font-family="Helvetica,sans-Serif" font-size="10.00">&#45;documentation/cbmc&#45;documentation</text>
<text text-anchor="middle" x="100" y="-455.5" font-family="Helvetica,sans-Serif" font-size="10.00">/src/goto&#45;programs/loop_ids.h</text>
</a>
</g>
</g>
<!-- Node2 -->
<g id="node2" class="node">
<title>Node2</title>
<g id="a_node2"><a xlink:href="ui__message_8h.html" target="_top" xlink:title=" ">
<polygon fill="none" stroke="black" points="48.5,-392.5 48.5,-411.5 151.5,-411.5 151.5,-392.5 48.5,-392.5"/>
<text text-anchor="middle" x="100" y="-399.5" font-family="Helvetica,sans-Serif" font-size="10.00">util/ui_message.h</text>
</a>
</g>
</g>
<!-- Node1&#45;&gt;Node2 -->
<g id="edge1" class="edge">
<title>Node1&#45;&gt;Node2</title>
<path fill="none" stroke="midnightblue" d="M100,-448.5C100,-440.07 100,-430.24 100,-421.87"/>
<polygon fill="midnightblue" stroke="midnightblue" points="103.5,-421.65 100,-411.65 96.5,-421.65 103.5,-421.65"/>
</g>
<!-- Node3 -->
<g id="node3" class="node">
<title>Node3</title>
<g id="a_node3"><a xlink:title=" ">
<polygon fill="none" stroke="#bfbfbf" points="6,-280.5 6,-299.5 64,-299.5 64,-280.5 6,-280.5"/>
<text text-anchor="middle" x="35" y="-287.5" font-family="Helvetica,sans-Serif" font-size="10.00">memory</text>
</a>
</g>
</g>
<!-- Node2&#45;&gt;Node3 -->
<g id="edge2" class="edge">
<title>Node2&#45;&gt;Node3</title>
<path fill="none" stroke="midnightblue" d="M84.93,-392.3C72.71,-384.43 56.07,-371.67 47,-356 38.83,-341.88 36.03,-323.39 35.16,-309.75"/>
<polygon fill="midnightblue" stroke="midnightblue" points="38.65,-309.49 34.81,-299.62 31.66,-309.74 38.65,-309.49"/>
</g>
<!-- Node4 -->
<g id="node4" class="node">
<title>Node4</title>
<g id="a_node4"><a xlink:href="src_2util_2message_8h.html" target="_top" xlink:title=" ">
<polygon fill="none" stroke="black" points="636,-336.5 636,-355.5 706,-355.5 706,-336.5 636,-336.5"/>
<text text-anchor="middle" x="671" y="-343.5" font-family="Helvetica,sans-Serif" font-size="10.00">message.h</text>
</a>
</g>
</g>
<!-- Node2&#45;&gt;Node4 -->
<g id="edge3" class="edge">
<title>Node2&#45;&gt;Node4</title>
<path fill="none" stroke="midnightblue" d="M151.68,-396.11C262.36,-385.65 520.72,-361.21 625.57,-351.3"/>
<polygon fill="midnightblue" stroke="midnightblue" points="626.2,-354.75 635.82,-350.33 625.54,-347.78 626.2,-354.75"/>
</g>
<!-- Node33 -->
<g id="node26" class="node">
<title>Node33</title>
<g id="a_node26"><a xlink:href="timestamper_8h.html" target="_top" xlink:title="Emit timestamps.">
<polygon fill="none" stroke="black" points="56,-336.5 56,-355.5 144,-355.5 144,-336.5 56,-336.5"/>
<text text-anchor="middle" x="100" y="-343.5" font-family="Helvetica,sans-Serif" font-size="10.00">timestamper.h</text>
</a>
</g>
</g>
<!-- Node2&#45;&gt;Node33 -->
<g id="edge35" class="edge">
<title>Node2&#45;&gt;Node33</title>
<path fill="none" stroke="midnightblue" d="M100,-392.08C100,-385.01 100,-374.86 100,-365.99"/>
<polygon fill="midnightblue" stroke="midnightblue" points="103.5,-365.75 100,-355.75 96.5,-365.75 103.5,-365.75"/>
</g>
<!-- Node5 -->
<g id="node5" class="node">
<title>Node5</title>
<g id="a_node5"><a xlink:title=" ">
<polygon fill="none" stroke="#bfbfbf" points="608.5,-280.5 608.5,-299.5 673.5,-299.5 673.5,-280.5 608.5,-280.5"/>
<text text-anchor="middle" x="641" y="-287.5" font-family="Helvetica,sans-Serif" font-size="10.00">functional</text>
</a>
</g>
</g>
<!-- Node4&#45;&gt;Node5 -->
<g id="edge4" class="edge">
<title>Node4&#45;&gt;Node5</title>
<path fill="none" stroke="midnightblue" d="M666.05,-336.08C661.9,-328.61 655.85,-317.72 650.73,-308.52"/>
<polygon fill="midnightblue" stroke="midnightblue" points="653.78,-306.79 645.86,-299.75 647.66,-310.19 653.78,-306.79"/>
</g>
<!-- Node6 -->
<g id="node6" class="node">
<title>Node6</title>
<g id="a_node6"><a xlink:title=" ">
<polygon fill="none" stroke="#bfbfbf" points="773,-56.5 773,-75.5 821,-75.5 821,-56.5 773,-56.5"/>
<text text-anchor="middle" x="797" y="-63.5" font-family="Helvetica,sans-Serif" font-size="10.00">iosfwd</text>
</a>
</g>
</g>
<!-- Node4&#45;&gt;Node6 -->
<g id="edge5" class="edge">
<title>Node4&#45;&gt;Node6</title>
<path fill="none" stroke="midnightblue" d="M706.16,-342.97C738.24,-339.25 784.8,-328.85 813,-300 834.04,-278.48 832,-265.1 832,-235 832,-235 832,-235 832,-177 832,-143.07 816.69,-105.91 806.32,-84.63"/>
<polygon fill="midnightblue" stroke="midnightblue" points="809.36,-82.88 801.72,-75.54 803.12,-86.05 809.36,-82.88"/>
</g>
<!-- Node7 -->
<g id="node7" class="node">
<title>Node7</title>
<g id="a_node7"><a xlink:title=" ">
<polygon fill="none" stroke="#bfbfbf" points="791,-0.5 791,-19.5 847,-19.5 847,-0.5 791,-0.5"/>
<text text-anchor="middle" x="819" y="-7.5" font-family="Helvetica,sans-Serif" font-size="10.00">sstream</text>
</a>
</g>
</g>
<!-- Node4&#45;&gt;Node7 -->
<g id="edge6" class="edge">
<title>Node4&#45;&gt;Node7</title>
<path fill="none" stroke="midnightblue" d="M706.06,-342.94C741.42,-339.24 795.94,-328.89 833,-300 859.22,-279.56 870,-268.24 870,-235 870,-235 870,-235 870,-121 870,-85.24 847.55,-48.51 832.44,-27.84"/>
<polygon fill="midnightblue" stroke="midnightblue" points="835.14,-25.61 826.31,-19.77 829.57,-29.85 835.14,-25.61"/>
</g>
<!-- Node8 -->
<g id="node8" class="node">
<title>Node8</title>
<g id="a_node8"><a xlink:title=" ">
<polygon fill="none" stroke="#bfbfbf" points="169,-0.5 169,-19.5 213,-19.5 213,-0.5 169,-0.5"/>
<text text-anchor="middle" x="191" y="-7.5" font-family="Helvetica,sans-Serif" font-size="10.00">string</text>
</a>
</g>
</g>
<!-- Node4&#45;&gt;Node8 -->
<g id="edge7" class="edge">
<title>Node4&#45;&gt;Node8</title>
<path fill="none" stroke="midnightblue" d="M635.77,-345.31C516.3,-345.43 134,-337.78 134,-235 134,-235 134,-235 134,-121 134,-84.3 159.32,-47.66 176.21,-27.3"/>
<polygon fill="midnightblue" stroke="midnightblue" points="178.95,-29.48 182.83,-19.62 173.65,-24.9 178.95,-29.48"/>
</g>
<!-- Node9 -->
<g id="node9" class="node">
<title>Node9</title>
<g id="a_node9"><a xlink:href="deprecate_8h.html" target="_top" xlink:title=" ">
<polygon fill="none" stroke="black" points="730,-280.5 730,-299.5 804,-299.5 804,-280.5 730,-280.5"/>
<text text-anchor="middle" x="767" y="-287.5" font-family="Helvetica,sans-Serif" font-size="10.00">deprecate.h</text>
</a>
</g>
</g>
<!-- Node4&#45;&gt;Node9 -->
<g id="edge8" class="edge">
<title>Node4&#45;&gt;Node9</title>
<path fill="none" stroke="midnightblue" d="M686.42,-336.32C701.54,-327.82 724.82,-314.73 742.47,-304.8"/>
<polygon fill="midnightblue" stroke="midnightblue" points="744.61,-307.61 751.61,-299.65 741.18,-301.51 744.61,-307.61"/>
</g>
<!-- Node10 -->
<g id="node10" class="node">
<title>Node10</title>
<g id="a_node10"><a xlink:href="src_2util_2invariant_8h.html" target="_top" xlink:title=" ">
<polygon fill="none" stroke="black" points="663.5,-56.5 663.5,-75.5 732.5,-75.5 732.5,-56.5 663.5,-56.5"/>
<text text-anchor="middle" x="698" y="-63.5" font-family="Helvetica,sans-Serif" font-size="10.00">invariant.h</text>
</a>
</g>
</g>
<!-- Node4&#45;&gt;Node10 -->
<g id="edge9" class="edge">
<title>Node4&#45;&gt;Node10</title>
<path fill="none" stroke="midnightblue" d="M677.66,-336.41C699.02,-308.7 764.91,-221.5 775,-188 785.18,-154.21 772.87,-140.46 752,-112 743.23,-100.04 730.62,-89.3 719.79,-81.31"/>
<polygon fill="midnightblue" stroke="midnightblue" points="721.78,-78.43 711.59,-75.52 717.74,-84.15 721.78,-78.43"/>
</g>
<!-- Node13 -->
<g id="node13" class="node">
<title>Node13</title>
<g id="a_node13"><a xlink:href="source__location_8h.html" target="_top" xlink:title=" ">
<polygon fill="none" stroke="black" points="465,-280.5 465,-299.5 567,-299.5 567,-280.5 465,-280.5"/>
<text text-anchor="middle" x="516" y="-287.5" font-family="Helvetica,sans-Serif" font-size="10.00">source_location.h</text>
</a>
</g>
</g>
<!-- Node4&#45;&gt;Node13 -->
<g id="edge14" class="edge">
<title>Node4&#45;&gt;Node13</title>
<path fill="none" stroke="midnightblue" d="M646.44,-336.44C620.48,-327.4 579.33,-313.06 550.2,-302.92"/>
<polygon fill="midnightblue" stroke="midnightblue" points="551.04,-299.5 540.45,-299.52 548.74,-306.11 551.04,-299.5"/>
</g>
<!-- Node10&#45;&gt;Node7 -->
<g id="edge11" class="edge">
<title>Node10&#45;&gt;Node7</title>
<path fill="none" stroke="midnightblue" d="M717.17,-56.44C736.91,-47.64 767.89,-33.81 790.49,-23.72"/>
<polygon fill="midnightblue" stroke="midnightblue" points="792.21,-26.79 799.92,-19.52 789.36,-20.4 792.21,-26.79"/>
</g>
<!-- Node10&#45;&gt;Node8 -->
<g id="edge12" class="edge">
<title>Node10&#45;&gt;Node8</title>
<path fill="none" stroke="midnightblue" d="M663.27,-61.22C648.41,-59.6 630.85,-57.7 615,-56 468.68,-40.3 293.93,-21.85 223.13,-14.39"/>
<polygon fill="midnightblue" stroke="midnightblue" points="223.38,-10.89 213.07,-13.32 222.65,-17.85 223.38,-10.89"/>
</g>
<!-- Node11 -->
<g id="node11" class="node">
<title>Node11</title>
<g id="a_node11"><a xlink:title=" ">
<polygon fill="none" stroke="#bfbfbf" points="673.5,-0.5 673.5,-19.5 722.5,-19.5 722.5,-0.5 673.5,-0.5"/>
<text text-anchor="middle" x="698" y="-7.5" font-family="Helvetica,sans-Serif" font-size="10.00">cstdlib</text>
</a>
</g>
</g>
<!-- Node10&#45;&gt;Node11 -->
<g id="edge10" class="edge">
<title>Node10&#45;&gt;Node11</title>
<path fill="none" stroke="midnightblue" d="M698,-56.08C698,-49.01 698,-38.86 698,-29.99"/>
<polygon fill="midnightblue" stroke="midnightblue" points="701.5,-29.75 698,-19.75 694.5,-29.75 701.5,-29.75"/>
</g>
<!-- Node12 -->
<g id="node12" class="node">
<title>Node12</title>
<g id="a_node12"><a xlink:title=" ">
<polygon fill="none" stroke="#bfbfbf" points="556.5,-0.5 556.5,-19.5 625.5,-19.5 625.5,-0.5 556.5,-0.5"/>
<text text-anchor="middle" x="591" y="-7.5" font-family="Helvetica,sans-Serif" font-size="10.00">type_traits</text>
</a>
</g>
</g>
<!-- Node10&#45;&gt;Node12 -->
<g id="edge13" class="edge">
<title>Node10&#45;&gt;Node12</title>
<path fill="none" stroke="midnightblue" d="M680.81,-56.32C663.65,-47.66 637.05,-34.24 617.25,-24.25"/>
<polygon fill="midnightblue" stroke="midnightblue" points="618.65,-21.04 608.15,-19.65 615.5,-27.28 618.65,-21.04"/>
</g>
<!-- Node13&#45;&gt;Node8 -->
<g id="edge34" class="edge">
<title>Node13&#45;&gt;Node8</title>
<path fill="none" stroke="midnightblue" d="M464.87,-283.43C369.04,-271.55 172,-239.74 172,-179 172,-179 172,-179 172,-121 172,-88.49 180.16,-51.35 185.78,-29.61"/>
<polygon fill="midnightblue" stroke="midnightblue" points="189.22,-30.32 188.44,-19.75 182.46,-28.5 189.22,-30.32"/>
</g>
<!-- Node14 -->
<g id="node14" class="node">
<title>Node14</title>
<g id="a_node14"><a xlink:href="irep_8h.html" target="_top" xlink:title=" ">
<polygon fill="none" stroke="black" points="472,-224.5 472,-243.5 516,-243.5 516,-224.5 472,-224.5"/>
<text text-anchor="middle" x="494" y="-231.5" font-family="Helvetica,sans-Serif" font-size="10.00">irep.h</text>
</a>
</g>
</g>
<!-- Node13&#45;&gt;Node14 -->
<g id="edge15" class="edge">
<title>Node13&#45;&gt;Node14</title>
<path fill="none" stroke="midnightblue" d="M512.37,-280.08C509.39,-272.77 505.07,-262.18 501.38,-253.1"/>
<polygon fill="midnightblue" stroke="midnightblue" points="504.58,-251.69 497.57,-243.75 498.1,-254.33 504.58,-251.69"/>
</g>
<!-- Node31 -->
<g id="node24" class="node">
<title>Node31</title>
<g id="a_node24"><a xlink:href="optional_8h.html" target="_top" xlink:title=" ">
<polygon fill="none" stroke="black" points="583.5,-224.5 583.5,-243.5 648.5,-243.5 648.5,-224.5 583.5,-224.5"/>
<text text-anchor="middle" x="616" y="-231.5" font-family="Helvetica,sans-Serif" font-size="10.00">optional.h</text>
</a>
</g>
</g>
<!-- Node13&#45;&gt;Node31 -->
<g id="edge32" class="edge">
<title>Node13&#45;&gt;Node31</title>
<path fill="none" stroke="midnightblue" d="M532.07,-280.32C547.96,-271.74 572.51,-258.49 590.96,-248.52"/>
<polygon fill="midnightblue" stroke="midnightblue" points="592.84,-251.49 599.97,-243.65 589.51,-245.33 592.84,-251.49"/>
</g>
<!-- Node14&#45;&gt;Node8 -->
<g id="edge16" class="edge">
<title>Node14&#45;&gt;Node8</title>
<path fill="none" stroke="midnightblue" d="M471.9,-232.1C419.63,-228.67 288.38,-212.09 229,-132 205.92,-100.86 196.61,-55.33 193.05,-29.93"/>
<polygon fill="midnightblue" stroke="midnightblue" points="196.5,-29.29 191.79,-19.79 189.55,-30.15 196.5,-29.29"/>
</g>
<!-- Node14&#45;&gt;Node10 -->
<g id="edge18" class="edge">
<title>Node14&#45;&gt;Node10</title>
<path fill="none" stroke="midnightblue" d="M516.39,-224.67C539.01,-216.09 574.83,-202.02 605,-188 622.31,-179.96 625.61,-175.87 643,-168 683.75,-149.55 711.65,-168.86 737,-132 748.33,-115.53 732.49,-95.73 717.73,-82.34"/>
<polygon fill="midnightblue" stroke="midnightblue" points="719.71,-79.43 709.82,-75.62 715.18,-84.76 719.71,-79.43"/>
</g>
<!-- Node15 -->
<g id="node15" class="node">
<title>Node15</title>
<g id="a_node15"><a xlink:title=" ">
<polygon fill="none" stroke="#bfbfbf" points="320.5,-168.5 320.5,-187.5 367.5,-187.5 367.5,-168.5 320.5,-168.5"/>
<text text-anchor="middle" x="344" y="-175.5" font-family="Helvetica,sans-Serif" font-size="10.00">vector</text>
</a>
</g>
</g>
<!-- Node14&#45;&gt;Node15 -->
<g id="edge17" class="edge">
<title>Node14&#45;&gt;Node15</title>
<path fill="none" stroke="midnightblue" d="M471.87,-225.03C446.94,-216.06 406.15,-201.37 377.35,-191.01"/>
<polygon fill="midnightblue" stroke="midnightblue" points="378.31,-187.63 367.71,-187.54 375.93,-194.22 378.31,-187.63"/>
</g>
<!-- Node16 -->
<g id="node16" class="node">
<title>Node16</title>
<g id="a_node16"><a xlink:href="irep__ids_8h.html" target="_top" xlink:title=" ">
<polygon fill="none" stroke="black" points="532,-168.5 532,-187.5 596,-187.5 596,-168.5 532,-168.5"/>
<text text-anchor="middle" x="564" y="-175.5" font-family="Helvetica,sans-Serif" font-size="10.00">irep_ids.h</text>
</a>
</g>
</g>
<!-- Node14&#45;&gt;Node16 -->
<g id="edge19" class="edge">
<title>Node14&#45;&gt;Node16</title>
<path fill="none" stroke="midnightblue" d="M505.25,-224.32C515.8,-216.18 531.8,-203.84 544.44,-194.09"/>
<polygon fill="midnightblue" stroke="midnightblue" points="546.77,-196.71 552.55,-187.83 542.49,-191.17 546.77,-196.71"/>
</g>
<!-- Node26 -->
<g id="node19" class="node">
<title>Node26</title>
<g id="a_node19"><a xlink:href="forward__list__as__map_8h.html" target="_top" xlink:title=" ">
<polygon fill="none" stroke="black" points="385.5,-168.5 385.5,-187.5 512.5,-187.5 512.5,-168.5 385.5,-168.5"/>
<text text-anchor="middle" x="449" y="-175.5" font-family="Helvetica,sans-Serif" font-size="10.00">forward_list_as_map.h</text>
</a>
</g>
</g>
<!-- Node14&#45;&gt;Node26 -->
<g id="edge25" class="edge">
<title>Node14&#45;&gt;Node26</title>
<path fill="none" stroke="midnightblue" d="M486.57,-224.08C480.15,-216.38 470.69,-205.03 462.88,-195.65"/>
<polygon fill="midnightblue" stroke="midnightblue" points="465.38,-193.19 456.29,-187.75 460.01,-197.67 465.38,-193.19"/>
</g>
<!-- Node17 -->
<g id="node17" class="node">
<title>Node17</title>
<g id="a_node17"><a xlink:href="dstring_8h.html" target="_top" xlink:title=" ">
<polygon fill="none" stroke="red" points="668.5,-112.5 668.5,-131.5 727.5,-131.5 727.5,-112.5 668.5,-112.5"/>
<text text-anchor="middle" x="698" y="-119.5" font-family="Helvetica,sans-Serif" font-size="10.00">dstring.h</text>
</a>
</g>
</g>
<!-- Node16&#45;&gt;Node17 -->
<g id="edge20" class="edge">
<title>Node16&#45;&gt;Node17</title>
<path fill="none" stroke="midnightblue" d="M585.23,-168.44C607.38,-159.52 642.32,-145.44 667.44,-135.32"/>
<polygon fill="midnightblue" stroke="midnightblue" points="668.9,-138.5 676.87,-131.52 666.28,-132.01 668.9,-138.5"/>
</g>
<!-- Node25 -->
<g id="node18" class="node">
<title>Node25</title>
<g id="a_node18"><a xlink:title=" ">
<polygon fill="none" stroke="#bfbfbf" points="576,-112.5 576,-131.5 650,-131.5 650,-112.5 576,-112.5"/>
<text text-anchor="middle" x="613" y="-119.5" font-family="Helvetica,sans-Serif" font-size="10.00">irep_ids.def</text>
</a>
</g>
</g>
<!-- Node16&#45;&gt;Node25 -->
<g id="edge24" class="edge">
<title>Node16&#45;&gt;Node25</title>
<path fill="none" stroke="midnightblue" d="M572.09,-168.08C579.16,-160.3 589.59,-148.8 598.15,-139.37"/>
<polygon fill="midnightblue" stroke="midnightblue" points="600.93,-141.51 605.06,-131.75 595.75,-136.8 600.93,-141.51"/>
</g>
<!-- Node17&#45;&gt;Node6 -->
<g id="edge21" class="edge">
<title>Node17&#45;&gt;Node6</title>
<path fill="none" stroke="midnightblue" d="M713.91,-112.32C729.64,-103.74 753.94,-90.49 772.21,-80.52"/>
<polygon fill="midnightblue" stroke="midnightblue" points="774.03,-83.52 781.13,-75.65 770.68,-77.37 774.03,-83.52"/>
</g>
<!-- Node17&#45;&gt;Node8 -->
<g id="edge22" class="edge">
<title>Node17&#45;&gt;Node8</title>
<path fill="none" stroke="midnightblue" d="M668.2,-114.08C665.09,-113.37 661.98,-112.67 659,-112 495.52,-75.5 299.41,-33.88 223.35,-17.82"/>
<polygon fill="midnightblue" stroke="midnightblue" points="223.94,-14.36 213.43,-15.72 222.49,-21.21 223.94,-14.36"/>
</g>
<!-- Node17&#45;&gt;Node10 -->
<g id="edge23" class="edge">
<title>Node17&#45;&gt;Node10</title>
<path fill="none" stroke="midnightblue" d="M698,-112.08C698,-105.01 698,-94.86 698,-85.99"/>
<polygon fill="midnightblue" stroke="midnightblue" points="701.5,-85.75 698,-75.75 694.5,-85.75 701.5,-85.75"/>
</g>
<!-- Node27 -->
<g id="node20" class="node">
<title>Node27</title>
<g id="a_node20"><a xlink:title=" ">
<polygon fill="none" stroke="#bfbfbf" points="416,-112.5 416,-131.5 480,-131.5 480,-112.5 416,-112.5"/>
<text text-anchor="middle" x="448" y="-119.5" font-family="Helvetica,sans-Serif" font-size="10.00">algorithm</text>
</a>
</g>
</g>
<!-- Node26&#45;&gt;Node27 -->
<g id="edge26" class="edge">
<title>Node26&#45;&gt;Node27</title>
<path fill="none" stroke="midnightblue" d="M448.83,-168.08C448.7,-161.01 448.52,-150.86 448.35,-141.99"/>
<polygon fill="midnightblue" stroke="midnightblue" points="451.85,-141.68 448.16,-131.75 444.85,-141.81 451.85,-141.68"/>
</g>
<!-- Node28 -->
<g id="node21" class="node">
<title>Node28</title>
<g id="a_node21"><a xlink:title=" ">
<polygon fill="none" stroke="#bfbfbf" points="238,-112.5 238,-131.5 312,-131.5 312,-112.5 238,-112.5"/>
<text text-anchor="middle" x="275" y="-119.5" font-family="Helvetica,sans-Serif" font-size="10.00">forward_list</text>
</a>
</g>
</g>
<!-- Node26&#45;&gt;Node28 -->
<g id="edge27" class="edge">
<title>Node26&#45;&gt;Node28</title>
<path fill="none" stroke="midnightblue" d="M421.43,-168.44C391.9,-159.28 344.88,-144.69 312.12,-134.52"/>
<polygon fill="midnightblue" stroke="midnightblue" points="313.03,-131.14 302.44,-131.52 310.96,-137.82 313.03,-131.14"/>
</g>
<!-- Node29 -->
<g id="node22" class="node">
<title>Node29</title>
<g id="a_node22"><a xlink:href="as__const_8h.html" target="_top" xlink:title=" ">
<polygon fill="none" stroke="black" points="330,-112.5 330,-131.5 398,-131.5 398,-112.5 330,-112.5"/>
<text text-anchor="middle" x="364" y="-119.5" font-family="Helvetica,sans-Serif" font-size="10.00">as_const.h</text>
</a>
</g>
</g>
<!-- Node26&#45;&gt;Node29 -->
<g id="edge28" class="edge">
<title>Node26&#45;&gt;Node29</title>
<path fill="none" stroke="midnightblue" d="M435.34,-168.32C422.08,-159.9 401.73,-146.97 386.15,-137.07"/>
<polygon fill="midnightblue" stroke="midnightblue" points="387.94,-134.06 377.62,-131.65 384.19,-139.97 387.94,-134.06"/>
</g>
<!-- Node30 -->
<g id="node23" class="node">
<title>Node30</title>
<g id="a_node23"><a xlink:href="narrow_8h.html" target="_top" xlink:title=" ">
<polygon fill="none" stroke="black" points="498.5,-112.5 498.5,-131.5 557.5,-131.5 557.5,-112.5 498.5,-112.5"/>
<text text-anchor="middle" x="528" y="-119.5" font-family="Helvetica,sans-Serif" font-size="10.00">narrow.h</text>
</a>
</g>
</g>
<!-- Node26&#45;&gt;Node30 -->
<g id="edge29" class="edge">
<title>Node26&#45;&gt;Node30</title>
<path fill="none" stroke="midnightblue" d="M461.69,-168.32C473.9,-159.98 492.58,-147.21 507,-137.35"/>
<polygon fill="midnightblue" stroke="midnightblue" points="509.06,-140.19 515.34,-131.65 505.11,-134.41 509.06,-140.19"/>
</g>
<!-- Node30&#45;&gt;Node10 -->
<g id="edge31" class="edge">
<title>Node30&#45;&gt;Node10</title>
<path fill="none" stroke="midnightblue" d="M554.94,-112.44C583.66,-103.32 629.33,-88.81 661.32,-78.65"/>
<polygon fill="midnightblue" stroke="midnightblue" points="662.72,-81.88 671.19,-75.52 660.6,-75.21 662.72,-81.88"/>
</g>
<!-- Node30&#45;&gt;Node12 -->
<g id="edge30" class="edge">
<title>Node30&#45;&gt;Node12</title>
<path fill="none" stroke="midnightblue" d="M532.94,-112.37C543.29,-94.3 567.42,-52.18 581.09,-28.31"/>
<polygon fill="midnightblue" stroke="midnightblue" points="584.15,-30.01 586.08,-19.59 578.07,-26.53 584.15,-30.01"/>
</g>
<!-- Node32 -->
<g id="node25" class="node">
<title>Node32</title>
<g id="a_node25"><a xlink:title=" ">
<polygon fill="none" stroke="#bfbfbf" points="652.5,-168.5 652.5,-187.5 765.5,-187.5 765.5,-168.5 652.5,-168.5"/>
<text text-anchor="middle" x="709" y="-175.5" font-family="Helvetica,sans-Serif" font-size="10.00">nonstd/optional.hpp</text>
</a>
</g>
</g>
<!-- Node31&#45;&gt;Node32 -->
<g id="edge33" class="edge">
<title>Node31&#45;&gt;Node32</title>
<path fill="none" stroke="midnightblue" d="M630.94,-224.32C645.59,-215.82 668.13,-202.73 685.24,-192.8"/>
<polygon fill="midnightblue" stroke="midnightblue" points="687.2,-195.7 694.1,-187.65 683.69,-189.65 687.2,-195.7"/>
</g>
<!-- Node33&#45;&gt;Node3 -->
<g id="edge36" class="edge">
<title>Node33&#45;&gt;Node3</title>
<path fill="none" stroke="midnightblue" d="M89.56,-336.32C79.85,-328.26 65.18,-316.08 53.5,-306.37"/>
<polygon fill="midnightblue" stroke="midnightblue" points="55.56,-303.53 45.63,-299.83 51.09,-308.92 55.56,-303.53"/>
</g>
<!-- Node33&#45;&gt;Node8 -->
<g id="edge37" class="edge">
<title>Node33&#45;&gt;Node8</title>
<path fill="none" stroke="midnightblue" d="M99.48,-336.45C98.39,-317.95 96,-272.84 96,-235 96,-235 96,-235 96,-121 96,-90.2 100.64,-79.95 120,-56 130.99,-42.41 147.23,-31.68 161.41,-24.12"/>
<polygon fill="midnightblue" stroke="midnightblue" points="163.01,-27.24 170.36,-19.61 159.85,-20.99 163.01,-27.24"/>
</g>
</g>
</svg>
