<?xml version="1.0" encoding="UTF-8" standalone="no"?>
<!DOCTYPE svg PUBLIC "-//W3C//DTD SVG 1.1//EN"
 "http://www.w3.org/Graphics/SVG/1.1/DTD/svg11.dtd">
<!-- Generated by graphviz version 2.43.0 (0)
 -->
<!-- Title: /home/runner/work/cbmc&#45;documentation/cbmc&#45;documentation/src/goto&#45;symex/memory_model_tso.h Pages: 1 -->
<svg width="559pt" height="206pt"
 viewBox="0.00 0.00 559.00 206.00" xmlns="http://www.w3.org/2000/svg" xmlns:xlink="http://www.w3.org/1999/xlink">
<g id="graph0" class="graph" transform="scale(1 1) rotate(0) translate(4 202)">
<title>/home/runner/work/cbmc&#45;documentation/cbmc&#45;documentation/src/goto&#45;symex/memory_model_tso.h</title>
<!-- Node1 -->
<g id="node1" class="node">
<title>Node1</title>
<g id="a_node1"><a xlink:title=" ">
<polygon fill="#bfbfbf" stroke="black" points="225.5,-156.5 225.5,-197.5 430.5,-197.5 430.5,-156.5 225.5,-156.5"/>
<text text-anchor="start" x="233.5" y="-185.5" font-family="Helvetica,sans-Serif" font-size="10.00">/home/runner/work/cbmc</text>
<text text-anchor="start" x="233.5" y="-174.5" font-family="Helvetica,sans-Serif" font-size="10.00">&#45;documentation/cbmc&#45;documentation</text>
<text text-anchor="middle" x="328" y="-163.5" font-family="Helvetica,sans-Serif" font-size="10.00">/src/goto&#45;symex/memory_model_tso.h</text>
</a>
</g>
</g>
<!-- Node2 -->
<g id="node2" class="node">
<title>Node2</title>
<g id="a_node2"><a xlink:href="memory__model__pso_8h.html" target="_top" xlink:title=" ">
<polygon fill="none" stroke="black" points="109.5,-78.5 109.5,-119.5 316.5,-119.5 316.5,-78.5 109.5,-78.5"/>
<text text-anchor="start" x="117.5" y="-107.5" font-family="Helvetica,sans-Serif" font-size="10.00">/home/runner/work/cbmc</text>
<text text-anchor="start" x="117.5" y="-96.5" font-family="Helvetica,sans-Serif" font-size="10.00">&#45;documentation/cbmc&#45;documentation</text>
<text text-anchor="middle" x="213" y="-85.5" font-family="Helvetica,sans-Serif" font-size="10.00">/src/goto&#45;symex/memory_model_pso.h</text>
</a>
</g>
</g>
<!-- Node1&#45;&gt;Node2 -->
<g id="edge1" class="edge">
<title>Node1&#45;&gt;Node2</title>
<path fill="none" stroke="midnightblue" d="M289.62,-150.64C274.26,-140.49 256.85,-128.98 242.51,-119.51"/>
<polygon fill="midnightblue" stroke="midnightblue" points="288.11,-153.83 298.38,-156.43 291.97,-147.99 288.11,-153.83"/>
</g>
<!-- Node5 -->
<g id="node5" class="node">
<title>Node5</title>
<g id="a_node5"><a xlink:href="memory__model__tso_8cpp.html" target="_top" xlink:title=" ">
<polygon fill="none" stroke="black" points="335,-78.5 335,-119.5 551,-119.5 551,-78.5 335,-78.5"/>
<text text-anchor="start" x="343" y="-107.5" font-family="Helvetica,sans-Serif" font-size="10.00">/home/runner/work/cbmc</text>
<text text-anchor="start" x="343" y="-96.5" font-family="Helvetica,sans-Serif" font-size="10.00">&#45;documentation/cbmc&#45;documentation</text>
<text text-anchor="middle" x="443" y="-85.5" font-family="Helvetica,sans-Serif" font-size="10.00">/src/goto&#45;symex/memory_model_tso.cpp</text>
</a>
</g>
</g>
<!-- Node1&#45;&gt;Node5 -->
<g id="edge4" class="edge">
<title>Node1&#45;&gt;Node5</title>
<path fill="none" stroke="midnightblue" d="M366.38,-150.64C381.74,-140.49 399.15,-128.98 413.49,-119.51"/>
<polygon fill="midnightblue" stroke="midnightblue" points="364.03,-147.99 357.62,-156.43 367.89,-153.83 364.03,-147.99"/>
</g>
<!-- Node3 -->
<g id="node3" class="node">
<title>Node3</title>
<g id="a_node3"><a xlink:href="bmc__util_8cpp.html" target="_top" xlink:title=" ">
<polygon fill="none" stroke="black" points="0,-0.5 0,-41.5 200,-41.5 200,-0.5 0,-0.5"/>
<text text-anchor="start" x="8" y="-29.5" font-family="Helvetica,sans-Serif" font-size="10.00">/home/runner/work/cbmc</text>
<text text-anchor="start" x="8" y="-18.5" font-family="Helvetica,sans-Serif" font-size="10.00">&#45;documentation/cbmc&#45;documentation</text>
<text text-anchor="middle" x="100" y="-7.5" font-family="Helvetica,sans-Serif" font-size="10.00">/src/goto&#45;checker/bmc_util.cpp</text>
</a>
</g>
</g>
<!-- Node2&#45;&gt;Node3 -->
<g id="edge2" class="edge">
<title>Node2&#45;&gt;Node3</title>
<path fill="none" stroke="midnightblue" d="M175.29,-72.64C160.2,-62.49 143.09,-50.98 129,-41.51"/>
<polygon fill="midnightblue" stroke="midnightblue" points="173.65,-75.75 183.9,-78.43 177.56,-69.94 173.65,-75.75"/>
</g>
<!-- Node4 -->
<g id="node4" class="node">
<title>Node4</title>
<g id="a_node4"><a xlink:href="memory__model__pso_8cpp.html" target="_top" xlink:title=" ">
<polygon fill="none" stroke="black" points="218,-0.5 218,-41.5 436,-41.5 436,-0.5 218,-0.5"/>
<text text-anchor="start" x="226" y="-29.5" font-family="Helvetica,sans-Serif" font-size="10.00">/home/runner/work/cbmc</text>
<text text-anchor="start" x="226" y="-18.5" font-family="Helvetica,sans-Serif" font-size="10.00">&#45;documentation/cbmc&#45;documentation</text>
<text text-anchor="middle" x="327" y="-7.5" font-family="Helvetica,sans-Serif" font-size="10.00">/src/goto&#45;symex/memory_model_pso.cpp</text>
</a>
</g>
</g>
<!-- Node2&#45;&gt;Node4 -->
<g id="edge3" class="edge">
<title>Node2&#45;&gt;Node4</title>
<path fill="none" stroke="midnightblue" d="M251.05,-72.64C266.27,-62.49 283.53,-50.98 297.74,-41.51"/>
<polygon fill="midnightblue" stroke="midnightblue" points="248.74,-69.97 242.36,-78.43 252.62,-75.79 248.74,-69.97"/>
</g>
</g>
</svg>
