<?xml version="1.0" encoding="UTF-8" standalone="no"?>
<!DOCTYPE svg PUBLIC "-//W3C//DTD SVG 1.1//EN"
 "http://www.w3.org/Graphics/SVG/1.1/DTD/svg11.dtd">
<!-- Generated by graphviz version 2.43.0 (0)
 -->
<!-- Title: /home/runner/work/cbmc&#45;documentation/cbmc&#45;documentation/src/goto&#45;symex/memory_model.cpp Pages: 1 -->
<svg width="1229pt" height="744pt"
 viewBox="0.00 0.00 1229.00 744.00" xmlns="http://www.w3.org/2000/svg" xmlns:xlink="http://www.w3.org/1999/xlink">
<g id="graph0" class="graph" transform="scale(1 1) rotate(0) translate(4 740)">
<title>/home/runner/work/cbmc&#45;documentation/cbmc&#45;documentation/src/goto&#45;symex/memory_model.cpp</title>
<!-- Node1 -->
<g id="node1" class="node">
<title>Node1</title>
<g id="a_node1"><a xlink:title=" ">
<polygon fill="#bfbfbf" stroke="black" points="0,-694.5 0,-735.5 200,-735.5 200,-694.5 0,-694.5"/>
<text text-anchor="start" x="8" y="-723.5" font-family="Helvetica,sans-Serif" font-size="10.00">/home/runner/work/cbmc</text>
<text text-anchor="start" x="8" y="-712.5" font-family="Helvetica,sans-Serif" font-size="10.00">&#45;documentation/cbmc&#45;documentation</text>
<text text-anchor="middle" x="100" y="-701.5" font-family="Helvetica,sans-Serif" font-size="10.00">/src/goto&#45;symex/memory_model.cpp</text>
</a>
</g>
</g>
<!-- Node2 -->
<g id="node2" class="node">
<title>Node2</title>
<g id="a_node2"><a xlink:href="memory__model_8h.html" target="_top" xlink:title=" ">
<polygon fill="none" stroke="black" points="235.5,-638.5 235.5,-657.5 338.5,-657.5 338.5,-638.5 235.5,-638.5"/>
<text text-anchor="middle" x="287" y="-645.5" font-family="Helvetica,sans-Serif" font-size="10.00">memory_model.h</text>
</a>
</g>
</g>
<!-- Node1&#45;&gt;Node2 -->
<g id="edge1" class="edge">
<title>Node1&#45;&gt;Node2</title>
<path fill="none" stroke="midnightblue" d="M156.11,-694.5C187.4,-683.62 225.37,-670.42 252.35,-661.05"/>
<polygon fill="midnightblue" stroke="midnightblue" points="253.81,-664.24 262.11,-657.65 251.51,-657.63 253.81,-664.24"/>
</g>
<!-- Node38 -->
<g id="node27" class="node">
<title>Node38</title>
<g id="a_node27"><a xlink:href="std__expr_8h.html" target="_top" xlink:title=" ">
<polygon fill="none" stroke="red" points="175.5,-280.5 175.5,-299.5 242.5,-299.5 242.5,-280.5 175.5,-280.5"/>
<text text-anchor="middle" x="209" y="-287.5" font-family="Helvetica,sans-Serif" font-size="10.00">std_expr.h</text>
</a>
</g>
</g>
<!-- Node1&#45;&gt;Node38 -->
<g id="edge58" class="edge">
<title>Node1&#45;&gt;Node38</title>
<path fill="none" stroke="midnightblue" d="M89.07,-694.11C77.23,-670.66 60,-630.17 60,-593 60,-593 60,-593 60,-535 60,-435.37 151.6,-341.97 191.16,-306.28"/>
<polygon fill="midnightblue" stroke="midnightblue" points="193.59,-308.81 198.76,-299.56 188.95,-303.56 193.59,-308.81"/>
</g>
<!-- Node3 -->
<g id="node3" class="node">
<title>Node3</title>
<g id="a_node3"><a xlink:href="partial__order__concurrency_8h.html" target="_top" xlink:title=" ">
<polygon fill="none" stroke="black" points="334.5,-582.5 334.5,-601.5 485.5,-601.5 485.5,-582.5 334.5,-582.5"/>
<text text-anchor="middle" x="410" y="-589.5" font-family="Helvetica,sans-Serif" font-size="10.00">partial_order_concurrency.h</text>
</a>
</g>
</g>
<!-- Node2&#45;&gt;Node3 -->
<g id="edge2" class="edge">
<title>Node2&#45;&gt;Node3</title>
<path fill="none" stroke="midnightblue" d="M306.49,-638.44C326.64,-629.6 358.32,-615.69 381.33,-605.59"/>
<polygon fill="midnightblue" stroke="midnightblue" points="382.85,-608.74 390.6,-601.52 380.04,-602.33 382.85,-608.74"/>
</g>
<!-- Node4 -->
<g id="node4" class="node">
<title>Node4</title>
<g id="a_node4"><a xlink:href="symex__target__equation_8h.html" target="_top" xlink:title=" ">
<polygon fill="none" stroke="black" points="412.5,-526.5 412.5,-545.5 553.5,-545.5 553.5,-526.5 412.5,-526.5"/>
<text text-anchor="middle" x="483" y="-533.5" font-family="Helvetica,sans-Serif" font-size="10.00">symex_target_equation.h</text>
</a>
</g>
</g>
<!-- Node3&#45;&gt;Node4 -->
<g id="edge3" class="edge">
<title>Node3&#45;&gt;Node4</title>
<path fill="none" stroke="midnightblue" d="M421.73,-582.32C432.84,-574.11 449.74,-561.6 462.98,-551.81"/>
<polygon fill="midnightblue" stroke="midnightblue" points="465.1,-554.59 471.06,-545.83 460.94,-548.97 465.1,-554.59"/>
</g>
<!-- Node5 -->
<g id="node5" class="node">
<title>Node5</title>
<g id="a_node5"><a xlink:title=" ">
<polygon fill="none" stroke="#bfbfbf" points="583,-112.5 583,-131.5 647,-131.5 647,-112.5 583,-112.5"/>
<text text-anchor="middle" x="615" y="-119.5" font-family="Helvetica,sans-Serif" font-size="10.00">algorithm</text>
</a>
</g>
</g>
<!-- Node4&#45;&gt;Node5 -->
<g id="edge4" class="edge">
<title>Node4&#45;&gt;Node5</title>
<path fill="none" stroke="midnightblue" d="M496.37,-526.3C520.98,-509.09 571,-468.15 571,-419.5 571,-419.5 571,-419.5 571,-350.5 571,-271.41 596.95,-179.63 608.99,-141.29"/>
<polygon fill="midnightblue" stroke="midnightblue" points="612.39,-142.15 612.11,-131.56 605.72,-140.01 612.39,-142.15"/>
</g>
<!-- Node6 -->
<g id="node6" class="node">
<title>Node6</title>
<g id="a_node6"><a xlink:title=" ">
<polygon fill="none" stroke="#bfbfbf" points="599,-280.5 599,-299.5 647,-299.5 647,-280.5 599,-280.5"/>
<text text-anchor="middle" x="623" y="-287.5" font-family="Helvetica,sans-Serif" font-size="10.00">iosfwd</text>
</a>
</g>
</g>
<!-- Node4&#45;&gt;Node6 -->
<g id="edge5" class="edge">
<title>Node4&#45;&gt;Node6</title>
<path fill="none" stroke="midnightblue" d="M524.47,-526.43C545.66,-519.93 570.06,-508.78 585,-490 627.86,-436.12 627.39,-348.29 624.8,-309.93"/>
<polygon fill="midnightblue" stroke="midnightblue" points="628.27,-309.39 623.97,-299.7 621.29,-309.95 628.27,-309.39"/>
</g>
<!-- Node7 -->
<g id="node7" class="node">
<title>Node7</title>
<g id="a_node7"><a xlink:title=" ">
<polygon fill="none" stroke="#bfbfbf" points="1189,-280.5 1189,-299.5 1221,-299.5 1221,-280.5 1189,-280.5"/>
<text text-anchor="middle" x="1205" y="-287.5" font-family="Helvetica,sans-Serif" font-size="10.00">list</text>
</a>
</g>
</g>
<!-- Node4&#45;&gt;Node7 -->
<g id="edge6" class="edge">
<title>Node4&#45;&gt;Node7</title>
<path fill="none" stroke="midnightblue" d="M528.64,-526.45C573.62,-517.85 644.24,-503.92 705,-490 920.09,-440.73 1030.39,-523.45 1186,-367 1200.88,-352.04 1204.7,-327.29 1205.41,-310.11"/>
<polygon fill="midnightblue" stroke="midnightblue" points="1208.91,-309.68 1205.49,-299.65 1201.91,-309.62 1208.91,-309.68"/>
</g>
<!-- Node8 -->
<g id="node8" class="node">
<title>Node8</title>
<g id="a_node8"><a xlink:href="src_2util_2invariant_8h.html" target="_top" xlink:title=" ">
<polygon fill="none" stroke="black" points="251,-56.5 251,-75.5 339,-75.5 339,-56.5 251,-56.5"/>
<text text-anchor="middle" x="295" y="-63.5" font-family="Helvetica,sans-Serif" font-size="10.00">util/invariant.h</text>
</a>
</g>
</g>
<!-- Node4&#45;&gt;Node8 -->
<g id="edge7" class="edge">
<title>Node4&#45;&gt;Node8</title>
<path fill="none" stroke="midnightblue" d="M412.48,-534.48C341.39,-529.56 236.18,-509.1 193,-434 134.05,-331.46 159.63,-278.81 201,-168 210.53,-142.46 208.31,-132.73 226,-112 237.24,-98.83 253.28,-88.05 267.07,-80.35"/>
<polygon fill="midnightblue" stroke="midnightblue" points="268.97,-83.3 276.16,-75.52 265.69,-77.12 268.97,-83.3"/>
</g>
<!-- Node13 -->
<g id="node13" class="node">
<title>Node13</title>
<g id="a_node13"><a xlink:href="merge__irep_8h.html" target="_top" xlink:title=" ">
<polygon fill="none" stroke="black" points="266,-470.5 266,-489.5 366,-489.5 366,-470.5 266,-470.5"/>
<text text-anchor="middle" x="316" y="-477.5" font-family="Helvetica,sans-Serif" font-size="10.00">util/merge_irep.h</text>
</a>
</g>
</g>
<!-- Node4&#45;&gt;Node13 -->
<g id="edge12" class="edge">
<title>Node4&#45;&gt;Node13</title>
<path fill="none" stroke="midnightblue" d="M456.54,-526.44C428.32,-517.32 383.46,-502.81 352.03,-492.65"/>
<polygon fill="midnightblue" stroke="midnightblue" points="352.93,-489.26 342.34,-489.52 350.78,-495.92 352.93,-489.26"/>
</g>
<!-- Node29 -->
<g id="node19" class="node">
<title>Node29</title>
<g id="a_node19"><a xlink:href="narrow_8h.html" target="_top" xlink:title=" ">
<polygon fill="none" stroke="black" points="65.5,-112.5 65.5,-131.5 124.5,-131.5 124.5,-112.5 65.5,-112.5"/>
<text text-anchor="middle" x="95" y="-119.5" font-family="Helvetica,sans-Serif" font-size="10.00">narrow.h</text>
</a>
</g>
</g>
<!-- Node4&#45;&gt;Node29 -->
<g id="edge35" class="edge">
<title>Node4&#45;&gt;Node29</title>
<path fill="none" stroke="midnightblue" d="M412.29,-534.85C320.01,-533.23 165.16,-525.14 122,-490 96.33,-469.1 98,-452.6 98,-419.5 98,-419.5 98,-419.5 98,-233 98,-200.94 96.71,-163.63 95.82,-141.74"/>
<polygon fill="midnightblue" stroke="midnightblue" points="99.31,-141.4 95.39,-131.56 92.32,-141.69 99.31,-141.4"/>
</g>
<!-- Node30 -->
<g id="node20" class="node">
<title>Node30</title>
<g id="a_node20"><a xlink:href="src_2util_2message_8h.html" target="_top" xlink:title=" ">
<polygon fill="none" stroke="black" points="853.5,-342 853.5,-361 942.5,-361 942.5,-342 853.5,-342"/>
<text text-anchor="middle" x="898" y="-349" font-family="Helvetica,sans-Serif" font-size="10.00">util/message.h</text>
</a>
</g>
</g>
<!-- Node4&#45;&gt;Node30 -->
<g id="edge24" class="edge">
<title>Node4&#45;&gt;Node30</title>
<path fill="none" stroke="midnightblue" d="M526.56,-526.45C589.31,-512.95 707.51,-483.09 798,-434 830.93,-416.14 863.51,-386.83 882.15,-368.65"/>
<polygon fill="midnightblue" stroke="midnightblue" points="884.83,-370.92 889.46,-361.39 879.9,-365.95 884.83,-370.92"/>
</g>
<!-- Node36 -->
<g id="node25" class="node">
<title>Node36</title>
<g id="a_node25"><a xlink:href="ssa__step_8h.html" target="_top" xlink:title=" ">
<polygon fill="none" stroke="black" points="418,-470.5 418,-489.5 486,-489.5 486,-470.5 418,-470.5"/>
<text text-anchor="middle" x="452" y="-477.5" font-family="Helvetica,sans-Serif" font-size="10.00">ssa_step.h</text>
</a>
</g>
</g>
<!-- Node4&#45;&gt;Node36 -->
<g id="edge36" class="edge">
<title>Node4&#45;&gt;Node36</title>
<path fill="none" stroke="midnightblue" d="M477.88,-526.08C473.59,-518.61 467.34,-507.72 462.06,-498.52"/>
<polygon fill="midnightblue" stroke="midnightblue" points="465.04,-496.68 457.02,-489.75 458.97,-500.17 465.04,-496.68"/>
</g>
<!-- Node61 -->
<g id="node31" class="node">
<title>Node61</title>
<g id="a_node31"><a xlink:href="symex__target_8h.html" target="_top" xlink:title=" ">
<polygon fill="none" stroke="black" points="449.5,-409 449.5,-428 542.5,-428 542.5,-409 449.5,-409"/>
<text text-anchor="middle" x="496" y="-416" font-family="Helvetica,sans-Serif" font-size="10.00">symex_target.h</text>
</a>
</g>
</g>
<!-- Node4&#45;&gt;Node61 -->
<g id="edge57" class="edge">
<title>Node4&#45;&gt;Node61</title>
<path fill="none" stroke="midnightblue" d="M486.05,-526.17C488.98,-517.19 493.23,-502.81 495,-490 497.41,-472.59 497.43,-452.52 496.98,-438.27"/>
<polygon fill="midnightblue" stroke="midnightblue" points="500.48,-438.08 496.56,-428.23 493.48,-438.37 500.48,-438.08"/>
</g>
<!-- Node9 -->
<g id="node9" class="node">
<title>Node9</title>
<g id="a_node9"><a xlink:title=" ">
<polygon fill="none" stroke="#bfbfbf" points="270.5,-0.5 270.5,-19.5 319.5,-19.5 319.5,-0.5 270.5,-0.5"/>
<text text-anchor="middle" x="295" y="-7.5" font-family="Helvetica,sans-Serif" font-size="10.00">cstdlib</text>
</a>
</g>
</g>
<!-- Node8&#45;&gt;Node9 -->
<g id="edge8" class="edge">
<title>Node8&#45;&gt;Node9</title>
<path fill="none" stroke="midnightblue" d="M295,-56.08C295,-49.01 295,-38.86 295,-29.99"/>
<polygon fill="midnightblue" stroke="midnightblue" points="298.5,-29.75 295,-19.75 291.5,-29.75 298.5,-29.75"/>
</g>
<!-- Node10 -->
<g id="node10" class="node">
<title>Node10</title>
<g id="a_node10"><a xlink:title=" ">
<polygon fill="none" stroke="#bfbfbf" points="558,-0.5 558,-19.5 614,-19.5 614,-0.5 558,-0.5"/>
<text text-anchor="middle" x="586" y="-7.5" font-family="Helvetica,sans-Serif" font-size="10.00">sstream</text>
</a>
</g>
</g>
<!-- Node8&#45;&gt;Node10 -->
<g id="edge9" class="edge">
<title>Node8&#45;&gt;Node10</title>
<path fill="none" stroke="midnightblue" d="M339.2,-56.8C395.99,-46.26 493.66,-28.14 547.53,-18.14"/>
<polygon fill="midnightblue" stroke="midnightblue" points="548.5,-21.52 557.69,-16.25 547.22,-14.64 548.5,-21.52"/>
</g>
<!-- Node11 -->
<g id="node11" class="node">
<title>Node11</title>
<g id="a_node11"><a xlink:title=" ">
<polygon fill="none" stroke="#bfbfbf" points="813,-0.5 813,-19.5 857,-19.5 857,-0.5 813,-0.5"/>
<text text-anchor="middle" x="835" y="-7.5" font-family="Helvetica,sans-Serif" font-size="10.00">string</text>
</a>
</g>
</g>
<!-- Node8&#45;&gt;Node11 -->
<g id="edge10" class="edge">
<title>Node8&#45;&gt;Node11</title>
<path fill="none" stroke="midnightblue" d="M339.19,-60.58C444.83,-50.02 710.08,-23.49 802.58,-14.24"/>
<polygon fill="midnightblue" stroke="midnightblue" points="803.13,-17.7 812.73,-13.23 802.43,-10.74 803.13,-17.7"/>
</g>
<!-- Node12 -->
<g id="node12" class="node">
<title>Node12</title>
<g id="a_node12"><a xlink:title=" ">
<polygon fill="none" stroke="#bfbfbf" points="152.5,-0.5 152.5,-19.5 221.5,-19.5 221.5,-0.5 152.5,-0.5"/>
<text text-anchor="middle" x="187" y="-7.5" font-family="Helvetica,sans-Serif" font-size="10.00">type_traits</text>
</a>
</g>
</g>
<!-- Node8&#45;&gt;Node12 -->
<g id="edge11" class="edge">
<title>Node8&#45;&gt;Node12</title>
<path fill="none" stroke="midnightblue" d="M277.65,-56.32C260.33,-47.66 233.48,-34.24 213.5,-24.25"/>
<polygon fill="midnightblue" stroke="midnightblue" points="214.82,-21 204.31,-19.65 211.69,-27.26 214.82,-21"/>
</g>
<!-- Node14 -->
<g id="node14" class="node">
<title>Node14</title>
<g id="a_node14"><a xlink:title=" ">
<polygon fill="none" stroke="#bfbfbf" points="202,-409 202,-428 288,-428 288,-409 202,-409"/>
<text text-anchor="middle" x="245" y="-416" font-family="Helvetica,sans-Serif" font-size="10.00">unordered_set</text>
</a>
</g>
</g>
<!-- Node13&#45;&gt;Node14 -->
<g id="edge13" class="edge">
<title>Node13&#45;&gt;Node14</title>
<path fill="none" stroke="midnightblue" d="M305.83,-470.48C294.65,-461.11 276.48,-445.88 262.91,-434.51"/>
<polygon fill="midnightblue" stroke="midnightblue" points="265.07,-431.75 255.15,-428.01 260.57,-437.11 265.07,-431.75"/>
</g>
<!-- Node15 -->
<g id="node15" class="node">
<title>Node15</title>
<g id="a_node15"><a xlink:href="irep_8h.html" target="_top" xlink:title=" ">
<polygon fill="none" stroke="black" points="496,-224.5 496,-243.5 540,-243.5 540,-224.5 496,-224.5"/>
<text text-anchor="middle" x="518" y="-231.5" font-family="Helvetica,sans-Serif" font-size="10.00">irep.h</text>
</a>
</g>
</g>
<!-- Node13&#45;&gt;Node15 -->
<g id="edge14" class="edge">
<title>Node13&#45;&gt;Node15</title>
<path fill="none" stroke="midnightblue" d="M316.69,-470.41C318.19,-455.67 322.78,-424.98 336,-403 377.85,-333.4 457,-275.06 495.65,-249.24"/>
<polygon fill="midnightblue" stroke="midnightblue" points="497.69,-252.09 504.12,-243.67 493.84,-246.24 497.69,-252.09"/>
</g>
<!-- Node15&#45;&gt;Node8 -->
<g id="edge17" class="edge">
<title>Node15&#45;&gt;Node8</title>
<path fill="none" stroke="midnightblue" d="M495.94,-227.36C491.34,-226.22 486.52,-225.05 482,-224 408.05,-206.79 367.37,-242.97 315,-188 288.77,-160.47 289.4,-112.47 292.18,-85.95"/>
<polygon fill="midnightblue" stroke="midnightblue" points="295.7,-86.09 293.48,-75.73 288.75,-85.21 295.7,-86.09"/>
</g>
<!-- Node15&#45;&gt;Node11 -->
<g id="edge15" class="edge">
<title>Node15&#45;&gt;Node11</title>
<path fill="none" stroke="midnightblue" d="M522.84,-224.49C527.86,-215.53 535.84,-200.95 542,-188 557.75,-154.91 547.71,-137.53 574,-112 639.19,-48.69 748.44,-23.98 802.57,-15.26"/>
<polygon fill="midnightblue" stroke="midnightblue" points="803.28,-18.69 812.63,-13.72 802.22,-11.77 803.28,-18.69"/>
</g>
<!-- Node16 -->
<g id="node16" class="node">
<title>Node16</title>
<g id="a_node16"><a xlink:title=" ">
<polygon fill="none" stroke="#bfbfbf" points="219.5,-168.5 219.5,-187.5 266.5,-187.5 266.5,-168.5 219.5,-168.5"/>
<text text-anchor="middle" x="243" y="-175.5" font-family="Helvetica,sans-Serif" font-size="10.00">vector</text>
</a>
</g>
</g>
<!-- Node15&#45;&gt;Node16 -->
<g id="edge16" class="edge">
<title>Node15&#45;&gt;Node16</title>
<path fill="none" stroke="midnightblue" d="M495.97,-227.24C491.37,-226.11 486.54,-224.97 482,-224 393.26,-204.98 369.86,-206.47 281,-188 279.55,-187.7 278.07,-187.38 276.57,-187.06"/>
<polygon fill="midnightblue" stroke="midnightblue" points="277.2,-183.61 266.67,-184.82 275.65,-190.44 277.2,-183.61"/>
</g>
<!-- Node17 -->
<g id="node17" class="node">
<title>Node17</title>
<g id="a_node17"><a xlink:href="irep__ids_8h.html" target="_top" xlink:title=" ">
<polygon fill="none" stroke="red" points="469,-168.5 469,-187.5 533,-187.5 533,-168.5 469,-168.5"/>
<text text-anchor="middle" x="501" y="-175.5" font-family="Helvetica,sans-Serif" font-size="10.00">irep_ids.h</text>
</a>
</g>
</g>
<!-- Node15&#45;&gt;Node17 -->
<g id="edge18" class="edge">
<title>Node15&#45;&gt;Node17</title>
<path fill="none" stroke="midnightblue" d="M515.19,-224.08C512.92,-216.85 509.63,-206.41 506.79,-197.4"/>
<polygon fill="midnightblue" stroke="midnightblue" points="510.1,-196.24 503.75,-187.75 503.42,-198.34 510.1,-196.24"/>
</g>
<!-- Node26 -->
<g id="node18" class="node">
<title>Node26</title>
<g id="a_node18"><a xlink:href="forward__list__as__map_8h.html" target="_top" xlink:title=" ">
<polygon fill="none" stroke="red" points="323.5,-168.5 323.5,-187.5 450.5,-187.5 450.5,-168.5 323.5,-168.5"/>
<text text-anchor="middle" x="387" y="-175.5" font-family="Helvetica,sans-Serif" font-size="10.00">forward_list_as_map.h</text>
</a>
</g>
</g>
<!-- Node15&#45;&gt;Node26 -->
<g id="edge19" class="edge">
<title>Node15&#45;&gt;Node26</title>
<path fill="none" stroke="midnightblue" d="M497.24,-224.44C475.68,-215.56 441.74,-201.56 417.21,-191.45"/>
<polygon fill="midnightblue" stroke="midnightblue" points="418.24,-188.09 407.66,-187.52 415.57,-194.56 418.24,-188.09"/>
</g>
<!-- Node26&#45;&gt;Node5 -->
<g id="edge20" class="edge">
<title>Node26&#45;&gt;Node5</title>
<path fill="none" stroke="midnightblue" d="M423.13,-168.44C463.81,-158.81 529.85,-143.17 572.85,-132.98"/>
<polygon fill="midnightblue" stroke="midnightblue" points="573.8,-136.35 582.73,-130.64 572.19,-129.54 573.8,-136.35"/>
</g>
<!-- Node26&#45;&gt;Node29 -->
<g id="edge21" class="edge">
<title>Node26&#45;&gt;Node29</title>
<path fill="none" stroke="midnightblue" d="M340.73,-168.44C283.89,-157.93 188.43,-140.28 134.75,-130.35"/>
<polygon fill="midnightblue" stroke="midnightblue" points="135.07,-126.85 124.6,-128.47 133.79,-133.73 135.07,-126.85"/>
</g>
<!-- Node29&#45;&gt;Node8 -->
<g id="edge23" class="edge">
<title>Node29&#45;&gt;Node8</title>
<path fill="none" stroke="midnightblue" d="M124.51,-113.03C158.62,-103.82 215,-88.6 253.52,-78.2"/>
<polygon fill="midnightblue" stroke="midnightblue" points="254.64,-81.52 263.39,-75.54 252.82,-74.76 254.64,-81.52"/>
</g>
<!-- Node29&#45;&gt;Node12 -->
<g id="edge22" class="edge">
<title>Node29&#45;&gt;Node12</title>
<path fill="none" stroke="midnightblue" d="M102.22,-112.37C117.54,-94.05 153.5,-51.05 173.32,-27.36"/>
<polygon fill="midnightblue" stroke="midnightblue" points="176.08,-29.51 179.81,-19.59 170.71,-25.02 176.08,-29.51"/>
</g>
<!-- Node30&#45;&gt;Node6 -->
<g id="edge26" class="edge">
<title>Node30&#45;&gt;Node6</title>
<path fill="none" stroke="midnightblue" d="M861.97,-341.93C853.46,-339.95 844.42,-337.87 836,-336 773.08,-322 699.46,-306.68 657.32,-298.01"/>
<polygon fill="midnightblue" stroke="midnightblue" points="657.81,-294.54 647.31,-295.96 656.41,-301.4 657.81,-294.54"/>
</g>
<!-- Node30&#45;&gt;Node8 -->
<g id="edge30" class="edge">
<title>Node30&#45;&gt;Node8</title>
<path fill="none" stroke="midnightblue" d="M908.25,-341.85C918.67,-332.53 934.59,-316.75 944,-300 958.73,-273.76 963,-265.1 963,-235 963,-235 963,-235 963,-177 963,-114.93 508.18,-80.4 349.13,-70.22"/>
<polygon fill="midnightblue" stroke="midnightblue" points="349.29,-66.72 339.09,-69.58 348.85,-73.71 349.29,-66.72"/>
</g>
<!-- Node30&#45;&gt;Node10 -->
<g id="edge27" class="edge">
<title>Node30&#45;&gt;Node10</title>
<path fill="none" stroke="midnightblue" d="M914.55,-341.87C943.66,-325.35 1001,-286.32 1001,-235 1001,-235 1001,-235 1001,-177 1001,-96.26 726.76,-37.09 624.15,-17.78"/>
<polygon fill="midnightblue" stroke="midnightblue" points="624.67,-14.32 614.2,-15.93 623.39,-21.2 624.67,-14.32"/>
</g>
<!-- Node30&#45;&gt;Node11 -->
<g id="edge28" class="edge">
<title>Node30&#45;&gt;Node11</title>
<path fill="none" stroke="midnightblue" d="M942.59,-344.83C995.99,-337.16 1081.12,-321.89 1104,-300 1125.75,-279.19 1123,-265.1 1123,-235 1123,-235 1123,-235 1123,-121 1123,-66.8 942.73,-29.51 867.43,-16.3"/>
<polygon fill="midnightblue" stroke="midnightblue" points="867.57,-12.77 857.12,-14.52 866.38,-19.67 867.57,-12.77"/>
</g>
<!-- Node31 -->
<g id="node21" class="node">
<title>Node31</title>
<g id="a_node21"><a xlink:title=" ">
<polygon fill="none" stroke="#bfbfbf" points="1029.5,-280.5 1029.5,-299.5 1094.5,-299.5 1094.5,-280.5 1029.5,-280.5"/>
<text text-anchor="middle" x="1062" y="-287.5" font-family="Helvetica,sans-Serif" font-size="10.00">functional</text>
</a>
</g>
</g>
<!-- Node30&#45;&gt;Node31 -->
<g id="edge25" class="edge">
<title>Node30&#45;&gt;Node31</title>
<path fill="none" stroke="midnightblue" d="M921.5,-341.98C949.63,-331.77 996.93,-314.61 1028.79,-303.05"/>
<polygon fill="midnightblue" stroke="midnightblue" points="1030.34,-306.21 1038.55,-299.51 1027.95,-299.63 1030.34,-306.21"/>
</g>
<!-- Node32 -->
<g id="node22" class="node">
<title>Node32</title>
<g id="a_node22"><a xlink:href="deprecate_8h.html" target="_top" xlink:title=" ">
<polygon fill="none" stroke="black" points="861,-280.5 861,-299.5 935,-299.5 935,-280.5 861,-280.5"/>
<text text-anchor="middle" x="898" y="-287.5" font-family="Helvetica,sans-Serif" font-size="10.00">deprecate.h</text>
</a>
</g>
</g>
<!-- Node30&#45;&gt;Node32 -->
<g id="edge29" class="edge">
<title>Node30&#45;&gt;Node32</title>
<path fill="none" stroke="midnightblue" d="M898,-341.98C898,-333.58 898,-320.48 898,-309.66"/>
<polygon fill="midnightblue" stroke="midnightblue" points="901.5,-309.51 898,-299.51 894.5,-309.51 901.5,-309.51"/>
</g>
<!-- Node33 -->
<g id="node23" class="node">
<title>Node33</title>
<g id="a_node23"><a xlink:href="source__location_8h.html" target="_top" xlink:title=" ">
<polygon fill="none" stroke="black" points="703,-280.5 703,-299.5 805,-299.5 805,-280.5 703,-280.5"/>
<text text-anchor="middle" x="754" y="-287.5" font-family="Helvetica,sans-Serif" font-size="10.00">source_location.h</text>
</a>
</g>
</g>
<!-- Node30&#45;&gt;Node33 -->
<g id="edge31" class="edge">
<title>Node30&#45;&gt;Node33</title>
<path fill="none" stroke="midnightblue" d="M877.37,-341.98C852.88,-331.86 811.85,-314.9 783.89,-303.35"/>
<polygon fill="midnightblue" stroke="midnightblue" points="785.17,-300.09 774.59,-299.51 782.5,-306.56 785.17,-300.09"/>
</g>
<!-- Node33&#45;&gt;Node11 -->
<g id="edge34" class="edge">
<title>Node33&#45;&gt;Node11</title>
<path fill="none" stroke="midnightblue" d="M759.98,-280.33C771.79,-262.32 797,-219.19 797,-179 797,-179 797,-179 797,-121 797,-86.81 813.6,-49.76 824.86,-28.57"/>
<polygon fill="midnightblue" stroke="midnightblue" points="827.95,-30.22 829.72,-19.77 821.82,-26.83 827.95,-30.22"/>
</g>
<!-- Node33&#45;&gt;Node15 -->
<g id="edge32" class="edge">
<title>Node33&#45;&gt;Node15</title>
<path fill="none" stroke="midnightblue" d="M716.61,-280.44C670.74,-269.95 593.75,-252.33 550.33,-242.4"/>
<polygon fill="midnightblue" stroke="midnightblue" points="550.84,-238.92 540.31,-240.1 549.27,-245.75 550.84,-238.92"/>
</g>
<!-- Node34 -->
<g id="node24" class="node">
<title>Node34</title>
<g id="a_node24"><a xlink:href="optional_8h.html" target="_top" xlink:title=" ">
<polygon fill="none" stroke="red" points="703.5,-224.5 703.5,-243.5 768.5,-243.5 768.5,-224.5 703.5,-224.5"/>
<text text-anchor="middle" x="736" y="-231.5" font-family="Helvetica,sans-Serif" font-size="10.00">optional.h</text>
</a>
</g>
</g>
<!-- Node33&#45;&gt;Node34 -->
<g id="edge33" class="edge">
<title>Node33&#45;&gt;Node34</title>
<path fill="none" stroke="midnightblue" d="M751.03,-280.08C748.62,-272.85 745.14,-262.41 742.13,-253.4"/>
<polygon fill="midnightblue" stroke="midnightblue" points="745.4,-252.13 738.92,-243.75 738.76,-254.34 745.4,-252.13"/>
</g>
<!-- Node37 -->
<g id="node26" class="node">
<title>Node37</title>
<g id="a_node26"><a xlink:href="ssa__expr_8h.html" target="_top" xlink:title=" ">
<polygon fill="none" stroke="black" points="344.5,-409 344.5,-428 431.5,-428 431.5,-409 344.5,-409"/>
<text text-anchor="middle" x="388" y="-416" font-family="Helvetica,sans-Serif" font-size="10.00">util/ssa_expr.h</text>
</a>
</g>
</g>
<!-- Node36&#45;&gt;Node37 -->
<g id="edge37" class="edge">
<title>Node36&#45;&gt;Node37</title>
<path fill="none" stroke="midnightblue" d="M442.83,-470.48C432.85,-461.2 416.69,-446.17 404.49,-434.83"/>
<polygon fill="midnightblue" stroke="midnightblue" points="406.86,-432.25 397.15,-428.01 402.09,-437.38 406.86,-432.25"/>
</g>
<!-- Node51 -->
<g id="node28" class="node">
<title>Node51</title>
<g id="a_node28"><a xlink:href="goto__trace_8h.html" target="_top" xlink:title=" ">
<polygon fill="none" stroke="black" points="675.5,-403.5 675.5,-433.5 788.5,-433.5 788.5,-403.5 675.5,-403.5"/>
<text text-anchor="start" x="683.5" y="-421.5" font-family="Helvetica,sans-Serif" font-size="10.00">goto&#45;programs/goto</text>
<text text-anchor="middle" x="732" y="-410.5" font-family="Helvetica,sans-Serif" font-size="10.00">_trace.h</text>
</a>
</g>
</g>
<!-- Node36&#45;&gt;Node51 -->
<g id="edge40" class="edge">
<title>Node36&#45;&gt;Node51</title>
<path fill="none" stroke="midnightblue" d="M486.05,-471.76C530.46,-462.33 609.12,-445.61 665.54,-433.62"/>
<polygon fill="midnightblue" stroke="midnightblue" points="666.39,-437.02 675.45,-431.52 664.94,-430.17 666.39,-437.02"/>
</g>
<!-- Node36&#45;&gt;Node61 -->
<g id="edge53" class="edge">
<title>Node36&#45;&gt;Node61</title>
<path fill="none" stroke="midnightblue" d="M458.3,-470.48C464.9,-461.55 475.44,-447.31 483.69,-436.14"/>
<polygon fill="midnightblue" stroke="midnightblue" points="486.58,-438.13 489.71,-428.01 480.95,-433.97 486.58,-438.13"/>
</g>
<!-- Node37&#45;&gt;Node38 -->
<g id="edge38" class="edge">
<title>Node37&#45;&gt;Node38</title>
<path fill="none" stroke="midnightblue" d="M348,-408.99C307.41,-399.6 248.3,-383.61 232,-367 217.02,-351.73 211.75,-327.04 209.92,-309.97"/>
<polygon fill="midnightblue" stroke="midnightblue" points="213.38,-309.28 209.13,-299.58 206.4,-309.81 213.38,-309.28"/>
</g>
<!-- Node38&#45;&gt;Node8 -->
<g id="edge39" class="edge">
<title>Node38&#45;&gt;Node8</title>
<path fill="none" stroke="midnightblue" d="M207.26,-280.43C203.53,-260.12 196.24,-207.79 211,-168 224.24,-132.29 255.95,-100.19 276.4,-82.19"/>
<polygon fill="midnightblue" stroke="midnightblue" points="278.81,-84.74 284.13,-75.58 274.26,-79.41 278.81,-84.74"/>
</g>
<!-- Node51&#45;&gt;Node6 -->
<g id="edge41" class="edge">
<title>Node51&#45;&gt;Node6</title>
<path fill="none" stroke="midnightblue" d="M719.92,-403.48C699.69,-380 659.05,-332.84 637.38,-307.69"/>
<polygon fill="midnightblue" stroke="midnightblue" points="639.75,-305.08 630.57,-299.79 634.45,-309.65 639.75,-305.08"/>
</g>
<!-- Node51&#45;&gt;Node16 -->
<g id="edge42" class="edge">
<title>Node51&#45;&gt;Node16</title>
<path fill="none" stroke="midnightblue" d="M703.24,-403.47C615.91,-360.88 354.64,-233.45 269.88,-192.11"/>
<polygon fill="midnightblue" stroke="midnightblue" points="271.4,-188.96 260.88,-187.72 268.34,-195.25 271.4,-188.96"/>
</g>
<!-- Node51&#45;&gt;Node30 -->
<g id="edge43" class="edge">
<title>Node51&#45;&gt;Node30</title>
<path fill="none" stroke="midnightblue" d="M768.02,-403.4C797.53,-391.84 838.86,-375.66 866.94,-364.66"/>
<polygon fill="midnightblue" stroke="midnightblue" points="868.24,-367.91 876.27,-361.01 865.69,-361.39 868.24,-367.91"/>
</g>
<!-- Node52 -->
<g id="node29" class="node">
<title>Node52</title>
<g id="a_node29"><a xlink:href="options_8h.html" target="_top" xlink:title=" ">
<polygon fill="none" stroke="red" points="1097,-342 1097,-361 1177,-361 1177,-342 1097,-342"/>
<text text-anchor="middle" x="1137" y="-349" font-family="Helvetica,sans-Serif" font-size="10.00">util/options.h</text>
</a>
</g>
</g>
<!-- Node51&#45;&gt;Node52 -->
<g id="edge44" class="edge">
<title>Node51&#45;&gt;Node52</title>
<path fill="none" stroke="midnightblue" d="M788.74,-408.39C868.06,-395.66 1010.86,-372.75 1086.61,-360.59"/>
<polygon fill="midnightblue" stroke="midnightblue" points="1087.53,-363.99 1096.85,-358.94 1086.42,-357.07 1087.53,-363.99"/>
</g>
<!-- Node54 -->
<g id="node30" class="node">
<title>Node54</title>
<g id="a_node30"><a xlink:href="goto__program_8h.html" target="_top" xlink:title=" ">
<polygon fill="none" stroke="red" points="713.5,-336.5 713.5,-366.5 826.5,-366.5 826.5,-336.5 713.5,-336.5"/>
<text text-anchor="start" x="721.5" y="-354.5" font-family="Helvetica,sans-Serif" font-size="10.00">goto&#45;programs/goto</text>
<text text-anchor="middle" x="770" y="-343.5" font-family="Helvetica,sans-Serif" font-size="10.00">_program.h</text>
</a>
</g>
</g>
<!-- Node51&#45;&gt;Node54 -->
<g id="edge47" class="edge">
<title>Node51&#45;&gt;Node54</title>
<path fill="none" stroke="midnightblue" d="M740.25,-403.4C745.03,-395.22 751.16,-384.73 756.62,-375.39"/>
<polygon fill="midnightblue" stroke="midnightblue" points="759.75,-376.98 761.77,-366.58 753.7,-373.44 759.75,-376.98"/>
</g>
<!-- Node52&#45;&gt;Node7 -->
<g id="edge46" class="edge">
<title>Node52&#45;&gt;Node7</title>
<path fill="none" stroke="midnightblue" d="M1146.74,-341.98C1157.35,-332.7 1174.52,-317.67 1187.48,-306.33"/>
<polygon fill="midnightblue" stroke="midnightblue" points="1190.05,-308.73 1195.28,-299.51 1185.44,-303.46 1190.05,-308.73"/>
</g>
<!-- Node52&#45;&gt;Node11 -->
<g id="edge45" class="edge">
<title>Node52&#45;&gt;Node11</title>
<path fill="none" stroke="midnightblue" d="M1140.04,-341.93C1146.5,-322.94 1161,-275.76 1161,-235 1161,-235 1161,-235 1161,-121 1161,-71.3 1115.69,-75.57 1070,-56 1001.63,-26.71 913.94,-16.38 867.4,-12.81"/>
<polygon fill="midnightblue" stroke="midnightblue" points="867.52,-9.31 857.3,-12.1 867.03,-16.3 867.52,-9.31"/>
</g>
<!-- Node54&#45;&gt;Node6 -->
<g id="edge48" class="edge">
<title>Node54&#45;&gt;Node6</title>
<path fill="none" stroke="midnightblue" d="M735.16,-336.4C710.5,-326.42 677.71,-313.15 653.97,-303.53"/>
<polygon fill="midnightblue" stroke="midnightblue" points="654.97,-300.17 644.39,-299.66 652.35,-306.65 654.97,-300.17"/>
</g>
<!-- Node54&#45;&gt;Node8 -->
<g id="edge51" class="edge">
<title>Node54&#45;&gt;Node8</title>
<path fill="none" stroke="midnightblue" d="M739.13,-336.48C723.54,-327.97 705.55,-315.69 694,-300 676.16,-275.76 675,-265.1 675,-235 675,-235 675,-235 675,-177 675,-146.9 678.92,-131.51 656,-112 610.95,-73.65 438.52,-67.33 349.26,-66.7"/>
<polygon fill="midnightblue" stroke="midnightblue" points="349.08,-63.2 339.06,-66.65 349.05,-70.2 349.08,-63.2"/>
</g>
<!-- Node54&#45;&gt;Node11 -->
<g id="edge49" class="edge">
<title>Node54&#45;&gt;Node11</title>
<path fill="none" stroke="midnightblue" d="M786.82,-336.41C796.58,-327.15 808.1,-314.17 814,-300 853.49,-205.19 843.35,-77.79 837.62,-30.09"/>
<polygon fill="midnightblue" stroke="midnightblue" points="841.07,-29.45 836.33,-19.97 834.13,-30.34 841.07,-29.45"/>
</g>
<!-- Node54&#45;&gt;Node32 -->
<g id="edge50" class="edge">
<title>Node54&#45;&gt;Node32</title>
<path fill="none" stroke="midnightblue" d="M800.33,-336.4C821.52,-326.55 849.59,-313.5 870.2,-303.92"/>
<polygon fill="midnightblue" stroke="midnightblue" points="871.78,-307.05 879.37,-299.66 868.83,-300.7 871.78,-307.05"/>
</g>
<!-- Node54&#45;&gt;Node33 -->
<g id="edge52" class="edge">
<title>Node54&#45;&gt;Node33</title>
<path fill="none" stroke="midnightblue" d="M766.21,-336.4C764.05,-328.38 761.32,-318.23 758.99,-309.57"/>
<polygon fill="midnightblue" stroke="midnightblue" points="762.3,-308.41 756.33,-299.66 755.55,-310.22 762.3,-308.41"/>
</g>
<!-- Node61&#45;&gt;Node54 -->
<g id="edge54" class="edge">
<title>Node61&#45;&gt;Node54</title>
<path fill="none" stroke="midnightblue" d="M532.1,-408.94C575.61,-398.62 649.57,-381.07 703.5,-368.28"/>
<polygon fill="midnightblue" stroke="midnightblue" points="704.4,-371.66 713.32,-365.95 702.78,-364.85 704.4,-371.66"/>
</g>
<!-- Node62 -->
<g id="node32" class="node">
<title>Node62</title>
<g id="a_node32"><a xlink:href="renamed_8h.html" target="_top" xlink:title=" ">
<polygon fill="none" stroke="red" points="240.5,-342 240.5,-361 309.5,-361 309.5,-342 240.5,-342"/>
<text text-anchor="middle" x="275" y="-349" font-family="Helvetica,sans-Serif" font-size="10.00">renamed.h</text>
</a>
</g>
</g>
<!-- Node61&#45;&gt;Node62 -->
<g id="edge55" class="edge">
<title>Node61&#45;&gt;Node62</title>
<path fill="none" stroke="midnightblue" d="M466.65,-408.87C427.33,-397.3 357.45,-376.75 313.81,-363.91"/>
<polygon fill="midnightblue" stroke="midnightblue" points="314.7,-360.53 304.12,-361.06 312.72,-367.24 314.7,-360.53"/>
</g>
<!-- Node62&#45;&gt;Node38 -->
<g id="edge56" class="edge">
<title>Node62&#45;&gt;Node38</title>
<path fill="none" stroke="midnightblue" d="M265.54,-341.98C255.25,-332.7 238.58,-317.67 226.01,-306.33"/>
<polygon fill="midnightblue" stroke="midnightblue" points="228.21,-303.61 218.44,-299.51 223.52,-308.8 228.21,-303.61"/>
</g>
</g>
</svg>
