<?xml version="1.0" encoding="UTF-8" standalone="no"?>
<!DOCTYPE svg PUBLIC "-//W3C//DTD SVG 1.1//EN"
 "http://www.w3.org/Graphics/SVG/1.1/DTD/svg11.dtd">
<!-- Generated by graphviz version 2.43.0 (0)
 -->
<!-- Title: /home/runner/work/cbmc&#45;documentation/cbmc&#45;documentation/src/langapi/mode.h Pages: 1 -->
<svg width="4828pt" height="139pt"
 viewBox="0.00 0.00 4828.00 139.00" xmlns="http://www.w3.org/2000/svg" xmlns:xlink="http://www.w3.org/1999/xlink">
<g id="graph0" class="graph" transform="scale(1 1) rotate(0) translate(4 135)">
<title>/home/runner/work/cbmc&#45;documentation/cbmc&#45;documentation/src/langapi/mode.h</title>
<!-- Node1 -->
<g id="node1" class="node">
<title>Node1</title>
<g id="a_node1"><a xlink:title=" ">
<polygon fill="#bfbfbf" stroke="black" points="2305,-89.5 2305,-130.5 2505,-130.5 2505,-89.5 2305,-89.5"/>
<text text-anchor="start" x="2313" y="-118.5" font-family="Helvetica,sans-Serif" font-size="10.00">/home/runner/work/cbmc</text>
<text text-anchor="start" x="2313" y="-107.5" font-family="Helvetica,sans-Serif" font-size="10.00">&#45;documentation/cbmc&#45;documentation</text>
<text text-anchor="middle" x="2405" y="-96.5" font-family="Helvetica,sans-Serif" font-size="10.00">/src/langapi/mode.h</text>
</a>
</g>
</g>
<!-- Node2 -->
<g id="node2" class="node">
<title>Node2</title>
<g id="a_node2"><a xlink:href="goto__check__c_8cpp.html" target="_top" xlink:title=" ">
<polygon fill="none" stroke="black" points="0,-6 0,-47 200,-47 200,-6 0,-6"/>
<text text-anchor="start" x="8" y="-35" font-family="Helvetica,sans-Serif" font-size="10.00">/home/runner/work/cbmc</text>
<text text-anchor="start" x="8" y="-24" font-family="Helvetica,sans-Serif" font-size="10.00">&#45;documentation/cbmc&#45;documentation</text>
<text text-anchor="middle" x="100" y="-13" font-family="Helvetica,sans-Serif" font-size="10.00">/src/ansi&#45;c/goto_check_c.cpp</text>
</a>
</g>
</g>
<!-- Node1&#45;&gt;Node2 -->
<g id="edge1" class="edge">
<title>Node1&#45;&gt;Node2</title>
<path fill="none" stroke="midnightblue" d="M2294.63,-109.17C1908.39,-109.28 618.86,-105.61 209,-53 197.72,-51.55 185.91,-49.44 174.39,-47.03"/>
<polygon fill="midnightblue" stroke="midnightblue" points="2294.69,-112.67 2304.69,-109.16 2294.68,-105.67 2294.69,-112.67"/>
</g>
<!-- Node3 -->
<g id="node3" class="node">
<title>Node3</title>
<g id="a_node3"><a xlink:href="cbmc__languages_8cpp.html" target="_top" xlink:title=" ">
<polygon fill="none" stroke="black" points="218,-6 218,-47 418,-47 418,-6 218,-6"/>
<text text-anchor="start" x="226" y="-35" font-family="Helvetica,sans-Serif" font-size="10.00">/home/runner/work/cbmc</text>
<text text-anchor="start" x="226" y="-24" font-family="Helvetica,sans-Serif" font-size="10.00">&#45;documentation/cbmc&#45;documentation</text>
<text text-anchor="middle" x="318" y="-13" font-family="Helvetica,sans-Serif" font-size="10.00">/src/cbmc/cbmc_languages.cpp</text>
</a>
</g>
</g>
<!-- Node1&#45;&gt;Node3 -->
<g id="edge2" class="edge">
<title>Node1&#45;&gt;Node3</title>
<path fill="none" stroke="midnightblue" d="M2294.72,-108.8C1934.15,-107.69 792.38,-100.42 427,-53 415.73,-51.54 403.91,-49.41 392.39,-47"/>
<polygon fill="midnightblue" stroke="midnightblue" points="2294.89,-112.3 2304.9,-108.83 2294.91,-105.3 2294.89,-112.3"/>
</g>
<!-- Node4 -->
<g id="node4" class="node">
<title>Node4</title>
<g id="a_node4"><a xlink:href="cbmc__parse__options_8cpp.html" target="_top" xlink:title=" ">
<polygon fill="none" stroke="black" points="436,-6 436,-47 636,-47 636,-6 436,-6"/>
<text text-anchor="start" x="444" y="-35" font-family="Helvetica,sans-Serif" font-size="10.00">/home/runner/work/cbmc</text>
<text text-anchor="start" x="444" y="-24" font-family="Helvetica,sans-Serif" font-size="10.00">&#45;documentation/cbmc&#45;documentation</text>
<text text-anchor="middle" x="536" y="-13" font-family="Helvetica,sans-Serif" font-size="10.00">/src/cbmc/cbmc_parse_options.cpp</text>
</a>
</g>
</g>
<!-- Node1&#45;&gt;Node4 -->
<g id="edge3" class="edge">
<title>Node1&#45;&gt;Node4</title>
<path fill="none" stroke="midnightblue" d="M2294.74,-108.35C1961.19,-105.92 966.08,-95.24 645,-53 633.82,-51.53 622.12,-49.42 610.69,-47.03"/>
<polygon fill="midnightblue" stroke="midnightblue" points="2294.87,-111.85 2304.9,-108.42 2294.92,-104.85 2294.87,-111.85"/>
</g>
<!-- Node5 -->
<g id="node5" class="node">
<title>Node5</title>
<g id="a_node5"><a xlink:href="goto__analyzer__languages_8cpp.html" target="_top" xlink:title=" ">
<polygon fill="none" stroke="black" points="654,-0.5 654,-52.5 854,-52.5 854,-0.5 654,-0.5"/>
<text text-anchor="start" x="662" y="-40.5" font-family="Helvetica,sans-Serif" font-size="10.00">/home/runner/work/cbmc</text>
<text text-anchor="start" x="662" y="-29.5" font-family="Helvetica,sans-Serif" font-size="10.00">&#45;documentation/cbmc&#45;documentation</text>
<text text-anchor="start" x="662" y="-18.5" font-family="Helvetica,sans-Serif" font-size="10.00">/src/goto&#45;analyzer/goto_analyzer</text>
<text text-anchor="middle" x="754" y="-7.5" font-family="Helvetica,sans-Serif" font-size="10.00">_languages.cpp</text>
</a>
</g>
</g>
<!-- Node1&#45;&gt;Node5 -->
<g id="edge4" class="edge">
<title>Node1&#45;&gt;Node5</title>
<path fill="none" stroke="midnightblue" d="M2294.6,-107.77C1989.64,-103.91 1139.97,-90.07 863,-53 860.11,-52.61 857.19,-52.18 854.24,-51.72"/>
<polygon fill="midnightblue" stroke="midnightblue" points="2294.73,-111.27 2304.78,-107.89 2294.82,-104.27 2294.73,-111.27"/>
</g>
<!-- Node6 -->
<g id="node6" class="node">
<title>Node6</title>
<g id="a_node6"><a xlink:href="compile_8cpp.html" target="_top" xlink:title=" ">
<polygon fill="none" stroke="black" points="872,-6 872,-47 1072,-47 1072,-6 872,-6"/>
<text text-anchor="start" x="880" y="-35" font-family="Helvetica,sans-Serif" font-size="10.00">/home/runner/work/cbmc</text>
<text text-anchor="start" x="880" y="-24" font-family="Helvetica,sans-Serif" font-size="10.00">&#45;documentation/cbmc&#45;documentation</text>
<text text-anchor="middle" x="972" y="-13" font-family="Helvetica,sans-Serif" font-size="10.00">/src/goto&#45;cc/compile.cpp</text>
</a>
</g>
</g>
<!-- Node1&#45;&gt;Node6 -->
<g id="edge5" class="edge">
<title>Node1&#45;&gt;Node6</title>
<path fill="none" stroke="midnightblue" d="M2294.59,-107C2020.47,-101.59 1314.21,-84.92 1081,-53 1070.02,-51.5 1058.53,-49.4 1047.3,-47.05"/>
<polygon fill="midnightblue" stroke="midnightblue" points="2294.88,-110.5 2304.94,-107.2 2295.01,-103.5 2294.88,-110.5"/>
</g>
<!-- Node7 -->
<g id="node7" class="node">
<title>Node7</title>
<g id="a_node7"><a xlink:href="goto__cc__languages_8cpp.html" target="_top" xlink:title=" ">
<polygon fill="none" stroke="black" points="1090,-6 1090,-47 1290,-47 1290,-6 1090,-6"/>
<text text-anchor="start" x="1098" y="-35" font-family="Helvetica,sans-Serif" font-size="10.00">/home/runner/work/cbmc</text>
<text text-anchor="start" x="1098" y="-24" font-family="Helvetica,sans-Serif" font-size="10.00">&#45;documentation/cbmc&#45;documentation</text>
<text text-anchor="middle" x="1190" y="-13" font-family="Helvetica,sans-Serif" font-size="10.00">/src/goto&#45;cc/goto_cc_languages.cpp</text>
</a>
</g>
</g>
<!-- Node1&#45;&gt;Node7 -->
<g id="edge6" class="edge">
<title>Node1&#45;&gt;Node7</title>
<path fill="none" stroke="midnightblue" d="M2294.71,-109.93C2095.06,-110.17 1660.84,-104.07 1299,-53 1288.13,-51.47 1276.74,-49.37 1265.61,-47.03"/>
<polygon fill="midnightblue" stroke="midnightblue" points="2294.92,-113.43 2304.91,-109.91 2294.91,-106.43 2294.92,-113.43"/>
</g>
<!-- Node8 -->
<g id="node8" class="node">
<title>Node8</title>
<g id="a_node8"><a xlink:href="goto__diff__languages_8cpp.html" target="_top" xlink:title=" ">
<polygon fill="none" stroke="black" points="1308,-6 1308,-47 1508,-47 1508,-6 1308,-6"/>
<text text-anchor="start" x="1316" y="-35" font-family="Helvetica,sans-Serif" font-size="10.00">/home/runner/work/cbmc</text>
<text text-anchor="start" x="1316" y="-24" font-family="Helvetica,sans-Serif" font-size="10.00">&#45;documentation/cbmc&#45;documentation</text>
<text text-anchor="middle" x="1408" y="-13" font-family="Helvetica,sans-Serif" font-size="10.00">/src/goto&#45;diff/goto_diff_languages.cpp</text>
</a>
</g>
</g>
<!-- Node1&#45;&gt;Node8 -->
<g id="edge7" class="edge">
<title>Node1&#45;&gt;Node8</title>
<path fill="none" stroke="midnightblue" d="M2294.77,-107.94C2126.29,-105 1794.99,-93.99 1517,-53 1506.33,-51.43 1495.16,-49.34 1484.22,-47.03"/>
<polygon fill="midnightblue" stroke="midnightblue" points="2294.83,-111.44 2304.89,-108.11 2294.95,-104.45 2294.83,-111.44"/>
</g>
<!-- Node9 -->
<g id="node9" class="node">
<title>Node9</title>
<g id="a_node9"><a xlink:href="goto__instrument__languages_8cpp.html" target="_top" xlink:title=" ">
<polygon fill="none" stroke="black" points="1526,-0.5 1526,-52.5 1726,-52.5 1726,-0.5 1526,-0.5"/>
<text text-anchor="start" x="1534" y="-40.5" font-family="Helvetica,sans-Serif" font-size="10.00">/home/runner/work/cbmc</text>
<text text-anchor="start" x="1534" y="-29.5" font-family="Helvetica,sans-Serif" font-size="10.00">&#45;documentation/cbmc&#45;documentation</text>
<text text-anchor="start" x="1534" y="-18.5" font-family="Helvetica,sans-Serif" font-size="10.00">/src/goto&#45;instrument/goto_instrument</text>
<text text-anchor="middle" x="1626" y="-7.5" font-family="Helvetica,sans-Serif" font-size="10.00">_languages.cpp</text>
</a>
</g>
</g>
<!-- Node1&#45;&gt;Node9 -->
<g id="edge8" class="edge">
<title>Node1&#45;&gt;Node9</title>
<path fill="none" stroke="midnightblue" d="M2294.63,-104.73C2161.34,-98.44 1930.66,-83.89 1735,-53 1732.12,-52.55 1729.2,-52.06 1726.27,-51.54"/>
<polygon fill="midnightblue" stroke="midnightblue" points="2294.69,-108.24 2304.84,-105.21 2295.02,-101.25 2294.69,-108.24"/>
</g>
<!-- Node10 -->
<g id="node10" class="node">
<title>Node10</title>
<g id="a_node10"><a xlink:href="graphml__witness_8cpp.html" target="_top" xlink:title=" ">
<polygon fill="none" stroke="black" points="1744.5,-6 1744.5,-47 1959.5,-47 1959.5,-6 1744.5,-6"/>
<text text-anchor="start" x="1752.5" y="-35" font-family="Helvetica,sans-Serif" font-size="10.00">/home/runner/work/cbmc</text>
<text text-anchor="start" x="1752.5" y="-24" font-family="Helvetica,sans-Serif" font-size="10.00">&#45;documentation/cbmc&#45;documentation</text>
<text text-anchor="middle" x="1852" y="-13" font-family="Helvetica,sans-Serif" font-size="10.00">/src/goto&#45;programs/graphml_witness.cpp</text>
</a>
</g>
</g>
<!-- Node1&#45;&gt;Node10 -->
<g id="edge9" class="edge">
<title>Node1&#45;&gt;Node10</title>
<path fill="none" stroke="midnightblue" d="M2294.58,-97.5C2206.2,-87.65 2079.24,-72.06 1969,-53 1958.76,-51.23 1948.05,-49.18 1937.46,-47.02"/>
<polygon fill="midnightblue" stroke="midnightblue" points="2294.3,-100.99 2304.63,-98.61 2295.07,-94.03 2294.3,-100.99"/>
</g>
<!-- Node11 -->
<g id="node11" class="node">
<title>Node11</title>
<g id="a_node11"><a xlink:href="initialize__goto__model_8cpp.html" target="_top" xlink:title=" ">
<polygon fill="none" stroke="black" points="1978,-0.5 1978,-52.5 2178,-52.5 2178,-0.5 1978,-0.5"/>
<text text-anchor="start" x="1986" y="-40.5" font-family="Helvetica,sans-Serif" font-size="10.00">/home/runner/work/cbmc</text>
<text text-anchor="start" x="1986" y="-29.5" font-family="Helvetica,sans-Serif" font-size="10.00">&#45;documentation/cbmc&#45;documentation</text>
<text text-anchor="start" x="1986" y="-18.5" font-family="Helvetica,sans-Serif" font-size="10.00">/src/goto&#45;programs/initialize</text>
<text text-anchor="middle" x="2078" y="-7.5" font-family="Helvetica,sans-Serif" font-size="10.00">_goto_model.cpp</text>
</a>
</g>
</g>
<!-- Node1&#45;&gt;Node11 -->
<g id="edge10" class="edge">
<title>Node1&#45;&gt;Node11</title>
<path fill="none" stroke="midnightblue" d="M2316.83,-87.03C2273.99,-76.35 2222.31,-63.47 2178.01,-52.43"/>
<polygon fill="midnightblue" stroke="midnightblue" points="2316.13,-90.46 2326.68,-89.48 2317.82,-83.66 2316.13,-90.46"/>
</g>
<!-- Node12 -->
<g id="node12" class="node">
<title>Node12</title>
<g id="a_node12"><a xlink:href="json__expr_8cpp.html" target="_top" xlink:title=" ">
<polygon fill="none" stroke="black" points="2196,-6 2196,-47 2396,-47 2396,-6 2196,-6"/>
<text text-anchor="start" x="2204" y="-35" font-family="Helvetica,sans-Serif" font-size="10.00">/home/runner/work/cbmc</text>
<text text-anchor="start" x="2204" y="-24" font-family="Helvetica,sans-Serif" font-size="10.00">&#45;documentation/cbmc&#45;documentation</text>
<text text-anchor="middle" x="2296" y="-13" font-family="Helvetica,sans-Serif" font-size="10.00">/src/goto&#45;programs/json_expr.cpp</text>
</a>
</g>
</g>
<!-- Node1&#45;&gt;Node12 -->
<g id="edge11" class="edge">
<title>Node1&#45;&gt;Node12</title>
<path fill="none" stroke="midnightblue" d="M2370.52,-83.22C2354.91,-71.55 2336.76,-57.97 2322.27,-47.14"/>
<polygon fill="midnightblue" stroke="midnightblue" points="2368.79,-86.29 2378.89,-89.48 2372.98,-80.69 2368.79,-86.29"/>
</g>
<!-- Node13 -->
<g id="node13" class="node">
<title>Node13</title>
<g id="a_node13"><a xlink:href="rebuild__goto__start__function_8cpp.html" target="_top" xlink:title=" ">
<polygon fill="none" stroke="black" points="2414,-0.5 2414,-52.5 2614,-52.5 2614,-0.5 2414,-0.5"/>
<text text-anchor="start" x="2422" y="-40.5" font-family="Helvetica,sans-Serif" font-size="10.00">/home/runner/work/cbmc</text>
<text text-anchor="start" x="2422" y="-29.5" font-family="Helvetica,sans-Serif" font-size="10.00">&#45;documentation/cbmc&#45;documentation</text>
<text text-anchor="start" x="2422" y="-18.5" font-family="Helvetica,sans-Serif" font-size="10.00">/src/goto&#45;programs/rebuild_goto</text>
<text text-anchor="middle" x="2514" y="-7.5" font-family="Helvetica,sans-Serif" font-size="10.00">_start_function.cpp</text>
</a>
</g>
</g>
<!-- Node1&#45;&gt;Node13 -->
<g id="edge12" class="edge">
<title>Node1&#45;&gt;Node13</title>
<path fill="none" stroke="midnightblue" d="M2439.39,-83.29C2452.43,-73.53 2467.27,-62.44 2480.26,-52.73"/>
<polygon fill="midnightblue" stroke="midnightblue" points="2437.02,-80.69 2431.11,-89.48 2441.21,-86.29 2437.02,-80.69"/>
</g>
<!-- Node14 -->
<g id="node14" class="node">
<title>Node14</title>
<g id="a_node14"><a xlink:href="show__symbol__table_8cpp.html" target="_top" xlink:title=" ">
<polygon fill="none" stroke="black" points="2632,-0.5 2632,-52.5 2832,-52.5 2832,-0.5 2632,-0.5"/>
<text text-anchor="start" x="2640" y="-40.5" font-family="Helvetica,sans-Serif" font-size="10.00">/home/runner/work/cbmc</text>
<text text-anchor="start" x="2640" y="-29.5" font-family="Helvetica,sans-Serif" font-size="10.00">&#45;documentation/cbmc&#45;documentation</text>
<text text-anchor="start" x="2640" y="-18.5" font-family="Helvetica,sans-Serif" font-size="10.00">/src/goto&#45;programs/show_symbol</text>
<text text-anchor="middle" x="2732" y="-7.5" font-family="Helvetica,sans-Serif" font-size="10.00">_table.cpp</text>
</a>
</g>
</g>
<!-- Node1&#45;&gt;Node14 -->
<g id="edge13" class="edge">
<title>Node1&#45;&gt;Node14</title>
<path fill="none" stroke="midnightblue" d="M2493.17,-87.03C2536.01,-76.35 2587.69,-63.47 2631.99,-52.43"/>
<polygon fill="midnightblue" stroke="midnightblue" points="2492.18,-83.66 2483.32,-89.48 2493.87,-90.46 2492.18,-83.66"/>
</g>
<!-- Node15 -->
<g id="node15" class="node">
<title>Node15</title>
<g id="a_node15"><a xlink:href="language__util_8cpp.html" target="_top" xlink:title=" ">
<polygon fill="none" stroke="black" points="2850,-6 2850,-47 3050,-47 3050,-6 2850,-6"/>
<text text-anchor="start" x="2858" y="-35" font-family="Helvetica,sans-Serif" font-size="10.00">/home/runner/work/cbmc</text>
<text text-anchor="start" x="2858" y="-24" font-family="Helvetica,sans-Serif" font-size="10.00">&#45;documentation/cbmc&#45;documentation</text>
<text text-anchor="middle" x="2950" y="-13" font-family="Helvetica,sans-Serif" font-size="10.00">/src/langapi/language_util.cpp</text>
</a>
</g>
</g>
<!-- Node1&#45;&gt;Node15 -->
<g id="edge14" class="edge">
<title>Node1&#45;&gt;Node15</title>
<path fill="none" stroke="midnightblue" d="M2515.06,-98.01C2603.5,-88.42 2730.72,-72.93 2841,-53 2850.66,-51.25 2860.75,-49.21 2870.72,-47.04"/>
<polygon fill="midnightblue" stroke="midnightblue" points="2514.58,-94.54 2505.01,-99.09 2515.33,-101.5 2514.58,-94.54"/>
</g>
<!-- Node16 -->
<g id="node16" class="node">
<title>Node16</title>
<g id="a_node16"><a xlink:href="mode_8cpp.html" target="_top" xlink:title=" ">
<polygon fill="none" stroke="black" points="3068,-6 3068,-47 3268,-47 3268,-6 3068,-6"/>
<text text-anchor="start" x="3076" y="-35" font-family="Helvetica,sans-Serif" font-size="10.00">/home/runner/work/cbmc</text>
<text text-anchor="start" x="3076" y="-24" font-family="Helvetica,sans-Serif" font-size="10.00">&#45;documentation/cbmc&#45;documentation</text>
<text text-anchor="middle" x="3168" y="-13" font-family="Helvetica,sans-Serif" font-size="10.00">/src/langapi/mode.cpp</text>
</a>
</g>
</g>
<!-- Node1&#45;&gt;Node16 -->
<g id="edge15" class="edge">
<title>Node1&#45;&gt;Node16</title>
<path fill="none" stroke="midnightblue" d="M2515.27,-104.42C2645.75,-97.88 2869.24,-83.16 3059,-53 3069.27,-51.37 3080.01,-49.3 3090.57,-47.06"/>
<polygon fill="midnightblue" stroke="midnightblue" points="2515.08,-100.93 2505.26,-104.92 2515.42,-107.92 2515.08,-100.93"/>
</g>
<!-- Node17 -->
<g id="node17" class="node">
<title>Node17</title>
<g id="a_node17"><a xlink:href="memory__analyzer__parse__options_8cpp.html" target="_top" xlink:title=" ">
<polygon fill="none" stroke="black" points="3286.5,-0.5 3286.5,-52.5 3501.5,-52.5 3501.5,-0.5 3286.5,-0.5"/>
<text text-anchor="start" x="3294.5" y="-40.5" font-family="Helvetica,sans-Serif" font-size="10.00">/home/runner/work/cbmc</text>
<text text-anchor="start" x="3294.5" y="-29.5" font-family="Helvetica,sans-Serif" font-size="10.00">&#45;documentation/cbmc&#45;documentation</text>
<text text-anchor="start" x="3294.5" y="-18.5" font-family="Helvetica,sans-Serif" font-size="10.00">/src/memory&#45;analyzer/memory_analyzer</text>
<text text-anchor="middle" x="3394" y="-7.5" font-family="Helvetica,sans-Serif" font-size="10.00">_parse_options.cpp</text>
</a>
</g>
</g>
<!-- Node1&#45;&gt;Node17 -->
<g id="edge16" class="edge">
<title>Node1&#45;&gt;Node17</title>
<path fill="none" stroke="midnightblue" d="M2515.43,-107.22C2681.47,-103.35 3004.96,-91.16 3277,-53 3280.09,-52.57 3283.22,-52.1 3286.37,-51.6"/>
<polygon fill="midnightblue" stroke="midnightblue" points="2515.13,-103.73 2505.21,-107.46 2515.29,-110.73 2515.13,-103.73"/>
</g>
<!-- Node18 -->
<g id="node18" class="node">
<title>Node18</title>
<g id="a_node18"><a xlink:href="symtab2gb__parse__options_8cpp.html" target="_top" xlink:title=" ">
<polygon fill="none" stroke="black" points="3520,-0.5 3520,-52.5 3720,-52.5 3720,-0.5 3520,-0.5"/>
<text text-anchor="start" x="3528" y="-40.5" font-family="Helvetica,sans-Serif" font-size="10.00">/home/runner/work/cbmc</text>
<text text-anchor="start" x="3528" y="-29.5" font-family="Helvetica,sans-Serif" font-size="10.00">&#45;documentation/cbmc&#45;documentation</text>
<text text-anchor="start" x="3528" y="-18.5" font-family="Helvetica,sans-Serif" font-size="10.00">/src/symtab2gb/symtab2gb_parse</text>
<text text-anchor="middle" x="3620" y="-7.5" font-family="Helvetica,sans-Serif" font-size="10.00">_options.cpp</text>
</a>
</g>
</g>
<!-- Node1&#45;&gt;Node18 -->
<g id="edge17" class="edge">
<title>Node1&#45;&gt;Node18</title>
<path fill="none" stroke="midnightblue" d="M2515.29,-109.93C2714.94,-110.17 3149.16,-104.07 3511,-53 3513.89,-52.59 3516.81,-52.15 3519.75,-51.66"/>
<polygon fill="midnightblue" stroke="midnightblue" points="2515.09,-106.43 2505.09,-109.91 2515.08,-113.43 2515.09,-106.43"/>
</g>
<!-- Node19 -->
<g id="node19" class="node">
<title>Node19</title>
<g id="a_node19"><a xlink:href="janalyzer__parse__options_8cpp.html" target="_top" xlink:title=" ">
<polygon fill="none" stroke="black" points="3738,-0.5 3738,-52.5 3938,-52.5 3938,-0.5 3738,-0.5"/>
<text text-anchor="start" x="3746" y="-40.5" font-family="Helvetica,sans-Serif" font-size="10.00">/home/runner/work/cbmc</text>
<text text-anchor="start" x="3746" y="-29.5" font-family="Helvetica,sans-Serif" font-size="10.00">&#45;documentation/cbmc&#45;documentation</text>
<text text-anchor="start" x="3746" y="-18.5" font-family="Helvetica,sans-Serif" font-size="10.00">/jbmc/src/janalyzer/janalyzer</text>
<text text-anchor="middle" x="3838" y="-7.5" font-family="Helvetica,sans-Serif" font-size="10.00">_parse_options.cpp</text>
</a>
</g>
</g>
<!-- Node1&#45;&gt;Node19 -->
<g id="edge18" class="edge">
<title>Node1&#45;&gt;Node19</title>
<path fill="none" stroke="midnightblue" d="M2515.41,-107C2789.53,-101.59 3495.79,-84.92 3729,-53 3731.89,-52.6 3734.81,-52.17 3737.76,-51.7"/>
<polygon fill="midnightblue" stroke="midnightblue" points="2514.99,-103.5 2505.06,-107.2 2515.12,-110.5 2514.99,-103.5"/>
</g>
<!-- Node20 -->
<g id="node20" class="node">
<title>Node20</title>
<g id="a_node20"><a xlink:href="lazy__goto__model_8cpp.html" target="_top" xlink:title="Author: Diffblue Ltd.">
<polygon fill="none" stroke="black" points="3956,-0.5 3956,-52.5 4156,-52.5 4156,-0.5 3956,-0.5"/>
<text text-anchor="start" x="3964" y="-40.5" font-family="Helvetica,sans-Serif" font-size="10.00">/home/runner/work/cbmc</text>
<text text-anchor="start" x="3964" y="-29.5" font-family="Helvetica,sans-Serif" font-size="10.00">&#45;documentation/cbmc&#45;documentation</text>
<text text-anchor="start" x="3964" y="-18.5" font-family="Helvetica,sans-Serif" font-size="10.00">/jbmc/src/java_bytecode/lazy</text>
<text text-anchor="middle" x="4056" y="-7.5" font-family="Helvetica,sans-Serif" font-size="10.00">_goto_model.cpp</text>
</a>
</g>
</g>
<!-- Node1&#45;&gt;Node20 -->
<g id="edge19" class="edge">
<title>Node1&#45;&gt;Node20</title>
<path fill="none" stroke="midnightblue" d="M2515.4,-107.77C2820.36,-103.91 3670.03,-90.07 3947,-53 3949.89,-52.61 3952.81,-52.18 3955.76,-51.72"/>
<polygon fill="midnightblue" stroke="midnightblue" points="2515.18,-104.27 2505.22,-107.89 2515.27,-111.27 2515.18,-104.27"/>
</g>
<!-- Node21 -->
<g id="node21" class="node">
<title>Node21</title>
<g id="a_node21"><a xlink:href="jbmc__parse__options_8cpp.html" target="_top" xlink:title=" ">
<polygon fill="none" stroke="black" points="4174.5,-6 4174.5,-47 4383.5,-47 4383.5,-6 4174.5,-6"/>
<text text-anchor="start" x="4182.5" y="-35" font-family="Helvetica,sans-Serif" font-size="10.00">/home/runner/work/cbmc</text>
<text text-anchor="start" x="4182.5" y="-24" font-family="Helvetica,sans-Serif" font-size="10.00">&#45;documentation/cbmc&#45;documentation</text>
<text text-anchor="middle" x="4279" y="-13" font-family="Helvetica,sans-Serif" font-size="10.00">/jbmc/src/jbmc/jbmc_parse_options.cpp</text>
</a>
</g>
</g>
<!-- Node1&#45;&gt;Node21 -->
<g id="edge20" class="edge">
<title>Node1&#45;&gt;Node21</title>
<path fill="none" stroke="midnightblue" d="M2515.24,-108.21C2848.74,-105.38 3843.71,-93.68 4165,-53 4176.67,-51.52 4188.9,-49.41 4200.85,-47.01"/>
<polygon fill="midnightblue" stroke="midnightblue" points="2515.06,-104.71 2505.09,-108.29 2515.12,-111.71 2515.06,-104.71"/>
</g>
<!-- Node22 -->
<g id="node22" class="node">
<title>Node22</title>
<g id="a_node22"><a xlink:href="jdiff__languages_8cpp.html" target="_top" xlink:title=" ">
<polygon fill="none" stroke="black" points="4402,-6 4402,-47 4602,-47 4602,-6 4402,-6"/>
<text text-anchor="start" x="4410" y="-35" font-family="Helvetica,sans-Serif" font-size="10.00">/home/runner/work/cbmc</text>
<text text-anchor="start" x="4410" y="-24" font-family="Helvetica,sans-Serif" font-size="10.00">&#45;documentation/cbmc&#45;documentation</text>
<text text-anchor="middle" x="4502" y="-13" font-family="Helvetica,sans-Serif" font-size="10.00">/jbmc/src/jdiff/jdiff_languages.cpp</text>
</a>
</g>
</g>
<!-- Node1&#45;&gt;Node22 -->
<g id="edge21" class="edge">
<title>Node1&#45;&gt;Node22</title>
<path fill="none" stroke="midnightblue" d="M2515.52,-108.82C2877.57,-107.76 4025.66,-100.65 4393,-53 4404.27,-51.54 4416.09,-49.41 4427.61,-47"/>
<polygon fill="midnightblue" stroke="midnightblue" points="2515.29,-105.32 2505.3,-108.85 2515.31,-112.32 2515.29,-105.32"/>
</g>
<!-- Node23 -->
<g id="node23" class="node">
<title>Node23</title>
<g id="a_node23"><a xlink:href="get__goto__model__from__c_8cpp.html" target="_top" xlink:title=" ">
<polygon fill="none" stroke="black" points="4620,-0.5 4620,-52.5 4820,-52.5 4820,-0.5 4620,-0.5"/>
<text text-anchor="start" x="4628" y="-40.5" font-family="Helvetica,sans-Serif" font-size="10.00">/home/runner/work/cbmc</text>
<text text-anchor="start" x="4628" y="-29.5" font-family="Helvetica,sans-Serif" font-size="10.00">&#45;documentation/cbmc&#45;documentation</text>
<text text-anchor="start" x="4628" y="-18.5" font-family="Helvetica,sans-Serif" font-size="10.00">/unit/testing&#45;utils/get_goto</text>
<text text-anchor="middle" x="4720" y="-7.5" font-family="Helvetica,sans-Serif" font-size="10.00">_model_from_c.cpp</text>
</a>
</g>
</g>
<!-- Node1&#45;&gt;Node23 -->
<g id="edge22" class="edge">
<title>Node1&#45;&gt;Node23</title>
<path fill="none" stroke="midnightblue" d="M2515.21,-109.18C2902.39,-109.35 4199.03,-105.85 4611,-53 4613.89,-52.63 4616.82,-52.21 4619.77,-51.76"/>
<polygon fill="midnightblue" stroke="midnightblue" points="2515.13,-105.68 2505.13,-109.17 2515.13,-112.68 2515.13,-105.68"/>
</g>
</g>
</svg>
