<?xml version="1.0" encoding="UTF-8" standalone="no"?>
<!DOCTYPE svg PUBLIC "-//W3C//DTD SVG 1.1//EN"
 "http://www.w3.org/Graphics/SVG/1.1/DTD/svg11.dtd">
<!-- Generated by graphviz version 2.43.0 (0)
 -->
<!-- Title: /home/runner/work/cbmc&#45;documentation/cbmc&#45;documentation/jbmc/src/java_bytecode/mz_zip_archive.cpp Pages: 1 -->
<svg width="632pt" height="173pt"
 viewBox="0.00 0.00 632.00 173.00" xmlns="http://www.w3.org/2000/svg" xmlns:xlink="http://www.w3.org/1999/xlink">
<g id="graph0" class="graph" transform="scale(1 1) rotate(0) translate(4 169)">
<title>/home/runner/work/cbmc&#45;documentation/cbmc&#45;documentation/jbmc/src/java_bytecode/mz_zip_archive.cpp</title>
<!-- Node1 -->
<g id="node1" class="node">
<title>Node1</title>
<g id="a_node1"><a xlink:title=" ">
<polygon fill="#bfbfbf" stroke="black" points="97,-112.5 97,-164.5 297,-164.5 297,-112.5 97,-112.5"/>
<text text-anchor="start" x="105" y="-152.5" font-family="Helvetica,sans-Serif" font-size="10.00">/home/runner/work/cbmc</text>
<text text-anchor="start" x="105" y="-141.5" font-family="Helvetica,sans-Serif" font-size="10.00">&#45;documentation/cbmc&#45;documentation</text>
<text text-anchor="start" x="105" y="-130.5" font-family="Helvetica,sans-Serif" font-size="10.00">/jbmc/src/java_bytecode/mz_zip</text>
<text text-anchor="middle" x="197" y="-119.5" font-family="Helvetica,sans-Serif" font-size="10.00">_archive.cpp</text>
</a>
</g>
</g>
<!-- Node2 -->
<g id="node2" class="node">
<title>Node2</title>
<g id="a_node2"><a xlink:href="mz__zip__archive_8h.html" target="_top" xlink:title=" ">
<polygon fill="none" stroke="black" points="45.5,-56.5 45.5,-75.5 146.5,-75.5 146.5,-56.5 45.5,-56.5"/>
<text text-anchor="middle" x="96" y="-63.5" font-family="Helvetica,sans-Serif" font-size="10.00">mz_zip_archive.h</text>
</a>
</g>
</g>
<!-- Node1&#45;&gt;Node2 -->
<g id="edge1" class="edge">
<title>Node1&#45;&gt;Node2</title>
<path fill="none" stroke="midnightblue" d="M161.11,-112.45C146.32,-102.13 129.71,-90.53 116.97,-81.64"/>
<polygon fill="midnightblue" stroke="midnightblue" points="118.66,-78.55 108.46,-75.7 114.65,-84.29 118.66,-78.55"/>
</g>
<!-- Node3 -->
<g id="node3" class="node">
<title>Node3</title>
<g id="a_node3"><a xlink:title=" ">
<polygon fill="none" stroke="#bfbfbf" points="0,-0.5 0,-19.5 44,-19.5 44,-0.5 0,-0.5"/>
<text text-anchor="middle" x="22" y="-7.5" font-family="Helvetica,sans-Serif" font-size="10.00">string</text>
</a>
</g>
</g>
<!-- Node1&#45;&gt;Node3 -->
<g id="edge5" class="edge">
<title>Node1&#45;&gt;Node3</title>
<path fill="none" stroke="midnightblue" d="M96.7,-116.53C73.96,-107.47 51.88,-94.51 36,-76 25.09,-63.28 22.05,-44.08 21.46,-29.84"/>
<polygon fill="midnightblue" stroke="midnightblue" points="24.96,-29.69 21.42,-19.71 17.96,-29.72 24.96,-29.69"/>
</g>
<!-- Node5 -->
<g id="node5" class="node">
<title>Node5</title>
<g id="a_node5"><a xlink:title=" ">
<polygon fill="none" stroke="#bfbfbf" points="164.5,-56.5 164.5,-75.5 229.5,-75.5 229.5,-56.5 164.5,-56.5"/>
<text text-anchor="middle" x="197" y="-63.5" font-family="Helvetica,sans-Serif" font-size="10.00">stdexcept</text>
</a>
</g>
</g>
<!-- Node1&#45;&gt;Node5 -->
<g id="edge4" class="edge">
<title>Node1&#45;&gt;Node5</title>
<path fill="none" stroke="midnightblue" d="M197,-112.45C197,-103.73 197,-94.1 197,-85.96"/>
<polygon fill="midnightblue" stroke="midnightblue" points="200.5,-85.7 197,-75.7 193.5,-85.7 200.5,-85.7"/>
</g>
<!-- Node6 -->
<g id="node6" class="node">
<title>Node6</title>
<g id="a_node6"><a xlink:title=" ">
<polygon fill="none" stroke="#bfbfbf" points="248,-56.5 248,-75.5 312,-75.5 312,-56.5 248,-56.5"/>
<text text-anchor="middle" x="280" y="-63.5" font-family="Helvetica,sans-Serif" font-size="10.00">algorithm</text>
</a>
</g>
</g>
<!-- Node1&#45;&gt;Node6 -->
<g id="edge6" class="edge">
<title>Node1&#45;&gt;Node6</title>
<path fill="none" stroke="midnightblue" d="M226.5,-112.45C238.29,-102.43 251.5,-91.21 261.84,-82.42"/>
<polygon fill="midnightblue" stroke="midnightblue" points="264.41,-84.84 269.76,-75.7 259.88,-79.5 264.41,-84.84"/>
</g>
<!-- Node7 -->
<g id="node7" class="node">
<title>Node7</title>
<g id="a_node7"><a xlink:href="miniz_8h.html" target="_top" xlink:title=" ">
<polygon fill="none" stroke="black" points="334.5,-56.5 334.5,-75.5 417.5,-75.5 417.5,-56.5 334.5,-56.5"/>
<text text-anchor="middle" x="376" y="-63.5" font-family="Helvetica,sans-Serif" font-size="10.00">miniz/miniz.h</text>
</a>
</g>
</g>
<!-- Node1&#45;&gt;Node7 -->
<g id="edge7" class="edge">
<title>Node1&#45;&gt;Node7</title>
<path fill="none" stroke="midnightblue" d="M260.61,-112.45C289.28,-101.16 321.82,-88.34 345.02,-79.2"/>
<polygon fill="midnightblue" stroke="midnightblue" points="346.33,-82.45 354.35,-75.53 343.76,-75.94 346.33,-82.45"/>
</g>
<!-- Node2&#45;&gt;Node3 -->
<g id="edge2" class="edge">
<title>Node2&#45;&gt;Node3</title>
<path fill="none" stroke="midnightblue" d="M84.11,-56.32C72.85,-48.11 55.71,-35.6 42.29,-25.81"/>
<polygon fill="midnightblue" stroke="midnightblue" points="44.25,-22.9 34.11,-19.83 40.12,-28.56 44.25,-22.9"/>
</g>
<!-- Node4 -->
<g id="node4" class="node">
<title>Node4</title>
<g id="a_node4"><a xlink:title=" ">
<polygon fill="none" stroke="#bfbfbf" points="64,-0.5 64,-19.5 122,-19.5 122,-0.5 64,-0.5"/>
<text text-anchor="middle" x="93" y="-7.5" font-family="Helvetica,sans-Serif" font-size="10.00">memory</text>
</a>
</g>
</g>
<!-- Node2&#45;&gt;Node4 -->
<g id="edge3" class="edge">
<title>Node2&#45;&gt;Node4</title>
<path fill="none" stroke="midnightblue" d="M95.5,-56.08C95.11,-49.01 94.55,-38.86 94.05,-29.99"/>
<polygon fill="midnightblue" stroke="midnightblue" points="97.54,-29.54 93.49,-19.75 90.55,-29.93 97.54,-29.54"/>
</g>
<!-- Node8 -->
<g id="node8" class="node">
<title>Node8</title>
<g id="a_node8"><a xlink:title=" ">
<polygon fill="none" stroke="#bfbfbf" points="140,-0.5 140,-19.5 188,-19.5 188,-0.5 140,-0.5"/>
<text text-anchor="middle" x="164" y="-7.5" font-family="Helvetica,sans-Serif" font-size="10.00">time.h</text>
</a>
</g>
</g>
<!-- Node7&#45;&gt;Node8 -->
<g id="edge8" class="edge">
<title>Node7&#45;&gt;Node8</title>
<path fill="none" stroke="midnightblue" d="M341.3,-56.49C307.24,-48.1 253.58,-34.74 198.14,-20.26"/>
<polygon fill="midnightblue" stroke="midnightblue" points="198.7,-16.79 188.14,-17.64 196.92,-23.56 198.7,-16.79"/>
</g>
<!-- Node9 -->
<g id="node9" class="node">
<title>Node9</title>
<g id="a_node9"><a xlink:title=" ">
<polygon fill="none" stroke="#bfbfbf" points="206,-0.5 206,-19.5 262,-19.5 262,-0.5 206,-0.5"/>
<text text-anchor="middle" x="234" y="-7.5" font-family="Helvetica,sans-Serif" font-size="10.00">assert.h</text>
</a>
</g>
</g>
<!-- Node7&#45;&gt;Node9 -->
<g id="edge9" class="edge">
<title>Node7&#45;&gt;Node9</title>
<path fill="none" stroke="midnightblue" d="M353.5,-56.44C329.92,-47.48 292.68,-33.31 266.04,-23.18"/>
<polygon fill="midnightblue" stroke="midnightblue" points="266.99,-19.8 256.4,-19.52 264.5,-26.34 266.99,-19.8"/>
</g>
<!-- Node10 -->
<g id="node10" class="node">
<title>Node10</title>
<g id="a_node10"><a xlink:title=" ">
<polygon fill="none" stroke="#bfbfbf" points="280.5,-0.5 280.5,-19.5 333.5,-19.5 333.5,-0.5 280.5,-0.5"/>
<text text-anchor="middle" x="307" y="-7.5" font-family="Helvetica,sans-Serif" font-size="10.00">stdlib.h</text>
</a>
</g>
</g>
<!-- Node7&#45;&gt;Node10 -->
<g id="edge10" class="edge">
<title>Node7&#45;&gt;Node10</title>
<path fill="none" stroke="midnightblue" d="M364.91,-56.32C354.51,-48.18 338.74,-35.84 326.28,-26.09"/>
<polygon fill="midnightblue" stroke="midnightblue" points="328.32,-23.24 318.29,-19.83 324.01,-28.75 328.32,-23.24"/>
</g>
<!-- Node11 -->
<g id="node11" class="node">
<title>Node11</title>
<g id="a_node11"><a xlink:title=" ">
<polygon fill="none" stroke="#bfbfbf" points="351.5,-0.5 351.5,-19.5 404.5,-19.5 404.5,-0.5 351.5,-0.5"/>
<text text-anchor="middle" x="378" y="-7.5" font-family="Helvetica,sans-Serif" font-size="10.00">string.h</text>
</a>
</g>
</g>
<!-- Node7&#45;&gt;Node11 -->
<g id="edge11" class="edge">
<title>Node7&#45;&gt;Node11</title>
<path fill="none" stroke="midnightblue" d="M376.33,-56.08C376.59,-49.01 376.97,-38.86 377.3,-29.99"/>
<polygon fill="midnightblue" stroke="midnightblue" points="380.8,-29.87 377.68,-19.75 373.81,-29.61 380.8,-29.87"/>
</g>
<!-- Node12 -->
<g id="node12" class="node">
<title>Node12</title>
<g id="a_node12"><a xlink:title=" ">
<polygon fill="none" stroke="#bfbfbf" points="422.5,-0.5 422.5,-19.5 475.5,-19.5 475.5,-0.5 422.5,-0.5"/>
<text text-anchor="middle" x="449" y="-7.5" font-family="Helvetica,sans-Serif" font-size="10.00">stdint.h</text>
</a>
</g>
</g>
<!-- Node7&#45;&gt;Node12 -->
<g id="edge12" class="edge">
<title>Node7&#45;&gt;Node12</title>
<path fill="none" stroke="midnightblue" d="M387.73,-56.32C398.84,-48.11 415.74,-35.6 428.98,-25.81"/>
<polygon fill="midnightblue" stroke="midnightblue" points="431.1,-28.59 437.06,-19.83 426.94,-22.97 431.1,-28.59"/>
</g>
<!-- Node13 -->
<g id="node13" class="node">
<title>Node13</title>
<g id="a_node13"><a xlink:title=" ">
<polygon fill="none" stroke="#bfbfbf" points="494,-0.5 494,-19.5 556,-19.5 556,-0.5 494,-0.5"/>
<text text-anchor="middle" x="525" y="-7.5" font-family="Helvetica,sans-Serif" font-size="10.00">stdbool.h</text>
</a>
</g>
</g>
<!-- Node7&#45;&gt;Node13 -->
<g id="edge13" class="edge">
<title>Node7&#45;&gt;Node13</title>
<path fill="none" stroke="midnightblue" d="M399.61,-56.44C424.46,-47.44 463.77,-33.19 491.75,-23.05"/>
<polygon fill="midnightblue" stroke="midnightblue" points="493.29,-26.21 501.5,-19.52 490.91,-19.63 493.29,-26.21"/>
</g>
<!-- Node14 -->
<g id="node14" class="node">
<title>Node14</title>
<g id="a_node14"><a xlink:title=" ">
<polygon fill="none" stroke="#bfbfbf" points="574,-0.5 574,-19.5 624,-19.5 624,-0.5 574,-0.5"/>
<text text-anchor="middle" x="599" y="-7.5" font-family="Helvetica,sans-Serif" font-size="10.00">stdio.h</text>
</a>
</g>
</g>
<!-- Node7&#45;&gt;Node14 -->
<g id="edge14" class="edge">
<title>Node7&#45;&gt;Node14</title>
<path fill="none" stroke="midnightblue" d="M413.01,-56.48C449.15,-48.09 505.95,-34.74 564.05,-20.19"/>
<polygon fill="midnightblue" stroke="midnightblue" points="564.92,-23.59 573.77,-17.75 563.22,-16.8 564.92,-23.59"/>
</g>
</g>
</svg>
