<?xml version="1.0" encoding="UTF-8" standalone="no"?>
<!DOCTYPE svg PUBLIC "-//W3C//DTD SVG 1.1//EN"
 "http://www.w3.org/Graphics/SVG/1.1/DTD/svg11.dtd">
<!-- Generated by graphviz version 2.43.0 (0)
 -->
<!-- Title: /home/runner/work/cbmc&#45;documentation/cbmc&#45;documentation/src/util/nfa.h Pages: 1 -->
<svg width="636pt" height="106pt"
 viewBox="0.00 0.00 635.50 106.00" xmlns="http://www.w3.org/2000/svg" xmlns:xlink="http://www.w3.org/1999/xlink">
<g id="graph0" class="graph" transform="scale(1 1) rotate(0) translate(4 102)">
<title>/home/runner/work/cbmc&#45;documentation/cbmc&#45;documentation/src/util/nfa.h</title>
<!-- Node1 -->
<g id="node1" class="node">
<title>Node1</title>
<g id="a_node1"><a xlink:title=" ">
<polygon fill="#bfbfbf" stroke="black" points="185,-56.5 185,-97.5 385,-97.5 385,-56.5 185,-56.5"/>
<text text-anchor="start" x="193" y="-85.5" font-family="Helvetica,sans-Serif" font-size="10.00">/home/runner/work/cbmc</text>
<text text-anchor="start" x="193" y="-74.5" font-family="Helvetica,sans-Serif" font-size="10.00">&#45;documentation/cbmc&#45;documentation</text>
<text text-anchor="middle" x="285" y="-63.5" font-family="Helvetica,sans-Serif" font-size="10.00">/src/util/nfa.h</text>
</a>
</g>
</g>
<!-- Node2 -->
<g id="node2" class="node">
<title>Node2</title>
<g id="a_node2"><a xlink:title=" ">
<polygon fill="none" stroke="#bfbfbf" points="0,-0.5 0,-19.5 64,-19.5 64,-0.5 0,-0.5"/>
<text text-anchor="middle" x="32" y="-7.5" font-family="Helvetica,sans-Serif" font-size="10.00">algorithm</text>
</a>
</g>
</g>
<!-- Node1&#45;&gt;Node2 -->
<g id="edge1" class="edge">
<title>Node1&#45;&gt;Node2</title>
<path fill="none" stroke="midnightblue" d="M209.09,-56.5C164.79,-45.12 110.57,-31.19 73.89,-21.76"/>
<polygon fill="midnightblue" stroke="midnightblue" points="74.59,-18.33 64.03,-19.23 72.84,-25.11 74.59,-18.33"/>
</g>
<!-- Node3 -->
<g id="node3" class="node">
<title>Node3</title>
<g id="a_node3"><a xlink:title=" ">
<polygon fill="none" stroke="#bfbfbf" points="82.5,-0.5 82.5,-19.5 135.5,-19.5 135.5,-0.5 82.5,-0.5"/>
<text text-anchor="middle" x="109" y="-7.5" font-family="Helvetica,sans-Serif" font-size="10.00">cstddef</text>
</a>
</g>
</g>
<!-- Node1&#45;&gt;Node3 -->
<g id="edge2" class="edge">
<title>Node1&#45;&gt;Node3</title>
<path fill="none" stroke="midnightblue" d="M232.19,-56.5C202.87,-45.67 167.32,-32.54 141.95,-23.17"/>
<polygon fill="midnightblue" stroke="midnightblue" points="143.02,-19.83 132.43,-19.65 140.6,-26.4 143.02,-19.83"/>
</g>
<!-- Node4 -->
<g id="node4" class="node">
<title>Node4</title>
<g id="a_node4"><a xlink:title=" ">
<polygon fill="none" stroke="#bfbfbf" points="153.5,-0.5 153.5,-19.5 208.5,-19.5 208.5,-0.5 153.5,-0.5"/>
<text text-anchor="middle" x="181" y="-7.5" font-family="Helvetica,sans-Serif" font-size="10.00">fstream</text>
</a>
</g>
</g>
<!-- Node1&#45;&gt;Node4 -->
<g id="edge3" class="edge">
<title>Node1&#45;&gt;Node4</title>
<path fill="none" stroke="midnightblue" d="M253.8,-56.5C237.7,-46.44 218.42,-34.38 203.74,-25.21"/>
<polygon fill="midnightblue" stroke="midnightblue" points="205.18,-21.98 194.84,-19.65 201.47,-27.92 205.18,-21.98"/>
</g>
<!-- Node5 -->
<g id="node5" class="node">
<title>Node5</title>
<g id="a_node5"><a xlink:title=" ">
<polygon fill="none" stroke="#bfbfbf" points="227,-0.5 227,-19.5 275,-19.5 275,-0.5 227,-0.5"/>
<text text-anchor="middle" x="251" y="-7.5" font-family="Helvetica,sans-Serif" font-size="10.00">iosfwd</text>
</a>
</g>
</g>
<!-- Node1&#45;&gt;Node5 -->
<g id="edge4" class="edge">
<title>Node1&#45;&gt;Node5</title>
<path fill="none" stroke="midnightblue" d="M274.8,-56.5C270.19,-47.68 264.78,-37.34 260.28,-28.74"/>
<polygon fill="midnightblue" stroke="midnightblue" points="263.26,-26.89 255.53,-19.65 257.06,-30.14 263.26,-26.89"/>
</g>
<!-- Node6 -->
<g id="node6" class="node">
<title>Node6</title>
<g id="a_node6"><a xlink:title=" ">
<polygon fill="none" stroke="#bfbfbf" points="293.5,-0.5 293.5,-19.5 346.5,-19.5 346.5,-0.5 293.5,-0.5"/>
<text text-anchor="middle" x="320" y="-7.5" font-family="Helvetica,sans-Serif" font-size="10.00">iterator</text>
</a>
</g>
</g>
<!-- Node1&#45;&gt;Node6 -->
<g id="edge5" class="edge">
<title>Node1&#45;&gt;Node6</title>
<path fill="none" stroke="midnightblue" d="M295.5,-56.5C300.3,-47.59 305.94,-37.11 310.6,-28.46"/>
<polygon fill="midnightblue" stroke="midnightblue" points="313.68,-30.12 315.34,-19.65 307.52,-26.8 313.68,-30.12"/>
</g>
<!-- Node7 -->
<g id="node7" class="node">
<title>Node7</title>
<g id="a_node7"><a xlink:title=" ">
<polygon fill="none" stroke="#bfbfbf" points="364.5,-0.5 364.5,-19.5 457.5,-19.5 457.5,-0.5 364.5,-0.5"/>
<text text-anchor="middle" x="411" y="-7.5" font-family="Helvetica,sans-Serif" font-size="10.00">unordered_map</text>
</a>
</g>
</g>
<!-- Node1&#45;&gt;Node7 -->
<g id="edge6" class="edge">
<title>Node1&#45;&gt;Node7</title>
<path fill="none" stroke="midnightblue" d="M322.8,-56.5C342.87,-46.15 367.01,-33.69 384.96,-24.43"/>
<polygon fill="midnightblue" stroke="midnightblue" points="386.94,-27.35 394.23,-19.65 383.74,-21.13 386.94,-27.35"/>
</g>
<!-- Node8 -->
<g id="node8" class="node">
<title>Node8</title>
<g id="a_node8"><a xlink:title=" ">
<polygon fill="none" stroke="#bfbfbf" points="476,-0.5 476,-19.5 562,-19.5 562,-0.5 476,-0.5"/>
<text text-anchor="middle" x="519" y="-7.5" font-family="Helvetica,sans-Serif" font-size="10.00">unordered_set</text>
</a>
</g>
</g>
<!-- Node1&#45;&gt;Node8 -->
<g id="edge7" class="edge">
<title>Node1&#45;&gt;Node8</title>
<path fill="none" stroke="midnightblue" d="M355.21,-56.5C395.35,-45.35 444.28,-31.76 478.16,-22.35"/>
<polygon fill="midnightblue" stroke="midnightblue" points="479.46,-25.62 488.16,-19.57 477.59,-18.87 479.46,-25.62"/>
</g>
<!-- Node9 -->
<g id="node9" class="node">
<title>Node9</title>
<g id="a_node9"><a xlink:title=" ">
<polygon fill="none" stroke="#bfbfbf" points="580.5,-0.5 580.5,-19.5 627.5,-19.5 627.5,-0.5 580.5,-0.5"/>
<text text-anchor="middle" x="604" y="-7.5" font-family="Helvetica,sans-Serif" font-size="10.00">vector</text>
</a>
</g>
</g>
<!-- Node1&#45;&gt;Node9 -->
<g id="edge8" class="edge">
<title>Node1&#45;&gt;Node9</title>
<path fill="none" stroke="midnightblue" d="M385.31,-58.21C437.76,-48.47 503.2,-35.62 570.34,-20.02"/>
<polygon fill="midnightblue" stroke="midnightblue" points="571.32,-23.38 580.26,-17.7 569.73,-16.57 571.32,-23.38"/>
</g>
</g>
</svg>
