<?xml version="1.0" encoding="UTF-8" standalone="no"?>
<!DOCTYPE svg PUBLIC "-//W3C//DTD SVG 1.1//EN"
 "http://www.w3.org/Graphics/SVG/1.1/DTD/svg11.dtd">
<!-- Generated by graphviz version 2.43.0 (0)
 -->
<!-- Title: /home/runner/work/cbmc&#45;documentation/cbmc&#45;documentation/src/solvers/smt2_incremental/object_tracking.h Pages: 1 -->
<svg width="1108pt" height="328pt"
 viewBox="0.00 0.00 1108.00 328.00" xmlns="http://www.w3.org/2000/svg" xmlns:xlink="http://www.w3.org/1999/xlink">
<g id="graph0" class="graph" transform="scale(1 1) rotate(0) translate(4 324)">
<title>/home/runner/work/cbmc&#45;documentation/cbmc&#45;documentation/src/solvers/smt2_incremental/object_tracking.h</title>
<!-- Node1 -->
<g id="node1" class="node">
<title>Node1</title>
<g id="a_node1"><a xlink:title=" ">
<polygon fill="#bfbfbf" stroke="black" points="416,-267.5 416,-319.5 616,-319.5 616,-267.5 416,-267.5"/>
<text text-anchor="start" x="424" y="-307.5" font-family="Helvetica,sans-Serif" font-size="10.00">/home/runner/work/cbmc</text>
<text text-anchor="start" x="424" y="-296.5" font-family="Helvetica,sans-Serif" font-size="10.00">&#45;documentation/cbmc&#45;documentation</text>
<text text-anchor="start" x="424" y="-285.5" font-family="Helvetica,sans-Serif" font-size="10.00">/src/solvers/smt2_incremental</text>
<text text-anchor="middle" x="516" y="-274.5" font-family="Helvetica,sans-Serif" font-size="10.00">/object_tracking.h</text>
</a>
</g>
</g>
<!-- Node2 -->
<g id="node2" class="node">
<title>Node2</title>
<g id="a_node2"><a xlink:href="smt2__incremental__decision__procedure_8h.html" target="_top" xlink:title=" ">
<polygon fill="none" stroke="black" points="187.5,-89.5 187.5,-141.5 404.5,-141.5 404.5,-89.5 187.5,-89.5"/>
<text text-anchor="start" x="195.5" y="-129.5" font-family="Helvetica,sans-Serif" font-size="10.00">/home/runner/work/cbmc</text>
<text text-anchor="start" x="195.5" y="-118.5" font-family="Helvetica,sans-Serif" font-size="10.00">&#45;documentation/cbmc&#45;documentation</text>
<text text-anchor="start" x="195.5" y="-107.5" font-family="Helvetica,sans-Serif" font-size="10.00">/src/solvers/smt2_incremental</text>
<text text-anchor="middle" x="296" y="-96.5" font-family="Helvetica,sans-Serif" font-size="10.00">/smt2_incremental_decision_procedure.h</text>
</a>
</g>
</g>
<!-- Node1&#45;&gt;Node2 -->
<g id="edge1" class="edge">
<title>Node1&#45;&gt;Node2</title>
<path fill="none" stroke="midnightblue" d="M406.12,-269C383.18,-260.07 360.64,-247.82 343,-231 317.8,-206.98 305.67,-167.51 300.16,-141.76"/>
<polygon fill="midnightblue" stroke="midnightblue" points="405.01,-272.32 415.61,-272.5 407.44,-265.75 405.01,-272.32"/>
</g>
<!-- Node5 -->
<g id="node5" class="node">
<title>Node5</title>
<g id="a_node5"><a xlink:href="type__size__mapping_8h.html" target="_top" xlink:title=" ">
<polygon fill="none" stroke="black" points="352,-178.5 352,-230.5 552,-230.5 552,-178.5 352,-178.5"/>
<text text-anchor="start" x="360" y="-218.5" font-family="Helvetica,sans-Serif" font-size="10.00">/home/runner/work/cbmc</text>
<text text-anchor="start" x="360" y="-207.5" font-family="Helvetica,sans-Serif" font-size="10.00">&#45;documentation/cbmc&#45;documentation</text>
<text text-anchor="start" x="360" y="-196.5" font-family="Helvetica,sans-Serif" font-size="10.00">/src/solvers/smt2_incremental</text>
<text text-anchor="middle" x="452" y="-185.5" font-family="Helvetica,sans-Serif" font-size="10.00">/type_size_mapping.h</text>
</a>
</g>
</g>
<!-- Node1&#45;&gt;Node5 -->
<g id="edge4" class="edge">
<title>Node1&#45;&gt;Node5</title>
<path fill="none" stroke="midnightblue" d="M491.51,-259.22C484.53,-249.72 477.03,-239.53 470.47,-230.61"/>
<polygon fill="midnightblue" stroke="midnightblue" points="488.74,-261.35 497.49,-267.34 494.38,-257.21 488.74,-261.35"/>
</g>
<!-- Node6 -->
<g id="node6" class="node">
<title>Node6</title>
<g id="a_node6"><a xlink:href="convert__expr__to__smt_8h.html" target="_top" xlink:title=" ">
<polygon fill="none" stroke="black" points="499,-89.5 499,-141.5 699,-141.5 699,-89.5 499,-89.5"/>
<text text-anchor="start" x="507" y="-129.5" font-family="Helvetica,sans-Serif" font-size="10.00">/home/runner/work/cbmc</text>
<text text-anchor="start" x="507" y="-118.5" font-family="Helvetica,sans-Serif" font-size="10.00">&#45;documentation/cbmc&#45;documentation</text>
<text text-anchor="start" x="507" y="-107.5" font-family="Helvetica,sans-Serif" font-size="10.00">/src/solvers/smt2_incremental</text>
<text text-anchor="middle" x="599" y="-96.5" font-family="Helvetica,sans-Serif" font-size="10.00">/convert_expr_to_smt.h</text>
</a>
</g>
</g>
<!-- Node1&#45;&gt;Node6 -->
<g id="edge13" class="edge">
<title>Node1&#45;&gt;Node6</title>
<path fill="none" stroke="midnightblue" d="M543.25,-259.2C549.65,-250.38 556.04,-240.62 561,-231 576.07,-201.77 586.95,-165.33 593.11,-141.51"/>
<polygon fill="midnightblue" stroke="midnightblue" points="540.35,-257.23 537.16,-267.34 545.96,-261.43 540.35,-257.23"/>
</g>
<!-- Node10 -->
<g id="node10" class="node">
<title>Node10</title>
<g id="a_node10"><a xlink:href="object__tracking_8cpp.html" target="_top" xlink:title=" ">
<polygon fill="none" stroke="black" points="608,-178.5 608,-230.5 808,-230.5 808,-178.5 608,-178.5"/>
<text text-anchor="start" x="616" y="-218.5" font-family="Helvetica,sans-Serif" font-size="10.00">/home/runner/work/cbmc</text>
<text text-anchor="start" x="616" y="-207.5" font-family="Helvetica,sans-Serif" font-size="10.00">&#45;documentation/cbmc&#45;documentation</text>
<text text-anchor="start" x="616" y="-196.5" font-family="Helvetica,sans-Serif" font-size="10.00">/src/solvers/smt2_incremental</text>
<text text-anchor="middle" x="708" y="-185.5" font-family="Helvetica,sans-Serif" font-size="10.00">/object_tracking.cpp</text>
</a>
</g>
</g>
<!-- Node1&#45;&gt;Node10 -->
<g id="edge14" class="edge">
<title>Node1&#45;&gt;Node10</title>
<path fill="none" stroke="midnightblue" d="M580.45,-263.29C603.91,-252.67 630.2,-240.76 652.78,-230.52"/>
<polygon fill="midnightblue" stroke="midnightblue" points="578.94,-260.14 571.28,-267.45 581.83,-266.51 578.94,-260.14"/>
</g>
<!-- Node3 -->
<g id="node3" class="node">
<title>Node3</title>
<g id="a_node3"><a xlink:href="solver__factory_8cpp.html" target="_top" xlink:title=" ">
<polygon fill="none" stroke="black" points="0,-6 0,-47 200,-47 200,-6 0,-6"/>
<text text-anchor="start" x="8" y="-35" font-family="Helvetica,sans-Serif" font-size="10.00">/home/runner/work/cbmc</text>
<text text-anchor="start" x="8" y="-24" font-family="Helvetica,sans-Serif" font-size="10.00">&#45;documentation/cbmc&#45;documentation</text>
<text text-anchor="middle" x="100" y="-13" font-family="Helvetica,sans-Serif" font-size="10.00">/src/goto&#45;checker/solver_factory.cpp</text>
</a>
</g>
</g>
<!-- Node2&#45;&gt;Node3 -->
<g id="edge2" class="edge">
<title>Node2&#45;&gt;Node3</title>
<path fill="none" stroke="midnightblue" d="M230.15,-85.27C201.87,-72.72 169.58,-58.38 144.23,-47.13"/>
<polygon fill="midnightblue" stroke="midnightblue" points="229.01,-88.59 239.57,-89.45 231.85,-82.2 229.01,-88.59"/>
</g>
<!-- Node4 -->
<g id="node4" class="node">
<title>Node4</title>
<g id="a_node4"><a xlink:href="smt2__incremental__decision__procedure_8cpp.html" target="_top" xlink:title=" ">
<polygon fill="none" stroke="black" points="218,-0.5 218,-52.5 446,-52.5 446,-0.5 218,-0.5"/>
<text text-anchor="start" x="226" y="-40.5" font-family="Helvetica,sans-Serif" font-size="10.00">/home/runner/work/cbmc</text>
<text text-anchor="start" x="226" y="-29.5" font-family="Helvetica,sans-Serif" font-size="10.00">&#45;documentation/cbmc&#45;documentation</text>
<text text-anchor="start" x="226" y="-18.5" font-family="Helvetica,sans-Serif" font-size="10.00">/src/solvers/smt2_incremental</text>
<text text-anchor="middle" x="332" y="-7.5" font-family="Helvetica,sans-Serif" font-size="10.00">/smt2_incremental_decision_procedure.cpp</text>
</a>
</g>
</g>
<!-- Node2&#45;&gt;Node4 -->
<g id="edge3" class="edge">
<title>Node2&#45;&gt;Node4</title>
<path fill="none" stroke="midnightblue" d="M310.25,-80.06C314.04,-70.9 318.07,-61.17 321.61,-52.61"/>
<polygon fill="midnightblue" stroke="midnightblue" points="307,-78.76 306.41,-89.34 313.47,-81.43 307,-78.76"/>
</g>
<!-- Node5&#45;&gt;Node2 -->
<g id="edge5" class="edge">
<title>Node5&#45;&gt;Node2</title>
<path fill="none" stroke="midnightblue" d="M397.94,-173.35C379.37,-163 358.8,-151.52 341.02,-141.61"/>
<polygon fill="midnightblue" stroke="midnightblue" points="396.44,-176.52 406.88,-178.34 399.85,-170.41 396.44,-176.52"/>
</g>
<!-- Node5&#45;&gt;Node4 -->
<g id="edge11" class="edge">
<title>Node5&#45;&gt;Node4</title>
<path fill="none" stroke="midnightblue" d="M445.72,-168.51C440.12,-144.45 430.09,-112.7 413,-89 402.77,-74.82 388.34,-62.41 374.49,-52.52"/>
<polygon fill="midnightblue" stroke="midnightblue" points="442.31,-169.28 447.86,-178.31 449.15,-167.79 442.31,-169.28"/>
</g>
<!-- Node5&#45;&gt;Node6 -->
<g id="edge6" class="edge">
<title>Node5&#45;&gt;Node6</title>
<path fill="none" stroke="midnightblue" d="M503.42,-173.07C520.79,-162.79 539.98,-151.43 556.58,-141.61"/>
<polygon fill="midnightblue" stroke="midnightblue" points="501.34,-170.23 494.52,-178.34 504.91,-176.25 501.34,-170.23"/>
</g>
<!-- Node9 -->
<g id="node9" class="node">
<title>Node9</title>
<g id="a_node9"><a xlink:href="type__size__mapping_8cpp.html" target="_top" xlink:title=" ">
<polygon fill="none" stroke="black" points="464,-0.5 464,-52.5 664,-52.5 664,-0.5 464,-0.5"/>
<text text-anchor="start" x="472" y="-40.5" font-family="Helvetica,sans-Serif" font-size="10.00">/home/runner/work/cbmc</text>
<text text-anchor="start" x="472" y="-29.5" font-family="Helvetica,sans-Serif" font-size="10.00">&#45;documentation/cbmc&#45;documentation</text>
<text text-anchor="start" x="472" y="-18.5" font-family="Helvetica,sans-Serif" font-size="10.00">/src/solvers/smt2_incremental</text>
<text text-anchor="middle" x="564" y="-7.5" font-family="Helvetica,sans-Serif" font-size="10.00">/type_size_mapping.cpp</text>
</a>
</g>
</g>
<!-- Node5&#45;&gt;Node9 -->
<g id="edge12" class="edge">
<title>Node5&#45;&gt;Node9</title>
<path fill="none" stroke="midnightblue" d="M458.33,-168.42C463.87,-144.51 473.65,-112.96 490,-89 499.51,-75.06 513.04,-62.55 525.93,-52.51"/>
<polygon fill="midnightblue" stroke="midnightblue" points="454.85,-167.97 456.15,-178.49 461.69,-169.46 454.85,-167.97"/>
</g>
<!-- Node6&#45;&gt;Node4 -->
<g id="edge8" class="edge">
<title>Node6&#45;&gt;Node4</title>
<path fill="none" stroke="midnightblue" d="M512.39,-86.28C479.02,-75.4 441.17,-63.07 408.79,-52.52"/>
<polygon fill="midnightblue" stroke="midnightblue" points="511.54,-89.68 522.13,-89.45 513.71,-83.03 511.54,-89.68"/>
</g>
<!-- Node7 -->
<g id="node7" class="node">
<title>Node7</title>
<g id="a_node7"><a xlink:href="convert__expr__to__smt_8cpp.html" target="_top" xlink:title=" ">
<polygon fill="none" stroke="black" points="900,-0.5 900,-52.5 1100,-52.5 1100,-0.5 900,-0.5"/>
<text text-anchor="start" x="908" y="-40.5" font-family="Helvetica,sans-Serif" font-size="10.00">/home/runner/work/cbmc</text>
<text text-anchor="start" x="908" y="-29.5" font-family="Helvetica,sans-Serif" font-size="10.00">&#45;documentation/cbmc&#45;documentation</text>
<text text-anchor="start" x="908" y="-18.5" font-family="Helvetica,sans-Serif" font-size="10.00">/src/solvers/smt2_incremental</text>
<text text-anchor="middle" x="1000" y="-7.5" font-family="Helvetica,sans-Serif" font-size="10.00">/convert_expr_to_smt.cpp</text>
</a>
</g>
</g>
<!-- Node6&#45;&gt;Node7 -->
<g id="edge7" class="edge">
<title>Node6&#45;&gt;Node7</title>
<path fill="none" stroke="midnightblue" d="M709.2,-91.89C763.92,-80.51 831.01,-66.33 891,-53 893.94,-52.35 896.92,-51.68 899.94,-51"/>
<polygon fill="midnightblue" stroke="midnightblue" points="708.2,-88.53 699.13,-93.99 709.63,-95.38 708.2,-88.53"/>
</g>
<!-- Node8 -->
<g id="node8" class="node">
<title>Node8</title>
<g id="a_node8"><a xlink:href="smt__object__size_8cpp.html" target="_top" xlink:title=" ">
<polygon fill="none" stroke="black" points="682,-0.5 682,-52.5 882,-52.5 882,-0.5 682,-0.5"/>
<text text-anchor="start" x="690" y="-40.5" font-family="Helvetica,sans-Serif" font-size="10.00">/home/runner/work/cbmc</text>
<text text-anchor="start" x="690" y="-29.5" font-family="Helvetica,sans-Serif" font-size="10.00">&#45;documentation/cbmc&#45;documentation</text>
<text text-anchor="start" x="690" y="-18.5" font-family="Helvetica,sans-Serif" font-size="10.00">/src/solvers/smt2_incremental</text>
<text text-anchor="middle" x="782" y="-7.5" font-family="Helvetica,sans-Serif" font-size="10.00">/smt_object_size.cpp</text>
</a>
</g>
</g>
<!-- Node6&#45;&gt;Node8 -->
<g id="edge9" class="edge">
<title>Node6&#45;&gt;Node8</title>
<path fill="none" stroke="midnightblue" d="M661.23,-84.92C683.32,-74.41 707.96,-62.7 729.19,-52.61"/>
<polygon fill="midnightblue" stroke="midnightblue" points="659.46,-81.88 651.93,-89.34 662.47,-88.2 659.46,-81.88"/>
</g>
<!-- Node6&#45;&gt;Node9 -->
<g id="edge10" class="edge">
<title>Node6&#45;&gt;Node9</title>
<path fill="none" stroke="midnightblue" d="M585.03,-79.77C581.38,-70.69 577.51,-61.08 574.1,-52.61"/>
<polygon fill="midnightblue" stroke="midnightblue" points="581.9,-81.36 588.88,-89.34 588.39,-78.75 581.9,-81.36"/>
</g>
</g>
</svg>
