<?xml version="1.0" encoding="UTF-8" standalone="no"?>
<!DOCTYPE svg PUBLIC "-//W3C//DTD SVG 1.1//EN"
 "http://www.w3.org/Graphics/SVG/1.1/DTD/svg11.dtd">
<!-- Generated by graphviz version 2.43.0 (0)
 -->
<!-- Title: /home/runner/work/cbmc&#45;documentation/cbmc&#45;documentation/src/util/parser.h Pages: 1 -->
<svg width="5222pt" height="306pt"
 viewBox="0.00 0.00 5222.00 306.00" xmlns="http://www.w3.org/2000/svg" xmlns:xlink="http://www.w3.org/1999/xlink">
<g id="graph0" class="graph" transform="scale(1 1) rotate(0) translate(4 302)">
<title>/home/runner/work/cbmc&#45;documentation/cbmc&#45;documentation/src/util/parser.h</title>
<!-- Node1 -->
<g id="node1" class="node">
<title>Node1</title>
<g id="a_node1"><a xlink:title=" ">
<polygon fill="#bfbfbf" stroke="black" points="3161,-256.5 3161,-297.5 3361,-297.5 3361,-256.5 3161,-256.5"/>
<text text-anchor="start" x="3169" y="-285.5" font-family="Helvetica,sans-Serif" font-size="10.00">/home/runner/work/cbmc</text>
<text text-anchor="start" x="3169" y="-274.5" font-family="Helvetica,sans-Serif" font-size="10.00">&#45;documentation/cbmc&#45;documentation</text>
<text text-anchor="middle" x="3261" y="-263.5" font-family="Helvetica,sans-Serif" font-size="10.00">/src/util/parser.h</text>
</a>
</g>
</g>
<!-- Node2 -->
<g id="node2" class="node">
<title>Node2</title>
<g id="a_node2"><a xlink:href="ansi__c__parser_8h.html" target="_top" xlink:title=" ">
<polygon fill="none" stroke="black" points="545,-173 545,-214 745,-214 745,-173 545,-173"/>
<text text-anchor="start" x="553" y="-202" font-family="Helvetica,sans-Serif" font-size="10.00">/home/runner/work/cbmc</text>
<text text-anchor="start" x="553" y="-191" font-family="Helvetica,sans-Serif" font-size="10.00">&#45;documentation/cbmc&#45;documentation</text>
<text text-anchor="middle" x="645" y="-180" font-family="Helvetica,sans-Serif" font-size="10.00">/src/ansi&#45;c/ansi_c_parser.h</text>
</a>
</g>
</g>
<!-- Node1&#45;&gt;Node2 -->
<g id="edge1" class="edge">
<title>Node1&#45;&gt;Node2</title>
<path fill="none" stroke="midnightblue" d="M3150.34,-275.07C2822.43,-271.92 1827.36,-259.56 1003,-220 915.87,-215.82 816.97,-208.58 745.23,-202.89"/>
<polygon fill="midnightblue" stroke="midnightblue" points="3150.75,-278.57 3160.78,-275.17 3150.82,-271.57 3150.75,-278.57"/>
</g>
<!-- Node6 -->
<g id="node6" class="node">
<title>Node6</title>
<g id="a_node6"><a xlink:href="cpp__parser_8h.html" target="_top" xlink:title=" ">
<polygon fill="none" stroke="black" points="872,-84 872,-125 1072,-125 1072,-84 872,-84"/>
<text text-anchor="start" x="880" y="-113" font-family="Helvetica,sans-Serif" font-size="10.00">/home/runner/work/cbmc</text>
<text text-anchor="start" x="880" y="-102" font-family="Helvetica,sans-Serif" font-size="10.00">&#45;documentation/cbmc&#45;documentation</text>
<text text-anchor="middle" x="972" y="-91" font-family="Helvetica,sans-Serif" font-size="10.00">/src/cpp/cpp_parser.h</text>
</a>
</g>
</g>
<!-- Node1&#45;&gt;Node6 -->
<g id="edge14" class="edge">
<title>Node1&#45;&gt;Node6</title>
<path fill="none" stroke="midnightblue" d="M3150.77,-274.06C2833.68,-268.19 1922.92,-249.21 1626,-220 1381.75,-195.97 1321.74,-178.76 1081,-131 1071.85,-129.18 1062.3,-127.15 1052.82,-125.05"/>
<polygon fill="midnightblue" stroke="midnightblue" points="3150.83,-277.56 3160.89,-274.25 3150.96,-270.56 3150.83,-277.56"/>
</g>
<!-- Node11 -->
<g id="node11" class="node">
<title>Node11</title>
<g id="a_node11"><a xlink:href="preprocessor__line_8cpp.html" target="_top" xlink:title=" ">
<polygon fill="none" stroke="black" points="1635,-173 1635,-214 1835,-214 1835,-173 1635,-173"/>
<text text-anchor="start" x="1643" y="-202" font-family="Helvetica,sans-Serif" font-size="10.00">/home/runner/work/cbmc</text>
<text text-anchor="start" x="1643" y="-191" font-family="Helvetica,sans-Serif" font-size="10.00">&#45;documentation/cbmc&#45;documentation</text>
<text text-anchor="middle" x="1735" y="-180" font-family="Helvetica,sans-Serif" font-size="10.00">/src/ansi&#45;c/preprocessor_line.cpp</text>
</a>
</g>
</g>
<!-- Node1&#45;&gt;Node11 -->
<g id="edge10" class="edge">
<title>Node1&#45;&gt;Node11</title>
<path fill="none" stroke="midnightblue" d="M3150.76,-274.36C2863.33,-269.63 2095.89,-254.12 1844,-220 1832.93,-218.5 1821.33,-216.39 1810,-214.01"/>
<polygon fill="midnightblue" stroke="midnightblue" points="3150.72,-277.86 3160.78,-274.52 3150.84,-270.86 3150.72,-277.86"/>
</g>
<!-- Node12 -->
<g id="node12" class="node">
<title>Node12</title>
<g id="a_node12"><a xlink:href="assembler__parser_8h.html" target="_top" xlink:title=" ">
<polygon fill="none" stroke="black" points="1853,-173 1853,-214 2053,-214 2053,-173 1853,-173"/>
<text text-anchor="start" x="1861" y="-202" font-family="Helvetica,sans-Serif" font-size="10.00">/home/runner/work/cbmc</text>
<text text-anchor="start" x="1861" y="-191" font-family="Helvetica,sans-Serif" font-size="10.00">&#45;documentation/cbmc&#45;documentation</text>
<text text-anchor="middle" x="1953" y="-180" font-family="Helvetica,sans-Serif" font-size="10.00">/src/assembler/assembler_parser.h</text>
</a>
</g>
</g>
<!-- Node1&#45;&gt;Node12 -->
<g id="edge11" class="edge">
<title>Node1&#45;&gt;Node12</title>
<path fill="none" stroke="midnightblue" d="M3150.61,-269.12C2900.5,-253.54 2293.72,-215.73 2053.41,-200.76"/>
<polygon fill="midnightblue" stroke="midnightblue" points="3150.61,-272.63 3160.81,-269.76 3151.04,-265.64 3150.61,-272.63"/>
</g>
<!-- Node15 -->
<g id="node15" class="node">
<title>Node15</title>
<g id="a_node15"><a xlink:href="json__parser_8h.html" target="_top" xlink:title=" ">
<polygon fill="none" stroke="black" points="2616,-173 2616,-214 2816,-214 2816,-173 2616,-173"/>
<text text-anchor="start" x="2624" y="-202" font-family="Helvetica,sans-Serif" font-size="10.00">/home/runner/work/cbmc</text>
<text text-anchor="start" x="2624" y="-191" font-family="Helvetica,sans-Serif" font-size="10.00">&#45;documentation/cbmc&#45;documentation</text>
<text text-anchor="middle" x="2716" y="-180" font-family="Helvetica,sans-Serif" font-size="10.00">/src/json/json_parser.h</text>
</a>
</g>
</g>
<!-- Node1&#45;&gt;Node15 -->
<g id="edge15" class="edge">
<title>Node1&#45;&gt;Node15</title>
<path fill="none" stroke="midnightblue" d="M3150.79,-259.52C3052.84,-244.87 2910.89,-223.64 2816.13,-209.47"/>
<polygon fill="midnightblue" stroke="midnightblue" points="3150.31,-262.99 3160.72,-261 3151.35,-256.06 3150.31,-262.99"/>
</g>
<!-- Node26 -->
<g id="node26" class="node">
<title>Node26</title>
<g id="a_node26"><a xlink:href="jsil__parser_8h.html" target="_top" xlink:title=" ">
<polygon fill="none" stroke="black" points="3706,-173 3706,-214 3906,-214 3906,-173 3706,-173"/>
<text text-anchor="start" x="3714" y="-202" font-family="Helvetica,sans-Serif" font-size="10.00">/home/runner/work/cbmc</text>
<text text-anchor="start" x="3714" y="-191" font-family="Helvetica,sans-Serif" font-size="10.00">&#45;documentation/cbmc&#45;documentation</text>
<text text-anchor="middle" x="3806" y="-180" font-family="Helvetica,sans-Serif" font-size="10.00">/src/jsil/jsil_parser.h</text>
</a>
</g>
</g>
<!-- Node1&#45;&gt;Node26 -->
<g id="edge26" class="edge">
<title>Node1&#45;&gt;Node26</title>
<path fill="none" stroke="midnightblue" d="M3371.21,-259.52C3469.16,-244.87 3611.11,-223.64 3705.87,-209.47"/>
<polygon fill="midnightblue" stroke="midnightblue" points="3370.65,-256.06 3361.28,-261 3371.69,-262.99 3370.65,-256.06"/>
</g>
<!-- Node29 -->
<g id="node29" class="node">
<title>Node29</title>
<g id="a_node29"><a xlink:href="statement__list__parser_8h.html" target="_top" xlink:title=" ">
<polygon fill="none" stroke="black" points="4033,-167.5 4033,-219.5 4233,-219.5 4233,-167.5 4033,-167.5"/>
<text text-anchor="start" x="4041" y="-207.5" font-family="Helvetica,sans-Serif" font-size="10.00">/home/runner/work/cbmc</text>
<text text-anchor="start" x="4041" y="-196.5" font-family="Helvetica,sans-Serif" font-size="10.00">&#45;documentation/cbmc&#45;documentation</text>
<text text-anchor="start" x="4041" y="-185.5" font-family="Helvetica,sans-Serif" font-size="10.00">/src/statement&#45;list/statement</text>
<text text-anchor="middle" x="4133" y="-174.5" font-family="Helvetica,sans-Serif" font-size="10.00">_list_parser.h</text>
</a>
</g>
</g>
<!-- Node1&#45;&gt;Node29 -->
<g id="edge29" class="edge">
<title>Node1&#45;&gt;Node29</title>
<path fill="none" stroke="midnightblue" d="M3371.06,-267.62C3501.11,-257.48 3723.98,-239.35 3915,-220 3953.57,-216.09 3995.92,-211.26 4032.95,-206.86"/>
<polygon fill="midnightblue" stroke="midnightblue" points="3370.79,-264.13 3361.09,-268.4 3371.33,-271.11 3370.79,-264.13"/>
</g>
<!-- Node32 -->
<g id="node32" class="node">
<title>Node32</title>
<g id="a_node32"><a xlink:href="parser_8cpp.html" target="_top" xlink:title=" ">
<polygon fill="none" stroke="black" points="4251,-173 4251,-214 4451,-214 4451,-173 4251,-173"/>
<text text-anchor="start" x="4259" y="-202" font-family="Helvetica,sans-Serif" font-size="10.00">/home/runner/work/cbmc</text>
<text text-anchor="start" x="4259" y="-191" font-family="Helvetica,sans-Serif" font-size="10.00">&#45;documentation/cbmc&#45;documentation</text>
<text text-anchor="middle" x="4351" y="-180" font-family="Helvetica,sans-Serif" font-size="10.00">/src/util/parser.cpp</text>
</a>
</g>
</g>
<!-- Node1&#45;&gt;Node32 -->
<g id="edge32" class="edge">
<title>Node1&#45;&gt;Node32</title>
<path fill="none" stroke="midnightblue" d="M3371.26,-275.89C3553.45,-274.34 3928.4,-265.29 4242,-220 4252.77,-218.44 4264.05,-216.35 4275.09,-214.02"/>
<polygon fill="midnightblue" stroke="midnightblue" points="3371.11,-272.4 3361.13,-275.97 3371.16,-279.4 3371.11,-272.4"/>
</g>
<!-- Node33 -->
<g id="node33" class="node">
<title>Node33</title>
<g id="a_node33"><a xlink:href="xml__parser_8h.html" target="_top" xlink:title=" ">
<polygon fill="none" stroke="black" points="4578,-173 4578,-214 4778,-214 4778,-173 4578,-173"/>
<text text-anchor="start" x="4586" y="-202" font-family="Helvetica,sans-Serif" font-size="10.00">/home/runner/work/cbmc</text>
<text text-anchor="start" x="4586" y="-191" font-family="Helvetica,sans-Serif" font-size="10.00">&#45;documentation/cbmc&#45;documentation</text>
<text text-anchor="middle" x="4678" y="-180" font-family="Helvetica,sans-Serif" font-size="10.00">/src/xmllang/xml_parser.h</text>
</a>
</g>
</g>
<!-- Node1&#45;&gt;Node33 -->
<g id="edge33" class="edge">
<title>Node1&#45;&gt;Node33</title>
<path fill="none" stroke="midnightblue" d="M3371.2,-273.42C3582.62,-267.91 4059.73,-252.72 4460,-220 4498.55,-216.85 4540.8,-212.19 4577.76,-207.71"/>
<polygon fill="midnightblue" stroke="midnightblue" points="3370.93,-269.93 3361.03,-273.69 3371.11,-276.93 3370.93,-269.93"/>
</g>
<!-- Node37 -->
<g id="node37" class="node">
<title>Node37</title>
<g id="a_node37"><a xlink:href="java__bytecode__parser_8cpp.html" target="_top" xlink:title=" ">
<polygon fill="none" stroke="black" points="4796,-167.5 4796,-219.5 4996,-219.5 4996,-167.5 4796,-167.5"/>
<text text-anchor="start" x="4804" y="-207.5" font-family="Helvetica,sans-Serif" font-size="10.00">/home/runner/work/cbmc</text>
<text text-anchor="start" x="4804" y="-196.5" font-family="Helvetica,sans-Serif" font-size="10.00">&#45;documentation/cbmc&#45;documentation</text>
<text text-anchor="start" x="4804" y="-185.5" font-family="Helvetica,sans-Serif" font-size="10.00">/jbmc/src/java_bytecode/java</text>
<text text-anchor="middle" x="4896" y="-174.5" font-family="Helvetica,sans-Serif" font-size="10.00">_bytecode_parser.cpp</text>
</a>
</g>
</g>
<!-- Node1&#45;&gt;Node37 -->
<g id="edge37" class="edge">
<title>Node1&#45;&gt;Node37</title>
<path fill="none" stroke="midnightblue" d="M3371.33,-274.72C3674.04,-270.76 4513.23,-256.7 4787,-220 4789.89,-219.61 4792.81,-219.18 4795.76,-218.72"/>
<polygon fill="midnightblue" stroke="midnightblue" points="3371.18,-271.22 3361.23,-274.85 3371.27,-278.22 3371.18,-271.22"/>
</g>
<!-- Node3 -->
<g id="node3" class="node">
<title>Node3</title>
<g id="a_node3"><a xlink:href="ansi__c__language_8cpp.html" target="_top" xlink:title=" ">
<polygon fill="none" stroke="black" points="0,-84 0,-125 200,-125 200,-84 0,-84"/>
<text text-anchor="start" x="8" y="-113" font-family="Helvetica,sans-Serif" font-size="10.00">/home/runner/work/cbmc</text>
<text text-anchor="start" x="8" y="-102" font-family="Helvetica,sans-Serif" font-size="10.00">&#45;documentation/cbmc&#45;documentation</text>
<text text-anchor="middle" x="100" y="-91" font-family="Helvetica,sans-Serif" font-size="10.00">/src/ansi&#45;c/ansi_c_language.cpp</text>
</a>
</g>
</g>
<!-- Node2&#45;&gt;Node3 -->
<g id="edge2" class="edge">
<title>Node2&#45;&gt;Node3</title>
<path fill="none" stroke="midnightblue" d="M534.53,-179.7C446.13,-168.78 319.15,-151.61 209,-131 199.54,-129.23 189.67,-127.19 179.89,-125.05"/>
<polygon fill="midnightblue" stroke="midnightblue" points="534.23,-183.19 544.58,-180.93 535.08,-176.24 534.23,-183.19"/>
</g>
<!-- Node4 -->
<g id="node4" class="node">
<title>Node4</title>
<g id="a_node4"><a xlink:href="ansi__c__parser_8cpp.html" target="_top" xlink:title=" ">
<polygon fill="none" stroke="black" points="218,-84 218,-125 418,-125 418,-84 218,-84"/>
<text text-anchor="start" x="226" y="-113" font-family="Helvetica,sans-Serif" font-size="10.00">/home/runner/work/cbmc</text>
<text text-anchor="start" x="226" y="-102" font-family="Helvetica,sans-Serif" font-size="10.00">&#45;documentation/cbmc&#45;documentation</text>
<text text-anchor="middle" x="318" y="-91" font-family="Helvetica,sans-Serif" font-size="10.00">/src/ansi&#45;c/ansi_c_parser.cpp</text>
</a>
</g>
</g>
<!-- Node2&#45;&gt;Node4 -->
<g id="edge3" class="edge">
<title>Node2&#45;&gt;Node4</title>
<path fill="none" stroke="midnightblue" d="M561.65,-170.32C509.12,-156.35 441.94,-138.47 391.42,-125.03"/>
<polygon fill="midnightblue" stroke="midnightblue" points="561.05,-173.79 571.61,-172.98 562.85,-167.02 561.05,-173.79"/>
</g>
<!-- Node5 -->
<g id="node5" class="node">
<title>Node5</title>
<g id="a_node5"><a xlink:href="builtin__factory_8cpp.html" target="_top" xlink:title=" ">
<polygon fill="none" stroke="black" points="436,-84 436,-125 636,-125 636,-84 436,-84"/>
<text text-anchor="start" x="444" y="-113" font-family="Helvetica,sans-Serif" font-size="10.00">/home/runner/work/cbmc</text>
<text text-anchor="start" x="444" y="-102" font-family="Helvetica,sans-Serif" font-size="10.00">&#45;documentation/cbmc&#45;documentation</text>
<text text-anchor="middle" x="536" y="-91" font-family="Helvetica,sans-Serif" font-size="10.00">/src/ansi&#45;c/builtin_factory.cpp</text>
</a>
</g>
</g>
<!-- Node2&#45;&gt;Node5 -->
<g id="edge4" class="edge">
<title>Node2&#45;&gt;Node5</title>
<path fill="none" stroke="midnightblue" d="M612.68,-166.71C596.07,-153.44 576.14,-137.53 560.76,-125.26"/>
<polygon fill="midnightblue" stroke="midnightblue" points="610.54,-169.47 620.54,-172.98 614.91,-164 610.54,-169.47"/>
</g>
<!-- Node2&#45;&gt;Node6 -->
<g id="edge5" class="edge">
<title>Node2&#45;&gt;Node6</title>
<path fill="none" stroke="midnightblue" d="M728.35,-170.32C780.88,-156.35 848.06,-138.47 898.58,-125.03"/>
<polygon fill="midnightblue" stroke="midnightblue" points="727.15,-167.02 718.39,-172.98 728.95,-173.79 727.15,-167.02"/>
</g>
<!-- Node10 -->
<g id="node10" class="node">
<title>Node10</title>
<g id="a_node10"><a xlink:href="cpp__token__buffer_8cpp.html" target="_top" xlink:title=" ">
<polygon fill="none" stroke="black" points="654,-84 654,-125 854,-125 854,-84 654,-84"/>
<text text-anchor="start" x="662" y="-113" font-family="Helvetica,sans-Serif" font-size="10.00">/home/runner/work/cbmc</text>
<text text-anchor="start" x="662" y="-102" font-family="Helvetica,sans-Serif" font-size="10.00">&#45;documentation/cbmc&#45;documentation</text>
<text text-anchor="middle" x="754" y="-91" font-family="Helvetica,sans-Serif" font-size="10.00">/src/cpp/cpp_token_buffer.cpp</text>
</a>
</g>
</g>
<!-- Node2&#45;&gt;Node10 -->
<g id="edge9" class="edge">
<title>Node2&#45;&gt;Node10</title>
<path fill="none" stroke="midnightblue" d="M677.32,-166.71C693.93,-153.44 713.86,-137.53 729.24,-125.26"/>
<polygon fill="midnightblue" stroke="midnightblue" points="675.09,-164 669.46,-172.98 679.46,-169.47 675.09,-164"/>
</g>
<!-- Node7 -->
<g id="node7" class="node">
<title>Node7</title>
<g id="a_node7"><a xlink:href="cpp__language_8cpp.html" target="_top" xlink:title=" ">
<polygon fill="none" stroke="black" points="654,-0.5 654,-41.5 854,-41.5 854,-0.5 654,-0.5"/>
<text text-anchor="start" x="662" y="-29.5" font-family="Helvetica,sans-Serif" font-size="10.00">/home/runner/work/cbmc</text>
<text text-anchor="start" x="662" y="-18.5" font-family="Helvetica,sans-Serif" font-size="10.00">&#45;documentation/cbmc&#45;documentation</text>
<text text-anchor="middle" x="754" y="-7.5" font-family="Helvetica,sans-Serif" font-size="10.00">/src/cpp/cpp_language.cpp</text>
</a>
</g>
</g>
<!-- Node6&#45;&gt;Node7 -->
<g id="edge6" class="edge">
<title>Node6&#45;&gt;Node7</title>
<path fill="none" stroke="midnightblue" d="M910.28,-80.42C877.42,-68.14 837.46,-53.2 806.17,-41.5"/>
<polygon fill="midnightblue" stroke="midnightblue" points="909.19,-83.76 919.78,-83.98 911.64,-77.2 909.19,-83.76"/>
</g>
<!-- Node8 -->
<g id="node8" class="node">
<title>Node8</title>
<g id="a_node8"><a xlink:href="cpp__parser_8cpp.html" target="_top" xlink:title=" ">
<polygon fill="none" stroke="black" points="872,-0.5 872,-41.5 1072,-41.5 1072,-0.5 872,-0.5"/>
<text text-anchor="start" x="880" y="-29.5" font-family="Helvetica,sans-Serif" font-size="10.00">/home/runner/work/cbmc</text>
<text text-anchor="start" x="880" y="-18.5" font-family="Helvetica,sans-Serif" font-size="10.00">&#45;documentation/cbmc&#45;documentation</text>
<text text-anchor="middle" x="972" y="-7.5" font-family="Helvetica,sans-Serif" font-size="10.00">/src/cpp/cpp_parser.cpp</text>
</a>
</g>
</g>
<!-- Node6&#45;&gt;Node8 -->
<g id="edge7" class="edge">
<title>Node6&#45;&gt;Node8</title>
<path fill="none" stroke="midnightblue" d="M972,-73.56C972,-62.88 972,-51.13 972,-41.55"/>
<polygon fill="midnightblue" stroke="midnightblue" points="968.5,-73.77 972,-83.77 975.5,-73.77 968.5,-73.77"/>
</g>
<!-- Node9 -->
<g id="node9" class="node">
<title>Node9</title>
<g id="a_node9"><a xlink:href="parse_8cpp.html" target="_top" xlink:title=" ">
<polygon fill="none" stroke="black" points="1090,-0.5 1090,-41.5 1290,-41.5 1290,-0.5 1090,-0.5"/>
<text text-anchor="start" x="1098" y="-29.5" font-family="Helvetica,sans-Serif" font-size="10.00">/home/runner/work/cbmc</text>
<text text-anchor="start" x="1098" y="-18.5" font-family="Helvetica,sans-Serif" font-size="10.00">&#45;documentation/cbmc&#45;documentation</text>
<text text-anchor="middle" x="1190" y="-7.5" font-family="Helvetica,sans-Serif" font-size="10.00">/src/cpp/parse.cpp</text>
</a>
</g>
</g>
<!-- Node6&#45;&gt;Node9 -->
<g id="edge8" class="edge">
<title>Node6&#45;&gt;Node9</title>
<path fill="none" stroke="midnightblue" d="M1033.72,-80.42C1066.58,-68.14 1106.54,-53.2 1137.83,-41.5"/>
<polygon fill="midnightblue" stroke="midnightblue" points="1032.36,-77.2 1024.22,-83.98 1034.81,-83.76 1032.36,-77.2"/>
</g>
<!-- Node13 -->
<g id="node13" class="node">
<title>Node13</title>
<g id="a_node13"><a xlink:href="assembler__parser_8cpp.html" target="_top" xlink:title=" ">
<polygon fill="none" stroke="black" points="1090,-84 1090,-125 1290,-125 1290,-84 1090,-84"/>
<text text-anchor="start" x="1098" y="-113" font-family="Helvetica,sans-Serif" font-size="10.00">/home/runner/work/cbmc</text>
<text text-anchor="start" x="1098" y="-102" font-family="Helvetica,sans-Serif" font-size="10.00">&#45;documentation/cbmc&#45;documentation</text>
<text text-anchor="middle" x="1190" y="-91" font-family="Helvetica,sans-Serif" font-size="10.00">/src/assembler/assembler_parser.cpp</text>
</a>
</g>
</g>
<!-- Node12&#45;&gt;Node13 -->
<g id="edge12" class="edge">
<title>Node12&#45;&gt;Node13</title>
<path fill="none" stroke="midnightblue" d="M1866.53,-170.91C1858.94,-169.43 1851.35,-168.1 1844,-167 1603.9,-131.23 1539.1,-166.77 1299,-131 1288.43,-129.43 1277.37,-127.35 1266.52,-125.06"/>
<polygon fill="midnightblue" stroke="midnightblue" points="1865.99,-174.38 1876.48,-172.94 1867.38,-167.52 1865.99,-174.38"/>
</g>
<!-- Node14 -->
<g id="node14" class="node">
<title>Node14</title>
<g id="a_node14"><a xlink:href="remove__asm_8cpp.html" target="_top" xlink:title=" ">
<polygon fill="none" stroke="black" points="1308,-84 1308,-125 1508,-125 1508,-84 1308,-84"/>
<text text-anchor="start" x="1316" y="-113" font-family="Helvetica,sans-Serif" font-size="10.00">/home/runner/work/cbmc</text>
<text text-anchor="start" x="1316" y="-102" font-family="Helvetica,sans-Serif" font-size="10.00">&#45;documentation/cbmc&#45;documentation</text>
<text text-anchor="middle" x="1408" y="-91" font-family="Helvetica,sans-Serif" font-size="10.00">/src/assembler/remove_asm.cpp</text>
</a>
</g>
</g>
<!-- Node12&#45;&gt;Node14 -->
<g id="edge13" class="edge">
<title>Node12&#45;&gt;Node14</title>
<path fill="none" stroke="midnightblue" d="M1864.51,-170.86C1857.59,-169.46 1850.69,-168.15 1844,-167 1699.89,-142.3 1661.11,-155.7 1517,-131 1507.04,-129.29 1496.63,-127.23 1486.36,-125.02"/>
<polygon fill="midnightblue" stroke="midnightblue" points="1864.14,-174.36 1874.64,-172.98 1865.57,-167.51 1864.14,-174.36"/>
</g>
<!-- Node16 -->
<g id="node16" class="node">
<title>Node16</title>
<g id="a_node16"><a xlink:href="crangler__parse__options_8cpp.html" target="_top" xlink:title=" ">
<polygon fill="none" stroke="black" points="1526,-78.5 1526,-130.5 1726,-130.5 1726,-78.5 1526,-78.5"/>
<text text-anchor="start" x="1534" y="-118.5" font-family="Helvetica,sans-Serif" font-size="10.00">/home/runner/work/cbmc</text>
<text text-anchor="start" x="1534" y="-107.5" font-family="Helvetica,sans-Serif" font-size="10.00">&#45;documentation/cbmc&#45;documentation</text>
<text text-anchor="start" x="1534" y="-96.5" font-family="Helvetica,sans-Serif" font-size="10.00">/src/crangler/crangler_parse</text>
<text text-anchor="middle" x="1626" y="-85.5" font-family="Helvetica,sans-Serif" font-size="10.00">_options.cpp</text>
</a>
</g>
</g>
<!-- Node15&#45;&gt;Node16 -->
<g id="edge16" class="edge">
<title>Node15&#45;&gt;Node16</title>
<path fill="none" stroke="midnightblue" d="M2605.74,-191.58C2423.54,-188.72 2048.58,-177.18 1735,-131 1732.12,-130.58 1729.2,-130.11 1726.25,-129.62"/>
<polygon fill="midnightblue" stroke="midnightblue" points="2605.81,-195.08 2615.86,-191.73 2605.92,-188.08 2605.81,-195.08"/>
</g>
<!-- Node17 -->
<g id="node17" class="node">
<title>Node17</title>
<g id="a_node17"><a xlink:href="taint__parser_8cpp.html" target="_top" xlink:title=" ">
<polygon fill="none" stroke="black" points="1744,-84 1744,-125 1944,-125 1944,-84 1744,-84"/>
<text text-anchor="start" x="1752" y="-113" font-family="Helvetica,sans-Serif" font-size="10.00">/home/runner/work/cbmc</text>
<text text-anchor="start" x="1752" y="-102" font-family="Helvetica,sans-Serif" font-size="10.00">&#45;documentation/cbmc&#45;documentation</text>
<text text-anchor="middle" x="1844" y="-91" font-family="Helvetica,sans-Serif" font-size="10.00">/src/goto&#45;analyzer/taint_parser.cpp</text>
</a>
</g>
</g>
<!-- Node15&#45;&gt;Node17 -->
<g id="edge17" class="edge">
<title>Node15&#45;&gt;Node17</title>
<path fill="none" stroke="midnightblue" d="M2605.7,-188.78C2456.79,-182.58 2183.55,-167.05 1953,-131 1942.63,-129.38 1931.79,-127.31 1921.13,-125.05"/>
<polygon fill="midnightblue" stroke="midnightblue" points="2605.63,-192.28 2615.76,-189.19 2605.91,-185.29 2605.63,-192.28"/>
</g>
<!-- Node18 -->
<g id="node18" class="node">
<title>Node18</title>
<g id="a_node18"><a xlink:href="linker__script__merge_8cpp.html" target="_top" xlink:title=" ">
<polygon fill="none" stroke="black" points="1962,-84 1962,-125 2162,-125 2162,-84 1962,-84"/>
<text text-anchor="start" x="1970" y="-113" font-family="Helvetica,sans-Serif" font-size="10.00">/home/runner/work/cbmc</text>
<text text-anchor="start" x="1970" y="-102" font-family="Helvetica,sans-Serif" font-size="10.00">&#45;documentation/cbmc&#45;documentation</text>
<text text-anchor="middle" x="2062" y="-91" font-family="Helvetica,sans-Serif" font-size="10.00">/src/goto&#45;cc/linker_script_merge.cpp</text>
</a>
</g>
</g>
<!-- Node15&#45;&gt;Node18 -->
<g id="edge18" class="edge">
<title>Node15&#45;&gt;Node18</title>
<path fill="none" stroke="midnightblue" d="M2605.65,-183.88C2495.17,-174.35 2320.56,-156.84 2171,-131 2161.14,-129.3 2150.83,-127.25 2140.66,-125.06"/>
<polygon fill="midnightblue" stroke="midnightblue" points="2605.54,-187.38 2615.8,-184.75 2606.14,-180.41 2605.54,-187.38"/>
</g>
<!-- Node19 -->
<g id="node19" class="node">
<title>Node19</title>
<g id="a_node19"><a xlink:href="memory__snapshot__harness__generator_8cpp.html" target="_top" xlink:title=" ">
<polygon fill="none" stroke="black" points="2180,-78.5 2180,-130.5 2380,-130.5 2380,-78.5 2180,-78.5"/>
<text text-anchor="start" x="2188" y="-118.5" font-family="Helvetica,sans-Serif" font-size="10.00">/home/runner/work/cbmc</text>
<text text-anchor="start" x="2188" y="-107.5" font-family="Helvetica,sans-Serif" font-size="10.00">&#45;documentation/cbmc&#45;documentation</text>
<text text-anchor="start" x="2188" y="-96.5" font-family="Helvetica,sans-Serif" font-size="10.00">/src/goto&#45;harness/memory_snapshot</text>
<text text-anchor="middle" x="2280" y="-85.5" font-family="Helvetica,sans-Serif" font-size="10.00">_harness_generator.cpp</text>
</a>
</g>
</g>
<!-- Node15&#45;&gt;Node19 -->
<g id="edge19" class="edge">
<title>Node15&#45;&gt;Node19</title>
<path fill="none" stroke="midnightblue" d="M2605.91,-173.04C2542.37,-161.5 2461.03,-146.19 2389,-131 2386.05,-130.38 2383.06,-129.74 2380.05,-129.08"/>
<polygon fill="midnightblue" stroke="midnightblue" points="2605.49,-176.52 2615.95,-174.86 2606.74,-169.63 2605.49,-176.52"/>
</g>
<!-- Node20 -->
<g id="node20" class="node">
<title>Node20</title>
<g id="a_node20"><a xlink:href="restrict__function__pointers_8cpp.html" target="_top" xlink:title=" ">
<polygon fill="none" stroke="black" points="2398,-78.5 2398,-130.5 2598,-130.5 2598,-78.5 2398,-78.5"/>
<text text-anchor="start" x="2406" y="-118.5" font-family="Helvetica,sans-Serif" font-size="10.00">/home/runner/work/cbmc</text>
<text text-anchor="start" x="2406" y="-107.5" font-family="Helvetica,sans-Serif" font-size="10.00">&#45;documentation/cbmc&#45;documentation</text>
<text text-anchor="start" x="2406" y="-96.5" font-family="Helvetica,sans-Serif" font-size="10.00">/src/goto&#45;programs/restrict_function</text>
<text text-anchor="middle" x="2498" y="-85.5" font-family="Helvetica,sans-Serif" font-size="10.00">_pointers.cpp</text>
</a>
</g>
</g>
<!-- Node15&#45;&gt;Node20 -->
<g id="edge20" class="edge">
<title>Node15&#45;&gt;Node20</title>
<path fill="none" stroke="midnightblue" d="M2657.62,-169.2C2627.75,-157.28 2591.35,-142.75 2560.86,-130.58"/>
<polygon fill="midnightblue" stroke="midnightblue" points="2656.49,-172.52 2667.08,-172.98 2659.09,-166.02 2656.49,-172.52"/>
</g>
<!-- Node21 -->
<g id="node21" class="node">
<title>Node21</title>
<g id="a_node21"><a xlink:href="json__interface_8cpp.html" target="_top" xlink:title=" ">
<polygon fill="none" stroke="black" points="2616,-84 2616,-125 2816,-125 2816,-84 2616,-84"/>
<text text-anchor="start" x="2624" y="-113" font-family="Helvetica,sans-Serif" font-size="10.00">/home/runner/work/cbmc</text>
<text text-anchor="start" x="2624" y="-102" font-family="Helvetica,sans-Serif" font-size="10.00">&#45;documentation/cbmc&#45;documentation</text>
<text text-anchor="middle" x="2716" y="-91" font-family="Helvetica,sans-Serif" font-size="10.00">/src/json/json_interface.cpp</text>
</a>
</g>
</g>
<!-- Node15&#45;&gt;Node21 -->
<g id="edge21" class="edge">
<title>Node15&#45;&gt;Node21</title>
<path fill="none" stroke="midnightblue" d="M2716,-162.44C2716,-150.1 2716,-136.16 2716,-125.16"/>
<polygon fill="midnightblue" stroke="midnightblue" points="2712.5,-162.76 2716,-172.76 2719.5,-162.76 2712.5,-162.76"/>
</g>
<!-- Node22 -->
<g id="node22" class="node">
<title>Node22</title>
<g id="a_node22"><a xlink:href="json__parser_8cpp.html" target="_top" xlink:title=" ">
<polygon fill="none" stroke="black" points="2834,-84 2834,-125 3034,-125 3034,-84 2834,-84"/>
<text text-anchor="start" x="2842" y="-113" font-family="Helvetica,sans-Serif" font-size="10.00">/home/runner/work/cbmc</text>
<text text-anchor="start" x="2842" y="-102" font-family="Helvetica,sans-Serif" font-size="10.00">&#45;documentation/cbmc&#45;documentation</text>
<text text-anchor="middle" x="2934" y="-91" font-family="Helvetica,sans-Serif" font-size="10.00">/src/json/json_parser.cpp</text>
</a>
</g>
</g>
<!-- Node15&#45;&gt;Node22 -->
<g id="edge22" class="edge">
<title>Node15&#45;&gt;Node22</title>
<path fill="none" stroke="midnightblue" d="M2774.41,-169.19C2808.92,-155.42 2852.11,-138.18 2884.86,-125.11"/>
<polygon fill="midnightblue" stroke="midnightblue" points="2772.91,-166.02 2764.92,-172.98 2775.51,-172.52 2772.91,-166.02"/>
</g>
<!-- Node23 -->
<g id="node23" class="node">
<title>Node23</title>
<g id="a_node23"><a xlink:href="json__symtab__language_8cpp.html" target="_top" xlink:title=" ">
<polygon fill="none" stroke="black" points="3052,-78.5 3052,-130.5 3252,-130.5 3252,-78.5 3052,-78.5"/>
<text text-anchor="start" x="3060" y="-118.5" font-family="Helvetica,sans-Serif" font-size="10.00">/home/runner/work/cbmc</text>
<text text-anchor="start" x="3060" y="-107.5" font-family="Helvetica,sans-Serif" font-size="10.00">&#45;documentation/cbmc&#45;documentation</text>
<text text-anchor="start" x="3060" y="-96.5" font-family="Helvetica,sans-Serif" font-size="10.00">/src/json&#45;symtab&#45;language/json</text>
<text text-anchor="middle" x="3152" y="-85.5" font-family="Helvetica,sans-Serif" font-size="10.00">_symtab_language.cpp</text>
</a>
</g>
</g>
<!-- Node15&#45;&gt;Node23 -->
<g id="edge23" class="edge">
<title>Node15&#45;&gt;Node23</title>
<path fill="none" stroke="midnightblue" d="M2826.09,-173.04C2889.63,-161.5 2970.97,-146.19 3043,-131 3045.95,-130.38 3048.94,-129.74 3051.95,-129.08"/>
<polygon fill="midnightblue" stroke="midnightblue" points="2825.26,-169.63 2816.05,-174.86 2826.51,-176.52 2825.26,-169.63"/>
</g>
<!-- Node24 -->
<g id="node24" class="node">
<title>Node24</title>
<g id="a_node24"><a xlink:href="java__bytecode__language_8cpp.html" target="_top" xlink:title=" ">
<polygon fill="none" stroke="black" points="3270,-78.5 3270,-130.5 3470,-130.5 3470,-78.5 3270,-78.5"/>
<text text-anchor="start" x="3278" y="-118.5" font-family="Helvetica,sans-Serif" font-size="10.00">/home/runner/work/cbmc</text>
<text text-anchor="start" x="3278" y="-107.5" font-family="Helvetica,sans-Serif" font-size="10.00">&#45;documentation/cbmc&#45;documentation</text>
<text text-anchor="start" x="3278" y="-96.5" font-family="Helvetica,sans-Serif" font-size="10.00">/jbmc/src/java_bytecode/java</text>
<text text-anchor="middle" x="3370" y="-85.5" font-family="Helvetica,sans-Serif" font-size="10.00">_bytecode_language.cpp</text>
</a>
</g>
</g>
<!-- Node15&#45;&gt;Node24 -->
<g id="edge24" class="edge">
<title>Node15&#45;&gt;Node24</title>
<path fill="none" stroke="midnightblue" d="M2826.35,-183.88C2936.83,-174.35 3111.44,-156.84 3261,-131 3263.87,-130.5 3266.78,-129.98 3269.72,-129.43"/>
<polygon fill="midnightblue" stroke="midnightblue" points="2825.86,-180.41 2816.2,-184.75 2826.46,-187.38 2825.86,-180.41"/>
</g>
<!-- Node25 -->
<g id="node25" class="node">
<title>Node25</title>
<g id="a_node25"><a xlink:href="java__class__loader__limit_8cpp.html" target="_top" xlink:title=" ">
<polygon fill="none" stroke="black" points="3488,-78.5 3488,-130.5 3688,-130.5 3688,-78.5 3488,-78.5"/>
<text text-anchor="start" x="3496" y="-118.5" font-family="Helvetica,sans-Serif" font-size="10.00">/home/runner/work/cbmc</text>
<text text-anchor="start" x="3496" y="-107.5" font-family="Helvetica,sans-Serif" font-size="10.00">&#45;documentation/cbmc&#45;documentation</text>
<text text-anchor="start" x="3496" y="-96.5" font-family="Helvetica,sans-Serif" font-size="10.00">/jbmc/src/java_bytecode/java</text>
<text text-anchor="middle" x="3588" y="-85.5" font-family="Helvetica,sans-Serif" font-size="10.00">_class_loader_limit.cpp</text>
</a>
</g>
</g>
<!-- Node15&#45;&gt;Node25 -->
<g id="edge25" class="edge">
<title>Node15&#45;&gt;Node25</title>
<path fill="none" stroke="midnightblue" d="M2826.3,-188.78C2975.21,-182.58 3248.45,-167.05 3479,-131 3481.88,-130.55 3484.8,-130.06 3487.74,-129.55"/>
<polygon fill="midnightblue" stroke="midnightblue" points="2826.09,-185.29 2816.24,-189.19 2826.37,-192.28 2826.09,-185.29"/>
</g>
<!-- Node27 -->
<g id="node27" class="node">
<title>Node27</title>
<g id="a_node27"><a xlink:href="jsil__language_8cpp.html" target="_top" xlink:title=" ">
<polygon fill="none" stroke="black" points="3706,-84 3706,-125 3906,-125 3906,-84 3706,-84"/>
<text text-anchor="start" x="3714" y="-113" font-family="Helvetica,sans-Serif" font-size="10.00">/home/runner/work/cbmc</text>
<text text-anchor="start" x="3714" y="-102" font-family="Helvetica,sans-Serif" font-size="10.00">&#45;documentation/cbmc&#45;documentation</text>
<text text-anchor="middle" x="3806" y="-91" font-family="Helvetica,sans-Serif" font-size="10.00">/src/jsil/jsil_language.cpp</text>
</a>
</g>
</g>
<!-- Node26&#45;&gt;Node27 -->
<g id="edge27" class="edge">
<title>Node26&#45;&gt;Node27</title>
<path fill="none" stroke="midnightblue" d="M3806,-162.44C3806,-150.1 3806,-136.16 3806,-125.16"/>
<polygon fill="midnightblue" stroke="midnightblue" points="3802.5,-162.76 3806,-172.76 3809.5,-162.76 3802.5,-162.76"/>
</g>
<!-- Node28 -->
<g id="node28" class="node">
<title>Node28</title>
<g id="a_node28"><a xlink:href="jsil__parser_8cpp.html" target="_top" xlink:title=" ">
<polygon fill="none" stroke="black" points="3924,-84 3924,-125 4124,-125 4124,-84 3924,-84"/>
<text text-anchor="start" x="3932" y="-113" font-family="Helvetica,sans-Serif" font-size="10.00">/home/runner/work/cbmc</text>
<text text-anchor="start" x="3932" y="-102" font-family="Helvetica,sans-Serif" font-size="10.00">&#45;documentation/cbmc&#45;documentation</text>
<text text-anchor="middle" x="4024" y="-91" font-family="Helvetica,sans-Serif" font-size="10.00">/src/jsil/jsil_parser.cpp</text>
</a>
</g>
</g>
<!-- Node26&#45;&gt;Node28 -->
<g id="edge28" class="edge">
<title>Node26&#45;&gt;Node28</title>
<path fill="none" stroke="midnightblue" d="M3864.41,-169.19C3898.92,-155.42 3942.11,-138.18 3974.86,-125.11"/>
<polygon fill="midnightblue" stroke="midnightblue" points="3862.91,-166.02 3854.92,-172.98 3865.51,-172.52 3862.91,-166.02"/>
</g>
<!-- Node30 -->
<g id="node30" class="node">
<title>Node30</title>
<g id="a_node30"><a xlink:href="statement__list__language_8cpp.html" target="_top" xlink:title=" ">
<polygon fill="none" stroke="black" points="4142,-78.5 4142,-130.5 4342,-130.5 4342,-78.5 4142,-78.5"/>
<text text-anchor="start" x="4150" y="-118.5" font-family="Helvetica,sans-Serif" font-size="10.00">/home/runner/work/cbmc</text>
<text text-anchor="start" x="4150" y="-107.5" font-family="Helvetica,sans-Serif" font-size="10.00">&#45;documentation/cbmc&#45;documentation</text>
<text text-anchor="start" x="4150" y="-96.5" font-family="Helvetica,sans-Serif" font-size="10.00">/src/statement&#45;list/statement</text>
<text text-anchor="middle" x="4242" y="-85.5" font-family="Helvetica,sans-Serif" font-size="10.00">_list_language.cpp</text>
</a>
</g>
</g>
<!-- Node29&#45;&gt;Node30 -->
<g id="edge30" class="edge">
<title>Node29&#45;&gt;Node30</title>
<path fill="none" stroke="midnightblue" d="M4172.55,-160.93C4185.05,-150.96 4198.69,-140.07 4210.54,-130.61"/>
<polygon fill="midnightblue" stroke="midnightblue" points="4170.16,-158.36 4164.53,-167.34 4174.53,-163.83 4170.16,-158.36"/>
</g>
<!-- Node31 -->
<g id="node31" class="node">
<title>Node31</title>
<g id="a_node31"><a xlink:href="statement__list__parser_8cpp.html" target="_top" xlink:title=" ">
<polygon fill="none" stroke="black" points="4360,-78.5 4360,-130.5 4560,-130.5 4560,-78.5 4360,-78.5"/>
<text text-anchor="start" x="4368" y="-118.5" font-family="Helvetica,sans-Serif" font-size="10.00">/home/runner/work/cbmc</text>
<text text-anchor="start" x="4368" y="-107.5" font-family="Helvetica,sans-Serif" font-size="10.00">&#45;documentation/cbmc&#45;documentation</text>
<text text-anchor="start" x="4368" y="-96.5" font-family="Helvetica,sans-Serif" font-size="10.00">/src/statement&#45;list/statement</text>
<text text-anchor="middle" x="4460" y="-85.5" font-family="Helvetica,sans-Serif" font-size="10.00">_list_parser.cpp</text>
</a>
</g>
</g>
<!-- Node29&#45;&gt;Node31 -->
<g id="edge31" class="edge">
<title>Node29&#45;&gt;Node31</title>
<path fill="none" stroke="midnightblue" d="M4236.97,-164.84C4278.35,-153.83 4325.62,-141.25 4365.96,-130.52"/>
<polygon fill="midnightblue" stroke="midnightblue" points="4235.91,-161.5 4227.14,-167.45 4237.71,-168.26 4235.91,-161.5"/>
</g>
<!-- Node34 -->
<g id="node34" class="node">
<title>Node34</title>
<g id="a_node34"><a xlink:href="graphml_8cpp.html" target="_top" xlink:title=" ">
<polygon fill="none" stroke="black" points="4578,-84 4578,-125 4778,-125 4778,-84 4578,-84"/>
<text text-anchor="start" x="4586" y="-113" font-family="Helvetica,sans-Serif" font-size="10.00">/home/runner/work/cbmc</text>
<text text-anchor="start" x="4586" y="-102" font-family="Helvetica,sans-Serif" font-size="10.00">&#45;documentation/cbmc&#45;documentation</text>
<text text-anchor="middle" x="4678" y="-91" font-family="Helvetica,sans-Serif" font-size="10.00">/src/xmllang/graphml.cpp</text>
</a>
</g>
</g>
<!-- Node33&#45;&gt;Node34 -->
<g id="edge34" class="edge">
<title>Node33&#45;&gt;Node34</title>
<path fill="none" stroke="midnightblue" d="M4678,-162.44C4678,-150.1 4678,-136.16 4678,-125.16"/>
<polygon fill="midnightblue" stroke="midnightblue" points="4674.5,-162.76 4678,-172.76 4681.5,-162.76 4674.5,-162.76"/>
</g>
<!-- Node35 -->
<g id="node35" class="node">
<title>Node35</title>
<g id="a_node35"><a xlink:href="xml__interface_8cpp.html" target="_top" xlink:title=" ">
<polygon fill="none" stroke="black" points="4796,-84 4796,-125 4996,-125 4996,-84 4796,-84"/>
<text text-anchor="start" x="4804" y="-113" font-family="Helvetica,sans-Serif" font-size="10.00">/home/runner/work/cbmc</text>
<text text-anchor="start" x="4804" y="-102" font-family="Helvetica,sans-Serif" font-size="10.00">&#45;documentation/cbmc&#45;documentation</text>
<text text-anchor="middle" x="4896" y="-91" font-family="Helvetica,sans-Serif" font-size="10.00">/src/xmllang/xml_interface.cpp</text>
</a>
</g>
</g>
<!-- Node33&#45;&gt;Node35 -->
<g id="edge35" class="edge">
<title>Node33&#45;&gt;Node35</title>
<path fill="none" stroke="midnightblue" d="M4736.41,-169.19C4770.92,-155.42 4814.11,-138.18 4846.86,-125.11"/>
<polygon fill="midnightblue" stroke="midnightblue" points="4734.91,-166.02 4726.92,-172.98 4737.51,-172.52 4734.91,-166.02"/>
</g>
<!-- Node36 -->
<g id="node36" class="node">
<title>Node36</title>
<g id="a_node36"><a xlink:href="xml__parser_8cpp.html" target="_top" xlink:title=" ">
<polygon fill="none" stroke="black" points="5014,-84 5014,-125 5214,-125 5214,-84 5014,-84"/>
<text text-anchor="start" x="5022" y="-113" font-family="Helvetica,sans-Serif" font-size="10.00">/home/runner/work/cbmc</text>
<text text-anchor="start" x="5022" y="-102" font-family="Helvetica,sans-Serif" font-size="10.00">&#45;documentation/cbmc&#45;documentation</text>
<text text-anchor="middle" x="5114" y="-91" font-family="Helvetica,sans-Serif" font-size="10.00">/src/xmllang/xml_parser.cpp</text>
</a>
</g>
</g>
<!-- Node33&#45;&gt;Node36 -->
<g id="edge36" class="edge">
<title>Node33&#45;&gt;Node36</title>
<path fill="none" stroke="midnightblue" d="M4768.6,-170.82C4774.82,-169.48 4781,-168.2 4787,-167 4883.31,-147.8 4908.69,-150.2 5005,-131 5014.15,-129.18 5023.7,-127.14 5033.18,-125.04"/>
<polygon fill="midnightblue" stroke="midnightblue" points="4767.84,-167.41 4758.82,-172.96 4769.34,-174.25 4767.84,-167.41"/>
</g>
</g>
</svg>
