<?xml version="1.0" encoding="UTF-8" standalone="no"?>
<!DOCTYPE svg PUBLIC "-//W3C//DTD SVG 1.1//EN"
 "http://www.w3.org/Graphics/SVG/1.1/DTD/svg11.dtd">
<!-- Generated by graphviz version 2.43.0 (0)
 -->
<!-- Title: /home/runner/work/cbmc&#45;documentation/cbmc&#45;documentation/src/goto&#45;instrument/accelerate/path.h Pages: 1 -->
<svg width="1921pt" height="406pt"
 viewBox="0.00 0.00 1921.06 406.00" xmlns="http://www.w3.org/2000/svg" xmlns:xlink="http://www.w3.org/1999/xlink">
<g id="graph0" class="graph" transform="scale(1 1) rotate(0) translate(4 402)">
<title>/home/runner/work/cbmc&#45;documentation/cbmc&#45;documentation/src/goto&#45;instrument/accelerate/path.h</title>
<!-- Node1 -->
<g id="node1" class="node">
<title>Node1</title>
<g id="a_node1"><a xlink:title=" ">
<polygon fill="#bfbfbf" stroke="black" points="750.56,-356.5 750.56,-397.5 953.56,-397.5 953.56,-356.5 750.56,-356.5"/>
<text text-anchor="start" x="758.56" y="-385.5" font-family="Helvetica,sans-Serif" font-size="10.00">/home/runner/work/cbmc</text>
<text text-anchor="start" x="758.56" y="-374.5" font-family="Helvetica,sans-Serif" font-size="10.00">&#45;documentation/cbmc&#45;documentation</text>
<text text-anchor="middle" x="852.06" y="-363.5" font-family="Helvetica,sans-Serif" font-size="10.00">/src/goto&#45;instrument/accelerate/path.h</text>
</a>
</g>
</g>
<!-- Node2 -->
<g id="node2" class="node">
<title>Node2</title>
<g id="a_node2"><a xlink:href="accelerate_8h.html" target="_top" xlink:title=" ">
<polygon fill="none" stroke="black" points="256.06,-178.5 256.06,-230.5 456.06,-230.5 456.06,-178.5 256.06,-178.5"/>
<text text-anchor="start" x="264.06" y="-218.5" font-family="Helvetica,sans-Serif" font-size="10.00">/home/runner/work/cbmc</text>
<text text-anchor="start" x="264.06" y="-207.5" font-family="Helvetica,sans-Serif" font-size="10.00">&#45;documentation/cbmc&#45;documentation</text>
<text text-anchor="start" x="264.06" y="-196.5" font-family="Helvetica,sans-Serif" font-size="10.00">/src/goto&#45;instrument/accelerate</text>
<text text-anchor="middle" x="356.06" y="-185.5" font-family="Helvetica,sans-Serif" font-size="10.00">/accelerate.h</text>
</a>
</g>
</g>
<!-- Node1&#45;&gt;Node2 -->
<g id="edge1" class="edge">
<title>Node1&#45;&gt;Node2</title>
<path fill="none" stroke="midnightblue" d="M740.26,-366.26C655.67,-357.33 547.68,-342.11 509.06,-320 482.49,-304.79 488.56,-286.62 465.06,-267 448.3,-253 427.9,-240.52 409.3,-230.51"/>
<polygon fill="midnightblue" stroke="midnightblue" points="740.15,-369.77 750.46,-367.32 740.87,-362.81 740.15,-369.77"/>
</g>
<!-- Node3 -->
<g id="node3" class="node">
<title>Node3</title>
<g id="a_node3"><a xlink:href="accelerate_8cpp.html" target="_top" xlink:title=" ">
<polygon fill="none" stroke="black" points="619.06,-0.5 619.06,-52.5 819.06,-52.5 819.06,-0.5 619.06,-0.5"/>
<text text-anchor="start" x="627.06" y="-40.5" font-family="Helvetica,sans-Serif" font-size="10.00">/home/runner/work/cbmc</text>
<text text-anchor="start" x="627.06" y="-29.5" font-family="Helvetica,sans-Serif" font-size="10.00">&#45;documentation/cbmc&#45;documentation</text>
<text text-anchor="start" x="627.06" y="-18.5" font-family="Helvetica,sans-Serif" font-size="10.00">/src/goto&#45;instrument/accelerate</text>
<text text-anchor="middle" x="719.06" y="-7.5" font-family="Helvetica,sans-Serif" font-size="10.00">/accelerate.cpp</text>
</a>
</g>
</g>
<!-- Node1&#45;&gt;Node3 -->
<g id="edge35" class="edge">
<title>Node1&#45;&gt;Node3</title>
<path fill="none" stroke="midnightblue" d="M740.37,-372.72C577.01,-366.9 281.35,-352.21 180.06,-320 105.82,-296.39 75.27,-293.72 29.06,-231 4.95,-198.28 12.76,-182.37 8.06,-142 5.34,-118.6 -7.86,-106.36 8.06,-89 48.49,-44.92 432.56,-32.35 618.78,-28.83"/>
<polygon fill="midnightblue" stroke="midnightblue" points="740.34,-376.22 750.45,-373.07 740.58,-369.22 740.34,-376.22"/>
</g>
<!-- Node5 -->
<g id="node5" class="node">
<title>Node5</title>
<g id="a_node5"><a xlink:href="trace__automaton_8h.html" target="_top" xlink:title=" ">
<polygon fill="none" stroke="black" points="256.06,-267.5 256.06,-319.5 456.06,-319.5 456.06,-267.5 256.06,-267.5"/>
<text text-anchor="start" x="264.06" y="-307.5" font-family="Helvetica,sans-Serif" font-size="10.00">/home/runner/work/cbmc</text>
<text text-anchor="start" x="264.06" y="-296.5" font-family="Helvetica,sans-Serif" font-size="10.00">&#45;documentation/cbmc&#45;documentation</text>
<text text-anchor="start" x="264.06" y="-285.5" font-family="Helvetica,sans-Serif" font-size="10.00">/src/goto&#45;instrument/accelerate</text>
<text text-anchor="middle" x="356.06" y="-274.5" font-family="Helvetica,sans-Serif" font-size="10.00">/trace_automaton.h</text>
</a>
</g>
</g>
<!-- Node1&#45;&gt;Node5 -->
<g id="edge4" class="edge">
<title>Node1&#45;&gt;Node5</title>
<path fill="none" stroke="midnightblue" d="M740.17,-361.72C664.06,-351.48 561.2,-336.6 471.06,-320 466.23,-319.11 461.3,-318.17 456.32,-317.18"/>
<polygon fill="midnightblue" stroke="midnightblue" points="739.88,-365.21 750.25,-363.07 740.81,-358.27 739.88,-365.21"/>
</g>
<!-- Node6 -->
<g id="node6" class="node">
<title>Node6</title>
<g id="a_node6"><a xlink:href="trace__automaton_8cpp.html" target="_top" xlink:title=" ">
<polygon fill="none" stroke="black" points="38.06,-178.5 38.06,-230.5 238.06,-230.5 238.06,-178.5 38.06,-178.5"/>
<text text-anchor="start" x="46.06" y="-218.5" font-family="Helvetica,sans-Serif" font-size="10.00">/home/runner/work/cbmc</text>
<text text-anchor="start" x="46.06" y="-207.5" font-family="Helvetica,sans-Serif" font-size="10.00">&#45;documentation/cbmc&#45;documentation</text>
<text text-anchor="start" x="46.06" y="-196.5" font-family="Helvetica,sans-Serif" font-size="10.00">/src/goto&#45;instrument/accelerate</text>
<text text-anchor="middle" x="138.06" y="-185.5" font-family="Helvetica,sans-Serif" font-size="10.00">/trace_automaton.cpp</text>
</a>
</g>
</g>
<!-- Node1&#45;&gt;Node6 -->
<g id="edge46" class="edge">
<title>Node1&#45;&gt;Node6</title>
<path fill="none" stroke="midnightblue" d="M740.17,-374.95C589.71,-371.96 331.33,-360.83 247.06,-320 206.06,-300.14 172.4,-257.89 153.8,-230.64"/>
<polygon fill="midnightblue" stroke="midnightblue" points="740.3,-378.45 750.36,-375.14 740.43,-371.45 740.3,-378.45"/>
</g>
<!-- Node7 -->
<g id="node7" class="node">
<title>Node7</title>
<g id="a_node7"><a xlink:href="subsumed_8h.html" target="_top" xlink:title=" ">
<polygon fill="none" stroke="black" points="518.06,-267.5 518.06,-319.5 718.06,-319.5 718.06,-267.5 518.06,-267.5"/>
<text text-anchor="start" x="526.06" y="-307.5" font-family="Helvetica,sans-Serif" font-size="10.00">/home/runner/work/cbmc</text>
<text text-anchor="start" x="526.06" y="-296.5" font-family="Helvetica,sans-Serif" font-size="10.00">&#45;documentation/cbmc&#45;documentation</text>
<text text-anchor="start" x="526.06" y="-285.5" font-family="Helvetica,sans-Serif" font-size="10.00">/src/goto&#45;instrument/accelerate</text>
<text text-anchor="middle" x="618.06" y="-274.5" font-family="Helvetica,sans-Serif" font-size="10.00">/subsumed.h</text>
</a>
</g>
</g>
<!-- Node1&#45;&gt;Node7 -->
<g id="edge7" class="edge">
<title>Node1&#45;&gt;Node7</title>
<path fill="none" stroke="midnightblue" d="M786.48,-353.16C756.46,-342.7 720.81,-330.29 690.06,-319.58"/>
<polygon fill="midnightblue" stroke="midnightblue" points="785.42,-356.49 796.01,-356.48 787.72,-349.88 785.42,-356.49"/>
</g>
<!-- Node8 -->
<g id="node8" class="node">
<title>Node8</title>
<g id="a_node8"><a xlink:href="acceleration__utils_8h.html" target="_top" xlink:title=" ">
<polygon fill="none" stroke="black" points="816.06,-267.5 816.06,-319.5 1016.06,-319.5 1016.06,-267.5 816.06,-267.5"/>
<text text-anchor="start" x="824.06" y="-307.5" font-family="Helvetica,sans-Serif" font-size="10.00">/home/runner/work/cbmc</text>
<text text-anchor="start" x="824.06" y="-296.5" font-family="Helvetica,sans-Serif" font-size="10.00">&#45;documentation/cbmc&#45;documentation</text>
<text text-anchor="start" x="824.06" y="-285.5" font-family="Helvetica,sans-Serif" font-size="10.00">/src/goto&#45;instrument/accelerate</text>
<text text-anchor="middle" x="916.06" y="-274.5" font-family="Helvetica,sans-Serif" font-size="10.00">/acceleration_utils.h</text>
</a>
</g>
</g>
<!-- Node1&#45;&gt;Node8 -->
<g id="edge9" class="edge">
<title>Node1&#45;&gt;Node8</title>
<path fill="none" stroke="midnightblue" d="M873.73,-348.4C881.05,-339.08 889.18,-328.73 896.34,-319.61"/>
<polygon fill="midnightblue" stroke="midnightblue" points="870.98,-346.24 867.55,-356.27 876.48,-350.57 870.98,-346.24"/>
</g>
<!-- Node9 -->
<g id="node9" class="node">
<title>Node9</title>
<g id="a_node9"><a xlink:href="polynomial__accelerator_8h.html" target="_top" xlink:title=" ">
<polygon fill="none" stroke="black" points="956.06,-178.5 956.06,-230.5 1156.06,-230.5 1156.06,-178.5 956.06,-178.5"/>
<text text-anchor="start" x="964.06" y="-218.5" font-family="Helvetica,sans-Serif" font-size="10.00">/home/runner/work/cbmc</text>
<text text-anchor="start" x="964.06" y="-207.5" font-family="Helvetica,sans-Serif" font-size="10.00">&#45;documentation/cbmc&#45;documentation</text>
<text text-anchor="start" x="964.06" y="-196.5" font-family="Helvetica,sans-Serif" font-size="10.00">/src/goto&#45;instrument/accelerate</text>
<text text-anchor="middle" x="1056.06" y="-185.5" font-family="Helvetica,sans-Serif" font-size="10.00">/polynomial_accelerator.h</text>
</a>
</g>
</g>
<!-- Node1&#45;&gt;Node9 -->
<g id="edge28" class="edge">
<title>Node1&#45;&gt;Node9</title>
<path fill="none" stroke="midnightblue" d="M963.41,-357.79C986.27,-349.51 1008.41,-337.48 1025.06,-320 1048.07,-295.84 1054.37,-256.41 1055.9,-230.7"/>
<polygon fill="midnightblue" stroke="midnightblue" points="962.28,-354.48 953.93,-361.01 964.53,-361.11 962.28,-354.48"/>
</g>
<!-- Node14 -->
<g id="node14" class="node">
<title>Node14</title>
<g id="a_node14"><a xlink:href="sat__path__enumerator_8h.html" target="_top" xlink:title=" ">
<polygon fill="none" stroke="black" points="1392.06,-178.5 1392.06,-230.5 1592.06,-230.5 1592.06,-178.5 1392.06,-178.5"/>
<text text-anchor="start" x="1400.06" y="-218.5" font-family="Helvetica,sans-Serif" font-size="10.00">/home/runner/work/cbmc</text>
<text text-anchor="start" x="1400.06" y="-207.5" font-family="Helvetica,sans-Serif" font-size="10.00">&#45;documentation/cbmc&#45;documentation</text>
<text text-anchor="start" x="1400.06" y="-196.5" font-family="Helvetica,sans-Serif" font-size="10.00">/src/goto&#45;instrument/accelerate</text>
<text text-anchor="middle" x="1492.06" y="-185.5" font-family="Helvetica,sans-Serif" font-size="10.00">/sat_path_enumerator.h</text>
</a>
</g>
</g>
<!-- Node1&#45;&gt;Node14 -->
<g id="edge34" class="edge">
<title>Node1&#45;&gt;Node14</title>
<path fill="none" stroke="midnightblue" d="M963.61,-355.09C1011.94,-345.42 1069.03,-333.15 1120.06,-320 1224.43,-293.1 1343.15,-255.27 1417.82,-230.57"/>
<polygon fill="midnightblue" stroke="midnightblue" points="962.87,-351.67 953.75,-357.06 964.24,-358.54 962.87,-351.67"/>
</g>
<!-- Node17 -->
<g id="node17" class="node">
<title>Node17</title>
<g id="a_node17"><a xlink:href="disjunctive__polynomial__acceleration_8h.html" target="_top" xlink:title=" ">
<polygon fill="none" stroke="black" points="730.56,-178.5 730.56,-230.5 937.56,-230.5 937.56,-178.5 730.56,-178.5"/>
<text text-anchor="start" x="738.56" y="-218.5" font-family="Helvetica,sans-Serif" font-size="10.00">/home/runner/work/cbmc</text>
<text text-anchor="start" x="738.56" y="-207.5" font-family="Helvetica,sans-Serif" font-size="10.00">&#45;documentation/cbmc&#45;documentation</text>
<text text-anchor="start" x="738.56" y="-196.5" font-family="Helvetica,sans-Serif" font-size="10.00">/src/goto&#45;instrument/accelerate</text>
<text text-anchor="middle" x="834.06" y="-185.5" font-family="Helvetica,sans-Serif" font-size="10.00">/disjunctive_polynomial_acceleration.h</text>
</a>
</g>
</g>
<!-- Node1&#45;&gt;Node17 -->
<g id="edge44" class="edge">
<title>Node1&#45;&gt;Node17</title>
<path fill="none" stroke="midnightblue" d="M824.04,-348.65C817.15,-340.18 810.7,-330.34 807.06,-320 796.48,-289.95 808.82,-254 820.08,-230.51"/>
<polygon fill="midnightblue" stroke="midnightblue" points="821.51,-351.07 830.71,-356.32 826.79,-346.48 821.51,-351.07"/>
</g>
<!-- Node18 -->
<g id="node18" class="node">
<title>Node18</title>
<g id="a_node18"><a xlink:href="accelerator_8h.html" target="_top" xlink:title=" ">
<polygon fill="none" stroke="black" points="1174.06,-178.5 1174.06,-230.5 1374.06,-230.5 1374.06,-178.5 1174.06,-178.5"/>
<text text-anchor="start" x="1182.06" y="-218.5" font-family="Helvetica,sans-Serif" font-size="10.00">/home/runner/work/cbmc</text>
<text text-anchor="start" x="1182.06" y="-207.5" font-family="Helvetica,sans-Serif" font-size="10.00">&#45;documentation/cbmc&#45;documentation</text>
<text text-anchor="start" x="1182.06" y="-196.5" font-family="Helvetica,sans-Serif" font-size="10.00">/src/goto&#45;instrument/accelerate</text>
<text text-anchor="middle" x="1274.06" y="-185.5" font-family="Helvetica,sans-Serif" font-size="10.00">/accelerator.h</text>
</a>
</g>
</g>
<!-- Node1&#45;&gt;Node18 -->
<g id="edge23" class="edge">
<title>Node1&#45;&gt;Node18</title>
<path fill="none" stroke="midnightblue" d="M945.44,-353.86C979.21,-344.77 1017.31,-333.26 1051.06,-320 1116.28,-294.38 1187.66,-255.7 1231.67,-230.52"/>
<polygon fill="midnightblue" stroke="midnightblue" points="944.35,-350.53 935.58,-356.47 946.14,-357.29 944.35,-350.53"/>
</g>
<!-- Node19 -->
<g id="node19" class="node">
<title>Node19</title>
<g id="a_node19"><a xlink:href="path__enumerator_8h.html" target="_top" xlink:title=" ">
<polygon fill="none" stroke="black" points="1392.06,-267.5 1392.06,-319.5 1592.06,-319.5 1592.06,-267.5 1392.06,-267.5"/>
<text text-anchor="start" x="1400.06" y="-307.5" font-family="Helvetica,sans-Serif" font-size="10.00">/home/runner/work/cbmc</text>
<text text-anchor="start" x="1400.06" y="-296.5" font-family="Helvetica,sans-Serif" font-size="10.00">&#45;documentation/cbmc&#45;documentation</text>
<text text-anchor="start" x="1400.06" y="-285.5" font-family="Helvetica,sans-Serif" font-size="10.00">/src/goto&#45;instrument/accelerate</text>
<text text-anchor="middle" x="1492.06" y="-274.5" font-family="Helvetica,sans-Serif" font-size="10.00">/path_enumerator.h</text>
</a>
</g>
</g>
<!-- Node1&#45;&gt;Node19 -->
<g id="edge29" class="edge">
<title>Node1&#45;&gt;Node19</title>
<path fill="none" stroke="midnightblue" d="M963.89,-362.57C1055.61,-351.46 1188.79,-335.11 1305.06,-320 1333.17,-316.35 1363.63,-312.25 1391.64,-308.43"/>
<polygon fill="midnightblue" stroke="midnightblue" points="963.26,-359.12 953.76,-363.8 964.1,-366.07 963.26,-359.12"/>
</g>
<!-- Node20 -->
<g id="node20" class="node">
<title>Node20</title>
<g id="a_node20"><a xlink:href="all__paths__enumerator_8h.html" target="_top" xlink:title=" ">
<polygon fill="none" stroke="black" points="1648.06,-178.5 1648.06,-230.5 1848.06,-230.5 1848.06,-178.5 1648.06,-178.5"/>
<text text-anchor="start" x="1656.06" y="-218.5" font-family="Helvetica,sans-Serif" font-size="10.00">/home/runner/work/cbmc</text>
<text text-anchor="start" x="1656.06" y="-207.5" font-family="Helvetica,sans-Serif" font-size="10.00">&#45;documentation/cbmc&#45;documentation</text>
<text text-anchor="start" x="1656.06" y="-196.5" font-family="Helvetica,sans-Serif" font-size="10.00">/src/goto&#45;instrument/accelerate</text>
<text text-anchor="middle" x="1748.06" y="-185.5" font-family="Helvetica,sans-Serif" font-size="10.00">/all_paths_enumerator.h</text>
</a>
</g>
</g>
<!-- Node1&#45;&gt;Node20 -->
<g id="edge43" class="edge">
<title>Node1&#45;&gt;Node20</title>
<path fill="none" stroke="midnightblue" d="M963.58,-372.78C1158.75,-366.39 1546.74,-350.06 1601.06,-320 1626.65,-305.84 1618.21,-286.44 1640.06,-267 1656.02,-252.8 1675.79,-240.39 1694.03,-230.5"/>
<polygon fill="midnightblue" stroke="midnightblue" points="963.46,-369.28 953.58,-373.1 963.69,-376.28 963.46,-369.28"/>
</g>
<!-- Node22 -->
<g id="node22" class="node">
<title>Node22</title>
<g id="a_node22"><a xlink:href="scratch__program_8h.html" target="_top" xlink:title=" ">
<polygon fill="none" stroke="black" points="512.06,-178.5 512.06,-230.5 712.06,-230.5 712.06,-178.5 512.06,-178.5"/>
<text text-anchor="start" x="520.06" y="-218.5" font-family="Helvetica,sans-Serif" font-size="10.00">/home/runner/work/cbmc</text>
<text text-anchor="start" x="520.06" y="-207.5" font-family="Helvetica,sans-Serif" font-size="10.00">&#45;documentation/cbmc&#45;documentation</text>
<text text-anchor="start" x="520.06" y="-196.5" font-family="Helvetica,sans-Serif" font-size="10.00">/src/goto&#45;instrument/accelerate</text>
<text text-anchor="middle" x="612.06" y="-185.5" font-family="Helvetica,sans-Serif" font-size="10.00">/scratch_program.h</text>
</a>
</g>
</g>
<!-- Node1&#45;&gt;Node22 -->
<g id="edge36" class="edge">
<title>Node1&#45;&gt;Node22</title>
<path fill="none" stroke="midnightblue" d="M825,-349.19C800.64,-325.85 763.2,-291.94 727.06,-267 707.59,-253.56 684.85,-240.85 664.76,-230.5"/>
<polygon fill="midnightblue" stroke="midnightblue" points="822.81,-351.94 832.44,-356.37 827.68,-346.9 822.81,-351.94"/>
</g>
<!-- Node24 -->
<g id="node24" class="node">
<title>Node24</title>
<g id="a_node24"><a xlink:href="path_8cpp.html" target="_top" xlink:title=" ">
<polygon fill="none" stroke="black" points="1648.56,-273 1648.56,-314 1863.56,-314 1863.56,-273 1648.56,-273"/>
<text text-anchor="start" x="1656.56" y="-302" font-family="Helvetica,sans-Serif" font-size="10.00">/home/runner/work/cbmc</text>
<text text-anchor="start" x="1656.56" y="-291" font-family="Helvetica,sans-Serif" font-size="10.00">&#45;documentation/cbmc&#45;documentation</text>
<text text-anchor="middle" x="1756.06" y="-280" font-family="Helvetica,sans-Serif" font-size="10.00">/src/goto&#45;instrument/accelerate/path.cpp</text>
</a>
</g>
</g>
<!-- Node1&#45;&gt;Node24 -->
<g id="edge45" class="edge">
<title>Node1&#45;&gt;Node24</title>
<path fill="none" stroke="midnightblue" d="M964.04,-372.72C1116.3,-367.17 1396.86,-353.13 1634.06,-320 1645.63,-318.38 1657.75,-316.31 1669.67,-314.06"/>
<polygon fill="midnightblue" stroke="midnightblue" points="963.61,-369.23 953.74,-373.08 963.86,-376.22 963.61,-369.23"/>
</g>
<!-- Node2&#45;&gt;Node3 -->
<g id="edge2" class="edge">
<title>Node2&#45;&gt;Node3</title>
<path fill="none" stroke="midnightblue" d="M291.72,-172.63C280.6,-164.29 270.54,-154.14 264.06,-142 252.96,-121.22 248.56,-106.74 264.06,-89 287.06,-62.68 492.08,-43.56 618.94,-34.13"/>
<polygon fill="midnightblue" stroke="midnightblue" points="289.77,-175.54 299.97,-178.38 293.77,-169.79 289.77,-175.54"/>
</g>
<!-- Node4 -->
<g id="node4" class="node">
<title>Node4</title>
<g id="a_node4"><a xlink:href="goto__instrument__parse__options_8cpp.html" target="_top" xlink:title=" ">
<polygon fill="none" stroke="black" points="17.06,-89.5 17.06,-141.5 217.06,-141.5 217.06,-89.5 17.06,-89.5"/>
<text text-anchor="start" x="25.06" y="-129.5" font-family="Helvetica,sans-Serif" font-size="10.00">/home/runner/work/cbmc</text>
<text text-anchor="start" x="25.06" y="-118.5" font-family="Helvetica,sans-Serif" font-size="10.00">&#45;documentation/cbmc&#45;documentation</text>
<text text-anchor="start" x="25.06" y="-107.5" font-family="Helvetica,sans-Serif" font-size="10.00">/src/goto&#45;instrument/goto_instrument</text>
<text text-anchor="middle" x="117.06" y="-96.5" font-family="Helvetica,sans-Serif" font-size="10.00">_parse_options.cpp</text>
</a>
</g>
</g>
<!-- Node2&#45;&gt;Node4 -->
<g id="edge3" class="edge">
<title>Node2&#45;&gt;Node4</title>
<path fill="none" stroke="midnightblue" d="M277.76,-175C248.08,-164.19 214.53,-151.98 185.8,-141.52"/>
<polygon fill="midnightblue" stroke="midnightblue" points="276.66,-178.32 287.25,-178.45 279.05,-171.74 276.66,-178.32"/>
</g>
<!-- Node5&#45;&gt;Node2 -->
<g id="edge5" class="edge">
<title>Node5&#45;&gt;Node2</title>
<path fill="none" stroke="midnightblue" d="M356.06,-257.19C356.06,-248.28 356.06,-238.9 356.06,-230.61"/>
<polygon fill="midnightblue" stroke="midnightblue" points="352.56,-257.34 356.06,-267.34 359.56,-257.34 352.56,-257.34"/>
</g>
<!-- Node5&#45;&gt;Node6 -->
<g id="edge6" class="edge">
<title>Node5&#45;&gt;Node6</title>
<path fill="none" stroke="midnightblue" d="M283.94,-263.72C257.04,-252.98 226.74,-240.89 200.76,-230.52"/>
<polygon fill="midnightblue" stroke="midnightblue" points="282.71,-267 293.3,-267.45 285.31,-260.5 282.71,-267"/>
</g>
<!-- Node7&#45;&gt;Node2 -->
<g id="edge8" class="edge">
<title>Node7&#45;&gt;Node2</title>
<path fill="none" stroke="midnightblue" d="M533.07,-264.28C500.32,-253.4 463.18,-241.07 431.41,-230.52"/>
<polygon fill="midnightblue" stroke="midnightblue" points="532.04,-267.62 542.63,-267.45 534.24,-260.98 532.04,-267.62"/>
</g>
<!-- Node8&#45;&gt;Node2 -->
<g id="edge10" class="edge">
<title>Node8&#45;&gt;Node2</title>
<path fill="none" stroke="midnightblue" d="M805.82,-277.53C679.14,-260.3 486.47,-233.96 470.06,-231 465.57,-230.19 460.99,-229.32 456.36,-228.42"/>
<polygon fill="midnightblue" stroke="midnightblue" points="805.58,-281.03 815.96,-278.91 806.52,-274.09 805.58,-281.03"/>
</g>
<!-- Node8&#45;&gt;Node9 -->
<g id="edge11" class="edge">
<title>Node8&#45;&gt;Node9</title>
<path fill="none" stroke="midnightblue" d="M965.48,-261.79C981.91,-251.58 999.99,-240.34 1015.66,-230.61"/>
<polygon fill="midnightblue" stroke="midnightblue" points="963.2,-259.09 956.55,-267.34 966.89,-265.03 963.2,-259.09"/>
</g>
<!-- Node8&#45;&gt;Node14 -->
<g id="edge17" class="edge">
<title>Node8&#45;&gt;Node14</title>
<path fill="none" stroke="midnightblue" d="M1026.45,-281.08C1121.38,-270.51 1261.78,-253.12 1383.06,-231 1386.02,-230.46 1389.03,-229.89 1392.06,-229.3"/>
<polygon fill="midnightblue" stroke="midnightblue" points="1025.81,-277.63 1016.26,-282.21 1026.58,-284.58 1025.81,-277.63"/>
</g>
<!-- Node16 -->
<g id="node16" class="node">
<title>Node16</title>
<g id="a_node16"><a xlink:href="acceleration__utils_8cpp.html" target="_top" xlink:title=" ">
<polygon fill="none" stroke="black" points="273.06,-89.5 273.06,-141.5 473.06,-141.5 473.06,-89.5 273.06,-89.5"/>
<text text-anchor="start" x="281.06" y="-129.5" font-family="Helvetica,sans-Serif" font-size="10.00">/home/runner/work/cbmc</text>
<text text-anchor="start" x="281.06" y="-118.5" font-family="Helvetica,sans-Serif" font-size="10.00">&#45;documentation/cbmc&#45;documentation</text>
<text text-anchor="start" x="281.06" y="-107.5" font-family="Helvetica,sans-Serif" font-size="10.00">/src/goto&#45;instrument/accelerate</text>
<text text-anchor="middle" x="373.06" y="-96.5" font-family="Helvetica,sans-Serif" font-size="10.00">/acceleration_utils.cpp</text>
</a>
</g>
</g>
<!-- Node8&#45;&gt;Node16 -->
<g id="edge20" class="edge">
<title>Node8&#45;&gt;Node16</title>
<path fill="none" stroke="midnightblue" d="M805.83,-277.15C685.7,-260.26 509.56,-234.97 503.06,-231 478.32,-215.89 485.89,-198.16 465.06,-178 450.98,-164.37 433.51,-151.84 417.59,-141.7"/>
<polygon fill="midnightblue" stroke="midnightblue" points="805.43,-280.62 815.82,-278.55 806.4,-273.69 805.43,-280.62"/>
</g>
<!-- Node8&#45;&gt;Node17 -->
<g id="edge21" class="edge">
<title>Node8&#45;&gt;Node17</title>
<path fill="none" stroke="midnightblue" d="M885.23,-259.79C876.12,-250.13 866.3,-239.71 857.72,-230.61"/>
<polygon fill="midnightblue" stroke="midnightblue" points="882.94,-262.46 892.34,-267.34 888.03,-257.66 882.94,-262.46"/>
</g>
<!-- Node10 -->
<g id="node10" class="node">
<title>Node10</title>
<g id="a_node10"><a xlink:href="enumerating__loop__acceleration_8h.html" target="_top" xlink:title=" ">
<polygon fill="none" stroke="black" points="1495.06,-89.5 1495.06,-141.5 1695.06,-141.5 1695.06,-89.5 1495.06,-89.5"/>
<text text-anchor="start" x="1503.06" y="-129.5" font-family="Helvetica,sans-Serif" font-size="10.00">/home/runner/work/cbmc</text>
<text text-anchor="start" x="1503.06" y="-118.5" font-family="Helvetica,sans-Serif" font-size="10.00">&#45;documentation/cbmc&#45;documentation</text>
<text text-anchor="start" x="1503.06" y="-107.5" font-family="Helvetica,sans-Serif" font-size="10.00">/src/goto&#45;instrument/accelerate</text>
<text text-anchor="middle" x="1595.06" y="-96.5" font-family="Helvetica,sans-Serif" font-size="10.00">/enumerating_loop_acceleration.h</text>
</a>
</g>
</g>
<!-- Node9&#45;&gt;Node10 -->
<g id="edge12" class="edge">
<title>Node9&#45;&gt;Node10</title>
<path fill="none" stroke="midnightblue" d="M1165.98,-177.98C1220.58,-168.69 1385.98,-145.49 1495.06,-130.33"/>
<polygon fill="midnightblue" stroke="midnightblue" points="1165.3,-174.55 1156.07,-179.74 1166.53,-181.44 1165.3,-174.55"/>
</g>
<!-- Node12 -->
<g id="node12" class="node">
<title>Node12</title>
<g id="a_node12"><a xlink:href="disjunctive__polynomial__acceleration_8cpp.html" target="_top" xlink:title=" ">
<polygon fill="none" stroke="black" points="747.06,-89.5 747.06,-141.5 965.06,-141.5 965.06,-89.5 747.06,-89.5"/>
<text text-anchor="start" x="755.06" y="-129.5" font-family="Helvetica,sans-Serif" font-size="10.00">/home/runner/work/cbmc</text>
<text text-anchor="start" x="755.06" y="-118.5" font-family="Helvetica,sans-Serif" font-size="10.00">&#45;documentation/cbmc&#45;documentation</text>
<text text-anchor="start" x="755.06" y="-107.5" font-family="Helvetica,sans-Serif" font-size="10.00">/src/goto&#45;instrument/accelerate</text>
<text text-anchor="middle" x="856.06" y="-96.5" font-family="Helvetica,sans-Serif" font-size="10.00">/disjunctive_polynomial_acceleration.cpp</text>
</a>
</g>
</g>
<!-- Node9&#45;&gt;Node12 -->
<g id="edge15" class="edge">
<title>Node9&#45;&gt;Node12</title>
<path fill="none" stroke="midnightblue" d="M989.24,-174.44C964.73,-163.77 937.21,-151.8 913.58,-141.52"/>
<polygon fill="midnightblue" stroke="midnightblue" points="987.91,-177.67 998.48,-178.45 990.71,-171.25 987.91,-177.67"/>
</g>
<!-- Node13 -->
<g id="node13" class="node">
<title>Node13</title>
<g id="a_node13"><a xlink:href="polynomial__accelerator_8cpp.html" target="_top" xlink:title=" ">
<polygon fill="none" stroke="black" points="983.06,-89.5 983.06,-141.5 1183.06,-141.5 1183.06,-89.5 983.06,-89.5"/>
<text text-anchor="start" x="991.06" y="-129.5" font-family="Helvetica,sans-Serif" font-size="10.00">/home/runner/work/cbmc</text>
<text text-anchor="start" x="991.06" y="-118.5" font-family="Helvetica,sans-Serif" font-size="10.00">&#45;documentation/cbmc&#45;documentation</text>
<text text-anchor="start" x="991.06" y="-107.5" font-family="Helvetica,sans-Serif" font-size="10.00">/src/goto&#45;instrument/accelerate</text>
<text text-anchor="middle" x="1083.06" y="-96.5" font-family="Helvetica,sans-Serif" font-size="10.00">/polynomial_accelerator.cpp</text>
</a>
</g>
</g>
<!-- Node9&#45;&gt;Node13 -->
<g id="edge16" class="edge">
<title>Node9&#45;&gt;Node13</title>
<path fill="none" stroke="midnightblue" d="M1066.84,-168.77C1069.66,-159.69 1072.64,-150.08 1075.27,-141.61"/>
<polygon fill="midnightblue" stroke="midnightblue" points="1063.49,-167.75 1063.87,-178.34 1070.18,-169.82 1063.49,-167.75"/>
</g>
<!-- Node10&#45;&gt;Node3 -->
<g id="edge13" class="edge">
<title>Node10&#45;&gt;Node3</title>
<path fill="none" stroke="midnightblue" d="M1484.55,-94.88C1470.61,-92.72 1456.52,-90.7 1443.06,-89 1221.07,-61 959.13,-42.27 819.17,-33.42"/>
<polygon fill="midnightblue" stroke="midnightblue" points="1484.24,-98.37 1494.66,-96.47 1485.33,-91.46 1484.24,-98.37"/>
</g>
<!-- Node11 -->
<g id="node11" class="node">
<title>Node11</title>
<g id="a_node11"><a xlink:href="enumerating__loop__acceleration_8cpp.html" target="_top" xlink:title=" ">
<polygon fill="none" stroke="black" points="1431.06,-0.5 1431.06,-52.5 1631.06,-52.5 1631.06,-0.5 1431.06,-0.5"/>
<text text-anchor="start" x="1439.06" y="-40.5" font-family="Helvetica,sans-Serif" font-size="10.00">/home/runner/work/cbmc</text>
<text text-anchor="start" x="1439.06" y="-29.5" font-family="Helvetica,sans-Serif" font-size="10.00">&#45;documentation/cbmc&#45;documentation</text>
<text text-anchor="start" x="1439.06" y="-18.5" font-family="Helvetica,sans-Serif" font-size="10.00">/src/goto&#45;instrument/accelerate</text>
<text text-anchor="middle" x="1531.06" y="-7.5" font-family="Helvetica,sans-Serif" font-size="10.00">/enumerating_loop_acceleration.cpp</text>
</a>
</g>
</g>
<!-- Node10&#45;&gt;Node11 -->
<g id="edge14" class="edge">
<title>Node10&#45;&gt;Node11</title>
<path fill="none" stroke="midnightblue" d="M1570.57,-81.22C1563.59,-71.72 1556.09,-61.53 1549.53,-52.61"/>
<polygon fill="midnightblue" stroke="midnightblue" points="1567.8,-83.35 1576.55,-89.34 1573.44,-79.21 1567.8,-83.35"/>
</g>
<!-- Node14&#45;&gt;Node10 -->
<g id="edge18" class="edge">
<title>Node14&#45;&gt;Node10</title>
<path fill="none" stroke="midnightblue" d="M1529.77,-171.65C1541.49,-161.75 1554.24,-150.98 1565.33,-141.61"/>
<polygon fill="midnightblue" stroke="midnightblue" points="1527.23,-169.21 1521.85,-178.34 1531.75,-174.56 1527.23,-169.21"/>
</g>
<!-- Node15 -->
<g id="node15" class="node">
<title>Node15</title>
<g id="a_node15"><a xlink:href="sat__path__enumerator_8cpp.html" target="_top" xlink:title=" ">
<polygon fill="none" stroke="black" points="1201.06,-89.5 1201.06,-141.5 1401.06,-141.5 1401.06,-89.5 1201.06,-89.5"/>
<text text-anchor="start" x="1209.06" y="-129.5" font-family="Helvetica,sans-Serif" font-size="10.00">/home/runner/work/cbmc</text>
<text text-anchor="start" x="1209.06" y="-118.5" font-family="Helvetica,sans-Serif" font-size="10.00">&#45;documentation/cbmc&#45;documentation</text>
<text text-anchor="start" x="1209.06" y="-107.5" font-family="Helvetica,sans-Serif" font-size="10.00">/src/goto&#45;instrument/accelerate</text>
<text text-anchor="middle" x="1301.06" y="-96.5" font-family="Helvetica,sans-Serif" font-size="10.00">/sat_path_enumerator.cpp</text>
</a>
</g>
</g>
<!-- Node14&#45;&gt;Node15 -->
<g id="edge19" class="edge">
<title>Node14&#45;&gt;Node15</title>
<path fill="none" stroke="midnightblue" d="M1427.94,-174.29C1404.61,-163.67 1378.46,-151.76 1355.99,-141.52"/>
<polygon fill="midnightblue" stroke="midnightblue" points="1426.52,-177.49 1437.07,-178.45 1429.42,-171.12 1426.52,-177.49"/>
</g>
<!-- Node17&#45;&gt;Node12 -->
<g id="edge22" class="edge">
<title>Node17&#45;&gt;Node12</title>
<path fill="none" stroke="midnightblue" d="M842.91,-168.48C845.19,-159.49 847.59,-149.99 849.71,-141.61"/>
<polygon fill="midnightblue" stroke="midnightblue" points="839.48,-167.78 840.42,-178.34 846.27,-169.5 839.48,-167.78"/>
</g>
<!-- Node18&#45;&gt;Node3 -->
<g id="edge24" class="edge">
<title>Node18&#45;&gt;Node3</title>
<path fill="none" stroke="midnightblue" d="M1376.68,-173.31C1389.89,-165.2 1401.7,-154.95 1410.06,-142 1422.83,-122.21 1425.96,-106.38 1410.06,-89 1371.01,-46.32 1001.38,-33.06 819.36,-29.1"/>
<polygon fill="midnightblue" stroke="midnightblue" points="1374.79,-170.36 1367.81,-178.34 1378.24,-176.45 1374.79,-170.36"/>
</g>
<!-- Node18&#45;&gt;Node11 -->
<g id="edge26" class="edge">
<title>Node18&#45;&gt;Node11</title>
<path fill="none" stroke="midnightblue" d="M1381.72,-174.71C1403.19,-166.18 1424.74,-155.42 1443.06,-142 1447.53,-138.72 1487.89,-85.24 1512.37,-52.55"/>
<polygon fill="midnightblue" stroke="midnightblue" points="1380.29,-171.51 1372.2,-178.35 1382.79,-178.04 1380.29,-171.51"/>
</g>
<!-- Node18&#45;&gt;Node12 -->
<g id="edge25" class="edge">
<title>Node18&#45;&gt;Node12</title>
<path fill="none" stroke="midnightblue" d="M1164.16,-177.85C1078.88,-160.06 1055.67,-158.51 974.06,-142 971.18,-141.42 968.27,-140.82 965.33,-140.22"/>
<polygon fill="midnightblue" stroke="midnightblue" points="1163.51,-181.29 1174.01,-179.92 1164.95,-174.44 1163.51,-181.29"/>
</g>
<!-- Node18&#45;&gt;Node13 -->
<g id="edge27" class="edge">
<title>Node18&#45;&gt;Node13</title>
<path fill="none" stroke="midnightblue" d="M1209.94,-174.29C1186.61,-163.67 1160.46,-151.76 1137.99,-141.52"/>
<polygon fill="midnightblue" stroke="midnightblue" points="1208.52,-177.49 1219.07,-178.45 1211.42,-171.12 1208.52,-177.49"/>
</g>
<!-- Node19&#45;&gt;Node10 -->
<g id="edge30" class="edge">
<title>Node19&#45;&gt;Node10</title>
<path fill="none" stroke="midnightblue" d="M1570.55,-262C1582.74,-253.78 1593.71,-243.58 1601.06,-231 1617.02,-203.67 1610.84,-166.12 1603.87,-141.59"/>
<polygon fill="midnightblue" stroke="midnightblue" points="1568.57,-259.11 1561.94,-267.37 1572.27,-265.05 1568.57,-259.11"/>
</g>
<!-- Node19&#45;&gt;Node14 -->
<g id="edge31" class="edge">
<title>Node19&#45;&gt;Node14</title>
<path fill="none" stroke="midnightblue" d="M1492.06,-257.19C1492.06,-248.28 1492.06,-238.9 1492.06,-230.61"/>
<polygon fill="midnightblue" stroke="midnightblue" points="1488.56,-257.34 1492.06,-267.34 1495.56,-257.34 1488.56,-257.34"/>
</g>
<!-- Node19&#45;&gt;Node20 -->
<g id="edge32" class="edge">
<title>Node19&#45;&gt;Node20</title>
<path fill="none" stroke="midnightblue" d="M1575.51,-264.14C1607.41,-253.3 1643.52,-241.03 1674.43,-230.52"/>
<polygon fill="midnightblue" stroke="midnightblue" points="1574.1,-260.92 1565.76,-267.45 1576.36,-267.55 1574.1,-260.92"/>
</g>
<!-- Node21 -->
<g id="node21" class="node">
<title>Node21</title>
<g id="a_node21"><a xlink:href="all__paths__enumerator_8cpp.html" target="_top" xlink:title=" ">
<polygon fill="none" stroke="black" points="1713.06,-89.5 1713.06,-141.5 1913.06,-141.5 1913.06,-89.5 1713.06,-89.5"/>
<text text-anchor="start" x="1721.06" y="-129.5" font-family="Helvetica,sans-Serif" font-size="10.00">/home/runner/work/cbmc</text>
<text text-anchor="start" x="1721.06" y="-118.5" font-family="Helvetica,sans-Serif" font-size="10.00">&#45;documentation/cbmc&#45;documentation</text>
<text text-anchor="start" x="1721.06" y="-107.5" font-family="Helvetica,sans-Serif" font-size="10.00">/src/goto&#45;instrument/accelerate</text>
<text text-anchor="middle" x="1813.06" y="-96.5" font-family="Helvetica,sans-Serif" font-size="10.00">/all_paths_enumerator.cpp</text>
</a>
</g>
</g>
<!-- Node20&#45;&gt;Node21 -->
<g id="edge33" class="edge">
<title>Node20&#45;&gt;Node21</title>
<path fill="none" stroke="midnightblue" d="M1772.93,-170.22C1780.02,-160.72 1787.64,-150.53 1794.3,-141.61"/>
<polygon fill="midnightblue" stroke="midnightblue" points="1770.04,-168.23 1766.86,-178.34 1775.65,-172.42 1770.04,-168.23"/>
</g>
<!-- Node22&#45;&gt;Node3 -->
<g id="edge37" class="edge">
<title>Node22&#45;&gt;Node3</title>
<path fill="none" stroke="midnightblue" d="M670.72,-172.42C682.01,-163.95 692.62,-153.8 700.06,-142 717.15,-114.9 720.34,-77.29 720.3,-52.69"/>
<polygon fill="midnightblue" stroke="midnightblue" points="668.56,-169.66 662.41,-178.28 672.6,-175.38 668.56,-169.66"/>
</g>
<!-- Node22&#45;&gt;Node12 -->
<g id="edge39" class="edge">
<title>Node22&#45;&gt;Node12</title>
<path fill="none" stroke="midnightblue" d="M692,-175C722.3,-164.19 756.55,-151.98 785.89,-141.52"/>
<polygon fill="midnightblue" stroke="midnightblue" points="690.55,-171.8 682.31,-178.45 692.9,-178.39 690.55,-171.8"/>
</g>
<!-- Node22&#45;&gt;Node13 -->
<g id="edge40" class="edge">
<title>Node22&#45;&gt;Node13</title>
<path fill="none" stroke="midnightblue" d="M721.75,-178.06C721.85,-178.04 721.96,-178.02 722.06,-178 833.27,-157.21 862.87,-162.91 974.06,-142 977.02,-141.44 980.02,-140.86 983.05,-140.26"/>
<polygon fill="midnightblue" stroke="midnightblue" points="721.26,-174.59 712.1,-179.92 722.59,-181.46 721.26,-174.59"/>
</g>
<!-- Node22&#45;&gt;Node15 -->
<g id="edge41" class="edge">
<title>Node22&#45;&gt;Node15</title>
<path fill="none" stroke="midnightblue" d="M722.4,-178.07C930.92,-147.1 988.25,-173.46 1192.06,-142 1194.94,-141.56 1197.86,-141.08 1200.8,-140.57"/>
<polygon fill="midnightblue" stroke="midnightblue" points="721.72,-174.64 712.35,-179.59 722.76,-181.56 721.72,-174.64"/>
</g>
<!-- Node22&#45;&gt;Node16 -->
<g id="edge38" class="edge">
<title>Node22&#45;&gt;Node16</title>
<path fill="none" stroke="midnightblue" d="M533.76,-175C504.08,-164.19 470.53,-151.98 441.8,-141.52"/>
<polygon fill="midnightblue" stroke="midnightblue" points="532.66,-178.32 543.25,-178.45 535.05,-171.74 532.66,-178.32"/>
</g>
<!-- Node23 -->
<g id="node23" class="node">
<title>Node23</title>
<g id="a_node23"><a xlink:href="scratch__program_8cpp.html" target="_top" xlink:title=" ">
<polygon fill="none" stroke="black" points="491.06,-89.5 491.06,-141.5 691.06,-141.5 691.06,-89.5 491.06,-89.5"/>
<text text-anchor="start" x="499.06" y="-129.5" font-family="Helvetica,sans-Serif" font-size="10.00">/home/runner/work/cbmc</text>
<text text-anchor="start" x="499.06" y="-118.5" font-family="Helvetica,sans-Serif" font-size="10.00">&#45;documentation/cbmc&#45;documentation</text>
<text text-anchor="start" x="499.06" y="-107.5" font-family="Helvetica,sans-Serif" font-size="10.00">/src/goto&#45;instrument/accelerate</text>
<text text-anchor="middle" x="591.06" y="-96.5" font-family="Helvetica,sans-Serif" font-size="10.00">/scratch_program.cpp</text>
</a>
</g>
</g>
<!-- Node22&#45;&gt;Node23 -->
<g id="edge42" class="edge">
<title>Node22&#45;&gt;Node23</title>
<path fill="none" stroke="midnightblue" d="M603.61,-168.48C601.44,-159.49 599.14,-149.99 597.12,-141.61"/>
<polygon fill="midnightblue" stroke="midnightblue" points="600.24,-169.44 605.99,-178.34 607.04,-167.79 600.24,-169.44"/>
</g>
</g>
</svg>
