<?xml version="1.0" encoding="UTF-8" standalone="no"?>
<!DOCTYPE svg PUBLIC "-//W3C//DTD SVG 1.1//EN"
 "http://www.w3.org/Graphics/SVG/1.1/DTD/svg11.dtd">
<!-- Generated by graphviz version 2.43.0 (0)
 -->
<!-- Title: /home/runner/work/cbmc&#45;documentation/cbmc&#45;documentation/src/util/pointer_predicates.h Pages: 1 -->
<svg width="3952pt" height="139pt"
 viewBox="0.00 0.00 3952.00 139.00" xmlns="http://www.w3.org/2000/svg" xmlns:xlink="http://www.w3.org/1999/xlink">
<g id="graph0" class="graph" transform="scale(1 1) rotate(0) translate(4 135)">
<title>/home/runner/work/cbmc&#45;documentation/cbmc&#45;documentation/src/util/pointer_predicates.h</title>
<!-- Node1 -->
<g id="node1" class="node">
<title>Node1</title>
<g id="a_node1"><a xlink:title=" ">
<polygon fill="#bfbfbf" stroke="black" points="1874,-89.5 1874,-130.5 2074,-130.5 2074,-89.5 1874,-89.5"/>
<text text-anchor="start" x="1882" y="-118.5" font-family="Helvetica,sans-Serif" font-size="10.00">/home/runner/work/cbmc</text>
<text text-anchor="start" x="1882" y="-107.5" font-family="Helvetica,sans-Serif" font-size="10.00">&#45;documentation/cbmc&#45;documentation</text>
<text text-anchor="middle" x="1974" y="-96.5" font-family="Helvetica,sans-Serif" font-size="10.00">/src/util/pointer_predicates.h</text>
</a>
</g>
</g>
<!-- Node2 -->
<g id="node2" class="node">
<title>Node2</title>
<g id="a_node2"><a xlink:href="c__typecheck__expr_8cpp.html" target="_top" xlink:title=" ">
<polygon fill="none" stroke="black" points="0,-6 0,-47 200,-47 200,-6 0,-6"/>
<text text-anchor="start" x="8" y="-35" font-family="Helvetica,sans-Serif" font-size="10.00">/home/runner/work/cbmc</text>
<text text-anchor="start" x="8" y="-24" font-family="Helvetica,sans-Serif" font-size="10.00">&#45;documentation/cbmc&#45;documentation</text>
<text text-anchor="middle" x="100" y="-13" font-family="Helvetica,sans-Serif" font-size="10.00">/src/ansi&#45;c/c_typecheck_expr.cpp</text>
</a>
</g>
</g>
<!-- Node1&#45;&gt;Node2 -->
<g id="edge1" class="edge">
<title>Node1&#45;&gt;Node2</title>
<path fill="none" stroke="midnightblue" d="M1863.72,-108.36C1529.51,-105.96 531.09,-95.36 209,-53 197.82,-51.53 186.12,-49.42 174.69,-47.03"/>
<polygon fill="midnightblue" stroke="midnightblue" points="1863.87,-111.86 1873.9,-108.43 1863.92,-104.86 1863.87,-111.86"/>
</g>
<!-- Node3 -->
<g id="node3" class="node">
<title>Node3</title>
<g id="a_node3"><a xlink:href="goto__check__c_8cpp.html" target="_top" xlink:title=" ">
<polygon fill="none" stroke="black" points="218,-6 218,-47 418,-47 418,-6 218,-6"/>
<text text-anchor="start" x="226" y="-35" font-family="Helvetica,sans-Serif" font-size="10.00">/home/runner/work/cbmc</text>
<text text-anchor="start" x="226" y="-24" font-family="Helvetica,sans-Serif" font-size="10.00">&#45;documentation/cbmc&#45;documentation</text>
<text text-anchor="middle" x="318" y="-13" font-family="Helvetica,sans-Serif" font-size="10.00">/src/ansi&#45;c/goto_check_c.cpp</text>
</a>
</g>
</g>
<!-- Node1&#45;&gt;Node3 -->
<g id="edge2" class="edge">
<title>Node1&#45;&gt;Node3</title>
<path fill="none" stroke="midnightblue" d="M1863.78,-107.78C1558.31,-103.97 705.04,-90.2 427,-53 415.92,-51.52 404.32,-49.42 393,-47.05"/>
<polygon fill="midnightblue" stroke="midnightblue" points="1863.94,-111.28 1873.98,-107.91 1864.02,-104.29 1863.94,-111.28"/>
</g>
<!-- Node4 -->
<g id="node4" class="node">
<title>Node4</title>
<g id="a_node4"><a xlink:href="contracts_8cpp.html" target="_top" xlink:title=" ">
<polygon fill="none" stroke="black" points="436,-0.5 436,-52.5 636,-52.5 636,-0.5 436,-0.5"/>
<text text-anchor="start" x="444" y="-40.5" font-family="Helvetica,sans-Serif" font-size="10.00">/home/runner/work/cbmc</text>
<text text-anchor="start" x="444" y="-29.5" font-family="Helvetica,sans-Serif" font-size="10.00">&#45;documentation/cbmc&#45;documentation</text>
<text text-anchor="start" x="444" y="-18.5" font-family="Helvetica,sans-Serif" font-size="10.00">/src/goto&#45;instrument/contracts</text>
<text text-anchor="middle" x="536" y="-7.5" font-family="Helvetica,sans-Serif" font-size="10.00">/contracts.cpp</text>
</a>
</g>
</g>
<!-- Node1&#45;&gt;Node4 -->
<g id="edge3" class="edge">
<title>Node1&#45;&gt;Node4</title>
<path fill="none" stroke="midnightblue" d="M1863.17,-107.01C1588.02,-101.63 879.09,-85.02 645,-53 642.11,-52.6 639.19,-52.17 636.24,-51.7"/>
<polygon fill="midnightblue" stroke="midnightblue" points="1863.5,-110.52 1873.57,-107.21 1863.64,-103.52 1863.5,-110.52"/>
</g>
<!-- Node5 -->
<g id="node5" class="node">
<title>Node5</title>
<g id="a_node5"><a xlink:href="havoc__assigns__clause__targets_8cpp.html" target="_top" xlink:title=" ">
<polygon fill="none" stroke="black" points="654,-0.5 654,-52.5 854,-52.5 854,-0.5 654,-0.5"/>
<text text-anchor="start" x="662" y="-40.5" font-family="Helvetica,sans-Serif" font-size="10.00">/home/runner/work/cbmc</text>
<text text-anchor="start" x="662" y="-29.5" font-family="Helvetica,sans-Serif" font-size="10.00">&#45;documentation/cbmc&#45;documentation</text>
<text text-anchor="start" x="662" y="-18.5" font-family="Helvetica,sans-Serif" font-size="10.00">/src/goto&#45;instrument/contracts</text>
<text text-anchor="middle" x="754" y="-7.5" font-family="Helvetica,sans-Serif" font-size="10.00">/havoc_assigns_clause_targets.cpp</text>
</a>
</g>
</g>
<!-- Node1&#45;&gt;Node5 -->
<g id="edge4" class="edge">
<title>Node1&#45;&gt;Node5</title>
<path fill="none" stroke="midnightblue" d="M1863.6,-109.97C1663.22,-110.28 1226.72,-104.29 863,-53 860.11,-52.59 857.19,-52.15 854.25,-51.67"/>
<polygon fill="midnightblue" stroke="midnightblue" points="1863.85,-113.47 1873.84,-109.95 1863.83,-106.47 1863.85,-113.47"/>
</g>
<!-- Node6 -->
<g id="node6" class="node">
<title>Node6</title>
<g id="a_node6"><a xlink:href="instrument__spec__assigns_8cpp.html" target="_top" xlink:title=" ">
<polygon fill="none" stroke="black" points="872,-0.5 872,-52.5 1072,-52.5 1072,-0.5 872,-0.5"/>
<text text-anchor="start" x="880" y="-40.5" font-family="Helvetica,sans-Serif" font-size="10.00">/home/runner/work/cbmc</text>
<text text-anchor="start" x="880" y="-29.5" font-family="Helvetica,sans-Serif" font-size="10.00">&#45;documentation/cbmc&#45;documentation</text>
<text text-anchor="start" x="880" y="-18.5" font-family="Helvetica,sans-Serif" font-size="10.00">/src/goto&#45;instrument/contracts</text>
<text text-anchor="middle" x="972" y="-7.5" font-family="Helvetica,sans-Serif" font-size="10.00">/instrument_spec_assigns.cpp</text>
</a>
</g>
</g>
<!-- Node1&#45;&gt;Node6 -->
<g id="edge5" class="edge">
<title>Node1&#45;&gt;Node6</title>
<path fill="none" stroke="midnightblue" d="M1863.83,-108C1694.62,-105.14 1360.94,-94.23 1081,-53 1078.12,-52.58 1075.2,-52.11 1072.25,-51.62"/>
<polygon fill="midnightblue" stroke="midnightblue" points="1863.94,-111.5 1873.99,-108.17 1864.05,-104.5 1863.94,-111.5"/>
</g>
<!-- Node7 -->
<g id="node7" class="node">
<title>Node7</title>
<g id="a_node7"><a xlink:href="utils_8cpp.html" target="_top" xlink:title=" ">
<polygon fill="none" stroke="black" points="1090,-0.5 1090,-52.5 1290,-52.5 1290,-0.5 1090,-0.5"/>
<text text-anchor="start" x="1098" y="-40.5" font-family="Helvetica,sans-Serif" font-size="10.00">/home/runner/work/cbmc</text>
<text text-anchor="start" x="1098" y="-29.5" font-family="Helvetica,sans-Serif" font-size="10.00">&#45;documentation/cbmc&#45;documentation</text>
<text text-anchor="start" x="1098" y="-18.5" font-family="Helvetica,sans-Serif" font-size="10.00">/src/goto&#45;instrument/contracts</text>
<text text-anchor="middle" x="1190" y="-7.5" font-family="Helvetica,sans-Serif" font-size="10.00">/utils.cpp</text>
</a>
</g>
</g>
<!-- Node1&#45;&gt;Node7 -->
<g id="edge6" class="edge">
<title>Node1&#45;&gt;Node7</title>
<path fill="none" stroke="midnightblue" d="M1863.67,-104.83C1729.52,-98.61 1496.55,-84.13 1299,-53 1296.12,-52.55 1293.2,-52.06 1290.26,-51.54"/>
<polygon fill="midnightblue" stroke="midnightblue" points="1863.8,-108.34 1873.95,-105.3 1864.12,-101.35 1863.8,-108.34"/>
</g>
<!-- Node8 -->
<g id="node8" class="node">
<title>Node8</title>
<g id="a_node8"><a xlink:href="race__check_8cpp.html" target="_top" xlink:title=" ">
<polygon fill="none" stroke="black" points="1308,-6 1308,-47 1508,-47 1508,-6 1308,-6"/>
<text text-anchor="start" x="1316" y="-35" font-family="Helvetica,sans-Serif" font-size="10.00">/home/runner/work/cbmc</text>
<text text-anchor="start" x="1316" y="-24" font-family="Helvetica,sans-Serif" font-size="10.00">&#45;documentation/cbmc&#45;documentation</text>
<text text-anchor="middle" x="1408" y="-13" font-family="Helvetica,sans-Serif" font-size="10.00">/src/goto&#45;instrument/race_check.cpp</text>
</a>
</g>
</g>
<!-- Node1&#45;&gt;Node8 -->
<g id="edge7" class="edge">
<title>Node1&#45;&gt;Node8</title>
<path fill="none" stroke="midnightblue" d="M1863.71,-98.85C1770.84,-89.51 1634.7,-73.92 1517,-53 1507.24,-51.27 1497.04,-49.21 1486.97,-47.03"/>
<polygon fill="midnightblue" stroke="midnightblue" points="1863.39,-102.34 1873.69,-99.85 1864.09,-95.37 1863.39,-102.34"/>
</g>
<!-- Node9 -->
<g id="node9" class="node">
<title>Node9</title>
<g id="a_node9"><a xlink:href="graphml__witness_8cpp.html" target="_top" xlink:title=" ">
<polygon fill="none" stroke="black" points="1526.5,-6 1526.5,-47 1741.5,-47 1741.5,-6 1526.5,-6"/>
<text text-anchor="start" x="1534.5" y="-35" font-family="Helvetica,sans-Serif" font-size="10.00">/home/runner/work/cbmc</text>
<text text-anchor="start" x="1534.5" y="-24" font-family="Helvetica,sans-Serif" font-size="10.00">&#45;documentation/cbmc&#45;documentation</text>
<text text-anchor="middle" x="1634" y="-13" font-family="Helvetica,sans-Serif" font-size="10.00">/src/goto&#45;programs/graphml_witness.cpp</text>
</a>
</g>
</g>
<!-- Node1&#45;&gt;Node9 -->
<g id="edge8" class="edge">
<title>Node1&#45;&gt;Node9</title>
<path fill="none" stroke="midnightblue" d="M1882.65,-87.1C1830.52,-74.61 1765.73,-59.08 1715.36,-47"/>
<polygon fill="midnightblue" stroke="midnightblue" points="1882.02,-90.55 1892.56,-89.48 1883.65,-83.74 1882.02,-90.55"/>
</g>
<!-- Node10 -->
<g id="node10" class="node">
<title>Node10</title>
<g id="a_node10"><a xlink:href="mm__io_8cpp.html" target="_top" xlink:title=" ">
<polygon fill="none" stroke="black" points="1760,-6 1760,-47 1960,-47 1960,-6 1760,-6"/>
<text text-anchor="start" x="1768" y="-35" font-family="Helvetica,sans-Serif" font-size="10.00">/home/runner/work/cbmc</text>
<text text-anchor="start" x="1768" y="-24" font-family="Helvetica,sans-Serif" font-size="10.00">&#45;documentation/cbmc&#45;documentation</text>
<text text-anchor="middle" x="1860" y="-13" font-family="Helvetica,sans-Serif" font-size="10.00">/src/goto&#45;programs/mm_io.cpp</text>
</a>
</g>
</g>
<!-- Node1&#45;&gt;Node10 -->
<g id="edge9" class="edge">
<title>Node1&#45;&gt;Node10</title>
<path fill="none" stroke="midnightblue" d="M1938.39,-83.54C1921.96,-71.8 1902.77,-58.07 1887.48,-47.14"/>
<polygon fill="midnightblue" stroke="midnightblue" points="1936.52,-86.51 1946.69,-89.48 1940.59,-80.82 1936.52,-86.51"/>
</g>
<!-- Node11 -->
<g id="node11" class="node">
<title>Node11</title>
<g id="a_node11"><a xlink:href="string__abstraction_8cpp.html" target="_top" xlink:title=" ">
<polygon fill="none" stroke="black" points="1978,-6 1978,-47 2198,-47 2198,-6 1978,-6"/>
<text text-anchor="start" x="1986" y="-35" font-family="Helvetica,sans-Serif" font-size="10.00">/home/runner/work/cbmc</text>
<text text-anchor="start" x="1986" y="-24" font-family="Helvetica,sans-Serif" font-size="10.00">&#45;documentation/cbmc&#45;documentation</text>
<text text-anchor="middle" x="2088" y="-13" font-family="Helvetica,sans-Serif" font-size="10.00">/src/goto&#45;programs/string_abstraction.cpp</text>
</a>
</g>
</g>
<!-- Node1&#45;&gt;Node11 -->
<g id="edge10" class="edge">
<title>Node1&#45;&gt;Node11</title>
<path fill="none" stroke="midnightblue" d="M2009.61,-83.54C2026.04,-71.8 2045.23,-58.07 2060.52,-47.14"/>
<polygon fill="midnightblue" stroke="midnightblue" points="2007.41,-80.82 2001.31,-89.48 2011.48,-86.51 2007.41,-80.82"/>
</g>
<!-- Node12 -->
<g id="node12" class="node">
<title>Node12</title>
<g id="a_node12"><a xlink:href="symex__builtin__functions_8cpp.html" target="_top" xlink:title=" ">
<polygon fill="none" stroke="black" points="2216,-0.5 2216,-52.5 2416,-52.5 2416,-0.5 2216,-0.5"/>
<text text-anchor="start" x="2224" y="-40.5" font-family="Helvetica,sans-Serif" font-size="10.00">/home/runner/work/cbmc</text>
<text text-anchor="start" x="2224" y="-29.5" font-family="Helvetica,sans-Serif" font-size="10.00">&#45;documentation/cbmc&#45;documentation</text>
<text text-anchor="start" x="2224" y="-18.5" font-family="Helvetica,sans-Serif" font-size="10.00">/src/goto&#45;symex/symex_builtin</text>
<text text-anchor="middle" x="2316" y="-7.5" font-family="Helvetica,sans-Serif" font-size="10.00">_functions.cpp</text>
</a>
</g>
</g>
<!-- Node1&#45;&gt;Node12 -->
<g id="edge11" class="edge">
<title>Node1&#45;&gt;Node12</title>
<path fill="none" stroke="midnightblue" d="M2065.65,-87.16C2112,-76.11 2168.34,-62.69 2215.83,-51.37"/>
<polygon fill="midnightblue" stroke="midnightblue" points="2064.83,-83.76 2055.92,-89.48 2066.46,-90.57 2064.83,-83.76"/>
</g>
<!-- Node13 -->
<g id="node13" class="node">
<title>Node13</title>
<g id="a_node13"><a xlink:href="value__set__dereference_8cpp.html" target="_top" xlink:title=" ">
<polygon fill="none" stroke="black" points="2434,-0.5 2434,-52.5 2634,-52.5 2634,-0.5 2434,-0.5"/>
<text text-anchor="start" x="2442" y="-40.5" font-family="Helvetica,sans-Serif" font-size="10.00">/home/runner/work/cbmc</text>
<text text-anchor="start" x="2442" y="-29.5" font-family="Helvetica,sans-Serif" font-size="10.00">&#45;documentation/cbmc&#45;documentation</text>
<text text-anchor="start" x="2442" y="-18.5" font-family="Helvetica,sans-Serif" font-size="10.00">/src/pointer&#45;analysis/value_set</text>
<text text-anchor="middle" x="2534" y="-7.5" font-family="Helvetica,sans-Serif" font-size="10.00">_dereference.cpp</text>
</a>
</g>
</g>
<!-- Node1&#45;&gt;Node13 -->
<g id="edge12" class="edge">
<title>Node1&#45;&gt;Node13</title>
<path fill="none" stroke="midnightblue" d="M2084.45,-98.6C2176.06,-89.18 2309.52,-73.62 2425,-53 2427.87,-52.49 2430.78,-51.95 2433.71,-51.39"/>
<polygon fill="midnightblue" stroke="midnightblue" points="2083.92,-95.13 2074.32,-99.63 2084.63,-102.1 2083.92,-95.13"/>
</g>
<!-- Node14 -->
<g id="node14" class="node">
<title>Node14</title>
<g id="a_node14"><a xlink:href="bv__pointers_8cpp.html" target="_top" xlink:title=" ">
<polygon fill="none" stroke="black" points="2652,-6 2652,-47 2854,-47 2854,-6 2652,-6"/>
<text text-anchor="start" x="2660" y="-35" font-family="Helvetica,sans-Serif" font-size="10.00">/home/runner/work/cbmc</text>
<text text-anchor="start" x="2660" y="-24" font-family="Helvetica,sans-Serif" font-size="10.00">&#45;documentation/cbmc&#45;documentation</text>
<text text-anchor="middle" x="2753" y="-13" font-family="Helvetica,sans-Serif" font-size="10.00">/src/solvers/flattening/bv_pointers.cpp</text>
</a>
</g>
</g>
<!-- Node1&#45;&gt;Node14 -->
<g id="edge13" class="edge">
<title>Node1&#45;&gt;Node14</title>
<path fill="none" stroke="midnightblue" d="M2084.48,-104.64C2217.6,-98.26 2447.74,-83.64 2643,-53 2653.46,-51.36 2664.4,-49.28 2675.15,-47.01"/>
<polygon fill="midnightblue" stroke="midnightblue" points="2084.1,-101.15 2074.28,-105.12 2084.43,-108.15 2084.1,-101.15"/>
</g>
<!-- Node15 -->
<g id="node15" class="node">
<title>Node15</title>
<g id="a_node15"><a xlink:href="pointer__logic_8cpp.html" target="_top" xlink:title=" ">
<polygon fill="none" stroke="black" points="2872,-0.5 2872,-52.5 3072,-52.5 3072,-0.5 2872,-0.5"/>
<text text-anchor="start" x="2880" y="-40.5" font-family="Helvetica,sans-Serif" font-size="10.00">/home/runner/work/cbmc</text>
<text text-anchor="start" x="2880" y="-29.5" font-family="Helvetica,sans-Serif" font-size="10.00">&#45;documentation/cbmc&#45;documentation</text>
<text text-anchor="start" x="2880" y="-18.5" font-family="Helvetica,sans-Serif" font-size="10.00">/src/solvers/flattening/pointer</text>
<text text-anchor="middle" x="2972" y="-7.5" font-family="Helvetica,sans-Serif" font-size="10.00">_logic.cpp</text>
</a>
</g>
</g>
<!-- Node1&#45;&gt;Node15 -->
<g id="edge14" class="edge">
<title>Node1&#45;&gt;Node15</title>
<path fill="none" stroke="midnightblue" d="M2084.36,-107.95C2253.03,-105.02 2584.69,-94.03 2863,-53 2865.88,-52.57 2868.8,-52.11 2871.75,-51.62"/>
<polygon fill="midnightblue" stroke="midnightblue" points="2084.17,-104.46 2074.23,-108.12 2084.28,-111.45 2084.17,-104.46"/>
</g>
<!-- Node16 -->
<g id="node16" class="node">
<title>Node16</title>
<g id="a_node16"><a xlink:href="smt2__conv_8cpp.html" target="_top" xlink:title=" ">
<polygon fill="none" stroke="black" points="3090,-6 3090,-47 3290,-47 3290,-6 3090,-6"/>
<text text-anchor="start" x="3098" y="-35" font-family="Helvetica,sans-Serif" font-size="10.00">/home/runner/work/cbmc</text>
<text text-anchor="start" x="3098" y="-24" font-family="Helvetica,sans-Serif" font-size="10.00">&#45;documentation/cbmc&#45;documentation</text>
<text text-anchor="middle" x="3190" y="-13" font-family="Helvetica,sans-Serif" font-size="10.00">/src/solvers/smt2/smt2_conv.cpp</text>
</a>
</g>
</g>
<!-- Node1&#45;&gt;Node16 -->
<g id="edge15" class="edge">
<title>Node1&#45;&gt;Node16</title>
<path fill="none" stroke="midnightblue" d="M2084.39,-109.94C2284.22,-110.19 2718.83,-104.1 3081,-53 3091.87,-51.47 3103.26,-49.37 3114.39,-47.03"/>
<polygon fill="midnightblue" stroke="midnightblue" points="2084.18,-106.44 2074.18,-109.92 2084.17,-113.44 2084.18,-106.44"/>
</g>
<!-- Node17 -->
<g id="node17" class="node">
<title>Node17</title>
<g id="a_node17"><a xlink:href="convert__expr__to__smt_8cpp.html" target="_top" xlink:title=" ">
<polygon fill="none" stroke="black" points="3308,-0.5 3308,-52.5 3508,-52.5 3508,-0.5 3308,-0.5"/>
<text text-anchor="start" x="3316" y="-40.5" font-family="Helvetica,sans-Serif" font-size="10.00">/home/runner/work/cbmc</text>
<text text-anchor="start" x="3316" y="-29.5" font-family="Helvetica,sans-Serif" font-size="10.00">&#45;documentation/cbmc&#45;documentation</text>
<text text-anchor="start" x="3316" y="-18.5" font-family="Helvetica,sans-Serif" font-size="10.00">/src/solvers/smt2_incremental</text>
<text text-anchor="middle" x="3408" y="-7.5" font-family="Helvetica,sans-Serif" font-size="10.00">/convert_expr_to_smt.cpp</text>
</a>
</g>
</g>
<!-- Node1&#45;&gt;Node17 -->
<g id="edge16" class="edge">
<title>Node1&#45;&gt;Node17</title>
<path fill="none" stroke="midnightblue" d="M2084.5,-107C2358.82,-101.6 3065.62,-84.94 3299,-53 3301.89,-52.6 3304.81,-52.17 3307.76,-51.7"/>
<polygon fill="midnightblue" stroke="midnightblue" points="2084.06,-103.51 2074.13,-107.2 2084.2,-110.5 2084.06,-103.51"/>
</g>
<!-- Node18 -->
<g id="node18" class="node">
<title>Node18</title>
<g id="a_node18"><a xlink:href="pointer__predicates_8cpp.html" target="_top" xlink:title=" ">
<polygon fill="none" stroke="black" points="3526,-6 3526,-47 3726,-47 3726,-6 3526,-6"/>
<text text-anchor="start" x="3534" y="-35" font-family="Helvetica,sans-Serif" font-size="10.00">/home/runner/work/cbmc</text>
<text text-anchor="start" x="3534" y="-24" font-family="Helvetica,sans-Serif" font-size="10.00">&#45;documentation/cbmc&#45;documentation</text>
<text text-anchor="middle" x="3626" y="-13" font-family="Helvetica,sans-Serif" font-size="10.00">/src/util/pointer_predicates.cpp</text>
</a>
</g>
</g>
<!-- Node1&#45;&gt;Node18 -->
<g id="edge17" class="edge">
<title>Node1&#45;&gt;Node18</title>
<path fill="none" stroke="midnightblue" d="M2084.2,-107.77C2389.12,-103.93 3239.76,-90.1 3517,-53 3528.08,-51.52 3539.68,-49.41 3551,-47.04"/>
<polygon fill="midnightblue" stroke="midnightblue" points="2083.98,-104.27 2074.02,-107.9 2084.07,-111.27 2083.98,-104.27"/>
</g>
<!-- Node19 -->
<g id="node19" class="node">
<title>Node19</title>
<g id="a_node19"><a xlink:href="simplify__expr__pointer_8cpp.html" target="_top" xlink:title=" ">
<polygon fill="none" stroke="black" points="3744,-6 3744,-47 3944,-47 3944,-6 3744,-6"/>
<text text-anchor="start" x="3752" y="-35" font-family="Helvetica,sans-Serif" font-size="10.00">/home/runner/work/cbmc</text>
<text text-anchor="start" x="3752" y="-24" font-family="Helvetica,sans-Serif" font-size="10.00">&#45;documentation/cbmc&#45;documentation</text>
<text text-anchor="middle" x="3844" y="-13" font-family="Helvetica,sans-Serif" font-size="10.00">/src/util/simplify_expr_pointer.cpp</text>
</a>
</g>
</g>
<!-- Node1&#45;&gt;Node19 -->
<g id="edge18" class="edge">
<title>Node1&#45;&gt;Node19</title>
<path fill="none" stroke="midnightblue" d="M2084.32,-108.35C2418.06,-105.93 3413.73,-95.26 3735,-53 3746.18,-51.53 3757.88,-49.42 3769.31,-47.03"/>
<polygon fill="midnightblue" stroke="midnightblue" points="2084.14,-104.85 2074.16,-108.42 2084.19,-111.85 2084.14,-104.85"/>
</g>
</g>
</svg>
