<?xml version="1.0" encoding="UTF-8" standalone="no"?>
<!DOCTYPE svg PUBLIC "-//W3C//DTD SVG 1.1//EN"
 "http://www.w3.org/Graphics/SVG/1.1/DTD/svg11.dtd">
<!-- Generated by graphviz version 2.43.0 (0)
 -->
<!-- Title: /home/runner/work/cbmc&#45;documentation/cbmc&#45;documentation/src/goto&#45;instrument/accelerate/polynomial.h Pages: 1 -->
<svg width="1136pt" height="417pt"
 viewBox="0.00 0.00 1136.00 417.00" xmlns="http://www.w3.org/2000/svg" xmlns:xlink="http://www.w3.org/1999/xlink">
<g id="graph0" class="graph" transform="scale(1 1) rotate(0) translate(4 413)">
<title>/home/runner/work/cbmc&#45;documentation/cbmc&#45;documentation/src/goto&#45;instrument/accelerate/polynomial.h</title>
<!-- Node1 -->
<g id="node1" class="node">
<title>Node1</title>
<g id="a_node1"><a xlink:title=" ">
<polygon fill="#bfbfbf" stroke="black" points="362,-356.5 362,-408.5 562,-408.5 562,-356.5 362,-356.5"/>
<text text-anchor="start" x="370" y="-396.5" font-family="Helvetica,sans-Serif" font-size="10.00">/home/runner/work/cbmc</text>
<text text-anchor="start" x="370" y="-385.5" font-family="Helvetica,sans-Serif" font-size="10.00">&#45;documentation/cbmc&#45;documentation</text>
<text text-anchor="start" x="370" y="-374.5" font-family="Helvetica,sans-Serif" font-size="10.00">/src/goto&#45;instrument/accelerate</text>
<text text-anchor="middle" x="462" y="-363.5" font-family="Helvetica,sans-Serif" font-size="10.00">/polynomial.h</text>
</a>
</g>
</g>
<!-- Node2 -->
<g id="node2" class="node">
<title>Node2</title>
<g id="a_node2"><a xlink:href="acceleration__utils_8h.html" target="_top" xlink:title=" ">
<polygon fill="none" stroke="black" points="362,-267.5 362,-319.5 562,-319.5 562,-267.5 362,-267.5"/>
<text text-anchor="start" x="370" y="-307.5" font-family="Helvetica,sans-Serif" font-size="10.00">/home/runner/work/cbmc</text>
<text text-anchor="start" x="370" y="-296.5" font-family="Helvetica,sans-Serif" font-size="10.00">&#45;documentation/cbmc&#45;documentation</text>
<text text-anchor="start" x="370" y="-285.5" font-family="Helvetica,sans-Serif" font-size="10.00">/src/goto&#45;instrument/accelerate</text>
<text text-anchor="middle" x="462" y="-274.5" font-family="Helvetica,sans-Serif" font-size="10.00">/acceleration_utils.h</text>
</a>
</g>
</g>
<!-- Node1&#45;&gt;Node2 -->
<g id="edge1" class="edge">
<title>Node1&#45;&gt;Node2</title>
<path fill="none" stroke="midnightblue" d="M462,-346.19C462,-337.28 462,-327.9 462,-319.61"/>
<polygon fill="midnightblue" stroke="midnightblue" points="458.5,-346.34 462,-356.34 465.5,-346.34 458.5,-346.34"/>
</g>
<!-- Node6 -->
<g id="node6" class="node">
<title>Node6</title>
<g id="a_node6"><a xlink:href="polynomial__accelerator_8h.html" target="_top" xlink:title=" ">
<polygon fill="none" stroke="black" points="29,-178.5 29,-230.5 229,-230.5 229,-178.5 29,-178.5"/>
<text text-anchor="start" x="37" y="-218.5" font-family="Helvetica,sans-Serif" font-size="10.00">/home/runner/work/cbmc</text>
<text text-anchor="start" x="37" y="-207.5" font-family="Helvetica,sans-Serif" font-size="10.00">&#45;documentation/cbmc&#45;documentation</text>
<text text-anchor="start" x="37" y="-196.5" font-family="Helvetica,sans-Serif" font-size="10.00">/src/goto&#45;instrument/accelerate</text>
<text text-anchor="middle" x="129" y="-185.5" font-family="Helvetica,sans-Serif" font-size="10.00">/polynomial_accelerator.h</text>
</a>
</g>
</g>
<!-- Node1&#45;&gt;Node6 -->
<g id="edge17" class="edge">
<title>Node1&#45;&gt;Node6</title>
<path fill="none" stroke="midnightblue" d="M405.43,-351.6C341,-317.55 236.84,-262.5 176.46,-230.59"/>
<polygon fill="midnightblue" stroke="midnightblue" points="404.17,-354.89 414.64,-356.47 407.44,-348.7 404.17,-354.89"/>
</g>
<!-- Node15 -->
<g id="node15" class="node">
<title>Node15</title>
<g id="a_node15"><a xlink:href="polynomial_8cpp.html" target="_top" xlink:title=" ">
<polygon fill="none" stroke="black" points="580,-267.5 580,-319.5 780,-319.5 780,-267.5 580,-267.5"/>
<text text-anchor="start" x="588" y="-307.5" font-family="Helvetica,sans-Serif" font-size="10.00">/home/runner/work/cbmc</text>
<text text-anchor="start" x="588" y="-296.5" font-family="Helvetica,sans-Serif" font-size="10.00">&#45;documentation/cbmc&#45;documentation</text>
<text text-anchor="start" x="588" y="-285.5" font-family="Helvetica,sans-Serif" font-size="10.00">/src/goto&#45;instrument/accelerate</text>
<text text-anchor="middle" x="680" y="-274.5" font-family="Helvetica,sans-Serif" font-size="10.00">/polynomial.cpp</text>
</a>
</g>
</g>
<!-- Node1&#45;&gt;Node15 -->
<g id="edge18" class="edge">
<title>Node1&#45;&gt;Node15</title>
<path fill="none" stroke="midnightblue" d="M534.12,-352.72C561.02,-341.98 591.32,-329.89 617.3,-319.52"/>
<polygon fill="midnightblue" stroke="midnightblue" points="532.75,-349.5 524.76,-356.45 535.35,-356 532.75,-349.5"/>
</g>
<!-- Node3 -->
<g id="node3" class="node">
<title>Node3</title>
<g id="a_node3"><a xlink:href="accelerate_8h.html" target="_top" xlink:title=" ">
<polygon fill="none" stroke="black" points="909,-178.5 909,-230.5 1109,-230.5 1109,-178.5 909,-178.5"/>
<text text-anchor="start" x="917" y="-218.5" font-family="Helvetica,sans-Serif" font-size="10.00">/home/runner/work/cbmc</text>
<text text-anchor="start" x="917" y="-207.5" font-family="Helvetica,sans-Serif" font-size="10.00">&#45;documentation/cbmc&#45;documentation</text>
<text text-anchor="start" x="917" y="-196.5" font-family="Helvetica,sans-Serif" font-size="10.00">/src/goto&#45;instrument/accelerate</text>
<text text-anchor="middle" x="1009" y="-185.5" font-family="Helvetica,sans-Serif" font-size="10.00">/accelerate.h</text>
</a>
</g>
</g>
<!-- Node2&#45;&gt;Node3 -->
<g id="edge2" class="edge">
<title>Node2&#45;&gt;Node3</title>
<path fill="none" stroke="midnightblue" d="M572.47,-266.84C717.8,-242.79 758.27,-255.24 900,-231 902.87,-230.51 905.78,-229.99 908.72,-229.44"/>
<polygon fill="midnightblue" stroke="midnightblue" points="571.56,-263.45 562.28,-268.56 572.72,-270.35 571.56,-263.45"/>
</g>
<!-- Node2&#45;&gt;Node6 -->
<g id="edge5" class="edge">
<title>Node2&#45;&gt;Node6</title>
<path fill="none" stroke="midnightblue" d="M356.38,-264.91C314.19,-253.88 265.94,-241.28 224.77,-230.52"/>
<polygon fill="midnightblue" stroke="midnightblue" points="355.57,-268.31 366.13,-267.45 357.34,-261.54 355.57,-268.31"/>
</g>
<!-- Node11 -->
<g id="node11" class="node">
<title>Node11</title>
<g id="a_node11"><a xlink:href="sat__path__enumerator_8h.html" target="_top" xlink:title=" ">
<polygon fill="none" stroke="black" points="473,-178.5 473,-230.5 673,-230.5 673,-178.5 473,-178.5"/>
<text text-anchor="start" x="481" y="-218.5" font-family="Helvetica,sans-Serif" font-size="10.00">/home/runner/work/cbmc</text>
<text text-anchor="start" x="481" y="-207.5" font-family="Helvetica,sans-Serif" font-size="10.00">&#45;documentation/cbmc&#45;documentation</text>
<text text-anchor="start" x="481" y="-196.5" font-family="Helvetica,sans-Serif" font-size="10.00">/src/goto&#45;instrument/accelerate</text>
<text text-anchor="middle" x="573" y="-185.5" font-family="Helvetica,sans-Serif" font-size="10.00">/sat_path_enumerator.h</text>
</a>
</g>
</g>
<!-- Node2&#45;&gt;Node11 -->
<g id="edge11" class="edge">
<title>Node2&#45;&gt;Node11</title>
<path fill="none" stroke="midnightblue" d="M502.27,-260.93C515,-250.96 528.89,-240.07 540.97,-230.61"/>
<polygon fill="midnightblue" stroke="midnightblue" points="499.82,-258.41 494.11,-267.34 504.14,-263.92 499.82,-258.41"/>
</g>
<!-- Node13 -->
<g id="node13" class="node">
<title>Node13</title>
<g id="a_node13"><a xlink:href="acceleration__utils_8cpp.html" target="_top" xlink:title=" ">
<polygon fill="none" stroke="black" points="691,-178.5 691,-230.5 891,-230.5 891,-178.5 691,-178.5"/>
<text text-anchor="start" x="699" y="-218.5" font-family="Helvetica,sans-Serif" font-size="10.00">/home/runner/work/cbmc</text>
<text text-anchor="start" x="699" y="-207.5" font-family="Helvetica,sans-Serif" font-size="10.00">&#45;documentation/cbmc&#45;documentation</text>
<text text-anchor="start" x="699" y="-196.5" font-family="Helvetica,sans-Serif" font-size="10.00">/src/goto&#45;instrument/accelerate</text>
<text text-anchor="middle" x="791" y="-185.5" font-family="Helvetica,sans-Serif" font-size="10.00">/acceleration_utils.cpp</text>
</a>
</g>
</g>
<!-- Node2&#45;&gt;Node13 -->
<g id="edge14" class="edge">
<title>Node2&#45;&gt;Node13</title>
<path fill="none" stroke="midnightblue" d="M566.61,-264.84C608.24,-253.83 655.8,-241.25 696.38,-230.52"/>
<polygon fill="midnightblue" stroke="midnightblue" points="565.49,-261.51 556.72,-267.45 567.28,-268.28 565.49,-261.51"/>
</g>
<!-- Node14 -->
<g id="node14" class="node">
<title>Node14</title>
<g id="a_node14"><a xlink:href="disjunctive__polynomial__acceleration_8h.html" target="_top" xlink:title=" ">
<polygon fill="none" stroke="black" points="247.5,-178.5 247.5,-230.5 454.5,-230.5 454.5,-178.5 247.5,-178.5"/>
<text text-anchor="start" x="255.5" y="-218.5" font-family="Helvetica,sans-Serif" font-size="10.00">/home/runner/work/cbmc</text>
<text text-anchor="start" x="255.5" y="-207.5" font-family="Helvetica,sans-Serif" font-size="10.00">&#45;documentation/cbmc&#45;documentation</text>
<text text-anchor="start" x="255.5" y="-196.5" font-family="Helvetica,sans-Serif" font-size="10.00">/src/goto&#45;instrument/accelerate</text>
<text text-anchor="middle" x="351" y="-185.5" font-family="Helvetica,sans-Serif" font-size="10.00">/disjunctive_polynomial_acceleration.h</text>
</a>
</g>
</g>
<!-- Node2&#45;&gt;Node14 -->
<g id="edge15" class="edge">
<title>Node2&#45;&gt;Node14</title>
<path fill="none" stroke="midnightblue" d="M421.73,-260.93C409,-250.96 395.11,-240.07 383.03,-230.61"/>
<polygon fill="midnightblue" stroke="midnightblue" points="419.86,-263.92 429.89,-267.34 424.18,-258.41 419.86,-263.92"/>
</g>
<!-- Node4 -->
<g id="node4" class="node">
<title>Node4</title>
<g id="a_node4"><a xlink:href="accelerate_8cpp.html" target="_top" xlink:title=" ">
<polygon fill="none" stroke="black" points="736,-0.5 736,-52.5 936,-52.5 936,-0.5 736,-0.5"/>
<text text-anchor="start" x="744" y="-40.5" font-family="Helvetica,sans-Serif" font-size="10.00">/home/runner/work/cbmc</text>
<text text-anchor="start" x="744" y="-29.5" font-family="Helvetica,sans-Serif" font-size="10.00">&#45;documentation/cbmc&#45;documentation</text>
<text text-anchor="start" x="744" y="-18.5" font-family="Helvetica,sans-Serif" font-size="10.00">/src/goto&#45;instrument/accelerate</text>
<text text-anchor="middle" x="836" y="-7.5" font-family="Helvetica,sans-Serif" font-size="10.00">/accelerate.cpp</text>
</a>
</g>
</g>
<!-- Node3&#45;&gt;Node4 -->
<g id="edge3" class="edge">
<title>Node3&#45;&gt;Node4</title>
<path fill="none" stroke="midnightblue" d="M957.34,-172.73C944.12,-163.68 930.43,-153.18 919,-142 898.27,-121.74 898,-112.47 881,-89 872.31,-77 862.61,-63.73 854.45,-52.59"/>
<polygon fill="midnightblue" stroke="midnightblue" points="955.66,-175.82 965.92,-178.46 959.55,-169.99 955.66,-175.82"/>
</g>
<!-- Node5 -->
<g id="node5" class="node">
<title>Node5</title>
<g id="a_node5"><a xlink:href="goto__instrument__parse__options_8cpp.html" target="_top" xlink:title=" ">
<polygon fill="none" stroke="black" points="928,-89.5 928,-141.5 1128,-141.5 1128,-89.5 928,-89.5"/>
<text text-anchor="start" x="936" y="-129.5" font-family="Helvetica,sans-Serif" font-size="10.00">/home/runner/work/cbmc</text>
<text text-anchor="start" x="936" y="-118.5" font-family="Helvetica,sans-Serif" font-size="10.00">&#45;documentation/cbmc&#45;documentation</text>
<text text-anchor="start" x="936" y="-107.5" font-family="Helvetica,sans-Serif" font-size="10.00">/src/goto&#45;instrument/goto_instrument</text>
<text text-anchor="middle" x="1028" y="-96.5" font-family="Helvetica,sans-Serif" font-size="10.00">_parse_options.cpp</text>
</a>
</g>
</g>
<!-- Node3&#45;&gt;Node5 -->
<g id="edge4" class="edge">
<title>Node3&#45;&gt;Node5</title>
<path fill="none" stroke="midnightblue" d="M1016.65,-168.48C1018.61,-159.49 1020.69,-149.99 1022.52,-141.61"/>
<polygon fill="midnightblue" stroke="midnightblue" points="1013.21,-167.82 1014.5,-178.34 1020.05,-169.31 1013.21,-167.82"/>
</g>
<!-- Node7 -->
<g id="node7" class="node">
<title>Node7</title>
<g id="a_node7"><a xlink:href="enumerating__loop__acceleration_8h.html" target="_top" xlink:title=" ">
<polygon fill="none" stroke="black" points="454,-89.5 454,-141.5 654,-141.5 654,-89.5 454,-89.5"/>
<text text-anchor="start" x="462" y="-129.5" font-family="Helvetica,sans-Serif" font-size="10.00">/home/runner/work/cbmc</text>
<text text-anchor="start" x="462" y="-118.5" font-family="Helvetica,sans-Serif" font-size="10.00">&#45;documentation/cbmc&#45;documentation</text>
<text text-anchor="start" x="462" y="-107.5" font-family="Helvetica,sans-Serif" font-size="10.00">/src/goto&#45;instrument/accelerate</text>
<text text-anchor="middle" x="554" y="-96.5" font-family="Helvetica,sans-Serif" font-size="10.00">/enumerating_loop_acceleration.h</text>
</a>
</g>
</g>
<!-- Node6&#45;&gt;Node7 -->
<g id="edge6" class="edge">
<title>Node6&#45;&gt;Node7</title>
<path fill="none" stroke="midnightblue" d="M239.07,-177.83C331.22,-159.42 356.63,-160.01 445,-142 447.95,-141.4 450.95,-140.78 453.97,-140.14"/>
<polygon fill="midnightblue" stroke="midnightblue" points="238.14,-174.45 229.03,-179.86 239.53,-181.31 238.14,-174.45"/>
</g>
<!-- Node9 -->
<g id="node9" class="node">
<title>Node9</title>
<g id="a_node9"><a xlink:href="disjunctive__polynomial__acceleration_8cpp.html" target="_top" xlink:title=" ">
<polygon fill="none" stroke="black" points="218,-89.5 218,-141.5 436,-141.5 436,-89.5 218,-89.5"/>
<text text-anchor="start" x="226" y="-129.5" font-family="Helvetica,sans-Serif" font-size="10.00">/home/runner/work/cbmc</text>
<text text-anchor="start" x="226" y="-118.5" font-family="Helvetica,sans-Serif" font-size="10.00">&#45;documentation/cbmc&#45;documentation</text>
<text text-anchor="start" x="226" y="-107.5" font-family="Helvetica,sans-Serif" font-size="10.00">/src/goto&#45;instrument/accelerate</text>
<text text-anchor="middle" x="327" y="-96.5" font-family="Helvetica,sans-Serif" font-size="10.00">/disjunctive_polynomial_acceleration.cpp</text>
</a>
</g>
</g>
<!-- Node6&#45;&gt;Node9 -->
<g id="edge9" class="edge">
<title>Node6&#45;&gt;Node9</title>
<path fill="none" stroke="midnightblue" d="M195.47,-174.29C219.66,-163.67 246.76,-151.76 270.06,-141.52"/>
<polygon fill="midnightblue" stroke="midnightblue" points="193.75,-171.23 186,-178.45 196.57,-177.63 193.75,-171.23"/>
</g>
<!-- Node10 -->
<g id="node10" class="node">
<title>Node10</title>
<g id="a_node10"><a xlink:href="polynomial__accelerator_8cpp.html" target="_top" xlink:title=" ">
<polygon fill="none" stroke="black" points="0,-89.5 0,-141.5 200,-141.5 200,-89.5 0,-89.5"/>
<text text-anchor="start" x="8" y="-129.5" font-family="Helvetica,sans-Serif" font-size="10.00">/home/runner/work/cbmc</text>
<text text-anchor="start" x="8" y="-118.5" font-family="Helvetica,sans-Serif" font-size="10.00">&#45;documentation/cbmc&#45;documentation</text>
<text text-anchor="start" x="8" y="-107.5" font-family="Helvetica,sans-Serif" font-size="10.00">/src/goto&#45;instrument/accelerate</text>
<text text-anchor="middle" x="100" y="-96.5" font-family="Helvetica,sans-Serif" font-size="10.00">/polynomial_accelerator.cpp</text>
</a>
</g>
</g>
<!-- Node6&#45;&gt;Node10 -->
<g id="edge10" class="edge">
<title>Node6&#45;&gt;Node10</title>
<path fill="none" stroke="midnightblue" d="M117.42,-168.77C114.4,-159.69 111.19,-150.08 108.37,-141.61"/>
<polygon fill="midnightblue" stroke="midnightblue" points="114.13,-169.96 120.61,-178.34 120.77,-167.74 114.13,-169.96"/>
</g>
<!-- Node7&#45;&gt;Node4 -->
<g id="edge7" class="edge">
<title>Node7&#45;&gt;Node4</title>
<path fill="none" stroke="midnightblue" d="M645.02,-86.42C680.38,-75.51 720.55,-63.12 754.9,-52.52"/>
<polygon fill="midnightblue" stroke="midnightblue" points="643.71,-83.16 635.19,-89.45 645.78,-89.85 643.71,-83.16"/>
</g>
<!-- Node8 -->
<g id="node8" class="node">
<title>Node8</title>
<g id="a_node8"><a xlink:href="enumerating__loop__acceleration_8cpp.html" target="_top" xlink:title=" ">
<polygon fill="none" stroke="black" points="454,-0.5 454,-52.5 654,-52.5 654,-0.5 454,-0.5"/>
<text text-anchor="start" x="462" y="-40.5" font-family="Helvetica,sans-Serif" font-size="10.00">/home/runner/work/cbmc</text>
<text text-anchor="start" x="462" y="-29.5" font-family="Helvetica,sans-Serif" font-size="10.00">&#45;documentation/cbmc&#45;documentation</text>
<text text-anchor="start" x="462" y="-18.5" font-family="Helvetica,sans-Serif" font-size="10.00">/src/goto&#45;instrument/accelerate</text>
<text text-anchor="middle" x="554" y="-7.5" font-family="Helvetica,sans-Serif" font-size="10.00">/enumerating_loop_acceleration.cpp</text>
</a>
</g>
</g>
<!-- Node7&#45;&gt;Node8 -->
<g id="edge8" class="edge">
<title>Node7&#45;&gt;Node8</title>
<path fill="none" stroke="midnightblue" d="M554,-79.19C554,-70.28 554,-60.9 554,-52.61"/>
<polygon fill="midnightblue" stroke="midnightblue" points="550.5,-79.34 554,-89.34 557.5,-79.34 550.5,-79.34"/>
</g>
<!-- Node11&#45;&gt;Node7 -->
<g id="edge12" class="edge">
<title>Node11&#45;&gt;Node7</title>
<path fill="none" stroke="midnightblue" d="M565.35,-168.48C563.39,-159.49 561.31,-149.99 559.48,-141.61"/>
<polygon fill="midnightblue" stroke="midnightblue" points="561.95,-169.31 567.5,-178.34 568.79,-167.82 561.95,-169.31"/>
</g>
<!-- Node12 -->
<g id="node12" class="node">
<title>Node12</title>
<g id="a_node12"><a xlink:href="sat__path__enumerator_8cpp.html" target="_top" xlink:title=" ">
<polygon fill="none" stroke="black" points="672,-89.5 672,-141.5 872,-141.5 872,-89.5 672,-89.5"/>
<text text-anchor="start" x="680" y="-129.5" font-family="Helvetica,sans-Serif" font-size="10.00">/home/runner/work/cbmc</text>
<text text-anchor="start" x="680" y="-118.5" font-family="Helvetica,sans-Serif" font-size="10.00">&#45;documentation/cbmc&#45;documentation</text>
<text text-anchor="start" x="680" y="-107.5" font-family="Helvetica,sans-Serif" font-size="10.00">/src/goto&#45;instrument/accelerate</text>
<text text-anchor="middle" x="772" y="-96.5" font-family="Helvetica,sans-Serif" font-size="10.00">/sat_path_enumerator.cpp</text>
</a>
</g>
</g>
<!-- Node11&#45;&gt;Node12 -->
<g id="edge13" class="edge">
<title>Node11&#45;&gt;Node12</title>
<path fill="none" stroke="midnightblue" d="M639.48,-174.44C663.87,-163.77 691.26,-151.8 714.77,-141.52"/>
<polygon fill="midnightblue" stroke="midnightblue" points="638.05,-171.24 630.29,-178.45 640.86,-177.65 638.05,-171.24"/>
</g>
<!-- Node14&#45;&gt;Node9 -->
<g id="edge16" class="edge">
<title>Node14&#45;&gt;Node9</title>
<path fill="none" stroke="midnightblue" d="M341.34,-168.48C338.86,-159.49 336.24,-149.99 333.93,-141.61"/>
<polygon fill="midnightblue" stroke="midnightblue" points="338.02,-169.63 344.06,-178.34 344.77,-167.77 338.02,-169.63"/>
</g>
</g>
</svg>
