<?xml version="1.0" encoding="UTF-8" standalone="no"?>
<!DOCTYPE svg PUBLIC "-//W3C//DTD SVG 1.1//EN"
 "http://www.w3.org/Graphics/SVG/1.1/DTD/svg11.dtd">
<!-- Generated by graphviz version 2.43.0 (0)
 -->
<!-- Title: /home/runner/work/cbmc&#45;documentation/cbmc&#45;documentation/src/solvers/prop/prop_minimize.h Pages: 1 -->
<svg width="652pt" height="139pt"
 viewBox="0.00 0.00 652.00 139.00" xmlns="http://www.w3.org/2000/svg" xmlns:xlink="http://www.w3.org/1999/xlink">
<g id="graph0" class="graph" transform="scale(1 1) rotate(0) translate(4 135)">
<title>/home/runner/work/cbmc&#45;documentation/cbmc&#45;documentation/src/solvers/prop/prop_minimize.h</title>
<!-- Node1 -->
<g id="node1" class="node">
<title>Node1</title>
<g id="a_node1"><a xlink:title=" ">
<polygon fill="#bfbfbf" stroke="black" points="222,-89.5 222,-130.5 422,-130.5 422,-89.5 222,-89.5"/>
<text text-anchor="start" x="230" y="-118.5" font-family="Helvetica,sans-Serif" font-size="10.00">/home/runner/work/cbmc</text>
<text text-anchor="start" x="230" y="-107.5" font-family="Helvetica,sans-Serif" font-size="10.00">&#45;documentation/cbmc&#45;documentation</text>
<text text-anchor="middle" x="322" y="-96.5" font-family="Helvetica,sans-Serif" font-size="10.00">/src/solvers/prop/prop_minimize.h</text>
</a>
</g>
</g>
<!-- Node2 -->
<g id="node2" class="node">
<title>Node2</title>
<g id="a_node2"><a xlink:href="counterexample__beautification_8cpp.html" target="_top" xlink:title=" ">
<polygon fill="none" stroke="black" points="0,-0.5 0,-52.5 200,-52.5 200,-0.5 0,-0.5"/>
<text text-anchor="start" x="8" y="-40.5" font-family="Helvetica,sans-Serif" font-size="10.00">/home/runner/work/cbmc</text>
<text text-anchor="start" x="8" y="-29.5" font-family="Helvetica,sans-Serif" font-size="10.00">&#45;documentation/cbmc&#45;documentation</text>
<text text-anchor="start" x="8" y="-18.5" font-family="Helvetica,sans-Serif" font-size="10.00">/src/goto&#45;checker/counterexample</text>
<text text-anchor="middle" x="100" y="-7.5" font-family="Helvetica,sans-Serif" font-size="10.00">_beautification.cpp</text>
</a>
</g>
</g>
<!-- Node1&#45;&gt;Node2 -->
<g id="edge1" class="edge">
<title>Node1&#45;&gt;Node2</title>
<path fill="none" stroke="midnightblue" d="M259.41,-86.02C231.01,-75.6 197.36,-63.24 168.31,-52.58"/>
<polygon fill="midnightblue" stroke="midnightblue" points="258.23,-89.32 268.83,-89.48 260.64,-82.75 258.23,-89.32"/>
</g>
<!-- Node3 -->
<g id="node3" class="node">
<title>Node3</title>
<g id="a_node3"><a xlink:href="bv__minimize_8cpp.html" target="_top" xlink:title=" ">
<polygon fill="none" stroke="black" points="218,-6 218,-47 426,-47 426,-6 218,-6"/>
<text text-anchor="start" x="226" y="-35" font-family="Helvetica,sans-Serif" font-size="10.00">/home/runner/work/cbmc</text>
<text text-anchor="start" x="226" y="-24" font-family="Helvetica,sans-Serif" font-size="10.00">&#45;documentation/cbmc&#45;documentation</text>
<text text-anchor="middle" x="322" y="-13" font-family="Helvetica,sans-Serif" font-size="10.00">/src/solvers/flattening/bv_minimize.cpp</text>
</a>
</g>
</g>
<!-- Node1&#45;&gt;Node3 -->
<g id="edge2" class="edge">
<title>Node1&#45;&gt;Node3</title>
<path fill="none" stroke="midnightblue" d="M322,-79.06C322,-68.38 322,-56.63 322,-47.05"/>
<polygon fill="midnightblue" stroke="midnightblue" points="318.5,-79.27 322,-89.27 325.5,-79.27 318.5,-79.27"/>
</g>
<!-- Node4 -->
<g id="node4" class="node">
<title>Node4</title>
<g id="a_node4"><a xlink:href="prop__minimize_8cpp.html" target="_top" xlink:title=" ">
<polygon fill="none" stroke="black" points="444,-6 444,-47 644,-47 644,-6 444,-6"/>
<text text-anchor="start" x="452" y="-35" font-family="Helvetica,sans-Serif" font-size="10.00">/home/runner/work/cbmc</text>
<text text-anchor="start" x="452" y="-24" font-family="Helvetica,sans-Serif" font-size="10.00">&#45;documentation/cbmc&#45;documentation</text>
<text text-anchor="middle" x="544" y="-13" font-family="Helvetica,sans-Serif" font-size="10.00">/src/solvers/prop/prop_minimize.cpp</text>
</a>
</g>
</g>
<!-- Node1&#45;&gt;Node4 -->
<g id="edge3" class="edge">
<title>Node1&#45;&gt;Node4</title>
<path fill="none" stroke="midnightblue" d="M384.86,-85.92C418.31,-73.64 459.01,-58.7 490.88,-47"/>
<polygon fill="midnightblue" stroke="midnightblue" points="383.36,-82.75 375.17,-89.48 385.77,-89.32 383.36,-82.75"/>
</g>
</g>
</svg>
