<?xml version="1.0" encoding="UTF-8" standalone="no"?>
<!DOCTYPE svg PUBLIC "-//W3C//DTD SVG 1.1//EN"
 "http://www.w3.org/Graphics/SVG/1.1/DTD/svg11.dtd">
<!-- Generated by graphviz version 2.43.0 (0)
 -->
<!-- Title: /home/runner/work/cbmc&#45;documentation/cbmc&#45;documentation/src/solvers/qbf/qbf_qube.h Pages: 1 -->
<svg width="398pt" height="453pt"
 viewBox="0.00 0.00 398.00 453.00" xmlns="http://www.w3.org/2000/svg" xmlns:xlink="http://www.w3.org/1999/xlink">
<g id="graph0" class="graph" transform="scale(1 1) rotate(0) translate(4 449)">
<title>/home/runner/work/cbmc&#45;documentation/cbmc&#45;documentation/src/solvers/qbf/qbf_qube.h</title>
<!-- Node1 -->
<g id="node1" class="node">
<title>Node1</title>
<g id="a_node1"><a xlink:title=" ">
<polygon fill="#bfbfbf" stroke="black" points="0,-403.5 0,-444.5 200,-444.5 200,-403.5 0,-403.5"/>
<text text-anchor="start" x="8" y="-432.5" font-family="Helvetica,sans-Serif" font-size="10.00">/home/runner/work/cbmc</text>
<text text-anchor="start" x="8" y="-421.5" font-family="Helvetica,sans-Serif" font-size="10.00">&#45;documentation/cbmc&#45;documentation</text>
<text text-anchor="middle" x="100" y="-410.5" font-family="Helvetica,sans-Serif" font-size="10.00">/src/solvers/qbf/qbf_qube.h</text>
</a>
</g>
</g>
<!-- Node2 -->
<g id="node2" class="node">
<title>Node2</title>
<g id="a_node2"><a xlink:href="qdimacs__cnf_8h.html" target="_top" xlink:title=" ">
<polygon fill="none" stroke="black" points="57,-347.5 57,-366.5 143,-366.5 143,-347.5 57,-347.5"/>
<text text-anchor="middle" x="100" y="-354.5" font-family="Helvetica,sans-Serif" font-size="10.00">qdimacs_cnf.h</text>
</a>
</g>
</g>
<!-- Node1&#45;&gt;Node2 -->
<g id="edge1" class="edge">
<title>Node1&#45;&gt;Node2</title>
<path fill="none" stroke="midnightblue" d="M100,-403.5C100,-395.07 100,-385.24 100,-376.87"/>
<polygon fill="midnightblue" stroke="midnightblue" points="103.5,-376.65 100,-366.65 96.5,-376.65 103.5,-376.65"/>
</g>
<!-- Node3 -->
<g id="node3" class="node">
<title>Node3</title>
<g id="a_node3"><a xlink:title=" ">
<polygon fill="none" stroke="#bfbfbf" points="144,-0.5 144,-19.5 192,-19.5 192,-0.5 144,-0.5"/>
<text text-anchor="middle" x="168" y="-7.5" font-family="Helvetica,sans-Serif" font-size="10.00">iosfwd</text>
</a>
</g>
</g>
<!-- Node2&#45;&gt;Node3 -->
<g id="edge2" class="edge">
<title>Node2&#45;&gt;Node3</title>
<path fill="none" stroke="midnightblue" d="M94.81,-347.24C83.77,-327.77 59,-279.14 59,-235 59,-235 59,-235 59,-121 59,-75.12 107.44,-41.53 139.73,-24.23"/>
<polygon fill="midnightblue" stroke="midnightblue" points="141.47,-27.27 148.76,-19.58 138.27,-21.04 141.47,-27.27"/>
</g>
<!-- Node4 -->
<g id="node4" class="node">
<title>Node4</title>
<g id="a_node4"><a xlink:href="dimacs__cnf_8h.html" target="_top" xlink:title=" ">
<polygon fill="none" stroke="black" points="87,-280.5 87,-310.5 195,-310.5 195,-280.5 87,-280.5"/>
<text text-anchor="start" x="95" y="-298.5" font-family="Helvetica,sans-Serif" font-size="10.00">solvers/sat/dimacs</text>
<text text-anchor="middle" x="141" y="-287.5" font-family="Helvetica,sans-Serif" font-size="10.00">_cnf.h</text>
</a>
</g>
</g>
<!-- Node2&#45;&gt;Node4 -->
<g id="edge3" class="edge">
<title>Node2&#45;&gt;Node4</title>
<path fill="none" stroke="midnightblue" d="M105.87,-347.48C111.01,-340.02 118.71,-328.85 125.59,-318.87"/>
<polygon fill="midnightblue" stroke="midnightblue" points="128.55,-320.74 131.34,-310.52 122.78,-316.77 128.55,-320.74"/>
</g>
<!-- Node4&#45;&gt;Node3 -->
<g id="edge4" class="edge">
<title>Node4&#45;&gt;Node3</title>
<path fill="none" stroke="midnightblue" d="M131.67,-280.22C118.75,-259.03 97,-217.62 97,-179 97,-179 97,-179 97,-121 97,-90.77 100.61,-81.4 117,-56 124.6,-44.22 136.13,-33.68 146.3,-25.78"/>
<polygon fill="midnightblue" stroke="midnightblue" points="148.45,-28.54 154.41,-19.78 144.29,-22.91 148.45,-28.54"/>
</g>
<!-- Node5 -->
<g id="node5" class="node">
<title>Node5</title>
<g id="a_node5"><a xlink:href="cnf__clause__list_8h.html" target="_top" xlink:title=" ">
<polygon fill="none" stroke="black" points="130,-224.5 130,-243.5 228,-243.5 228,-224.5 130,-224.5"/>
<text text-anchor="middle" x="179" y="-231.5" font-family="Helvetica,sans-Serif" font-size="10.00">cnf_clause_list.h</text>
</a>
</g>
</g>
<!-- Node4&#45;&gt;Node5 -->
<g id="edge5" class="edge">
<title>Node4&#45;&gt;Node5</title>
<path fill="none" stroke="midnightblue" d="M150.01,-280.4C155.41,-271.93 162.33,-261.1 168.05,-252.14"/>
<polygon fill="midnightblue" stroke="midnightblue" points="171.04,-253.97 173.47,-243.66 165.14,-250.2 171.04,-253.97"/>
</g>
<!-- Node6 -->
<g id="node6" class="node">
<title>Node6</title>
<g id="a_node6"><a xlink:title=" ">
<polygon fill="none" stroke="#bfbfbf" points="125,-168.5 125,-187.5 157,-187.5 157,-168.5 125,-168.5"/>
<text text-anchor="middle" x="141" y="-175.5" font-family="Helvetica,sans-Serif" font-size="10.00">list</text>
</a>
</g>
</g>
<!-- Node5&#45;&gt;Node6 -->
<g id="edge6" class="edge">
<title>Node5&#45;&gt;Node6</title>
<path fill="none" stroke="midnightblue" d="M172.73,-224.08C167.36,-216.46 159.48,-205.26 152.92,-195.94"/>
<polygon fill="midnightblue" stroke="midnightblue" points="155.78,-193.91 147.16,-187.75 150.05,-197.94 155.78,-193.91"/>
</g>
<!-- Node7 -->
<g id="node7" class="node">
<title>Node7</title>
<g id="a_node7"><a xlink:href="threeval_8h.html" target="_top" xlink:title=" ">
<polygon fill="none" stroke="black" points="125.5,-56.5 125.5,-75.5 210.5,-75.5 210.5,-56.5 125.5,-56.5"/>
<text text-anchor="middle" x="168" y="-63.5" font-family="Helvetica,sans-Serif" font-size="10.00">util/threeval.h</text>
</a>
</g>
</g>
<!-- Node5&#45;&gt;Node7 -->
<g id="edge7" class="edge">
<title>Node5&#45;&gt;Node7</title>
<path fill="none" stroke="midnightblue" d="M178.41,-224.08C176.68,-197.95 171.59,-121.21 169.23,-85.58"/>
<polygon fill="midnightblue" stroke="midnightblue" points="172.72,-85.31 168.57,-75.57 165.74,-85.78 172.72,-85.31"/>
</g>
<!-- Node8 -->
<g id="node8" class="node">
<title>Node8</title>
<g id="a_node8"><a xlink:href="cnf_8h.html" target="_top" xlink:title=" ">
<polygon fill="none" stroke="black" points="232,-168.5 232,-187.5 272,-187.5 272,-168.5 232,-168.5"/>
<text text-anchor="middle" x="252" y="-175.5" font-family="Helvetica,sans-Serif" font-size="10.00">cnf.h</text>
</a>
</g>
</g>
<!-- Node5&#45;&gt;Node8 -->
<g id="edge9" class="edge">
<title>Node5&#45;&gt;Node8</title>
<path fill="none" stroke="midnightblue" d="M190.73,-224.32C201.84,-216.11 218.74,-203.6 231.98,-193.81"/>
<polygon fill="midnightblue" stroke="midnightblue" points="234.1,-196.59 240.06,-187.83 229.94,-190.97 234.1,-196.59"/>
</g>
<!-- Node7&#45;&gt;Node3 -->
<g id="edge8" class="edge">
<title>Node7&#45;&gt;Node3</title>
<path fill="none" stroke="midnightblue" d="M168,-56.08C168,-49.01 168,-38.86 168,-29.99"/>
<polygon fill="midnightblue" stroke="midnightblue" points="171.5,-29.75 168,-19.75 164.5,-29.75 171.5,-29.75"/>
</g>
<!-- Node9 -->
<g id="node9" class="node">
<title>Node9</title>
<g id="a_node9"><a xlink:href="prop_8h.html" target="_top" xlink:title=" ">
<polygon fill="none" stroke="black" points="215,-112.5 215,-131.5 325,-131.5 325,-112.5 215,-112.5"/>
<text text-anchor="middle" x="270" y="-119.5" font-family="Helvetica,sans-Serif" font-size="10.00">solvers/prop/prop.h</text>
</a>
</g>
</g>
<!-- Node8&#45;&gt;Node9 -->
<g id="edge10" class="edge">
<title>Node8&#45;&gt;Node9</title>
<path fill="none" stroke="midnightblue" d="M254.97,-168.08C257.38,-160.85 260.86,-150.41 263.87,-141.4"/>
<polygon fill="midnightblue" stroke="midnightblue" points="267.24,-142.34 267.08,-131.75 260.6,-140.13 267.24,-142.34"/>
</g>
<!-- Node9&#45;&gt;Node7 -->
<g id="edge13" class="edge">
<title>Node9&#45;&gt;Node7</title>
<path fill="none" stroke="midnightblue" d="M253.61,-112.32C237.33,-103.7 212.13,-90.36 193.28,-80.39"/>
<polygon fill="midnightblue" stroke="midnightblue" points="194.82,-77.24 184.35,-75.65 191.55,-83.43 194.82,-77.24"/>
</g>
<!-- Node10 -->
<g id="node10" class="node">
<title>Node10</title>
<g id="a_node10"><a xlink:href="src_2util_2message_8h.html" target="_top" xlink:title=" ">
<polygon fill="none" stroke="red" points="228.5,-56.5 228.5,-75.5 317.5,-75.5 317.5,-56.5 228.5,-56.5"/>
<text text-anchor="middle" x="273" y="-63.5" font-family="Helvetica,sans-Serif" font-size="10.00">util/message.h</text>
</a>
</g>
</g>
<!-- Node9&#45;&gt;Node10 -->
<g id="edge11" class="edge">
<title>Node9&#45;&gt;Node10</title>
<path fill="none" stroke="midnightblue" d="M270.5,-112.08C270.89,-105.01 271.45,-94.86 271.95,-85.99"/>
<polygon fill="midnightblue" stroke="midnightblue" points="275.45,-85.93 272.51,-75.75 268.46,-85.54 275.45,-85.93"/>
</g>
<!-- Node37 -->
<g id="node11" class="node">
<title>Node37</title>
<g id="a_node11"><a xlink:href="literal_8h.html" target="_top" xlink:title=" ">
<polygon fill="none" stroke="red" points="336,-56.5 336,-75.5 390,-75.5 390,-56.5 336,-56.5"/>
<text text-anchor="middle" x="363" y="-63.5" font-family="Helvetica,sans-Serif" font-size="10.00">literal.h</text>
</a>
</g>
</g>
<!-- Node9&#45;&gt;Node37 -->
<g id="edge14" class="edge">
<title>Node9&#45;&gt;Node37</title>
<path fill="none" stroke="midnightblue" d="M284.94,-112.32C299.59,-103.82 322.13,-90.73 339.24,-80.8"/>
<polygon fill="midnightblue" stroke="midnightblue" points="341.2,-83.7 348.1,-75.65 337.69,-77.65 341.2,-83.7"/>
</g>
<!-- Node10&#45;&gt;Node3 -->
<g id="edge12" class="edge">
<title>Node10&#45;&gt;Node3</title>
<path fill="none" stroke="midnightblue" d="M256.13,-56.32C239.29,-47.66 213.19,-34.24 193.76,-24.25"/>
<polygon fill="midnightblue" stroke="midnightblue" points="195.32,-21.12 184.83,-19.65 192.12,-27.34 195.32,-21.12"/>
</g>
<!-- Node37&#45;&gt;Node3 -->
<g id="edge15" class="edge">
<title>Node37&#45;&gt;Node3</title>
<path fill="none" stroke="midnightblue" d="M335.89,-57.49C300.97,-47.82 240.27,-31.01 202.22,-20.48"/>
<polygon fill="midnightblue" stroke="midnightblue" points="202.7,-16.98 192.12,-17.68 200.83,-23.72 202.7,-16.98"/>
</g>
</g>
</svg>
