<?xml version="1.0" encoding="UTF-8" standalone="no"?>
<!DOCTYPE svg PUBLIC "-//W3C//DTD SVG 1.1//EN"
 "http://www.w3.org/Graphics/SVG/1.1/DTD/svg11.dtd">
<!-- Generated by graphviz version 2.43.0 (0)
 -->
<!-- Title: /home/runner/work/cbmc&#45;documentation/cbmc&#45;documentation/src/solvers/qbf/qdimacs_cnf.h Pages: 1 -->
<svg width="2170pt" height="362pt"
 viewBox="0.00 0.00 2170.00 362.00" xmlns="http://www.w3.org/2000/svg" xmlns:xlink="http://www.w3.org/1999/xlink">
<g id="graph0" class="graph" transform="scale(1 1) rotate(0) translate(4 358)">
<title>/home/runner/work/cbmc&#45;documentation/cbmc&#45;documentation/src/solvers/qbf/qdimacs_cnf.h</title>
<!-- Node1 -->
<g id="node1" class="node">
<title>Node1</title>
<g id="a_node1"><a xlink:title=" ">
<polygon fill="#bfbfbf" stroke="black" points="1417,-312.5 1417,-353.5 1617,-353.5 1617,-312.5 1417,-312.5"/>
<text text-anchor="start" x="1425" y="-341.5" font-family="Helvetica,sans-Serif" font-size="10.00">/home/runner/work/cbmc</text>
<text text-anchor="start" x="1425" y="-330.5" font-family="Helvetica,sans-Serif" font-size="10.00">&#45;documentation/cbmc&#45;documentation</text>
<text text-anchor="middle" x="1517" y="-319.5" font-family="Helvetica,sans-Serif" font-size="10.00">/src/solvers/qbf/qdimacs_cnf.h</text>
</a>
</g>
</g>
<!-- Node2 -->
<g id="node2" class="node">
<title>Node2</title>
<g id="a_node2"><a xlink:href="qdimacs__core_8h.html" target="_top" xlink:title=" ">
<polygon fill="none" stroke="black" points="654,-234.5 654,-275.5 854,-275.5 854,-234.5 654,-234.5"/>
<text text-anchor="start" x="662" y="-263.5" font-family="Helvetica,sans-Serif" font-size="10.00">/home/runner/work/cbmc</text>
<text text-anchor="start" x="662" y="-252.5" font-family="Helvetica,sans-Serif" font-size="10.00">&#45;documentation/cbmc&#45;documentation</text>
<text text-anchor="middle" x="754" y="-241.5" font-family="Helvetica,sans-Serif" font-size="10.00">/src/solvers/qbf/qdimacs_core.h</text>
</a>
</g>
</g>
<!-- Node1&#45;&gt;Node2 -->
<g id="edge1" class="edge">
<title>Node1&#45;&gt;Node2</title>
<path fill="none" stroke="midnightblue" d="M1406.83,-321.03C1258.63,-306.26 997.21,-280.23 854.26,-265.99"/>
<polygon fill="midnightblue" stroke="midnightblue" points="1406.56,-324.52 1416.86,-322.03 1407.26,-317.55 1406.56,-324.52"/>
</g>
<!-- Node12 -->
<g id="node12" class="node">
<title>Node12</title>
<g id="a_node12"><a xlink:href="qbf__quantor_8h.html" target="_top" xlink:title=" ">
<polygon fill="none" stroke="black" points="1090,-234.5 1090,-275.5 1290,-275.5 1290,-234.5 1090,-234.5"/>
<text text-anchor="start" x="1098" y="-263.5" font-family="Helvetica,sans-Serif" font-size="10.00">/home/runner/work/cbmc</text>
<text text-anchor="start" x="1098" y="-252.5" font-family="Helvetica,sans-Serif" font-size="10.00">&#45;documentation/cbmc&#45;documentation</text>
<text text-anchor="middle" x="1190" y="-241.5" font-family="Helvetica,sans-Serif" font-size="10.00">/src/solvers/qbf/qbf_quantor.h</text>
</a>
</g>
</g>
<!-- Node1&#45;&gt;Node12 -->
<g id="edge11" class="edge">
<title>Node1&#45;&gt;Node12</title>
<path fill="none" stroke="midnightblue" d="M1422.91,-310.13C1375.88,-299.2 1319.46,-286.09 1273.93,-275.51"/>
<polygon fill="midnightblue" stroke="midnightblue" points="1422.26,-313.57 1432.79,-312.43 1423.84,-306.76 1422.26,-313.57"/>
</g>
<!-- Node14 -->
<g id="node14" class="node">
<title>Node14</title>
<g id="a_node14"><a xlink:href="qbf__qube_8h.html" target="_top" xlink:title=" ">
<polygon fill="none" stroke="black" points="1308,-234.5 1308,-275.5 1508,-275.5 1508,-234.5 1308,-234.5"/>
<text text-anchor="start" x="1316" y="-263.5" font-family="Helvetica,sans-Serif" font-size="10.00">/home/runner/work/cbmc</text>
<text text-anchor="start" x="1316" y="-252.5" font-family="Helvetica,sans-Serif" font-size="10.00">&#45;documentation/cbmc&#45;documentation</text>
<text text-anchor="middle" x="1408" y="-241.5" font-family="Helvetica,sans-Serif" font-size="10.00">/src/solvers/qbf/qbf_qube.h</text>
</a>
</g>
</g>
<!-- Node1&#45;&gt;Node14 -->
<g id="edge13" class="edge">
<title>Node1&#45;&gt;Node14</title>
<path fill="none" stroke="midnightblue" d="M1480.62,-306.64C1466.07,-296.49 1449.57,-284.98 1435.98,-275.51"/>
<polygon fill="midnightblue" stroke="midnightblue" points="1478.73,-309.58 1488.93,-312.43 1482.73,-303.84 1478.73,-309.58"/>
</g>
<!-- Node16 -->
<g id="node16" class="node">
<title>Node16</title>
<g id="a_node16"><a xlink:href="qbf__skizzo_8h.html" target="_top" xlink:title=" ">
<polygon fill="none" stroke="black" points="1526,-234.5 1526,-275.5 1726,-275.5 1726,-234.5 1526,-234.5"/>
<text text-anchor="start" x="1534" y="-263.5" font-family="Helvetica,sans-Serif" font-size="10.00">/home/runner/work/cbmc</text>
<text text-anchor="start" x="1534" y="-252.5" font-family="Helvetica,sans-Serif" font-size="10.00">&#45;documentation/cbmc&#45;documentation</text>
<text text-anchor="middle" x="1626" y="-241.5" font-family="Helvetica,sans-Serif" font-size="10.00">/src/solvers/qbf/qbf_skizzo.h</text>
</a>
</g>
</g>
<!-- Node1&#45;&gt;Node16 -->
<g id="edge15" class="edge">
<title>Node1&#45;&gt;Node16</title>
<path fill="none" stroke="midnightblue" d="M1553.38,-306.64C1567.93,-296.49 1584.43,-284.98 1598.02,-275.51"/>
<polygon fill="midnightblue" stroke="midnightblue" points="1551.27,-303.84 1545.07,-312.43 1555.27,-309.58 1551.27,-303.84"/>
</g>
<!-- Node18 -->
<g id="node18" class="node">
<title>Node18</title>
<g id="a_node18"><a xlink:href="qbf__squolem_8h.html" target="_top" xlink:title=" ">
<polygon fill="none" stroke="black" points="1744,-234.5 1744,-275.5 1944,-275.5 1944,-234.5 1744,-234.5"/>
<text text-anchor="start" x="1752" y="-263.5" font-family="Helvetica,sans-Serif" font-size="10.00">/home/runner/work/cbmc</text>
<text text-anchor="start" x="1752" y="-252.5" font-family="Helvetica,sans-Serif" font-size="10.00">&#45;documentation/cbmc&#45;documentation</text>
<text text-anchor="middle" x="1844" y="-241.5" font-family="Helvetica,sans-Serif" font-size="10.00">/src/solvers/qbf/qbf_squolem.h</text>
</a>
</g>
</g>
<!-- Node1&#45;&gt;Node18 -->
<g id="edge17" class="edge">
<title>Node1&#45;&gt;Node18</title>
<path fill="none" stroke="midnightblue" d="M1611.09,-310.13C1658.12,-299.2 1714.54,-286.09 1760.07,-275.51"/>
<polygon fill="midnightblue" stroke="midnightblue" points="1610.16,-306.76 1601.21,-312.43 1611.74,-313.57 1610.16,-306.76"/>
</g>
<!-- Node20 -->
<g id="node20" class="node">
<title>Node20</title>
<g id="a_node20"><a xlink:href="qdimacs__cnf_8cpp.html" target="_top" xlink:title=" ">
<polygon fill="none" stroke="black" points="1962,-234.5 1962,-275.5 2162,-275.5 2162,-234.5 1962,-234.5"/>
<text text-anchor="start" x="1970" y="-263.5" font-family="Helvetica,sans-Serif" font-size="10.00">/home/runner/work/cbmc</text>
<text text-anchor="start" x="1970" y="-252.5" font-family="Helvetica,sans-Serif" font-size="10.00">&#45;documentation/cbmc&#45;documentation</text>
<text text-anchor="middle" x="2062" y="-241.5" font-family="Helvetica,sans-Serif" font-size="10.00">/src/solvers/qbf/qdimacs_cnf.cpp</text>
</a>
</g>
</g>
<!-- Node1&#45;&gt;Node20 -->
<g id="edge19" class="edge">
<title>Node1&#45;&gt;Node20</title>
<path fill="none" stroke="midnightblue" d="M1627.25,-319.5C1715.54,-309.09 1842.45,-293.23 1953,-276 1955.95,-275.54 1958.94,-275.06 1961.95,-274.57"/>
<polygon fill="midnightblue" stroke="midnightblue" points="1626.74,-316.03 1617.22,-320.68 1627.56,-322.99 1626.74,-316.03"/>
</g>
<!-- Node3 -->
<g id="node3" class="node">
<title>Node3</title>
<g id="a_node3"><a xlink:href="qbf__bdd__core_8h.html" target="_top" xlink:title=" ">
<polygon fill="none" stroke="black" points="218,-156.5 218,-197.5 418,-197.5 418,-156.5 218,-156.5"/>
<text text-anchor="start" x="226" y="-185.5" font-family="Helvetica,sans-Serif" font-size="10.00">/home/runner/work/cbmc</text>
<text text-anchor="start" x="226" y="-174.5" font-family="Helvetica,sans-Serif" font-size="10.00">&#45;documentation/cbmc&#45;documentation</text>
<text text-anchor="middle" x="318" y="-163.5" font-family="Helvetica,sans-Serif" font-size="10.00">/src/solvers/qbf/qbf_bdd_core.h</text>
</a>
</g>
</g>
<!-- Node2&#45;&gt;Node3 -->
<g id="edge2" class="edge">
<title>Node2&#45;&gt;Node3</title>
<path fill="none" stroke="midnightblue" d="M643.74,-235.45C580.31,-224.7 499.14,-210.79 427,-198 424.06,-197.48 421.08,-196.95 418.08,-196.41"/>
<polygon fill="midnightblue" stroke="midnightblue" points="643.32,-238.93 653.77,-237.15 644.49,-232.03 643.32,-238.93"/>
</g>
<!-- Node7 -->
<g id="node7" class="node">
<title>Node7</title>
<g id="a_node7"><a xlink:href="qbf__qube__core_8h.html" target="_top" xlink:title=" ">
<polygon fill="none" stroke="black" points="436,-156.5 436,-197.5 636,-197.5 636,-156.5 436,-156.5"/>
<text text-anchor="start" x="444" y="-185.5" font-family="Helvetica,sans-Serif" font-size="10.00">/home/runner/work/cbmc</text>
<text text-anchor="start" x="444" y="-174.5" font-family="Helvetica,sans-Serif" font-size="10.00">&#45;documentation/cbmc&#45;documentation</text>
<text text-anchor="middle" x="536" y="-163.5" font-family="Helvetica,sans-Serif" font-size="10.00">/src/solvers/qbf/qbf_qube_core.h</text>
</a>
</g>
</g>
<!-- Node2&#45;&gt;Node7 -->
<g id="edge6" class="edge">
<title>Node2&#45;&gt;Node7</title>
<path fill="none" stroke="midnightblue" d="M688.1,-231.03C657.41,-220.33 621.29,-207.73 591.95,-197.51"/>
<polygon fill="midnightblue" stroke="midnightblue" points="687.26,-234.44 697.86,-234.43 689.57,-227.83 687.26,-234.44"/>
</g>
<!-- Node9 -->
<g id="node9" class="node">
<title>Node9</title>
<g id="a_node9"><a xlink:href="qbf__squolem__core_8h.html" target="_top" xlink:title=" ">
<polygon fill="none" stroke="black" points="654,-156.5 654,-197.5 854,-197.5 854,-156.5 654,-156.5"/>
<text text-anchor="start" x="662" y="-185.5" font-family="Helvetica,sans-Serif" font-size="10.00">/home/runner/work/cbmc</text>
<text text-anchor="start" x="662" y="-174.5" font-family="Helvetica,sans-Serif" font-size="10.00">&#45;documentation/cbmc&#45;documentation</text>
<text text-anchor="middle" x="754" y="-163.5" font-family="Helvetica,sans-Serif" font-size="10.00">/src/solvers/qbf/qbf_squolem_core.h</text>
</a>
</g>
</g>
<!-- Node2&#45;&gt;Node9 -->
<g id="edge8" class="edge">
<title>Node2&#45;&gt;Node9</title>
<path fill="none" stroke="midnightblue" d="M754,-224.3C754,-215.3 754,-205.65 754,-197.51"/>
<polygon fill="midnightblue" stroke="midnightblue" points="750.5,-224.43 754,-234.43 757.5,-224.43 750.5,-224.43"/>
</g>
<!-- Node11 -->
<g id="node11" class="node">
<title>Node11</title>
<g id="a_node11"><a xlink:href="qdimacs__core_8cpp.html" target="_top" xlink:title=" ">
<polygon fill="none" stroke="black" points="872,-156.5 872,-197.5 1072,-197.5 1072,-156.5 872,-156.5"/>
<text text-anchor="start" x="880" y="-185.5" font-family="Helvetica,sans-Serif" font-size="10.00">/home/runner/work/cbmc</text>
<text text-anchor="start" x="880" y="-174.5" font-family="Helvetica,sans-Serif" font-size="10.00">&#45;documentation/cbmc&#45;documentation</text>
<text text-anchor="middle" x="972" y="-163.5" font-family="Helvetica,sans-Serif" font-size="10.00">/src/solvers/qbf/qdimacs_core.cpp</text>
</a>
</g>
</g>
<!-- Node2&#45;&gt;Node11 -->
<g id="edge10" class="edge">
<title>Node2&#45;&gt;Node11</title>
<path fill="none" stroke="midnightblue" d="M819.9,-231.03C850.59,-220.33 886.71,-207.73 916.05,-197.51"/>
<polygon fill="midnightblue" stroke="midnightblue" points="818.43,-227.83 810.14,-234.43 820.74,-234.44 818.43,-227.83"/>
</g>
<!-- Node4 -->
<g id="node4" class="node">
<title>Node4</title>
<g id="a_node4"><a xlink:href="qbf__bdd__core_8cpp.html" target="_top" xlink:title=" ">
<polygon fill="none" stroke="black" points="0,-78.5 0,-119.5 200,-119.5 200,-78.5 0,-78.5"/>
<text text-anchor="start" x="8" y="-107.5" font-family="Helvetica,sans-Serif" font-size="10.00">/home/runner/work/cbmc</text>
<text text-anchor="start" x="8" y="-96.5" font-family="Helvetica,sans-Serif" font-size="10.00">&#45;documentation/cbmc&#45;documentation</text>
<text text-anchor="middle" x="100" y="-85.5" font-family="Helvetica,sans-Serif" font-size="10.00">/src/solvers/qbf/qbf_bdd_core.cpp</text>
</a>
</g>
</g>
<!-- Node3&#45;&gt;Node4 -->
<g id="edge3" class="edge">
<title>Node3&#45;&gt;Node4</title>
<path fill="none" stroke="midnightblue" d="M252.1,-153.03C221.41,-142.33 185.29,-129.73 155.95,-119.51"/>
<polygon fill="midnightblue" stroke="midnightblue" points="251.26,-156.44 261.86,-156.43 253.57,-149.83 251.26,-156.44"/>
</g>
<!-- Node5 -->
<g id="node5" class="node">
<title>Node5</title>
<g id="a_node5"><a xlink:href="qbf__skizzo__core_8h.html" target="_top" xlink:title=" ">
<polygon fill="none" stroke="black" points="218,-78.5 218,-119.5 418,-119.5 418,-78.5 218,-78.5"/>
<text text-anchor="start" x="226" y="-107.5" font-family="Helvetica,sans-Serif" font-size="10.00">/home/runner/work/cbmc</text>
<text text-anchor="start" x="226" y="-96.5" font-family="Helvetica,sans-Serif" font-size="10.00">&#45;documentation/cbmc&#45;documentation</text>
<text text-anchor="middle" x="318" y="-85.5" font-family="Helvetica,sans-Serif" font-size="10.00">/src/solvers/qbf/qbf_skizzo_core.h</text>
</a>
</g>
</g>
<!-- Node3&#45;&gt;Node5 -->
<g id="edge4" class="edge">
<title>Node3&#45;&gt;Node5</title>
<path fill="none" stroke="midnightblue" d="M318,-146.3C318,-137.3 318,-127.65 318,-119.51"/>
<polygon fill="midnightblue" stroke="midnightblue" points="314.5,-146.43 318,-156.43 321.5,-146.43 314.5,-146.43"/>
</g>
<!-- Node6 -->
<g id="node6" class="node">
<title>Node6</title>
<g id="a_node6"><a xlink:href="qbf__skizzo__core_8cpp.html" target="_top" xlink:title=" ">
<polygon fill="none" stroke="black" points="218,-0.5 218,-41.5 418,-41.5 418,-0.5 218,-0.5"/>
<text text-anchor="start" x="226" y="-29.5" font-family="Helvetica,sans-Serif" font-size="10.00">/home/runner/work/cbmc</text>
<text text-anchor="start" x="226" y="-18.5" font-family="Helvetica,sans-Serif" font-size="10.00">&#45;documentation/cbmc&#45;documentation</text>
<text text-anchor="middle" x="318" y="-7.5" font-family="Helvetica,sans-Serif" font-size="10.00">/src/solvers/qbf/qbf_skizzo_core.cpp</text>
</a>
</g>
</g>
<!-- Node5&#45;&gt;Node6 -->
<g id="edge5" class="edge">
<title>Node5&#45;&gt;Node6</title>
<path fill="none" stroke="midnightblue" d="M318,-68.3C318,-59.3 318,-49.65 318,-41.51"/>
<polygon fill="midnightblue" stroke="midnightblue" points="314.5,-68.43 318,-78.43 321.5,-68.43 314.5,-68.43"/>
</g>
<!-- Node8 -->
<g id="node8" class="node">
<title>Node8</title>
<g id="a_node8"><a xlink:href="qbf__qube__core_8cpp.html" target="_top" xlink:title=" ">
<polygon fill="none" stroke="black" points="436,-78.5 436,-119.5 636,-119.5 636,-78.5 436,-78.5"/>
<text text-anchor="start" x="444" y="-107.5" font-family="Helvetica,sans-Serif" font-size="10.00">/home/runner/work/cbmc</text>
<text text-anchor="start" x="444" y="-96.5" font-family="Helvetica,sans-Serif" font-size="10.00">&#45;documentation/cbmc&#45;documentation</text>
<text text-anchor="middle" x="536" y="-85.5" font-family="Helvetica,sans-Serif" font-size="10.00">/src/solvers/qbf/qbf_qube_core.cpp</text>
</a>
</g>
</g>
<!-- Node7&#45;&gt;Node8 -->
<g id="edge7" class="edge">
<title>Node7&#45;&gt;Node8</title>
<path fill="none" stroke="midnightblue" d="M536,-146.3C536,-137.3 536,-127.65 536,-119.51"/>
<polygon fill="midnightblue" stroke="midnightblue" points="532.5,-146.43 536,-156.43 539.5,-146.43 532.5,-146.43"/>
</g>
<!-- Node10 -->
<g id="node10" class="node">
<title>Node10</title>
<g id="a_node10"><a xlink:href="qbf__squolem__core_8cpp.html" target="_top" xlink:title=" ">
<polygon fill="none" stroke="black" points="654.5,-78.5 654.5,-119.5 857.5,-119.5 857.5,-78.5 654.5,-78.5"/>
<text text-anchor="start" x="662.5" y="-107.5" font-family="Helvetica,sans-Serif" font-size="10.00">/home/runner/work/cbmc</text>
<text text-anchor="start" x="662.5" y="-96.5" font-family="Helvetica,sans-Serif" font-size="10.00">&#45;documentation/cbmc&#45;documentation</text>
<text text-anchor="middle" x="756" y="-85.5" font-family="Helvetica,sans-Serif" font-size="10.00">/src/solvers/qbf/qbf_squolem_core.cpp</text>
</a>
</g>
</g>
<!-- Node9&#45;&gt;Node10 -->
<g id="edge9" class="edge">
<title>Node9&#45;&gt;Node10</title>
<path fill="none" stroke="midnightblue" d="M754.78,-146.3C755.02,-137.3 755.27,-127.65 755.49,-119.51"/>
<polygon fill="midnightblue" stroke="midnightblue" points="751.28,-146.34 754.52,-156.43 758.28,-146.52 751.28,-146.34"/>
</g>
<!-- Node13 -->
<g id="node13" class="node">
<title>Node13</title>
<g id="a_node13"><a xlink:href="qbf__quantor_8cpp.html" target="_top" xlink:title=" ">
<polygon fill="none" stroke="black" points="1090,-156.5 1090,-197.5 1290,-197.5 1290,-156.5 1090,-156.5"/>
<text text-anchor="start" x="1098" y="-185.5" font-family="Helvetica,sans-Serif" font-size="10.00">/home/runner/work/cbmc</text>
<text text-anchor="start" x="1098" y="-174.5" font-family="Helvetica,sans-Serif" font-size="10.00">&#45;documentation/cbmc&#45;documentation</text>
<text text-anchor="middle" x="1190" y="-163.5" font-family="Helvetica,sans-Serif" font-size="10.00">/src/solvers/qbf/qbf_quantor.cpp</text>
</a>
</g>
</g>
<!-- Node12&#45;&gt;Node13 -->
<g id="edge12" class="edge">
<title>Node12&#45;&gt;Node13</title>
<path fill="none" stroke="midnightblue" d="M1190,-224.3C1190,-215.3 1190,-205.65 1190,-197.51"/>
<polygon fill="midnightblue" stroke="midnightblue" points="1186.5,-224.43 1190,-234.43 1193.5,-224.43 1186.5,-224.43"/>
</g>
<!-- Node15 -->
<g id="node15" class="node">
<title>Node15</title>
<g id="a_node15"><a xlink:href="qbf__qube_8cpp.html" target="_top" xlink:title=" ">
<polygon fill="none" stroke="black" points="1308,-156.5 1308,-197.5 1508,-197.5 1508,-156.5 1308,-156.5"/>
<text text-anchor="start" x="1316" y="-185.5" font-family="Helvetica,sans-Serif" font-size="10.00">/home/runner/work/cbmc</text>
<text text-anchor="start" x="1316" y="-174.5" font-family="Helvetica,sans-Serif" font-size="10.00">&#45;documentation/cbmc&#45;documentation</text>
<text text-anchor="middle" x="1408" y="-163.5" font-family="Helvetica,sans-Serif" font-size="10.00">/src/solvers/qbf/qbf_qube.cpp</text>
</a>
</g>
</g>
<!-- Node14&#45;&gt;Node15 -->
<g id="edge14" class="edge">
<title>Node14&#45;&gt;Node15</title>
<path fill="none" stroke="midnightblue" d="M1408,-224.3C1408,-215.3 1408,-205.65 1408,-197.51"/>
<polygon fill="midnightblue" stroke="midnightblue" points="1404.5,-224.43 1408,-234.43 1411.5,-224.43 1404.5,-224.43"/>
</g>
<!-- Node17 -->
<g id="node17" class="node">
<title>Node17</title>
<g id="a_node17"><a xlink:href="qbf__skizzo_8cpp.html" target="_top" xlink:title=" ">
<polygon fill="none" stroke="black" points="1526,-156.5 1526,-197.5 1726,-197.5 1726,-156.5 1526,-156.5"/>
<text text-anchor="start" x="1534" y="-185.5" font-family="Helvetica,sans-Serif" font-size="10.00">/home/runner/work/cbmc</text>
<text text-anchor="start" x="1534" y="-174.5" font-family="Helvetica,sans-Serif" font-size="10.00">&#45;documentation/cbmc&#45;documentation</text>
<text text-anchor="middle" x="1626" y="-163.5" font-family="Helvetica,sans-Serif" font-size="10.00">/src/solvers/qbf/qbf_skizzo.cpp</text>
</a>
</g>
</g>
<!-- Node16&#45;&gt;Node17 -->
<g id="edge16" class="edge">
<title>Node16&#45;&gt;Node17</title>
<path fill="none" stroke="midnightblue" d="M1626,-224.3C1626,-215.3 1626,-205.65 1626,-197.51"/>
<polygon fill="midnightblue" stroke="midnightblue" points="1622.5,-224.43 1626,-234.43 1629.5,-224.43 1622.5,-224.43"/>
</g>
<!-- Node19 -->
<g id="node19" class="node">
<title>Node19</title>
<g id="a_node19"><a xlink:href="qbf__squolem_8cpp.html" target="_top" xlink:title=" ">
<polygon fill="none" stroke="black" points="1744,-156.5 1744,-197.5 1944,-197.5 1944,-156.5 1744,-156.5"/>
<text text-anchor="start" x="1752" y="-185.5" font-family="Helvetica,sans-Serif" font-size="10.00">/home/runner/work/cbmc</text>
<text text-anchor="start" x="1752" y="-174.5" font-family="Helvetica,sans-Serif" font-size="10.00">&#45;documentation/cbmc&#45;documentation</text>
<text text-anchor="middle" x="1844" y="-163.5" font-family="Helvetica,sans-Serif" font-size="10.00">/src/solvers/qbf/qbf_squolem.cpp</text>
</a>
</g>
</g>
<!-- Node18&#45;&gt;Node19 -->
<g id="edge18" class="edge">
<title>Node18&#45;&gt;Node19</title>
<path fill="none" stroke="midnightblue" d="M1844,-224.3C1844,-215.3 1844,-205.65 1844,-197.51"/>
<polygon fill="midnightblue" stroke="midnightblue" points="1840.5,-224.43 1844,-234.43 1847.5,-224.43 1840.5,-224.43"/>
</g>
</g>
</svg>
