<?xml version="1.0" encoding="UTF-8" standalone="no"?>
<!DOCTYPE svg PUBLIC "-//W3C//DTD SVG 1.1//EN"
 "http://www.w3.org/Graphics/SVG/1.1/DTD/svg11.dtd">
<!-- Generated by graphviz version 2.43.0 (0)
 -->
<!-- Title: /home/runner/work/cbmc&#45;documentation/cbmc&#45;documentation/src/analyses/reaching_definitions.h Pages: 1 -->
<svg width="1522pt" height="306pt"
 viewBox="0.00 0.00 1522.00 306.00" xmlns="http://www.w3.org/2000/svg" xmlns:xlink="http://www.w3.org/1999/xlink">
<g id="graph0" class="graph" transform="scale(1 1) rotate(0) translate(4 302)">
<title>/home/runner/work/cbmc&#45;documentation/cbmc&#45;documentation/src/analyses/reaching_definitions.h</title>
<!-- Node1 -->
<g id="node1" class="node">
<title>Node1</title>
<g id="a_node1"><a xlink:title=" ">
<polygon fill="#bfbfbf" stroke="black" points="1103,-256.5 1103,-297.5 1303,-297.5 1303,-256.5 1103,-256.5"/>
<text text-anchor="start" x="1111" y="-285.5" font-family="Helvetica,sans-Serif" font-size="10.00">/home/runner/work/cbmc</text>
<text text-anchor="start" x="1111" y="-274.5" font-family="Helvetica,sans-Serif" font-size="10.00">&#45;documentation/cbmc&#45;documentation</text>
<text text-anchor="middle" x="1203" y="-263.5" font-family="Helvetica,sans-Serif" font-size="10.00">/src/analyses/reaching_definitions.h</text>
</a>
</g>
</g>
<!-- Node2 -->
<g id="node2" class="node">
<title>Node2</title>
<g id="a_node2"><a xlink:href="dependence__graph_8h.html" target="_top" xlink:title=" ">
<polygon fill="none" stroke="black" points="764,-178.5 764,-219.5 964,-219.5 964,-178.5 764,-178.5"/>
<text text-anchor="start" x="772" y="-207.5" font-family="Helvetica,sans-Serif" font-size="10.00">/home/runner/work/cbmc</text>
<text text-anchor="start" x="772" y="-196.5" font-family="Helvetica,sans-Serif" font-size="10.00">&#45;documentation/cbmc&#45;documentation</text>
<text text-anchor="middle" x="864" y="-185.5" font-family="Helvetica,sans-Serif" font-size="10.00">/src/analyses/dependence_graph.h</text>
</a>
</g>
</g>
<!-- Node1&#45;&gt;Node2 -->
<g id="edge1" class="edge">
<title>Node1&#45;&gt;Node2</title>
<path fill="none" stroke="midnightblue" d="M1105.76,-254.2C1056.95,-243.26 998.31,-230.11 951.01,-219.51"/>
<polygon fill="midnightblue" stroke="midnightblue" points="1105.18,-257.66 1115.7,-256.43 1106.71,-250.83 1105.18,-257.66"/>
</g>
<!-- Node10 -->
<g id="node10" class="node">
<title>Node10</title>
<g id="a_node10"><a xlink:href="goto__instrument__parse__options_8cpp.html" target="_top" xlink:title=" ">
<polygon fill="none" stroke="black" points="1314,-89.5 1314,-141.5 1514,-141.5 1514,-89.5 1314,-89.5"/>
<text text-anchor="start" x="1322" y="-129.5" font-family="Helvetica,sans-Serif" font-size="10.00">/home/runner/work/cbmc</text>
<text text-anchor="start" x="1322" y="-118.5" font-family="Helvetica,sans-Serif" font-size="10.00">&#45;documentation/cbmc&#45;documentation</text>
<text text-anchor="start" x="1322" y="-107.5" font-family="Helvetica,sans-Serif" font-size="10.00">/src/goto&#45;instrument/goto_instrument</text>
<text text-anchor="middle" x="1414" y="-96.5" font-family="Helvetica,sans-Serif" font-size="10.00">_parse_options.cpp</text>
</a>
</g>
</g>
<!-- Node1&#45;&gt;Node10 -->
<g id="edge12" class="edge">
<title>Node1&#45;&gt;Node10</title>
<path fill="none" stroke="midnightblue" d="M1201.23,-245.96C1201.6,-224.54 1205.66,-196.4 1222,-178 1229.34,-169.74 1276.13,-154.67 1321.68,-141.51"/>
<polygon fill="midnightblue" stroke="midnightblue" points="1197.73,-246.18 1201.31,-256.16 1204.73,-246.13 1197.73,-246.18"/>
</g>
<!-- Node12 -->
<g id="node12" class="node">
<title>Node12</title>
<g id="a_node12"><a xlink:href="reaching__definitions_8cpp.html" target="_top" xlink:title=" ">
<polygon fill="none" stroke="black" points="1231,-178.5 1231,-219.5 1433,-219.5 1433,-178.5 1231,-178.5"/>
<text text-anchor="start" x="1239" y="-207.5" font-family="Helvetica,sans-Serif" font-size="10.00">/home/runner/work/cbmc</text>
<text text-anchor="start" x="1239" y="-196.5" font-family="Helvetica,sans-Serif" font-size="10.00">&#45;documentation/cbmc&#45;documentation</text>
<text text-anchor="middle" x="1332" y="-185.5" font-family="Helvetica,sans-Serif" font-size="10.00">/src/analyses/reaching_definitions.cpp</text>
</a>
</g>
</g>
<!-- Node1&#45;&gt;Node12 -->
<g id="edge11" class="edge">
<title>Node1&#45;&gt;Node12</title>
<path fill="none" stroke="midnightblue" d="M1245.09,-251.2C1262.55,-240.92 1282.51,-229.16 1298.89,-219.51"/>
<polygon fill="midnightblue" stroke="midnightblue" points="1243.06,-248.34 1236.22,-256.43 1246.61,-254.37 1243.06,-248.34"/>
</g>
<!-- Node3 -->
<g id="node3" class="node">
<title>Node3</title>
<g id="a_node3"><a xlink:href="dependence__graph_8cpp.html" target="_top" xlink:title=" ">
<polygon fill="none" stroke="black" points="0,-95 0,-136 200,-136 200,-95 0,-95"/>
<text text-anchor="start" x="8" y="-124" font-family="Helvetica,sans-Serif" font-size="10.00">/home/runner/work/cbmc</text>
<text text-anchor="start" x="8" y="-113" font-family="Helvetica,sans-Serif" font-size="10.00">&#45;documentation/cbmc&#45;documentation</text>
<text text-anchor="middle" x="100" y="-102" font-family="Helvetica,sans-Serif" font-size="10.00">/src/analyses/dependence_graph.cpp</text>
</a>
</g>
</g>
<!-- Node2&#45;&gt;Node3 -->
<g id="edge2" class="edge">
<title>Node2&#45;&gt;Node3</title>
<path fill="none" stroke="midnightblue" d="M753.85,-193.45C623.21,-186.93 399.19,-172.21 209,-142 198.73,-140.37 187.99,-138.31 177.43,-136.06"/>
<polygon fill="midnightblue" stroke="midnightblue" points="753.7,-196.94 763.86,-193.94 754.05,-189.95 753.7,-196.94"/>
</g>
<!-- Node4 -->
<g id="node4" class="node">
<title>Node4</title>
<g id="a_node4"><a xlink:href="build__analyzer_8cpp.html" target="_top" xlink:title=" ">
<polygon fill="none" stroke="black" points="218,-95 218,-136 418,-136 418,-95 218,-95"/>
<text text-anchor="start" x="226" y="-124" font-family="Helvetica,sans-Serif" font-size="10.00">/home/runner/work/cbmc</text>
<text text-anchor="start" x="226" y="-113" font-family="Helvetica,sans-Serif" font-size="10.00">&#45;documentation/cbmc&#45;documentation</text>
<text text-anchor="middle" x="318" y="-102" font-family="Helvetica,sans-Serif" font-size="10.00">/src/goto&#45;analyzer/build_analyzer.cpp</text>
</a>
</g>
</g>
<!-- Node2&#45;&gt;Node4 -->
<g id="edge3" class="edge">
<title>Node2&#45;&gt;Node4</title>
<path fill="none" stroke="midnightblue" d="M753.68,-187.02C665.04,-177.44 537.53,-161.96 427,-142 417.34,-140.26 407.25,-138.21 397.28,-136.04"/>
<polygon fill="midnightblue" stroke="midnightblue" points="753.44,-190.52 763.76,-188.1 754.19,-183.56 753.44,-190.52"/>
</g>
<!-- Node5 -->
<g id="node5" class="node">
<title>Node5</title>
<g id="a_node5"><a xlink:href="static__show__domain_8cpp.html" target="_top" xlink:title=" ">
<polygon fill="none" stroke="black" points="436,-89.5 436,-141.5 636,-141.5 636,-89.5 436,-89.5"/>
<text text-anchor="start" x="444" y="-129.5" font-family="Helvetica,sans-Serif" font-size="10.00">/home/runner/work/cbmc</text>
<text text-anchor="start" x="444" y="-118.5" font-family="Helvetica,sans-Serif" font-size="10.00">&#45;documentation/cbmc&#45;documentation</text>
<text text-anchor="start" x="444" y="-107.5" font-family="Helvetica,sans-Serif" font-size="10.00">/src/goto&#45;analyzer/static_show</text>
<text text-anchor="middle" x="536" y="-96.5" font-family="Helvetica,sans-Serif" font-size="10.00">_domain.cpp</text>
</a>
</g>
</g>
<!-- Node2&#45;&gt;Node5 -->
<g id="edge4" class="edge">
<title>Node2&#45;&gt;Node5</title>
<path fill="none" stroke="midnightblue" d="M775.54,-176.02C732.47,-165.32 680.51,-152.41 636.01,-141.35"/>
<polygon fill="midnightblue" stroke="midnightblue" points="774.89,-179.46 785.44,-178.48 776.57,-172.67 774.89,-179.46"/>
</g>
<!-- Node6 -->
<g id="node6" class="node">
<title>Node6</title>
<g id="a_node6"><a xlink:href="change__impact_8cpp.html" target="_top" xlink:title=" ">
<polygon fill="none" stroke="black" points="654,-95 654,-136 854,-136 854,-95 654,-95"/>
<text text-anchor="start" x="662" y="-124" font-family="Helvetica,sans-Serif" font-size="10.00">/home/runner/work/cbmc</text>
<text text-anchor="start" x="662" y="-113" font-family="Helvetica,sans-Serif" font-size="10.00">&#45;documentation/cbmc&#45;documentation</text>
<text text-anchor="middle" x="754" y="-102" font-family="Helvetica,sans-Serif" font-size="10.00">/src/goto&#45;diff/change_impact.cpp</text>
</a>
</g>
</g>
<!-- Node2&#45;&gt;Node6 -->
<g id="edge5" class="edge">
<title>Node2&#45;&gt;Node6</title>
<path fill="none" stroke="midnightblue" d="M829.2,-172.22C813.45,-160.55 795.13,-146.97 780.51,-136.14"/>
<polygon fill="midnightblue" stroke="midnightblue" points="827.53,-175.34 837.65,-178.48 831.7,-169.71 827.53,-175.34"/>
</g>
<!-- Node7 -->
<g id="node7" class="node">
<title>Node7</title>
<g id="a_node7"><a xlink:href="full__slicer__class_8h.html" target="_top" xlink:title=" ">
<polygon fill="none" stroke="black" points="872.5,-95 872.5,-136 1077.5,-136 1077.5,-95 872.5,-95"/>
<text text-anchor="start" x="880.5" y="-124" font-family="Helvetica,sans-Serif" font-size="10.00">/home/runner/work/cbmc</text>
<text text-anchor="start" x="880.5" y="-113" font-family="Helvetica,sans-Serif" font-size="10.00">&#45;documentation/cbmc&#45;documentation</text>
<text text-anchor="middle" x="975" y="-102" font-family="Helvetica,sans-Serif" font-size="10.00">/src/goto&#45;instrument/full_slicer_class.h</text>
</a>
</g>
</g>
<!-- Node2&#45;&gt;Node7 -->
<g id="edge6" class="edge">
<title>Node2&#45;&gt;Node7</title>
<path fill="none" stroke="midnightblue" d="M898.67,-172.54C914.67,-160.8 933.36,-147.07 948.24,-136.14"/>
<polygon fill="midnightblue" stroke="midnightblue" points="896.58,-169.74 890.59,-178.48 900.72,-175.38 896.58,-169.74"/>
</g>
<!-- Node2&#45;&gt;Node10 -->
<g id="edge9" class="edge">
<title>Node2&#45;&gt;Node10</title>
<path fill="none" stroke="midnightblue" d="M974.45,-187.18C1063.94,-177.64 1193.1,-162.14 1305,-142 1307.87,-141.48 1310.78,-140.94 1313.71,-140.37"/>
<polygon fill="midnightblue" stroke="midnightblue" points="973.86,-183.72 964.28,-188.26 974.6,-190.68 973.86,-183.72"/>
</g>
<!-- Node11 -->
<g id="node11" class="node">
<title>Node11</title>
<g id="a_node11"><a xlink:href="janalyzer__parse__options_8cpp.html" target="_top" xlink:title=" ">
<polygon fill="none" stroke="black" points="1096,-89.5 1096,-141.5 1296,-141.5 1296,-89.5 1096,-89.5"/>
<text text-anchor="start" x="1104" y="-129.5" font-family="Helvetica,sans-Serif" font-size="10.00">/home/runner/work/cbmc</text>
<text text-anchor="start" x="1104" y="-118.5" font-family="Helvetica,sans-Serif" font-size="10.00">&#45;documentation/cbmc&#45;documentation</text>
<text text-anchor="start" x="1104" y="-107.5" font-family="Helvetica,sans-Serif" font-size="10.00">/jbmc/src/janalyzer/janalyzer</text>
<text text-anchor="middle" x="1196" y="-96.5" font-family="Helvetica,sans-Serif" font-size="10.00">_parse_options.cpp</text>
</a>
</g>
</g>
<!-- Node2&#45;&gt;Node11 -->
<g id="edge10" class="edge">
<title>Node2&#45;&gt;Node11</title>
<path fill="none" stroke="midnightblue" d="M953.33,-176.07C997.26,-165.29 1050.37,-152.25 1095.7,-141.12"/>
<polygon fill="midnightblue" stroke="midnightblue" points="952.4,-172.7 943.52,-178.48 954.07,-179.49 952.4,-172.7"/>
</g>
<!-- Node8 -->
<g id="node8" class="node">
<title>Node8</title>
<g id="a_node8"><a xlink:href="full__slicer_8cpp.html" target="_top" xlink:title=" ">
<polygon fill="none" stroke="black" points="766,-6 766,-47 966,-47 966,-6 766,-6"/>
<text text-anchor="start" x="774" y="-35" font-family="Helvetica,sans-Serif" font-size="10.00">/home/runner/work/cbmc</text>
<text text-anchor="start" x="774" y="-24" font-family="Helvetica,sans-Serif" font-size="10.00">&#45;documentation/cbmc&#45;documentation</text>
<text text-anchor="middle" x="866" y="-13" font-family="Helvetica,sans-Serif" font-size="10.00">/src/goto&#45;instrument/full_slicer.cpp</text>
</a>
</g>
</g>
<!-- Node7&#45;&gt;Node8 -->
<g id="edge7" class="edge">
<title>Node7&#45;&gt;Node8</title>
<path fill="none" stroke="midnightblue" d="M942.68,-88.71C926.07,-75.44 906.14,-59.53 890.76,-47.26"/>
<polygon fill="midnightblue" stroke="midnightblue" points="940.54,-91.47 950.54,-94.98 944.91,-86 940.54,-91.47"/>
</g>
<!-- Node9 -->
<g id="node9" class="node">
<title>Node9</title>
<g id="a_node9"><a xlink:href="reachability__slicer_8cpp.html" target="_top" xlink:title=" ">
<polygon fill="none" stroke="black" points="984,-0.5 984,-52.5 1184,-52.5 1184,-0.5 984,-0.5"/>
<text text-anchor="start" x="992" y="-40.5" font-family="Helvetica,sans-Serif" font-size="10.00">/home/runner/work/cbmc</text>
<text text-anchor="start" x="992" y="-29.5" font-family="Helvetica,sans-Serif" font-size="10.00">&#45;documentation/cbmc&#45;documentation</text>
<text text-anchor="start" x="992" y="-18.5" font-family="Helvetica,sans-Serif" font-size="10.00">/src/goto&#45;instrument/reachability</text>
<text text-anchor="middle" x="1084" y="-7.5" font-family="Helvetica,sans-Serif" font-size="10.00">_slicer.cpp</text>
</a>
</g>
</g>
<!-- Node7&#45;&gt;Node9 -->
<g id="edge8" class="edge">
<title>Node7&#45;&gt;Node9</title>
<path fill="none" stroke="midnightblue" d="M1007.54,-88.53C1021.79,-77.15 1038.45,-63.86 1052.57,-52.58"/>
<polygon fill="midnightblue" stroke="midnightblue" points="1005.09,-86 999.46,-94.98 1009.46,-91.47 1005.09,-86"/>
</g>
</g>
</svg>
