<?xml version="1.0" encoding="UTF-8" standalone="no"?>
<!DOCTYPE svg PUBLIC "-//W3C//DTD SVG 1.1//EN"
 "http://www.w3.org/Graphics/SVG/1.1/DTD/svg11.dtd">
<!-- Generated by graphviz version 2.43.0 (0)
 -->
<!-- Title: /home/runner/work/cbmc&#45;documentation/cbmc&#45;documentation/src/util/reference_counting.h Pages: 1 -->
<svg width="2603pt" height="573pt"
 viewBox="0.00 0.00 2603.00 573.00" xmlns="http://www.w3.org/2000/svg" xmlns:xlink="http://www.w3.org/1999/xlink">
<g id="graph0" class="graph" transform="scale(1 1) rotate(0) translate(4 569)">
<title>/home/runner/work/cbmc&#45;documentation/cbmc&#45;documentation/src/util/reference_counting.h</title>
<!-- Node1 -->
<g id="node1" class="node">
<title>Node1</title>
<g id="a_node1"><a xlink:title=" ">
<polygon fill="#bfbfbf" stroke="black" points="2013,-523.5 2013,-564.5 2213,-564.5 2213,-523.5 2013,-523.5"/>
<text text-anchor="start" x="2021" y="-552.5" font-family="Helvetica,sans-Serif" font-size="10.00">/home/runner/work/cbmc</text>
<text text-anchor="start" x="2021" y="-541.5" font-family="Helvetica,sans-Serif" font-size="10.00">&#45;documentation/cbmc&#45;documentation</text>
<text text-anchor="middle" x="2113" y="-530.5" font-family="Helvetica,sans-Serif" font-size="10.00">/src/util/reference_counting.h</text>
</a>
</g>
</g>
<!-- Node2 -->
<g id="node2" class="node">
<title>Node2</title>
<g id="a_node2"><a xlink:href="value__set_8h.html" target="_top" xlink:title=" ">
<polygon fill="none" stroke="black" points="1454,-445.5 1454,-486.5 1654,-486.5 1654,-445.5 1454,-445.5"/>
<text text-anchor="start" x="1462" y="-474.5" font-family="Helvetica,sans-Serif" font-size="10.00">/home/runner/work/cbmc</text>
<text text-anchor="start" x="1462" y="-463.5" font-family="Helvetica,sans-Serif" font-size="10.00">&#45;documentation/cbmc&#45;documentation</text>
<text text-anchor="middle" x="1554" y="-452.5" font-family="Helvetica,sans-Serif" font-size="10.00">/src/pointer&#45;analysis/value_set.h</text>
</a>
</g>
</g>
<!-- Node1&#45;&gt;Node2 -->
<g id="edge1" class="edge">
<title>Node1&#45;&gt;Node2</title>
<path fill="none" stroke="midnightblue" d="M2002.78,-528.01C1901.44,-514.24 1752.46,-493.98 1654.37,-480.65"/>
<polygon fill="midnightblue" stroke="midnightblue" points="2002.36,-531.49 2012.74,-529.37 2003.3,-524.55 2002.36,-531.49"/>
</g>
<!-- Node76 -->
<g id="node24" class="node">
<title>Node76</title>
<g id="a_node24"><a xlink:href="value__set__fi_8h.html" target="_top" xlink:title=" ">
<polygon fill="none" stroke="black" points="2013,-445.5 2013,-486.5 2213,-486.5 2213,-445.5 2013,-445.5"/>
<text text-anchor="start" x="2021" y="-474.5" font-family="Helvetica,sans-Serif" font-size="10.00">/home/runner/work/cbmc</text>
<text text-anchor="start" x="2021" y="-463.5" font-family="Helvetica,sans-Serif" font-size="10.00">&#45;documentation/cbmc&#45;documentation</text>
<text text-anchor="middle" x="2113" y="-452.5" font-family="Helvetica,sans-Serif" font-size="10.00">/src/pointer&#45;analysis/value_set_fi.h</text>
</a>
</g>
</g>
<!-- Node1&#45;&gt;Node76 -->
<g id="edge27" class="edge">
<title>Node1&#45;&gt;Node76</title>
<path fill="none" stroke="midnightblue" d="M2113,-513.3C2113,-504.3 2113,-494.65 2113,-486.51"/>
<polygon fill="midnightblue" stroke="midnightblue" points="2109.5,-513.43 2113,-523.43 2116.5,-513.43 2109.5,-513.43"/>
</g>
<!-- Node84 -->
<g id="node32" class="node">
<title>Node84</title>
<g id="a_node32"><a xlink:href="ref__expr__set_8h.html" target="_top" xlink:title=" ">
<polygon fill="none" stroke="black" points="2340,-445.5 2340,-486.5 2540,-486.5 2540,-445.5 2340,-445.5"/>
<text text-anchor="start" x="2348" y="-474.5" font-family="Helvetica,sans-Serif" font-size="10.00">/home/runner/work/cbmc</text>
<text text-anchor="start" x="2348" y="-463.5" font-family="Helvetica,sans-Serif" font-size="10.00">&#45;documentation/cbmc&#45;documentation</text>
<text text-anchor="middle" x="2440" y="-452.5" font-family="Helvetica,sans-Serif" font-size="10.00">/src/util/ref_expr_set.h</text>
</a>
</g>
</g>
<!-- Node1&#45;&gt;Node84 -->
<g id="edge35" class="edge">
<title>Node1&#45;&gt;Node84</title>
<path fill="none" stroke="midnightblue" d="M2207.09,-521.13C2254.12,-510.2 2310.54,-497.09 2356.07,-486.51"/>
<polygon fill="midnightblue" stroke="midnightblue" points="2206.16,-517.76 2197.21,-523.43 2207.74,-524.57 2206.16,-517.76"/>
</g>
<!-- Node3 -->
<g id="node3" class="node">
<title>Node3</title>
<g id="a_node3"><a xlink:href="goto__state_8h.html" target="_top" xlink:title=" ">
<polygon fill="none" stroke="black" points="1009,-362 1009,-403 1209,-403 1209,-362 1009,-362"/>
<text text-anchor="start" x="1017" y="-391" font-family="Helvetica,sans-Serif" font-size="10.00">/home/runner/work/cbmc</text>
<text text-anchor="start" x="1017" y="-380" font-family="Helvetica,sans-Serif" font-size="10.00">&#45;documentation/cbmc&#45;documentation</text>
<text text-anchor="middle" x="1109" y="-369" font-family="Helvetica,sans-Serif" font-size="10.00">/src/goto&#45;symex/goto_state.h</text>
</a>
</g>
</g>
<!-- Node2&#45;&gt;Node3 -->
<g id="edge2" class="edge">
<title>Node2&#45;&gt;Node3</title>
<path fill="none" stroke="midnightblue" d="M1443.75,-448.47C1378.01,-438.15 1293.01,-424.01 1218,-409 1208.85,-407.17 1199.3,-405.13 1189.83,-403.02"/>
<polygon fill="midnightblue" stroke="midnightblue" points="1443.29,-451.94 1453.72,-450.02 1444.38,-445.02 1443.29,-451.94"/>
</g>
<!-- Node68 -->
<g id="node16" class="node">
<title>Node68</title>
<g id="a_node16"><a xlink:href="postcondition_8cpp.html" target="_top" xlink:title=" ">
<polygon fill="none" stroke="black" points="1227,-362 1227,-403 1427,-403 1427,-362 1227,-362"/>
<text text-anchor="start" x="1235" y="-391" font-family="Helvetica,sans-Serif" font-size="10.00">/home/runner/work/cbmc</text>
<text text-anchor="start" x="1235" y="-380" font-family="Helvetica,sans-Serif" font-size="10.00">&#45;documentation/cbmc&#45;documentation</text>
<text text-anchor="middle" x="1327" y="-369" font-family="Helvetica,sans-Serif" font-size="10.00">/src/goto&#45;symex/postcondition.cpp</text>
</a>
</g>
</g>
<!-- Node2&#45;&gt;Node68 -->
<g id="edge17" class="edge">
<title>Node2&#45;&gt;Node68</title>
<path fill="none" stroke="midnightblue" d="M1490.17,-442.08C1455.87,-429.77 1414.04,-414.75 1381.32,-403"/>
<polygon fill="midnightblue" stroke="midnightblue" points="1489.03,-445.39 1499.63,-445.48 1491.4,-438.81 1489.03,-445.39"/>
</g>
<!-- Node69 -->
<g id="node17" class="node">
<title>Node69</title>
<g id="a_node17"><a xlink:href="value__set__domain_8h.html" target="_top" xlink:title=" ">
<polygon fill="none" stroke="black" points="1445.5,-362 1445.5,-403 1662.5,-403 1662.5,-362 1445.5,-362"/>
<text text-anchor="start" x="1453.5" y="-391" font-family="Helvetica,sans-Serif" font-size="10.00">/home/runner/work/cbmc</text>
<text text-anchor="start" x="1453.5" y="-380" font-family="Helvetica,sans-Serif" font-size="10.00">&#45;documentation/cbmc&#45;documentation</text>
<text text-anchor="middle" x="1554" y="-369" font-family="Helvetica,sans-Serif" font-size="10.00">/src/pointer&#45;analysis/value_set_domain.h</text>
</a>
</g>
</g>
<!-- Node2&#45;&gt;Node69 -->
<g id="edge18" class="edge">
<title>Node2&#45;&gt;Node69</title>
<path fill="none" stroke="midnightblue" d="M1554,-435.06C1554,-424.38 1554,-412.63 1554,-403.05"/>
<polygon fill="midnightblue" stroke="midnightblue" points="1550.5,-435.27 1554,-445.27 1557.5,-435.27 1550.5,-435.27"/>
</g>
<!-- Node75 -->
<g id="node23" class="node">
<title>Node75</title>
<g id="a_node23"><a xlink:href="value__set_8cpp.html" target="_top" xlink:title=" ">
<polygon fill="none" stroke="black" points="1681,-362 1681,-403 1881,-403 1881,-362 1681,-362"/>
<text text-anchor="start" x="1689" y="-391" font-family="Helvetica,sans-Serif" font-size="10.00">/home/runner/work/cbmc</text>
<text text-anchor="start" x="1689" y="-380" font-family="Helvetica,sans-Serif" font-size="10.00">&#45;documentation/cbmc&#45;documentation</text>
<text text-anchor="middle" x="1781" y="-369" font-family="Helvetica,sans-Serif" font-size="10.00">/src/pointer&#45;analysis/value_set.cpp</text>
</a>
</g>
</g>
<!-- Node2&#45;&gt;Node75 -->
<g id="edge26" class="edge">
<title>Node2&#45;&gt;Node75</title>
<path fill="none" stroke="midnightblue" d="M1617.83,-442.08C1652.13,-429.77 1693.96,-414.75 1726.68,-403"/>
<polygon fill="midnightblue" stroke="midnightblue" points="1616.6,-438.81 1608.37,-445.48 1618.97,-445.39 1616.6,-438.81"/>
</g>
<!-- Node4 -->
<g id="node4" class="node">
<title>Node4</title>
<g id="a_node4"><a xlink:href="frame_8h.html" target="_top" xlink:title=" ">
<polygon fill="none" stroke="black" points="881,-273 881,-314 1081,-314 1081,-273 881,-273"/>
<text text-anchor="start" x="889" y="-302" font-family="Helvetica,sans-Serif" font-size="10.00">/home/runner/work/cbmc</text>
<text text-anchor="start" x="889" y="-291" font-family="Helvetica,sans-Serif" font-size="10.00">&#45;documentation/cbmc&#45;documentation</text>
<text text-anchor="middle" x="981" y="-280" font-family="Helvetica,sans-Serif" font-size="10.00">/src/goto&#45;symex/frame.h</text>
</a>
</g>
</g>
<!-- Node3&#45;&gt;Node4 -->
<g id="edge3" class="edge">
<title>Node3&#45;&gt;Node4</title>
<path fill="none" stroke="midnightblue" d="M1071.85,-356.25C1052.18,-342.88 1028.38,-326.7 1010.07,-314.26"/>
<polygon fill="midnightblue" stroke="midnightblue" points="1070.04,-359.25 1080.27,-361.98 1073.97,-353.46 1070.04,-359.25"/>
</g>
<!-- Node6 -->
<g id="node6" class="node">
<title>Node6</title>
<g id="a_node6"><a xlink:href="goto__symex__state_8h.html" target="_top" xlink:title=" ">
<polygon fill="none" stroke="black" points="892,-95 892,-136 1092,-136 1092,-95 892,-95"/>
<text text-anchor="start" x="900" y="-124" font-family="Helvetica,sans-Serif" font-size="10.00">/home/runner/work/cbmc</text>
<text text-anchor="start" x="900" y="-113" font-family="Helvetica,sans-Serif" font-size="10.00">&#45;documentation/cbmc&#45;documentation</text>
<text text-anchor="middle" x="992" y="-102" font-family="Helvetica,sans-Serif" font-size="10.00">/src/goto&#45;symex/goto_symex_state.h</text>
</a>
</g>
</g>
<!-- Node3&#45;&gt;Node6 -->
<g id="edge15" class="edge">
<title>Node3&#45;&gt;Node6</title>
<path fill="none" stroke="midnightblue" d="M1113.96,-351.65C1119.34,-309.57 1123.19,-231.93 1090,-178 1078.68,-159.61 1059.59,-145.82 1041.25,-136.01"/>
<polygon fill="midnightblue" stroke="midnightblue" points="1110.46,-351.4 1112.55,-361.79 1117.39,-352.37 1110.46,-351.4"/>
</g>
<!-- Node56 -->
<g id="node10" class="node">
<title>Node56</title>
<g id="a_node10"><a xlink:href="goto__state_8cpp.html" target="_top" xlink:title=" ">
<polygon fill="none" stroke="black" points="1546,-6 1546,-47 1746,-47 1746,-6 1546,-6"/>
<text text-anchor="start" x="1554" y="-35" font-family="Helvetica,sans-Serif" font-size="10.00">/home/runner/work/cbmc</text>
<text text-anchor="start" x="1554" y="-24" font-family="Helvetica,sans-Serif" font-size="10.00">&#45;documentation/cbmc&#45;documentation</text>
<text text-anchor="middle" x="1646" y="-13" font-family="Helvetica,sans-Serif" font-size="10.00">/src/goto&#45;symex/goto_state.cpp</text>
</a>
</g>
</g>
<!-- Node3&#45;&gt;Node56 -->
<g id="edge16" class="edge">
<title>Node3&#45;&gt;Node56</title>
<path fill="none" stroke="midnightblue" d="M1120.34,-352.19C1124.02,-342.08 1127.94,-330.62 1131,-320 1160.1,-218.97 1103.46,-158.9 1182,-89 1241.23,-36.28 1458.79,-66.06 1537,-53 1547.06,-51.32 1557.58,-49.26 1567.95,-47.04"/>
<polygon fill="midnightblue" stroke="midnightblue" points="1116.98,-351.17 1116.78,-361.77 1123.54,-353.61 1116.98,-351.17"/>
</g>
<!-- Node5 -->
<g id="node5" class="node">
<title>Node5</title>
<g id="a_node5"><a xlink:href="call__stack_8h.html" target="_top" xlink:title=" ">
<polygon fill="none" stroke="black" points="881,-184 881,-225 1081,-225 1081,-184 881,-184"/>
<text text-anchor="start" x="889" y="-213" font-family="Helvetica,sans-Serif" font-size="10.00">/home/runner/work/cbmc</text>
<text text-anchor="start" x="889" y="-202" font-family="Helvetica,sans-Serif" font-size="10.00">&#45;documentation/cbmc&#45;documentation</text>
<text text-anchor="middle" x="981" y="-191" font-family="Helvetica,sans-Serif" font-size="10.00">/src/goto&#45;symex/call_stack.h</text>
</a>
</g>
</g>
<!-- Node4&#45;&gt;Node5 -->
<g id="edge4" class="edge">
<title>Node4&#45;&gt;Node5</title>
<path fill="none" stroke="midnightblue" d="M981,-262.44C981,-250.1 981,-236.16 981,-225.16"/>
<polygon fill="midnightblue" stroke="midnightblue" points="977.5,-262.76 981,-272.76 984.5,-262.76 977.5,-262.76"/>
</g>
<!-- Node5&#45;&gt;Node6 -->
<g id="edge5" class="edge">
<title>Node5&#45;&gt;Node6</title>
<path fill="none" stroke="midnightblue" d="M984.75,-173.81C986.33,-161.38 988.11,-147.27 989.51,-136.16"/>
<polygon fill="midnightblue" stroke="midnightblue" points="981.28,-173.4 983.5,-183.76 988.22,-174.28 981.28,-173.4"/>
</g>
<!-- Node67 -->
<g id="node15" class="node">
<title>Node67</title>
<g id="a_node15"><a xlink:href="java__enum__static__init__unwind__handler_8cpp.html" target="_top" xlink:title=" ">
<polygon fill="none" stroke="black" points="668.5,-89.5 668.5,-141.5 873.5,-141.5 873.5,-89.5 668.5,-89.5"/>
<text text-anchor="start" x="676.5" y="-129.5" font-family="Helvetica,sans-Serif" font-size="10.00">/home/runner/work/cbmc</text>
<text text-anchor="start" x="676.5" y="-118.5" font-family="Helvetica,sans-Serif" font-size="10.00">&#45;documentation/cbmc&#45;documentation</text>
<text text-anchor="start" x="676.5" y="-107.5" font-family="Helvetica,sans-Serif" font-size="10.00">/jbmc/src/java_bytecode/java</text>
<text text-anchor="middle" x="771" y="-96.5" font-family="Helvetica,sans-Serif" font-size="10.00">_enum_static_init_unwind_handler.cpp</text>
</a>
</g>
</g>
<!-- Node5&#45;&gt;Node67 -->
<g id="edge14" class="edge">
<title>Node5&#45;&gt;Node67</title>
<path fill="none" stroke="midnightblue" d="M924.39,-180.05C895.68,-168.15 860.79,-153.7 831.55,-141.58"/>
<polygon fill="midnightblue" stroke="midnightblue" points="923.29,-183.38 933.87,-183.98 925.97,-176.91 923.29,-183.38"/>
</g>
<!-- Node7 -->
<g id="node7" class="node">
<title>Node7</title>
<g id="a_node7"><a xlink:href="symex__complexity__limit__exceeded__action_8h.html" target="_top" xlink:title=" ">
<polygon fill="none" stroke="red" points="0,-0.5 0,-52.5 200,-52.5 200,-0.5 0,-0.5"/>
<text text-anchor="start" x="8" y="-40.5" font-family="Helvetica,sans-Serif" font-size="10.00">/home/runner/work/cbmc</text>
<text text-anchor="start" x="8" y="-29.5" font-family="Helvetica,sans-Serif" font-size="10.00">&#45;documentation/cbmc&#45;documentation</text>
<text text-anchor="start" x="8" y="-18.5" font-family="Helvetica,sans-Serif" font-size="10.00">/src/goto&#45;symex/symex_complexity</text>
<text text-anchor="middle" x="100" y="-7.5" font-family="Helvetica,sans-Serif" font-size="10.00">_limit_exceeded_action.h</text>
</a>
</g>
</g>
<!-- Node6&#45;&gt;Node7 -->
<g id="edge6" class="edge">
<title>Node6&#45;&gt;Node7</title>
<path fill="none" stroke="midnightblue" d="M905.42,-92.95C897.54,-91.43 889.64,-90.08 882,-89 585.42,-47.02 505.54,-95.28 209,-53 206.11,-52.59 203.19,-52.14 200.25,-51.65"/>
<polygon fill="midnightblue" stroke="midnightblue" points="904.9,-96.41 915.39,-94.94 906.27,-89.55 904.9,-96.41"/>
</g>
<!-- Node54 -->
<g id="node8" class="node">
<title>Node54</title>
<g id="a_node8"><a xlink:href="complexity__limiter_8cpp.html" target="_top" xlink:title=" ">
<polygon fill="none" stroke="black" points="218,-6 218,-47 428,-47 428,-6 218,-6"/>
<text text-anchor="start" x="226" y="-35" font-family="Helvetica,sans-Serif" font-size="10.00">/home/runner/work/cbmc</text>
<text text-anchor="start" x="226" y="-24" font-family="Helvetica,sans-Serif" font-size="10.00">&#45;documentation/cbmc&#45;documentation</text>
<text text-anchor="middle" x="323" y="-13" font-family="Helvetica,sans-Serif" font-size="10.00">/src/goto&#45;symex/complexity_limiter.cpp</text>
</a>
</g>
</g>
<!-- Node6&#45;&gt;Node54 -->
<g id="edge7" class="edge">
<title>Node6&#45;&gt;Node54</title>
<path fill="none" stroke="midnightblue" d="M904.29,-92.96C896.78,-91.48 889.27,-90.13 882,-89 685.93,-58.51 633.18,-82.73 437,-53 426.17,-51.36 414.84,-49.28 403.7,-47.01"/>
<polygon fill="midnightblue" stroke="midnightblue" points="903.66,-96.4 914.16,-94.96 905.06,-89.54 903.66,-96.4"/>
</g>
<!-- Node55 -->
<g id="node9" class="node">
<title>Node55</title>
<g id="a_node9"><a xlink:href="field__sensitivity_8cpp.html" target="_top" xlink:title=" ">
<polygon fill="none" stroke="black" points="446,-6 446,-47 646,-47 646,-6 446,-6"/>
<text text-anchor="start" x="454" y="-35" font-family="Helvetica,sans-Serif" font-size="10.00">/home/runner/work/cbmc</text>
<text text-anchor="start" x="454" y="-24" font-family="Helvetica,sans-Serif" font-size="10.00">&#45;documentation/cbmc&#45;documentation</text>
<text text-anchor="middle" x="546" y="-13" font-family="Helvetica,sans-Serif" font-size="10.00">/src/goto&#45;symex/field_sensitivity.cpp</text>
</a>
</g>
</g>
<!-- Node6&#45;&gt;Node55 -->
<g id="edge8" class="edge">
<title>Node6&#45;&gt;Node55</title>
<path fill="none" stroke="midnightblue" d="M900.77,-92.83C894.43,-91.49 888.12,-90.19 882,-89 781.74,-69.45 755.24,-72.65 655,-53 645.75,-51.19 636.09,-49.15 626.51,-47.03"/>
<polygon fill="midnightblue" stroke="midnightblue" points="900.23,-96.3 910.74,-94.98 901.71,-89.45 900.23,-96.3"/>
</g>
<!-- Node6&#45;&gt;Node56 -->
<g id="edge9" class="edge">
<title>Node6&#45;&gt;Node56</title>
<path fill="none" stroke="midnightblue" d="M1101.96,-94.16C1113.77,-92.28 1125.62,-90.51 1137,-89 1313.95,-65.52 1360.78,-81.4 1537,-53 1547.27,-51.35 1558,-49.27 1568.56,-47.02"/>
<polygon fill="midnightblue" stroke="midnightblue" points="1101.37,-90.71 1092.06,-95.77 1102.49,-97.62 1101.37,-90.71"/>
</g>
<!-- Node57 -->
<g id="node11" class="node">
<title>Node57</title>
<g id="a_node11"><a xlink:href="goto__symex__state_8cpp.html" target="_top" xlink:title=" ">
<polygon fill="none" stroke="black" points="664.5,-6 664.5,-47 873.5,-47 873.5,-6 664.5,-6"/>
<text text-anchor="start" x="672.5" y="-35" font-family="Helvetica,sans-Serif" font-size="10.00">/home/runner/work/cbmc</text>
<text text-anchor="start" x="672.5" y="-24" font-family="Helvetica,sans-Serif" font-size="10.00">&#45;documentation/cbmc&#45;documentation</text>
<text text-anchor="middle" x="769" y="-13" font-family="Helvetica,sans-Serif" font-size="10.00">/src/goto&#45;symex/goto_symex_state.cpp</text>
</a>
</g>
</g>
<!-- Node6&#45;&gt;Node57 -->
<g id="edge10" class="edge">
<title>Node6&#45;&gt;Node57</title>
<path fill="none" stroke="midnightblue" d="M932.25,-91.19C896.95,-77.42 852.76,-60.18 819.26,-47.11"/>
<polygon fill="midnightblue" stroke="midnightblue" points="931.37,-94.6 941.95,-94.98 933.91,-88.08 931.37,-94.6"/>
</g>
<!-- Node58 -->
<g id="node12" class="node">
<title>Node58</title>
<g id="a_node12"><a xlink:href="path__storage_8h.html" target="_top" xlink:title="Storage of symbolic execution paths to resume.">
<polygon fill="none" stroke="red" points="892,-6 892,-47 1092,-47 1092,-6 892,-6"/>
<text text-anchor="start" x="900" y="-35" font-family="Helvetica,sans-Serif" font-size="10.00">/home/runner/work/cbmc</text>
<text text-anchor="start" x="900" y="-24" font-family="Helvetica,sans-Serif" font-size="10.00">&#45;documentation/cbmc&#45;documentation</text>
<text text-anchor="middle" x="992" y="-13" font-family="Helvetica,sans-Serif" font-size="10.00">/src/goto&#45;symex/path_storage.h</text>
</a>
</g>
</g>
<!-- Node6&#45;&gt;Node58 -->
<g id="edge11" class="edge">
<title>Node6&#45;&gt;Node58</title>
<path fill="none" stroke="midnightblue" d="M992,-84.44C992,-72.1 992,-58.16 992,-47.16"/>
<polygon fill="midnightblue" stroke="midnightblue" points="988.5,-84.76 992,-94.76 995.5,-84.76 988.5,-84.76"/>
</g>
<!-- Node65 -->
<g id="node13" class="node">
<title>Node65</title>
<g id="a_node13"><a xlink:href="renaming__level_8cpp.html" target="_top" xlink:title=" ">
<polygon fill="none" stroke="black" points="1110,-6 1110,-47 1310,-47 1310,-6 1110,-6"/>
<text text-anchor="start" x="1118" y="-35" font-family="Helvetica,sans-Serif" font-size="10.00">/home/runner/work/cbmc</text>
<text text-anchor="start" x="1118" y="-24" font-family="Helvetica,sans-Serif" font-size="10.00">&#45;documentation/cbmc&#45;documentation</text>
<text text-anchor="middle" x="1210" y="-13" font-family="Helvetica,sans-Serif" font-size="10.00">/src/goto&#45;symex/renaming_level.cpp</text>
</a>
</g>
</g>
<!-- Node6&#45;&gt;Node65 -->
<g id="edge12" class="edge">
<title>Node6&#45;&gt;Node65</title>
<path fill="none" stroke="midnightblue" d="M1050.41,-91.19C1084.92,-77.42 1128.11,-60.18 1160.86,-47.11"/>
<polygon fill="midnightblue" stroke="midnightblue" points="1048.91,-88.02 1040.92,-94.98 1051.51,-94.52 1048.91,-88.02"/>
</g>
<!-- Node66 -->
<g id="node14" class="node">
<title>Node66</title>
<g id="a_node14"><a xlink:href="symex__assign_8cpp.html" target="_top" xlink:title=" ">
<polygon fill="none" stroke="black" points="1328,-6 1328,-47 1528,-47 1528,-6 1328,-6"/>
<text text-anchor="start" x="1336" y="-35" font-family="Helvetica,sans-Serif" font-size="10.00">/home/runner/work/cbmc</text>
<text text-anchor="start" x="1336" y="-24" font-family="Helvetica,sans-Serif" font-size="10.00">&#45;documentation/cbmc&#45;documentation</text>
<text text-anchor="middle" x="1428" y="-13" font-family="Helvetica,sans-Serif" font-size="10.00">/src/goto&#45;symex/symex_assign.cpp</text>
</a>
</g>
</g>
<!-- Node6&#45;&gt;Node66 -->
<g id="edge13" class="edge">
<title>Node6&#45;&gt;Node66</title>
<path fill="none" stroke="midnightblue" d="M1102.09,-95.04C1165.63,-83.5 1246.97,-68.19 1319,-53 1327.84,-51.14 1337.07,-49.11 1346.25,-47.03"/>
<polygon fill="midnightblue" stroke="midnightblue" points="1101.26,-91.63 1092.05,-96.86 1102.51,-98.52 1101.26,-91.63"/>
</g>
<!-- Node70 -->
<g id="node18" class="node">
<title>Node70</title>
<g id="a_node18"><a xlink:href="value__set__analysis_8h.html" target="_top" xlink:title=" ">
<polygon fill="none" stroke="black" points="1429,-267.5 1429,-319.5 1629,-319.5 1629,-267.5 1429,-267.5"/>
<text text-anchor="start" x="1437" y="-307.5" font-family="Helvetica,sans-Serif" font-size="10.00">/home/runner/work/cbmc</text>
<text text-anchor="start" x="1437" y="-296.5" font-family="Helvetica,sans-Serif" font-size="10.00">&#45;documentation/cbmc&#45;documentation</text>
<text text-anchor="start" x="1437" y="-285.5" font-family="Helvetica,sans-Serif" font-size="10.00">/src/pointer&#45;analysis/value_set</text>
<text text-anchor="middle" x="1529" y="-274.5" font-family="Helvetica,sans-Serif" font-size="10.00">_analysis.h</text>
</a>
</g>
</g>
<!-- Node69&#45;&gt;Node70 -->
<g id="edge19" class="edge">
<title>Node69&#45;&gt;Node70</title>
<path fill="none" stroke="midnightblue" d="M1545.48,-351.84C1542.48,-341.42 1539.15,-329.81 1536.27,-319.79"/>
<polygon fill="midnightblue" stroke="midnightblue" points="1542.2,-353.11 1548.33,-361.76 1548.93,-351.18 1542.2,-353.11"/>
</g>
<!-- Node71 -->
<g id="node19" class="node">
<title>Node71</title>
<g id="a_node19"><a xlink:href="goto__instrument__parse__options_8cpp.html" target="_top" xlink:title=" ">
<polygon fill="none" stroke="black" points="1191,-89.5 1191,-141.5 1391,-141.5 1391,-89.5 1191,-89.5"/>
<text text-anchor="start" x="1199" y="-129.5" font-family="Helvetica,sans-Serif" font-size="10.00">/home/runner/work/cbmc</text>
<text text-anchor="start" x="1199" y="-118.5" font-family="Helvetica,sans-Serif" font-size="10.00">&#45;documentation/cbmc&#45;documentation</text>
<text text-anchor="start" x="1199" y="-107.5" font-family="Helvetica,sans-Serif" font-size="10.00">/src/goto&#45;instrument/goto_instrument</text>
<text text-anchor="middle" x="1291" y="-96.5" font-family="Helvetica,sans-Serif" font-size="10.00">_parse_options.cpp</text>
</a>
</g>
</g>
<!-- Node70&#45;&gt;Node71 -->
<g id="edge20" class="edge">
<title>Node70&#45;&gt;Node71</title>
<path fill="none" stroke="midnightblue" d="M1418.76,-278.76C1360.6,-269 1297.68,-253.58 1280,-231 1260.18,-205.69 1269.64,-166.92 1279.39,-141.64"/>
<polygon fill="midnightblue" stroke="midnightblue" points="1418.36,-282.24 1428.8,-280.4 1419.49,-275.33 1418.36,-282.24"/>
</g>
<!-- Node72 -->
<g id="node20" class="node">
<title>Node72</title>
<g id="a_node20"><a xlink:href="show__value__sets_8h.html" target="_top" xlink:title=" ">
<polygon fill="none" stroke="black" points="1289.5,-184 1289.5,-225 1500.5,-225 1500.5,-184 1289.5,-184"/>
<text text-anchor="start" x="1297.5" y="-213" font-family="Helvetica,sans-Serif" font-size="10.00">/home/runner/work/cbmc</text>
<text text-anchor="start" x="1297.5" y="-202" font-family="Helvetica,sans-Serif" font-size="10.00">&#45;documentation/cbmc&#45;documentation</text>
<text text-anchor="middle" x="1395" y="-191" font-family="Helvetica,sans-Serif" font-size="10.00">/src/pointer&#45;analysis/show_value_sets.h</text>
</a>
</g>
</g>
<!-- Node70&#45;&gt;Node72 -->
<g id="edge21" class="edge">
<title>Node70&#45;&gt;Node72</title>
<path fill="none" stroke="midnightblue" d="M1481.78,-261.84C1462.96,-249.62 1441.85,-235.92 1425.16,-225.08"/>
<polygon fill="midnightblue" stroke="midnightblue" points="1479.95,-264.83 1490.24,-267.34 1483.76,-258.95 1479.95,-264.83"/>
</g>
<!-- Node73 -->
<g id="node21" class="node">
<title>Node73</title>
<g id="a_node21"><a xlink:href="show__value__sets_8cpp.html" target="_top" xlink:title=" ">
<polygon fill="none" stroke="black" points="1415,-95 1415,-136 1637,-136 1637,-95 1415,-95"/>
<text text-anchor="start" x="1423" y="-124" font-family="Helvetica,sans-Serif" font-size="10.00">/home/runner/work/cbmc</text>
<text text-anchor="start" x="1423" y="-113" font-family="Helvetica,sans-Serif" font-size="10.00">&#45;documentation/cbmc&#45;documentation</text>
<text text-anchor="middle" x="1526" y="-102" font-family="Helvetica,sans-Serif" font-size="10.00">/src/pointer&#45;analysis/show_value_sets.cpp</text>
</a>
</g>
</g>
<!-- Node70&#45;&gt;Node73 -->
<g id="edge24" class="edge">
<title>Node70&#45;&gt;Node73</title>
<path fill="none" stroke="midnightblue" d="M1528.4,-257.11C1527.78,-220.76 1526.83,-165.46 1526.34,-136.22"/>
<polygon fill="midnightblue" stroke="midnightblue" points="1524.9,-257.34 1528.57,-267.28 1531.9,-257.23 1524.9,-257.34"/>
</g>
<!-- Node74 -->
<g id="node22" class="node">
<title>Node74</title>
<g id="a_node22"><a xlink:href="value__set__analysis_8cpp.html" target="_top" xlink:title=" ">
<polygon fill="none" stroke="black" points="1557,-178.5 1557,-230.5 1757,-230.5 1757,-178.5 1557,-178.5"/>
<text text-anchor="start" x="1565" y="-218.5" font-family="Helvetica,sans-Serif" font-size="10.00">/home/runner/work/cbmc</text>
<text text-anchor="start" x="1565" y="-207.5" font-family="Helvetica,sans-Serif" font-size="10.00">&#45;documentation/cbmc&#45;documentation</text>
<text text-anchor="start" x="1565" y="-196.5" font-family="Helvetica,sans-Serif" font-size="10.00">/src/pointer&#45;analysis/value_set</text>
<text text-anchor="middle" x="1657" y="-185.5" font-family="Helvetica,sans-Serif" font-size="10.00">_analysis.cpp</text>
</a>
</g>
</g>
<!-- Node70&#45;&gt;Node74 -->
<g id="edge25" class="edge">
<title>Node70&#45;&gt;Node74</title>
<path fill="none" stroke="midnightblue" d="M1574.6,-261.5C1589.51,-251.37 1605.87,-240.25 1620.06,-230.61"/>
<polygon fill="midnightblue" stroke="midnightblue" points="1572.33,-258.82 1566.02,-267.34 1576.26,-264.61 1572.33,-258.82"/>
</g>
<!-- Node72&#45;&gt;Node71 -->
<g id="edge22" class="edge">
<title>Node72&#45;&gt;Node71</title>
<path fill="none" stroke="midnightblue" d="M1363.95,-177.53C1350.36,-166.15 1334.46,-152.86 1320.99,-141.58"/>
<polygon fill="midnightblue" stroke="midnightblue" points="1361.74,-180.24 1371.66,-183.98 1366.24,-174.87 1361.74,-180.24"/>
</g>
<!-- Node72&#45;&gt;Node73 -->
<g id="edge23" class="edge">
<title>Node72&#45;&gt;Node73</title>
<path fill="none" stroke="midnightblue" d="M1432.76,-178.43C1452.94,-165.02 1477.43,-148.76 1496.25,-136.26"/>
<polygon fill="midnightblue" stroke="midnightblue" points="1430.79,-175.53 1424.4,-183.98 1434.67,-181.36 1430.79,-175.53"/>
</g>
<!-- Node77 -->
<g id="node25" class="node">
<title>Node77</title>
<g id="a_node25"><a xlink:href="value__set__domain__fi_8h.html" target="_top" xlink:title=" ">
<polygon fill="none" stroke="black" points="1959,-356.5 1959,-408.5 2159,-408.5 2159,-356.5 1959,-356.5"/>
<text text-anchor="start" x="1967" y="-396.5" font-family="Helvetica,sans-Serif" font-size="10.00">/home/runner/work/cbmc</text>
<text text-anchor="start" x="1967" y="-385.5" font-family="Helvetica,sans-Serif" font-size="10.00">&#45;documentation/cbmc&#45;documentation</text>
<text text-anchor="start" x="1967" y="-374.5" font-family="Helvetica,sans-Serif" font-size="10.00">/src/pointer&#45;analysis/value_set</text>
<text text-anchor="middle" x="2059" y="-363.5" font-family="Helvetica,sans-Serif" font-size="10.00">_domain_fi.h</text>
</a>
</g>
</g>
<!-- Node76&#45;&gt;Node77 -->
<g id="edge28" class="edge">
<title>Node76&#45;&gt;Node77</title>
<path fill="none" stroke="midnightblue" d="M2094.34,-436.83C2088.26,-427.66 2081.56,-417.54 2075.64,-408.61"/>
<polygon fill="midnightblue" stroke="midnightblue" points="2091.49,-438.87 2099.93,-445.27 2097.32,-435 2091.49,-438.87"/>
</g>
<!-- Node83 -->
<g id="node31" class="node">
<title>Node83</title>
<g id="a_node31"><a xlink:href="value__set__fi_8cpp.html" target="_top" xlink:title=" ">
<polygon fill="none" stroke="black" points="2177,-362 2177,-403 2377,-403 2377,-362 2177,-362"/>
<text text-anchor="start" x="2185" y="-391" font-family="Helvetica,sans-Serif" font-size="10.00">/home/runner/work/cbmc</text>
<text text-anchor="start" x="2185" y="-380" font-family="Helvetica,sans-Serif" font-size="10.00">&#45;documentation/cbmc&#45;documentation</text>
<text text-anchor="middle" x="2277" y="-369" font-family="Helvetica,sans-Serif" font-size="10.00">/src/pointer&#45;analysis/value_set_fi.cpp</text>
</a>
</g>
</g>
<!-- Node76&#45;&gt;Node83 -->
<g id="edge34" class="edge">
<title>Node76&#45;&gt;Node83</title>
<path fill="none" stroke="midnightblue" d="M2161.35,-440.97C2185.7,-428.87 2214.82,-414.4 2237.75,-403"/>
<polygon fill="midnightblue" stroke="midnightblue" points="2159.68,-437.89 2152.28,-445.48 2162.79,-444.16 2159.68,-437.89"/>
</g>
<!-- Node78 -->
<g id="node26" class="node">
<title>Node78</title>
<g id="a_node26"><a xlink:href="value__set__analysis__fi_8h.html" target="_top" xlink:title=" ">
<polygon fill="none" stroke="black" points="1959,-267.5 1959,-319.5 2159,-319.5 2159,-267.5 1959,-267.5"/>
<text text-anchor="start" x="1967" y="-307.5" font-family="Helvetica,sans-Serif" font-size="10.00">/home/runner/work/cbmc</text>
<text text-anchor="start" x="1967" y="-296.5" font-family="Helvetica,sans-Serif" font-size="10.00">&#45;documentation/cbmc&#45;documentation</text>
<text text-anchor="start" x="1967" y="-285.5" font-family="Helvetica,sans-Serif" font-size="10.00">/src/pointer&#45;analysis/value_set</text>
<text text-anchor="middle" x="2059" y="-274.5" font-family="Helvetica,sans-Serif" font-size="10.00">_analysis_fi.h</text>
</a>
</g>
</g>
<!-- Node77&#45;&gt;Node78 -->
<g id="edge29" class="edge">
<title>Node77&#45;&gt;Node78</title>
<path fill="none" stroke="midnightblue" d="M2059,-346.19C2059,-337.28 2059,-327.9 2059,-319.61"/>
<polygon fill="midnightblue" stroke="midnightblue" points="2055.5,-346.34 2059,-356.34 2062.5,-346.34 2055.5,-346.34"/>
</g>
<!-- Node82 -->
<g id="node30" class="node">
<title>Node82</title>
<g id="a_node30"><a xlink:href="value__set__domain__fi_8cpp.html" target="_top" xlink:title=" ">
<polygon fill="none" stroke="black" points="2177,-267.5 2177,-319.5 2377,-319.5 2377,-267.5 2177,-267.5"/>
<text text-anchor="start" x="2185" y="-307.5" font-family="Helvetica,sans-Serif" font-size="10.00">/home/runner/work/cbmc</text>
<text text-anchor="start" x="2185" y="-296.5" font-family="Helvetica,sans-Serif" font-size="10.00">&#45;documentation/cbmc&#45;documentation</text>
<text text-anchor="start" x="2185" y="-285.5" font-family="Helvetica,sans-Serif" font-size="10.00">/src/pointer&#45;analysis/value_set</text>
<text text-anchor="middle" x="2277" y="-274.5" font-family="Helvetica,sans-Serif" font-size="10.00">_domain_fi.cpp</text>
</a>
</g>
</g>
<!-- Node77&#45;&gt;Node82 -->
<g id="edge33" class="edge">
<title>Node77&#45;&gt;Node82</title>
<path fill="none" stroke="midnightblue" d="M2131.12,-352.72C2158.02,-341.98 2188.32,-329.89 2214.3,-319.52"/>
<polygon fill="midnightblue" stroke="midnightblue" points="2129.75,-349.5 2121.76,-356.45 2132.35,-356 2129.75,-349.5"/>
</g>
<!-- Node79 -->
<g id="node27" class="node">
<title>Node79</title>
<g id="a_node27"><a xlink:href="reaching__definitions_8cpp.html" target="_top" xlink:title=" ">
<polygon fill="none" stroke="black" points="1775,-184 1775,-225 1977,-225 1977,-184 1775,-184"/>
<text text-anchor="start" x="1783" y="-213" font-family="Helvetica,sans-Serif" font-size="10.00">/home/runner/work/cbmc</text>
<text text-anchor="start" x="1783" y="-202" font-family="Helvetica,sans-Serif" font-size="10.00">&#45;documentation/cbmc&#45;documentation</text>
<text text-anchor="middle" x="1876" y="-191" font-family="Helvetica,sans-Serif" font-size="10.00">/src/analyses/reaching_definitions.cpp</text>
</a>
</g>
</g>
<!-- Node78&#45;&gt;Node79 -->
<g id="edge30" class="edge">
<title>Node78&#45;&gt;Node79</title>
<path fill="none" stroke="midnightblue" d="M1996.93,-262.99C1970.63,-250.49 1940.7,-236.26 1917.19,-225.08"/>
<polygon fill="midnightblue" stroke="midnightblue" points="1995.53,-266.2 2006.07,-267.34 1998.54,-259.88 1995.53,-266.2"/>
</g>
<!-- Node80 -->
<g id="node28" class="node">
<title>Node80</title>
<g id="a_node28"><a xlink:href="value__set__fi__fp__removal_8cpp.html" target="_top" xlink:title=" ">
<polygon fill="none" stroke="black" points="1995,-178.5 1995,-230.5 2195,-230.5 2195,-178.5 1995,-178.5"/>
<text text-anchor="start" x="2003" y="-218.5" font-family="Helvetica,sans-Serif" font-size="10.00">/home/runner/work/cbmc</text>
<text text-anchor="start" x="2003" y="-207.5" font-family="Helvetica,sans-Serif" font-size="10.00">&#45;documentation/cbmc&#45;documentation</text>
<text text-anchor="start" x="2003" y="-196.5" font-family="Helvetica,sans-Serif" font-size="10.00">/src/goto&#45;instrument/value_set</text>
<text text-anchor="middle" x="2095" y="-185.5" font-family="Helvetica,sans-Serif" font-size="10.00">_fi_fp_removal.cpp</text>
</a>
</g>
</g>
<!-- Node78&#45;&gt;Node80 -->
<g id="edge31" class="edge">
<title>Node78&#45;&gt;Node80</title>
<path fill="none" stroke="midnightblue" d="M2073.25,-258.06C2077.04,-248.9 2081.07,-239.17 2084.61,-230.61"/>
<polygon fill="midnightblue" stroke="midnightblue" points="2070,-256.76 2069.41,-267.34 2076.47,-259.43 2070,-256.76"/>
</g>
<!-- Node81 -->
<g id="node29" class="node">
<title>Node81</title>
<g id="a_node29"><a xlink:href="value__set__analysis__fi_8cpp.html" target="_top" xlink:title=" ">
<polygon fill="none" stroke="black" points="2213,-178.5 2213,-230.5 2413,-230.5 2413,-178.5 2213,-178.5"/>
<text text-anchor="start" x="2221" y="-218.5" font-family="Helvetica,sans-Serif" font-size="10.00">/home/runner/work/cbmc</text>
<text text-anchor="start" x="2221" y="-207.5" font-family="Helvetica,sans-Serif" font-size="10.00">&#45;documentation/cbmc&#45;documentation</text>
<text text-anchor="start" x="2221" y="-196.5" font-family="Helvetica,sans-Serif" font-size="10.00">/src/pointer&#45;analysis/value_set</text>
<text text-anchor="middle" x="2313" y="-185.5" font-family="Helvetica,sans-Serif" font-size="10.00">_analysis_fi.cpp</text>
</a>
</g>
</g>
<!-- Node78&#45;&gt;Node81 -->
<g id="edge32" class="edge">
<title>Node78&#45;&gt;Node81</title>
<path fill="none" stroke="midnightblue" d="M2141.8,-264.14C2173.45,-253.3 2209.28,-241.03 2239.95,-230.52"/>
<polygon fill="midnightblue" stroke="midnightblue" points="2140.45,-260.9 2132.13,-267.45 2142.72,-267.52 2140.45,-260.9"/>
</g>
<!-- Node85 -->
<g id="node33" class="node">
<title>Node85</title>
<g id="a_node33"><a xlink:href="ref__expr__set_8cpp.html" target="_top" xlink:title=" ">
<polygon fill="none" stroke="black" points="2395,-362 2395,-403 2595,-403 2595,-362 2395,-362"/>
<text text-anchor="start" x="2403" y="-391" font-family="Helvetica,sans-Serif" font-size="10.00">/home/runner/work/cbmc</text>
<text text-anchor="start" x="2403" y="-380" font-family="Helvetica,sans-Serif" font-size="10.00">&#45;documentation/cbmc&#45;documentation</text>
<text text-anchor="middle" x="2495" y="-369" font-family="Helvetica,sans-Serif" font-size="10.00">/src/util/ref_expr_set.cpp</text>
</a>
</g>
</g>
<!-- Node84&#45;&gt;Node85 -->
<g id="edge36" class="edge">
<title>Node84&#45;&gt;Node85</title>
<path fill="none" stroke="midnightblue" d="M2459.08,-436.72C2466.58,-425.61 2475,-413.13 2481.81,-403.05"/>
<polygon fill="midnightblue" stroke="midnightblue" points="2456.01,-435.02 2453.31,-445.27 2461.81,-438.94 2456.01,-435.02"/>
</g>
</g>
</svg>
