<?xml version="1.0" encoding="UTF-8" standalone="no"?>
<!DOCTYPE svg PUBLIC "-//W3C//DTD SVG 1.1//EN"
 "http://www.w3.org/Graphics/SVG/1.1/DTD/svg11.dtd">
<!-- Generated by graphviz version 2.43.0 (0)
 -->
<!-- Title: /home/runner/work/cbmc&#45;documentation/cbmc&#45;documentation/src/goto&#45;programs/remove_calls_no_body.h Pages: 1 -->
<svg width="1011pt" height="239pt"
 viewBox="0.00 0.00 1011.00 239.00" xmlns="http://www.w3.org/2000/svg" xmlns:xlink="http://www.w3.org/1999/xlink">
<g id="graph0" class="graph" transform="scale(1 1) rotate(0) translate(4 235)">
<title>/home/runner/work/cbmc&#45;documentation/cbmc&#45;documentation/src/goto&#45;programs/remove_calls_no_body.h</title>
<!-- Node1 -->
<g id="node1" class="node">
<title>Node1</title>
<g id="a_node1"><a xlink:title=" ">
<polygon fill="#bfbfbf" stroke="black" points="521,-178.5 521,-230.5 721,-230.5 721,-178.5 521,-178.5"/>
<text text-anchor="start" x="529" y="-218.5" font-family="Helvetica,sans-Serif" font-size="10.00">/home/runner/work/cbmc</text>
<text text-anchor="start" x="529" y="-207.5" font-family="Helvetica,sans-Serif" font-size="10.00">&#45;documentation/cbmc&#45;documentation</text>
<text text-anchor="start" x="529" y="-196.5" font-family="Helvetica,sans-Serif" font-size="10.00">/src/goto&#45;programs/remove_calls</text>
<text text-anchor="middle" x="621" y="-185.5" font-family="Helvetica,sans-Serif" font-size="10.00">_no_body.h</text>
</a>
</g>
</g>
<!-- Node2 -->
<g id="node2" class="node">
<title>Node2</title>
<g id="a_node2"><a xlink:href="goto__instrument__parse__options_8h.html" target="_top" xlink:title=" ">
<polygon fill="none" stroke="black" points="300,-89.5 300,-141.5 500,-141.5 500,-89.5 300,-89.5"/>
<text text-anchor="start" x="308" y="-129.5" font-family="Helvetica,sans-Serif" font-size="10.00">/home/runner/work/cbmc</text>
<text text-anchor="start" x="308" y="-118.5" font-family="Helvetica,sans-Serif" font-size="10.00">&#45;documentation/cbmc&#45;documentation</text>
<text text-anchor="start" x="308" y="-107.5" font-family="Helvetica,sans-Serif" font-size="10.00">/src/goto&#45;instrument/goto_instrument</text>
<text text-anchor="middle" x="400" y="-96.5" font-family="Helvetica,sans-Serif" font-size="10.00">_parse_options.h</text>
</a>
</g>
</g>
<!-- Node1&#45;&gt;Node2 -->
<g id="edge1" class="edge">
<title>Node1&#45;&gt;Node2</title>
<path fill="none" stroke="midnightblue" d="M547.88,-174.72C520.61,-163.98 489.9,-151.89 463.56,-141.52"/>
<polygon fill="midnightblue" stroke="midnightblue" points="546.79,-178.05 557.37,-178.45 549.35,-171.53 546.79,-178.05"/>
</g>
<!-- Node5 -->
<g id="node5" class="node">
<title>Node5</title>
<g id="a_node5"><a xlink:href="goto__instrument__parse__options_8cpp.html" target="_top" xlink:title=" ">
<polygon fill="none" stroke="black" points="486,-0.5 486,-52.5 686,-52.5 686,-0.5 486,-0.5"/>
<text text-anchor="start" x="494" y="-40.5" font-family="Helvetica,sans-Serif" font-size="10.00">/home/runner/work/cbmc</text>
<text text-anchor="start" x="494" y="-29.5" font-family="Helvetica,sans-Serif" font-size="10.00">&#45;documentation/cbmc&#45;documentation</text>
<text text-anchor="start" x="494" y="-18.5" font-family="Helvetica,sans-Serif" font-size="10.00">/src/goto&#45;instrument/goto_instrument</text>
<text text-anchor="middle" x="586" y="-7.5" font-family="Helvetica,sans-Serif" font-size="10.00">_parse_options.cpp</text>
</a>
</g>
</g>
<!-- Node1&#45;&gt;Node5 -->
<g id="edge5" class="edge">
<title>Node1&#45;&gt;Node5</title>
<path fill="none" stroke="midnightblue" d="M590.81,-170.12C584.74,-161.53 579.24,-151.9 576,-142 566.33,-112.41 572.16,-76.37 578.19,-52.72"/>
<polygon fill="midnightblue" stroke="midnightblue" points="588.19,-172.46 597,-178.33 593.78,-168.24 588.19,-172.46"/>
</g>
<!-- Node6 -->
<g id="node6" class="node">
<title>Node6</title>
<g id="a_node6"><a xlink:href="reachability__slicer_8cpp.html" target="_top" xlink:title=" ">
<polygon fill="none" stroke="black" points="585,-89.5 585,-141.5 785,-141.5 785,-89.5 585,-89.5"/>
<text text-anchor="start" x="593" y="-129.5" font-family="Helvetica,sans-Serif" font-size="10.00">/home/runner/work/cbmc</text>
<text text-anchor="start" x="593" y="-118.5" font-family="Helvetica,sans-Serif" font-size="10.00">&#45;documentation/cbmc&#45;documentation</text>
<text text-anchor="start" x="593" y="-107.5" font-family="Helvetica,sans-Serif" font-size="10.00">/src/goto&#45;instrument/reachability</text>
<text text-anchor="middle" x="685" y="-96.5" font-family="Helvetica,sans-Serif" font-size="10.00">_slicer.cpp</text>
</a>
</g>
</g>
<!-- Node1&#45;&gt;Node6 -->
<g id="edge6" class="edge">
<title>Node1&#45;&gt;Node6</title>
<path fill="none" stroke="midnightblue" d="M645.49,-170.22C652.47,-160.72 659.97,-150.53 666.53,-141.61"/>
<polygon fill="midnightblue" stroke="midnightblue" points="642.62,-168.21 639.51,-178.34 648.26,-172.35 642.62,-168.21"/>
</g>
<!-- Node7 -->
<g id="node7" class="node">
<title>Node7</title>
<g id="a_node7"><a xlink:href="remove__calls__no__body_8cpp.html" target="_top" xlink:title=" ">
<polygon fill="none" stroke="black" points="803,-89.5 803,-141.5 1003,-141.5 1003,-89.5 803,-89.5"/>
<text text-anchor="start" x="811" y="-129.5" font-family="Helvetica,sans-Serif" font-size="10.00">/home/runner/work/cbmc</text>
<text text-anchor="start" x="811" y="-118.5" font-family="Helvetica,sans-Serif" font-size="10.00">&#45;documentation/cbmc&#45;documentation</text>
<text text-anchor="start" x="811" y="-107.5" font-family="Helvetica,sans-Serif" font-size="10.00">/src/goto&#45;programs/remove_calls</text>
<text text-anchor="middle" x="903" y="-96.5" font-family="Helvetica,sans-Serif" font-size="10.00">_no_body.cpp</text>
</a>
</g>
</g>
<!-- Node1&#45;&gt;Node7 -->
<g id="edge7" class="edge">
<title>Node1&#45;&gt;Node7</title>
<path fill="none" stroke="midnightblue" d="M712.02,-175.42C747.38,-164.51 787.55,-152.12 821.9,-141.52"/>
<polygon fill="midnightblue" stroke="midnightblue" points="710.71,-172.16 702.19,-178.45 712.78,-178.85 710.71,-172.16"/>
</g>
<!-- Node3 -->
<g id="node3" class="node">
<title>Node3</title>
<g id="a_node3"><a xlink:href="goto__instrument__languages_8cpp.html" target="_top" xlink:title=" ">
<polygon fill="none" stroke="black" points="0,-0.5 0,-52.5 200,-52.5 200,-0.5 0,-0.5"/>
<text text-anchor="start" x="8" y="-40.5" font-family="Helvetica,sans-Serif" font-size="10.00">/home/runner/work/cbmc</text>
<text text-anchor="start" x="8" y="-29.5" font-family="Helvetica,sans-Serif" font-size="10.00">&#45;documentation/cbmc&#45;documentation</text>
<text text-anchor="start" x="8" y="-18.5" font-family="Helvetica,sans-Serif" font-size="10.00">/src/goto&#45;instrument/goto_instrument</text>
<text text-anchor="middle" x="100" y="-7.5" font-family="Helvetica,sans-Serif" font-size="10.00">_languages.cpp</text>
</a>
</g>
</g>
<!-- Node2&#45;&gt;Node3 -->
<g id="edge2" class="edge">
<title>Node2&#45;&gt;Node3</title>
<path fill="none" stroke="midnightblue" d="M303.65,-86.56C265.92,-75.62 222.97,-63.16 186.28,-52.52"/>
<polygon fill="midnightblue" stroke="midnightblue" points="303.05,-90.03 313.63,-89.45 305,-83.31 303.05,-90.03"/>
</g>
<!-- Node4 -->
<g id="node4" class="node">
<title>Node4</title>
<g id="a_node4"><a xlink:href="goto__instrument__main_8cpp.html" target="_top" xlink:title=" ">
<polygon fill="none" stroke="black" points="218.5,-6 218.5,-47 467.5,-47 467.5,-6 218.5,-6"/>
<text text-anchor="start" x="226.5" y="-35" font-family="Helvetica,sans-Serif" font-size="10.00">/home/runner/work/cbmc</text>
<text text-anchor="start" x="226.5" y="-24" font-family="Helvetica,sans-Serif" font-size="10.00">&#45;documentation/cbmc&#45;documentation</text>
<text text-anchor="middle" x="343" y="-13" font-family="Helvetica,sans-Serif" font-size="10.00">/src/goto&#45;instrument/goto_instrument_main.cpp</text>
</a>
</g>
</g>
<!-- Node2&#45;&gt;Node4 -->
<g id="edge3" class="edge">
<title>Node2&#45;&gt;Node4</title>
<path fill="none" stroke="midnightblue" d="M377.95,-80.84C370.46,-69.42 362.35,-57.04 355.83,-47.08"/>
<polygon fill="midnightblue" stroke="midnightblue" points="375.11,-82.89 383.51,-89.34 380.96,-79.05 375.11,-82.89"/>
</g>
<!-- Node2&#45;&gt;Node5 -->
<g id="edge4" class="edge">
<title>Node2&#45;&gt;Node5</title>
<path fill="none" stroke="midnightblue" d="M462.95,-85.06C485.48,-74.52 510.65,-62.75 532.32,-52.61"/>
<polygon fill="midnightblue" stroke="midnightblue" points="461.37,-81.93 453.8,-89.34 464.34,-88.27 461.37,-81.93"/>
</g>
</g>
</svg>
