<?xml version="1.0" encoding="UTF-8" standalone="no"?>
<!DOCTYPE svg PUBLIC "-//W3C//DTD SVG 1.1//EN"
 "http://www.w3.org/Graphics/SVG/1.1/DTD/svg11.dtd">
<!-- Generated by graphviz version 2.43.0 (0)
 -->
<!-- Title: /home/runner/work/cbmc&#45;documentation/cbmc&#45;documentation/src/goto&#45;symex/renaming_level.h Pages: 1 -->
<svg width="3646pt" height="640pt"
 viewBox="0.00 0.00 3645.66 640.00" xmlns="http://www.w3.org/2000/svg" xmlns:xlink="http://www.w3.org/1999/xlink">
<g id="graph0" class="graph" transform="scale(1 1) rotate(0) translate(4 636)">
<title>/home/runner/work/cbmc&#45;documentation/cbmc&#45;documentation/src/goto&#45;symex/renaming_level.h</title>
<!-- Node1 -->
<g id="node1" class="node">
<title>Node1</title>
<g id="a_node1"><a xlink:title=" ">
<polygon fill="#bfbfbf" stroke="black" points="718,-590.5 718,-631.5 918,-631.5 918,-590.5 718,-590.5"/>
<text text-anchor="start" x="726" y="-619.5" font-family="Helvetica,sans-Serif" font-size="10.00">/home/runner/work/cbmc</text>
<text text-anchor="start" x="726" y="-608.5" font-family="Helvetica,sans-Serif" font-size="10.00">&#45;documentation/cbmc&#45;documentation</text>
<text text-anchor="middle" x="818" y="-597.5" font-family="Helvetica,sans-Serif" font-size="10.00">/src/goto&#45;symex/renaming_level.h</text>
</a>
</g>
</g>
<!-- Node2 -->
<g id="node2" class="node">
<title>Node2</title>
<g id="a_node2"><a xlink:href="goto__state_8h.html" target="_top" xlink:title=" ">
<polygon fill="none" stroke="black" points="485,-512.5 485,-553.5 685,-553.5 685,-512.5 485,-512.5"/>
<text text-anchor="start" x="493" y="-541.5" font-family="Helvetica,sans-Serif" font-size="10.00">/home/runner/work/cbmc</text>
<text text-anchor="start" x="493" y="-530.5" font-family="Helvetica,sans-Serif" font-size="10.00">&#45;documentation/cbmc&#45;documentation</text>
<text text-anchor="middle" x="585" y="-519.5" font-family="Helvetica,sans-Serif" font-size="10.00">/src/goto&#45;symex/goto_state.h</text>
</a>
</g>
</g>
<!-- Node1&#45;&gt;Node2 -->
<g id="edge1" class="edge">
<title>Node1&#45;&gt;Node2</title>
<path fill="none" stroke="midnightblue" d="M748.42,-587.3C715.44,-576.55 676.43,-563.82 644.8,-553.51"/>
<polygon fill="midnightblue" stroke="midnightblue" points="747.4,-590.65 758,-590.43 749.58,-584 747.4,-590.65"/>
</g>
<!-- Node5 -->
<g id="node5" class="node">
<title>Node5</title>
<g id="a_node5"><a xlink:href="goto__symex__state_8h.html" target="_top" xlink:title=" ">
<polygon fill="none" stroke="black" points="590,-273 590,-314 790,-314 790,-273 590,-273"/>
<text text-anchor="start" x="598" y="-302" font-family="Helvetica,sans-Serif" font-size="10.00">/home/runner/work/cbmc</text>
<text text-anchor="start" x="598" y="-291" font-family="Helvetica,sans-Serif" font-size="10.00">&#45;documentation/cbmc&#45;documentation</text>
<text text-anchor="middle" x="690" y="-280" font-family="Helvetica,sans-Serif" font-size="10.00">/src/goto&#45;symex/goto_symex_state.h</text>
</a>
</g>
</g>
<!-- Node1&#45;&gt;Node5 -->
<g id="edge38" class="edge">
<title>Node1&#45;&gt;Node5</title>
<path fill="none" stroke="midnightblue" d="M806.17,-580.84C780.41,-517.35 719.82,-368 698,-314.23"/>
<polygon fill="midnightblue" stroke="midnightblue" points="802.99,-582.31 809.99,-590.26 809.48,-579.68 802.99,-582.31"/>
</g>
<!-- Node64 -->
<g id="node29" class="node">
<title>Node64</title>
<g id="a_node29"><a xlink:href="renaming__level_8cpp.html" target="_top" xlink:title=" ">
<polygon fill="none" stroke="black" points="1830,-184 1830,-225 2030,-225 2030,-184 1830,-184"/>
<text text-anchor="start" x="1838" y="-213" font-family="Helvetica,sans-Serif" font-size="10.00">/home/runner/work/cbmc</text>
<text text-anchor="start" x="1838" y="-202" font-family="Helvetica,sans-Serif" font-size="10.00">&#45;documentation/cbmc&#45;documentation</text>
<text text-anchor="middle" x="1930" y="-191" font-family="Helvetica,sans-Serif" font-size="10.00">/src/goto&#45;symex/renaming_level.cpp</text>
</a>
</g>
</g>
<!-- Node1&#45;&gt;Node64 -->
<g id="edge41" class="edge">
<title>Node1&#45;&gt;Node64</title>
<path fill="none" stroke="midnightblue" d="M818,-579.91C818,-548.87 818,-499.05 818,-456 818,-456 818,-456 818,-376 818,-150.79 1599.71,-272.8 1821,-231 1830.45,-229.21 1840.33,-227.17 1850.1,-225.02"/>
<polygon fill="midnightblue" stroke="midnightblue" points="814.5,-580.06 818,-590.07 821.5,-580.07 814.5,-580.06"/>
</g>
<!-- Node67 -->
<g id="node32" class="node">
<title>Node67</title>
<g id="a_node32"><a xlink:href="postcondition_8cpp.html" target="_top" xlink:title=" ">
<polygon fill="none" stroke="black" points="846,-512.5 846,-553.5 1046,-553.5 1046,-512.5 846,-512.5"/>
<text text-anchor="start" x="854" y="-541.5" font-family="Helvetica,sans-Serif" font-size="10.00">/home/runner/work/cbmc</text>
<text text-anchor="start" x="854" y="-530.5" font-family="Helvetica,sans-Serif" font-size="10.00">&#45;documentation/cbmc&#45;documentation</text>
<text text-anchor="middle" x="946" y="-519.5" font-family="Helvetica,sans-Serif" font-size="10.00">/src/goto&#45;symex/postcondition.cpp</text>
</a>
</g>
</g>
<!-- Node1&#45;&gt;Node67 -->
<g id="edge39" class="edge">
<title>Node1&#45;&gt;Node67</title>
<path fill="none" stroke="midnightblue" d="M859.76,-585.2C877.09,-574.92 896.89,-563.16 913.15,-553.51"/>
<polygon fill="midnightblue" stroke="midnightblue" points="857.77,-582.31 850.96,-590.43 861.35,-588.33 857.77,-582.31"/>
</g>
<!-- Node68 -->
<g id="node33" class="node">
<title>Node68</title>
<g id="a_node33"><a xlink:href="precondition_8cpp.html" target="_top" xlink:title=" ">
<polygon fill="none" stroke="black" points="1064,-512.5 1064,-553.5 1264,-553.5 1264,-512.5 1064,-512.5"/>
<text text-anchor="start" x="1072" y="-541.5" font-family="Helvetica,sans-Serif" font-size="10.00">/home/runner/work/cbmc</text>
<text text-anchor="start" x="1072" y="-530.5" font-family="Helvetica,sans-Serif" font-size="10.00">&#45;documentation/cbmc&#45;documentation</text>
<text text-anchor="middle" x="1164" y="-519.5" font-family="Helvetica,sans-Serif" font-size="10.00">/src/goto&#45;symex/precondition.cpp</text>
</a>
</g>
</g>
<!-- Node1&#45;&gt;Node68 -->
<g id="edge40" class="edge">
<title>Node1&#45;&gt;Node68</title>
<path fill="none" stroke="midnightblue" d="M916.94,-588.27C966.81,-577.31 1026.82,-564.13 1075.2,-553.51"/>
<polygon fill="midnightblue" stroke="midnightblue" points="916.12,-584.86 907.1,-590.43 917.62,-591.7 916.12,-584.86"/>
</g>
<!-- Node3 -->
<g id="node3" class="node">
<title>Node3</title>
<g id="a_node3"><a xlink:href="frame_8h.html" target="_top" xlink:title=" ">
<polygon fill="none" stroke="black" points="462,-434.5 462,-475.5 662,-475.5 662,-434.5 462,-434.5"/>
<text text-anchor="start" x="470" y="-463.5" font-family="Helvetica,sans-Serif" font-size="10.00">/home/runner/work/cbmc</text>
<text text-anchor="start" x="470" y="-452.5" font-family="Helvetica,sans-Serif" font-size="10.00">&#45;documentation/cbmc&#45;documentation</text>
<text text-anchor="middle" x="562" y="-441.5" font-family="Helvetica,sans-Serif" font-size="10.00">/src/goto&#45;symex/frame.h</text>
</a>
</g>
</g>
<!-- Node2&#45;&gt;Node3 -->
<g id="edge2" class="edge">
<title>Node2&#45;&gt;Node3</title>
<path fill="none" stroke="midnightblue" d="M576.1,-502.59C573.35,-493.51 570.4,-483.74 567.9,-475.51"/>
<polygon fill="midnightblue" stroke="midnightblue" points="572.83,-503.87 579.08,-512.43 579.53,-501.84 572.83,-503.87"/>
</g>
<!-- Node2&#45;&gt;Node5 -->
<g id="edge36" class="edge">
<title>Node2&#45;&gt;Node5</title>
<path fill="none" stroke="midnightblue" d="M639.23,-507.09C651.57,-498.91 663.3,-488.6 671,-476 702.41,-424.65 697.66,-349.54 693.13,-314.23"/>
<polygon fill="midnightblue" stroke="midnightblue" points="637.28,-504.17 630.63,-512.42 640.97,-510.13 637.28,-504.17"/>
</g>
<!-- Node62 -->
<g id="node27" class="node">
<title>Node62</title>
<g id="a_node27"><a xlink:href="goto__state_8cpp.html" target="_top" xlink:title=" ">
<polygon fill="none" stroke="black" points="0,-184 0,-225 200,-225 200,-184 0,-184"/>
<text text-anchor="start" x="8" y="-213" font-family="Helvetica,sans-Serif" font-size="10.00">/home/runner/work/cbmc</text>
<text text-anchor="start" x="8" y="-202" font-family="Helvetica,sans-Serif" font-size="10.00">&#45;documentation/cbmc&#45;documentation</text>
<text text-anchor="middle" x="100" y="-191" font-family="Helvetica,sans-Serif" font-size="10.00">/src/goto&#45;symex/goto_state.cpp</text>
</a>
</g>
</g>
<!-- Node2&#45;&gt;Node62 -->
<g id="edge37" class="edge">
<title>Node2&#45;&gt;Node62</title>
<path fill="none" stroke="midnightblue" d="M521.19,-508.73C499.01,-499.66 474.36,-488.45 453,-476 317.57,-397.1 174.96,-273.24 121.71,-225.34"/>
<polygon fill="midnightblue" stroke="midnightblue" points="519.94,-512 530.53,-512.48 522.55,-505.51 519.94,-512"/>
</g>
<!-- Node4 -->
<g id="node4" class="node">
<title>Node4</title>
<g id="a_node4"><a xlink:href="call__stack_8h.html" target="_top" xlink:title=" ">
<polygon fill="none" stroke="black" points="462,-356.5 462,-397.5 662,-397.5 662,-356.5 462,-356.5"/>
<text text-anchor="start" x="470" y="-385.5" font-family="Helvetica,sans-Serif" font-size="10.00">/home/runner/work/cbmc</text>
<text text-anchor="start" x="470" y="-374.5" font-family="Helvetica,sans-Serif" font-size="10.00">&#45;documentation/cbmc&#45;documentation</text>
<text text-anchor="middle" x="562" y="-363.5" font-family="Helvetica,sans-Serif" font-size="10.00">/src/goto&#45;symex/call_stack.h</text>
</a>
</g>
</g>
<!-- Node3&#45;&gt;Node4 -->
<g id="edge3" class="edge">
<title>Node3&#45;&gt;Node4</title>
<path fill="none" stroke="midnightblue" d="M562,-424.3C562,-415.3 562,-405.65 562,-397.51"/>
<polygon fill="midnightblue" stroke="midnightblue" points="558.5,-424.43 562,-434.43 565.5,-424.43 558.5,-424.43"/>
</g>
<!-- Node4&#45;&gt;Node5 -->
<g id="edge4" class="edge">
<title>Node4&#45;&gt;Node5</title>
<path fill="none" stroke="midnightblue" d="M601.22,-351.03C619.83,-339.18 641.75,-325.22 659.15,-314.14"/>
<polygon fill="midnightblue" stroke="midnightblue" points="599.21,-348.16 592.66,-356.48 602.97,-354.06 599.21,-348.16"/>
</g>
<!-- Node66 -->
<g id="node31" class="node">
<title>Node66</title>
<g id="a_node31"><a xlink:href="java__enum__static__init__unwind__handler_8cpp.html" target="_top" xlink:title=" ">
<polygon fill="none" stroke="black" points="366.5,-267.5 366.5,-319.5 571.5,-319.5 571.5,-267.5 366.5,-267.5"/>
<text text-anchor="start" x="374.5" y="-307.5" font-family="Helvetica,sans-Serif" font-size="10.00">/home/runner/work/cbmc</text>
<text text-anchor="start" x="374.5" y="-296.5" font-family="Helvetica,sans-Serif" font-size="10.00">&#45;documentation/cbmc&#45;documentation</text>
<text text-anchor="start" x="374.5" y="-285.5" font-family="Helvetica,sans-Serif" font-size="10.00">/jbmc/src/java_bytecode/java</text>
<text text-anchor="middle" x="469" y="-274.5" font-family="Helvetica,sans-Serif" font-size="10.00">_enum_static_init_unwind_handler.cpp</text>
</a>
</g>
</g>
<!-- Node4&#45;&gt;Node66 -->
<g id="edge35" class="edge">
<title>Node4&#45;&gt;Node66</title>
<path fill="none" stroke="midnightblue" d="M531.79,-349.52C520.82,-339.92 508.48,-329.09 497.65,-319.61"/>
<polygon fill="midnightblue" stroke="midnightblue" points="529.66,-352.31 539.49,-356.27 534.27,-347.05 529.66,-352.31"/>
</g>
<!-- Node6 -->
<g id="node6" class="node">
<title>Node6</title>
<g id="a_node6"><a xlink:href="path__storage_8h.html" target="_top" xlink:title="Storage of symbolic execution paths to resume.">
<polygon fill="none" stroke="black" points="1612,-184 1612,-225 1812,-225 1812,-184 1612,-184"/>
<text text-anchor="start" x="1620" y="-213" font-family="Helvetica,sans-Serif" font-size="10.00">/home/runner/work/cbmc</text>
<text text-anchor="start" x="1620" y="-202" font-family="Helvetica,sans-Serif" font-size="10.00">&#45;documentation/cbmc&#45;documentation</text>
<text text-anchor="middle" x="1712" y="-191" font-family="Helvetica,sans-Serif" font-size="10.00">/src/goto&#45;symex/path_storage.h</text>
</a>
</g>
</g>
<!-- Node5&#45;&gt;Node6 -->
<g id="edge5" class="edge">
<title>Node5&#45;&gt;Node6</title>
<path fill="none" stroke="midnightblue" d="M779.93,-271.05C788.04,-269.52 796.15,-268.14 804,-267 1095.43,-224.79 1443.78,-211.44 1611.71,-207.31"/>
<polygon fill="midnightblue" stroke="midnightblue" points="779.2,-267.63 770.06,-272.98 780.54,-274.5 779.2,-267.63"/>
</g>
<!-- Node41 -->
<g id="node23" class="node">
<title>Node41</title>
<g id="a_node23"><a xlink:href="symex__complexity__limit__exceeded__action_8h.html" target="_top" xlink:title=" ">
<polygon fill="none" stroke="black" points="920,-178.5 920,-230.5 1120,-230.5 1120,-178.5 920,-178.5"/>
<text text-anchor="start" x="928" y="-218.5" font-family="Helvetica,sans-Serif" font-size="10.00">/home/runner/work/cbmc</text>
<text text-anchor="start" x="928" y="-207.5" font-family="Helvetica,sans-Serif" font-size="10.00">&#45;documentation/cbmc&#45;documentation</text>
<text text-anchor="start" x="928" y="-196.5" font-family="Helvetica,sans-Serif" font-size="10.00">/src/goto&#45;symex/symex_complexity</text>
<text text-anchor="middle" x="1020" y="-185.5" font-family="Helvetica,sans-Serif" font-size="10.00">_limit_exceeded_action.h</text>
</a>
</g>
</g>
<!-- Node5&#45;&gt;Node41 -->
<g id="edge26" class="edge">
<title>Node5&#45;&gt;Node41</title>
<path fill="none" stroke="midnightblue" d="M773.73,-270.43C819.88,-258.26 877.35,-243.11 925.16,-230.5"/>
<polygon fill="midnightblue" stroke="midnightblue" points="772.84,-267.04 764.06,-272.98 774.62,-273.81 772.84,-267.04"/>
</g>
<!-- Node60 -->
<g id="node25" class="node">
<title>Node60</title>
<g id="a_node25"><a xlink:href="complexity__limiter_8cpp.html" target="_top" xlink:title=" ">
<polygon fill="none" stroke="black" points="195,-6 195,-47 405,-47 405,-6 195,-6"/>
<text text-anchor="start" x="203" y="-35" font-family="Helvetica,sans-Serif" font-size="10.00">/home/runner/work/cbmc</text>
<text text-anchor="start" x="203" y="-24" font-family="Helvetica,sans-Serif" font-size="10.00">&#45;documentation/cbmc&#45;documentation</text>
<text text-anchor="middle" x="300" y="-13" font-family="Helvetica,sans-Serif" font-size="10.00">/src/goto&#45;symex/complexity_limiter.cpp</text>
</a>
</g>
</g>
<!-- Node5&#45;&gt;Node60 -->
<g id="edge29" class="edge">
<title>Node5&#45;&gt;Node60</title>
<path fill="none" stroke="midnightblue" d="M600.69,-270.85C593.71,-269.45 586.75,-268.14 580,-267 506.61,-254.57 296.72,-286.39 247,-231 204.84,-184.04 225.02,-148.16 247,-89 252.99,-72.88 265.31,-58.16 276.56,-47.16"/>
<polygon fill="midnightblue" stroke="midnightblue" points="600.42,-274.37 610.92,-272.97 601.84,-267.52 600.42,-274.37"/>
</g>
<!-- Node61 -->
<g id="node26" class="node">
<title>Node61</title>
<g id="a_node26"><a xlink:href="field__sensitivity_8cpp.html" target="_top" xlink:title=" ">
<polygon fill="none" stroke="black" points="256,-184 256,-225 456,-225 456,-184 256,-184"/>
<text text-anchor="start" x="264" y="-213" font-family="Helvetica,sans-Serif" font-size="10.00">/home/runner/work/cbmc</text>
<text text-anchor="start" x="264" y="-202" font-family="Helvetica,sans-Serif" font-size="10.00">&#45;documentation/cbmc&#45;documentation</text>
<text text-anchor="middle" x="356" y="-191" font-family="Helvetica,sans-Serif" font-size="10.00">/src/goto&#45;symex/field_sensitivity.cpp</text>
</a>
</g>
</g>
<!-- Node5&#45;&gt;Node61 -->
<g id="edge30" class="edge">
<title>Node5&#45;&gt;Node61</title>
<path fill="none" stroke="midnightblue" d="M605.2,-270.41C551.5,-256.42 482.7,-238.5 430.99,-225.03"/>
<polygon fill="midnightblue" stroke="midnightblue" points="604.48,-273.84 615.04,-272.98 606.25,-267.07 604.48,-273.84"/>
</g>
<!-- Node5&#45;&gt;Node62 -->
<g id="edge31" class="edge">
<title>Node5&#45;&gt;Node62</title>
<path fill="none" stroke="midnightblue" d="M601.4,-270.92C594.18,-269.48 586.98,-268.15 580,-267 418.71,-240.49 375.39,-256.89 214,-231 203.49,-229.31 192.49,-227.25 181.65,-225.03"/>
<polygon fill="midnightblue" stroke="midnightblue" points="600.73,-274.35 611.23,-272.94 602.14,-267.5 600.73,-274.35"/>
</g>
<!-- Node63 -->
<g id="node28" class="node">
<title>Node63</title>
<g id="a_node28"><a xlink:href="goto__symex__state_8cpp.html" target="_top" xlink:title=" ">
<polygon fill="none" stroke="black" points="474.5,-184 474.5,-225 683.5,-225 683.5,-184 474.5,-184"/>
<text text-anchor="start" x="482.5" y="-213" font-family="Helvetica,sans-Serif" font-size="10.00">/home/runner/work/cbmc</text>
<text text-anchor="start" x="482.5" y="-202" font-family="Helvetica,sans-Serif" font-size="10.00">&#45;documentation/cbmc&#45;documentation</text>
<text text-anchor="middle" x="579" y="-191" font-family="Helvetica,sans-Serif" font-size="10.00">/src/goto&#45;symex/goto_symex_state.cpp</text>
</a>
</g>
</g>
<!-- Node5&#45;&gt;Node63 -->
<g id="edge32" class="edge">
<title>Node5&#45;&gt;Node63</title>
<path fill="none" stroke="midnightblue" d="M657.09,-266.71C640.17,-253.44 619.87,-237.53 604.21,-225.26"/>
<polygon fill="midnightblue" stroke="midnightblue" points="655.06,-269.56 665.09,-272.98 659.38,-264.05 655.06,-269.56"/>
</g>
<!-- Node5&#45;&gt;Node64 -->
<g id="edge33" class="edge">
<title>Node5&#45;&gt;Node64</title>
<path fill="none" stroke="midnightblue" d="M778.51,-271.03C787.09,-269.46 795.69,-268.07 804,-267 1252.6,-209.39 1372.69,-290.8 1821,-231 1832.08,-229.52 1843.68,-227.42 1855.01,-225.05"/>
<polygon fill="midnightblue" stroke="midnightblue" points="777.63,-267.64 768.47,-272.96 778.95,-274.51 777.63,-267.64"/>
</g>
<!-- Node65 -->
<g id="node30" class="node">
<title>Node65</title>
<g id="a_node30"><a xlink:href="symex__assign_8cpp.html" target="_top" xlink:title=" ">
<polygon fill="none" stroke="black" points="702,-184 702,-225 902,-225 902,-184 702,-184"/>
<text text-anchor="start" x="710" y="-213" font-family="Helvetica,sans-Serif" font-size="10.00">/home/runner/work/cbmc</text>
<text text-anchor="start" x="710" y="-202" font-family="Helvetica,sans-Serif" font-size="10.00">&#45;documentation/cbmc&#45;documentation</text>
<text text-anchor="middle" x="802" y="-191" font-family="Helvetica,sans-Serif" font-size="10.00">/src/goto&#45;symex/symex_assign.cpp</text>
</a>
</g>
</g>
<!-- Node5&#45;&gt;Node65 -->
<g id="edge34" class="edge">
<title>Node5&#45;&gt;Node65</title>
<path fill="none" stroke="midnightblue" d="M723.21,-266.71C740.28,-253.44 760.76,-237.53 776.56,-225.26"/>
<polygon fill="midnightblue" stroke="midnightblue" points="720.89,-264.08 715.13,-272.98 725.18,-269.61 720.89,-264.08"/>
</g>
<!-- Node7 -->
<g id="node7" class="node">
<title>Node7</title>
<g id="a_node7"><a xlink:href="multi__path__symex__only__checker_8h.html" target="_top" xlink:title=" ">
<polygon fill="none" stroke="red" points="3417,-89.5 3417,-141.5 3617,-141.5 3617,-89.5 3417,-89.5"/>
<text text-anchor="start" x="3425" y="-129.5" font-family="Helvetica,sans-Serif" font-size="10.00">/home/runner/work/cbmc</text>
<text text-anchor="start" x="3425" y="-118.5" font-family="Helvetica,sans-Serif" font-size="10.00">&#45;documentation/cbmc&#45;documentation</text>
<text text-anchor="start" x="3425" y="-107.5" font-family="Helvetica,sans-Serif" font-size="10.00">/src/goto&#45;checker/multi_path</text>
<text text-anchor="middle" x="3517" y="-96.5" font-family="Helvetica,sans-Serif" font-size="10.00">_symex_only_checker.h</text>
</a>
</g>
</g>
<!-- Node6&#45;&gt;Node7 -->
<g id="edge6" class="edge">
<title>Node6&#45;&gt;Node7</title>
<path fill="none" stroke="midnightblue" d="M1796.43,-181.94C1804.69,-180.38 1812.98,-179.02 1821,-178 2520.9,-89.17 2708.1,-230.83 3408,-142 3410.89,-141.63 3413.82,-141.22 3416.77,-140.77"/>
<polygon fill="midnightblue" stroke="midnightblue" points="1795.51,-178.56 1786.39,-183.94 1796.88,-185.42 1795.51,-178.56"/>
</g>
<!-- Node9 -->
<g id="node8" class="node">
<title>Node9</title>
<g id="a_node8"><a xlink:href="cbmc__parse__options_8cpp.html" target="_top" xlink:title=" ">
<polygon fill="none" stroke="black" points="3308,-6 3308,-47 3508,-47 3508,-6 3308,-6"/>
<text text-anchor="start" x="3316" y="-35" font-family="Helvetica,sans-Serif" font-size="10.00">/home/runner/work/cbmc</text>
<text text-anchor="start" x="3316" y="-24" font-family="Helvetica,sans-Serif" font-size="10.00">&#45;documentation/cbmc&#45;documentation</text>
<text text-anchor="middle" x="3408" y="-13" font-family="Helvetica,sans-Serif" font-size="10.00">/src/cbmc/cbmc_parse_options.cpp</text>
</a>
</g>
</g>
<!-- Node6&#45;&gt;Node9 -->
<g id="edge13" class="edge">
<title>Node6&#45;&gt;Node9</title>
<path fill="none" stroke="midnightblue" d="M1795.94,-182.01C1804.36,-180.41 1812.82,-179.03 1821,-178 1870.76,-171.75 3590.89,-177.81 3626,-142 3642.49,-125.18 3640.22,-107.78 3626,-89 3611.08,-69.29 3558.21,-54.1 3508.29,-43.75"/>
<polygon fill="midnightblue" stroke="midnightblue" points="1795.21,-178.59 1786.09,-183.98 1796.58,-185.45 1795.21,-178.59"/>
</g>
<!-- Node16 -->
<g id="node9" class="node">
<title>Node16</title>
<g id="a_node9"><a xlink:href="single__loop__incremental__symex__checker_8h.html" target="_top" xlink:title=" ">
<polygon fill="none" stroke="red" points="3199,-89.5 3199,-141.5 3399,-141.5 3399,-89.5 3199,-89.5"/>
<text text-anchor="start" x="3207" y="-129.5" font-family="Helvetica,sans-Serif" font-size="10.00">/home/runner/work/cbmc</text>
<text text-anchor="start" x="3207" y="-118.5" font-family="Helvetica,sans-Serif" font-size="10.00">&#45;documentation/cbmc&#45;documentation</text>
<text text-anchor="start" x="3207" y="-107.5" font-family="Helvetica,sans-Serif" font-size="10.00">/src/goto&#45;checker/single_loop</text>
<text text-anchor="middle" x="3299" y="-96.5" font-family="Helvetica,sans-Serif" font-size="10.00">_incremental_symex_checker.h</text>
</a>
</g>
</g>
<!-- Node6&#45;&gt;Node16 -->
<g id="edge8" class="edge">
<title>Node6&#45;&gt;Node16</title>
<path fill="none" stroke="midnightblue" d="M1796.43,-181.97C1804.69,-180.4 1812.98,-179.03 1821,-178 2424.67,-100.27 2586.33,-219.73 3190,-142 3192.89,-141.63 3195.82,-141.21 3198.77,-140.76"/>
<polygon fill="midnightblue" stroke="midnightblue" points="1795.51,-178.59 1786.39,-183.98 1796.88,-185.45 1795.51,-178.59"/>
</g>
<!-- Node18 -->
<g id="node10" class="node">
<title>Node18</title>
<g id="a_node10"><a xlink:href="single__path__symex__only__checker_8h.html" target="_top" xlink:title=" ">
<polygon fill="none" stroke="red" points="512,-89.5 512,-141.5 712,-141.5 712,-89.5 512,-89.5"/>
<text text-anchor="start" x="520" y="-129.5" font-family="Helvetica,sans-Serif" font-size="10.00">/home/runner/work/cbmc</text>
<text text-anchor="start" x="520" y="-118.5" font-family="Helvetica,sans-Serif" font-size="10.00">&#45;documentation/cbmc&#45;documentation</text>
<text text-anchor="start" x="520" y="-107.5" font-family="Helvetica,sans-Serif" font-size="10.00">/src/goto&#45;checker/single_path</text>
<text text-anchor="middle" x="612" y="-96.5" font-family="Helvetica,sans-Serif" font-size="10.00">_symex_only_checker.h</text>
</a>
</g>
</g>
<!-- Node6&#45;&gt;Node18 -->
<g id="edge10" class="edge">
<title>Node6&#45;&gt;Node18</title>
<path fill="none" stroke="midnightblue" d="M1601.71,-198.99C1380.19,-189.56 888.13,-166.56 721,-142 718.12,-141.58 715.2,-141.11 712.25,-140.62"/>
<polygon fill="midnightblue" stroke="midnightblue" points="1601.59,-202.49 1611.73,-199.42 1601.89,-195.5 1601.59,-202.49"/>
</g>
<!-- Node23 -->
<g id="node11" class="node">
<title>Node23</title>
<g id="a_node11"><a xlink:href="single__path__symex__only__checker_8cpp.html" target="_top" xlink:title=" ">
<polygon fill="none" stroke="black" points="439,-0.5 439,-52.5 639,-52.5 639,-0.5 439,-0.5"/>
<text text-anchor="start" x="447" y="-40.5" font-family="Helvetica,sans-Serif" font-size="10.00">/home/runner/work/cbmc</text>
<text text-anchor="start" x="447" y="-29.5" font-family="Helvetica,sans-Serif" font-size="10.00">&#45;documentation/cbmc&#45;documentation</text>
<text text-anchor="start" x="447" y="-18.5" font-family="Helvetica,sans-Serif" font-size="10.00">/src/goto&#45;checker/single_path</text>
<text text-anchor="middle" x="539" y="-7.5" font-family="Helvetica,sans-Serif" font-size="10.00">_symex_only_checker.cpp</text>
</a>
</g>
</g>
<!-- Node6&#45;&gt;Node23 -->
<g id="edge14" class="edge">
<title>Node6&#45;&gt;Node23</title>
<path fill="none" stroke="midnightblue" d="M1601.6,-198.38C1304.09,-184.51 507.71,-146.95 503,-142 479.74,-117.53 500.34,-78.18 518.6,-52.58"/>
<polygon fill="midnightblue" stroke="midnightblue" points="1601.81,-201.89 1611.97,-198.86 1602.14,-194.9 1601.81,-201.89"/>
</g>
<!-- Node25 -->
<g id="node12" class="node">
<title>Node25</title>
<g id="a_node12"><a xlink:href="scratch__program_8h.html" target="_top" xlink:title=" ">
<polygon fill="none" stroke="red" points="730,-89.5 730,-141.5 930,-141.5 930,-89.5 730,-89.5"/>
<text text-anchor="start" x="738" y="-129.5" font-family="Helvetica,sans-Serif" font-size="10.00">/home/runner/work/cbmc</text>
<text text-anchor="start" x="738" y="-118.5" font-family="Helvetica,sans-Serif" font-size="10.00">&#45;documentation/cbmc&#45;documentation</text>
<text text-anchor="start" x="738" y="-107.5" font-family="Helvetica,sans-Serif" font-size="10.00">/src/goto&#45;instrument/accelerate</text>
<text text-anchor="middle" x="830" y="-96.5" font-family="Helvetica,sans-Serif" font-size="10.00">/scratch_program.h</text>
</a>
</g>
</g>
<!-- Node6&#45;&gt;Node25 -->
<g id="edge15" class="edge">
<title>Node6&#45;&gt;Node25</title>
<path fill="none" stroke="midnightblue" d="M1601.82,-199.95C1451.32,-193.91 1173.38,-178.53 939,-142 936.12,-141.55 933.2,-141.07 930.26,-140.55"/>
<polygon fill="midnightblue" stroke="midnightblue" points="1601.86,-203.45 1611.99,-200.35 1602.14,-196.46 1601.86,-203.45"/>
</g>
<!-- Node32 -->
<g id="node13" class="node">
<title>Node32</title>
<g id="a_node13"><a xlink:href="path__storage_8cpp.html" target="_top" xlink:title=" ">
<polygon fill="none" stroke="black" points="948,-95 948,-136 1148,-136 1148,-95 948,-95"/>
<text text-anchor="start" x="956" y="-124" font-family="Helvetica,sans-Serif" font-size="10.00">/home/runner/work/cbmc</text>
<text text-anchor="start" x="956" y="-113" font-family="Helvetica,sans-Serif" font-size="10.00">&#45;documentation/cbmc&#45;documentation</text>
<text text-anchor="middle" x="1048" y="-102" font-family="Helvetica,sans-Serif" font-size="10.00">/src/goto&#45;symex/path_storage.cpp</text>
</a>
</g>
</g>
<!-- Node6&#45;&gt;Node32 -->
<g id="edge16" class="edge">
<title>Node6&#45;&gt;Node32</title>
<path fill="none" stroke="midnightblue" d="M1602,-195.21C1489.63,-185.83 1310.38,-168.34 1157,-142 1147.04,-140.29 1136.63,-138.22 1126.36,-136.01"/>
<polygon fill="midnightblue" stroke="midnightblue" points="1601.74,-198.7 1611.99,-196.04 1602.31,-191.72 1601.74,-198.7"/>
</g>
<!-- Node33 -->
<g id="node14" class="node">
<title>Node33</title>
<g id="a_node14"><a xlink:href="symex__builtin__functions_8cpp.html" target="_top" xlink:title=" ">
<polygon fill="none" stroke="black" points="1166,-89.5 1166,-141.5 1366,-141.5 1366,-89.5 1166,-89.5"/>
<text text-anchor="start" x="1174" y="-129.5" font-family="Helvetica,sans-Serif" font-size="10.00">/home/runner/work/cbmc</text>
<text text-anchor="start" x="1174" y="-118.5" font-family="Helvetica,sans-Serif" font-size="10.00">&#45;documentation/cbmc&#45;documentation</text>
<text text-anchor="start" x="1174" y="-107.5" font-family="Helvetica,sans-Serif" font-size="10.00">/src/goto&#45;symex/symex_builtin</text>
<text text-anchor="middle" x="1266" y="-96.5" font-family="Helvetica,sans-Serif" font-size="10.00">_functions.cpp</text>
</a>
</g>
</g>
<!-- Node6&#45;&gt;Node33 -->
<g id="edge17" class="edge">
<title>Node6&#45;&gt;Node33</title>
<path fill="none" stroke="midnightblue" d="M1601.82,-184.67C1536.11,-173.11 1451.12,-157.57 1376,-142 1372.74,-141.32 1369.42,-140.62 1366.08,-139.91"/>
<polygon fill="midnightblue" stroke="midnightblue" points="1601.33,-188.14 1611.79,-186.42 1602.54,-181.24 1601.33,-188.14"/>
</g>
<!-- Node34 -->
<g id="node15" class="node">
<title>Node34</title>
<g id="a_node15"><a xlink:href="symex__clean__expr_8cpp.html" target="_top" xlink:title=" ">
<polygon fill="none" stroke="black" points="1384.5,-95 1384.5,-136 1593.5,-136 1593.5,-95 1384.5,-95"/>
<text text-anchor="start" x="1392.5" y="-124" font-family="Helvetica,sans-Serif" font-size="10.00">/home/runner/work/cbmc</text>
<text text-anchor="start" x="1392.5" y="-113" font-family="Helvetica,sans-Serif" font-size="10.00">&#45;documentation/cbmc&#45;documentation</text>
<text text-anchor="middle" x="1489" y="-102" font-family="Helvetica,sans-Serif" font-size="10.00">/src/goto&#45;symex/symex_clean_expr.cpp</text>
</a>
</g>
</g>
<!-- Node6&#45;&gt;Node34 -->
<g id="edge18" class="edge">
<title>Node6&#45;&gt;Node34</title>
<path fill="none" stroke="midnightblue" d="M1652.25,-180.19C1616.95,-166.42 1572.76,-149.18 1539.26,-136.11"/>
<polygon fill="midnightblue" stroke="midnightblue" points="1651.37,-183.6 1661.95,-183.98 1653.91,-177.08 1651.37,-183.6"/>
</g>
<!-- Node35 -->
<g id="node16" class="node">
<title>Node35</title>
<g id="a_node16"><a xlink:href="symex__decl_8cpp.html" target="_top" xlink:title=" ">
<polygon fill="none" stroke="black" points="1612,-95 1612,-136 1812,-136 1812,-95 1612,-95"/>
<text text-anchor="start" x="1620" y="-124" font-family="Helvetica,sans-Serif" font-size="10.00">/home/runner/work/cbmc</text>
<text text-anchor="start" x="1620" y="-113" font-family="Helvetica,sans-Serif" font-size="10.00">&#45;documentation/cbmc&#45;documentation</text>
<text text-anchor="middle" x="1712" y="-102" font-family="Helvetica,sans-Serif" font-size="10.00">/src/goto&#45;symex/symex_decl.cpp</text>
</a>
</g>
</g>
<!-- Node6&#45;&gt;Node35 -->
<g id="edge19" class="edge">
<title>Node6&#45;&gt;Node35</title>
<path fill="none" stroke="midnightblue" d="M1712,-173.44C1712,-161.1 1712,-147.16 1712,-136.16"/>
<polygon fill="midnightblue" stroke="midnightblue" points="1708.5,-173.76 1712,-183.76 1715.5,-173.76 1708.5,-173.76"/>
</g>
<!-- Node36 -->
<g id="node17" class="node">
<title>Node36</title>
<g id="a_node17"><a xlink:href="symex__dereference_8cpp.html" target="_top" xlink:title=" ">
<polygon fill="none" stroke="black" points="1830.5,-95 1830.5,-136 2045.5,-136 2045.5,-95 1830.5,-95"/>
<text text-anchor="start" x="1838.5" y="-124" font-family="Helvetica,sans-Serif" font-size="10.00">/home/runner/work/cbmc</text>
<text text-anchor="start" x="1838.5" y="-113" font-family="Helvetica,sans-Serif" font-size="10.00">&#45;documentation/cbmc&#45;documentation</text>
<text text-anchor="middle" x="1938" y="-102" font-family="Helvetica,sans-Serif" font-size="10.00">/src/goto&#45;symex/symex_dereference.cpp</text>
</a>
</g>
</g>
<!-- Node6&#45;&gt;Node36 -->
<g id="edge20" class="edge">
<title>Node6&#45;&gt;Node36</title>
<path fill="none" stroke="midnightblue" d="M1772.09,-180.37C1807.94,-166.57 1852.96,-149.23 1887.06,-136.11"/>
<polygon fill="midnightblue" stroke="midnightblue" points="1770.79,-177.12 1762.72,-183.98 1773.31,-183.65 1770.79,-177.12"/>
</g>
<!-- Node37 -->
<g id="node18" class="node">
<title>Node37</title>
<g id="a_node18"><a xlink:href="symex__function__call_8cpp.html" target="_top" xlink:title=" ">
<polygon fill="none" stroke="black" points="2063.5,-95 2063.5,-136 2282.5,-136 2282.5,-95 2063.5,-95"/>
<text text-anchor="start" x="2071.5" y="-124" font-family="Helvetica,sans-Serif" font-size="10.00">/home/runner/work/cbmc</text>
<text text-anchor="start" x="2071.5" y="-113" font-family="Helvetica,sans-Serif" font-size="10.00">&#45;documentation/cbmc&#45;documentation</text>
<text text-anchor="middle" x="2173" y="-102" font-family="Helvetica,sans-Serif" font-size="10.00">/src/goto&#45;symex/symex_function_call.cpp</text>
</a>
</g>
</g>
<!-- Node6&#45;&gt;Node37 -->
<g id="edge21" class="edge">
<title>Node6&#45;&gt;Node37</title>
<path fill="none" stroke="midnightblue" d="M1802.2,-181.83C1808.55,-180.48 1814.86,-179.19 1821,-178 1924.31,-158 1951.53,-161.12 2055,-142 2064.89,-140.17 2075.22,-138.13 2085.48,-136.03"/>
<polygon fill="midnightblue" stroke="midnightblue" points="1801.24,-178.46 1792.21,-184 1802.72,-185.3 1801.24,-178.46"/>
</g>
<!-- Node38 -->
<g id="node19" class="node">
<title>Node38</title>
<g id="a_node19"><a xlink:href="symex__goto_8cpp.html" target="_top" xlink:title=" ">
<polygon fill="none" stroke="black" points="2301,-95 2301,-136 2501,-136 2501,-95 2301,-95"/>
<text text-anchor="start" x="2309" y="-124" font-family="Helvetica,sans-Serif" font-size="10.00">/home/runner/work/cbmc</text>
<text text-anchor="start" x="2309" y="-113" font-family="Helvetica,sans-Serif" font-size="10.00">&#45;documentation/cbmc&#45;documentation</text>
<text text-anchor="middle" x="2401" y="-102" font-family="Helvetica,sans-Serif" font-size="10.00">/src/goto&#45;symex/symex_goto.cpp</text>
</a>
</g>
</g>
<!-- Node6&#45;&gt;Node38 -->
<g id="edge22" class="edge">
<title>Node6&#45;&gt;Node38</title>
<path fill="none" stroke="midnightblue" d="M1798.69,-181.96C1806.21,-180.47 1813.72,-179.12 1821,-178 2028.49,-145.99 2084.51,-174.01 2292,-142 2302.47,-140.39 2313.42,-138.3 2324.17,-136.02"/>
<polygon fill="midnightblue" stroke="midnightblue" points="1797.92,-178.54 1788.83,-183.98 1799.33,-185.4 1797.92,-178.54"/>
</g>
<!-- Node39 -->
<g id="node20" class="node">
<title>Node39</title>
<g id="a_node20"><a xlink:href="symex__main_8cpp.html" target="_top" xlink:title=" ">
<polygon fill="none" stroke="black" points="2519,-95 2519,-136 2719,-136 2719,-95 2519,-95"/>
<text text-anchor="start" x="2527" y="-124" font-family="Helvetica,sans-Serif" font-size="10.00">/home/runner/work/cbmc</text>
<text text-anchor="start" x="2527" y="-113" font-family="Helvetica,sans-Serif" font-size="10.00">&#45;documentation/cbmc&#45;documentation</text>
<text text-anchor="middle" x="2619" y="-102" font-family="Helvetica,sans-Serif" font-size="10.00">/src/goto&#45;symex/symex_main.cpp</text>
</a>
</g>
</g>
<!-- Node6&#45;&gt;Node39 -->
<g id="edge23" class="edge">
<title>Node6&#45;&gt;Node39</title>
<path fill="none" stroke="midnightblue" d="M1797.57,-181.97C1805.46,-180.45 1813.36,-179.09 1821,-178 2124.6,-134.9 2206.4,-185.1 2510,-142 2520.87,-140.46 2532.25,-138.35 2543.39,-136.01"/>
<polygon fill="midnightblue" stroke="midnightblue" points="1796.72,-178.58 1787.61,-183.99 1798.1,-185.44 1796.72,-178.58"/>
</g>
<!-- Node40 -->
<g id="node21" class="node">
<title>Node40</title>
<g id="a_node21"><a xlink:href="symex__start__thread_8cpp.html" target="_top" xlink:title=" ">
<polygon fill="none" stroke="black" points="2737,-95 2737,-136 2953,-136 2953,-95 2737,-95"/>
<text text-anchor="start" x="2745" y="-124" font-family="Helvetica,sans-Serif" font-size="10.00">/home/runner/work/cbmc</text>
<text text-anchor="start" x="2745" y="-113" font-family="Helvetica,sans-Serif" font-size="10.00">&#45;documentation/cbmc&#45;documentation</text>
<text text-anchor="middle" x="2845" y="-102" font-family="Helvetica,sans-Serif" font-size="10.00">/src/goto&#45;symex/symex_start_thread.cpp</text>
</a>
</g>
</g>
<!-- Node6&#45;&gt;Node40 -->
<g id="edge24" class="edge">
<title>Node6&#45;&gt;Node40</title>
<path fill="none" stroke="midnightblue" d="M1796.87,-182C1804.99,-180.44 1813.13,-179.07 1821,-178 2220.77,-123.81 2327.83,-193.15 2728,-142 2739.75,-140.5 2752.07,-138.4 2764.13,-136.05"/>
<polygon fill="midnightblue" stroke="midnightblue" points="1796.11,-178.59 1787,-183.99 1797.49,-185.45 1796.11,-178.59"/>
</g>
<!-- Node13 -->
<g id="node22" class="node">
<title>Node13</title>
<g id="a_node22"><a xlink:href="jbmc__parse__options_8cpp.html" target="_top" xlink:title=" ">
<polygon fill="none" stroke="black" points="2971.5,-95 2971.5,-136 3180.5,-136 3180.5,-95 2971.5,-95"/>
<text text-anchor="start" x="2979.5" y="-124" font-family="Helvetica,sans-Serif" font-size="10.00">/home/runner/work/cbmc</text>
<text text-anchor="start" x="2979.5" y="-113" font-family="Helvetica,sans-Serif" font-size="10.00">&#45;documentation/cbmc&#45;documentation</text>
<text text-anchor="middle" x="3076" y="-102" font-family="Helvetica,sans-Serif" font-size="10.00">/jbmc/src/jbmc/jbmc_parse_options.cpp</text>
</a>
</g>
</g>
<!-- Node6&#45;&gt;Node13 -->
<g id="edge25" class="edge">
<title>Node6&#45;&gt;Node13</title>
<path fill="none" stroke="midnightblue" d="M1796.65,-181.98C1804.84,-180.41 1813.05,-179.04 1821,-178 2324.04,-111.89 2458.65,-205.66 2962,-142 2973.67,-140.52 2985.9,-138.41 2997.85,-136.02"/>
<polygon fill="midnightblue" stroke="midnightblue" points="1795.81,-178.57 1786.69,-183.97 1797.19,-185.44 1795.81,-178.57"/>
</g>
<!-- Node7&#45;&gt;Node9 -->
<g id="edge7" class="edge">
<title>Node7&#45;&gt;Node9</title>
<path fill="none" stroke="midnightblue" d="M3477.34,-82.85C3462.35,-70.88 3445.74,-57.62 3432.53,-47.08"/>
<polygon fill="midnightblue" stroke="midnightblue" points="3475.47,-85.83 3485.47,-89.34 3479.84,-80.36 3475.47,-85.83"/>
</g>
<!-- Node16&#45;&gt;Node9 -->
<g id="edge9" class="edge">
<title>Node16&#45;&gt;Node9</title>
<path fill="none" stroke="midnightblue" d="M3338.66,-82.85C3353.65,-70.88 3370.26,-57.62 3383.47,-47.08"/>
<polygon fill="midnightblue" stroke="midnightblue" points="3336.16,-80.36 3330.53,-89.34 3340.53,-85.83 3336.16,-80.36"/>
</g>
<!-- Node18&#45;&gt;Node9 -->
<g id="edge11" class="edge">
<title>Node18&#45;&gt;Node9</title>
<path fill="none" stroke="midnightblue" d="M722.34,-88.97C1256.55,-23.65 2886.39,-25.43 3307.75,-27.02"/>
<polygon fill="midnightblue" stroke="midnightblue" points="721.72,-85.52 712.23,-90.23 722.59,-92.46 721.72,-85.52"/>
</g>
<!-- Node18&#45;&gt;Node23 -->
<g id="edge12" class="edge">
<title>Node18&#45;&gt;Node23</title>
<path fill="none" stroke="midnightblue" d="M584.31,-81.5C576.27,-71.92 567.63,-61.62 560.07,-52.61"/>
<polygon fill="midnightblue" stroke="midnightblue" points="581.78,-83.93 590.89,-89.34 587.14,-79.43 581.78,-83.93"/>
</g>
<!-- Node42 -->
<g id="node24" class="node">
<title>Node42</title>
<g id="a_node24"><a xlink:href="complexity__limiter_8h.html" target="_top" xlink:title=" ">
<polygon fill="none" stroke="red" points="256,-95 256,-136 456,-136 456,-95 256,-95"/>
<text text-anchor="start" x="264" y="-124" font-family="Helvetica,sans-Serif" font-size="10.00">/home/runner/work/cbmc</text>
<text text-anchor="start" x="264" y="-113" font-family="Helvetica,sans-Serif" font-size="10.00">&#45;documentation/cbmc&#45;documentation</text>
<text text-anchor="middle" x="356" y="-102" font-family="Helvetica,sans-Serif" font-size="10.00">/src/goto&#45;symex/complexity_limiter.h</text>
</a>
</g>
</g>
<!-- Node41&#45;&gt;Node42 -->
<g id="edge27" class="edge">
<title>Node41&#45;&gt;Node42</title>
<path fill="none" stroke="midnightblue" d="M909.75,-177.91C714.95,-148.3 661.19,-171.04 470,-142 459.17,-140.36 447.84,-138.27 436.7,-136"/>
<polygon fill="midnightblue" stroke="midnightblue" points="909.32,-181.38 919.74,-179.45 910.39,-174.47 909.32,-181.38"/>
</g>
<!-- Node42&#45;&gt;Node60 -->
<g id="edge28" class="edge">
<title>Node42&#45;&gt;Node60</title>
<path fill="none" stroke="midnightblue" d="M337.85,-86.3C329.62,-73.52 320.09,-58.72 312.66,-47.16"/>
<polygon fill="midnightblue" stroke="midnightblue" points="334.94,-88.24 343.29,-94.76 340.82,-84.46 334.94,-88.24"/>
</g>
</g>
</svg>
