<?xml version="1.0" encoding="UTF-8" standalone="no"?>
<!DOCTYPE svg PUBLIC "-//W3C//DTD SVG 1.1//EN"
 "http://www.w3.org/Graphics/SVG/1.1/DTD/svg11.dtd">
<!-- Generated by graphviz version 2.43.0 (0)
 -->
<!-- Title: /home/runner/work/cbmc&#45;documentation/cbmc&#45;documentation/src/util/replace_symbol.h Pages: 1 -->
<svg width="3009pt" height="228pt"
 viewBox="0.00 0.00 3008.50 228.00" xmlns="http://www.w3.org/2000/svg" xmlns:xlink="http://www.w3.org/1999/xlink">
<g id="graph0" class="graph" transform="scale(1 1) rotate(0) translate(4 224)">
<title>/home/runner/work/cbmc&#45;documentation/cbmc&#45;documentation/src/util/replace_symbol.h</title>
<!-- Node1 -->
<g id="node1" class="node">
<title>Node1</title>
<g id="a_node1"><a xlink:title=" ">
<polygon fill="#bfbfbf" stroke="black" points="1580.5,-178.5 1580.5,-219.5 1780.5,-219.5 1780.5,-178.5 1580.5,-178.5"/>
<text text-anchor="start" x="1588.5" y="-207.5" font-family="Helvetica,sans-Serif" font-size="10.00">/home/runner/work/cbmc</text>
<text text-anchor="start" x="1588.5" y="-196.5" font-family="Helvetica,sans-Serif" font-size="10.00">&#45;documentation/cbmc&#45;documentation</text>
<text text-anchor="middle" x="1680.5" y="-185.5" font-family="Helvetica,sans-Serif" font-size="10.00">/src/util/replace_symbol.h</text>
</a>
</g>
</g>
<!-- Node2 -->
<g id="node2" class="node">
<title>Node2</title>
<g id="a_node2"><a xlink:href="constant__propagator_8h.html" target="_top" xlink:title=" ">
<polygon fill="none" stroke="black" points="330.5,-95 330.5,-136 530.5,-136 530.5,-95 330.5,-95"/>
<text text-anchor="start" x="338.5" y="-124" font-family="Helvetica,sans-Serif" font-size="10.00">/home/runner/work/cbmc</text>
<text text-anchor="start" x="338.5" y="-113" font-family="Helvetica,sans-Serif" font-size="10.00">&#45;documentation/cbmc&#45;documentation</text>
<text text-anchor="middle" x="430.5" y="-102" font-family="Helvetica,sans-Serif" font-size="10.00">/src/analyses/constant_propagator.h</text>
</a>
</g>
</g>
<!-- Node1&#45;&gt;Node2 -->
<g id="edge1" class="edge">
<title>Node1&#45;&gt;Node2</title>
<path fill="none" stroke="midnightblue" d="M1570.07,-195.13C1323.88,-188.3 736.25,-169.61 539.5,-142 528.63,-140.47 517.24,-138.38 506.1,-136.04"/>
<polygon fill="midnightblue" stroke="midnightblue" points="1570.02,-198.63 1580.11,-195.4 1570.21,-191.63 1570.02,-198.63"/>
</g>
<!-- Node7 -->
<g id="node7" class="node">
<title>Node7</title>
<g id="a_node7"><a xlink:href="concurrency_8cpp.html" target="_top" xlink:title=" ">
<polygon fill="none" stroke="black" points="548.5,-95 548.5,-136 748.5,-136 748.5,-95 548.5,-95"/>
<text text-anchor="start" x="556.5" y="-124" font-family="Helvetica,sans-Serif" font-size="10.00">/home/runner/work/cbmc</text>
<text text-anchor="start" x="556.5" y="-113" font-family="Helvetica,sans-Serif" font-size="10.00">&#45;documentation/cbmc&#45;documentation</text>
<text text-anchor="middle" x="648.5" y="-102" font-family="Helvetica,sans-Serif" font-size="10.00">/src/goto&#45;instrument/concurrency.cpp</text>
</a>
</g>
</g>
<!-- Node1&#45;&gt;Node7 -->
<g id="edge6" class="edge">
<title>Node1&#45;&gt;Node7</title>
<path fill="none" stroke="midnightblue" d="M1570.05,-197.32C1396.26,-194.9 1048.74,-184.59 757.5,-142 746.83,-140.44 735.66,-138.36 724.71,-136.05"/>
<polygon fill="midnightblue" stroke="midnightblue" points="1570.18,-200.82 1580.22,-197.46 1570.27,-193.82 1570.18,-200.82"/>
</g>
<!-- Node8 -->
<g id="node8" class="node">
<title>Node8</title>
<g id="a_node8"><a xlink:href="dump__c_8cpp.html" target="_top" xlink:title=" ">
<polygon fill="none" stroke="black" points="766.5,-95 766.5,-136 966.5,-136 966.5,-95 766.5,-95"/>
<text text-anchor="start" x="774.5" y="-124" font-family="Helvetica,sans-Serif" font-size="10.00">/home/runner/work/cbmc</text>
<text text-anchor="start" x="774.5" y="-113" font-family="Helvetica,sans-Serif" font-size="10.00">&#45;documentation/cbmc&#45;documentation</text>
<text text-anchor="middle" x="866.5" y="-102" font-family="Helvetica,sans-Serif" font-size="10.00">/src/goto&#45;instrument/dump_c.cpp</text>
</a>
</g>
</g>
<!-- Node1&#45;&gt;Node8 -->
<g id="edge7" class="edge">
<title>Node1&#45;&gt;Node8</title>
<path fill="none" stroke="midnightblue" d="M1570.17,-194.38C1430.88,-188.62 1184.25,-174.52 975.5,-142 965.13,-140.38 954.29,-138.32 943.63,-136.06"/>
<polygon fill="midnightblue" stroke="midnightblue" points="1570.28,-197.88 1580.42,-194.79 1570.57,-190.89 1570.28,-197.88"/>
</g>
<!-- Node9 -->
<g id="node9" class="node">
<title>Node9</title>
<g id="a_node9"><a xlink:href="horn__encoding_8cpp.html" target="_top" xlink:title=" ">
<polygon fill="none" stroke="black" points="984.5,-95 984.5,-136 1194.5,-136 1194.5,-95 984.5,-95"/>
<text text-anchor="start" x="992.5" y="-124" font-family="Helvetica,sans-Serif" font-size="10.00">/home/runner/work/cbmc</text>
<text text-anchor="start" x="992.5" y="-113" font-family="Helvetica,sans-Serif" font-size="10.00">&#45;documentation/cbmc&#45;documentation</text>
<text text-anchor="middle" x="1089.5" y="-102" font-family="Helvetica,sans-Serif" font-size="10.00">/src/goto&#45;instrument/horn_encoding.cpp</text>
</a>
</g>
</g>
<!-- Node1&#45;&gt;Node9 -->
<g id="edge8" class="edge">
<title>Node1&#45;&gt;Node9</title>
<path fill="none" stroke="midnightblue" d="M1570.38,-188.33C1473.4,-179.03 1328.54,-163.27 1203.5,-142 1193.3,-140.27 1182.64,-138.21 1172.11,-136.03"/>
<polygon fill="midnightblue" stroke="midnightblue" points="1570.2,-191.82 1580.49,-189.29 1570.87,-184.86 1570.2,-191.82"/>
</g>
<!-- Node10 -->
<g id="node10" class="node">
<title>Node10</title>
<g id="a_node10"><a xlink:href="model__argc__argv_8cpp.html" target="_top" xlink:title=" ">
<polygon fill="none" stroke="black" points="1212.5,-95 1212.5,-136 1434.5,-136 1434.5,-95 1212.5,-95"/>
<text text-anchor="start" x="1220.5" y="-124" font-family="Helvetica,sans-Serif" font-size="10.00">/home/runner/work/cbmc</text>
<text text-anchor="start" x="1220.5" y="-113" font-family="Helvetica,sans-Serif" font-size="10.00">&#45;documentation/cbmc&#45;documentation</text>
<text text-anchor="middle" x="1323.5" y="-102" font-family="Helvetica,sans-Serif" font-size="10.00">/src/goto&#45;instrument/model_argc_argv.cpp</text>
</a>
</g>
</g>
<!-- Node1&#45;&gt;Node10 -->
<g id="edge9" class="edge">
<title>Node1&#45;&gt;Node10</title>
<path fill="none" stroke="midnightblue" d="M1584.92,-176.18C1530.13,-163.67 1461.93,-148.1 1408.93,-136"/>
<polygon fill="midnightblue" stroke="midnightblue" points="1584.46,-179.67 1594.99,-178.48 1586.02,-172.84 1584.46,-179.67"/>
</g>
<!-- Node11 -->
<g id="node11" class="node">
<title>Node11</title>
<g id="a_node11"><a xlink:href="instrument__preconditions_8cpp.html" target="_top" xlink:title=" ">
<polygon fill="none" stroke="black" points="1452.5,-89.5 1452.5,-141.5 1652.5,-141.5 1652.5,-89.5 1452.5,-89.5"/>
<text text-anchor="start" x="1460.5" y="-129.5" font-family="Helvetica,sans-Serif" font-size="10.00">/home/runner/work/cbmc</text>
<text text-anchor="start" x="1460.5" y="-118.5" font-family="Helvetica,sans-Serif" font-size="10.00">&#45;documentation/cbmc&#45;documentation</text>
<text text-anchor="start" x="1460.5" y="-107.5" font-family="Helvetica,sans-Serif" font-size="10.00">/src/goto&#45;programs/instrument</text>
<text text-anchor="middle" x="1552.5" y="-96.5" font-family="Helvetica,sans-Serif" font-size="10.00">_preconditions.cpp</text>
</a>
</g>
</g>
<!-- Node1&#45;&gt;Node11 -->
<g id="edge10" class="edge">
<title>Node1&#45;&gt;Node11</title>
<path fill="none" stroke="midnightblue" d="M1640.99,-172.84C1625.46,-162.96 1607.66,-151.62 1592.12,-141.73"/>
<polygon fill="midnightblue" stroke="midnightblue" points="1639.53,-176.06 1649.84,-178.48 1643.29,-170.16 1639.53,-176.06"/>
</g>
<!-- Node12 -->
<g id="node12" class="node">
<title>Node12</title>
<g id="a_node12"><a xlink:href="link__goto__model_8h.html" target="_top" xlink:title=" ">
<polygon fill="none" stroke="black" points="1708.5,-95 1708.5,-136 1910.5,-136 1910.5,-95 1708.5,-95"/>
<text text-anchor="start" x="1716.5" y="-124" font-family="Helvetica,sans-Serif" font-size="10.00">/home/runner/work/cbmc</text>
<text text-anchor="start" x="1716.5" y="-113" font-family="Helvetica,sans-Serif" font-size="10.00">&#45;documentation/cbmc&#45;documentation</text>
<text text-anchor="middle" x="1809.5" y="-102" font-family="Helvetica,sans-Serif" font-size="10.00">/src/goto&#45;programs/link_goto_model.h</text>
</a>
</g>
</g>
<!-- Node1&#45;&gt;Node12 -->
<g id="edge11" class="edge">
<title>Node1&#45;&gt;Node12</title>
<path fill="none" stroke="midnightblue" d="M1720.03,-173.03C1738.78,-161.18 1760.87,-147.22 1778.41,-136.14"/>
<polygon fill="midnightblue" stroke="midnightblue" points="1717.98,-170.18 1711.4,-178.48 1721.72,-176.1 1717.98,-170.18"/>
</g>
<!-- Node14 -->
<g id="node14" class="node">
<title>Node14</title>
<g id="a_node14"><a xlink:href="read__goto__binary_8cpp.html" target="_top" xlink:title=" ">
<polygon fill="none" stroke="black" points="1580.5,-0.5 1580.5,-52.5 1780.5,-52.5 1780.5,-0.5 1580.5,-0.5"/>
<text text-anchor="start" x="1588.5" y="-40.5" font-family="Helvetica,sans-Serif" font-size="10.00">/home/runner/work/cbmc</text>
<text text-anchor="start" x="1588.5" y="-29.5" font-family="Helvetica,sans-Serif" font-size="10.00">&#45;documentation/cbmc&#45;documentation</text>
<text text-anchor="start" x="1588.5" y="-18.5" font-family="Helvetica,sans-Serif" font-size="10.00">/src/goto&#45;programs/read_goto</text>
<text text-anchor="middle" x="1680.5" y="-7.5" font-family="Helvetica,sans-Serif" font-size="10.00">_binary.cpp</text>
</a>
</g>
</g>
<!-- Node1&#45;&gt;Node14 -->
<g id="edge17" class="edge">
<title>Node1&#45;&gt;Node14</title>
<path fill="none" stroke="midnightblue" d="M1680.5,-168.13C1680.5,-135.36 1680.5,-83.36 1680.5,-52.61"/>
<polygon fill="midnightblue" stroke="midnightblue" points="1677,-168.44 1680.5,-178.44 1684,-168.44 1677,-168.44"/>
</g>
<!-- Node15 -->
<g id="node15" class="node">
<title>Node15</title>
<g id="a_node15"><a xlink:href="linking__class_8h.html" target="_top" xlink:title=" ">
<polygon fill="none" stroke="black" points="1928.5,-95 1928.5,-136 2128.5,-136 2128.5,-95 1928.5,-95"/>
<text text-anchor="start" x="1936.5" y="-124" font-family="Helvetica,sans-Serif" font-size="10.00">/home/runner/work/cbmc</text>
<text text-anchor="start" x="1936.5" y="-113" font-family="Helvetica,sans-Serif" font-size="10.00">&#45;documentation/cbmc&#45;documentation</text>
<text text-anchor="middle" x="2028.5" y="-102" font-family="Helvetica,sans-Serif" font-size="10.00">/src/linking/linking_class.h</text>
</a>
</g>
</g>
<!-- Node1&#45;&gt;Node15 -->
<g id="edge14" class="edge">
<title>Node1&#45;&gt;Node15</title>
<path fill="none" stroke="midnightblue" d="M1773.67,-176.18C1827.08,-163.67 1893.56,-148.1 1945.22,-136"/>
<polygon fill="midnightblue" stroke="midnightblue" points="1772.79,-172.79 1763.85,-178.48 1774.39,-179.61 1772.79,-172.79"/>
</g>
<!-- Node17 -->
<g id="node17" class="node">
<title>Node17</title>
<g id="a_node17"><a xlink:href="symex__main_8cpp.html" target="_top" xlink:title=" ">
<polygon fill="none" stroke="black" points="2146.5,-95 2146.5,-136 2346.5,-136 2346.5,-95 2146.5,-95"/>
<text text-anchor="start" x="2154.5" y="-124" font-family="Helvetica,sans-Serif" font-size="10.00">/home/runner/work/cbmc</text>
<text text-anchor="start" x="2154.5" y="-113" font-family="Helvetica,sans-Serif" font-size="10.00">&#45;documentation/cbmc&#45;documentation</text>
<text text-anchor="middle" x="2246.5" y="-102" font-family="Helvetica,sans-Serif" font-size="10.00">/src/goto&#45;symex/symex_main.cpp</text>
</a>
</g>
</g>
<!-- Node1&#45;&gt;Node17 -->
<g id="edge18" class="edge">
<title>Node1&#45;&gt;Node17</title>
<path fill="none" stroke="midnightblue" d="M1790.79,-187.85C1883.66,-178.51 2019.8,-162.92 2137.5,-142 2147.26,-140.27 2157.46,-138.21 2167.53,-136.03"/>
<polygon fill="midnightblue" stroke="midnightblue" points="1790.41,-184.37 1780.81,-188.85 1791.11,-191.34 1790.41,-184.37"/>
</g>
<!-- Node18 -->
<g id="node18" class="node">
<title>Node18</title>
<g id="a_node18"><a xlink:href="boolbv__let_8cpp.html" target="_top" xlink:title=" ">
<polygon fill="none" stroke="black" points="2364.5,-95 2364.5,-136 2564.5,-136 2564.5,-95 2364.5,-95"/>
<text text-anchor="start" x="2372.5" y="-124" font-family="Helvetica,sans-Serif" font-size="10.00">/home/runner/work/cbmc</text>
<text text-anchor="start" x="2372.5" y="-113" font-family="Helvetica,sans-Serif" font-size="10.00">&#45;documentation/cbmc&#45;documentation</text>
<text text-anchor="middle" x="2464.5" y="-102" font-family="Helvetica,sans-Serif" font-size="10.00">/src/solvers/flattening/boolbv_let.cpp</text>
</a>
</g>
</g>
<!-- Node1&#45;&gt;Node18 -->
<g id="edge19" class="edge">
<title>Node1&#45;&gt;Node18</title>
<path fill="none" stroke="midnightblue" d="M1790.83,-193.83C1924.98,-187.61 2157.95,-173.13 2355.5,-142 2365.87,-140.37 2376.71,-138.29 2387.37,-136.02"/>
<polygon fill="midnightblue" stroke="midnightblue" points="1790.38,-190.35 1780.55,-194.3 1790.7,-197.34 1790.38,-190.35"/>
</g>
<!-- Node19 -->
<g id="node19" class="node">
<title>Node19</title>
<g id="a_node19"><a xlink:href="smt2__solver_8cpp.html" target="_top" xlink:title=" ">
<polygon fill="none" stroke="black" points="2582.5,-95 2582.5,-136 2782.5,-136 2782.5,-95 2582.5,-95"/>
<text text-anchor="start" x="2590.5" y="-124" font-family="Helvetica,sans-Serif" font-size="10.00">/home/runner/work/cbmc</text>
<text text-anchor="start" x="2590.5" y="-113" font-family="Helvetica,sans-Serif" font-size="10.00">&#45;documentation/cbmc&#45;documentation</text>
<text text-anchor="middle" x="2682.5" y="-102" font-family="Helvetica,sans-Serif" font-size="10.00">/src/solvers/smt2/smt2_solver.cpp</text>
</a>
</g>
</g>
<!-- Node1&#45;&gt;Node19 -->
<g id="edge20" class="edge">
<title>Node1&#45;&gt;Node19</title>
<path fill="none" stroke="midnightblue" d="M1790.67,-197C1959.88,-194.14 2293.56,-183.23 2573.5,-142 2584.17,-140.43 2595.34,-138.34 2606.29,-136.03"/>
<polygon fill="midnightblue" stroke="midnightblue" points="1790.45,-193.5 1780.51,-197.17 1790.56,-200.5 1790.45,-193.5"/>
</g>
<!-- Node20 -->
<g id="node20" class="node">
<title>Node20</title>
<g id="a_node20"><a xlink:href="replace__symbol_8cpp.html" target="_top" xlink:title=" ">
<polygon fill="none" stroke="black" points="2800.5,-95 2800.5,-136 3000.5,-136 3000.5,-95 2800.5,-95"/>
<text text-anchor="start" x="2808.5" y="-124" font-family="Helvetica,sans-Serif" font-size="10.00">/home/runner/work/cbmc</text>
<text text-anchor="start" x="2808.5" y="-113" font-family="Helvetica,sans-Serif" font-size="10.00">&#45;documentation/cbmc&#45;documentation</text>
<text text-anchor="middle" x="2900.5" y="-102" font-family="Helvetica,sans-Serif" font-size="10.00">/src/util/replace_symbol.cpp</text>
</a>
</g>
</g>
<!-- Node1&#45;&gt;Node20 -->
<g id="edge21" class="edge">
<title>Node1&#45;&gt;Node20</title>
<path fill="none" stroke="midnightblue" d="M1790.9,-198.97C1991.28,-199.28 2427.78,-193.29 2791.5,-142 2802.37,-140.47 2813.76,-138.37 2824.89,-136.03"/>
<polygon fill="midnightblue" stroke="midnightblue" points="1790.67,-195.47 1780.66,-198.95 1790.65,-202.47 1790.67,-195.47"/>
</g>
<!-- Node3 -->
<g id="node3" class="node">
<title>Node3</title>
<g id="a_node3"><a xlink:href="constant__propagator_8cpp.html" target="_top" xlink:title=" ">
<polygon fill="none" stroke="black" points="0,-6 0,-47 203,-47 203,-6 0,-6"/>
<text text-anchor="start" x="8" y="-35" font-family="Helvetica,sans-Serif" font-size="10.00">/home/runner/work/cbmc</text>
<text text-anchor="start" x="8" y="-24" font-family="Helvetica,sans-Serif" font-size="10.00">&#45;documentation/cbmc&#45;documentation</text>
<text text-anchor="middle" x="101.5" y="-13" font-family="Helvetica,sans-Serif" font-size="10.00">/src/analyses/constant_propagator.cpp</text>
</a>
</g>
</g>
<!-- Node2&#45;&gt;Node3 -->
<g id="edge2" class="edge">
<title>Node2&#45;&gt;Node3</title>
<path fill="none" stroke="midnightblue" d="M346.97,-92.41C294.07,-78.42 226.3,-60.5 175.37,-47.03"/>
<polygon fill="midnightblue" stroke="midnightblue" points="346.1,-95.8 356.67,-94.98 347.89,-89.04 346.1,-95.8"/>
</g>
<!-- Node4 -->
<g id="node4" class="node">
<title>Node4</title>
<g id="a_node4"><a xlink:href="build__analyzer_8cpp.html" target="_top" xlink:title=" ">
<polygon fill="none" stroke="black" points="221.5,-6 221.5,-47 421.5,-47 421.5,-6 221.5,-6"/>
<text text-anchor="start" x="229.5" y="-35" font-family="Helvetica,sans-Serif" font-size="10.00">/home/runner/work/cbmc</text>
<text text-anchor="start" x="229.5" y="-24" font-family="Helvetica,sans-Serif" font-size="10.00">&#45;documentation/cbmc&#45;documentation</text>
<text text-anchor="middle" x="321.5" y="-13" font-family="Helvetica,sans-Serif" font-size="10.00">/src/goto&#45;analyzer/build_analyzer.cpp</text>
</a>
</g>
</g>
<!-- Node2&#45;&gt;Node4 -->
<g id="edge3" class="edge">
<title>Node2&#45;&gt;Node4</title>
<path fill="none" stroke="midnightblue" d="M398.18,-88.71C381.57,-75.44 361.64,-59.53 346.26,-47.26"/>
<polygon fill="midnightblue" stroke="midnightblue" points="396.04,-91.47 406.04,-94.98 400.41,-86 396.04,-91.47"/>
</g>
<!-- Node5 -->
<g id="node5" class="node">
<title>Node5</title>
<g id="a_node5"><a xlink:href="goto__instrument__parse__options_8cpp.html" target="_top" xlink:title=" ">
<polygon fill="none" stroke="black" points="439.5,-0.5 439.5,-52.5 639.5,-52.5 639.5,-0.5 439.5,-0.5"/>
<text text-anchor="start" x="447.5" y="-40.5" font-family="Helvetica,sans-Serif" font-size="10.00">/home/runner/work/cbmc</text>
<text text-anchor="start" x="447.5" y="-29.5" font-family="Helvetica,sans-Serif" font-size="10.00">&#45;documentation/cbmc&#45;documentation</text>
<text text-anchor="start" x="447.5" y="-18.5" font-family="Helvetica,sans-Serif" font-size="10.00">/src/goto&#45;instrument/goto_instrument</text>
<text text-anchor="middle" x="539.5" y="-7.5" font-family="Helvetica,sans-Serif" font-size="10.00">_parse_options.cpp</text>
</a>
</g>
</g>
<!-- Node2&#45;&gt;Node5 -->
<g id="edge4" class="edge">
<title>Node2&#45;&gt;Node5</title>
<path fill="none" stroke="midnightblue" d="M463.04,-88.53C477.29,-77.15 493.95,-63.86 508.07,-52.58"/>
<polygon fill="midnightblue" stroke="midnightblue" points="460.59,-86 454.96,-94.98 464.96,-91.47 460.59,-86"/>
</g>
<!-- Node6 -->
<g id="node6" class="node">
<title>Node6</title>
<g id="a_node6"><a xlink:href="janalyzer__parse__options_8cpp.html" target="_top" xlink:title=" ">
<polygon fill="none" stroke="black" points="657.5,-0.5 657.5,-52.5 857.5,-52.5 857.5,-0.5 657.5,-0.5"/>
<text text-anchor="start" x="665.5" y="-40.5" font-family="Helvetica,sans-Serif" font-size="10.00">/home/runner/work/cbmc</text>
<text text-anchor="start" x="665.5" y="-29.5" font-family="Helvetica,sans-Serif" font-size="10.00">&#45;documentation/cbmc&#45;documentation</text>
<text text-anchor="start" x="665.5" y="-18.5" font-family="Helvetica,sans-Serif" font-size="10.00">/jbmc/src/janalyzer/janalyzer</text>
<text text-anchor="middle" x="757.5" y="-7.5" font-family="Helvetica,sans-Serif" font-size="10.00">_parse_options.cpp</text>
</a>
</g>
</g>
<!-- Node2&#45;&gt;Node6 -->
<g id="edge5" class="edge">
<title>Node2&#45;&gt;Node6</title>
<path fill="none" stroke="midnightblue" d="M513.75,-92.35C559.44,-80.19 616.25,-65.08 663.52,-52.5"/>
<polygon fill="midnightblue" stroke="midnightblue" points="512.65,-89.02 503.89,-94.98 514.45,-95.79 512.65,-89.02"/>
</g>
<!-- Node13 -->
<g id="node13" class="node">
<title>Node13</title>
<g id="a_node13"><a xlink:href="link__goto__model_8cpp.html" target="_top" xlink:title=" ">
<polygon fill="none" stroke="black" points="1798.5,-0.5 1798.5,-52.5 1998.5,-52.5 1998.5,-0.5 1798.5,-0.5"/>
<text text-anchor="start" x="1806.5" y="-40.5" font-family="Helvetica,sans-Serif" font-size="10.00">/home/runner/work/cbmc</text>
<text text-anchor="start" x="1806.5" y="-29.5" font-family="Helvetica,sans-Serif" font-size="10.00">&#45;documentation/cbmc&#45;documentation</text>
<text text-anchor="start" x="1806.5" y="-18.5" font-family="Helvetica,sans-Serif" font-size="10.00">/src/goto&#45;programs/link_goto</text>
<text text-anchor="middle" x="1898.5" y="-7.5" font-family="Helvetica,sans-Serif" font-size="10.00">_model.cpp</text>
</a>
</g>
</g>
<!-- Node12&#45;&gt;Node13 -->
<g id="edge12" class="edge">
<title>Node12&#45;&gt;Node13</title>
<path fill="none" stroke="midnightblue" d="M1836.88,-87.73C1848.27,-76.6 1861.41,-63.75 1872.63,-52.79"/>
<polygon fill="midnightblue" stroke="midnightblue" points="1834.4,-85.27 1829.7,-94.76 1839.29,-90.27 1834.4,-85.27"/>
</g>
<!-- Node12&#45;&gt;Node14 -->
<g id="edge13" class="edge">
<title>Node12&#45;&gt;Node14</title>
<path fill="none" stroke="midnightblue" d="M1771.93,-89.17C1754.86,-77.65 1734.72,-64.07 1717.69,-52.58"/>
<polygon fill="midnightblue" stroke="midnightblue" points="1770.3,-92.29 1780.55,-94.98 1774.22,-86.48 1770.3,-92.29"/>
</g>
<!-- Node15&#45;&gt;Node13 -->
<g id="edge15" class="edge">
<title>Node15&#45;&gt;Node13</title>
<path fill="none" stroke="midnightblue" d="M1990.64,-89.17C1973.44,-77.65 1953.14,-64.07 1935.98,-52.58"/>
<polygon fill="midnightblue" stroke="midnightblue" points="1989.07,-92.32 1999.33,-94.98 1992.96,-86.5 1989.07,-92.32"/>
</g>
<!-- Node16 -->
<g id="node16" class="node">
<title>Node16</title>
<g id="a_node16"><a xlink:href="linking_8cpp.html" target="_top" xlink:title=" ">
<polygon fill="none" stroke="black" points="2016.5,-6 2016.5,-47 2216.5,-47 2216.5,-6 2016.5,-6"/>
<text text-anchor="start" x="2024.5" y="-35" font-family="Helvetica,sans-Serif" font-size="10.00">/home/runner/work/cbmc</text>
<text text-anchor="start" x="2024.5" y="-24" font-family="Helvetica,sans-Serif" font-size="10.00">&#45;documentation/cbmc&#45;documentation</text>
<text text-anchor="middle" x="2116.5" y="-13" font-family="Helvetica,sans-Serif" font-size="10.00">/src/linking/linking.cpp</text>
</a>
</g>
</g>
<!-- Node15&#45;&gt;Node16 -->
<g id="edge16" class="edge">
<title>Node15&#45;&gt;Node16</title>
<path fill="none" stroke="midnightblue" d="M2055.91,-87.4C2069.09,-74.37 2084.59,-59.05 2096.61,-47.16"/>
<polygon fill="midnightblue" stroke="midnightblue" points="2053.12,-85.24 2048.47,-94.76 2058.04,-90.22 2053.12,-85.24"/>
</g>
</g>
</svg>
