<?xml version="1.0" encoding="UTF-8" standalone="no"?>
<!DOCTYPE svg PUBLIC "-//W3C//DTD SVG 1.1//EN"
 "http://www.w3.org/Graphics/SVG/1.1/DTD/svg11.dtd">
<!-- Generated by graphviz version 2.43.0 (0)
 -->
<!-- Title: /home/runner/work/cbmc&#45;documentation/cbmc&#45;documentation/src/goto&#45;programs/resolve_inherited_component.h Pages: 1 -->
<svg width="4174pt" height="239pt"
 viewBox="0.00 0.00 4174.00 239.00" xmlns="http://www.w3.org/2000/svg" xmlns:xlink="http://www.w3.org/1999/xlink">
<g id="graph0" class="graph" transform="scale(1 1) rotate(0) translate(4 235)">
<title>/home/runner/work/cbmc&#45;documentation/cbmc&#45;documentation/src/goto&#45;programs/resolve_inherited_component.h</title>
<!-- Node1 -->
<g id="node1" class="node">
<title>Node1</title>
<g id="a_node1"><a xlink:title=" ">
<polygon fill="#bfbfbf" stroke="black" points="1829,-178.5 1829,-230.5 2029,-230.5 2029,-178.5 1829,-178.5"/>
<text text-anchor="start" x="1837" y="-218.5" font-family="Helvetica,sans-Serif" font-size="10.00">/home/runner/work/cbmc</text>
<text text-anchor="start" x="1837" y="-207.5" font-family="Helvetica,sans-Serif" font-size="10.00">&#45;documentation/cbmc&#45;documentation</text>
<text text-anchor="start" x="1837" y="-196.5" font-family="Helvetica,sans-Serif" font-size="10.00">/src/goto&#45;programs/resolve_inherited</text>
<text text-anchor="middle" x="1929" y="-185.5" font-family="Helvetica,sans-Serif" font-size="10.00">_component.h</text>
</a>
</g>
</g>
<!-- Node2 -->
<g id="node2" class="node">
<title>Node2</title>
<g id="a_node2"><a xlink:href="remove__virtual__functions_8cpp.html" target="_top" xlink:title=" ">
<polygon fill="none" stroke="black" points="1419,-89.5 1419,-141.5 1619,-141.5 1619,-89.5 1419,-89.5"/>
<text text-anchor="start" x="1427" y="-129.5" font-family="Helvetica,sans-Serif" font-size="10.00">/home/runner/work/cbmc</text>
<text text-anchor="start" x="1427" y="-118.5" font-family="Helvetica,sans-Serif" font-size="10.00">&#45;documentation/cbmc&#45;documentation</text>
<text text-anchor="start" x="1427" y="-107.5" font-family="Helvetica,sans-Serif" font-size="10.00">/src/goto&#45;programs/remove_virtual</text>
<text text-anchor="middle" x="1519" y="-96.5" font-family="Helvetica,sans-Serif" font-size="10.00">_functions.cpp</text>
</a>
</g>
</g>
<!-- Node1&#45;&gt;Node2 -->
<g id="edge1" class="edge">
<title>Node1&#45;&gt;Node2</title>
<path fill="none" stroke="midnightblue" d="M1818.74,-181.75C1761.72,-170.3 1691.03,-155.81 1628,-142 1625.06,-141.36 1622.07,-140.7 1619.06,-140.02"/>
<polygon fill="midnightblue" stroke="midnightblue" points="1818.37,-185.24 1828.86,-183.78 1819.74,-178.38 1818.37,-185.24"/>
</g>
<!-- Node3 -->
<g id="node3" class="node">
<title>Node3</title>
<g id="a_node3"><a xlink:href="resolve__inherited__component_8cpp.html" target="_top" xlink:title=" ">
<polygon fill="none" stroke="black" points="1637,-89.5 1637,-141.5 1837,-141.5 1837,-89.5 1637,-89.5"/>
<text text-anchor="start" x="1645" y="-129.5" font-family="Helvetica,sans-Serif" font-size="10.00">/home/runner/work/cbmc</text>
<text text-anchor="start" x="1645" y="-118.5" font-family="Helvetica,sans-Serif" font-size="10.00">&#45;documentation/cbmc&#45;documentation</text>
<text text-anchor="start" x="1645" y="-107.5" font-family="Helvetica,sans-Serif" font-size="10.00">/src/goto&#45;programs/resolve_inherited</text>
<text text-anchor="middle" x="1737" y="-96.5" font-family="Helvetica,sans-Serif" font-size="10.00">_component.cpp</text>
</a>
</g>
</g>
<!-- Node1&#45;&gt;Node3 -->
<g id="edge2" class="edge">
<title>Node1&#45;&gt;Node3</title>
<path fill="none" stroke="midnightblue" d="M1864.55,-174.29C1841.09,-163.67 1814.8,-151.76 1792.22,-141.52"/>
<polygon fill="midnightblue" stroke="midnightblue" points="1863.17,-177.51 1873.72,-178.45 1866.06,-171.14 1863.17,-177.51"/>
</g>
<!-- Node4 -->
<g id="node4" class="node">
<title>Node4</title>
<g id="a_node4"><a xlink:href="java__utils_8h.html" target="_top" xlink:title=" ">
<polygon fill="none" stroke="black" points="1893,-95 1893,-136 2093,-136 2093,-95 1893,-95"/>
<text text-anchor="start" x="1901" y="-124" font-family="Helvetica,sans-Serif" font-size="10.00">/home/runner/work/cbmc</text>
<text text-anchor="start" x="1901" y="-113" font-family="Helvetica,sans-Serif" font-size="10.00">&#45;documentation/cbmc&#45;documentation</text>
<text text-anchor="middle" x="1993" y="-102" font-family="Helvetica,sans-Serif" font-size="10.00">/jbmc/src/java_bytecode/java_utils.h</text>
</a>
</g>
</g>
<!-- Node1&#45;&gt;Node4 -->
<g id="edge3" class="edge">
<title>Node1&#45;&gt;Node4</title>
<path fill="none" stroke="midnightblue" d="M1953.51,-170.18C1961.99,-158.66 1971.2,-146.13 1978.59,-136.08"/>
<polygon fill="midnightblue" stroke="midnightblue" points="1950.62,-168.21 1947.51,-178.34 1956.26,-172.35 1950.62,-168.21"/>
</g>
<!-- Node9 -->
<g id="node9" class="node">
<title>Node9</title>
<g id="a_node9"><a xlink:href="java__bytecode__convert__method_8cpp.html" target="_top" xlink:title=" ">
<polygon fill="none" stroke="black" points="0,-0.5 0,-52.5 200,-52.5 200,-0.5 0,-0.5"/>
<text text-anchor="start" x="8" y="-40.5" font-family="Helvetica,sans-Serif" font-size="10.00">/home/runner/work/cbmc</text>
<text text-anchor="start" x="8" y="-29.5" font-family="Helvetica,sans-Serif" font-size="10.00">&#45;documentation/cbmc&#45;documentation</text>
<text text-anchor="start" x="8" y="-18.5" font-family="Helvetica,sans-Serif" font-size="10.00">/jbmc/src/java_bytecode/java</text>
<text text-anchor="middle" x="100" y="-7.5" font-family="Helvetica,sans-Serif" font-size="10.00">_bytecode_convert_method.cpp</text>
</a>
</g>
</g>
<!-- Node1&#45;&gt;Node9 -->
<g id="edge25" class="edge">
<title>Node1&#45;&gt;Node9</title>
<path fill="none" stroke="midnightblue" d="M1904.59,-170.27C1897.9,-161.12 1890.65,-151.19 1884,-142 1867,-118.53 1871.64,-102.52 1846,-89 1765.54,-46.56 299.25,-64.42 209,-53 206.11,-52.63 203.18,-52.22 200.23,-51.77"/>
<polygon fill="midnightblue" stroke="midnightblue" points="1901.82,-172.41 1910.55,-178.41 1907.47,-168.27 1901.82,-172.41"/>
</g>
<!-- Node24 -->
<g id="node24" class="node">
<title>Node24</title>
<g id="a_node24"><a xlink:href="ci__lazy__methods_8cpp.html" target="_top" xlink:title=" ">
<polygon fill="none" stroke="black" points="2111,-89.5 2111,-141.5 2311,-141.5 2311,-89.5 2111,-89.5"/>
<text text-anchor="start" x="2119" y="-129.5" font-family="Helvetica,sans-Serif" font-size="10.00">/home/runner/work/cbmc</text>
<text text-anchor="start" x="2119" y="-118.5" font-family="Helvetica,sans-Serif" font-size="10.00">&#45;documentation/cbmc&#45;documentation</text>
<text text-anchor="start" x="2119" y="-107.5" font-family="Helvetica,sans-Serif" font-size="10.00">/jbmc/src/java_bytecode/ci_lazy</text>
<text text-anchor="middle" x="2211" y="-96.5" font-family="Helvetica,sans-Serif" font-size="10.00">_methods.cpp</text>
</a>
</g>
</g>
<!-- Node1&#45;&gt;Node24 -->
<g id="edge23" class="edge">
<title>Node1&#45;&gt;Node24</title>
<path fill="none" stroke="midnightblue" d="M2020.02,-175.42C2055.38,-164.51 2095.55,-152.12 2129.9,-141.52"/>
<polygon fill="midnightblue" stroke="midnightblue" points="2018.71,-172.16 2010.19,-178.45 2020.78,-178.85 2018.71,-172.16"/>
</g>
<!-- Node25 -->
<g id="node25" class="node">
<title>Node25</title>
<g id="a_node25"><a xlink:href="ci__lazy__methods__needed_8cpp.html" target="_top" xlink:title=" ">
<polygon fill="none" stroke="black" points="2329,-89.5 2329,-141.5 2529,-141.5 2529,-89.5 2329,-89.5"/>
<text text-anchor="start" x="2337" y="-129.5" font-family="Helvetica,sans-Serif" font-size="10.00">/home/runner/work/cbmc</text>
<text text-anchor="start" x="2337" y="-118.5" font-family="Helvetica,sans-Serif" font-size="10.00">&#45;documentation/cbmc&#45;documentation</text>
<text text-anchor="start" x="2337" y="-107.5" font-family="Helvetica,sans-Serif" font-size="10.00">/jbmc/src/java_bytecode/ci_lazy</text>
<text text-anchor="middle" x="2429" y="-96.5" font-family="Helvetica,sans-Serif" font-size="10.00">_methods_needed.cpp</text>
</a>
</g>
</g>
<!-- Node1&#45;&gt;Node25 -->
<g id="edge24" class="edge">
<title>Node1&#45;&gt;Node25</title>
<path fill="none" stroke="midnightblue" d="M2039.31,-188.37C2117.85,-177.05 2225.74,-160.41 2320,-142 2322.96,-141.42 2325.95,-140.82 2328.98,-140.2"/>
<polygon fill="midnightblue" stroke="midnightblue" points="2038.8,-184.9 2029.4,-189.79 2039.8,-191.83 2038.8,-184.9"/>
</g>
<!-- Node5 -->
<g id="node5" class="node">
<title>Node5</title>
<g id="a_node5"><a xlink:href="assignments__from__json_8cpp.html" target="_top" xlink:title=" ">
<polygon fill="none" stroke="black" points="218,-0.5 218,-52.5 418,-52.5 418,-0.5 218,-0.5"/>
<text text-anchor="start" x="226" y="-40.5" font-family="Helvetica,sans-Serif" font-size="10.00">/home/runner/work/cbmc</text>
<text text-anchor="start" x="226" y="-29.5" font-family="Helvetica,sans-Serif" font-size="10.00">&#45;documentation/cbmc&#45;documentation</text>
<text text-anchor="start" x="226" y="-18.5" font-family="Helvetica,sans-Serif" font-size="10.00">/jbmc/src/java_bytecode/assignments</text>
<text text-anchor="middle" x="318" y="-7.5" font-family="Helvetica,sans-Serif" font-size="10.00">_from_json.cpp</text>
</a>
</g>
</g>
<!-- Node4&#45;&gt;Node5 -->
<g id="edge4" class="edge">
<title>Node4&#45;&gt;Node5</title>
<path fill="none" stroke="midnightblue" d="M1905.24,-93.07C1896.41,-91.46 1887.56,-90.05 1879,-89 1238.3,-10.17 1067.31,-134.95 427,-53 424.11,-52.63 421.18,-52.22 418.23,-51.76"/>
<polygon fill="midnightblue" stroke="midnightblue" points="1904.68,-96.53 1915.16,-94.97 1906,-89.65 1904.68,-96.53"/>
</g>
<!-- Node6 -->
<g id="node6" class="node">
<title>Node6</title>
<g id="a_node6"><a xlink:href="convert__java__nondet_8cpp.html" target="_top" xlink:title=" ">
<polygon fill="none" stroke="black" points="436,-0.5 436,-52.5 636,-52.5 636,-0.5 436,-0.5"/>
<text text-anchor="start" x="444" y="-40.5" font-family="Helvetica,sans-Serif" font-size="10.00">/home/runner/work/cbmc</text>
<text text-anchor="start" x="444" y="-29.5" font-family="Helvetica,sans-Serif" font-size="10.00">&#45;documentation/cbmc&#45;documentation</text>
<text text-anchor="start" x="444" y="-18.5" font-family="Helvetica,sans-Serif" font-size="10.00">/jbmc/src/java_bytecode/convert</text>
<text text-anchor="middle" x="536" y="-7.5" font-family="Helvetica,sans-Serif" font-size="10.00">_java_nondet.cpp</text>
</a>
</g>
</g>
<!-- Node4&#45;&gt;Node6 -->
<g id="edge5" class="edge">
<title>Node4&#45;&gt;Node6</title>
<path fill="none" stroke="midnightblue" d="M1905,-93.07C1896.26,-91.47 1887.48,-90.06 1879,-89 1335.02,-20.85 1189.71,-123.25 646,-53 642.79,-52.59 639.54,-52.12 636.26,-51.61"/>
<polygon fill="midnightblue" stroke="midnightblue" points="1904.37,-96.51 1914.85,-94.96 1905.69,-89.64 1904.37,-96.51"/>
</g>
<!-- Node7 -->
<g id="node7" class="node">
<title>Node7</title>
<g id="a_node7"><a xlink:href="java__bytecode__concurrency__instrumentation_8cpp.html" target="_top" xlink:title=" ">
<polygon fill="none" stroke="black" points="654.5,-0.5 654.5,-52.5 889.5,-52.5 889.5,-0.5 654.5,-0.5"/>
<text text-anchor="start" x="662.5" y="-40.5" font-family="Helvetica,sans-Serif" font-size="10.00">/home/runner/work/cbmc</text>
<text text-anchor="start" x="662.5" y="-29.5" font-family="Helvetica,sans-Serif" font-size="10.00">&#45;documentation/cbmc&#45;documentation</text>
<text text-anchor="start" x="662.5" y="-18.5" font-family="Helvetica,sans-Serif" font-size="10.00">/jbmc/src/java_bytecode/java</text>
<text text-anchor="middle" x="772" y="-7.5" font-family="Helvetica,sans-Serif" font-size="10.00">_bytecode_concurrency_instrumentation.cpp</text>
</a>
</g>
</g>
<!-- Node4&#45;&gt;Node7 -->
<g id="edge6" class="edge">
<title>Node4&#45;&gt;Node7</title>
<path fill="none" stroke="midnightblue" d="M1904.49,-93.04C1895.91,-91.46 1887.31,-90.07 1879,-89 1446.74,-33.19 1331.85,-104.07 899,-53 895.87,-52.63 892.71,-52.23 889.52,-51.79"/>
<polygon fill="midnightblue" stroke="midnightblue" points="1904.05,-96.52 1914.53,-94.97 1905.37,-89.65 1904.05,-96.52"/>
</g>
<!-- Node8 -->
<g id="node8" class="node">
<title>Node8</title>
<g id="a_node8"><a xlink:href="java__bytecode__convert__class_8cpp.html" target="_top" xlink:title=" ">
<polygon fill="none" stroke="black" points="908,-0.5 908,-52.5 1108,-52.5 1108,-0.5 908,-0.5"/>
<text text-anchor="start" x="916" y="-40.5" font-family="Helvetica,sans-Serif" font-size="10.00">/home/runner/work/cbmc</text>
<text text-anchor="start" x="916" y="-29.5" font-family="Helvetica,sans-Serif" font-size="10.00">&#45;documentation/cbmc&#45;documentation</text>
<text text-anchor="start" x="916" y="-18.5" font-family="Helvetica,sans-Serif" font-size="10.00">/jbmc/src/java_bytecode/java</text>
<text text-anchor="middle" x="1008" y="-7.5" font-family="Helvetica,sans-Serif" font-size="10.00">_bytecode_convert_class.cpp</text>
</a>
</g>
</g>
<!-- Node4&#45;&gt;Node8 -->
<g id="edge7" class="edge">
<title>Node4&#45;&gt;Node8</title>
<path fill="none" stroke="midnightblue" d="M1904.03,-93.05C1895.6,-91.49 1887.16,-90.1 1879,-89 1542.98,-43.83 1452.8,-99.81 1117,-53 1114.11,-52.6 1111.19,-52.15 1108.24,-51.68"/>
<polygon fill="midnightblue" stroke="midnightblue" points="1903.42,-96.5 1913.9,-94.96 1904.74,-89.62 1903.42,-96.5"/>
</g>
<!-- Node4&#45;&gt;Node9 -->
<g id="edge8" class="edge">
<title>Node4&#45;&gt;Node9</title>
<path fill="none" stroke="midnightblue" d="M1905.24,-93.04C1896.42,-91.44 1887.56,-90.04 1879,-89 1142.02,0.47 945.54,-146.06 209,-53 206.11,-52.63 203.18,-52.22 200.23,-51.78"/>
<polygon fill="midnightblue" stroke="midnightblue" points="1904.69,-96.5 1915.17,-94.94 1906,-89.63 1904.69,-96.5"/>
</g>
<!-- Node10 -->
<g id="node10" class="node">
<title>Node10</title>
<g id="a_node10"><a xlink:href="java__bytecode__instrument_8cpp.html" target="_top" xlink:title=" ">
<polygon fill="none" stroke="black" points="1126,-0.5 1126,-52.5 1326,-52.5 1326,-0.5 1126,-0.5"/>
<text text-anchor="start" x="1134" y="-40.5" font-family="Helvetica,sans-Serif" font-size="10.00">/home/runner/work/cbmc</text>
<text text-anchor="start" x="1134" y="-29.5" font-family="Helvetica,sans-Serif" font-size="10.00">&#45;documentation/cbmc&#45;documentation</text>
<text text-anchor="start" x="1134" y="-18.5" font-family="Helvetica,sans-Serif" font-size="10.00">/jbmc/src/java_bytecode/java</text>
<text text-anchor="middle" x="1226" y="-7.5" font-family="Helvetica,sans-Serif" font-size="10.00">_bytecode_instrument.cpp</text>
</a>
</g>
</g>
<!-- Node4&#45;&gt;Node10 -->
<g id="edge9" class="edge">
<title>Node4&#45;&gt;Node10</title>
<path fill="none" stroke="midnightblue" d="M1903.07,-93.04C1894.96,-91.51 1886.85,-90.13 1879,-89 1639.17,-54.45 1574.66,-88.72 1335,-53 1332.12,-52.57 1329.2,-52.1 1326.26,-51.61"/>
<polygon fill="midnightblue" stroke="midnightblue" points="1902.46,-96.48 1912.94,-94.97 1903.8,-89.61 1902.46,-96.48"/>
</g>
<!-- Node11 -->
<g id="node11" class="node">
<title>Node11</title>
<g id="a_node11"><a xlink:href="java__bytecode__language_8cpp.html" target="_top" xlink:title=" ">
<polygon fill="none" stroke="black" points="1344,-0.5 1344,-52.5 1544,-52.5 1544,-0.5 1344,-0.5"/>
<text text-anchor="start" x="1352" y="-40.5" font-family="Helvetica,sans-Serif" font-size="10.00">/home/runner/work/cbmc</text>
<text text-anchor="start" x="1352" y="-29.5" font-family="Helvetica,sans-Serif" font-size="10.00">&#45;documentation/cbmc&#45;documentation</text>
<text text-anchor="start" x="1352" y="-18.5" font-family="Helvetica,sans-Serif" font-size="10.00">/jbmc/src/java_bytecode/java</text>
<text text-anchor="middle" x="1444" y="-7.5" font-family="Helvetica,sans-Serif" font-size="10.00">_bytecode_language.cpp</text>
</a>
</g>
</g>
<!-- Node4&#45;&gt;Node11 -->
<g id="edge10" class="edge">
<title>Node4&#45;&gt;Node11</title>
<path fill="none" stroke="midnightblue" d="M1900.72,-92.96C1893.39,-91.52 1886.08,-90.18 1879,-89 1735.21,-65.05 1696.67,-77.65 1553,-53 1550.13,-52.51 1547.22,-51.98 1544.28,-51.44"/>
<polygon fill="midnightblue" stroke="midnightblue" points="1900.21,-96.42 1910.71,-94.97 1901.59,-89.56 1900.21,-96.42"/>
</g>
<!-- Node12 -->
<g id="node12" class="node">
<title>Node12</title>
<g id="a_node12"><a xlink:href="java__entry__point_8cpp.html" target="_top" xlink:title=" ">
<polygon fill="none" stroke="black" points="1562,-0.5 1562,-52.5 1762,-52.5 1762,-0.5 1562,-0.5"/>
<text text-anchor="start" x="1570" y="-40.5" font-family="Helvetica,sans-Serif" font-size="10.00">/home/runner/work/cbmc</text>
<text text-anchor="start" x="1570" y="-29.5" font-family="Helvetica,sans-Serif" font-size="10.00">&#45;documentation/cbmc&#45;documentation</text>
<text text-anchor="start" x="1570" y="-18.5" font-family="Helvetica,sans-Serif" font-size="10.00">/jbmc/src/java_bytecode/java</text>
<text text-anchor="middle" x="1662" y="-7.5" font-family="Helvetica,sans-Serif" font-size="10.00">_entry_point.cpp</text>
</a>
</g>
</g>
<!-- Node4&#45;&gt;Node12 -->
<g id="edge11" class="edge">
<title>Node4&#45;&gt;Node12</title>
<path fill="none" stroke="midnightblue" d="M1909.02,-92.43C1862.72,-80.26 1805.08,-65.11 1757.13,-52.5"/>
<polygon fill="midnightblue" stroke="midnightblue" points="1908.16,-95.82 1918.72,-94.98 1909.94,-89.05 1908.16,-95.82"/>
</g>
<!-- Node13 -->
<g id="node13" class="node">
<title>Node13</title>
<g id="a_node13"><a xlink:href="java__enum__static__init__unwind__handler_8cpp.html" target="_top" xlink:title=" ">
<polygon fill="none" stroke="black" points="1780.5,-0.5 1780.5,-52.5 1985.5,-52.5 1985.5,-0.5 1780.5,-0.5"/>
<text text-anchor="start" x="1788.5" y="-40.5" font-family="Helvetica,sans-Serif" font-size="10.00">/home/runner/work/cbmc</text>
<text text-anchor="start" x="1788.5" y="-29.5" font-family="Helvetica,sans-Serif" font-size="10.00">&#45;documentation/cbmc&#45;documentation</text>
<text text-anchor="start" x="1788.5" y="-18.5" font-family="Helvetica,sans-Serif" font-size="10.00">/jbmc/src/java_bytecode/java</text>
<text text-anchor="middle" x="1883" y="-7.5" font-family="Helvetica,sans-Serif" font-size="10.00">_enum_static_init_unwind_handler.cpp</text>
</a>
</g>
</g>
<!-- Node4&#45;&gt;Node13 -->
<g id="edge12" class="edge">
<title>Node4&#45;&gt;Node13</title>
<path fill="none" stroke="midnightblue" d="M1960.16,-88.53C1945.78,-77.15 1928.97,-63.86 1914.72,-52.58"/>
<polygon fill="midnightblue" stroke="midnightblue" points="1958.3,-91.52 1968.31,-94.98 1962.64,-86.03 1958.3,-91.52"/>
</g>
<!-- Node14 -->
<g id="node14" class="node">
<title>Node14</title>
<g id="a_node14"><a xlink:href="java__object__factory_8cpp.html" target="_top" xlink:title=" ">
<polygon fill="none" stroke="black" points="2004,-0.5 2004,-52.5 2204,-52.5 2204,-0.5 2004,-0.5"/>
<text text-anchor="start" x="2012" y="-40.5" font-family="Helvetica,sans-Serif" font-size="10.00">/home/runner/work/cbmc</text>
<text text-anchor="start" x="2012" y="-29.5" font-family="Helvetica,sans-Serif" font-size="10.00">&#45;documentation/cbmc&#45;documentation</text>
<text text-anchor="start" x="2012" y="-18.5" font-family="Helvetica,sans-Serif" font-size="10.00">/jbmc/src/java_bytecode/java</text>
<text text-anchor="middle" x="2104" y="-7.5" font-family="Helvetica,sans-Serif" font-size="10.00">_object_factory.cpp</text>
</a>
</g>
</g>
<!-- Node4&#45;&gt;Node14 -->
<g id="edge13" class="edge">
<title>Node4&#45;&gt;Node14</title>
<path fill="none" stroke="midnightblue" d="M2026.13,-88.53C2040.65,-77.15 2057.61,-63.86 2072,-52.58"/>
<polygon fill="midnightblue" stroke="midnightblue" points="2023.62,-86.05 2017.91,-94.98 2027.94,-91.56 2023.62,-86.05"/>
</g>
<!-- Node15 -->
<g id="node15" class="node">
<title>Node15</title>
<g id="a_node15"><a xlink:href="java__static__initializers_8cpp.html" target="_top" xlink:title=" ">
<polygon fill="none" stroke="black" points="2222,-0.5 2222,-52.5 2422,-52.5 2422,-0.5 2222,-0.5"/>
<text text-anchor="start" x="2230" y="-40.5" font-family="Helvetica,sans-Serif" font-size="10.00">/home/runner/work/cbmc</text>
<text text-anchor="start" x="2230" y="-29.5" font-family="Helvetica,sans-Serif" font-size="10.00">&#45;documentation/cbmc&#45;documentation</text>
<text text-anchor="start" x="2230" y="-18.5" font-family="Helvetica,sans-Serif" font-size="10.00">/jbmc/src/java_bytecode/java</text>
<text text-anchor="middle" x="2322" y="-7.5" font-family="Helvetica,sans-Serif" font-size="10.00">_static_initializers.cpp</text>
</a>
</g>
</g>
<!-- Node4&#45;&gt;Node15 -->
<g id="edge14" class="edge">
<title>Node4&#45;&gt;Node15</title>
<path fill="none" stroke="midnightblue" d="M2076.76,-92.35C2122.73,-80.19 2179.88,-65.08 2227.45,-52.5"/>
<polygon fill="midnightblue" stroke="midnightblue" points="2075.61,-89.04 2066.83,-94.98 2077.4,-95.8 2075.61,-89.04"/>
</g>
<!-- Node16 -->
<g id="node16" class="node">
<title>Node16</title>
<g id="a_node16"><a xlink:href="java__string__library__preprocess_8cpp.html" target="_top" xlink:title=" ">
<polygon fill="none" stroke="black" points="2440,-0.5 2440,-52.5 2640,-52.5 2640,-0.5 2440,-0.5"/>
<text text-anchor="start" x="2448" y="-40.5" font-family="Helvetica,sans-Serif" font-size="10.00">/home/runner/work/cbmc</text>
<text text-anchor="start" x="2448" y="-29.5" font-family="Helvetica,sans-Serif" font-size="10.00">&#45;documentation/cbmc&#45;documentation</text>
<text text-anchor="start" x="2448" y="-18.5" font-family="Helvetica,sans-Serif" font-size="10.00">/jbmc/src/java_bytecode/java</text>
<text text-anchor="middle" x="2540" y="-7.5" font-family="Helvetica,sans-Serif" font-size="10.00">_string_library_preprocess.cpp</text>
</a>
</g>
</g>
<!-- Node4&#45;&gt;Node16 -->
<g id="edge15" class="edge">
<title>Node4&#45;&gt;Node16</title>
<path fill="none" stroke="midnightblue" d="M2081.49,-92.86C2088.41,-91.45 2095.31,-90.14 2102,-89 2246.99,-64.2 2286.01,-77.8 2431,-53 2433.87,-52.51 2436.78,-51.99 2439.72,-51.44"/>
<polygon fill="midnightblue" stroke="midnightblue" points="2080.43,-89.5 2071.36,-94.97 2081.86,-96.35 2080.43,-89.5"/>
</g>
<!-- Node17 -->
<g id="node17" class="node">
<title>Node17</title>
<g id="a_node17"><a xlink:href="java__string__literals_8cpp.html" target="_top" xlink:title=" ">
<polygon fill="none" stroke="black" points="2658,-0.5 2658,-52.5 2858,-52.5 2858,-0.5 2658,-0.5"/>
<text text-anchor="start" x="2666" y="-40.5" font-family="Helvetica,sans-Serif" font-size="10.00">/home/runner/work/cbmc</text>
<text text-anchor="start" x="2666" y="-29.5" font-family="Helvetica,sans-Serif" font-size="10.00">&#45;documentation/cbmc&#45;documentation</text>
<text text-anchor="start" x="2666" y="-18.5" font-family="Helvetica,sans-Serif" font-size="10.00">/jbmc/src/java_bytecode/java</text>
<text text-anchor="middle" x="2758" y="-7.5" font-family="Helvetica,sans-Serif" font-size="10.00">_string_literals.cpp</text>
</a>
</g>
</g>
<!-- Node4&#45;&gt;Node17 -->
<g id="edge16" class="edge">
<title>Node4&#45;&gt;Node17</title>
<path fill="none" stroke="midnightblue" d="M2079.27,-92.95C2086.92,-91.45 2094.58,-90.1 2102,-89 2342.98,-53.13 2408.02,-88.87 2649,-53 2651.88,-52.57 2654.8,-52.1 2657.75,-51.61"/>
<polygon fill="midnightblue" stroke="midnightblue" points="2078.32,-89.57 2069.22,-95 2079.72,-96.43 2078.32,-89.57"/>
</g>
<!-- Node18 -->
<g id="node18" class="node">
<title>Node18</title>
<g id="a_node18"><a xlink:href="java__types_8cpp.html" target="_top" xlink:title=" ">
<polygon fill="none" stroke="black" points="2876,-0.5 2876,-52.5 3076,-52.5 3076,-0.5 2876,-0.5"/>
<text text-anchor="start" x="2884" y="-40.5" font-family="Helvetica,sans-Serif" font-size="10.00">/home/runner/work/cbmc</text>
<text text-anchor="start" x="2884" y="-29.5" font-family="Helvetica,sans-Serif" font-size="10.00">&#45;documentation/cbmc&#45;documentation</text>
<text text-anchor="start" x="2884" y="-18.5" font-family="Helvetica,sans-Serif" font-size="10.00">/jbmc/src/java_bytecode/java</text>
<text text-anchor="middle" x="2976" y="-7.5" font-family="Helvetica,sans-Serif" font-size="10.00">_types.cpp</text>
</a>
</g>
</g>
<!-- Node4&#45;&gt;Node18 -->
<g id="edge17" class="edge">
<title>Node4&#45;&gt;Node18</title>
<path fill="none" stroke="midnightblue" d="M2078.57,-92.93C2086.45,-91.41 2094.35,-90.07 2102,-89 2439.12,-42.04 2529.88,-99.96 2867,-53 2869.89,-52.6 2872.81,-52.16 2875.76,-51.68"/>
<polygon fill="midnightblue" stroke="midnightblue" points="2077.71,-89.53 2068.6,-94.94 2079.1,-96.4 2077.71,-89.53"/>
</g>
<!-- Node19 -->
<g id="node19" class="node">
<title>Node19</title>
<g id="a_node19"><a xlink:href="java__utils_8cpp.html" target="_top" xlink:title=" ">
<polygon fill="none" stroke="black" points="3094,-0.5 3094,-52.5 3294,-52.5 3294,-0.5 3094,-0.5"/>
<text text-anchor="start" x="3102" y="-40.5" font-family="Helvetica,sans-Serif" font-size="10.00">/home/runner/work/cbmc</text>
<text text-anchor="start" x="3102" y="-29.5" font-family="Helvetica,sans-Serif" font-size="10.00">&#45;documentation/cbmc&#45;documentation</text>
<text text-anchor="start" x="3102" y="-18.5" font-family="Helvetica,sans-Serif" font-size="10.00">/jbmc/src/java_bytecode/java</text>
<text text-anchor="middle" x="3194" y="-7.5" font-family="Helvetica,sans-Serif" font-size="10.00">_utils.cpp</text>
</a>
</g>
</g>
<!-- Node4&#45;&gt;Node19 -->
<g id="edge18" class="edge">
<title>Node4&#45;&gt;Node19</title>
<path fill="none" stroke="midnightblue" d="M2077.87,-92.98C2085.99,-91.42 2094.13,-90.06 2102,-89 2535.31,-30.94 2651.69,-111.06 3085,-53 3087.89,-52.61 3090.81,-52.18 3093.76,-51.72"/>
<polygon fill="midnightblue" stroke="midnightblue" points="2077.11,-89.56 2068,-94.96 2078.49,-96.42 2077.11,-89.56"/>
</g>
<!-- Node20 -->
<g id="node20" class="node">
<title>Node20</title>
<g id="a_node20"><a xlink:href="lambda__synthesis_8cpp.html" target="_top" xlink:title=" ">
<polygon fill="none" stroke="black" points="3312,-0.5 3312,-52.5 3512,-52.5 3512,-0.5 3312,-0.5"/>
<text text-anchor="start" x="3320" y="-40.5" font-family="Helvetica,sans-Serif" font-size="10.00">/home/runner/work/cbmc</text>
<text text-anchor="start" x="3320" y="-29.5" font-family="Helvetica,sans-Serif" font-size="10.00">&#45;documentation/cbmc&#45;documentation</text>
<text text-anchor="start" x="3320" y="-18.5" font-family="Helvetica,sans-Serif" font-size="10.00">/jbmc/src/java_bytecode/lambda</text>
<text text-anchor="middle" x="3412" y="-7.5" font-family="Helvetica,sans-Serif" font-size="10.00">_synthesis.cpp</text>
</a>
</g>
</g>
<!-- Node4&#45;&gt;Node20 -->
<g id="edge19" class="edge">
<title>Node4&#45;&gt;Node20</title>
<path fill="none" stroke="midnightblue" d="M2077.65,-92.96C2085.84,-91.4 2094.05,-90.04 2102,-89 2631.52,-19.83 2773.48,-122.17 3303,-53 3305.89,-52.62 3308.82,-52.2 3311.76,-51.74"/>
<polygon fill="midnightblue" stroke="midnightblue" points="2076.81,-89.56 2067.69,-94.95 2078.18,-96.43 2076.81,-89.56"/>
</g>
<!-- Node21 -->
<g id="node21" class="node">
<title>Node21</title>
<g id="a_node21"><a xlink:href="remove__java__new_8cpp.html" target="_top" xlink:title=" ">
<polygon fill="none" stroke="black" points="3530,-0.5 3530,-52.5 3730,-52.5 3730,-0.5 3530,-0.5"/>
<text text-anchor="start" x="3538" y="-40.5" font-family="Helvetica,sans-Serif" font-size="10.00">/home/runner/work/cbmc</text>
<text text-anchor="start" x="3538" y="-29.5" font-family="Helvetica,sans-Serif" font-size="10.00">&#45;documentation/cbmc&#45;documentation</text>
<text text-anchor="start" x="3538" y="-18.5" font-family="Helvetica,sans-Serif" font-size="10.00">/jbmc/src/java_bytecode/remove</text>
<text text-anchor="middle" x="3630" y="-7.5" font-family="Helvetica,sans-Serif" font-size="10.00">_java_new.cpp</text>
</a>
</g>
</g>
<!-- Node4&#45;&gt;Node21 -->
<g id="edge20" class="edge">
<title>Node4&#45;&gt;Node21</title>
<path fill="none" stroke="midnightblue" d="M2077.43,-92.96C2085.69,-91.4 2093.98,-90.03 2102,-89 2727.74,-8.73 2895.26,-133.27 3521,-53 3523.89,-52.63 3526.82,-52.21 3529.77,-51.76"/>
<polygon fill="midnightblue" stroke="midnightblue" points="2076.51,-89.58 2067.39,-94.97 2077.88,-96.44 2076.51,-89.58"/>
</g>
<!-- Node22 -->
<g id="node22" class="node">
<title>Node22</title>
<g id="a_node22"><a xlink:href="simple__method__stubbing_8cpp.html" target="_top" xlink:title=" ">
<polygon fill="none" stroke="black" points="3748,-0.5 3748,-52.5 3948,-52.5 3948,-0.5 3748,-0.5"/>
<text text-anchor="start" x="3756" y="-40.5" font-family="Helvetica,sans-Serif" font-size="10.00">/home/runner/work/cbmc</text>
<text text-anchor="start" x="3756" y="-29.5" font-family="Helvetica,sans-Serif" font-size="10.00">&#45;documentation/cbmc&#45;documentation</text>
<text text-anchor="start" x="3756" y="-18.5" font-family="Helvetica,sans-Serif" font-size="10.00">/jbmc/src/java_bytecode/simple</text>
<text text-anchor="middle" x="3848" y="-7.5" font-family="Helvetica,sans-Serif" font-size="10.00">_method_stubbing.cpp</text>
</a>
</g>
</g>
<!-- Node4&#45;&gt;Node22 -->
<g id="edge21" class="edge">
<title>Node4&#45;&gt;Node22</title>
<path fill="none" stroke="midnightblue" d="M2076.94,-93.03C2085.37,-91.43 2093.82,-90.03 2102,-89 2823.97,2.38 3017.03,-144.38 3739,-53 3741.89,-52.63 3744.82,-52.22 3747.77,-51.77"/>
<polygon fill="midnightblue" stroke="midnightblue" points="2076.21,-89.61 2067.09,-95 2077.58,-96.47 2076.21,-89.61"/>
</g>
<!-- Node23 -->
<g id="node23" class="node">
<title>Node23</title>
<g id="a_node23"><a xlink:href="java__syntactic__diff_8cpp.html" target="_top" xlink:title=" ">
<polygon fill="none" stroke="black" points="3966,-6 3966,-47 4166,-47 4166,-6 3966,-6"/>
<text text-anchor="start" x="3974" y="-35" font-family="Helvetica,sans-Serif" font-size="10.00">/home/runner/work/cbmc</text>
<text text-anchor="start" x="3974" y="-24" font-family="Helvetica,sans-Serif" font-size="10.00">&#45;documentation/cbmc&#45;documentation</text>
<text text-anchor="middle" x="4066" y="-13" font-family="Helvetica,sans-Serif" font-size="10.00">/jbmc/src/jdiff/java_syntactic_diff.cpp</text>
</a>
</g>
</g>
<!-- Node4&#45;&gt;Node23 -->
<g id="edge22" class="edge">
<title>Node4&#45;&gt;Node23</title>
<path fill="none" stroke="midnightblue" d="M2076.94,-93.01C2085.36,-91.41 2093.82,-90.02 2102,-89 2920.21,13.49 3138.79,-155.49 3957,-53 3968.38,-51.57 3980.3,-49.45 3991.91,-47.03"/>
<polygon fill="midnightblue" stroke="midnightblue" points="2076.21,-89.58 2067.09,-94.97 2077.58,-96.45 2076.21,-89.58"/>
</g>
</g>
</svg>
