<?xml version="1.0" encoding="UTF-8" standalone="no"?>
<!DOCTYPE svg PUBLIC "-//W3C//DTD SVG 1.1//EN"
 "http://www.w3.org/Graphics/SVG/1.1/DTD/svg11.dtd">
<!-- Generated by graphviz version 2.43.0 (0)
 -->
<!-- Title: /home/runner/work/cbmc&#45;documentation/cbmc&#45;documentation/src/solvers/smt2_incremental/response_or_error.h Pages: 1 -->
<svg width="2108pt" height="595pt"
 viewBox="0.00 0.00 2108.00 595.00" xmlns="http://www.w3.org/2000/svg" xmlns:xlink="http://www.w3.org/1999/xlink">
<g id="graph0" class="graph" transform="scale(1 1) rotate(0) translate(4 591)">
<title>/home/runner/work/cbmc&#45;documentation/cbmc&#45;documentation/src/solvers/smt2_incremental/response_or_error.h</title>
<!-- Node1 -->
<g id="node1" class="node">
<title>Node1</title>
<g id="a_node1"><a xlink:title=" ">
<polygon fill="#bfbfbf" stroke="black" points="1344,-534.5 1344,-586.5 1544,-586.5 1544,-534.5 1344,-534.5"/>
<text text-anchor="start" x="1352" y="-574.5" font-family="Helvetica,sans-Serif" font-size="10.00">/home/runner/work/cbmc</text>
<text text-anchor="start" x="1352" y="-563.5" font-family="Helvetica,sans-Serif" font-size="10.00">&#45;documentation/cbmc&#45;documentation</text>
<text text-anchor="start" x="1352" y="-552.5" font-family="Helvetica,sans-Serif" font-size="10.00">/src/solvers/smt2_incremental</text>
<text text-anchor="middle" x="1444" y="-541.5" font-family="Helvetica,sans-Serif" font-size="10.00">/response_or_error.h</text>
</a>
</g>
</g>
<!-- Node2 -->
<g id="node2" class="node">
<title>Node2</title>
<g id="a_node2"><a xlink:href="smt__response__validation_8h.html" target="_top" xlink:title=" ">
<polygon fill="none" stroke="black" points="1900,-89.5 1900,-141.5 2100,-141.5 2100,-89.5 1900,-89.5"/>
<text text-anchor="start" x="1908" y="-129.5" font-family="Helvetica,sans-Serif" font-size="10.00">/home/runner/work/cbmc</text>
<text text-anchor="start" x="1908" y="-118.5" font-family="Helvetica,sans-Serif" font-size="10.00">&#45;documentation/cbmc&#45;documentation</text>
<text text-anchor="start" x="1908" y="-107.5" font-family="Helvetica,sans-Serif" font-size="10.00">/src/solvers/smt2_incremental</text>
<text text-anchor="middle" x="2000" y="-96.5" font-family="Helvetica,sans-Serif" font-size="10.00">/smt_response_validation.h</text>
</a>
</g>
</g>
<!-- Node1&#45;&gt;Node2 -->
<g id="edge1" class="edge">
<title>Node1&#45;&gt;Node2</title>
<path fill="none" stroke="midnightblue" d="M1554.11,-543.55C1701.87,-518.99 1946,-465.94 1946,-383.5 1946,-383.5 1946,-383.5 1946,-292.5 1946,-236.73 1971.09,-175.21 1987.07,-141.7"/>
<polygon fill="midnightblue" stroke="midnightblue" points="1553.38,-540.12 1544.08,-545.2 1554.51,-547.03 1553.38,-540.12"/>
</g>
<!-- Node5 -->
<g id="node5" class="node">
<title>Node5</title>
<g id="a_node5"><a xlink:href="smt__terms_8h.html" target="_top" xlink:title=" ">
<polygon fill="none" stroke="black" points="1005,-445.5 1005,-497.5 1205,-497.5 1205,-445.5 1005,-445.5"/>
<text text-anchor="start" x="1013" y="-485.5" font-family="Helvetica,sans-Serif" font-size="10.00">/home/runner/work/cbmc</text>
<text text-anchor="start" x="1013" y="-474.5" font-family="Helvetica,sans-Serif" font-size="10.00">&#45;documentation/cbmc&#45;documentation</text>
<text text-anchor="start" x="1013" y="-463.5" font-family="Helvetica,sans-Serif" font-size="10.00">/src/solvers/smt2_incremental</text>
<text text-anchor="middle" x="1105" y="-452.5" font-family="Helvetica,sans-Serif" font-size="10.00">/smt_terms.h</text>
</a>
</g>
</g>
<!-- Node1&#45;&gt;Node5 -->
<g id="edge4" class="edge">
<title>Node1&#45;&gt;Node5</title>
<path fill="none" stroke="midnightblue" d="M1336.48,-531.91C1293.52,-520.88 1244.4,-508.28 1202.5,-497.52"/>
<polygon fill="midnightblue" stroke="midnightblue" points="1335.85,-535.36 1346.4,-534.45 1337.59,-528.58 1335.85,-535.36"/>
</g>
<!-- Node3 -->
<g id="node3" class="node">
<title>Node3</title>
<g id="a_node3"><a xlink:href="smt__response__validation_8cpp.html" target="_top" xlink:title=" ">
<polygon fill="none" stroke="black" points="1400,-0.5 1400,-52.5 1600,-52.5 1600,-0.5 1400,-0.5"/>
<text text-anchor="start" x="1408" y="-40.5" font-family="Helvetica,sans-Serif" font-size="10.00">/home/runner/work/cbmc</text>
<text text-anchor="start" x="1408" y="-29.5" font-family="Helvetica,sans-Serif" font-size="10.00">&#45;documentation/cbmc&#45;documentation</text>
<text text-anchor="start" x="1408" y="-18.5" font-family="Helvetica,sans-Serif" font-size="10.00">/src/solvers/smt2_incremental</text>
<text text-anchor="middle" x="1500" y="-7.5" font-family="Helvetica,sans-Serif" font-size="10.00">/smt_response_validation.cpp</text>
</a>
</g>
</g>
<!-- Node2&#45;&gt;Node3 -->
<g id="edge2" class="edge">
<title>Node2&#45;&gt;Node3</title>
<path fill="none" stroke="midnightblue" d="M1890.07,-88.89C1778.99,-68.34 1748.67,-70.48 1641,-53 1627.74,-50.85 1613.8,-48.47 1600.06,-46.05"/>
<polygon fill="midnightblue" stroke="midnightblue" points="1889.51,-92.35 1899.99,-90.75 1890.8,-85.47 1889.51,-92.35"/>
</g>
<!-- Node4 -->
<g id="node4" class="node">
<title>Node4</title>
<g id="a_node4"><a xlink:href="smt__solver__process_8cpp.html" target="_top" xlink:title=" ">
<polygon fill="none" stroke="black" points="1884,-0.5 1884,-52.5 2084,-52.5 2084,-0.5 1884,-0.5"/>
<text text-anchor="start" x="1892" y="-40.5" font-family="Helvetica,sans-Serif" font-size="10.00">/home/runner/work/cbmc</text>
<text text-anchor="start" x="1892" y="-29.5" font-family="Helvetica,sans-Serif" font-size="10.00">&#45;documentation/cbmc&#45;documentation</text>
<text text-anchor="start" x="1892" y="-18.5" font-family="Helvetica,sans-Serif" font-size="10.00">/src/solvers/smt2_incremental</text>
<text text-anchor="middle" x="1984" y="-7.5" font-family="Helvetica,sans-Serif" font-size="10.00">/smt_solver_process.cpp</text>
</a>
</g>
</g>
<!-- Node2&#45;&gt;Node4 -->
<g id="edge3" class="edge">
<title>Node2&#45;&gt;Node4</title>
<path fill="none" stroke="midnightblue" d="M1993.56,-79.48C1991.91,-70.49 1990.16,-60.99 1988.62,-52.61"/>
<polygon fill="midnightblue" stroke="midnightblue" points="1990.12,-80.13 1995.37,-89.34 1997.01,-78.87 1990.12,-80.13"/>
</g>
<!-- Node6 -->
<g id="node6" class="node">
<title>Node6</title>
<g id="a_node6"><a xlink:href="construct__value__expr__from__smt_8cpp.html" target="_top" xlink:title=" ">
<polygon fill="none" stroke="black" points="1114,-356.5 1114,-408.5 1314,-408.5 1314,-356.5 1114,-356.5"/>
<text text-anchor="start" x="1122" y="-396.5" font-family="Helvetica,sans-Serif" font-size="10.00">/home/runner/work/cbmc</text>
<text text-anchor="start" x="1122" y="-385.5" font-family="Helvetica,sans-Serif" font-size="10.00">&#45;documentation/cbmc&#45;documentation</text>
<text text-anchor="start" x="1122" y="-374.5" font-family="Helvetica,sans-Serif" font-size="10.00">/src/solvers/smt2_incremental</text>
<text text-anchor="middle" x="1214" y="-363.5" font-family="Helvetica,sans-Serif" font-size="10.00">/construct_value_expr_from_smt.cpp</text>
</a>
</g>
</g>
<!-- Node5&#45;&gt;Node6 -->
<g id="edge5" class="edge">
<title>Node5&#45;&gt;Node6</title>
<path fill="none" stroke="midnightblue" d="M1144.55,-438.93C1157.05,-428.96 1170.69,-418.07 1182.54,-408.61"/>
<polygon fill="midnightblue" stroke="midnightblue" points="1142.16,-436.36 1136.53,-445.34 1146.53,-441.83 1142.16,-436.36"/>
</g>
<!-- Node7 -->
<g id="node7" class="node">
<title>Node7</title>
<g id="a_node7"><a xlink:href="convert__expr__to__smt_8h.html" target="_top" xlink:title=" ">
<polygon fill="none" stroke="black" points="526,-89.5 526,-141.5 726,-141.5 726,-89.5 526,-89.5"/>
<text text-anchor="start" x="534" y="-129.5" font-family="Helvetica,sans-Serif" font-size="10.00">/home/runner/work/cbmc</text>
<text text-anchor="start" x="534" y="-118.5" font-family="Helvetica,sans-Serif" font-size="10.00">&#45;documentation/cbmc&#45;documentation</text>
<text text-anchor="start" x="534" y="-107.5" font-family="Helvetica,sans-Serif" font-size="10.00">/src/solvers/smt2_incremental</text>
<text text-anchor="middle" x="626" y="-96.5" font-family="Helvetica,sans-Serif" font-size="10.00">/convert_expr_to_smt.h</text>
</a>
</g>
</g>
<!-- Node5&#45;&gt;Node7 -->
<g id="edge6" class="edge">
<title>Node5&#45;&gt;Node7</title>
<path fill="none" stroke="midnightblue" d="M994.94,-461.75C922.78,-453.57 827.29,-438.04 747,-409 672.66,-382.11 632.51,-388.47 593,-320 559.91,-262.65 591.88,-181.91 612.16,-141.54"/>
<polygon fill="midnightblue" stroke="midnightblue" points="994.64,-465.24 1004.96,-462.85 995.4,-458.28 994.64,-465.24"/>
</g>
<!-- Node9 -->
<g id="node9" class="node">
<title>Node9</title>
<g id="a_node9"><a xlink:href="smt2__incremental__decision__procedure_8cpp.html" target="_top" xlink:title=" ">
<polygon fill="none" stroke="black" points="1090,-0.5 1090,-52.5 1318,-52.5 1318,-0.5 1090,-0.5"/>
<text text-anchor="start" x="1098" y="-40.5" font-family="Helvetica,sans-Serif" font-size="10.00">/home/runner/work/cbmc</text>
<text text-anchor="start" x="1098" y="-29.5" font-family="Helvetica,sans-Serif" font-size="10.00">&#45;documentation/cbmc&#45;documentation</text>
<text text-anchor="start" x="1098" y="-18.5" font-family="Helvetica,sans-Serif" font-size="10.00">/src/solvers/smt2_incremental</text>
<text text-anchor="middle" x="1204" y="-7.5" font-family="Helvetica,sans-Serif" font-size="10.00">/smt2_incremental_decision_procedure.cpp</text>
</a>
</g>
</g>
<!-- Node5&#45;&gt;Node9 -->
<g id="edge14" class="edge">
<title>Node5&#45;&gt;Node9</title>
<path fill="none" stroke="midnightblue" d="M1215.27,-463.76C1347.78,-454.51 1555.35,-435.92 1579,-409 1594.55,-391.3 1586.66,-378.27 1579,-356 1539.75,-241.92 1481.09,-240.9 1412,-142 1396.11,-119.25 1400.65,-106.36 1379,-89 1359.4,-73.29 1335.5,-61.44 1311.74,-52.56"/>
<polygon fill="midnightblue" stroke="midnightblue" points="1214.81,-460.28 1205.08,-464.46 1215.29,-467.27 1214.81,-460.28"/>
</g>
<!-- Node12 -->
<g id="node12" class="node">
<title>Node12</title>
<g id="a_node12"><a xlink:href="smt2__incremental__decision__procedure_8h.html" target="_top" xlink:title=" ">
<polygon fill="none" stroke="black" points="1152.5,-89.5 1152.5,-141.5 1369.5,-141.5 1369.5,-89.5 1152.5,-89.5"/>
<text text-anchor="start" x="1160.5" y="-129.5" font-family="Helvetica,sans-Serif" font-size="10.00">/home/runner/work/cbmc</text>
<text text-anchor="start" x="1160.5" y="-118.5" font-family="Helvetica,sans-Serif" font-size="10.00">&#45;documentation/cbmc&#45;documentation</text>
<text text-anchor="start" x="1160.5" y="-107.5" font-family="Helvetica,sans-Serif" font-size="10.00">/src/solvers/smt2_incremental</text>
<text text-anchor="middle" x="1261" y="-96.5" font-family="Helvetica,sans-Serif" font-size="10.00">/smt2_incremental_decision_procedure.h</text>
</a>
</g>
</g>
<!-- Node5&#45;&gt;Node12 -->
<g id="edge11" class="edge">
<title>Node5&#45;&gt;Node12</title>
<path fill="none" stroke="midnightblue" d="M1215.24,-464.78C1356.45,-456.3 1586.14,-438.18 1612,-409 1712.47,-295.6 1467.64,-188.59 1336.83,-141.56"/>
<polygon fill="midnightblue" stroke="midnightblue" points="1215.01,-461.28 1205.23,-465.37 1215.42,-468.27 1215.01,-461.28"/>
</g>
<!-- Node14 -->
<g id="node14" class="node">
<title>Node14</title>
<g id="a_node14"><a xlink:href="smt__array__theory_8h.html" target="_top" xlink:title=" ">
<polygon fill="none" stroke="black" points="858,-89.5 858,-141.5 1058,-141.5 1058,-89.5 858,-89.5"/>
<text text-anchor="start" x="866" y="-129.5" font-family="Helvetica,sans-Serif" font-size="10.00">/home/runner/work/cbmc</text>
<text text-anchor="start" x="866" y="-118.5" font-family="Helvetica,sans-Serif" font-size="10.00">&#45;documentation/cbmc&#45;documentation</text>
<text text-anchor="start" x="866" y="-107.5" font-family="Helvetica,sans-Serif" font-size="10.00">/src/solvers/smt2_incremental</text>
<text text-anchor="middle" x="958" y="-96.5" font-family="Helvetica,sans-Serif" font-size="10.00">/smt_array_theory.h</text>
</a>
</g>
</g>
<!-- Node5&#45;&gt;Node14 -->
<g id="edge15" class="edge">
<title>Node5&#45;&gt;Node14</title>
<path fill="none" stroke="midnightblue" d="M994.74,-452.12C947.93,-441.86 900.93,-427.41 887,-409 824.4,-326.29 901.57,-195.99 939.39,-141.62"/>
<polygon fill="midnightblue" stroke="midnightblue" points="994.21,-455.59 1004.71,-454.25 995.66,-448.74 994.21,-455.59"/>
</g>
<!-- Node16 -->
<g id="node16" class="node">
<title>Node16</title>
<g id="a_node16"><a xlink:href="smt__bit__vector__theory_8h.html" target="_top" xlink:title=" ">
<polygon fill="none" stroke="black" points="346,-356.5 346,-408.5 546,-408.5 546,-356.5 346,-356.5"/>
<text text-anchor="start" x="354" y="-396.5" font-family="Helvetica,sans-Serif" font-size="10.00">/home/runner/work/cbmc</text>
<text text-anchor="start" x="354" y="-385.5" font-family="Helvetica,sans-Serif" font-size="10.00">&#45;documentation/cbmc&#45;documentation</text>
<text text-anchor="start" x="354" y="-374.5" font-family="Helvetica,sans-Serif" font-size="10.00">/src/solvers/smt2_incremental</text>
<text text-anchor="middle" x="446" y="-363.5" font-family="Helvetica,sans-Serif" font-size="10.00">/smt_bit_vector_theory.h</text>
</a>
</g>
</g>
<!-- Node5&#45;&gt;Node16 -->
<g id="edge20" class="edge">
<title>Node5&#45;&gt;Node16</title>
<path fill="none" stroke="midnightblue" d="M994.7,-461.56C884.26,-451.79 709.69,-434.11 560,-409 555.5,-408.25 550.91,-407.43 546.28,-406.56"/>
<polygon fill="midnightblue" stroke="midnightblue" points="994.58,-465.07 1004.85,-462.46 995.2,-458.09 994.58,-465.07"/>
</g>
<!-- Node18 -->
<g id="node18" class="node">
<title>Node18</title>
<g id="a_node18"><a xlink:href="smt__commands_8h.html" target="_top" xlink:title=" ">
<polygon fill="none" stroke="black" points="896,-356.5 896,-408.5 1096,-408.5 1096,-356.5 896,-356.5"/>
<text text-anchor="start" x="904" y="-396.5" font-family="Helvetica,sans-Serif" font-size="10.00">/home/runner/work/cbmc</text>
<text text-anchor="start" x="904" y="-385.5" font-family="Helvetica,sans-Serif" font-size="10.00">&#45;documentation/cbmc&#45;documentation</text>
<text text-anchor="start" x="904" y="-374.5" font-family="Helvetica,sans-Serif" font-size="10.00">/src/solvers/smt2_incremental</text>
<text text-anchor="middle" x="996" y="-363.5" font-family="Helvetica,sans-Serif" font-size="10.00">/smt_commands.h</text>
</a>
</g>
</g>
<!-- Node5&#45;&gt;Node18 -->
<g id="edge23" class="edge">
<title>Node5&#45;&gt;Node18</title>
<path fill="none" stroke="midnightblue" d="M1065.45,-438.93C1052.95,-428.96 1039.31,-418.07 1027.46,-408.61"/>
<polygon fill="midnightblue" stroke="midnightblue" points="1063.47,-441.83 1073.47,-445.34 1067.84,-436.36 1063.47,-441.83"/>
</g>
<!-- Node20 -->
<g id="node20" class="node">
<title>Node20</title>
<g id="a_node20"><a xlink:href="smt__object__size_8h.html" target="_top" xlink:title=" ">
<polygon fill="none" stroke="black" points="602,-267.5 602,-319.5 802,-319.5 802,-267.5 602,-267.5"/>
<text text-anchor="start" x="610" y="-307.5" font-family="Helvetica,sans-Serif" font-size="10.00">/home/runner/work/cbmc</text>
<text text-anchor="start" x="610" y="-296.5" font-family="Helvetica,sans-Serif" font-size="10.00">&#45;documentation/cbmc&#45;documentation</text>
<text text-anchor="start" x="610" y="-285.5" font-family="Helvetica,sans-Serif" font-size="10.00">/src/solvers/smt2_incremental</text>
<text text-anchor="middle" x="702" y="-274.5" font-family="Helvetica,sans-Serif" font-size="10.00">/smt_object_size.h</text>
</a>
</g>
</g>
<!-- Node5&#45;&gt;Node20 -->
<g id="edge41" class="edge">
<title>Node5&#45;&gt;Node20</title>
<path fill="none" stroke="midnightblue" d="M994.77,-462.08C938.57,-454.16 870.72,-438.8 816,-409 775.6,-387 740.18,-346.2 719.93,-319.71"/>
<polygon fill="midnightblue" stroke="midnightblue" points="994.39,-465.56 1004.76,-463.43 995.32,-458.63 994.39,-465.56"/>
</g>
<!-- Node21 -->
<g id="node21" class="node">
<title>Node21</title>
<g id="a_node21"><a xlink:href="type__size__mapping_8h.html" target="_top" xlink:title=" ">
<polygon fill="none" stroke="black" points="654,-178.5 654,-230.5 854,-230.5 854,-178.5 654,-178.5"/>
<text text-anchor="start" x="662" y="-218.5" font-family="Helvetica,sans-Serif" font-size="10.00">/home/runner/work/cbmc</text>
<text text-anchor="start" x="662" y="-207.5" font-family="Helvetica,sans-Serif" font-size="10.00">&#45;documentation/cbmc&#45;documentation</text>
<text text-anchor="start" x="662" y="-196.5" font-family="Helvetica,sans-Serif" font-size="10.00">/src/solvers/smt2_incremental</text>
<text text-anchor="middle" x="754" y="-185.5" font-family="Helvetica,sans-Serif" font-size="10.00">/type_size_mapping.h</text>
</a>
</g>
</g>
<!-- Node5&#45;&gt;Node21 -->
<g id="edge52" class="edge">
<title>Node5&#45;&gt;Node21</title>
<path fill="none" stroke="midnightblue" d="M994.93,-454.53C937.45,-444.09 874.82,-428.73 854,-409 806.14,-363.64 843.81,-324.2 811,-267 803.4,-253.74 792.44,-241.01 782.16,-230.61"/>
<polygon fill="midnightblue" stroke="midnightblue" points="994.39,-457.99 1004.85,-456.29 995.62,-451.09 994.39,-457.99"/>
</g>
<!-- Node22 -->
<g id="node22" class="node">
<title>Node22</title>
<g id="a_node22"><a xlink:href="smt__to__smt2__string_8cpp.html" target="_top" xlink:title=" ">
<polygon fill="none" stroke="black" points="1197,-267.5 1197,-319.5 1397,-319.5 1397,-267.5 1197,-267.5"/>
<text text-anchor="start" x="1205" y="-307.5" font-family="Helvetica,sans-Serif" font-size="10.00">/home/runner/work/cbmc</text>
<text text-anchor="start" x="1205" y="-296.5" font-family="Helvetica,sans-Serif" font-size="10.00">&#45;documentation/cbmc&#45;documentation</text>
<text text-anchor="start" x="1205" y="-285.5" font-family="Helvetica,sans-Serif" font-size="10.00">/src/solvers/smt2_incremental</text>
<text text-anchor="middle" x="1297" y="-274.5" font-family="Helvetica,sans-Serif" font-size="10.00">/smt_to_smt2_string.cpp</text>
</a>
</g>
</g>
<!-- Node5&#45;&gt;Node22 -->
<g id="edge51" class="edge">
<title>Node5&#45;&gt;Node22</title>
<path fill="none" stroke="midnightblue" d="M1215.26,-452.12C1262.07,-441.86 1309.07,-427.41 1323,-409 1342.68,-382.99 1327.61,-344.77 1313.53,-319.76"/>
<polygon fill="midnightblue" stroke="midnightblue" points="1214.34,-448.74 1205.29,-454.25 1215.79,-455.59 1214.34,-448.74"/>
</g>
<!-- Node23 -->
<g id="node23" class="node">
<title>Node23</title>
<g id="a_node23"><a xlink:href="smt__core__theory_8h.html" target="_top" xlink:title=" ">
<polygon fill="none" stroke="black" points="218,-89.5 218,-141.5 418,-141.5 418,-89.5 218,-89.5"/>
<text text-anchor="start" x="226" y="-129.5" font-family="Helvetica,sans-Serif" font-size="10.00">/home/runner/work/cbmc</text>
<text text-anchor="start" x="226" y="-118.5" font-family="Helvetica,sans-Serif" font-size="10.00">&#45;documentation/cbmc&#45;documentation</text>
<text text-anchor="start" x="226" y="-107.5" font-family="Helvetica,sans-Serif" font-size="10.00">/src/solvers/smt2_incremental</text>
<text text-anchor="middle" x="318" y="-96.5" font-family="Helvetica,sans-Serif" font-size="10.00">/smt_core_theory.h</text>
</a>
</g>
</g>
<!-- Node5&#45;&gt;Node23 -->
<g id="edge36" class="edge">
<title>Node5&#45;&gt;Node23</title>
<path fill="none" stroke="midnightblue" d="M994.69,-466.32C796.2,-458.12 394.09,-438.14 337,-409 290.67,-385.35 279,-368.8 261,-320 237.83,-257.18 276.66,-180.51 300.87,-141.66"/>
<polygon fill="midnightblue" stroke="midnightblue" points="994.72,-469.83 1004.86,-466.74 995.01,-462.83 994.72,-469.83"/>
</g>
<!-- Node25 -->
<g id="node25" class="node">
<title>Node25</title>
<g id="a_node25"><a xlink:href="smt__responses_8h.html" target="_top" xlink:title=" ">
<polygon fill="none" stroke="black" points="1664,-178.5 1664,-230.5 1864,-230.5 1864,-178.5 1664,-178.5"/>
<text text-anchor="start" x="1672" y="-218.5" font-family="Helvetica,sans-Serif" font-size="10.00">/home/runner/work/cbmc</text>
<text text-anchor="start" x="1672" y="-207.5" font-family="Helvetica,sans-Serif" font-size="10.00">&#45;documentation/cbmc&#45;documentation</text>
<text text-anchor="start" x="1672" y="-196.5" font-family="Helvetica,sans-Serif" font-size="10.00">/src/solvers/smt2_incremental</text>
<text text-anchor="middle" x="1764" y="-185.5" font-family="Helvetica,sans-Serif" font-size="10.00">/smt_responses.h</text>
</a>
</g>
</g>
<!-- Node5&#45;&gt;Node25 -->
<g id="edge42" class="edge">
<title>Node5&#45;&gt;Node25</title>
<path fill="none" stroke="midnightblue" d="M1215.35,-469.73C1353.65,-466.79 1580.94,-454.87 1650,-409 1714.09,-366.43 1745.84,-274.95 1757.96,-230.62"/>
<polygon fill="midnightblue" stroke="midnightblue" points="1215.07,-466.23 1205.14,-469.93 1215.21,-473.23 1215.07,-466.23"/>
</g>
<!-- Node28 -->
<g id="node28" class="node">
<title>Node28</title>
<g id="a_node28"><a xlink:href="smt__terms_8cpp.html" target="_top" xlink:title=" ">
<polygon fill="none" stroke="black" points="1370,-356.5 1370,-408.5 1570,-408.5 1570,-356.5 1370,-356.5"/>
<text text-anchor="start" x="1378" y="-396.5" font-family="Helvetica,sans-Serif" font-size="10.00">/home/runner/work/cbmc</text>
<text text-anchor="start" x="1378" y="-385.5" font-family="Helvetica,sans-Serif" font-size="10.00">&#45;documentation/cbmc&#45;documentation</text>
<text text-anchor="start" x="1378" y="-374.5" font-family="Helvetica,sans-Serif" font-size="10.00">/src/solvers/smt2_incremental</text>
<text text-anchor="middle" x="1470" y="-363.5" font-family="Helvetica,sans-Serif" font-size="10.00">/smt_terms.cpp</text>
</a>
</g>
</g>
<!-- Node5&#45;&gt;Node28 -->
<g id="edge50" class="edge">
<title>Node5&#45;&gt;Node28</title>
<path fill="none" stroke="midnightblue" d="M1215.25,-444.22C1264.36,-432.52 1321.79,-418.83 1369.69,-407.41"/>
<polygon fill="midnightblue" stroke="midnightblue" points="1214.14,-440.89 1205.22,-446.61 1215.76,-447.7 1214.14,-440.89"/>
</g>
<!-- Node8 -->
<g id="node8" class="node">
<title>Node8</title>
<g id="a_node8"><a xlink:href="convert__expr__to__smt_8cpp.html" target="_top" xlink:title=" ">
<polygon fill="none" stroke="black" points="436,-0.5 436,-52.5 636,-52.5 636,-0.5 436,-0.5"/>
<text text-anchor="start" x="444" y="-40.5" font-family="Helvetica,sans-Serif" font-size="10.00">/home/runner/work/cbmc</text>
<text text-anchor="start" x="444" y="-29.5" font-family="Helvetica,sans-Serif" font-size="10.00">&#45;documentation/cbmc&#45;documentation</text>
<text text-anchor="start" x="444" y="-18.5" font-family="Helvetica,sans-Serif" font-size="10.00">/src/solvers/smt2_incremental</text>
<text text-anchor="middle" x="536" y="-7.5" font-family="Helvetica,sans-Serif" font-size="10.00">/convert_expr_to_smt.cpp</text>
</a>
</g>
</g>
<!-- Node7&#45;&gt;Node8 -->
<g id="edge7" class="edge">
<title>Node7&#45;&gt;Node8</title>
<path fill="none" stroke="midnightblue" d="M592.75,-82.36C582.6,-72.54 571.58,-61.89 561.97,-52.61"/>
<polygon fill="midnightblue" stroke="midnightblue" points="590.35,-84.9 599.97,-89.34 595.21,-79.87 590.35,-84.9"/>
</g>
<!-- Node7&#45;&gt;Node9 -->
<g id="edge8" class="edge">
<title>Node7&#45;&gt;Node9</title>
<path fill="none" stroke="midnightblue" d="M736.37,-101.78C828.71,-90.61 963.81,-73.04 1081,-53 1083.9,-52.5 1086.84,-51.99 1089.8,-51.46"/>
<polygon fill="midnightblue" stroke="midnightblue" points="735.67,-98.34 726.16,-103.01 736.51,-105.29 735.67,-98.34"/>
</g>
<!-- Node10 -->
<g id="node10" class="node">
<title>Node10</title>
<g id="a_node10"><a xlink:href="smt__object__size_8cpp.html" target="_top" xlink:title=" ">
<polygon fill="none" stroke="black" points="218,-0.5 218,-52.5 418,-52.5 418,-0.5 218,-0.5"/>
<text text-anchor="start" x="226" y="-40.5" font-family="Helvetica,sans-Serif" font-size="10.00">/home/runner/work/cbmc</text>
<text text-anchor="start" x="226" y="-29.5" font-family="Helvetica,sans-Serif" font-size="10.00">&#45;documentation/cbmc&#45;documentation</text>
<text text-anchor="start" x="226" y="-18.5" font-family="Helvetica,sans-Serif" font-size="10.00">/src/solvers/smt2_incremental</text>
<text text-anchor="middle" x="318" y="-7.5" font-family="Helvetica,sans-Serif" font-size="10.00">/smt_object_size.cpp</text>
</a>
</g>
</g>
<!-- Node7&#45;&gt;Node10 -->
<g id="edge9" class="edge">
<title>Node7&#45;&gt;Node10</title>
<path fill="none" stroke="midnightblue" d="M527.57,-86.7C488.72,-75.72 444.41,-63.21 406.58,-52.52"/>
<polygon fill="midnightblue" stroke="midnightblue" points="526.75,-90.1 537.33,-89.45 528.65,-83.37 526.75,-90.1"/>
</g>
<!-- Node11 -->
<g id="node11" class="node">
<title>Node11</title>
<g id="a_node11"><a xlink:href="type__size__mapping_8cpp.html" target="_top" xlink:title=" ">
<polygon fill="none" stroke="black" points="654,-0.5 654,-52.5 854,-52.5 854,-0.5 654,-0.5"/>
<text text-anchor="start" x="662" y="-40.5" font-family="Helvetica,sans-Serif" font-size="10.00">/home/runner/work/cbmc</text>
<text text-anchor="start" x="662" y="-29.5" font-family="Helvetica,sans-Serif" font-size="10.00">&#45;documentation/cbmc&#45;documentation</text>
<text text-anchor="start" x="662" y="-18.5" font-family="Helvetica,sans-Serif" font-size="10.00">/src/solvers/smt2_incremental</text>
<text text-anchor="middle" x="754" y="-7.5" font-family="Helvetica,sans-Serif" font-size="10.00">/type_size_mapping.cpp</text>
</a>
</g>
</g>
<!-- Node7&#45;&gt;Node11 -->
<g id="edge10" class="edge">
<title>Node7&#45;&gt;Node11</title>
<path fill="none" stroke="midnightblue" d="M671.6,-83.5C686.51,-73.37 702.87,-62.25 717.06,-52.61"/>
<polygon fill="midnightblue" stroke="midnightblue" points="669.33,-80.82 663.02,-89.34 673.26,-86.61 669.33,-80.82"/>
</g>
<!-- Node12&#45;&gt;Node9 -->
<g id="edge13" class="edge">
<title>Node12&#45;&gt;Node9</title>
<path fill="none" stroke="midnightblue" d="M1239,-80.93C1232.83,-71.51 1226.24,-61.44 1220.45,-52.61"/>
<polygon fill="midnightblue" stroke="midnightblue" points="1236.11,-82.89 1244.51,-89.34 1241.96,-79.05 1236.11,-82.89"/>
</g>
<!-- Node13 -->
<g id="node13" class="node">
<title>Node13</title>
<g id="a_node13"><a xlink:href="solver__factory_8cpp.html" target="_top" xlink:title=" ">
<polygon fill="none" stroke="black" points="1650,-6 1650,-47 1850,-47 1850,-6 1650,-6"/>
<text text-anchor="start" x="1658" y="-35" font-family="Helvetica,sans-Serif" font-size="10.00">/home/runner/work/cbmc</text>
<text text-anchor="start" x="1658" y="-24" font-family="Helvetica,sans-Serif" font-size="10.00">&#45;documentation/cbmc&#45;documentation</text>
<text text-anchor="middle" x="1750" y="-13" font-family="Helvetica,sans-Serif" font-size="10.00">/src/goto&#45;checker/solver_factory.cpp</text>
</a>
</g>
</g>
<!-- Node12&#45;&gt;Node13 -->
<g id="edge12" class="edge">
<title>Node12&#45;&gt;Node13</title>
<path fill="none" stroke="midnightblue" d="M1379.78,-93.63C1447.05,-81.78 1532.74,-66.63 1609,-53 1622.22,-50.64 1636.14,-48.13 1649.87,-45.66"/>
<polygon fill="midnightblue" stroke="midnightblue" points="1378.81,-90.25 1369.57,-95.43 1380.02,-97.14 1378.81,-90.25"/>
</g>
<!-- Node14&#45;&gt;Node3 -->
<g id="edge19" class="edge">
<title>Node14&#45;&gt;Node3</title>
<path fill="none" stroke="midnightblue" d="M1068.19,-96.81C1165.3,-81.23 1305.57,-58.71 1399.62,-43.61"/>
<polygon fill="midnightblue" stroke="midnightblue" points="1067.36,-93.4 1058.04,-98.44 1068.47,-100.31 1067.36,-93.4"/>
</g>
<!-- Node14&#45;&gt;Node8 -->
<g id="edge16" class="edge">
<title>Node14&#45;&gt;Node8</title>
<path fill="none" stroke="midnightblue" d="M847.85,-93.85C787.78,-82.35 712.18,-67.45 645,-53 642.06,-52.37 639.07,-51.72 636.05,-51.05"/>
<polygon fill="midnightblue" stroke="midnightblue" points="847.25,-97.3 857.73,-95.74 848.57,-90.43 847.25,-97.3"/>
</g>
<!-- Node14&#45;&gt;Node9 -->
<g id="edge17" class="edge">
<title>Node14&#45;&gt;Node9</title>
<path fill="none" stroke="midnightblue" d="M1038.59,-86C1069.14,-75.19 1103.67,-62.98 1133.25,-52.52"/>
<polygon fill="midnightblue" stroke="midnightblue" points="1037.08,-82.82 1028.82,-89.45 1039.42,-89.42 1037.08,-82.82"/>
</g>
<!-- Node15 -->
<g id="node15" class="node">
<title>Node15</title>
<g id="a_node15"><a xlink:href="smt__array__theory_8cpp.html" target="_top" xlink:title=" ">
<polygon fill="none" stroke="black" points="872,-0.5 872,-52.5 1072,-52.5 1072,-0.5 872,-0.5"/>
<text text-anchor="start" x="880" y="-40.5" font-family="Helvetica,sans-Serif" font-size="10.00">/home/runner/work/cbmc</text>
<text text-anchor="start" x="880" y="-29.5" font-family="Helvetica,sans-Serif" font-size="10.00">&#45;documentation/cbmc&#45;documentation</text>
<text text-anchor="start" x="880" y="-18.5" font-family="Helvetica,sans-Serif" font-size="10.00">/src/solvers/smt2_incremental</text>
<text text-anchor="middle" x="972" y="-7.5" font-family="Helvetica,sans-Serif" font-size="10.00">/smt_array_theory.cpp</text>
</a>
</g>
</g>
<!-- Node14&#45;&gt;Node15 -->
<g id="edge18" class="edge">
<title>Node14&#45;&gt;Node15</title>
<path fill="none" stroke="midnightblue" d="M963.68,-79.19C965.12,-70.28 966.63,-60.9 967.96,-52.61"/>
<polygon fill="midnightblue" stroke="midnightblue" points="960.18,-78.91 962.05,-89.34 967.09,-80.02 960.18,-78.91"/>
</g>
<!-- Node16&#45;&gt;Node8 -->
<g id="edge21" class="edge">
<title>Node16&#45;&gt;Node8</title>
<path fill="none" stroke="midnightblue" d="M466.91,-347.29C471.48,-338.64 475.88,-329.18 479,-320 512.5,-221.49 493.14,-190.27 517,-89 519.84,-76.93 523.79,-63.76 527.36,-52.72"/>
<polygon fill="midnightblue" stroke="midnightblue" points="463.7,-345.87 461.94,-356.32 469.83,-349.25 463.7,-345.87"/>
</g>
<!-- Node17 -->
<g id="node17" class="node">
<title>Node17</title>
<g id="a_node17"><a xlink:href="smt__bit__vector__theory_8cpp.html" target="_top" xlink:title=" ">
<polygon fill="none" stroke="black" points="270,-267.5 270,-319.5 470,-319.5 470,-267.5 270,-267.5"/>
<text text-anchor="start" x="278" y="-307.5" font-family="Helvetica,sans-Serif" font-size="10.00">/home/runner/work/cbmc</text>
<text text-anchor="start" x="278" y="-296.5" font-family="Helvetica,sans-Serif" font-size="10.00">&#45;documentation/cbmc&#45;documentation</text>
<text text-anchor="start" x="278" y="-285.5" font-family="Helvetica,sans-Serif" font-size="10.00">/src/solvers/smt2_incremental</text>
<text text-anchor="middle" x="370" y="-274.5" font-family="Helvetica,sans-Serif" font-size="10.00">/smt_bit_vector_theory.cpp</text>
</a>
</g>
</g>
<!-- Node16&#45;&gt;Node17 -->
<g id="edge22" class="edge">
<title>Node16&#45;&gt;Node17</title>
<path fill="none" stroke="midnightblue" d="M417.43,-348.79C408.99,-339.13 399.88,-328.71 391.93,-319.61"/>
<polygon fill="midnightblue" stroke="midnightblue" points="414.8,-351.11 424.02,-356.34 420.07,-346.5 414.8,-351.11"/>
</g>
<!-- Node18&#45;&gt;Node9 -->
<g id="edge24" class="edge">
<title>Node18&#45;&gt;Node9</title>
<path fill="none" stroke="midnightblue" d="M1070.86,-351.19C1083.96,-342.85 1096.19,-332.54 1105,-320 1164.83,-234.79 1096.83,-181.82 1144,-89 1150.89,-75.44 1161.82,-62.92 1172.47,-52.76"/>
<polygon fill="midnightblue" stroke="midnightblue" points="1068.94,-348.26 1062.16,-356.39 1072.54,-354.26 1068.94,-348.26"/>
</g>
<!-- Node19 -->
<g id="node19" class="node">
<title>Node19</title>
<g id="a_node19"><a xlink:href="smt__commands_8cpp.html" target="_top" xlink:title=" ">
<polygon fill="none" stroke="black" points="896,-267.5 896,-319.5 1096,-319.5 1096,-267.5 896,-267.5"/>
<text text-anchor="start" x="904" y="-307.5" font-family="Helvetica,sans-Serif" font-size="10.00">/home/runner/work/cbmc</text>
<text text-anchor="start" x="904" y="-296.5" font-family="Helvetica,sans-Serif" font-size="10.00">&#45;documentation/cbmc&#45;documentation</text>
<text text-anchor="start" x="904" y="-285.5" font-family="Helvetica,sans-Serif" font-size="10.00">/src/solvers/smt2_incremental</text>
<text text-anchor="middle" x="996" y="-274.5" font-family="Helvetica,sans-Serif" font-size="10.00">/smt_commands.cpp</text>
</a>
</g>
</g>
<!-- Node18&#45;&gt;Node19 -->
<g id="edge25" class="edge">
<title>Node18&#45;&gt;Node19</title>
<path fill="none" stroke="midnightblue" d="M996,-346.19C996,-337.28 996,-327.9 996,-319.61"/>
<polygon fill="midnightblue" stroke="midnightblue" points="992.5,-346.34 996,-356.34 999.5,-346.34 992.5,-346.34"/>
</g>
<!-- Node18&#45;&gt;Node20 -->
<g id="edge26" class="edge">
<title>Node18&#45;&gt;Node20</title>
<path fill="none" stroke="midnightblue" d="M901.58,-353.56C864.6,-342.62 822.52,-330.16 786.55,-319.52"/>
<polygon fill="midnightblue" stroke="midnightblue" points="900.78,-356.97 911.36,-356.45 902.76,-350.26 900.78,-356.97"/>
</g>
<!-- Node18&#45;&gt;Node22 -->
<g id="edge35" class="edge">
<title>Node18&#45;&gt;Node22</title>
<path fill="none" stroke="midnightblue" d="M1092.67,-353.56C1130.53,-342.62 1173.62,-330.16 1210.43,-319.52"/>
<polygon fill="midnightblue" stroke="midnightblue" points="1091.29,-350.31 1082.66,-356.45 1093.24,-357.04 1091.29,-350.31"/>
</g>
<!-- Node20&#45;&gt;Node7 -->
<g id="edge27" class="edge">
<title>Node20&#45;&gt;Node7</title>
<path fill="none" stroke="midnightblue" d="M665.39,-259.98C657.55,-251.3 650.11,-241.41 645,-231 631.07,-202.6 627.08,-165.97 626.08,-141.88"/>
<polygon fill="midnightblue" stroke="midnightblue" points="662.91,-262.44 672.33,-267.28 667.98,-257.62 662.91,-262.44"/>
</g>
<!-- Node20&#45;&gt;Node10 -->
<g id="edge29" class="edge">
<title>Node20&#45;&gt;Node10</title>
<path fill="none" stroke="midnightblue" d="M662.71,-261.02C610.31,-219.59 514.03,-145.45 427,-89 407.31,-76.23 384.84,-63.29 365.43,-52.59"/>
<polygon fill="midnightblue" stroke="midnightblue" points="660.72,-263.91 670.74,-267.38 665.07,-258.42 660.72,-263.91"/>
</g>
<!-- Node20&#45;&gt;Node12 -->
<g id="edge28" class="edge">
<title>Node20&#45;&gt;Node12</title>
<path fill="none" stroke="midnightblue" d="M791.04,-264.47C898.65,-230.58 1078.1,-174.09 1181.32,-141.59"/>
<polygon fill="midnightblue" stroke="midnightblue" points="789.98,-261.13 781.5,-267.47 792.09,-267.81 789.98,-261.13"/>
</g>
<!-- Node20&#45;&gt;Node21 -->
<g id="edge30" class="edge">
<title>Node20&#45;&gt;Node21</title>
<path fill="none" stroke="midnightblue" d="M722.24,-258.64C727.82,-249.31 733.77,-239.35 738.99,-230.61"/>
<polygon fill="midnightblue" stroke="midnightblue" points="719.17,-256.96 717.04,-267.34 725.18,-260.55 719.17,-256.96"/>
</g>
<!-- Node21&#45;&gt;Node7 -->
<g id="edge31" class="edge">
<title>Node21&#45;&gt;Node7</title>
<path fill="none" stroke="midnightblue" d="M708.4,-172.5C693.49,-162.37 677.13,-151.25 662.94,-141.61"/>
<polygon fill="midnightblue" stroke="midnightblue" points="706.74,-175.61 716.98,-178.34 710.67,-169.82 706.74,-175.61"/>
</g>
<!-- Node21&#45;&gt;Node9 -->
<g id="edge33" class="edge">
<title>Node21&#45;&gt;Node9</title>
<path fill="none" stroke="midnightblue" d="M864.03,-200.25C927.25,-194.07 1005.97,-178.72 1067,-142 1092.99,-126.36 1087.48,-109.32 1110,-89 1124.91,-75.54 1143.04,-62.96 1159.38,-52.72"/>
<polygon fill="midnightblue" stroke="midnightblue" points="863.66,-196.77 854.02,-201.16 864.3,-203.74 863.66,-196.77"/>
</g>
<!-- Node21&#45;&gt;Node11 -->
<g id="edge34" class="edge">
<title>Node21&#45;&gt;Node11</title>
<path fill="none" stroke="midnightblue" d="M754,-168.25C754,-134.04 754,-82.97 754,-52.67"/>
<polygon fill="midnightblue" stroke="midnightblue" points="750.5,-168.28 754,-178.28 757.5,-168.28 750.5,-168.28"/>
</g>
<!-- Node21&#45;&gt;Node12 -->
<g id="edge32" class="edge">
<title>Node21&#45;&gt;Node12</title>
<path fill="none" stroke="midnightblue" d="M864.15,-184.6C949.54,-169.95 1067.24,-149.75 1152.26,-135.16"/>
<polygon fill="midnightblue" stroke="midnightblue" points="863.43,-181.17 854.17,-186.31 864.61,-188.07 863.43,-181.17"/>
</g>
<!-- Node23&#45;&gt;Node8 -->
<g id="edge37" class="edge">
<title>Node23&#45;&gt;Node8</title>
<path fill="none" stroke="midnightblue" d="M390.12,-85.72C417.02,-74.98 447.32,-62.89 473.3,-52.52"/>
<polygon fill="midnightblue" stroke="midnightblue" points="388.75,-82.5 380.76,-89.45 391.35,-89 388.75,-82.5"/>
</g>
<!-- Node23&#45;&gt;Node9 -->
<g id="edge38" class="edge">
<title>Node23&#45;&gt;Node9</title>
<path fill="none" stroke="midnightblue" d="M428.18,-99.11C457.04,-95.43 488.16,-91.77 517,-89 767.03,-65.03 832.08,-86.58 1081,-53 1083.92,-52.61 1086.87,-52.18 1089.84,-51.74"/>
<polygon fill="midnightblue" stroke="midnightblue" points="427.55,-95.66 418.08,-100.41 428.44,-102.6 427.55,-95.66"/>
</g>
<!-- Node23&#45;&gt;Node10 -->
<g id="edge40" class="edge">
<title>Node23&#45;&gt;Node10</title>
<path fill="none" stroke="midnightblue" d="M318,-79.19C318,-70.28 318,-60.9 318,-52.61"/>
<polygon fill="midnightblue" stroke="midnightblue" points="314.5,-79.34 318,-89.34 321.5,-79.34 314.5,-79.34"/>
</g>
<!-- Node24 -->
<g id="node24" class="node">
<title>Node24</title>
<g id="a_node24"><a xlink:href="smt__core__theory_8cpp.html" target="_top" xlink:title=" ">
<polygon fill="none" stroke="black" points="0,-0.5 0,-52.5 200,-52.5 200,-0.5 0,-0.5"/>
<text text-anchor="start" x="8" y="-40.5" font-family="Helvetica,sans-Serif" font-size="10.00">/home/runner/work/cbmc</text>
<text text-anchor="start" x="8" y="-29.5" font-family="Helvetica,sans-Serif" font-size="10.00">&#45;documentation/cbmc&#45;documentation</text>
<text text-anchor="start" x="8" y="-18.5" font-family="Helvetica,sans-Serif" font-size="10.00">/src/solvers/smt2_incremental</text>
<text text-anchor="middle" x="100" y="-7.5" font-family="Helvetica,sans-Serif" font-size="10.00">/smt_core_theory.cpp</text>
</a>
</g>
</g>
<!-- Node23&#45;&gt;Node24 -->
<g id="edge39" class="edge">
<title>Node23&#45;&gt;Node24</title>
<path fill="none" stroke="midnightblue" d="M245.88,-85.72C218.98,-74.98 188.68,-62.89 162.7,-52.52"/>
<polygon fill="midnightblue" stroke="midnightblue" points="244.65,-89 255.24,-89.45 247.25,-82.5 244.65,-89"/>
</g>
<!-- Node25&#45;&gt;Node2 -->
<g id="edge44" class="edge">
<title>Node25&#45;&gt;Node2</title>
<path fill="none" stroke="midnightblue" d="M1841.7,-174.86C1870.91,-164.09 1903.87,-151.94 1932.13,-141.52"/>
<polygon fill="midnightblue" stroke="midnightblue" points="1840.12,-171.71 1831.94,-178.45 1842.54,-178.28 1840.12,-171.71"/>
</g>
<!-- Node25&#45;&gt;Node9 -->
<g id="edge43" class="edge">
<title>Node25&#45;&gt;Node9</title>
<path fill="none" stroke="midnightblue" d="M1653.88,-178.8C1652.58,-178.53 1651.29,-178.26 1650,-178 1563.65,-160.38 1530.78,-187 1455,-142 1428.92,-126.51 1437.23,-105.83 1412,-89 1384.04,-70.35 1350.3,-57.23 1318.2,-48.05"/>
<polygon fill="midnightblue" stroke="midnightblue" points="1653.45,-182.28 1663.95,-180.9 1654.88,-175.43 1653.45,-182.28"/>
</g>
<!-- Node26 -->
<g id="node26" class="node">
<title>Node26</title>
<g id="a_node26"><a xlink:href="smt__responses_8cpp.html" target="_top" xlink:title=" ">
<polygon fill="none" stroke="black" points="1464,-89.5 1464,-141.5 1664,-141.5 1664,-89.5 1464,-89.5"/>
<text text-anchor="start" x="1472" y="-129.5" font-family="Helvetica,sans-Serif" font-size="10.00">/home/runner/work/cbmc</text>
<text text-anchor="start" x="1472" y="-118.5" font-family="Helvetica,sans-Serif" font-size="10.00">&#45;documentation/cbmc&#45;documentation</text>
<text text-anchor="start" x="1472" y="-107.5" font-family="Helvetica,sans-Serif" font-size="10.00">/src/solvers/smt2_incremental</text>
<text text-anchor="middle" x="1564" y="-96.5" font-family="Helvetica,sans-Serif" font-size="10.00">/smt_responses.cpp</text>
</a>
</g>
</g>
<!-- Node25&#45;&gt;Node26 -->
<g id="edge45" class="edge">
<title>Node25&#45;&gt;Node26</title>
<path fill="none" stroke="midnightblue" d="M1697.19,-174.44C1672.67,-163.77 1645.15,-151.8 1621.52,-141.52"/>
<polygon fill="midnightblue" stroke="midnightblue" points="1695.85,-177.67 1706.42,-178.45 1698.65,-171.25 1695.85,-177.67"/>
</g>
<!-- Node27 -->
<g id="node27" class="node">
<title>Node27</title>
<g id="a_node27"><a xlink:href="smt__solver__process_8h.html" target="_top" xlink:title=" ">
<polygon fill="none" stroke="black" points="1682,-89.5 1682,-141.5 1882,-141.5 1882,-89.5 1682,-89.5"/>
<text text-anchor="start" x="1690" y="-129.5" font-family="Helvetica,sans-Serif" font-size="10.00">/home/runner/work/cbmc</text>
<text text-anchor="start" x="1690" y="-118.5" font-family="Helvetica,sans-Serif" font-size="10.00">&#45;documentation/cbmc&#45;documentation</text>
<text text-anchor="start" x="1690" y="-107.5" font-family="Helvetica,sans-Serif" font-size="10.00">/src/solvers/smt2_incremental</text>
<text text-anchor="middle" x="1782" y="-96.5" font-family="Helvetica,sans-Serif" font-size="10.00">/smt_solver_process.h</text>
</a>
</g>
</g>
<!-- Node25&#45;&gt;Node27 -->
<g id="edge46" class="edge">
<title>Node25&#45;&gt;Node27</title>
<path fill="none" stroke="midnightblue" d="M1771.25,-168.48C1773.11,-159.49 1775.07,-149.99 1776.81,-141.61"/>
<polygon fill="midnightblue" stroke="midnightblue" points="1767.81,-167.83 1769.21,-178.34 1774.66,-169.25 1767.81,-167.83"/>
</g>
<!-- Node27&#45;&gt;Node4 -->
<g id="edge49" class="edge">
<title>Node27&#45;&gt;Node4</title>
<path fill="none" stroke="midnightblue" d="M1849.48,-85.44C1874.24,-74.77 1902.04,-62.8 1925.91,-52.52"/>
<polygon fill="midnightblue" stroke="midnightblue" points="1847.96,-82.28 1840.16,-89.45 1850.72,-88.71 1847.96,-82.28"/>
</g>
<!-- Node27&#45;&gt;Node9 -->
<g id="edge48" class="edge">
<title>Node27&#45;&gt;Node9</title>
<path fill="none" stroke="midnightblue" d="M1672.03,-88.9C1546.95,-66.72 1513.08,-69.12 1391,-53 1367.45,-49.89 1342.24,-46.5 1318.2,-43.23"/>
<polygon fill="midnightblue" stroke="midnightblue" points="1671.54,-92.37 1682,-90.68 1672.77,-85.48 1671.54,-92.37"/>
</g>
<!-- Node27&#45;&gt;Node13 -->
<g id="edge47" class="edge">
<title>Node27&#45;&gt;Node13</title>
<path fill="none" stroke="midnightblue" d="M1769.25,-79.83C1765.15,-68.69 1760.76,-56.74 1757.2,-47.08"/>
<polygon fill="midnightblue" stroke="midnightblue" points="1766.01,-81.16 1772.74,-89.34 1772.58,-78.74 1766.01,-81.16"/>
</g>
</g>
</svg>
