<?xml version="1.0" encoding="UTF-8" standalone="no"?>
<!DOCTYPE svg PUBLIC "-//W3C//DTD SVG 1.1//EN"
 "http://www.w3.org/Graphics/SVG/1.1/DTD/svg11.dtd">
<!-- Generated by graphviz version 2.43.0 (0)
 -->
<!-- Title: /home/runner/work/cbmc&#45;documentation/cbmc&#45;documentation/src/solvers/smt2_incremental/response_or_error.h Pages: 1 -->
<svg width="2004pt" height="595pt"
 viewBox="0.00 0.00 2004.00 595.00" xmlns="http://www.w3.org/2000/svg" xmlns:xlink="http://www.w3.org/1999/xlink">
<g id="graph0" class="graph" transform="scale(1 1) rotate(0) translate(4 591)">
<title>/home/runner/work/cbmc&#45;documentation/cbmc&#45;documentation/src/solvers/smt2_incremental/response_or_error.h</title>
<!-- Node1 -->
<g id="node1" class="node">
<title>Node1</title>
<g id="a_node1"><a xlink:title=" ">
<polygon fill="#bfbfbf" stroke="black" points="1119,-534.5 1119,-586.5 1319,-586.5 1319,-534.5 1119,-534.5"/>
<text text-anchor="start" x="1127" y="-574.5" font-family="Helvetica,sans-Serif" font-size="10.00">/home/runner/work/cbmc</text>
<text text-anchor="start" x="1127" y="-563.5" font-family="Helvetica,sans-Serif" font-size="10.00">&#45;documentation/cbmc&#45;documentation</text>
<text text-anchor="start" x="1127" y="-552.5" font-family="Helvetica,sans-Serif" font-size="10.00">/src/solvers/smt2_incremental</text>
<text text-anchor="middle" x="1219" y="-541.5" font-family="Helvetica,sans-Serif" font-size="10.00">/response_or_error.h</text>
</a>
</g>
</g>
<!-- Node2 -->
<g id="node2" class="node">
<title>Node2</title>
<g id="a_node2"><a xlink:href="smt__terms_8h.html" target="_top" xlink:title=" ">
<polygon fill="none" stroke="black" points="735,-445.5 735,-497.5 935,-497.5 935,-445.5 735,-445.5"/>
<text text-anchor="start" x="743" y="-485.5" font-family="Helvetica,sans-Serif" font-size="10.00">/home/runner/work/cbmc</text>
<text text-anchor="start" x="743" y="-474.5" font-family="Helvetica,sans-Serif" font-size="10.00">&#45;documentation/cbmc&#45;documentation</text>
<text text-anchor="start" x="743" y="-463.5" font-family="Helvetica,sans-Serif" font-size="10.00">/src/solvers/smt2_incremental</text>
<text text-anchor="middle" x="835" y="-452.5" font-family="Helvetica,sans-Serif" font-size="10.00">/smt_terms.h</text>
</a>
</g>
</g>
<!-- Node1&#45;&gt;Node2 -->
<g id="edge1" class="edge">
<title>Node1&#45;&gt;Node2</title>
<path fill="none" stroke="midnightblue" d="M1108.78,-534.53C1054.1,-522.14 988.52,-507.28 935.26,-495.22"/>
<polygon fill="midnightblue" stroke="midnightblue" points="1108.33,-538.02 1118.86,-536.81 1109.88,-531.19 1108.33,-538.02"/>
</g>
<!-- Node18 -->
<g id="node18" class="node">
<title>Node18</title>
<g id="a_node18"><a xlink:href="smt__response__validation_8h.html" target="_top" xlink:title=" ">
<polygon fill="none" stroke="black" points="1712,-89.5 1712,-141.5 1912,-141.5 1912,-89.5 1712,-89.5"/>
<text text-anchor="start" x="1720" y="-129.5" font-family="Helvetica,sans-Serif" font-size="10.00">/home/runner/work/cbmc</text>
<text text-anchor="start" x="1720" y="-118.5" font-family="Helvetica,sans-Serif" font-size="10.00">&#45;documentation/cbmc&#45;documentation</text>
<text text-anchor="start" x="1720" y="-107.5" font-family="Helvetica,sans-Serif" font-size="10.00">/src/solvers/smt2_incremental</text>
<text text-anchor="middle" x="1812" y="-96.5" font-family="Helvetica,sans-Serif" font-size="10.00">/smt_response_validation.h</text>
</a>
</g>
</g>
<!-- Node1&#45;&gt;Node18 -->
<g id="edge52" class="edge">
<title>Node1&#45;&gt;Node18</title>
<path fill="none" stroke="midnightblue" d="M1329.05,-543.33C1476,-518.58 1718,-465.39 1718,-383.5 1718,-383.5 1718,-383.5 1718,-292.5 1718,-232.92 1760.43,-173.95 1788.28,-141.67"/>
<polygon fill="midnightblue" stroke="midnightblue" points="1328.37,-539.89 1319.08,-544.99 1329.52,-546.8 1328.37,-539.89"/>
</g>
<!-- Node3 -->
<g id="node3" class="node">
<title>Node3</title>
<g id="a_node3"><a xlink:href="smt__commands_8h.html" target="_top" xlink:title=" ">
<polygon fill="none" stroke="black" points="332,-356.5 332,-408.5 532,-408.5 532,-356.5 332,-356.5"/>
<text text-anchor="start" x="340" y="-396.5" font-family="Helvetica,sans-Serif" font-size="10.00">/home/runner/work/cbmc</text>
<text text-anchor="start" x="340" y="-385.5" font-family="Helvetica,sans-Serif" font-size="10.00">&#45;documentation/cbmc&#45;documentation</text>
<text text-anchor="start" x="340" y="-374.5" font-family="Helvetica,sans-Serif" font-size="10.00">/src/solvers/smt2_incremental</text>
<text text-anchor="middle" x="432" y="-363.5" font-family="Helvetica,sans-Serif" font-size="10.00">/smt_commands.h</text>
</a>
</g>
</g>
<!-- Node2&#45;&gt;Node3 -->
<g id="edge2" class="edge">
<title>Node2&#45;&gt;Node3</title>
<path fill="none" stroke="midnightblue" d="M724.95,-446.74C664.81,-433.76 590.87,-417.8 532.32,-405.16"/>
<polygon fill="midnightblue" stroke="midnightblue" points="724.35,-450.19 734.86,-448.88 725.83,-443.35 724.35,-450.19"/>
</g>
<!-- Node4 -->
<g id="node4" class="node">
<title>Node4</title>
<g id="a_node4"><a xlink:href="smt__object__size_8h.html" target="_top" xlink:title=" ">
<polygon fill="none" stroke="black" points="38,-267.5 38,-319.5 238,-319.5 238,-267.5 38,-267.5"/>
<text text-anchor="start" x="46" y="-307.5" font-family="Helvetica,sans-Serif" font-size="10.00">/home/runner/work/cbmc</text>
<text text-anchor="start" x="46" y="-296.5" font-family="Helvetica,sans-Serif" font-size="10.00">&#45;documentation/cbmc&#45;documentation</text>
<text text-anchor="start" x="46" y="-285.5" font-family="Helvetica,sans-Serif" font-size="10.00">/src/solvers/smt2_incremental</text>
<text text-anchor="middle" x="138" y="-274.5" font-family="Helvetica,sans-Serif" font-size="10.00">/smt_object_size.h</text>
</a>
</g>
</g>
<!-- Node2&#45;&gt;Node4 -->
<g id="edge21" class="edge">
<title>Node2&#45;&gt;Node4</title>
<path fill="none" stroke="midnightblue" d="M724.42,-467.6C579.14,-462.3 332.97,-447.75 252,-409 210,-388.9 174.53,-346.72 154.79,-319.55"/>
<polygon fill="midnightblue" stroke="midnightblue" points="724.58,-471.11 734.7,-467.96 724.83,-464.11 724.58,-471.11"/>
</g>
<!-- Node5 -->
<g id="node5" class="node">
<title>Node5</title>
<g id="a_node5"><a xlink:href="smt2__incremental__decision__procedure_8h.html" target="_top" xlink:title=" ">
<polygon fill="none" stroke="black" points="465.5,-89.5 465.5,-141.5 682.5,-141.5 682.5,-89.5 465.5,-89.5"/>
<text text-anchor="start" x="473.5" y="-129.5" font-family="Helvetica,sans-Serif" font-size="10.00">/home/runner/work/cbmc</text>
<text text-anchor="start" x="473.5" y="-118.5" font-family="Helvetica,sans-Serif" font-size="10.00">&#45;documentation/cbmc&#45;documentation</text>
<text text-anchor="start" x="473.5" y="-107.5" font-family="Helvetica,sans-Serif" font-size="10.00">/src/solvers/smt2_incremental</text>
<text text-anchor="middle" x="574" y="-96.5" font-family="Helvetica,sans-Serif" font-size="10.00">/smt2_incremental_decision_procedure.h</text>
</a>
</g>
</g>
<!-- Node2&#45;&gt;Node5 -->
<g id="edge22" class="edge">
<title>Node2&#45;&gt;Node5</title>
<path fill="none" stroke="midnightblue" d="M827.85,-435.35C817.86,-392.51 796.59,-319.36 759,-267 720.49,-213.35 658.15,-168.13 616.63,-141.66"/>
<polygon fill="midnightblue" stroke="midnightblue" points="824.48,-436.32 830.09,-445.3 831.31,-434.78 824.48,-436.32"/>
</g>
<!-- Node7 -->
<g id="node7" class="node">
<title>Node7</title>
<g id="a_node7"><a xlink:href="smt2__incremental__decision__procedure_8cpp.html" target="_top" xlink:title=" ">
<polygon fill="none" stroke="black" points="460,-0.5 460,-52.5 688,-52.5 688,-0.5 460,-0.5"/>
<text text-anchor="start" x="468" y="-40.5" font-family="Helvetica,sans-Serif" font-size="10.00">/home/runner/work/cbmc</text>
<text text-anchor="start" x="468" y="-29.5" font-family="Helvetica,sans-Serif" font-size="10.00">&#45;documentation/cbmc&#45;documentation</text>
<text text-anchor="start" x="468" y="-18.5" font-family="Helvetica,sans-Serif" font-size="10.00">/src/solvers/smt2_incremental</text>
<text text-anchor="middle" x="574" y="-7.5" font-family="Helvetica,sans-Serif" font-size="10.00">/smt2_incremental_decision_procedure.cpp</text>
</a>
</g>
</g>
<!-- Node2&#45;&gt;Node7 -->
<g id="edge49" class="edge">
<title>Node2&#45;&gt;Node7</title>
<path fill="none" stroke="midnightblue" d="M830.41,-435.47C819.22,-362.67 784.34,-193.19 692,-89 678.52,-73.79 660.36,-61.76 642.34,-52.54"/>
<polygon fill="midnightblue" stroke="midnightblue" points="826.97,-436.11 831.89,-445.49 833.89,-435.08 826.97,-436.11"/>
</g>
<!-- Node8 -->
<g id="node8" class="node">
<title>Node8</title>
<g id="a_node8"><a xlink:href="type__size__mapping_8h.html" target="_top" xlink:title=" ">
<polygon fill="none" stroke="black" points="166,-178.5 166,-230.5 366,-230.5 366,-178.5 166,-178.5"/>
<text text-anchor="start" x="174" y="-218.5" font-family="Helvetica,sans-Serif" font-size="10.00">/home/runner/work/cbmc</text>
<text text-anchor="start" x="174" y="-207.5" font-family="Helvetica,sans-Serif" font-size="10.00">&#45;documentation/cbmc&#45;documentation</text>
<text text-anchor="start" x="174" y="-196.5" font-family="Helvetica,sans-Serif" font-size="10.00">/src/solvers/smt2_incremental</text>
<text text-anchor="middle" x="266" y="-185.5" font-family="Helvetica,sans-Serif" font-size="10.00">/type_size_mapping.h</text>
</a>
</g>
</g>
<!-- Node2&#45;&gt;Node8 -->
<g id="edge23" class="edge">
<title>Node2&#45;&gt;Node8</title>
<path fill="none" stroke="midnightblue" d="M724.81,-470.37C593.25,-468.02 383.38,-456.61 323,-409 268.4,-365.95 263.4,-275.13 264.49,-230.85"/>
<polygon fill="midnightblue" stroke="midnightblue" points="724.88,-473.87 734.93,-470.53 724.99,-466.87 724.88,-473.87"/>
</g>
<!-- Node9 -->
<g id="node9" class="node">
<title>Node9</title>
<g id="a_node9"><a xlink:href="convert__expr__to__smt_8h.html" target="_top" xlink:title=" ">
<polygon fill="none" stroke="black" points="90,-89.5 90,-141.5 290,-141.5 290,-89.5 90,-89.5"/>
<text text-anchor="start" x="98" y="-129.5" font-family="Helvetica,sans-Serif" font-size="10.00">/home/runner/work/cbmc</text>
<text text-anchor="start" x="98" y="-118.5" font-family="Helvetica,sans-Serif" font-size="10.00">&#45;documentation/cbmc&#45;documentation</text>
<text text-anchor="start" x="98" y="-107.5" font-family="Helvetica,sans-Serif" font-size="10.00">/src/solvers/smt2_incremental</text>
<text text-anchor="middle" x="190" y="-96.5" font-family="Helvetica,sans-Serif" font-size="10.00">/convert_expr_to_smt.h</text>
</a>
</g>
</g>
<!-- Node2&#45;&gt;Node9 -->
<g id="edge35" class="edge">
<title>Node2&#45;&gt;Node9</title>
<path fill="none" stroke="midnightblue" d="M724.57,-465.79C565.67,-458.04 280.9,-440.26 183,-409 107.69,-384.96 68.51,-388.47 29,-320 -11.36,-250.06 83.73,-178.29 144.38,-141.55"/>
<polygon fill="midnightblue" stroke="midnightblue" points="724.69,-469.3 734.85,-466.28 725.03,-462.31 724.69,-469.3"/>
</g>
<!-- Node14 -->
<g id="node14" class="node">
<title>Node14</title>
<g id="a_node14"><a xlink:href="smt__to__smt2__string_8cpp.html" target="_top" xlink:title=" ">
<polygon fill="none" stroke="black" points="550,-267.5 550,-319.5 750,-319.5 750,-267.5 550,-267.5"/>
<text text-anchor="start" x="558" y="-307.5" font-family="Helvetica,sans-Serif" font-size="10.00">/home/runner/work/cbmc</text>
<text text-anchor="start" x="558" y="-296.5" font-family="Helvetica,sans-Serif" font-size="10.00">&#45;documentation/cbmc&#45;documentation</text>
<text text-anchor="start" x="558" y="-285.5" font-family="Helvetica,sans-Serif" font-size="10.00">/src/solvers/smt2_incremental</text>
<text text-anchor="middle" x="650" y="-274.5" font-family="Helvetica,sans-Serif" font-size="10.00">/smt_to_smt2_string.cpp</text>
</a>
</g>
</g>
<!-- Node2&#45;&gt;Node14 -->
<g id="edge51" class="edge">
<title>Node2&#45;&gt;Node14</title>
<path fill="none" stroke="midnightblue" d="M797.15,-438.62C786.3,-429.24 774.55,-418.85 764,-409 732,-379.15 696.67,-343.16 673.95,-319.6"/>
<polygon fill="midnightblue" stroke="midnightblue" points="795,-441.38 804.86,-445.25 799.56,-436.07 795,-441.38"/>
</g>
<!-- Node15 -->
<g id="node15" class="node">
<title>Node15</title>
<g id="a_node15"><a xlink:href="smt__responses_8h.html" target="_top" xlink:title=" ">
<polygon fill="none" stroke="black" points="806,-178.5 806,-230.5 1006,-230.5 1006,-178.5 806,-178.5"/>
<text text-anchor="start" x="814" y="-218.5" font-family="Helvetica,sans-Serif" font-size="10.00">/home/runner/work/cbmc</text>
<text text-anchor="start" x="814" y="-207.5" font-family="Helvetica,sans-Serif" font-size="10.00">&#45;documentation/cbmc&#45;documentation</text>
<text text-anchor="start" x="814" y="-196.5" font-family="Helvetica,sans-Serif" font-size="10.00">/src/solvers/smt2_incremental</text>
<text text-anchor="middle" x="906" y="-185.5" font-family="Helvetica,sans-Serif" font-size="10.00">/smt_responses.h</text>
</a>
</g>
</g>
<!-- Node2&#45;&gt;Node15 -->
<g id="edge24" class="edge">
<title>Node2&#45;&gt;Node15</title>
<path fill="none" stroke="midnightblue" d="M844.45,-435.23C858.98,-380.98 886.48,-278.36 899.21,-230.83"/>
<polygon fill="midnightblue" stroke="midnightblue" points="841.02,-434.53 841.81,-445.09 847.78,-436.34 841.02,-434.53"/>
</g>
<!-- Node21 -->
<g id="node21" class="node">
<title>Node21</title>
<g id="a_node21"><a xlink:href="construct__value__expr__from__smt_8cpp.html" target="_top" xlink:title=" ">
<polygon fill="none" stroke="black" points="882,-356.5 882,-408.5 1082,-408.5 1082,-356.5 882,-356.5"/>
<text text-anchor="start" x="890" y="-396.5" font-family="Helvetica,sans-Serif" font-size="10.00">/home/runner/work/cbmc</text>
<text text-anchor="start" x="890" y="-385.5" font-family="Helvetica,sans-Serif" font-size="10.00">&#45;documentation/cbmc&#45;documentation</text>
<text text-anchor="start" x="890" y="-374.5" font-family="Helvetica,sans-Serif" font-size="10.00">/src/solvers/smt2_incremental</text>
<text text-anchor="middle" x="982" y="-363.5" font-family="Helvetica,sans-Serif" font-size="10.00">/construct_value_expr_from_smt.cpp</text>
</a>
</g>
</g>
<!-- Node2&#45;&gt;Node21 -->
<g id="edge34" class="edge">
<title>Node2&#45;&gt;Node21</title>
<path fill="none" stroke="midnightblue" d="M886.42,-440.07C903.79,-429.79 922.98,-418.43 939.58,-408.61"/>
<polygon fill="midnightblue" stroke="midnightblue" points="884.34,-437.23 877.52,-445.34 887.91,-443.25 884.34,-437.23"/>
</g>
<!-- Node22 -->
<g id="node22" class="node">
<title>Node22</title>
<g id="a_node22"><a xlink:href="smt__array__theory_8h.html" target="_top" xlink:title=" ">
<polygon fill="none" stroke="black" points="1494,-89.5 1494,-141.5 1694,-141.5 1694,-89.5 1494,-89.5"/>
<text text-anchor="start" x="1502" y="-129.5" font-family="Helvetica,sans-Serif" font-size="10.00">/home/runner/work/cbmc</text>
<text text-anchor="start" x="1502" y="-118.5" font-family="Helvetica,sans-Serif" font-size="10.00">&#45;documentation/cbmc&#45;documentation</text>
<text text-anchor="start" x="1502" y="-107.5" font-family="Helvetica,sans-Serif" font-size="10.00">/src/solvers/smt2_incremental</text>
<text text-anchor="middle" x="1594" y="-96.5" font-family="Helvetica,sans-Serif" font-size="10.00">/smt_array_theory.h</text>
</a>
</g>
</g>
<!-- Node2&#45;&gt;Node22 -->
<g id="edge36" class="edge">
<title>Node2&#45;&gt;Node22</title>
<path fill="none" stroke="midnightblue" d="M945.54,-468.83C1138.82,-464.81 1521.86,-451.51 1565,-409 1637.88,-337.19 1614.39,-198.44 1600.78,-141.66"/>
<polygon fill="midnightblue" stroke="midnightblue" points="945.28,-465.33 935.35,-469.04 945.42,-472.33 945.28,-465.33"/>
</g>
<!-- Node24 -->
<g id="node24" class="node">
<title>Node24</title>
<g id="a_node24"><a xlink:href="smt__bit__vector__theory_8h.html" target="_top" xlink:title=" ">
<polygon fill="none" stroke="black" points="1356,-356.5 1356,-408.5 1556,-408.5 1556,-356.5 1356,-356.5"/>
<text text-anchor="start" x="1364" y="-396.5" font-family="Helvetica,sans-Serif" font-size="10.00">/home/runner/work/cbmc</text>
<text text-anchor="start" x="1364" y="-385.5" font-family="Helvetica,sans-Serif" font-size="10.00">&#45;documentation/cbmc&#45;documentation</text>
<text text-anchor="start" x="1364" y="-374.5" font-family="Helvetica,sans-Serif" font-size="10.00">/src/solvers/smt2_incremental</text>
<text text-anchor="middle" x="1456" y="-363.5" font-family="Helvetica,sans-Serif" font-size="10.00">/smt_bit_vector_theory.h</text>
</a>
</g>
</g>
<!-- Node2&#45;&gt;Node24 -->
<g id="edge41" class="edge">
<title>Node2&#45;&gt;Node24</title>
<path fill="none" stroke="midnightblue" d="M945.58,-460.28C1048.6,-450.01 1206.27,-432.35 1342,-409 1346.5,-408.23 1351.08,-407.39 1355.71,-406.51"/>
<polygon fill="midnightblue" stroke="midnightblue" points="945.08,-456.81 935.47,-461.28 945.77,-463.78 945.08,-456.81"/>
</g>
<!-- Node26 -->
<g id="node26" class="node">
<title>Node26</title>
<g id="a_node26"><a xlink:href="smt__core__theory_8h.html" target="_top" xlink:title=" ">
<polygon fill="none" stroke="black" points="1020,-89.5 1020,-141.5 1220,-141.5 1220,-89.5 1020,-89.5"/>
<text text-anchor="start" x="1028" y="-129.5" font-family="Helvetica,sans-Serif" font-size="10.00">/home/runner/work/cbmc</text>
<text text-anchor="start" x="1028" y="-118.5" font-family="Helvetica,sans-Serif" font-size="10.00">&#45;documentation/cbmc&#45;documentation</text>
<text text-anchor="start" x="1028" y="-107.5" font-family="Helvetica,sans-Serif" font-size="10.00">/src/solvers/smt2_incremental</text>
<text text-anchor="middle" x="1120" y="-96.5" font-family="Helvetica,sans-Serif" font-size="10.00">/smt_core_theory.h</text>
</a>
</g>
</g>
<!-- Node2&#45;&gt;Node26 -->
<g id="edge44" class="edge">
<title>Node2&#45;&gt;Node26</title>
<path fill="none" stroke="midnightblue" d="M945.27,-463.76C1077.78,-454.51 1285.35,-435.92 1309,-409 1324.55,-391.3 1321.79,-375.78 1309,-356 1287.83,-323.26 1257.5,-346.6 1229,-320 1174.21,-268.86 1141.3,-183.85 1127.55,-141.74"/>
<polygon fill="midnightblue" stroke="midnightblue" points="944.81,-460.28 935.08,-464.46 945.29,-467.27 944.81,-460.28"/>
</g>
<!-- Node28 -->
<g id="node28" class="node">
<title>Node28</title>
<g id="a_node28"><a xlink:href="smt__terms_8cpp.html" target="_top" xlink:title=" ">
<polygon fill="none" stroke="black" points="1100,-356.5 1100,-408.5 1300,-408.5 1300,-356.5 1100,-356.5"/>
<text text-anchor="start" x="1108" y="-396.5" font-family="Helvetica,sans-Serif" font-size="10.00">/home/runner/work/cbmc</text>
<text text-anchor="start" x="1108" y="-385.5" font-family="Helvetica,sans-Serif" font-size="10.00">&#45;documentation/cbmc&#45;documentation</text>
<text text-anchor="start" x="1108" y="-374.5" font-family="Helvetica,sans-Serif" font-size="10.00">/src/solvers/smt2_incremental</text>
<text text-anchor="middle" x="1200" y="-363.5" font-family="Helvetica,sans-Serif" font-size="10.00">/smt_terms.cpp</text>
</a>
</g>
</g>
<!-- Node2&#45;&gt;Node28 -->
<g id="edge50" class="edge">
<title>Node2&#45;&gt;Node28</title>
<path fill="none" stroke="midnightblue" d="M945.25,-444.22C994.36,-432.52 1051.79,-418.83 1099.69,-407.41"/>
<polygon fill="midnightblue" stroke="midnightblue" points="944.14,-440.89 935.22,-446.61 945.76,-447.7 944.14,-440.89"/>
</g>
<!-- Node3&#45;&gt;Node4 -->
<g id="edge3" class="edge">
<title>Node3&#45;&gt;Node4</title>
<path fill="none" stroke="midnightblue" d="M337.58,-353.56C300.6,-342.62 258.52,-330.16 222.55,-319.52"/>
<polygon fill="midnightblue" stroke="midnightblue" points="336.78,-356.97 347.36,-356.45 338.76,-350.26 336.78,-356.97"/>
</g>
<!-- Node3&#45;&gt;Node7 -->
<g id="edge18" class="edge">
<title>Node3&#45;&gt;Node7</title>
<path fill="none" stroke="midnightblue" d="M353.51,-351C341.32,-342.78 330.34,-332.58 323,-320 311.12,-299.66 312.07,-287.87 323,-267 336.05,-242.1 355.95,-251.67 375,-231 424.38,-177.4 404.45,-139.5 457,-89 472.39,-74.21 492.04,-62.05 510.82,-52.56"/>
<polygon fill="midnightblue" stroke="midnightblue" points="351.78,-354.05 362.12,-356.37 355.49,-348.11 351.78,-354.05"/>
</g>
<!-- Node13 -->
<g id="node13" class="node">
<title>Node13</title>
<g id="a_node13"><a xlink:href="smt__commands_8cpp.html" target="_top" xlink:title=" ">
<polygon fill="none" stroke="black" points="332,-267.5 332,-319.5 532,-319.5 532,-267.5 332,-267.5"/>
<text text-anchor="start" x="340" y="-307.5" font-family="Helvetica,sans-Serif" font-size="10.00">/home/runner/work/cbmc</text>
<text text-anchor="start" x="340" y="-296.5" font-family="Helvetica,sans-Serif" font-size="10.00">&#45;documentation/cbmc&#45;documentation</text>
<text text-anchor="start" x="340" y="-285.5" font-family="Helvetica,sans-Serif" font-size="10.00">/src/solvers/smt2_incremental</text>
<text text-anchor="middle" x="432" y="-274.5" font-family="Helvetica,sans-Serif" font-size="10.00">/smt_commands.cpp</text>
</a>
</g>
</g>
<!-- Node3&#45;&gt;Node13 -->
<g id="edge19" class="edge">
<title>Node3&#45;&gt;Node13</title>
<path fill="none" stroke="midnightblue" d="M432,-346.19C432,-337.28 432,-327.9 432,-319.61"/>
<polygon fill="midnightblue" stroke="midnightblue" points="428.5,-346.34 432,-356.34 435.5,-346.34 428.5,-346.34"/>
</g>
<!-- Node3&#45;&gt;Node14 -->
<g id="edge20" class="edge">
<title>Node3&#45;&gt;Node14</title>
<path fill="none" stroke="midnightblue" d="M504.12,-352.72C531.02,-341.98 561.32,-329.89 587.3,-319.52"/>
<polygon fill="midnightblue" stroke="midnightblue" points="502.75,-349.5 494.76,-356.45 505.35,-356 502.75,-349.5"/>
</g>
<!-- Node4&#45;&gt;Node5 -->
<g id="edge4" class="edge">
<title>Node4&#45;&gt;Node5</title>
<path fill="none" stroke="midnightblue" d="M248.16,-270.41C288.81,-260.58 334.74,-247.45 375,-231 434.77,-206.57 498.58,-167.21 537.39,-141.59"/>
<polygon fill="midnightblue" stroke="midnightblue" points="247.14,-267.05 238.22,-272.77 248.76,-273.86 247.14,-267.05"/>
</g>
<!-- Node4&#45;&gt;Node8 -->
<g id="edge7" class="edge">
<title>Node4&#45;&gt;Node8</title>
<path fill="none" stroke="midnightblue" d="M183.6,-261.5C198.51,-251.37 214.87,-240.25 229.06,-230.61"/>
<polygon fill="midnightblue" stroke="midnightblue" points="181.33,-258.82 175.02,-267.34 185.26,-264.61 181.33,-258.82"/>
</g>
<!-- Node4&#45;&gt;Node9 -->
<g id="edge16" class="edge">
<title>Node4&#45;&gt;Node9</title>
<path fill="none" stroke="midnightblue" d="M140.82,-257.34C143.4,-234.31 148.21,-203.8 157,-178 161.26,-165.5 167.88,-152.49 174.07,-141.68"/>
<polygon fill="midnightblue" stroke="midnightblue" points="137.34,-257.05 139.79,-267.36 144.3,-257.77 137.34,-257.05"/>
</g>
<!-- Node11 -->
<g id="node11" class="node">
<title>Node11</title>
<g id="a_node11"><a xlink:href="smt__object__size_8cpp.html" target="_top" xlink:title=" ">
<polygon fill="none" stroke="black" points="0,-0.5 0,-52.5 200,-52.5 200,-0.5 0,-0.5"/>
<text text-anchor="start" x="8" y="-40.5" font-family="Helvetica,sans-Serif" font-size="10.00">/home/runner/work/cbmc</text>
<text text-anchor="start" x="8" y="-29.5" font-family="Helvetica,sans-Serif" font-size="10.00">&#45;documentation/cbmc&#45;documentation</text>
<text text-anchor="start" x="8" y="-18.5" font-family="Helvetica,sans-Serif" font-size="10.00">/src/solvers/smt2_incremental</text>
<text text-anchor="middle" x="100" y="-7.5" font-family="Helvetica,sans-Serif" font-size="10.00">/smt_object_size.cpp</text>
</a>
</g>
</g>
<!-- Node4&#45;&gt;Node11 -->
<g id="edge17" class="edge">
<title>Node4&#45;&gt;Node11</title>
<path fill="none" stroke="midnightblue" d="M120.97,-258.34C107.1,-228.49 88.6,-183.54 81,-142 76.76,-118.83 77.48,-112.29 81,-89 82.85,-76.73 86.67,-63.54 90.4,-52.54"/>
<polygon fill="midnightblue" stroke="midnightblue" points="117.85,-259.94 125.29,-267.48 124.18,-256.95 117.85,-259.94"/>
</g>
<!-- Node6 -->
<g id="node6" class="node">
<title>Node6</title>
<g id="a_node6"><a xlink:href="solver__factory_8cpp.html" target="_top" xlink:title=" ">
<polygon fill="none" stroke="black" points="924,-6 924,-47 1124,-47 1124,-6 924,-6"/>
<text text-anchor="start" x="932" y="-35" font-family="Helvetica,sans-Serif" font-size="10.00">/home/runner/work/cbmc</text>
<text text-anchor="start" x="932" y="-24" font-family="Helvetica,sans-Serif" font-size="10.00">&#45;documentation/cbmc&#45;documentation</text>
<text text-anchor="middle" x="1024" y="-13" font-family="Helvetica,sans-Serif" font-size="10.00">/src/goto&#45;checker/solver_factory.cpp</text>
</a>
</g>
</g>
<!-- Node5&#45;&gt;Node6 -->
<g id="edge5" class="edge">
<title>Node5&#45;&gt;Node6</title>
<path fill="none" stroke="midnightblue" d="M692.52,-94.66C758.23,-83.28 841.32,-68.25 915,-53 923.94,-51.15 933.28,-49.12 942.56,-47.03"/>
<polygon fill="midnightblue" stroke="midnightblue" points="691.8,-91.24 682.54,-96.39 692.99,-98.14 691.8,-91.24"/>
</g>
<!-- Node5&#45;&gt;Node7 -->
<g id="edge6" class="edge">
<title>Node5&#45;&gt;Node7</title>
<path fill="none" stroke="midnightblue" d="M574,-79.19C574,-70.28 574,-60.9 574,-52.61"/>
<polygon fill="midnightblue" stroke="midnightblue" points="570.5,-79.34 574,-89.34 577.5,-79.34 570.5,-79.34"/>
</g>
<!-- Node8&#45;&gt;Node5 -->
<g id="edge8" class="edge">
<title>Node8&#45;&gt;Node5</title>
<path fill="none" stroke="midnightblue" d="M364.43,-175.7C403.28,-164.72 447.59,-152.21 485.42,-141.52"/>
<polygon fill="midnightblue" stroke="midnightblue" points="363.35,-172.37 354.67,-178.45 365.25,-179.1 363.35,-172.37"/>
</g>
<!-- Node8&#45;&gt;Node7 -->
<g id="edge14" class="edge">
<title>Node8&#45;&gt;Node7</title>
<path fill="none" stroke="midnightblue" d="M295.3,-170.76C322.37,-141.15 361.14,-100.49 380,-89 405.34,-73.56 434.94,-61.63 463.28,-52.57"/>
<polygon fill="midnightblue" stroke="midnightblue" points="292.49,-168.65 288.35,-178.4 297.67,-173.36 292.49,-168.65"/>
</g>
<!-- Node8&#45;&gt;Node9 -->
<g id="edge9" class="edge">
<title>Node8&#45;&gt;Node9</title>
<path fill="none" stroke="midnightblue" d="M237.43,-170.79C228.99,-161.13 219.88,-150.71 211.93,-141.61"/>
<polygon fill="midnightblue" stroke="midnightblue" points="234.8,-173.11 244.02,-178.34 240.07,-168.5 234.8,-173.11"/>
</g>
<!-- Node12 -->
<g id="node12" class="node">
<title>Node12</title>
<g id="a_node12"><a xlink:href="type__size__mapping_8cpp.html" target="_top" xlink:title=" ">
<polygon fill="none" stroke="black" points="218,-0.5 218,-52.5 418,-52.5 418,-0.5 218,-0.5"/>
<text text-anchor="start" x="226" y="-40.5" font-family="Helvetica,sans-Serif" font-size="10.00">/home/runner/work/cbmc</text>
<text text-anchor="start" x="226" y="-29.5" font-family="Helvetica,sans-Serif" font-size="10.00">&#45;documentation/cbmc&#45;documentation</text>
<text text-anchor="start" x="226" y="-18.5" font-family="Helvetica,sans-Serif" font-size="10.00">/src/solvers/smt2_incremental</text>
<text text-anchor="middle" x="318" y="-7.5" font-family="Helvetica,sans-Serif" font-size="10.00">/type_size_mapping.cpp</text>
</a>
</g>
</g>
<!-- Node8&#45;&gt;Node12 -->
<g id="edge15" class="edge">
<title>Node8&#45;&gt;Node12</title>
<path fill="none" stroke="midnightblue" d="M286.9,-169.29C291.47,-160.63 295.87,-151.18 299,-142 309.14,-112.25 313.98,-76.24 316.21,-52.64"/>
<polygon fill="midnightblue" stroke="midnightblue" points="283.69,-167.87 281.93,-178.32 289.82,-171.25 283.69,-167.87"/>
</g>
<!-- Node9&#45;&gt;Node7 -->
<g id="edge11" class="edge">
<title>Node9&#45;&gt;Node7</title>
<path fill="none" stroke="midnightblue" d="M299.94,-89.59C351.26,-77.96 412.21,-64.15 463.59,-52.51"/>
<polygon fill="midnightblue" stroke="midnightblue" points="299.12,-86.19 290.14,-91.81 300.67,-93.02 299.12,-86.19"/>
</g>
<!-- Node10 -->
<g id="node10" class="node">
<title>Node10</title>
<g id="a_node10"><a xlink:href="convert__expr__to__smt_8cpp.html" target="_top" xlink:title=" ">
<polygon fill="none" stroke="black" points="1142,-0.5 1142,-52.5 1342,-52.5 1342,-0.5 1142,-0.5"/>
<text text-anchor="start" x="1150" y="-40.5" font-family="Helvetica,sans-Serif" font-size="10.00">/home/runner/work/cbmc</text>
<text text-anchor="start" x="1150" y="-29.5" font-family="Helvetica,sans-Serif" font-size="10.00">&#45;documentation/cbmc&#45;documentation</text>
<text text-anchor="start" x="1150" y="-18.5" font-family="Helvetica,sans-Serif" font-size="10.00">/src/solvers/smt2_incremental</text>
<text text-anchor="middle" x="1242" y="-7.5" font-family="Helvetica,sans-Serif" font-size="10.00">/convert_expr_to_smt.cpp</text>
</a>
</g>
</g>
<!-- Node9&#45;&gt;Node10 -->
<g id="edge10" class="edge">
<title>Node9&#45;&gt;Node10</title>
<path fill="none" stroke="midnightblue" d="M300.2,-102.93C348.31,-98.14 405.41,-92.84 457,-89 757.04,-66.69 835.14,-95.43 1133,-53 1135.89,-52.59 1138.81,-52.14 1141.75,-51.65"/>
<polygon fill="midnightblue" stroke="midnightblue" points="299.68,-99.46 290.08,-103.94 300.38,-106.43 299.68,-99.46"/>
</g>
<!-- Node9&#45;&gt;Node11 -->
<g id="edge12" class="edge">
<title>Node9&#45;&gt;Node11</title>
<path fill="none" stroke="midnightblue" d="M156.75,-82.36C146.6,-72.54 135.58,-61.89 125.97,-52.61"/>
<polygon fill="midnightblue" stroke="midnightblue" points="154.35,-84.9 163.97,-89.34 159.21,-79.87 154.35,-84.9"/>
</g>
<!-- Node9&#45;&gt;Node12 -->
<g id="edge13" class="edge">
<title>Node9&#45;&gt;Node12</title>
<path fill="none" stroke="midnightblue" d="M235.6,-83.5C250.51,-73.37 266.87,-62.25 281.06,-52.61"/>
<polygon fill="midnightblue" stroke="midnightblue" points="233.33,-80.82 227.02,-89.34 237.26,-86.61 233.33,-80.82"/>
</g>
<!-- Node15&#45;&gt;Node7 -->
<g id="edge29" class="edge">
<title>Node15&#45;&gt;Node7</title>
<path fill="none" stroke="midnightblue" d="M840.77,-173.62C824.36,-164.62 807.34,-153.93 793,-142 769.68,-122.6 774.82,-106.44 750,-89 728.02,-73.55 701.79,-61.66 676.38,-52.63"/>
<polygon fill="midnightblue" stroke="midnightblue" points="839.34,-176.82 849.81,-178.43 842.63,-170.64 839.34,-176.82"/>
</g>
<!-- Node16 -->
<g id="node16" class="node">
<title>Node16</title>
<g id="a_node16"><a xlink:href="smt__solver__process_8h.html" target="_top" xlink:title=" ">
<polygon fill="none" stroke="black" points="1238,-89.5 1238,-141.5 1438,-141.5 1438,-89.5 1238,-89.5"/>
<text text-anchor="start" x="1246" y="-129.5" font-family="Helvetica,sans-Serif" font-size="10.00">/home/runner/work/cbmc</text>
<text text-anchor="start" x="1246" y="-118.5" font-family="Helvetica,sans-Serif" font-size="10.00">&#45;documentation/cbmc&#45;documentation</text>
<text text-anchor="start" x="1246" y="-107.5" font-family="Helvetica,sans-Serif" font-size="10.00">/src/solvers/smt2_incremental</text>
<text text-anchor="middle" x="1338" y="-96.5" font-family="Helvetica,sans-Serif" font-size="10.00">/smt_solver_process.h</text>
</a>
</g>
</g>
<!-- Node15&#45;&gt;Node16 -->
<g id="edge25" class="edge">
<title>Node15&#45;&gt;Node16</title>
<path fill="none" stroke="midnightblue" d="M1016.13,-183.71C1078.68,-172.17 1158.37,-156.98 1229,-142 1231.95,-141.38 1234.94,-140.73 1237.95,-140.08"/>
<polygon fill="midnightblue" stroke="midnightblue" points="1015.45,-180.27 1006.25,-185.53 1016.71,-187.16 1015.45,-180.27"/>
</g>
<!-- Node15&#45;&gt;Node18 -->
<g id="edge30" class="edge">
<title>Node15&#45;&gt;Node18</title>
<path fill="none" stroke="midnightblue" d="M1016.71,-200.3C1171.19,-194.62 1459.83,-179.6 1703,-142 1705.88,-141.55 1708.8,-141.07 1711.74,-140.56"/>
<polygon fill="midnightblue" stroke="midnightblue" points="1016.14,-196.82 1006.28,-200.67 1016.4,-203.81 1016.14,-196.82"/>
</g>
<!-- Node20 -->
<g id="node20" class="node">
<title>Node20</title>
<g id="a_node20"><a xlink:href="smt__responses_8cpp.html" target="_top" xlink:title=" ">
<polygon fill="none" stroke="black" points="802,-89.5 802,-141.5 1002,-141.5 1002,-89.5 802,-89.5"/>
<text text-anchor="start" x="810" y="-129.5" font-family="Helvetica,sans-Serif" font-size="10.00">/home/runner/work/cbmc</text>
<text text-anchor="start" x="810" y="-118.5" font-family="Helvetica,sans-Serif" font-size="10.00">&#45;documentation/cbmc&#45;documentation</text>
<text text-anchor="start" x="810" y="-107.5" font-family="Helvetica,sans-Serif" font-size="10.00">/src/solvers/smt2_incremental</text>
<text text-anchor="middle" x="902" y="-96.5" font-family="Helvetica,sans-Serif" font-size="10.00">/smt_responses.cpp</text>
</a>
</g>
</g>
<!-- Node15&#45;&gt;Node20 -->
<g id="edge33" class="edge">
<title>Node15&#45;&gt;Node20</title>
<path fill="none" stroke="midnightblue" d="M904.38,-168.19C903.97,-159.28 903.54,-149.9 903.15,-141.61"/>
<polygon fill="midnightblue" stroke="midnightblue" points="900.89,-168.51 904.84,-178.34 907.88,-168.19 900.89,-168.51"/>
</g>
<!-- Node16&#45;&gt;Node6 -->
<g id="edge26" class="edge">
<title>Node16&#45;&gt;Node6</title>
<path fill="none" stroke="midnightblue" d="M1237.78,-86.73C1191.16,-73.82 1136.83,-58.76 1094.61,-47.06"/>
<polygon fill="midnightblue" stroke="midnightblue" points="1237.03,-90.16 1247.6,-89.45 1238.9,-83.41 1237.03,-90.16"/>
</g>
<!-- Node16&#45;&gt;Node7 -->
<g id="edge27" class="edge">
<title>Node16&#45;&gt;Node7</title>
<path fill="none" stroke="midnightblue" d="M1227.52,-88.89C992.82,-54.76 928.47,-84.67 697,-53 694.08,-52.6 691.13,-52.17 688.16,-51.72"/>
<polygon fill="midnightblue" stroke="midnightblue" points="1227.34,-92.4 1237.74,-90.4 1228.36,-85.48 1227.34,-92.4"/>
</g>
<!-- Node17 -->
<g id="node17" class="node">
<title>Node17</title>
<g id="a_node17"><a xlink:href="smt__solver__process_8cpp.html" target="_top" xlink:title=" ">
<polygon fill="none" stroke="black" points="1360,-0.5 1360,-52.5 1560,-52.5 1560,-0.5 1360,-0.5"/>
<text text-anchor="start" x="1368" y="-40.5" font-family="Helvetica,sans-Serif" font-size="10.00">/home/runner/work/cbmc</text>
<text text-anchor="start" x="1368" y="-29.5" font-family="Helvetica,sans-Serif" font-size="10.00">&#45;documentation/cbmc&#45;documentation</text>
<text text-anchor="start" x="1368" y="-18.5" font-family="Helvetica,sans-Serif" font-size="10.00">/src/solvers/smt2_incremental</text>
<text text-anchor="middle" x="1460" y="-7.5" font-family="Helvetica,sans-Serif" font-size="10.00">/smt_solver_process.cpp</text>
</a>
</g>
</g>
<!-- Node16&#45;&gt;Node17 -->
<g id="edge28" class="edge">
<title>Node16&#45;&gt;Node17</title>
<path fill="none" stroke="midnightblue" d="M1381.47,-83.5C1395.67,-73.37 1411.27,-62.25 1424.79,-52.61"/>
<polygon fill="midnightblue" stroke="midnightblue" points="1379.4,-80.68 1373.29,-89.34 1383.46,-86.38 1379.4,-80.68"/>
</g>
<!-- Node18&#45;&gt;Node17 -->
<g id="edge32" class="edge">
<title>Node18&#45;&gt;Node17</title>
<path fill="none" stroke="midnightblue" d="M1701.75,-87.25C1656.47,-76.06 1604.41,-63.19 1560.23,-52.27"/>
<polygon fill="midnightblue" stroke="midnightblue" points="1701.05,-90.68 1711.6,-89.69 1702.73,-83.89 1701.05,-90.68"/>
</g>
<!-- Node19 -->
<g id="node19" class="node">
<title>Node19</title>
<g id="a_node19"><a xlink:href="smt__response__validation_8cpp.html" target="_top" xlink:title=" ">
<polygon fill="none" stroke="black" points="1796,-0.5 1796,-52.5 1996,-52.5 1996,-0.5 1796,-0.5"/>
<text text-anchor="start" x="1804" y="-40.5" font-family="Helvetica,sans-Serif" font-size="10.00">/home/runner/work/cbmc</text>
<text text-anchor="start" x="1804" y="-29.5" font-family="Helvetica,sans-Serif" font-size="10.00">&#45;documentation/cbmc&#45;documentation</text>
<text text-anchor="start" x="1804" y="-18.5" font-family="Helvetica,sans-Serif" font-size="10.00">/src/solvers/smt2_incremental</text>
<text text-anchor="middle" x="1896" y="-7.5" font-family="Helvetica,sans-Serif" font-size="10.00">/smt_response_validation.cpp</text>
</a>
</g>
</g>
<!-- Node18&#45;&gt;Node19 -->
<g id="edge31" class="edge">
<title>Node18&#45;&gt;Node19</title>
<path fill="none" stroke="midnightblue" d="M1843.31,-82.08C1852.71,-72.34 1862.88,-61.8 1871.76,-52.61"/>
<polygon fill="midnightblue" stroke="midnightblue" points="1840.72,-79.71 1836.3,-89.34 1845.76,-84.57 1840.72,-79.71"/>
</g>
<!-- Node22&#45;&gt;Node7 -->
<g id="edge38" class="edge">
<title>Node22&#45;&gt;Node7</title>
<path fill="none" stroke="midnightblue" d="M1483.88,-93.88C1471.47,-92.01 1458.99,-90.32 1447,-89 1115.29,-52.41 1028.06,-95 697,-53 694.08,-52.63 691.12,-52.23 688.15,-51.8"/>
<polygon fill="midnightblue" stroke="midnightblue" points="1483.39,-97.34 1493.81,-95.42 1484.46,-90.43 1483.39,-97.34"/>
</g>
<!-- Node22&#45;&gt;Node10 -->
<g id="edge37" class="edge">
<title>Node22&#45;&gt;Node10</title>
<path fill="none" stroke="midnightblue" d="M1483.75,-87.25C1438.47,-76.06 1386.41,-63.19 1342.23,-52.27"/>
<polygon fill="midnightblue" stroke="midnightblue" points="1483.05,-90.68 1493.6,-89.69 1484.73,-83.89 1483.05,-90.68"/>
</g>
<!-- Node22&#45;&gt;Node19 -->
<g id="edge40" class="edge">
<title>Node22&#45;&gt;Node19</title>
<path fill="none" stroke="midnightblue" d="M1690.99,-86.56C1728.97,-75.62 1772.21,-63.16 1809.15,-52.52"/>
<polygon fill="midnightblue" stroke="midnightblue" points="1689.59,-83.32 1680.95,-89.45 1691.52,-90.05 1689.59,-83.32"/>
</g>
<!-- Node23 -->
<g id="node23" class="node">
<title>Node23</title>
<g id="a_node23"><a xlink:href="smt__array__theory_8cpp.html" target="_top" xlink:title=" ">
<polygon fill="none" stroke="black" points="1578,-0.5 1578,-52.5 1778,-52.5 1778,-0.5 1578,-0.5"/>
<text text-anchor="start" x="1586" y="-40.5" font-family="Helvetica,sans-Serif" font-size="10.00">/home/runner/work/cbmc</text>
<text text-anchor="start" x="1586" y="-29.5" font-family="Helvetica,sans-Serif" font-size="10.00">&#45;documentation/cbmc&#45;documentation</text>
<text text-anchor="start" x="1586" y="-18.5" font-family="Helvetica,sans-Serif" font-size="10.00">/src/solvers/smt2_incremental</text>
<text text-anchor="middle" x="1678" y="-7.5" font-family="Helvetica,sans-Serif" font-size="10.00">/smt_array_theory.cpp</text>
</a>
</g>
</g>
<!-- Node22&#45;&gt;Node23 -->
<g id="edge39" class="edge">
<title>Node22&#45;&gt;Node23</title>
<path fill="none" stroke="midnightblue" d="M1625.31,-82.08C1634.71,-72.34 1644.88,-61.8 1653.76,-52.61"/>
<polygon fill="midnightblue" stroke="midnightblue" points="1622.72,-79.71 1618.3,-89.34 1627.76,-84.57 1622.72,-79.71"/>
</g>
<!-- Node24&#45;&gt;Node10 -->
<g id="edge42" class="edge">
<title>Node24&#45;&gt;Node10</title>
<path fill="none" stroke="midnightblue" d="M1466.72,-346.69C1482.74,-287.14 1505.22,-164.79 1447,-89 1439.91,-79.77 1390.69,-64.85 1342.26,-52.02"/>
<polygon fill="midnightblue" stroke="midnightblue" points="1463.33,-345.81 1464.02,-356.38 1470.08,-347.69 1463.33,-345.81"/>
</g>
<!-- Node25 -->
<g id="node25" class="node">
<title>Node25</title>
<g id="a_node25"><a xlink:href="smt__bit__vector__theory_8cpp.html" target="_top" xlink:title=" ">
<polygon fill="none" stroke="black" points="1238,-267.5 1238,-319.5 1438,-319.5 1438,-267.5 1238,-267.5"/>
<text text-anchor="start" x="1246" y="-307.5" font-family="Helvetica,sans-Serif" font-size="10.00">/home/runner/work/cbmc</text>
<text text-anchor="start" x="1246" y="-296.5" font-family="Helvetica,sans-Serif" font-size="10.00">&#45;documentation/cbmc&#45;documentation</text>
<text text-anchor="start" x="1246" y="-285.5" font-family="Helvetica,sans-Serif" font-size="10.00">/src/solvers/smt2_incremental</text>
<text text-anchor="middle" x="1338" y="-274.5" font-family="Helvetica,sans-Serif" font-size="10.00">/smt_bit_vector_theory.cpp</text>
</a>
</g>
</g>
<!-- Node24&#45;&gt;Node25 -->
<g id="edge43" class="edge">
<title>Node24&#45;&gt;Node25</title>
<path fill="none" stroke="midnightblue" d="M1413.57,-350.22C1399.93,-340.16 1385.01,-329.16 1372.05,-319.61"/>
<polygon fill="midnightblue" stroke="midnightblue" points="1411.74,-353.22 1421.87,-356.34 1415.9,-347.58 1411.74,-353.22"/>
</g>
<!-- Node26&#45;&gt;Node7 -->
<g id="edge46" class="edge">
<title>Node26&#45;&gt;Node7</title>
<path fill="none" stroke="midnightblue" d="M1009.55,-88.84C870.82,-65.43 832.44,-74.76 697,-53 694.09,-52.53 691.15,-52.04 688.18,-51.54"/>
<polygon fill="midnightblue" stroke="midnightblue" points="1009.27,-92.34 1019.72,-90.58 1010.45,-85.44 1009.27,-92.34"/>
</g>
<!-- Node26&#45;&gt;Node10 -->
<g id="edge45" class="edge">
<title>Node26&#45;&gt;Node10</title>
<path fill="none" stroke="midnightblue" d="M1163.47,-83.5C1177.67,-73.37 1193.27,-62.25 1206.79,-52.61"/>
<polygon fill="midnightblue" stroke="midnightblue" points="1161.4,-80.68 1155.29,-89.34 1165.46,-86.38 1161.4,-80.68"/>
</g>
<!-- Node26&#45;&gt;Node11 -->
<g id="edge48" class="edge">
<title>Node26&#45;&gt;Node11</title>
<path fill="none" stroke="midnightblue" d="M1009.74,-88.95C655.77,-41.29 559.16,-101.39 209,-53 206.11,-52.6 203.19,-52.16 200.24,-51.69"/>
<polygon fill="midnightblue" stroke="midnightblue" points="1009.37,-92.43 1019.76,-90.31 1010.32,-85.49 1009.37,-92.43"/>
</g>
<!-- Node27 -->
<g id="node27" class="node">
<title>Node27</title>
<g id="a_node27"><a xlink:href="smt__core__theory_8cpp.html" target="_top" xlink:title=" ">
<polygon fill="none" stroke="black" points="706,-0.5 706,-52.5 906,-52.5 906,-0.5 706,-0.5"/>
<text text-anchor="start" x="714" y="-40.5" font-family="Helvetica,sans-Serif" font-size="10.00">/home/runner/work/cbmc</text>
<text text-anchor="start" x="714" y="-29.5" font-family="Helvetica,sans-Serif" font-size="10.00">&#45;documentation/cbmc&#45;documentation</text>
<text text-anchor="start" x="714" y="-18.5" font-family="Helvetica,sans-Serif" font-size="10.00">/src/solvers/smt2_incremental</text>
<text text-anchor="middle" x="806" y="-7.5" font-family="Helvetica,sans-Serif" font-size="10.00">/smt_core_theory.cpp</text>
</a>
</g>
</g>
<!-- Node26&#45;&gt;Node27 -->
<g id="edge47" class="edge">
<title>Node26&#45;&gt;Node27</title>
<path fill="none" stroke="midnightblue" d="M1019.91,-86.77C980.24,-75.78 934.96,-63.23 896.31,-52.52"/>
<polygon fill="midnightblue" stroke="midnightblue" points="1019.03,-90.16 1029.6,-89.45 1020.9,-83.41 1019.03,-90.16"/>
</g>
</g>
</svg>
