<?xml version="1.0" encoding="UTF-8" standalone="no"?>
<!DOCTYPE svg PUBLIC "-//W3C//DTD SVG 1.1//EN"
 "http://www.w3.org/Graphics/SVG/1.1/DTD/svg11.dtd">
<!-- Generated by graphviz version 2.43.0 (0)
 -->
<!-- Title: /home/runner/work/cbmc&#45;documentation/cbmc&#45;documentation/src/util/run.cpp Pages: 1 -->
<svg width="1052pt" height="162pt"
 viewBox="0.00 0.00 1052.00 162.00" xmlns="http://www.w3.org/2000/svg" xmlns:xlink="http://www.w3.org/1999/xlink">
<g id="graph0" class="graph" transform="scale(1 1) rotate(0) translate(4 158)">
<title>/home/runner/work/cbmc&#45;documentation/cbmc&#45;documentation/src/util/run.cpp</title>
<!-- Node1 -->
<g id="node1" class="node">
<title>Node1</title>
<g id="a_node1"><a xlink:title=" ">
<polygon fill="#bfbfbf" stroke="black" points="420.5,-112.5 420.5,-153.5 620.5,-153.5 620.5,-112.5 420.5,-112.5"/>
<text text-anchor="start" x="428.5" y="-141.5" font-family="Helvetica,sans-Serif" font-size="10.00">/home/runner/work/cbmc</text>
<text text-anchor="start" x="428.5" y="-130.5" font-family="Helvetica,sans-Serif" font-size="10.00">&#45;documentation/cbmc&#45;documentation</text>
<text text-anchor="middle" x="520.5" y="-119.5" font-family="Helvetica,sans-Serif" font-size="10.00">/src/util/run.cpp</text>
</a>
</g>
</g>
<!-- Node2 -->
<g id="node2" class="node">
<title>Node2</title>
<g id="a_node2"><a xlink:href="run_8h.html" target="_top" xlink:title=" ">
<polygon fill="none" stroke="black" points="105,-56.5 105,-75.5 146,-75.5 146,-56.5 105,-56.5"/>
<text text-anchor="middle" x="125.5" y="-63.5" font-family="Helvetica,sans-Serif" font-size="10.00">run.h</text>
</a>
</g>
</g>
<!-- Node1&#45;&gt;Node2 -->
<g id="edge1" class="edge">
<title>Node1&#45;&gt;Node2</title>
<path fill="none" stroke="midnightblue" d="M420.14,-117.36C349.6,-106.74 253.09,-91.57 168.5,-76 164.48,-75.26 160.26,-74.44 156.1,-73.59"/>
<polygon fill="midnightblue" stroke="midnightblue" points="156.52,-70.11 146.02,-71.51 155.1,-76.96 156.52,-70.11"/>
</g>
<!-- Node6 -->
<g id="node6" class="node">
<title>Node6</title>
<g id="a_node6"><a xlink:title=" ">
<polygon fill="none" stroke="#bfbfbf" points="298.5,-56.5 298.5,-75.5 348.5,-75.5 348.5,-56.5 298.5,-56.5"/>
<text text-anchor="middle" x="323.5" y="-63.5" font-family="Helvetica,sans-Serif" font-size="10.00">cstring</text>
</a>
</g>
</g>
<!-- Node1&#45;&gt;Node6 -->
<g id="edge5" class="edge">
<title>Node1&#45;&gt;Node6</title>
<path fill="none" stroke="midnightblue" d="M461.39,-112.5C427.73,-101.39 386.73,-87.86 358.22,-78.46"/>
<polygon fill="midnightblue" stroke="midnightblue" points="359.29,-75.12 348.69,-75.31 357.09,-81.77 359.29,-75.12"/>
</g>
<!-- Node7 -->
<g id="node7" class="node">
<title>Node7</title>
<g id="a_node7"><a xlink:title=" ">
<polygon fill="none" stroke="#bfbfbf" points="367,-56.5 367,-75.5 414,-75.5 414,-56.5 367,-56.5"/>
<text text-anchor="middle" x="390.5" y="-63.5" font-family="Helvetica,sans-Serif" font-size="10.00">cerrno</text>
</a>
</g>
</g>
<!-- Node1&#45;&gt;Node7 -->
<g id="edge6" class="edge">
<title>Node1&#45;&gt;Node7</title>
<path fill="none" stroke="midnightblue" d="M481.5,-112.5C460.61,-102.05 435.43,-89.46 416.86,-80.18"/>
<polygon fill="midnightblue" stroke="midnightblue" points="418.31,-76.99 407.8,-75.65 415.18,-83.26 418.31,-76.99"/>
</g>
<!-- Node8 -->
<g id="node8" class="node">
<title>Node8</title>
<g id="a_node8"><a xlink:title=" ">
<polygon fill="none" stroke="#bfbfbf" points="432.5,-56.5 432.5,-75.5 478.5,-75.5 478.5,-56.5 432.5,-56.5"/>
<text text-anchor="middle" x="455.5" y="-63.5" font-family="Helvetica,sans-Serif" font-size="10.00">cstdio</text>
</a>
</g>
</g>
<!-- Node1&#45;&gt;Node8 -->
<g id="edge7" class="edge">
<title>Node1&#45;&gt;Node8</title>
<path fill="none" stroke="midnightblue" d="M501,-112.5C491.51,-103.01 480.26,-91.76 471.31,-82.81"/>
<polygon fill="midnightblue" stroke="midnightblue" points="473.7,-80.25 464.15,-75.65 468.75,-85.2 473.7,-80.25"/>
</g>
<!-- Node9 -->
<g id="node9" class="node">
<title>Node9</title>
<g id="a_node9"><a xlink:title=" ">
<polygon fill="none" stroke="#bfbfbf" points="194,-0.5 194,-19.5 243,-19.5 243,-0.5 194,-0.5"/>
<text text-anchor="middle" x="218.5" y="-7.5" font-family="Helvetica,sans-Serif" font-size="10.00">cstdlib</text>
</a>
</g>
</g>
<!-- Node1&#45;&gt;Node9 -->
<g id="edge8" class="edge">
<title>Node1&#45;&gt;Node9</title>
<path fill="none" stroke="midnightblue" d="M420.16,-128.07C337.35,-122.47 229.12,-108.89 201.5,-76 190.18,-62.52 198.12,-42.34 206.54,-28.05"/>
<polygon fill="midnightblue" stroke="midnightblue" points="209.48,-29.94 211.95,-19.63 203.6,-26.15 209.48,-29.94"/>
</g>
<!-- Node10 -->
<g id="node10" class="node">
<title>Node10</title>
<g id="a_node10"><a xlink:title=" ">
<polygon fill="none" stroke="#bfbfbf" points="497,-56.5 497,-75.5 544,-75.5 544,-56.5 497,-56.5"/>
<text text-anchor="middle" x="520.5" y="-63.5" font-family="Helvetica,sans-Serif" font-size="10.00">fcntl.h</text>
</a>
</g>
</g>
<!-- Node1&#45;&gt;Node10 -->
<g id="edge9" class="edge">
<title>Node1&#45;&gt;Node10</title>
<path fill="none" stroke="midnightblue" d="M520.5,-112.5C520.5,-104.07 520.5,-94.24 520.5,-85.87"/>
<polygon fill="midnightblue" stroke="midnightblue" points="524,-85.65 520.5,-75.65 517,-85.65 524,-85.65"/>
</g>
<!-- Node11 -->
<g id="node11" class="node">
<title>Node11</title>
<g id="a_node11"><a xlink:title=" ">
<polygon fill="none" stroke="#bfbfbf" points="562,-56.5 562,-75.5 617,-75.5 617,-56.5 562,-56.5"/>
<text text-anchor="middle" x="589.5" y="-63.5" font-family="Helvetica,sans-Serif" font-size="10.00">signal.h</text>
</a>
</g>
</g>
<!-- Node1&#45;&gt;Node11 -->
<g id="edge10" class="edge">
<title>Node1&#45;&gt;Node11</title>
<path fill="none" stroke="midnightblue" d="M541.2,-112.5C551.37,-102.92 563.46,-91.53 573,-82.54"/>
<polygon fill="midnightblue" stroke="midnightblue" points="575.44,-85.06 580.32,-75.65 570.64,-79.96 575.44,-85.06"/>
</g>
<!-- Node12 -->
<g id="node12" class="node">
<title>Node12</title>
<g id="a_node12"><a xlink:title=" ">
<polygon fill="none" stroke="#bfbfbf" points="635.5,-56.5 635.5,-75.5 699.5,-75.5 699.5,-56.5 635.5,-56.5"/>
<text text-anchor="middle" x="667.5" y="-63.5" font-family="Helvetica,sans-Serif" font-size="10.00">sys/stat.h</text>
</a>
</g>
</g>
<!-- Node1&#45;&gt;Node12 -->
<g id="edge11" class="edge">
<title>Node1&#45;&gt;Node12</title>
<path fill="none" stroke="midnightblue" d="M564.6,-112.5C588.55,-101.91 617.48,-89.12 638.56,-79.8"/>
<polygon fill="midnightblue" stroke="midnightblue" points="640.2,-82.9 647.93,-75.65 637.37,-76.5 640.2,-82.9"/>
</g>
<!-- Node13 -->
<g id="node13" class="node">
<title>Node13</title>
<g id="a_node13"><a xlink:title=" ">
<polygon fill="none" stroke="#bfbfbf" points="717.5,-56.5 717.5,-75.5 783.5,-75.5 783.5,-56.5 717.5,-56.5"/>
<text text-anchor="middle" x="750.5" y="-63.5" font-family="Helvetica,sans-Serif" font-size="10.00">sys/wait.h</text>
</a>
</g>
</g>
<!-- Node1&#45;&gt;Node13 -->
<g id="edge12" class="edge">
<title>Node1&#45;&gt;Node13</title>
<path fill="none" stroke="midnightblue" d="M589.51,-112.5C628.96,-101.35 677.06,-87.76 710.35,-78.35"/>
<polygon fill="midnightblue" stroke="midnightblue" points="711.51,-81.65 720.19,-75.57 709.61,-74.92 711.51,-81.65"/>
</g>
<!-- Node14 -->
<g id="node14" class="node">
<title>Node14</title>
<g id="a_node14"><a xlink:title=" ">
<polygon fill="none" stroke="#bfbfbf" points="801.5,-56.5 801.5,-75.5 857.5,-75.5 857.5,-56.5 801.5,-56.5"/>
<text text-anchor="middle" x="829.5" y="-63.5" font-family="Helvetica,sans-Serif" font-size="10.00">unistd.h</text>
</a>
</g>
</g>
<!-- Node1&#45;&gt;Node14 -->
<g id="edge13" class="edge">
<title>Node1&#45;&gt;Node14</title>
<path fill="none" stroke="midnightblue" d="M619.52,-112.49C668.55,-102.62 728.86,-90.17 791.22,-76.23"/>
<polygon fill="midnightblue" stroke="midnightblue" points="792.25,-79.59 801.24,-73.98 790.72,-72.76 792.25,-79.59"/>
</g>
<!-- Node15 -->
<g id="node15" class="node">
<title>Node15</title>
<g id="a_node15"><a xlink:title=" ">
<polygon fill="none" stroke="#bfbfbf" points="876,-56.5 876,-75.5 931,-75.5 931,-56.5 876,-56.5"/>
<text text-anchor="middle" x="903.5" y="-63.5" font-family="Helvetica,sans-Serif" font-size="10.00">fstream</text>
</a>
</g>
</g>
<!-- Node1&#45;&gt;Node15 -->
<g id="edge14" class="edge">
<title>Node1&#45;&gt;Node15</title>
<path fill="none" stroke="midnightblue" d="M620.81,-117.88C687.58,-107.99 777.42,-93.72 865.75,-76.02"/>
<polygon fill="midnightblue" stroke="midnightblue" points="866.56,-79.43 875.67,-74.02 865.18,-72.57 866.56,-79.43"/>
</g>
<!-- Node16 -->
<g id="node16" class="node">
<title>Node16</title>
<g id="a_node16"><a xlink:href="src_2util_2invariant_8h.html" target="_top" xlink:title=" ">
<polygon fill="none" stroke="black" points="211,-56.5 211,-75.5 280,-75.5 280,-56.5 211,-56.5"/>
<text text-anchor="middle" x="245.5" y="-63.5" font-family="Helvetica,sans-Serif" font-size="10.00">invariant.h</text>
</a>
</g>
</g>
<!-- Node1&#45;&gt;Node16 -->
<g id="edge15" class="edge">
<title>Node1&#45;&gt;Node16</title>
<path fill="none" stroke="midnightblue" d="M437.99,-112.5C389.53,-101.04 330.15,-87.01 290.27,-77.58"/>
<polygon fill="midnightblue" stroke="midnightblue" points="290.85,-74.12 280.31,-75.23 289.24,-80.94 290.85,-74.12"/>
</g>
<!-- Node19 -->
<g id="node19" class="node">
<title>Node19</title>
<g id="a_node19"><a xlink:href="signal__catcher_8h.html" target="_top" xlink:title=" ">
<polygon fill="none" stroke="black" points="949,-56.5 949,-75.5 1044,-75.5 1044,-56.5 949,-56.5"/>
<text text-anchor="middle" x="996.5" y="-63.5" font-family="Helvetica,sans-Serif" font-size="10.00">signal_catcher.h</text>
</a>
</g>
</g>
<!-- Node1&#45;&gt;Node19 -->
<g id="edge20" class="edge">
<title>Node1&#45;&gt;Node19</title>
<path fill="none" stroke="midnightblue" d="M620.74,-119.4C703.49,-108.82 824.26,-92.98 938.85,-76.21"/>
<polygon fill="midnightblue" stroke="midnightblue" points="939.47,-79.66 948.85,-74.75 938.45,-72.74 939.47,-79.66"/>
</g>
<!-- Node3 -->
<g id="node3" class="node">
<title>Node3</title>
<g id="a_node3"><a xlink:title=" ">
<polygon fill="none" stroke="#bfbfbf" points="65.5,-0.5 65.5,-19.5 113.5,-19.5 113.5,-0.5 65.5,-0.5"/>
<text text-anchor="middle" x="89.5" y="-7.5" font-family="Helvetica,sans-Serif" font-size="10.00">iosfwd</text>
</a>
</g>
</g>
<!-- Node2&#45;&gt;Node3 -->
<g id="edge2" class="edge">
<title>Node2&#45;&gt;Node3</title>
<path fill="none" stroke="midnightblue" d="M119.56,-56.08C114.52,-48.53 107.16,-37.49 100.99,-28.23"/>
<polygon fill="midnightblue" stroke="midnightblue" points="103.79,-26.13 95.33,-19.75 97.97,-30.01 103.79,-26.13"/>
</g>
<!-- Node4 -->
<g id="node4" class="node">
<title>Node4</title>
<g id="a_node4"><a xlink:title=" ">
<polygon fill="none" stroke="#bfbfbf" points="131.5,-0.5 131.5,-19.5 175.5,-19.5 175.5,-0.5 131.5,-0.5"/>
<text text-anchor="middle" x="153.5" y="-7.5" font-family="Helvetica,sans-Serif" font-size="10.00">string</text>
</a>
</g>
</g>
<!-- Node2&#45;&gt;Node4 -->
<g id="edge3" class="edge">
<title>Node2&#45;&gt;Node4</title>
<path fill="none" stroke="midnightblue" d="M130.12,-56.08C133.96,-48.69 139.52,-37.95 144.26,-28.81"/>
<polygon fill="midnightblue" stroke="midnightblue" points="147.47,-30.24 148.96,-19.75 141.25,-27.02 147.47,-30.24"/>
</g>
<!-- Node5 -->
<g id="node5" class="node">
<title>Node5</title>
<g id="a_node5"><a xlink:title=" ">
<polygon fill="none" stroke="#bfbfbf" points="0,-0.5 0,-19.5 47,-19.5 47,-0.5 0,-0.5"/>
<text text-anchor="middle" x="23.5" y="-7.5" font-family="Helvetica,sans-Serif" font-size="10.00">vector</text>
</a>
</g>
</g>
<!-- Node2&#45;&gt;Node5 -->
<g id="edge4" class="edge">
<title>Node2&#45;&gt;Node5</title>
<path fill="none" stroke="midnightblue" d="M109.11,-56.32C92.83,-47.7 67.63,-34.36 48.78,-24.39"/>
<polygon fill="midnightblue" stroke="midnightblue" points="50.32,-21.24 39.85,-19.65 47.05,-27.43 50.32,-21.24"/>
</g>
<!-- Node16&#45;&gt;Node4 -->
<g id="edge18" class="edge">
<title>Node16&#45;&gt;Node4</title>
<path fill="none" stroke="midnightblue" d="M230.72,-56.32C216.23,-47.82 193.93,-34.73 177.01,-24.8"/>
<polygon fill="midnightblue" stroke="midnightblue" points="178.64,-21.7 168.24,-19.65 175.1,-27.74 178.64,-21.7"/>
</g>
<!-- Node16&#45;&gt;Node9 -->
<g id="edge16" class="edge">
<title>Node16&#45;&gt;Node9</title>
<path fill="none" stroke="midnightblue" d="M241.04,-56.08C237.35,-48.69 231.98,-37.95 227.41,-28.81"/>
<polygon fill="midnightblue" stroke="midnightblue" points="230.48,-27.13 222.88,-19.75 224.22,-30.26 230.48,-27.13"/>
</g>
<!-- Node17 -->
<g id="node17" class="node">
<title>Node17</title>
<g id="a_node17"><a xlink:title=" ">
<polygon fill="none" stroke="#bfbfbf" points="348.5,-0.5 348.5,-19.5 404.5,-19.5 404.5,-0.5 348.5,-0.5"/>
<text text-anchor="middle" x="376.5" y="-7.5" font-family="Helvetica,sans-Serif" font-size="10.00">sstream</text>
</a>
</g>
</g>
<!-- Node16&#45;&gt;Node17 -->
<g id="edge17" class="edge">
<title>Node16&#45;&gt;Node17</title>
<path fill="none" stroke="midnightblue" d="M266.26,-56.44C287.82,-47.56 321.76,-33.56 346.29,-23.45"/>
<polygon fill="midnightblue" stroke="midnightblue" points="347.93,-26.56 355.84,-19.52 345.26,-20.09 347.93,-26.56"/>
</g>
<!-- Node18 -->
<g id="node18" class="node">
<title>Node18</title>
<g id="a_node18"><a xlink:title=" ">
<polygon fill="none" stroke="#bfbfbf" points="261,-0.5 261,-19.5 330,-19.5 330,-0.5 261,-0.5"/>
<text text-anchor="middle" x="295.5" y="-7.5" font-family="Helvetica,sans-Serif" font-size="10.00">type_traits</text>
</a>
</g>
</g>
<!-- Node16&#45;&gt;Node18 -->
<g id="edge19" class="edge">
<title>Node16&#45;&gt;Node18</title>
<path fill="none" stroke="midnightblue" d="M253.76,-56.08C260.96,-48.3 271.61,-36.8 280.35,-27.37"/>
<polygon fill="midnightblue" stroke="midnightblue" points="283.17,-29.47 287.4,-19.75 278.03,-24.71 283.17,-29.47"/>
</g>
<!-- Node20 -->
<g id="node20" class="node">
<title>Node20</title>
<g id="a_node20"><a xlink:title=" ">
<polygon fill="none" stroke="#bfbfbf" points="971,-0.5 971,-19.5 1022,-19.5 1022,-0.5 971,-0.5"/>
<text text-anchor="middle" x="996.5" y="-7.5" font-family="Helvetica,sans-Serif" font-size="10.00">csignal</text>
</a>
</g>
</g>
<!-- Node19&#45;&gt;Node20 -->
<g id="edge21" class="edge">
<title>Node19&#45;&gt;Node20</title>
<path fill="none" stroke="midnightblue" d="M996.5,-56.08C996.5,-49.01 996.5,-38.86 996.5,-29.99"/>
<polygon fill="midnightblue" stroke="midnightblue" points="1000,-29.75 996.5,-19.75 993,-29.75 1000,-29.75"/>
</g>
</g>
</svg>
