<?xml version="1.0" encoding="UTF-8" standalone="no"?>
<!DOCTYPE svg PUBLIC "-//W3C//DTD SVG 1.1//EN"
 "http://www.w3.org/Graphics/SVG/1.1/DTD/svg11.dtd">
<!-- Generated by graphviz version 2.43.0 (0)
 -->
<!-- Title: /home/runner/work/cbmc&#45;documentation/cbmc&#45;documentation/src/goto&#45;instrument/rw_set.h Pages: 1 -->
<svg width="1760pt" height="139pt"
 viewBox="0.00 0.00 1760.00 139.00" xmlns="http://www.w3.org/2000/svg" xmlns:xlink="http://www.w3.org/1999/xlink">
<g id="graph0" class="graph" transform="scale(1 1) rotate(0) translate(4 135)">
<title>/home/runner/work/cbmc&#45;documentation/cbmc&#45;documentation/src/goto&#45;instrument/rw_set.h</title>
<!-- Node1 -->
<g id="node1" class="node">
<title>Node1</title>
<g id="a_node1"><a xlink:title=" ">
<polygon fill="#bfbfbf" stroke="black" points="763,-89.5 763,-130.5 963,-130.5 963,-89.5 763,-89.5"/>
<text text-anchor="start" x="771" y="-118.5" font-family="Helvetica,sans-Serif" font-size="10.00">/home/runner/work/cbmc</text>
<text text-anchor="start" x="771" y="-107.5" font-family="Helvetica,sans-Serif" font-size="10.00">&#45;documentation/cbmc&#45;documentation</text>
<text text-anchor="middle" x="863" y="-96.5" font-family="Helvetica,sans-Serif" font-size="10.00">/src/goto&#45;instrument/rw_set.h</text>
</a>
</g>
</g>
<!-- Node2 -->
<g id="node2" class="node">
<title>Node2</title>
<g id="a_node2"><a xlink:href="goto__instrument__parse__options_8cpp.html" target="_top" xlink:title=" ">
<polygon fill="none" stroke="black" points="0,-0.5 0,-52.5 200,-52.5 200,-0.5 0,-0.5"/>
<text text-anchor="start" x="8" y="-40.5" font-family="Helvetica,sans-Serif" font-size="10.00">/home/runner/work/cbmc</text>
<text text-anchor="start" x="8" y="-29.5" font-family="Helvetica,sans-Serif" font-size="10.00">&#45;documentation/cbmc&#45;documentation</text>
<text text-anchor="start" x="8" y="-18.5" font-family="Helvetica,sans-Serif" font-size="10.00">/src/goto&#45;instrument/goto_instrument</text>
<text text-anchor="middle" x="100" y="-7.5" font-family="Helvetica,sans-Serif" font-size="10.00">_parse_options.cpp</text>
</a>
</g>
</g>
<!-- Node1&#45;&gt;Node2 -->
<g id="edge1" class="edge">
<title>Node1&#45;&gt;Node2</title>
<path fill="none" stroke="midnightblue" d="M752.73,-104.42C622.25,-97.88 398.76,-83.16 209,-53 206.12,-52.54 203.21,-52.05 200.27,-51.53"/>
<polygon fill="midnightblue" stroke="midnightblue" points="752.58,-107.92 762.74,-104.92 752.92,-100.93 752.58,-107.92"/>
</g>
<!-- Node3 -->
<g id="node3" class="node">
<title>Node3</title>
<g id="a_node3"><a xlink:href="interrupt_8cpp.html" target="_top" xlink:title=" ">
<polygon fill="none" stroke="black" points="218,-6 218,-47 418,-47 418,-6 218,-6"/>
<text text-anchor="start" x="226" y="-35" font-family="Helvetica,sans-Serif" font-size="10.00">/home/runner/work/cbmc</text>
<text text-anchor="start" x="226" y="-24" font-family="Helvetica,sans-Serif" font-size="10.00">&#45;documentation/cbmc&#45;documentation</text>
<text text-anchor="middle" x="318" y="-13" font-family="Helvetica,sans-Serif" font-size="10.00">/src/goto&#45;instrument/interrupt.cpp</text>
</a>
</g>
</g>
<!-- Node1&#45;&gt;Node3 -->
<g id="edge2" class="edge">
<title>Node1&#45;&gt;Node3</title>
<path fill="none" stroke="midnightblue" d="M752.94,-98.01C664.5,-88.42 537.28,-72.93 427,-53 417.34,-51.25 407.25,-49.21 397.28,-47.04"/>
<polygon fill="midnightblue" stroke="midnightblue" points="752.67,-101.5 762.99,-99.09 753.42,-94.54 752.67,-101.5"/>
</g>
<!-- Node4 -->
<g id="node4" class="node">
<title>Node4</title>
<g id="a_node4"><a xlink:href="mmio_8cpp.html" target="_top" xlink:title=" ">
<polygon fill="none" stroke="black" points="436,-6 436,-47 636,-47 636,-6 436,-6"/>
<text text-anchor="start" x="444" y="-35" font-family="Helvetica,sans-Serif" font-size="10.00">/home/runner/work/cbmc</text>
<text text-anchor="start" x="444" y="-24" font-family="Helvetica,sans-Serif" font-size="10.00">&#45;documentation/cbmc&#45;documentation</text>
<text text-anchor="middle" x="536" y="-13" font-family="Helvetica,sans-Serif" font-size="10.00">/src/goto&#45;instrument/mmio.cpp</text>
</a>
</g>
</g>
<!-- Node1&#45;&gt;Node4 -->
<g id="edge3" class="edge">
<title>Node1&#45;&gt;Node4</title>
<path fill="none" stroke="midnightblue" d="M774.83,-87.02C724.75,-74.54 662.6,-59.05 614.25,-47"/>
<polygon fill="midnightblue" stroke="midnightblue" points="774.13,-90.46 784.68,-89.48 775.82,-83.66 774.13,-90.46"/>
</g>
<!-- Node5 -->
<g id="node5" class="node">
<title>Node5</title>
<g id="a_node5"><a xlink:href="race__check_8cpp.html" target="_top" xlink:title=" ">
<polygon fill="none" stroke="black" points="654,-6 654,-47 854,-47 854,-6 654,-6"/>
<text text-anchor="start" x="662" y="-35" font-family="Helvetica,sans-Serif" font-size="10.00">/home/runner/work/cbmc</text>
<text text-anchor="start" x="662" y="-24" font-family="Helvetica,sans-Serif" font-size="10.00">&#45;documentation/cbmc&#45;documentation</text>
<text text-anchor="middle" x="754" y="-13" font-family="Helvetica,sans-Serif" font-size="10.00">/src/goto&#45;instrument/race_check.cpp</text>
</a>
</g>
</g>
<!-- Node1&#45;&gt;Node5 -->
<g id="edge4" class="edge">
<title>Node1&#45;&gt;Node5</title>
<path fill="none" stroke="midnightblue" d="M828.52,-83.22C812.91,-71.55 794.76,-57.97 780.27,-47.14"/>
<polygon fill="midnightblue" stroke="midnightblue" points="826.79,-86.29 836.89,-89.48 830.98,-80.69 826.79,-86.29"/>
</g>
<!-- Node6 -->
<g id="node6" class="node">
<title>Node6</title>
<g id="a_node6"><a xlink:href="rw__set_8cpp.html" target="_top" xlink:title=" ">
<polygon fill="none" stroke="black" points="872,-6 872,-47 1072,-47 1072,-6 872,-6"/>
<text text-anchor="start" x="880" y="-35" font-family="Helvetica,sans-Serif" font-size="10.00">/home/runner/work/cbmc</text>
<text text-anchor="start" x="880" y="-24" font-family="Helvetica,sans-Serif" font-size="10.00">&#45;documentation/cbmc&#45;documentation</text>
<text text-anchor="middle" x="972" y="-13" font-family="Helvetica,sans-Serif" font-size="10.00">/src/goto&#45;instrument/rw_set.cpp</text>
</a>
</g>
</g>
<!-- Node1&#45;&gt;Node6 -->
<g id="edge5" class="edge">
<title>Node1&#45;&gt;Node6</title>
<path fill="none" stroke="midnightblue" d="M897.48,-83.22C913.09,-71.55 931.24,-57.97 945.73,-47.14"/>
<polygon fill="midnightblue" stroke="midnightblue" points="895.02,-80.69 889.11,-89.48 899.21,-86.29 895.02,-80.69"/>
</g>
<!-- Node7 -->
<g id="node7" class="node">
<title>Node7</title>
<g id="a_node7"><a xlink:href="goto2graph_8cpp.html" target="_top" xlink:title=" ">
<polygon fill="none" stroke="black" points="1090.5,-6 1090.5,-47 1315.5,-47 1315.5,-6 1090.5,-6"/>
<text text-anchor="start" x="1098.5" y="-35" font-family="Helvetica,sans-Serif" font-size="10.00">/home/runner/work/cbmc</text>
<text text-anchor="start" x="1098.5" y="-24" font-family="Helvetica,sans-Serif" font-size="10.00">&#45;documentation/cbmc&#45;documentation</text>
<text text-anchor="middle" x="1203" y="-13" font-family="Helvetica,sans-Serif" font-size="10.00">/src/goto&#45;instrument/wmm/goto2graph.cpp</text>
</a>
</g>
</g>
<!-- Node1&#45;&gt;Node7 -->
<g id="edge6" class="edge">
<title>Node1&#45;&gt;Node7</title>
<path fill="none" stroke="midnightblue" d="M954.35,-87.1C1006.48,-74.61 1071.27,-59.08 1121.64,-47"/>
<polygon fill="midnightblue" stroke="midnightblue" points="953.35,-83.74 944.44,-89.48 954.98,-90.55 953.35,-83.74"/>
</g>
<!-- Node8 -->
<g id="node8" class="node">
<title>Node8</title>
<g id="a_node8"><a xlink:href="shared__buffers_8cpp.html" target="_top" xlink:title=" ">
<polygon fill="none" stroke="black" points="1334,-0.5 1334,-52.5 1534,-52.5 1534,-0.5 1334,-0.5"/>
<text text-anchor="start" x="1342" y="-40.5" font-family="Helvetica,sans-Serif" font-size="10.00">/home/runner/work/cbmc</text>
<text text-anchor="start" x="1342" y="-29.5" font-family="Helvetica,sans-Serif" font-size="10.00">&#45;documentation/cbmc&#45;documentation</text>
<text text-anchor="start" x="1342" y="-18.5" font-family="Helvetica,sans-Serif" font-size="10.00">/src/goto&#45;instrument/wmm/shared</text>
<text text-anchor="middle" x="1434" y="-7.5" font-family="Helvetica,sans-Serif" font-size="10.00">_buffers.cpp</text>
</a>
</g>
</g>
<!-- Node1&#45;&gt;Node8 -->
<g id="edge7" class="edge">
<title>Node1&#45;&gt;Node8</title>
<path fill="none" stroke="midnightblue" d="M973.14,-99.06C1067.05,-89.78 1205.44,-74.17 1325,-53 1327.87,-52.49 1330.78,-51.96 1333.71,-51.4"/>
<polygon fill="midnightblue" stroke="midnightblue" points="972.66,-95.59 963.05,-100.05 973.34,-102.56 972.66,-95.59"/>
</g>
<!-- Node9 -->
<g id="node9" class="node">
<title>Node9</title>
<g id="a_node9"><a xlink:href="weak__memory_8cpp.html" target="_top" xlink:title=" ">
<polygon fill="none" stroke="black" points="1552,-0.5 1552,-52.5 1752,-52.5 1752,-0.5 1552,-0.5"/>
<text text-anchor="start" x="1560" y="-40.5" font-family="Helvetica,sans-Serif" font-size="10.00">/home/runner/work/cbmc</text>
<text text-anchor="start" x="1560" y="-29.5" font-family="Helvetica,sans-Serif" font-size="10.00">&#45;documentation/cbmc&#45;documentation</text>
<text text-anchor="start" x="1560" y="-18.5" font-family="Helvetica,sans-Serif" font-size="10.00">/src/goto&#45;instrument/wmm/weak</text>
<text text-anchor="middle" x="1652" y="-7.5" font-family="Helvetica,sans-Serif" font-size="10.00">_memory.cpp</text>
</a>
</g>
</g>
<!-- Node1&#45;&gt;Node9 -->
<g id="edge8" class="edge">
<title>Node1&#45;&gt;Node9</title>
<path fill="none" stroke="midnightblue" d="M973.57,-104.91C1108.62,-98.77 1343.7,-84.34 1543,-53 1545.88,-52.55 1548.8,-52.06 1551.74,-51.54"/>
<polygon fill="midnightblue" stroke="midnightblue" points="973.05,-101.43 963.22,-105.38 973.36,-108.43 973.05,-101.43"/>
</g>
</g>
</svg>
