<?xml version="1.0" encoding="UTF-8" standalone="no"?>
<!DOCTYPE svg PUBLIC "-//W3C//DTD SVG 1.1//EN"
 "http://www.w3.org/Graphics/SVG/1.1/DTD/svg11.dtd">
<!-- Generated by graphviz version 2.43.0 (0)
 -->
<!-- Title: /home/runner/work/cbmc&#45;documentation/cbmc&#45;documentation/src/solvers/sat/satcheck.h Pages: 1 -->
<svg width="2329pt" height="317pt"
 viewBox="0.00 0.00 2329.00 317.00" xmlns="http://www.w3.org/2000/svg" xmlns:xlink="http://www.w3.org/1999/xlink">
<g id="graph0" class="graph" transform="scale(1 1) rotate(0) translate(4 313)">
<title>/home/runner/work/cbmc&#45;documentation/cbmc&#45;documentation/src/solvers/sat/satcheck.h</title>
<!-- Node1 -->
<g id="node1" class="node">
<title>Node1</title>
<g id="a_node1"><a xlink:title=" ">
<polygon fill="#bfbfbf" stroke="black" points="1435,-267.5 1435,-308.5 1635,-308.5 1635,-267.5 1435,-267.5"/>
<text text-anchor="start" x="1443" y="-296.5" font-family="Helvetica,sans-Serif" font-size="10.00">/home/runner/work/cbmc</text>
<text text-anchor="start" x="1443" y="-285.5" font-family="Helvetica,sans-Serif" font-size="10.00">&#45;documentation/cbmc&#45;documentation</text>
<text text-anchor="middle" x="1535" y="-274.5" font-family="Helvetica,sans-Serif" font-size="10.00">/src/solvers/sat/satcheck.h</text>
</a>
</g>
</g>
<!-- Node2 -->
<g id="node2" class="node">
<title>Node2</title>
<g id="a_node2"><a xlink:href="solver__factory_8cpp.html" target="_top" xlink:title=" ">
<polygon fill="none" stroke="black" points="563,-184 563,-225 763,-225 763,-184 563,-184"/>
<text text-anchor="start" x="571" y="-213" font-family="Helvetica,sans-Serif" font-size="10.00">/home/runner/work/cbmc</text>
<text text-anchor="start" x="571" y="-202" font-family="Helvetica,sans-Serif" font-size="10.00">&#45;documentation/cbmc&#45;documentation</text>
<text text-anchor="middle" x="663" y="-191" font-family="Helvetica,sans-Serif" font-size="10.00">/src/goto&#45;checker/solver_factory.cpp</text>
</a>
</g>
</g>
<!-- Node1&#45;&gt;Node2 -->
<g id="edge1" class="edge">
<title>Node1&#45;&gt;Node2</title>
<path fill="none" stroke="midnightblue" d="M1424.7,-284.32C1275.79,-279.46 1002.55,-266.21 772,-231 761.53,-229.4 750.58,-227.33 739.82,-225.05"/>
<polygon fill="midnightblue" stroke="midnightblue" points="1424.65,-287.82 1434.76,-284.64 1424.88,-280.82 1424.65,-287.82"/>
</g>
<!-- Node3 -->
<g id="node3" class="node">
<title>Node3</title>
<g id="a_node3"><a xlink:href="scratch__program_8h.html" target="_top" xlink:title=" ">
<polygon fill="none" stroke="black" points="781,-178.5 781,-230.5 981,-230.5 981,-178.5 781,-178.5"/>
<text text-anchor="start" x="789" y="-218.5" font-family="Helvetica,sans-Serif" font-size="10.00">/home/runner/work/cbmc</text>
<text text-anchor="start" x="789" y="-207.5" font-family="Helvetica,sans-Serif" font-size="10.00">&#45;documentation/cbmc&#45;documentation</text>
<text text-anchor="start" x="789" y="-196.5" font-family="Helvetica,sans-Serif" font-size="10.00">/src/goto&#45;instrument/accelerate</text>
<text text-anchor="middle" x="881" y="-185.5" font-family="Helvetica,sans-Serif" font-size="10.00">/scratch_program.h</text>
</a>
</g>
</g>
<!-- Node1&#45;&gt;Node3 -->
<g id="edge2" class="edge">
<title>Node1&#45;&gt;Node3</title>
<path fill="none" stroke="midnightblue" d="M1424.68,-273.25C1300.57,-257.79 1100.75,-232.88 981.03,-217.97"/>
<polygon fill="midnightblue" stroke="midnightblue" points="1424.6,-276.77 1434.96,-274.53 1425.47,-269.82 1424.6,-276.77"/>
</g>
<!-- Node10 -->
<g id="node10" class="node">
<title>Node10</title>
<g id="a_node10"><a xlink:href="bv__minimize_8h.html" target="_top" xlink:title=" ">
<polygon fill="none" stroke="black" points="1217,-184 1217,-225 1417,-225 1417,-184 1217,-184"/>
<text text-anchor="start" x="1225" y="-213" font-family="Helvetica,sans-Serif" font-size="10.00">/home/runner/work/cbmc</text>
<text text-anchor="start" x="1225" y="-202" font-family="Helvetica,sans-Serif" font-size="10.00">&#45;documentation/cbmc&#45;documentation</text>
<text text-anchor="middle" x="1317" y="-191" font-family="Helvetica,sans-Serif" font-size="10.00">/src/solvers/flattening/bv_minimize.h</text>
</a>
</g>
</g>
<!-- Node1&#45;&gt;Node10 -->
<g id="edge9" class="edge">
<title>Node1&#45;&gt;Node10</title>
<path fill="none" stroke="midnightblue" d="M1473.28,-263.92C1440.42,-251.64 1400.46,-236.7 1369.17,-225"/>
<polygon fill="midnightblue" stroke="midnightblue" points="1472.19,-267.26 1482.78,-267.48 1474.64,-260.7 1472.19,-267.26"/>
</g>
<!-- Node17 -->
<g id="node17" class="node">
<title>Node17</title>
<g id="a_node17"><a xlink:href="refine__arrays_8cpp.html" target="_top" xlink:title=" ">
<polygon fill="none" stroke="black" points="1435,-178.5 1435,-230.5 1635,-230.5 1635,-178.5 1435,-178.5"/>
<text text-anchor="start" x="1443" y="-218.5" font-family="Helvetica,sans-Serif" font-size="10.00">/home/runner/work/cbmc</text>
<text text-anchor="start" x="1443" y="-207.5" font-family="Helvetica,sans-Serif" font-size="10.00">&#45;documentation/cbmc&#45;documentation</text>
<text text-anchor="start" x="1443" y="-196.5" font-family="Helvetica,sans-Serif" font-size="10.00">/src/solvers/refinement/refine</text>
<text text-anchor="middle" x="1535" y="-185.5" font-family="Helvetica,sans-Serif" font-size="10.00">_arrays.cpp</text>
</a>
</g>
</g>
<!-- Node1&#45;&gt;Node17 -->
<g id="edge16" class="edge">
<title>Node1&#45;&gt;Node17</title>
<path fill="none" stroke="midnightblue" d="M1535,-257.12C1535,-248.41 1535,-238.99 1535,-230.61"/>
<polygon fill="midnightblue" stroke="midnightblue" points="1531.5,-257.27 1535,-267.27 1538.5,-257.27 1531.5,-257.27"/>
</g>
<!-- Node18 -->
<g id="node18" class="node">
<title>Node18</title>
<g id="a_node18"><a xlink:href="smt2__solver_8cpp.html" target="_top" xlink:title=" ">
<polygon fill="none" stroke="black" points="1653,-184 1653,-225 1853,-225 1853,-184 1653,-184"/>
<text text-anchor="start" x="1661" y="-213" font-family="Helvetica,sans-Serif" font-size="10.00">/home/runner/work/cbmc</text>
<text text-anchor="start" x="1661" y="-202" font-family="Helvetica,sans-Serif" font-size="10.00">&#45;documentation/cbmc&#45;documentation</text>
<text text-anchor="middle" x="1753" y="-191" font-family="Helvetica,sans-Serif" font-size="10.00">/src/solvers/smt2/smt2_solver.cpp</text>
</a>
</g>
</g>
<!-- Node1&#45;&gt;Node18 -->
<g id="edge17" class="edge">
<title>Node1&#45;&gt;Node18</title>
<path fill="none" stroke="midnightblue" d="M1596.72,-263.92C1629.58,-251.64 1669.54,-236.7 1700.83,-225"/>
<polygon fill="midnightblue" stroke="midnightblue" points="1595.36,-260.7 1587.22,-267.48 1597.81,-267.26 1595.36,-260.7"/>
</g>
<!-- Node19 -->
<g id="node19" class="node">
<title>Node19</title>
<g id="a_node19"><a xlink:href="string__constraint_8cpp.html" target="_top" xlink:title=" ">
<polygon fill="none" stroke="black" points="1871.5,-184 1871.5,-225 2084.5,-225 2084.5,-184 1871.5,-184"/>
<text text-anchor="start" x="1879.5" y="-213" font-family="Helvetica,sans-Serif" font-size="10.00">/home/runner/work/cbmc</text>
<text text-anchor="start" x="1879.5" y="-202" font-family="Helvetica,sans-Serif" font-size="10.00">&#45;documentation/cbmc&#45;documentation</text>
<text text-anchor="middle" x="1978" y="-191" font-family="Helvetica,sans-Serif" font-size="10.00">/src/solvers/strings/string_constraint.cpp</text>
</a>
</g>
</g>
<!-- Node1&#45;&gt;Node19 -->
<g id="edge18" class="edge">
<title>Node1&#45;&gt;Node19</title>
<path fill="none" stroke="midnightblue" d="M1645.08,-269.47C1708.62,-259.02 1789.96,-245.08 1862,-231 1871.51,-229.14 1881.44,-227.11 1891.31,-225.02"/>
<polygon fill="midnightblue" stroke="midnightblue" points="1644.34,-266.04 1635.04,-271.11 1645.48,-272.95 1644.34,-266.04"/>
</g>
<!-- Node20 -->
<g id="node20" class="node">
<title>Node20</title>
<g id="a_node20"><a xlink:href="string__refinement_8cpp.html" target="_top" xlink:title=" ">
<polygon fill="none" stroke="black" points="2103,-184 2103,-225 2321,-225 2321,-184 2103,-184"/>
<text text-anchor="start" x="2111" y="-213" font-family="Helvetica,sans-Serif" font-size="10.00">/home/runner/work/cbmc</text>
<text text-anchor="start" x="2111" y="-202" font-family="Helvetica,sans-Serif" font-size="10.00">&#45;documentation/cbmc&#45;documentation</text>
<text text-anchor="middle" x="2212" y="-191" font-family="Helvetica,sans-Serif" font-size="10.00">/src/solvers/strings/string_refinement.cpp</text>
</a>
</g>
</g>
<!-- Node1&#45;&gt;Node20 -->
<g id="edge19" class="edge">
<title>Node1&#45;&gt;Node20</title>
<path fill="none" stroke="midnightblue" d="M1645.2,-279.65C1758.29,-271.25 1939.1,-255.42 2094,-231 2104.77,-229.3 2116.03,-227.24 2127.14,-225.04"/>
<polygon fill="midnightblue" stroke="midnightblue" points="1644.87,-276.17 1635.15,-280.39 1645.38,-283.15 1644.87,-276.17"/>
</g>
<!-- Node4 -->
<g id="node4" class="node">
<title>Node4</title>
<g id="a_node4"><a xlink:href="accelerate_8cpp.html" target="_top" xlink:title=" ">
<polygon fill="none" stroke="black" points="0,-89.5 0,-141.5 200,-141.5 200,-89.5 0,-89.5"/>
<text text-anchor="start" x="8" y="-129.5" font-family="Helvetica,sans-Serif" font-size="10.00">/home/runner/work/cbmc</text>
<text text-anchor="start" x="8" y="-118.5" font-family="Helvetica,sans-Serif" font-size="10.00">&#45;documentation/cbmc&#45;documentation</text>
<text text-anchor="start" x="8" y="-107.5" font-family="Helvetica,sans-Serif" font-size="10.00">/src/goto&#45;instrument/accelerate</text>
<text text-anchor="middle" x="100" y="-96.5" font-family="Helvetica,sans-Serif" font-size="10.00">/accelerate.cpp</text>
</a>
</g>
</g>
<!-- Node3&#45;&gt;Node4 -->
<g id="edge3" class="edge">
<title>Node3&#45;&gt;Node4</title>
<path fill="none" stroke="midnightblue" d="M770.69,-177.92C522.17,-142.29 453.77,-178.2 209,-142 206.12,-141.57 203.2,-141.11 200.25,-140.61"/>
<polygon fill="midnightblue" stroke="midnightblue" points="770.35,-181.41 780.75,-179.39 771.36,-174.48 770.35,-181.41"/>
</g>
<!-- Node5 -->
<g id="node5" class="node">
<title>Node5</title>
<g id="a_node5"><a xlink:href="acceleration__utils_8cpp.html" target="_top" xlink:title=" ">
<polygon fill="none" stroke="black" points="218,-89.5 218,-141.5 418,-141.5 418,-89.5 218,-89.5"/>
<text text-anchor="start" x="226" y="-129.5" font-family="Helvetica,sans-Serif" font-size="10.00">/home/runner/work/cbmc</text>
<text text-anchor="start" x="226" y="-118.5" font-family="Helvetica,sans-Serif" font-size="10.00">&#45;documentation/cbmc&#45;documentation</text>
<text text-anchor="start" x="226" y="-107.5" font-family="Helvetica,sans-Serif" font-size="10.00">/src/goto&#45;instrument/accelerate</text>
<text text-anchor="middle" x="318" y="-96.5" font-family="Helvetica,sans-Serif" font-size="10.00">/acceleration_utils.cpp</text>
</a>
</g>
</g>
<!-- Node3&#45;&gt;Node5 -->
<g id="edge4" class="edge">
<title>Node3&#45;&gt;Node5</title>
<path fill="none" stroke="midnightblue" d="M770.52,-177.85C618.17,-153.03 575.76,-167.06 427,-142 424.13,-141.52 421.21,-141 418.28,-140.46"/>
<polygon fill="midnightblue" stroke="midnightblue" points="770.28,-181.36 780.72,-179.54 771.43,-174.45 770.28,-181.36"/>
</g>
<!-- Node6 -->
<g id="node6" class="node">
<title>Node6</title>
<g id="a_node6"><a xlink:href="disjunctive__polynomial__acceleration_8cpp.html" target="_top" xlink:title=" ">
<polygon fill="none" stroke="black" points="436,-89.5 436,-141.5 654,-141.5 654,-89.5 436,-89.5"/>
<text text-anchor="start" x="444" y="-129.5" font-family="Helvetica,sans-Serif" font-size="10.00">/home/runner/work/cbmc</text>
<text text-anchor="start" x="444" y="-118.5" font-family="Helvetica,sans-Serif" font-size="10.00">&#45;documentation/cbmc&#45;documentation</text>
<text text-anchor="start" x="444" y="-107.5" font-family="Helvetica,sans-Serif" font-size="10.00">/src/goto&#45;instrument/accelerate</text>
<text text-anchor="middle" x="545" y="-96.5" font-family="Helvetica,sans-Serif" font-size="10.00">/disjunctive_polynomial_acceleration.cpp</text>
</a>
</g>
</g>
<!-- Node3&#45;&gt;Node6 -->
<g id="edge5" class="edge">
<title>Node3&#45;&gt;Node6</title>
<path fill="none" stroke="midnightblue" d="M774.43,-175.91C731.85,-164.88 683.17,-152.28 641.63,-141.52"/>
<polygon fill="midnightblue" stroke="midnightblue" points="773.71,-179.33 784.27,-178.45 775.46,-172.56 773.71,-179.33"/>
</g>
<!-- Node7 -->
<g id="node7" class="node">
<title>Node7</title>
<g id="a_node7"><a xlink:href="polynomial__accelerator_8cpp.html" target="_top" xlink:title=" ">
<polygon fill="none" stroke="black" points="672,-89.5 672,-141.5 872,-141.5 872,-89.5 672,-89.5"/>
<text text-anchor="start" x="680" y="-129.5" font-family="Helvetica,sans-Serif" font-size="10.00">/home/runner/work/cbmc</text>
<text text-anchor="start" x="680" y="-118.5" font-family="Helvetica,sans-Serif" font-size="10.00">&#45;documentation/cbmc&#45;documentation</text>
<text text-anchor="start" x="680" y="-107.5" font-family="Helvetica,sans-Serif" font-size="10.00">/src/goto&#45;instrument/accelerate</text>
<text text-anchor="middle" x="772" y="-96.5" font-family="Helvetica,sans-Serif" font-size="10.00">/polynomial_accelerator.cpp</text>
</a>
</g>
</g>
<!-- Node3&#45;&gt;Node7 -->
<g id="edge6" class="edge">
<title>Node3&#45;&gt;Node7</title>
<path fill="none" stroke="midnightblue" d="M841.45,-171.93C828.95,-161.96 815.31,-151.07 803.46,-141.61"/>
<polygon fill="midnightblue" stroke="midnightblue" points="839.47,-174.83 849.47,-178.34 843.84,-169.36 839.47,-174.83"/>
</g>
<!-- Node8 -->
<g id="node8" class="node">
<title>Node8</title>
<g id="a_node8"><a xlink:href="sat__path__enumerator_8cpp.html" target="_top" xlink:title=" ">
<polygon fill="none" stroke="black" points="890,-89.5 890,-141.5 1090,-141.5 1090,-89.5 890,-89.5"/>
<text text-anchor="start" x="898" y="-129.5" font-family="Helvetica,sans-Serif" font-size="10.00">/home/runner/work/cbmc</text>
<text text-anchor="start" x="898" y="-118.5" font-family="Helvetica,sans-Serif" font-size="10.00">&#45;documentation/cbmc&#45;documentation</text>
<text text-anchor="start" x="898" y="-107.5" font-family="Helvetica,sans-Serif" font-size="10.00">/src/goto&#45;instrument/accelerate</text>
<text text-anchor="middle" x="990" y="-96.5" font-family="Helvetica,sans-Serif" font-size="10.00">/sat_path_enumerator.cpp</text>
</a>
</g>
</g>
<!-- Node3&#45;&gt;Node8 -->
<g id="edge7" class="edge">
<title>Node3&#45;&gt;Node8</title>
<path fill="none" stroke="midnightblue" d="M920.55,-171.93C933.05,-161.96 946.69,-151.07 958.54,-141.61"/>
<polygon fill="midnightblue" stroke="midnightblue" points="918.16,-169.36 912.53,-178.34 922.53,-174.83 918.16,-169.36"/>
</g>
<!-- Node9 -->
<g id="node9" class="node">
<title>Node9</title>
<g id="a_node9"><a xlink:href="scratch__program_8cpp.html" target="_top" xlink:title=" ">
<polygon fill="none" stroke="black" points="1108,-89.5 1108,-141.5 1308,-141.5 1308,-89.5 1108,-89.5"/>
<text text-anchor="start" x="1116" y="-129.5" font-family="Helvetica,sans-Serif" font-size="10.00">/home/runner/work/cbmc</text>
<text text-anchor="start" x="1116" y="-118.5" font-family="Helvetica,sans-Serif" font-size="10.00">&#45;documentation/cbmc&#45;documentation</text>
<text text-anchor="start" x="1116" y="-107.5" font-family="Helvetica,sans-Serif" font-size="10.00">/src/goto&#45;instrument/accelerate</text>
<text text-anchor="middle" x="1208" y="-96.5" font-family="Helvetica,sans-Serif" font-size="10.00">/scratch_program.cpp</text>
</a>
</g>
</g>
<!-- Node3&#45;&gt;Node9 -->
<g id="edge8" class="edge">
<title>Node3&#45;&gt;Node9</title>
<path fill="none" stroke="midnightblue" d="M984.97,-175.84C1026.35,-164.83 1073.62,-152.25 1113.96,-141.52"/>
<polygon fill="midnightblue" stroke="midnightblue" points="983.91,-172.5 975.14,-178.45 985.71,-179.26 983.91,-172.5"/>
</g>
<!-- Node11 -->
<g id="node11" class="node">
<title>Node11</title>
<g id="a_node11"><a xlink:href="counterexample__beautification_8h.html" target="_top" xlink:title=" ">
<polygon fill="none" stroke="black" points="1326,-89.5 1326,-141.5 1526,-141.5 1526,-89.5 1326,-89.5"/>
<text text-anchor="start" x="1334" y="-129.5" font-family="Helvetica,sans-Serif" font-size="10.00">/home/runner/work/cbmc</text>
<text text-anchor="start" x="1334" y="-118.5" font-family="Helvetica,sans-Serif" font-size="10.00">&#45;documentation/cbmc&#45;documentation</text>
<text text-anchor="start" x="1334" y="-107.5" font-family="Helvetica,sans-Serif" font-size="10.00">/src/goto&#45;checker/counterexample</text>
<text text-anchor="middle" x="1426" y="-96.5" font-family="Helvetica,sans-Serif" font-size="10.00">_beautification.h</text>
</a>
</g>
</g>
<!-- Node10&#45;&gt;Node11 -->
<g id="edge10" class="edge">
<title>Node10&#45;&gt;Node11</title>
<path fill="none" stroke="midnightblue" d="M1349.54,-177.53C1363.79,-166.15 1380.45,-152.86 1394.57,-141.58"/>
<polygon fill="midnightblue" stroke="midnightblue" points="1347.09,-175 1341.46,-183.98 1351.46,-180.47 1347.09,-175"/>
</g>
<!-- Node16 -->
<g id="node16" class="node">
<title>Node16</title>
<g id="a_node16"><a xlink:href="bv__minimize_8cpp.html" target="_top" xlink:title=" ">
<polygon fill="none" stroke="black" points="1544,-95 1544,-136 1752,-136 1752,-95 1544,-95"/>
<text text-anchor="start" x="1552" y="-124" font-family="Helvetica,sans-Serif" font-size="10.00">/home/runner/work/cbmc</text>
<text text-anchor="start" x="1552" y="-113" font-family="Helvetica,sans-Serif" font-size="10.00">&#45;documentation/cbmc&#45;documentation</text>
<text text-anchor="middle" x="1648" y="-102" font-family="Helvetica,sans-Serif" font-size="10.00">/src/solvers/flattening/bv_minimize.cpp</text>
</a>
</g>
</g>
<!-- Node10&#45;&gt;Node16 -->
<g id="edge15" class="edge">
<title>Node10&#45;&gt;Node16</title>
<path fill="none" stroke="midnightblue" d="M1401.04,-181.41C1454.25,-167.42 1522.44,-149.5 1573.68,-136.03"/>
<polygon fill="midnightblue" stroke="midnightblue" points="1400.06,-178.05 1391.28,-183.98 1401.84,-184.82 1400.06,-178.05"/>
</g>
<!-- Node12 -->
<g id="node12" class="node">
<title>Node12</title>
<g id="a_node12"><a xlink:href="counterexample__beautification_8cpp.html" target="_top" xlink:title=" ">
<polygon fill="none" stroke="black" points="999,-0.5 999,-52.5 1199,-52.5 1199,-0.5 999,-0.5"/>
<text text-anchor="start" x="1007" y="-40.5" font-family="Helvetica,sans-Serif" font-size="10.00">/home/runner/work/cbmc</text>
<text text-anchor="start" x="1007" y="-29.5" font-family="Helvetica,sans-Serif" font-size="10.00">&#45;documentation/cbmc&#45;documentation</text>
<text text-anchor="start" x="1007" y="-18.5" font-family="Helvetica,sans-Serif" font-size="10.00">/src/goto&#45;checker/counterexample</text>
<text text-anchor="middle" x="1099" y="-7.5" font-family="Helvetica,sans-Serif" font-size="10.00">_beautification.cpp</text>
</a>
</g>
</g>
<!-- Node11&#45;&gt;Node12 -->
<g id="edge11" class="edge">
<title>Node11&#45;&gt;Node12</title>
<path fill="none" stroke="midnightblue" d="M1322.03,-86.84C1280.65,-75.83 1233.38,-63.25 1193.04,-52.52"/>
<polygon fill="midnightblue" stroke="midnightblue" points="1321.29,-90.26 1331.86,-89.45 1323.09,-83.5 1321.29,-90.26"/>
</g>
<!-- Node13 -->
<g id="node13" class="node">
<title>Node13</title>
<g id="a_node13"><a xlink:href="multi__path__symex__checker_8cpp.html" target="_top" xlink:title=" ">
<polygon fill="none" stroke="black" points="1217,-0.5 1217,-52.5 1417,-52.5 1417,-0.5 1217,-0.5"/>
<text text-anchor="start" x="1225" y="-40.5" font-family="Helvetica,sans-Serif" font-size="10.00">/home/runner/work/cbmc</text>
<text text-anchor="start" x="1225" y="-29.5" font-family="Helvetica,sans-Serif" font-size="10.00">&#45;documentation/cbmc&#45;documentation</text>
<text text-anchor="start" x="1225" y="-18.5" font-family="Helvetica,sans-Serif" font-size="10.00">/src/goto&#45;checker/multi_path</text>
<text text-anchor="middle" x="1317" y="-7.5" font-family="Helvetica,sans-Serif" font-size="10.00">_symex_checker.cpp</text>
</a>
</g>
</g>
<!-- Node11&#45;&gt;Node13 -->
<g id="edge12" class="edge">
<title>Node11&#45;&gt;Node13</title>
<path fill="none" stroke="midnightblue" d="M1386.45,-82.93C1373.95,-72.96 1360.31,-62.07 1348.46,-52.61"/>
<polygon fill="midnightblue" stroke="midnightblue" points="1384.47,-85.83 1394.47,-89.34 1388.84,-80.36 1384.47,-85.83"/>
</g>
<!-- Node14 -->
<g id="node14" class="node">
<title>Node14</title>
<g id="a_node14"><a xlink:href="single__loop__incremental__symex__checker_8cpp.html" target="_top" xlink:title=" ">
<polygon fill="none" stroke="black" points="1435,-0.5 1435,-52.5 1635,-52.5 1635,-0.5 1435,-0.5"/>
<text text-anchor="start" x="1443" y="-40.5" font-family="Helvetica,sans-Serif" font-size="10.00">/home/runner/work/cbmc</text>
<text text-anchor="start" x="1443" y="-29.5" font-family="Helvetica,sans-Serif" font-size="10.00">&#45;documentation/cbmc&#45;documentation</text>
<text text-anchor="start" x="1443" y="-18.5" font-family="Helvetica,sans-Serif" font-size="10.00">/src/goto&#45;checker/single_loop</text>
<text text-anchor="middle" x="1535" y="-7.5" font-family="Helvetica,sans-Serif" font-size="10.00">_incremental_symex_checker.cpp</text>
</a>
</g>
</g>
<!-- Node11&#45;&gt;Node14 -->
<g id="edge13" class="edge">
<title>Node11&#45;&gt;Node14</title>
<path fill="none" stroke="midnightblue" d="M1465.55,-82.93C1478.05,-72.96 1491.69,-62.07 1503.54,-52.61"/>
<polygon fill="midnightblue" stroke="midnightblue" points="1463.16,-80.36 1457.53,-89.34 1467.53,-85.83 1463.16,-80.36"/>
</g>
<!-- Node15 -->
<g id="node15" class="node">
<title>Node15</title>
<g id="a_node15"><a xlink:href="single__path__symex__checker_8cpp.html" target="_top" xlink:title=" ">
<polygon fill="none" stroke="black" points="1653,-0.5 1653,-52.5 1853,-52.5 1853,-0.5 1653,-0.5"/>
<text text-anchor="start" x="1661" y="-40.5" font-family="Helvetica,sans-Serif" font-size="10.00">/home/runner/work/cbmc</text>
<text text-anchor="start" x="1661" y="-29.5" font-family="Helvetica,sans-Serif" font-size="10.00">&#45;documentation/cbmc&#45;documentation</text>
<text text-anchor="start" x="1661" y="-18.5" font-family="Helvetica,sans-Serif" font-size="10.00">/src/goto&#45;checker/single_path</text>
<text text-anchor="middle" x="1753" y="-7.5" font-family="Helvetica,sans-Serif" font-size="10.00">_symex_checker.cpp</text>
</a>
</g>
</g>
<!-- Node11&#45;&gt;Node15 -->
<g id="edge14" class="edge">
<title>Node11&#45;&gt;Node15</title>
<path fill="none" stroke="midnightblue" d="M1529.97,-86.84C1571.35,-75.83 1618.62,-63.25 1658.96,-52.52"/>
<polygon fill="midnightblue" stroke="midnightblue" points="1528.91,-83.5 1520.14,-89.45 1530.71,-90.26 1528.91,-83.5"/>
</g>
</g>
</svg>
