<?xml version="1.0" encoding="UTF-8" standalone="no"?>
<!DOCTYPE svg PUBLIC "-//W3C//DTD SVG 1.1//EN"
 "http://www.w3.org/Graphics/SVG/1.1/DTD/svg11.dtd">
<!-- Generated by graphviz version 2.43.0 (0)
 -->
<!-- Title: /home/runner/work/cbmc&#45;documentation/cbmc&#45;documentation/src/solvers/sat/satcheck.h Pages: 1 -->
<svg width="2328pt" height="317pt"
 viewBox="0.00 0.00 2328.00 317.00" xmlns="http://www.w3.org/2000/svg" xmlns:xlink="http://www.w3.org/1999/xlink">
<g id="graph0" class="graph" transform="scale(1 1) rotate(0) translate(4 313)">
<title>/home/runner/work/cbmc&#45;documentation/cbmc&#45;documentation/src/solvers/sat/satcheck.h</title>
<!-- Node1 -->
<g id="node1" class="node">
<title>Node1</title>
<g id="a_node1"><a xlink:title=" ">
<polygon fill="#bfbfbf" stroke="black" points="1434,-267.5 1434,-308.5 1634,-308.5 1634,-267.5 1434,-267.5"/>
<text text-anchor="start" x="1442" y="-296.5" font-family="Helvetica,sans-Serif" font-size="10.00">/home/runner/work/cbmc</text>
<text text-anchor="start" x="1442" y="-285.5" font-family="Helvetica,sans-Serif" font-size="10.00">&#45;documentation/cbmc&#45;documentation</text>
<text text-anchor="middle" x="1534" y="-274.5" font-family="Helvetica,sans-Serif" font-size="10.00">/src/solvers/sat/satcheck.h</text>
</a>
</g>
</g>
<!-- Node2 -->
<g id="node2" class="node">
<title>Node2</title>
<g id="a_node2"><a xlink:href="bv__minimize_8h.html" target="_top" xlink:title=" ">
<polygon fill="none" stroke="black" points="549,-184 549,-225 749,-225 749,-184 549,-184"/>
<text text-anchor="start" x="557" y="-213" font-family="Helvetica,sans-Serif" font-size="10.00">/home/runner/work/cbmc</text>
<text text-anchor="start" x="557" y="-202" font-family="Helvetica,sans-Serif" font-size="10.00">&#45;documentation/cbmc&#45;documentation</text>
<text text-anchor="middle" x="649" y="-191" font-family="Helvetica,sans-Serif" font-size="10.00">/src/solvers/flattening/bv_minimize.h</text>
</a>
</g>
</g>
<!-- Node1&#45;&gt;Node2 -->
<g id="edge1" class="edge">
<title>Node1&#45;&gt;Node2</title>
<path fill="none" stroke="midnightblue" d="M1423.59,-276.83C1250.01,-260.85 915.9,-230.08 749,-214.71"/>
<polygon fill="midnightblue" stroke="midnightblue" points="1423.49,-280.34 1433.77,-277.77 1424.13,-273.37 1423.49,-280.34"/>
</g>
<!-- Node9 -->
<g id="node9" class="node">
<title>Node9</title>
<g id="a_node9"><a xlink:href="solver__factory_8cpp.html" target="_top" xlink:title=" ">
<polygon fill="none" stroke="black" points="998,-184 998,-225 1198,-225 1198,-184 998,-184"/>
<text text-anchor="start" x="1006" y="-213" font-family="Helvetica,sans-Serif" font-size="10.00">/home/runner/work/cbmc</text>
<text text-anchor="start" x="1006" y="-202" font-family="Helvetica,sans-Serif" font-size="10.00">&#45;documentation/cbmc&#45;documentation</text>
<text text-anchor="middle" x="1098" y="-191" font-family="Helvetica,sans-Serif" font-size="10.00">/src/goto&#45;checker/solver_factory.cpp</text>
</a>
</g>
</g>
<!-- Node1&#45;&gt;Node9 -->
<g id="edge8" class="edge">
<title>Node1&#45;&gt;Node9</title>
<path fill="none" stroke="midnightblue" d="M1423.85,-269.83C1360.28,-259.5 1278.94,-245.56 1207,-231 1197.95,-229.17 1188.51,-227.14 1179.13,-225.05"/>
<polygon fill="midnightblue" stroke="midnightblue" points="1423.46,-273.31 1433.89,-271.46 1424.58,-266.4 1423.46,-273.31"/>
</g>
<!-- Node10 -->
<g id="node10" class="node">
<title>Node10</title>
<g id="a_node10"><a xlink:href="scratch__program_8h.html" target="_top" xlink:title=" ">
<polygon fill="none" stroke="black" points="1216,-178.5 1216,-230.5 1416,-230.5 1416,-178.5 1216,-178.5"/>
<text text-anchor="start" x="1224" y="-218.5" font-family="Helvetica,sans-Serif" font-size="10.00">/home/runner/work/cbmc</text>
<text text-anchor="start" x="1224" y="-207.5" font-family="Helvetica,sans-Serif" font-size="10.00">&#45;documentation/cbmc&#45;documentation</text>
<text text-anchor="start" x="1224" y="-196.5" font-family="Helvetica,sans-Serif" font-size="10.00">/src/goto&#45;instrument/accelerate</text>
<text text-anchor="middle" x="1316" y="-185.5" font-family="Helvetica,sans-Serif" font-size="10.00">/scratch_program.h</text>
</a>
</g>
</g>
<!-- Node1&#45;&gt;Node10 -->
<g id="edge9" class="edge">
<title>Node1&#45;&gt;Node10</title>
<path fill="none" stroke="midnightblue" d="M1472.17,-263.89C1444.37,-253.49 1411.48,-241.2 1383.08,-230.58"/>
<polygon fill="midnightblue" stroke="midnightblue" points="1471.19,-267.26 1481.78,-267.48 1473.64,-260.7 1471.19,-267.26"/>
</g>
<!-- Node17 -->
<g id="node17" class="node">
<title>Node17</title>
<g id="a_node17"><a xlink:href="refine__arrays_8cpp.html" target="_top" xlink:title=" ">
<polygon fill="none" stroke="black" points="1434,-178.5 1434,-230.5 1634,-230.5 1634,-178.5 1434,-178.5"/>
<text text-anchor="start" x="1442" y="-218.5" font-family="Helvetica,sans-Serif" font-size="10.00">/home/runner/work/cbmc</text>
<text text-anchor="start" x="1442" y="-207.5" font-family="Helvetica,sans-Serif" font-size="10.00">&#45;documentation/cbmc&#45;documentation</text>
<text text-anchor="start" x="1442" y="-196.5" font-family="Helvetica,sans-Serif" font-size="10.00">/src/solvers/refinement/refine</text>
<text text-anchor="middle" x="1534" y="-185.5" font-family="Helvetica,sans-Serif" font-size="10.00">_arrays.cpp</text>
</a>
</g>
</g>
<!-- Node1&#45;&gt;Node17 -->
<g id="edge16" class="edge">
<title>Node1&#45;&gt;Node17</title>
<path fill="none" stroke="midnightblue" d="M1534,-257.12C1534,-248.41 1534,-238.99 1534,-230.61"/>
<polygon fill="midnightblue" stroke="midnightblue" points="1530.5,-257.27 1534,-267.27 1537.5,-257.27 1530.5,-257.27"/>
</g>
<!-- Node18 -->
<g id="node18" class="node">
<title>Node18</title>
<g id="a_node18"><a xlink:href="smt2__solver_8cpp.html" target="_top" xlink:title=" ">
<polygon fill="none" stroke="black" points="1652,-184 1652,-225 1852,-225 1852,-184 1652,-184"/>
<text text-anchor="start" x="1660" y="-213" font-family="Helvetica,sans-Serif" font-size="10.00">/home/runner/work/cbmc</text>
<text text-anchor="start" x="1660" y="-202" font-family="Helvetica,sans-Serif" font-size="10.00">&#45;documentation/cbmc&#45;documentation</text>
<text text-anchor="middle" x="1752" y="-191" font-family="Helvetica,sans-Serif" font-size="10.00">/src/solvers/smt2/smt2_solver.cpp</text>
</a>
</g>
</g>
<!-- Node1&#45;&gt;Node18 -->
<g id="edge17" class="edge">
<title>Node1&#45;&gt;Node18</title>
<path fill="none" stroke="midnightblue" d="M1595.72,-263.92C1628.58,-251.64 1668.54,-236.7 1699.83,-225"/>
<polygon fill="midnightblue" stroke="midnightblue" points="1594.36,-260.7 1586.22,-267.48 1596.81,-267.26 1594.36,-260.7"/>
</g>
<!-- Node19 -->
<g id="node19" class="node">
<title>Node19</title>
<g id="a_node19"><a xlink:href="string__constraint_8cpp.html" target="_top" xlink:title=" ">
<polygon fill="none" stroke="black" points="1870.5,-184 1870.5,-225 2083.5,-225 2083.5,-184 1870.5,-184"/>
<text text-anchor="start" x="1878.5" y="-213" font-family="Helvetica,sans-Serif" font-size="10.00">/home/runner/work/cbmc</text>
<text text-anchor="start" x="1878.5" y="-202" font-family="Helvetica,sans-Serif" font-size="10.00">&#45;documentation/cbmc&#45;documentation</text>
<text text-anchor="middle" x="1977" y="-191" font-family="Helvetica,sans-Serif" font-size="10.00">/src/solvers/strings/string_constraint.cpp</text>
</a>
</g>
</g>
<!-- Node1&#45;&gt;Node19 -->
<g id="edge18" class="edge">
<title>Node1&#45;&gt;Node19</title>
<path fill="none" stroke="midnightblue" d="M1644.08,-269.47C1707.62,-259.02 1788.96,-245.08 1861,-231 1870.51,-229.14 1880.44,-227.11 1890.31,-225.02"/>
<polygon fill="midnightblue" stroke="midnightblue" points="1643.34,-266.04 1634.04,-271.11 1644.48,-272.95 1643.34,-266.04"/>
</g>
<!-- Node20 -->
<g id="node20" class="node">
<title>Node20</title>
<g id="a_node20"><a xlink:href="string__refinement_8cpp.html" target="_top" xlink:title=" ">
<polygon fill="none" stroke="black" points="2102,-184 2102,-225 2320,-225 2320,-184 2102,-184"/>
<text text-anchor="start" x="2110" y="-213" font-family="Helvetica,sans-Serif" font-size="10.00">/home/runner/work/cbmc</text>
<text text-anchor="start" x="2110" y="-202" font-family="Helvetica,sans-Serif" font-size="10.00">&#45;documentation/cbmc&#45;documentation</text>
<text text-anchor="middle" x="2211" y="-191" font-family="Helvetica,sans-Serif" font-size="10.00">/src/solvers/strings/string_refinement.cpp</text>
</a>
</g>
</g>
<!-- Node1&#45;&gt;Node20 -->
<g id="edge19" class="edge">
<title>Node1&#45;&gt;Node20</title>
<path fill="none" stroke="midnightblue" d="M1644.2,-279.65C1757.29,-271.25 1938.1,-255.42 2093,-231 2103.77,-229.3 2115.03,-227.24 2126.14,-225.04"/>
<polygon fill="midnightblue" stroke="midnightblue" points="1643.87,-276.17 1634.15,-280.39 1644.38,-283.15 1643.87,-276.17"/>
</g>
<!-- Node3 -->
<g id="node3" class="node">
<title>Node3</title>
<g id="a_node3"><a xlink:href="counterexample__beautification_8h.html" target="_top" xlink:title=" ">
<polygon fill="none" stroke="black" points="327,-89.5 327,-141.5 527,-141.5 527,-89.5 327,-89.5"/>
<text text-anchor="start" x="335" y="-129.5" font-family="Helvetica,sans-Serif" font-size="10.00">/home/runner/work/cbmc</text>
<text text-anchor="start" x="335" y="-118.5" font-family="Helvetica,sans-Serif" font-size="10.00">&#45;documentation/cbmc&#45;documentation</text>
<text text-anchor="start" x="335" y="-107.5" font-family="Helvetica,sans-Serif" font-size="10.00">/src/goto&#45;checker/counterexample</text>
<text text-anchor="middle" x="427" y="-96.5" font-family="Helvetica,sans-Serif" font-size="10.00">_beautification.h</text>
</a>
</g>
</g>
<!-- Node2&#45;&gt;Node3 -->
<g id="edge2" class="edge">
<title>Node2&#45;&gt;Node3</title>
<path fill="none" stroke="midnightblue" d="M589.55,-180.2C559.13,-168.28 522.06,-153.75 491.01,-141.58"/>
<polygon fill="midnightblue" stroke="midnightblue" points="588.59,-183.59 599.18,-183.98 591.15,-177.07 588.59,-183.59"/>
</g>
<!-- Node8 -->
<g id="node8" class="node">
<title>Node8</title>
<g id="a_node8"><a xlink:href="bv__minimize_8cpp.html" target="_top" xlink:title=" ">
<polygon fill="none" stroke="black" points="545,-95 545,-136 753,-136 753,-95 545,-95"/>
<text text-anchor="start" x="553" y="-124" font-family="Helvetica,sans-Serif" font-size="10.00">/home/runner/work/cbmc</text>
<text text-anchor="start" x="553" y="-113" font-family="Helvetica,sans-Serif" font-size="10.00">&#45;documentation/cbmc&#45;documentation</text>
<text text-anchor="middle" x="649" y="-102" font-family="Helvetica,sans-Serif" font-size="10.00">/src/solvers/flattening/bv_minimize.cpp</text>
</a>
</g>
</g>
<!-- Node2&#45;&gt;Node8 -->
<g id="edge7" class="edge">
<title>Node2&#45;&gt;Node8</title>
<path fill="none" stroke="midnightblue" d="M649,-173.44C649,-161.1 649,-147.16 649,-136.16"/>
<polygon fill="midnightblue" stroke="midnightblue" points="645.5,-173.76 649,-183.76 652.5,-173.76 645.5,-173.76"/>
</g>
<!-- Node4 -->
<g id="node4" class="node">
<title>Node4</title>
<g id="a_node4"><a xlink:href="counterexample__beautification_8cpp.html" target="_top" xlink:title=" ">
<polygon fill="none" stroke="black" points="0,-0.5 0,-52.5 200,-52.5 200,-0.5 0,-0.5"/>
<text text-anchor="start" x="8" y="-40.5" font-family="Helvetica,sans-Serif" font-size="10.00">/home/runner/work/cbmc</text>
<text text-anchor="start" x="8" y="-29.5" font-family="Helvetica,sans-Serif" font-size="10.00">&#45;documentation/cbmc&#45;documentation</text>
<text text-anchor="start" x="8" y="-18.5" font-family="Helvetica,sans-Serif" font-size="10.00">/src/goto&#45;checker/counterexample</text>
<text text-anchor="middle" x="100" y="-7.5" font-family="Helvetica,sans-Serif" font-size="10.00">_beautification.cpp</text>
</a>
</g>
</g>
<!-- Node3&#45;&gt;Node4 -->
<g id="edge3" class="edge">
<title>Node3&#45;&gt;Node4</title>
<path fill="none" stroke="midnightblue" d="M323.03,-86.84C281.65,-75.83 234.38,-63.25 194.04,-52.52"/>
<polygon fill="midnightblue" stroke="midnightblue" points="322.29,-90.26 332.86,-89.45 324.09,-83.5 322.29,-90.26"/>
</g>
<!-- Node5 -->
<g id="node5" class="node">
<title>Node5</title>
<g id="a_node5"><a xlink:href="multi__path__symex__checker_8cpp.html" target="_top" xlink:title=" ">
<polygon fill="none" stroke="black" points="218,-0.5 218,-52.5 418,-52.5 418,-0.5 218,-0.5"/>
<text text-anchor="start" x="226" y="-40.5" font-family="Helvetica,sans-Serif" font-size="10.00">/home/runner/work/cbmc</text>
<text text-anchor="start" x="226" y="-29.5" font-family="Helvetica,sans-Serif" font-size="10.00">&#45;documentation/cbmc&#45;documentation</text>
<text text-anchor="start" x="226" y="-18.5" font-family="Helvetica,sans-Serif" font-size="10.00">/src/goto&#45;checker/multi_path</text>
<text text-anchor="middle" x="318" y="-7.5" font-family="Helvetica,sans-Serif" font-size="10.00">_symex_checker.cpp</text>
</a>
</g>
</g>
<!-- Node3&#45;&gt;Node5 -->
<g id="edge4" class="edge">
<title>Node3&#45;&gt;Node5</title>
<path fill="none" stroke="midnightblue" d="M387.45,-82.93C374.95,-72.96 361.31,-62.07 349.46,-52.61"/>
<polygon fill="midnightblue" stroke="midnightblue" points="385.47,-85.83 395.47,-89.34 389.84,-80.36 385.47,-85.83"/>
</g>
<!-- Node6 -->
<g id="node6" class="node">
<title>Node6</title>
<g id="a_node6"><a xlink:href="single__loop__incremental__symex__checker_8cpp.html" target="_top" xlink:title=" ">
<polygon fill="none" stroke="black" points="436,-0.5 436,-52.5 636,-52.5 636,-0.5 436,-0.5"/>
<text text-anchor="start" x="444" y="-40.5" font-family="Helvetica,sans-Serif" font-size="10.00">/home/runner/work/cbmc</text>
<text text-anchor="start" x="444" y="-29.5" font-family="Helvetica,sans-Serif" font-size="10.00">&#45;documentation/cbmc&#45;documentation</text>
<text text-anchor="start" x="444" y="-18.5" font-family="Helvetica,sans-Serif" font-size="10.00">/src/goto&#45;checker/single_loop</text>
<text text-anchor="middle" x="536" y="-7.5" font-family="Helvetica,sans-Serif" font-size="10.00">_incremental_symex_checker.cpp</text>
</a>
</g>
</g>
<!-- Node3&#45;&gt;Node6 -->
<g id="edge5" class="edge">
<title>Node3&#45;&gt;Node6</title>
<path fill="none" stroke="midnightblue" d="M466.55,-82.93C479.05,-72.96 492.69,-62.07 504.54,-52.61"/>
<polygon fill="midnightblue" stroke="midnightblue" points="464.16,-80.36 458.53,-89.34 468.53,-85.83 464.16,-80.36"/>
</g>
<!-- Node7 -->
<g id="node7" class="node">
<title>Node7</title>
<g id="a_node7"><a xlink:href="single__path__symex__checker_8cpp.html" target="_top" xlink:title=" ">
<polygon fill="none" stroke="black" points="654,-0.5 654,-52.5 854,-52.5 854,-0.5 654,-0.5"/>
<text text-anchor="start" x="662" y="-40.5" font-family="Helvetica,sans-Serif" font-size="10.00">/home/runner/work/cbmc</text>
<text text-anchor="start" x="662" y="-29.5" font-family="Helvetica,sans-Serif" font-size="10.00">&#45;documentation/cbmc&#45;documentation</text>
<text text-anchor="start" x="662" y="-18.5" font-family="Helvetica,sans-Serif" font-size="10.00">/src/goto&#45;checker/single_path</text>
<text text-anchor="middle" x="754" y="-7.5" font-family="Helvetica,sans-Serif" font-size="10.00">_symex_checker.cpp</text>
</a>
</g>
</g>
<!-- Node3&#45;&gt;Node7 -->
<g id="edge6" class="edge">
<title>Node3&#45;&gt;Node7</title>
<path fill="none" stroke="midnightblue" d="M530.97,-86.84C572.35,-75.83 619.62,-63.25 659.96,-52.52"/>
<polygon fill="midnightblue" stroke="midnightblue" points="529.91,-83.5 521.14,-89.45 531.71,-90.26 529.91,-83.5"/>
</g>
<!-- Node11 -->
<g id="node11" class="node">
<title>Node11</title>
<g id="a_node11"><a xlink:href="accelerate_8cpp.html" target="_top" xlink:title=" ">
<polygon fill="none" stroke="black" points="771,-89.5 771,-141.5 971,-141.5 971,-89.5 771,-89.5"/>
<text text-anchor="start" x="779" y="-129.5" font-family="Helvetica,sans-Serif" font-size="10.00">/home/runner/work/cbmc</text>
<text text-anchor="start" x="779" y="-118.5" font-family="Helvetica,sans-Serif" font-size="10.00">&#45;documentation/cbmc&#45;documentation</text>
<text text-anchor="start" x="779" y="-107.5" font-family="Helvetica,sans-Serif" font-size="10.00">/src/goto&#45;instrument/accelerate</text>
<text text-anchor="middle" x="871" y="-96.5" font-family="Helvetica,sans-Serif" font-size="10.00">/accelerate.cpp</text>
</a>
</g>
</g>
<!-- Node10&#45;&gt;Node11 -->
<g id="edge10" class="edge">
<title>Node10&#45;&gt;Node11</title>
<path fill="none" stroke="midnightblue" d="M1205.98,-177.86C1105.03,-158.54 1077.11,-161.03 980,-142 977.04,-141.42 974.05,-140.82 971.02,-140.2"/>
<polygon fill="midnightblue" stroke="midnightblue" points="1205.49,-181.33 1215.98,-179.8 1206.83,-174.46 1205.49,-181.33"/>
</g>
<!-- Node12 -->
<g id="node12" class="node">
<title>Node12</title>
<g id="a_node12"><a xlink:href="acceleration__utils_8cpp.html" target="_top" xlink:title=" ">
<polygon fill="none" stroke="black" points="989,-89.5 989,-141.5 1189,-141.5 1189,-89.5 989,-89.5"/>
<text text-anchor="start" x="997" y="-129.5" font-family="Helvetica,sans-Serif" font-size="10.00">/home/runner/work/cbmc</text>
<text text-anchor="start" x="997" y="-118.5" font-family="Helvetica,sans-Serif" font-size="10.00">&#45;documentation/cbmc&#45;documentation</text>
<text text-anchor="start" x="997" y="-107.5" font-family="Helvetica,sans-Serif" font-size="10.00">/src/goto&#45;instrument/accelerate</text>
<text text-anchor="middle" x="1089" y="-96.5" font-family="Helvetica,sans-Serif" font-size="10.00">/acceleration_utils.cpp</text>
</a>
</g>
</g>
<!-- Node10&#45;&gt;Node12 -->
<g id="edge11" class="edge">
<title>Node10&#45;&gt;Node12</title>
<path fill="none" stroke="midnightblue" d="M1241.27,-174.86C1213.17,-164.09 1181.46,-151.94 1154.28,-141.52"/>
<polygon fill="midnightblue" stroke="midnightblue" points="1240.06,-178.14 1250.65,-178.45 1242.56,-171.61 1240.06,-178.14"/>
</g>
<!-- Node13 -->
<g id="node13" class="node">
<title>Node13</title>
<g id="a_node13"><a xlink:href="disjunctive__polynomial__acceleration_8cpp.html" target="_top" xlink:title=" ">
<polygon fill="none" stroke="black" points="1207,-89.5 1207,-141.5 1425,-141.5 1425,-89.5 1207,-89.5"/>
<text text-anchor="start" x="1215" y="-129.5" font-family="Helvetica,sans-Serif" font-size="10.00">/home/runner/work/cbmc</text>
<text text-anchor="start" x="1215" y="-118.5" font-family="Helvetica,sans-Serif" font-size="10.00">&#45;documentation/cbmc&#45;documentation</text>
<text text-anchor="start" x="1215" y="-107.5" font-family="Helvetica,sans-Serif" font-size="10.00">/src/goto&#45;instrument/accelerate</text>
<text text-anchor="middle" x="1316" y="-96.5" font-family="Helvetica,sans-Serif" font-size="10.00">/disjunctive_polynomial_acceleration.cpp</text>
</a>
</g>
</g>
<!-- Node10&#45;&gt;Node13 -->
<g id="edge12" class="edge">
<title>Node10&#45;&gt;Node13</title>
<path fill="none" stroke="midnightblue" d="M1316,-168.19C1316,-159.28 1316,-149.9 1316,-141.61"/>
<polygon fill="midnightblue" stroke="midnightblue" points="1312.5,-168.34 1316,-178.34 1319.5,-168.34 1312.5,-168.34"/>
</g>
<!-- Node14 -->
<g id="node14" class="node">
<title>Node14</title>
<g id="a_node14"><a xlink:href="polynomial__accelerator_8cpp.html" target="_top" xlink:title=" ">
<polygon fill="none" stroke="black" points="1443,-89.5 1443,-141.5 1643,-141.5 1643,-89.5 1443,-89.5"/>
<text text-anchor="start" x="1451" y="-129.5" font-family="Helvetica,sans-Serif" font-size="10.00">/home/runner/work/cbmc</text>
<text text-anchor="start" x="1451" y="-118.5" font-family="Helvetica,sans-Serif" font-size="10.00">&#45;documentation/cbmc&#45;documentation</text>
<text text-anchor="start" x="1451" y="-107.5" font-family="Helvetica,sans-Serif" font-size="10.00">/src/goto&#45;instrument/accelerate</text>
<text text-anchor="middle" x="1543" y="-96.5" font-family="Helvetica,sans-Serif" font-size="10.00">/polynomial_accelerator.cpp</text>
</a>
</g>
</g>
<!-- Node10&#45;&gt;Node14 -->
<g id="edge13" class="edge">
<title>Node10&#45;&gt;Node14</title>
<path fill="none" stroke="midnightblue" d="M1390.73,-174.86C1418.83,-164.09 1450.54,-151.94 1477.72,-141.52"/>
<polygon fill="midnightblue" stroke="midnightblue" points="1389.44,-171.61 1381.35,-178.45 1391.94,-178.14 1389.44,-171.61"/>
</g>
<!-- Node15 -->
<g id="node15" class="node">
<title>Node15</title>
<g id="a_node15"><a xlink:href="sat__path__enumerator_8cpp.html" target="_top" xlink:title=" ">
<polygon fill="none" stroke="black" points="1661,-89.5 1661,-141.5 1861,-141.5 1861,-89.5 1661,-89.5"/>
<text text-anchor="start" x="1669" y="-129.5" font-family="Helvetica,sans-Serif" font-size="10.00">/home/runner/work/cbmc</text>
<text text-anchor="start" x="1669" y="-118.5" font-family="Helvetica,sans-Serif" font-size="10.00">&#45;documentation/cbmc&#45;documentation</text>
<text text-anchor="start" x="1669" y="-107.5" font-family="Helvetica,sans-Serif" font-size="10.00">/src/goto&#45;instrument/accelerate</text>
<text text-anchor="middle" x="1761" y="-96.5" font-family="Helvetica,sans-Serif" font-size="10.00">/sat_path_enumerator.cpp</text>
</a>
</g>
</g>
<!-- Node10&#45;&gt;Node15 -->
<g id="edge14" class="edge">
<title>Node10&#45;&gt;Node15</title>
<path fill="none" stroke="midnightblue" d="M1426.02,-177.86C1526.97,-158.54 1554.89,-161.03 1652,-142 1654.96,-141.42 1657.95,-140.82 1660.98,-140.2"/>
<polygon fill="midnightblue" stroke="midnightblue" points="1425.17,-174.46 1416.02,-179.8 1426.51,-181.33 1425.17,-174.46"/>
</g>
<!-- Node16 -->
<g id="node16" class="node">
<title>Node16</title>
<g id="a_node16"><a xlink:href="scratch__program_8cpp.html" target="_top" xlink:title=" ">
<polygon fill="none" stroke="black" points="1879,-89.5 1879,-141.5 2079,-141.5 2079,-89.5 1879,-89.5"/>
<text text-anchor="start" x="1887" y="-129.5" font-family="Helvetica,sans-Serif" font-size="10.00">/home/runner/work/cbmc</text>
<text text-anchor="start" x="1887" y="-118.5" font-family="Helvetica,sans-Serif" font-size="10.00">&#45;documentation/cbmc&#45;documentation</text>
<text text-anchor="start" x="1887" y="-107.5" font-family="Helvetica,sans-Serif" font-size="10.00">/src/goto&#45;instrument/accelerate</text>
<text text-anchor="middle" x="1979" y="-96.5" font-family="Helvetica,sans-Serif" font-size="10.00">/scratch_program.cpp</text>
</a>
</g>
</g>
<!-- Node10&#45;&gt;Node16 -->
<g id="edge15" class="edge">
<title>Node10&#45;&gt;Node16</title>
<path fill="none" stroke="midnightblue" d="M1426.34,-177.9C1622.83,-148.14 1677.22,-172.18 1870,-142 1872.88,-141.55 1875.8,-141.06 1878.74,-140.55"/>
<polygon fill="midnightblue" stroke="midnightblue" points="1425.61,-174.47 1416.26,-179.45 1426.68,-181.39 1425.61,-174.47"/>
</g>
</g>
</svg>
