<?xml version="1.0" encoding="UTF-8" standalone="no"?>
<!DOCTYPE svg PUBLIC "-//W3C//DTD SVG 1.1//EN"
 "http://www.w3.org/Graphics/SVG/1.1/DTD/svg11.dtd">
<!-- Generated by graphviz version 2.43.0 (0)
 -->
<!-- Title: /home/runner/work/cbmc&#45;documentation/cbmc&#45;documentation/src/goto&#45;programs/show_goto_functions.h Pages: 1 -->
<svg width="3128pt" height="239pt"
 viewBox="0.00 0.00 3128.00 239.00" xmlns="http://www.w3.org/2000/svg" xmlns:xlink="http://www.w3.org/1999/xlink">
<g id="graph0" class="graph" transform="scale(1 1) rotate(0) translate(4 235)">
<title>/home/runner/work/cbmc&#45;documentation/cbmc&#45;documentation/src/goto&#45;programs/show_goto_functions.h</title>
<!-- Node1 -->
<g id="node1" class="node">
<title>Node1</title>
<g id="a_node1"><a xlink:title=" ">
<polygon fill="#bfbfbf" stroke="black" points="1688,-178.5 1688,-230.5 1888,-230.5 1888,-178.5 1688,-178.5"/>
<text text-anchor="start" x="1696" y="-218.5" font-family="Helvetica,sans-Serif" font-size="10.00">/home/runner/work/cbmc</text>
<text text-anchor="start" x="1696" y="-207.5" font-family="Helvetica,sans-Serif" font-size="10.00">&#45;documentation/cbmc&#45;documentation</text>
<text text-anchor="start" x="1696" y="-196.5" font-family="Helvetica,sans-Serif" font-size="10.00">/src/goto&#45;programs/show_goto</text>
<text text-anchor="middle" x="1788" y="-185.5" font-family="Helvetica,sans-Serif" font-size="10.00">_functions.h</text>
</a>
</g>
</g>
<!-- Node2 -->
<g id="node2" class="node">
<title>Node2</title>
<g id="a_node2"><a xlink:href="cbmc__parse__options_8cpp.html" target="_top" xlink:title=" ">
<polygon fill="none" stroke="black" points="246,-95 246,-136 446,-136 446,-95 246,-95"/>
<text text-anchor="start" x="254" y="-124" font-family="Helvetica,sans-Serif" font-size="10.00">/home/runner/work/cbmc</text>
<text text-anchor="start" x="254" y="-113" font-family="Helvetica,sans-Serif" font-size="10.00">&#45;documentation/cbmc&#45;documentation</text>
<text text-anchor="middle" x="346" y="-102" font-family="Helvetica,sans-Serif" font-size="10.00">/src/cbmc/cbmc_parse_options.cpp</text>
</a>
</g>
</g>
<!-- Node1&#45;&gt;Node2 -->
<g id="edge1" class="edge">
<title>Node1&#45;&gt;Node2</title>
<path fill="none" stroke="midnightblue" d="M1677.74,-201.02C1402.41,-194.42 690.03,-174.63 455,-142 444.03,-140.48 432.54,-138.37 421.3,-136.01"/>
<polygon fill="midnightblue" stroke="midnightblue" points="1677.67,-204.52 1687.75,-201.26 1677.83,-197.52 1677.67,-204.52"/>
</g>
<!-- Node3 -->
<g id="node3" class="node">
<title>Node3</title>
<g id="a_node3"><a xlink:href="goto__analyzer__parse__options_8h.html" target="_top" xlink:title=" ">
<polygon fill="none" stroke="black" points="464,-89.5 464,-141.5 664,-141.5 664,-89.5 464,-89.5"/>
<text text-anchor="start" x="472" y="-129.5" font-family="Helvetica,sans-Serif" font-size="10.00">/home/runner/work/cbmc</text>
<text text-anchor="start" x="472" y="-118.5" font-family="Helvetica,sans-Serif" font-size="10.00">&#45;documentation/cbmc&#45;documentation</text>
<text text-anchor="start" x="472" y="-107.5" font-family="Helvetica,sans-Serif" font-size="10.00">/src/goto&#45;analyzer/goto_analyzer</text>
<text text-anchor="middle" x="564" y="-96.5" font-family="Helvetica,sans-Serif" font-size="10.00">_parse_options.h</text>
</a>
</g>
</g>
<!-- Node1&#45;&gt;Node3 -->
<g id="edge2" class="edge">
<title>Node1&#45;&gt;Node3</title>
<path fill="none" stroke="midnightblue" d="M1677.52,-195.65C1441.44,-178.87 890.93,-139.74 664.26,-123.63"/>
<polygon fill="midnightblue" stroke="midnightblue" points="1677.61,-199.16 1687.83,-196.38 1678.11,-192.18 1677.61,-199.16"/>
</g>
<!-- Node7 -->
<g id="node7" class="node">
<title>Node7</title>
<g id="a_node7"><a xlink:href="goto__diff__parse__options_8h.html" target="_top" xlink:title=" ">
<polygon fill="none" stroke="black" points="1009,-89.5 1009,-141.5 1209,-141.5 1209,-89.5 1009,-89.5"/>
<text text-anchor="start" x="1017" y="-129.5" font-family="Helvetica,sans-Serif" font-size="10.00">/home/runner/work/cbmc</text>
<text text-anchor="start" x="1017" y="-118.5" font-family="Helvetica,sans-Serif" font-size="10.00">&#45;documentation/cbmc&#45;documentation</text>
<text text-anchor="start" x="1017" y="-107.5" font-family="Helvetica,sans-Serif" font-size="10.00">/src/goto&#45;diff/goto_diff_parse</text>
<text text-anchor="middle" x="1109" y="-96.5" font-family="Helvetica,sans-Serif" font-size="10.00">_options.h</text>
</a>
</g>
</g>
<!-- Node1&#45;&gt;Node7 -->
<g id="edge6" class="edge">
<title>Node1&#45;&gt;Node7</title>
<path fill="none" stroke="midnightblue" d="M1677.84,-189.39C1548.05,-172.76 1334.28,-145.36 1209.05,-129.32"/>
<polygon fill="midnightblue" stroke="midnightblue" points="1677.45,-192.86 1687.81,-190.66 1678.34,-185.92 1677.45,-192.86"/>
</g>
<!-- Node11 -->
<g id="node11" class="node">
<title>Node11</title>
<g id="a_node11"><a xlink:href="goto__instrument__parse__options_8h.html" target="_top" xlink:title=" ">
<polygon fill="none" stroke="black" points="1579,-89.5 1579,-141.5 1779,-141.5 1779,-89.5 1579,-89.5"/>
<text text-anchor="start" x="1587" y="-129.5" font-family="Helvetica,sans-Serif" font-size="10.00">/home/runner/work/cbmc</text>
<text text-anchor="start" x="1587" y="-118.5" font-family="Helvetica,sans-Serif" font-size="10.00">&#45;documentation/cbmc&#45;documentation</text>
<text text-anchor="start" x="1587" y="-107.5" font-family="Helvetica,sans-Serif" font-size="10.00">/src/goto&#45;instrument/goto_instrument</text>
<text text-anchor="middle" x="1679" y="-96.5" font-family="Helvetica,sans-Serif" font-size="10.00">_parse_options.h</text>
</a>
</g>
</g>
<!-- Node1&#45;&gt;Node11 -->
<g id="edge10" class="edge">
<title>Node1&#45;&gt;Node11</title>
<path fill="none" stroke="midnightblue" d="M1748.45,-171.93C1735.95,-161.96 1722.31,-151.07 1710.46,-141.61"/>
<polygon fill="midnightblue" stroke="midnightblue" points="1746.47,-174.83 1756.47,-178.34 1750.84,-169.36 1746.47,-174.83"/>
</g>
<!-- Node15 -->
<g id="node15" class="node">
<title>Node15</title>
<g id="a_node15"><a xlink:href="show__goto__functions_8cpp.html" target="_top" xlink:title=" ">
<polygon fill="none" stroke="black" points="1797,-89.5 1797,-141.5 1997,-141.5 1997,-89.5 1797,-89.5"/>
<text text-anchor="start" x="1805" y="-129.5" font-family="Helvetica,sans-Serif" font-size="10.00">/home/runner/work/cbmc</text>
<text text-anchor="start" x="1805" y="-118.5" font-family="Helvetica,sans-Serif" font-size="10.00">&#45;documentation/cbmc&#45;documentation</text>
<text text-anchor="start" x="1805" y="-107.5" font-family="Helvetica,sans-Serif" font-size="10.00">/src/goto&#45;programs/show_goto</text>
<text text-anchor="middle" x="1897" y="-96.5" font-family="Helvetica,sans-Serif" font-size="10.00">_functions.cpp</text>
</a>
</g>
</g>
<!-- Node1&#45;&gt;Node15 -->
<g id="edge14" class="edge">
<title>Node1&#45;&gt;Node15</title>
<path fill="none" stroke="midnightblue" d="M1827.55,-171.93C1840.05,-161.96 1853.69,-151.07 1865.54,-141.61"/>
<polygon fill="midnightblue" stroke="midnightblue" points="1825.16,-169.36 1819.53,-178.34 1829.53,-174.83 1825.16,-169.36"/>
</g>
<!-- Node16 -->
<g id="node16" class="node">
<title>Node16</title>
<g id="a_node16"><a xlink:href="janalyzer__parse__options_8h.html" target="_top" xlink:title=" ">
<polygon fill="none" stroke="black" points="2035,-89.5 2035,-141.5 2235,-141.5 2235,-89.5 2035,-89.5"/>
<text text-anchor="start" x="2043" y="-129.5" font-family="Helvetica,sans-Serif" font-size="10.00">/home/runner/work/cbmc</text>
<text text-anchor="start" x="2043" y="-118.5" font-family="Helvetica,sans-Serif" font-size="10.00">&#45;documentation/cbmc&#45;documentation</text>
<text text-anchor="start" x="2043" y="-107.5" font-family="Helvetica,sans-Serif" font-size="10.00">/jbmc/src/janalyzer/janalyzer</text>
<text text-anchor="middle" x="2135" y="-96.5" font-family="Helvetica,sans-Serif" font-size="10.00">_parse_options.h</text>
</a>
</g>
</g>
<!-- Node1&#45;&gt;Node16 -->
<g id="edge15" class="edge">
<title>Node1&#45;&gt;Node16</title>
<path fill="none" stroke="midnightblue" d="M1897.78,-175.98C1941.82,-164.93 1992.22,-152.3 2035.2,-141.52"/>
<polygon fill="midnightblue" stroke="midnightblue" points="1896.75,-172.63 1887.9,-178.45 1898.45,-179.42 1896.75,-172.63"/>
</g>
<!-- Node19 -->
<g id="node19" class="node">
<title>Node19</title>
<g id="a_node19"><a xlink:href="jbmc__parse__options_8cpp.html" target="_top" xlink:title=" ">
<polygon fill="none" stroke="black" points="2253.5,-95 2253.5,-136 2462.5,-136 2462.5,-95 2253.5,-95"/>
<text text-anchor="start" x="2261.5" y="-124" font-family="Helvetica,sans-Serif" font-size="10.00">/home/runner/work/cbmc</text>
<text text-anchor="start" x="2261.5" y="-113" font-family="Helvetica,sans-Serif" font-size="10.00">&#45;documentation/cbmc&#45;documentation</text>
<text text-anchor="middle" x="2358" y="-102" font-family="Helvetica,sans-Serif" font-size="10.00">/jbmc/src/jbmc/jbmc_parse_options.cpp</text>
</a>
</g>
</g>
<!-- Node1&#45;&gt;Node19 -->
<g id="edge18" class="edge">
<title>Node1&#45;&gt;Node19</title>
<path fill="none" stroke="midnightblue" d="M1897.96,-191.36C1990.58,-180.49 2126.4,-163.04 2244,-142 2253.88,-140.23 2264.2,-138.19 2274.43,-136.06"/>
<polygon fill="midnightblue" stroke="midnightblue" points="1897.54,-187.88 1888.01,-192.52 1898.35,-194.84 1897.54,-187.88"/>
</g>
<!-- Node20 -->
<g id="node20" class="node">
<title>Node20</title>
<g id="a_node20"><a xlink:href="jdiff__parse__options_8h.html" target="_top" xlink:title=" ">
<polygon fill="none" stroke="black" points="2492,-95 2492,-136 2692,-136 2692,-95 2492,-95"/>
<text text-anchor="start" x="2500" y="-124" font-family="Helvetica,sans-Serif" font-size="10.00">/home/runner/work/cbmc</text>
<text text-anchor="start" x="2500" y="-113" font-family="Helvetica,sans-Serif" font-size="10.00">&#45;documentation/cbmc&#45;documentation</text>
<text text-anchor="middle" x="2592" y="-102" font-family="Helvetica,sans-Serif" font-size="10.00">/jbmc/src/jdiff/jdiff_parse_options.h</text>
</a>
</g>
</g>
<!-- Node1&#45;&gt;Node20 -->
<g id="edge19" class="edge">
<title>Node1&#45;&gt;Node20</title>
<path fill="none" stroke="midnightblue" d="M1898.64,-197.56C2034.12,-189.36 2270.33,-172.07 2471,-142 2482.15,-140.33 2493.81,-138.27 2505.31,-136.06"/>
<polygon fill="midnightblue" stroke="midnightblue" points="1898.04,-194.09 1888.26,-198.18 1898.46,-201.08 1898.04,-194.09"/>
</g>
<!-- Node4 -->
<g id="node4" class="node">
<title>Node4</title>
<g id="a_node4"><a xlink:href="goto__analyzer__languages_8cpp.html" target="_top" xlink:title=" ">
<polygon fill="none" stroke="black" points="0,-0.5 0,-52.5 200,-52.5 200,-0.5 0,-0.5"/>
<text text-anchor="start" x="8" y="-40.5" font-family="Helvetica,sans-Serif" font-size="10.00">/home/runner/work/cbmc</text>
<text text-anchor="start" x="8" y="-29.5" font-family="Helvetica,sans-Serif" font-size="10.00">&#45;documentation/cbmc&#45;documentation</text>
<text text-anchor="start" x="8" y="-18.5" font-family="Helvetica,sans-Serif" font-size="10.00">/src/goto&#45;analyzer/goto_analyzer</text>
<text text-anchor="middle" x="100" y="-7.5" font-family="Helvetica,sans-Serif" font-size="10.00">_languages.cpp</text>
</a>
</g>
</g>
<!-- Node3&#45;&gt;Node4 -->
<g id="edge3" class="edge">
<title>Node3&#45;&gt;Node4</title>
<path fill="none" stroke="midnightblue" d="M453.88,-88.86C344.68,-68.68 314.38,-73 209,-53 206.04,-52.44 203.04,-51.85 200.01,-51.24"/>
<polygon fill="midnightblue" stroke="midnightblue" points="453.51,-92.35 463.99,-90.76 454.8,-85.47 453.51,-92.35"/>
</g>
<!-- Node5 -->
<g id="node5" class="node">
<title>Node5</title>
<g id="a_node5"><a xlink:href="goto__analyzer__main_8cpp.html" target="_top" xlink:title=" ">
<polygon fill="none" stroke="black" points="218.5,-6 218.5,-47 445.5,-47 445.5,-6 218.5,-6"/>
<text text-anchor="start" x="226.5" y="-35" font-family="Helvetica,sans-Serif" font-size="10.00">/home/runner/work/cbmc</text>
<text text-anchor="start" x="226.5" y="-24" font-family="Helvetica,sans-Serif" font-size="10.00">&#45;documentation/cbmc&#45;documentation</text>
<text text-anchor="middle" x="332" y="-13" font-family="Helvetica,sans-Serif" font-size="10.00">/src/goto&#45;analyzer/goto_analyzer_main.cpp</text>
</a>
</g>
</g>
<!-- Node3&#45;&gt;Node5 -->
<g id="edge4" class="edge">
<title>Node3&#45;&gt;Node5</title>
<path fill="none" stroke="midnightblue" d="M487.8,-85.92C453.92,-73.22 414.88,-58.58 384.36,-47.13"/>
<polygon fill="midnightblue" stroke="midnightblue" points="486.61,-89.22 497.21,-89.45 489.07,-82.66 486.61,-89.22"/>
</g>
<!-- Node6 -->
<g id="node6" class="node">
<title>Node6</title>
<g id="a_node6"><a xlink:href="goto__analyzer__parse__options_8cpp.html" target="_top" xlink:title=" ">
<polygon fill="none" stroke="black" points="464,-0.5 464,-52.5 664,-52.5 664,-0.5 464,-0.5"/>
<text text-anchor="start" x="472" y="-40.5" font-family="Helvetica,sans-Serif" font-size="10.00">/home/runner/work/cbmc</text>
<text text-anchor="start" x="472" y="-29.5" font-family="Helvetica,sans-Serif" font-size="10.00">&#45;documentation/cbmc&#45;documentation</text>
<text text-anchor="start" x="472" y="-18.5" font-family="Helvetica,sans-Serif" font-size="10.00">/src/goto&#45;analyzer/goto_analyzer</text>
<text text-anchor="middle" x="564" y="-7.5" font-family="Helvetica,sans-Serif" font-size="10.00">_parse_options.cpp</text>
</a>
</g>
</g>
<!-- Node3&#45;&gt;Node6 -->
<g id="edge5" class="edge">
<title>Node3&#45;&gt;Node6</title>
<path fill="none" stroke="midnightblue" d="M564,-79.19C564,-70.28 564,-60.9 564,-52.61"/>
<polygon fill="midnightblue" stroke="midnightblue" points="560.5,-79.34 564,-89.34 567.5,-79.34 560.5,-79.34"/>
</g>
<!-- Node8 -->
<g id="node8" class="node">
<title>Node8</title>
<g id="a_node8"><a xlink:href="goto__diff__languages_8cpp.html" target="_top" xlink:title=" ">
<polygon fill="none" stroke="black" points="682,-6 682,-47 882,-47 882,-6 682,-6"/>
<text text-anchor="start" x="690" y="-35" font-family="Helvetica,sans-Serif" font-size="10.00">/home/runner/work/cbmc</text>
<text text-anchor="start" x="690" y="-24" font-family="Helvetica,sans-Serif" font-size="10.00">&#45;documentation/cbmc&#45;documentation</text>
<text text-anchor="middle" x="782" y="-13" font-family="Helvetica,sans-Serif" font-size="10.00">/src/goto&#45;diff/goto_diff_languages.cpp</text>
</a>
</g>
</g>
<!-- Node7&#45;&gt;Node8 -->
<g id="edge7" class="edge">
<title>Node7&#45;&gt;Node8</title>
<path fill="none" stroke="midnightblue" d="M1004.93,-86.81C956.32,-73.88 899.6,-58.79 855.53,-47.06"/>
<polygon fill="midnightblue" stroke="midnightblue" points="1004.29,-90.26 1014.86,-89.45 1006.09,-83.5 1004.29,-90.26"/>
</g>
<!-- Node9 -->
<g id="node9" class="node">
<title>Node9</title>
<g id="a_node9"><a xlink:href="goto__diff__main_8cpp.html" target="_top" xlink:title=" ">
<polygon fill="none" stroke="black" points="900,-6 900,-47 1100,-47 1100,-6 900,-6"/>
<text text-anchor="start" x="908" y="-35" font-family="Helvetica,sans-Serif" font-size="10.00">/home/runner/work/cbmc</text>
<text text-anchor="start" x="908" y="-24" font-family="Helvetica,sans-Serif" font-size="10.00">&#45;documentation/cbmc&#45;documentation</text>
<text text-anchor="middle" x="1000" y="-13" font-family="Helvetica,sans-Serif" font-size="10.00">/src/goto&#45;diff/goto_diff_main.cpp</text>
</a>
</g>
</g>
<!-- Node7&#45;&gt;Node9 -->
<g id="edge8" class="edge">
<title>Node7&#45;&gt;Node9</title>
<path fill="none" stroke="midnightblue" d="M1069.34,-82.85C1054.35,-70.88 1037.74,-57.62 1024.53,-47.08"/>
<polygon fill="midnightblue" stroke="midnightblue" points="1067.47,-85.83 1077.47,-89.34 1071.84,-80.36 1067.47,-85.83"/>
</g>
<!-- Node10 -->
<g id="node10" class="node">
<title>Node10</title>
<g id="a_node10"><a xlink:href="goto__diff__parse__options_8cpp.html" target="_top" xlink:title=" ">
<polygon fill="none" stroke="black" points="1118,-0.5 1118,-52.5 1318,-52.5 1318,-0.5 1118,-0.5"/>
<text text-anchor="start" x="1126" y="-40.5" font-family="Helvetica,sans-Serif" font-size="10.00">/home/runner/work/cbmc</text>
<text text-anchor="start" x="1126" y="-29.5" font-family="Helvetica,sans-Serif" font-size="10.00">&#45;documentation/cbmc&#45;documentation</text>
<text text-anchor="start" x="1126" y="-18.5" font-family="Helvetica,sans-Serif" font-size="10.00">/src/goto&#45;diff/goto_diff_parse</text>
<text text-anchor="middle" x="1218" y="-7.5" font-family="Helvetica,sans-Serif" font-size="10.00">_options.cpp</text>
</a>
</g>
</g>
<!-- Node7&#45;&gt;Node10 -->
<g id="edge9" class="edge">
<title>Node7&#45;&gt;Node10</title>
<path fill="none" stroke="midnightblue" d="M1148.55,-82.93C1161.05,-72.96 1174.69,-62.07 1186.54,-52.61"/>
<polygon fill="midnightblue" stroke="midnightblue" points="1146.16,-80.36 1140.53,-89.34 1150.53,-85.83 1146.16,-80.36"/>
</g>
<!-- Node12 -->
<g id="node12" class="node">
<title>Node12</title>
<g id="a_node12"><a xlink:href="goto__instrument__languages_8cpp.html" target="_top" xlink:title=" ">
<polygon fill="none" stroke="black" points="1336,-0.5 1336,-52.5 1536,-52.5 1536,-0.5 1336,-0.5"/>
<text text-anchor="start" x="1344" y="-40.5" font-family="Helvetica,sans-Serif" font-size="10.00">/home/runner/work/cbmc</text>
<text text-anchor="start" x="1344" y="-29.5" font-family="Helvetica,sans-Serif" font-size="10.00">&#45;documentation/cbmc&#45;documentation</text>
<text text-anchor="start" x="1344" y="-18.5" font-family="Helvetica,sans-Serif" font-size="10.00">/src/goto&#45;instrument/goto_instrument</text>
<text text-anchor="middle" x="1436" y="-7.5" font-family="Helvetica,sans-Serif" font-size="10.00">_languages.cpp</text>
</a>
</g>
</g>
<!-- Node11&#45;&gt;Node12 -->
<g id="edge11" class="edge">
<title>Node11&#45;&gt;Node12</title>
<path fill="none" stroke="midnightblue" d="M1599.39,-86C1569.21,-75.19 1535.1,-62.98 1505.89,-52.52"/>
<polygon fill="midnightblue" stroke="midnightblue" points="1598.45,-89.38 1609.04,-89.45 1600.81,-82.79 1598.45,-89.38"/>
</g>
<!-- Node13 -->
<g id="node13" class="node">
<title>Node13</title>
<g id="a_node13"><a xlink:href="goto__instrument__main_8cpp.html" target="_top" xlink:title=" ">
<polygon fill="none" stroke="black" points="1554.5,-6 1554.5,-47 1803.5,-47 1803.5,-6 1554.5,-6"/>
<text text-anchor="start" x="1562.5" y="-35" font-family="Helvetica,sans-Serif" font-size="10.00">/home/runner/work/cbmc</text>
<text text-anchor="start" x="1562.5" y="-24" font-family="Helvetica,sans-Serif" font-size="10.00">&#45;documentation/cbmc&#45;documentation</text>
<text text-anchor="middle" x="1679" y="-13" font-family="Helvetica,sans-Serif" font-size="10.00">/src/goto&#45;instrument/goto_instrument_main.cpp</text>
</a>
</g>
</g>
<!-- Node11&#45;&gt;Node13 -->
<g id="edge12" class="edge">
<title>Node11&#45;&gt;Node13</title>
<path fill="none" stroke="midnightblue" d="M1679,-79.16C1679,-68.21 1679,-56.55 1679,-47.08"/>
<polygon fill="midnightblue" stroke="midnightblue" points="1675.5,-79.34 1679,-89.34 1682.5,-79.34 1675.5,-79.34"/>
</g>
<!-- Node14 -->
<g id="node14" class="node">
<title>Node14</title>
<g id="a_node14"><a xlink:href="goto__instrument__parse__options_8cpp.html" target="_top" xlink:title=" ">
<polygon fill="none" stroke="black" points="1822,-0.5 1822,-52.5 2022,-52.5 2022,-0.5 1822,-0.5"/>
<text text-anchor="start" x="1830" y="-40.5" font-family="Helvetica,sans-Serif" font-size="10.00">/home/runner/work/cbmc</text>
<text text-anchor="start" x="1830" y="-29.5" font-family="Helvetica,sans-Serif" font-size="10.00">&#45;documentation/cbmc&#45;documentation</text>
<text text-anchor="start" x="1830" y="-18.5" font-family="Helvetica,sans-Serif" font-size="10.00">/src/goto&#45;instrument/goto_instrument</text>
<text text-anchor="middle" x="1922" y="-7.5" font-family="Helvetica,sans-Serif" font-size="10.00">_parse_options.cpp</text>
</a>
</g>
</g>
<!-- Node11&#45;&gt;Node14 -->
<g id="edge13" class="edge">
<title>Node11&#45;&gt;Node14</title>
<path fill="none" stroke="midnightblue" d="M1758.61,-86C1788.79,-75.19 1822.9,-62.98 1852.11,-52.52"/>
<polygon fill="midnightblue" stroke="midnightblue" points="1757.19,-82.79 1748.96,-89.45 1759.55,-89.38 1757.19,-82.79"/>
</g>
<!-- Node17 -->
<g id="node17" class="node">
<title>Node17</title>
<g id="a_node17"><a xlink:href="janalyzer__main_8cpp.html" target="_top" xlink:title=" ">
<polygon fill="none" stroke="black" points="2040.5,-6 2040.5,-47 2247.5,-47 2247.5,-6 2040.5,-6"/>
<text text-anchor="start" x="2048.5" y="-35" font-family="Helvetica,sans-Serif" font-size="10.00">/home/runner/work/cbmc</text>
<text text-anchor="start" x="2048.5" y="-24" font-family="Helvetica,sans-Serif" font-size="10.00">&#45;documentation/cbmc&#45;documentation</text>
<text text-anchor="middle" x="2144" y="-13" font-family="Helvetica,sans-Serif" font-size="10.00">/jbmc/src/janalyzer/janalyzer_main.cpp</text>
</a>
</g>
</g>
<!-- Node16&#45;&gt;Node17 -->
<g id="edge16" class="edge">
<title>Node16&#45;&gt;Node17</title>
<path fill="none" stroke="midnightblue" d="M2138.66,-79.16C2139.79,-68.21 2140.99,-56.55 2141.97,-47.08"/>
<polygon fill="midnightblue" stroke="midnightblue" points="2135.15,-79.03 2137.6,-89.34 2142.11,-79.75 2135.15,-79.03"/>
</g>
<!-- Node18 -->
<g id="node18" class="node">
<title>Node18</title>
<g id="a_node18"><a xlink:href="janalyzer__parse__options_8cpp.html" target="_top" xlink:title=" ">
<polygon fill="none" stroke="black" points="2266,-0.5 2266,-52.5 2466,-52.5 2466,-0.5 2266,-0.5"/>
<text text-anchor="start" x="2274" y="-40.5" font-family="Helvetica,sans-Serif" font-size="10.00">/home/runner/work/cbmc</text>
<text text-anchor="start" x="2274" y="-29.5" font-family="Helvetica,sans-Serif" font-size="10.00">&#45;documentation/cbmc&#45;documentation</text>
<text text-anchor="start" x="2274" y="-18.5" font-family="Helvetica,sans-Serif" font-size="10.00">/jbmc/src/janalyzer/janalyzer</text>
<text text-anchor="middle" x="2366" y="-7.5" font-family="Helvetica,sans-Serif" font-size="10.00">_parse_options.cpp</text>
</a>
</g>
</g>
<!-- Node16&#45;&gt;Node18 -->
<g id="edge17" class="edge">
<title>Node16&#45;&gt;Node18</title>
<path fill="none" stroke="midnightblue" d="M2211.05,-85.86C2239.65,-75.09 2271.91,-62.94 2299.56,-52.52"/>
<polygon fill="midnightblue" stroke="midnightblue" points="2209.63,-82.65 2201.5,-89.45 2212.1,-89.2 2209.63,-82.65"/>
</g>
<!-- Node21 -->
<g id="node21" class="node">
<title>Node21</title>
<g id="a_node21"><a xlink:href="jdiff__languages_8cpp.html" target="_top" xlink:title=" ">
<polygon fill="none" stroke="black" points="2484,-6 2484,-47 2684,-47 2684,-6 2484,-6"/>
<text text-anchor="start" x="2492" y="-35" font-family="Helvetica,sans-Serif" font-size="10.00">/home/runner/work/cbmc</text>
<text text-anchor="start" x="2492" y="-24" font-family="Helvetica,sans-Serif" font-size="10.00">&#45;documentation/cbmc&#45;documentation</text>
<text text-anchor="middle" x="2584" y="-13" font-family="Helvetica,sans-Serif" font-size="10.00">/jbmc/src/jdiff/jdiff_languages.cpp</text>
</a>
</g>
</g>
<!-- Node20&#45;&gt;Node21 -->
<g id="edge20" class="edge">
<title>Node20&#45;&gt;Node21</title>
<path fill="none" stroke="midnightblue" d="M2589.24,-84.44C2588.1,-72.1 2586.82,-58.16 2585.81,-47.16"/>
<polygon fill="midnightblue" stroke="midnightblue" points="2585.78,-85.12 2590.18,-94.76 2592.75,-84.48 2585.78,-85.12"/>
</g>
<!-- Node22 -->
<g id="node22" class="node">
<title>Node22</title>
<g id="a_node22"><a xlink:href="jdiff__main_8cpp.html" target="_top" xlink:title=" ">
<polygon fill="none" stroke="black" points="2702,-6 2702,-47 2902,-47 2902,-6 2702,-6"/>
<text text-anchor="start" x="2710" y="-35" font-family="Helvetica,sans-Serif" font-size="10.00">/home/runner/work/cbmc</text>
<text text-anchor="start" x="2710" y="-24" font-family="Helvetica,sans-Serif" font-size="10.00">&#45;documentation/cbmc&#45;documentation</text>
<text text-anchor="middle" x="2802" y="-13" font-family="Helvetica,sans-Serif" font-size="10.00">/jbmc/src/jdiff/jdiff_main.cpp</text>
</a>
</g>
</g>
<!-- Node20&#45;&gt;Node22 -->
<g id="edge21" class="edge">
<title>Node20&#45;&gt;Node22</title>
<path fill="none" stroke="midnightblue" d="M2648.69,-91.01C2681.86,-77.27 2723.25,-60.12 2754.67,-47.11"/>
<polygon fill="midnightblue" stroke="midnightblue" points="2647.03,-87.91 2639.13,-94.98 2649.71,-94.38 2647.03,-87.91"/>
</g>
<!-- Node23 -->
<g id="node23" class="node">
<title>Node23</title>
<g id="a_node23"><a xlink:href="jdiff__parse__options_8cpp.html" target="_top" xlink:title=" ">
<polygon fill="none" stroke="black" points="2920,-6 2920,-47 3120,-47 3120,-6 2920,-6"/>
<text text-anchor="start" x="2928" y="-35" font-family="Helvetica,sans-Serif" font-size="10.00">/home/runner/work/cbmc</text>
<text text-anchor="start" x="2928" y="-24" font-family="Helvetica,sans-Serif" font-size="10.00">&#45;documentation/cbmc&#45;documentation</text>
<text text-anchor="middle" x="3020" y="-13" font-family="Helvetica,sans-Serif" font-size="10.00">/jbmc/src/jdiff/jdiff_parse_options.cpp</text>
</a>
</g>
</g>
<!-- Node20&#45;&gt;Node23 -->
<g id="edge22" class="edge">
<title>Node20&#45;&gt;Node23</title>
<path fill="none" stroke="midnightblue" d="M2702.19,-94.36C2763.74,-82.84 2841.77,-67.77 2911,-53 2919.74,-51.14 2928.86,-49.12 2937.94,-47.06"/>
<polygon fill="midnightblue" stroke="midnightblue" points="2701.25,-90.98 2692.06,-96.25 2702.54,-97.86 2701.25,-90.98"/>
</g>
</g>
</svg>
