<?xml version="1.0" encoding="UTF-8" standalone="no"?>
<!DOCTYPE svg PUBLIC "-//W3C//DTD SVG 1.1//EN"
 "http://www.w3.org/Graphics/SVG/1.1/DTD/svg11.dtd">
<!-- Generated by graphviz version 2.43.0 (0)
 -->
<!-- Title: /home/runner/work/cbmc&#45;documentation/cbmc&#45;documentation/src/goto&#45;instrument/show_locations.h Pages: 1 -->
<svg width="880pt" height="498pt"
 viewBox="0.00 0.00 879.50 498.00" xmlns="http://www.w3.org/2000/svg" xmlns:xlink="http://www.w3.org/1999/xlink">
<g id="graph0" class="graph" transform="scale(1 1) rotate(0) translate(4 494)">
<title>/home/runner/work/cbmc&#45;documentation/cbmc&#45;documentation/src/goto&#45;instrument/show_locations.h</title>
<!-- Node1 -->
<g id="node1" class="node">
<title>Node1</title>
<g id="a_node1"><a xlink:title=" ">
<polygon fill="#bfbfbf" stroke="black" points="0,-448.5 0,-489.5 203,-489.5 203,-448.5 0,-448.5"/>
<text text-anchor="start" x="8" y="-477.5" font-family="Helvetica,sans-Serif" font-size="10.00">/home/runner/work/cbmc</text>
<text text-anchor="start" x="8" y="-466.5" font-family="Helvetica,sans-Serif" font-size="10.00">&#45;documentation/cbmc&#45;documentation</text>
<text text-anchor="middle" x="101.5" y="-455.5" font-family="Helvetica,sans-Serif" font-size="10.00">/src/goto&#45;instrument/show_locations.h</text>
</a>
</g>
</g>
<!-- Node2 -->
<g id="node2" class="node">
<title>Node2</title>
<g id="a_node2"><a xlink:href="ui__message_8h.html" target="_top" xlink:title=" ">
<polygon fill="none" stroke="black" points="50,-392.5 50,-411.5 153,-411.5 153,-392.5 50,-392.5"/>
<text text-anchor="middle" x="101.5" y="-399.5" font-family="Helvetica,sans-Serif" font-size="10.00">util/ui_message.h</text>
</a>
</g>
</g>
<!-- Node1&#45;&gt;Node2 -->
<g id="edge1" class="edge">
<title>Node1&#45;&gt;Node2</title>
<path fill="none" stroke="midnightblue" d="M101.5,-448.5C101.5,-440.07 101.5,-430.24 101.5,-421.87"/>
<polygon fill="midnightblue" stroke="midnightblue" points="105,-421.65 101.5,-411.65 98,-421.65 105,-421.65"/>
</g>
<!-- Node3 -->
<g id="node3" class="node">
<title>Node3</title>
<g id="a_node3"><a xlink:title=" ">
<polygon fill="none" stroke="#bfbfbf" points="7.5,-280.5 7.5,-299.5 65.5,-299.5 65.5,-280.5 7.5,-280.5"/>
<text text-anchor="middle" x="36.5" y="-287.5" font-family="Helvetica,sans-Serif" font-size="10.00">memory</text>
</a>
</g>
</g>
<!-- Node2&#45;&gt;Node3 -->
<g id="edge2" class="edge">
<title>Node2&#45;&gt;Node3</title>
<path fill="none" stroke="midnightblue" d="M86.43,-392.3C74.21,-384.43 57.57,-371.67 48.5,-356 40.33,-341.88 37.53,-323.39 36.66,-309.75"/>
<polygon fill="midnightblue" stroke="midnightblue" points="40.15,-309.49 36.31,-299.62 33.16,-309.74 40.15,-309.49"/>
</g>
<!-- Node4 -->
<g id="node4" class="node">
<title>Node4</title>
<g id="a_node4"><a xlink:href="src_2util_2message_8h.html" target="_top" xlink:title=" ">
<polygon fill="none" stroke="black" points="637.5,-336.5 637.5,-355.5 707.5,-355.5 707.5,-336.5 637.5,-336.5"/>
<text text-anchor="middle" x="672.5" y="-343.5" font-family="Helvetica,sans-Serif" font-size="10.00">message.h</text>
</a>
</g>
</g>
<!-- Node2&#45;&gt;Node4 -->
<g id="edge3" class="edge">
<title>Node2&#45;&gt;Node4</title>
<path fill="none" stroke="midnightblue" d="M153.18,-396.11C263.86,-385.65 522.22,-361.21 627.07,-351.3"/>
<polygon fill="midnightblue" stroke="midnightblue" points="627.7,-354.75 637.32,-350.33 627.04,-347.78 627.7,-354.75"/>
</g>
<!-- Node33 -->
<g id="node26" class="node">
<title>Node33</title>
<g id="a_node26"><a xlink:href="timestamper_8h.html" target="_top" xlink:title="Emit timestamps.">
<polygon fill="none" stroke="black" points="57.5,-336.5 57.5,-355.5 145.5,-355.5 145.5,-336.5 57.5,-336.5"/>
<text text-anchor="middle" x="101.5" y="-343.5" font-family="Helvetica,sans-Serif" font-size="10.00">timestamper.h</text>
</a>
</g>
</g>
<!-- Node2&#45;&gt;Node33 -->
<g id="edge35" class="edge">
<title>Node2&#45;&gt;Node33</title>
<path fill="none" stroke="midnightblue" d="M101.5,-392.08C101.5,-385.01 101.5,-374.86 101.5,-365.99"/>
<polygon fill="midnightblue" stroke="midnightblue" points="105,-365.75 101.5,-355.75 98,-365.75 105,-365.75"/>
</g>
<!-- Node5 -->
<g id="node5" class="node">
<title>Node5</title>
<g id="a_node5"><a xlink:title=" ">
<polygon fill="none" stroke="#bfbfbf" points="610,-280.5 610,-299.5 675,-299.5 675,-280.5 610,-280.5"/>
<text text-anchor="middle" x="642.5" y="-287.5" font-family="Helvetica,sans-Serif" font-size="10.00">functional</text>
</a>
</g>
</g>
<!-- Node4&#45;&gt;Node5 -->
<g id="edge4" class="edge">
<title>Node4&#45;&gt;Node5</title>
<path fill="none" stroke="midnightblue" d="M667.55,-336.08C663.4,-328.61 657.35,-317.72 652.23,-308.52"/>
<polygon fill="midnightblue" stroke="midnightblue" points="655.28,-306.79 647.36,-299.75 649.16,-310.19 655.28,-306.79"/>
</g>
<!-- Node6 -->
<g id="node6" class="node">
<title>Node6</title>
<g id="a_node6"><a xlink:title=" ">
<polygon fill="none" stroke="#bfbfbf" points="774.5,-56.5 774.5,-75.5 822.5,-75.5 822.5,-56.5 774.5,-56.5"/>
<text text-anchor="middle" x="798.5" y="-63.5" font-family="Helvetica,sans-Serif" font-size="10.00">iosfwd</text>
</a>
</g>
</g>
<!-- Node4&#45;&gt;Node6 -->
<g id="edge5" class="edge">
<title>Node4&#45;&gt;Node6</title>
<path fill="none" stroke="midnightblue" d="M707.66,-342.97C739.74,-339.25 786.3,-328.85 814.5,-300 835.54,-278.48 833.5,-265.1 833.5,-235 833.5,-235 833.5,-235 833.5,-177 833.5,-143.07 818.19,-105.91 807.82,-84.63"/>
<polygon fill="midnightblue" stroke="midnightblue" points="810.86,-82.88 803.22,-75.54 804.62,-86.05 810.86,-82.88"/>
</g>
<!-- Node7 -->
<g id="node7" class="node">
<title>Node7</title>
<g id="a_node7"><a xlink:title=" ">
<polygon fill="none" stroke="#bfbfbf" points="792.5,-0.5 792.5,-19.5 848.5,-19.5 848.5,-0.5 792.5,-0.5"/>
<text text-anchor="middle" x="820.5" y="-7.5" font-family="Helvetica,sans-Serif" font-size="10.00">sstream</text>
</a>
</g>
</g>
<!-- Node4&#45;&gt;Node7 -->
<g id="edge6" class="edge">
<title>Node4&#45;&gt;Node7</title>
<path fill="none" stroke="midnightblue" d="M707.56,-342.94C742.92,-339.24 797.44,-328.89 834.5,-300 860.72,-279.56 871.5,-268.24 871.5,-235 871.5,-235 871.5,-235 871.5,-121 871.5,-85.24 849.05,-48.51 833.94,-27.84"/>
<polygon fill="midnightblue" stroke="midnightblue" points="836.64,-25.61 827.81,-19.77 831.07,-29.85 836.64,-25.61"/>
</g>
<!-- Node8 -->
<g id="node8" class="node">
<title>Node8</title>
<g id="a_node8"><a xlink:title=" ">
<polygon fill="none" stroke="#bfbfbf" points="170.5,-0.5 170.5,-19.5 214.5,-19.5 214.5,-0.5 170.5,-0.5"/>
<text text-anchor="middle" x="192.5" y="-7.5" font-family="Helvetica,sans-Serif" font-size="10.00">string</text>
</a>
</g>
</g>
<!-- Node4&#45;&gt;Node8 -->
<g id="edge7" class="edge">
<title>Node4&#45;&gt;Node8</title>
<path fill="none" stroke="midnightblue" d="M637.27,-345.31C517.8,-345.43 135.5,-337.78 135.5,-235 135.5,-235 135.5,-235 135.5,-121 135.5,-84.3 160.82,-47.66 177.71,-27.3"/>
<polygon fill="midnightblue" stroke="midnightblue" points="180.45,-29.48 184.33,-19.62 175.15,-24.9 180.45,-29.48"/>
</g>
<!-- Node9 -->
<g id="node9" class="node">
<title>Node9</title>
<g id="a_node9"><a xlink:href="deprecate_8h.html" target="_top" xlink:title=" ">
<polygon fill="none" stroke="black" points="731.5,-280.5 731.5,-299.5 805.5,-299.5 805.5,-280.5 731.5,-280.5"/>
<text text-anchor="middle" x="768.5" y="-287.5" font-family="Helvetica,sans-Serif" font-size="10.00">deprecate.h</text>
</a>
</g>
</g>
<!-- Node4&#45;&gt;Node9 -->
<g id="edge8" class="edge">
<title>Node4&#45;&gt;Node9</title>
<path fill="none" stroke="midnightblue" d="M687.92,-336.32C703.04,-327.82 726.32,-314.73 743.97,-304.8"/>
<polygon fill="midnightblue" stroke="midnightblue" points="746.11,-307.61 753.11,-299.65 742.68,-301.51 746.11,-307.61"/>
</g>
<!-- Node10 -->
<g id="node10" class="node">
<title>Node10</title>
<g id="a_node10"><a xlink:href="src_2util_2invariant_8h.html" target="_top" xlink:title=" ">
<polygon fill="none" stroke="black" points="665,-56.5 665,-75.5 734,-75.5 734,-56.5 665,-56.5"/>
<text text-anchor="middle" x="699.5" y="-63.5" font-family="Helvetica,sans-Serif" font-size="10.00">invariant.h</text>
</a>
</g>
</g>
<!-- Node4&#45;&gt;Node10 -->
<g id="edge9" class="edge">
<title>Node4&#45;&gt;Node10</title>
<path fill="none" stroke="midnightblue" d="M679.16,-336.41C700.52,-308.7 766.41,-221.5 776.5,-188 786.68,-154.21 774.37,-140.46 753.5,-112 744.73,-100.04 732.12,-89.3 721.29,-81.31"/>
<polygon fill="midnightblue" stroke="midnightblue" points="723.28,-78.43 713.09,-75.52 719.24,-84.15 723.28,-78.43"/>
</g>
<!-- Node13 -->
<g id="node13" class="node">
<title>Node13</title>
<g id="a_node13"><a xlink:href="source__location_8h.html" target="_top" xlink:title=" ">
<polygon fill="none" stroke="black" points="466.5,-280.5 466.5,-299.5 568.5,-299.5 568.5,-280.5 466.5,-280.5"/>
<text text-anchor="middle" x="517.5" y="-287.5" font-family="Helvetica,sans-Serif" font-size="10.00">source_location.h</text>
</a>
</g>
</g>
<!-- Node4&#45;&gt;Node13 -->
<g id="edge14" class="edge">
<title>Node4&#45;&gt;Node13</title>
<path fill="none" stroke="midnightblue" d="M647.94,-336.44C621.98,-327.4 580.83,-313.06 551.7,-302.92"/>
<polygon fill="midnightblue" stroke="midnightblue" points="552.54,-299.5 541.95,-299.52 550.24,-306.11 552.54,-299.5"/>
</g>
<!-- Node10&#45;&gt;Node7 -->
<g id="edge11" class="edge">
<title>Node10&#45;&gt;Node7</title>
<path fill="none" stroke="midnightblue" d="M718.67,-56.44C738.41,-47.64 769.39,-33.81 791.99,-23.72"/>
<polygon fill="midnightblue" stroke="midnightblue" points="793.71,-26.79 801.42,-19.52 790.86,-20.4 793.71,-26.79"/>
</g>
<!-- Node10&#45;&gt;Node8 -->
<g id="edge12" class="edge">
<title>Node10&#45;&gt;Node8</title>
<path fill="none" stroke="midnightblue" d="M664.77,-61.22C649.91,-59.6 632.35,-57.7 616.5,-56 470.18,-40.3 295.43,-21.85 224.63,-14.39"/>
<polygon fill="midnightblue" stroke="midnightblue" points="224.88,-10.89 214.57,-13.32 224.15,-17.85 224.88,-10.89"/>
</g>
<!-- Node11 -->
<g id="node11" class="node">
<title>Node11</title>
<g id="a_node11"><a xlink:title=" ">
<polygon fill="none" stroke="#bfbfbf" points="675,-0.5 675,-19.5 724,-19.5 724,-0.5 675,-0.5"/>
<text text-anchor="middle" x="699.5" y="-7.5" font-family="Helvetica,sans-Serif" font-size="10.00">cstdlib</text>
</a>
</g>
</g>
<!-- Node10&#45;&gt;Node11 -->
<g id="edge10" class="edge">
<title>Node10&#45;&gt;Node11</title>
<path fill="none" stroke="midnightblue" d="M699.5,-56.08C699.5,-49.01 699.5,-38.86 699.5,-29.99"/>
<polygon fill="midnightblue" stroke="midnightblue" points="703,-29.75 699.5,-19.75 696,-29.75 703,-29.75"/>
</g>
<!-- Node12 -->
<g id="node12" class="node">
<title>Node12</title>
<g id="a_node12"><a xlink:title=" ">
<polygon fill="none" stroke="#bfbfbf" points="558,-0.5 558,-19.5 627,-19.5 627,-0.5 558,-0.5"/>
<text text-anchor="middle" x="592.5" y="-7.5" font-family="Helvetica,sans-Serif" font-size="10.00">type_traits</text>
</a>
</g>
</g>
<!-- Node10&#45;&gt;Node12 -->
<g id="edge13" class="edge">
<title>Node10&#45;&gt;Node12</title>
<path fill="none" stroke="midnightblue" d="M682.31,-56.32C665.15,-47.66 638.55,-34.24 618.75,-24.25"/>
<polygon fill="midnightblue" stroke="midnightblue" points="620.15,-21.04 609.65,-19.65 617,-27.28 620.15,-21.04"/>
</g>
<!-- Node13&#45;&gt;Node8 -->
<g id="edge34" class="edge">
<title>Node13&#45;&gt;Node8</title>
<path fill="none" stroke="midnightblue" d="M466.37,-283.43C370.54,-271.55 173.5,-239.74 173.5,-179 173.5,-179 173.5,-179 173.5,-121 173.5,-88.49 181.66,-51.35 187.28,-29.61"/>
<polygon fill="midnightblue" stroke="midnightblue" points="190.72,-30.32 189.94,-19.75 183.96,-28.5 190.72,-30.32"/>
</g>
<!-- Node14 -->
<g id="node14" class="node">
<title>Node14</title>
<g id="a_node14"><a xlink:href="irep_8h.html" target="_top" xlink:title=" ">
<polygon fill="none" stroke="black" points="473.5,-224.5 473.5,-243.5 517.5,-243.5 517.5,-224.5 473.5,-224.5"/>
<text text-anchor="middle" x="495.5" y="-231.5" font-family="Helvetica,sans-Serif" font-size="10.00">irep.h</text>
</a>
</g>
</g>
<!-- Node13&#45;&gt;Node14 -->
<g id="edge15" class="edge">
<title>Node13&#45;&gt;Node14</title>
<path fill="none" stroke="midnightblue" d="M513.87,-280.08C510.89,-272.77 506.57,-262.18 502.88,-253.1"/>
<polygon fill="midnightblue" stroke="midnightblue" points="506.08,-251.69 499.07,-243.75 499.6,-254.33 506.08,-251.69"/>
</g>
<!-- Node31 -->
<g id="node24" class="node">
<title>Node31</title>
<g id="a_node24"><a xlink:href="optional_8h.html" target="_top" xlink:title=" ">
<polygon fill="none" stroke="black" points="585,-224.5 585,-243.5 650,-243.5 650,-224.5 585,-224.5"/>
<text text-anchor="middle" x="617.5" y="-231.5" font-family="Helvetica,sans-Serif" font-size="10.00">optional.h</text>
</a>
</g>
</g>
<!-- Node13&#45;&gt;Node31 -->
<g id="edge32" class="edge">
<title>Node13&#45;&gt;Node31</title>
<path fill="none" stroke="midnightblue" d="M533.57,-280.32C549.46,-271.74 574.01,-258.49 592.46,-248.52"/>
<polygon fill="midnightblue" stroke="midnightblue" points="594.34,-251.49 601.47,-243.65 591.01,-245.33 594.34,-251.49"/>
</g>
<!-- Node14&#45;&gt;Node8 -->
<g id="edge16" class="edge">
<title>Node14&#45;&gt;Node8</title>
<path fill="none" stroke="midnightblue" d="M473.4,-232.1C421.13,-228.67 289.88,-212.09 230.5,-132 207.42,-100.86 198.11,-55.33 194.55,-29.93"/>
<polygon fill="midnightblue" stroke="midnightblue" points="198,-29.29 193.29,-19.79 191.05,-30.15 198,-29.29"/>
</g>
<!-- Node14&#45;&gt;Node10 -->
<g id="edge18" class="edge">
<title>Node14&#45;&gt;Node10</title>
<path fill="none" stroke="midnightblue" d="M517.89,-224.67C540.51,-216.09 576.33,-202.02 606.5,-188 623.81,-179.96 627.11,-175.87 644.5,-168 685.25,-149.55 713.15,-168.86 738.5,-132 749.83,-115.53 733.99,-95.73 719.23,-82.34"/>
<polygon fill="midnightblue" stroke="midnightblue" points="721.21,-79.43 711.32,-75.62 716.68,-84.76 721.21,-79.43"/>
</g>
<!-- Node15 -->
<g id="node15" class="node">
<title>Node15</title>
<g id="a_node15"><a xlink:title=" ">
<polygon fill="none" stroke="#bfbfbf" points="322,-168.5 322,-187.5 369,-187.5 369,-168.5 322,-168.5"/>
<text text-anchor="middle" x="345.5" y="-175.5" font-family="Helvetica,sans-Serif" font-size="10.00">vector</text>
</a>
</g>
</g>
<!-- Node14&#45;&gt;Node15 -->
<g id="edge17" class="edge">
<title>Node14&#45;&gt;Node15</title>
<path fill="none" stroke="midnightblue" d="M473.37,-225.03C448.44,-216.06 407.65,-201.37 378.85,-191.01"/>
<polygon fill="midnightblue" stroke="midnightblue" points="379.81,-187.63 369.21,-187.54 377.43,-194.22 379.81,-187.63"/>
</g>
<!-- Node16 -->
<g id="node16" class="node">
<title>Node16</title>
<g id="a_node16"><a xlink:href="irep__ids_8h.html" target="_top" xlink:title=" ">
<polygon fill="none" stroke="black" points="533.5,-168.5 533.5,-187.5 597.5,-187.5 597.5,-168.5 533.5,-168.5"/>
<text text-anchor="middle" x="565.5" y="-175.5" font-family="Helvetica,sans-Serif" font-size="10.00">irep_ids.h</text>
</a>
</g>
</g>
<!-- Node14&#45;&gt;Node16 -->
<g id="edge19" class="edge">
<title>Node14&#45;&gt;Node16</title>
<path fill="none" stroke="midnightblue" d="M506.75,-224.32C517.3,-216.18 533.3,-203.84 545.94,-194.09"/>
<polygon fill="midnightblue" stroke="midnightblue" points="548.27,-196.71 554.05,-187.83 543.99,-191.17 548.27,-196.71"/>
</g>
<!-- Node26 -->
<g id="node19" class="node">
<title>Node26</title>
<g id="a_node19"><a xlink:href="forward__list__as__map_8h.html" target="_top" xlink:title=" ">
<polygon fill="none" stroke="black" points="387,-168.5 387,-187.5 514,-187.5 514,-168.5 387,-168.5"/>
<text text-anchor="middle" x="450.5" y="-175.5" font-family="Helvetica,sans-Serif" font-size="10.00">forward_list_as_map.h</text>
</a>
</g>
</g>
<!-- Node14&#45;&gt;Node26 -->
<g id="edge25" class="edge">
<title>Node14&#45;&gt;Node26</title>
<path fill="none" stroke="midnightblue" d="M488.07,-224.08C481.65,-216.38 472.19,-205.03 464.38,-195.65"/>
<polygon fill="midnightblue" stroke="midnightblue" points="466.88,-193.19 457.79,-187.75 461.51,-197.67 466.88,-193.19"/>
</g>
<!-- Node17 -->
<g id="node17" class="node">
<title>Node17</title>
<g id="a_node17"><a xlink:href="dstring_8h.html" target="_top" xlink:title=" ">
<polygon fill="none" stroke="red" points="670,-112.5 670,-131.5 729,-131.5 729,-112.5 670,-112.5"/>
<text text-anchor="middle" x="699.5" y="-119.5" font-family="Helvetica,sans-Serif" font-size="10.00">dstring.h</text>
</a>
</g>
</g>
<!-- Node16&#45;&gt;Node17 -->
<g id="edge20" class="edge">
<title>Node16&#45;&gt;Node17</title>
<path fill="none" stroke="midnightblue" d="M586.73,-168.44C608.88,-159.52 643.82,-145.44 668.94,-135.32"/>
<polygon fill="midnightblue" stroke="midnightblue" points="670.4,-138.5 678.37,-131.52 667.78,-132.01 670.4,-138.5"/>
</g>
<!-- Node25 -->
<g id="node18" class="node">
<title>Node25</title>
<g id="a_node18"><a xlink:title=" ">
<polygon fill="none" stroke="#bfbfbf" points="577.5,-112.5 577.5,-131.5 651.5,-131.5 651.5,-112.5 577.5,-112.5"/>
<text text-anchor="middle" x="614.5" y="-119.5" font-family="Helvetica,sans-Serif" font-size="10.00">irep_ids.def</text>
</a>
</g>
</g>
<!-- Node16&#45;&gt;Node25 -->
<g id="edge24" class="edge">
<title>Node16&#45;&gt;Node25</title>
<path fill="none" stroke="midnightblue" d="M573.59,-168.08C580.66,-160.3 591.09,-148.8 599.65,-139.37"/>
<polygon fill="midnightblue" stroke="midnightblue" points="602.43,-141.51 606.56,-131.75 597.25,-136.8 602.43,-141.51"/>
</g>
<!-- Node17&#45;&gt;Node6 -->
<g id="edge21" class="edge">
<title>Node17&#45;&gt;Node6</title>
<path fill="none" stroke="midnightblue" d="M715.41,-112.32C731.14,-103.74 755.44,-90.49 773.71,-80.52"/>
<polygon fill="midnightblue" stroke="midnightblue" points="775.53,-83.52 782.63,-75.65 772.18,-77.37 775.53,-83.52"/>
</g>
<!-- Node17&#45;&gt;Node8 -->
<g id="edge22" class="edge">
<title>Node17&#45;&gt;Node8</title>
<path fill="none" stroke="midnightblue" d="M669.7,-114.08C666.59,-113.37 663.48,-112.67 660.5,-112 497.02,-75.5 300.91,-33.88 224.85,-17.82"/>
<polygon fill="midnightblue" stroke="midnightblue" points="225.44,-14.36 214.93,-15.72 223.99,-21.21 225.44,-14.36"/>
</g>
<!-- Node17&#45;&gt;Node10 -->
<g id="edge23" class="edge">
<title>Node17&#45;&gt;Node10</title>
<path fill="none" stroke="midnightblue" d="M699.5,-112.08C699.5,-105.01 699.5,-94.86 699.5,-85.99"/>
<polygon fill="midnightblue" stroke="midnightblue" points="703,-85.75 699.5,-75.75 696,-85.75 703,-85.75"/>
</g>
<!-- Node27 -->
<g id="node20" class="node">
<title>Node27</title>
<g id="a_node20"><a xlink:title=" ">
<polygon fill="none" stroke="#bfbfbf" points="417.5,-112.5 417.5,-131.5 481.5,-131.5 481.5,-112.5 417.5,-112.5"/>
<text text-anchor="middle" x="449.5" y="-119.5" font-family="Helvetica,sans-Serif" font-size="10.00">algorithm</text>
</a>
</g>
</g>
<!-- Node26&#45;&gt;Node27 -->
<g id="edge26" class="edge">
<title>Node26&#45;&gt;Node27</title>
<path fill="none" stroke="midnightblue" d="M450.33,-168.08C450.2,-161.01 450.02,-150.86 449.85,-141.99"/>
<polygon fill="midnightblue" stroke="midnightblue" points="453.35,-141.68 449.66,-131.75 446.35,-141.81 453.35,-141.68"/>
</g>
<!-- Node28 -->
<g id="node21" class="node">
<title>Node28</title>
<g id="a_node21"><a xlink:title=" ">
<polygon fill="none" stroke="#bfbfbf" points="239.5,-112.5 239.5,-131.5 313.5,-131.5 313.5,-112.5 239.5,-112.5"/>
<text text-anchor="middle" x="276.5" y="-119.5" font-family="Helvetica,sans-Serif" font-size="10.00">forward_list</text>
</a>
</g>
</g>
<!-- Node26&#45;&gt;Node28 -->
<g id="edge27" class="edge">
<title>Node26&#45;&gt;Node28</title>
<path fill="none" stroke="midnightblue" d="M422.93,-168.44C393.4,-159.28 346.38,-144.69 313.62,-134.52"/>
<polygon fill="midnightblue" stroke="midnightblue" points="314.53,-131.14 303.94,-131.52 312.46,-137.82 314.53,-131.14"/>
</g>
<!-- Node29 -->
<g id="node22" class="node">
<title>Node29</title>
<g id="a_node22"><a xlink:href="as__const_8h.html" target="_top" xlink:title=" ">
<polygon fill="none" stroke="black" points="331.5,-112.5 331.5,-131.5 399.5,-131.5 399.5,-112.5 331.5,-112.5"/>
<text text-anchor="middle" x="365.5" y="-119.5" font-family="Helvetica,sans-Serif" font-size="10.00">as_const.h</text>
</a>
</g>
</g>
<!-- Node26&#45;&gt;Node29 -->
<g id="edge28" class="edge">
<title>Node26&#45;&gt;Node29</title>
<path fill="none" stroke="midnightblue" d="M436.84,-168.32C423.58,-159.9 403.23,-146.97 387.65,-137.07"/>
<polygon fill="midnightblue" stroke="midnightblue" points="389.44,-134.06 379.12,-131.65 385.69,-139.97 389.44,-134.06"/>
</g>
<!-- Node30 -->
<g id="node23" class="node">
<title>Node30</title>
<g id="a_node23"><a xlink:href="narrow_8h.html" target="_top" xlink:title=" ">
<polygon fill="none" stroke="black" points="500,-112.5 500,-131.5 559,-131.5 559,-112.5 500,-112.5"/>
<text text-anchor="middle" x="529.5" y="-119.5" font-family="Helvetica,sans-Serif" font-size="10.00">narrow.h</text>
</a>
</g>
</g>
<!-- Node26&#45;&gt;Node30 -->
<g id="edge29" class="edge">
<title>Node26&#45;&gt;Node30</title>
<path fill="none" stroke="midnightblue" d="M463.19,-168.32C475.4,-159.98 494.08,-147.21 508.5,-137.35"/>
<polygon fill="midnightblue" stroke="midnightblue" points="510.56,-140.19 516.84,-131.65 506.61,-134.41 510.56,-140.19"/>
</g>
<!-- Node30&#45;&gt;Node10 -->
<g id="edge31" class="edge">
<title>Node30&#45;&gt;Node10</title>
<path fill="none" stroke="midnightblue" d="M556.44,-112.44C585.16,-103.32 630.83,-88.81 662.82,-78.65"/>
<polygon fill="midnightblue" stroke="midnightblue" points="664.22,-81.88 672.69,-75.52 662.1,-75.21 664.22,-81.88"/>
</g>
<!-- Node30&#45;&gt;Node12 -->
<g id="edge30" class="edge">
<title>Node30&#45;&gt;Node12</title>
<path fill="none" stroke="midnightblue" d="M534.44,-112.37C544.79,-94.3 568.92,-52.18 582.59,-28.31"/>
<polygon fill="midnightblue" stroke="midnightblue" points="585.65,-30.01 587.58,-19.59 579.57,-26.53 585.65,-30.01"/>
</g>
<!-- Node32 -->
<g id="node25" class="node">
<title>Node32</title>
<g id="a_node25"><a xlink:title=" ">
<polygon fill="none" stroke="#bfbfbf" points="654,-168.5 654,-187.5 767,-187.5 767,-168.5 654,-168.5"/>
<text text-anchor="middle" x="710.5" y="-175.5" font-family="Helvetica,sans-Serif" font-size="10.00">nonstd/optional.hpp</text>
</a>
</g>
</g>
<!-- Node31&#45;&gt;Node32 -->
<g id="edge33" class="edge">
<title>Node31&#45;&gt;Node32</title>
<path fill="none" stroke="midnightblue" d="M632.44,-224.32C647.09,-215.82 669.63,-202.73 686.74,-192.8"/>
<polygon fill="midnightblue" stroke="midnightblue" points="688.7,-195.7 695.6,-187.65 685.19,-189.65 688.7,-195.7"/>
</g>
<!-- Node33&#45;&gt;Node3 -->
<g id="edge36" class="edge">
<title>Node33&#45;&gt;Node3</title>
<path fill="none" stroke="midnightblue" d="M91.06,-336.32C81.35,-328.26 66.68,-316.08 55,-306.37"/>
<polygon fill="midnightblue" stroke="midnightblue" points="57.06,-303.53 47.13,-299.83 52.59,-308.92 57.06,-303.53"/>
</g>
<!-- Node33&#45;&gt;Node8 -->
<g id="edge37" class="edge">
<title>Node33&#45;&gt;Node8</title>
<path fill="none" stroke="midnightblue" d="M100.98,-336.45C99.89,-317.95 97.5,-272.84 97.5,-235 97.5,-235 97.5,-235 97.5,-121 97.5,-90.2 102.14,-79.95 121.5,-56 132.49,-42.41 148.73,-31.68 162.91,-24.12"/>
<polygon fill="midnightblue" stroke="midnightblue" points="164.51,-27.24 171.86,-19.61 161.35,-20.99 164.51,-27.24"/>
</g>
</g>
</svg>
