<?xml version="1.0" encoding="UTF-8" standalone="no"?>
<!DOCTYPE svg PUBLIC "-//W3C//DTD SVG 1.1//EN"
 "http://www.w3.org/Graphics/SVG/1.1/DTD/svg11.dtd">
<!-- Generated by graphviz version 2.43.0 (0)
 -->
<!-- Title: /home/runner/work/cbmc&#45;documentation/cbmc&#45;documentation/src/goto&#45;programs/show_goto_functions_xml.cpp Pages: 1 -->
<svg width="1391pt" height="800pt"
 viewBox="0.00 0.00 1391.37 800.00" xmlns="http://www.w3.org/2000/svg" xmlns:xlink="http://www.w3.org/1999/xlink">
<g id="graph0" class="graph" transform="scale(1 1) rotate(0) translate(4 796)">
<title>/home/runner/work/cbmc&#45;documentation/cbmc&#45;documentation/src/goto&#45;programs/show_goto_functions_xml.cpp</title>
<!-- Node1 -->
<g id="node1" class="node">
<title>Node1</title>
<g id="a_node1"><a xlink:title=" ">
<polygon fill="#bfbfbf" stroke="black" points="60.87,-739.5 60.87,-791.5 260.87,-791.5 260.87,-739.5 60.87,-739.5"/>
<text text-anchor="start" x="68.87" y="-779.5" font-family="Helvetica,sans-Serif" font-size="10.00">/home/runner/work/cbmc</text>
<text text-anchor="start" x="68.87" y="-768.5" font-family="Helvetica,sans-Serif" font-size="10.00">&#45;documentation/cbmc&#45;documentation</text>
<text text-anchor="start" x="68.87" y="-757.5" font-family="Helvetica,sans-Serif" font-size="10.00">/src/goto&#45;programs/show_goto</text>
<text text-anchor="middle" x="160.87" y="-746.5" font-family="Helvetica,sans-Serif" font-size="10.00">_functions_xml.cpp</text>
</a>
</g>
</g>
<!-- Node2 -->
<g id="node2" class="node">
<title>Node2</title>
<g id="a_node2"><a xlink:href="show__goto__functions__xml_8h.html" target="_top" xlink:title=" ">
<polygon fill="none" stroke="black" points="145.37,-672.5 145.37,-702.5 264.37,-702.5 264.37,-672.5 145.37,-672.5"/>
<text text-anchor="start" x="153.37" y="-690.5" font-family="Helvetica,sans-Serif" font-size="10.00">show_goto_functions</text>
<text text-anchor="middle" x="204.87" y="-679.5" font-family="Helvetica,sans-Serif" font-size="10.00">_xml.h</text>
</a>
</g>
</g>
<!-- Node1&#45;&gt;Node2 -->
<g id="edge1" class="edge">
<title>Node1&#45;&gt;Node2</title>
<path fill="none" stroke="midnightblue" d="M175.52,-739.19C180.66,-730.31 186.41,-720.39 191.44,-711.69"/>
<polygon fill="midnightblue" stroke="midnightblue" points="194.59,-713.25 196.57,-702.85 188.53,-709.75 194.59,-713.25"/>
</g>
<!-- Node8 -->
<g id="node8" class="node">
<title>Node8</title>
<g id="a_node8"><a xlink:title=" ">
<polygon fill="none" stroke="#bfbfbf" points="28.87,-678 28.87,-697 88.87,-697 88.87,-678 28.87,-678"/>
<text text-anchor="middle" x="58.87" y="-685" font-family="Helvetica,sans-Serif" font-size="10.00">iostream</text>
</a>
</g>
</g>
<!-- Node1&#45;&gt;Node8 -->
<g id="edge7" class="edge">
<title>Node1&#45;&gt;Node8</title>
<path fill="none" stroke="midnightblue" d="M127.19,-739.4C111.2,-727.49 92.62,-713.65 78.88,-703.41"/>
<polygon fill="midnightblue" stroke="midnightblue" points="80.74,-700.43 70.63,-697.26 76.56,-706.04 80.74,-700.43"/>
</g>
<!-- Node9 -->
<g id="node9" class="node">
<title>Node9</title>
<g id="a_node9"><a xlink:href="cprover__prefix_8h.html" target="_top" xlink:title=" ">
<polygon fill="none" stroke="black" points="270.87,-448.5 270.87,-467.5 384.87,-467.5 384.87,-448.5 270.87,-448.5"/>
<text text-anchor="middle" x="327.87" y="-455.5" font-family="Helvetica,sans-Serif" font-size="10.00">util/cprover_prefix.h</text>
</a>
</g>
</g>
<!-- Node1&#45;&gt;Node9 -->
<g id="edge8" class="edge">
<title>Node1&#45;&gt;Node9</title>
<path fill="none" stroke="midnightblue" d="M147.67,-739.42C134.71,-712.43 116.87,-667.85 116.87,-627 116.87,-627 116.87,-627 116.87,-569 116.87,-503.06 198.9,-476.59 260.66,-466"/>
<polygon fill="midnightblue" stroke="midnightblue" points="261.45,-469.41 270.77,-464.37 260.34,-462.5 261.45,-469.41"/>
</g>
<!-- Node10 -->
<g id="node10" class="node">
<title>Node10</title>
<g id="a_node10"><a xlink:href="prefix_8h.html" target="_top" xlink:title=" ">
<polygon fill="none" stroke="black" points="9.87,-392.5 9.87,-411.5 81.87,-411.5 81.87,-392.5 9.87,-392.5"/>
<text text-anchor="middle" x="45.87" y="-399.5" font-family="Helvetica,sans-Serif" font-size="10.00">util/prefix.h</text>
</a>
</g>
</g>
<!-- Node1&#45;&gt;Node10 -->
<g id="edge9" class="edge">
<title>Node1&#45;&gt;Node10</title>
<path fill="none" stroke="midnightblue" d="M69.95,-739.37C51.2,-730.52 33.16,-718.7 19.87,-703 -2.62,-676.42 0.87,-661.82 0.87,-627 0.87,-627 0.87,-627 0.87,-513 0.87,-477.93 20.71,-440.94 34.04,-420.04"/>
<polygon fill="midnightblue" stroke="midnightblue" points="37.01,-421.9 39.62,-411.63 31.17,-418.03 37.01,-421.9"/>
</g>
<!-- Node11 -->
<g id="node11" class="node">
<title>Node11</title>
<g id="a_node11"><a xlink:href="xml__irep_8h.html" target="_top" xlink:title=" ">
<polygon fill="none" stroke="black" points="282.37,-678 282.37,-697 369.37,-697 369.37,-678 282.37,-678"/>
<text text-anchor="middle" x="325.87" y="-685" font-family="Helvetica,sans-Serif" font-size="10.00">util/xml_irep.h</text>
</a>
</g>
</g>
<!-- Node1&#45;&gt;Node11 -->
<g id="edge11" class="edge">
<title>Node1&#45;&gt;Node11</title>
<path fill="none" stroke="midnightblue" d="M215.36,-739.4C242.99,-726.67 275.39,-711.75 297.94,-701.37"/>
<polygon fill="midnightblue" stroke="midnightblue" points="299.63,-704.44 307.25,-697.08 296.7,-698.08 299.63,-704.44"/>
</g>
<!-- Node12 -->
<g id="node12" class="node">
<title>Node12</title>
<g id="a_node12"><a xlink:href="goto__functions_8h.html" target="_top" xlink:title=" ">
<polygon fill="none" stroke="black" points="387.87,-678 387.87,-697 485.87,-697 485.87,-678 387.87,-678"/>
<text text-anchor="middle" x="436.87" y="-685" font-family="Helvetica,sans-Serif" font-size="10.00">goto_functions.h</text>
</a>
</g>
</g>
<!-- Node1&#45;&gt;Node12 -->
<g id="edge13" class="edge">
<title>Node1&#45;&gt;Node12</title>
<path fill="none" stroke="midnightblue" d="M252.01,-739.4C300.52,-726.05 357.8,-710.27 395.6,-699.87"/>
<polygon fill="midnightblue" stroke="midnightblue" points="397.01,-703.11 405.72,-697.08 395.15,-696.36 397.01,-703.11"/>
</g>
<!-- Node3 -->
<g id="node3" class="node">
<title>Node3</title>
<g id="a_node3"><a xlink:href="xml_8h.html" target="_top" xlink:title=" ">
<polygon fill="none" stroke="black" points="192.37,-616.5 192.37,-635.5 255.37,-635.5 255.37,-616.5 192.37,-616.5"/>
<text text-anchor="middle" x="223.87" y="-623.5" font-family="Helvetica,sans-Serif" font-size="10.00">util/xml.h</text>
</a>
</g>
</g>
<!-- Node2&#45;&gt;Node3 -->
<g id="edge2" class="edge">
<title>Node2&#45;&gt;Node3</title>
<path fill="none" stroke="midnightblue" d="M209.38,-672.4C211.97,-664.29 215.25,-654.01 218.03,-645.28"/>
<polygon fill="midnightblue" stroke="midnightblue" points="221.4,-646.25 221.11,-635.66 214.73,-644.12 221.4,-646.25"/>
</g>
<!-- Node4 -->
<g id="node4" class="node">
<title>Node4</title>
<g id="a_node4"><a xlink:title=" ">
<polygon fill="none" stroke="#bfbfbf" points="182.87,-560.5 182.87,-579.5 214.87,-579.5 214.87,-560.5 182.87,-560.5"/>
<text text-anchor="middle" x="198.87" y="-567.5" font-family="Helvetica,sans-Serif" font-size="10.00">list</text>
</a>
</g>
</g>
<!-- Node3&#45;&gt;Node4 -->
<g id="edge3" class="edge">
<title>Node3&#45;&gt;Node4</title>
<path fill="none" stroke="midnightblue" d="M219.74,-616.08C216.36,-608.77 211.46,-598.18 207.25,-589.1"/>
<polygon fill="midnightblue" stroke="midnightblue" points="210.3,-587.36 202.92,-579.75 203.95,-590.3 210.3,-587.36"/>
</g>
<!-- Node5 -->
<g id="node5" class="node">
<title>Node5</title>
<g id="a_node5"><a xlink:title=" ">
<polygon fill="none" stroke="#bfbfbf" points="287.87,-560.5 287.87,-579.5 325.87,-579.5 325.87,-560.5 287.87,-560.5"/>
<text text-anchor="middle" x="306.87" y="-567.5" font-family="Helvetica,sans-Serif" font-size="10.00">map</text>
</a>
</g>
</g>
<!-- Node3&#45;&gt;Node5 -->
<g id="edge4" class="edge">
<title>Node3&#45;&gt;Node5</title>
<path fill="none" stroke="midnightblue" d="M237.21,-616.32C250.03,-607.98 269.66,-595.21 284.81,-585.35"/>
<polygon fill="midnightblue" stroke="midnightblue" points="287.1,-588.04 293.57,-579.65 283.28,-582.17 287.1,-588.04"/>
</g>
<!-- Node6 -->
<g id="node6" class="node">
<title>Node6</title>
<g id="a_node6"><a xlink:title=" ">
<polygon fill="none" stroke="#bfbfbf" points="393.87,-0.5 393.87,-19.5 437.87,-19.5 437.87,-0.5 393.87,-0.5"/>
<text text-anchor="middle" x="415.87" y="-7.5" font-family="Helvetica,sans-Serif" font-size="10.00">string</text>
</a>
</g>
</g>
<!-- Node3&#45;&gt;Node6 -->
<g id="edge5" class="edge">
<title>Node3&#45;&gt;Node6</title>
<path fill="none" stroke="midnightblue" d="M210.5,-616.19C199.18,-608.08 183.32,-595.03 173.87,-580 157.85,-554.52 154.87,-545.1 154.87,-515 154.87,-515 154.87,-515 154.87,-121 154.87,-22.78 313.77,-10.87 383.6,-10.37"/>
<polygon fill="midnightblue" stroke="midnightblue" points="383.62,-13.87 393.62,-10.38 383.62,-6.87 383.62,-13.87"/>
</g>
<!-- Node7 -->
<g id="node7" class="node">
<title>Node7</title>
<g id="a_node7"><a xlink:title=" ">
<polygon fill="none" stroke="#bfbfbf" points="412.87,-280.5 412.87,-299.5 460.87,-299.5 460.87,-280.5 412.87,-280.5"/>
<text text-anchor="middle" x="436.87" y="-287.5" font-family="Helvetica,sans-Serif" font-size="10.00">iosfwd</text>
</a>
</g>
</g>
<!-- Node3&#45;&gt;Node7 -->
<g id="edge6" class="edge">
<title>Node3&#45;&gt;Node7</title>
<path fill="none" stroke="midnightblue" d="M223.89,-616.22C224.32,-589.2 228.45,-505.64 261.87,-448 299.91,-382.41 374.89,-329.34 413.17,-305.16"/>
<polygon fill="midnightblue" stroke="midnightblue" points="415.41,-307.89 422.07,-299.64 411.72,-301.94 415.41,-307.89"/>
</g>
<!-- Node10&#45;&gt;Node6 -->
<g id="edge10" class="edge">
<title>Node10&#45;&gt;Node6</title>
<path fill="none" stroke="midnightblue" d="M50.73,-392.47C60.55,-374.39 81.87,-330.59 81.87,-291 81.87,-291 81.87,-291 81.87,-121 81.87,-81.98 106.6,-74.64 140.87,-56 182.26,-33.5 319.81,-19.19 383.27,-13.63"/>
<polygon fill="midnightblue" stroke="midnightblue" points="383.84,-17.1 393.51,-12.76 383.25,-10.12 383.84,-17.1"/>
</g>
<!-- Node11&#45;&gt;Node3 -->
<g id="edge12" class="edge">
<title>Node11&#45;&gt;Node3</title>
<path fill="none" stroke="midnightblue" d="M311.26,-677.98C294.52,-668.21 266.87,-652.08 247.15,-640.58"/>
<polygon fill="midnightblue" stroke="midnightblue" points="248.86,-637.52 238.46,-635.51 245.33,-643.57 248.86,-637.52"/>
</g>
<!-- Node12&#45;&gt;Node5 -->
<g id="edge71" class="edge">
<title>Node12&#45;&gt;Node5</title>
<path fill="none" stroke="midnightblue" d="M418.3,-677.91C400.48,-669.08 373.45,-654.08 353.87,-636 338.74,-622.03 325.41,-602.51 316.85,-588.51"/>
<polygon fill="midnightblue" stroke="midnightblue" points="319.82,-586.67 311.72,-579.84 313.8,-590.23 319.82,-586.67"/>
</g>
<!-- Node12&#45;&gt;Node9 -->
<g id="edge70" class="edge">
<title>Node12&#45;&gt;Node9</title>
<path fill="none" stroke="midnightblue" d="M432.73,-677.86C416.68,-644.36 358.35,-522.62 336.35,-476.7"/>
<polygon fill="midnightblue" stroke="midnightblue" points="339.49,-475.16 332.02,-467.65 333.18,-478.18 339.49,-475.16"/>
</g>
<!-- Node13 -->
<g id="node13" class="node">
<title>Node13</title>
<g id="a_node13"><a xlink:href="goto__function_8h.html" target="_top" xlink:title=" ">
<polygon fill="none" stroke="black" points="530.87,-616.5 530.87,-635.5 622.87,-635.5 622.87,-616.5 530.87,-616.5"/>
<text text-anchor="middle" x="576.87" y="-623.5" font-family="Helvetica,sans-Serif" font-size="10.00">goto_function.h</text>
</a>
</g>
</g>
<!-- Node12&#45;&gt;Node13 -->
<g id="edge14" class="edge">
<title>Node12&#45;&gt;Node13</title>
<path fill="none" stroke="midnightblue" d="M456.93,-677.98C480.63,-667.9 520.28,-651.05 547.46,-639.5"/>
<polygon fill="midnightblue" stroke="midnightblue" points="549.02,-642.64 556.85,-635.51 546.28,-636.2 549.02,-642.64"/>
</g>
<!-- Node14 -->
<g id="node14" class="node">
<title>Node14</title>
<g id="a_node14"><a xlink:href="std__types_8h.html" target="_top" xlink:title=" ">
<polygon fill="none" stroke="black" points="931.87,-392.5 931.87,-411.5 1023.87,-411.5 1023.87,-392.5 931.87,-392.5"/>
<text text-anchor="middle" x="977.87" y="-399.5" font-family="Helvetica,sans-Serif" font-size="10.00">util/std_types.h</text>
</a>
</g>
</g>
<!-- Node13&#45;&gt;Node14 -->
<g id="edge15" class="edge">
<title>Node13&#45;&gt;Node14</title>
<path fill="none" stroke="midnightblue" d="M622.92,-619.13C714.35,-606.52 913.9,-573.85 958.87,-524 984.31,-495.81 983.5,-448.07 980.69,-421.77"/>
<polygon fill="midnightblue" stroke="midnightblue" points="984.13,-421.11 979.39,-411.64 977.19,-422 984.13,-421.11"/>
</g>
<!-- Node50 -->
<g id="node32" class="node">
<title>Node50</title>
<g id="a_node32"><a xlink:href="goto__program_8h.html" target="_top" xlink:title=" ">
<polygon fill="none" stroke="black" points="529.87,-560.5 529.87,-579.5 623.87,-579.5 623.87,-560.5 529.87,-560.5"/>
<text text-anchor="middle" x="576.87" y="-567.5" font-family="Helvetica,sans-Serif" font-size="10.00">goto_program.h</text>
</a>
</g>
</g>
<!-- Node13&#45;&gt;Node50 -->
<g id="edge48" class="edge">
<title>Node13&#45;&gt;Node50</title>
<path fill="none" stroke="midnightblue" d="M576.87,-616.08C576.87,-609.01 576.87,-598.86 576.87,-589.99"/>
<polygon fill="midnightblue" stroke="midnightblue" points="580.37,-589.75 576.87,-579.75 573.37,-589.75 580.37,-589.75"/>
</g>
<!-- Node15 -->
<g id="node15" class="node">
<title>Node15</title>
<g id="a_node15"><a xlink:href="expr_8h.html" target="_top" xlink:title=" ">
<polygon fill="none" stroke="black" points="934.37,-280.5 934.37,-299.5 981.37,-299.5 981.37,-280.5 934.37,-280.5"/>
<text text-anchor="middle" x="957.87" y="-287.5" font-family="Helvetica,sans-Serif" font-size="10.00">expr.h</text>
</a>
</g>
</g>
<!-- Node14&#45;&gt;Node15 -->
<g id="edge16" class="edge">
<title>Node14&#45;&gt;Node15</title>
<path fill="none" stroke="midnightblue" d="M975.22,-392.46C972.51,-383.46 968.37,-368.86 965.87,-356 962.89,-340.63 960.8,-323 959.51,-309.97"/>
<polygon fill="midnightblue" stroke="midnightblue" points="962.98,-309.53 958.57,-299.89 956.01,-310.17 962.98,-309.53"/>
</g>
<!-- Node21 -->
<g id="node20" class="node">
<title>Node21</title>
<g id="a_node20"><a xlink:href="src_2util_2invariant_8h.html" target="_top" xlink:title=" ">
<polygon fill="none" stroke="red" points="618.37,-56.5 618.37,-75.5 687.37,-75.5 687.37,-56.5 618.37,-56.5"/>
<text text-anchor="middle" x="652.87" y="-63.5" font-family="Helvetica,sans-Serif" font-size="10.00">invariant.h</text>
</a>
</g>
</g>
<!-- Node14&#45;&gt;Node21 -->
<g id="edge41" class="edge">
<title>Node14&#45;&gt;Node21</title>
<path fill="none" stroke="midnightblue" d="M966.75,-392.38C925.18,-360.17 781.05,-248.4 776.87,-244 727.24,-191.72 682.27,-118.22 662.91,-84.79"/>
<polygon fill="midnightblue" stroke="midnightblue" points="665.75,-82.72 657.75,-75.78 659.68,-86.19 665.75,-82.72"/>
</g>
<!-- Node40 -->
<g id="node22" class="node">
<title>Node40</title>
<g id="a_node22"><a xlink:href="validate_8h.html" target="_top" xlink:title=" ">
<polygon fill="none" stroke="red" points="1255.37,-168.5 1255.37,-187.5 1320.37,-187.5 1320.37,-168.5 1255.37,-168.5"/>
<text text-anchor="middle" x="1287.87" y="-175.5" font-family="Helvetica,sans-Serif" font-size="10.00">validate.h</text>
</a>
</g>
</g>
<!-- Node14&#45;&gt;Node40 -->
<g id="edge46" class="edge">
<title>Node14&#45;&gt;Node40</title>
<path fill="none" stroke="midnightblue" d="M1023.91,-398.2C1085.58,-391.75 1193.31,-370.43 1245.87,-300 1269.28,-268.63 1280.36,-223.19 1284.99,-197.86"/>
<polygon fill="midnightblue" stroke="midnightblue" points="1288.48,-198.2 1286.69,-187.76 1281.58,-197.04 1288.48,-198.2"/>
</g>
<!-- Node46 -->
<g id="node27" class="node">
<title>Node46</title>
<g id="a_node27"><a xlink:href="expr__cast_8h.html" target="_top" xlink:title="Templated functions to cast to specific exprt&#45;derived classes.">
<polygon fill="none" stroke="black" points="1085.37,-336.5 1085.37,-355.5 1158.37,-355.5 1158.37,-336.5 1085.37,-336.5"/>
<text text-anchor="middle" x="1121.87" y="-343.5" font-family="Helvetica,sans-Serif" font-size="10.00">expr_cast.h</text>
</a>
</g>
</g>
<!-- Node14&#45;&gt;Node46 -->
<g id="edge35" class="edge">
<title>Node14&#45;&gt;Node46</title>
<path fill="none" stroke="midnightblue" d="M1000.69,-392.44C1024.7,-383.44 1062.7,-369.19 1089.74,-359.05"/>
<polygon fill="midnightblue" stroke="midnightblue" points="1091.03,-362.3 1099.16,-355.52 1088.57,-355.75 1091.03,-362.3"/>
</g>
<!-- Node48 -->
<g id="node29" class="node">
<title>Node48</title>
<g id="a_node29"><a xlink:href="mp__arith_8h.html" target="_top" xlink:title=" ">
<polygon fill="none" stroke="black" points="706.37,-336.5 706.37,-355.5 775.37,-355.5 775.37,-336.5 706.37,-336.5"/>
<text text-anchor="middle" x="740.87" y="-343.5" font-family="Helvetica,sans-Serif" font-size="10.00">mp_arith.h</text>
</a>
</g>
</g>
<!-- Node14&#45;&gt;Node48 -->
<g id="edge42" class="edge">
<title>Node14&#45;&gt;Node48</title>
<path fill="none" stroke="midnightblue" d="M940.32,-392.44C898.3,-382.87 830.27,-367.37 785.55,-357.18"/>
<polygon fill="midnightblue" stroke="midnightblue" points="786.08,-353.71 775.55,-354.9 784.52,-360.54 786.08,-353.71"/>
</g>
<!-- Node30 -->
<g id="node31" class="node">
<title>Node30</title>
<g id="a_node31"><a xlink:title=" ">
<polygon fill="none" stroke="#bfbfbf" points="974.37,-336.5 974.37,-355.5 1067.37,-355.5 1067.37,-336.5 974.37,-336.5"/>
<text text-anchor="middle" x="1020.87" y="-343.5" font-family="Helvetica,sans-Serif" font-size="10.00">unordered_map</text>
</a>
</g>
</g>
<!-- Node14&#45;&gt;Node30 -->
<g id="edge47" class="edge">
<title>Node14&#45;&gt;Node30</title>
<path fill="none" stroke="midnightblue" d="M984.97,-392.08C991.11,-384.38 1000.14,-373.03 1007.61,-363.65"/>
<polygon fill="midnightblue" stroke="midnightblue" points="1010.41,-365.75 1013.9,-355.75 1004.94,-361.39 1010.41,-365.75"/>
</g>
<!-- Node16 -->
<g id="node16" class="node">
<title>Node16</title>
<g id="a_node16"><a xlink:href="as__const_8h.html" target="_top" xlink:title=" ">
<polygon fill="none" stroke="black" points="1046.87,-224.5 1046.87,-243.5 1114.87,-243.5 1114.87,-224.5 1046.87,-224.5"/>
<text text-anchor="middle" x="1080.87" y="-231.5" font-family="Helvetica,sans-Serif" font-size="10.00">as_const.h</text>
</a>
</g>
</g>
<!-- Node15&#45;&gt;Node16 -->
<g id="edge17" class="edge">
<title>Node15&#45;&gt;Node16</title>
<path fill="none" stroke="midnightblue" d="M977.36,-280.44C997.51,-271.6 1029.2,-257.69 1052.2,-247.59"/>
<polygon fill="midnightblue" stroke="midnightblue" points="1053.72,-250.74 1061.47,-243.52 1050.91,-244.33 1053.72,-250.74"/>
</g>
<!-- Node17 -->
<g id="node17" class="node">
<title>Node17</title>
<g id="a_node17"><a xlink:href="type_8h.html" target="_top" xlink:title=" ">
<polygon fill="none" stroke="black" points="795.37,-224.5 795.37,-243.5 842.37,-243.5 842.37,-224.5 795.37,-224.5"/>
<text text-anchor="middle" x="818.87" y="-231.5" font-family="Helvetica,sans-Serif" font-size="10.00">type.h</text>
</a>
</g>
</g>
<!-- Node15&#45;&gt;Node17 -->
<g id="edge18" class="edge">
<title>Node15&#45;&gt;Node17</title>
<path fill="none" stroke="midnightblue" d="M935.85,-280.44C912.77,-271.48 876.31,-257.31 850.23,-247.18"/>
<polygon fill="midnightblue" stroke="midnightblue" points="851.38,-243.88 840.79,-243.52 848.85,-250.4 851.38,-243.88"/>
</g>
<!-- Node42 -->
<g id="node23" class="node">
<title>Node42</title>
<g id="a_node23"><a xlink:href="validation__mode_8h.html" target="_top" xlink:title=" ">
<polygon fill="none" stroke="black" points="867.37,-112.5 867.37,-131.5 974.37,-131.5 974.37,-112.5 867.37,-112.5"/>
<text text-anchor="middle" x="920.87" y="-119.5" font-family="Helvetica,sans-Serif" font-size="10.00">validation_mode.h</text>
</a>
</g>
</g>
<!-- Node15&#45;&gt;Node42 -->
<g id="edge33" class="edge">
<title>Node15&#45;&gt;Node42</title>
<path fill="none" stroke="midnightblue" d="M935.08,-280.47C919.55,-273.32 900.16,-261.44 890.87,-244 872.72,-209.94 894.41,-164.62 909.25,-140.25"/>
<polygon fill="midnightblue" stroke="midnightblue" points="912.26,-142.04 914.69,-131.73 906.36,-138.28 912.26,-142.04"/>
</g>
<!-- Node43 -->
<g id="node24" class="node">
<title>Node43</title>
<g id="a_node24"><a xlink:href="validate__types_8h.html" target="_top" xlink:title=" ">
<polygon fill="none" stroke="black" points="756.87,-168.5 756.87,-187.5 854.87,-187.5 854.87,-168.5 756.87,-168.5"/>
<text text-anchor="middle" x="805.87" y="-175.5" font-family="Helvetica,sans-Serif" font-size="10.00">validate_types.h</text>
</a>
</g>
</g>
<!-- Node15&#45;&gt;Node43 -->
<g id="edge32" class="edge">
<title>Node15&#45;&gt;Node43</title>
<path fill="none" stroke="midnightblue" d="M934.19,-286.3C891.6,-280.91 804.82,-267.28 786.87,-244 776.16,-230.1 784.4,-210.3 793.14,-196.22"/>
<polygon fill="midnightblue" stroke="midnightblue" points="796.05,-198.15 798.75,-187.91 790.25,-194.23 796.05,-198.15"/>
</g>
<!-- Node44 -->
<g id="node25" class="node">
<title>Node44</title>
<g id="a_node25"><a xlink:href="validate__expressions_8h.html" target="_top" xlink:title=" ">
<polygon fill="none" stroke="black" points="899.37,-224.5 899.37,-243.5 1028.37,-243.5 1028.37,-224.5 899.37,-224.5"/>
<text text-anchor="middle" x="963.87" y="-231.5" font-family="Helvetica,sans-Serif" font-size="10.00">validate_expressions.h</text>
</a>
</g>
</g>
<!-- Node15&#45;&gt;Node44 -->
<g id="edge31" class="edge">
<title>Node15&#45;&gt;Node44</title>
<path fill="none" stroke="midnightblue" d="M958.86,-280.08C959.66,-272.93 960.8,-262.64 961.8,-253.69"/>
<polygon fill="midnightblue" stroke="midnightblue" points="965.27,-254.08 962.9,-243.75 958.32,-253.3 965.27,-254.08"/>
</g>
<!-- Node45 -->
<g id="node26" class="node">
<title>Node45</title>
<g id="a_node26"><a xlink:title=" ">
<polygon fill="none" stroke="#bfbfbf" points="1133.37,-224.5 1133.37,-243.5 1198.37,-243.5 1198.37,-224.5 1133.37,-224.5"/>
<text text-anchor="middle" x="1165.87" y="-231.5" font-family="Helvetica,sans-Serif" font-size="10.00">functional</text>
</a>
</g>
</g>
<!-- Node15&#45;&gt;Node45 -->
<g id="edge34" class="edge">
<title>Node15&#45;&gt;Node45</title>
<path fill="none" stroke="midnightblue" d="M981.73,-282.81C1016.21,-273.85 1080.5,-257.16 1123.25,-246.07"/>
<polygon fill="midnightblue" stroke="midnightblue" points="1124.29,-249.41 1133.09,-243.51 1122.53,-242.64 1124.29,-249.41"/>
</g>
<!-- Node18 -->
<g id="node18" class="node">
<title>Node18</title>
<g id="a_node18"><a xlink:href="source__location_8h.html" target="_top" xlink:title=" ">
<polygon fill="none" stroke="red" points="364.87,-168.5 364.87,-187.5 466.87,-187.5 466.87,-168.5 364.87,-168.5"/>
<text text-anchor="middle" x="415.87" y="-175.5" font-family="Helvetica,sans-Serif" font-size="10.00">source_location.h</text>
</a>
</g>
</g>
<!-- Node17&#45;&gt;Node18 -->
<g id="edge19" class="edge">
<title>Node17&#45;&gt;Node18</title>
<path fill="none" stroke="midnightblue" d="M795.22,-230.02C741.11,-223.17 603.88,-205.64 477.37,-188.05"/>
<polygon fill="midnightblue" stroke="midnightblue" points="477.51,-184.53 467.12,-186.62 476.54,-191.47 477.51,-184.53"/>
</g>
<!-- Node17&#45;&gt;Node40 -->
<g id="edge26" class="edge">
<title>Node17&#45;&gt;Node40</title>
<path fill="none" stroke="midnightblue" d="M842.54,-229.97C856.58,-228.19 874.74,-225.92 890.87,-224 1019.71,-208.65 1172.22,-191.71 1245.03,-183.69"/>
<polygon fill="midnightblue" stroke="midnightblue" points="1245.62,-187.15 1255.18,-182.58 1244.86,-180.19 1245.62,-187.15"/>
</g>
<!-- Node17&#45;&gt;Node42 -->
<g id="edge30" class="edge">
<title>Node17&#45;&gt;Node42</title>
<path fill="none" stroke="midnightblue" d="M828.01,-224.2C837.23,-215.25 851.79,-200.9 863.87,-188 879.02,-171.82 895.66,-152.68 907.03,-139.38"/>
<polygon fill="midnightblue" stroke="midnightblue" points="909.86,-141.46 913.67,-131.57 904.52,-136.92 909.86,-141.46"/>
</g>
<!-- Node17&#45;&gt;Node43 -->
<g id="edge29" class="edge">
<title>Node17&#45;&gt;Node43</title>
<path fill="none" stroke="midnightblue" d="M816.73,-224.08C815,-216.93 812.53,-206.64 810.37,-197.69"/>
<polygon fill="midnightblue" stroke="midnightblue" points="813.72,-196.65 807.98,-187.75 806.92,-198.29 813.72,-196.65"/>
</g>
<!-- Node18&#45;&gt;Node6 -->
<g id="edge25" class="edge">
<title>Node18&#45;&gt;Node6</title>
<path fill="none" stroke="midnightblue" d="M415.87,-168.08C415.87,-141.95 415.87,-65.21 415.87,-29.58"/>
<polygon fill="midnightblue" stroke="midnightblue" points="419.37,-29.57 415.87,-19.57 412.37,-29.57 419.37,-29.57"/>
</g>
<!-- Node19 -->
<g id="node19" class="node">
<title>Node19</title>
<g id="a_node19"><a xlink:href="irep_8h.html" target="_top" xlink:title=" ">
<polygon fill="none" stroke="red" points="459.87,-112.5 459.87,-131.5 503.87,-131.5 503.87,-112.5 459.87,-112.5"/>
<text text-anchor="middle" x="481.87" y="-119.5" font-family="Helvetica,sans-Serif" font-size="10.00">irep.h</text>
</a>
</g>
</g>
<!-- Node18&#45;&gt;Node19 -->
<g id="edge20" class="edge">
<title>Node18&#45;&gt;Node19</title>
<path fill="none" stroke="midnightblue" d="M426.48,-168.32C436.33,-160.26 451.22,-148.08 463.09,-138.37"/>
<polygon fill="midnightblue" stroke="midnightblue" points="465.55,-140.88 471.08,-131.83 461.12,-135.46 465.55,-140.88"/>
</g>
<!-- Node19&#45;&gt;Node6 -->
<g id="edge21" class="edge">
<title>Node19&#45;&gt;Node6</title>
<path fill="none" stroke="midnightblue" d="M476.69,-112.37C465.85,-94.3 440.58,-52.18 426.26,-28.31"/>
<polygon fill="midnightblue" stroke="midnightblue" points="429.17,-26.37 421.03,-19.59 423.17,-29.97 429.17,-26.37"/>
</g>
<!-- Node19&#45;&gt;Node21 -->
<g id="edge22" class="edge">
<title>Node19&#45;&gt;Node21</title>
<path fill="none" stroke="midnightblue" d="M503.88,-114.05C532.28,-105.08 582.11,-89.35 616.26,-78.56"/>
<polygon fill="midnightblue" stroke="midnightblue" points="617.4,-81.87 625.88,-75.52 615.29,-75.2 617.4,-81.87"/>
</g>
<!-- Node21&#45;&gt;Node6 -->
<g id="edge23" class="edge">
<title>Node21&#45;&gt;Node6</title>
<path fill="none" stroke="midnightblue" d="M618.16,-57.09C572.33,-46.65 492.28,-28.41 447.86,-18.29"/>
<polygon fill="midnightblue" stroke="midnightblue" points="448.43,-14.83 437.9,-16.02 446.87,-21.65 448.43,-14.83"/>
</g>
<!-- Node24 -->
<g id="node21" class="node">
<title>Node24</title>
<g id="a_node21"><a xlink:title=" ">
<polygon fill="none" stroke="#bfbfbf" points="1314.37,-0.5 1314.37,-19.5 1383.37,-19.5 1383.37,-0.5 1314.37,-0.5"/>
<text text-anchor="middle" x="1348.87" y="-7.5" font-family="Helvetica,sans-Serif" font-size="10.00">type_traits</text>
</a>
</g>
</g>
<!-- Node21&#45;&gt;Node24 -->
<g id="edge24" class="edge">
<title>Node21&#45;&gt;Node24</title>
<path fill="none" stroke="midnightblue" d="M687.39,-62.32C802.64,-53.38 1174.24,-24.55 1303.81,-14.5"/>
<polygon fill="midnightblue" stroke="midnightblue" points="1304.45,-17.96 1314.15,-13.69 1303.91,-10.98 1304.45,-17.96"/>
</g>
<!-- Node40&#45;&gt;Node24 -->
<g id="edge27" class="edge">
<title>Node40&#45;&gt;Node24</title>
<path fill="none" stroke="midnightblue" d="M1291.15,-168.08C1300.8,-141.83 1329.2,-64.55 1342.22,-29.12"/>
<polygon fill="midnightblue" stroke="midnightblue" points="1345.56,-30.16 1345.72,-19.57 1338.99,-27.75 1345.56,-30.16"/>
</g>
<!-- Node40&#45;&gt;Node42 -->
<g id="edge28" class="edge">
<title>Node40&#45;&gt;Node42</title>
<path fill="none" stroke="midnightblue" d="M1255.3,-172.21C1194.7,-163.29 1063.61,-144 984.75,-132.4"/>
<polygon fill="midnightblue" stroke="midnightblue" points="984.86,-128.88 974.46,-130.88 983.84,-135.8 984.86,-128.88"/>
</g>
<!-- Node46&#45;&gt;Node15 -->
<g id="edge40" class="edge">
<title>Node46&#45;&gt;Node15</title>
<path fill="none" stroke="midnightblue" d="M1095.89,-336.44C1067.65,-327.15 1022.43,-312.26 991.5,-302.07"/>
<polygon fill="midnightblue" stroke="midnightblue" points="992.2,-298.62 981.61,-298.82 990.01,-305.27 992.2,-298.62"/>
</g>
<!-- Node46&#45;&gt;Node21 -->
<g id="edge39" class="edge">
<title>Node46&#45;&gt;Node21</title>
<path fill="none" stroke="midnightblue" d="M1127.82,-336.26C1136.66,-323.46 1154.05,-299.08 1170.87,-280 1186.04,-262.79 1198.95,-265.14 1207.87,-244 1211.33,-235.81 1212.55,-231.56 1207.87,-224 1149.36,-129.32 1090.23,-144.83 983.87,-112 884.66,-81.38 762.33,-71.58 697.74,-68.45"/>
<polygon fill="midnightblue" stroke="midnightblue" points="697.65,-64.95 687.5,-67.99 697.33,-71.94 697.65,-64.95"/>
</g>
<!-- Node46&#45;&gt;Node24 -->
<g id="edge37" class="edge">
<title>Node46&#45;&gt;Node24</title>
<path fill="none" stroke="midnightblue" d="M1158.47,-337.62C1184.7,-331.01 1219.84,-319.29 1245.87,-300 1295.87,-262.96 1306.82,-245.79 1329.87,-188 1351.48,-133.82 1351.56,-63.32 1350.1,-30.01"/>
<polygon fill="midnightblue" stroke="midnightblue" points="1353.59,-29.67 1349.56,-19.87 1346.6,-30.04 1353.59,-29.67"/>
</g>
<!-- Node46&#45;&gt;Node45 -->
<g id="edge38" class="edge">
<title>Node46&#45;&gt;Node45</title>
<path fill="none" stroke="midnightblue" d="M1122.91,-336.29C1124.64,-323.54 1128.76,-299.2 1136.87,-280 1141.02,-270.17 1147.28,-260.11 1152.93,-252"/>
<polygon fill="midnightblue" stroke="midnightblue" points="1155.84,-253.94 1158.89,-243.79 1150.18,-249.82 1155.84,-253.94"/>
</g>
<!-- Node47 -->
<g id="node28" class="node">
<title>Node47</title>
<g id="a_node28"><a xlink:title=" ">
<polygon fill="none" stroke="#bfbfbf" points="1179.37,-280.5 1179.37,-299.5 1236.37,-299.5 1236.37,-280.5 1179.37,-280.5"/>
<text text-anchor="middle" x="1207.87" y="-287.5" font-family="Helvetica,sans-Serif" font-size="10.00">typeinfo</text>
</a>
</g>
</g>
<!-- Node46&#45;&gt;Node47 -->
<g id="edge36" class="edge">
<title>Node46&#45;&gt;Node47</title>
<path fill="none" stroke="midnightblue" d="M1135.69,-336.32C1149.11,-327.9 1169.7,-314.97 1185.46,-305.07"/>
<polygon fill="midnightblue" stroke="midnightblue" points="1187.48,-307.94 1194.09,-299.65 1183.76,-302.01 1187.48,-307.94"/>
</g>
<!-- Node48&#45;&gt;Node6 -->
<g id="edge44" class="edge">
<title>Node48&#45;&gt;Node6</title>
<path fill="none" stroke="midnightblue" d="M732.56,-336.18C725.11,-327.66 714.64,-314.01 709.87,-300 674.86,-197.2 769.5,-136.73 696.87,-56 664.32,-19.82 515.42,-12.67 448.55,-11.3"/>
<polygon fill="midnightblue" stroke="midnightblue" points="448.24,-7.8 438.18,-11.12 448.12,-14.8 448.24,-7.8"/>
</g>
<!-- Node48&#45;&gt;Node7 -->
<g id="edge43" class="edge">
<title>Node48&#45;&gt;Node7</title>
<path fill="none" stroke="midnightblue" d="M706.3,-338.86C647.69,-328.45 529.56,-307.46 471.15,-297.09"/>
<polygon fill="midnightblue" stroke="midnightblue" points="471.43,-293.58 460.97,-295.28 470.21,-300.48 471.43,-293.58"/>
</g>
<!-- Node49 -->
<g id="node30" class="node">
<title>Node49</title>
<g id="a_node30"><a xlink:title=" ">
<polygon fill="none" stroke="#bfbfbf" points="718.87,-280.5 718.87,-299.5 812.87,-299.5 812.87,-280.5 718.87,-280.5"/>
<text text-anchor="middle" x="765.87" y="-287.5" font-family="Helvetica,sans-Serif" font-size="10.00">big&#45;int/bigint.hh</text>
</a>
</g>
</g>
<!-- Node48&#45;&gt;Node49 -->
<g id="edge45" class="edge">
<title>Node48&#45;&gt;Node49</title>
<path fill="none" stroke="midnightblue" d="M745,-336.08C748.39,-328.77 753.29,-318.18 757.49,-309.1"/>
<polygon fill="midnightblue" stroke="midnightblue" points="760.8,-310.3 761.82,-299.75 754.44,-307.36 760.8,-310.3"/>
</g>
<!-- Node50&#45;&gt;Node6 -->
<g id="edge63" class="edge">
<title>Node50&#45;&gt;Node6</title>
<path fill="none" stroke="midnightblue" d="M535.56,-560.44C510.55,-553.7 479.11,-542.31 455.87,-524 437.26,-509.33 336.87,-370.7 336.87,-347 336.87,-347 336.87,-347 336.87,-121 336.87,-80.79 372.12,-45.22 395.53,-26.03"/>
<polygon fill="midnightblue" stroke="midnightblue" points="397.84,-28.66 403.53,-19.72 393.51,-23.17 397.84,-28.66"/>
</g>
<!-- Node50&#45;&gt;Node7 -->
<g id="edge60" class="edge">
<title>Node50&#45;&gt;Node7</title>
<path fill="none" stroke="midnightblue" d="M539.59,-560.35C518.14,-553.65 492.11,-542.33 474.87,-524 453.78,-501.56 450.87,-489.8 450.87,-459 450.87,-459 450.87,-459 450.87,-401 450.87,-368.54 444.8,-331.12 440.65,-309.36"/>
<polygon fill="midnightblue" stroke="midnightblue" points="444.08,-308.64 438.7,-299.51 437.21,-310 444.08,-308.64"/>
</g>
<!-- Node50&#45;&gt;Node18 -->
<g id="edge69" class="edge">
<title>Node50&#45;&gt;Node18</title>
<path fill="none" stroke="midnightblue" d="M556.18,-560.35C540.73,-552.88 520.23,-540.65 507.87,-524 489.93,-499.83 488.87,-489.1 488.87,-459 488.87,-459 488.87,-459 488.87,-289 488.87,-249.78 456.25,-213.84 434.62,-194.32"/>
<polygon fill="midnightblue" stroke="midnightblue" points="436.81,-191.58 426.96,-187.67 432.22,-196.87 436.81,-191.58"/>
</g>
<!-- Node50&#45;&gt;Node21 -->
<g id="edge65" class="edge">
<title>Node50&#45;&gt;Node21</title>
<path fill="none" stroke="midnightblue" d="M582.16,-560.23C592.6,-542.04 614.87,-498.6 614.87,-459 614.87,-459 614.87,-459 614.87,-177 614.87,-142.81 631.47,-105.76 642.73,-84.57"/>
<polygon fill="midnightblue" stroke="midnightblue" points="645.82,-86.22 647.59,-75.77 639.69,-82.83 645.82,-86.22"/>
</g>
<!-- Node51 -->
<g id="node33" class="node">
<title>Node51</title>
<g id="a_node33"><a xlink:href="goto__instruction__code_8h.html" target="_top" xlink:title=" ">
<polygon fill="none" stroke="black" points="816.37,-504.5 816.37,-523.5 949.37,-523.5 949.37,-504.5 816.37,-504.5"/>
<text text-anchor="middle" x="882.87" y="-511.5" font-family="Helvetica,sans-Serif" font-size="10.00">goto_instruction_code.h</text>
</a>
</g>
</g>
<!-- Node50&#45;&gt;Node51 -->
<g id="edge49" class="edge">
<title>Node50&#45;&gt;Node51</title>
<path fill="none" stroke="midnightblue" d="M624.01,-560.68C677.94,-551.16 766.29,-535.57 824.52,-525.3"/>
<polygon fill="midnightblue" stroke="midnightblue" points="825.43,-528.69 834.67,-523.51 824.21,-521.8 825.43,-528.69"/>
</g>
<!-- Node54 -->
<g id="node36" class="node">
<title>Node54</title>
<g id="a_node36"><a xlink:title=" ">
<polygon fill="none" stroke="#bfbfbf" points="516.87,-504.5 516.87,-523.5 548.87,-523.5 548.87,-504.5 516.87,-504.5"/>
<text text-anchor="middle" x="532.87" y="-511.5" font-family="Helvetica,sans-Serif" font-size="10.00">set</text>
</a>
</g>
</g>
<!-- Node50&#45;&gt;Node54 -->
<g id="edge61" class="edge">
<title>Node50&#45;&gt;Node54</title>
<path fill="none" stroke="midnightblue" d="M569.61,-560.08C563.33,-552.38 554.08,-541.03 546.44,-531.65"/>
<polygon fill="midnightblue" stroke="midnightblue" points="549.03,-529.29 540,-523.75 543.61,-533.71 549.03,-529.29"/>
</g>
<!-- Node55 -->
<g id="node37" class="node">
<title>Node55</title>
<g id="a_node37"><a xlink:title=" ">
<polygon fill="none" stroke="#bfbfbf" points="642.87,-504.5 642.87,-523.5 686.87,-523.5 686.87,-504.5 642.87,-504.5"/>
<text text-anchor="middle" x="664.87" y="-511.5" font-family="Helvetica,sans-Serif" font-size="10.00">limits</text>
</a>
</g>
</g>
<!-- Node50&#45;&gt;Node55 -->
<g id="edge62" class="edge">
<title>Node50&#45;&gt;Node55</title>
<path fill="none" stroke="midnightblue" d="M591.01,-560.32C604.74,-551.9 625.81,-538.97 641.94,-529.07"/>
<polygon fill="midnightblue" stroke="midnightblue" points="644.08,-531.87 650.77,-523.65 640.41,-525.9 644.08,-531.87"/>
</g>
<!-- Node56 -->
<g id="node38" class="node">
<title>Node56</title>
<g id="a_node38"><a xlink:href="deprecate_8h.html" target="_top" xlink:title=" ">
<polygon fill="none" stroke="black" points="705.37,-504.5 705.37,-523.5 798.37,-523.5 798.37,-504.5 705.37,-504.5"/>
<text text-anchor="middle" x="751.87" y="-511.5" font-family="Helvetica,sans-Serif" font-size="10.00">util/deprecate.h</text>
</a>
</g>
</g>
<!-- Node50&#45;&gt;Node56 -->
<g id="edge64" class="edge">
<title>Node50&#45;&gt;Node56</title>
<path fill="none" stroke="midnightblue" d="M604.6,-560.44C634.3,-551.28 681.59,-536.69 714.54,-526.52"/>
<polygon fill="midnightblue" stroke="midnightblue" points="715.75,-529.81 724.27,-523.52 713.69,-523.12 715.75,-529.81"/>
</g>
<!-- Node57 -->
<g id="node39" class="node">
<title>Node57</title>
<g id="a_node39"><a xlink:href="namespace_8h.html" target="_top" xlink:title=" ">
<polygon fill="none" stroke="black" points="485.37,-168.5 485.37,-187.5 586.37,-187.5 586.37,-168.5 485.37,-168.5"/>
<text text-anchor="middle" x="535.87" y="-175.5" font-family="Helvetica,sans-Serif" font-size="10.00">util/namespace.h</text>
</a>
</g>
</g>
<!-- Node50&#45;&gt;Node57 -->
<g id="edge66" class="edge">
<title>Node50&#45;&gt;Node57</title>
<path fill="none" stroke="midnightblue" d="M576.87,-560.44C576.87,-541.94 576.87,-496.81 576.87,-459 576.87,-459 576.87,-459 576.87,-289 576.87,-254.52 558.96,-217.56 546.82,-196.47"/>
<polygon fill="midnightblue" stroke="midnightblue" points="549.71,-194.49 541.57,-187.71 543.71,-198.09 549.71,-194.49"/>
</g>
<!-- Node51&#45;&gt;Node9 -->
<g id="edge50" class="edge">
<title>Node51&#45;&gt;Node9</title>
<path fill="none" stroke="midnightblue" d="M816.23,-504.91C813.4,-504.6 810.61,-504.29 807.87,-504 660.87,-488.29 488.22,-472.84 395.29,-464.76"/>
<polygon fill="midnightblue" stroke="midnightblue" points="395.45,-461.27 385.18,-463.89 394.84,-468.24 395.45,-461.27"/>
</g>
<!-- Node52 -->
<g id="node34" class="node">
<title>Node52</title>
<g id="a_node34"><a xlink:href="std__code__base_8h.html" target="_top" xlink:title=" ">
<polygon fill="none" stroke="black" points="1063.87,-448.5 1063.87,-467.5 1179.87,-467.5 1179.87,-448.5 1063.87,-448.5"/>
<text text-anchor="middle" x="1121.87" y="-455.5" font-family="Helvetica,sans-Serif" font-size="10.00">util/std_code_base.h</text>
</a>
</g>
</g>
<!-- Node51&#45;&gt;Node52 -->
<g id="edge51" class="edge">
<title>Node51&#45;&gt;Node52</title>
<path fill="none" stroke="midnightblue" d="M920.74,-504.44C962.35,-495.04 1029.24,-479.93 1074.34,-469.74"/>
<polygon fill="midnightblue" stroke="midnightblue" points="1075.2,-473.13 1084.18,-467.52 1073.65,-466.31 1075.2,-473.13"/>
</g>
<!-- Node53 -->
<g id="node35" class="node">
<title>Node53</title>
<g id="a_node35"><a xlink:href="std__expr_8h.html" target="_top" xlink:title=" ">
<polygon fill="none" stroke="black" points="851.87,-448.5 851.87,-467.5 937.87,-467.5 937.87,-448.5 851.87,-448.5"/>
<text text-anchor="middle" x="894.87" y="-455.5" font-family="Helvetica,sans-Serif" font-size="10.00">util/std_expr.h</text>
</a>
</g>
</g>
<!-- Node51&#45;&gt;Node53 -->
<g id="edge56" class="edge">
<title>Node51&#45;&gt;Node53</title>
<path fill="none" stroke="midnightblue" d="M884.85,-504.08C886.44,-496.93 888.73,-486.64 890.72,-477.69"/>
<polygon fill="midnightblue" stroke="midnightblue" points="894.17,-478.27 892.93,-467.75 887.34,-476.75 894.17,-478.27"/>
</g>
<!-- Node52&#45;&gt;Node14 -->
<g id="edge54" class="edge">
<title>Node52&#45;&gt;Node14</title>
<path fill="none" stroke="midnightblue" d="M1099.06,-448.44C1075.04,-439.44 1037.04,-425.19 1010,-415.05"/>
<polygon fill="midnightblue" stroke="midnightblue" points="1011.18,-411.75 1000.58,-411.52 1008.72,-418.3 1011.18,-411.75"/>
</g>
<!-- Node52&#45;&gt;Node21 -->
<g id="edge53" class="edge">
<title>Node52&#45;&gt;Node21</title>
<path fill="none" stroke="midnightblue" d="M1180.19,-456.58C1256.02,-452.6 1378.87,-432.9 1378.87,-347 1378.87,-347 1378.87,-347 1378.87,-289 1378.87,-230.98 1374.71,-204.82 1329.87,-168 1232.62,-88.16 833.01,-71.3 697.82,-67.85"/>
<polygon fill="midnightblue" stroke="midnightblue" points="697.51,-64.34 687.43,-67.6 697.34,-71.34 697.51,-64.34"/>
</g>
<!-- Node52&#45;&gt;Node40 -->
<g id="edge55" class="edge">
<title>Node52&#45;&gt;Node40</title>
<path fill="none" stroke="midnightblue" d="M1179.99,-452.51C1244.87,-443.96 1340.87,-419.12 1340.87,-347 1340.87,-347 1340.87,-347 1340.87,-289 1340.87,-252.99 1317.54,-216.34 1301.84,-195.75"/>
<polygon fill="midnightblue" stroke="midnightblue" points="1304.42,-193.38 1295.47,-187.72 1298.94,-197.73 1304.42,-193.38"/>
</g>
<!-- Node52&#45;&gt;Node46 -->
<g id="edge52" class="edge">
<title>Node52&#45;&gt;Node46</title>
<path fill="none" stroke="midnightblue" d="M1121.87,-448.37C1121.87,-430.62 1121.87,-389.67 1121.87,-365.6"/>
<polygon fill="midnightblue" stroke="midnightblue" points="1125.37,-365.59 1121.87,-355.59 1118.37,-365.59 1125.37,-365.59"/>
</g>
<!-- Node53&#45;&gt;Node14 -->
<g id="edge59" class="edge">
<title>Node53&#45;&gt;Node14</title>
<path fill="none" stroke="midnightblue" d="M908.21,-448.32C921.03,-439.98 940.66,-427.21 955.81,-417.35"/>
<polygon fill="midnightblue" stroke="midnightblue" points="958.1,-420.04 964.57,-411.65 954.28,-414.17 958.1,-420.04"/>
</g>
<!-- Node53&#45;&gt;Node21 -->
<g id="edge58" class="edge">
<title>Node53&#45;&gt;Node21</title>
<path fill="none" stroke="midnightblue" d="M851.61,-456.14C782,-452.22 652.87,-433.3 652.87,-347 652.87,-347 652.87,-347 652.87,-177 652.87,-144.95 652.87,-107.64 652.87,-85.75"/>
<polygon fill="midnightblue" stroke="midnightblue" points="656.37,-85.56 652.87,-75.56 649.37,-85.56 656.37,-85.56"/>
</g>
<!-- Node53&#45;&gt;Node46 -->
<g id="edge57" class="edge">
<title>Node53&#45;&gt;Node46</title>
<path fill="none" stroke="midnightblue" d="M931.27,-448.5C959.84,-441.04 1000.12,-428.76 1032.87,-412 1059.56,-398.34 1086.92,-377.05 1104.13,-362.59"/>
<polygon fill="midnightblue" stroke="midnightblue" points="1106.83,-364.89 1112.15,-355.73 1102.28,-359.57 1106.83,-364.89"/>
</g>
<!-- Node57&#45;&gt;Node19 -->
<g id="edge68" class="edge">
<title>Node57&#45;&gt;Node19</title>
<path fill="none" stroke="midnightblue" d="M526.96,-168.08C519.09,-160.22 507.44,-148.57 497.95,-139.08"/>
<polygon fill="midnightblue" stroke="midnightblue" points="500.17,-136.35 490.62,-131.75 495.22,-141.3 500.17,-136.35"/>
</g>
<!-- Node57&#45;&gt;Node21 -->
<g id="edge67" class="edge">
<title>Node57&#45;&gt;Node21</title>
<path fill="none" stroke="midnightblue" d="M544.1,-168.39C556.25,-155.75 579.84,-131.57 600.87,-112 611.8,-101.83 624.45,-90.87 634.54,-82.31"/>
<polygon fill="midnightblue" stroke="midnightblue" points="636.93,-84.87 642.32,-75.75 632.42,-79.52 636.93,-84.87"/>
</g>
</g>
</svg>
