<?xml version="1.0" encoding="UTF-8" standalone="no"?>
<!DOCTYPE svg PUBLIC "-//W3C//DTD SVG 1.1//EN"
 "http://www.w3.org/Graphics/SVG/1.1/DTD/svg11.dtd">
<!-- Generated by graphviz version 2.43.0 (0)
 -->
<!-- Title: /home/runner/work/cbmc&#45;documentation/cbmc&#45;documentation/src/solvers/smt2/smt2_tokenizer.h Pages: 1 -->
<svg width="862pt" height="206pt"
 viewBox="0.00 0.00 862.00 206.00" xmlns="http://www.w3.org/2000/svg" xmlns:xlink="http://www.w3.org/1999/xlink">
<g id="graph0" class="graph" transform="scale(1 1) rotate(0) translate(4 202)">
<title>/home/runner/work/cbmc&#45;documentation/cbmc&#45;documentation/src/solvers/smt2/smt2_tokenizer.h</title>
<!-- Node1 -->
<g id="node1" class="node">
<title>Node1</title>
<g id="a_node1"><a xlink:title=" ">
<polygon fill="#bfbfbf" stroke="black" points="327,-156.5 327,-197.5 527,-197.5 527,-156.5 327,-156.5"/>
<text text-anchor="start" x="335" y="-185.5" font-family="Helvetica,sans-Serif" font-size="10.00">/home/runner/work/cbmc</text>
<text text-anchor="start" x="335" y="-174.5" font-family="Helvetica,sans-Serif" font-size="10.00">&#45;documentation/cbmc&#45;documentation</text>
<text text-anchor="middle" x="427" y="-163.5" font-family="Helvetica,sans-Serif" font-size="10.00">/src/solvers/smt2/smt2_tokenizer.h</text>
</a>
</g>
</g>
<!-- Node2 -->
<g id="node2" class="node">
<title>Node2</title>
<g id="a_node2"><a xlink:href="smt2__conv_8cpp.html" target="_top" xlink:title=" ">
<polygon fill="none" stroke="black" points="0,-78.5 0,-119.5 200,-119.5 200,-78.5 0,-78.5"/>
<text text-anchor="start" x="8" y="-107.5" font-family="Helvetica,sans-Serif" font-size="10.00">/home/runner/work/cbmc</text>
<text text-anchor="start" x="8" y="-96.5" font-family="Helvetica,sans-Serif" font-size="10.00">&#45;documentation/cbmc&#45;documentation</text>
<text text-anchor="middle" x="100" y="-85.5" font-family="Helvetica,sans-Serif" font-size="10.00">/src/solvers/smt2/smt2_conv.cpp</text>
</a>
</g>
</g>
<!-- Node1&#45;&gt;Node2 -->
<g id="edge1" class="edge">
<title>Node1&#45;&gt;Node2</title>
<path fill="none" stroke="midnightblue" d="M332.91,-154.13C285.88,-143.2 229.46,-130.09 183.93,-119.51"/>
<polygon fill="midnightblue" stroke="midnightblue" points="332.26,-157.57 342.79,-156.43 333.84,-150.76 332.26,-157.57"/>
</g>
<!-- Node3 -->
<g id="node3" class="node">
<title>Node3</title>
<g id="a_node3"><a xlink:href="smt2__parser_8h.html" target="_top" xlink:title=" ">
<polygon fill="none" stroke="black" points="218,-78.5 218,-119.5 418,-119.5 418,-78.5 218,-78.5"/>
<text text-anchor="start" x="226" y="-107.5" font-family="Helvetica,sans-Serif" font-size="10.00">/home/runner/work/cbmc</text>
<text text-anchor="start" x="226" y="-96.5" font-family="Helvetica,sans-Serif" font-size="10.00">&#45;documentation/cbmc&#45;documentation</text>
<text text-anchor="middle" x="318" y="-85.5" font-family="Helvetica,sans-Serif" font-size="10.00">/src/solvers/smt2/smt2_parser.h</text>
</a>
</g>
</g>
<!-- Node1&#45;&gt;Node3 -->
<g id="edge2" class="edge">
<title>Node1&#45;&gt;Node3</title>
<path fill="none" stroke="midnightblue" d="M390.62,-150.64C376.07,-140.49 359.57,-128.98 345.98,-119.51"/>
<polygon fill="midnightblue" stroke="midnightblue" points="388.73,-153.58 398.93,-156.43 392.73,-147.84 388.73,-153.58"/>
</g>
<!-- Node6 -->
<g id="node6" class="node">
<title>Node6</title>
<g id="a_node6"><a xlink:href="smt2__tokenizer_8cpp.html" target="_top" xlink:title=" ">
<polygon fill="none" stroke="black" points="436,-78.5 436,-119.5 636,-119.5 636,-78.5 436,-78.5"/>
<text text-anchor="start" x="444" y="-107.5" font-family="Helvetica,sans-Serif" font-size="10.00">/home/runner/work/cbmc</text>
<text text-anchor="start" x="444" y="-96.5" font-family="Helvetica,sans-Serif" font-size="10.00">&#45;documentation/cbmc&#45;documentation</text>
<text text-anchor="middle" x="536" y="-85.5" font-family="Helvetica,sans-Serif" font-size="10.00">/src/solvers/smt2/smt2_tokenizer.cpp</text>
</a>
</g>
</g>
<!-- Node1&#45;&gt;Node6 -->
<g id="edge5" class="edge">
<title>Node1&#45;&gt;Node6</title>
<path fill="none" stroke="midnightblue" d="M463.38,-150.64C477.93,-140.49 494.43,-128.98 508.02,-119.51"/>
<polygon fill="midnightblue" stroke="midnightblue" points="461.27,-147.84 455.07,-156.43 465.27,-153.58 461.27,-147.84"/>
</g>
<!-- Node7 -->
<g id="node7" class="node">
<title>Node7</title>
<g id="a_node7"><a xlink:href="src_2solvers_2smt2_2smt2irep_8cpp.html" target="_top" xlink:title=" ">
<polygon fill="none" stroke="black" points="654,-78.5 654,-119.5 854,-119.5 854,-78.5 654,-78.5"/>
<text text-anchor="start" x="662" y="-107.5" font-family="Helvetica,sans-Serif" font-size="10.00">/home/runner/work/cbmc</text>
<text text-anchor="start" x="662" y="-96.5" font-family="Helvetica,sans-Serif" font-size="10.00">&#45;documentation/cbmc&#45;documentation</text>
<text text-anchor="middle" x="754" y="-85.5" font-family="Helvetica,sans-Serif" font-size="10.00">/src/solvers/smt2/smt2irep.cpp</text>
</a>
</g>
</g>
<!-- Node1&#45;&gt;Node7 -->
<g id="edge6" class="edge">
<title>Node1&#45;&gt;Node7</title>
<path fill="none" stroke="midnightblue" d="M521.09,-154.13C568.12,-143.2 624.54,-130.09 670.07,-119.51"/>
<polygon fill="midnightblue" stroke="midnightblue" points="520.16,-150.76 511.21,-156.43 521.74,-157.57 520.16,-150.76"/>
</g>
<!-- Node4 -->
<g id="node4" class="node">
<title>Node4</title>
<g id="a_node4"><a xlink:href="smt2__parser_8cpp.html" target="_top" xlink:title=" ">
<polygon fill="none" stroke="black" points="109,-0.5 109,-41.5 309,-41.5 309,-0.5 109,-0.5"/>
<text text-anchor="start" x="117" y="-29.5" font-family="Helvetica,sans-Serif" font-size="10.00">/home/runner/work/cbmc</text>
<text text-anchor="start" x="117" y="-18.5" font-family="Helvetica,sans-Serif" font-size="10.00">&#45;documentation/cbmc&#45;documentation</text>
<text text-anchor="middle" x="209" y="-7.5" font-family="Helvetica,sans-Serif" font-size="10.00">/src/solvers/smt2/smt2_parser.cpp</text>
</a>
</g>
</g>
<!-- Node3&#45;&gt;Node4 -->
<g id="edge3" class="edge">
<title>Node3&#45;&gt;Node4</title>
<path fill="none" stroke="midnightblue" d="M281.62,-72.64C267.07,-62.49 250.57,-50.98 236.98,-41.51"/>
<polygon fill="midnightblue" stroke="midnightblue" points="279.73,-75.58 289.93,-78.43 283.73,-69.84 279.73,-75.58"/>
</g>
<!-- Node5 -->
<g id="node5" class="node">
<title>Node5</title>
<g id="a_node5"><a xlink:href="smt2__solver_8cpp.html" target="_top" xlink:title=" ">
<polygon fill="none" stroke="black" points="327,-0.5 327,-41.5 527,-41.5 527,-0.5 327,-0.5"/>
<text text-anchor="start" x="335" y="-29.5" font-family="Helvetica,sans-Serif" font-size="10.00">/home/runner/work/cbmc</text>
<text text-anchor="start" x="335" y="-18.5" font-family="Helvetica,sans-Serif" font-size="10.00">&#45;documentation/cbmc&#45;documentation</text>
<text text-anchor="middle" x="427" y="-7.5" font-family="Helvetica,sans-Serif" font-size="10.00">/src/solvers/smt2/smt2_solver.cpp</text>
</a>
</g>
</g>
<!-- Node3&#45;&gt;Node5 -->
<g id="edge4" class="edge">
<title>Node3&#45;&gt;Node5</title>
<path fill="none" stroke="midnightblue" d="M354.38,-72.64C368.93,-62.49 385.43,-50.98 399.02,-41.51"/>
<polygon fill="midnightblue" stroke="midnightblue" points="352.27,-69.84 346.07,-78.43 356.27,-75.58 352.27,-69.84"/>
</g>
</g>
</svg>
