<?xml version="1.0" encoding="UTF-8" standalone="no"?>
<!DOCTYPE svg PUBLIC "-//W3C//DTD SVG 1.1//EN"
 "http://www.w3.org/Graphics/SVG/1.1/DTD/svg11.dtd">
<!-- Generated by graphviz version 2.43.0 (0)
 -->
<!-- Title: /home/runner/work/cbmc&#45;documentation/cbmc&#45;documentation/src/solvers/smt2/smt2_dec.cpp Pages: 1 -->
<svg width="1476pt" height="755pt"
 viewBox="0.00 0.00 1475.50 755.00" xmlns="http://www.w3.org/2000/svg" xmlns:xlink="http://www.w3.org/1999/xlink">
<g id="graph0" class="graph" transform="scale(1 1) rotate(0) translate(4 751)">
<title>/home/runner/work/cbmc&#45;documentation/cbmc&#45;documentation/src/solvers/smt2/smt2_dec.cpp</title>
<!-- Node1 -->
<g id="node1" class="node">
<title>Node1</title>
<g id="a_node1"><a xlink:title=" ">
<polygon fill="#bfbfbf" stroke="black" points="828,-705.5 828,-746.5 1028,-746.5 1028,-705.5 828,-705.5"/>
<text text-anchor="start" x="836" y="-734.5" font-family="Helvetica,sans-Serif" font-size="10.00">/home/runner/work/cbmc</text>
<text text-anchor="start" x="836" y="-723.5" font-family="Helvetica,sans-Serif" font-size="10.00">&#45;documentation/cbmc&#45;documentation</text>
<text text-anchor="middle" x="928" y="-712.5" font-family="Helvetica,sans-Serif" font-size="10.00">/src/solvers/smt2/smt2_dec.cpp</text>
</a>
</g>
</g>
<!-- Node2 -->
<g id="node2" class="node">
<title>Node2</title>
<g id="a_node2"><a xlink:href="smt2__dec_8h.html" target="_top" xlink:title=" ">
<polygon fill="none" stroke="black" points="701.5,-649.5 701.5,-668.5 774.5,-668.5 774.5,-649.5 701.5,-649.5"/>
<text text-anchor="middle" x="738" y="-656.5" font-family="Helvetica,sans-Serif" font-size="10.00">smt2_dec.h</text>
</a>
</g>
</g>
<!-- Node1&#45;&gt;Node2 -->
<g id="edge1" class="edge">
<title>Node1&#45;&gt;Node2</title>
<path fill="none" stroke="midnightblue" d="M870.99,-705.5C839.06,-694.57 800.27,-681.3 772.85,-671.92"/>
<polygon fill="midnightblue" stroke="midnightblue" points="773.89,-668.58 763.29,-668.65 771.62,-675.2 773.89,-668.58"/>
</g>
<!-- Node15 -->
<g id="node14" class="node">
<title>Node15</title>
<g id="a_node14"><a xlink:href="src_2util_2invariant_8h.html" target="_top" xlink:title=" ">
<polygon fill="none" stroke="red" points="252.5,-56.5 252.5,-75.5 321.5,-75.5 321.5,-56.5 252.5,-56.5"/>
<text text-anchor="middle" x="287" y="-63.5" font-family="Helvetica,sans-Serif" font-size="10.00">invariant.h</text>
</a>
</g>
</g>
<!-- Node1&#45;&gt;Node15 -->
<g id="edge68" class="edge">
<title>Node1&#45;&gt;Node15</title>
<path fill="none" stroke="midnightblue" d="M827.96,-721.3C656,-714.29 311.52,-697.19 194,-669 120.96,-651.48 38,-679.11 38,-604 38,-604 38,-604 38,-177 38,-88.71 170.6,-70.7 242.27,-67.42"/>
<polygon fill="midnightblue" stroke="midnightblue" points="242.52,-70.91 252.38,-67.03 242.25,-63.91 242.52,-70.91"/>
</g>
<!-- Node59 -->
<g id="node37" class="node">
<title>Node59</title>
<g id="a_node37"><a xlink:href="src_2util_2message_8h.html" target="_top" xlink:title=" ">
<polygon fill="none" stroke="black" points="301.5,-224.5 301.5,-243.5 390.5,-243.5 390.5,-224.5 301.5,-224.5"/>
<text text-anchor="middle" x="346" y="-231.5" font-family="Helvetica,sans-Serif" font-size="10.00">util/message.h</text>
</a>
</g>
</g>
<!-- Node1&#45;&gt;Node59 -->
<g id="edge69" class="edge">
<title>Node1&#45;&gt;Node59</title>
<path fill="none" stroke="midnightblue" d="M827.78,-720.4C610.21,-709.06 114,-675.39 114,-604 114,-604 114,-604 114,-428.5 114,-328.48 242.75,-270.09 308.43,-246.82"/>
<polygon fill="midnightblue" stroke="midnightblue" points="309.7,-250.08 318.02,-243.51 307.42,-243.46 309.7,-250.08"/>
</g>
<!-- Node60 -->
<g id="node38" class="node">
<title>Node60</title>
<g id="a_node38"><a xlink:href="run_8h.html" target="_top" xlink:title=" ">
<polygon fill="none" stroke="black" points="1346,-224.5 1346,-243.5 1406,-243.5 1406,-224.5 1346,-224.5"/>
<text text-anchor="middle" x="1376" y="-231.5" font-family="Helvetica,sans-Serif" font-size="10.00">util/run.h</text>
</a>
</g>
</g>
<!-- Node1&#45;&gt;Node60 -->
<g id="edge77" class="edge">
<title>Node1&#45;&gt;Node60</title>
<path fill="none" stroke="midnightblue" d="M1028.26,-715.61C1150.21,-701.35 1340,-668.76 1340,-604 1340,-604 1340,-604 1340,-361.5 1340,-321.52 1356.84,-277.05 1367.48,-252.94"/>
<polygon fill="midnightblue" stroke="midnightblue" points="1370.76,-254.2 1371.73,-243.65 1364.39,-251.29 1370.76,-254.2"/>
</g>
<!-- Node61 -->
<g id="node39" class="node">
<title>Node61</title>
<g id="a_node39"><a xlink:href="tempfile_8h.html" target="_top" xlink:title=" ">
<polygon fill="none" stroke="black" points="1382.5,-420 1382.5,-439 1467.5,-439 1467.5,-420 1382.5,-420"/>
<text text-anchor="middle" x="1425" y="-427" font-family="Helvetica,sans-Serif" font-size="10.00">util/tempfile.h</text>
</a>
</g>
</g>
<!-- Node1&#45;&gt;Node61 -->
<g id="edge81" class="edge">
<title>Node1&#45;&gt;Node61</title>
<path fill="none" stroke="midnightblue" d="M1028.02,-719.61C1135.65,-712.46 1298.83,-697.3 1354,-669 1389.25,-650.92 1415,-643.62 1415,-604 1415,-604 1415,-604 1415,-546 1415,-511.74 1419.42,-471.97 1422.39,-449.17"/>
<polygon fill="midnightblue" stroke="midnightblue" points="1425.86,-449.55 1423.73,-439.17 1418.93,-448.61 1425.86,-449.55"/>
</g>
<!-- Node62 -->
<g id="node40" class="node">
<title>Node62</title>
<g id="a_node40"><a xlink:href="src_2solvers_2smt2_2smt2irep_8h.html" target="_top" xlink:title=" ">
<polygon fill="none" stroke="black" points="1082.5,-224.5 1082.5,-243.5 1151.5,-243.5 1151.5,-224.5 1082.5,-224.5"/>
<text text-anchor="middle" x="1117" y="-231.5" font-family="Helvetica,sans-Serif" font-size="10.00">smt2irep.h</text>
</a>
</g>
</g>
<!-- Node1&#45;&gt;Node62 -->
<g id="edge83" class="edge">
<title>Node1&#45;&gt;Node62</title>
<path fill="none" stroke="midnightblue" d="M1012.55,-705.47C1062.87,-688.28 1117,-657.38 1117,-604 1117,-604 1117,-604 1117,-361.5 1117,-323.2 1117,-278.38 1117,-253.7"/>
<polygon fill="midnightblue" stroke="midnightblue" points="1120.5,-253.59 1117,-243.59 1113.5,-253.59 1120.5,-253.59"/>
</g>
<!-- Node3 -->
<g id="node3" class="node">
<title>Node3</title>
<g id="a_node3"><a xlink:href="smt2__conv_8h.html" target="_top" xlink:title=" ">
<polygon fill="none" stroke="black" points="699,-593.5 699,-612.5 777,-612.5 777,-593.5 699,-593.5"/>
<text text-anchor="middle" x="738" y="-600.5" font-family="Helvetica,sans-Serif" font-size="10.00">smt2_conv.h</text>
</a>
</g>
</g>
<!-- Node2&#45;&gt;Node3 -->
<g id="edge2" class="edge">
<title>Node2&#45;&gt;Node3</title>
<path fill="none" stroke="midnightblue" d="M738,-649.08C738,-642.01 738,-631.86 738,-622.99"/>
<polygon fill="midnightblue" stroke="midnightblue" points="741.5,-622.75 738,-612.75 734.5,-622.75 741.5,-622.75"/>
</g>
<!-- Node58 -->
<g id="node36" class="node">
<title>Node58</title>
<g id="a_node36"><a xlink:title=" ">
<polygon fill="none" stroke="#bfbfbf" points="625.5,-593.5 625.5,-612.5 680.5,-612.5 680.5,-593.5 625.5,-593.5"/>
<text text-anchor="middle" x="653" y="-600.5" font-family="Helvetica,sans-Serif" font-size="10.00">fstream</text>
</a>
</g>
</g>
<!-- Node2&#45;&gt;Node58 -->
<g id="edge67" class="edge">
<title>Node2&#45;&gt;Node58</title>
<path fill="none" stroke="midnightblue" d="M724.34,-649.32C711.08,-640.9 690.73,-627.97 675.15,-618.07"/>
<polygon fill="midnightblue" stroke="midnightblue" points="676.94,-615.06 666.62,-612.65 673.19,-620.97 676.94,-615.06"/>
</g>
<!-- Node4 -->
<g id="node4" class="node">
<title>Node4</title>
<g id="a_node4"><a xlink:href="pointer__expr_8h.html" target="_top" xlink:title=" ">
<polygon fill="none" stroke="black" points="446.5,-537.5 446.5,-556.5 551.5,-556.5 551.5,-537.5 446.5,-537.5"/>
<text text-anchor="middle" x="499" y="-544.5" font-family="Helvetica,sans-Serif" font-size="10.00">util/pointer_expr.h</text>
</a>
</g>
</g>
<!-- Node3&#45;&gt;Node4 -->
<g id="edge3" class="edge">
<title>Node3&#45;&gt;Node4</title>
<path fill="none" stroke="midnightblue" d="M700.13,-593.44C658.52,-584.04 591.63,-568.93 546.53,-558.74"/>
<polygon fill="midnightblue" stroke="midnightblue" points="547.22,-555.31 536.69,-556.52 545.68,-562.13 547.22,-555.31"/>
</g>
<!-- Node17 -->
<g id="node15" class="node">
<title>Node17</title>
<g id="a_node15"><a xlink:title=" ">
<polygon fill="none" stroke="#bfbfbf" points="196,-0.5 196,-19.5 252,-19.5 252,-0.5 196,-0.5"/>
<text text-anchor="middle" x="224" y="-7.5" font-family="Helvetica,sans-Serif" font-size="10.00">sstream</text>
</a>
</g>
</g>
<!-- Node3&#45;&gt;Node17 -->
<g id="edge39" class="edge">
<title>Node3&#45;&gt;Node17</title>
<path fill="none" stroke="midnightblue" d="M698.75,-594.39C695.79,-593.89 692.85,-593.42 690,-593 534.17,-569.93 0,-588.03 0,-430.5 0,-430.5 0,-430.5 0,-121 0,-39.33 121.46,-18.29 185.5,-12.88"/>
<polygon fill="midnightblue" stroke="midnightblue" points="185.92,-16.35 195.63,-12.11 185.39,-9.37 185.92,-16.35"/>
</g>
<!-- Node46 -->
<g id="node23" class="node">
<title>Node46</title>
<g id="a_node23"><a xlink:href="std__expr_8h.html" target="_top" xlink:title=" ">
<polygon fill="none" stroke="black" points="348.5,-481.5 348.5,-500.5 415.5,-500.5 415.5,-481.5 348.5,-481.5"/>
<text text-anchor="middle" x="382" y="-488.5" font-family="Helvetica,sans-Serif" font-size="10.00">std_expr.h</text>
</a>
</g>
</g>
<!-- Node3&#45;&gt;Node46 -->
<g id="edge34" class="edge">
<title>Node3&#45;&gt;Node46</title>
<path fill="none" stroke="midnightblue" d="M698.75,-594.4C695.79,-593.9 692.85,-593.43 690,-593 619.45,-582.42 418.53,-610.2 371,-557 359.6,-544.24 365.27,-524.22 371.95,-509.76"/>
<polygon fill="midnightblue" stroke="midnightblue" points="375.1,-511.3 376.55,-500.81 368.87,-508.11 375.1,-511.3"/>
</g>
<!-- Node47 -->
<g id="node24" class="node">
<title>Node47</title>
<g id="a_node24"><a xlink:href="threeval_8h.html" target="_top" xlink:title=" ">
<polygon fill="none" stroke="black" points="872.5,-481.5 872.5,-500.5 957.5,-500.5 957.5,-481.5 872.5,-481.5"/>
<text text-anchor="middle" x="915" y="-488.5" font-family="Helvetica,sans-Serif" font-size="10.00">util/threeval.h</text>
</a>
</g>
</g>
<!-- Node3&#45;&gt;Node47 -->
<g id="edge35" class="edge">
<title>Node3&#45;&gt;Node47</title>
<path fill="none" stroke="midnightblue" d="M765.68,-593.37C788.1,-585.69 819.94,-573.18 845,-557 866.43,-543.17 887.38,-522.49 900.69,-508.19"/>
<polygon fill="midnightblue" stroke="midnightblue" points="903.45,-510.36 907.59,-500.61 898.27,-505.65 903.45,-510.36"/>
</g>
<!-- Node48 -->
<g id="node25" class="node">
<title>Node48</title>
<g id="a_node25"><a xlink:title=" ">
<polygon fill="none" stroke="#bfbfbf" points="726,-168.5 726,-187.5 764,-187.5 764,-168.5 726,-168.5"/>
<text text-anchor="middle" x="745" y="-175.5" font-family="Helvetica,sans-Serif" font-size="10.00">map</text>
</a>
</g>
</g>
<!-- Node3&#45;&gt;Node48 -->
<g id="edge37" class="edge">
<title>Node3&#45;&gt;Node48</title>
<path fill="none" stroke="midnightblue" d="M738.1,-593.44C738.36,-555.93 737.79,-402.56 713,-280 709.66,-263.47 703.7,-260.65 701,-244 699.58,-235.23 697.64,-232.23 701,-224 705.8,-212.23 715.33,-201.86 724.29,-194.05"/>
<polygon fill="midnightblue" stroke="midnightblue" points="726.65,-196.64 732.22,-187.63 722.25,-191.2 726.65,-196.64"/>
</g>
<!-- Node49 -->
<g id="node26" class="node">
<title>Node49</title>
<g id="a_node26"><a xlink:title=" ">
<polygon fill="none" stroke="#bfbfbf" points="804,-537.5 804,-556.5 836,-556.5 836,-537.5 804,-537.5"/>
<text text-anchor="middle" x="820" y="-544.5" font-family="Helvetica,sans-Serif" font-size="10.00">set</text>
</a>
</g>
</g>
<!-- Node3&#45;&gt;Node49 -->
<g id="edge38" class="edge">
<title>Node3&#45;&gt;Node49</title>
<path fill="none" stroke="midnightblue" d="M751.17,-593.32C763.85,-584.98 783.23,-572.21 798.21,-562.35"/>
<polygon fill="midnightblue" stroke="midnightblue" points="800.43,-565.08 806.86,-556.65 796.58,-559.23 800.43,-565.08"/>
</g>
<!-- Node50 -->
<g id="node27" class="node">
<title>Node50</title>
<g id="a_node27"><a xlink:href="irep__hash__container_8h.html" target="_top" xlink:title=" ">
<polygon fill="none" stroke="black" points="710,-224.5 710,-243.5 852,-243.5 852,-224.5 710,-224.5"/>
<text text-anchor="middle" x="781" y="-231.5" font-family="Helvetica,sans-Serif" font-size="10.00">util/irep_hash_container.h</text>
</a>
</g>
</g>
<!-- Node3&#45;&gt;Node50 -->
<g id="edge40" class="edge">
<title>Node3&#45;&gt;Node50</title>
<path fill="none" stroke="midnightblue" d="M743.28,-593.23C753.73,-575.04 776,-531.6 776,-492 776,-492 776,-492 776,-361.5 776,-323.17 778.32,-278.36 779.8,-253.69"/>
<polygon fill="midnightblue" stroke="midnightblue" points="783.3,-253.78 780.43,-243.58 776.31,-253.35 783.3,-253.78"/>
</g>
<!-- Node52 -->
<g id="node29" class="node">
<title>Node52</title>
<g id="a_node29"><a xlink:href="boolbv__width_8h.html" target="_top" xlink:title=" ">
<polygon fill="none" stroke="black" points="608.5,-414.5 608.5,-444.5 709.5,-444.5 709.5,-414.5 608.5,-414.5"/>
<text text-anchor="start" x="616.5" y="-432.5" font-family="Helvetica,sans-Serif" font-size="10.00">solvers/flattening</text>
<text text-anchor="middle" x="659" y="-421.5" font-family="Helvetica,sans-Serif" font-size="10.00">/boolbv_width.h</text>
</a>
</g>
</g>
<!-- Node3&#45;&gt;Node52 -->
<g id="edge49" class="edge">
<title>Node3&#45;&gt;Node52</title>
<path fill="none" stroke="midnightblue" d="M733.97,-593.26C722.23,-567.76 687.7,-492.81 669.9,-454.15"/>
<polygon fill="midnightblue" stroke="midnightblue" points="672.91,-452.34 665.55,-444.72 666.56,-455.27 672.91,-452.34"/>
</g>
<!-- Node53 -->
<g id="node30" class="node">
<title>Node53</title>
<g id="a_node30"><a xlink:href="pointer__logic_8h.html" target="_top" xlink:title=" ">
<polygon fill="none" stroke="black" points="530.5,-347.5 530.5,-377.5 631.5,-377.5 631.5,-347.5 530.5,-347.5"/>
<text text-anchor="start" x="538.5" y="-365.5" font-family="Helvetica,sans-Serif" font-size="10.00">solvers/flattening</text>
<text text-anchor="middle" x="581" y="-354.5" font-family="Helvetica,sans-Serif" font-size="10.00">/pointer_logic.h</text>
</a>
</g>
</g>
<!-- Node3&#45;&gt;Node53 -->
<g id="edge51" class="edge">
<title>Node3&#45;&gt;Node53</title>
<path fill="none" stroke="midnightblue" d="M727.42,-593.35C701.39,-571.44 633.86,-510.83 600,-445 590.79,-427.09 585.98,-404.68 583.51,-387.89"/>
<polygon fill="midnightblue" stroke="midnightblue" points="586.96,-387.24 582.2,-377.78 580.01,-388.14 586.96,-387.24"/>
</g>
<!-- Node54 -->
<g id="node31" class="node">
<title>Node54</title>
<g id="a_node31"><a xlink:href="literal_8h.html" target="_top" xlink:title=" ">
<polygon fill="none" stroke="black" points="870.5,-224.5 870.5,-243.5 987.5,-243.5 987.5,-224.5 870.5,-224.5"/>
<text text-anchor="middle" x="929" y="-231.5" font-family="Helvetica,sans-Serif" font-size="10.00">solvers/prop/literal.h</text>
</a>
</g>
</g>
<!-- Node3&#45;&gt;Node54 -->
<g id="edge55" class="edge">
<title>Node3&#45;&gt;Node54</title>
<path fill="none" stroke="midnightblue" d="M777.1,-602.77C850.82,-601.98 1003,-588.64 1003,-492 1003,-492 1003,-492 1003,-361.5 1003,-316.63 967.89,-273.55 946.04,-251.09"/>
<polygon fill="midnightblue" stroke="midnightblue" points="948.24,-248.34 938.67,-243.78 943.3,-253.31 948.24,-248.34"/>
</g>
<!-- Node55 -->
<g id="node33" class="node">
<title>Node55</title>
<g id="a_node33"><a xlink:href="stack__decision__procedure_8h.html" target="_top" xlink:title=" ">
<polygon fill="none" stroke="black" points="1166.5,-280.5 1166.5,-310.5 1293.5,-310.5 1293.5,-280.5 1166.5,-280.5"/>
<text text-anchor="start" x="1174.5" y="-298.5" font-family="Helvetica,sans-Serif" font-size="10.00">solvers/stack_decision</text>
<text text-anchor="middle" x="1230" y="-287.5" font-family="Helvetica,sans-Serif" font-size="10.00">_procedure.h</text>
</a>
</g>
</g>
<!-- Node3&#45;&gt;Node55 -->
<g id="edge60" class="edge">
<title>Node3&#45;&gt;Node55</title>
<path fill="none" stroke="midnightblue" d="M777.16,-598.78C843.8,-592.79 976.02,-578.57 1017,-557 1052.33,-538.41 1079,-531.92 1079,-492 1079,-492 1079,-492 1079,-428.5 1079,-372.75 1138.07,-335.1 1182.31,-314.72"/>
<polygon fill="midnightblue" stroke="midnightblue" points="1183.79,-317.89 1191.51,-310.63 1180.95,-311.5 1183.79,-317.89"/>
</g>
<!-- Node57 -->
<g id="node35" class="node">
<title>Node57</title>
<g id="a_node35"><a xlink:href="letify_8h.html" target="_top" xlink:title=" ">
<polygon fill="none" stroke="black" points="379.5,-537.5 379.5,-556.5 428.5,-556.5 428.5,-537.5 379.5,-537.5"/>
<text text-anchor="middle" x="404" y="-544.5" font-family="Helvetica,sans-Serif" font-size="10.00">letify.h</text>
</a>
</g>
</g>
<!-- Node3&#45;&gt;Node57 -->
<g id="edge65" class="edge">
<title>Node3&#45;&gt;Node57</title>
<path fill="none" stroke="midnightblue" d="M698.99,-594.54C695.95,-594 692.93,-593.48 690,-593 581.54,-575.09 550.61,-579.25 438.79,-556.94"/>
<polygon fill="midnightblue" stroke="midnightblue" points="439.3,-553.48 428.8,-554.92 437.91,-560.34 439.3,-553.48"/>
</g>
<!-- Node5 -->
<g id="node5" class="node">
<title>Node5</title>
<g id="a_node5"><a xlink:href="bitvector__types_8h.html" target="_top" xlink:title=" ">
<polygon fill="none" stroke="black" points="439.5,-481.5 439.5,-500.5 540.5,-500.5 540.5,-481.5 439.5,-481.5"/>
<text text-anchor="middle" x="490" y="-488.5" font-family="Helvetica,sans-Serif" font-size="10.00">bitvector_types.h</text>
</a>
</g>
</g>
<!-- Node4&#45;&gt;Node5 -->
<g id="edge4" class="edge">
<title>Node4&#45;&gt;Node5</title>
<path fill="none" stroke="midnightblue" d="M497.51,-537.08C496.32,-529.93 494.61,-519.64 493.12,-510.69"/>
<polygon fill="midnightblue" stroke="midnightblue" points="496.55,-510.04 491.46,-500.75 489.65,-511.19 496.55,-510.04"/>
</g>
<!-- Node4&#45;&gt;Node46 -->
<g id="edge30" class="edge">
<title>Node4&#45;&gt;Node46</title>
<path fill="none" stroke="midnightblue" d="M480.46,-537.44C461.38,-528.64 431.43,-514.81 409.56,-504.72"/>
<polygon fill="midnightblue" stroke="midnightblue" points="411,-501.53 400.45,-500.52 408.07,-507.88 411,-501.53"/>
</g>
<!-- Node6 -->
<g id="node6" class="node">
<title>Node6</title>
<g id="a_node6"><a xlink:href="std__types_8h.html" target="_top" xlink:title=" ">
<polygon fill="none" stroke="black" points="416.5,-420 416.5,-439 489.5,-439 489.5,-420 416.5,-420"/>
<text text-anchor="middle" x="453" y="-427" font-family="Helvetica,sans-Serif" font-size="10.00">std_types.h</text>
</a>
</g>
</g>
<!-- Node5&#45;&gt;Node6 -->
<g id="edge5" class="edge">
<title>Node5&#45;&gt;Node6</title>
<path fill="none" stroke="midnightblue" d="M484.7,-481.48C479.26,-472.73 470.64,-458.87 463.76,-447.81"/>
<polygon fill="midnightblue" stroke="midnightblue" points="466.54,-445.65 458.29,-439.01 460.6,-449.35 466.54,-445.65"/>
</g>
<!-- Node7 -->
<g id="node7" class="node">
<title>Node7</title>
<g id="a_node7"><a xlink:href="expr_8h.html" target="_top" xlink:title=" ">
<polygon fill="none" stroke="red" points="388.5,-286 388.5,-305 435.5,-305 435.5,-286 388.5,-286"/>
<text text-anchor="middle" x="412" y="-293" font-family="Helvetica,sans-Serif" font-size="10.00">expr.h</text>
</a>
</g>
</g>
<!-- Node6&#45;&gt;Node7 -->
<g id="edge6" class="edge">
<title>Node6&#45;&gt;Node7</title>
<path fill="none" stroke="midnightblue" d="M450.31,-419.84C443.71,-398.58 426.59,-343.46 417.64,-314.65"/>
<polygon fill="midnightblue" stroke="midnightblue" points="420.96,-313.53 414.65,-305.02 414.27,-315.61 420.96,-313.53"/>
</g>
<!-- Node6&#45;&gt;Node15 -->
<g id="edge24" class="edge">
<title>Node6&#45;&gt;Node15</title>
<path fill="none" stroke="midnightblue" d="M416.22,-420.97C386.95,-413.63 346.04,-400.26 316,-378 230.87,-314.92 205.76,-288.43 172,-188 155.53,-139 217.85,-99.53 257.15,-80.11"/>
<polygon fill="midnightblue" stroke="midnightblue" points="259.07,-83.07 266.59,-75.61 256.06,-76.76 259.07,-83.07"/>
</g>
<!-- Node36 -->
<g id="node17" class="node">
<title>Node36</title>
<g id="a_node17"><a xlink:href="validate_8h.html" target="_top" xlink:title=" ">
<polygon fill="none" stroke="red" points="508.5,-168.5 508.5,-187.5 573.5,-187.5 573.5,-168.5 508.5,-168.5"/>
<text text-anchor="middle" x="541" y="-175.5" font-family="Helvetica,sans-Serif" font-size="10.00">validate.h</text>
</a>
</g>
</g>
<!-- Node6&#45;&gt;Node36 -->
<g id="edge28" class="edge">
<title>Node6&#45;&gt;Node36</title>
<path fill="none" stroke="midnightblue" d="M457.93,-419.78C463.37,-409.88 472.14,-393.15 478,-378 503.67,-311.61 498.33,-291.13 522,-224 525.21,-214.89 529.33,-204.98 532.91,-196.78"/>
<polygon fill="midnightblue" stroke="midnightblue" points="536.17,-198.06 537.04,-187.51 529.77,-195.21 536.17,-198.06"/>
</g>
<!-- Node42 -->
<g id="node19" class="node">
<title>Node42</title>
<g id="a_node19"><a xlink:href="expr__cast_8h.html" target="_top" xlink:title="Templated functions to cast to specific exprt&#45;derived classes.">
<polygon fill="none" stroke="red" points="324.5,-353 324.5,-372 397.5,-372 397.5,-353 324.5,-353"/>
<text text-anchor="middle" x="361" y="-360" font-family="Helvetica,sans-Serif" font-size="10.00">expr_cast.h</text>
</a>
</g>
</g>
<!-- Node6&#45;&gt;Node42 -->
<g id="edge20" class="edge">
<title>Node6&#45;&gt;Node42</title>
<path fill="none" stroke="midnightblue" d="M440.59,-419.73C425.42,-409.01 399.52,-390.72 381.4,-377.91"/>
<polygon fill="midnightblue" stroke="midnightblue" points="383.4,-375.04 373.21,-372.13 379.36,-380.76 383.4,-375.04"/>
</g>
<!-- Node44 -->
<g id="node20" class="node">
<title>Node44</title>
<g id="a_node20"><a xlink:href="mp__arith_8h.html" target="_top" xlink:title=" ">
<polygon fill="none" stroke="red" points="634.5,-286 634.5,-305 703.5,-305 703.5,-286 634.5,-286"/>
<text text-anchor="middle" x="669" y="-293" font-family="Helvetica,sans-Serif" font-size="10.00">mp_arith.h</text>
</a>
</g>
</g>
<!-- Node6&#45;&gt;Node44 -->
<g id="edge25" class="edge">
<title>Node6&#45;&gt;Node44</title>
<path fill="none" stroke="midnightblue" d="M489.66,-428.44C531.5,-426.39 599.5,-416.75 641,-378 658.57,-361.6 665.11,-333.68 667.55,-315.17"/>
<polygon fill="midnightblue" stroke="midnightblue" points="671.05,-315.35 668.6,-305.04 664.09,-314.63 671.05,-315.35"/>
</g>
<!-- Node26 -->
<g id="node22" class="node">
<title>Node26</title>
<g id="a_node22"><a xlink:title=" ">
<polygon fill="none" stroke="#bfbfbf" points="433.5,-112.5 433.5,-131.5 526.5,-131.5 526.5,-112.5 433.5,-112.5"/>
<text text-anchor="middle" x="480" y="-119.5" font-family="Helvetica,sans-Serif" font-size="10.00">unordered_map</text>
</a>
</g>
</g>
<!-- Node6&#45;&gt;Node26 -->
<g id="edge29" class="edge">
<title>Node6&#45;&gt;Node26</title>
<path fill="none" stroke="midnightblue" d="M453.78,-419.69C457.47,-377.96 473.21,-199.83 478.36,-141.54"/>
<polygon fill="midnightblue" stroke="midnightblue" points="481.85,-141.83 479.24,-131.56 474.88,-141.21 481.85,-141.83"/>
</g>
<!-- Node9 -->
<g id="node8" class="node">
<title>Node9</title>
<g id="a_node8"><a xlink:href="deprecate_8h.html" target="_top" xlink:title=" ">
<polygon fill="none" stroke="black" points="378,-168.5 378,-187.5 452,-187.5 452,-168.5 378,-168.5"/>
<text text-anchor="middle" x="415" y="-175.5" font-family="Helvetica,sans-Serif" font-size="10.00">deprecate.h</text>
</a>
</g>
</g>
<!-- Node7&#45;&gt;Node9 -->
<g id="edge7" class="edge">
<title>Node7&#45;&gt;Node9</title>
<path fill="none" stroke="midnightblue" d="M412.23,-285.82C412.71,-267.26 413.85,-223.34 414.51,-197.97"/>
<polygon fill="midnightblue" stroke="midnightblue" points="418.01,-197.87 414.77,-187.78 411.01,-197.69 418.01,-197.87"/>
</g>
<!-- Node10 -->
<g id="node9" class="node">
<title>Node10</title>
<g id="a_node9"><a xlink:href="type_8h.html" target="_top" xlink:title=" ">
<polygon fill="none" stroke="red" points="530.5,-224.5 530.5,-243.5 577.5,-243.5 577.5,-224.5 530.5,-224.5"/>
<text text-anchor="middle" x="554" y="-231.5" font-family="Helvetica,sans-Serif" font-size="10.00">type.h</text>
</a>
</g>
</g>
<!-- Node7&#45;&gt;Node10 -->
<g id="edge8" class="edge">
<title>Node7&#45;&gt;Node10</title>
<path fill="none" stroke="midnightblue" d="M432.35,-285.98C456.39,-275.9 496.6,-259.05 524.16,-247.5"/>
<polygon fill="midnightblue" stroke="midnightblue" points="525.82,-250.6 533.69,-243.51 523.12,-244.15 525.82,-250.6"/>
</g>
<!-- Node41 -->
<g id="node18" class="node">
<title>Node41</title>
<g id="a_node18"><a xlink:title=" ">
<polygon fill="none" stroke="#bfbfbf" points="180.5,-168.5 180.5,-187.5 245.5,-187.5 245.5,-168.5 180.5,-168.5"/>
<text text-anchor="middle" x="213" y="-175.5" font-family="Helvetica,sans-Serif" font-size="10.00">functional</text>
</a>
</g>
</g>
<!-- Node7&#45;&gt;Node41 -->
<g id="edge19" class="edge">
<title>Node7&#45;&gt;Node41</title>
<path fill="none" stroke="midnightblue" d="M388.25,-286.66C363.53,-277.99 324.15,-262.75 293,-244 269.2,-229.67 244.84,-208.82 229.36,-194.62"/>
<polygon fill="midnightblue" stroke="midnightblue" points="231.43,-191.77 221.73,-187.5 226.65,-196.88 231.43,-191.77"/>
</g>
<!-- Node11 -->
<g id="node10" class="node">
<title>Node11</title>
<g id="a_node10"><a xlink:href="source__location_8h.html" target="_top" xlink:title=" ">
<polygon fill="none" stroke="black" points="820,-168.5 820,-187.5 922,-187.5 922,-168.5 820,-168.5"/>
<text text-anchor="middle" x="871" y="-175.5" font-family="Helvetica,sans-Serif" font-size="10.00">source_location.h</text>
</a>
</g>
</g>
<!-- Node10&#45;&gt;Node11 -->
<g id="edge9" class="edge">
<title>Node10&#45;&gt;Node11</title>
<path fill="none" stroke="midnightblue" d="M577.57,-228.99C626.46,-220.66 740.24,-201.27 810.88,-189.24"/>
<polygon fill="midnightblue" stroke="midnightblue" points="811.71,-192.65 820.98,-187.52 810.53,-185.75 811.71,-192.65"/>
</g>
<!-- Node10&#45;&gt;Node36 -->
<g id="edge18" class="edge">
<title>Node10&#45;&gt;Node36</title>
<path fill="none" stroke="midnightblue" d="M551.85,-224.08C550.13,-216.93 547.65,-206.64 545.5,-197.69"/>
<polygon fill="midnightblue" stroke="midnightblue" points="548.85,-196.65 543.11,-187.75 542.04,-198.29 548.85,-196.65"/>
</g>
<!-- Node12 -->
<g id="node11" class="node">
<title>Node12</title>
<g id="a_node11"><a xlink:href="irep_8h.html" target="_top" xlink:title=" ">
<polygon fill="none" stroke="red" points="916,-112.5 916,-131.5 960,-131.5 960,-112.5 916,-112.5"/>
<text text-anchor="middle" x="938" y="-119.5" font-family="Helvetica,sans-Serif" font-size="10.00">irep.h</text>
</a>
</g>
</g>
<!-- Node11&#45;&gt;Node12 -->
<g id="edge10" class="edge">
<title>Node11&#45;&gt;Node12</title>
<path fill="none" stroke="midnightblue" d="M881.76,-168.32C891.77,-160.26 906.89,-148.08 918.93,-138.37"/>
<polygon fill="midnightblue" stroke="midnightblue" points="921.45,-140.83 927.04,-131.83 917.06,-135.38 921.45,-140.83"/>
</g>
<!-- Node13 -->
<g id="node12" class="node">
<title>Node13</title>
<g id="a_node12"><a xlink:title=" ">
<polygon fill="none" stroke="#bfbfbf" points="849,-0.5 849,-19.5 893,-19.5 893,-0.5 849,-0.5"/>
<text text-anchor="middle" x="871" y="-7.5" font-family="Helvetica,sans-Serif" font-size="10.00">string</text>
</a>
</g>
</g>
<!-- Node11&#45;&gt;Node13 -->
<g id="edge17" class="edge">
<title>Node11&#45;&gt;Node13</title>
<path fill="none" stroke="midnightblue" d="M856.92,-168.26C845.65,-160.35 830.65,-147.58 824,-132 808.23,-95.06 837.2,-50.91 856.26,-27.49"/>
<polygon fill="midnightblue" stroke="midnightblue" points="859.16,-29.48 862.96,-19.59 853.82,-24.95 859.16,-29.48"/>
</g>
<!-- Node34 -->
<g id="node16" class="node">
<title>Node34</title>
<g id="a_node16"><a xlink:href="optional_8h.html" target="_top" xlink:title=" ">
<polygon fill="none" stroke="red" points="832.5,-112.5 832.5,-131.5 897.5,-131.5 897.5,-112.5 832.5,-112.5"/>
<text text-anchor="middle" x="865" y="-119.5" font-family="Helvetica,sans-Serif" font-size="10.00">optional.h</text>
</a>
</g>
</g>
<!-- Node11&#45;&gt;Node34 -->
<g id="edge16" class="edge">
<title>Node11&#45;&gt;Node34</title>
<path fill="none" stroke="midnightblue" d="M870.01,-168.08C869.21,-160.93 868.07,-150.64 867.08,-141.69"/>
<polygon fill="midnightblue" stroke="midnightblue" points="870.56,-141.3 865.97,-131.75 863.6,-142.08 870.56,-141.3"/>
</g>
<!-- Node12&#45;&gt;Node13 -->
<g id="edge11" class="edge">
<title>Node12&#45;&gt;Node13</title>
<path fill="none" stroke="midnightblue" d="M932.74,-112.37C921.73,-94.3 896.08,-52.18 881.54,-28.31"/>
<polygon fill="midnightblue" stroke="midnightblue" points="884.42,-26.31 876.23,-19.59 878.45,-29.95 884.42,-26.31"/>
</g>
<!-- Node14 -->
<g id="node13" class="node">
<title>Node14</title>
<g id="a_node13"><a xlink:title=" ">
<polygon fill="none" stroke="#bfbfbf" points="984.5,-56.5 984.5,-75.5 1031.5,-75.5 1031.5,-56.5 984.5,-56.5"/>
<text text-anchor="middle" x="1008" y="-63.5" font-family="Helvetica,sans-Serif" font-size="10.00">vector</text>
</a>
</g>
</g>
<!-- Node12&#45;&gt;Node14 -->
<g id="edge12" class="edge">
<title>Node12&#45;&gt;Node14</title>
<path fill="none" stroke="midnightblue" d="M949.25,-112.32C959.8,-104.18 975.8,-91.84 988.44,-82.09"/>
<polygon fill="midnightblue" stroke="midnightblue" points="990.77,-84.71 996.55,-75.83 986.49,-79.17 990.77,-84.71"/>
</g>
<!-- Node12&#45;&gt;Node15 -->
<g id="edge13" class="edge">
<title>Node12&#45;&gt;Node15</title>
<path fill="none" stroke="midnightblue" d="M915.78,-113.94C912.85,-113.19 909.87,-112.51 907,-112 694.11,-73.81 434.58,-67.84 331.9,-67.04"/>
<polygon fill="midnightblue" stroke="midnightblue" points="331.62,-63.54 321.59,-66.98 331.57,-70.54 331.62,-63.54"/>
</g>
<!-- Node15&#45;&gt;Node13 -->
<g id="edge15" class="edge">
<title>Node15&#45;&gt;Node13</title>
<path fill="none" stroke="midnightblue" d="M321.73,-58.19C326.51,-57.38 331.37,-56.62 336,-56 525.63,-30.67 755.1,-17.03 838.62,-12.62"/>
<polygon fill="midnightblue" stroke="midnightblue" points="838.94,-16.11 848.75,-12.09 838.58,-9.12 838.94,-16.11"/>
</g>
<!-- Node15&#45;&gt;Node17 -->
<g id="edge14" class="edge">
<title>Node15&#45;&gt;Node17</title>
<path fill="none" stroke="midnightblue" d="M276.88,-56.32C267.47,-48.26 253.26,-36.08 241.93,-26.37"/>
<polygon fill="midnightblue" stroke="midnightblue" points="244.18,-23.68 234.31,-19.83 239.62,-29 244.18,-23.68"/>
</g>
<!-- Node42&#45;&gt;Node7 -->
<g id="edge23" class="edge">
<title>Node42&#45;&gt;Node7</title>
<path fill="none" stroke="midnightblue" d="M367.88,-352.73C375.83,-342.6 389.1,-325.69 399.01,-313.06"/>
<polygon fill="midnightblue" stroke="midnightblue" points="401.81,-315.16 405.23,-305.13 396.3,-310.83 401.81,-315.16"/>
</g>
<!-- Node42&#45;&gt;Node15 -->
<g id="edge22" class="edge">
<title>Node42&#45;&gt;Node15</title>
<path fill="none" stroke="midnightblue" d="M344.03,-352.93C304.1,-331.63 205.11,-271.9 172,-188 152.84,-139.46 217.53,-99.34 257.59,-79.81"/>
<polygon fill="midnightblue" stroke="midnightblue" points="259.14,-82.95 266.7,-75.52 256.16,-76.62 259.14,-82.95"/>
</g>
<!-- Node42&#45;&gt;Node41 -->
<g id="edge21" class="edge">
<title>Node42&#45;&gt;Node41</title>
<path fill="none" stroke="midnightblue" d="M353.26,-352.83C336.18,-333.6 294.13,-285.76 261,-244 248.25,-227.93 234.4,-209 224.87,-195.73"/>
<polygon fill="midnightblue" stroke="midnightblue" points="227.69,-193.66 219.03,-187.55 221.99,-197.73 227.69,-193.66"/>
</g>
<!-- Node44&#45;&gt;Node13 -->
<g id="edge27" class="edge">
<title>Node44&#45;&gt;Node13</title>
<path fill="none" stroke="midnightblue" d="M666.93,-285.91C664.06,-272.28 660.08,-245.08 668,-224 703.22,-130.28 803.5,-55.21 848.58,-25.17"/>
<polygon fill="midnightblue" stroke="midnightblue" points="850.62,-28.02 857.07,-19.61 846.78,-22.16 850.62,-28.02"/>
</g>
<!-- Node21 -->
<g id="node21" class="node">
<title>Node21</title>
<g id="a_node21"><a xlink:title=" ">
<polygon fill="none" stroke="#bfbfbf" points="1054,-168.5 1054,-187.5 1102,-187.5 1102,-168.5 1054,-168.5"/>
<text text-anchor="middle" x="1078" y="-175.5" font-family="Helvetica,sans-Serif" font-size="10.00">iosfwd</text>
</a>
</g>
</g>
<!-- Node44&#45;&gt;Node21 -->
<g id="edge26" class="edge">
<title>Node44&#45;&gt;Node21</title>
<path fill="none" stroke="midnightblue" d="M703.67,-294.95C765.35,-294.52 897.06,-287.97 997,-244 1023.14,-232.5 1047.94,-210.35 1063.05,-195.13"/>
<polygon fill="midnightblue" stroke="midnightblue" points="1065.61,-197.52 1070.03,-187.89 1060.57,-192.66 1065.61,-197.52"/>
</g>
<!-- Node46&#45;&gt;Node6 -->
<g id="edge33" class="edge">
<title>Node46&#45;&gt;Node6</title>
<path fill="none" stroke="midnightblue" d="M392.17,-481.48C403.35,-472.11 421.52,-456.88 435.09,-445.51"/>
<polygon fill="midnightblue" stroke="midnightblue" points="437.43,-448.11 442.85,-439.01 432.93,-442.75 437.43,-448.11"/>
</g>
<!-- Node46&#45;&gt;Node15 -->
<g id="edge32" class="edge">
<title>Node46&#45;&gt;Node15</title>
<path fill="none" stroke="midnightblue" d="M348.38,-485.01C268.89,-471.12 76,-424.25 76,-296.5 76,-296.5 76,-296.5 76,-177 76,-102.8 179.86,-78.57 241.85,-70.72"/>
<polygon fill="midnightblue" stroke="midnightblue" points="242.63,-74.15 252.16,-69.51 241.82,-67.2 242.63,-74.15"/>
</g>
<!-- Node46&#45;&gt;Node42 -->
<g id="edge31" class="edge">
<title>Node46&#45;&gt;Node42</title>
<path fill="none" stroke="midnightblue" d="M380.56,-481.31C377.18,-460.99 368.73,-410.05 364.12,-382.28"/>
<polygon fill="midnightblue" stroke="midnightblue" points="367.54,-381.55 362.45,-372.26 360.64,-382.69 367.54,-381.55"/>
</g>
<!-- Node47&#45;&gt;Node21 -->
<g id="edge36" class="edge">
<title>Node47&#45;&gt;Node21</title>
<path fill="none" stroke="midnightblue" d="M919.53,-481.36C941.6,-439.25 1038.04,-255.24 1068.64,-196.85"/>
<polygon fill="midnightblue" stroke="midnightblue" points="1071.87,-198.23 1073.41,-187.75 1065.67,-194.98 1071.87,-198.23"/>
</g>
<!-- Node50&#45;&gt;Node12 -->
<g id="edge43" class="edge">
<title>Node50&#45;&gt;Node12</title>
<path fill="none" stroke="midnightblue" d="M829.38,-224.47C868.05,-216.61 917.88,-203.79 931,-188 941.53,-175.33 942.37,-156.12 941.12,-141.87"/>
<polygon fill="midnightblue" stroke="midnightblue" points="944.56,-141.19 939.82,-131.72 937.62,-142.09 944.56,-141.19"/>
</g>
<!-- Node50&#45;&gt;Node14 -->
<g id="edge42" class="edge">
<title>Node50&#45;&gt;Node14</title>
<path fill="none" stroke="midnightblue" d="M830.38,-224.46C873.16,-216.24 930.94,-202.89 949,-188 981.51,-161.2 997.49,-112.16 1004.1,-85.47"/>
<polygon fill="midnightblue" stroke="midnightblue" points="1007.55,-86.07 1006.38,-75.54 1000.73,-84.5 1007.55,-86.07"/>
</g>
<!-- Node50&#45;&gt;Node48 -->
<g id="edge41" class="edge">
<title>Node50&#45;&gt;Node48</title>
<path fill="none" stroke="midnightblue" d="M775.06,-224.08C770.02,-216.53 762.66,-205.49 756.49,-196.23"/>
<polygon fill="midnightblue" stroke="midnightblue" points="759.29,-194.13 750.83,-187.75 753.47,-198.01 759.29,-194.13"/>
</g>
<!-- Node51 -->
<g id="node28" class="node">
<title>Node51</title>
<g id="a_node28"><a xlink:href="numbering_8h.html" target="_top" xlink:title=" ">
<polygon fill="none" stroke="black" points="592,-168.5 592,-187.5 670,-187.5 670,-168.5 592,-168.5"/>
<text text-anchor="middle" x="631" y="-175.5" font-family="Helvetica,sans-Serif" font-size="10.00">numbering.h</text>
</a>
</g>
</g>
<!-- Node50&#45;&gt;Node51 -->
<g id="edge44" class="edge">
<title>Node50&#45;&gt;Node51</title>
<path fill="none" stroke="midnightblue" d="M757.23,-224.44C732.11,-215.4 692.29,-201.06 664.1,-190.92"/>
<polygon fill="midnightblue" stroke="midnightblue" points="665.25,-187.61 654.66,-187.52 662.88,-194.2 665.25,-187.61"/>
</g>
<!-- Node51&#45;&gt;Node14 -->
<g id="edge46" class="edge">
<title>Node51&#45;&gt;Node14</title>
<path fill="none" stroke="midnightblue" d="M624.12,-168.28C614.23,-154.62 598.65,-128.07 613,-112 636.93,-85.19 883.33,-72.22 974.4,-68.31"/>
<polygon fill="midnightblue" stroke="midnightblue" points="974.62,-71.81 984.47,-67.89 974.33,-64.81 974.62,-71.81"/>
</g>
<!-- Node51&#45;&gt;Node15 -->
<g id="edge47" class="edge">
<title>Node51&#45;&gt;Node15</title>
<path fill="none" stroke="midnightblue" d="M621.55,-168.47C605.33,-154.33 570.57,-126.19 536,-112 468.13,-84.15 382.85,-73.48 331.76,-69.44"/>
<polygon fill="midnightblue" stroke="midnightblue" points="331.93,-65.94 321.7,-68.69 331.41,-72.92 331.93,-65.94"/>
</g>
<!-- Node51&#45;&gt;Node34 -->
<g id="edge48" class="edge">
<title>Node51&#45;&gt;Node34</title>
<path fill="none" stroke="midnightblue" d="M668.08,-168.44C710.04,-158.76 778.28,-143.01 822.4,-132.83"/>
<polygon fill="midnightblue" stroke="midnightblue" points="823.29,-136.22 832.25,-130.56 821.72,-129.4 823.29,-136.22"/>
</g>
<!-- Node51&#45;&gt;Node26 -->
<g id="edge45" class="edge">
<title>Node51&#45;&gt;Node26</title>
<path fill="none" stroke="midnightblue" d="M607.07,-168.44C581.78,-159.4 541.7,-145.06 513.32,-134.92"/>
<polygon fill="midnightblue" stroke="midnightblue" points="514.41,-131.59 503.81,-131.52 512.05,-138.18 514.41,-131.59"/>
</g>
<!-- Node52&#45;&gt;Node10 -->
<g id="edge50" class="edge">
<title>Node52&#45;&gt;Node10</title>
<path fill="none" stroke="midnightblue" d="M657.78,-414.34C655.92,-397.59 651.41,-369.17 641,-347 622.99,-308.63 589.86,-271.22 570.09,-250.83"/>
<polygon fill="midnightblue" stroke="midnightblue" points="572.51,-248.3 562.99,-243.64 567.53,-253.22 572.51,-248.3"/>
</g>
<!-- Node53&#45;&gt;Node7 -->
<g id="edge53" class="edge">
<title>Node53&#45;&gt;Node7</title>
<path fill="none" stroke="midnightblue" d="M544.33,-347.4C514.28,-335.84 472.21,-319.66 443.62,-308.66"/>
<polygon fill="midnightblue" stroke="midnightblue" points="444.71,-305.33 434.12,-305.01 442.2,-311.86 444.71,-305.33"/>
</g>
<!-- Node53&#45;&gt;Node44 -->
<g id="edge52" class="edge">
<title>Node53&#45;&gt;Node44</title>
<path fill="none" stroke="midnightblue" d="M600.09,-347.4C614.58,-336.7 634.43,-322.03 649.11,-311.19"/>
<polygon fill="midnightblue" stroke="midnightblue" points="651.52,-313.76 657.48,-305.01 647.36,-308.13 651.52,-313.76"/>
</g>
<!-- Node53&#45;&gt;Node51 -->
<g id="edge54" class="edge">
<title>Node53&#45;&gt;Node51</title>
<path fill="none" stroke="midnightblue" d="M584.84,-347.48C593.75,-314.96 615.84,-234.34 625.88,-197.68"/>
<polygon fill="midnightblue" stroke="midnightblue" points="629.32,-198.39 628.58,-187.82 622.57,-196.54 629.32,-198.39"/>
</g>
<!-- Node54&#45;&gt;Node14 -->
<g id="edge59" class="edge">
<title>Node54&#45;&gt;Node14</title>
<path fill="none" stroke="midnightblue" d="M954.57,-224.4C971.15,-217.38 991.54,-205.69 1002,-188 1020.84,-156.13 1016.61,-110.87 1012.12,-85.71"/>
<polygon fill="midnightblue" stroke="midnightblue" points="1015.51,-84.81 1010.13,-75.69 1008.65,-86.18 1015.51,-84.81"/>
</g>
<!-- Node54&#45;&gt;Node21 -->
<g id="edge56" class="edge">
<title>Node54&#45;&gt;Node21</title>
<path fill="none" stroke="midnightblue" d="M952.61,-224.44C977.46,-215.44 1016.77,-201.19 1044.75,-191.05"/>
<polygon fill="midnightblue" stroke="midnightblue" points="1046.29,-194.21 1054.5,-187.52 1043.91,-187.63 1046.29,-194.21"/>
</g>
<!-- Node33 -->
<g id="node32" class="node">
<title>Node33</title>
<g id="a_node32"><a xlink:href="narrow_8h.html" target="_top" xlink:title=" ">
<polygon fill="none" stroke="red" points="621.5,-112.5 621.5,-131.5 680.5,-131.5 680.5,-112.5 621.5,-112.5"/>
<text text-anchor="middle" x="651" y="-119.5" font-family="Helvetica,sans-Serif" font-size="10.00">narrow.h</text>
</a>
</g>
</g>
<!-- Node54&#45;&gt;Node33 -->
<g id="edge57" class="edge">
<title>Node54&#45;&gt;Node33</title>
<path fill="none" stroke="midnightblue" d="M903.78,-224.38C879.64,-215.89 842.37,-202.17 811,-188 793.61,-180.14 790.43,-175.76 773,-168 744.54,-155.33 711.32,-143.24 686.73,-134.79"/>
<polygon fill="midnightblue" stroke="midnightblue" points="687.69,-131.42 677.1,-131.52 685.44,-138.05 687.69,-131.42"/>
</g>
<!-- Node33&#45;&gt;Node15 -->
<g id="edge58" class="edge">
<title>Node33&#45;&gt;Node15</title>
<path fill="none" stroke="midnightblue" d="M621.21,-116.58C557.4,-107.11 407.19,-84.83 331.81,-73.65"/>
<polygon fill="midnightblue" stroke="midnightblue" points="332.09,-70.15 321.68,-72.15 331.06,-77.08 332.09,-70.15"/>
</g>
<!-- Node55&#45;&gt;Node14 -->
<g id="edge61" class="edge">
<title>Node55&#45;&gt;Node14</title>
<path fill="none" stroke="midnightblue" d="M1261.04,-280.37C1285.16,-267.29 1312.43,-246.5 1299,-224 1242.16,-128.74 1105.32,-87.84 1041.64,-73.51"/>
<polygon fill="midnightblue" stroke="midnightblue" points="1042.23,-70.05 1031.71,-71.35 1040.75,-76.89 1042.23,-70.05"/>
</g>
<!-- Node56 -->
<g id="node34" class="node">
<title>Node56</title>
<g id="a_node34"><a xlink:href="decision__procedure_8h.html" target="_top" xlink:title=" ">
<polygon fill="none" stroke="black" points="1170,-224.5 1170,-243.5 1290,-243.5 1290,-224.5 1170,-224.5"/>
<text text-anchor="middle" x="1230" y="-231.5" font-family="Helvetica,sans-Serif" font-size="10.00">decision_procedure.h</text>
</a>
</g>
</g>
<!-- Node55&#45;&gt;Node56 -->
<g id="edge62" class="edge">
<title>Node55&#45;&gt;Node56</title>
<path fill="none" stroke="midnightblue" d="M1230,-280.4C1230,-272.47 1230,-262.46 1230,-253.86"/>
<polygon fill="midnightblue" stroke="midnightblue" points="1233.5,-253.66 1230,-243.66 1226.5,-253.66 1233.5,-253.66"/>
</g>
<!-- Node56&#45;&gt;Node13 -->
<g id="edge64" class="edge">
<title>Node56&#45;&gt;Node13</title>
<path fill="none" stroke="midnightblue" d="M1223.52,-224.44C1201.39,-195.84 1125.56,-102.82 1041,-56 996.95,-31.61 939.09,-19.97 903.51,-14.77"/>
<polygon fill="midnightblue" stroke="midnightblue" points="903.6,-11.25 893.22,-13.36 902.65,-18.19 903.6,-11.25"/>
</g>
<!-- Node56&#45;&gt;Node21 -->
<g id="edge63" class="edge">
<title>Node56&#45;&gt;Node21</title>
<path fill="none" stroke="midnightblue" d="M1205.92,-224.44C1180.46,-215.4 1140.11,-201.06 1111.54,-190.92"/>
<polygon fill="midnightblue" stroke="midnightblue" points="1112.57,-187.57 1101.97,-187.52 1110.22,-194.16 1112.57,-187.57"/>
</g>
<!-- Node57&#45;&gt;Node46 -->
<g id="edge66" class="edge">
<title>Node57&#45;&gt;Node46</title>
<path fill="none" stroke="midnightblue" d="M400.37,-537.08C397.39,-529.77 393.07,-519.18 389.38,-510.1"/>
<polygon fill="midnightblue" stroke="midnightblue" points="392.58,-508.69 385.57,-500.75 386.1,-511.33 392.58,-508.69"/>
</g>
<!-- Node59&#45;&gt;Node9 -->
<g id="edge74" class="edge">
<title>Node59&#45;&gt;Node9</title>
<path fill="none" stroke="midnightblue" d="M357.09,-224.32C367.49,-216.18 383.26,-203.84 395.72,-194.09"/>
<polygon fill="midnightblue" stroke="midnightblue" points="397.99,-196.75 403.71,-187.83 393.68,-191.24 397.99,-196.75"/>
</g>
<!-- Node59&#45;&gt;Node11 -->
<g id="edge76" class="edge">
<title>Node59&#45;&gt;Node11</title>
<path fill="none" stroke="midnightblue" d="M390.76,-228.4C484.81,-218.72 703.04,-196.28 809.87,-185.29"/>
<polygon fill="midnightblue" stroke="midnightblue" points="810.26,-188.77 819.85,-184.26 809.55,-181.8 810.26,-188.77"/>
</g>
<!-- Node59&#45;&gt;Node13 -->
<g id="edge73" class="edge">
<title>Node59&#45;&gt;Node13</title>
<path fill="none" stroke="midnightblue" d="M347.74,-224.47C350.66,-211.51 357.38,-186.43 369,-168 387.78,-138.23 394.18,-129 425,-112 565.42,-34.55 761.93,-16.44 838.58,-12.25"/>
<polygon fill="midnightblue" stroke="midnightblue" points="838.77,-15.74 848.58,-11.74 838.42,-8.75 838.77,-15.74"/>
</g>
<!-- Node59&#45;&gt;Node15 -->
<g id="edge75" class="edge">
<title>Node59&#45;&gt;Node15</title>
<path fill="none" stroke="midnightblue" d="M342.83,-224.08C333.5,-197.83 306.03,-120.55 293.44,-85.12"/>
<polygon fill="midnightblue" stroke="midnightblue" points="296.69,-83.82 290.05,-75.57 290.1,-86.16 296.69,-83.82"/>
</g>
<!-- Node59&#45;&gt;Node17 -->
<g id="edge72" class="edge">
<title>Node59&#45;&gt;Node17</title>
<path fill="none" stroke="midnightblue" d="M339.09,-224.31C321.12,-201.36 272.36,-136.66 244,-76 236.97,-60.96 231.63,-42.83 228.24,-29.54"/>
<polygon fill="midnightblue" stroke="midnightblue" points="231.61,-28.59 225.86,-19.69 224.81,-30.24 231.61,-28.59"/>
</g>
<!-- Node59&#45;&gt;Node41 -->
<g id="edge70" class="edge">
<title>Node59&#45;&gt;Node41</title>
<path fill="none" stroke="midnightblue" d="M324.93,-224.44C302.94,-215.52 268.27,-201.44 243.34,-191.32"/>
<polygon fill="midnightblue" stroke="midnightblue" points="244.56,-188.04 233.98,-187.52 241.92,-194.52 244.56,-188.04"/>
</g>
<!-- Node59&#45;&gt;Node21 -->
<g id="edge71" class="edge">
<title>Node59&#45;&gt;Node21</title>
<path fill="none" stroke="midnightblue" d="M390.69,-229.7C525.22,-219.78 924.51,-190.32 1043.91,-181.52"/>
<polygon fill="midnightblue" stroke="midnightblue" points="1044.22,-185 1053.94,-180.78 1043.71,-178.02 1044.22,-185"/>
</g>
<!-- Node60&#45;&gt;Node13 -->
<g id="edge79" class="edge">
<title>Node60&#45;&gt;Node13</title>
<path fill="none" stroke="midnightblue" d="M1374.85,-224.49C1372.81,-211.55 1367.74,-186.51 1357,-168 1339.65,-138.09 1333.02,-129.16 1303,-112 1168.52,-35.14 978.72,-16.71 903.52,-12.34"/>
<polygon fill="midnightblue" stroke="midnightblue" points="903.45,-8.83 893.27,-11.79 903.07,-15.82 903.45,-8.83"/>
</g>
<!-- Node60&#45;&gt;Node14 -->
<g id="edge80" class="edge">
<title>Node60&#45;&gt;Node14</title>
<path fill="none" stroke="midnightblue" d="M1371.78,-224.5C1360.09,-201.9 1324.86,-140.19 1276,-112 1236.6,-89.27 1104.48,-75.25 1041.69,-69.71"/>
<polygon fill="midnightblue" stroke="midnightblue" points="1041.78,-66.21 1031.52,-68.84 1041.18,-73.18 1041.78,-66.21"/>
</g>
<!-- Node60&#45;&gt;Node21 -->
<g id="edge78" class="edge">
<title>Node60&#45;&gt;Node21</title>
<path fill="none" stroke="midnightblue" d="M1345.79,-227.53C1289.95,-217.41 1170.96,-195.85 1112.24,-185.2"/>
<polygon fill="midnightblue" stroke="midnightblue" points="1112.8,-181.75 1102.34,-183.41 1111.55,-188.64 1112.8,-181.75"/>
</g>
<!-- Node61&#45;&gt;Node13 -->
<g id="edge82" class="edge">
<title>Node61&#45;&gt;Node13</title>
<path fill="none" stroke="midnightblue" d="M1426,-419.87C1428.34,-398.81 1434,-343.13 1434,-296.5 1434,-296.5 1434,-296.5 1434,-121 1434,-12.11 1023.21,-8.99 903.42,-10.39"/>
<polygon fill="midnightblue" stroke="midnightblue" points="903.02,-6.89 893.07,-10.53 903.12,-13.89 903.02,-6.89"/>
</g>
<!-- Node62&#45;&gt;Node34 -->
<g id="edge85" class="edge">
<title>Node62&#45;&gt;Node34</title>
<path fill="none" stroke="midnightblue" d="M1119.19,-224.11C1122.04,-210.21 1125.12,-183.34 1111,-168 1081.59,-136.05 966.33,-140.2 907.49,-131.76"/>
<polygon fill="midnightblue" stroke="midnightblue" points="907.98,-128.29 897.54,-130.09 906.82,-135.2 907.98,-128.29"/>
</g>
<!-- Node62&#45;&gt;Node21 -->
<g id="edge84" class="edge">
<title>Node62&#45;&gt;Node21</title>
<path fill="none" stroke="midnightblue" d="M1110.56,-224.08C1105.05,-216.46 1096.97,-205.26 1090.24,-195.94"/>
<polygon fill="midnightblue" stroke="midnightblue" points="1093.01,-193.81 1084.32,-187.75 1087.34,-197.91 1093.01,-193.81"/>
</g>
</g>
</svg>
