<?xml version="1.0" encoding="UTF-8" standalone="no"?>
<!DOCTYPE svg PUBLIC "-//W3C//DTD SVG 1.1//EN"
 "http://www.w3.org/Graphics/SVG/1.1/DTD/svg11.dtd">
<!-- Generated by graphviz version 2.43.0 (0)
 -->
<!-- Title: /home/runner/work/cbmc&#45;documentation/cbmc&#45;documentation/src/solvers/smt2/smt2_dec.h Pages: 1 -->
<svg width="1502pt" height="587pt"
 viewBox="0.00 0.00 1502.12 587.00" xmlns="http://www.w3.org/2000/svg" xmlns:xlink="http://www.w3.org/1999/xlink">
<g id="graph0" class="graph" transform="scale(1 1) rotate(0) translate(4 583)">
<title>/home/runner/work/cbmc&#45;documentation/cbmc&#45;documentation/src/solvers/smt2/smt2_dec.h</title>
<!-- Node1 -->
<g id="node1" class="node">
<title>Node1</title>
<g id="a_node1"><a xlink:title=" ">
<polygon fill="#bfbfbf" stroke="black" points="1013.12,-537.5 1013.12,-578.5 1213.12,-578.5 1213.12,-537.5 1013.12,-537.5"/>
<text text-anchor="start" x="1021.12" y="-566.5" font-family="Helvetica,sans-Serif" font-size="10.00">/home/runner/work/cbmc</text>
<text text-anchor="start" x="1021.12" y="-555.5" font-family="Helvetica,sans-Serif" font-size="10.00">&#45;documentation/cbmc&#45;documentation</text>
<text text-anchor="middle" x="1113.12" y="-544.5" font-family="Helvetica,sans-Serif" font-size="10.00">/src/solvers/smt2/smt2_dec.h</text>
</a>
</g>
</g>
<!-- Node2 -->
<g id="node2" class="node">
<title>Node2</title>
<g id="a_node2"><a xlink:href="smt2__conv_8h.html" target="_top" xlink:title=" ">
<polygon fill="none" stroke="black" points="1032.12,-481.5 1032.12,-500.5 1110.12,-500.5 1110.12,-481.5 1032.12,-481.5"/>
<text text-anchor="middle" x="1071.12" y="-488.5" font-family="Helvetica,sans-Serif" font-size="10.00">smt2_conv.h</text>
</a>
</g>
</g>
<!-- Node1&#45;&gt;Node2 -->
<g id="edge1" class="edge">
<title>Node1&#45;&gt;Node2</title>
<path fill="none" stroke="midnightblue" d="M1100.52,-537.5C1094.7,-528.49 1087.85,-517.89 1082.23,-509.19"/>
<polygon fill="midnightblue" stroke="midnightblue" points="1085.08,-507.15 1076.71,-500.65 1079.2,-510.95 1085.08,-507.15"/>
</g>
<!-- Node57 -->
<g id="node41" class="node">
<title>Node57</title>
<g id="a_node41"><a xlink:title=" ">
<polygon fill="none" stroke="#bfbfbf" points="1128.62,-481.5 1128.62,-500.5 1183.62,-500.5 1183.62,-481.5 1128.62,-481.5"/>
<text text-anchor="middle" x="1156.12" y="-488.5" font-family="Helvetica,sans-Serif" font-size="10.00">fstream</text>
</a>
</g>
</g>
<!-- Node1&#45;&gt;Node57 -->
<g id="edge75" class="edge">
<title>Node1&#45;&gt;Node57</title>
<path fill="none" stroke="midnightblue" d="M1126.02,-537.5C1131.98,-528.49 1139,-517.89 1144.75,-509.19"/>
<polygon fill="midnightblue" stroke="midnightblue" points="1147.8,-510.92 1150.4,-500.65 1141.96,-507.06 1147.8,-510.92"/>
</g>
<!-- Node3 -->
<g id="node3" class="node">
<title>Node3</title>
<g id="a_node3"><a xlink:href="pointer__expr_8h.html" target="_top" xlink:title=" ">
<polygon fill="none" stroke="black" points="702.62,-420 702.62,-439 807.62,-439 807.62,-420 702.62,-420"/>
<text text-anchor="middle" x="755.12" y="-427" font-family="Helvetica,sans-Serif" font-size="10.00">util/pointer_expr.h</text>
</a>
</g>
</g>
<!-- Node2&#45;&gt;Node3 -->
<g id="edge2" class="edge">
<title>Node2&#45;&gt;Node3</title>
<path fill="none" stroke="midnightblue" d="M1032.06,-482.64C976.33,-472.15 873.77,-452.84 810.31,-440.89"/>
<polygon fill="midnightblue" stroke="midnightblue" points="810.95,-437.45 800.47,-439.04 809.65,-444.33 810.95,-437.45"/>
</g>
<!-- Node16 -->
<g id="node19" class="node">
<title>Node16</title>
<g id="a_node19"><a xlink:title=" ">
<polygon fill="none" stroke="#bfbfbf" points="1309.12,-112.5 1309.12,-131.5 1365.12,-131.5 1365.12,-112.5 1309.12,-112.5"/>
<text text-anchor="middle" x="1337.12" y="-119.5" font-family="Helvetica,sans-Serif" font-size="10.00">sstream</text>
</a>
</g>
</g>
<!-- Node2&#45;&gt;Node16 -->
<g id="edge43" class="edge">
<title>Node2&#45;&gt;Node16</title>
<path fill="none" stroke="midnightblue" d="M1110.45,-482.89C1148.74,-475.42 1208.29,-462.34 1258.12,-445 1339.53,-416.67 1434.12,-449.7 1434.12,-363.5 1434.12,-363.5 1434.12,-363.5 1434.12,-233 1434.12,-189.35 1390.62,-154.83 1361.88,-136.79"/>
<polygon fill="midnightblue" stroke="midnightblue" points="1363.51,-133.68 1353.14,-131.52 1359.9,-139.68 1363.51,-133.68"/>
</g>
<!-- Node45 -->
<g id="node25" class="node">
<title>Node45</title>
<g id="a_node25"><a xlink:href="std__expr_8h.html" target="_top" xlink:title=" ">
<polygon fill="none" stroke="black" points="721.62,-353 721.62,-372 788.62,-372 788.62,-353 721.62,-353"/>
<text text-anchor="middle" x="755.12" y="-360" font-family="Helvetica,sans-Serif" font-size="10.00">std_expr.h</text>
</a>
</g>
</g>
<!-- Node2&#45;&gt;Node45 -->
<g id="edge38" class="edge">
<title>Node2&#45;&gt;Node45</title>
<path fill="none" stroke="midnightblue" d="M1032.03,-483.56C995.05,-476.69 938.48,-464.13 892.12,-445 847.96,-426.77 801.05,-396.06 775.19,-378"/>
<polygon fill="midnightblue" stroke="midnightblue" points="777.14,-375.09 766.96,-372.18 773.1,-380.81 777.14,-375.09"/>
</g>
<!-- Node46 -->
<g id="node26" class="node">
<title>Node46</title>
<g id="a_node26"><a xlink:href="threeval_8h.html" target="_top" xlink:title=" ">
<polygon fill="none" stroke="black" points="1291.62,-353 1291.62,-372 1376.62,-372 1376.62,-353 1291.62,-353"/>
<text text-anchor="middle" x="1334.12" y="-360" font-family="Helvetica,sans-Serif" font-size="10.00">util/threeval.h</text>
</a>
</g>
</g>
<!-- Node2&#45;&gt;Node46 -->
<g id="edge39" class="edge">
<title>Node2&#45;&gt;Node46</title>
<path fill="none" stroke="midnightblue" d="M1110.4,-481.86C1141.23,-474.6 1184.72,-462.41 1220.12,-445 1257.16,-426.79 1295.16,-396.93 1316.6,-378.85"/>
<polygon fill="midnightblue" stroke="midnightblue" points="1319.15,-381.28 1324.46,-372.11 1314.59,-375.96 1319.15,-381.28"/>
</g>
<!-- Node47 -->
<g id="node27" class="node">
<title>Node47</title>
<g id="a_node27"><a xlink:title=" ">
<polygon fill="none" stroke="#bfbfbf" points="1049.12,-286 1049.12,-305 1087.12,-305 1087.12,-286 1049.12,-286"/>
<text text-anchor="middle" x="1068.12" y="-293" font-family="Helvetica,sans-Serif" font-size="10.00">map</text>
</a>
</g>
</g>
<!-- Node2&#45;&gt;Node47 -->
<g id="edge41" class="edge">
<title>Node2&#45;&gt;Node47</title>
<path fill="none" stroke="midnightblue" d="M1072.28,-481.28C1075.06,-458.92 1081.61,-397.74 1077.12,-347 1076.17,-336.29 1074.12,-324.45 1072.21,-314.92"/>
<polygon fill="midnightblue" stroke="midnightblue" points="1075.61,-314.07 1070.11,-305.02 1068.76,-315.52 1075.61,-314.07"/>
</g>
<!-- Node48 -->
<g id="node28" class="node">
<title>Node48</title>
<g id="a_node28"><a xlink:title=" ">
<polygon fill="none" stroke="#bfbfbf" points="1462.12,-420 1462.12,-439 1494.12,-439 1494.12,-420 1462.12,-420"/>
<text text-anchor="middle" x="1478.12" y="-427" font-family="Helvetica,sans-Serif" font-size="10.00">set</text>
</a>
</g>
</g>
<!-- Node2&#45;&gt;Node48 -->
<g id="edge42" class="edge">
<title>Node2&#45;&gt;Node48</title>
<path fill="none" stroke="midnightblue" d="M1110.13,-482.57C1113.5,-482.01 1116.87,-481.48 1120.12,-481 1265.23,-459.74 1307.17,-485.5 1448.12,-445 1450,-444.46 1451.9,-443.81 1453.79,-443.09"/>
<polygon fill="midnightblue" stroke="midnightblue" points="1455.2,-446.3 1462.95,-439.07 1452.39,-439.89 1455.2,-446.3"/>
</g>
<!-- Node49 -->
<g id="node29" class="node">
<title>Node49</title>
<g id="a_node29"><a xlink:href="irep__hash__container_8h.html" target="_top" xlink:title=" ">
<polygon fill="none" stroke="black" points="926.12,-353 926.12,-372 1068.12,-372 1068.12,-353 926.12,-353"/>
<text text-anchor="middle" x="997.12" y="-360" font-family="Helvetica,sans-Serif" font-size="10.00">util/irep_hash_container.h</text>
</a>
</g>
</g>
<!-- Node2&#45;&gt;Node49 -->
<g id="edge44" class="edge">
<title>Node2&#45;&gt;Node49</title>
<path fill="none" stroke="midnightblue" d="M1066.04,-481.31C1054,-460.72 1023.56,-408.69 1007.46,-381.18"/>
<polygon fill="midnightblue" stroke="midnightblue" points="1010.31,-379.12 1002.24,-372.26 1004.27,-382.65 1010.31,-379.12"/>
</g>
<!-- Node51 -->
<g id="node34" class="node">
<title>Node51</title>
<g id="a_node34"><a xlink:href="boolbv__width_8h.html" target="_top" xlink:title=" ">
<polygon fill="none" stroke="black" points="413.62,-414.5 413.62,-444.5 514.62,-444.5 514.62,-414.5 413.62,-414.5"/>
<text text-anchor="start" x="421.62" y="-432.5" font-family="Helvetica,sans-Serif" font-size="10.00">solvers/flattening</text>
<text text-anchor="middle" x="464.12" y="-421.5" font-family="Helvetica,sans-Serif" font-size="10.00">/boolbv_width.h</text>
</a>
</g>
</g>
<!-- Node2&#45;&gt;Node51 -->
<g id="edge56" class="edge">
<title>Node2&#45;&gt;Node51</title>
<path fill="none" stroke="midnightblue" d="M1031.76,-486.14C928.4,-476.01 648.7,-448.59 524.71,-436.44"/>
<polygon fill="midnightblue" stroke="midnightblue" points="524.92,-432.94 514.63,-435.45 524.24,-439.91 524.92,-432.94"/>
</g>
<!-- Node52 -->
<g id="node35" class="node">
<title>Node52</title>
<g id="a_node35"><a xlink:href="pointer__logic_8h.html" target="_top" xlink:title=" ">
<polygon fill="none" stroke="black" points="806.62,-347.5 806.62,-377.5 907.62,-377.5 907.62,-347.5 806.62,-347.5"/>
<text text-anchor="start" x="814.62" y="-365.5" font-family="Helvetica,sans-Serif" font-size="10.00">solvers/flattening</text>
<text text-anchor="middle" x="857.12" y="-354.5" font-family="Helvetica,sans-Serif" font-size="10.00">/pointer_logic.h</text>
</a>
</g>
</g>
<!-- Node2&#45;&gt;Node52 -->
<g id="edge58" class="edge">
<title>Node2&#45;&gt;Node52</title>
<path fill="none" stroke="midnightblue" d="M1059.69,-481.47C1039.8,-466.81 997.28,-436.26 959.12,-414 939.41,-402.5 916.72,-391.1 897.76,-382.05"/>
<polygon fill="midnightblue" stroke="midnightblue" points="899.04,-378.78 888.5,-377.67 896.04,-385.11 899.04,-378.78"/>
</g>
<!-- Node53 -->
<g id="node36" class="node">
<title>Node53</title>
<g id="a_node36"><a xlink:href="literal_8h.html" target="_top" xlink:title=" ">
<polygon fill="none" stroke="black" points="1250.62,-286 1250.62,-305 1367.62,-305 1367.62,-286 1250.62,-286"/>
<text text-anchor="middle" x="1309.12" y="-293" font-family="Helvetica,sans-Serif" font-size="10.00">solvers/prop/literal.h</text>
</a>
</g>
</g>
<!-- Node2&#45;&gt;Node53 -->
<g id="edge62" class="edge">
<title>Node2&#45;&gt;Node53</title>
<path fill="none" stroke="midnightblue" d="M1081.66,-481.44C1118.67,-451.35 1243.06,-350.21 1290.51,-311.63"/>
<polygon fill="midnightblue" stroke="midnightblue" points="1292.89,-314.21 1298.44,-305.18 1288.47,-308.78 1292.89,-314.21"/>
</g>
<!-- Node54 -->
<g id="node38" class="node">
<title>Node54</title>
<g id="a_node38"><a xlink:href="stack__decision__procedure_8h.html" target="_top" xlink:title=" ">
<polygon fill="none" stroke="black" points="1105.62,-280.5 1105.62,-310.5 1232.62,-310.5 1232.62,-280.5 1105.62,-280.5"/>
<text text-anchor="start" x="1113.62" y="-298.5" font-family="Helvetica,sans-Serif" font-size="10.00">solvers/stack_decision</text>
<text text-anchor="middle" x="1169.12" y="-287.5" font-family="Helvetica,sans-Serif" font-size="10.00">_procedure.h</text>
</a>
</g>
</g>
<!-- Node2&#45;&gt;Node54 -->
<g id="edge68" class="edge">
<title>Node2&#45;&gt;Node54</title>
<path fill="none" stroke="midnightblue" d="M1075.46,-481.44C1089.72,-453.28 1135.5,-362.89 1157.33,-319.79"/>
<polygon fill="midnightblue" stroke="midnightblue" points="1160.57,-321.13 1161.97,-310.63 1154.33,-317.97 1160.57,-321.13"/>
</g>
<!-- Node56 -->
<g id="node40" class="node">
<title>Node56</title>
<g id="a_node40"><a xlink:href="letify_8h.html" target="_top" xlink:title=" ">
<polygon fill="none" stroke="black" points="900.62,-420 900.62,-439 949.62,-439 949.62,-420 900.62,-420"/>
<text text-anchor="middle" x="925.12" y="-427" font-family="Helvetica,sans-Serif" font-size="10.00">letify.h</text>
</a>
</g>
</g>
<!-- Node2&#45;&gt;Node56 -->
<g id="edge73" class="edge">
<title>Node2&#45;&gt;Node56</title>
<path fill="none" stroke="midnightblue" d="M1050.2,-481.48C1025.38,-471.36 983.78,-454.4 955.43,-442.85"/>
<polygon fill="midnightblue" stroke="midnightblue" points="956.58,-439.54 946,-439.01 953.94,-446.02 956.58,-439.54"/>
</g>
<!-- Node4 -->
<g id="node4" class="node">
<title>Node4</title>
<g id="a_node4"><a xlink:href="bitvector__types_8h.html" target="_top" xlink:title=" ">
<polygon fill="none" stroke="black" points="595.62,-353 595.62,-372 696.62,-372 696.62,-353 595.62,-353"/>
<text text-anchor="middle" x="646.12" y="-360" font-family="Helvetica,sans-Serif" font-size="10.00">bitvector_types.h</text>
</a>
</g>
</g>
<!-- Node3&#45;&gt;Node4 -->
<g id="edge3" class="edge">
<title>Node3&#45;&gt;Node4</title>
<path fill="none" stroke="midnightblue" d="M740.42,-419.73C722.2,-408.87 690.92,-390.22 669.42,-377.39"/>
<polygon fill="midnightblue" stroke="midnightblue" points="670.97,-374.24 660.59,-372.13 667.39,-380.26 670.97,-374.24"/>
</g>
<!-- Node3&#45;&gt;Node45 -->
<g id="edge34" class="edge">
<title>Node3&#45;&gt;Node45</title>
<path fill="none" stroke="midnightblue" d="M755.12,-419.73C755.12,-410.18 755.12,-394.62 755.12,-382.28"/>
<polygon fill="midnightblue" stroke="midnightblue" points="758.62,-382.13 755.12,-372.13 751.62,-382.13 758.62,-382.13"/>
</g>
<!-- Node5 -->
<g id="node5" class="node">
<title>Node5</title>
<g id="a_node5"><a xlink:href="std__types_8h.html" target="_top" xlink:title=" ">
<polygon fill="none" stroke="black" points="595.62,-286 595.62,-305 668.62,-305 668.62,-286 595.62,-286"/>
<text text-anchor="middle" x="632.12" y="-293" font-family="Helvetica,sans-Serif" font-size="10.00">std_types.h</text>
</a>
</g>
</g>
<!-- Node4&#45;&gt;Node5 -->
<g id="edge4" class="edge">
<title>Node4&#45;&gt;Node5</title>
<path fill="none" stroke="midnightblue" d="M644.23,-352.73C642.16,-343.09 638.76,-327.3 636.09,-314.91"/>
<polygon fill="midnightblue" stroke="midnightblue" points="639.51,-314.17 633.98,-305.13 632.66,-315.64 639.51,-314.17"/>
</g>
<!-- Node6 -->
<g id="node6" class="node">
<title>Node6</title>
<g id="a_node6"><a xlink:href="expr_8h.html" target="_top" xlink:title=" ">
<polygon fill="none" stroke="black" points="302.62,-168.5 302.62,-187.5 349.62,-187.5 349.62,-168.5 302.62,-168.5"/>
<text text-anchor="middle" x="326.12" y="-175.5" font-family="Helvetica,sans-Serif" font-size="10.00">expr.h</text>
</a>
</g>
</g>
<!-- Node5&#45;&gt;Node6 -->
<g id="edge5" class="edge">
<title>Node5&#45;&gt;Node6</title>
<path fill="none" stroke="midnightblue" d="M595.53,-286.2C559.27,-277.49 502.45,-262.48 455.12,-244 417.01,-229.11 375.08,-206.8 349.68,-192.57"/>
<polygon fill="midnightblue" stroke="midnightblue" points="351.22,-189.43 340.79,-187.55 347.78,-195.52 351.22,-189.43"/>
</g>
<!-- Node35 -->
<g id="node10" class="node">
<title>Node35</title>
<g id="a_node10"><a xlink:href="validate_8h.html" target="_top" xlink:title=" ">
<polygon fill="none" stroke="red" points="330.62,-56.5 330.62,-75.5 395.62,-75.5 395.62,-56.5 330.62,-56.5"/>
<text text-anchor="middle" x="363.12" y="-63.5" font-family="Helvetica,sans-Serif" font-size="10.00">validate.h</text>
</a>
</g>
</g>
<!-- Node5&#45;&gt;Node35 -->
<g id="edge32" class="edge">
<title>Node5&#45;&gt;Node35</title>
<path fill="none" stroke="midnightblue" d="M620.71,-285.83C609.64,-276.71 593.33,-261.32 585.12,-244 559.77,-190.49 607.25,-155.54 567.12,-112 545.75,-88.81 459.27,-76.36 406.01,-70.76"/>
<polygon fill="midnightblue" stroke="midnightblue" points="406.13,-67.25 395.83,-69.73 405.43,-74.22 406.13,-67.25"/>
</g>
<!-- Node41 -->
<g id="node16" class="node">
<title>Node41</title>
<g id="a_node16"><a xlink:href="expr__cast_8h.html" target="_top" xlink:title="Templated functions to cast to specific exprt&#45;derived classes.">
<polygon fill="none" stroke="black" points="463.62,-224.5 463.62,-243.5 536.62,-243.5 536.62,-224.5 463.62,-224.5"/>
<text text-anchor="middle" x="500.12" y="-231.5" font-family="Helvetica,sans-Serif" font-size="10.00">expr_cast.h</text>
</a>
</g>
</g>
<!-- Node5&#45;&gt;Node41 -->
<g id="edge18" class="edge">
<title>Node5&#45;&gt;Node41</title>
<path fill="none" stroke="midnightblue" d="M613.21,-285.98C590.96,-275.95 553.81,-259.2 528.2,-247.65"/>
<polygon fill="midnightblue" stroke="midnightblue" points="529.55,-244.43 519,-243.51 526.68,-250.81 529.55,-244.43"/>
</g>
<!-- Node14 -->
<g id="node18" class="node">
<title>Node14</title>
<g id="a_node18"><a xlink:href="src_2util_2invariant_8h.html" target="_top" xlink:title=" ">
<polygon fill="none" stroke="red" points="844.62,-168.5 844.62,-187.5 913.62,-187.5 913.62,-168.5 844.62,-168.5"/>
<text text-anchor="middle" x="879.12" y="-175.5" font-family="Helvetica,sans-Serif" font-size="10.00">invariant.h</text>
</a>
</g>
</g>
<!-- Node5&#45;&gt;Node14 -->
<g id="edge27" class="edge">
<title>Node5&#45;&gt;Node14</title>
<path fill="none" stroke="midnightblue" d="M639.45,-285.7C652.36,-270.75 680.71,-240.42 711.12,-224 732.34,-212.54 792.46,-197.87 834.69,-188.45"/>
<polygon fill="midnightblue" stroke="midnightblue" points="835.47,-191.86 844.48,-186.29 833.96,-185.03 835.47,-191.86"/>
</g>
<!-- Node43 -->
<g id="node21" class="node">
<title>Node43</title>
<g id="a_node21"><a xlink:href="mp__arith_8h.html" target="_top" xlink:title=" ">
<polygon fill="none" stroke="black" points="593.62,-224.5 593.62,-243.5 662.62,-243.5 662.62,-224.5 593.62,-224.5"/>
<text text-anchor="middle" x="628.12" y="-231.5" font-family="Helvetica,sans-Serif" font-size="10.00">mp_arith.h</text>
</a>
</g>
</g>
<!-- Node5&#45;&gt;Node43 -->
<g id="edge28" class="edge">
<title>Node5&#45;&gt;Node43</title>
<path fill="none" stroke="midnightblue" d="M631.55,-285.98C630.98,-277.58 630.1,-264.48 629.38,-253.66"/>
<polygon fill="midnightblue" stroke="midnightblue" points="632.86,-253.25 628.69,-243.51 625.87,-253.72 632.86,-253.25"/>
</g>
<!-- Node25 -->
<g id="node24" class="node">
<title>Node25</title>
<g id="a_node24"><a xlink:title=" ">
<polygon fill="none" stroke="#bfbfbf" points="719.62,-224.5 719.62,-243.5 812.62,-243.5 812.62,-224.5 719.62,-224.5"/>
<text text-anchor="middle" x="766.12" y="-231.5" font-family="Helvetica,sans-Serif" font-size="10.00">unordered_map</text>
</a>
</g>
</g>
<!-- Node5&#45;&gt;Node25 -->
<g id="edge33" class="edge">
<title>Node5&#45;&gt;Node25</title>
<path fill="none" stroke="midnightblue" d="M651.32,-285.98C673.91,-275.95 711.62,-259.2 737.62,-247.65"/>
<polygon fill="midnightblue" stroke="midnightblue" points="739.24,-250.77 746.96,-243.51 736.4,-244.37 739.24,-250.77"/>
</g>
<!-- Node7 -->
<g id="node7" class="node">
<title>Node7</title>
<g id="a_node7"><a xlink:href="as__const_8h.html" target="_top" xlink:title=" ">
<polygon fill="none" stroke="black" points="259.12,-112.5 259.12,-131.5 327.12,-131.5 327.12,-112.5 259.12,-112.5"/>
<text text-anchor="middle" x="293.12" y="-119.5" font-family="Helvetica,sans-Serif" font-size="10.00">as_const.h</text>
</a>
</g>
</g>
<!-- Node6&#45;&gt;Node7 -->
<g id="edge6" class="edge">
<title>Node6&#45;&gt;Node7</title>
<path fill="none" stroke="midnightblue" d="M320.67,-168.08C316.11,-160.61 309.45,-149.72 303.83,-140.52"/>
<polygon fill="midnightblue" stroke="midnightblue" points="306.67,-138.46 298.47,-131.75 300.7,-142.11 306.67,-138.46"/>
</g>
<!-- Node8 -->
<g id="node8" class="node">
<title>Node8</title>
<g id="a_node8"><a xlink:href="deprecate_8h.html" target="_top" xlink:title=" ">
<polygon fill="none" stroke="black" points="167.12,-112.5 167.12,-131.5 241.12,-131.5 241.12,-112.5 167.12,-112.5"/>
<text text-anchor="middle" x="204.12" y="-119.5" font-family="Helvetica,sans-Serif" font-size="10.00">deprecate.h</text>
</a>
</g>
</g>
<!-- Node6&#45;&gt;Node8 -->
<g id="edge7" class="edge">
<title>Node6&#45;&gt;Node8</title>
<path fill="none" stroke="midnightblue" d="M306.79,-168.44C286.8,-159.6 255.38,-145.69 232.56,-135.59"/>
<polygon fill="midnightblue" stroke="midnightblue" points="233.92,-132.36 223.36,-131.52 231.09,-138.76 233.92,-132.36"/>
</g>
<!-- Node9 -->
<g id="node9" class="node">
<title>Node9</title>
<g id="a_node9"><a xlink:href="type_8h.html" target="_top" xlink:title=" ">
<polygon fill="none" stroke="red" points="25.62,-112.5 25.62,-131.5 72.62,-131.5 72.62,-112.5 25.62,-112.5"/>
<text text-anchor="middle" x="49.12" y="-119.5" font-family="Helvetica,sans-Serif" font-size="10.00">type.h</text>
</a>
</g>
</g>
<!-- Node6&#45;&gt;Node9 -->
<g id="edge8" class="edge">
<title>Node6&#45;&gt;Node9</title>
<path fill="none" stroke="midnightblue" d="M302.3,-172.89C259.23,-165.38 165.59,-148.67 87.12,-132 85.67,-131.69 84.19,-131.37 82.7,-131.04"/>
<polygon fill="midnightblue" stroke="midnightblue" points="83.33,-127.59 72.8,-128.79 81.77,-134.42 83.33,-127.59"/>
</g>
<!-- Node37 -->
<g id="node12" class="node">
<title>Node37</title>
<g id="a_node12"><a xlink:href="validation__mode_8h.html" target="_top" xlink:title=" ">
<polygon fill="none" stroke="black" points="85.62,-0.5 85.62,-19.5 192.62,-19.5 192.62,-0.5 85.62,-0.5"/>
<text text-anchor="middle" x="139.12" y="-7.5" font-family="Helvetica,sans-Serif" font-size="10.00">validation_mode.h</text>
</a>
</g>
</g>
<!-- Node6&#45;&gt;Node37 -->
<g id="edge16" class="edge">
<title>Node6&#45;&gt;Node37</title>
<path fill="none" stroke="midnightblue" d="M302.53,-173.87C260.99,-167.86 177.35,-153.39 158.12,-132 132.73,-103.77 133.52,-56.04 136.32,-29.76"/>
<polygon fill="midnightblue" stroke="midnightblue" points="139.82,-30 137.61,-19.63 132.87,-29.11 139.82,-30"/>
</g>
<!-- Node38 -->
<g id="node13" class="node">
<title>Node38</title>
<g id="a_node13"><a xlink:href="validate__types_8h.html" target="_top" xlink:title=" ">
<polygon fill="none" stroke="black" points="13.12,-56.5 13.12,-75.5 111.12,-75.5 111.12,-56.5 13.12,-56.5"/>
<text text-anchor="middle" x="62.12" y="-63.5" font-family="Helvetica,sans-Serif" font-size="10.00">validate_types.h</text>
</a>
</g>
</g>
<!-- Node6&#45;&gt;Node38 -->
<g id="edge15" class="edge">
<title>Node6&#45;&gt;Node38</title>
<path fill="none" stroke="midnightblue" d="M302.59,-176.06C263.39,-173.58 183.31,-164.59 125.12,-132 104,-120.17 85.49,-99.04 74.09,-84.09"/>
<polygon fill="midnightblue" stroke="midnightblue" points="76.69,-81.71 67.96,-75.72 71.04,-85.85 76.69,-81.71"/>
</g>
<!-- Node39 -->
<g id="node14" class="node">
<title>Node39</title>
<g id="a_node14"><a xlink:href="validate__expressions_8h.html" target="_top" xlink:title=" ">
<polygon fill="none" stroke="black" points="345.62,-112.5 345.62,-131.5 474.62,-131.5 474.62,-112.5 345.62,-112.5"/>
<text text-anchor="middle" x="410.12" y="-119.5" font-family="Helvetica,sans-Serif" font-size="10.00">validate_expressions.h</text>
</a>
</g>
</g>
<!-- Node6&#45;&gt;Node39 -->
<g id="edge14" class="edge">
<title>Node6&#45;&gt;Node39</title>
<path fill="none" stroke="midnightblue" d="M339.62,-168.32C352.72,-159.9 372.83,-146.97 388.23,-137.07"/>
<polygon fill="midnightblue" stroke="midnightblue" points="390.14,-140.01 396.66,-131.65 386.35,-134.12 390.14,-140.01"/>
</g>
<!-- Node40 -->
<g id="node15" class="node">
<title>Node40</title>
<g id="a_node15"><a xlink:title=" ">
<polygon fill="none" stroke="#bfbfbf" points="492.62,-112.5 492.62,-131.5 557.62,-131.5 557.62,-112.5 492.62,-112.5"/>
<text text-anchor="middle" x="525.12" y="-119.5" font-family="Helvetica,sans-Serif" font-size="10.00">functional</text>
</a>
</g>
</g>
<!-- Node6&#45;&gt;Node40 -->
<g id="edge17" class="edge">
<title>Node6&#45;&gt;Node40</title>
<path fill="none" stroke="midnightblue" d="M349.73,-170.59C382.76,-161.63 443.26,-145.21 483.83,-134.2"/>
<polygon fill="midnightblue" stroke="midnightblue" points="484.96,-137.53 493.69,-131.53 483.13,-130.77 484.96,-137.53"/>
</g>
<!-- Node9&#45;&gt;Node35 -->
<g id="edge9" class="edge">
<title>Node9&#45;&gt;Node35</title>
<path fill="none" stroke="midnightblue" d="M72.72,-116.94C125.39,-107.88 253.13,-85.92 320.27,-74.37"/>
<polygon fill="midnightblue" stroke="midnightblue" points="321.24,-77.75 330.5,-72.61 320.05,-70.86 321.24,-77.75"/>
</g>
<!-- Node9&#45;&gt;Node37 -->
<g id="edge13" class="edge">
<title>Node9&#45;&gt;Node37</title>
<path fill="none" stroke="midnightblue" d="M35.46,-112.31C17.48,-99.77 -10.24,-75.93 4.12,-56 20.52,-33.25 48.91,-21.83 75.44,-16.16"/>
<polygon fill="midnightblue" stroke="midnightblue" points="76.32,-19.56 85.49,-14.26 75.01,-12.68 76.32,-19.56"/>
</g>
<!-- Node9&#45;&gt;Node38 -->
<g id="edge12" class="edge">
<title>Node9&#45;&gt;Node38</title>
<path fill="none" stroke="midnightblue" d="M51.27,-112.08C52.99,-104.93 55.47,-94.64 57.62,-85.69"/>
<polygon fill="midnightblue" stroke="midnightblue" points="61.08,-86.29 60.02,-75.75 54.27,-84.65 61.08,-86.29"/>
</g>
<!-- Node17 -->
<g id="node11" class="node">
<title>Node17</title>
<g id="a_node11"><a xlink:title=" ">
<polygon fill="none" stroke="#bfbfbf" points="697.62,-0.5 697.62,-19.5 766.62,-19.5 766.62,-0.5 697.62,-0.5"/>
<text text-anchor="middle" x="732.12" y="-7.5" font-family="Helvetica,sans-Serif" font-size="10.00">type_traits</text>
</a>
</g>
</g>
<!-- Node35&#45;&gt;Node17 -->
<g id="edge10" class="edge">
<title>Node35&#45;&gt;Node17</title>
<path fill="none" stroke="midnightblue" d="M395.87,-60.21C462.16,-50.51 612.3,-28.53 687.48,-17.53"/>
<polygon fill="midnightblue" stroke="midnightblue" points="688.19,-20.97 697.58,-16.06 687.18,-14.04 688.19,-20.97"/>
</g>
<!-- Node35&#45;&gt;Node37 -->
<g id="edge11" class="edge">
<title>Node35&#45;&gt;Node37</title>
<path fill="none" stroke="midnightblue" d="M330.55,-57.15C292.05,-47.87 227.75,-32.37 184.42,-21.92"/>
<polygon fill="midnightblue" stroke="midnightblue" points="185.24,-18.52 174.69,-19.58 183.6,-25.32 185.24,-18.52"/>
</g>
<!-- Node41&#45;&gt;Node6 -->
<g id="edge26" class="edge">
<title>Node41&#45;&gt;Node6</title>
<path fill="none" stroke="midnightblue" d="M472.55,-224.44C441.81,-214.9 392.1,-199.48 359.27,-189.29"/>
<polygon fill="midnightblue" stroke="midnightblue" points="360.25,-185.93 349.66,-186.3 358.17,-192.61 360.25,-185.93"/>
</g>
<!-- Node41&#45;&gt;Node17 -->
<g id="edge20" class="edge">
<title>Node41&#45;&gt;Node17</title>
<path fill="none" stroke="midnightblue" d="M514.92,-224.42C528.97,-215.96 550.38,-202.27 567.12,-188 629.07,-135.19 691.78,-60.91 718.6,-27.92"/>
<polygon fill="midnightblue" stroke="midnightblue" points="721.62,-29.75 725.18,-19.77 716.18,-25.35 721.62,-29.75"/>
</g>
<!-- Node41&#45;&gt;Node40 -->
<g id="edge21" class="edge">
<title>Node41&#45;&gt;Node40</title>
<path fill="none" stroke="midnightblue" d="M496.74,-224.36C492.3,-211.68 485.75,-187.45 492.12,-168 495.61,-157.34 502.7,-147.12 509.41,-139.12"/>
<polygon fill="midnightblue" stroke="midnightblue" points="512.03,-141.44 516.1,-131.66 506.82,-136.76 512.03,-141.44"/>
</g>
<!-- Node42 -->
<g id="node17" class="node">
<title>Node42</title>
<g id="a_node17"><a xlink:title=" ">
<polygon fill="none" stroke="#bfbfbf" points="500.62,-168.5 500.62,-187.5 557.62,-187.5 557.62,-168.5 500.62,-168.5"/>
<text text-anchor="middle" x="529.12" y="-175.5" font-family="Helvetica,sans-Serif" font-size="10.00">typeinfo</text>
</a>
</g>
</g>
<!-- Node41&#45;&gt;Node42 -->
<g id="edge19" class="edge">
<title>Node41&#45;&gt;Node42</title>
<path fill="none" stroke="midnightblue" d="M504.91,-224.08C508.88,-216.69 514.65,-205.95 519.56,-196.81"/>
<polygon fill="midnightblue" stroke="midnightblue" points="522.77,-198.22 524.42,-187.75 516.61,-194.91 522.77,-198.22"/>
</g>
<!-- Node41&#45;&gt;Node14 -->
<g id="edge22" class="edge">
<title>Node41&#45;&gt;Node14</title>
<path fill="none" stroke="midnightblue" d="M536.81,-227.77C606.71,-217.81 758.77,-196.15 834.46,-185.36"/>
<polygon fill="midnightblue" stroke="midnightblue" points="835.21,-188.79 844.62,-183.92 834.23,-181.86 835.21,-188.79"/>
</g>
<!-- Node14&#45;&gt;Node17 -->
<g id="edge25" class="edge">
<title>Node14&#45;&gt;Node17</title>
<path fill="none" stroke="midnightblue" d="M871.22,-168.08C847.58,-141.38 777.17,-61.87 746.58,-27.32"/>
<polygon fill="midnightblue" stroke="midnightblue" points="748.96,-24.73 739.71,-19.57 743.72,-29.38 748.96,-24.73"/>
</g>
<!-- Node14&#45;&gt;Node16 -->
<g id="edge23" class="edge">
<title>Node14&#45;&gt;Node16</title>
<path fill="none" stroke="midnightblue" d="M913.92,-172.9C997.97,-162.99 1211.54,-137.81 1298.95,-127.5"/>
<polygon fill="midnightblue" stroke="midnightblue" points="1299.44,-130.97 1308.96,-126.32 1298.62,-124.02 1299.44,-130.97"/>
</g>
<!-- Node12 -->
<g id="node20" class="node">
<title>Node12</title>
<g id="a_node20"><a xlink:title=" ">
<polygon fill="none" stroke="#bfbfbf" points="937.12,-112.5 937.12,-131.5 981.12,-131.5 981.12,-112.5 937.12,-112.5"/>
<text text-anchor="middle" x="959.12" y="-119.5" font-family="Helvetica,sans-Serif" font-size="10.00">string</text>
</a>
</g>
</g>
<!-- Node14&#45;&gt;Node12 -->
<g id="edge24" class="edge">
<title>Node14&#45;&gt;Node12</title>
<path fill="none" stroke="midnightblue" d="M891.98,-168.32C904.34,-159.98 923.25,-147.21 937.86,-137.35"/>
<polygon fill="midnightblue" stroke="midnightblue" points="939.97,-140.15 946.3,-131.65 936.05,-134.35 939.97,-140.15"/>
</g>
<!-- Node43&#45;&gt;Node12 -->
<g id="edge30" class="edge">
<title>Node43&#45;&gt;Node12</title>
<path fill="none" stroke="midnightblue" d="M653.82,-224.46C713.51,-204.62 861.43,-155.47 926.97,-133.68"/>
<polygon fill="midnightblue" stroke="midnightblue" points="928.37,-136.91 936.76,-130.43 926.17,-130.26 928.37,-136.91"/>
</g>
<!-- Node20 -->
<g id="node22" class="node">
<title>Node20</title>
<g id="a_node22"><a xlink:title=" ">
<polygon fill="none" stroke="#bfbfbf" points="1290.12,-168.5 1290.12,-187.5 1338.12,-187.5 1338.12,-168.5 1290.12,-168.5"/>
<text text-anchor="middle" x="1314.12" y="-175.5" font-family="Helvetica,sans-Serif" font-size="10.00">iosfwd</text>
</a>
</g>
</g>
<!-- Node43&#45;&gt;Node20 -->
<g id="edge29" class="edge">
<title>Node43&#45;&gt;Node20</title>
<path fill="none" stroke="midnightblue" d="M662.83,-228.97C677.69,-227.32 695.24,-225.45 711.12,-224 927.33,-204.22 1187.74,-187.03 1279.84,-181.15"/>
<polygon fill="midnightblue" stroke="midnightblue" points="1280.21,-184.64 1289.97,-180.51 1279.77,-177.65 1280.21,-184.64"/>
</g>
<!-- Node44 -->
<g id="node23" class="node">
<title>Node44</title>
<g id="a_node23"><a xlink:title=" ">
<polygon fill="none" stroke="#bfbfbf" points="652.12,-168.5 652.12,-187.5 746.12,-187.5 746.12,-168.5 652.12,-168.5"/>
<text text-anchor="middle" x="699.12" y="-175.5" font-family="Helvetica,sans-Serif" font-size="10.00">big&#45;int/bigint.hh</text>
</a>
</g>
</g>
<!-- Node43&#45;&gt;Node44 -->
<g id="edge31" class="edge">
<title>Node43&#45;&gt;Node44</title>
<path fill="none" stroke="midnightblue" d="M639.53,-224.32C650.23,-216.18 666.46,-203.84 679.28,-194.09"/>
<polygon fill="midnightblue" stroke="midnightblue" points="681.67,-196.67 687.51,-187.83 677.43,-191.1 681.67,-196.67"/>
</g>
<!-- Node45&#45;&gt;Node5 -->
<g id="edge37" class="edge">
<title>Node45&#45;&gt;Node5</title>
<path fill="none" stroke="midnightblue" d="M738.79,-352.87C718.02,-341.89 681.94,-322.82 657.55,-309.94"/>
<polygon fill="midnightblue" stroke="midnightblue" points="659,-306.75 648.52,-305.17 655.73,-312.93 659,-306.75"/>
</g>
<!-- Node45&#45;&gt;Node41 -->
<g id="edge35" class="edge">
<title>Node45&#45;&gt;Node41</title>
<path fill="none" stroke="midnightblue" d="M726.57,-353C679.04,-338.84 588.69,-311.87 587.12,-311 558.31,-295.07 530.68,-268.33 514.56,-251.18"/>
<polygon fill="midnightblue" stroke="midnightblue" points="516.96,-248.62 507.62,-243.63 511.81,-253.36 516.96,-248.62"/>
</g>
<!-- Node45&#45;&gt;Node14 -->
<g id="edge36" class="edge">
<title>Node45&#45;&gt;Node14</title>
<path fill="none" stroke="midnightblue" d="M761.1,-352.7C780.46,-324.21 841.63,-234.18 867.45,-196.18"/>
<polygon fill="midnightblue" stroke="midnightblue" points="870.48,-197.95 873.2,-187.71 864.69,-194.02 870.48,-197.95"/>
</g>
<!-- Node46&#45;&gt;Node20 -->
<g id="edge40" class="edge">
<title>Node46&#45;&gt;Node20</title>
<path fill="none" stroke="midnightblue" d="M1345.04,-352.82C1355.55,-343.69 1370.76,-328.29 1377.12,-311 1381.88,-298.07 1379.89,-293.5 1377.12,-280 1371.68,-253.47 1367.49,-246.95 1353.12,-224 1346.62,-213.62 1337.78,-203.2 1330.16,-195.01"/>
<polygon fill="midnightblue" stroke="midnightblue" points="1332.53,-192.43 1323.08,-187.65 1327.49,-197.28 1332.53,-192.43"/>
</g>
<!-- Node49&#45;&gt;Node47 -->
<g id="edge45" class="edge">
<title>Node49&#45;&gt;Node47</title>
<path fill="none" stroke="midnightblue" d="M1006.7,-352.73C1018.09,-342.31 1037.31,-324.71 1051.22,-311.97"/>
<polygon fill="midnightblue" stroke="midnightblue" points="1053.69,-314.46 1058.7,-305.13 1048.96,-309.3 1053.69,-314.46"/>
</g>
<!-- Node13 -->
<g id="node30" class="node">
<title>Node13</title>
<g id="a_node30"><a xlink:title=" ">
<polygon fill="none" stroke="#bfbfbf" points="1067.62,-224.5 1067.62,-243.5 1114.62,-243.5 1114.62,-224.5 1067.62,-224.5"/>
<text text-anchor="middle" x="1091.12" y="-231.5" font-family="Helvetica,sans-Serif" font-size="10.00">vector</text>
</a>
</g>
</g>
<!-- Node49&#45;&gt;Node13 -->
<g id="edge46" class="edge">
<title>Node49&#45;&gt;Node13</title>
<path fill="none" stroke="midnightblue" d="M1000.47,-352.81C1006.74,-337.21 1021.33,-303.89 1040.12,-280 1049.02,-268.69 1061.01,-257.95 1071.12,-249.8"/>
<polygon fill="midnightblue" stroke="midnightblue" points="1073.33,-252.51 1079.07,-243.61 1069.03,-246.99 1073.33,-252.51"/>
</g>
<!-- Node11 -->
<g id="node31" class="node">
<title>Node11</title>
<g id="a_node31"><a xlink:href="irep_8h.html" target="_top" xlink:title=" ">
<polygon fill="none" stroke="red" points="949.12,-286 949.12,-305 993.12,-305 993.12,-286 949.12,-286"/>
<text text-anchor="middle" x="971.12" y="-293" font-family="Helvetica,sans-Serif" font-size="10.00">irep.h</text>
</a>
</g>
</g>
<!-- Node49&#45;&gt;Node11 -->
<g id="edge47" class="edge">
<title>Node49&#45;&gt;Node11</title>
<path fill="none" stroke="midnightblue" d="M993.62,-352.73C989.72,-342.99 983.31,-326.98 978.33,-314.53"/>
<polygon fill="midnightblue" stroke="midnightblue" points="981.54,-313.11 974.57,-305.13 975.04,-315.71 981.54,-313.11"/>
</g>
<!-- Node50 -->
<g id="node32" class="node">
<title>Node50</title>
<g id="a_node32"><a xlink:href="numbering_8h.html" target="_top" xlink:title=" ">
<polygon fill="none" stroke="black" points="853.12,-286 853.12,-305 931.12,-305 931.12,-286 853.12,-286"/>
<text text-anchor="middle" x="892.12" y="-293" font-family="Helvetica,sans-Serif" font-size="10.00">numbering.h</text>
</a>
</g>
</g>
<!-- Node49&#45;&gt;Node50 -->
<g id="edge51" class="edge">
<title>Node49&#45;&gt;Node50</title>
<path fill="none" stroke="midnightblue" d="M982.96,-352.73C965.41,-341.87 935.28,-323.22 914.56,-310.39"/>
<polygon fill="midnightblue" stroke="midnightblue" points="916.4,-307.41 906.06,-305.13 912.72,-313.37 916.4,-307.41"/>
</g>
<!-- Node11&#45;&gt;Node14 -->
<g id="edge50" class="edge">
<title>Node11&#45;&gt;Node14</title>
<path fill="none" stroke="midnightblue" d="M975.97,-285.89C983.21,-271.76 994.74,-243.28 982.12,-224 969.06,-204.03 944.97,-192.88 923.38,-186.66"/>
<polygon fill="midnightblue" stroke="midnightblue" points="924.24,-183.27 913.68,-184.15 922.48,-190.05 924.24,-183.27"/>
</g>
<!-- Node11&#45;&gt;Node12 -->
<g id="edge48" class="edge">
<title>Node11&#45;&gt;Node12</title>
<path fill="none" stroke="midnightblue" d="M977.54,-285.75C984.19,-276.09 994.16,-259.82 998.12,-244 1000.28,-235.38 999.75,-232.74 998.12,-224 992.43,-193.47 977.85,-160.28 968.21,-140.58"/>
<polygon fill="midnightblue" stroke="midnightblue" points="971.32,-138.96 963.7,-131.59 965.06,-142.1 971.32,-138.96"/>
</g>
<!-- Node11&#45;&gt;Node13 -->
<g id="edge49" class="edge">
<title>Node11&#45;&gt;Node13</title>
<path fill="none" stroke="midnightblue" d="M988.32,-285.98C1008.36,-276.03 1041.72,-259.49 1064.98,-247.96"/>
<polygon fill="midnightblue" stroke="midnightblue" points="1066.56,-251.09 1073.96,-243.51 1063.45,-244.82 1066.56,-251.09"/>
</g>
<!-- Node50&#45;&gt;Node14 -->
<g id="edge54" class="edge">
<title>Node50&#45;&gt;Node14</title>
<path fill="none" stroke="midnightblue" d="M891.14,-285.82C889.06,-267.26 884.11,-223.34 881.26,-197.97"/>
<polygon fill="midnightblue" stroke="midnightblue" points="884.71,-197.33 880.11,-187.78 877.75,-198.11 884.71,-197.33"/>
</g>
<!-- Node50&#45;&gt;Node25 -->
<g id="edge52" class="edge">
<title>Node50&#45;&gt;Node25</title>
<path fill="none" stroke="midnightblue" d="M874.07,-285.98C852.92,-275.99 817.68,-259.35 793.24,-247.81"/>
<polygon fill="midnightblue" stroke="midnightblue" points="794.68,-244.61 784.14,-243.51 791.69,-250.94 794.68,-244.61"/>
</g>
<!-- Node50&#45;&gt;Node13 -->
<g id="edge53" class="edge">
<title>Node50&#45;&gt;Node13</title>
<path fill="none" stroke="midnightblue" d="M920.29,-285.97C926.8,-284.01 933.7,-281.93 940.12,-280 980.61,-267.85 1027.24,-253.97 1057.84,-244.88"/>
<polygon fill="midnightblue" stroke="midnightblue" points="1058.99,-248.19 1067.57,-241.99 1056.99,-241.48 1058.99,-248.19"/>
</g>
<!-- Node33 -->
<g id="node33" class="node">
<title>Node33</title>
<g id="a_node33"><a xlink:href="optional_8h.html" target="_top" xlink:title=" ">
<polygon fill="none" stroke="red" points="907.62,-224.5 907.62,-243.5 972.62,-243.5 972.62,-224.5 907.62,-224.5"/>
<text text-anchor="middle" x="940.12" y="-231.5" font-family="Helvetica,sans-Serif" font-size="10.00">optional.h</text>
</a>
</g>
</g>
<!-- Node50&#45;&gt;Node33 -->
<g id="edge55" class="edge">
<title>Node50&#45;&gt;Node33</title>
<path fill="none" stroke="midnightblue" d="M899,-285.98C906.27,-276.96 917.92,-262.52 926.96,-251.31"/>
<polygon fill="midnightblue" stroke="midnightblue" points="929.7,-253.49 933.26,-243.51 924.25,-249.09 929.7,-253.49"/>
</g>
<!-- Node51&#45;&gt;Node9 -->
<g id="edge57" class="edge">
<title>Node51&#45;&gt;Node9</title>
<path fill="none" stroke="midnightblue" d="M413.57,-428.36C327.6,-425.16 162.12,-404.93 162.12,-296.5 162.12,-296.5 162.12,-296.5 162.12,-233 162.12,-186.4 112.17,-153.14 78.69,-136.08"/>
<polygon fill="midnightblue" stroke="midnightblue" points="79.85,-132.75 69.32,-131.51 76.77,-139.04 79.85,-132.75"/>
</g>
<!-- Node52&#45;&gt;Node6 -->
<g id="edge60" class="edge">
<title>Node52&#45;&gt;Node6</title>
<path fill="none" stroke="midnightblue" d="M806.33,-348.77C803.56,-348.15 800.81,-347.56 798.12,-347 622.18,-310.42 563.4,-332.71 407.12,-244 382.78,-230.18 358.17,-209.22 342.57,-194.86"/>
<polygon fill="midnightblue" stroke="midnightblue" points="344.58,-191.94 334.89,-187.65 339.79,-197.04 344.58,-191.94"/>
</g>
<!-- Node52&#45;&gt;Node43 -->
<g id="edge59" class="edge">
<title>Node52&#45;&gt;Node43</title>
<path fill="none" stroke="midnightblue" d="M831.74,-347.48C787.37,-322.97 696.26,-272.64 652.56,-248.5"/>
<polygon fill="midnightblue" stroke="midnightblue" points="654.19,-245.4 643.75,-243.63 650.81,-251.53 654.19,-245.4"/>
</g>
<!-- Node52&#45;&gt;Node50 -->
<g id="edge61" class="edge">
<title>Node52&#45;&gt;Node50</title>
<path fill="none" stroke="midnightblue" d="M864.72,-347.4C869.96,-337.66 876.97,-324.65 882.58,-314.21"/>
<polygon fill="midnightblue" stroke="midnightblue" points="885.78,-315.66 887.44,-305.19 879.62,-312.34 885.78,-315.66"/>
</g>
<!-- Node53&#45;&gt;Node20 -->
<g id="edge63" class="edge">
<title>Node53&#45;&gt;Node20</title>
<path fill="none" stroke="midnightblue" d="M1316.24,-285.87C1323.63,-276.32 1334.69,-260.13 1339.12,-244 1343.71,-227.3 1335.34,-208.94 1327.07,-196"/>
<polygon fill="midnightblue" stroke="midnightblue" points="1329.84,-193.86 1321.26,-187.65 1324.09,-197.85 1329.84,-193.86"/>
</g>
<!-- Node53&#45;&gt;Node13 -->
<g id="edge67" class="edge">
<title>Node53&#45;&gt;Node13</title>
<path fill="none" stroke="midnightblue" d="M1277.89,-285.98C1237.21,-274.87 1166.38,-255.54 1124.62,-244.14"/>
<polygon fill="midnightblue" stroke="midnightblue" points="1125.48,-240.75 1114.92,-241.49 1123.64,-247.5 1125.48,-240.75"/>
</g>
<!-- Node32 -->
<g id="node37" class="node">
<title>Node32</title>
<g id="a_node37"><a xlink:href="narrow_8h.html" target="_top" xlink:title=" ">
<polygon fill="none" stroke="black" points="1132.62,-224.5 1132.62,-243.5 1191.62,-243.5 1191.62,-224.5 1132.62,-224.5"/>
<text text-anchor="middle" x="1162.12" y="-231.5" font-family="Helvetica,sans-Serif" font-size="10.00">narrow.h</text>
</a>
</g>
</g>
<!-- Node53&#45;&gt;Node32 -->
<g id="edge64" class="edge">
<title>Node53&#45;&gt;Node32</title>
<path fill="none" stroke="midnightblue" d="M1288.06,-285.98C1263.06,-275.86 1221.18,-258.9 1192.64,-247.35"/>
<polygon fill="midnightblue" stroke="midnightblue" points="1193.73,-244.02 1183.14,-243.51 1191.1,-250.51 1193.73,-244.02"/>
</g>
<!-- Node32&#45;&gt;Node17 -->
<g id="edge65" class="edge">
<title>Node32&#45;&gt;Node17</title>
<path fill="none" stroke="midnightblue" d="M1151.84,-224.41C1126,-203.16 1055.73,-147.26 990.12,-112 915.44,-71.87 821.3,-39.12 769.89,-22.61"/>
<polygon fill="midnightblue" stroke="midnightblue" points="770.79,-19.23 760.2,-19.53 768.67,-25.9 770.79,-19.23"/>
</g>
<!-- Node32&#45;&gt;Node14 -->
<g id="edge66" class="edge">
<title>Node32&#45;&gt;Node14</title>
<path fill="none" stroke="midnightblue" d="M1132.28,-225.78C1129.53,-225.16 1126.78,-224.56 1124.12,-224 1054.38,-209.35 972.92,-194.91 923.71,-186.49"/>
<polygon fill="midnightblue" stroke="midnightblue" points="924.16,-183.01 913.72,-184.78 922.99,-189.91 924.16,-183.01"/>
</g>
<!-- Node54&#45;&gt;Node13 -->
<g id="edge69" class="edge">
<title>Node54&#45;&gt;Node13</title>
<path fill="none" stroke="midnightblue" d="M1150.64,-280.4C1138.6,-271.22 1122.92,-259.26 1110.68,-249.92"/>
<polygon fill="midnightblue" stroke="midnightblue" points="1112.55,-246.94 1102.47,-243.66 1108.3,-252.51 1112.55,-246.94"/>
</g>
<!-- Node55 -->
<g id="node39" class="node">
<title>Node55</title>
<g id="a_node39"><a xlink:href="decision__procedure_8h.html" target="_top" xlink:title=" ">
<polygon fill="none" stroke="black" points="1210.12,-224.5 1210.12,-243.5 1330.12,-243.5 1330.12,-224.5 1210.12,-224.5"/>
<text text-anchor="middle" x="1270.12" y="-231.5" font-family="Helvetica,sans-Serif" font-size="10.00">decision_procedure.h</text>
</a>
</g>
</g>
<!-- Node54&#45;&gt;Node55 -->
<g id="edge70" class="edge">
<title>Node54&#45;&gt;Node55</title>
<path fill="none" stroke="midnightblue" d="M1193.06,-280.4C1209.25,-270.86 1230.53,-258.32 1246.63,-248.84"/>
<polygon fill="midnightblue" stroke="midnightblue" points="1248.59,-251.75 1255.43,-243.66 1245.03,-245.72 1248.59,-251.75"/>
</g>
<!-- Node55&#45;&gt;Node12 -->
<g id="edge72" class="edge">
<title>Node55&#45;&gt;Node12</title>
<path fill="none" stroke="midnightblue" d="M1245.98,-224.46C1190.41,-204.81 1053.49,-156.38 991.06,-134.3"/>
<polygon fill="midnightblue" stroke="midnightblue" points="991.95,-130.9 981.36,-130.86 989.62,-137.5 991.95,-130.9"/>
</g>
<!-- Node55&#45;&gt;Node20 -->
<g id="edge71" class="edge">
<title>Node55&#45;&gt;Node20</title>
<path fill="none" stroke="midnightblue" d="M1277.39,-224.08C1283.67,-216.38 1292.91,-205.03 1300.55,-195.65"/>
<polygon fill="midnightblue" stroke="midnightblue" points="1303.39,-197.71 1306.99,-187.75 1297.96,-193.29 1303.39,-197.71"/>
</g>
<!-- Node56&#45;&gt;Node45 -->
<g id="edge74" class="edge">
<title>Node56&#45;&gt;Node45</title>
<path fill="none" stroke="midnightblue" d="M902.55,-419.87C872.87,-408.52 820.57,-388.52 786.9,-375.65"/>
<polygon fill="midnightblue" stroke="midnightblue" points="788.11,-372.37 777.52,-372.06 785.61,-378.9 788.11,-372.37"/>
</g>
</g>
</svg>
