<?xml version="1.0" encoding="UTF-8" standalone="no"?>
<!DOCTYPE svg PUBLIC "-//W3C//DTD SVG 1.1//EN"
 "http://www.w3.org/Graphics/SVG/1.1/DTD/svg11.dtd">
<!-- Generated by graphviz version 2.43.0 (0)
 -->
<!-- Title: /home/runner/work/cbmc&#45;documentation/cbmc&#45;documentation/src/solvers/smt2/smt2_conv.h Pages: 1 -->
<svg width="1448pt" height="643pt"
 viewBox="0.00 0.00 1448.17 643.00" xmlns="http://www.w3.org/2000/svg" xmlns:xlink="http://www.w3.org/1999/xlink">
<g id="graph0" class="graph" transform="scale(1 1) rotate(0) translate(4 639)">
<title>/home/runner/work/cbmc&#45;documentation/cbmc&#45;documentation/src/solvers/smt2/smt2_conv.h</title>
<!-- Node1 -->
<g id="node1" class="node">
<title>Node1</title>
<g id="a_node1"><a xlink:title=" ">
<polygon fill="#bfbfbf" stroke="black" points="756,-593.5 756,-634.5 956,-634.5 956,-593.5 756,-593.5"/>
<text text-anchor="start" x="764" y="-622.5" font-family="Helvetica,sans-Serif" font-size="10.00">/home/runner/work/cbmc</text>
<text text-anchor="start" x="764" y="-611.5" font-family="Helvetica,sans-Serif" font-size="10.00">&#45;documentation/cbmc&#45;documentation</text>
<text text-anchor="middle" x="856" y="-600.5" font-family="Helvetica,sans-Serif" font-size="10.00">/src/solvers/smt2/smt2_conv.h</text>
</a>
</g>
</g>
<!-- Node2 -->
<g id="node2" class="node">
<title>Node2</title>
<g id="a_node2"><a xlink:href="pointer__expr_8h.html" target="_top" xlink:title=" ">
<polygon fill="none" stroke="black" points="694.5,-537.5 694.5,-556.5 799.5,-556.5 799.5,-537.5 694.5,-537.5"/>
<text text-anchor="middle" x="747" y="-544.5" font-family="Helvetica,sans-Serif" font-size="10.00">util/pointer_expr.h</text>
</a>
</g>
</g>
<!-- Node1&#45;&gt;Node2 -->
<g id="edge1" class="edge">
<title>Node1&#45;&gt;Node2</title>
<path fill="none" stroke="midnightblue" d="M823.3,-593.5C806.26,-583.34 785.83,-571.16 770.4,-561.95"/>
<polygon fill="midnightblue" stroke="midnightblue" points="771.89,-558.77 761.51,-556.65 768.31,-564.78 771.89,-558.77"/>
</g>
<!-- Node15 -->
<g id="node14" class="node">
<title>Node15</title>
<g id="a_node14"><a xlink:title=" ">
<polygon fill="none" stroke="#bfbfbf" points="86,-0.5 86,-19.5 142,-19.5 142,-0.5 86,-0.5"/>
<text text-anchor="middle" x="114" y="-7.5" font-family="Helvetica,sans-Serif" font-size="10.00">sstream</text>
</a>
</g>
</g>
<!-- Node1&#45;&gt;Node15 -->
<g id="edge49" class="edge">
<title>Node1&#45;&gt;Node15</title>
<path fill="none" stroke="midnightblue" d="M755.71,-608.51C529.67,-597.05 0,-562.13 0,-486.5 0,-486.5 0,-486.5 0,-121 0,-74.11 50.55,-40.89 84.33,-23.93"/>
<polygon fill="midnightblue" stroke="midnightblue" points="85.87,-27.07 93.36,-19.58 82.83,-20.77 85.87,-27.07"/>
</g>
<!-- Node44 -->
<g id="node28" class="node">
<title>Node44</title>
<g id="a_node28"><a xlink:href="std__expr_8h.html" target="_top" xlink:title=" ">
<polygon fill="none" stroke="black" points="495.5,-476 495.5,-495 562.5,-495 562.5,-476 495.5,-476"/>
<text text-anchor="middle" x="529" y="-483" font-family="Helvetica,sans-Serif" font-size="10.00">std_expr.h</text>
</a>
</g>
</g>
<!-- Node1&#45;&gt;Node44 -->
<g id="edge44" class="edge">
<title>Node1&#45;&gt;Node44</title>
<path fill="none" stroke="midnightblue" d="M772.65,-593.43C737.32,-584.06 696.06,-571.66 660,-557 620.15,-540.81 576.71,-515.84 551.21,-500.38"/>
<polygon fill="midnightblue" stroke="midnightblue" points="553.02,-497.38 542.67,-495.14 549.37,-503.35 553.02,-497.38"/>
</g>
<!-- Node45 -->
<g id="node29" class="node">
<title>Node45</title>
<g id="a_node29"><a xlink:href="threeval_8h.html" target="_top" xlink:title=" ">
<polygon fill="none" stroke="black" points="1345.5,-414.5 1345.5,-433.5 1430.5,-433.5 1430.5,-414.5 1345.5,-414.5"/>
<text text-anchor="middle" x="1388" y="-421.5" font-family="Helvetica,sans-Serif" font-size="10.00">util/threeval.h</text>
</a>
</g>
</g>
<!-- Node1&#45;&gt;Node45 -->
<g id="edge45" class="edge">
<title>Node1&#45;&gt;Node45</title>
<path fill="none" stroke="midnightblue" d="M956.04,-612.67C1077.58,-610.35 1273.52,-599.82 1331,-557 1367.93,-529.49 1381.24,-473.06 1385.79,-443.7"/>
<polygon fill="midnightblue" stroke="midnightblue" points="1389.29,-443.94 1387.17,-433.56 1382.35,-443 1389.29,-443.94"/>
</g>
<!-- Node46 -->
<g id="node30" class="node">
<title>Node46</title>
<g id="a_node30"><a xlink:title=" ">
<polygon fill="none" stroke="#bfbfbf" points="1001,-168.5 1001,-187.5 1039,-187.5 1039,-168.5 1001,-168.5"/>
<text text-anchor="middle" x="1020" y="-175.5" font-family="Helvetica,sans-Serif" font-size="10.00">map</text>
</a>
</g>
</g>
<!-- Node1&#45;&gt;Node46 -->
<g id="edge47" class="edge">
<title>Node1&#45;&gt;Node46</title>
<path fill="none" stroke="midnightblue" d="M894.29,-593.49C929.73,-572.38 977,-535.13 977,-486.5 977,-486.5 977,-486.5 977,-423 977,-337.68 1002.81,-238.09 1014.44,-197.57"/>
<polygon fill="midnightblue" stroke="midnightblue" points="1017.86,-198.34 1017.31,-187.76 1011.14,-196.38 1017.86,-198.34"/>
</g>
<!-- Node47 -->
<g id="node31" class="node">
<title>Node47</title>
<g id="a_node31"><a xlink:title=" ">
<polygon fill="none" stroke="#bfbfbf" points="818,-537.5 818,-556.5 850,-556.5 850,-537.5 818,-537.5"/>
<text text-anchor="middle" x="834" y="-544.5" font-family="Helvetica,sans-Serif" font-size="10.00">set</text>
</a>
</g>
</g>
<!-- Node1&#45;&gt;Node47 -->
<g id="edge48" class="edge">
<title>Node1&#45;&gt;Node47</title>
<path fill="none" stroke="midnightblue" d="M849.4,-593.5C846.48,-584.87 843.07,-574.79 840.2,-566.31"/>
<polygon fill="midnightblue" stroke="midnightblue" points="843.45,-565 836.93,-556.65 836.82,-567.25 843.45,-565"/>
</g>
<!-- Node48 -->
<g id="node32" class="node">
<title>Node48</title>
<g id="a_node32"><a xlink:href="irep__hash__container_8h.html" target="_top" xlink:title=" ">
<polygon fill="none" stroke="black" points="845,-230 845,-249 987,-249 987,-230 845,-230"/>
<text text-anchor="middle" x="916" y="-237" font-family="Helvetica,sans-Serif" font-size="10.00">util/irep_hash_container.h</text>
</a>
</g>
</g>
<!-- Node1&#45;&gt;Node48 -->
<g id="edge50" class="edge">
<title>Node1&#45;&gt;Node48</title>
<path fill="none" stroke="midnightblue" d="M878.99,-593.14C902.94,-570.13 937,-529.79 937,-486.5 937,-486.5 937,-486.5 937,-361.5 937,-324.69 927.45,-282.49 921.23,-258.92"/>
<polygon fill="midnightblue" stroke="midnightblue" points="924.59,-257.94 918.58,-249.22 917.84,-259.78 924.59,-257.94"/>
</g>
<!-- Node50 -->
<g id="node34" class="node">
<title>Node50</title>
<g id="a_node34"><a xlink:href="boolbv__width_8h.html" target="_top" xlink:title=" ">
<polygon fill="none" stroke="black" points="580.5,-470.5 580.5,-500.5 681.5,-500.5 681.5,-470.5 580.5,-470.5"/>
<text text-anchor="start" x="588.5" y="-488.5" font-family="Helvetica,sans-Serif" font-size="10.00">solvers/flattening</text>
<text text-anchor="middle" x="631" y="-477.5" font-family="Helvetica,sans-Serif" font-size="10.00">/boolbv_width.h</text>
</a>
</g>
</g>
<!-- Node1&#45;&gt;Node50 -->
<g id="edge59" class="edge">
<title>Node1&#45;&gt;Node50</title>
<path fill="none" stroke="midnightblue" d="M763.99,-593.48C737.29,-585.05 709.12,-573.27 686,-557 668.44,-544.64 653.8,-525.06 644.05,-509.67"/>
<polygon fill="midnightblue" stroke="midnightblue" points="646.81,-507.46 638.63,-500.73 640.82,-511.09 646.81,-507.46"/>
</g>
<!-- Node51 -->
<g id="node35" class="node">
<title>Node51</title>
<g id="a_node35"><a xlink:href="pointer__logic_8h.html" target="_top" xlink:title=" ">
<polygon fill="none" stroke="black" points="807.5,-347.5 807.5,-377.5 908.5,-377.5 908.5,-347.5 807.5,-347.5"/>
<text text-anchor="start" x="815.5" y="-365.5" font-family="Helvetica,sans-Serif" font-size="10.00">solvers/flattening</text>
<text text-anchor="middle" x="858" y="-354.5" font-family="Helvetica,sans-Serif" font-size="10.00">/pointer_logic.h</text>
</a>
</g>
</g>
<!-- Node1&#45;&gt;Node51 -->
<g id="edge61" class="edge">
<title>Node1&#45;&gt;Node51</title>
<path fill="none" stroke="midnightblue" d="M857.31,-593.31C857.96,-582.58 858.68,-569.07 859,-557 860.63,-496.13 859.45,-424.46 858.62,-387.79"/>
<polygon fill="midnightblue" stroke="midnightblue" points="862.12,-387.5 858.38,-377.59 855.12,-387.67 862.12,-387.5"/>
</g>
<!-- Node52 -->
<g id="node36" class="node">
<title>Node52</title>
<g id="a_node36"><a xlink:href="literal_8h.html" target="_top" xlink:title=" ">
<polygon fill="none" stroke="black" points="1057.5,-168.5 1057.5,-187.5 1174.5,-187.5 1174.5,-168.5 1057.5,-168.5"/>
<text text-anchor="middle" x="1116" y="-175.5" font-family="Helvetica,sans-Serif" font-size="10.00">solvers/prop/literal.h</text>
</a>
</g>
</g>
<!-- Node1&#45;&gt;Node52 -->
<g id="edge65" class="edge">
<title>Node1&#45;&gt;Node52</title>
<path fill="none" stroke="midnightblue" d="M941.26,-593.48C994.5,-575.67 1053,-543.2 1053,-486.5 1053,-486.5 1053,-486.5 1053,-300 1053,-265.18 1055.02,-254.39 1072,-224 1078.28,-212.75 1088.11,-202.32 1096.89,-194.34"/>
<polygon fill="midnightblue" stroke="midnightblue" points="1099.24,-196.93 1104.52,-187.74 1094.67,-191.63 1099.24,-196.93"/>
</g>
<!-- Node53 -->
<g id="node38" class="node">
<title>Node53</title>
<g id="a_node38"><a xlink:href="stack__decision__procedure_8h.html" target="_top" xlink:title=" ">
<polygon fill="none" stroke="black" points="1307.5,-224.5 1307.5,-254.5 1434.5,-254.5 1434.5,-224.5 1307.5,-224.5"/>
<text text-anchor="start" x="1315.5" y="-242.5" font-family="Helvetica,sans-Serif" font-size="10.00">solvers/stack_decision</text>
<text text-anchor="middle" x="1371" y="-231.5" font-family="Helvetica,sans-Serif" font-size="10.00">_procedure.h</text>
</a>
</g>
</g>
<!-- Node1&#45;&gt;Node53 -->
<g id="edge71" class="edge">
<title>Node1&#45;&gt;Node53</title>
<path fill="none" stroke="midnightblue" d="M956.03,-605.71C1091.61,-593.03 1317,-560.78 1317,-486.5 1317,-486.5 1317,-486.5 1317,-361.5 1317,-324.58 1338.22,-286.39 1354.06,-263.04"/>
<polygon fill="midnightblue" stroke="midnightblue" points="1356.93,-265.05 1359.81,-254.85 1351.2,-261.02 1356.93,-265.05"/>
</g>
<!-- Node55 -->
<g id="node40" class="node">
<title>Node55</title>
<g id="a_node40"><a xlink:href="letify_8h.html" target="_top" xlink:title=" ">
<polygon fill="none" stroke="black" points="508.5,-537.5 508.5,-556.5 557.5,-556.5 557.5,-537.5 508.5,-537.5"/>
<text text-anchor="middle" x="533" y="-544.5" font-family="Helvetica,sans-Serif" font-size="10.00">letify.h</text>
</a>
</g>
</g>
<!-- Node1&#45;&gt;Node55 -->
<g id="edge76" class="edge">
<title>Node1&#45;&gt;Node55</title>
<path fill="none" stroke="midnightblue" d="M759.09,-593.5C694.27,-580.45 612.83,-564.06 567.5,-554.94"/>
<polygon fill="midnightblue" stroke="midnightblue" points="568.09,-551.49 557.59,-552.95 566.71,-558.35 568.09,-551.49"/>
</g>
<!-- Node3 -->
<g id="node3" class="node">
<title>Node3</title>
<g id="a_node3"><a xlink:href="bitvector__types_8h.html" target="_top" xlink:title=" ">
<polygon fill="none" stroke="black" points="699.5,-476 699.5,-495 800.5,-495 800.5,-476 699.5,-476"/>
<text text-anchor="middle" x="750" y="-483" font-family="Helvetica,sans-Serif" font-size="10.00">bitvector_types.h</text>
</a>
</g>
</g>
<!-- Node2&#45;&gt;Node3 -->
<g id="edge2" class="edge">
<title>Node2&#45;&gt;Node3</title>
<path fill="none" stroke="midnightblue" d="M747.43,-537.48C747.85,-529.08 748.51,-515.98 749.06,-505.16"/>
<polygon fill="midnightblue" stroke="midnightblue" points="752.56,-505.17 749.57,-495.01 745.57,-504.82 752.56,-505.17"/>
</g>
<!-- Node2&#45;&gt;Node44 -->
<g id="edge40" class="edge">
<title>Node2&#45;&gt;Node44</title>
<path fill="none" stroke="midnightblue" d="M710.01,-537.48C674.23,-529.01 618.58,-515.27 571,-501 568.23,-500.17 565.37,-499.27 562.5,-498.34"/>
<polygon fill="midnightblue" stroke="midnightblue" points="563.47,-494.97 552.88,-495.12 561.25,-501.61 563.47,-494.97"/>
</g>
<!-- Node4 -->
<g id="node4" class="node">
<title>Node4</title>
<g id="a_node4"><a xlink:href="std__types_8h.html" target="_top" xlink:title=" ">
<polygon fill="none" stroke="black" points="641.5,-414.5 641.5,-433.5 714.5,-433.5 714.5,-414.5 641.5,-414.5"/>
<text text-anchor="middle" x="678" y="-421.5" font-family="Helvetica,sans-Serif" font-size="10.00">std_types.h</text>
</a>
</g>
</g>
<!-- Node3&#45;&gt;Node4 -->
<g id="edge3" class="edge">
<title>Node3&#45;&gt;Node4</title>
<path fill="none" stroke="midnightblue" d="M739.68,-475.98C728.35,-466.61 709.93,-451.38 696.16,-440.01"/>
<polygon fill="midnightblue" stroke="midnightblue" points="698.23,-437.18 688.3,-433.51 693.78,-442.58 698.23,-437.18"/>
</g>
<!-- Node5 -->
<g id="node5" class="node">
<title>Node5</title>
<g id="a_node5"><a xlink:href="expr_8h.html" target="_top" xlink:title=" ">
<polygon fill="none" stroke="black" points="424.5,-291.5 424.5,-310.5 471.5,-310.5 471.5,-291.5 424.5,-291.5"/>
<text text-anchor="middle" x="448" y="-298.5" font-family="Helvetica,sans-Serif" font-size="10.00">expr.h</text>
</a>
</g>
</g>
<!-- Node4&#45;&gt;Node5 -->
<g id="edge4" class="edge">
<title>Node4&#45;&gt;Node5</title>
<path fill="none" stroke="midnightblue" d="M661.83,-414.49C622.41,-393.76 521.16,-340.49 473.51,-315.42"/>
<polygon fill="midnightblue" stroke="midnightblue" points="474.94,-312.22 464.46,-310.66 471.68,-318.41 474.94,-312.22"/>
</g>
<!-- Node13 -->
<g id="node13" class="node">
<title>Node13</title>
<g id="a_node13"><a xlink:href="src_2util_2invariant_8h.html" target="_top" xlink:title=" ">
<polygon fill="none" stroke="red" points="502.5,-56.5 502.5,-75.5 571.5,-75.5 571.5,-56.5 502.5,-56.5"/>
<text text-anchor="middle" x="537" y="-63.5" font-family="Helvetica,sans-Serif" font-size="10.00">invariant.h</text>
</a>
</g>
</g>
<!-- Node4&#45;&gt;Node13 -->
<g id="edge33" class="edge">
<title>Node4&#45;&gt;Node13</title>
<path fill="none" stroke="midnightblue" d="M683.99,-414.37C703.31,-385.37 760.53,-289.6 722,-224 711.37,-205.9 570.2,-148.32 557,-132 546.22,-118.67 541.23,-99.56 538.94,-85.5"/>
<polygon fill="midnightblue" stroke="midnightblue" points="542.4,-84.98 537.61,-75.53 535.46,-85.9 542.4,-84.98"/>
</g>
<!-- Node34 -->
<g id="node17" class="node">
<title>Node34</title>
<g id="a_node17"><a xlink:href="validate_8h.html" target="_top" xlink:title=" ">
<polygon fill="none" stroke="red" points="142.5,-168.5 142.5,-187.5 207.5,-187.5 207.5,-168.5 142.5,-168.5"/>
<text text-anchor="middle" x="175" y="-175.5" font-family="Helvetica,sans-Serif" font-size="10.00">validate.h</text>
</a>
</g>
</g>
<!-- Node4&#45;&gt;Node34 -->
<g id="edge38" class="edge">
<title>Node4&#45;&gt;Node34</title>
<path fill="none" stroke="midnightblue" d="M641.17,-421.99C546.45,-418.98 296.51,-408.3 220,-378 174.63,-360.03 154.55,-354.79 133,-311 113.71,-271.8 142.96,-221.75 161.56,-196"/>
<polygon fill="midnightblue" stroke="midnightblue" points="164.61,-197.77 167.82,-187.68 159.01,-193.56 164.61,-197.77"/>
</g>
<!-- Node40 -->
<g id="node22" class="node">
<title>Node40</title>
<g id="a_node22"><a xlink:href="expr__cast_8h.html" target="_top" xlink:title="Templated functions to cast to specific exprt&#45;derived classes.">
<polygon fill="none" stroke="black" points="229.5,-353 229.5,-372 302.5,-372 302.5,-353 229.5,-353"/>
<text text-anchor="middle" x="266" y="-360" font-family="Helvetica,sans-Serif" font-size="10.00">expr_cast.h</text>
</a>
</g>
</g>
<!-- Node4&#45;&gt;Node40 -->
<g id="edge27" class="edge">
<title>Node4&#45;&gt;Node40</title>
<path fill="none" stroke="midnightblue" d="M641.44,-417.72C566.55,-406.91 395.83,-382.25 312.92,-370.28"/>
<polygon fill="midnightblue" stroke="midnightblue" points="313.17,-366.78 302.78,-368.81 312.17,-373.7 313.17,-366.78"/>
</g>
<!-- Node42 -->
<g id="node24" class="node">
<title>Node42</title>
<g id="a_node24"><a xlink:href="mp__arith_8h.html" target="_top" xlink:title=" ">
<polygon fill="none" stroke="black" points="1093.5,-291.5 1093.5,-310.5 1162.5,-310.5 1162.5,-291.5 1093.5,-291.5"/>
<text text-anchor="middle" x="1128" y="-298.5" font-family="Helvetica,sans-Serif" font-size="10.00">mp_arith.h</text>
</a>
</g>
</g>
<!-- Node4&#45;&gt;Node42 -->
<g id="edge34" class="edge">
<title>Node4&#45;&gt;Node42</title>
<path fill="none" stroke="midnightblue" d="M714.6,-418.02C762.03,-411.14 847.04,-397.36 918,-378 983.69,-360.08 1058.08,-330.98 1098.32,-314.47"/>
<polygon fill="midnightblue" stroke="midnightblue" points="1099.88,-317.62 1107.79,-310.56 1097.21,-311.15 1099.88,-317.62"/>
</g>
<!-- Node24 -->
<g id="node27" class="node">
<title>Node24</title>
<g id="a_node27"><a xlink:title=" ">
<polygon fill="none" stroke="#bfbfbf" points="565.5,-112.5 565.5,-131.5 658.5,-131.5 658.5,-112.5 565.5,-112.5"/>
<text text-anchor="middle" x="612" y="-119.5" font-family="Helvetica,sans-Serif" font-size="10.00">unordered_map</text>
</a>
</g>
</g>
<!-- Node4&#45;&gt;Node24 -->
<g id="edge39" class="edge">
<title>Node4&#45;&gt;Node24</title>
<path fill="none" stroke="midnightblue" d="M706.37,-414.49C723.75,-407.65 744.6,-396.13 755,-378 789.07,-318.64 787.55,-284.21 755,-224 741.11,-198.3 723.98,-204.69 700,-188 676.1,-171.37 649.27,-151.35 631.59,-137.97"/>
<polygon fill="midnightblue" stroke="midnightblue" points="633.32,-134.89 623.24,-131.62 629.09,-140.46 633.32,-134.89"/>
</g>
<!-- Node6 -->
<g id="node6" class="node">
<title>Node6</title>
<g id="a_node6"><a xlink:href="as__const_8h.html" target="_top" xlink:title=" ">
<polygon fill="none" stroke="black" points="645,-230 645,-249 713,-249 713,-230 645,-230"/>
<text text-anchor="middle" x="679" y="-237" font-family="Helvetica,sans-Serif" font-size="10.00">as_const.h</text>
</a>
</g>
</g>
<!-- Node5&#45;&gt;Node6 -->
<g id="edge5" class="edge">
<title>Node5&#45;&gt;Node6</title>
<path fill="none" stroke="midnightblue" d="M471.63,-295.06C507.43,-287.42 577.46,-271.84 636,-255 639.01,-254.13 642.12,-253.19 645.22,-252.21"/>
<polygon fill="midnightblue" stroke="midnightblue" points="646.59,-255.44 655.01,-249.01 644.42,-248.79 646.59,-255.44"/>
</g>
<!-- Node7 -->
<g id="node7" class="node">
<title>Node7</title>
<g id="a_node7"><a xlink:href="deprecate_8h.html" target="_top" xlink:title=" ">
<polygon fill="none" stroke="black" points="553,-230 553,-249 627,-249 627,-230 553,-230"/>
<text text-anchor="middle" x="590" y="-237" font-family="Helvetica,sans-Serif" font-size="10.00">deprecate.h</text>
</a>
</g>
</g>
<!-- Node5&#45;&gt;Node7 -->
<g id="edge6" class="edge">
<title>Node5&#45;&gt;Node7</title>
<path fill="none" stroke="midnightblue" d="M468.35,-291.48C492.39,-281.4 532.6,-264.55 560.16,-253"/>
<polygon fill="midnightblue" stroke="midnightblue" points="561.82,-256.1 569.69,-249.01 559.12,-249.65 561.82,-256.1"/>
</g>
<!-- Node8 -->
<g id="node8" class="node">
<title>Node8</title>
<g id="a_node8"><a xlink:href="type_8h.html" target="_top" xlink:title=" ">
<polygon fill="none" stroke="black" points="263.5,-230 263.5,-249 310.5,-249 310.5,-230 263.5,-230"/>
<text text-anchor="middle" x="287" y="-237" font-family="Helvetica,sans-Serif" font-size="10.00">type.h</text>
</a>
</g>
</g>
<!-- Node5&#45;&gt;Node8 -->
<g id="edge7" class="edge">
<title>Node5&#45;&gt;Node8</title>
<path fill="none" stroke="midnightblue" d="M424.38,-291.47C399.6,-282.49 359.51,-267.89 325,-255 323.11,-254.3 321.18,-253.57 319.23,-252.83"/>
<polygon fill="midnightblue" stroke="midnightblue" points="320.08,-249.41 309.49,-249.14 317.59,-255.96 320.08,-249.41"/>
</g>
<!-- Node36 -->
<g id="node18" class="node">
<title>Node36</title>
<g id="a_node18"><a xlink:href="validation__mode_8h.html" target="_top" xlink:title=" ">
<polygon fill="none" stroke="black" points="200.5,-112.5 200.5,-131.5 307.5,-131.5 307.5,-112.5 200.5,-112.5"/>
<text text-anchor="middle" x="254" y="-119.5" font-family="Helvetica,sans-Serif" font-size="10.00">validation_mode.h</text>
</a>
</g>
</g>
<!-- Node5&#45;&gt;Node36 -->
<g id="edge25" class="edge">
<title>Node5&#45;&gt;Node36</title>
<path fill="none" stroke="midnightblue" d="M434.06,-291.33C422.27,-283.29 405.77,-270.29 396,-255 374.34,-221.1 398.18,-197.66 371,-168 355.96,-151.59 334.26,-141.1 313.62,-134.43"/>
<polygon fill="midnightblue" stroke="midnightblue" points="314.51,-131.05 303.92,-131.54 312.51,-137.75 314.51,-131.05"/>
</g>
<!-- Node37 -->
<g id="node19" class="node">
<title>Node37</title>
<g id="a_node19"><a xlink:href="validate__types_8h.html" target="_top" xlink:title=" ">
<polygon fill="none" stroke="black" points="264,-168.5 264,-187.5 362,-187.5 362,-168.5 264,-168.5"/>
<text text-anchor="middle" x="313" y="-175.5" font-family="Helvetica,sans-Serif" font-size="10.00">validate_types.h</text>
</a>
</g>
</g>
<!-- Node5&#45;&gt;Node37 -->
<g id="edge24" class="edge">
<title>Node5&#45;&gt;Node37</title>
<path fill="none" stroke="midnightblue" d="M424.77,-291.45C406.49,-283.9 381.16,-271.51 363,-255 344.61,-238.28 329.94,-213.4 321.36,-196.71"/>
<polygon fill="midnightblue" stroke="midnightblue" points="324.39,-194.94 316.83,-187.52 318.11,-198.04 324.39,-194.94"/>
</g>
<!-- Node38 -->
<g id="node20" class="node">
<title>Node38</title>
<g id="a_node20"><a xlink:href="validate__expressions_8h.html" target="_top" xlink:title=" ">
<polygon fill="none" stroke="black" points="405.5,-230 405.5,-249 534.5,-249 534.5,-230 405.5,-230"/>
<text text-anchor="middle" x="470" y="-237" font-family="Helvetica,sans-Serif" font-size="10.00">validate_expressions.h</text>
</a>
</g>
</g>
<!-- Node5&#45;&gt;Node38 -->
<g id="edge23" class="edge">
<title>Node5&#45;&gt;Node38</title>
<path fill="none" stroke="midnightblue" d="M451.15,-291.48C454.32,-282.9 459.3,-269.43 463.35,-258.48"/>
<polygon fill="midnightblue" stroke="midnightblue" points="466.67,-259.6 466.85,-249.01 460.1,-257.17 466.67,-259.6"/>
</g>
<!-- Node39 -->
<g id="node21" class="node">
<title>Node39</title>
<g id="a_node21"><a xlink:title=" ">
<polygon fill="none" stroke="#bfbfbf" points="180.5,-230 180.5,-249 245.5,-249 245.5,-230 180.5,-230"/>
<text text-anchor="middle" x="213" y="-237" font-family="Helvetica,sans-Serif" font-size="10.00">functional</text>
</a>
</g>
</g>
<!-- Node5&#45;&gt;Node39 -->
<g id="edge26" class="edge">
<title>Node5&#45;&gt;Node39</title>
<path fill="none" stroke="midnightblue" d="M424.49,-295.43C387.77,-288.1 314.74,-272.72 254,-255 251.21,-254.19 248.34,-253.29 245.47,-252.36"/>
<polygon fill="midnightblue" stroke="midnightblue" points="246.43,-248.99 235.84,-249.09 244.18,-255.62 246.43,-248.99"/>
</g>
<!-- Node9 -->
<g id="node9" class="node">
<title>Node9</title>
<g id="a_node9"><a xlink:href="source__location_8h.html" target="_top" xlink:title=" ">
<polygon fill="none" stroke="black" points="805,-168.5 805,-187.5 907,-187.5 907,-168.5 805,-168.5"/>
<text text-anchor="middle" x="856" y="-175.5" font-family="Helvetica,sans-Serif" font-size="10.00">source_location.h</text>
</a>
</g>
</g>
<!-- Node8&#45;&gt;Node9 -->
<g id="edge8" class="edge">
<title>Node8&#45;&gt;Node9</title>
<path fill="none" stroke="midnightblue" d="M310.78,-235.04C332.84,-231.9 366.59,-227.28 396,-224 570.19,-204.58 617.09,-209.08 795.01,-188.05"/>
<polygon fill="midnightblue" stroke="midnightblue" points="795.45,-191.52 804.96,-186.87 794.62,-184.57 795.45,-191.52"/>
</g>
<!-- Node8&#45;&gt;Node34 -->
<g id="edge18" class="edge">
<title>Node8&#45;&gt;Node34</title>
<path fill="none" stroke="midnightblue" d="M270.95,-229.98C252.41,-220.12 221.66,-203.79 199.98,-192.27"/>
<polygon fill="midnightblue" stroke="midnightblue" points="201.49,-189.11 191.02,-187.51 198.21,-195.29 201.49,-189.11"/>
</g>
<!-- Node8&#45;&gt;Node36 -->
<g id="edge22" class="edge">
<title>Node8&#45;&gt;Node36</title>
<path fill="none" stroke="midnightblue" d="M279.46,-229.94C271.63,-220.45 259.87,-204.31 255,-188 250.51,-172.94 250.6,-155.04 251.63,-141.84"/>
<polygon fill="midnightblue" stroke="midnightblue" points="255.14,-141.94 252.68,-131.64 248.17,-141.23 255.14,-141.94"/>
</g>
<!-- Node8&#45;&gt;Node37 -->
<g id="edge21" class="edge">
<title>Node8&#45;&gt;Node37</title>
<path fill="none" stroke="midnightblue" d="M290.73,-229.98C294.47,-221.4 300.36,-207.93 305.14,-196.98"/>
<polygon fill="midnightblue" stroke="midnightblue" points="308.48,-198.07 309.28,-187.51 302.07,-195.27 308.48,-198.07"/>
</g>
<!-- Node10 -->
<g id="node10" class="node">
<title>Node10</title>
<g id="a_node10"><a xlink:href="irep_8h.html" target="_top" xlink:title=" ">
<polygon fill="none" stroke="red" points="914,-112.5 914,-131.5 958,-131.5 958,-112.5 914,-112.5"/>
<text text-anchor="middle" x="936" y="-119.5" font-family="Helvetica,sans-Serif" font-size="10.00">irep.h</text>
</a>
</g>
</g>
<!-- Node9&#45;&gt;Node10 -->
<g id="edge9" class="edge">
<title>Node9&#45;&gt;Node10</title>
<path fill="none" stroke="midnightblue" d="M868.85,-168.32C881.22,-159.98 900.13,-147.21 914.74,-137.35"/>
<polygon fill="midnightblue" stroke="midnightblue" points="916.85,-140.15 923.18,-131.65 912.93,-134.35 916.85,-140.15"/>
</g>
<!-- Node11 -->
<g id="node11" class="node">
<title>Node11</title>
<g id="a_node11"><a xlink:title=" ">
<polygon fill="none" stroke="#bfbfbf" points="914,-0.5 914,-19.5 958,-19.5 958,-0.5 914,-0.5"/>
<text text-anchor="middle" x="936" y="-7.5" font-family="Helvetica,sans-Serif" font-size="10.00">string</text>
</a>
</g>
</g>
<!-- Node9&#45;&gt;Node11 -->
<g id="edge17" class="edge">
<title>Node9&#45;&gt;Node11</title>
<path fill="none" stroke="midnightblue" d="M860.3,-168.08C873,-141.72 910.52,-63.88 927.49,-28.66"/>
<polygon fill="midnightblue" stroke="midnightblue" points="930.68,-30.1 931.87,-19.57 924.38,-27.06 930.68,-30.1"/>
</g>
<!-- Node32 -->
<g id="node16" class="node">
<title>Node32</title>
<g id="a_node16"><a xlink:href="optional_8h.html" target="_top" xlink:title=" ">
<polygon fill="none" stroke="red" points="715.5,-112.5 715.5,-131.5 780.5,-131.5 780.5,-112.5 715.5,-112.5"/>
<text text-anchor="middle" x="748" y="-119.5" font-family="Helvetica,sans-Serif" font-size="10.00">optional.h</text>
</a>
</g>
</g>
<!-- Node9&#45;&gt;Node32 -->
<g id="edge16" class="edge">
<title>Node9&#45;&gt;Node32</title>
<path fill="none" stroke="midnightblue" d="M838.65,-168.32C821.33,-159.66 794.48,-146.24 774.5,-136.25"/>
<polygon fill="midnightblue" stroke="midnightblue" points="775.82,-133 765.31,-131.65 772.69,-139.26 775.82,-133"/>
</g>
<!-- Node10&#45;&gt;Node11 -->
<g id="edge10" class="edge">
<title>Node10&#45;&gt;Node11</title>
<path fill="none" stroke="midnightblue" d="M936,-112.37C936,-94.62 936,-53.67 936,-29.6"/>
<polygon fill="midnightblue" stroke="midnightblue" points="939.5,-29.59 936,-19.59 932.5,-29.59 939.5,-29.59"/>
</g>
<!-- Node12 -->
<g id="node12" class="node">
<title>Node12</title>
<g id="a_node12"><a xlink:title=" ">
<polygon fill="none" stroke="#bfbfbf" points="1000.5,-56.5 1000.5,-75.5 1047.5,-75.5 1047.5,-56.5 1000.5,-56.5"/>
<text text-anchor="middle" x="1024" y="-63.5" font-family="Helvetica,sans-Serif" font-size="10.00">vector</text>
</a>
</g>
</g>
<!-- Node10&#45;&gt;Node12 -->
<g id="edge11" class="edge">
<title>Node10&#45;&gt;Node12</title>
<path fill="none" stroke="midnightblue" d="M950.14,-112.32C963.87,-103.9 984.94,-90.97 1001.06,-81.07"/>
<polygon fill="midnightblue" stroke="midnightblue" points="1003.2,-83.87 1009.9,-75.65 999.54,-77.9 1003.2,-83.87"/>
</g>
<!-- Node10&#45;&gt;Node13 -->
<g id="edge12" class="edge">
<title>Node10&#45;&gt;Node13</title>
<path fill="none" stroke="midnightblue" d="M913.98,-118.02C850.63,-109.45 667.03,-84.6 581.64,-73.04"/>
<polygon fill="midnightblue" stroke="midnightblue" points="582.11,-69.57 571.73,-71.7 581.17,-76.51 582.11,-69.57"/>
</g>
<!-- Node13&#45;&gt;Node11 -->
<g id="edge14" class="edge">
<title>Node13&#45;&gt;Node11</title>
<path fill="none" stroke="midnightblue" d="M571.71,-60.3C647.97,-49.98 829.23,-25.45 903.46,-15.4"/>
<polygon fill="midnightblue" stroke="midnightblue" points="904.17,-18.84 913.61,-14.03 903.23,-11.9 904.17,-18.84"/>
</g>
<!-- Node13&#45;&gt;Node15 -->
<g id="edge13" class="edge">
<title>Node13&#45;&gt;Node15</title>
<path fill="none" stroke="midnightblue" d="M502.38,-60.58C424.21,-50.6 234.44,-26.38 152.61,-15.93"/>
<polygon fill="midnightblue" stroke="midnightblue" points="152.62,-12.4 142.26,-14.61 151.74,-19.35 152.62,-12.4"/>
</g>
<!-- Node16 -->
<g id="node15" class="node">
<title>Node16</title>
<g id="a_node15"><a xlink:title=" ">
<polygon fill="none" stroke="#bfbfbf" points="388.5,-0.5 388.5,-19.5 457.5,-19.5 457.5,-0.5 388.5,-0.5"/>
<text text-anchor="middle" x="423" y="-7.5" font-family="Helvetica,sans-Serif" font-size="10.00">type_traits</text>
</a>
</g>
</g>
<!-- Node13&#45;&gt;Node16 -->
<g id="edge15" class="edge">
<title>Node13&#45;&gt;Node16</title>
<path fill="none" stroke="midnightblue" d="M518.94,-56.44C500.43,-47.68 471.42,-33.94 450.14,-23.86"/>
<polygon fill="midnightblue" stroke="midnightblue" points="451.51,-20.63 440.98,-19.52 448.52,-26.96 451.51,-20.63"/>
</g>
<!-- Node34&#45;&gt;Node16 -->
<g id="edge19" class="edge">
<title>Node34&#45;&gt;Node16</title>
<path fill="none" stroke="midnightblue" d="M174.81,-168.35C174.98,-154.77 177.21,-128.34 191,-112 239.07,-55.02 325.34,-29.21 378.06,-18.27"/>
<polygon fill="midnightblue" stroke="midnightblue" points="379,-21.65 388.13,-16.28 377.64,-14.79 379,-21.65"/>
</g>
<!-- Node34&#45;&gt;Node36 -->
<g id="edge20" class="edge">
<title>Node34&#45;&gt;Node36</title>
<path fill="none" stroke="midnightblue" d="M187.69,-168.32C199.9,-159.98 218.58,-147.21 233,-137.35"/>
<polygon fill="midnightblue" stroke="midnightblue" points="235.06,-140.19 241.34,-131.65 231.11,-134.41 235.06,-140.19"/>
</g>
<!-- Node40&#45;&gt;Node5 -->
<g id="edge32" class="edge">
<title>Node40&#45;&gt;Node5</title>
<path fill="none" stroke="midnightblue" d="M292.08,-352.98C324.28,-342.45 379.12,-324.52 414.44,-312.97"/>
<polygon fill="midnightblue" stroke="midnightblue" points="415.87,-316.19 424.29,-309.75 413.7,-309.53 415.87,-316.19"/>
</g>
<!-- Node40&#45;&gt;Node13 -->
<g id="edge31" class="edge">
<title>Node40&#45;&gt;Node13</title>
<path fill="none" stroke="midnightblue" d="M259.5,-353C249.07,-339.49 227.74,-312.46 208,-291 164.65,-243.88 107.98,-226.94 133,-168 147,-135.02 158.71,-127.54 191,-112 243.24,-86.86 410.78,-74.16 492.01,-69.35"/>
<polygon fill="midnightblue" stroke="midnightblue" points="492.63,-72.82 502.41,-68.75 492.22,-65.83 492.63,-72.82"/>
</g>
<!-- Node40&#45;&gt;Node16 -->
<g id="edge29" class="edge">
<title>Node40&#45;&gt;Node16</title>
<path fill="none" stroke="midnightblue" d="M229.4,-358.22C198.4,-353.34 155.51,-341.2 133,-311 94.95,-259.94 100.44,-227.16 124,-168 149.47,-104.04 171.15,-90.02 231,-56 277,-29.85 337.43,-18.87 378.11,-14.28"/>
<polygon fill="midnightblue" stroke="midnightblue" points="378.68,-17.74 388.26,-13.22 377.95,-10.78 378.68,-17.74"/>
</g>
<!-- Node40&#45;&gt;Node39 -->
<g id="edge30" class="edge">
<title>Node40&#45;&gt;Node39</title>
<path fill="none" stroke="midnightblue" d="M263.57,-352.61C259.74,-339.03 251.7,-312.44 242,-291 236.81,-279.53 229.81,-267.27 223.99,-257.71"/>
<polygon fill="midnightblue" stroke="midnightblue" points="226.93,-255.8 218.67,-249.17 220.99,-259.5 226.93,-255.8"/>
</g>
<!-- Node41 -->
<g id="node23" class="node">
<title>Node41</title>
<g id="a_node23"><a xlink:title=" ">
<polygon fill="none" stroke="#bfbfbf" points="142.5,-291.5 142.5,-310.5 199.5,-310.5 199.5,-291.5 142.5,-291.5"/>
<text text-anchor="middle" x="171" y="-298.5" font-family="Helvetica,sans-Serif" font-size="10.00">typeinfo</text>
</a>
</g>
</g>
<!-- Node40&#45;&gt;Node41 -->
<g id="edge28" class="edge">
<title>Node40&#45;&gt;Node41</title>
<path fill="none" stroke="midnightblue" d="M252.39,-352.98C236.94,-343.3 211.51,-327.37 193.18,-315.89"/>
<polygon fill="midnightblue" stroke="midnightblue" points="194.92,-312.85 184.59,-310.51 191.2,-318.78 194.92,-312.85"/>
</g>
<!-- Node42&#45;&gt;Node11 -->
<g id="edge36" class="edge">
<title>Node42&#45;&gt;Node11</title>
<path fill="none" stroke="midnightblue" d="M1143.66,-291.35C1156.42,-283.5 1173.91,-270.76 1184,-255 1202.77,-225.68 1203,-213.82 1203,-179 1203,-179 1203,-179 1203,-121 1203,-20.62 1039.67,-9.97 968.5,-10.09"/>
<polygon fill="midnightblue" stroke="midnightblue" points="968.27,-6.6 958.31,-10.19 968.34,-13.6 968.27,-6.6"/>
</g>
<!-- Node19 -->
<g id="node25" class="node">
<title>Node19</title>
<g id="a_node25"><a xlink:title=" ">
<polygon fill="none" stroke="#bfbfbf" points="1243,-112.5 1243,-131.5 1291,-131.5 1291,-112.5 1243,-112.5"/>
<text text-anchor="middle" x="1267" y="-119.5" font-family="Helvetica,sans-Serif" font-size="10.00">iosfwd</text>
</a>
</g>
</g>
<!-- Node42&#45;&gt;Node19 -->
<g id="edge35" class="edge">
<title>Node42&#45;&gt;Node19</title>
<path fill="none" stroke="midnightblue" d="M1157.11,-291.46C1176.41,-284.46 1201.02,-272.77 1217,-255 1246.81,-221.85 1259.5,-169.15 1264.35,-141.43"/>
<polygon fill="midnightblue" stroke="midnightblue" points="1267.81,-141.94 1265.93,-131.51 1260.9,-140.83 1267.81,-141.94"/>
</g>
<!-- Node43 -->
<g id="node26" class="node">
<title>Node43</title>
<g id="a_node26"><a xlink:title=" ">
<polygon fill="none" stroke="#bfbfbf" points="1081,-230 1081,-249 1175,-249 1175,-230 1081,-230"/>
<text text-anchor="middle" x="1128" y="-237" font-family="Helvetica,sans-Serif" font-size="10.00">big&#45;int/bigint.hh</text>
</a>
</g>
</g>
<!-- Node42&#45;&gt;Node43 -->
<g id="edge37" class="edge">
<title>Node42&#45;&gt;Node43</title>
<path fill="none" stroke="midnightblue" d="M1128,-291.48C1128,-283.08 1128,-269.98 1128,-259.16"/>
<polygon fill="midnightblue" stroke="midnightblue" points="1131.5,-259.01 1128,-249.01 1124.5,-259.01 1131.5,-259.01"/>
</g>
<!-- Node44&#45;&gt;Node4 -->
<g id="edge43" class="edge">
<title>Node44&#45;&gt;Node4</title>
<path fill="none" stroke="midnightblue" d="M550.35,-475.98C575.69,-465.86 618.14,-448.9 647.07,-437.35"/>
<polygon fill="midnightblue" stroke="midnightblue" points="648.7,-440.47 656.69,-433.51 646.11,-433.97 648.7,-440.47"/>
</g>
<!-- Node44&#45;&gt;Node13 -->
<g id="edge42" class="edge">
<title>Node44&#45;&gt;Node13</title>
<path fill="none" stroke="midnightblue" d="M495.25,-483.45C384.32,-479.08 38,-457.88 38,-363.5 38,-363.5 38,-363.5 38,-238.5 38,-162.22 86.09,-146.74 154,-112 212.14,-82.26 404.06,-71.72 492.12,-68.38"/>
<polygon fill="midnightblue" stroke="midnightblue" points="492.46,-71.87 502.33,-68.01 492.21,-64.87 492.46,-71.87"/>
</g>
<!-- Node44&#45;&gt;Node40 -->
<g id="edge41" class="edge">
<title>Node44&#45;&gt;Node40</title>
<path fill="none" stroke="midnightblue" d="M495.49,-480.79C455.95,-475.28 389.23,-462.35 339,-434 314.66,-420.26 292.46,-396.48 279.09,-380.38"/>
<polygon fill="midnightblue" stroke="midnightblue" points="281.61,-377.93 272.61,-372.33 276.16,-382.32 281.61,-377.93"/>
</g>
<!-- Node45&#45;&gt;Node19 -->
<g id="edge46" class="edge">
<title>Node45&#45;&gt;Node19</title>
<path fill="none" stroke="midnightblue" d="M1370.97,-414.27C1340.31,-397.21 1279,-356.29 1279,-302 1279,-302 1279,-302 1279,-238.5 1279,-204.18 1273.69,-164.43 1270.14,-141.65"/>
<polygon fill="midnightblue" stroke="midnightblue" points="1273.57,-140.97 1268.52,-131.66 1266.66,-142.09 1273.57,-140.97"/>
</g>
<!-- Node48&#45;&gt;Node10 -->
<g id="edge53" class="edge">
<title>Node48&#45;&gt;Node10</title>
<path fill="none" stroke="midnightblue" d="M917.5,-229.82C920.72,-211.26 928.32,-167.34 932.71,-141.97"/>
<polygon fill="midnightblue" stroke="midnightblue" points="936.22,-142.23 934.48,-131.78 929.32,-141.04 936.22,-142.23"/>
</g>
<!-- Node48&#45;&gt;Node12 -->
<g id="edge52" class="edge">
<title>Node48&#45;&gt;Node12</title>
<path fill="none" stroke="midnightblue" d="M922.8,-229.99C936.74,-212.34 969.16,-170.22 992,-132 1001.16,-116.66 1010.01,-98.34 1016.07,-85.06"/>
<polygon fill="midnightblue" stroke="midnightblue" points="1019.39,-86.2 1020.28,-75.65 1013,-83.34 1019.39,-86.2"/>
</g>
<!-- Node48&#45;&gt;Node46 -->
<g id="edge51" class="edge">
<title>Node48&#45;&gt;Node46</title>
<path fill="none" stroke="midnightblue" d="M930.9,-229.98C947.97,-220.21 976.16,-204.08 996.26,-192.58"/>
<polygon fill="midnightblue" stroke="midnightblue" points="998.19,-195.51 1005.13,-187.51 994.71,-189.44 998.19,-195.51"/>
</g>
<!-- Node49 -->
<g id="node33" class="node">
<title>Node49</title>
<g id="a_node33"><a xlink:href="numbering_8h.html" target="_top" xlink:title=" ">
<polygon fill="none" stroke="black" points="709,-168.5 709,-187.5 787,-187.5 787,-168.5 709,-168.5"/>
<text text-anchor="middle" x="748" y="-175.5" font-family="Helvetica,sans-Serif" font-size="10.00">numbering.h</text>
</a>
</g>
</g>
<!-- Node48&#45;&gt;Node49 -->
<g id="edge54" class="edge">
<title>Node48&#45;&gt;Node49</title>
<path fill="none" stroke="midnightblue" d="M891.93,-229.98C862.99,-219.72 814.24,-202.46 781.6,-190.9"/>
<polygon fill="midnightblue" stroke="midnightblue" points="782.62,-187.55 772.03,-187.51 780.28,-194.15 782.62,-187.55"/>
</g>
<!-- Node49&#45;&gt;Node12 -->
<g id="edge56" class="edge">
<title>Node49&#45;&gt;Node12</title>
<path fill="none" stroke="midnightblue" d="M787.4,-169.58C848.33,-158 959.24,-136.51 967,-132 986.8,-120.49 1003.24,-99.61 1013.3,-84.62"/>
<polygon fill="midnightblue" stroke="midnightblue" points="1016.52,-86.08 1018.96,-75.77 1010.62,-82.31 1016.52,-86.08"/>
</g>
<!-- Node49&#45;&gt;Node13 -->
<g id="edge57" class="edge">
<title>Node49&#45;&gt;Node13</title>
<path fill="none" stroke="midnightblue" d="M739.41,-168.26C725.52,-154.57 696.79,-127.98 668,-112 640.78,-96.89 607.59,-85.56 581.43,-78.04"/>
<polygon fill="midnightblue" stroke="midnightblue" points="582.34,-74.67 571.77,-75.35 580.46,-81.41 582.34,-74.67"/>
</g>
<!-- Node49&#45;&gt;Node32 -->
<g id="edge58" class="edge">
<title>Node49&#45;&gt;Node32</title>
<path fill="none" stroke="midnightblue" d="M748,-168.08C748,-161.01 748,-150.86 748,-141.99"/>
<polygon fill="midnightblue" stroke="midnightblue" points="751.5,-141.75 748,-131.75 744.5,-141.75 751.5,-141.75"/>
</g>
<!-- Node49&#45;&gt;Node24 -->
<g id="edge55" class="edge">
<title>Node49&#45;&gt;Node24</title>
<path fill="none" stroke="midnightblue" d="M726.45,-168.44C703.97,-159.52 668.51,-145.44 643.02,-135.32"/>
<polygon fill="midnightblue" stroke="midnightblue" points="644.03,-131.95 633.45,-131.52 641.45,-138.46 644.03,-131.95"/>
</g>
<!-- Node50&#45;&gt;Node8 -->
<g id="edge60" class="edge">
<title>Node50&#45;&gt;Node8</title>
<path fill="none" stroke="midnightblue" d="M611.02,-470.33C550.46,-427.37 369.35,-298.91 307.77,-255.23"/>
<polygon fill="midnightblue" stroke="midnightblue" points="309.44,-252.13 299.26,-249.2 305.39,-257.84 309.44,-252.13"/>
</g>
<!-- Node51&#45;&gt;Node5 -->
<g id="edge63" class="edge">
<title>Node51&#45;&gt;Node5</title>
<path fill="none" stroke="midnightblue" d="M807.31,-354.14C722.54,-341.84 554.19,-317.41 482.08,-306.95"/>
<polygon fill="midnightblue" stroke="midnightblue" points="482.16,-303.42 471.76,-305.45 481.15,-310.35 482.16,-303.42"/>
</g>
<!-- Node51&#45;&gt;Node42 -->
<g id="edge62" class="edge">
<title>Node51&#45;&gt;Node42</title>
<path fill="none" stroke="midnightblue" d="M908.78,-350.31C959.13,-339.21 1035.49,-322.39 1083.51,-311.8"/>
<polygon fill="midnightblue" stroke="midnightblue" points="1084.3,-315.22 1093.31,-309.64 1082.79,-308.38 1084.3,-315.22"/>
</g>
<!-- Node51&#45;&gt;Node49 -->
<g id="edge64" class="edge">
<title>Node51&#45;&gt;Node49</title>
<path fill="none" stroke="midnightblue" d="M853.17,-347.38C843.93,-321.48 822.04,-265.24 793,-224 785.4,-213.21 775.1,-202.69 766.27,-194.54"/>
<polygon fill="midnightblue" stroke="midnightblue" points="768.48,-191.83 758.69,-187.78 763.82,-197.05 768.48,-191.83"/>
</g>
<!-- Node52&#45;&gt;Node12 -->
<g id="edge70" class="edge">
<title>Node52&#45;&gt;Node12</title>
<path fill="none" stroke="midnightblue" d="M1108.78,-168.37C1093.46,-150.05 1057.5,-107.05 1037.68,-83.36"/>
<polygon fill="midnightblue" stroke="midnightblue" points="1040.29,-81.02 1031.19,-75.59 1034.92,-85.51 1040.29,-81.02"/>
</g>
<!-- Node52&#45;&gt;Node19 -->
<g id="edge66" class="edge">
<title>Node52&#45;&gt;Node19</title>
<path fill="none" stroke="midnightblue" d="M1139.93,-168.44C1165.22,-159.4 1205.3,-145.06 1233.68,-134.92"/>
<polygon fill="midnightblue" stroke="midnightblue" points="1234.95,-138.18 1243.19,-131.52 1232.59,-131.59 1234.95,-138.18"/>
</g>
<!-- Node31 -->
<g id="node37" class="node">
<title>Node31</title>
<g id="a_node37"><a xlink:href="narrow_8h.html" target="_top" xlink:title=" ">
<polygon fill="none" stroke="black" points="798.5,-112.5 798.5,-131.5 857.5,-131.5 857.5,-112.5 798.5,-112.5"/>
<text text-anchor="middle" x="828" y="-119.5" font-family="Helvetica,sans-Serif" font-size="10.00">narrow.h</text>
</a>
</g>
</g>
<!-- Node52&#45;&gt;Node31 -->
<g id="edge67" class="edge">
<title>Node52&#45;&gt;Node31</title>
<path fill="none" stroke="midnightblue" d="M1070.37,-168.44C1014.46,-157.96 920.65,-140.37 867.63,-130.43"/>
<polygon fill="midnightblue" stroke="midnightblue" points="868.07,-126.95 857.59,-128.55 866.78,-133.83 868.07,-126.95"/>
</g>
<!-- Node31&#45;&gt;Node13 -->
<g id="edge69" class="edge">
<title>Node31&#45;&gt;Node13</title>
<path fill="none" stroke="midnightblue" d="M798.16,-113.77C795.41,-113.15 792.66,-112.55 790,-112 717.46,-96.97 632.57,-82.5 581.88,-74.2"/>
<polygon fill="midnightblue" stroke="midnightblue" points="582.34,-70.72 571.9,-72.57 581.21,-77.63 582.34,-70.72"/>
</g>
<!-- Node31&#45;&gt;Node16 -->
<g id="edge68" class="edge">
<title>Node31&#45;&gt;Node16</title>
<path fill="none" stroke="midnightblue" d="M798.22,-112.91C726.85,-93.53 545.91,-44.38 464.18,-22.19"/>
<polygon fill="midnightblue" stroke="midnightblue" points="465.06,-18.8 454.49,-19.55 463.22,-25.55 465.06,-18.8"/>
</g>
<!-- Node53&#45;&gt;Node12 -->
<g id="edge72" class="edge">
<title>Node53&#45;&gt;Node12</title>
<path fill="none" stroke="midnightblue" d="M1400.07,-224.25C1423.5,-210.76 1450.36,-189.44 1436,-168 1393.38,-104.36 1148,-77.46 1057.51,-69.61"/>
<polygon fill="midnightblue" stroke="midnightblue" points="1057.77,-66.12 1047.51,-68.76 1057.18,-73.09 1057.77,-66.12"/>
</g>
<!-- Node54 -->
<g id="node39" class="node">
<title>Node54</title>
<g id="a_node39"><a xlink:href="decision__procedure_8h.html" target="_top" xlink:title=" ">
<polygon fill="none" stroke="black" points="1307,-168.5 1307,-187.5 1427,-187.5 1427,-168.5 1307,-168.5"/>
<text text-anchor="middle" x="1367" y="-175.5" font-family="Helvetica,sans-Serif" font-size="10.00">decision_procedure.h</text>
</a>
</g>
</g>
<!-- Node53&#45;&gt;Node54 -->
<g id="edge73" class="edge">
<title>Node53&#45;&gt;Node54</title>
<path fill="none" stroke="midnightblue" d="M1370.05,-224.4C1369.52,-216.47 1368.85,-206.46 1368.27,-197.86"/>
<polygon fill="midnightblue" stroke="midnightblue" points="1371.74,-197.4 1367.58,-187.66 1364.76,-197.87 1371.74,-197.4"/>
</g>
<!-- Node54&#45;&gt;Node11 -->
<g id="edge75" class="edge">
<title>Node54&#45;&gt;Node11</title>
<path fill="none" stroke="midnightblue" d="M1359.7,-168.19C1339.73,-144.85 1281.42,-81.44 1217,-56 1131.66,-22.29 1022.27,-13.81 968.62,-11.69"/>
<polygon fill="midnightblue" stroke="midnightblue" points="968.47,-8.18 958.36,-11.34 968.23,-15.18 968.47,-8.18"/>
</g>
<!-- Node54&#45;&gt;Node19 -->
<g id="edge74" class="edge">
<title>Node54&#45;&gt;Node19</title>
<path fill="none" stroke="midnightblue" d="M1350.93,-168.32C1335.04,-159.74 1310.49,-146.49 1292.04,-136.52"/>
<polygon fill="midnightblue" stroke="midnightblue" points="1293.49,-133.33 1283.03,-131.65 1290.16,-139.49 1293.49,-133.33"/>
</g>
<!-- Node55&#45;&gt;Node44 -->
<g id="edge77" class="edge">
<title>Node55&#45;&gt;Node44</title>
<path fill="none" stroke="midnightblue" d="M532.43,-537.48C531.86,-529.08 530.98,-515.98 530.25,-505.16"/>
<polygon fill="midnightblue" stroke="midnightblue" points="533.74,-504.75 529.57,-495.01 526.75,-505.22 533.74,-504.75"/>
</g>
</g>
</svg>
