<?xml version="1.0" encoding="UTF-8" standalone="no"?>
<!DOCTYPE svg PUBLIC "-//W3C//DTD SVG 1.1//EN"
 "http://www.w3.org/Graphics/SVG/1.1/DTD/svg11.dtd">
<!-- Generated by graphviz version 2.43.0 (0)
 -->
<!-- Title: /home/runner/work/cbmc&#45;documentation/cbmc&#45;documentation/src/solvers/smt2_incremental/smt_commands.h Pages: 1 -->
<svg width="1108pt" height="417pt"
 viewBox="0.00 0.00 1108.00 417.00" xmlns="http://www.w3.org/2000/svg" xmlns:xlink="http://www.w3.org/1999/xlink">
<g id="graph0" class="graph" transform="scale(1 1) rotate(0) translate(4 413)">
<title>/home/runner/work/cbmc&#45;documentation/cbmc&#45;documentation/src/solvers/smt2_incremental/smt_commands.h</title>
<!-- Node1 -->
<g id="node1" class="node">
<title>Node1</title>
<g id="a_node1"><a xlink:title=" ">
<polygon fill="#bfbfbf" stroke="black" points="515,-356.5 515,-408.5 715,-408.5 715,-356.5 515,-356.5"/>
<text text-anchor="start" x="523" y="-396.5" font-family="Helvetica,sans-Serif" font-size="10.00">/home/runner/work/cbmc</text>
<text text-anchor="start" x="523" y="-385.5" font-family="Helvetica,sans-Serif" font-size="10.00">&#45;documentation/cbmc&#45;documentation</text>
<text text-anchor="start" x="523" y="-374.5" font-family="Helvetica,sans-Serif" font-size="10.00">/src/solvers/smt2_incremental</text>
<text text-anchor="middle" x="615" y="-363.5" font-family="Helvetica,sans-Serif" font-size="10.00">/smt_commands.h</text>
</a>
</g>
</g>
<!-- Node2 -->
<g id="node2" class="node">
<title>Node2</title>
<g id="a_node2"><a xlink:href="smt2__incremental__decision__procedure_8cpp.html" target="_top" xlink:title=" ">
<polygon fill="none" stroke="black" points="218,-0.5 218,-52.5 446,-52.5 446,-0.5 218,-0.5"/>
<text text-anchor="start" x="226" y="-40.5" font-family="Helvetica,sans-Serif" font-size="10.00">/home/runner/work/cbmc</text>
<text text-anchor="start" x="226" y="-29.5" font-family="Helvetica,sans-Serif" font-size="10.00">&#45;documentation/cbmc&#45;documentation</text>
<text text-anchor="start" x="226" y="-18.5" font-family="Helvetica,sans-Serif" font-size="10.00">/src/solvers/smt2_incremental</text>
<text text-anchor="middle" x="332" y="-7.5" font-family="Helvetica,sans-Serif" font-size="10.00">/smt2_incremental_decision_procedure.cpp</text>
</a>
</g>
</g>
<!-- Node1&#45;&gt;Node2 -->
<g id="edge1" class="edge">
<title>Node1&#45;&gt;Node2</title>
<path fill="none" stroke="midnightblue" d="M504.86,-363.52C468.61,-354.28 429.34,-340.49 397,-320 308.38,-263.86 278.78,-240.24 242,-142 233.74,-119.94 231,-109.83 242,-89 249.95,-73.94 263.43,-61.86 277.58,-52.54"/>
<polygon fill="midnightblue" stroke="midnightblue" points="504.45,-367.02 514.99,-366 506.11,-360.22 504.45,-367.02"/>
</g>
<!-- Node3 -->
<g id="node3" class="node">
<title>Node3</title>
<g id="a_node3"><a xlink:href="smt__commands_8cpp.html" target="_top" xlink:title=" ">
<polygon fill="none" stroke="black" points="624,-267.5 624,-319.5 824,-319.5 824,-267.5 624,-267.5"/>
<text text-anchor="start" x="632" y="-307.5" font-family="Helvetica,sans-Serif" font-size="10.00">/home/runner/work/cbmc</text>
<text text-anchor="start" x="632" y="-296.5" font-family="Helvetica,sans-Serif" font-size="10.00">&#45;documentation/cbmc&#45;documentation</text>
<text text-anchor="start" x="632" y="-285.5" font-family="Helvetica,sans-Serif" font-size="10.00">/src/solvers/smt2_incremental</text>
<text text-anchor="middle" x="724" y="-274.5" font-family="Helvetica,sans-Serif" font-size="10.00">/smt_commands.cpp</text>
</a>
</g>
</g>
<!-- Node1&#45;&gt;Node3 -->
<g id="edge2" class="edge">
<title>Node1&#45;&gt;Node3</title>
<path fill="none" stroke="midnightblue" d="M654.55,-349.93C667.05,-339.96 680.69,-329.07 692.54,-319.61"/>
<polygon fill="midnightblue" stroke="midnightblue" points="652.16,-347.36 646.53,-356.34 656.53,-352.83 652.16,-347.36"/>
</g>
<!-- Node4 -->
<g id="node4" class="node">
<title>Node4</title>
<g id="a_node4"><a xlink:href="smt__object__size_8h.html" target="_top" xlink:title=" ">
<polygon fill="none" stroke="black" points="406,-267.5 406,-319.5 606,-319.5 606,-267.5 406,-267.5"/>
<text text-anchor="start" x="414" y="-307.5" font-family="Helvetica,sans-Serif" font-size="10.00">/home/runner/work/cbmc</text>
<text text-anchor="start" x="414" y="-296.5" font-family="Helvetica,sans-Serif" font-size="10.00">&#45;documentation/cbmc&#45;documentation</text>
<text text-anchor="start" x="414" y="-285.5" font-family="Helvetica,sans-Serif" font-size="10.00">/src/solvers/smt2_incremental</text>
<text text-anchor="middle" x="506" y="-274.5" font-family="Helvetica,sans-Serif" font-size="10.00">/smt_object_size.h</text>
</a>
</g>
</g>
<!-- Node1&#45;&gt;Node4 -->
<g id="edge3" class="edge">
<title>Node1&#45;&gt;Node4</title>
<path fill="none" stroke="midnightblue" d="M575.45,-349.93C562.95,-339.96 549.31,-329.07 537.46,-319.61"/>
<polygon fill="midnightblue" stroke="midnightblue" points="573.47,-352.83 583.47,-356.34 577.84,-347.36 573.47,-352.83"/>
</g>
<!-- Node12 -->
<g id="node12" class="node">
<title>Node12</title>
<g id="a_node12"><a xlink:href="smt__to__smt2__string_8cpp.html" target="_top" xlink:title=" ">
<polygon fill="none" stroke="black" points="842,-267.5 842,-319.5 1042,-319.5 1042,-267.5 842,-267.5"/>
<text text-anchor="start" x="850" y="-307.5" font-family="Helvetica,sans-Serif" font-size="10.00">/home/runner/work/cbmc</text>
<text text-anchor="start" x="850" y="-296.5" font-family="Helvetica,sans-Serif" font-size="10.00">&#45;documentation/cbmc&#45;documentation</text>
<text text-anchor="start" x="850" y="-285.5" font-family="Helvetica,sans-Serif" font-size="10.00">/src/solvers/smt2_incremental</text>
<text text-anchor="middle" x="942" y="-274.5" font-family="Helvetica,sans-Serif" font-size="10.00">/smt_to_smt2_string.cpp</text>
</a>
</g>
</g>
<!-- Node1&#45;&gt;Node12 -->
<g id="edge18" class="edge">
<title>Node1&#45;&gt;Node12</title>
<path fill="none" stroke="midnightblue" d="M718.97,-353.84C760.35,-342.83 807.62,-330.25 847.96,-319.52"/>
<polygon fill="midnightblue" stroke="midnightblue" points="717.91,-350.5 709.14,-356.45 719.71,-357.26 717.91,-350.5"/>
</g>
<!-- Node5 -->
<g id="node5" class="node">
<title>Node5</title>
<g id="a_node5"><a xlink:href="convert__expr__to__smt_8h.html" target="_top" xlink:title=" ">
<polygon fill="none" stroke="black" points="563,-89.5 563,-141.5 763,-141.5 763,-89.5 563,-89.5"/>
<text text-anchor="start" x="571" y="-129.5" font-family="Helvetica,sans-Serif" font-size="10.00">/home/runner/work/cbmc</text>
<text text-anchor="start" x="571" y="-118.5" font-family="Helvetica,sans-Serif" font-size="10.00">&#45;documentation/cbmc&#45;documentation</text>
<text text-anchor="start" x="571" y="-107.5" font-family="Helvetica,sans-Serif" font-size="10.00">/src/solvers/smt2_incremental</text>
<text text-anchor="middle" x="663" y="-96.5" font-family="Helvetica,sans-Serif" font-size="10.00">/convert_expr_to_smt.h</text>
</a>
</g>
</g>
<!-- Node4&#45;&gt;Node5 -->
<g id="edge4" class="edge">
<title>Node4&#45;&gt;Node5</title>
<path fill="none" stroke="midnightblue" d="M575.73,-262.26C590.04,-253.71 604.06,-243.3 615,-231 637.92,-205.23 650.94,-166.95 657.48,-141.86"/>
<polygon fill="midnightblue" stroke="midnightblue" points="573.76,-259.36 566.81,-267.35 577.23,-265.44 573.76,-259.36"/>
</g>
<!-- Node7 -->
<g id="node7" class="node">
<title>Node7</title>
<g id="a_node7"><a xlink:href="smt__object__size_8cpp.html" target="_top" xlink:title=" ">
<polygon fill="none" stroke="black" points="900,-0.5 900,-52.5 1100,-52.5 1100,-0.5 900,-0.5"/>
<text text-anchor="start" x="908" y="-40.5" font-family="Helvetica,sans-Serif" font-size="10.00">/home/runner/work/cbmc</text>
<text text-anchor="start" x="908" y="-29.5" font-family="Helvetica,sans-Serif" font-size="10.00">&#45;documentation/cbmc&#45;documentation</text>
<text text-anchor="start" x="908" y="-18.5" font-family="Helvetica,sans-Serif" font-size="10.00">/src/solvers/smt2_incremental</text>
<text text-anchor="middle" x="1000" y="-7.5" font-family="Helvetica,sans-Serif" font-size="10.00">/smt_object_size.cpp</text>
</a>
</g>
</g>
<!-- Node4&#45;&gt;Node7 -->
<g id="edge12" class="edge">
<title>Node4&#45;&gt;Node7</title>
<path fill="none" stroke="midnightblue" d="M575.07,-263.34C597.3,-253.52 621.89,-242.21 644,-231 760.99,-171.68 893.99,-92.33 959.35,-52.52"/>
<polygon fill="midnightblue" stroke="midnightblue" points="573.46,-260.22 565.71,-267.45 576.27,-266.63 573.46,-260.22"/>
</g>
<!-- Node9 -->
<g id="node9" class="node">
<title>Node9</title>
<g id="a_node9"><a xlink:href="smt2__incremental__decision__procedure_8h.html" target="_top" xlink:title=" ">
<polygon fill="none" stroke="black" points="251.5,-89.5 251.5,-141.5 468.5,-141.5 468.5,-89.5 251.5,-89.5"/>
<text text-anchor="start" x="259.5" y="-129.5" font-family="Helvetica,sans-Serif" font-size="10.00">/home/runner/work/cbmc</text>
<text text-anchor="start" x="259.5" y="-118.5" font-family="Helvetica,sans-Serif" font-size="10.00">&#45;documentation/cbmc&#45;documentation</text>
<text text-anchor="start" x="259.5" y="-107.5" font-family="Helvetica,sans-Serif" font-size="10.00">/src/solvers/smt2_incremental</text>
<text text-anchor="middle" x="360" y="-96.5" font-family="Helvetica,sans-Serif" font-size="10.00">/smt2_incremental_decision_procedure.h</text>
</a>
</g>
</g>
<!-- Node4&#45;&gt;Node9 -->
<g id="edge9" class="edge">
<title>Node4&#45;&gt;Node9</title>
<path fill="none" stroke="midnightblue" d="M434.55,-262.37C420.61,-253.88 407.19,-243.47 397,-231 375.86,-205.11 366.69,-166.86 362.79,-141.81"/>
<polygon fill="midnightblue" stroke="midnightblue" points="432.85,-265.43 443.26,-267.41 436.36,-259.37 432.85,-265.43"/>
</g>
<!-- Node11 -->
<g id="node11" class="node">
<title>Node11</title>
<g id="a_node11"><a xlink:href="type__size__mapping_8h.html" target="_top" xlink:title=" ">
<polygon fill="none" stroke="black" points="406,-178.5 406,-230.5 606,-230.5 606,-178.5 406,-178.5"/>
<text text-anchor="start" x="414" y="-218.5" font-family="Helvetica,sans-Serif" font-size="10.00">/home/runner/work/cbmc</text>
<text text-anchor="start" x="414" y="-207.5" font-family="Helvetica,sans-Serif" font-size="10.00">&#45;documentation/cbmc&#45;documentation</text>
<text text-anchor="start" x="414" y="-196.5" font-family="Helvetica,sans-Serif" font-size="10.00">/src/solvers/smt2_incremental</text>
<text text-anchor="middle" x="506" y="-185.5" font-family="Helvetica,sans-Serif" font-size="10.00">/type_size_mapping.h</text>
</a>
</g>
</g>
<!-- Node4&#45;&gt;Node11 -->
<g id="edge13" class="edge">
<title>Node4&#45;&gt;Node11</title>
<path fill="none" stroke="midnightblue" d="M506,-257.19C506,-248.28 506,-238.9 506,-230.61"/>
<polygon fill="midnightblue" stroke="midnightblue" points="502.5,-257.34 506,-267.34 509.5,-257.34 502.5,-257.34"/>
</g>
<!-- Node5&#45;&gt;Node2 -->
<g id="edge6" class="edge">
<title>Node5&#45;&gt;Node2</title>
<path fill="none" stroke="midnightblue" d="M558.02,-86.91C516.07,-75.88 468.11,-63.28 427.2,-52.52"/>
<polygon fill="midnightblue" stroke="midnightblue" points="557.14,-90.3 567.71,-89.45 558.92,-83.53 557.14,-90.3"/>
</g>
<!-- Node6 -->
<g id="node6" class="node">
<title>Node6</title>
<g id="a_node6"><a xlink:href="convert__expr__to__smt_8cpp.html" target="_top" xlink:title=" ">
<polygon fill="none" stroke="black" points="682,-0.5 682,-52.5 882,-52.5 882,-0.5 682,-0.5"/>
<text text-anchor="start" x="690" y="-40.5" font-family="Helvetica,sans-Serif" font-size="10.00">/home/runner/work/cbmc</text>
<text text-anchor="start" x="690" y="-29.5" font-family="Helvetica,sans-Serif" font-size="10.00">&#45;documentation/cbmc&#45;documentation</text>
<text text-anchor="start" x="690" y="-18.5" font-family="Helvetica,sans-Serif" font-size="10.00">/src/solvers/smt2_incremental</text>
<text text-anchor="middle" x="782" y="-7.5" font-family="Helvetica,sans-Serif" font-size="10.00">/convert_expr_to_smt.cpp</text>
</a>
</g>
</g>
<!-- Node5&#45;&gt;Node6 -->
<g id="edge5" class="edge">
<title>Node5&#45;&gt;Node6</title>
<path fill="none" stroke="midnightblue" d="M705.79,-83.22C719.54,-73.16 734.59,-62.16 747.66,-52.61"/>
<polygon fill="midnightblue" stroke="midnightblue" points="703.43,-80.61 697.42,-89.34 707.56,-86.26 703.43,-80.61"/>
</g>
<!-- Node5&#45;&gt;Node7 -->
<g id="edge7" class="edge">
<title>Node5&#45;&gt;Node7</title>
<path fill="none" stroke="midnightblue" d="M769.88,-86.91C812.59,-75.88 861.42,-63.28 903.08,-52.52"/>
<polygon fill="midnightblue" stroke="midnightblue" points="768.83,-83.56 760.02,-89.45 770.58,-90.34 768.83,-83.56"/>
</g>
<!-- Node8 -->
<g id="node8" class="node">
<title>Node8</title>
<g id="a_node8"><a xlink:href="type__size__mapping_8cpp.html" target="_top" xlink:title=" ">
<polygon fill="none" stroke="black" points="464,-0.5 464,-52.5 664,-52.5 664,-0.5 464,-0.5"/>
<text text-anchor="start" x="472" y="-40.5" font-family="Helvetica,sans-Serif" font-size="10.00">/home/runner/work/cbmc</text>
<text text-anchor="start" x="472" y="-29.5" font-family="Helvetica,sans-Serif" font-size="10.00">&#45;documentation/cbmc&#45;documentation</text>
<text text-anchor="start" x="472" y="-18.5" font-family="Helvetica,sans-Serif" font-size="10.00">/src/solvers/smt2_incremental</text>
<text text-anchor="middle" x="564" y="-7.5" font-family="Helvetica,sans-Serif" font-size="10.00">/type_size_mapping.cpp</text>
</a>
</g>
</g>
<!-- Node5&#45;&gt;Node8 -->
<g id="edge8" class="edge">
<title>Node5&#45;&gt;Node8</title>
<path fill="none" stroke="midnightblue" d="M626.76,-82.65C615.49,-72.75 603.24,-61.98 592.57,-52.61"/>
<polygon fill="midnightblue" stroke="midnightblue" points="624.54,-85.36 634.37,-89.34 629.16,-80.11 624.54,-85.36"/>
</g>
<!-- Node9&#45;&gt;Node2 -->
<g id="edge11" class="edge">
<title>Node9&#45;&gt;Node2</title>
<path fill="none" stroke="midnightblue" d="M348.82,-79.77C345.9,-70.69 342.81,-61.08 340.08,-52.61"/>
<polygon fill="midnightblue" stroke="midnightblue" points="345.51,-80.89 351.9,-89.34 352.17,-78.74 345.51,-80.89"/>
</g>
<!-- Node10 -->
<g id="node10" class="node">
<title>Node10</title>
<g id="a_node10"><a xlink:href="solver__factory_8cpp.html" target="_top" xlink:title=" ">
<polygon fill="none" stroke="black" points="0,-6 0,-47 200,-47 200,-6 0,-6"/>
<text text-anchor="start" x="8" y="-35" font-family="Helvetica,sans-Serif" font-size="10.00">/home/runner/work/cbmc</text>
<text text-anchor="start" x="8" y="-24" font-family="Helvetica,sans-Serif" font-size="10.00">&#45;documentation/cbmc&#45;documentation</text>
<text text-anchor="middle" x="100" y="-13" font-family="Helvetica,sans-Serif" font-size="10.00">/src/goto&#45;checker/solver_factory.cpp</text>
</a>
</g>
</g>
<!-- Node9&#45;&gt;Node10 -->
<g id="edge10" class="edge">
<title>Node9&#45;&gt;Node10</title>
<path fill="none" stroke="midnightblue" d="M275.57,-86.25C237.38,-73.47 193.17,-58.68 158.68,-47.13"/>
<polygon fill="midnightblue" stroke="midnightblue" points="274.55,-89.6 285.15,-89.45 276.77,-82.96 274.55,-89.6"/>
</g>
<!-- Node11&#45;&gt;Node2 -->
<g id="edge16" class="edge">
<title>Node11&#45;&gt;Node2</title>
<path fill="none" stroke="midnightblue" d="M505.45,-168.17C503.3,-143.4 496.7,-110.94 478,-89 464.53,-73.2 446.3,-61.37 427.3,-52.54"/>
<polygon fill="midnightblue" stroke="midnightblue" points="501.97,-168.51 506.13,-178.26 508.95,-168.05 501.97,-168.51"/>
</g>
<!-- Node11&#45;&gt;Node5 -->
<g id="edge14" class="edge">
<title>Node11&#45;&gt;Node5</title>
<path fill="none" stroke="midnightblue" d="M560.4,-173.35C579.09,-163 599.8,-151.52 617.69,-141.61"/>
<polygon fill="midnightblue" stroke="midnightblue" points="558.46,-170.43 551.41,-178.34 561.85,-176.55 558.46,-170.43"/>
</g>
<!-- Node11&#45;&gt;Node8 -->
<g id="edge17" class="edge">
<title>Node11&#45;&gt;Node8</title>
<path fill="none" stroke="midnightblue" d="M517.47,-168.69C528.75,-134.48 545.68,-83.1 555.71,-52.67"/>
<polygon fill="midnightblue" stroke="midnightblue" points="514.12,-167.69 514.31,-178.28 520.76,-169.88 514.12,-167.69"/>
</g>
<!-- Node11&#45;&gt;Node9 -->
<g id="edge15" class="edge">
<title>Node11&#45;&gt;Node9</title>
<path fill="none" stroke="midnightblue" d="M454.93,-173.07C437.68,-162.79 418.62,-151.43 402.13,-141.61"/>
<polygon fill="midnightblue" stroke="midnightblue" points="453.39,-176.22 463.77,-178.34 456.97,-170.21 453.39,-176.22"/>
</g>
</g>
</svg>
