<?xml version="1.0" encoding="UTF-8" standalone="no"?>
<!DOCTYPE svg PUBLIC "-//W3C//DTD SVG 1.1//EN"
 "http://www.w3.org/Graphics/SVG/1.1/DTD/svg11.dtd">
<!-- Generated by graphviz version 2.43.0 (0)
 -->
<!-- Title: /home/runner/work/cbmc&#45;documentation/cbmc&#45;documentation/src/solvers/smt2_incremental/smt_index.h Pages: 1 -->
<svg width="2350pt" height="595pt"
 viewBox="0.00 0.00 2350.00 595.00" xmlns="http://www.w3.org/2000/svg" xmlns:xlink="http://www.w3.org/1999/xlink">
<g id="graph0" class="graph" transform="scale(1 1) rotate(0) translate(4 591)">
<title>/home/runner/work/cbmc&#45;documentation/cbmc&#45;documentation/src/solvers/smt2_incremental/smt_index.h</title>
<!-- Node1 -->
<g id="node1" class="node">
<title>Node1</title>
<g id="a_node1"><a xlink:title=" ">
<polygon fill="#bfbfbf" stroke="black" points="2014,-534.5 2014,-586.5 2214,-586.5 2214,-534.5 2014,-534.5"/>
<text text-anchor="start" x="2022" y="-574.5" font-family="Helvetica,sans-Serif" font-size="10.00">/home/runner/work/cbmc</text>
<text text-anchor="start" x="2022" y="-563.5" font-family="Helvetica,sans-Serif" font-size="10.00">&#45;documentation/cbmc&#45;documentation</text>
<text text-anchor="start" x="2022" y="-552.5" font-family="Helvetica,sans-Serif" font-size="10.00">/src/solvers/smt2_incremental</text>
<text text-anchor="middle" x="2114" y="-541.5" font-family="Helvetica,sans-Serif" font-size="10.00">/smt_index.h</text>
</a>
</g>
</g>
<!-- Node2 -->
<g id="node2" class="node">
<title>Node2</title>
<g id="a_node2"><a xlink:href="smt__terms_8h.html" target="_top" xlink:title=" ">
<polygon fill="none" stroke="black" points="1227,-445.5 1227,-497.5 1427,-497.5 1427,-445.5 1227,-445.5"/>
<text text-anchor="start" x="1235" y="-485.5" font-family="Helvetica,sans-Serif" font-size="10.00">/home/runner/work/cbmc</text>
<text text-anchor="start" x="1235" y="-474.5" font-family="Helvetica,sans-Serif" font-size="10.00">&#45;documentation/cbmc&#45;documentation</text>
<text text-anchor="start" x="1235" y="-463.5" font-family="Helvetica,sans-Serif" font-size="10.00">/src/solvers/smt2_incremental</text>
<text text-anchor="middle" x="1327" y="-452.5" font-family="Helvetica,sans-Serif" font-size="10.00">/smt_terms.h</text>
</a>
</g>
</g>
<!-- Node1&#45;&gt;Node2 -->
<g id="edge1" class="edge">
<title>Node1&#45;&gt;Node2</title>
<path fill="none" stroke="midnightblue" d="M2003.55,-547.29C1850.21,-530.34 1575.05,-499.92 1427.3,-483.59"/>
<polygon fill="midnightblue" stroke="midnightblue" points="2003.6,-550.82 2013.93,-548.44 2004.37,-543.86 2003.6,-550.82"/>
</g>
<!-- Node14 -->
<g id="node14" class="node">
<title>Node14</title>
<g id="a_node14"><a xlink:href="smt__to__smt2__string_8cpp.html" target="_top" xlink:title=" ">
<polygon fill="none" stroke="black" points="1976,-267.5 1976,-319.5 2176,-319.5 2176,-267.5 1976,-267.5"/>
<text text-anchor="start" x="1984" y="-307.5" font-family="Helvetica,sans-Serif" font-size="10.00">/home/runner/work/cbmc</text>
<text text-anchor="start" x="1984" y="-296.5" font-family="Helvetica,sans-Serif" font-size="10.00">&#45;documentation/cbmc&#45;documentation</text>
<text text-anchor="start" x="1984" y="-285.5" font-family="Helvetica,sans-Serif" font-size="10.00">/src/solvers/smt2_incremental</text>
<text text-anchor="middle" x="2076" y="-274.5" font-family="Helvetica,sans-Serif" font-size="10.00">/smt_to_smt2_string.cpp</text>
</a>
</g>
</g>
<!-- Node1&#45;&gt;Node14 -->
<g id="edge53" class="edge">
<title>Node1&#45;&gt;Node14</title>
<path fill="none" stroke="midnightblue" d="M2108.89,-523.89C2101.1,-469.56 2086.43,-367.26 2079.63,-319.83"/>
<polygon fill="midnightblue" stroke="midnightblue" points="2105.47,-524.69 2110.36,-534.09 2112.4,-523.7 2105.47,-524.69"/>
</g>
<!-- Node29 -->
<g id="node29" class="node">
<title>Node29</title>
<g id="a_node29"><a xlink:href="smt__index_8cpp.html" target="_top" xlink:title=" ">
<polygon fill="none" stroke="black" points="2142,-445.5 2142,-497.5 2342,-497.5 2342,-445.5 2142,-445.5"/>
<text text-anchor="start" x="2150" y="-485.5" font-family="Helvetica,sans-Serif" font-size="10.00">/home/runner/work/cbmc</text>
<text text-anchor="start" x="2150" y="-474.5" font-family="Helvetica,sans-Serif" font-size="10.00">&#45;documentation/cbmc&#45;documentation</text>
<text text-anchor="start" x="2150" y="-463.5" font-family="Helvetica,sans-Serif" font-size="10.00">/src/solvers/smt2_incremental</text>
<text text-anchor="middle" x="2242" y="-452.5" font-family="Helvetica,sans-Serif" font-size="10.00">/smt_index.cpp</text>
</a>
</g>
</g>
<!-- Node1&#45;&gt;Node29 -->
<g id="edge52" class="edge">
<title>Node1&#45;&gt;Node29</title>
<path fill="none" stroke="midnightblue" d="M2159.6,-528.5C2174.51,-518.37 2190.87,-507.25 2205.06,-497.61"/>
<polygon fill="midnightblue" stroke="midnightblue" points="2157.33,-525.82 2151.02,-534.34 2161.26,-531.61 2157.33,-525.82"/>
</g>
<!-- Node3 -->
<g id="node3" class="node">
<title>Node3</title>
<g id="a_node3"><a xlink:href="smt__commands_8h.html" target="_top" xlink:title=" ">
<polygon fill="none" stroke="black" points="1080,-356.5 1080,-408.5 1280,-408.5 1280,-356.5 1080,-356.5"/>
<text text-anchor="start" x="1088" y="-396.5" font-family="Helvetica,sans-Serif" font-size="10.00">/home/runner/work/cbmc</text>
<text text-anchor="start" x="1088" y="-385.5" font-family="Helvetica,sans-Serif" font-size="10.00">&#45;documentation/cbmc&#45;documentation</text>
<text text-anchor="start" x="1088" y="-374.5" font-family="Helvetica,sans-Serif" font-size="10.00">/src/solvers/smt2_incremental</text>
<text text-anchor="middle" x="1180" y="-363.5" font-family="Helvetica,sans-Serif" font-size="10.00">/smt_commands.h</text>
</a>
</g>
</g>
<!-- Node2&#45;&gt;Node3 -->
<g id="edge2" class="edge">
<title>Node2&#45;&gt;Node3</title>
<path fill="none" stroke="midnightblue" d="M1275.58,-440.07C1258.21,-429.79 1239.02,-418.43 1222.42,-408.61"/>
<polygon fill="midnightblue" stroke="midnightblue" points="1274.09,-443.25 1284.48,-445.34 1277.66,-437.23 1274.09,-443.25"/>
</g>
<!-- Node4 -->
<g id="node4" class="node">
<title>Node4</title>
<g id="a_node4"><a xlink:href="smt__object__size_8h.html" target="_top" xlink:title=" ">
<polygon fill="none" stroke="black" points="862,-267.5 862,-319.5 1062,-319.5 1062,-267.5 862,-267.5"/>
<text text-anchor="start" x="870" y="-307.5" font-family="Helvetica,sans-Serif" font-size="10.00">/home/runner/work/cbmc</text>
<text text-anchor="start" x="870" y="-296.5" font-family="Helvetica,sans-Serif" font-size="10.00">&#45;documentation/cbmc&#45;documentation</text>
<text text-anchor="start" x="870" y="-285.5" font-family="Helvetica,sans-Serif" font-size="10.00">/src/solvers/smt2_incremental</text>
<text text-anchor="middle" x="962" y="-274.5" font-family="Helvetica,sans-Serif" font-size="10.00">/smt_object_size.h</text>
</a>
</g>
</g>
<!-- Node2&#45;&gt;Node4 -->
<g id="edge21" class="edge">
<title>Node2&#45;&gt;Node4</title>
<path fill="none" stroke="midnightblue" d="M1216.97,-458.23C1169.7,-449.48 1115.27,-434.52 1071,-409 1032,-386.52 998.24,-345.85 979,-319.53"/>
<polygon fill="midnightblue" stroke="midnightblue" points="1216.48,-461.7 1226.94,-460.01 1217.71,-454.81 1216.48,-461.7"/>
</g>
<!-- Node5 -->
<g id="node5" class="node">
<title>Node5</title>
<g id="a_node5"><a xlink:href="smt2__incremental__decision__procedure_8h.html" target="_top" xlink:title=" ">
<polygon fill="none" stroke="black" points="730.5,-89.5 730.5,-141.5 947.5,-141.5 947.5,-89.5 730.5,-89.5"/>
<text text-anchor="start" x="738.5" y="-129.5" font-family="Helvetica,sans-Serif" font-size="10.00">/home/runner/work/cbmc</text>
<text text-anchor="start" x="738.5" y="-118.5" font-family="Helvetica,sans-Serif" font-size="10.00">&#45;documentation/cbmc&#45;documentation</text>
<text text-anchor="start" x="738.5" y="-107.5" font-family="Helvetica,sans-Serif" font-size="10.00">/src/solvers/smt2_incremental</text>
<text text-anchor="middle" x="839" y="-96.5" font-family="Helvetica,sans-Serif" font-size="10.00">/smt2_incremental_decision_procedure.h</text>
</a>
</g>
</g>
<!-- Node2&#45;&gt;Node5 -->
<g id="edge22" class="edge">
<title>Node2&#45;&gt;Node5</title>
<path fill="none" stroke="midnightblue" d="M1216.77,-464.95C1068.8,-456.45 820.95,-438.04 791,-409 716.83,-337.08 721.12,-271.53 765,-178 771.81,-163.48 783.92,-151.2 796.4,-141.53"/>
<polygon fill="midnightblue" stroke="midnightblue" points="1216.62,-468.45 1226.81,-465.53 1217.02,-461.46 1216.62,-468.45"/>
</g>
<!-- Node7 -->
<g id="node7" class="node">
<title>Node7</title>
<g id="a_node7"><a xlink:href="smt2__incremental__decision__procedure_8cpp.html" target="_top" xlink:title=" ">
<polygon fill="none" stroke="black" points="872,-0.5 872,-52.5 1100,-52.5 1100,-0.5 872,-0.5"/>
<text text-anchor="start" x="880" y="-40.5" font-family="Helvetica,sans-Serif" font-size="10.00">/home/runner/work/cbmc</text>
<text text-anchor="start" x="880" y="-29.5" font-family="Helvetica,sans-Serif" font-size="10.00">&#45;documentation/cbmc&#45;documentation</text>
<text text-anchor="start" x="880" y="-18.5" font-family="Helvetica,sans-Serif" font-size="10.00">/src/solvers/smt2_incremental</text>
<text text-anchor="middle" x="986" y="-7.5" font-family="Helvetica,sans-Serif" font-size="10.00">/smt2_incremental_decision_procedure.cpp</text>
</a>
</g>
</g>
<!-- Node2&#45;&gt;Node7 -->
<g id="edge49" class="edge">
<title>Node2&#45;&gt;Node7</title>
<path fill="none" stroke="midnightblue" d="M1216.68,-458.72C1153.56,-449.69 1073.72,-434.34 1006,-409 932.32,-381.43 892.22,-388.19 853,-320 841.26,-299.58 838.53,-285.59 853,-267 892.98,-215.62 955.02,-282.38 995,-231 1035.61,-178.81 1012.09,-94.28 996.46,-52.51"/>
<polygon fill="midnightblue" stroke="midnightblue" points="1216.27,-462.2 1226.66,-460.12 1217.24,-455.27 1216.27,-462.2"/>
</g>
<!-- Node8 -->
<g id="node8" class="node">
<title>Node8</title>
<g id="a_node8"><a xlink:href="type__size__mapping_8h.html" target="_top" xlink:title=" ">
<polygon fill="none" stroke="black" points="786,-178.5 786,-230.5 986,-230.5 986,-178.5 786,-178.5"/>
<text text-anchor="start" x="794" y="-218.5" font-family="Helvetica,sans-Serif" font-size="10.00">/home/runner/work/cbmc</text>
<text text-anchor="start" x="794" y="-207.5" font-family="Helvetica,sans-Serif" font-size="10.00">&#45;documentation/cbmc&#45;documentation</text>
<text text-anchor="start" x="794" y="-196.5" font-family="Helvetica,sans-Serif" font-size="10.00">/src/solvers/smt2_incremental</text>
<text text-anchor="middle" x="886" y="-185.5" font-family="Helvetica,sans-Serif" font-size="10.00">/type_size_mapping.h</text>
</a>
</g>
</g>
<!-- Node2&#45;&gt;Node8 -->
<g id="edge23" class="edge">
<title>Node2&#45;&gt;Node8</title>
<path fill="none" stroke="midnightblue" d="M1216.76,-464.78C1075.55,-456.3 845.86,-438.18 820,-409 778.15,-361.76 794.82,-324.87 820,-267 826.12,-252.93 837.23,-240.61 848.61,-230.78"/>
<polygon fill="midnightblue" stroke="midnightblue" points="1216.58,-468.27 1226.77,-465.37 1216.99,-461.28 1216.58,-468.27"/>
</g>
<!-- Node9 -->
<g id="node9" class="node">
<title>Node9</title>
<g id="a_node9"><a xlink:href="convert__expr__to__smt_8h.html" target="_top" xlink:title=" ">
<polygon fill="none" stroke="black" points="1042,-89.5 1042,-141.5 1242,-141.5 1242,-89.5 1042,-89.5"/>
<text text-anchor="start" x="1050" y="-129.5" font-family="Helvetica,sans-Serif" font-size="10.00">/home/runner/work/cbmc</text>
<text text-anchor="start" x="1050" y="-118.5" font-family="Helvetica,sans-Serif" font-size="10.00">&#45;documentation/cbmc&#45;documentation</text>
<text text-anchor="start" x="1050" y="-107.5" font-family="Helvetica,sans-Serif" font-size="10.00">/src/solvers/smt2_incremental</text>
<text text-anchor="middle" x="1142" y="-96.5" font-family="Helvetica,sans-Serif" font-size="10.00">/convert_expr_to_smt.h</text>
</a>
</g>
</g>
<!-- Node2&#45;&gt;Node9 -->
<g id="edge35" class="edge">
<title>Node2&#45;&gt;Node9</title>
<path fill="none" stroke="midnightblue" d="M1326.54,-435.11C1324.65,-392.85 1317.1,-321.1 1289,-267 1261.89,-214.82 1210.74,-168.74 1176.51,-141.74"/>
<polygon fill="midnightblue" stroke="midnightblue" points="1323.04,-435.32 1326.91,-445.19 1330.04,-435.07 1323.04,-435.32"/>
</g>
<!-- Node2&#45;&gt;Node14 -->
<g id="edge51" class="edge">
<title>Node2&#45;&gt;Node14</title>
<path fill="none" stroke="midnightblue" d="M1437.27,-468.55C1630.12,-464.07 2012.49,-450.07 2057,-409 2081.29,-386.59 2082.25,-345.9 2079.81,-319.55"/>
<polygon fill="midnightblue" stroke="midnightblue" points="1437.02,-465.05 1427.1,-468.78 1437.18,-472.05 1437.02,-465.05"/>
</g>
<!-- Node15 -->
<g id="node15" class="node">
<title>Node15</title>
<g id="a_node15"><a xlink:href="smt__responses_8h.html" target="_top" xlink:title=" ">
<polygon fill="none" stroke="black" points="436,-178.5 436,-230.5 636,-230.5 636,-178.5 436,-178.5"/>
<text text-anchor="start" x="444" y="-218.5" font-family="Helvetica,sans-Serif" font-size="10.00">/home/runner/work/cbmc</text>
<text text-anchor="start" x="444" y="-207.5" font-family="Helvetica,sans-Serif" font-size="10.00">&#45;documentation/cbmc&#45;documentation</text>
<text text-anchor="start" x="444" y="-196.5" font-family="Helvetica,sans-Serif" font-size="10.00">/src/solvers/smt2_incremental</text>
<text text-anchor="middle" x="536" y="-185.5" font-family="Helvetica,sans-Serif" font-size="10.00">/smt_responses.h</text>
</a>
</g>
</g>
<!-- Node2&#45;&gt;Node15 -->
<g id="edge24" class="edge">
<title>Node2&#45;&gt;Node15</title>
<path fill="none" stroke="midnightblue" d="M1216.49,-469.49C1062.31,-466.4 791.88,-454.45 706,-409 628.49,-367.98 572.2,-275.32 548.47,-230.59"/>
<polygon fill="midnightblue" stroke="midnightblue" points="1216.87,-472.99 1226.93,-469.68 1217,-465.99 1216.87,-472.99"/>
</g>
<!-- Node21 -->
<g id="node21" class="node">
<title>Node21</title>
<g id="a_node21"><a xlink:href="construct__value__expr__from__smt_8cpp.html" target="_top" xlink:title=" ">
<polygon fill="none" stroke="black" points="1412,-356.5 1412,-408.5 1612,-408.5 1612,-356.5 1412,-356.5"/>
<text text-anchor="start" x="1420" y="-396.5" font-family="Helvetica,sans-Serif" font-size="10.00">/home/runner/work/cbmc</text>
<text text-anchor="start" x="1420" y="-385.5" font-family="Helvetica,sans-Serif" font-size="10.00">&#45;documentation/cbmc&#45;documentation</text>
<text text-anchor="start" x="1420" y="-374.5" font-family="Helvetica,sans-Serif" font-size="10.00">/src/solvers/smt2_incremental</text>
<text text-anchor="middle" x="1512" y="-363.5" font-family="Helvetica,sans-Serif" font-size="10.00">/construct_value_expr_from_smt.cpp</text>
</a>
</g>
</g>
<!-- Node2&#45;&gt;Node21 -->
<g id="edge34" class="edge">
<title>Node2&#45;&gt;Node21</title>
<path fill="none" stroke="midnightblue" d="M1389.61,-441.06C1412.02,-430.52 1437.05,-418.75 1458.61,-408.61"/>
<polygon fill="midnightblue" stroke="midnightblue" points="1388.07,-437.91 1380.51,-445.34 1391.05,-444.25 1388.07,-437.91"/>
</g>
<!-- Node22 -->
<g id="node22" class="node">
<title>Node22</title>
<g id="a_node22"><a xlink:href="smt__array__theory_8h.html" target="_top" xlink:title=" ">
<polygon fill="none" stroke="black" points="1336,-89.5 1336,-141.5 1536,-141.5 1536,-89.5 1336,-89.5"/>
<text text-anchor="start" x="1344" y="-129.5" font-family="Helvetica,sans-Serif" font-size="10.00">/home/runner/work/cbmc</text>
<text text-anchor="start" x="1344" y="-118.5" font-family="Helvetica,sans-Serif" font-size="10.00">&#45;documentation/cbmc&#45;documentation</text>
<text text-anchor="start" x="1344" y="-107.5" font-family="Helvetica,sans-Serif" font-size="10.00">/src/solvers/smt2_incremental</text>
<text text-anchor="middle" x="1436" y="-96.5" font-family="Helvetica,sans-Serif" font-size="10.00">/smt_array_theory.h</text>
</a>
</g>
</g>
<!-- Node2&#45;&gt;Node22 -->
<g id="edge36" class="edge">
<title>Node2&#45;&gt;Node22</title>
<path fill="none" stroke="midnightblue" d="M1334.83,-435.42C1347.62,-379.95 1374.93,-268.95 1408,-178 1412.45,-165.76 1418.3,-152.57 1423.51,-141.56"/>
<polygon fill="midnightblue" stroke="midnightblue" points="1331.35,-434.91 1332.54,-445.43 1338.18,-436.47 1331.35,-434.91"/>
</g>
<!-- Node24 -->
<g id="node24" class="node">
<title>Node24</title>
<g id="a_node24"><a xlink:href="smt__bit__vector__theory_8h.html" target="_top" xlink:title=" ">
<polygon fill="none" stroke="black" points="1848,-356.5 1848,-408.5 2048,-408.5 2048,-356.5 1848,-356.5"/>
<text text-anchor="start" x="1856" y="-396.5" font-family="Helvetica,sans-Serif" font-size="10.00">/home/runner/work/cbmc</text>
<text text-anchor="start" x="1856" y="-385.5" font-family="Helvetica,sans-Serif" font-size="10.00">&#45;documentation/cbmc&#45;documentation</text>
<text text-anchor="start" x="1856" y="-374.5" font-family="Helvetica,sans-Serif" font-size="10.00">/src/solvers/smt2_incremental</text>
<text text-anchor="middle" x="1948" y="-363.5" font-family="Helvetica,sans-Serif" font-size="10.00">/smt_bit_vector_theory.h</text>
</a>
</g>
</g>
<!-- Node2&#45;&gt;Node24 -->
<g id="edge41" class="edge">
<title>Node2&#45;&gt;Node24</title>
<path fill="none" stroke="midnightblue" d="M1437.27,-460.8C1541.31,-450.81 1701.41,-433.28 1839,-409 1841.87,-408.49 1844.78,-407.96 1847.71,-407.4"/>
<polygon fill="midnightblue" stroke="midnightblue" points="1436.69,-457.34 1427.07,-461.77 1437.36,-464.31 1436.69,-457.34"/>
</g>
<!-- Node26 -->
<g id="node26" class="node">
<title>Node26</title>
<g id="a_node26"><a xlink:href="smt__core__theory_8h.html" target="_top" xlink:title=" ">
<polygon fill="none" stroke="black" points="1554,-89.5 1554,-141.5 1754,-141.5 1754,-89.5 1554,-89.5"/>
<text text-anchor="start" x="1562" y="-129.5" font-family="Helvetica,sans-Serif" font-size="10.00">/home/runner/work/cbmc</text>
<text text-anchor="start" x="1562" y="-118.5" font-family="Helvetica,sans-Serif" font-size="10.00">&#45;documentation/cbmc&#45;documentation</text>
<text text-anchor="start" x="1562" y="-107.5" font-family="Helvetica,sans-Serif" font-size="10.00">/src/solvers/smt2_incremental</text>
<text text-anchor="middle" x="1654" y="-96.5" font-family="Helvetica,sans-Serif" font-size="10.00">/smt_core_theory.h</text>
</a>
</g>
</g>
<!-- Node2&#45;&gt;Node26 -->
<g id="edge44" class="edge">
<title>Node2&#45;&gt;Node26</title>
<path fill="none" stroke="midnightblue" d="M1346.7,-436.65C1361.06,-413.09 1381.67,-381.46 1403,-356 1474.76,-270.36 1574.31,-183.08 1623.7,-141.5"/>
<polygon fill="midnightblue" stroke="midnightblue" points="1343.68,-434.88 1341.51,-445.25 1349.67,-438.5 1343.68,-434.88"/>
</g>
<!-- Node28 -->
<g id="node28" class="node">
<title>Node28</title>
<g id="a_node28"><a xlink:href="smt__terms_8cpp.html" target="_top" xlink:title=" ">
<polygon fill="none" stroke="black" points="1630,-356.5 1630,-408.5 1830,-408.5 1830,-356.5 1630,-356.5"/>
<text text-anchor="start" x="1638" y="-396.5" font-family="Helvetica,sans-Serif" font-size="10.00">/home/runner/work/cbmc</text>
<text text-anchor="start" x="1638" y="-385.5" font-family="Helvetica,sans-Serif" font-size="10.00">&#45;documentation/cbmc&#45;documentation</text>
<text text-anchor="start" x="1638" y="-374.5" font-family="Helvetica,sans-Serif" font-size="10.00">/src/solvers/smt2_incremental</text>
<text text-anchor="middle" x="1730" y="-363.5" font-family="Helvetica,sans-Serif" font-size="10.00">/smt_terms.cpp</text>
</a>
</g>
</g>
<!-- Node2&#45;&gt;Node28 -->
<g id="edge50" class="edge">
<title>Node2&#45;&gt;Node28</title>
<path fill="none" stroke="midnightblue" d="M1436.96,-448.14C1492.25,-436.73 1560.24,-422.46 1621,-409 1623.94,-408.35 1626.93,-407.68 1629.94,-407.01"/>
<polygon fill="midnightblue" stroke="midnightblue" points="1436.23,-444.72 1427.14,-450.16 1437.64,-451.57 1436.23,-444.72"/>
</g>
<!-- Node3&#45;&gt;Node4 -->
<g id="edge3" class="edge">
<title>Node3&#45;&gt;Node4</title>
<path fill="none" stroke="midnightblue" d="M1107.88,-352.72C1080.98,-341.98 1050.68,-329.89 1024.7,-319.52"/>
<polygon fill="midnightblue" stroke="midnightblue" points="1106.65,-356 1117.24,-356.45 1109.25,-349.5 1106.65,-356"/>
</g>
<!-- Node3&#45;&gt;Node7 -->
<g id="edge18" class="edge">
<title>Node3&#45;&gt;Node7</title>
<path fill="none" stroke="midnightblue" d="M1258.49,-351C1270.68,-342.78 1281.66,-332.58 1289,-320 1322.78,-262.16 1311.41,-150.49 1251,-89 1245.31,-83.21 1169.28,-65.9 1100.12,-51.11"/>
<polygon fill="midnightblue" stroke="midnightblue" points="1256.51,-348.11 1249.88,-356.37 1260.22,-354.05 1256.51,-348.11"/>
</g>
<!-- Node13 -->
<g id="node13" class="node">
<title>Node13</title>
<g id="a_node13"><a xlink:href="smt__commands_8cpp.html" target="_top" xlink:title=" ">
<polygon fill="none" stroke="black" points="1080,-267.5 1080,-319.5 1280,-319.5 1280,-267.5 1080,-267.5"/>
<text text-anchor="start" x="1088" y="-307.5" font-family="Helvetica,sans-Serif" font-size="10.00">/home/runner/work/cbmc</text>
<text text-anchor="start" x="1088" y="-296.5" font-family="Helvetica,sans-Serif" font-size="10.00">&#45;documentation/cbmc&#45;documentation</text>
<text text-anchor="start" x="1088" y="-285.5" font-family="Helvetica,sans-Serif" font-size="10.00">/src/solvers/smt2_incremental</text>
<text text-anchor="middle" x="1180" y="-274.5" font-family="Helvetica,sans-Serif" font-size="10.00">/smt_commands.cpp</text>
</a>
</g>
</g>
<!-- Node3&#45;&gt;Node13 -->
<g id="edge19" class="edge">
<title>Node3&#45;&gt;Node13</title>
<path fill="none" stroke="midnightblue" d="M1180,-346.19C1180,-337.28 1180,-327.9 1180,-319.61"/>
<polygon fill="midnightblue" stroke="midnightblue" points="1176.5,-346.34 1180,-356.34 1183.5,-346.34 1176.5,-346.34"/>
</g>
<!-- Node3&#45;&gt;Node14 -->
<g id="edge20" class="edge">
<title>Node3&#45;&gt;Node14</title>
<path fill="none" stroke="midnightblue" d="M1290.11,-367.9C1326.06,-363.73 1366.2,-359.36 1403,-356 1636.35,-334.68 1696.36,-348.06 1929,-320 1944.17,-318.17 1960.16,-315.83 1975.78,-313.31"/>
<polygon fill="midnightblue" stroke="midnightblue" points="1289.61,-364.44 1280.09,-369.07 1290.42,-371.39 1289.61,-364.44"/>
</g>
<!-- Node4&#45;&gt;Node5 -->
<g id="edge4" class="edge">
<title>Node4&#45;&gt;Node5</title>
<path fill="none" stroke="midnightblue" d="M851.85,-279.57C822.88,-270.59 794.79,-255.66 777,-231 763.22,-211.9 767.94,-199.74 777,-178 782.83,-164 793.57,-151.56 804.49,-141.59"/>
<polygon fill="midnightblue" stroke="midnightblue" points="851.11,-283.01 861.69,-282.4 853.05,-276.28 851.11,-283.01"/>
</g>
<!-- Node4&#45;&gt;Node8 -->
<g id="edge7" class="edge">
<title>Node4&#45;&gt;Node8</title>
<path fill="none" stroke="midnightblue" d="M933.43,-259.79C924.99,-250.13 915.88,-239.71 907.93,-230.61"/>
<polygon fill="midnightblue" stroke="midnightblue" points="930.8,-262.11 940.02,-267.34 936.07,-257.5 930.8,-262.11"/>
</g>
<!-- Node4&#45;&gt;Node9 -->
<g id="edge16" class="edge">
<title>Node4&#45;&gt;Node9</title>
<path fill="none" stroke="midnightblue" d="M997.01,-260.33C1007.09,-250.95 1018.04,-240.63 1028,-231 1059.25,-200.77 1094.45,-165.17 1117.36,-141.79"/>
<polygon fill="midnightblue" stroke="midnightblue" points="994.46,-257.93 989.51,-267.29 999.22,-263.06 994.46,-257.93"/>
</g>
<!-- Node11 -->
<g id="node11" class="node">
<title>Node11</title>
<g id="a_node11"><a xlink:href="smt__object__size_8cpp.html" target="_top" xlink:title=" ">
<polygon fill="none" stroke="black" points="1118,-0.5 1118,-52.5 1318,-52.5 1318,-0.5 1118,-0.5"/>
<text text-anchor="start" x="1126" y="-40.5" font-family="Helvetica,sans-Serif" font-size="10.00">/home/runner/work/cbmc</text>
<text text-anchor="start" x="1126" y="-29.5" font-family="Helvetica,sans-Serif" font-size="10.00">&#45;documentation/cbmc&#45;documentation</text>
<text text-anchor="start" x="1126" y="-18.5" font-family="Helvetica,sans-Serif" font-size="10.00">/src/solvers/smt2_incremental</text>
<text text-anchor="middle" x="1218" y="-7.5" font-family="Helvetica,sans-Serif" font-size="10.00">/smt_object_size.cpp</text>
</a>
</g>
</g>
<!-- Node4&#45;&gt;Node11 -->
<g id="edge17" class="edge">
<title>Node4&#45;&gt;Node11</title>
<path fill="none" stroke="midnightblue" d="M1071.81,-265.93C1136.12,-244.12 1212.14,-206.06 1251,-142 1267.95,-114.05 1251.41,-76.99 1236.26,-52.71"/>
<polygon fill="midnightblue" stroke="midnightblue" points="1070.41,-262.71 1062,-269.17 1072.6,-269.36 1070.41,-262.71"/>
</g>
<!-- Node6 -->
<g id="node6" class="node">
<title>Node6</title>
<g id="a_node6"><a xlink:href="solver__factory_8cpp.html" target="_top" xlink:title=" ">
<polygon fill="none" stroke="black" points="436,-6 436,-47 636,-47 636,-6 436,-6"/>
<text text-anchor="start" x="444" y="-35" font-family="Helvetica,sans-Serif" font-size="10.00">/home/runner/work/cbmc</text>
<text text-anchor="start" x="444" y="-24" font-family="Helvetica,sans-Serif" font-size="10.00">&#45;documentation/cbmc&#45;documentation</text>
<text text-anchor="middle" x="536" y="-13" font-family="Helvetica,sans-Serif" font-size="10.00">/src/goto&#45;checker/solver_factory.cpp</text>
</a>
</g>
</g>
<!-- Node5&#45;&gt;Node6 -->
<g id="edge5" class="edge">
<title>Node5&#45;&gt;Node6</title>
<path fill="none" stroke="midnightblue" d="M742.02,-86.66C697.19,-73.78 645.01,-58.8 604.38,-47.13"/>
<polygon fill="midnightblue" stroke="midnightblue" points="741.19,-90.06 751.77,-89.45 743.12,-83.33 741.19,-90.06"/>
</g>
<!-- Node5&#45;&gt;Node7 -->
<g id="edge6" class="edge">
<title>Node5&#45;&gt;Node7</title>
<path fill="none" stroke="midnightblue" d="M890.42,-84.07C907.79,-73.79 926.98,-62.43 943.58,-52.61"/>
<polygon fill="midnightblue" stroke="midnightblue" points="888.34,-81.23 881.52,-89.34 891.91,-87.25 888.34,-81.23"/>
</g>
<!-- Node8&#45;&gt;Node5 -->
<g id="edge8" class="edge">
<title>Node8&#45;&gt;Node5</title>
<path fill="none" stroke="midnightblue" d="M867.55,-169.35C862.55,-160.1 857.24,-150.26 852.56,-141.61"/>
<polygon fill="midnightblue" stroke="midnightblue" points="864.57,-171.2 872.41,-178.34 870.73,-167.87 864.57,-171.2"/>
</g>
<!-- Node8&#45;&gt;Node7 -->
<g id="edge14" class="edge">
<title>Node8&#45;&gt;Node7</title>
<path fill="none" stroke="midnightblue" d="M930.24,-171.78C939.89,-163.07 949.23,-152.97 956,-142 973.06,-114.37 980.49,-77.23 983.68,-52.85"/>
<polygon fill="midnightblue" stroke="midnightblue" points="927.77,-169.28 922.47,-178.45 932.34,-174.59 927.77,-169.28"/>
</g>
<!-- Node8&#45;&gt;Node9 -->
<g id="edge9" class="edge">
<title>Node8&#45;&gt;Node9</title>
<path fill="none" stroke="midnightblue" d="M969.46,-175.14C1001.35,-164.3 1037.46,-152.03 1068.37,-141.52"/>
<polygon fill="midnightblue" stroke="midnightblue" points="968.04,-171.92 959.7,-178.45 970.3,-178.55 968.04,-171.92"/>
</g>
<!-- Node12 -->
<g id="node12" class="node">
<title>Node12</title>
<g id="a_node12"><a xlink:href="type__size__mapping_8cpp.html" target="_top" xlink:title=" ">
<polygon fill="none" stroke="black" points="654,-0.5 654,-52.5 854,-52.5 854,-0.5 654,-0.5"/>
<text text-anchor="start" x="662" y="-40.5" font-family="Helvetica,sans-Serif" font-size="10.00">/home/runner/work/cbmc</text>
<text text-anchor="start" x="662" y="-29.5" font-family="Helvetica,sans-Serif" font-size="10.00">&#45;documentation/cbmc&#45;documentation</text>
<text text-anchor="start" x="662" y="-18.5" font-family="Helvetica,sans-Serif" font-size="10.00">/src/solvers/smt2_incremental</text>
<text text-anchor="middle" x="754" y="-7.5" font-family="Helvetica,sans-Serif" font-size="10.00">/type_size_mapping.cpp</text>
</a>
</g>
</g>
<!-- Node8&#45;&gt;Node12 -->
<g id="edge15" class="edge">
<title>Node8&#45;&gt;Node12</title>
<path fill="none" stroke="midnightblue" d="M776.5,-183.7C754.7,-174.6 734.43,-161.33 721,-142 702.24,-114.98 719.51,-77.36 735.3,-52.72"/>
<polygon fill="midnightblue" stroke="midnightblue" points="775.32,-187 785.91,-187.35 777.85,-180.48 775.32,-187"/>
</g>
<!-- Node9&#45;&gt;Node7 -->
<g id="edge11" class="edge">
<title>Node9&#45;&gt;Node7</title>
<path fill="none" stroke="midnightblue" d="M1087.94,-84.35C1069.37,-74 1048.8,-62.52 1031.02,-52.61"/>
<polygon fill="midnightblue" stroke="midnightblue" points="1086.44,-87.52 1096.88,-89.34 1089.85,-81.41 1086.44,-87.52"/>
</g>
<!-- Node10 -->
<g id="node10" class="node">
<title>Node10</title>
<g id="a_node10"><a xlink:href="convert__expr__to__smt_8cpp.html" target="_top" xlink:title=" ">
<polygon fill="none" stroke="black" points="1554,-0.5 1554,-52.5 1754,-52.5 1754,-0.5 1554,-0.5"/>
<text text-anchor="start" x="1562" y="-40.5" font-family="Helvetica,sans-Serif" font-size="10.00">/home/runner/work/cbmc</text>
<text text-anchor="start" x="1562" y="-29.5" font-family="Helvetica,sans-Serif" font-size="10.00">&#45;documentation/cbmc&#45;documentation</text>
<text text-anchor="start" x="1562" y="-18.5" font-family="Helvetica,sans-Serif" font-size="10.00">/src/solvers/smt2_incremental</text>
<text text-anchor="middle" x="1654" y="-7.5" font-family="Helvetica,sans-Serif" font-size="10.00">/convert_expr_to_smt.cpp</text>
</a>
</g>
</g>
<!-- Node9&#45;&gt;Node10 -->
<g id="edge10" class="edge">
<title>Node9&#45;&gt;Node10</title>
<path fill="none" stroke="midnightblue" d="M1252.44,-98.64C1351.9,-84.17 1490.58,-63.5 1545,-53 1547.96,-52.43 1550.96,-51.83 1553.98,-51.22"/>
<polygon fill="midnightblue" stroke="midnightblue" points="1251.73,-95.21 1242.34,-100.11 1252.73,-102.13 1251.73,-95.21"/>
</g>
<!-- Node9&#45;&gt;Node11 -->
<g id="edge12" class="edge">
<title>Node9&#45;&gt;Node11</title>
<path fill="none" stroke="midnightblue" d="M1170.57,-81.79C1179.01,-72.13 1188.12,-61.71 1196.07,-52.61"/>
<polygon fill="midnightblue" stroke="midnightblue" points="1167.93,-79.5 1163.98,-89.34 1173.2,-84.11 1167.93,-79.5"/>
</g>
<!-- Node9&#45;&gt;Node12 -->
<g id="edge13" class="edge">
<title>Node9&#45;&gt;Node12</title>
<path fill="none" stroke="midnightblue" d="M1032.05,-90.61C980.66,-79.35 918.66,-65.65 863,-53 860.06,-52.33 857.08,-51.65 854.07,-50.96"/>
<polygon fill="midnightblue" stroke="midnightblue" points="1031.34,-94.03 1041.85,-92.75 1032.83,-87.19 1031.34,-94.03"/>
</g>
<!-- Node15&#45;&gt;Node7 -->
<g id="edge29" class="edge">
<title>Node15&#45;&gt;Node7</title>
<path fill="none" stroke="midnightblue" d="M591.59,-173.48C608.9,-163.77 627.93,-152.74 645,-142 679.86,-120.08 683.37,-105.74 721,-89 735.4,-82.59 806.85,-66.14 871.93,-51.87"/>
<polygon fill="midnightblue" stroke="midnightblue" points="589.75,-170.5 582.71,-178.42 593.15,-176.61 589.75,-170.5"/>
</g>
<!-- Node16 -->
<g id="node16" class="node">
<title>Node16</title>
<g id="a_node16"><a xlink:href="smt__solver__process_8h.html" target="_top" xlink:title=" ">
<polygon fill="none" stroke="black" points="436,-89.5 436,-141.5 636,-141.5 636,-89.5 436,-89.5"/>
<text text-anchor="start" x="444" y="-129.5" font-family="Helvetica,sans-Serif" font-size="10.00">/home/runner/work/cbmc</text>
<text text-anchor="start" x="444" y="-118.5" font-family="Helvetica,sans-Serif" font-size="10.00">&#45;documentation/cbmc&#45;documentation</text>
<text text-anchor="start" x="444" y="-107.5" font-family="Helvetica,sans-Serif" font-size="10.00">/src/solvers/smt2_incremental</text>
<text text-anchor="middle" x="536" y="-96.5" font-family="Helvetica,sans-Serif" font-size="10.00">/smt_solver_process.h</text>
</a>
</g>
</g>
<!-- Node15&#45;&gt;Node16 -->
<g id="edge25" class="edge">
<title>Node15&#45;&gt;Node16</title>
<path fill="none" stroke="midnightblue" d="M536,-168.19C536,-159.28 536,-149.9 536,-141.61"/>
<polygon fill="midnightblue" stroke="midnightblue" points="532.5,-168.34 536,-178.34 539.5,-168.34 532.5,-168.34"/>
</g>
<!-- Node18 -->
<g id="node18" class="node">
<title>Node18</title>
<g id="a_node18"><a xlink:href="smt__response__validation_8h.html" target="_top" xlink:title=" ">
<polygon fill="none" stroke="black" points="0,-89.5 0,-141.5 200,-141.5 200,-89.5 0,-89.5"/>
<text text-anchor="start" x="8" y="-129.5" font-family="Helvetica,sans-Serif" font-size="10.00">/home/runner/work/cbmc</text>
<text text-anchor="start" x="8" y="-118.5" font-family="Helvetica,sans-Serif" font-size="10.00">&#45;documentation/cbmc&#45;documentation</text>
<text text-anchor="start" x="8" y="-107.5" font-family="Helvetica,sans-Serif" font-size="10.00">/src/solvers/smt2_incremental</text>
<text text-anchor="middle" x="100" y="-96.5" font-family="Helvetica,sans-Serif" font-size="10.00">/smt_response_validation.h</text>
</a>
</g>
</g>
<!-- Node15&#45;&gt;Node18 -->
<g id="edge30" class="edge">
<title>Node15&#45;&gt;Node18</title>
<path fill="none" stroke="midnightblue" d="M425.91,-184.04C362.37,-172.5 281.03,-157.19 209,-142 206.05,-141.38 203.06,-140.74 200.05,-140.08"/>
<polygon fill="midnightblue" stroke="midnightblue" points="425.49,-187.52 435.95,-185.86 426.74,-180.63 425.49,-187.52"/>
</g>
<!-- Node20 -->
<g id="node20" class="node">
<title>Node20</title>
<g id="a_node20"><a xlink:href="smt__responses_8cpp.html" target="_top" xlink:title=" ">
<polygon fill="none" stroke="black" points="218,-89.5 218,-141.5 418,-141.5 418,-89.5 218,-89.5"/>
<text text-anchor="start" x="226" y="-129.5" font-family="Helvetica,sans-Serif" font-size="10.00">/home/runner/work/cbmc</text>
<text text-anchor="start" x="226" y="-118.5" font-family="Helvetica,sans-Serif" font-size="10.00">&#45;documentation/cbmc&#45;documentation</text>
<text text-anchor="start" x="226" y="-107.5" font-family="Helvetica,sans-Serif" font-size="10.00">/src/solvers/smt2_incremental</text>
<text text-anchor="middle" x="318" y="-96.5" font-family="Helvetica,sans-Serif" font-size="10.00">/smt_responses.cpp</text>
</a>
</g>
</g>
<!-- Node15&#45;&gt;Node20 -->
<g id="edge33" class="edge">
<title>Node15&#45;&gt;Node20</title>
<path fill="none" stroke="midnightblue" d="M463.88,-174.72C436.98,-163.98 406.68,-151.89 380.7,-141.52"/>
<polygon fill="midnightblue" stroke="midnightblue" points="462.65,-178 473.24,-178.45 465.25,-171.5 462.65,-178"/>
</g>
<!-- Node16&#45;&gt;Node6 -->
<g id="edge26" class="edge">
<title>Node16&#45;&gt;Node6</title>
<path fill="none" stroke="midnightblue" d="M536,-79.16C536,-68.21 536,-56.55 536,-47.08"/>
<polygon fill="midnightblue" stroke="midnightblue" points="532.5,-79.34 536,-89.34 539.5,-79.34 532.5,-79.34"/>
</g>
<!-- Node16&#45;&gt;Node7 -->
<g id="edge27" class="edge">
<title>Node16&#45;&gt;Node7</title>
<path fill="none" stroke="midnightblue" d="M646.3,-94.28C709.74,-82.52 790.92,-67.25 863,-53 865.89,-52.43 868.81,-51.85 871.76,-51.26"/>
<polygon fill="midnightblue" stroke="midnightblue" points="645.47,-90.88 636.27,-96.14 646.74,-97.76 645.47,-90.88"/>
</g>
<!-- Node17 -->
<g id="node17" class="node">
<title>Node17</title>
<g id="a_node17"><a xlink:href="smt__solver__process_8cpp.html" target="_top" xlink:title=" ">
<polygon fill="none" stroke="black" points="0,-0.5 0,-52.5 200,-52.5 200,-0.5 0,-0.5"/>
<text text-anchor="start" x="8" y="-40.5" font-family="Helvetica,sans-Serif" font-size="10.00">/home/runner/work/cbmc</text>
<text text-anchor="start" x="8" y="-29.5" font-family="Helvetica,sans-Serif" font-size="10.00">&#45;documentation/cbmc&#45;documentation</text>
<text text-anchor="start" x="8" y="-18.5" font-family="Helvetica,sans-Serif" font-size="10.00">/src/solvers/smt2_incremental</text>
<text text-anchor="middle" x="100" y="-7.5" font-family="Helvetica,sans-Serif" font-size="10.00">/smt_solver_process.cpp</text>
</a>
</g>
</g>
<!-- Node16&#45;&gt;Node17 -->
<g id="edge28" class="edge">
<title>Node16&#45;&gt;Node17</title>
<path fill="none" stroke="midnightblue" d="M426.04,-88.87C328.98,-69.94 302.2,-71.58 209,-53 206.05,-52.41 203.05,-51.8 200.03,-51.17"/>
<polygon fill="midnightblue" stroke="midnightblue" points="425.48,-92.33 435.97,-90.83 426.84,-85.46 425.48,-92.33"/>
</g>
<!-- Node18&#45;&gt;Node17 -->
<g id="edge32" class="edge">
<title>Node18&#45;&gt;Node17</title>
<path fill="none" stroke="midnightblue" d="M100,-79.19C100,-70.28 100,-60.9 100,-52.61"/>
<polygon fill="midnightblue" stroke="midnightblue" points="96.5,-79.34 100,-89.34 103.5,-79.34 96.5,-79.34"/>
</g>
<!-- Node19 -->
<g id="node19" class="node">
<title>Node19</title>
<g id="a_node19"><a xlink:href="smt__response__validation_8cpp.html" target="_top" xlink:title=" ">
<polygon fill="none" stroke="black" points="218,-0.5 218,-52.5 418,-52.5 418,-0.5 218,-0.5"/>
<text text-anchor="start" x="226" y="-40.5" font-family="Helvetica,sans-Serif" font-size="10.00">/home/runner/work/cbmc</text>
<text text-anchor="start" x="226" y="-29.5" font-family="Helvetica,sans-Serif" font-size="10.00">&#45;documentation/cbmc&#45;documentation</text>
<text text-anchor="start" x="226" y="-18.5" font-family="Helvetica,sans-Serif" font-size="10.00">/src/solvers/smt2_incremental</text>
<text text-anchor="middle" x="318" y="-7.5" font-family="Helvetica,sans-Serif" font-size="10.00">/smt_response_validation.cpp</text>
</a>
</g>
</g>
<!-- Node18&#45;&gt;Node19 -->
<g id="edge31" class="edge">
<title>Node18&#45;&gt;Node19</title>
<path fill="none" stroke="midnightblue" d="M172.12,-85.72C199.02,-74.98 229.32,-62.89 255.3,-52.52"/>
<polygon fill="midnightblue" stroke="midnightblue" points="170.75,-82.5 162.76,-89.45 173.35,-89 170.75,-82.5"/>
</g>
<!-- Node22&#45;&gt;Node7 -->
<g id="edge38" class="edge">
<title>Node22&#45;&gt;Node7</title>
<path fill="none" stroke="midnightblue" d="M1325.7,-94.28C1262.26,-82.52 1181.08,-67.25 1109,-53 1106.11,-52.43 1103.19,-51.85 1100.24,-51.26"/>
<polygon fill="midnightblue" stroke="midnightblue" points="1325.26,-97.76 1335.73,-96.14 1326.53,-90.88 1325.26,-97.76"/>
</g>
<!-- Node22&#45;&gt;Node10 -->
<g id="edge37" class="edge">
<title>Node22&#45;&gt;Node10</title>
<path fill="none" stroke="midnightblue" d="M1508.12,-85.72C1535.02,-74.98 1565.32,-62.89 1591.3,-52.52"/>
<polygon fill="midnightblue" stroke="midnightblue" points="1506.75,-82.5 1498.76,-89.45 1509.35,-89 1506.75,-82.5"/>
</g>
<!-- Node22&#45;&gt;Node19 -->
<g id="edge40" class="edge">
<title>Node22&#45;&gt;Node19</title>
<path fill="none" stroke="midnightblue" d="M1325.79,-97.59C1301.22,-94.3 1275.26,-91.2 1251,-89 885.92,-55.94 790.15,-102.97 427,-53 424.11,-52.6 421.19,-52.16 418.24,-51.69"/>
<polygon fill="midnightblue" stroke="midnightblue" points="1325.48,-101.08 1335.86,-98.96 1326.42,-94.15 1325.48,-101.08"/>
</g>
<!-- Node23 -->
<g id="node23" class="node">
<title>Node23</title>
<g id="a_node23"><a xlink:href="smt__array__theory_8cpp.html" target="_top" xlink:title=" ">
<polygon fill="none" stroke="black" points="1336,-0.5 1336,-52.5 1536,-52.5 1536,-0.5 1336,-0.5"/>
<text text-anchor="start" x="1344" y="-40.5" font-family="Helvetica,sans-Serif" font-size="10.00">/home/runner/work/cbmc</text>
<text text-anchor="start" x="1344" y="-29.5" font-family="Helvetica,sans-Serif" font-size="10.00">&#45;documentation/cbmc&#45;documentation</text>
<text text-anchor="start" x="1344" y="-18.5" font-family="Helvetica,sans-Serif" font-size="10.00">/src/solvers/smt2_incremental</text>
<text text-anchor="middle" x="1436" y="-7.5" font-family="Helvetica,sans-Serif" font-size="10.00">/smt_array_theory.cpp</text>
</a>
</g>
</g>
<!-- Node22&#45;&gt;Node23 -->
<g id="edge39" class="edge">
<title>Node22&#45;&gt;Node23</title>
<path fill="none" stroke="midnightblue" d="M1436,-79.19C1436,-70.28 1436,-60.9 1436,-52.61"/>
<polygon fill="midnightblue" stroke="midnightblue" points="1432.5,-79.34 1436,-89.34 1439.5,-79.34 1432.5,-79.34"/>
</g>
<!-- Node24&#45;&gt;Node10 -->
<g id="edge42" class="edge">
<title>Node24&#45;&gt;Node10</title>
<path fill="none" stroke="midnightblue" d="M1947.37,-345.89C1945.72,-322.43 1941.12,-291.61 1929,-267 1881.22,-169.95 1847.99,-155.92 1763,-89 1745.59,-75.29 1724.75,-62.74 1705.97,-52.61"/>
<polygon fill="midnightblue" stroke="midnightblue" points="1943.89,-346.32 1947.94,-356.11 1950.88,-345.93 1943.89,-346.32"/>
</g>
<!-- Node25 -->
<g id="node25" class="node">
<title>Node25</title>
<g id="a_node25"><a xlink:href="smt__bit__vector__theory_8cpp.html" target="_top" xlink:title=" ">
<polygon fill="none" stroke="black" points="1720,-267.5 1720,-319.5 1920,-319.5 1920,-267.5 1720,-267.5"/>
<text text-anchor="start" x="1728" y="-307.5" font-family="Helvetica,sans-Serif" font-size="10.00">/home/runner/work/cbmc</text>
<text text-anchor="start" x="1728" y="-296.5" font-family="Helvetica,sans-Serif" font-size="10.00">&#45;documentation/cbmc&#45;documentation</text>
<text text-anchor="start" x="1728" y="-285.5" font-family="Helvetica,sans-Serif" font-size="10.00">/src/solvers/smt2_incremental</text>
<text text-anchor="middle" x="1820" y="-274.5" font-family="Helvetica,sans-Serif" font-size="10.00">/smt_bit_vector_theory.cpp</text>
</a>
</g>
</g>
<!-- Node24&#45;&gt;Node25 -->
<g id="edge43" class="edge">
<title>Node24&#45;&gt;Node25</title>
<path fill="none" stroke="midnightblue" d="M1902.4,-350.5C1887.49,-340.37 1871.13,-329.25 1856.94,-319.61"/>
<polygon fill="midnightblue" stroke="midnightblue" points="1900.74,-353.61 1910.98,-356.34 1904.67,-347.82 1900.74,-353.61"/>
</g>
<!-- Node26&#45;&gt;Node7 -->
<g id="edge46" class="edge">
<title>Node26&#45;&gt;Node7</title>
<path fill="none" stroke="midnightblue" d="M1543.57,-88.88C1351.13,-59.51 1298.15,-80.31 1109,-53 1106.09,-52.58 1103.14,-52.13 1100.17,-51.66"/>
<polygon fill="midnightblue" stroke="midnightblue" points="1543.32,-92.38 1553.74,-90.46 1544.39,-85.46 1543.32,-92.38"/>
</g>
<!-- Node26&#45;&gt;Node10 -->
<g id="edge45" class="edge">
<title>Node26&#45;&gt;Node10</title>
<path fill="none" stroke="midnightblue" d="M1654,-79.19C1654,-70.28 1654,-60.9 1654,-52.61"/>
<polygon fill="midnightblue" stroke="midnightblue" points="1650.5,-79.34 1654,-89.34 1657.5,-79.34 1650.5,-79.34"/>
</g>
<!-- Node26&#45;&gt;Node11 -->
<g id="edge48" class="edge">
<title>Node26&#45;&gt;Node11</title>
<path fill="none" stroke="midnightblue" d="M1544.04,-88.87C1446.98,-69.94 1420.2,-71.58 1327,-53 1324.05,-52.41 1321.05,-51.8 1318.03,-51.17"/>
<polygon fill="midnightblue" stroke="midnightblue" points="1543.48,-92.33 1553.97,-90.83 1544.84,-85.46 1543.48,-92.33"/>
</g>
<!-- Node27 -->
<g id="node27" class="node">
<title>Node27</title>
<g id="a_node27"><a xlink:href="smt__core__theory_8cpp.html" target="_top" xlink:title=" ">
<polygon fill="none" stroke="black" points="1772,-0.5 1772,-52.5 1972,-52.5 1972,-0.5 1772,-0.5"/>
<text text-anchor="start" x="1780" y="-40.5" font-family="Helvetica,sans-Serif" font-size="10.00">/home/runner/work/cbmc</text>
<text text-anchor="start" x="1780" y="-29.5" font-family="Helvetica,sans-Serif" font-size="10.00">&#45;documentation/cbmc&#45;documentation</text>
<text text-anchor="start" x="1780" y="-18.5" font-family="Helvetica,sans-Serif" font-size="10.00">/src/solvers/smt2_incremental</text>
<text text-anchor="middle" x="1872" y="-7.5" font-family="Helvetica,sans-Serif" font-size="10.00">/smt_core_theory.cpp</text>
</a>
</g>
</g>
<!-- Node26&#45;&gt;Node27 -->
<g id="edge47" class="edge">
<title>Node26&#45;&gt;Node27</title>
<path fill="none" stroke="midnightblue" d="M1726.12,-85.72C1753.02,-74.98 1783.32,-62.89 1809.3,-52.52"/>
<polygon fill="midnightblue" stroke="midnightblue" points="1724.75,-82.5 1716.76,-89.45 1727.35,-89 1724.75,-82.5"/>
</g>
</g>
</svg>
