<?xml version="1.0" encoding="UTF-8" standalone="no"?>
<!DOCTYPE svg PUBLIC "-//W3C//DTD SVG 1.1//EN"
 "http://www.w3.org/Graphics/SVG/1.1/DTD/svg11.dtd">
<!-- Generated by graphviz version 2.43.0 (0)
 -->
<!-- Title: /home/runner/work/cbmc&#45;documentation/cbmc&#45;documentation/src/goto&#45;checker/solver_factory.h Pages: 1 -->
<svg width="1407pt" height="406pt"
 viewBox="0.00 0.00 1407.00 406.00" xmlns="http://www.w3.org/2000/svg" xmlns:xlink="http://www.w3.org/1999/xlink">
<g id="graph0" class="graph" transform="scale(1 1) rotate(0) translate(4 402)">
<title>/home/runner/work/cbmc&#45;documentation/cbmc&#45;documentation/src/goto&#45;checker/solver_factory.h</title>
<!-- Node1 -->
<g id="node1" class="node">
<title>Node1</title>
<g id="a_node1"><a xlink:title=" ">
<polygon fill="#bfbfbf" stroke="black" points="872,-356.5 872,-397.5 1072,-397.5 1072,-356.5 872,-356.5"/>
<text text-anchor="start" x="880" y="-385.5" font-family="Helvetica,sans-Serif" font-size="10.00">/home/runner/work/cbmc</text>
<text text-anchor="start" x="880" y="-374.5" font-family="Helvetica,sans-Serif" font-size="10.00">&#45;documentation/cbmc&#45;documentation</text>
<text text-anchor="middle" x="972" y="-363.5" font-family="Helvetica,sans-Serif" font-size="10.00">/src/goto&#45;checker/solver_factory.h</text>
</a>
</g>
</g>
<!-- Node2 -->
<g id="node2" class="node">
<title>Node2</title>
<g id="a_node2"><a xlink:href="goto__symex__property__decider_8h.html" target="_top" xlink:title=" ">
<polygon fill="none" stroke="black" points="763,-267.5 763,-319.5 963,-319.5 963,-267.5 763,-267.5"/>
<text text-anchor="start" x="771" y="-307.5" font-family="Helvetica,sans-Serif" font-size="10.00">/home/runner/work/cbmc</text>
<text text-anchor="start" x="771" y="-296.5" font-family="Helvetica,sans-Serif" font-size="10.00">&#45;documentation/cbmc&#45;documentation</text>
<text text-anchor="start" x="771" y="-285.5" font-family="Helvetica,sans-Serif" font-size="10.00">/src/goto&#45;checker/goto_symex</text>
<text text-anchor="middle" x="863" y="-274.5" font-family="Helvetica,sans-Serif" font-size="10.00">_property_decider.h</text>
</a>
</g>
</g>
<!-- Node1&#45;&gt;Node2 -->
<g id="edge1" class="edge">
<title>Node1&#45;&gt;Node2</title>
<path fill="none" stroke="midnightblue" d="M937.61,-350.29C924.57,-340.53 909.73,-329.44 896.74,-319.73"/>
<polygon fill="midnightblue" stroke="midnightblue" points="935.79,-353.29 945.89,-356.48 939.98,-347.69 935.79,-353.29"/>
</g>
<!-- Node17 -->
<g id="node17" class="node">
<title>Node17</title>
<g id="a_node17"><a xlink:href="solver__factory_8cpp.html" target="_top" xlink:title=" ">
<polygon fill="none" stroke="black" points="981,-273 981,-314 1181,-314 1181,-273 981,-273"/>
<text text-anchor="start" x="989" y="-302" font-family="Helvetica,sans-Serif" font-size="10.00">/home/runner/work/cbmc</text>
<text text-anchor="start" x="989" y="-291" font-family="Helvetica,sans-Serif" font-size="10.00">&#45;documentation/cbmc&#45;documentation</text>
<text text-anchor="middle" x="1081" y="-280" font-family="Helvetica,sans-Serif" font-size="10.00">/src/goto&#45;checker/solver_factory.cpp</text>
</a>
</g>
</g>
<!-- Node1&#45;&gt;Node17 -->
<g id="edge19" class="edge">
<title>Node1&#45;&gt;Node17</title>
<path fill="none" stroke="midnightblue" d="M1006.48,-350.22C1022.09,-338.55 1040.24,-324.97 1054.73,-314.14"/>
<polygon fill="midnightblue" stroke="midnightblue" points="1004.02,-347.69 998.11,-356.48 1008.21,-353.29 1004.02,-347.69"/>
</g>
<!-- Node3 -->
<g id="node3" class="node">
<title>Node3</title>
<g id="a_node3"><a xlink:href="multi__path__symex__checker_8h.html" target="_top" xlink:title=" ">
<polygon fill="none" stroke="black" points="327,-178.5 327,-230.5 527,-230.5 527,-178.5 327,-178.5"/>
<text text-anchor="start" x="335" y="-218.5" font-family="Helvetica,sans-Serif" font-size="10.00">/home/runner/work/cbmc</text>
<text text-anchor="start" x="335" y="-207.5" font-family="Helvetica,sans-Serif" font-size="10.00">&#45;documentation/cbmc&#45;documentation</text>
<text text-anchor="start" x="335" y="-196.5" font-family="Helvetica,sans-Serif" font-size="10.00">/src/goto&#45;checker/multi_path</text>
<text text-anchor="middle" x="427" y="-185.5" font-family="Helvetica,sans-Serif" font-size="10.00">_symex_checker.h</text>
</a>
</g>
</g>
<!-- Node2&#45;&gt;Node3 -->
<g id="edge2" class="edge">
<title>Node2&#45;&gt;Node3</title>
<path fill="none" stroke="midnightblue" d="M752.91,-273.04C689.37,-261.5 608.03,-246.19 536,-231 533.05,-230.38 530.06,-229.74 527.05,-229.08"/>
<polygon fill="midnightblue" stroke="midnightblue" points="752.49,-276.52 762.95,-274.86 753.74,-269.63 752.49,-276.52"/>
</g>
<!-- Node9 -->
<g id="node9" class="node">
<title>Node9</title>
<g id="a_node9"><a xlink:href="single__loop__incremental__symex__checker_8h.html" target="_top" xlink:title=" ">
<polygon fill="none" stroke="black" points="545,-178.5 545,-230.5 745,-230.5 745,-178.5 545,-178.5"/>
<text text-anchor="start" x="553" y="-218.5" font-family="Helvetica,sans-Serif" font-size="10.00">/home/runner/work/cbmc</text>
<text text-anchor="start" x="553" y="-207.5" font-family="Helvetica,sans-Serif" font-size="10.00">&#45;documentation/cbmc&#45;documentation</text>
<text text-anchor="start" x="553" y="-196.5" font-family="Helvetica,sans-Serif" font-size="10.00">/src/goto&#45;checker/single_loop</text>
<text text-anchor="middle" x="645" y="-185.5" font-family="Helvetica,sans-Serif" font-size="10.00">_incremental_symex_checker.h</text>
</a>
</g>
</g>
<!-- Node2&#45;&gt;Node9 -->
<g id="edge8" class="edge">
<title>Node2&#45;&gt;Node9</title>
<path fill="none" stroke="midnightblue" d="M790.88,-263.72C763.98,-252.98 733.68,-240.89 707.7,-230.52"/>
<polygon fill="midnightblue" stroke="midnightblue" points="789.65,-267 800.24,-267.45 792.25,-260.5 789.65,-267"/>
</g>
<!-- Node11 -->
<g id="node11" class="node">
<title>Node11</title>
<g id="a_node11"><a xlink:href="single__path__symex__checker_8h.html" target="_top" xlink:title=" ">
<polygon fill="none" stroke="black" points="763,-178.5 763,-230.5 963,-230.5 963,-178.5 763,-178.5"/>
<text text-anchor="start" x="771" y="-218.5" font-family="Helvetica,sans-Serif" font-size="10.00">/home/runner/work/cbmc</text>
<text text-anchor="start" x="771" y="-207.5" font-family="Helvetica,sans-Serif" font-size="10.00">&#45;documentation/cbmc&#45;documentation</text>
<text text-anchor="start" x="771" y="-196.5" font-family="Helvetica,sans-Serif" font-size="10.00">/src/goto&#45;checker/single_path</text>
<text text-anchor="middle" x="863" y="-185.5" font-family="Helvetica,sans-Serif" font-size="10.00">_symex_checker.h</text>
</a>
</g>
</g>
<!-- Node2&#45;&gt;Node11 -->
<g id="edge11" class="edge">
<title>Node2&#45;&gt;Node11</title>
<path fill="none" stroke="midnightblue" d="M863,-257.19C863,-248.28 863,-238.9 863,-230.61"/>
<polygon fill="midnightblue" stroke="midnightblue" points="859.5,-257.34 863,-267.34 866.5,-257.34 859.5,-257.34"/>
</g>
<!-- Node15 -->
<g id="node15" class="node">
<title>Node15</title>
<g id="a_node15"><a xlink:href="bmc__util_8cpp.html" target="_top" xlink:title=" ">
<polygon fill="none" stroke="black" points="981,-184 981,-225 1181,-225 1181,-184 981,-184"/>
<text text-anchor="start" x="989" y="-213" font-family="Helvetica,sans-Serif" font-size="10.00">/home/runner/work/cbmc</text>
<text text-anchor="start" x="989" y="-202" font-family="Helvetica,sans-Serif" font-size="10.00">&#45;documentation/cbmc&#45;documentation</text>
<text text-anchor="middle" x="1081" y="-191" font-family="Helvetica,sans-Serif" font-size="10.00">/src/goto&#45;checker/bmc_util.cpp</text>
</a>
</g>
</g>
<!-- Node2&#45;&gt;Node15 -->
<g id="edge17" class="edge">
<title>Node2&#45;&gt;Node15</title>
<path fill="none" stroke="midnightblue" d="M935.42,-263.6C967.07,-250.97 1003.37,-236.48 1031.8,-225.13"/>
<polygon fill="midnightblue" stroke="midnightblue" points="933.75,-260.5 925.76,-267.45 936.35,-267 933.75,-260.5"/>
</g>
<!-- Node16 -->
<g id="node16" class="node">
<title>Node16</title>
<g id="a_node16"><a xlink:href="goto__symex__property__decider_8cpp.html" target="_top" xlink:title=" ">
<polygon fill="none" stroke="black" points="1199,-178.5 1199,-230.5 1399,-230.5 1399,-178.5 1199,-178.5"/>
<text text-anchor="start" x="1207" y="-218.5" font-family="Helvetica,sans-Serif" font-size="10.00">/home/runner/work/cbmc</text>
<text text-anchor="start" x="1207" y="-207.5" font-family="Helvetica,sans-Serif" font-size="10.00">&#45;documentation/cbmc&#45;documentation</text>
<text text-anchor="start" x="1207" y="-196.5" font-family="Helvetica,sans-Serif" font-size="10.00">/src/goto&#45;checker/goto_symex</text>
<text text-anchor="middle" x="1299" y="-185.5" font-family="Helvetica,sans-Serif" font-size="10.00">_property_decider.cpp</text>
</a>
</g>
</g>
<!-- Node2&#45;&gt;Node16 -->
<g id="edge18" class="edge">
<title>Node2&#45;&gt;Node16</title>
<path fill="none" stroke="midnightblue" d="M972.96,-266.87C1070.02,-247.94 1096.8,-249.58 1190,-231 1192.95,-230.41 1195.95,-229.8 1198.97,-229.17"/>
<polygon fill="midnightblue" stroke="midnightblue" points="972.16,-263.46 963.03,-268.83 973.52,-270.33 972.16,-263.46"/>
</g>
<!-- Node4 -->
<g id="node4" class="node">
<title>Node4</title>
<g id="a_node4"><a xlink:href="cbmc__parse__options_8cpp.html" target="_top" xlink:title=" ">
<polygon fill="none" stroke="black" points="436,-95 436,-136 636,-136 636,-95 436,-95"/>
<text text-anchor="start" x="444" y="-124" font-family="Helvetica,sans-Serif" font-size="10.00">/home/runner/work/cbmc</text>
<text text-anchor="start" x="444" y="-113" font-family="Helvetica,sans-Serif" font-size="10.00">&#45;documentation/cbmc&#45;documentation</text>
<text text-anchor="middle" x="536" y="-102" font-family="Helvetica,sans-Serif" font-size="10.00">/src/cbmc/cbmc_parse_options.cpp</text>
</a>
</g>
</g>
<!-- Node3&#45;&gt;Node4 -->
<g id="edge3" class="edge">
<title>Node3&#45;&gt;Node4</title>
<path fill="none" stroke="midnightblue" d="M466.66,-171.85C481.65,-159.88 498.26,-146.62 511.47,-136.08"/>
<polygon fill="midnightblue" stroke="midnightblue" points="464.16,-169.36 458.53,-178.34 468.53,-174.83 464.16,-169.36"/>
</g>
<!-- Node5 -->
<g id="node5" class="node">
<title>Node5</title>
<g id="a_node5"><a xlink:href="multi__path__symex__checker_8cpp.html" target="_top" xlink:title=" ">
<polygon fill="none" stroke="black" points="0,-89.5 0,-141.5 200,-141.5 200,-89.5 0,-89.5"/>
<text text-anchor="start" x="8" y="-129.5" font-family="Helvetica,sans-Serif" font-size="10.00">/home/runner/work/cbmc</text>
<text text-anchor="start" x="8" y="-118.5" font-family="Helvetica,sans-Serif" font-size="10.00">&#45;documentation/cbmc&#45;documentation</text>
<text text-anchor="start" x="8" y="-107.5" font-family="Helvetica,sans-Serif" font-size="10.00">/src/goto&#45;checker/multi_path</text>
<text text-anchor="middle" x="100" y="-96.5" font-family="Helvetica,sans-Serif" font-size="10.00">_symex_checker.cpp</text>
</a>
</g>
</g>
<!-- Node3&#45;&gt;Node5 -->
<g id="edge4" class="edge">
<title>Node3&#45;&gt;Node5</title>
<path fill="none" stroke="midnightblue" d="M323.03,-175.84C281.65,-164.83 234.38,-152.25 194.04,-141.52"/>
<polygon fill="midnightblue" stroke="midnightblue" points="322.29,-179.26 332.86,-178.45 324.09,-172.5 322.29,-179.26"/>
</g>
<!-- Node6 -->
<g id="node6" class="node">
<title>Node6</title>
<g id="a_node6"><a xlink:href="java__multi__path__symex__checker_8h.html" target="_top" xlink:title=" ">
<polygon fill="none" stroke="black" points="218,-89.5 218,-141.5 418,-141.5 418,-89.5 218,-89.5"/>
<text text-anchor="start" x="226" y="-129.5" font-family="Helvetica,sans-Serif" font-size="10.00">/home/runner/work/cbmc</text>
<text text-anchor="start" x="226" y="-118.5" font-family="Helvetica,sans-Serif" font-size="10.00">&#45;documentation/cbmc&#45;documentation</text>
<text text-anchor="start" x="226" y="-107.5" font-family="Helvetica,sans-Serif" font-size="10.00">/jbmc/src/java_bytecode/java</text>
<text text-anchor="middle" x="318" y="-96.5" font-family="Helvetica,sans-Serif" font-size="10.00">_multi_path_symex_checker.h</text>
</a>
</g>
</g>
<!-- Node3&#45;&gt;Node6 -->
<g id="edge5" class="edge">
<title>Node3&#45;&gt;Node6</title>
<path fill="none" stroke="midnightblue" d="M387.45,-171.93C374.95,-161.96 361.31,-151.07 349.46,-141.61"/>
<polygon fill="midnightblue" stroke="midnightblue" points="385.47,-174.83 395.47,-178.34 389.84,-169.36 385.47,-174.83"/>
</g>
<!-- Node7 -->
<g id="node7" class="node">
<title>Node7</title>
<g id="a_node7"><a xlink:href="java__multi__path__symex__checker_8cpp.html" target="_top" xlink:title=" ">
<polygon fill="none" stroke="black" points="218,-0.5 218,-52.5 418,-52.5 418,-0.5 218,-0.5"/>
<text text-anchor="start" x="226" y="-40.5" font-family="Helvetica,sans-Serif" font-size="10.00">/home/runner/work/cbmc</text>
<text text-anchor="start" x="226" y="-29.5" font-family="Helvetica,sans-Serif" font-size="10.00">&#45;documentation/cbmc&#45;documentation</text>
<text text-anchor="start" x="226" y="-18.5" font-family="Helvetica,sans-Serif" font-size="10.00">/jbmc/src/java_bytecode/java</text>
<text text-anchor="middle" x="318" y="-7.5" font-family="Helvetica,sans-Serif" font-size="10.00">_multi_path_symex_checker.cpp</text>
</a>
</g>
</g>
<!-- Node6&#45;&gt;Node7 -->
<g id="edge6" class="edge">
<title>Node6&#45;&gt;Node7</title>
<path fill="none" stroke="midnightblue" d="M318,-79.19C318,-70.28 318,-60.9 318,-52.61"/>
<polygon fill="midnightblue" stroke="midnightblue" points="314.5,-79.34 318,-89.34 321.5,-79.34 314.5,-79.34"/>
</g>
<!-- Node8 -->
<g id="node8" class="node">
<title>Node8</title>
<g id="a_node8"><a xlink:href="jbmc__parse__options_8cpp.html" target="_top" xlink:title=" ">
<polygon fill="none" stroke="black" points="649.5,-6 649.5,-47 858.5,-47 858.5,-6 649.5,-6"/>
<text text-anchor="start" x="657.5" y="-35" font-family="Helvetica,sans-Serif" font-size="10.00">/home/runner/work/cbmc</text>
<text text-anchor="start" x="657.5" y="-24" font-family="Helvetica,sans-Serif" font-size="10.00">&#45;documentation/cbmc&#45;documentation</text>
<text text-anchor="middle" x="754" y="-13" font-family="Helvetica,sans-Serif" font-size="10.00">/jbmc/src/jbmc/jbmc_parse_options.cpp</text>
</a>
</g>
</g>
<!-- Node6&#45;&gt;Node8 -->
<g id="edge7" class="edge">
<title>Node6&#45;&gt;Node8</title>
<path fill="none" stroke="midnightblue" d="M428.26,-88.77C507.89,-72.1 587.57,-57.17 649.21,-46"/>
<polygon fill="midnightblue" stroke="midnightblue" points="427.11,-85.43 418.05,-90.92 428.55,-92.28 427.11,-85.43"/>
</g>
<!-- Node9&#45;&gt;Node4 -->
<g id="edge9" class="edge">
<title>Node9&#45;&gt;Node4</title>
<path fill="none" stroke="midnightblue" d="M605.34,-171.85C590.35,-159.88 573.74,-146.62 560.53,-136.08"/>
<polygon fill="midnightblue" stroke="midnightblue" points="603.47,-174.83 613.47,-178.34 607.84,-169.36 603.47,-174.83"/>
</g>
<!-- Node10 -->
<g id="node10" class="node">
<title>Node10</title>
<g id="a_node10"><a xlink:href="single__loop__incremental__symex__checker_8cpp.html" target="_top" xlink:title=" ">
<polygon fill="none" stroke="black" points="654,-89.5 654,-141.5 854,-141.5 854,-89.5 654,-89.5"/>
<text text-anchor="start" x="662" y="-129.5" font-family="Helvetica,sans-Serif" font-size="10.00">/home/runner/work/cbmc</text>
<text text-anchor="start" x="662" y="-118.5" font-family="Helvetica,sans-Serif" font-size="10.00">&#45;documentation/cbmc&#45;documentation</text>
<text text-anchor="start" x="662" y="-107.5" font-family="Helvetica,sans-Serif" font-size="10.00">/src/goto&#45;checker/single_loop</text>
<text text-anchor="middle" x="754" y="-96.5" font-family="Helvetica,sans-Serif" font-size="10.00">_incremental_symex_checker.cpp</text>
</a>
</g>
</g>
<!-- Node9&#45;&gt;Node10 -->
<g id="edge10" class="edge">
<title>Node9&#45;&gt;Node10</title>
<path fill="none" stroke="midnightblue" d="M684.55,-171.93C697.05,-161.96 710.69,-151.07 722.54,-141.61"/>
<polygon fill="midnightblue" stroke="midnightblue" points="682.16,-169.36 676.53,-178.34 686.53,-174.83 682.16,-169.36"/>
</g>
<!-- Node11&#45;&gt;Node4 -->
<g id="edge12" class="edge">
<title>Node11&#45;&gt;Node4</title>
<path fill="none" stroke="midnightblue" d="M758.93,-175.81C710.32,-162.88 653.6,-147.79 609.53,-136.06"/>
<polygon fill="midnightblue" stroke="midnightblue" points="758.29,-179.26 768.86,-178.45 760.09,-172.5 758.29,-179.26"/>
</g>
<!-- Node12 -->
<g id="node12" class="node">
<title>Node12</title>
<g id="a_node12"><a xlink:href="single__path__symex__checker_8cpp.html" target="_top" xlink:title=" ">
<polygon fill="none" stroke="black" points="872,-89.5 872,-141.5 1072,-141.5 1072,-89.5 872,-89.5"/>
<text text-anchor="start" x="880" y="-129.5" font-family="Helvetica,sans-Serif" font-size="10.00">/home/runner/work/cbmc</text>
<text text-anchor="start" x="880" y="-118.5" font-family="Helvetica,sans-Serif" font-size="10.00">&#45;documentation/cbmc&#45;documentation</text>
<text text-anchor="start" x="880" y="-107.5" font-family="Helvetica,sans-Serif" font-size="10.00">/src/goto&#45;checker/single_path</text>
<text text-anchor="middle" x="972" y="-96.5" font-family="Helvetica,sans-Serif" font-size="10.00">_symex_checker.cpp</text>
</a>
</g>
</g>
<!-- Node11&#45;&gt;Node12 -->
<g id="edge13" class="edge">
<title>Node11&#45;&gt;Node12</title>
<path fill="none" stroke="midnightblue" d="M902.55,-171.93C915.05,-161.96 928.69,-151.07 940.54,-141.61"/>
<polygon fill="midnightblue" stroke="midnightblue" points="900.16,-169.36 894.53,-178.34 904.53,-174.83 900.16,-169.36"/>
</g>
<!-- Node13 -->
<g id="node13" class="node">
<title>Node13</title>
<g id="a_node13"><a xlink:href="java__single__path__symex__checker_8h.html" target="_top" xlink:title=" ">
<polygon fill="none" stroke="black" points="1090,-89.5 1090,-141.5 1290,-141.5 1290,-89.5 1090,-89.5"/>
<text text-anchor="start" x="1098" y="-129.5" font-family="Helvetica,sans-Serif" font-size="10.00">/home/runner/work/cbmc</text>
<text text-anchor="start" x="1098" y="-118.5" font-family="Helvetica,sans-Serif" font-size="10.00">&#45;documentation/cbmc&#45;documentation</text>
<text text-anchor="start" x="1098" y="-107.5" font-family="Helvetica,sans-Serif" font-size="10.00">/jbmc/src/java_bytecode/java</text>
<text text-anchor="middle" x="1190" y="-96.5" font-family="Helvetica,sans-Serif" font-size="10.00">_single_path_symex_checker.h</text>
</a>
</g>
</g>
<!-- Node11&#45;&gt;Node13 -->
<g id="edge14" class="edge">
<title>Node11&#45;&gt;Node13</title>
<path fill="none" stroke="midnightblue" d="M966.97,-175.84C1008.35,-164.83 1055.62,-152.25 1095.96,-141.52"/>
<polygon fill="midnightblue" stroke="midnightblue" points="965.91,-172.5 957.14,-178.45 967.71,-179.26 965.91,-172.5"/>
</g>
<!-- Node13&#45;&gt;Node8 -->
<g id="edge16" class="edge">
<title>Node13&#45;&gt;Node8</title>
<path fill="none" stroke="midnightblue" d="M1079.74,-88.77C1000.11,-72.1 920.43,-57.17 858.79,-46"/>
<polygon fill="midnightblue" stroke="midnightblue" points="1079.45,-92.28 1089.95,-90.92 1080.89,-85.43 1079.45,-92.28"/>
</g>
<!-- Node14 -->
<g id="node14" class="node">
<title>Node14</title>
<g id="a_node14"><a xlink:href="java__single__path__symex__checker_8cpp.html" target="_top" xlink:title=" ">
<polygon fill="none" stroke="black" points="1090,-0.5 1090,-52.5 1290,-52.5 1290,-0.5 1090,-0.5"/>
<text text-anchor="start" x="1098" y="-40.5" font-family="Helvetica,sans-Serif" font-size="10.00">/home/runner/work/cbmc</text>
<text text-anchor="start" x="1098" y="-29.5" font-family="Helvetica,sans-Serif" font-size="10.00">&#45;documentation/cbmc&#45;documentation</text>
<text text-anchor="start" x="1098" y="-18.5" font-family="Helvetica,sans-Serif" font-size="10.00">/jbmc/src/java_bytecode/java</text>
<text text-anchor="middle" x="1190" y="-7.5" font-family="Helvetica,sans-Serif" font-size="10.00">_single_path_symex_checker.cpp</text>
</a>
</g>
</g>
<!-- Node13&#45;&gt;Node14 -->
<g id="edge15" class="edge">
<title>Node13&#45;&gt;Node14</title>
<path fill="none" stroke="midnightblue" d="M1190,-79.19C1190,-70.28 1190,-60.9 1190,-52.61"/>
<polygon fill="midnightblue" stroke="midnightblue" points="1186.5,-79.34 1190,-89.34 1193.5,-79.34 1186.5,-79.34"/>
</g>
</g>
</svg>
