<?xml version="1.0" encoding="UTF-8" standalone="no"?>
<!DOCTYPE svg PUBLIC "-//W3C//DTD SVG 1.1//EN"
 "http://www.w3.org/Graphics/SVG/1.1/DTD/svg11.dtd">
<!-- Generated by graphviz version 2.43.0 (0)
 -->
<!-- Title: /home/runner/work/cbmc&#45;documentation/cbmc&#45;documentation/src/util/invariant.cpp Pages: 1 -->
<svg width="605pt" height="162pt"
 viewBox="0.00 0.00 604.50 162.00" xmlns="http://www.w3.org/2000/svg" xmlns:xlink="http://www.w3.org/1999/xlink">
<g id="graph0" class="graph" transform="scale(1 1) rotate(0) translate(4 158)">
<title>/home/runner/work/cbmc&#45;documentation/cbmc&#45;documentation/src/util/invariant.cpp</title>
<!-- Node1 -->
<g id="node1" class="node">
<title>Node1</title>
<g id="a_node1"><a xlink:title=" ">
<polygon fill="#bfbfbf" stroke="black" points="212.5,-112.5 212.5,-153.5 412.5,-153.5 412.5,-112.5 212.5,-112.5"/>
<text text-anchor="start" x="220.5" y="-141.5" font-family="Helvetica,sans-Serif" font-size="10.00">/home/runner/work/cbmc</text>
<text text-anchor="start" x="220.5" y="-130.5" font-family="Helvetica,sans-Serif" font-size="10.00">&#45;documentation/cbmc&#45;documentation</text>
<text text-anchor="middle" x="312.5" y="-119.5" font-family="Helvetica,sans-Serif" font-size="10.00">/src/util/invariant.cpp</text>
</a>
</g>
</g>
<!-- Node2 -->
<g id="node2" class="node">
<title>Node2</title>
<g id="a_node2"><a xlink:href="src_2util_2invariant_8h.html" target="_top" xlink:title=" ">
<polygon fill="none" stroke="black" points="187,-56.5 187,-75.5 256,-75.5 256,-56.5 187,-56.5"/>
<text text-anchor="middle" x="221.5" y="-63.5" font-family="Helvetica,sans-Serif" font-size="10.00">invariant.h</text>
</a>
</g>
</g>
<!-- Node1&#45;&gt;Node2 -->
<g id="edge1" class="edge">
<title>Node1&#45;&gt;Node2</title>
<path fill="none" stroke="midnightblue" d="M285.2,-112.5C271.24,-102.53 254.56,-90.61 241.77,-81.48"/>
<polygon fill="midnightblue" stroke="midnightblue" points="243.79,-78.62 233.61,-75.65 239.72,-84.31 243.79,-78.62"/>
</g>
<!-- Node4 -->
<g id="node4" class="node">
<title>Node4</title>
<g id="a_node4"><a xlink:title=" ">
<polygon fill="none" stroke="#bfbfbf" points="130.5,-0.5 130.5,-19.5 186.5,-19.5 186.5,-0.5 130.5,-0.5"/>
<text text-anchor="middle" x="158.5" y="-7.5" font-family="Helvetica,sans-Serif" font-size="10.00">sstream</text>
</a>
</g>
</g>
<!-- Node1&#45;&gt;Node4 -->
<g id="edge11" class="edge">
<title>Node1&#45;&gt;Node4</title>
<path fill="none" stroke="midnightblue" d="M234.03,-112.39C213.67,-104.05 193.32,-92.34 178.5,-76 166.98,-63.3 162.1,-44.1 160.02,-29.86"/>
<polygon fill="midnightblue" stroke="midnightblue" points="163.48,-29.26 158.89,-19.71 156.52,-30.04 163.48,-29.26"/>
</g>
<!-- Node5 -->
<g id="node5" class="node">
<title>Node5</title>
<g id="a_node5"><a xlink:title=" ">
<polygon fill="none" stroke="#bfbfbf" points="292.5,-0.5 292.5,-19.5 336.5,-19.5 336.5,-0.5 292.5,-0.5"/>
<text text-anchor="middle" x="314.5" y="-7.5" font-family="Helvetica,sans-Serif" font-size="10.00">string</text>
</a>
</g>
</g>
<!-- Node1&#45;&gt;Node5 -->
<g id="edge12" class="edge">
<title>Node1&#45;&gt;Node5</title>
<path fill="none" stroke="midnightblue" d="M307.59,-112.31C304.39,-96.97 301.2,-75.13 303.5,-56 304.57,-47.11 306.79,-37.43 308.96,-29.34"/>
<polygon fill="midnightblue" stroke="midnightblue" points="312.39,-30.09 311.77,-19.51 305.66,-28.17 312.39,-30.09"/>
</g>
<!-- Node7 -->
<g id="node7" class="node">
<title>Node7</title>
<g id="a_node7"><a xlink:href="freer_8h.html" target="_top" xlink:title=" ">
<polygon fill="none" stroke="black" points="63.5,-56.5 63.5,-75.5 111.5,-75.5 111.5,-56.5 63.5,-56.5"/>
<text text-anchor="middle" x="87.5" y="-63.5" font-family="Helvetica,sans-Serif" font-size="10.00">freer.h</text>
</a>
</g>
</g>
<!-- Node1&#45;&gt;Node7 -->
<g id="edge6" class="edge">
<title>Node1&#45;&gt;Node7</title>
<path fill="none" stroke="midnightblue" d="M244.99,-112.5C204.35,-100.76 154.32,-86.3 121.7,-76.88"/>
<polygon fill="midnightblue" stroke="midnightblue" points="122.34,-73.42 111.76,-74.01 120.39,-80.15 122.34,-73.42"/>
</g>
<!-- Node9 -->
<g id="node9" class="node">
<title>Node9</title>
<g id="a_node9"><a xlink:title=" ">
<polygon fill="none" stroke="#bfbfbf" points="312.5,-56.5 312.5,-75.5 368.5,-75.5 368.5,-56.5 312.5,-56.5"/>
<text text-anchor="middle" x="340.5" y="-63.5" font-family="Helvetica,sans-Serif" font-size="10.00">iomanip</text>
</a>
</g>
</g>
<!-- Node1&#45;&gt;Node9 -->
<g id="edge9" class="edge">
<title>Node1&#45;&gt;Node9</title>
<path fill="none" stroke="midnightblue" d="M320.9,-112.5C324.66,-103.78 329.06,-93.56 332.74,-85.02"/>
<polygon fill="midnightblue" stroke="midnightblue" points="336.03,-86.22 336.77,-75.65 329.6,-83.45 336.03,-86.22"/>
</g>
<!-- Node10 -->
<g id="node10" class="node">
<title>Node10</title>
<g id="a_node10"><a xlink:title=" ">
<polygon fill="none" stroke="#bfbfbf" points="386.5,-56.5 386.5,-75.5 444.5,-75.5 444.5,-56.5 386.5,-56.5"/>
<text text-anchor="middle" x="415.5" y="-63.5" font-family="Helvetica,sans-Serif" font-size="10.00">memory</text>
</a>
</g>
</g>
<!-- Node1&#45;&gt;Node10 -->
<g id="edge10" class="edge">
<title>Node1&#45;&gt;Node10</title>
<path fill="none" stroke="midnightblue" d="M343.4,-112.5C359.35,-102.44 378.44,-90.38 392.98,-81.21"/>
<polygon fill="midnightblue" stroke="midnightblue" points="395.2,-83.95 401.79,-75.65 391.46,-78.03 395.2,-83.95"/>
</g>
<!-- Node11 -->
<g id="node11" class="node">
<title>Node11</title>
<g id="a_node11"><a xlink:title=" ">
<polygon fill="none" stroke="#bfbfbf" points="462.5,-56.5 462.5,-75.5 522.5,-75.5 522.5,-56.5 462.5,-56.5"/>
<text text-anchor="middle" x="492.5" y="-63.5" font-family="Helvetica,sans-Serif" font-size="10.00">iostream</text>
</a>
</g>
</g>
<!-- Node1&#45;&gt;Node11 -->
<g id="edge13" class="edge">
<title>Node1&#45;&gt;Node11</title>
<path fill="none" stroke="midnightblue" d="M366.51,-112.5C396.49,-101.67 432.86,-88.54 458.8,-79.17"/>
<polygon fill="midnightblue" stroke="midnightblue" points="460.32,-82.34 468.54,-75.65 457.94,-75.76 460.32,-82.34"/>
</g>
<!-- Node12 -->
<g id="node12" class="node">
<title>Node12</title>
<g id="a_node12"><a xlink:title=" ">
<polygon fill="none" stroke="#bfbfbf" points="540.5,-56.5 540.5,-75.5 596.5,-75.5 596.5,-56.5 540.5,-56.5"/>
<text text-anchor="middle" x="568.5" y="-63.5" font-family="Helvetica,sans-Serif" font-size="10.00">assert.h</text>
</a>
</g>
</g>
<!-- Node1&#45;&gt;Node12 -->
<g id="edge14" class="edge">
<title>Node1&#45;&gt;Node12</title>
<path fill="none" stroke="midnightblue" d="M389.31,-112.5C435.89,-100.67 493.29,-86.1 530.38,-76.68"/>
<polygon fill="midnightblue" stroke="midnightblue" points="531.44,-80.02 540.28,-74.17 529.72,-73.24 531.44,-80.02"/>
</g>
<!-- Node3 -->
<g id="node3" class="node">
<title>Node3</title>
<g id="a_node3"><a xlink:title=" ">
<polygon fill="none" stroke="#bfbfbf" points="63,-0.5 63,-19.5 112,-19.5 112,-0.5 63,-0.5"/>
<text text-anchor="middle" x="87.5" y="-7.5" font-family="Helvetica,sans-Serif" font-size="10.00">cstdlib</text>
</a>
</g>
</g>
<!-- Node2&#45;&gt;Node3 -->
<g id="edge2" class="edge">
<title>Node2&#45;&gt;Node3</title>
<path fill="none" stroke="midnightblue" d="M200.27,-56.44C178.12,-47.52 143.18,-33.44 118.06,-23.32"/>
<polygon fill="midnightblue" stroke="midnightblue" points="119.22,-20.01 108.63,-19.52 116.6,-26.5 119.22,-20.01"/>
</g>
<!-- Node2&#45;&gt;Node4 -->
<g id="edge3" class="edge">
<title>Node2&#45;&gt;Node4</title>
<path fill="none" stroke="midnightblue" d="M211.38,-56.32C201.97,-48.26 187.76,-36.08 176.43,-26.37"/>
<polygon fill="midnightblue" stroke="midnightblue" points="178.68,-23.68 168.81,-19.83 174.12,-29 178.68,-23.68"/>
</g>
<!-- Node2&#45;&gt;Node5 -->
<g id="edge4" class="edge">
<title>Node2&#45;&gt;Node5</title>
<path fill="none" stroke="midnightblue" d="M236.44,-56.32C251.09,-47.82 273.63,-34.73 290.74,-24.8"/>
<polygon fill="midnightblue" stroke="midnightblue" points="292.7,-27.7 299.6,-19.65 289.19,-21.65 292.7,-27.7"/>
</g>
<!-- Node6 -->
<g id="node6" class="node">
<title>Node6</title>
<g id="a_node6"><a xlink:title=" ">
<polygon fill="none" stroke="#bfbfbf" points="205,-0.5 205,-19.5 274,-19.5 274,-0.5 205,-0.5"/>
<text text-anchor="middle" x="239.5" y="-7.5" font-family="Helvetica,sans-Serif" font-size="10.00">type_traits</text>
</a>
</g>
</g>
<!-- Node2&#45;&gt;Node6 -->
<g id="edge5" class="edge">
<title>Node2&#45;&gt;Node6</title>
<path fill="none" stroke="midnightblue" d="M224.47,-56.08C226.88,-48.85 230.36,-38.41 233.37,-29.4"/>
<polygon fill="midnightblue" stroke="midnightblue" points="236.74,-30.34 236.58,-19.75 230.1,-28.13 236.74,-30.34"/>
</g>
<!-- Node7&#45;&gt;Node3 -->
<g id="edge7" class="edge">
<title>Node7&#45;&gt;Node3</title>
<path fill="none" stroke="midnightblue" d="M87.5,-56.08C87.5,-49.01 87.5,-38.86 87.5,-29.99"/>
<polygon fill="midnightblue" stroke="midnightblue" points="91,-29.75 87.5,-19.75 84,-29.75 91,-29.75"/>
</g>
<!-- Node8 -->
<g id="node8" class="node">
<title>Node8</title>
<g id="a_node8"><a xlink:title=" ">
<polygon fill="none" stroke="#bfbfbf" points="0,-0.5 0,-19.5 45,-19.5 45,-0.5 0,-0.5"/>
<text text-anchor="middle" x="22.5" y="-7.5" font-family="Helvetica,sans-Serif" font-size="10.00">utility</text>
</a>
</g>
</g>
<!-- Node7&#45;&gt;Node8 -->
<g id="edge8" class="edge">
<title>Node7&#45;&gt;Node8</title>
<path fill="none" stroke="midnightblue" d="M77.06,-56.32C67.35,-48.26 52.68,-36.08 41,-26.37"/>
<polygon fill="midnightblue" stroke="midnightblue" points="43.06,-23.53 33.13,-19.83 38.59,-28.92 43.06,-23.53"/>
</g>
</g>
</svg>
