<?xml version="1.0" encoding="UTF-8" standalone="no"?>
<!DOCTYPE svg PUBLIC "-//W3C//DTD SVG 1.1//EN"
 "http://www.w3.org/Graphics/SVG/1.1/DTD/svg11.dtd">
<!-- Generated by graphviz version 2.43.0 (0)
 -->
<!-- Title: /home/runner/work/cbmc&#45;documentation/cbmc&#45;documentation/src/solvers/strings/string_builtin_function.h Pages: 1 -->
<svg width="1087pt" height="632pt"
 viewBox="0.00 0.00 1087.21 632.00" xmlns="http://www.w3.org/2000/svg" xmlns:xlink="http://www.w3.org/1999/xlink">
<g id="graph0" class="graph" transform="scale(1 1) rotate(0) translate(4 628)">
<title>/home/runner/work/cbmc&#45;documentation/cbmc&#45;documentation/src/solvers/strings/string_builtin_function.h</title>
<!-- Node1 -->
<g id="node1" class="node">
<title>Node1</title>
<g id="a_node1"><a xlink:title=" ">
<polygon fill="#bfbfbf" stroke="black" points="543.31,-571.5 543.31,-623.5 743.31,-623.5 743.31,-571.5 543.31,-571.5"/>
<text text-anchor="start" x="551.31" y="-611.5" font-family="Helvetica,sans-Serif" font-size="10.00">/home/runner/work/cbmc</text>
<text text-anchor="start" x="551.31" y="-600.5" font-family="Helvetica,sans-Serif" font-size="10.00">&#45;documentation/cbmc&#45;documentation</text>
<text text-anchor="start" x="551.31" y="-589.5" font-family="Helvetica,sans-Serif" font-size="10.00">/src/solvers/strings/string_builtin</text>
<text text-anchor="middle" x="643.31" y="-578.5" font-family="Helvetica,sans-Serif" font-size="10.00">_function.h</text>
</a>
</g>
</g>
<!-- Node2 -->
<g id="node2" class="node">
<title>Node2</title>
<g id="a_node2"><a xlink:href="string__constraint__generator_8h.html" target="_top" xlink:title=" ">
<polygon fill="none" stroke="black" points="347.81,-515.5 347.81,-534.5 506.81,-534.5 506.81,-515.5 347.81,-515.5"/>
<text text-anchor="middle" x="427.31" y="-522.5" font-family="Helvetica,sans-Serif" font-size="10.00">string_constraint_generator.h</text>
</a>
</g>
</g>
<!-- Node1&#45;&gt;Node2 -->
<g id="edge1" class="edge">
<title>Node1&#45;&gt;Node2</title>
<path fill="none" stroke="midnightblue" d="M566.55,-571.45C531.34,-559.95 491.29,-546.88 463.21,-537.72"/>
<polygon fill="midnightblue" stroke="midnightblue" points="464.03,-534.3 453.44,-534.53 461.86,-540.96 464.03,-534.3"/>
</g>
<!-- Node10 -->
<g id="node10" class="node">
<title>Node10</title>
<g id="a_node10"><a xlink:href="string__expr_8h.html" target="_top" xlink:title=" ">
<polygon fill="none" stroke="black" points="499.31,-392.5 499.31,-411.5 597.31,-411.5 597.31,-392.5 499.31,-392.5"/>
<text text-anchor="middle" x="548.31" y="-399.5" font-family="Helvetica,sans-Serif" font-size="10.00">util/string_expr.h</text>
</a>
</g>
</g>
<!-- Node1&#45;&gt;Node10 -->
<g id="edge68" class="edge">
<title>Node1&#45;&gt;Node10</title>
<path fill="none" stroke="midnightblue" d="M646.19,-571.37C648.49,-539.88 647.98,-485.48 623.31,-448 613.79,-433.54 597.87,-423.03 583.15,-415.83"/>
<polygon fill="midnightblue" stroke="midnightblue" points="584.27,-412.49 573.72,-411.56 581.39,-418.87 584.27,-412.49"/>
</g>
<!-- Node17 -->
<g id="node17" class="node">
<title>Node17</title>
<g id="a_node17"><a xlink:href="optional_8h.html" target="_top" xlink:title=" ">
<polygon fill="none" stroke="black" points="827.81,-280.5 827.81,-299.5 892.81,-299.5 892.81,-280.5 827.81,-280.5"/>
<text text-anchor="middle" x="860.31" y="-287.5" font-family="Helvetica,sans-Serif" font-size="10.00">optional.h</text>
</a>
</g>
</g>
<!-- Node1&#45;&gt;Node17 -->
<g id="edge67" class="edge">
<title>Node1&#45;&gt;Node17</title>
<path fill="none" stroke="midnightblue" d="M719,-571.44C765.15,-550.87 815.31,-516.54 815.31,-464.5 815.31,-464.5 815.31,-464.5 815.31,-401 815.31,-365.93 835.15,-328.94 848.48,-308.04"/>
<polygon fill="midnightblue" stroke="midnightblue" points="851.45,-309.9 854.06,-299.63 845.61,-306.03 851.45,-309.9"/>
</g>
<!-- Node28 -->
<g id="node35" class="node">
<title>Node28</title>
<g id="a_node35"><a xlink:title=" ">
<polygon fill="none" stroke="#bfbfbf" points="318.81,-56.5 318.81,-75.5 365.81,-75.5 365.81,-56.5 318.81,-56.5"/>
<text text-anchor="middle" x="342.31" y="-63.5" font-family="Helvetica,sans-Serif" font-size="10.00">vector</text>
</a>
</g>
</g>
<!-- Node1&#45;&gt;Node28 -->
<g id="edge69" class="edge">
<title>Node1&#45;&gt;Node28</title>
<path fill="none" stroke="midnightblue" d="M543.05,-588.54C391.04,-574.63 111.83,-541.25 35.31,-479 3.8,-453.37 -8.52,-429.41 7.31,-392 41.54,-311.12 257.99,-134.19 323.53,-81.86"/>
<polygon fill="midnightblue" stroke="midnightblue" points="325.77,-84.55 331.42,-75.59 321.41,-79.07 325.77,-84.55"/>
</g>
<!-- Node59 -->
<g id="node37" class="node">
<title>Node59</title>
<g id="a_node37"><a xlink:href="mathematical__expr_8h.html" target="_top" xlink:title=" ">
<polygon fill="none" stroke="black" points="910.81,-280.5 910.81,-299.5 1049.81,-299.5 1049.81,-280.5 910.81,-280.5"/>
<text text-anchor="middle" x="980.31" y="-287.5" font-family="Helvetica,sans-Serif" font-size="10.00">util/mathematical_expr.h</text>
</a>
</g>
</g>
<!-- Node1&#45;&gt;Node59 -->
<g id="edge61" class="edge">
<title>Node1&#45;&gt;Node59</title>
<path fill="none" stroke="midnightblue" d="M743.37,-588.58C822,-576.23 918.31,-544.73 918.31,-464.5 918.31,-464.5 918.31,-464.5 918.31,-401 918.31,-363.62 945.82,-327.24 964.19,-307.1"/>
<polygon fill="midnightblue" stroke="midnightblue" points="966.82,-309.41 971.16,-299.75 961.74,-304.59 966.82,-309.41"/>
</g>
<!-- Node3 -->
<g id="node3" class="node">
<title>Node3</title>
<g id="a_node3"><a xlink:title=" ">
<polygon fill="none" stroke="#bfbfbf" points="301.31,-280.5 301.31,-299.5 345.31,-299.5 345.31,-280.5 301.31,-280.5"/>
<text text-anchor="middle" x="323.31" y="-287.5" font-family="Helvetica,sans-Serif" font-size="10.00">limits</text>
</a>
</g>
</g>
<!-- Node2&#45;&gt;Node3 -->
<g id="edge2" class="edge">
<title>Node2&#45;&gt;Node3</title>
<path fill="none" stroke="midnightblue" d="M347.59,-520.17C241.53,-514.25 65.03,-501.18 45.31,-479 36.16,-468.7 37.73,-459.5 45.31,-448 67.67,-414.09 93.31,-430.8 129.31,-412 194.88,-377.76 267.79,-329.25 302.6,-305.39"/>
<polygon fill="midnightblue" stroke="midnightblue" points="304.74,-308.17 310.99,-299.61 300.77,-302.4 304.74,-308.17"/>
</g>
<!-- Node4 -->
<g id="node4" class="node">
<title>Node4</title>
<g id="a_node4"><a xlink:href="string__constraint_8h.html" target="_top" xlink:title=" ">
<polygon fill="none" stroke="black" points="323.81,-448.5 323.81,-478.5 442.81,-478.5 442.81,-448.5 323.81,-448.5"/>
<text text-anchor="start" x="331.81" y="-466.5" font-family="Helvetica,sans-Serif" font-size="10.00">solvers/strings/string</text>
<text text-anchor="middle" x="383.31" y="-455.5" font-family="Helvetica,sans-Serif" font-size="10.00">_constraint.h</text>
</a>
</g>
</g>
<!-- Node2&#45;&gt;Node4 -->
<g id="edge3" class="edge">
<title>Node2&#45;&gt;Node4</title>
<path fill="none" stroke="midnightblue" d="M421.01,-515.48C415.44,-507.94 407.07,-496.63 399.63,-486.57"/>
<polygon fill="midnightblue" stroke="midnightblue" points="402.44,-484.48 393.68,-478.52 396.81,-488.64 402.44,-484.48"/>
</g>
<!-- Node2&#45;&gt;Node10 -->
<g id="edge57" class="edge">
<title>Node2&#45;&gt;Node10</title>
<path fill="none" stroke="midnightblue" d="M439.94,-515.42C452.14,-506.87 470.85,-493.01 485.31,-479 504.46,-460.46 523.59,-436.41 535.66,-420.38"/>
<polygon fill="midnightblue" stroke="midnightblue" points="538.75,-422.08 541.89,-411.97 533.13,-417.91 538.75,-422.08"/>
</g>
<!-- Node49 -->
<g id="node25" class="node">
<title>Node49</title>
<g id="a_node25"><a xlink:href="refined__string__type_8h.html" target="_top" xlink:title=" ">
<polygon fill="none" stroke="black" points="619.81,-336.5 619.81,-355.5 738.81,-355.5 738.81,-336.5 619.81,-336.5"/>
<text text-anchor="middle" x="679.31" y="-343.5" font-family="Helvetica,sans-Serif" font-size="10.00">refined_string_type.h</text>
</a>
</g>
</g>
<!-- Node2&#45;&gt;Node49 -->
<g id="edge55" class="edge">
<title>Node2&#45;&gt;Node49</title>
<path fill="none" stroke="midnightblue" d="M492.96,-515.44C541.94,-507.88 603.65,-495.48 623.31,-479 658.34,-449.64 671.93,-394.48 676.82,-365.64"/>
<polygon fill="midnightblue" stroke="midnightblue" points="680.29,-366.09 678.33,-355.67 673.37,-365.03 680.29,-366.09"/>
</g>
<!-- Node54 -->
<g id="node30" class="node">
<title>Node54</title>
<g id="a_node30"><a xlink:href="replace__expr_8h.html" target="_top" xlink:title=" ">
<polygon fill="none" stroke="black" points="428.31,-336.5 428.31,-355.5 516.31,-355.5 516.31,-336.5 428.31,-336.5"/>
<text text-anchor="middle" x="472.31" y="-343.5" font-family="Helvetica,sans-Serif" font-size="10.00">replace_expr.h</text>
</a>
</g>
</g>
<!-- Node2&#45;&gt;Node54 -->
<g id="edge56" class="edge">
<title>Node2&#45;&gt;Node54</title>
<path fill="none" stroke="midnightblue" d="M433,-515.43C438.56,-506.65 446.8,-492.43 451.31,-479 464.38,-440.08 469.41,-391.92 471.28,-365.87"/>
<polygon fill="midnightblue" stroke="midnightblue" points="474.79,-365.77 471.93,-355.57 467.81,-365.33 474.79,-365.77"/>
</g>
<!-- Node55 -->
<g id="node31" class="node">
<title>Node55</title>
<g id="a_node31"><a xlink:title=" ">
<polygon fill="none" stroke="#bfbfbf" points="54.81,-454 54.81,-473 155.81,-473 155.81,-454 54.81,-454"/>
<text text-anchor="middle" x="105.31" y="-461" font-family="Helvetica,sans-Serif" font-size="10.00">util/constexpr.def</text>
</a>
</g>
</g>
<!-- Node2&#45;&gt;Node55 -->
<g id="edge47" class="edge">
<title>Node2&#45;&gt;Node55</title>
<path fill="none" stroke="midnightblue" d="M370.4,-515.47C316.98,-507.17 234.95,-493.7 164.31,-479 159.15,-477.93 153.76,-476.72 148.42,-475.47"/>
<polygon fill="midnightblue" stroke="midnightblue" points="148.83,-471.97 138.29,-473.05 147.2,-478.78 148.83,-471.97"/>
</g>
<!-- Node56 -->
<g id="node32" class="node">
<title>Node56</title>
<g id="a_node32"><a xlink:href="deprecate_8h.html" target="_top" xlink:title=" ">
<polygon fill="none" stroke="black" points="173.81,-454 173.81,-473 266.81,-473 266.81,-454 173.81,-454"/>
<text text-anchor="middle" x="220.31" y="-461" font-family="Helvetica,sans-Serif" font-size="10.00">util/deprecate.h</text>
</a>
</g>
</g>
<!-- Node2&#45;&gt;Node56 -->
<g id="edge48" class="edge">
<title>Node2&#45;&gt;Node56</title>
<path fill="none" stroke="midnightblue" d="M397.65,-515.48C361.38,-505.05 299.85,-487.36 259.65,-475.81"/>
<polygon fill="midnightblue" stroke="midnightblue" points="260.49,-472.41 249.92,-473.01 258.56,-479.14 260.49,-472.41"/>
</g>
<!-- Node57 -->
<g id="node33" class="node">
<title>Node57</title>
<g id="a_node33"><a xlink:href="namespace_8h.html" target="_top" xlink:title=" ">
<polygon fill="none" stroke="black" points="294.81,-168.5 294.81,-187.5 395.81,-187.5 395.81,-168.5 294.81,-168.5"/>
<text text-anchor="middle" x="345.31" y="-175.5" font-family="Helvetica,sans-Serif" font-size="10.00">util/namespace.h</text>
</a>
</g>
</g>
<!-- Node2&#45;&gt;Node57 -->
<g id="edge49" class="edge">
<title>Node2&#45;&gt;Node57</title>
<path fill="none" stroke="midnightblue" d="M378.99,-515.46C356.32,-509.07 330.75,-498.01 314.31,-479 294.28,-455.84 302.7,-442.3 298.31,-412 289.89,-353.88 278.26,-337.02 292.31,-280 300.17,-248.11 320.09,-215.15 333.15,-195.89"/>
<polygon fill="midnightblue" stroke="midnightblue" points="336.08,-197.8 338.92,-187.6 330.34,-193.8 336.08,-197.8"/>
</g>
<!-- Node58 -->
<g id="node36" class="node">
<title>Node58</title>
<g id="a_node36"><a xlink:href="array__pool_8h.html" target="_top" xlink:title=" ">
<polygon fill="none" stroke="black" points="537.81,-454 537.81,-473 614.81,-473 614.81,-454 537.81,-454"/>
<text text-anchor="middle" x="576.31" y="-461" font-family="Helvetica,sans-Serif" font-size="10.00">array_pool.h</text>
</a>
</g>
</g>
<!-- Node2&#45;&gt;Node58 -->
<g id="edge58" class="edge">
<title>Node2&#45;&gt;Node58</title>
<path fill="none" stroke="midnightblue" d="M448.66,-515.48C474,-505.36 516.45,-488.4 545.38,-476.85"/>
<polygon fill="midnightblue" stroke="midnightblue" points="547.02,-479.97 555,-473.01 544.42,-473.47 547.02,-479.97"/>
</g>
<!-- Node5 -->
<g id="node5" class="node">
<title>Node5</title>
<g id="a_node5"><a xlink:href="format__expr_8h.html" target="_top" xlink:title=" ">
<polygon fill="none" stroke="black" points="16.31,-392.5 16.31,-411.5 120.31,-411.5 120.31,-392.5 16.31,-392.5"/>
<text text-anchor="middle" x="68.31" y="-399.5" font-family="Helvetica,sans-Serif" font-size="10.00">util/format_expr.h</text>
</a>
</g>
</g>
<!-- Node4&#45;&gt;Node5 -->
<g id="edge4" class="edge">
<title>Node4&#45;&gt;Node5</title>
<path fill="none" stroke="midnightblue" d="M323.69,-451.24C266.1,-440.36 179.57,-424.02 123.52,-413.43"/>
<polygon fill="midnightblue" stroke="midnightblue" points="123.9,-409.94 113.42,-411.52 122.6,-416.82 123.9,-409.94"/>
</g>
<!-- Node4&#45;&gt;Node10 -->
<g id="edge9" class="edge">
<title>Node4&#45;&gt;Node10</title>
<path fill="none" stroke="midnightblue" d="M422.42,-448.4C450.47,-438.28 487.88,-424.79 514.62,-415.15"/>
<polygon fill="midnightblue" stroke="midnightblue" points="516.08,-418.34 524.3,-411.66 513.71,-411.76 516.08,-418.34"/>
</g>
<!-- Node53 -->
<g id="node29" class="node">
<title>Node53</title>
<g id="a_node29"><a xlink:href="union__find__replace_8h.html" target="_top" xlink:title=" ">
<polygon fill="none" stroke="black" points="307.31,-392.5 307.31,-411.5 443.31,-411.5 443.31,-392.5 307.31,-392.5"/>
<text text-anchor="middle" x="375.31" y="-399.5" font-family="Helvetica,sans-Serif" font-size="10.00">util/union_find_replace.h</text>
</a>
</g>
</g>
<!-- Node4&#45;&gt;Node53 -->
<g id="edge43" class="edge">
<title>Node4&#45;&gt;Node53</title>
<path fill="none" stroke="midnightblue" d="M381.42,-448.4C380.34,-440.38 378.97,-430.23 377.81,-421.57"/>
<polygon fill="midnightblue" stroke="midnightblue" points="381.28,-421.1 376.48,-411.66 374.34,-422.04 381.28,-421.1"/>
</g>
<!-- Node6 -->
<g id="node6" class="node">
<title>Node6</title>
<g id="a_node6"><a xlink:href="format_8h.html" target="_top" xlink:title=" ">
<polygon fill="none" stroke="black" points="43.81,-112.5 43.81,-131.5 102.81,-131.5 102.81,-112.5 43.81,-112.5"/>
<text text-anchor="middle" x="73.31" y="-119.5" font-family="Helvetica,sans-Serif" font-size="10.00">format.h</text>
</a>
</g>
</g>
<!-- Node5&#45;&gt;Node6 -->
<g id="edge5" class="edge">
<title>Node5&#45;&gt;Node6</title>
<path fill="none" stroke="midnightblue" d="M68.7,-392.44C69.52,-373.94 71.31,-328.83 71.31,-291 71.31,-291 71.31,-291 71.31,-233 71.31,-200.94 72.17,-163.64 72.76,-141.75"/>
<polygon fill="midnightblue" stroke="midnightblue" points="76.27,-141.65 73.05,-131.56 69.27,-141.45 76.27,-141.65"/>
</g>
<!-- Node7 -->
<g id="node7" class="node">
<title>Node7</title>
<g id="a_node7"><a xlink:title=" ">
<polygon fill="none" stroke="#bfbfbf" points="102.31,-56.5 102.31,-75.5 150.31,-75.5 150.31,-56.5 102.31,-56.5"/>
<text text-anchor="middle" x="126.31" y="-63.5" font-family="Helvetica,sans-Serif" font-size="10.00">iosfwd</text>
</a>
</g>
</g>
<!-- Node6&#45;&gt;Node7 -->
<g id="edge6" class="edge">
<title>Node6&#45;&gt;Node7</title>
<path fill="none" stroke="midnightblue" d="M82.06,-112.08C89.78,-104.22 101.22,-92.57 110.53,-83.08"/>
<polygon fill="midnightblue" stroke="midnightblue" points="113.22,-85.34 117.72,-75.75 108.22,-80.44 113.22,-85.34"/>
</g>
<!-- Node8 -->
<g id="node8" class="node">
<title>Node8</title>
<g id="a_node8"><a xlink:title=" ">
<polygon fill="none" stroke="#bfbfbf" points="153.31,-0.5 153.31,-19.5 209.31,-19.5 209.31,-0.5 153.31,-0.5"/>
<text text-anchor="middle" x="181.31" y="-7.5" font-family="Helvetica,sans-Serif" font-size="10.00">sstream</text>
</a>
</g>
</g>
<!-- Node6&#45;&gt;Node8 -->
<g id="edge7" class="edge">
<title>Node6&#45;&gt;Node8</title>
<path fill="none" stroke="midnightblue" d="M67.69,-112.16C59.97,-98.8 48.36,-73.2 60.31,-56 78.88,-29.28 115.3,-18.4 143.35,-13.98"/>
<polygon fill="midnightblue" stroke="midnightblue" points="143.83,-17.44 153.26,-12.62 142.88,-10.51 143.83,-17.44"/>
</g>
<!-- Node9 -->
<g id="node9" class="node">
<title>Node9</title>
<g id="a_node9"><a xlink:title=" ">
<polygon fill="none" stroke="#bfbfbf" points="264.31,-0.5 264.31,-19.5 308.31,-19.5 308.31,-0.5 264.31,-0.5"/>
<text text-anchor="middle" x="286.31" y="-7.5" font-family="Helvetica,sans-Serif" font-size="10.00">string</text>
</a>
</g>
</g>
<!-- Node6&#45;&gt;Node9 -->
<g id="edge8" class="edge">
<title>Node6&#45;&gt;Node9</title>
<path fill="none" stroke="midnightblue" d="M73.38,-112.44C73.97,-98.51 77.25,-70.98 93.31,-56 105.05,-45.05 202.26,-26.15 254.07,-16.71"/>
<polygon fill="midnightblue" stroke="midnightblue" points="254.87,-20.12 264.09,-14.9 253.63,-13.23 254.87,-20.12"/>
</g>
<!-- Node11 -->
<g id="node11" class="node">
<title>Node11</title>
<g id="a_node11"><a xlink:href="arith__tools_8h.html" target="_top" xlink:title=" ">
<polygon fill="none" stroke="black" points="332.81,-336.5 332.81,-355.5 409.81,-355.5 409.81,-336.5 332.81,-336.5"/>
<text text-anchor="middle" x="371.31" y="-343.5" font-family="Helvetica,sans-Serif" font-size="10.00">arith_tools.h</text>
</a>
</g>
</g>
<!-- Node10&#45;&gt;Node11 -->
<g id="edge10" class="edge">
<title>Node10&#45;&gt;Node11</title>
<path fill="none" stroke="midnightblue" d="M520.27,-392.44C490.23,-383.28 442.4,-368.69 409.07,-358.52"/>
<polygon fill="midnightblue" stroke="midnightblue" points="409.81,-355.09 399.23,-355.52 407.77,-361.78 409.81,-355.09"/>
</g>
<!-- Node19 -->
<g id="node19" class="node">
<title>Node19</title>
<g id="a_node19"><a xlink:href="std__expr_8h.html" target="_top" xlink:title=" ">
<polygon fill="none" stroke="black" points="533.81,-224.5 533.81,-243.5 600.81,-243.5 600.81,-224.5 533.81,-224.5"/>
<text text-anchor="middle" x="567.31" y="-231.5" font-family="Helvetica,sans-Serif" font-size="10.00">std_expr.h</text>
</a>
</g>
</g>
<!-- Node10&#45;&gt;Node19 -->
<g id="edge42" class="edge">
<title>Node10&#45;&gt;Node19</title>
<path fill="none" stroke="midnightblue" d="M549.33,-392.08C552.32,-365.95 561.11,-289.21 565.19,-253.58"/>
<polygon fill="midnightblue" stroke="midnightblue" points="568.67,-253.9 566.33,-243.57 561.72,-253.11 568.67,-253.9"/>
</g>
<!-- Node10&#45;&gt;Node49 -->
<g id="edge36" class="edge">
<title>Node10&#45;&gt;Node49</title>
<path fill="none" stroke="midnightblue" d="M569.07,-392.44C590.63,-383.56 624.58,-369.56 649.11,-359.45"/>
<polygon fill="midnightblue" stroke="midnightblue" points="650.74,-362.56 658.65,-355.52 648.07,-356.09 650.74,-362.56"/>
</g>
<!-- Node11&#45;&gt;Node3 -->
<g id="edge35" class="edge">
<title>Node11&#45;&gt;Node3</title>
<path fill="none" stroke="midnightblue" d="M363.39,-336.08C356.47,-328.3 346.25,-316.8 337.86,-307.37"/>
<polygon fill="midnightblue" stroke="midnightblue" points="340.35,-304.9 331.09,-299.75 335.12,-309.55 340.35,-304.9"/>
</g>
<!-- Node12 -->
<g id="node12" class="node">
<title>Node12</title>
<g id="a_node12"><a xlink:href="src_2util_2invariant_8h.html" target="_top" xlink:title=" ">
<polygon fill="none" stroke="black" points="428.81,-56.5 428.81,-75.5 497.81,-75.5 497.81,-56.5 428.81,-56.5"/>
<text text-anchor="middle" x="463.31" y="-63.5" font-family="Helvetica,sans-Serif" font-size="10.00">invariant.h</text>
</a>
</g>
</g>
<!-- Node11&#45;&gt;Node12 -->
<g id="edge11" class="edge">
<title>Node11&#45;&gt;Node12</title>
<path fill="none" stroke="midnightblue" d="M379.77,-336.44C396.08,-318.96 430.31,-277.26 430.31,-235 430.31,-235 430.31,-235 430.31,-177 430.31,-143.25 444.74,-106.03 454.52,-84.69"/>
<polygon fill="midnightblue" stroke="midnightblue" points="457.72,-86.11 458.86,-75.58 451.4,-83.1 457.72,-86.11"/>
</g>
<!-- Node15 -->
<g id="node15" class="node">
<title>Node15</title>
<g id="a_node15"><a xlink:href="mp__arith_8h.html" target="_top" xlink:title=" ">
<polygon fill="none" stroke="black" points="168.81,-112.5 168.81,-131.5 237.81,-131.5 237.81,-112.5 168.81,-112.5"/>
<text text-anchor="middle" x="203.31" y="-119.5" font-family="Helvetica,sans-Serif" font-size="10.00">mp_arith.h</text>
</a>
</g>
</g>
<!-- Node11&#45;&gt;Node15 -->
<g id="edge16" class="edge">
<title>Node11&#45;&gt;Node15</title>
<path fill="none" stroke="midnightblue" d="M370.47,-336.49C368.91,-323.56 364.69,-298.52 354.31,-280 320,-218.79 256.1,-163.83 223.53,-138.22"/>
<polygon fill="midnightblue" stroke="midnightblue" points="225.27,-135.14 215.22,-131.79 220.99,-140.68 225.27,-135.14"/>
</g>
<!-- Node11&#45;&gt;Node17 -->
<g id="edge20" class="edge">
<title>Node11&#45;&gt;Node17</title>
<path fill="none" stroke="midnightblue" d="M410.03,-337.41C413.17,-336.9 416.29,-336.42 419.31,-336 592.5,-312.01 640.55,-326.17 817.47,-299.94"/>
<polygon fill="midnightblue" stroke="midnightblue" points="818,-303.4 827.37,-298.45 816.96,-296.48 818,-303.4"/>
</g>
<!-- Node11&#45;&gt;Node19 -->
<g id="edge22" class="edge">
<title>Node11&#45;&gt;Node19</title>
<path fill="none" stroke="midnightblue" d="M386.69,-336.37C420.68,-317.29 502.41,-271.42 543.25,-248.51"/>
<polygon fill="midnightblue" stroke="midnightblue" points="545,-251.54 552,-243.59 541.57,-245.43 545,-251.54"/>
</g>
<!-- Node12&#45;&gt;Node8 -->
<g id="edge13" class="edge">
<title>Node12&#45;&gt;Node8</title>
<path fill="none" stroke="midnightblue" d="M428.73,-58.38C375.68,-48.22 274.55,-28.85 219.44,-18.3"/>
<polygon fill="midnightblue" stroke="midnightblue" points="219.86,-14.82 209.38,-16.38 218.55,-21.69 219.86,-14.82"/>
</g>
<!-- Node12&#45;&gt;Node9 -->
<g id="edge14" class="edge">
<title>Node12&#45;&gt;Node9</title>
<path fill="none" stroke="midnightblue" d="M435.27,-56.44C403.38,-46.71 351.42,-30.86 318.07,-20.69"/>
<polygon fill="midnightblue" stroke="midnightblue" points="318.94,-17.3 308.36,-17.73 316.9,-23.99 318.94,-17.3"/>
</g>
<!-- Node13 -->
<g id="node13" class="node">
<title>Node13</title>
<g id="a_node13"><a xlink:title=" ">
<polygon fill="none" stroke="#bfbfbf" points="438.81,-0.5 438.81,-19.5 487.81,-19.5 487.81,-0.5 438.81,-0.5"/>
<text text-anchor="middle" x="463.31" y="-7.5" font-family="Helvetica,sans-Serif" font-size="10.00">cstdlib</text>
</a>
</g>
</g>
<!-- Node12&#45;&gt;Node13 -->
<g id="edge12" class="edge">
<title>Node12&#45;&gt;Node13</title>
<path fill="none" stroke="midnightblue" d="M463.31,-56.08C463.31,-49.01 463.31,-38.86 463.31,-29.99"/>
<polygon fill="midnightblue" stroke="midnightblue" points="466.81,-29.75 463.31,-19.75 459.81,-29.75 466.81,-29.75"/>
</g>
<!-- Node14 -->
<g id="node14" class="node">
<title>Node14</title>
<g id="a_node14"><a xlink:title=" ">
<polygon fill="none" stroke="#bfbfbf" points="608.81,-0.5 608.81,-19.5 677.81,-19.5 677.81,-0.5 608.81,-0.5"/>
<text text-anchor="middle" x="643.31" y="-7.5" font-family="Helvetica,sans-Serif" font-size="10.00">type_traits</text>
</a>
</g>
</g>
<!-- Node12&#45;&gt;Node14 -->
<g id="edge15" class="edge">
<title>Node12&#45;&gt;Node14</title>
<path fill="none" stroke="midnightblue" d="M491.83,-56.44C522.38,-47.28 571.02,-32.69 604.92,-22.52"/>
<polygon fill="midnightblue" stroke="midnightblue" points="606.35,-25.74 614.92,-19.52 604.34,-19.04 606.35,-25.74"/>
</g>
<!-- Node15&#45;&gt;Node7 -->
<g id="edge17" class="edge">
<title>Node15&#45;&gt;Node7</title>
<path fill="none" stroke="midnightblue" d="M190.94,-112.32C179.15,-104.06 161.18,-91.45 147.18,-81.63"/>
<polygon fill="midnightblue" stroke="midnightblue" points="148.85,-78.53 138.65,-75.65 144.83,-84.26 148.85,-78.53"/>
</g>
<!-- Node15&#45;&gt;Node9 -->
<g id="edge18" class="edge">
<title>Node15&#45;&gt;Node9</title>
<path fill="none" stroke="midnightblue" d="M199.39,-112.25C194.1,-99.01 186.51,-73.57 197.31,-56 209.73,-35.81 234.31,-24.35 254.5,-18.05"/>
<polygon fill="midnightblue" stroke="midnightblue" points="255.61,-21.37 264.27,-15.28 253.7,-14.64 255.61,-21.37"/>
</g>
<!-- Node16 -->
<g id="node16" class="node">
<title>Node16</title>
<g id="a_node16"><a xlink:title=" ">
<polygon fill="none" stroke="#bfbfbf" points="206.31,-56.5 206.31,-75.5 300.31,-75.5 300.31,-56.5 206.31,-56.5"/>
<text text-anchor="middle" x="253.31" y="-63.5" font-family="Helvetica,sans-Serif" font-size="10.00">big&#45;int/bigint.hh</text>
</a>
</g>
</g>
<!-- Node15&#45;&gt;Node16 -->
<g id="edge19" class="edge">
<title>Node15&#45;&gt;Node16</title>
<path fill="none" stroke="midnightblue" d="M211.57,-112.08C218.78,-104.3 229.42,-92.8 238.16,-83.37"/>
<polygon fill="midnightblue" stroke="midnightblue" points="240.98,-85.47 245.21,-75.75 235.85,-80.71 240.98,-85.47"/>
</g>
<!-- Node18 -->
<g id="node18" class="node">
<title>Node18</title>
<g id="a_node18"><a xlink:title=" ">
<polygon fill="none" stroke="#bfbfbf" points="803.81,-224.5 803.81,-243.5 916.81,-243.5 916.81,-224.5 803.81,-224.5"/>
<text text-anchor="middle" x="860.31" y="-231.5" font-family="Helvetica,sans-Serif" font-size="10.00">nonstd/optional.hpp</text>
</a>
</g>
</g>
<!-- Node17&#45;&gt;Node18 -->
<g id="edge21" class="edge">
<title>Node17&#45;&gt;Node18</title>
<path fill="none" stroke="midnightblue" d="M860.31,-280.08C860.31,-273.01 860.31,-262.86 860.31,-253.99"/>
<polygon fill="midnightblue" stroke="midnightblue" points="863.81,-253.75 860.31,-243.75 856.81,-253.75 863.81,-253.75"/>
</g>
<!-- Node19&#45;&gt;Node12 -->
<g id="edge28" class="edge">
<title>Node19&#45;&gt;Node12</title>
<path fill="none" stroke="midnightblue" d="M559,-224.5C543.19,-207.93 508.46,-169.64 487.31,-132 479.03,-117.25 472.6,-99.09 468.49,-85.72"/>
<polygon fill="midnightblue" stroke="midnightblue" points="471.76,-84.41 465.6,-75.79 465.04,-86.37 471.76,-84.41"/>
</g>
<!-- Node20 -->
<g id="node20" class="node">
<title>Node20</title>
<g id="a_node20"><a xlink:href="expr__cast_8h.html" target="_top" xlink:title="Templated functions to cast to specific exprt&#45;derived classes.">
<polygon fill="none" stroke="red" points="722.81,-112.5 722.81,-131.5 795.81,-131.5 795.81,-112.5 722.81,-112.5"/>
<text text-anchor="middle" x="759.31" y="-119.5" font-family="Helvetica,sans-Serif" font-size="10.00">expr_cast.h</text>
</a>
</g>
</g>
<!-- Node19&#45;&gt;Node20 -->
<g id="edge23" class="edge">
<title>Node19&#45;&gt;Node20</title>
<path fill="none" stroke="midnightblue" d="M588.01,-224.42C607.77,-215.97 638.19,-202.28 663.31,-188 690.81,-172.38 720.71,-151.45 739.71,-137.61"/>
<polygon fill="midnightblue" stroke="midnightblue" points="741.88,-140.36 747.87,-131.62 737.74,-134.72 741.88,-140.36"/>
</g>
<!-- Node48 -->
<g id="node23" class="node">
<title>Node48</title>
<g id="a_node23"><a xlink:href="std__types_8h.html" target="_top" xlink:title=" ">
<polygon fill="none" stroke="red" points="581.81,-168.5 581.81,-187.5 654.81,-187.5 654.81,-168.5 581.81,-168.5"/>
<text text-anchor="middle" x="618.31" y="-175.5" font-family="Helvetica,sans-Serif" font-size="10.00">std_types.h</text>
</a>
</g>
</g>
<!-- Node19&#45;&gt;Node48 -->
<g id="edge29" class="edge">
<title>Node19&#45;&gt;Node48</title>
<path fill="none" stroke="midnightblue" d="M575.73,-224.08C583.16,-216.22 594.16,-204.57 603.12,-195.08"/>
<polygon fill="midnightblue" stroke="midnightblue" points="605.73,-197.42 610.05,-187.75 600.64,-192.62 605.73,-197.42"/>
</g>
<!-- Node20&#45;&gt;Node12 -->
<g id="edge25" class="edge">
<title>Node20&#45;&gt;Node12</title>
<path fill="none" stroke="midnightblue" d="M722.72,-114.32C668.44,-104.42 566.7,-85.86 508.06,-75.16"/>
<polygon fill="midnightblue" stroke="midnightblue" points="508.45,-71.68 497.99,-73.33 507.19,-78.56 508.45,-71.68"/>
</g>
<!-- Node20&#45;&gt;Node14 -->
<g id="edge24" class="edge">
<title>Node20&#45;&gt;Node14</title>
<path fill="none" stroke="midnightblue" d="M750.21,-112.37C730.73,-93.89 684.75,-50.29 659.91,-26.74"/>
<polygon fill="midnightblue" stroke="midnightblue" points="662.04,-23.93 652.37,-19.59 657.22,-29.01 662.04,-23.93"/>
</g>
<!-- Node23 -->
<g id="node21" class="node">
<title>Node23</title>
<g id="a_node21"><a xlink:href="expr_8h.html" target="_top" xlink:title=" ">
<polygon fill="none" stroke="red" points="741.81,-56.5 741.81,-75.5 788.81,-75.5 788.81,-56.5 741.81,-56.5"/>
<text text-anchor="middle" x="765.31" y="-63.5" font-family="Helvetica,sans-Serif" font-size="10.00">expr.h</text>
</a>
</g>
</g>
<!-- Node20&#45;&gt;Node23 -->
<g id="edge26" class="edge">
<title>Node20&#45;&gt;Node23</title>
<path fill="none" stroke="midnightblue" d="M760.3,-112.08C761.1,-104.93 762.24,-94.64 763.24,-85.69"/>
<polygon fill="midnightblue" stroke="midnightblue" points="766.71,-86.08 764.34,-75.75 759.76,-85.3 766.71,-86.08"/>
</g>
<!-- Node25 -->
<g id="node22" class="node">
<title>Node25</title>
<g id="a_node22"><a xlink:href="type_8h.html" target="_top" xlink:title=" ">
<polygon fill="none" stroke="red" points="764.81,-0.5 764.81,-19.5 811.81,-19.5 811.81,-0.5 764.81,-0.5"/>
<text text-anchor="middle" x="788.31" y="-7.5" font-family="Helvetica,sans-Serif" font-size="10.00">type.h</text>
</a>
</g>
</g>
<!-- Node23&#45;&gt;Node25 -->
<g id="edge27" class="edge">
<title>Node23&#45;&gt;Node25</title>
<path fill="none" stroke="midnightblue" d="M769.11,-56.08C772.23,-48.77 776.74,-38.18 780.6,-29.1"/>
<polygon fill="midnightblue" stroke="midnightblue" points="783.89,-30.32 784.59,-19.75 777.45,-27.58 783.89,-30.32"/>
</g>
<!-- Node48&#45;&gt;Node12 -->
<g id="edge32" class="edge">
<title>Node48&#45;&gt;Node12</title>
<path fill="none" stroke="midnightblue" d="M618.06,-168.15C617.18,-154.32 613.49,-127.54 598.31,-112 574.53,-87.66 537.25,-76.48 507.89,-71.35"/>
<polygon fill="midnightblue" stroke="midnightblue" points="508.29,-67.87 497.87,-69.78 507.2,-74.79 508.29,-67.87"/>
</g>
<!-- Node48&#45;&gt;Node15 -->
<g id="edge33" class="edge">
<title>Node48&#45;&gt;Node15</title>
<path fill="none" stroke="midnightblue" d="M581.48,-172.21C505.29,-162.29 330.61,-139.56 248.07,-128.82"/>
<polygon fill="midnightblue" stroke="midnightblue" points="248.37,-125.33 238,-127.51 247.47,-132.27 248.37,-125.33"/>
</g>
<!-- Node48&#45;&gt;Node20 -->
<g id="edge31" class="edge">
<title>Node48&#45;&gt;Node20</title>
<path fill="none" stroke="midnightblue" d="M640.65,-168.44C664.07,-159.48 701.05,-145.31 727.5,-135.18"/>
<polygon fill="midnightblue" stroke="midnightblue" points="728.99,-138.36 737.08,-131.52 726.48,-131.82 728.99,-138.36"/>
</g>
<!-- Node48&#45;&gt;Node23 -->
<g id="edge30" class="edge">
<title>Node48&#45;&gt;Node23</title>
<path fill="none" stroke="midnightblue" d="M629.85,-168.37C654.86,-149.65 714.33,-105.15 745.49,-81.83"/>
<polygon fill="midnightblue" stroke="midnightblue" points="747.92,-84.39 753.83,-75.59 743.73,-78.78 747.92,-84.39"/>
</g>
<!-- Node35 -->
<g id="node24" class="node">
<title>Node35</title>
<g id="a_node24"><a xlink:title=" ">
<polygon fill="none" stroke="#bfbfbf" points="496.81,-112.5 496.81,-131.5 589.81,-131.5 589.81,-112.5 496.81,-112.5"/>
<text text-anchor="middle" x="543.31" y="-119.5" font-family="Helvetica,sans-Serif" font-size="10.00">unordered_map</text>
</a>
</g>
</g>
<!-- Node48&#45;&gt;Node35 -->
<g id="edge34" class="edge">
<title>Node48&#45;&gt;Node35</title>
<path fill="none" stroke="midnightblue" d="M606.26,-168.32C594.85,-160.11 577.48,-147.6 563.88,-137.81"/>
<polygon fill="midnightblue" stroke="midnightblue" points="565.74,-134.84 555.58,-131.83 561.65,-140.52 565.74,-134.84"/>
</g>
<!-- Node50 -->
<g id="node26" class="node">
<title>Node50</title>
<g id="a_node26"><a xlink:href="cprover__prefix_8h.html" target="_top" xlink:title=" ">
<polygon fill="none" stroke="black" points="714.81,-280.5 714.81,-299.5 809.81,-299.5 809.81,-280.5 714.81,-280.5"/>
<text text-anchor="middle" x="762.31" y="-287.5" font-family="Helvetica,sans-Serif" font-size="10.00">cprover_prefix.h</text>
</a>
</g>
</g>
<!-- Node49&#45;&gt;Node50 -->
<g id="edge37" class="edge">
<title>Node49&#45;&gt;Node50</title>
<path fill="none" stroke="midnightblue" d="M692.65,-336.32C705.47,-327.98 725.1,-315.21 740.25,-305.35"/>
<polygon fill="midnightblue" stroke="midnightblue" points="742.54,-308.04 749.01,-299.65 738.72,-302.17 742.54,-308.04"/>
</g>
<!-- Node51 -->
<g id="node27" class="node">
<title>Node51</title>
<g id="a_node27"><a xlink:href="pointer__expr_8h.html" target="_top" xlink:title=" ">
<polygon fill="none" stroke="black" points="610.31,-280.5 610.31,-299.5 696.31,-299.5 696.31,-280.5 610.31,-280.5"/>
<text text-anchor="middle" x="653.31" y="-287.5" font-family="Helvetica,sans-Serif" font-size="10.00">pointer_expr.h</text>
</a>
</g>
</g>
<!-- Node49&#45;&gt;Node51 -->
<g id="edge38" class="edge">
<title>Node49&#45;&gt;Node51</title>
<path fill="none" stroke="midnightblue" d="M675.02,-336.08C671.46,-328.69 666.29,-317.95 661.89,-308.81"/>
<polygon fill="midnightblue" stroke="midnightblue" points="665.02,-307.24 657.53,-299.75 658.71,-310.28 665.02,-307.24"/>
</g>
<!-- Node51&#45;&gt;Node19 -->
<g id="edge41" class="edge">
<title>Node51&#45;&gt;Node19</title>
<path fill="none" stroke="midnightblue" d="M639.5,-280.32C626.08,-271.9 605.49,-258.97 589.73,-249.07"/>
<polygon fill="midnightblue" stroke="midnightblue" points="591.43,-246.01 581.1,-243.65 587.7,-251.94 591.43,-246.01"/>
</g>
<!-- Node52 -->
<g id="node28" class="node">
<title>Node52</title>
<g id="a_node28"><a xlink:href="bitvector__types_8h.html" target="_top" xlink:title=" ">
<polygon fill="none" stroke="black" points="618.81,-224.5 618.81,-243.5 719.81,-243.5 719.81,-224.5 618.81,-224.5"/>
<text text-anchor="middle" x="669.31" y="-231.5" font-family="Helvetica,sans-Serif" font-size="10.00">bitvector_types.h</text>
</a>
</g>
</g>
<!-- Node51&#45;&gt;Node52 -->
<g id="edge39" class="edge">
<title>Node51&#45;&gt;Node52</title>
<path fill="none" stroke="midnightblue" d="M655.95,-280.08C658.1,-272.85 661.19,-262.41 663.86,-253.4"/>
<polygon fill="midnightblue" stroke="midnightblue" points="667.23,-254.33 666.72,-243.75 660.52,-252.34 667.23,-254.33"/>
</g>
<!-- Node52&#45;&gt;Node48 -->
<g id="edge40" class="edge">
<title>Node52&#45;&gt;Node48</title>
<path fill="none" stroke="midnightblue" d="M660.89,-224.08C653.46,-216.22 642.46,-204.57 633.5,-195.08"/>
<polygon fill="midnightblue" stroke="midnightblue" points="635.99,-192.62 626.58,-187.75 630.9,-197.42 635.99,-192.62"/>
</g>
<!-- Node53&#45;&gt;Node54 -->
<g id="edge44" class="edge">
<title>Node53&#45;&gt;Node54</title>
<path fill="none" stroke="midnightblue" d="M390.9,-392.32C406.31,-383.74 430.12,-370.49 448.02,-360.52"/>
<polygon fill="midnightblue" stroke="midnightblue" points="449.73,-363.58 456.77,-355.65 446.33,-357.46 449.73,-363.58"/>
</g>
<!-- Node54&#45;&gt;Node23 -->
<g id="edge45" class="edge">
<title>Node54&#45;&gt;Node23</title>
<path fill="none" stroke="midnightblue" d="M516.38,-341.94C651.8,-332.51 1053.01,-304.24 1058.31,-300 1081.92,-281.12 1078.31,-265.23 1078.31,-235 1078.31,-235 1078.31,-235 1078.31,-177 1078.31,-118.29 879.85,-83.33 798.99,-71.53"/>
<polygon fill="midnightblue" stroke="midnightblue" points="799.23,-68.03 788.84,-70.08 798.24,-74.96 799.23,-68.03"/>
</g>
<!-- Node54&#45;&gt;Node35 -->
<g id="edge46" class="edge">
<title>Node54&#45;&gt;Node35</title>
<path fill="none" stroke="midnightblue" d="M475.1,-336.3C485.56,-303.56 522.72,-187.38 537.34,-141.67"/>
<polygon fill="midnightblue" stroke="midnightblue" points="540.76,-142.47 540.47,-131.88 534.09,-140.34 540.76,-142.47"/>
</g>
<!-- Node57&#45;&gt;Node12 -->
<g id="edge50" class="edge">
<title>Node57&#45;&gt;Node12</title>
<path fill="none" stroke="midnightblue" d="M354.57,-168.37C374.48,-149.81 421.57,-105.91 446.75,-82.44"/>
<polygon fill="midnightblue" stroke="midnightblue" points="449.17,-84.97 454.1,-75.59 444.39,-79.85 449.17,-84.97"/>
</g>
<!-- Node27 -->
<g id="node34" class="node">
<title>Node27</title>
<g id="a_node34"><a xlink:href="irep_8h.html" target="_top" xlink:title=" ">
<polygon fill="none" stroke="red" points="320.31,-112.5 320.31,-131.5 364.31,-131.5 364.31,-112.5 320.31,-112.5"/>
<text text-anchor="middle" x="342.31" y="-119.5" font-family="Helvetica,sans-Serif" font-size="10.00">irep.h</text>
</a>
</g>
</g>
<!-- Node57&#45;&gt;Node27 -->
<g id="edge51" class="edge">
<title>Node57&#45;&gt;Node27</title>
<path fill="none" stroke="midnightblue" d="M344.82,-168.08C344.42,-161.01 343.86,-150.86 343.37,-141.99"/>
<polygon fill="midnightblue" stroke="midnightblue" points="346.85,-141.54 342.8,-131.75 339.86,-141.93 346.85,-141.54"/>
</g>
<!-- Node27&#45;&gt;Node9 -->
<g id="edge52" class="edge">
<title>Node27&#45;&gt;Node9</title>
<path fill="none" stroke="midnightblue" d="M352.22,-112.32C365.51,-99.6 386.13,-75.31 374.31,-56 362.13,-36.09 338.05,-24.63 318.16,-18.27"/>
<polygon fill="midnightblue" stroke="midnightblue" points="319.09,-14.89 308.51,-15.46 317.13,-21.62 319.09,-14.89"/>
</g>
<!-- Node27&#45;&gt;Node12 -->
<g id="edge54" class="edge">
<title>Node27&#45;&gt;Node12</title>
<path fill="none" stroke="midnightblue" d="M361.49,-112.44C381.22,-103.64 412.2,-89.81 434.81,-79.72"/>
<polygon fill="midnightblue" stroke="midnightblue" points="436.52,-82.79 444.23,-75.52 433.67,-76.4 436.52,-82.79"/>
</g>
<!-- Node27&#45;&gt;Node28 -->
<g id="edge53" class="edge">
<title>Node27&#45;&gt;Node28</title>
<path fill="none" stroke="midnightblue" d="M342.31,-112.08C342.31,-105.01 342.31,-94.86 342.31,-85.99"/>
<polygon fill="midnightblue" stroke="midnightblue" points="345.81,-85.75 342.31,-75.75 338.81,-85.75 345.81,-85.75"/>
</g>
<!-- Node58&#45;&gt;Node10 -->
<g id="edge60" class="edge">
<title>Node58&#45;&gt;Node10</title>
<path fill="none" stroke="midnightblue" d="M572.3,-453.98C568.23,-445.32 561.79,-431.65 556.62,-420.65"/>
<polygon fill="midnightblue" stroke="midnightblue" points="559.74,-419.07 552.32,-411.51 553.41,-422.05 559.74,-419.07"/>
</g>
<!-- Node58&#45;&gt;Node19 -->
<g id="edge59" class="edge">
<title>Node58&#45;&gt;Node19</title>
<path fill="none" stroke="midnightblue" d="M583.44,-453.87C590.82,-444.32 601.88,-428.13 606.31,-412 622.18,-354.23 592.87,-284.49 576.81,-252.53"/>
<polygon fill="midnightblue" stroke="midnightblue" points="579.86,-250.8 572.13,-243.55 573.65,-254.04 579.86,-250.8"/>
</g>
<!-- Node59&#45;&gt;Node19 -->
<g id="edge66" class="edge">
<title>Node59&#45;&gt;Node19</title>
<path fill="none" stroke="midnightblue" d="M910.49,-280.88C818.43,-270.12 662.85,-251.75 611.27,-244.11"/>
<polygon fill="midnightblue" stroke="midnightblue" points="611.61,-240.62 601.19,-242.53 610.53,-247.54 611.61,-240.62"/>
</g>
<!-- Node60 -->
<g id="node38" class="node">
<title>Node60</title>
<g id="a_node38"><a xlink:href="mathematical__types_8h.html" target="_top" xlink:title=" ">
<polygon fill="none" stroke="black" points="748.31,-168.5 748.31,-187.5 874.31,-187.5 874.31,-168.5 748.31,-168.5"/>
<text text-anchor="middle" x="811.31" y="-175.5" font-family="Helvetica,sans-Serif" font-size="10.00">mathematical_types.h</text>
</a>
</g>
</g>
<!-- Node59&#45;&gt;Node60 -->
<g id="edge62" class="edge">
<title>Node59&#45;&gt;Node60</title>
<path fill="none" stroke="midnightblue" d="M974.95,-280.23C966.16,-266.5 947.41,-239.85 925.31,-224 904.15,-208.82 877.17,-197.87 854.77,-190.57"/>
<polygon fill="midnightblue" stroke="midnightblue" points="855.74,-187.21 845.15,-187.57 853.66,-193.9 855.74,-187.21"/>
</g>
<!-- Node60&#45;&gt;Node12 -->
<g id="edge64" class="edge">
<title>Node60&#45;&gt;Node12</title>
<path fill="none" stroke="midnightblue" d="M787.05,-168.46C750.57,-155.71 679.38,-131.14 618.31,-112 579.71,-99.9 535.35,-87.14 504,-78.31"/>
<polygon fill="midnightblue" stroke="midnightblue" points="504.88,-74.92 494.31,-75.58 502.99,-81.66 504.88,-74.92"/>
</g>
<!-- Node60&#45;&gt;Node20 -->
<g id="edge63" class="edge">
<title>Node60&#45;&gt;Node20</title>
<path fill="none" stroke="midnightblue" d="M802.73,-168.08C795.15,-160.22 783.93,-148.57 774.8,-139.08"/>
<polygon fill="midnightblue" stroke="midnightblue" points="777.2,-136.53 767.74,-131.75 772.15,-141.38 777.2,-136.53"/>
</g>
<!-- Node60&#45;&gt;Node25 -->
<g id="edge65" class="edge">
<title>Node60&#45;&gt;Node25</title>
<path fill="none" stroke="midnightblue" d="M810.59,-168.45C808.87,-148.62 804.12,-97.96 797.31,-56 795.89,-47.24 794,-37.59 792.32,-29.47"/>
<polygon fill="midnightblue" stroke="midnightblue" points="795.73,-28.65 790.23,-19.59 788.88,-30.1 795.73,-28.65"/>
</g>
</g>
</svg>
