<?xml version="1.0" encoding="UTF-8" standalone="no"?>
<!DOCTYPE svg PUBLIC "-//W3C//DTD SVG 1.1//EN"
 "http://www.w3.org/Graphics/SVG/1.1/DTD/svg11.dtd">
<!-- Generated by graphviz version 2.43.0 (0)
 -->
<!-- Title: /home/runner/work/cbmc&#45;documentation/cbmc&#45;documentation/src/solvers/strings/string_builtin_function.h Pages: 1 -->
<svg width="1457pt" height="406pt"
 viewBox="0.00 0.00 1457.00 406.00" xmlns="http://www.w3.org/2000/svg" xmlns:xlink="http://www.w3.org/1999/xlink">
<g id="graph0" class="graph" transform="scale(1 1) rotate(0) translate(4 402)">
<title>/home/runner/work/cbmc&#45;documentation/cbmc&#45;documentation/src/solvers/strings/string_builtin_function.h</title>
<!-- Node1 -->
<g id="node1" class="node">
<title>Node1</title>
<g id="a_node1"><a xlink:title=" ">
<polygon fill="#bfbfbf" stroke="black" points="334,-345.5 334,-397.5 534,-397.5 534,-345.5 334,-345.5"/>
<text text-anchor="start" x="342" y="-385.5" font-family="Helvetica,sans-Serif" font-size="10.00">/home/runner/work/cbmc</text>
<text text-anchor="start" x="342" y="-374.5" font-family="Helvetica,sans-Serif" font-size="10.00">&#45;documentation/cbmc&#45;documentation</text>
<text text-anchor="start" x="342" y="-363.5" font-family="Helvetica,sans-Serif" font-size="10.00">/src/solvers/strings/string_builtin</text>
<text text-anchor="middle" x="434" y="-352.5" font-family="Helvetica,sans-Serif" font-size="10.00">_function.h</text>
</a>
</g>
</g>
<!-- Node2 -->
<g id="node2" class="node">
<title>Node2</title>
<g id="a_node2"><a xlink:href="string__builtin__function_8cpp.html" target="_top" xlink:title=" ">
<polygon fill="none" stroke="black" points="7,-256.5 7,-308.5 207,-308.5 207,-256.5 7,-256.5"/>
<text text-anchor="start" x="15" y="-296.5" font-family="Helvetica,sans-Serif" font-size="10.00">/home/runner/work/cbmc</text>
<text text-anchor="start" x="15" y="-285.5" font-family="Helvetica,sans-Serif" font-size="10.00">&#45;documentation/cbmc&#45;documentation</text>
<text text-anchor="start" x="15" y="-274.5" font-family="Helvetica,sans-Serif" font-size="10.00">/src/solvers/strings/string_builtin</text>
<text text-anchor="middle" x="107" y="-263.5" font-family="Helvetica,sans-Serif" font-size="10.00">_function.cpp</text>
</a>
</g>
</g>
<!-- Node1&#45;&gt;Node2 -->
<g id="edge1" class="edge">
<title>Node1&#45;&gt;Node2</title>
<path fill="none" stroke="midnightblue" d="M330.03,-342.84C288.65,-331.83 241.38,-319.25 201.04,-308.52"/>
<polygon fill="midnightblue" stroke="midnightblue" points="329.29,-346.26 339.86,-345.45 331.09,-339.5 329.29,-346.26"/>
</g>
<!-- Node3 -->
<g id="node3" class="node">
<title>Node3</title>
<g id="a_node3"><a xlink:href="string__insertion__builtin__function_8h.html" target="_top" xlink:title=" ">
<polygon fill="none" stroke="black" points="225,-256.5 225,-308.5 425,-308.5 425,-256.5 225,-256.5"/>
<text text-anchor="start" x="233" y="-296.5" font-family="Helvetica,sans-Serif" font-size="10.00">/home/runner/work/cbmc</text>
<text text-anchor="start" x="233" y="-285.5" font-family="Helvetica,sans-Serif" font-size="10.00">&#45;documentation/cbmc&#45;documentation</text>
<text text-anchor="start" x="233" y="-274.5" font-family="Helvetica,sans-Serif" font-size="10.00">/src/solvers/strings/string_insertion</text>
<text text-anchor="middle" x="325" y="-263.5" font-family="Helvetica,sans-Serif" font-size="10.00">_builtin_function.h</text>
</a>
</g>
</g>
<!-- Node1&#45;&gt;Node3 -->
<g id="edge2" class="edge">
<title>Node1&#45;&gt;Node3</title>
<path fill="none" stroke="midnightblue" d="M394.45,-338.93C381.95,-328.96 368.31,-318.07 356.46,-308.61"/>
<polygon fill="midnightblue" stroke="midnightblue" points="392.47,-341.83 402.47,-345.34 396.84,-336.36 392.47,-341.83"/>
</g>
<!-- Node8 -->
<g id="node8" class="node">
<title>Node8</title>
<g id="a_node8"><a xlink:href="string__dependencies_8h.html" target="_top" xlink:title=" ">
<polygon fill="none" stroke="black" points="665.5,-262 665.5,-303 886.5,-303 886.5,-262 665.5,-262"/>
<text text-anchor="start" x="673.5" y="-291" font-family="Helvetica,sans-Serif" font-size="10.00">/home/runner/work/cbmc</text>
<text text-anchor="start" x="673.5" y="-280" font-family="Helvetica,sans-Serif" font-size="10.00">&#45;documentation/cbmc&#45;documentation</text>
<text text-anchor="middle" x="776" y="-269" font-family="Helvetica,sans-Serif" font-size="10.00">/src/solvers/strings/string_dependencies.h</text>
</a>
</g>
</g>
<!-- Node1&#45;&gt;Node8 -->
<g id="edge7" class="edge">
<title>Node1&#45;&gt;Node8</title>
<path fill="none" stroke="midnightblue" d="M542.21,-342.97C593.19,-330.01 652.82,-314.84 699.09,-303.06"/>
<polygon fill="midnightblue" stroke="midnightblue" points="541.29,-339.6 532.46,-345.45 543.02,-346.38 541.29,-339.6"/>
</g>
<!-- Node19 -->
<g id="node19" class="node">
<title>Node19</title>
<g id="a_node19"><a xlink:href="string__format__builtin__function_8h.html" target="_top" xlink:title=" ">
<polygon fill="none" stroke="black" points="443,-256.5 443,-308.5 643,-308.5 643,-256.5 443,-256.5"/>
<text text-anchor="start" x="451" y="-296.5" font-family="Helvetica,sans-Serif" font-size="10.00">/home/runner/work/cbmc</text>
<text text-anchor="start" x="451" y="-285.5" font-family="Helvetica,sans-Serif" font-size="10.00">&#45;documentation/cbmc&#45;documentation</text>
<text text-anchor="start" x="451" y="-274.5" font-family="Helvetica,sans-Serif" font-size="10.00">/src/solvers/strings/string_format</text>
<text text-anchor="middle" x="543" y="-263.5" font-family="Helvetica,sans-Serif" font-size="10.00">_builtin_function.h</text>
</a>
</g>
</g>
<!-- Node1&#45;&gt;Node19 -->
<g id="edge20" class="edge">
<title>Node1&#45;&gt;Node19</title>
<path fill="none" stroke="midnightblue" d="M473.55,-338.93C486.05,-328.96 499.69,-318.07 511.54,-308.61"/>
<polygon fill="midnightblue" stroke="midnightblue" points="471.16,-336.36 465.53,-345.34 475.53,-341.83 471.16,-336.36"/>
</g>
<!-- Node4 -->
<g id="node4" class="node">
<title>Node4</title>
<g id="a_node4"><a xlink:href="string__concatenation__builtin__function_8h.html" target="_top" xlink:title=" ">
<polygon fill="none" stroke="black" points="218.5,-167.5 218.5,-219.5 431.5,-219.5 431.5,-167.5 218.5,-167.5"/>
<text text-anchor="start" x="226.5" y="-207.5" font-family="Helvetica,sans-Serif" font-size="10.00">/home/runner/work/cbmc</text>
<text text-anchor="start" x="226.5" y="-196.5" font-family="Helvetica,sans-Serif" font-size="10.00">&#45;documentation/cbmc&#45;documentation</text>
<text text-anchor="start" x="226.5" y="-185.5" font-family="Helvetica,sans-Serif" font-size="10.00">/src/solvers/strings/string_concatenation</text>
<text text-anchor="middle" x="325" y="-174.5" font-family="Helvetica,sans-Serif" font-size="10.00">_builtin_function.h</text>
</a>
</g>
</g>
<!-- Node3&#45;&gt;Node4 -->
<g id="edge3" class="edge">
<title>Node3&#45;&gt;Node4</title>
<path fill="none" stroke="midnightblue" d="M325,-246.19C325,-237.28 325,-227.9 325,-219.61"/>
<polygon fill="midnightblue" stroke="midnightblue" points="321.5,-246.34 325,-256.34 328.5,-246.34 321.5,-246.34"/>
</g>
<!-- Node7 -->
<g id="node7" class="node">
<title>Node7</title>
<g id="a_node7"><a xlink:href="string__insertion__builtin__function_8cpp.html" target="_top" xlink:title=" ">
<polygon fill="none" stroke="black" points="0,-167.5 0,-219.5 200,-219.5 200,-167.5 0,-167.5"/>
<text text-anchor="start" x="8" y="-207.5" font-family="Helvetica,sans-Serif" font-size="10.00">/home/runner/work/cbmc</text>
<text text-anchor="start" x="8" y="-196.5" font-family="Helvetica,sans-Serif" font-size="10.00">&#45;documentation/cbmc&#45;documentation</text>
<text text-anchor="start" x="8" y="-185.5" font-family="Helvetica,sans-Serif" font-size="10.00">/src/solvers/strings/string_insertion</text>
<text text-anchor="middle" x="100" y="-174.5" font-family="Helvetica,sans-Serif" font-size="10.00">_builtin_function.cpp</text>
</a>
</g>
</g>
<!-- Node3&#45;&gt;Node7 -->
<g id="edge6" class="edge">
<title>Node3&#45;&gt;Node7</title>
<path fill="none" stroke="midnightblue" d="M250.56,-252.72C222.8,-241.98 191.53,-229.89 164.71,-219.52"/>
<polygon fill="midnightblue" stroke="midnightblue" points="249.63,-256.11 260.22,-256.45 252.16,-249.58 249.63,-256.11"/>
</g>
<!-- Node5 -->
<g id="node5" class="node">
<title>Node5</title>
<g id="a_node5"><a xlink:href="string__concatenation__builtin__function_8cpp.html" target="_top" xlink:title=" ">
<polygon fill="none" stroke="black" points="96.5,-78.5 96.5,-130.5 309.5,-130.5 309.5,-78.5 96.5,-78.5"/>
<text text-anchor="start" x="104.5" y="-118.5" font-family="Helvetica,sans-Serif" font-size="10.00">/home/runner/work/cbmc</text>
<text text-anchor="start" x="104.5" y="-107.5" font-family="Helvetica,sans-Serif" font-size="10.00">&#45;documentation/cbmc&#45;documentation</text>
<text text-anchor="start" x="104.5" y="-96.5" font-family="Helvetica,sans-Serif" font-size="10.00">/src/solvers/strings/string_concatenation</text>
<text text-anchor="middle" x="203" y="-85.5" font-family="Helvetica,sans-Serif" font-size="10.00">_builtin_function.cpp</text>
</a>
</g>
</g>
<!-- Node4&#45;&gt;Node5 -->
<g id="edge4" class="edge">
<title>Node4&#45;&gt;Node5</title>
<path fill="none" stroke="midnightblue" d="M281.53,-161.5C267.33,-151.37 251.73,-140.25 238.21,-130.61"/>
<polygon fill="midnightblue" stroke="midnightblue" points="279.54,-164.38 289.71,-167.34 283.6,-158.68 279.54,-164.38"/>
</g>
<!-- Node6 -->
<g id="node6" class="node">
<title>Node6</title>
<g id="a_node6"><a xlink:href="string__dependencies_8cpp.html" target="_top" xlink:title=" ">
<polygon fill="none" stroke="black" points="327,-84 327,-125 559,-125 559,-84 327,-84"/>
<text text-anchor="start" x="335" y="-113" font-family="Helvetica,sans-Serif" font-size="10.00">/home/runner/work/cbmc</text>
<text text-anchor="start" x="335" y="-102" font-family="Helvetica,sans-Serif" font-size="10.00">&#45;documentation/cbmc&#45;documentation</text>
<text text-anchor="middle" x="443" y="-91" font-family="Helvetica,sans-Serif" font-size="10.00">/src/solvers/strings/string_dependencies.cpp</text>
</a>
</g>
</g>
<!-- Node4&#45;&gt;Node6 -->
<g id="edge5" class="edge">
<title>Node4&#45;&gt;Node6</title>
<path fill="none" stroke="midnightblue" d="M367.48,-161.18C383.83,-149.13 402.01,-135.72 416.44,-125.08"/>
<polygon fill="midnightblue" stroke="midnightblue" points="365.1,-158.58 359.13,-167.34 369.26,-164.22 365.1,-158.58"/>
</g>
<!-- Node8&#45;&gt;Node6 -->
<g id="edge8" class="edge">
<title>Node8&#45;&gt;Node6</title>
<path fill="none" stroke="midnightblue" d="M763.65,-252.88C750.81,-226.56 728.2,-188.44 697,-167 683.49,-157.72 604.31,-139.32 537.89,-125.05"/>
<polygon fill="midnightblue" stroke="midnightblue" points="760.52,-254.44 767.94,-262 766.85,-251.46 760.52,-254.44"/>
</g>
<!-- Node9 -->
<g id="node9" class="node">
<title>Node9</title>
<g id="a_node9"><a xlink:href="string__refinement_8h.html" target="_top" xlink:title=" ">
<polygon fill="none" stroke="black" points="792,-173 792,-214 998,-214 998,-173 792,-173"/>
<text text-anchor="start" x="800" y="-202" font-family="Helvetica,sans-Serif" font-size="10.00">/home/runner/work/cbmc</text>
<text text-anchor="start" x="800" y="-191" font-family="Helvetica,sans-Serif" font-size="10.00">&#45;documentation/cbmc&#45;documentation</text>
<text text-anchor="middle" x="895" y="-180" font-family="Helvetica,sans-Serif" font-size="10.00">/src/solvers/strings/string_refinement.h</text>
</a>
</g>
</g>
<!-- Node8&#45;&gt;Node9 -->
<g id="edge9" class="edge">
<title>Node8&#45;&gt;Node9</title>
<path fill="none" stroke="midnightblue" d="M810.79,-256.07C829.03,-242.73 851.03,-226.65 867.97,-214.26"/>
<polygon fill="midnightblue" stroke="midnightblue" points="808.71,-253.25 802.71,-261.98 812.84,-258.9 808.71,-253.25"/>
</g>
<!-- Node15 -->
<g id="node15" class="node">
<title>Node15</title>
<g id="a_node15"><a xlink:href="string__refinement_8cpp.html" target="_top" xlink:title=" ">
<polygon fill="none" stroke="black" points="1231,-84 1231,-125 1449,-125 1449,-84 1231,-84"/>
<text text-anchor="start" x="1239" y="-113" font-family="Helvetica,sans-Serif" font-size="10.00">/home/runner/work/cbmc</text>
<text text-anchor="start" x="1239" y="-102" font-family="Helvetica,sans-Serif" font-size="10.00">&#45;documentation/cbmc&#45;documentation</text>
<text text-anchor="middle" x="1340" y="-91" font-family="Helvetica,sans-Serif" font-size="10.00">/src/solvers/strings/string_refinement.cpp</text>
</a>
</g>
</g>
<!-- Node8&#45;&gt;Node15 -->
<g id="edge19" class="edge">
<title>Node8&#45;&gt;Node15</title>
<path fill="none" stroke="midnightblue" d="M864.88,-259.41C907.99,-248.3 960.41,-234.19 1007,-220 1106.86,-189.58 1221.65,-148.8 1287.03,-125.02"/>
<polygon fill="midnightblue" stroke="midnightblue" points="863.79,-256.08 854.98,-261.95 865.53,-262.86 863.79,-256.08"/>
</g>
<!-- Node10 -->
<g id="node10" class="node">
<title>Node10</title>
<g id="a_node10"><a xlink:href="cbmc__parse__options_8h.html" target="_top" xlink:title=" ">
<polygon fill="none" stroke="black" points="577,-84 577,-125 777,-125 777,-84 577,-84"/>
<text text-anchor="start" x="585" y="-113" font-family="Helvetica,sans-Serif" font-size="10.00">/home/runner/work/cbmc</text>
<text text-anchor="start" x="585" y="-102" font-family="Helvetica,sans-Serif" font-size="10.00">&#45;documentation/cbmc&#45;documentation</text>
<text text-anchor="middle" x="677" y="-91" font-family="Helvetica,sans-Serif" font-size="10.00">/src/cbmc/cbmc_parse_options.h</text>
</a>
</g>
</g>
<!-- Node9&#45;&gt;Node10 -->
<g id="edge10" class="edge">
<title>Node9&#45;&gt;Node10</title>
<path fill="none" stroke="midnightblue" d="M836.59,-169.19C802.08,-155.42 758.89,-138.18 726.14,-125.11"/>
<polygon fill="midnightblue" stroke="midnightblue" points="835.49,-172.52 846.08,-172.98 838.09,-166.02 835.49,-172.52"/>
</g>
<!-- Node14 -->
<g id="node14" class="node">
<title>Node14</title>
<g id="a_node14"><a xlink:href="solver__factory_8cpp.html" target="_top" xlink:title=" ">
<polygon fill="none" stroke="black" points="795,-84 795,-125 995,-125 995,-84 795,-84"/>
<text text-anchor="start" x="803" y="-113" font-family="Helvetica,sans-Serif" font-size="10.00">/home/runner/work/cbmc</text>
<text text-anchor="start" x="803" y="-102" font-family="Helvetica,sans-Serif" font-size="10.00">&#45;documentation/cbmc&#45;documentation</text>
<text text-anchor="middle" x="895" y="-91" font-family="Helvetica,sans-Serif" font-size="10.00">/src/goto&#45;checker/solver_factory.cpp</text>
</a>
</g>
</g>
<!-- Node9&#45;&gt;Node14 -->
<g id="edge14" class="edge">
<title>Node9&#45;&gt;Node14</title>
<path fill="none" stroke="midnightblue" d="M895,-162.44C895,-150.1 895,-136.16 895,-125.16"/>
<polygon fill="midnightblue" stroke="midnightblue" points="891.5,-162.76 895,-172.76 898.5,-162.76 891.5,-162.76"/>
</g>
<!-- Node9&#45;&gt;Node15 -->
<g id="edge15" class="edge">
<title>Node9&#45;&gt;Node15</title>
<path fill="none" stroke="midnightblue" d="M1008.2,-171.99C1071.22,-160.37 1151.05,-145.33 1222,-131 1231.35,-129.11 1241.1,-127.09 1250.82,-125.04"/>
<polygon fill="midnightblue" stroke="midnightblue" points="1007.43,-168.57 998.23,-173.82 1008.7,-175.45 1007.43,-168.57"/>
</g>
<!-- Node16 -->
<g id="node16" class="node">
<title>Node16</title>
<g id="a_node16"><a xlink:href="jbmc__parse__options_8h.html" target="_top" xlink:title=" ">
<polygon fill="none" stroke="black" points="1013,-84 1013,-125 1213,-125 1213,-84 1013,-84"/>
<text text-anchor="start" x="1021" y="-113" font-family="Helvetica,sans-Serif" font-size="10.00">/home/runner/work/cbmc</text>
<text text-anchor="start" x="1021" y="-102" font-family="Helvetica,sans-Serif" font-size="10.00">&#45;documentation/cbmc&#45;documentation</text>
<text text-anchor="middle" x="1113" y="-91" font-family="Helvetica,sans-Serif" font-size="10.00">/jbmc/src/jbmc/jbmc_parse_options.h</text>
</a>
</g>
</g>
<!-- Node9&#45;&gt;Node16 -->
<g id="edge16" class="edge">
<title>Node9&#45;&gt;Node16</title>
<path fill="none" stroke="midnightblue" d="M953.41,-169.19C987.92,-155.42 1031.11,-138.18 1063.86,-125.11"/>
<polygon fill="midnightblue" stroke="midnightblue" points="951.91,-166.02 943.92,-172.98 954.51,-172.52 951.91,-166.02"/>
</g>
<!-- Node11 -->
<g id="node11" class="node">
<title>Node11</title>
<g id="a_node11"><a xlink:href="cbmc__languages_8cpp.html" target="_top" xlink:title=" ">
<polygon fill="none" stroke="black" points="572,-0.5 572,-41.5 772,-41.5 772,-0.5 572,-0.5"/>
<text text-anchor="start" x="580" y="-29.5" font-family="Helvetica,sans-Serif" font-size="10.00">/home/runner/work/cbmc</text>
<text text-anchor="start" x="580" y="-18.5" font-family="Helvetica,sans-Serif" font-size="10.00">&#45;documentation/cbmc&#45;documentation</text>
<text text-anchor="middle" x="672" y="-7.5" font-family="Helvetica,sans-Serif" font-size="10.00">/src/cbmc/cbmc_languages.cpp</text>
</a>
</g>
</g>
<!-- Node10&#45;&gt;Node11 -->
<g id="edge11" class="edge">
<title>Node10&#45;&gt;Node11</title>
<path fill="none" stroke="midnightblue" d="M675.16,-73.56C674.51,-62.88 673.79,-51.13 673.2,-41.55"/>
<polygon fill="midnightblue" stroke="midnightblue" points="671.68,-74 675.79,-83.77 678.67,-73.58 671.68,-74"/>
</g>
<!-- Node12 -->
<g id="node12" class="node">
<title>Node12</title>
<g id="a_node12"><a xlink:href="cbmc__main_8cpp.html" target="_top" xlink:title=" ">
<polygon fill="none" stroke="black" points="790,-0.5 790,-41.5 990,-41.5 990,-0.5 790,-0.5"/>
<text text-anchor="start" x="798" y="-29.5" font-family="Helvetica,sans-Serif" font-size="10.00">/home/runner/work/cbmc</text>
<text text-anchor="start" x="798" y="-18.5" font-family="Helvetica,sans-Serif" font-size="10.00">&#45;documentation/cbmc&#45;documentation</text>
<text text-anchor="middle" x="890" y="-7.5" font-family="Helvetica,sans-Serif" font-size="10.00">/src/cbmc/cbmc_main.cpp</text>
</a>
</g>
</g>
<!-- Node10&#45;&gt;Node12 -->
<g id="edge12" class="edge">
<title>Node10&#45;&gt;Node12</title>
<path fill="none" stroke="midnightblue" d="M737.72,-80.27C769.74,-68.01 808.59,-53.15 839.03,-41.5"/>
<polygon fill="midnightblue" stroke="midnightblue" points="736.11,-77.14 728.02,-83.98 738.61,-83.67 736.11,-77.14"/>
</g>
<!-- Node13 -->
<g id="node13" class="node">
<title>Node13</title>
<g id="a_node13"><a xlink:href="cbmc__parse__options_8cpp.html" target="_top" xlink:title=" ">
<polygon fill="none" stroke="black" points="354,-0.5 354,-41.5 554,-41.5 554,-0.5 354,-0.5"/>
<text text-anchor="start" x="362" y="-29.5" font-family="Helvetica,sans-Serif" font-size="10.00">/home/runner/work/cbmc</text>
<text text-anchor="start" x="362" y="-18.5" font-family="Helvetica,sans-Serif" font-size="10.00">&#45;documentation/cbmc&#45;documentation</text>
<text text-anchor="middle" x="454" y="-7.5" font-family="Helvetica,sans-Serif" font-size="10.00">/src/cbmc/cbmc_parse_options.cpp</text>
</a>
</g>
</g>
<!-- Node10&#45;&gt;Node13 -->
<g id="edge13" class="edge">
<title>Node10&#45;&gt;Node13</title>
<path fill="none" stroke="midnightblue" d="M613.86,-80.42C580.25,-68.14 539.37,-53.2 507.36,-41.5"/>
<polygon fill="midnightblue" stroke="midnightblue" points="612.99,-83.83 623.59,-83.98 615.39,-77.26 612.99,-83.83"/>
</g>
<!-- Node17 -->
<g id="node17" class="node">
<title>Node17</title>
<g id="a_node17"><a xlink:href="jbmc__main_8cpp.html" target="_top" xlink:title=" ">
<polygon fill="none" stroke="black" points="1236,-0.5 1236,-41.5 1436,-41.5 1436,-0.5 1236,-0.5"/>
<text text-anchor="start" x="1244" y="-29.5" font-family="Helvetica,sans-Serif" font-size="10.00">/home/runner/work/cbmc</text>
<text text-anchor="start" x="1244" y="-18.5" font-family="Helvetica,sans-Serif" font-size="10.00">&#45;documentation/cbmc&#45;documentation</text>
<text text-anchor="middle" x="1336" y="-7.5" font-family="Helvetica,sans-Serif" font-size="10.00">/jbmc/src/jbmc/jbmc_main.cpp</text>
</a>
</g>
</g>
<!-- Node16&#45;&gt;Node17 -->
<g id="edge17" class="edge">
<title>Node16&#45;&gt;Node17</title>
<path fill="none" stroke="midnightblue" d="M1176.14,-80.42C1209.75,-68.14 1250.63,-53.2 1282.64,-41.5"/>
<polygon fill="midnightblue" stroke="midnightblue" points="1174.61,-77.26 1166.41,-83.98 1177.01,-83.83 1174.61,-77.26"/>
</g>
<!-- Node18 -->
<g id="node18" class="node">
<title>Node18</title>
<g id="a_node18"><a xlink:href="jbmc__parse__options_8cpp.html" target="_top" xlink:title=" ">
<polygon fill="none" stroke="black" points="1008.5,-0.5 1008.5,-41.5 1217.5,-41.5 1217.5,-0.5 1008.5,-0.5"/>
<text text-anchor="start" x="1016.5" y="-29.5" font-family="Helvetica,sans-Serif" font-size="10.00">/home/runner/work/cbmc</text>
<text text-anchor="start" x="1016.5" y="-18.5" font-family="Helvetica,sans-Serif" font-size="10.00">&#45;documentation/cbmc&#45;documentation</text>
<text text-anchor="middle" x="1113" y="-7.5" font-family="Helvetica,sans-Serif" font-size="10.00">/jbmc/src/jbmc/jbmc_parse_options.cpp</text>
</a>
</g>
</g>
<!-- Node16&#45;&gt;Node18 -->
<g id="edge18" class="edge">
<title>Node16&#45;&gt;Node18</title>
<path fill="none" stroke="midnightblue" d="M1113,-73.56C1113,-62.88 1113,-51.13 1113,-41.55"/>
<polygon fill="midnightblue" stroke="midnightblue" points="1109.5,-73.77 1113,-83.77 1116.5,-73.77 1109.5,-73.77"/>
</g>
<!-- Node19&#45;&gt;Node6 -->
<g id="edge21" class="edge">
<title>Node19&#45;&gt;Node6</title>
<path fill="none" stroke="midnightblue" d="M503.21,-249.27C494.28,-240.53 485.53,-230.54 479,-220 460.33,-189.89 450.58,-149.28 446.14,-125.39"/>
<polygon fill="midnightblue" stroke="midnightblue" points="501.02,-252.02 510.71,-256.31 505.81,-246.91 501.02,-252.02"/>
</g>
<!-- Node20 -->
<g id="node20" class="node">
<title>Node20</title>
<g id="a_node20"><a xlink:href="string__format__builtin__function_8cpp.html" target="_top" xlink:title=" ">
<polygon fill="none" stroke="black" points="488,-167.5 488,-219.5 688,-219.5 688,-167.5 488,-167.5"/>
<text text-anchor="start" x="496" y="-207.5" font-family="Helvetica,sans-Serif" font-size="10.00">/home/runner/work/cbmc</text>
<text text-anchor="start" x="496" y="-196.5" font-family="Helvetica,sans-Serif" font-size="10.00">&#45;documentation/cbmc&#45;documentation</text>
<text text-anchor="start" x="496" y="-185.5" font-family="Helvetica,sans-Serif" font-size="10.00">/src/solvers/strings/string_format</text>
<text text-anchor="middle" x="588" y="-174.5" font-family="Helvetica,sans-Serif" font-size="10.00">_builtin_function.cpp</text>
</a>
</g>
</g>
<!-- Node19&#45;&gt;Node20 -->
<g id="edge22" class="edge">
<title>Node19&#45;&gt;Node20</title>
<path fill="none" stroke="midnightblue" d="M560.66,-247.35C565.45,-238.1 570.54,-228.26 575.01,-219.61"/>
<polygon fill="midnightblue" stroke="midnightblue" points="557.5,-245.85 556.02,-256.34 563.72,-249.06 557.5,-245.85"/>
</g>
</g>
</svg>
