<?xml version="1.0" encoding="UTF-8" standalone="no"?>
<!DOCTYPE svg PUBLIC "-//W3C//DTD SVG 1.1//EN"
 "http://www.w3.org/Graphics/SVG/1.1/DTD/svg11.dtd">
<!-- Generated by graphviz version 2.43.0 (0)
 -->
<!-- Title: /home/runner/work/cbmc&#45;documentation/cbmc&#45;documentation/src/solvers/strings/string_constraint.h Pages: 1 -->
<svg width="3043pt" height="573pt"
 viewBox="0.00 0.00 3042.84 573.00" xmlns="http://www.w3.org/2000/svg" xmlns:xlink="http://www.w3.org/1999/xlink">
<g id="graph0" class="graph" transform="scale(1 1) rotate(0) translate(4 569)">
<title>/home/runner/work/cbmc&#45;documentation/cbmc&#45;documentation/src/solvers/strings/string_constraint.h</title>
<!-- Node1 -->
<g id="node1" class="node">
<title>Node1</title>
<g id="a_node1"><a xlink:title=" ">
<polygon fill="#bfbfbf" stroke="black" points="1229.34,-523.5 1229.34,-564.5 1431.34,-564.5 1431.34,-523.5 1229.34,-523.5"/>
<text text-anchor="start" x="1237.34" y="-552.5" font-family="Helvetica,sans-Serif" font-size="10.00">/home/runner/work/cbmc</text>
<text text-anchor="start" x="1237.34" y="-541.5" font-family="Helvetica,sans-Serif" font-size="10.00">&#45;documentation/cbmc&#45;documentation</text>
<text text-anchor="middle" x="1330.34" y="-530.5" font-family="Helvetica,sans-Serif" font-size="10.00">/src/solvers/strings/string_constraint.h</text>
</a>
</g>
</g>
<!-- Node2 -->
<g id="node2" class="node">
<title>Node2</title>
<g id="a_node2"><a xlink:href="string__constraint__generator_8h.html" target="_top" xlink:title=" ">
<polygon fill="none" stroke="black" points="1118.34,-434.5 1118.34,-486.5 1318.34,-486.5 1318.34,-434.5 1118.34,-434.5"/>
<text text-anchor="start" x="1126.34" y="-474.5" font-family="Helvetica,sans-Serif" font-size="10.00">/home/runner/work/cbmc</text>
<text text-anchor="start" x="1126.34" y="-463.5" font-family="Helvetica,sans-Serif" font-size="10.00">&#45;documentation/cbmc&#45;documentation</text>
<text text-anchor="start" x="1126.34" y="-452.5" font-family="Helvetica,sans-Serif" font-size="10.00">/src/solvers/strings/string_constraint</text>
<text text-anchor="middle" x="1218.34" y="-441.5" font-family="Helvetica,sans-Serif" font-size="10.00">_generator.h</text>
</a>
</g>
</g>
<!-- Node1&#45;&gt;Node2 -->
<g id="edge1" class="edge">
<title>Node1&#45;&gt;Node2</title>
<path fill="none" stroke="midnightblue" d="M1295.39,-517.57C1281.89,-507.74 1266.48,-496.53 1253.01,-486.73"/>
<polygon fill="midnightblue" stroke="midnightblue" points="1293.37,-520.42 1303.51,-523.48 1297.48,-514.76 1293.37,-520.42"/>
</g>
<!-- Node32 -->
<g id="node32" class="node">
<title>Node32</title>
<g id="a_node32"><a xlink:href="string__refinement__util_8h.html" target="_top" xlink:title=" ">
<polygon fill="none" stroke="black" points="1694.84,-262 1694.84,-303 1921.84,-303 1921.84,-262 1694.84,-262"/>
<text text-anchor="start" x="1702.84" y="-291" font-family="Helvetica,sans-Serif" font-size="10.00">/home/runner/work/cbmc</text>
<text text-anchor="start" x="1702.84" y="-280" font-family="Helvetica,sans-Serif" font-size="10.00">&#45;documentation/cbmc&#45;documentation</text>
<text text-anchor="middle" x="1808.34" y="-269" font-family="Helvetica,sans-Serif" font-size="10.00">/src/solvers/strings/string_refinement_util.h</text>
</a>
</g>
</g>
<!-- Node1&#45;&gt;Node32 -->
<g id="edge36" class="edge">
<title>Node1&#45;&gt;Node32</title>
<path fill="none" stroke="midnightblue" d="M1219.01,-543.05C872.89,-541.36 -151.27,-521.57 19.34,-345 77.61,-284.69 1309.75,-282.36 1694.56,-283.11"/>
<polygon fill="midnightblue" stroke="midnightblue" points="1219.04,-546.55 1229.05,-543.09 1219.07,-539.55 1219.04,-546.55"/>
</g>
<!-- Node34 -->
<g id="node34" class="node">
<title>Node34</title>
<g id="a_node34"><a xlink:href="string__constraint_8cpp.html" target="_top" xlink:title=" ">
<polygon fill="none" stroke="black" points="1336.84,-440 1336.84,-481 1549.84,-481 1549.84,-440 1336.84,-440"/>
<text text-anchor="start" x="1344.84" y="-469" font-family="Helvetica,sans-Serif" font-size="10.00">/home/runner/work/cbmc</text>
<text text-anchor="start" x="1344.84" y="-458" font-family="Helvetica,sans-Serif" font-size="10.00">&#45;documentation/cbmc&#45;documentation</text>
<text text-anchor="middle" x="1443.34" y="-447" font-family="Helvetica,sans-Serif" font-size="10.00">/src/solvers/strings/string_constraint.cpp</text>
</a>
</g>
</g>
<!-- Node1&#45;&gt;Node34 -->
<g id="edge40" class="edge">
<title>Node1&#45;&gt;Node34</title>
<path fill="none" stroke="midnightblue" d="M1365.63,-517.54C1381.92,-505.8 1400.95,-492.07 1416.1,-481.14"/>
<polygon fill="midnightblue" stroke="midnightblue" points="1363.47,-514.79 1357.4,-523.48 1367.56,-520.47 1363.47,-514.79"/>
</g>
<!-- Node35 -->
<g id="node35" class="node">
<title>Node35</title>
<g id="a_node35"><a xlink:href="string__constraint__instantiation_8cpp.html" target="_top" xlink:title=" ">
<polygon fill="none" stroke="black" points="1568.34,-434.5 1568.34,-486.5 1768.34,-486.5 1768.34,-434.5 1568.34,-434.5"/>
<text text-anchor="start" x="1576.34" y="-474.5" font-family="Helvetica,sans-Serif" font-size="10.00">/home/runner/work/cbmc</text>
<text text-anchor="start" x="1576.34" y="-463.5" font-family="Helvetica,sans-Serif" font-size="10.00">&#45;documentation/cbmc&#45;documentation</text>
<text text-anchor="start" x="1576.34" y="-452.5" font-family="Helvetica,sans-Serif" font-size="10.00">/src/solvers/strings/string_constraint</text>
<text text-anchor="middle" x="1668.34" y="-441.5" font-family="Helvetica,sans-Serif" font-size="10.00">_instantiation.cpp</text>
</a>
</g>
</g>
<!-- Node1&#45;&gt;Node35 -->
<g id="edge41" class="edge">
<title>Node1&#45;&gt;Node35</title>
<path fill="none" stroke="midnightblue" d="M1421.12,-521.11C1466.48,-510.17 1521.49,-496.91 1568.09,-485.67"/>
<polygon fill="midnightblue" stroke="midnightblue" points="1420.2,-517.73 1411.3,-523.48 1421.84,-524.54 1420.2,-517.73"/>
</g>
<!-- Node3 -->
<g id="node3" class="node">
<title>Node3</title>
<g id="a_node3"><a xlink:href="string__refinement_8h.html" target="_top" xlink:title=" ">
<polygon fill="none" stroke="black" points="2013.34,-173 2013.34,-214 2219.34,-214 2219.34,-173 2013.34,-173"/>
<text text-anchor="start" x="2021.34" y="-202" font-family="Helvetica,sans-Serif" font-size="10.00">/home/runner/work/cbmc</text>
<text text-anchor="start" x="2021.34" y="-191" font-family="Helvetica,sans-Serif" font-size="10.00">&#45;documentation/cbmc&#45;documentation</text>
<text text-anchor="middle" x="2116.34" y="-180" font-family="Helvetica,sans-Serif" font-size="10.00">/src/solvers/strings/string_refinement.h</text>
</a>
</g>
</g>
<!-- Node2&#45;&gt;Node3 -->
<g id="edge2" class="edge">
<title>Node2&#45;&gt;Node3</title>
<path fill="none" stroke="midnightblue" d="M1328.72,-434.23C1435.75,-425.01 1926.83,-442.27 1981.34,-398 2032.05,-356.81 1980.66,-308.65 2019.34,-256 2032.44,-238.16 2052.42,-224.23 2070.84,-214.17"/>
<polygon fill="midnightblue" stroke="midnightblue" points="1328.14,-430.78 1318.59,-435.35 1328.91,-437.73 1328.14,-430.78"/>
</g>
<!-- Node13 -->
<g id="node13" class="node">
<title>Node13</title>
<g id="a_node13"><a xlink:href="string__builtin__function_8h.html" target="_top" xlink:title=" ">
<polygon fill="none" stroke="black" points="2246.34,-345.5 2246.34,-397.5 2446.34,-397.5 2446.34,-345.5 2246.34,-345.5"/>
<text text-anchor="start" x="2254.34" y="-385.5" font-family="Helvetica,sans-Serif" font-size="10.00">/home/runner/work/cbmc</text>
<text text-anchor="start" x="2254.34" y="-374.5" font-family="Helvetica,sans-Serif" font-size="10.00">&#45;documentation/cbmc&#45;documentation</text>
<text text-anchor="start" x="2254.34" y="-363.5" font-family="Helvetica,sans-Serif" font-size="10.00">/src/solvers/strings/string_builtin</text>
<text text-anchor="middle" x="2346.34" y="-352.5" font-family="Helvetica,sans-Serif" font-size="10.00">_function.h</text>
</a>
</g>
</g>
<!-- Node2&#45;&gt;Node13 -->
<g id="edge12" class="edge">
<title>Node2&#45;&gt;Node13</title>
<path fill="none" stroke="midnightblue" d="M1328.71,-433.92C1668.43,-387.49 1759.03,-423.21 2097.34,-398 2146.42,-394.34 2200.8,-388.93 2246.19,-384.03"/>
<polygon fill="midnightblue" stroke="midnightblue" points="1328.01,-430.49 1318.58,-435.32 1328.97,-437.42 1328.01,-430.49"/>
</g>
<!-- Node16 -->
<g id="node16" class="node">
<title>Node16</title>
<g id="a_node16"><a xlink:href="string__builtin__function_8cpp.html" target="_top" xlink:title=" ">
<polygon fill="none" stroke="black" points="2028.34,-256.5 2028.34,-308.5 2228.34,-308.5 2228.34,-256.5 2028.34,-256.5"/>
<text text-anchor="start" x="2036.34" y="-296.5" font-family="Helvetica,sans-Serif" font-size="10.00">/home/runner/work/cbmc</text>
<text text-anchor="start" x="2036.34" y="-285.5" font-family="Helvetica,sans-Serif" font-size="10.00">&#45;documentation/cbmc&#45;documentation</text>
<text text-anchor="start" x="2036.34" y="-274.5" font-family="Helvetica,sans-Serif" font-size="10.00">/src/solvers/strings/string_builtin</text>
<text text-anchor="middle" x="2128.34" y="-263.5" font-family="Helvetica,sans-Serif" font-size="10.00">_function.cpp</text>
</a>
</g>
</g>
<!-- Node2&#45;&gt;Node16 -->
<g id="edge26" class="edge">
<title>Node2&#45;&gt;Node16</title>
<path fill="none" stroke="midnightblue" d="M1328.73,-434.02C1494.83,-414.42 1877.61,-459.05 2014.34,-398 2056.86,-379.01 2092.17,-336.51 2111.74,-308.97"/>
<polygon fill="midnightblue" stroke="midnightblue" points="1328.05,-430.58 1318.59,-435.34 1328.95,-437.52 1328.05,-430.58"/>
</g>
<!-- Node23 -->
<g id="node23" class="node">
<title>Node23</title>
<g id="a_node23"><a xlink:href="string__constraint__generator__code__points_8cpp.html" target="_top" xlink:title=" ">
<polygon fill="none" stroke="black" points="28.34,-345.5 28.34,-397.5 228.34,-397.5 228.34,-345.5 28.34,-345.5"/>
<text text-anchor="start" x="36.34" y="-385.5" font-family="Helvetica,sans-Serif" font-size="10.00">/home/runner/work/cbmc</text>
<text text-anchor="start" x="36.34" y="-374.5" font-family="Helvetica,sans-Serif" font-size="10.00">&#45;documentation/cbmc&#45;documentation</text>
<text text-anchor="start" x="36.34" y="-363.5" font-family="Helvetica,sans-Serif" font-size="10.00">/src/solvers/strings/string_constraint</text>
<text text-anchor="middle" x="128.34" y="-352.5" font-family="Helvetica,sans-Serif" font-size="10.00">_generator_code_points.cpp</text>
</a>
</g>
</g>
<!-- Node2&#45;&gt;Node23 -->
<g id="edge27" class="edge">
<title>Node2&#45;&gt;Node23</title>
<path fill="none" stroke="midnightblue" d="M1108.07,-458.58C925.87,-455.72 550.91,-444.18 237.34,-398 234.45,-397.58 231.53,-397.11 228.59,-396.62"/>
<polygon fill="midnightblue" stroke="midnightblue" points="1108.15,-462.08 1118.2,-458.73 1108.25,-455.08 1108.15,-462.08"/>
</g>
<!-- Node24 -->
<g id="node24" class="node">
<title>Node24</title>
<g id="a_node24"><a xlink:href="string__constraint__generator__comparison_8cpp.html" target="_top" xlink:title=" ">
<polygon fill="none" stroke="black" points="246.34,-345.5 246.34,-397.5 446.34,-397.5 446.34,-345.5 246.34,-345.5"/>
<text text-anchor="start" x="254.34" y="-385.5" font-family="Helvetica,sans-Serif" font-size="10.00">/home/runner/work/cbmc</text>
<text text-anchor="start" x="254.34" y="-374.5" font-family="Helvetica,sans-Serif" font-size="10.00">&#45;documentation/cbmc&#45;documentation</text>
<text text-anchor="start" x="254.34" y="-363.5" font-family="Helvetica,sans-Serif" font-size="10.00">/src/solvers/strings/string_constraint</text>
<text text-anchor="middle" x="346.34" y="-352.5" font-family="Helvetica,sans-Serif" font-size="10.00">_generator_comparison.cpp</text>
</a>
</g>
</g>
<!-- Node2&#45;&gt;Node24 -->
<g id="edge28" class="edge">
<title>Node2&#45;&gt;Node24</title>
<path fill="none" stroke="midnightblue" d="M1108.03,-455.78C959.13,-449.58 685.89,-434.05 455.34,-398 452.46,-397.55 449.54,-397.06 446.6,-396.55"/>
<polygon fill="midnightblue" stroke="midnightblue" points="1107.96,-459.28 1118.1,-456.19 1108.25,-452.29 1107.96,-459.28"/>
</g>
<!-- Node25 -->
<g id="node25" class="node">
<title>Node25</title>
<g id="a_node25"><a xlink:href="string__constraint__generator__constants_8cpp.html" target="_top" xlink:title=" ">
<polygon fill="none" stroke="black" points="464.34,-345.5 464.34,-397.5 664.34,-397.5 664.34,-345.5 464.34,-345.5"/>
<text text-anchor="start" x="472.34" y="-385.5" font-family="Helvetica,sans-Serif" font-size="10.00">/home/runner/work/cbmc</text>
<text text-anchor="start" x="472.34" y="-374.5" font-family="Helvetica,sans-Serif" font-size="10.00">&#45;documentation/cbmc&#45;documentation</text>
<text text-anchor="start" x="472.34" y="-363.5" font-family="Helvetica,sans-Serif" font-size="10.00">/src/solvers/strings/string_constraint</text>
<text text-anchor="middle" x="564.34" y="-352.5" font-family="Helvetica,sans-Serif" font-size="10.00">_generator_constants.cpp</text>
</a>
</g>
</g>
<!-- Node2&#45;&gt;Node25 -->
<g id="edge29" class="edge">
<title>Node2&#45;&gt;Node25</title>
<path fill="none" stroke="midnightblue" d="M1107.98,-450.88C997.51,-441.35 822.9,-423.84 673.34,-398 670.47,-397.5 667.56,-396.98 664.62,-396.43"/>
<polygon fill="midnightblue" stroke="midnightblue" points="1107.88,-454.38 1118.14,-451.75 1108.48,-447.41 1107.88,-454.38"/>
</g>
<!-- Node26 -->
<g id="node26" class="node">
<title>Node26</title>
<g id="a_node26"><a xlink:href="string__constraint__generator__float_8cpp.html" target="_top" xlink:title=" ">
<polygon fill="none" stroke="black" points="682.34,-345.5 682.34,-397.5 882.34,-397.5 882.34,-345.5 682.34,-345.5"/>
<text text-anchor="start" x="690.34" y="-385.5" font-family="Helvetica,sans-Serif" font-size="10.00">/home/runner/work/cbmc</text>
<text text-anchor="start" x="690.34" y="-374.5" font-family="Helvetica,sans-Serif" font-size="10.00">&#45;documentation/cbmc&#45;documentation</text>
<text text-anchor="start" x="690.34" y="-363.5" font-family="Helvetica,sans-Serif" font-size="10.00">/src/solvers/strings/string_constraint</text>
<text text-anchor="middle" x="782.34" y="-352.5" font-family="Helvetica,sans-Serif" font-size="10.00">_generator_float.cpp</text>
</a>
</g>
</g>
<!-- Node2&#45;&gt;Node26 -->
<g id="edge30" class="edge">
<title>Node2&#45;&gt;Node26</title>
<path fill="none" stroke="midnightblue" d="M1108.25,-440.04C1044.71,-428.5 963.37,-413.19 891.34,-398 888.39,-397.38 885.4,-396.74 882.38,-396.08"/>
<polygon fill="midnightblue" stroke="midnightblue" points="1107.83,-443.52 1118.29,-441.86 1109.08,-436.63 1107.83,-443.52"/>
</g>
<!-- Node27 -->
<g id="node27" class="node">
<title>Node27</title>
<g id="a_node27"><a xlink:href="string__constraint__generator__indexof_8cpp.html" target="_top" xlink:title=" ">
<polygon fill="none" stroke="black" points="900.34,-345.5 900.34,-397.5 1100.34,-397.5 1100.34,-345.5 900.34,-345.5"/>
<text text-anchor="start" x="908.34" y="-385.5" font-family="Helvetica,sans-Serif" font-size="10.00">/home/runner/work/cbmc</text>
<text text-anchor="start" x="908.34" y="-374.5" font-family="Helvetica,sans-Serif" font-size="10.00">&#45;documentation/cbmc&#45;documentation</text>
<text text-anchor="start" x="908.34" y="-363.5" font-family="Helvetica,sans-Serif" font-size="10.00">/src/solvers/strings/string_constraint</text>
<text text-anchor="middle" x="1000.34" y="-352.5" font-family="Helvetica,sans-Serif" font-size="10.00">_generator_indexof.cpp</text>
</a>
</g>
</g>
<!-- Node2&#45;&gt;Node27 -->
<g id="edge31" class="edge">
<title>Node2&#45;&gt;Node27</title>
<path fill="none" stroke="midnightblue" d="M1146.22,-430.72C1119.32,-419.98 1089.02,-407.89 1063.03,-397.52"/>
<polygon fill="midnightblue" stroke="midnightblue" points="1144.99,-434 1155.58,-434.45 1147.59,-427.5 1144.99,-434"/>
</g>
<!-- Node28 -->
<g id="node28" class="node">
<title>Node28</title>
<g id="a_node28"><a xlink:href="string__constraint__generator__main_8cpp.html" target="_top" xlink:title=" ">
<polygon fill="none" stroke="black" points="1118.34,-345.5 1118.34,-397.5 1318.34,-397.5 1318.34,-345.5 1118.34,-345.5"/>
<text text-anchor="start" x="1126.34" y="-385.5" font-family="Helvetica,sans-Serif" font-size="10.00">/home/runner/work/cbmc</text>
<text text-anchor="start" x="1126.34" y="-374.5" font-family="Helvetica,sans-Serif" font-size="10.00">&#45;documentation/cbmc&#45;documentation</text>
<text text-anchor="start" x="1126.34" y="-363.5" font-family="Helvetica,sans-Serif" font-size="10.00">/src/solvers/strings/string_constraint</text>
<text text-anchor="middle" x="1218.34" y="-352.5" font-family="Helvetica,sans-Serif" font-size="10.00">_generator_main.cpp</text>
</a>
</g>
</g>
<!-- Node2&#45;&gt;Node28 -->
<g id="edge32" class="edge">
<title>Node2&#45;&gt;Node28</title>
<path fill="none" stroke="midnightblue" d="M1218.34,-424.19C1218.34,-415.28 1218.34,-405.9 1218.34,-397.61"/>
<polygon fill="midnightblue" stroke="midnightblue" points="1214.84,-424.34 1218.34,-434.34 1221.84,-424.34 1214.84,-424.34"/>
</g>
<!-- Node29 -->
<g id="node29" class="node">
<title>Node29</title>
<g id="a_node29"><a xlink:href="string__constraint__generator__testing_8cpp.html" target="_top" xlink:title=" ">
<polygon fill="none" stroke="black" points="1336.34,-345.5 1336.34,-397.5 1536.34,-397.5 1536.34,-345.5 1336.34,-345.5"/>
<text text-anchor="start" x="1344.34" y="-385.5" font-family="Helvetica,sans-Serif" font-size="10.00">/home/runner/work/cbmc</text>
<text text-anchor="start" x="1344.34" y="-374.5" font-family="Helvetica,sans-Serif" font-size="10.00">&#45;documentation/cbmc&#45;documentation</text>
<text text-anchor="start" x="1344.34" y="-363.5" font-family="Helvetica,sans-Serif" font-size="10.00">/src/solvers/strings/string_constraint</text>
<text text-anchor="middle" x="1436.34" y="-352.5" font-family="Helvetica,sans-Serif" font-size="10.00">_generator_testing.cpp</text>
</a>
</g>
</g>
<!-- Node2&#45;&gt;Node29 -->
<g id="edge33" class="edge">
<title>Node2&#45;&gt;Node29</title>
<path fill="none" stroke="midnightblue" d="M1290.46,-430.72C1317.36,-419.98 1347.66,-407.89 1373.64,-397.52"/>
<polygon fill="midnightblue" stroke="midnightblue" points="1289.09,-427.5 1281.1,-434.45 1291.69,-434 1289.09,-427.5"/>
</g>
<!-- Node30 -->
<g id="node30" class="node">
<title>Node30</title>
<g id="a_node30"><a xlink:href="string__constraint__generator__transformation_8cpp.html" target="_top" xlink:title=" ">
<polygon fill="none" stroke="black" points="1554.34,-345.5 1554.34,-397.5 1754.34,-397.5 1754.34,-345.5 1554.34,-345.5"/>
<text text-anchor="start" x="1562.34" y="-385.5" font-family="Helvetica,sans-Serif" font-size="10.00">/home/runner/work/cbmc</text>
<text text-anchor="start" x="1562.34" y="-374.5" font-family="Helvetica,sans-Serif" font-size="10.00">&#45;documentation/cbmc&#45;documentation</text>
<text text-anchor="start" x="1562.34" y="-363.5" font-family="Helvetica,sans-Serif" font-size="10.00">/src/solvers/strings/string_constraint</text>
<text text-anchor="middle" x="1654.34" y="-352.5" font-family="Helvetica,sans-Serif" font-size="10.00">_generator_transformation.cpp</text>
</a>
</g>
</g>
<!-- Node2&#45;&gt;Node30 -->
<g id="edge34" class="edge">
<title>Node2&#45;&gt;Node30</title>
<path fill="none" stroke="midnightblue" d="M1328.3,-433.87C1425.35,-414.94 1452.14,-416.58 1545.34,-398 1548.29,-397.41 1551.29,-396.8 1554.31,-396.17"/>
<polygon fill="midnightblue" stroke="midnightblue" points="1327.5,-430.46 1318.37,-435.83 1328.85,-437.33 1327.5,-430.46"/>
</g>
<!-- Node31 -->
<g id="node31" class="node">
<title>Node31</title>
<g id="a_node31"><a xlink:href="string__constraint__generator__valueof_8cpp.html" target="_top" xlink:title=" ">
<polygon fill="none" stroke="black" points="1772.34,-345.5 1772.34,-397.5 1972.34,-397.5 1972.34,-345.5 1772.34,-345.5"/>
<text text-anchor="start" x="1780.34" y="-385.5" font-family="Helvetica,sans-Serif" font-size="10.00">/home/runner/work/cbmc</text>
<text text-anchor="start" x="1780.34" y="-374.5" font-family="Helvetica,sans-Serif" font-size="10.00">&#45;documentation/cbmc&#45;documentation</text>
<text text-anchor="start" x="1780.34" y="-363.5" font-family="Helvetica,sans-Serif" font-size="10.00">/src/solvers/strings/string_constraint</text>
<text text-anchor="middle" x="1872.34" y="-352.5" font-family="Helvetica,sans-Serif" font-size="10.00">_generator_valueof.cpp</text>
</a>
</g>
</g>
<!-- Node2&#45;&gt;Node31 -->
<g id="edge35" class="edge">
<title>Node2&#45;&gt;Node31</title>
<path fill="none" stroke="midnightblue" d="M1328.77,-433.88C1521.22,-404.59 1574.55,-427.71 1763.34,-398 1766.22,-397.55 1769.13,-397.06 1772.07,-396.54"/>
<polygon fill="midnightblue" stroke="midnightblue" points="1327.95,-430.47 1318.6,-435.46 1329.02,-437.38 1327.95,-430.47"/>
</g>
<!-- Node4 -->
<g id="node4" class="node">
<title>Node4</title>
<g id="a_node4"><a xlink:href="cbmc__parse__options_8h.html" target="_top" xlink:title=" ">
<polygon fill="none" stroke="black" points="2102.34,-84 2102.34,-125 2302.34,-125 2302.34,-84 2102.34,-84"/>
<text text-anchor="start" x="2110.34" y="-113" font-family="Helvetica,sans-Serif" font-size="10.00">/home/runner/work/cbmc</text>
<text text-anchor="start" x="2110.34" y="-102" font-family="Helvetica,sans-Serif" font-size="10.00">&#45;documentation/cbmc&#45;documentation</text>
<text text-anchor="middle" x="2202.34" y="-91" font-family="Helvetica,sans-Serif" font-size="10.00">/src/cbmc/cbmc_parse_options.h</text>
</a>
</g>
</g>
<!-- Node3&#45;&gt;Node4 -->
<g id="edge3" class="edge">
<title>Node3&#45;&gt;Node4</title>
<path fill="none" stroke="midnightblue" d="M2143.13,-165.4C2156,-152.37 2171.15,-137.05 2182.9,-125.16"/>
<polygon fill="midnightblue" stroke="midnightblue" points="2140.39,-163.19 2135.85,-172.76 2145.37,-168.11 2140.39,-163.19"/>
</g>
<!-- Node8 -->
<g id="node8" class="node">
<title>Node8</title>
<g id="a_node8"><a xlink:href="solver__factory_8cpp.html" target="_top" xlink:title=" ">
<polygon fill="none" stroke="black" points="1663.34,-84 1663.34,-125 1863.34,-125 1863.34,-84 1663.34,-84"/>
<text text-anchor="start" x="1671.34" y="-113" font-family="Helvetica,sans-Serif" font-size="10.00">/home/runner/work/cbmc</text>
<text text-anchor="start" x="1671.34" y="-102" font-family="Helvetica,sans-Serif" font-size="10.00">&#45;documentation/cbmc&#45;documentation</text>
<text text-anchor="middle" x="1763.34" y="-91" font-family="Helvetica,sans-Serif" font-size="10.00">/src/goto&#45;checker/solver_factory.cpp</text>
</a>
</g>
</g>
<!-- Node3&#45;&gt;Node8 -->
<g id="edge7" class="edge">
<title>Node3&#45;&gt;Node8</title>
<path fill="none" stroke="midnightblue" d="M2027.07,-170.5C1970.26,-156.5 1897.36,-138.53 1842.6,-125.03"/>
<polygon fill="midnightblue" stroke="midnightblue" points="2026.57,-173.98 2037.12,-172.98 2028.25,-167.18 2026.57,-173.98"/>
</g>
<!-- Node9 -->
<g id="node9" class="node">
<title>Node9</title>
<g id="a_node9"><a xlink:href="string__refinement_8cpp.html" target="_top" xlink:title=" ">
<polygon fill="none" stroke="black" points="2320.34,-84 2320.34,-125 2538.34,-125 2538.34,-84 2320.34,-84"/>
<text text-anchor="start" x="2328.34" y="-113" font-family="Helvetica,sans-Serif" font-size="10.00">/home/runner/work/cbmc</text>
<text text-anchor="start" x="2328.34" y="-102" font-family="Helvetica,sans-Serif" font-size="10.00">&#45;documentation/cbmc&#45;documentation</text>
<text text-anchor="middle" x="2429.34" y="-91" font-family="Helvetica,sans-Serif" font-size="10.00">/src/solvers/strings/string_refinement.cpp</text>
</a>
</g>
</g>
<!-- Node3&#45;&gt;Node9 -->
<g id="edge8" class="edge">
<title>Node3&#45;&gt;Node9</title>
<path fill="none" stroke="midnightblue" d="M2196.43,-170.24C2246.66,-156.28 2310.81,-138.45 2359.06,-125.03"/>
<polygon fill="midnightblue" stroke="midnightblue" points="2195.28,-166.93 2186.58,-172.98 2197.15,-173.67 2195.28,-166.93"/>
</g>
<!-- Node10 -->
<g id="node10" class="node">
<title>Node10</title>
<g id="a_node10"><a xlink:href="jbmc__parse__options_8h.html" target="_top" xlink:title=" ">
<polygon fill="none" stroke="black" points="1881.34,-84 1881.34,-125 2081.34,-125 2081.34,-84 1881.34,-84"/>
<text text-anchor="start" x="1889.34" y="-113" font-family="Helvetica,sans-Serif" font-size="10.00">/home/runner/work/cbmc</text>
<text text-anchor="start" x="1889.34" y="-102" font-family="Helvetica,sans-Serif" font-size="10.00">&#45;documentation/cbmc&#45;documentation</text>
<text text-anchor="middle" x="1981.34" y="-91" font-family="Helvetica,sans-Serif" font-size="10.00">/jbmc/src/jbmc/jbmc_parse_options.h</text>
</a>
</g>
</g>
<!-- Node3&#45;&gt;Node10 -->
<g id="edge9" class="edge">
<title>Node3&#45;&gt;Node10</title>
<path fill="none" stroke="midnightblue" d="M2077.43,-167.43C2056.63,-154.02 2031.39,-137.76 2012,-125.26"/>
<polygon fill="midnightblue" stroke="midnightblue" points="2075.74,-170.5 2086.04,-172.98 2079.53,-164.62 2075.74,-170.5"/>
</g>
<!-- Node5 -->
<g id="node5" class="node">
<title>Node5</title>
<g id="a_node5"><a xlink:href="cbmc__languages_8cpp.html" target="_top" xlink:title=" ">
<polygon fill="none" stroke="black" points="2102.34,-0.5 2102.34,-41.5 2302.34,-41.5 2302.34,-0.5 2102.34,-0.5"/>
<text text-anchor="start" x="2110.34" y="-29.5" font-family="Helvetica,sans-Serif" font-size="10.00">/home/runner/work/cbmc</text>
<text text-anchor="start" x="2110.34" y="-18.5" font-family="Helvetica,sans-Serif" font-size="10.00">&#45;documentation/cbmc&#45;documentation</text>
<text text-anchor="middle" x="2202.34" y="-7.5" font-family="Helvetica,sans-Serif" font-size="10.00">/src/cbmc/cbmc_languages.cpp</text>
</a>
</g>
</g>
<!-- Node4&#45;&gt;Node5 -->
<g id="edge4" class="edge">
<title>Node4&#45;&gt;Node5</title>
<path fill="none" stroke="midnightblue" d="M2202.34,-73.56C2202.34,-62.88 2202.34,-51.13 2202.34,-41.55"/>
<polygon fill="midnightblue" stroke="midnightblue" points="2198.84,-73.77 2202.34,-83.77 2205.84,-73.77 2198.84,-73.77"/>
</g>
<!-- Node6 -->
<g id="node6" class="node">
<title>Node6</title>
<g id="a_node6"><a xlink:href="cbmc__main_8cpp.html" target="_top" xlink:title=" ">
<polygon fill="none" stroke="black" points="2320.34,-0.5 2320.34,-41.5 2520.34,-41.5 2520.34,-0.5 2320.34,-0.5"/>
<text text-anchor="start" x="2328.34" y="-29.5" font-family="Helvetica,sans-Serif" font-size="10.00">/home/runner/work/cbmc</text>
<text text-anchor="start" x="2328.34" y="-18.5" font-family="Helvetica,sans-Serif" font-size="10.00">&#45;documentation/cbmc&#45;documentation</text>
<text text-anchor="middle" x="2420.34" y="-7.5" font-family="Helvetica,sans-Serif" font-size="10.00">/src/cbmc/cbmc_main.cpp</text>
</a>
</g>
</g>
<!-- Node4&#45;&gt;Node6 -->
<g id="edge5" class="edge">
<title>Node4&#45;&gt;Node6</title>
<path fill="none" stroke="midnightblue" d="M2264.06,-80.42C2296.92,-68.14 2336.88,-53.2 2368.17,-41.5"/>
<polygon fill="midnightblue" stroke="midnightblue" points="2262.7,-77.2 2254.55,-83.98 2265.15,-83.76 2262.7,-77.2"/>
</g>
<!-- Node7 -->
<g id="node7" class="node">
<title>Node7</title>
<g id="a_node7"><a xlink:href="cbmc__parse__options_8cpp.html" target="_top" xlink:title=" ">
<polygon fill="none" stroke="black" points="2538.34,-0.5 2538.34,-41.5 2738.34,-41.5 2738.34,-0.5 2538.34,-0.5"/>
<text text-anchor="start" x="2546.34" y="-29.5" font-family="Helvetica,sans-Serif" font-size="10.00">/home/runner/work/cbmc</text>
<text text-anchor="start" x="2546.34" y="-18.5" font-family="Helvetica,sans-Serif" font-size="10.00">&#45;documentation/cbmc&#45;documentation</text>
<text text-anchor="middle" x="2638.34" y="-7.5" font-family="Helvetica,sans-Serif" font-size="10.00">/src/cbmc/cbmc_parse_options.cpp</text>
</a>
</g>
</g>
<!-- Node4&#45;&gt;Node7 -->
<g id="edge6" class="edge">
<title>Node4&#45;&gt;Node7</title>
<path fill="none" stroke="midnightblue" d="M2292.94,-81.82C2299.16,-80.48 2305.33,-79.2 2311.34,-78 2407.64,-58.8 2432.6,-58.86 2529.34,-42 2532.28,-41.49 2535.26,-40.96 2538.27,-40.43"/>
<polygon fill="midnightblue" stroke="midnightblue" points="2292.18,-78.41 2283.16,-83.96 2293.68,-85.25 2292.18,-78.41"/>
</g>
<!-- Node11 -->
<g id="node11" class="node">
<title>Node11</title>
<g id="a_node11"><a xlink:href="jbmc__main_8cpp.html" target="_top" xlink:title=" ">
<polygon fill="none" stroke="black" points="1656.34,-0.5 1656.34,-41.5 1856.34,-41.5 1856.34,-0.5 1656.34,-0.5"/>
<text text-anchor="start" x="1664.34" y="-29.5" font-family="Helvetica,sans-Serif" font-size="10.00">/home/runner/work/cbmc</text>
<text text-anchor="start" x="1664.34" y="-18.5" font-family="Helvetica,sans-Serif" font-size="10.00">&#45;documentation/cbmc&#45;documentation</text>
<text text-anchor="middle" x="1756.34" y="-7.5" font-family="Helvetica,sans-Serif" font-size="10.00">/jbmc/src/jbmc/jbmc_main.cpp</text>
</a>
</g>
</g>
<!-- Node10&#45;&gt;Node11 -->
<g id="edge10" class="edge">
<title>Node10&#45;&gt;Node11</title>
<path fill="none" stroke="midnightblue" d="M1917.63,-80.42C1883.72,-68.14 1842.48,-53.2 1810.18,-41.5"/>
<polygon fill="midnightblue" stroke="midnightblue" points="1916.85,-83.86 1927.45,-83.98 1919.23,-77.28 1916.85,-83.86"/>
</g>
<!-- Node12 -->
<g id="node12" class="node">
<title>Node12</title>
<g id="a_node12"><a xlink:href="jbmc__parse__options_8cpp.html" target="_top" xlink:title=" ">
<polygon fill="none" stroke="black" points="1874.84,-0.5 1874.84,-41.5 2083.84,-41.5 2083.84,-0.5 1874.84,-0.5"/>
<text text-anchor="start" x="1882.84" y="-29.5" font-family="Helvetica,sans-Serif" font-size="10.00">/home/runner/work/cbmc</text>
<text text-anchor="start" x="1882.84" y="-18.5" font-family="Helvetica,sans-Serif" font-size="10.00">&#45;documentation/cbmc&#45;documentation</text>
<text text-anchor="middle" x="1979.34" y="-7.5" font-family="Helvetica,sans-Serif" font-size="10.00">/jbmc/src/jbmc/jbmc_parse_options.cpp</text>
</a>
</g>
</g>
<!-- Node10&#45;&gt;Node12 -->
<g id="edge11" class="edge">
<title>Node10&#45;&gt;Node12</title>
<path fill="none" stroke="midnightblue" d="M1980.6,-73.56C1980.34,-62.88 1980.05,-51.13 1979.82,-41.55"/>
<polygon fill="midnightblue" stroke="midnightblue" points="1977.11,-73.86 1980.85,-83.77 1984.11,-73.69 1977.11,-73.86"/>
</g>
<!-- Node14 -->
<g id="node14" class="node">
<title>Node14</title>
<g id="a_node14"><a xlink:href="string__dependencies_8h.html" target="_top" xlink:title=" ">
<polygon fill="none" stroke="black" points="2464.84,-262 2464.84,-303 2685.84,-303 2685.84,-262 2464.84,-262"/>
<text text-anchor="start" x="2472.84" y="-291" font-family="Helvetica,sans-Serif" font-size="10.00">/home/runner/work/cbmc</text>
<text text-anchor="start" x="2472.84" y="-280" font-family="Helvetica,sans-Serif" font-size="10.00">&#45;documentation/cbmc&#45;documentation</text>
<text text-anchor="middle" x="2575.34" y="-269" font-family="Helvetica,sans-Serif" font-size="10.00">/src/solvers/strings/string_dependencies.h</text>
</a>
</g>
</g>
<!-- Node13&#45;&gt;Node14 -->
<g id="edge13" class="edge">
<title>Node13&#45;&gt;Node14</title>
<path fill="none" stroke="midnightblue" d="M2421.98,-341.76C2455.33,-329.09 2493.66,-314.53 2523.66,-303.13"/>
<polygon fill="midnightblue" stroke="midnightblue" points="2420.37,-338.63 2412.27,-345.45 2422.86,-345.17 2420.37,-338.63"/>
</g>
<!-- Node13&#45;&gt;Node16 -->
<g id="edge17" class="edge">
<title>Node13&#45;&gt;Node16</title>
<path fill="none" stroke="midnightblue" d="M2274.22,-341.72C2247.32,-330.98 2217.02,-318.89 2191.03,-308.52"/>
<polygon fill="midnightblue" stroke="midnightblue" points="2272.99,-345 2283.58,-345.45 2275.59,-338.5 2272.99,-345"/>
</g>
<!-- Node17 -->
<g id="node17" class="node">
<title>Node17</title>
<g id="a_node17"><a xlink:href="string__insertion__builtin__function_8h.html" target="_top" xlink:title=" ">
<polygon fill="none" stroke="black" points="2704.34,-256.5 2704.34,-308.5 2904.34,-308.5 2904.34,-256.5 2704.34,-256.5"/>
<text text-anchor="start" x="2712.34" y="-296.5" font-family="Helvetica,sans-Serif" font-size="10.00">/home/runner/work/cbmc</text>
<text text-anchor="start" x="2712.34" y="-285.5" font-family="Helvetica,sans-Serif" font-size="10.00">&#45;documentation/cbmc&#45;documentation</text>
<text text-anchor="start" x="2712.34" y="-274.5" font-family="Helvetica,sans-Serif" font-size="10.00">/src/solvers/strings/string_insertion</text>
<text text-anchor="middle" x="2804.34" y="-263.5" font-family="Helvetica,sans-Serif" font-size="10.00">_builtin_function.h</text>
</a>
</g>
</g>
<!-- Node13&#45;&gt;Node17 -->
<g id="edge18" class="edge">
<title>Node13&#45;&gt;Node17</title>
<path fill="none" stroke="midnightblue" d="M2456.65,-352.67C2525.47,-341.15 2615.78,-325.3 2695.34,-309 2698.29,-308.4 2701.28,-307.77 2704.3,-307.13"/>
<polygon fill="midnightblue" stroke="midnightblue" points="2455.95,-349.24 2446.66,-354.34 2457.1,-356.14 2455.95,-349.24"/>
</g>
<!-- Node21 -->
<g id="node21" class="node">
<title>Node21</title>
<g id="a_node21"><a xlink:href="string__format__builtin__function_8h.html" target="_top" xlink:title=" ">
<polygon fill="none" stroke="black" points="2246.34,-256.5 2246.34,-308.5 2446.34,-308.5 2446.34,-256.5 2246.34,-256.5"/>
<text text-anchor="start" x="2254.34" y="-296.5" font-family="Helvetica,sans-Serif" font-size="10.00">/home/runner/work/cbmc</text>
<text text-anchor="start" x="2254.34" y="-285.5" font-family="Helvetica,sans-Serif" font-size="10.00">&#45;documentation/cbmc&#45;documentation</text>
<text text-anchor="start" x="2254.34" y="-274.5" font-family="Helvetica,sans-Serif" font-size="10.00">/src/solvers/strings/string_format</text>
<text text-anchor="middle" x="2346.34" y="-263.5" font-family="Helvetica,sans-Serif" font-size="10.00">_builtin_function.h</text>
</a>
</g>
</g>
<!-- Node13&#45;&gt;Node21 -->
<g id="edge23" class="edge">
<title>Node13&#45;&gt;Node21</title>
<path fill="none" stroke="midnightblue" d="M2346.34,-335.19C2346.34,-326.28 2346.34,-316.9 2346.34,-308.61"/>
<polygon fill="midnightblue" stroke="midnightblue" points="2342.84,-335.34 2346.34,-345.34 2349.84,-335.34 2342.84,-335.34"/>
</g>
<!-- Node14&#45;&gt;Node3 -->
<g id="edge14" class="edge">
<title>Node14&#45;&gt;Node3</title>
<path fill="none" stroke="midnightblue" d="M2475.14,-259.97C2468.44,-258.61 2461.8,-257.27 2455.34,-256 2376.4,-240.46 2286.84,-224.27 2219.6,-212.41"/>
<polygon fill="midnightblue" stroke="midnightblue" points="2474.48,-263.41 2484.97,-262 2475.88,-256.55 2474.48,-263.41"/>
</g>
<!-- Node14&#45;&gt;Node9 -->
<g id="edge16" class="edge">
<title>Node14&#45;&gt;Node9</title>
<path fill="none" stroke="midnightblue" d="M2552.45,-253.9C2522.73,-218.09 2471.62,-156.47 2445.59,-125.09"/>
<polygon fill="midnightblue" stroke="midnightblue" points="2550.08,-256.53 2559.16,-261.99 2555.46,-252.06 2550.08,-256.53"/>
</g>
<!-- Node15 -->
<g id="node15" class="node">
<title>Node15</title>
<g id="a_node15"><a xlink:href="string__dependencies_8cpp.html" target="_top" xlink:title=" ">
<polygon fill="none" stroke="black" points="2556.34,-84 2556.34,-125 2788.34,-125 2788.34,-84 2556.34,-84"/>
<text text-anchor="start" x="2564.34" y="-113" font-family="Helvetica,sans-Serif" font-size="10.00">/home/runner/work/cbmc</text>
<text text-anchor="start" x="2564.34" y="-102" font-family="Helvetica,sans-Serif" font-size="10.00">&#45;documentation/cbmc&#45;documentation</text>
<text text-anchor="middle" x="2672.34" y="-91" font-family="Helvetica,sans-Serif" font-size="10.00">/src/solvers/strings/string_dependencies.cpp</text>
</a>
</g>
</g>
<!-- Node14&#45;&gt;Node15 -->
<g id="edge15" class="edge">
<title>Node14&#45;&gt;Node15</title>
<path fill="none" stroke="midnightblue" d="M2574.52,-251.74C2575.13,-227.37 2579.07,-192.84 2594.34,-167 2604.52,-149.78 2621.49,-135.54 2637,-125.11"/>
<polygon fill="midnightblue" stroke="midnightblue" points="2571.02,-251.8 2574.43,-261.82 2578.01,-251.85 2571.02,-251.8"/>
</g>
<!-- Node18 -->
<g id="node18" class="node">
<title>Node18</title>
<g id="a_node18"><a xlink:href="string__concatenation__builtin__function_8h.html" target="_top" xlink:title=" ">
<polygon fill="none" stroke="black" points="2821.84,-167.5 2821.84,-219.5 3034.84,-219.5 3034.84,-167.5 2821.84,-167.5"/>
<text text-anchor="start" x="2829.84" y="-207.5" font-family="Helvetica,sans-Serif" font-size="10.00">/home/runner/work/cbmc</text>
<text text-anchor="start" x="2829.84" y="-196.5" font-family="Helvetica,sans-Serif" font-size="10.00">&#45;documentation/cbmc&#45;documentation</text>
<text text-anchor="start" x="2829.84" y="-185.5" font-family="Helvetica,sans-Serif" font-size="10.00">/src/solvers/strings/string_concatenation</text>
<text text-anchor="middle" x="2928.34" y="-174.5" font-family="Helvetica,sans-Serif" font-size="10.00">_builtin_function.h</text>
</a>
</g>
</g>
<!-- Node17&#45;&gt;Node18 -->
<g id="edge19" class="edge">
<title>Node17&#45;&gt;Node18</title>
<path fill="none" stroke="midnightblue" d="M2848.52,-250.5C2862.96,-240.37 2878.81,-229.25 2892.55,-219.61"/>
<polygon fill="midnightblue" stroke="midnightblue" points="2846.38,-247.73 2840.2,-256.34 2850.4,-253.46 2846.38,-247.73"/>
</g>
<!-- Node20 -->
<g id="node20" class="node">
<title>Node20</title>
<g id="a_node20"><a xlink:href="string__insertion__builtin__function_8cpp.html" target="_top" xlink:title=" ">
<polygon fill="none" stroke="black" points="2603.34,-167.5 2603.34,-219.5 2803.34,-219.5 2803.34,-167.5 2603.34,-167.5"/>
<text text-anchor="start" x="2611.34" y="-207.5" font-family="Helvetica,sans-Serif" font-size="10.00">/home/runner/work/cbmc</text>
<text text-anchor="start" x="2611.34" y="-196.5" font-family="Helvetica,sans-Serif" font-size="10.00">&#45;documentation/cbmc&#45;documentation</text>
<text text-anchor="start" x="2611.34" y="-185.5" font-family="Helvetica,sans-Serif" font-size="10.00">/src/solvers/strings/string_insertion</text>
<text text-anchor="middle" x="2703.34" y="-174.5" font-family="Helvetica,sans-Serif" font-size="10.00">_builtin_function.cpp</text>
</a>
</g>
</g>
<!-- Node17&#45;&gt;Node20 -->
<g id="edge22" class="edge">
<title>Node17&#45;&gt;Node20</title>
<path fill="none" stroke="midnightblue" d="M2767.36,-249.65C2755.87,-239.75 2743.37,-228.98 2732.49,-219.61"/>
<polygon fill="midnightblue" stroke="midnightblue" points="2765.26,-252.46 2775.12,-256.34 2769.83,-247.16 2765.26,-252.46"/>
</g>
<!-- Node18&#45;&gt;Node15 -->
<g id="edge21" class="edge">
<title>Node18&#45;&gt;Node15</title>
<path fill="none" stroke="midnightblue" d="M2844.73,-164.09C2807.24,-151.34 2763.94,-136.63 2730.11,-125.13"/>
<polygon fill="midnightblue" stroke="midnightblue" points="2844.04,-167.55 2854.64,-167.45 2846.29,-160.92 2844.04,-167.55"/>
</g>
<!-- Node19 -->
<g id="node19" class="node">
<title>Node19</title>
<g id="a_node19"><a xlink:href="string__concatenation__builtin__function_8cpp.html" target="_top" xlink:title=" ">
<polygon fill="none" stroke="black" points="2821.84,-78.5 2821.84,-130.5 3034.84,-130.5 3034.84,-78.5 2821.84,-78.5"/>
<text text-anchor="start" x="2829.84" y="-118.5" font-family="Helvetica,sans-Serif" font-size="10.00">/home/runner/work/cbmc</text>
<text text-anchor="start" x="2829.84" y="-107.5" font-family="Helvetica,sans-Serif" font-size="10.00">&#45;documentation/cbmc&#45;documentation</text>
<text text-anchor="start" x="2829.84" y="-96.5" font-family="Helvetica,sans-Serif" font-size="10.00">/src/solvers/strings/string_concatenation</text>
<text text-anchor="middle" x="2928.34" y="-85.5" font-family="Helvetica,sans-Serif" font-size="10.00">_builtin_function.cpp</text>
</a>
</g>
</g>
<!-- Node18&#45;&gt;Node19 -->
<g id="edge20" class="edge">
<title>Node18&#45;&gt;Node19</title>
<path fill="none" stroke="midnightblue" d="M2928.34,-157.19C2928.34,-148.28 2928.34,-138.9 2928.34,-130.61"/>
<polygon fill="midnightblue" stroke="midnightblue" points="2924.84,-157.34 2928.34,-167.34 2931.84,-157.34 2924.84,-157.34"/>
</g>
<!-- Node21&#45;&gt;Node15 -->
<g id="edge24" class="edge">
<title>Node21&#45;&gt;Node15</title>
<path fill="none" stroke="midnightblue" d="M2401.85,-251.53C2468.79,-215.39 2579.39,-155.68 2636.2,-125.01"/>
<polygon fill="midnightblue" stroke="midnightblue" points="2399.84,-248.64 2392.7,-256.47 2403.16,-254.8 2399.84,-248.64"/>
</g>
<!-- Node22 -->
<g id="node22" class="node">
<title>Node22</title>
<g id="a_node22"><a xlink:href="string__format__builtin__function_8cpp.html" target="_top" xlink:title=" ">
<polygon fill="none" stroke="black" points="1795.34,-167.5 1795.34,-219.5 1995.34,-219.5 1995.34,-167.5 1795.34,-167.5"/>
<text text-anchor="start" x="1803.34" y="-207.5" font-family="Helvetica,sans-Serif" font-size="10.00">/home/runner/work/cbmc</text>
<text text-anchor="start" x="1803.34" y="-196.5" font-family="Helvetica,sans-Serif" font-size="10.00">&#45;documentation/cbmc&#45;documentation</text>
<text text-anchor="start" x="1803.34" y="-185.5" font-family="Helvetica,sans-Serif" font-size="10.00">/src/solvers/strings/string_format</text>
<text text-anchor="middle" x="1895.34" y="-174.5" font-family="Helvetica,sans-Serif" font-size="10.00">_builtin_function.cpp</text>
</a>
</g>
</g>
<!-- Node21&#45;&gt;Node22 -->
<g id="edge25" class="edge">
<title>Node21&#45;&gt;Node22</title>
<path fill="none" stroke="midnightblue" d="M2236.39,-255.88C2132.75,-236.26 2104.09,-239.35 2004.34,-220 2001.38,-219.43 1998.38,-218.83 1995.36,-218.21"/>
<polygon fill="midnightblue" stroke="midnightblue" points="2235.84,-259.34 2246.32,-257.79 2237.16,-252.47 2235.84,-259.34"/>
</g>
<!-- Node32&#45;&gt;Node3 -->
<g id="edge37" class="edge">
<title>Node32&#45;&gt;Node3</title>
<path fill="none" stroke="midnightblue" d="M1887.15,-259.24C1936.58,-245.28 1999.7,-227.45 2047.18,-214.03"/>
<polygon fill="midnightblue" stroke="midnightblue" points="1886.13,-255.89 1877.46,-261.98 1888.03,-262.63 1886.13,-255.89"/>
</g>
<!-- Node32&#45;&gt;Node22 -->
<g id="edge38" class="edge">
<title>Node32&#45;&gt;Node22</title>
<path fill="none" stroke="midnightblue" d="M1835.42,-254.41C1846.48,-243.36 1859.19,-230.65 1870.05,-219.79"/>
<polygon fill="midnightblue" stroke="midnightblue" points="1832.68,-252.21 1828.08,-261.76 1837.63,-257.16 1832.68,-252.21"/>
</g>
<!-- Node33 -->
<g id="node33" class="node">
<title>Node33</title>
<g id="a_node33"><a xlink:href="string__refinement__util_8cpp.html" target="_top" xlink:title=" ">
<polygon fill="none" stroke="black" points="1537.84,-173 1537.84,-214 1776.84,-214 1776.84,-173 1537.84,-173"/>
<text text-anchor="start" x="1545.84" y="-202" font-family="Helvetica,sans-Serif" font-size="10.00">/home/runner/work/cbmc</text>
<text text-anchor="start" x="1545.84" y="-191" font-family="Helvetica,sans-Serif" font-size="10.00">&#45;documentation/cbmc&#45;documentation</text>
<text text-anchor="middle" x="1657.34" y="-180" font-family="Helvetica,sans-Serif" font-size="10.00">/src/solvers/strings/string_refinement_util.cpp</text>
</a>
</g>
</g>
<!-- Node32&#45;&gt;Node33 -->
<g id="edge39" class="edge">
<title>Node32&#45;&gt;Node33</title>
<path fill="none" stroke="midnightblue" d="M1765.72,-256.94C1742.2,-243.39 1713.38,-226.79 1691.37,-214.11"/>
<polygon fill="midnightblue" stroke="midnightblue" points="1764.04,-260.02 1774.45,-261.98 1767.53,-253.95 1764.04,-260.02"/>
</g>
</g>
</svg>
