<?xml version="1.0" encoding="UTF-8" standalone="no"?>
<!DOCTYPE svg PUBLIC "-//W3C//DTD SVG 1.1//EN"
 "http://www.w3.org/Graphics/SVG/1.1/DTD/svg11.dtd">
<!-- Generated by graphviz version 2.43.0 (0)
 -->
<!-- Title: /home/runner/work/cbmc&#45;documentation/cbmc&#45;documentation/src/util/string_constant.h Pages: 1 -->
<svg width="8487pt" height="228pt"
 viewBox="0.00 0.00 8487.00 228.00" xmlns="http://www.w3.org/2000/svg" xmlns:xlink="http://www.w3.org/1999/xlink">
<g id="graph0" class="graph" transform="scale(1 1) rotate(0) translate(4 224)">
<title>/home/runner/work/cbmc&#45;documentation/cbmc&#45;documentation/src/util/string_constant.h</title>
<!-- Node1 -->
<g id="node1" class="node">
<title>Node1</title>
<g id="a_node1"><a xlink:title=" ">
<polygon fill="#bfbfbf" stroke="black" points="4186,-178.5 4186,-219.5 4386,-219.5 4386,-178.5 4186,-178.5"/>
<text text-anchor="start" x="4194" y="-207.5" font-family="Helvetica,sans-Serif" font-size="10.00">/home/runner/work/cbmc</text>
<text text-anchor="start" x="4194" y="-196.5" font-family="Helvetica,sans-Serif" font-size="10.00">&#45;documentation/cbmc&#45;documentation</text>
<text text-anchor="middle" x="4286" y="-185.5" font-family="Helvetica,sans-Serif" font-size="10.00">/src/util/string_constant.h</text>
</a>
</g>
</g>
<!-- Node2 -->
<g id="node2" class="node">
<title>Node2</title>
<g id="a_node2"><a xlink:href="custom__bitvector__analysis_8cpp.html" target="_top" xlink:title=" ">
<polygon fill="none" stroke="black" points="0,-89.5 0,-141.5 200,-141.5 200,-89.5 0,-89.5"/>
<text text-anchor="start" x="8" y="-129.5" font-family="Helvetica,sans-Serif" font-size="10.00">/home/runner/work/cbmc</text>
<text text-anchor="start" x="8" y="-118.5" font-family="Helvetica,sans-Serif" font-size="10.00">&#45;documentation/cbmc&#45;documentation</text>
<text text-anchor="start" x="8" y="-107.5" font-family="Helvetica,sans-Serif" font-size="10.00">/src/analyses/custom_bitvector</text>
<text text-anchor="middle" x="100" y="-96.5" font-family="Helvetica,sans-Serif" font-size="10.00">_analysis.cpp</text>
</a>
</g>
</g>
<!-- Node1&#45;&gt;Node2 -->
<g id="edge1" class="edge">
<title>Node1&#45;&gt;Node2</title>
<path fill="none" stroke="midnightblue" d="M4175.59,-197.91C3564.7,-197.21 611.84,-191.3 209,-142 206.11,-141.65 203.18,-141.25 200.23,-140.81"/>
<polygon fill="midnightblue" stroke="midnightblue" points="4175.71,-201.41 4185.71,-197.92 4175.72,-194.41 4175.71,-201.41"/>
</g>
<!-- Node3 -->
<g id="node3" class="node">
<title>Node3</title>
<g id="a_node3"><a xlink:href="ansi__c__convert__type_8cpp.html" target="_top" xlink:title=" ">
<polygon fill="none" stroke="black" points="218,-95 218,-136 418,-136 418,-95 218,-95"/>
<text text-anchor="start" x="226" y="-124" font-family="Helvetica,sans-Serif" font-size="10.00">/home/runner/work/cbmc</text>
<text text-anchor="start" x="226" y="-113" font-family="Helvetica,sans-Serif" font-size="10.00">&#45;documentation/cbmc&#45;documentation</text>
<text text-anchor="middle" x="318" y="-102" font-family="Helvetica,sans-Serif" font-size="10.00">/src/ansi&#45;c/ansi_c_convert_type.cpp</text>
</a>
</g>
</g>
<!-- Node1&#45;&gt;Node3 -->
<g id="edge2" class="edge">
<title>Node1&#45;&gt;Node3</title>
<path fill="none" stroke="midnightblue" d="M4175.34,-197.82C3583.75,-196.64 806.95,-188.65 427,-142 415.52,-140.59 403.49,-138.46 391.79,-136.02"/>
<polygon fill="midnightblue" stroke="midnightblue" points="4175.57,-201.32 4185.58,-197.84 4175.58,-194.32 4175.57,-201.32"/>
</g>
<!-- Node4 -->
<g id="node4" class="node">
<title>Node4</title>
<g id="a_node4"><a xlink:href="c__storage__spec_8cpp.html" target="_top" xlink:title=" ">
<polygon fill="none" stroke="black" points="436,-95 436,-136 636,-136 636,-95 436,-95"/>
<text text-anchor="start" x="444" y="-124" font-family="Helvetica,sans-Serif" font-size="10.00">/home/runner/work/cbmc</text>
<text text-anchor="start" x="444" y="-113" font-family="Helvetica,sans-Serif" font-size="10.00">&#45;documentation/cbmc&#45;documentation</text>
<text text-anchor="middle" x="536" y="-102" font-family="Helvetica,sans-Serif" font-size="10.00">/src/ansi&#45;c/c_storage_spec.cpp</text>
</a>
</g>
</g>
<!-- Node1&#45;&gt;Node4 -->
<g id="edge3" class="edge">
<title>Node1&#45;&gt;Node4</title>
<path fill="none" stroke="midnightblue" d="M4175.65,-197.71C3605.07,-196.04 1002.22,-186.01 645,-142 633.52,-140.59 621.49,-138.45 609.79,-136.01"/>
<polygon fill="midnightblue" stroke="midnightblue" points="4175.92,-201.21 4185.93,-197.74 4175.94,-194.21 4175.92,-201.21"/>
</g>
<!-- Node5 -->
<g id="node5" class="node">
<title>Node5</title>
<g id="a_node5"><a xlink:href="c__typecheck__code_8cpp.html" target="_top" xlink:title=" ">
<polygon fill="none" stroke="black" points="654,-95 654,-136 854,-136 854,-95 654,-95"/>
<text text-anchor="start" x="662" y="-124" font-family="Helvetica,sans-Serif" font-size="10.00">/home/runner/work/cbmc</text>
<text text-anchor="start" x="662" y="-113" font-family="Helvetica,sans-Serif" font-size="10.00">&#45;documentation/cbmc&#45;documentation</text>
<text text-anchor="middle" x="754" y="-102" font-family="Helvetica,sans-Serif" font-size="10.00">/src/ansi&#45;c/c_typecheck_code.cpp</text>
</a>
</g>
</g>
<!-- Node1&#45;&gt;Node5 -->
<g id="edge4" class="edge">
<title>Node1&#45;&gt;Node5</title>
<path fill="none" stroke="midnightblue" d="M4175.62,-197.6C3625.98,-195.39 1197.45,-183.37 863,-142 851.62,-140.59 839.7,-138.48 828.08,-136.06"/>
<polygon fill="midnightblue" stroke="midnightblue" points="4175.91,-201.1 4185.92,-197.64 4175.94,-194.1 4175.91,-201.1"/>
</g>
<!-- Node6 -->
<g id="node6" class="node">
<title>Node6</title>
<g id="a_node6"><a xlink:href="c__typecheck__expr_8cpp.html" target="_top" xlink:title=" ">
<polygon fill="none" stroke="black" points="872,-95 872,-136 1072,-136 1072,-95 872,-95"/>
<text text-anchor="start" x="880" y="-124" font-family="Helvetica,sans-Serif" font-size="10.00">/home/runner/work/cbmc</text>
<text text-anchor="start" x="880" y="-113" font-family="Helvetica,sans-Serif" font-size="10.00">&#45;documentation/cbmc&#45;documentation</text>
<text text-anchor="middle" x="972" y="-102" font-family="Helvetica,sans-Serif" font-size="10.00">/src/ansi&#45;c/c_typecheck_expr.cpp</text>
</a>
</g>
</g>
<!-- Node1&#45;&gt;Node6 -->
<g id="edge5" class="edge">
<title>Node1&#45;&gt;Node6</title>
<path fill="none" stroke="midnightblue" d="M4175.39,-197.46C3647.02,-194.7 1392.68,-180.73 1081,-142 1069.62,-140.59 1057.7,-138.47 1046.08,-136.05"/>
<polygon fill="midnightblue" stroke="midnightblue" points="4175.66,-200.96 4185.68,-197.52 4175.7,-193.96 4175.66,-200.96"/>
</g>
<!-- Node7 -->
<g id="node7" class="node">
<title>Node7</title>
<g id="a_node7"><a xlink:href="c__typecheck__gcc__polymorphic__builtins_8cpp.html" target="_top" xlink:title=" ">
<polygon fill="none" stroke="black" points="1090,-89.5 1090,-141.5 1308,-141.5 1308,-89.5 1090,-89.5"/>
<text text-anchor="start" x="1098" y="-129.5" font-family="Helvetica,sans-Serif" font-size="10.00">/home/runner/work/cbmc</text>
<text text-anchor="start" x="1098" y="-118.5" font-family="Helvetica,sans-Serif" font-size="10.00">&#45;documentation/cbmc&#45;documentation</text>
<text text-anchor="start" x="1098" y="-107.5" font-family="Helvetica,sans-Serif" font-size="10.00">/src/ansi&#45;c/c_typecheck_gcc_polymorphic</text>
<text text-anchor="middle" x="1199" y="-96.5" font-family="Helvetica,sans-Serif" font-size="10.00">_builtins.cpp</text>
</a>
</g>
</g>
<!-- Node1&#45;&gt;Node7 -->
<g id="edge6" class="edge">
<title>Node1&#45;&gt;Node7</title>
<path fill="none" stroke="midnightblue" d="M4175.79,-197.19C3672.49,-193.31 1604.51,-175.46 1317,-142 1314.09,-141.66 1311.14,-141.28 1308.17,-140.87"/>
<polygon fill="midnightblue" stroke="midnightblue" points="4175.94,-200.69 4185.96,-197.27 4175.99,-193.69 4175.94,-200.69"/>
</g>
<!-- Node8 -->
<g id="node8" class="node">
<title>Node8</title>
<g id="a_node8"><a xlink:href="c__typecheck__initializer_8cpp.html" target="_top" xlink:title=" ">
<polygon fill="none" stroke="black" points="1326,-95 1326,-136 1526,-136 1526,-95 1326,-95"/>
<text text-anchor="start" x="1334" y="-124" font-family="Helvetica,sans-Serif" font-size="10.00">/home/runner/work/cbmc</text>
<text text-anchor="start" x="1334" y="-113" font-family="Helvetica,sans-Serif" font-size="10.00">&#45;documentation/cbmc&#45;documentation</text>
<text text-anchor="middle" x="1426" y="-102" font-family="Helvetica,sans-Serif" font-size="10.00">/src/ansi&#45;c/c_typecheck_initializer.cpp</text>
</a>
</g>
</g>
<!-- Node1&#45;&gt;Node8 -->
<g id="edge7" class="edge">
<title>Node1&#45;&gt;Node8</title>
<path fill="none" stroke="midnightblue" d="M4175.65,-197.12C3695.4,-193.1 1799.57,-175.27 1535,-142 1523.62,-140.57 1511.7,-138.44 1500.09,-136.02"/>
<polygon fill="midnightblue" stroke="midnightblue" points="4175.68,-200.62 4185.71,-197.2 4175.74,-193.62 4175.68,-200.62"/>
</g>
<!-- Node9 -->
<g id="node9" class="node">
<title>Node9</title>
<g id="a_node9"><a xlink:href="expr2c_8cpp.html" target="_top" xlink:title=" ">
<polygon fill="none" stroke="black" points="1544,-95 1544,-136 1744,-136 1744,-95 1544,-95"/>
<text text-anchor="start" x="1552" y="-124" font-family="Helvetica,sans-Serif" font-size="10.00">/home/runner/work/cbmc</text>
<text text-anchor="start" x="1552" y="-113" font-family="Helvetica,sans-Serif" font-size="10.00">&#45;documentation/cbmc&#45;documentation</text>
<text text-anchor="middle" x="1644" y="-102" font-family="Helvetica,sans-Serif" font-size="10.00">/src/ansi&#45;c/expr2c.cpp</text>
</a>
</g>
</g>
<!-- Node1&#45;&gt;Node9 -->
<g id="edge8" class="edge">
<title>Node1&#45;&gt;Node9</title>
<path fill="none" stroke="midnightblue" d="M4175.47,-196.91C3719.2,-192.23 1994.98,-172.64 1753,-142 1741.62,-140.56 1729.7,-138.43 1718.09,-136"/>
<polygon fill="midnightblue" stroke="midnightblue" points="4175.65,-200.41 4185.68,-197.01 4175.72,-193.41 4175.65,-200.41"/>
</g>
<!-- Node10 -->
<g id="node10" class="node">
<title>Node10</title>
<g id="a_node10"><a xlink:href="convert__string__literal_8cpp.html" target="_top" xlink:title=" ">
<polygon fill="none" stroke="black" points="1762,-89.5 1762,-141.5 1962,-141.5 1962,-89.5 1762,-89.5"/>
<text text-anchor="start" x="1770" y="-129.5" font-family="Helvetica,sans-Serif" font-size="10.00">/home/runner/work/cbmc</text>
<text text-anchor="start" x="1770" y="-118.5" font-family="Helvetica,sans-Serif" font-size="10.00">&#45;documentation/cbmc&#45;documentation</text>
<text text-anchor="start" x="1770" y="-107.5" font-family="Helvetica,sans-Serif" font-size="10.00">/src/ansi&#45;c/literals/convert</text>
<text text-anchor="middle" x="1862" y="-96.5" font-family="Helvetica,sans-Serif" font-size="10.00">_string_literal.cpp</text>
</a>
</g>
</g>
<!-- Node1&#45;&gt;Node10 -->
<g id="edge9" class="edge">
<title>Node1&#45;&gt;Node10</title>
<path fill="none" stroke="midnightblue" d="M4175.81,-198.34C3776.4,-199.08 2405.3,-197.45 1971,-142 1968.11,-141.63 1965.18,-141.22 1962.23,-140.77"/>
<polygon fill="midnightblue" stroke="midnightblue" points="4175.93,-201.84 4185.92,-198.32 4175.91,-194.84 4175.93,-201.84"/>
</g>
<!-- Node11 -->
<g id="node11" class="node">
<title>Node11</title>
<g id="a_node11"><a xlink:href="remove__asm_8cpp.html" target="_top" xlink:title=" ">
<polygon fill="none" stroke="black" points="1980,-95 1980,-136 2180,-136 2180,-95 1980,-95"/>
<text text-anchor="start" x="1988" y="-124" font-family="Helvetica,sans-Serif" font-size="10.00">/home/runner/work/cbmc</text>
<text text-anchor="start" x="1988" y="-113" font-family="Helvetica,sans-Serif" font-size="10.00">&#45;documentation/cbmc&#45;documentation</text>
<text text-anchor="middle" x="2080" y="-102" font-family="Helvetica,sans-Serif" font-size="10.00">/src/assembler/remove_asm.cpp</text>
</a>
</g>
</g>
<!-- Node1&#45;&gt;Node11 -->
<g id="edge10" class="edge">
<title>Node1&#45;&gt;Node11</title>
<path fill="none" stroke="midnightblue" d="M4175.85,-198.01C3801.33,-197.58 2578.71,-192.26 2189,-142 2177.72,-140.55 2165.91,-138.42 2154.39,-136.02"/>
<polygon fill="midnightblue" stroke="midnightblue" points="4175.88,-201.51 4185.88,-198.02 4175.89,-194.51 4175.88,-201.51"/>
</g>
<!-- Node12 -->
<g id="node12" class="node">
<title>Node12</title>
<g id="a_node12"><a xlink:href="cpp__typecheck__resolve_8cpp.html" target="_top" xlink:title=" ">
<polygon fill="none" stroke="black" points="2198,-95 2198,-136 2398,-136 2398,-95 2198,-95"/>
<text text-anchor="start" x="2206" y="-124" font-family="Helvetica,sans-Serif" font-size="10.00">/home/runner/work/cbmc</text>
<text text-anchor="start" x="2206" y="-113" font-family="Helvetica,sans-Serif" font-size="10.00">&#45;documentation/cbmc&#45;documentation</text>
<text text-anchor="middle" x="2298" y="-102" font-family="Helvetica,sans-Serif" font-size="10.00">/src/cpp/cpp_typecheck_resolve.cpp</text>
</a>
</g>
</g>
<!-- Node1&#45;&gt;Node12 -->
<g id="edge11" class="edge">
<title>Node1&#45;&gt;Node12</title>
<path fill="none" stroke="midnightblue" d="M4175.89,-197.61C3827.55,-195.91 2752.29,-187.07 2407,-142 2395.82,-140.54 2384.12,-138.43 2372.69,-136.05"/>
<polygon fill="midnightblue" stroke="midnightblue" points="4175.96,-201.11 4185.98,-197.66 4175.99,-194.11 4175.96,-201.11"/>
</g>
<!-- Node13 -->
<g id="node13" class="node">
<title>Node13</title>
<g id="a_node13"><a xlink:href="cpp__typecheck__static__assert_8cpp.html" target="_top" xlink:title=" ">
<polygon fill="none" stroke="black" points="2416,-89.5 2416,-141.5 2616,-141.5 2616,-89.5 2416,-89.5"/>
<text text-anchor="start" x="2424" y="-129.5" font-family="Helvetica,sans-Serif" font-size="10.00">/home/runner/work/cbmc</text>
<text text-anchor="start" x="2424" y="-118.5" font-family="Helvetica,sans-Serif" font-size="10.00">&#45;documentation/cbmc&#45;documentation</text>
<text text-anchor="start" x="2424" y="-107.5" font-family="Helvetica,sans-Serif" font-size="10.00">/src/cpp/cpp_typecheck_static</text>
<text text-anchor="middle" x="2516" y="-96.5" font-family="Helvetica,sans-Serif" font-size="10.00">_assert.cpp</text>
</a>
</g>
</g>
<!-- Node1&#45;&gt;Node13 -->
<g id="edge12" class="edge">
<title>Node1&#45;&gt;Node13</title>
<path fill="none" stroke="midnightblue" d="M4175.61,-197.1C3854.74,-194.04 2926,-181.89 2625,-142 2622.11,-141.62 2619.18,-141.19 2616.24,-140.73"/>
<polygon fill="midnightblue" stroke="midnightblue" points="4175.81,-200.6 4185.85,-197.2 4175.88,-193.6 4175.81,-200.6"/>
</g>
<!-- Node14 -->
<g id="node14" class="node">
<title>Node14</title>
<g id="a_node14"><a xlink:href="taint__analysis_8cpp.html" target="_top" xlink:title=" ">
<polygon fill="none" stroke="black" points="2634,-95 2634,-136 2834,-136 2834,-95 2634,-95"/>
<text text-anchor="start" x="2642" y="-124" font-family="Helvetica,sans-Serif" font-size="10.00">/home/runner/work/cbmc</text>
<text text-anchor="start" x="2642" y="-113" font-family="Helvetica,sans-Serif" font-size="10.00">&#45;documentation/cbmc&#45;documentation</text>
<text text-anchor="middle" x="2734" y="-102" font-family="Helvetica,sans-Serif" font-size="10.00">/src/goto&#45;analyzer/taint_analysis.cpp</text>
</a>
</g>
</g>
<!-- Node1&#45;&gt;Node14 -->
<g id="edge13" class="edge">
<title>Node1&#45;&gt;Node14</title>
<path fill="none" stroke="midnightblue" d="M4175.83,-196.45C3884.78,-191.91 3100.13,-176.74 2843,-142 2831.93,-140.5 2820.33,-138.39 2809,-136.02"/>
<polygon fill="midnightblue" stroke="midnightblue" points="4175.92,-199.95 4185.97,-196.6 4176.03,-192.95 4175.92,-199.95"/>
</g>
<!-- Node15 -->
<g id="node15" class="node">
<title>Node15</title>
<g id="a_node15"><a xlink:href="function_8cpp.html" target="_top" xlink:title=" ">
<polygon fill="none" stroke="black" points="2852,-95 2852,-136 3052,-136 3052,-95 2852,-95"/>
<text text-anchor="start" x="2860" y="-124" font-family="Helvetica,sans-Serif" font-size="10.00">/home/runner/work/cbmc</text>
<text text-anchor="start" x="2860" y="-113" font-family="Helvetica,sans-Serif" font-size="10.00">&#45;documentation/cbmc&#45;documentation</text>
<text text-anchor="middle" x="2952" y="-102" font-family="Helvetica,sans-Serif" font-size="10.00">/src/goto&#45;instrument/function.cpp</text>
</a>
</g>
</g>
<!-- Node1&#45;&gt;Node15 -->
<g id="edge14" class="edge">
<title>Node1&#45;&gt;Node15</title>
<path fill="none" stroke="midnightblue" d="M4175.53,-195.56C3916.23,-189.4 3274.43,-171.59 3061,-142 3050.03,-140.48 3038.54,-138.37 3027.3,-136.01"/>
<polygon fill="midnightblue" stroke="midnightblue" points="4175.64,-199.06 4185.71,-195.8 4175.8,-192.06 4175.64,-199.06"/>
</g>
<!-- Node16 -->
<g id="node16" class="node">
<title>Node16</title>
<g id="a_node16"><a xlink:href="thread__instrumentation_8cpp.html" target="_top" xlink:title=" ">
<polygon fill="none" stroke="black" points="3070,-95 3070,-136 3324,-136 3324,-95 3070,-95"/>
<text text-anchor="start" x="3078" y="-124" font-family="Helvetica,sans-Serif" font-size="10.00">/home/runner/work/cbmc</text>
<text text-anchor="start" x="3078" y="-113" font-family="Helvetica,sans-Serif" font-size="10.00">&#45;documentation/cbmc&#45;documentation</text>
<text text-anchor="middle" x="3197" y="-102" font-family="Helvetica,sans-Serif" font-size="10.00">/src/goto&#45;instrument/thread_instrumentation.cpp</text>
</a>
</g>
</g>
<!-- Node1&#45;&gt;Node16 -->
<g id="edge15" class="edge">
<title>Node1&#45;&gt;Node16</title>
<path fill="none" stroke="midnightblue" d="M4175.66,-196.05C3997.71,-191.88 3636.58,-179.23 3333,-142 3319.89,-140.39 3306.13,-138.3 3292.61,-136"/>
<polygon fill="midnightblue" stroke="midnightblue" points="4175.73,-199.55 4185.81,-196.28 4175.89,-192.55 4175.73,-199.55"/>
</g>
<!-- Node17 -->
<g id="node17" class="node">
<title>Node17</title>
<g id="a_node17"><a xlink:href="goto__convert_8cpp.html" target="_top" xlink:title=" ">
<polygon fill="none" stroke="black" points="3342,-95 3342,-136 3542,-136 3542,-95 3342,-95"/>
<text text-anchor="start" x="3350" y="-124" font-family="Helvetica,sans-Serif" font-size="10.00">/home/runner/work/cbmc</text>
<text text-anchor="start" x="3350" y="-113" font-family="Helvetica,sans-Serif" font-size="10.00">&#45;documentation/cbmc&#45;documentation</text>
<text text-anchor="middle" x="3442" y="-102" font-family="Helvetica,sans-Serif" font-size="10.00">/src/goto&#45;programs/goto_convert.cpp</text>
</a>
</g>
</g>
<!-- Node1&#45;&gt;Node17 -->
<g id="edge16" class="edge">
<title>Node1&#45;&gt;Node17</title>
<path fill="none" stroke="midnightblue" d="M4175.55,-194.79C4031.39,-189.41 3771.59,-175.63 3552,-142 3541.44,-140.38 3530.39,-138.3 3519.54,-136.02"/>
<polygon fill="midnightblue" stroke="midnightblue" points="4175.61,-198.29 4185.73,-195.16 4175.86,-191.3 4175.61,-198.29"/>
</g>
<!-- Node18 -->
<g id="node18" class="node">
<title>Node18</title>
<g id="a_node18"><a xlink:href="goto__instruction__code_8cpp.html" target="_top" xlink:title=" ">
<polygon fill="none" stroke="black" points="3560.5,-95 3560.5,-136 3799.5,-136 3799.5,-95 3560.5,-95"/>
<text text-anchor="start" x="3568.5" y="-124" font-family="Helvetica,sans-Serif" font-size="10.00">/home/runner/work/cbmc</text>
<text text-anchor="start" x="3568.5" y="-113" font-family="Helvetica,sans-Serif" font-size="10.00">&#45;documentation/cbmc&#45;documentation</text>
<text text-anchor="middle" x="3680" y="-102" font-family="Helvetica,sans-Serif" font-size="10.00">/src/goto&#45;programs/goto_instruction_code.cpp</text>
</a>
</g>
</g>
<!-- Node1&#45;&gt;Node18 -->
<g id="edge17" class="edge">
<title>Node1&#45;&gt;Node18</title>
<path fill="none" stroke="midnightblue" d="M4175.54,-187.51C4078.65,-177.72 3934.1,-161.68 3809,-142 3797.72,-140.23 3785.93,-138.17 3774.26,-136.02"/>
<polygon fill="midnightblue" stroke="midnightblue" points="4175.35,-191.01 4185.65,-188.52 4176.05,-184.04 4175.35,-191.01"/>
</g>
<!-- Node19 -->
<g id="node19" class="node">
<title>Node19</title>
<g id="a_node19"><a xlink:href="graphml__witness_8cpp.html" target="_top" xlink:title=" ">
<polygon fill="none" stroke="black" points="3817.5,-95 3817.5,-136 4032.5,-136 4032.5,-95 3817.5,-95"/>
<text text-anchor="start" x="3825.5" y="-124" font-family="Helvetica,sans-Serif" font-size="10.00">/home/runner/work/cbmc</text>
<text text-anchor="start" x="3825.5" y="-113" font-family="Helvetica,sans-Serif" font-size="10.00">&#45;documentation/cbmc&#45;documentation</text>
<text text-anchor="middle" x="3925" y="-102" font-family="Helvetica,sans-Serif" font-size="10.00">/src/goto&#45;programs/graphml_witness.cpp</text>
</a>
</g>
</g>
<!-- Node1&#45;&gt;Node19 -->
<g id="edge18" class="edge">
<title>Node1&#45;&gt;Node19</title>
<path fill="none" stroke="midnightblue" d="M4189.69,-176.26C4134.23,-163.74 4065.09,-148.13 4011.39,-136"/>
<polygon fill="midnightblue" stroke="midnightblue" points="4189.01,-179.69 4199.53,-178.48 4190.55,-172.86 4189.01,-179.69"/>
</g>
<!-- Node20 -->
<g id="node20" class="node">
<title>Node20</title>
<g id="a_node20"><a xlink:href="string__abstraction_8cpp.html" target="_top" xlink:title=" ">
<polygon fill="none" stroke="black" points="4051,-95 4051,-136 4271,-136 4271,-95 4051,-95"/>
<text text-anchor="start" x="4059" y="-124" font-family="Helvetica,sans-Serif" font-size="10.00">/home/runner/work/cbmc</text>
<text text-anchor="start" x="4059" y="-113" font-family="Helvetica,sans-Serif" font-size="10.00">&#45;documentation/cbmc&#45;documentation</text>
<text text-anchor="middle" x="4161" y="-102" font-family="Helvetica,sans-Serif" font-size="10.00">/src/goto&#45;programs/string_abstraction.cpp</text>
</a>
</g>
</g>
<!-- Node1&#45;&gt;Node20 -->
<g id="edge19" class="edge">
<title>Node1&#45;&gt;Node20</title>
<path fill="none" stroke="midnightblue" d="M4247.45,-172.87C4229.33,-161.05 4208.05,-147.17 4191.13,-136.14"/>
<polygon fill="midnightblue" stroke="midnightblue" points="4245.77,-175.95 4256.06,-178.48 4249.59,-170.09 4245.77,-175.95"/>
</g>
<!-- Node21 -->
<g id="node21" class="node">
<title>Node21</title>
<g id="a_node21"><a xlink:href="string__instrumentation_8cpp.html" target="_top" xlink:title=" ">
<polygon fill="none" stroke="black" points="4289.5,-95 4289.5,-136 4532.5,-136 4532.5,-95 4289.5,-95"/>
<text text-anchor="start" x="4297.5" y="-124" font-family="Helvetica,sans-Serif" font-size="10.00">/home/runner/work/cbmc</text>
<text text-anchor="start" x="4297.5" y="-113" font-family="Helvetica,sans-Serif" font-size="10.00">&#45;documentation/cbmc&#45;documentation</text>
<text text-anchor="middle" x="4411" y="-102" font-family="Helvetica,sans-Serif" font-size="10.00">/src/goto&#45;programs/string_instrumentation.cpp</text>
</a>
</g>
</g>
<!-- Node1&#45;&gt;Node21 -->
<g id="edge20" class="edge">
<title>Node1&#45;&gt;Node21</title>
<path fill="none" stroke="midnightblue" d="M4324.55,-172.87C4342.67,-161.05 4363.95,-147.17 4380.87,-136.14"/>
<polygon fill="midnightblue" stroke="midnightblue" points="4322.41,-170.09 4315.94,-178.48 4326.23,-175.95 4322.41,-170.09"/>
</g>
<!-- Node22 -->
<g id="node22" class="node">
<title>Node22</title>
<g id="a_node22"><a xlink:href="xml__goto__trace_8cpp.html" target="_top" xlink:title=" ">
<polygon fill="none" stroke="black" points="4551,-95 4551,-136 4759,-136 4759,-95 4551,-95"/>
<text text-anchor="start" x="4559" y="-124" font-family="Helvetica,sans-Serif" font-size="10.00">/home/runner/work/cbmc</text>
<text text-anchor="start" x="4559" y="-113" font-family="Helvetica,sans-Serif" font-size="10.00">&#45;documentation/cbmc&#45;documentation</text>
<text text-anchor="middle" x="4655" y="-102" font-family="Helvetica,sans-Serif" font-size="10.00">/src/goto&#45;programs/xml_goto_trace.cpp</text>
</a>
</g>
</g>
<!-- Node1&#45;&gt;Node22 -->
<g id="edge21" class="edge">
<title>Node1&#45;&gt;Node22</title>
<path fill="none" stroke="midnightblue" d="M4386.01,-176.28C4433.32,-165.97 4490.59,-153.42 4542,-142 4550.64,-140.08 4559.65,-138.07 4568.64,-136.05"/>
<polygon fill="midnightblue" stroke="midnightblue" points="4385.1,-172.9 4376.07,-178.45 4386.59,-179.74 4385.1,-172.9"/>
</g>
<!-- Node23 -->
<g id="node23" class="node">
<title>Node23</title>
<g id="a_node23"><a xlink:href="symex__builtin__functions_8cpp.html" target="_top" xlink:title=" ">
<polygon fill="none" stroke="black" points="4777,-89.5 4777,-141.5 4977,-141.5 4977,-89.5 4777,-89.5"/>
<text text-anchor="start" x="4785" y="-129.5" font-family="Helvetica,sans-Serif" font-size="10.00">/home/runner/work/cbmc</text>
<text text-anchor="start" x="4785" y="-118.5" font-family="Helvetica,sans-Serif" font-size="10.00">&#45;documentation/cbmc&#45;documentation</text>
<text text-anchor="start" x="4785" y="-107.5" font-family="Helvetica,sans-Serif" font-size="10.00">/src/goto&#45;symex/symex_builtin</text>
<text text-anchor="middle" x="4877" y="-96.5" font-family="Helvetica,sans-Serif" font-size="10.00">_functions.cpp</text>
</a>
</g>
</g>
<!-- Node1&#45;&gt;Node23 -->
<g id="edge22" class="edge">
<title>Node1&#45;&gt;Node23</title>
<path fill="none" stroke="midnightblue" d="M4396.4,-188.79C4494.43,-179.75 4641.36,-164.1 4768,-142 4770.87,-141.5 4773.78,-140.97 4776.71,-140.42"/>
<polygon fill="midnightblue" stroke="midnightblue" points="4395.82,-185.33 4386.18,-189.72 4396.46,-192.3 4395.82,-185.33"/>
</g>
<!-- Node24 -->
<g id="node24" class="node">
<title>Node24</title>
<g id="a_node24"><a xlink:href="analyze__symbol_8cpp.html" target="_top" xlink:title=" ">
<polygon fill="none" stroke="black" points="4995,-89.5 4995,-141.5 5195,-141.5 5195,-89.5 4995,-89.5"/>
<text text-anchor="start" x="5003" y="-129.5" font-family="Helvetica,sans-Serif" font-size="10.00">/home/runner/work/cbmc</text>
<text text-anchor="start" x="5003" y="-118.5" font-family="Helvetica,sans-Serif" font-size="10.00">&#45;documentation/cbmc&#45;documentation</text>
<text text-anchor="start" x="5003" y="-107.5" font-family="Helvetica,sans-Serif" font-size="10.00">/src/memory&#45;analyzer/analyze</text>
<text text-anchor="middle" x="5095" y="-96.5" font-family="Helvetica,sans-Serif" font-size="10.00">_symbol.cpp</text>
</a>
</g>
</g>
<!-- Node1&#45;&gt;Node24 -->
<g id="edge23" class="edge">
<title>Node1&#45;&gt;Node24</title>
<path fill="none" stroke="midnightblue" d="M4396.44,-194.28C4534.89,-188.45 4779.17,-174.28 4986,-142 4988.88,-141.55 4991.8,-141.07 4994.74,-140.55"/>
<polygon fill="midnightblue" stroke="midnightblue" points="4396.09,-190.79 4386.24,-194.71 4396.38,-197.79 4396.09,-190.79"/>
</g>
<!-- Node25 -->
<g id="node25" class="node">
<title>Node25</title>
<g id="a_node25"><a xlink:href="boolbv_8cpp.html" target="_top" xlink:title=" ">
<polygon fill="none" stroke="black" points="5213,-95 5213,-136 5413,-136 5413,-95 5213,-95"/>
<text text-anchor="start" x="5221" y="-124" font-family="Helvetica,sans-Serif" font-size="10.00">/home/runner/work/cbmc</text>
<text text-anchor="start" x="5221" y="-113" font-family="Helvetica,sans-Serif" font-size="10.00">&#45;documentation/cbmc&#45;documentation</text>
<text text-anchor="middle" x="5313" y="-102" font-family="Helvetica,sans-Serif" font-size="10.00">/src/solvers/flattening/boolbv.cpp</text>
</a>
</g>
</g>
<!-- Node1&#45;&gt;Node25 -->
<g id="edge24" class="edge">
<title>Node1&#45;&gt;Node25</title>
<path fill="none" stroke="midnightblue" d="M4396.2,-197.27C4569.17,-194.78 4914.53,-184.38 5204,-142 5214.67,-140.44 5225.84,-138.35 5236.79,-136.05"/>
<polygon fill="midnightblue" stroke="midnightblue" points="4396.02,-193.77 4386.07,-197.41 4396.12,-200.77 4396.02,-193.77"/>
</g>
<!-- Node26 -->
<g id="node26" class="node">
<title>Node26</title>
<g id="a_node26"><a xlink:href="solvers_2lowering_2byte__operators_8cpp.html" target="_top" xlink:title=" ">
<polygon fill="none" stroke="black" points="5431,-95 5431,-136 5645,-136 5645,-95 5431,-95"/>
<text text-anchor="start" x="5439" y="-124" font-family="Helvetica,sans-Serif" font-size="10.00">/home/runner/work/cbmc</text>
<text text-anchor="start" x="5439" y="-113" font-family="Helvetica,sans-Serif" font-size="10.00">&#45;documentation/cbmc&#45;documentation</text>
<text text-anchor="middle" x="5538" y="-102" font-family="Helvetica,sans-Serif" font-size="10.00">/src/solvers/lowering/byte_operators.cpp</text>
</a>
</g>
</g>
<!-- Node1&#45;&gt;Node26 -->
<g id="edge25" class="edge">
<title>Node1&#45;&gt;Node26</title>
<path fill="none" stroke="midnightblue" d="M4396.14,-198.66C4599.69,-198.54 5048.12,-191.95 5422,-142 5433.55,-140.46 5445.65,-138.35 5457.5,-136.01"/>
<polygon fill="midnightblue" stroke="midnightblue" points="4396.04,-195.16 4386.04,-198.66 4396.04,-202.16 4396.04,-195.16"/>
</g>
<!-- Node27 -->
<g id="node27" class="node">
<title>Node27</title>
<g id="a_node27"><a xlink:href="smt2__conv_8cpp.html" target="_top" xlink:title=" ">
<polygon fill="none" stroke="black" points="5663,-95 5663,-136 5863,-136 5863,-95 5663,-95"/>
<text text-anchor="start" x="5671" y="-124" font-family="Helvetica,sans-Serif" font-size="10.00">/home/runner/work/cbmc</text>
<text text-anchor="start" x="5671" y="-113" font-family="Helvetica,sans-Serif" font-size="10.00">&#45;documentation/cbmc&#45;documentation</text>
<text text-anchor="middle" x="5763" y="-102" font-family="Helvetica,sans-Serif" font-size="10.00">/src/solvers/smt2/smt2_conv.cpp</text>
</a>
</g>
</g>
<!-- Node1&#45;&gt;Node27 -->
<g id="edge26" class="edge">
<title>Node1&#45;&gt;Node27</title>
<path fill="none" stroke="midnightblue" d="M4396.61,-196.17C4677.29,-191.08 5412.04,-174.95 5654,-142 5664.98,-140.51 5676.47,-138.41 5687.7,-136.06"/>
<polygon fill="midnightblue" stroke="midnightblue" points="4396.35,-192.67 4386.41,-196.35 4396.47,-199.67 4396.35,-192.67"/>
</g>
<!-- Node28 -->
<g id="node28" class="node">
<title>Node28</title>
<g id="a_node28"><a xlink:href="convert__expr__to__smt_8cpp.html" target="_top" xlink:title=" ">
<polygon fill="none" stroke="black" points="5881,-89.5 5881,-141.5 6081,-141.5 6081,-89.5 5881,-89.5"/>
<text text-anchor="start" x="5889" y="-129.5" font-family="Helvetica,sans-Serif" font-size="10.00">/home/runner/work/cbmc</text>
<text text-anchor="start" x="5889" y="-118.5" font-family="Helvetica,sans-Serif" font-size="10.00">&#45;documentation/cbmc&#45;documentation</text>
<text text-anchor="start" x="5889" y="-107.5" font-family="Helvetica,sans-Serif" font-size="10.00">/src/solvers/smt2_incremental</text>
<text text-anchor="middle" x="5981" y="-96.5" font-family="Helvetica,sans-Serif" font-size="10.00">/convert_expr_to_smt.cpp</text>
</a>
</g>
</g>
<!-- Node1&#45;&gt;Node28 -->
<g id="edge27" class="edge">
<title>Node1&#45;&gt;Node28</title>
<path fill="none" stroke="midnightblue" d="M4396.5,-196.89C4707.51,-193.34 5586.19,-180.11 5872,-142 5874.89,-141.61 5877.81,-141.19 5880.76,-140.72"/>
<polygon fill="midnightblue" stroke="midnightblue" points="4396.09,-193.4 4386.13,-197.01 4396.17,-200.4 4396.09,-193.4"/>
</g>
<!-- Node29 -->
<g id="node29" class="node">
<title>Node29</title>
<g id="a_node29"><a xlink:href="object__tracking_8cpp.html" target="_top" xlink:title=" ">
<polygon fill="none" stroke="black" points="6099,-89.5 6099,-141.5 6299,-141.5 6299,-89.5 6099,-89.5"/>
<text text-anchor="start" x="6107" y="-129.5" font-family="Helvetica,sans-Serif" font-size="10.00">/home/runner/work/cbmc</text>
<text text-anchor="start" x="6107" y="-118.5" font-family="Helvetica,sans-Serif" font-size="10.00">&#45;documentation/cbmc&#45;documentation</text>
<text text-anchor="start" x="6107" y="-107.5" font-family="Helvetica,sans-Serif" font-size="10.00">/src/solvers/smt2_incremental</text>
<text text-anchor="middle" x="6199" y="-96.5" font-family="Helvetica,sans-Serif" font-size="10.00">/object_tracking.cpp</text>
</a>
</g>
</g>
<!-- Node1&#45;&gt;Node29 -->
<g id="edge28" class="edge">
<title>Node1&#45;&gt;Node29</title>
<path fill="none" stroke="midnightblue" d="M4396.08,-197.45C4735.03,-195.3 5759.93,-185.29 6090,-142 6092.89,-141.62 6095.82,-141.2 6098.76,-140.74"/>
<polygon fill="midnightblue" stroke="midnightblue" points="4395.99,-193.95 4386.01,-197.51 4396.03,-200.95 4395.99,-193.95"/>
</g>
<!-- Node30 -->
<g id="node30" class="node">
<title>Node30</title>
<g id="a_node30"><a xlink:href="string__constraint__generator__main_8cpp.html" target="_top" xlink:title=" ">
<polygon fill="none" stroke="black" points="6317,-89.5 6317,-141.5 6517,-141.5 6517,-89.5 6317,-89.5"/>
<text text-anchor="start" x="6325" y="-129.5" font-family="Helvetica,sans-Serif" font-size="10.00">/home/runner/work/cbmc</text>
<text text-anchor="start" x="6325" y="-118.5" font-family="Helvetica,sans-Serif" font-size="10.00">&#45;documentation/cbmc&#45;documentation</text>
<text text-anchor="start" x="6325" y="-107.5" font-family="Helvetica,sans-Serif" font-size="10.00">/src/solvers/strings/string_constraint</text>
<text text-anchor="middle" x="6417" y="-96.5" font-family="Helvetica,sans-Serif" font-size="10.00">_generator_main.cpp</text>
</a>
</g>
</g>
<!-- Node1&#45;&gt;Node30 -->
<g id="edge29" class="edge">
<title>Node1&#45;&gt;Node30</title>
<path fill="none" stroke="midnightblue" d="M4396.24,-197.88C4762.03,-197.02 5933.63,-190.47 6308,-142 6310.89,-141.63 6313.82,-141.21 6316.77,-140.75"/>
<polygon fill="midnightblue" stroke="midnightblue" points="4396.17,-194.38 4386.18,-197.9 4396.18,-201.38 4396.17,-194.38"/>
</g>
<!-- Node31 -->
<g id="node31" class="node">
<title>Node31</title>
<g id="a_node31"><a xlink:href="convert__string__value_8h.html" target="_top" xlink:title=" ">
<polygon fill="none" stroke="black" points="6535,-89.5 6535,-141.5 6735,-141.5 6735,-89.5 6535,-89.5"/>
<text text-anchor="start" x="6543" y="-129.5" font-family="Helvetica,sans-Serif" font-size="10.00">/home/runner/work/cbmc</text>
<text text-anchor="start" x="6543" y="-118.5" font-family="Helvetica,sans-Serif" font-size="10.00">&#45;documentation/cbmc&#45;documentation</text>
<text text-anchor="start" x="6543" y="-107.5" font-family="Helvetica,sans-Serif" font-size="10.00">/src/statement&#45;list/converters</text>
<text text-anchor="middle" x="6635" y="-96.5" font-family="Helvetica,sans-Serif" font-size="10.00">/convert_string_value.h</text>
</a>
</g>
</g>
<!-- Node1&#45;&gt;Node31 -->
<g id="edge30" class="edge">
<title>Node1&#45;&gt;Node31</title>
<path fill="none" stroke="midnightblue" d="M4396.23,-198.23C4787.29,-198.58 6107.08,-195.66 6526,-142 6528.89,-141.63 6531.82,-141.22 6534.77,-140.76"/>
<polygon fill="midnightblue" stroke="midnightblue" points="4396.05,-194.73 4386.05,-198.22 4396.05,-201.73 4396.05,-194.73"/>
</g>
<!-- Node33 -->
<g id="node33" class="node">
<title>Node33</title>
<g id="a_node33"><a xlink:href="statement__list__parser_8cpp.html" target="_top" xlink:title=" ">
<polygon fill="none" stroke="black" points="6753,-89.5 6753,-141.5 6953,-141.5 6953,-89.5 6753,-89.5"/>
<text text-anchor="start" x="6761" y="-129.5" font-family="Helvetica,sans-Serif" font-size="10.00">/home/runner/work/cbmc</text>
<text text-anchor="start" x="6761" y="-118.5" font-family="Helvetica,sans-Serif" font-size="10.00">&#45;documentation/cbmc&#45;documentation</text>
<text text-anchor="start" x="6761" y="-107.5" font-family="Helvetica,sans-Serif" font-size="10.00">/src/statement&#45;list/statement</text>
<text text-anchor="middle" x="6853" y="-96.5" font-family="Helvetica,sans-Serif" font-size="10.00">_list_parser.cpp</text>
</a>
</g>
</g>
<!-- Node1&#45;&gt;Node33 -->
<g id="edge32" class="edge">
<title>Node1&#45;&gt;Node33</title>
<path fill="none" stroke="midnightblue" d="M4396.25,-198.52C4811.41,-200 6280.37,-200.87 6744,-142 6746.89,-141.63 6749.82,-141.22 6752.77,-140.77"/>
<polygon fill="midnightblue" stroke="midnightblue" points="4396.06,-195.02 4386.05,-198.48 4396.04,-202.02 4396.06,-195.02"/>
</g>
<!-- Node34 -->
<g id="node34" class="node">
<title>Node34</title>
<g id="a_node34"><a xlink:href="format__constant_8cpp.html" target="_top" xlink:title=" ">
<polygon fill="none" stroke="black" points="6971,-95 6971,-136 7171,-136 7171,-95 6971,-95"/>
<text text-anchor="start" x="6979" y="-124" font-family="Helvetica,sans-Serif" font-size="10.00">/home/runner/work/cbmc</text>
<text text-anchor="start" x="6979" y="-113" font-family="Helvetica,sans-Serif" font-size="10.00">&#45;documentation/cbmc&#45;documentation</text>
<text text-anchor="middle" x="7071" y="-102" font-family="Helvetica,sans-Serif" font-size="10.00">/src/util/format_constant.cpp</text>
</a>
</g>
</g>
<!-- Node1&#45;&gt;Node34 -->
<g id="edge33" class="edge">
<title>Node1&#45;&gt;Node34</title>
<path fill="none" stroke="midnightblue" d="M4396.43,-197.05C4868.58,-192.81 6705.21,-174.36 6962,-142 6973.38,-140.57 6985.3,-138.44 6996.91,-136.01"/>
<polygon fill="midnightblue" stroke="midnightblue" points="4396.17,-193.55 4386.2,-197.14 4396.24,-200.55 4396.17,-193.55"/>
</g>
<!-- Node35 -->
<g id="node35" class="node">
<title>Node35</title>
<g id="a_node35"><a xlink:href="simplify__expr__array_8cpp.html" target="_top" xlink:title=" ">
<polygon fill="none" stroke="black" points="7189,-95 7189,-136 7389,-136 7389,-95 7189,-95"/>
<text text-anchor="start" x="7197" y="-124" font-family="Helvetica,sans-Serif" font-size="10.00">/home/runner/work/cbmc</text>
<text text-anchor="start" x="7197" y="-113" font-family="Helvetica,sans-Serif" font-size="10.00">&#45;documentation/cbmc&#45;documentation</text>
<text text-anchor="middle" x="7289" y="-102" font-family="Helvetica,sans-Serif" font-size="10.00">/src/util/simplify_expr_array.cpp</text>
</a>
</g>
</g>
<!-- Node1&#45;&gt;Node35 -->
<g id="edge34" class="edge">
<title>Node1&#45;&gt;Node35</title>
<path fill="none" stroke="midnightblue" d="M4396.3,-197.24C4891.88,-193.64 6900.59,-176.99 7180,-142 7191.38,-140.58 7203.3,-138.45 7214.91,-136.03"/>
<polygon fill="midnightblue" stroke="midnightblue" points="4396.26,-193.74 4386.28,-197.31 4396.31,-200.74 4396.26,-193.74"/>
</g>
<!-- Node36 -->
<g id="node36" class="node">
<title>Node36</title>
<g id="a_node36"><a xlink:href="simplify__expr__pointer_8cpp.html" target="_top" xlink:title=" ">
<polygon fill="none" stroke="black" points="7407,-95 7407,-136 7607,-136 7607,-95 7407,-95"/>
<text text-anchor="start" x="7415" y="-124" font-family="Helvetica,sans-Serif" font-size="10.00">/home/runner/work/cbmc</text>
<text text-anchor="start" x="7415" y="-113" font-family="Helvetica,sans-Serif" font-size="10.00">&#45;documentation/cbmc&#45;documentation</text>
<text text-anchor="middle" x="7507" y="-102" font-family="Helvetica,sans-Serif" font-size="10.00">/src/util/simplify_expr_pointer.cpp</text>
</a>
</g>
</g>
<!-- Node1&#45;&gt;Node36 -->
<g id="edge35" class="edge">
<title>Node1&#45;&gt;Node36</title>
<path fill="none" stroke="midnightblue" d="M4396.38,-197.4C4914.86,-194.4 7095.95,-179.62 7398,-142 7409.38,-140.58 7421.3,-138.46 7432.91,-136.04"/>
<polygon fill="midnightblue" stroke="midnightblue" points="4396.26,-193.9 4386.28,-197.46 4396.3,-200.9 4396.26,-193.9"/>
</g>
<!-- Node37 -->
<g id="node37" class="node">
<title>Node37</title>
<g id="a_node37"><a xlink:href="simplify__utils_8cpp.html" target="_top" xlink:title=" ">
<polygon fill="none" stroke="black" points="7625,-95 7625,-136 7825,-136 7825,-95 7625,-95"/>
<text text-anchor="start" x="7633" y="-124" font-family="Helvetica,sans-Serif" font-size="10.00">/home/runner/work/cbmc</text>
<text text-anchor="start" x="7633" y="-113" font-family="Helvetica,sans-Serif" font-size="10.00">&#45;documentation/cbmc&#45;documentation</text>
<text text-anchor="middle" x="7725" y="-102" font-family="Helvetica,sans-Serif" font-size="10.00">/src/util/simplify_utils.cpp</text>
</a>
</g>
</g>
<!-- Node1&#45;&gt;Node37 -->
<g id="edge36" class="edge">
<title>Node1&#45;&gt;Node37</title>
<path fill="none" stroke="midnightblue" d="M4396.48,-197.54C4937.14,-195.1 7291.27,-182.25 7616,-142 7627.38,-140.59 7639.3,-138.47 7650.92,-136.06"/>
<polygon fill="midnightblue" stroke="midnightblue" points="4396.32,-194.04 4386.34,-197.59 4396.35,-201.04 4396.32,-194.04"/>
</g>
<!-- Node38 -->
<g id="node38" class="node">
<title>Node38</title>
<g id="a_node38"><a xlink:href="std__code_8cpp.html" target="_top" xlink:title=" ">
<polygon fill="none" stroke="black" points="7843,-95 7843,-136 8043,-136 8043,-95 7843,-95"/>
<text text-anchor="start" x="7851" y="-124" font-family="Helvetica,sans-Serif" font-size="10.00">/home/runner/work/cbmc</text>
<text text-anchor="start" x="7851" y="-113" font-family="Helvetica,sans-Serif" font-size="10.00">&#45;documentation/cbmc&#45;documentation</text>
<text text-anchor="middle" x="7943" y="-102" font-family="Helvetica,sans-Serif" font-size="10.00">/src/util/std_code.cpp</text>
</a>
</g>
</g>
<!-- Node1&#45;&gt;Node38 -->
<g id="edge37" class="edge">
<title>Node1&#45;&gt;Node38</title>
<path fill="none" stroke="midnightblue" d="M4396.28,-197.66C4957.84,-195.77 7486.48,-184.89 7834,-142 7845.48,-140.58 7857.51,-138.45 7869.21,-136"/>
<polygon fill="midnightblue" stroke="midnightblue" points="4396.15,-194.16 4386.16,-197.7 4396.17,-201.16 4396.15,-194.16"/>
</g>
<!-- Node39 -->
<g id="node39" class="node">
<title>Node39</title>
<g id="a_node39"><a xlink:href="string__constant_8cpp.html" target="_top" xlink:title=" ">
<polygon fill="none" stroke="black" points="8061,-95 8061,-136 8261,-136 8261,-95 8061,-95"/>
<text text-anchor="start" x="8069" y="-124" font-family="Helvetica,sans-Serif" font-size="10.00">/home/runner/work/cbmc</text>
<text text-anchor="start" x="8069" y="-113" font-family="Helvetica,sans-Serif" font-size="10.00">&#45;documentation/cbmc&#45;documentation</text>
<text text-anchor="middle" x="8161" y="-102" font-family="Helvetica,sans-Serif" font-size="10.00">/src/util/string_constant.cpp</text>
</a>
</g>
</g>
<!-- Node1&#45;&gt;Node39 -->
<g id="edge38" class="edge">
<title>Node1&#45;&gt;Node39</title>
<path fill="none" stroke="midnightblue" d="M4396.36,-197.77C4978.69,-196.39 7681.71,-187.53 8052,-142 8063.48,-140.59 8075.51,-138.46 8087.21,-136.01"/>
<polygon fill="midnightblue" stroke="midnightblue" points="4396.27,-194.27 4386.28,-197.8 4396.29,-201.27 4396.27,-194.27"/>
</g>
<!-- Node40 -->
<g id="node40" class="node">
<title>Node40</title>
<g id="a_node40"><a xlink:href="java__bytecode__parser_8cpp.html" target="_top" xlink:title=" ">
<polygon fill="none" stroke="black" points="8279,-89.5 8279,-141.5 8479,-141.5 8479,-89.5 8279,-89.5"/>
<text text-anchor="start" x="8287" y="-129.5" font-family="Helvetica,sans-Serif" font-size="10.00">/home/runner/work/cbmc</text>
<text text-anchor="start" x="8287" y="-118.5" font-family="Helvetica,sans-Serif" font-size="10.00">&#45;documentation/cbmc&#45;documentation</text>
<text text-anchor="start" x="8287" y="-107.5" font-family="Helvetica,sans-Serif" font-size="10.00">/jbmc/src/java_bytecode/java</text>
<text text-anchor="middle" x="8379" y="-96.5" font-family="Helvetica,sans-Serif" font-size="10.00">_bytecode_parser.cpp</text>
</a>
</g>
</g>
<!-- Node1&#45;&gt;Node40 -->
<g id="edge39" class="edge">
<title>Node1&#45;&gt;Node40</title>
<path fill="none" stroke="midnightblue" d="M4396.78,-197.87C5000.07,-196.97 7876.99,-190.16 8270,-142 8272.89,-141.65 8275.82,-141.24 8278.77,-140.8"/>
<polygon fill="midnightblue" stroke="midnightblue" points="4396.34,-194.37 4386.35,-197.88 4396.35,-201.37 4396.34,-194.37"/>
</g>
<!-- Node32 -->
<g id="node32" class="node">
<title>Node32</title>
<g id="a_node32"><a xlink:href="convert__string__value_8cpp.html" target="_top" xlink:title=" ">
<polygon fill="none" stroke="black" points="6535,-0.5 6535,-52.5 6735,-52.5 6735,-0.5 6535,-0.5"/>
<text text-anchor="start" x="6543" y="-40.5" font-family="Helvetica,sans-Serif" font-size="10.00">/home/runner/work/cbmc</text>
<text text-anchor="start" x="6543" y="-29.5" font-family="Helvetica,sans-Serif" font-size="10.00">&#45;documentation/cbmc&#45;documentation</text>
<text text-anchor="start" x="6543" y="-18.5" font-family="Helvetica,sans-Serif" font-size="10.00">/src/statement&#45;list/converters</text>
<text text-anchor="middle" x="6635" y="-7.5" font-family="Helvetica,sans-Serif" font-size="10.00">/convert_string_value.cpp</text>
</a>
</g>
</g>
<!-- Node31&#45;&gt;Node32 -->
<g id="edge31" class="edge">
<title>Node31&#45;&gt;Node32</title>
<path fill="none" stroke="midnightblue" d="M6635,-79.19C6635,-70.28 6635,-60.9 6635,-52.61"/>
<polygon fill="midnightblue" stroke="midnightblue" points="6631.5,-79.34 6635,-89.34 6638.5,-79.34 6631.5,-79.34"/>
</g>
</g>
</svg>
