<?xml version="1.0" encoding="UTF-8" standalone="no"?>
<!DOCTYPE svg PUBLIC "-//W3C//DTD SVG 1.1//EN"
 "http://www.w3.org/Graphics/SVG/1.1/DTD/svg11.dtd">
<!-- Generated by graphviz version 2.43.0 (0)
 -->
<!-- Title: /home/runner/work/cbmc&#45;documentation/cbmc&#45;documentation/src/util/string2int.h Pages: 1 -->
<svg width="348pt" height="218pt"
 viewBox="0.00 0.00 348.00 218.00" xmlns="http://www.w3.org/2000/svg" xmlns:xlink="http://www.w3.org/1999/xlink">
<g id="graph0" class="graph" transform="scale(1 1) rotate(0) translate(4 214)">
<title>/home/runner/work/cbmc&#45;documentation/cbmc&#45;documentation/src/util/string2int.h</title>
<!-- Node1 -->
<g id="node1" class="node">
<title>Node1</title>
<g id="a_node1"><a xlink:title=" ">
<polygon fill="#bfbfbf" stroke="black" points="66.5,-168.5 66.5,-209.5 266.5,-209.5 266.5,-168.5 66.5,-168.5"/>
<text text-anchor="start" x="74.5" y="-197.5" font-family="Helvetica,sans-Serif" font-size="10.00">/home/runner/work/cbmc</text>
<text text-anchor="start" x="74.5" y="-186.5" font-family="Helvetica,sans-Serif" font-size="10.00">&#45;documentation/cbmc&#45;documentation</text>
<text text-anchor="middle" x="166.5" y="-175.5" font-family="Helvetica,sans-Serif" font-size="10.00">/src/util/string2int.h</text>
</a>
</g>
</g>
<!-- Node2 -->
<g id="node2" class="node">
<title>Node2</title>
<g id="a_node2"><a xlink:href="narrow_8h.html" target="_top" xlink:title=" ">
<polygon fill="none" stroke="black" points="106,-112.5 106,-131.5 165,-131.5 165,-112.5 106,-112.5"/>
<text text-anchor="middle" x="135.5" y="-119.5" font-family="Helvetica,sans-Serif" font-size="10.00">narrow.h</text>
</a>
</g>
</g>
<!-- Node1&#45;&gt;Node2 -->
<g id="edge1" class="edge">
<title>Node1&#45;&gt;Node2</title>
<path fill="none" stroke="midnightblue" d="M157.2,-168.5C152.99,-159.68 148.06,-149.34 143.96,-140.74"/>
<polygon fill="midnightblue" stroke="midnightblue" points="147.09,-139.17 139.63,-131.65 140.77,-142.19 147.09,-139.17"/>
</g>
<!-- Node3 -->
<g id="node3" class="node">
<title>Node3</title>
<g id="a_node3"><a xlink:title=" ">
<polygon fill="none" stroke="#bfbfbf" points="0,-0.5 0,-19.5 69,-19.5 69,-0.5 0,-0.5"/>
<text text-anchor="middle" x="34.5" y="-7.5" font-family="Helvetica,sans-Serif" font-size="10.00">type_traits</text>
</a>
</g>
</g>
<!-- Node1&#45;&gt;Node3 -->
<g id="edge11" class="edge">
<title>Node1&#45;&gt;Node3</title>
<path fill="none" stroke="midnightblue" d="M136.49,-168.37C123.1,-158.57 107.82,-145.86 96.5,-132 70.1,-99.67 50.59,-54.27 41.05,-29.28"/>
<polygon fill="midnightblue" stroke="midnightblue" points="44.23,-27.8 37.47,-19.64 37.67,-30.23 44.23,-27.8"/>
</g>
<!-- Node7 -->
<g id="node7" class="node">
<title>Node7</title>
<g id="a_node7"><a xlink:title=" ">
<polygon fill="none" stroke="#bfbfbf" points="228.5,-0.5 228.5,-19.5 272.5,-19.5 272.5,-0.5 228.5,-0.5"/>
<text text-anchor="middle" x="250.5" y="-7.5" font-family="Helvetica,sans-Serif" font-size="10.00">string</text>
</a>
</g>
</g>
<!-- Node1&#45;&gt;Node7 -->
<g id="edge10" class="edge">
<title>Node1&#45;&gt;Node7</title>
<path fill="none" stroke="midnightblue" d="M172.65,-168.1C181.2,-141.66 197.96,-93.9 218.5,-56 223.87,-46.1 231.05,-35.8 237.25,-27.57"/>
<polygon fill="midnightblue" stroke="midnightblue" points="240.1,-29.6 243.46,-19.55 234.57,-25.31 240.1,-29.6"/>
</g>
<!-- Node8 -->
<g id="node8" class="node">
<title>Node8</title>
<g id="a_node8"><a xlink:href="optional_8h.html" target="_top" xlink:title=" ">
<polygon fill="none" stroke="black" points="239,-112.5 239,-131.5 304,-131.5 304,-112.5 239,-112.5"/>
<text text-anchor="middle" x="271.5" y="-119.5" font-family="Helvetica,sans-Serif" font-size="10.00">optional.h</text>
</a>
</g>
</g>
<!-- Node1&#45;&gt;Node8 -->
<g id="edge8" class="edge">
<title>Node1&#45;&gt;Node8</title>
<path fill="none" stroke="midnightblue" d="M198,-168.5C214.41,-158.34 234.1,-146.16 248.96,-136.95"/>
<polygon fill="midnightblue" stroke="midnightblue" points="250.86,-139.89 257.52,-131.65 247.18,-133.94 250.86,-139.89"/>
</g>
<!-- Node2&#45;&gt;Node3 -->
<g id="edge2" class="edge">
<title>Node2&#45;&gt;Node3</title>
<path fill="none" stroke="midnightblue" d="M126.59,-112.17C117.6,-103.2 103.38,-88.83 91.5,-76 76.44,-59.74 59.79,-40.61 48.4,-27.34"/>
<polygon fill="midnightblue" stroke="midnightblue" points="50.89,-24.87 41.73,-19.54 45.57,-29.42 50.89,-24.87"/>
</g>
<!-- Node4 -->
<g id="node4" class="node">
<title>Node4</title>
<g id="a_node4"><a xlink:href="src_2util_2invariant_8h.html" target="_top" xlink:title=" ">
<polygon fill="none" stroke="black" points="101,-56.5 101,-75.5 170,-75.5 170,-56.5 101,-56.5"/>
<text text-anchor="middle" x="135.5" y="-63.5" font-family="Helvetica,sans-Serif" font-size="10.00">invariant.h</text>
</a>
</g>
</g>
<!-- Node2&#45;&gt;Node4 -->
<g id="edge3" class="edge">
<title>Node2&#45;&gt;Node4</title>
<path fill="none" stroke="midnightblue" d="M135.5,-112.08C135.5,-105.01 135.5,-94.86 135.5,-85.99"/>
<polygon fill="midnightblue" stroke="midnightblue" points="139,-85.75 135.5,-75.75 132,-85.75 139,-85.75"/>
</g>
<!-- Node4&#45;&gt;Node3 -->
<g id="edge7" class="edge">
<title>Node4&#45;&gt;Node3</title>
<path fill="none" stroke="midnightblue" d="M119.27,-56.32C103.15,-47.7 78.2,-34.36 59.54,-24.39"/>
<polygon fill="midnightblue" stroke="midnightblue" points="61.16,-21.28 50.69,-19.65 57.86,-27.46 61.16,-21.28"/>
</g>
<!-- Node5 -->
<g id="node5" class="node">
<title>Node5</title>
<g id="a_node5"><a xlink:title=" ">
<polygon fill="none" stroke="#bfbfbf" points="87,-0.5 87,-19.5 136,-19.5 136,-0.5 87,-0.5"/>
<text text-anchor="middle" x="111.5" y="-7.5" font-family="Helvetica,sans-Serif" font-size="10.00">cstdlib</text>
</a>
</g>
</g>
<!-- Node4&#45;&gt;Node5 -->
<g id="edge4" class="edge">
<title>Node4&#45;&gt;Node5</title>
<path fill="none" stroke="midnightblue" d="M131.54,-56.08C128.29,-48.77 123.58,-38.18 119.55,-29.1"/>
<polygon fill="midnightblue" stroke="midnightblue" points="122.65,-27.47 115.39,-19.75 116.25,-30.31 122.65,-27.47"/>
</g>
<!-- Node6 -->
<g id="node6" class="node">
<title>Node6</title>
<g id="a_node6"><a xlink:title=" ">
<polygon fill="none" stroke="#bfbfbf" points="154.5,-0.5 154.5,-19.5 210.5,-19.5 210.5,-0.5 154.5,-0.5"/>
<text text-anchor="middle" x="182.5" y="-7.5" font-family="Helvetica,sans-Serif" font-size="10.00">sstream</text>
</a>
</g>
</g>
<!-- Node4&#45;&gt;Node6 -->
<g id="edge5" class="edge">
<title>Node4&#45;&gt;Node6</title>
<path fill="none" stroke="midnightblue" d="M143.26,-56.08C150.04,-48.3 160.04,-36.8 168.26,-27.37"/>
<polygon fill="midnightblue" stroke="midnightblue" points="170.96,-29.59 174.88,-19.75 165.68,-25 170.96,-29.59"/>
</g>
<!-- Node4&#45;&gt;Node7 -->
<g id="edge6" class="edge">
<title>Node4&#45;&gt;Node7</title>
<path fill="none" stroke="midnightblue" d="M153.72,-56.44C172.4,-47.68 201.66,-33.94 223.12,-23.86"/>
<polygon fill="midnightblue" stroke="midnightblue" points="224.8,-26.93 232.36,-19.52 221.82,-20.6 224.8,-26.93"/>
</g>
<!-- Node9 -->
<g id="node9" class="node">
<title>Node9</title>
<g id="a_node9"><a xlink:title=" ">
<polygon fill="none" stroke="#bfbfbf" points="227,-56.5 227,-75.5 340,-75.5 340,-56.5 227,-56.5"/>
<text text-anchor="middle" x="283.5" y="-63.5" font-family="Helvetica,sans-Serif" font-size="10.00">nonstd/optional.hpp</text>
</a>
</g>
</g>
<!-- Node8&#45;&gt;Node9 -->
<g id="edge9" class="edge">
<title>Node8&#45;&gt;Node9</title>
<path fill="none" stroke="midnightblue" d="M273.48,-112.08C275.07,-104.93 277.36,-94.64 279.35,-85.69"/>
<polygon fill="midnightblue" stroke="midnightblue" points="282.8,-86.27 281.56,-75.75 275.97,-84.75 282.8,-86.27"/>
</g>
</g>
</svg>
