<?xml version="1.0" encoding="UTF-8" standalone="no"?>
<!DOCTYPE svg PUBLIC "-//W3C//DTD SVG 1.1//EN"
 "http://www.w3.org/Graphics/SVG/1.1/DTD/svg11.dtd">
<!-- Generated by graphviz version 2.43.0 (0)
 -->
<!-- Title: /home/runner/work/cbmc&#45;documentation/cbmc&#45;documentation/src/util/suffix.h Pages: 1 -->
<svg width="4366pt" height="139pt"
 viewBox="0.00 0.00 4366.00 139.00" xmlns="http://www.w3.org/2000/svg" xmlns:xlink="http://www.w3.org/1999/xlink">
<g id="graph0" class="graph" transform="scale(1 1) rotate(0) translate(4 135)">
<title>/home/runner/work/cbmc&#45;documentation/cbmc&#45;documentation/src/util/suffix.h</title>
<!-- Node1 -->
<g id="node1" class="node">
<title>Node1</title>
<g id="a_node1"><a xlink:title=" ">
<polygon fill="#bfbfbf" stroke="black" points="2081,-89.5 2081,-130.5 2281,-130.5 2281,-89.5 2081,-89.5"/>
<text text-anchor="start" x="2089" y="-118.5" font-family="Helvetica,sans-Serif" font-size="10.00">/home/runner/work/cbmc</text>
<text text-anchor="start" x="2089" y="-107.5" font-family="Helvetica,sans-Serif" font-size="10.00">&#45;documentation/cbmc&#45;documentation</text>
<text text-anchor="middle" x="2181" y="-96.5" font-family="Helvetica,sans-Serif" font-size="10.00">/src/util/suffix.h</text>
</a>
</g>
</g>
<!-- Node2 -->
<g id="node2" class="node">
<title>Node2</title>
<g id="a_node2"><a xlink:href="c__preprocess_8cpp.html" target="_top" xlink:title=" ">
<polygon fill="none" stroke="black" points="0,-6 0,-47 200,-47 200,-6 0,-6"/>
<text text-anchor="start" x="8" y="-35" font-family="Helvetica,sans-Serif" font-size="10.00">/home/runner/work/cbmc</text>
<text text-anchor="start" x="8" y="-24" font-family="Helvetica,sans-Serif" font-size="10.00">&#45;documentation/cbmc&#45;documentation</text>
<text text-anchor="middle" x="100" y="-13" font-family="Helvetica,sans-Serif" font-size="10.00">/src/ansi&#45;c/c_preprocess.cpp</text>
</a>
</g>
</g>
<!-- Node1&#45;&gt;Node2 -->
<g id="edge1" class="edge">
<title>Node1&#45;&gt;Node2</title>
<path fill="none" stroke="midnightblue" d="M2070.74,-108.79C1710.92,-107.64 573.17,-100.28 209,-53 197.73,-51.54 185.91,-49.41 174.39,-47"/>
<polygon fill="midnightblue" stroke="midnightblue" points="2070.89,-112.29 2080.9,-108.82 2070.91,-105.29 2070.89,-112.29"/>
</g>
<!-- Node3 -->
<g id="node3" class="node">
<title>Node3</title>
<g id="a_node3"><a xlink:href="c__typecheck__expr_8cpp.html" target="_top" xlink:title=" ">
<polygon fill="none" stroke="black" points="218,-6 218,-47 418,-47 418,-6 218,-6"/>
<text text-anchor="start" x="226" y="-35" font-family="Helvetica,sans-Serif" font-size="10.00">/home/runner/work/cbmc</text>
<text text-anchor="start" x="226" y="-24" font-family="Helvetica,sans-Serif" font-size="10.00">&#45;documentation/cbmc&#45;documentation</text>
<text text-anchor="middle" x="318" y="-13" font-family="Helvetica,sans-Serif" font-size="10.00">/src/ansi&#45;c/c_typecheck_expr.cpp</text>
</a>
</g>
</g>
<!-- Node1&#45;&gt;Node3 -->
<g id="edge2" class="edge">
<title>Node1&#45;&gt;Node3</title>
<path fill="none" stroke="midnightblue" d="M2070.83,-108.33C1738.12,-105.87 746.89,-95.1 427,-53 415.82,-51.53 404.12,-49.42 392.69,-47.03"/>
<polygon fill="midnightblue" stroke="midnightblue" points="2070.93,-111.83 2080.96,-108.41 2070.98,-104.83 2070.93,-111.83"/>
</g>
<!-- Node4 -->
<g id="node4" class="node">
<title>Node4</title>
<g id="a_node4"><a xlink:href="expr2c_8cpp.html" target="_top" xlink:title=" ">
<polygon fill="none" stroke="black" points="436,-6 436,-47 636,-47 636,-6 436,-6"/>
<text text-anchor="start" x="444" y="-35" font-family="Helvetica,sans-Serif" font-size="10.00">/home/runner/work/cbmc</text>
<text text-anchor="start" x="444" y="-24" font-family="Helvetica,sans-Serif" font-size="10.00">&#45;documentation/cbmc&#45;documentation</text>
<text text-anchor="middle" x="536" y="-13" font-family="Helvetica,sans-Serif" font-size="10.00">/src/ansi&#45;c/expr2c.cpp</text>
</a>
</g>
</g>
<!-- Node1&#45;&gt;Node4 -->
<g id="edge3" class="edge">
<title>Node1&#45;&gt;Node4</title>
<path fill="none" stroke="midnightblue" d="M2070.76,-107.75C1766.76,-103.86 920.81,-89.94 645,-53 633.92,-51.52 622.32,-49.41 611,-47.04"/>
<polygon fill="midnightblue" stroke="midnightblue" points="2070.86,-111.25 2080.91,-107.88 2070.95,-104.25 2070.86,-111.25"/>
</g>
<!-- Node5 -->
<g id="node5" class="node">
<title>Node5</title>
<g id="a_node5"><a xlink:href="c__wrangler_8cpp.html" target="_top" xlink:title=" ">
<polygon fill="none" stroke="black" points="654,-6 654,-47 854,-47 854,-6 654,-6"/>
<text text-anchor="start" x="662" y="-35" font-family="Helvetica,sans-Serif" font-size="10.00">/home/runner/work/cbmc</text>
<text text-anchor="start" x="662" y="-24" font-family="Helvetica,sans-Serif" font-size="10.00">&#45;documentation/cbmc&#45;documentation</text>
<text text-anchor="middle" x="754" y="-13" font-family="Helvetica,sans-Serif" font-size="10.00">/src/crangler/c_wrangler.cpp</text>
</a>
</g>
</g>
<!-- Node1&#45;&gt;Node5 -->
<g id="edge4" class="edge">
<title>Node1&#45;&gt;Node5</title>
<path fill="none" stroke="midnightblue" d="M2070.59,-106.97C1797.37,-101.52 1095.01,-84.78 863,-53 852.02,-51.5 840.53,-49.4 829.3,-47.04"/>
<polygon fill="midnightblue" stroke="midnightblue" points="2070.85,-110.48 2080.92,-107.18 2070.99,-103.48 2070.85,-110.48"/>
</g>
<!-- Node6 -->
<g id="node6" class="node">
<title>Node6</title>
<g id="a_node6"><a xlink:href="gcc__mode_8cpp.html" target="_top" xlink:title=" ">
<polygon fill="none" stroke="black" points="872,-6 872,-47 1072,-47 1072,-6 872,-6"/>
<text text-anchor="start" x="880" y="-35" font-family="Helvetica,sans-Serif" font-size="10.00">/home/runner/work/cbmc</text>
<text text-anchor="start" x="880" y="-24" font-family="Helvetica,sans-Serif" font-size="10.00">&#45;documentation/cbmc&#45;documentation</text>
<text text-anchor="middle" x="972" y="-13" font-family="Helvetica,sans-Serif" font-size="10.00">/src/goto&#45;cc/gcc_mode.cpp</text>
</a>
</g>
</g>
<!-- Node1&#45;&gt;Node6 -->
<g id="edge5" class="edge">
<title>Node1&#45;&gt;Node6</title>
<path fill="none" stroke="midnightblue" d="M2070.54,-109.89C1871.62,-110.04 1440.41,-103.77 1081,-53 1070.13,-51.46 1058.74,-49.36 1047.61,-47.02"/>
<polygon fill="midnightblue" stroke="midnightblue" points="2070.71,-113.39 2080.7,-109.87 2070.7,-106.39 2070.71,-113.39"/>
</g>
<!-- Node7 -->
<g id="node7" class="node">
<title>Node7</title>
<g id="a_node7"><a xlink:href="hybrid__binary_8cpp.html" target="_top" xlink:title=" ">
<polygon fill="none" stroke="black" points="1090,-6 1090,-47 1290,-47 1290,-6 1090,-6"/>
<text text-anchor="start" x="1098" y="-35" font-family="Helvetica,sans-Serif" font-size="10.00">/home/runner/work/cbmc</text>
<text text-anchor="start" x="1098" y="-24" font-family="Helvetica,sans-Serif" font-size="10.00">&#45;documentation/cbmc&#45;documentation</text>
<text text-anchor="middle" x="1190" y="-13" font-family="Helvetica,sans-Serif" font-size="10.00">/src/goto&#45;cc/hybrid_binary.cpp</text>
</a>
</g>
</g>
<!-- Node1&#45;&gt;Node7 -->
<g id="edge6" class="edge">
<title>Node1&#45;&gt;Node7</title>
<path fill="none" stroke="midnightblue" d="M2070.83,-107.88C1903.28,-104.85 1574.74,-93.72 1299,-53 1288.33,-51.42 1277.16,-49.33 1266.22,-47.02"/>
<polygon fill="midnightblue" stroke="midnightblue" points="2070.84,-111.38 2080.9,-108.05 2070.96,-104.38 2070.84,-111.38"/>
</g>
<!-- Node8 -->
<g id="node8" class="node">
<title>Node8</title>
<g id="a_node8"><a xlink:href="goto__harness__parse__options_8cpp.html" target="_top" xlink:title=" ">
<polygon fill="none" stroke="black" points="1308,-0.5 1308,-52.5 1508,-52.5 1508,-0.5 1308,-0.5"/>
<text text-anchor="start" x="1316" y="-40.5" font-family="Helvetica,sans-Serif" font-size="10.00">/home/runner/work/cbmc</text>
<text text-anchor="start" x="1316" y="-29.5" font-family="Helvetica,sans-Serif" font-size="10.00">&#45;documentation/cbmc&#45;documentation</text>
<text text-anchor="start" x="1316" y="-18.5" font-family="Helvetica,sans-Serif" font-size="10.00">/src/goto&#45;harness/goto_harness</text>
<text text-anchor="middle" x="1408" y="-7.5" font-family="Helvetica,sans-Serif" font-size="10.00">_parse_options.cpp</text>
</a>
</g>
</g>
<!-- Node1&#45;&gt;Node8 -->
<g id="edge7" class="edge">
<title>Node1&#45;&gt;Node8</title>
<path fill="none" stroke="midnightblue" d="M2070.76,-104.62C1938.54,-98.24 1710.49,-83.63 1517,-53 1514.12,-52.54 1511.2,-52.05 1508.27,-51.54"/>
<polygon fill="midnightblue" stroke="midnightblue" points="2070.74,-108.12 2080.9,-105.1 2071.08,-101.13 2070.74,-108.12"/>
</g>
<!-- Node9 -->
<g id="node9" class="node">
<title>Node9</title>
<g id="a_node9"><a xlink:href="remove__returns_8cpp.html" target="_top" xlink:title=" ">
<polygon fill="none" stroke="black" points="1526.5,-6 1526.5,-47 1735.5,-47 1735.5,-6 1526.5,-6"/>
<text text-anchor="start" x="1534.5" y="-35" font-family="Helvetica,sans-Serif" font-size="10.00">/home/runner/work/cbmc</text>
<text text-anchor="start" x="1534.5" y="-24" font-family="Helvetica,sans-Serif" font-size="10.00">&#45;documentation/cbmc&#45;documentation</text>
<text text-anchor="middle" x="1631" y="-13" font-family="Helvetica,sans-Serif" font-size="10.00">/src/goto&#45;programs/remove_returns.cpp</text>
</a>
</g>
</g>
<!-- Node1&#45;&gt;Node9 -->
<g id="edge8" class="edge">
<title>Node1&#45;&gt;Node9</title>
<path fill="none" stroke="midnightblue" d="M2070.55,-97.67C1982.16,-87.91 1855.19,-72.36 1745,-53 1735.01,-51.25 1724.58,-49.2 1714.25,-47.05"/>
<polygon fill="midnightblue" stroke="midnightblue" points="2070.28,-101.16 2080.6,-98.77 2071.04,-94.2 2070.28,-101.16"/>
</g>
<!-- Node10 -->
<g id="node10" class="node">
<title>Node10</title>
<g id="a_node10"><a xlink:href="system__library__symbols_8cpp.html" target="_top" xlink:title=" ">
<polygon fill="none" stroke="black" points="1754,-0.5 1754,-52.5 1954,-52.5 1954,-0.5 1754,-0.5"/>
<text text-anchor="start" x="1762" y="-40.5" font-family="Helvetica,sans-Serif" font-size="10.00">/home/runner/work/cbmc</text>
<text text-anchor="start" x="1762" y="-29.5" font-family="Helvetica,sans-Serif" font-size="10.00">&#45;documentation/cbmc&#45;documentation</text>
<text text-anchor="start" x="1762" y="-18.5" font-family="Helvetica,sans-Serif" font-size="10.00">/src/goto&#45;programs/system_library</text>
<text text-anchor="middle" x="1854" y="-7.5" font-family="Helvetica,sans-Serif" font-size="10.00">_symbols.cpp</text>
</a>
</g>
</g>
<!-- Node1&#45;&gt;Node10 -->
<g id="edge9" class="edge">
<title>Node1&#45;&gt;Node10</title>
<path fill="none" stroke="midnightblue" d="M2092.83,-87.03C2049.99,-76.35 1998.31,-63.47 1954.01,-52.43"/>
<polygon fill="midnightblue" stroke="midnightblue" points="2092.13,-90.46 2102.68,-89.48 2093.82,-83.66 2092.13,-90.46"/>
</g>
<!-- Node11 -->
<g id="node11" class="node">
<title>Node11</title>
<g id="a_node11"><a xlink:href="expr2statement__list_8cpp.html" target="_top" xlink:title=" ">
<polygon fill="none" stroke="black" points="1972,-0.5 1972,-52.5 2172,-52.5 2172,-0.5 1972,-0.5"/>
<text text-anchor="start" x="1980" y="-40.5" font-family="Helvetica,sans-Serif" font-size="10.00">/home/runner/work/cbmc</text>
<text text-anchor="start" x="1980" y="-29.5" font-family="Helvetica,sans-Serif" font-size="10.00">&#45;documentation/cbmc&#45;documentation</text>
<text text-anchor="start" x="1980" y="-18.5" font-family="Helvetica,sans-Serif" font-size="10.00">/src/statement&#45;list/converters</text>
<text text-anchor="middle" x="2072" y="-7.5" font-family="Helvetica,sans-Serif" font-size="10.00">/expr2statement_list.cpp</text>
</a>
</g>
</g>
<!-- Node1&#45;&gt;Node11 -->
<g id="edge10" class="edge">
<title>Node1&#45;&gt;Node11</title>
<path fill="none" stroke="midnightblue" d="M2146.61,-83.29C2133.57,-73.53 2118.73,-62.44 2105.74,-52.73"/>
<polygon fill="midnightblue" stroke="midnightblue" points="2144.79,-86.29 2154.89,-89.48 2148.98,-80.69 2144.79,-86.29"/>
</g>
<!-- Node12 -->
<g id="node12" class="node">
<title>Node12</title>
<g id="a_node12"><a xlink:href="symbol_8cpp.html" target="_top" xlink:title=" ">
<polygon fill="none" stroke="black" points="2190,-6 2190,-47 2390,-47 2390,-6 2190,-6"/>
<text text-anchor="start" x="2198" y="-35" font-family="Helvetica,sans-Serif" font-size="10.00">/home/runner/work/cbmc</text>
<text text-anchor="start" x="2198" y="-24" font-family="Helvetica,sans-Serif" font-size="10.00">&#45;documentation/cbmc&#45;documentation</text>
<text text-anchor="middle" x="2290" y="-13" font-family="Helvetica,sans-Serif" font-size="10.00">/src/util/symbol.cpp</text>
</a>
</g>
</g>
<!-- Node1&#45;&gt;Node12 -->
<g id="edge11" class="edge">
<title>Node1&#45;&gt;Node12</title>
<path fill="none" stroke="midnightblue" d="M2215.48,-83.22C2231.09,-71.55 2249.24,-57.97 2263.73,-47.14"/>
<polygon fill="midnightblue" stroke="midnightblue" points="2213.02,-80.69 2207.11,-89.48 2217.21,-86.29 2213.02,-80.69"/>
</g>
<!-- Node13 -->
<g id="node13" class="node">
<title>Node13</title>
<g id="a_node13"><a xlink:href="ci__lazy__methods_8cpp.html" target="_top" xlink:title=" ">
<polygon fill="none" stroke="black" points="2408,-0.5 2408,-52.5 2608,-52.5 2608,-0.5 2408,-0.5"/>
<text text-anchor="start" x="2416" y="-40.5" font-family="Helvetica,sans-Serif" font-size="10.00">/home/runner/work/cbmc</text>
<text text-anchor="start" x="2416" y="-29.5" font-family="Helvetica,sans-Serif" font-size="10.00">&#45;documentation/cbmc&#45;documentation</text>
<text text-anchor="start" x="2416" y="-18.5" font-family="Helvetica,sans-Serif" font-size="10.00">/jbmc/src/java_bytecode/ci_lazy</text>
<text text-anchor="middle" x="2508" y="-7.5" font-family="Helvetica,sans-Serif" font-size="10.00">_methods.cpp</text>
</a>
</g>
</g>
<!-- Node1&#45;&gt;Node13 -->
<g id="edge12" class="edge">
<title>Node1&#45;&gt;Node13</title>
<path fill="none" stroke="midnightblue" d="M2269.17,-87.03C2312.01,-76.35 2363.69,-63.47 2407.99,-52.43"/>
<polygon fill="midnightblue" stroke="midnightblue" points="2268.18,-83.66 2259.32,-89.48 2269.87,-90.46 2268.18,-83.66"/>
</g>
<!-- Node14 -->
<g id="node14" class="node">
<title>Node14</title>
<g id="a_node14"><a xlink:href="java__bytecode__language_8cpp.html" target="_top" xlink:title=" ">
<polygon fill="none" stroke="black" points="2626,-0.5 2626,-52.5 2826,-52.5 2826,-0.5 2626,-0.5"/>
<text text-anchor="start" x="2634" y="-40.5" font-family="Helvetica,sans-Serif" font-size="10.00">/home/runner/work/cbmc</text>
<text text-anchor="start" x="2634" y="-29.5" font-family="Helvetica,sans-Serif" font-size="10.00">&#45;documentation/cbmc&#45;documentation</text>
<text text-anchor="start" x="2634" y="-18.5" font-family="Helvetica,sans-Serif" font-size="10.00">/jbmc/src/java_bytecode/java</text>
<text text-anchor="middle" x="2726" y="-7.5" font-family="Helvetica,sans-Serif" font-size="10.00">_bytecode_language.cpp</text>
</a>
</g>
</g>
<!-- Node1&#45;&gt;Node14 -->
<g id="edge13" class="edge">
<title>Node1&#45;&gt;Node14</title>
<path fill="none" stroke="midnightblue" d="M2291.06,-98.01C2379.5,-88.42 2506.72,-72.93 2617,-53 2619.96,-52.46 2622.97,-51.9 2626,-51.31"/>
<polygon fill="midnightblue" stroke="midnightblue" points="2290.58,-94.54 2281.01,-99.09 2291.33,-101.5 2290.58,-94.54"/>
</g>
<!-- Node15 -->
<g id="node15" class="node">
<title>Node15</title>
<g id="a_node15"><a xlink:href="java__class__loader_8cpp.html" target="_top" xlink:title=" ">
<polygon fill="none" stroke="black" points="2844,-0.5 2844,-52.5 3044,-52.5 3044,-0.5 2844,-0.5"/>
<text text-anchor="start" x="2852" y="-40.5" font-family="Helvetica,sans-Serif" font-size="10.00">/home/runner/work/cbmc</text>
<text text-anchor="start" x="2852" y="-29.5" font-family="Helvetica,sans-Serif" font-size="10.00">&#45;documentation/cbmc&#45;documentation</text>
<text text-anchor="start" x="2852" y="-18.5" font-family="Helvetica,sans-Serif" font-size="10.00">/jbmc/src/java_bytecode/java</text>
<text text-anchor="middle" x="2944" y="-7.5" font-family="Helvetica,sans-Serif" font-size="10.00">_class_loader.cpp</text>
</a>
</g>
</g>
<!-- Node1&#45;&gt;Node15 -->
<g id="edge14" class="edge">
<title>Node1&#45;&gt;Node15</title>
<path fill="none" stroke="midnightblue" d="M2291.27,-104.42C2421.75,-97.88 2645.24,-83.16 2835,-53 2837.88,-52.54 2840.79,-52.05 2843.73,-51.53"/>
<polygon fill="midnightblue" stroke="midnightblue" points="2291.08,-100.93 2281.26,-104.92 2291.42,-107.92 2291.08,-100.93"/>
</g>
<!-- Node16 -->
<g id="node16" class="node">
<title>Node16</title>
<g id="a_node16"><a xlink:href="java__class__loader__base_8cpp.html" target="_top" xlink:title=" ">
<polygon fill="none" stroke="black" points="3062,-0.5 3062,-52.5 3262,-52.5 3262,-0.5 3062,-0.5"/>
<text text-anchor="start" x="3070" y="-40.5" font-family="Helvetica,sans-Serif" font-size="10.00">/home/runner/work/cbmc</text>
<text text-anchor="start" x="3070" y="-29.5" font-family="Helvetica,sans-Serif" font-size="10.00">&#45;documentation/cbmc&#45;documentation</text>
<text text-anchor="start" x="3070" y="-18.5" font-family="Helvetica,sans-Serif" font-size="10.00">/jbmc/src/java_bytecode/java</text>
<text text-anchor="middle" x="3162" y="-7.5" font-family="Helvetica,sans-Serif" font-size="10.00">_class_loader_base.cpp</text>
</a>
</g>
</g>
<!-- Node1&#45;&gt;Node16 -->
<g id="edge15" class="edge">
<title>Node1&#45;&gt;Node16</title>
<path fill="none" stroke="midnightblue" d="M2291.51,-107.75C2457.64,-104.57 2781.26,-93.23 3053,-53 3055.88,-52.57 3058.8,-52.11 3061.75,-51.61"/>
<polygon fill="midnightblue" stroke="midnightblue" points="2291.22,-104.26 2281.28,-107.94 2291.35,-111.26 2291.22,-104.26"/>
</g>
<!-- Node17 -->
<g id="node17" class="node">
<title>Node17</title>
<g id="a_node17"><a xlink:href="java__entry__point_8cpp.html" target="_top" xlink:title=" ">
<polygon fill="none" stroke="black" points="3280,-0.5 3280,-52.5 3480,-52.5 3480,-0.5 3280,-0.5"/>
<text text-anchor="start" x="3288" y="-40.5" font-family="Helvetica,sans-Serif" font-size="10.00">/home/runner/work/cbmc</text>
<text text-anchor="start" x="3288" y="-29.5" font-family="Helvetica,sans-Serif" font-size="10.00">&#45;documentation/cbmc&#45;documentation</text>
<text text-anchor="start" x="3288" y="-18.5" font-family="Helvetica,sans-Serif" font-size="10.00">/jbmc/src/java_bytecode/java</text>
<text text-anchor="middle" x="3380" y="-7.5" font-family="Helvetica,sans-Serif" font-size="10.00">_entry_point.cpp</text>
</a>
</g>
</g>
<!-- Node1&#45;&gt;Node17 -->
<g id="edge16" class="edge">
<title>Node1&#45;&gt;Node17</title>
<path fill="none" stroke="midnightblue" d="M2291.22,-109.81C2488.67,-109.83 2915.32,-103.33 3271,-53 3273.89,-52.59 3276.81,-52.14 3279.75,-51.66"/>
<polygon fill="midnightblue" stroke="midnightblue" points="2291.14,-106.31 2281.13,-109.8 2291.13,-113.31 2291.14,-106.31"/>
</g>
<!-- Node18 -->
<g id="node18" class="node">
<title>Node18</title>
<g id="a_node18"><a xlink:href="java__enum__static__init__unwind__handler_8cpp.html" target="_top" xlink:title=" ">
<polygon fill="none" stroke="black" points="3498.5,-0.5 3498.5,-52.5 3703.5,-52.5 3703.5,-0.5 3498.5,-0.5"/>
<text text-anchor="start" x="3506.5" y="-40.5" font-family="Helvetica,sans-Serif" font-size="10.00">/home/runner/work/cbmc</text>
<text text-anchor="start" x="3506.5" y="-29.5" font-family="Helvetica,sans-Serif" font-size="10.00">&#45;documentation/cbmc&#45;documentation</text>
<text text-anchor="start" x="3506.5" y="-18.5" font-family="Helvetica,sans-Serif" font-size="10.00">/jbmc/src/java_bytecode/java</text>
<text text-anchor="middle" x="3601" y="-7.5" font-family="Helvetica,sans-Serif" font-size="10.00">_enum_static_init_unwind_handler.cpp</text>
</a>
</g>
</g>
<!-- Node1&#45;&gt;Node18 -->
<g id="edge17" class="edge">
<title>Node1&#45;&gt;Node18</title>
<path fill="none" stroke="midnightblue" d="M2291.54,-106.84C2563.37,-101.12 3258.94,-83.86 3489,-53 3492.06,-52.59 3495.17,-52.13 3498.29,-51.64"/>
<polygon fill="midnightblue" stroke="midnightblue" points="2291.19,-103.35 2281.27,-107.06 2291.34,-110.35 2291.19,-103.35"/>
</g>
<!-- Node19 -->
<g id="node19" class="node">
<title>Node19</title>
<g id="a_node19"><a xlink:href="java__static__initializers_8cpp.html" target="_top" xlink:title=" ">
<polygon fill="none" stroke="black" points="3722,-0.5 3722,-52.5 3922,-52.5 3922,-0.5 3722,-0.5"/>
<text text-anchor="start" x="3730" y="-40.5" font-family="Helvetica,sans-Serif" font-size="10.00">/home/runner/work/cbmc</text>
<text text-anchor="start" x="3730" y="-29.5" font-family="Helvetica,sans-Serif" font-size="10.00">&#45;documentation/cbmc&#45;documentation</text>
<text text-anchor="start" x="3730" y="-18.5" font-family="Helvetica,sans-Serif" font-size="10.00">/jbmc/src/java_bytecode/java</text>
<text text-anchor="middle" x="3822" y="-7.5" font-family="Helvetica,sans-Serif" font-size="10.00">_static_initializers.cpp</text>
</a>
</g>
</g>
<!-- Node1&#45;&gt;Node19 -->
<g id="edge18" class="edge">
<title>Node1&#45;&gt;Node19</title>
<path fill="none" stroke="midnightblue" d="M2291.22,-107.74C2594.67,-103.82 3437.99,-89.84 3713,-53 3715.89,-52.61 3718.81,-52.18 3721.76,-51.72"/>
<polygon fill="midnightblue" stroke="midnightblue" points="2291.05,-104.24 2281.1,-107.87 2291.14,-111.24 2291.05,-104.24"/>
</g>
<!-- Node20 -->
<g id="node20" class="node">
<title>Node20</title>
<g id="a_node20"><a xlink:href="load__java__class_8cpp.html" target="_top" xlink:title=" ">
<polygon fill="none" stroke="black" points="3940,-0.5 3940,-52.5 4140,-52.5 4140,-0.5 3940,-0.5"/>
<text text-anchor="start" x="3948" y="-40.5" font-family="Helvetica,sans-Serif" font-size="10.00">/home/runner/work/cbmc</text>
<text text-anchor="start" x="3948" y="-29.5" font-family="Helvetica,sans-Serif" font-size="10.00">&#45;documentation/cbmc&#45;documentation</text>
<text text-anchor="start" x="3948" y="-18.5" font-family="Helvetica,sans-Serif" font-size="10.00">/jbmc/unit/java&#45;testing&#45;utils</text>
<text text-anchor="middle" x="4040" y="-7.5" font-family="Helvetica,sans-Serif" font-size="10.00">/load_java_class.cpp</text>
</a>
</g>
</g>
<!-- Node1&#45;&gt;Node20 -->
<g id="edge19" class="edge">
<title>Node1&#45;&gt;Node20</title>
<path fill="none" stroke="midnightblue" d="M2291.21,-108.32C2623.45,-105.84 3611.93,-95.01 3931,-53 3933.89,-52.62 3936.82,-52.2 3939.76,-51.74"/>
<polygon fill="midnightblue" stroke="midnightblue" points="2291.07,-104.82 2281.1,-108.4 2291.12,-111.82 2291.07,-104.82"/>
</g>
<!-- Node21 -->
<g id="node21" class="node">
<title>Node21</title>
<g id="a_node21"><a xlink:href="require__goto__statements_8cpp.html" target="_top" xlink:title=" ">
<polygon fill="none" stroke="black" points="4158,-0.5 4158,-52.5 4358,-52.5 4358,-0.5 4158,-0.5"/>
<text text-anchor="start" x="4166" y="-40.5" font-family="Helvetica,sans-Serif" font-size="10.00">/home/runner/work/cbmc</text>
<text text-anchor="start" x="4166" y="-29.5" font-family="Helvetica,sans-Serif" font-size="10.00">&#45;documentation/cbmc&#45;documentation</text>
<text text-anchor="start" x="4166" y="-18.5" font-family="Helvetica,sans-Serif" font-size="10.00">/jbmc/unit/java&#45;testing&#45;utils</text>
<text text-anchor="middle" x="4258" y="-7.5" font-family="Helvetica,sans-Serif" font-size="10.00">/require_goto_statements.cpp</text>
</a>
</g>
</g>
<!-- Node1&#45;&gt;Node21 -->
<g id="edge20" class="edge">
<title>Node1&#45;&gt;Node21</title>
<path fill="none" stroke="midnightblue" d="M2291.35,-108.78C2650.79,-107.61 3785.68,-100.18 4149,-53 4151.89,-52.62 4154.82,-52.21 4157.76,-51.75"/>
<polygon fill="midnightblue" stroke="midnightblue" points="2291.18,-105.28 2281.2,-108.81 2291.21,-112.28 2291.18,-105.28"/>
</g>
</g>
</svg>
