<?xml version="1.0" encoding="UTF-8" standalone="no"?>
<!DOCTYPE svg PUBLIC "-//W3C//DTD SVG 1.1//EN"
 "http://www.w3.org/Graphics/SVG/1.1/DTD/svg11.dtd">
<!-- Generated by graphviz version 2.43.0 (0)
 -->
<!-- Title: /home/runner/work/cbmc&#45;documentation/cbmc&#45;documentation/src/goto&#45;checker/symex_bmc.h Pages: 1 -->
<svg width="2008pt" height="406pt"
 viewBox="0.00 0.00 2007.50 406.00" xmlns="http://www.w3.org/2000/svg" xmlns:xlink="http://www.w3.org/1999/xlink">
<g id="graph0" class="graph" transform="scale(1 1) rotate(0) translate(4 402)">
<title>/home/runner/work/cbmc&#45;documentation/cbmc&#45;documentation/src/goto&#45;checker/symex_bmc.h</title>
<!-- Node1 -->
<g id="node1" class="node">
<title>Node1</title>
<g id="a_node1"><a xlink:title=" ">
<polygon fill="#bfbfbf" stroke="black" points="1145.5,-356.5 1145.5,-397.5 1345.5,-397.5 1345.5,-356.5 1145.5,-356.5"/>
<text text-anchor="start" x="1153.5" y="-385.5" font-family="Helvetica,sans-Serif" font-size="10.00">/home/runner/work/cbmc</text>
<text text-anchor="start" x="1153.5" y="-374.5" font-family="Helvetica,sans-Serif" font-size="10.00">&#45;documentation/cbmc&#45;documentation</text>
<text text-anchor="middle" x="1245.5" y="-363.5" font-family="Helvetica,sans-Serif" font-size="10.00">/src/goto&#45;checker/symex_bmc.h</text>
</a>
</g>
</g>
<!-- Node2 -->
<g id="node2" class="node">
<title>Node2</title>
<g id="a_node2"><a xlink:href="multi__path__symex__only__checker_8h.html" target="_top" xlink:title=" ">
<polygon fill="none" stroke="black" points="440.5,-267.5 440.5,-319.5 640.5,-319.5 640.5,-267.5 440.5,-267.5"/>
<text text-anchor="start" x="448.5" y="-307.5" font-family="Helvetica,sans-Serif" font-size="10.00">/home/runner/work/cbmc</text>
<text text-anchor="start" x="448.5" y="-296.5" font-family="Helvetica,sans-Serif" font-size="10.00">&#45;documentation/cbmc&#45;documentation</text>
<text text-anchor="start" x="448.5" y="-285.5" font-family="Helvetica,sans-Serif" font-size="10.00">/src/goto&#45;checker/multi_path</text>
<text text-anchor="middle" x="540.5" y="-274.5" font-family="Helvetica,sans-Serif" font-size="10.00">_symex_only_checker.h</text>
</a>
</g>
</g>
<!-- Node1&#45;&gt;Node2 -->
<g id="edge1" class="edge">
<title>Node1&#45;&gt;Node2</title>
<path fill="none" stroke="midnightblue" d="M1135.13,-368.15C1019.86,-359.25 833.97,-342.95 674.5,-320 663.48,-318.41 651.99,-316.55 640.58,-314.57"/>
<polygon fill="midnightblue" stroke="midnightblue" points="1135.14,-371.66 1145.38,-368.93 1135.67,-364.68 1135.14,-371.66"/>
</g>
<!-- Node11 -->
<g id="node11" class="node">
<title>Node11</title>
<g id="a_node11"><a xlink:href="symex__bmc__incremental__one__loop_8h.html" target="_top" xlink:title=" ">
<polygon fill="none" stroke="black" points="683.5,-267.5 683.5,-319.5 909.5,-319.5 909.5,-267.5 683.5,-267.5"/>
<text text-anchor="start" x="691.5" y="-307.5" font-family="Helvetica,sans-Serif" font-size="10.00">/home/runner/work/cbmc</text>
<text text-anchor="start" x="691.5" y="-296.5" font-family="Helvetica,sans-Serif" font-size="10.00">&#45;documentation/cbmc&#45;documentation</text>
<text text-anchor="start" x="691.5" y="-285.5" font-family="Helvetica,sans-Serif" font-size="10.00">/src/goto&#45;checker/symex_bmc_incremental</text>
<text text-anchor="middle" x="796.5" y="-274.5" font-family="Helvetica,sans-Serif" font-size="10.00">_one_loop.h</text>
</a>
</g>
</g>
<!-- Node1&#45;&gt;Node11 -->
<g id="edge12" class="edge">
<title>Node1&#45;&gt;Node11</title>
<path fill="none" stroke="midnightblue" d="M1135.12,-358.13C1071.65,-347.59 990.47,-333.68 918.5,-320 915.63,-319.45 912.72,-318.9 909.79,-318.33"/>
<polygon fill="midnightblue" stroke="midnightblue" points="1134.71,-361.61 1145.15,-359.79 1135.85,-354.7 1134.71,-361.61"/>
</g>
<!-- Node15 -->
<g id="node15" class="node">
<title>Node15</title>
<g id="a_node15"><a xlink:href="bmc__util_8cpp.html" target="_top" xlink:title=" ">
<polygon fill="none" stroke="black" points="927.5,-273 927.5,-314 1127.5,-314 1127.5,-273 927.5,-273"/>
<text text-anchor="start" x="935.5" y="-302" font-family="Helvetica,sans-Serif" font-size="10.00">/home/runner/work/cbmc</text>
<text text-anchor="start" x="935.5" y="-291" font-family="Helvetica,sans-Serif" font-size="10.00">&#45;documentation/cbmc&#45;documentation</text>
<text text-anchor="middle" x="1027.5" y="-280" font-family="Helvetica,sans-Serif" font-size="10.00">/src/goto&#45;checker/bmc_util.cpp</text>
</a>
</g>
</g>
<!-- Node1&#45;&gt;Node15 -->
<g id="edge17" class="edge">
<title>Node1&#45;&gt;Node15</title>
<path fill="none" stroke="midnightblue" d="M1183.78,-352.92C1150.92,-340.64 1110.96,-325.7 1079.67,-314"/>
<polygon fill="midnightblue" stroke="midnightblue" points="1182.69,-356.26 1193.28,-356.48 1185.14,-349.7 1182.69,-356.26"/>
</g>
<!-- Node16 -->
<g id="node16" class="node">
<title>Node16</title>
<g id="a_node16"><a xlink:href="single__path__symex__checker_8cpp.html" target="_top" xlink:title=" ">
<polygon fill="none" stroke="black" points="1145.5,-267.5 1145.5,-319.5 1345.5,-319.5 1345.5,-267.5 1145.5,-267.5"/>
<text text-anchor="start" x="1153.5" y="-307.5" font-family="Helvetica,sans-Serif" font-size="10.00">/home/runner/work/cbmc</text>
<text text-anchor="start" x="1153.5" y="-296.5" font-family="Helvetica,sans-Serif" font-size="10.00">&#45;documentation/cbmc&#45;documentation</text>
<text text-anchor="start" x="1153.5" y="-285.5" font-family="Helvetica,sans-Serif" font-size="10.00">/src/goto&#45;checker/single_path</text>
<text text-anchor="middle" x="1245.5" y="-274.5" font-family="Helvetica,sans-Serif" font-size="10.00">_symex_checker.cpp</text>
</a>
</g>
</g>
<!-- Node1&#45;&gt;Node16 -->
<g id="edge18" class="edge">
<title>Node1&#45;&gt;Node16</title>
<path fill="none" stroke="midnightblue" d="M1245.5,-346.12C1245.5,-337.41 1245.5,-327.99 1245.5,-319.61"/>
<polygon fill="midnightblue" stroke="midnightblue" points="1242,-346.27 1245.5,-356.27 1249,-346.27 1242,-346.27"/>
</g>
<!-- Node17 -->
<g id="node17" class="node">
<title>Node17</title>
<g id="a_node17"><a xlink:href="single__path__symex__only__checker_8cpp.html" target="_top" xlink:title=" ">
<polygon fill="none" stroke="black" points="1363.5,-267.5 1363.5,-319.5 1563.5,-319.5 1563.5,-267.5 1363.5,-267.5"/>
<text text-anchor="start" x="1371.5" y="-307.5" font-family="Helvetica,sans-Serif" font-size="10.00">/home/runner/work/cbmc</text>
<text text-anchor="start" x="1371.5" y="-296.5" font-family="Helvetica,sans-Serif" font-size="10.00">&#45;documentation/cbmc&#45;documentation</text>
<text text-anchor="start" x="1371.5" y="-285.5" font-family="Helvetica,sans-Serif" font-size="10.00">/src/goto&#45;checker/single_path</text>
<text text-anchor="middle" x="1463.5" y="-274.5" font-family="Helvetica,sans-Serif" font-size="10.00">_symex_only_checker.cpp</text>
</a>
</g>
</g>
<!-- Node1&#45;&gt;Node17 -->
<g id="edge19" class="edge">
<title>Node1&#45;&gt;Node17</title>
<path fill="none" stroke="midnightblue" d="M1307.33,-352.89C1335.13,-342.49 1368.02,-330.2 1396.42,-319.58"/>
<polygon fill="midnightblue" stroke="midnightblue" points="1305.86,-349.7 1297.72,-356.48 1308.31,-356.26 1305.86,-349.7"/>
</g>
<!-- Node18 -->
<g id="node18" class="node">
<title>Node18</title>
<g id="a_node18"><a xlink:href="symex__bmc_8cpp.html" target="_top" xlink:title=" ">
<polygon fill="none" stroke="black" points="1581.5,-273 1581.5,-314 1781.5,-314 1781.5,-273 1581.5,-273"/>
<text text-anchor="start" x="1589.5" y="-302" font-family="Helvetica,sans-Serif" font-size="10.00">/home/runner/work/cbmc</text>
<text text-anchor="start" x="1589.5" y="-291" font-family="Helvetica,sans-Serif" font-size="10.00">&#45;documentation/cbmc&#45;documentation</text>
<text text-anchor="middle" x="1681.5" y="-280" font-family="Helvetica,sans-Serif" font-size="10.00">/src/goto&#45;checker/symex_bmc.cpp</text>
</a>
</g>
</g>
<!-- Node1&#45;&gt;Node18 -->
<g id="edge20" class="edge">
<title>Node1&#45;&gt;Node18</title>
<path fill="none" stroke="midnightblue" d="M1355.65,-358.83C1419.22,-348.5 1500.56,-334.56 1572.5,-320 1581.55,-318.17 1590.99,-316.14 1600.37,-314.05"/>
<polygon fill="midnightblue" stroke="midnightblue" points="1354.92,-355.4 1345.61,-360.46 1356.04,-362.31 1354.92,-355.4"/>
</g>
<!-- Node19 -->
<g id="node19" class="node">
<title>Node19</title>
<g id="a_node19"><a xlink:href="java__bmc__util_8cpp.html" target="_top" xlink:title=" ">
<polygon fill="none" stroke="black" points="1799.5,-267.5 1799.5,-319.5 1999.5,-319.5 1999.5,-267.5 1799.5,-267.5"/>
<text text-anchor="start" x="1807.5" y="-307.5" font-family="Helvetica,sans-Serif" font-size="10.00">/home/runner/work/cbmc</text>
<text text-anchor="start" x="1807.5" y="-296.5" font-family="Helvetica,sans-Serif" font-size="10.00">&#45;documentation/cbmc&#45;documentation</text>
<text text-anchor="start" x="1807.5" y="-285.5" font-family="Helvetica,sans-Serif" font-size="10.00">/jbmc/src/java_bytecode/java</text>
<text text-anchor="middle" x="1899.5" y="-274.5" font-family="Helvetica,sans-Serif" font-size="10.00">_bmc_util.cpp</text>
</a>
</g>
</g>
<!-- Node1&#45;&gt;Node19 -->
<g id="edge21" class="edge">
<title>Node1&#45;&gt;Node19</title>
<path fill="none" stroke="midnightblue" d="M1355.87,-368.8C1466.36,-360.63 1640.97,-345.07 1790.5,-320 1793.38,-319.52 1796.29,-319 1799.22,-318.47"/>
<polygon fill="midnightblue" stroke="midnightblue" points="1355.43,-365.33 1345.71,-369.55 1355.94,-372.31 1355.43,-365.33"/>
</g>
<!-- Node3 -->
<g id="node3" class="node">
<title>Node3</title>
<g id="a_node3"><a xlink:href="multi__path__symex__checker_8h.html" target="_top" xlink:title=" ">
<polygon fill="none" stroke="black" points="440.5,-178.5 440.5,-230.5 640.5,-230.5 640.5,-178.5 440.5,-178.5"/>
<text text-anchor="start" x="448.5" y="-218.5" font-family="Helvetica,sans-Serif" font-size="10.00">/home/runner/work/cbmc</text>
<text text-anchor="start" x="448.5" y="-207.5" font-family="Helvetica,sans-Serif" font-size="10.00">&#45;documentation/cbmc&#45;documentation</text>
<text text-anchor="start" x="448.5" y="-196.5" font-family="Helvetica,sans-Serif" font-size="10.00">/src/goto&#45;checker/multi_path</text>
<text text-anchor="middle" x="540.5" y="-185.5" font-family="Helvetica,sans-Serif" font-size="10.00">_symex_checker.h</text>
</a>
</g>
</g>
<!-- Node2&#45;&gt;Node3 -->
<g id="edge2" class="edge">
<title>Node2&#45;&gt;Node3</title>
<path fill="none" stroke="midnightblue" d="M540.5,-257.19C540.5,-248.28 540.5,-238.9 540.5,-230.61"/>
<polygon fill="midnightblue" stroke="midnightblue" points="537,-257.34 540.5,-267.34 544,-257.34 537,-257.34"/>
</g>
<!-- Node4 -->
<g id="node4" class="node">
<title>Node4</title>
<g id="a_node4"><a xlink:href="cbmc__parse__options_8cpp.html" target="_top" xlink:title=" ">
<polygon fill="none" stroke="black" points="658.5,-95 658.5,-136 858.5,-136 858.5,-95 658.5,-95"/>
<text text-anchor="start" x="666.5" y="-124" font-family="Helvetica,sans-Serif" font-size="10.00">/home/runner/work/cbmc</text>
<text text-anchor="start" x="666.5" y="-113" font-family="Helvetica,sans-Serif" font-size="10.00">&#45;documentation/cbmc&#45;documentation</text>
<text text-anchor="middle" x="758.5" y="-102" font-family="Helvetica,sans-Serif" font-size="10.00">/src/cbmc/cbmc_parse_options.cpp</text>
</a>
</g>
</g>
<!-- Node2&#45;&gt;Node4 -->
<g id="edge8" class="edge">
<title>Node2&#45;&gt;Node4</title>
<path fill="none" stroke="midnightblue" d="M604.78,-262.35C620.32,-253.46 636.25,-242.89 649.5,-231 671.07,-211.64 667.97,-199.41 687.5,-178 701.35,-162.82 718.76,-147.68 732.88,-136.23"/>
<polygon fill="midnightblue" stroke="midnightblue" points="602.75,-259.48 595.7,-267.39 606.14,-265.6 602.75,-259.48"/>
</g>
<!-- Node9 -->
<g id="node9" class="node">
<title>Node9</title>
<g id="a_node9"><a xlink:href="multi__path__symex__only__checker_8cpp.html" target="_top" xlink:title=" ">
<polygon fill="none" stroke="black" points="184.5,-178.5 184.5,-230.5 384.5,-230.5 384.5,-178.5 184.5,-178.5"/>
<text text-anchor="start" x="192.5" y="-218.5" font-family="Helvetica,sans-Serif" font-size="10.00">/home/runner/work/cbmc</text>
<text text-anchor="start" x="192.5" y="-207.5" font-family="Helvetica,sans-Serif" font-size="10.00">&#45;documentation/cbmc&#45;documentation</text>
<text text-anchor="start" x="192.5" y="-196.5" font-family="Helvetica,sans-Serif" font-size="10.00">/src/goto&#45;checker/multi_path</text>
<text text-anchor="middle" x="284.5" y="-185.5" font-family="Helvetica,sans-Serif" font-size="10.00">_symex_only_checker.cpp</text>
</a>
</g>
</g>
<!-- Node2&#45;&gt;Node9 -->
<g id="edge9" class="edge">
<title>Node2&#45;&gt;Node9</title>
<path fill="none" stroke="midnightblue" d="M457.04,-264.14C425.15,-253.3 389.04,-241.03 358.13,-230.52"/>
<polygon fill="midnightblue" stroke="midnightblue" points="456.2,-267.55 466.8,-267.45 458.46,-260.92 456.2,-267.55"/>
</g>
<!-- Node10 -->
<g id="node10" class="node">
<title>Node10</title>
<g id="a_node10"><a xlink:href="java__multi__path__symex__only__checker_8h.html" target="_top" xlink:title=" ">
<polygon fill="none" stroke="black" points="4.5,-89.5 4.5,-141.5 204.5,-141.5 204.5,-89.5 4.5,-89.5"/>
<text text-anchor="start" x="12.5" y="-129.5" font-family="Helvetica,sans-Serif" font-size="10.00">/home/runner/work/cbmc</text>
<text text-anchor="start" x="12.5" y="-118.5" font-family="Helvetica,sans-Serif" font-size="10.00">&#45;documentation/cbmc&#45;documentation</text>
<text text-anchor="start" x="12.5" y="-107.5" font-family="Helvetica,sans-Serif" font-size="10.00">/jbmc/src/java_bytecode/java</text>
<text text-anchor="middle" x="104.5" y="-96.5" font-family="Helvetica,sans-Serif" font-size="10.00">_multi_path_symex_only_checker.h</text>
</a>
</g>
</g>
<!-- Node2&#45;&gt;Node10 -->
<g id="edge10" class="edge">
<title>Node2&#45;&gt;Node10</title>
<path fill="none" stroke="midnightblue" d="M476.22,-262.35C460.68,-253.46 444.75,-242.89 431.5,-231 409.93,-211.64 417.85,-193.72 393.5,-178 324.95,-133.76 293.23,-159.29 213.5,-142 210.56,-141.36 207.57,-140.71 204.56,-140.04"/>
<polygon fill="midnightblue" stroke="midnightblue" points="474.86,-265.6 485.3,-267.39 478.25,-259.48 474.86,-265.6"/>
</g>
<!-- Node3&#45;&gt;Node4 -->
<g id="edge3" class="edge">
<title>Node3&#45;&gt;Node4</title>
<path fill="none" stroke="midnightblue" d="M612.92,-174.6C644.57,-161.97 680.87,-147.48 709.3,-136.13"/>
<polygon fill="midnightblue" stroke="midnightblue" points="611.25,-171.5 603.26,-178.45 613.85,-178 611.25,-171.5"/>
</g>
<!-- Node5 -->
<g id="node5" class="node">
<title>Node5</title>
<g id="a_node5"><a xlink:href="multi__path__symex__checker_8cpp.html" target="_top" xlink:title=" ">
<polygon fill="none" stroke="black" points="440.5,-89.5 440.5,-141.5 640.5,-141.5 640.5,-89.5 440.5,-89.5"/>
<text text-anchor="start" x="448.5" y="-129.5" font-family="Helvetica,sans-Serif" font-size="10.00">/home/runner/work/cbmc</text>
<text text-anchor="start" x="448.5" y="-118.5" font-family="Helvetica,sans-Serif" font-size="10.00">&#45;documentation/cbmc&#45;documentation</text>
<text text-anchor="start" x="448.5" y="-107.5" font-family="Helvetica,sans-Serif" font-size="10.00">/src/goto&#45;checker/multi_path</text>
<text text-anchor="middle" x="540.5" y="-96.5" font-family="Helvetica,sans-Serif" font-size="10.00">_symex_checker.cpp</text>
</a>
</g>
</g>
<!-- Node3&#45;&gt;Node5 -->
<g id="edge4" class="edge">
<title>Node3&#45;&gt;Node5</title>
<path fill="none" stroke="midnightblue" d="M540.5,-168.19C540.5,-159.28 540.5,-149.9 540.5,-141.61"/>
<polygon fill="midnightblue" stroke="midnightblue" points="537,-168.34 540.5,-178.34 544,-168.34 537,-168.34"/>
</g>
<!-- Node6 -->
<g id="node6" class="node">
<title>Node6</title>
<g id="a_node6"><a xlink:href="java__multi__path__symex__checker_8h.html" target="_top" xlink:title=" ">
<polygon fill="none" stroke="black" points="222.5,-89.5 222.5,-141.5 422.5,-141.5 422.5,-89.5 222.5,-89.5"/>
<text text-anchor="start" x="230.5" y="-129.5" font-family="Helvetica,sans-Serif" font-size="10.00">/home/runner/work/cbmc</text>
<text text-anchor="start" x="230.5" y="-118.5" font-family="Helvetica,sans-Serif" font-size="10.00">&#45;documentation/cbmc&#45;documentation</text>
<text text-anchor="start" x="230.5" y="-107.5" font-family="Helvetica,sans-Serif" font-size="10.00">/jbmc/src/java_bytecode/java</text>
<text text-anchor="middle" x="322.5" y="-96.5" font-family="Helvetica,sans-Serif" font-size="10.00">_multi_path_symex_checker.h</text>
</a>
</g>
</g>
<!-- Node3&#45;&gt;Node6 -->
<g id="edge5" class="edge">
<title>Node3&#45;&gt;Node6</title>
<path fill="none" stroke="midnightblue" d="M468.38,-174.72C441.48,-163.98 411.18,-151.89 385.2,-141.52"/>
<polygon fill="midnightblue" stroke="midnightblue" points="467.15,-178 477.74,-178.45 469.75,-171.5 467.15,-178"/>
</g>
<!-- Node7 -->
<g id="node7" class="node">
<title>Node7</title>
<g id="a_node7"><a xlink:href="java__multi__path__symex__checker_8cpp.html" target="_top" xlink:title=" ">
<polygon fill="none" stroke="black" points="227.5,-0.5 227.5,-52.5 427.5,-52.5 427.5,-0.5 227.5,-0.5"/>
<text text-anchor="start" x="235.5" y="-40.5" font-family="Helvetica,sans-Serif" font-size="10.00">/home/runner/work/cbmc</text>
<text text-anchor="start" x="235.5" y="-29.5" font-family="Helvetica,sans-Serif" font-size="10.00">&#45;documentation/cbmc&#45;documentation</text>
<text text-anchor="start" x="235.5" y="-18.5" font-family="Helvetica,sans-Serif" font-size="10.00">/jbmc/src/java_bytecode/java</text>
<text text-anchor="middle" x="327.5" y="-7.5" font-family="Helvetica,sans-Serif" font-size="10.00">_multi_path_symex_checker.cpp</text>
</a>
</g>
</g>
<!-- Node6&#45;&gt;Node7 -->
<g id="edge6" class="edge">
<title>Node6&#45;&gt;Node7</title>
<path fill="none" stroke="midnightblue" d="M324.53,-79.19C325.04,-70.28 325.58,-60.9 326.06,-52.61"/>
<polygon fill="midnightblue" stroke="midnightblue" points="321.03,-79.15 323.95,-89.34 328.01,-79.55 321.03,-79.15"/>
</g>
<!-- Node8 -->
<g id="node8" class="node">
<title>Node8</title>
<g id="a_node8"><a xlink:href="jbmc__parse__options_8cpp.html" target="_top" xlink:title=" ">
<polygon fill="none" stroke="black" points="0,-6 0,-47 209,-47 209,-6 0,-6"/>
<text text-anchor="start" x="8" y="-35" font-family="Helvetica,sans-Serif" font-size="10.00">/home/runner/work/cbmc</text>
<text text-anchor="start" x="8" y="-24" font-family="Helvetica,sans-Serif" font-size="10.00">&#45;documentation/cbmc&#45;documentation</text>
<text text-anchor="middle" x="104.5" y="-13" font-family="Helvetica,sans-Serif" font-size="10.00">/jbmc/src/jbmc/jbmc_parse_options.cpp</text>
</a>
</g>
</g>
<!-- Node6&#45;&gt;Node8 -->
<g id="edge7" class="edge">
<title>Node6&#45;&gt;Node8</title>
<path fill="none" stroke="midnightblue" d="M250.08,-85.6C218.43,-72.97 182.13,-58.48 153.7,-47.13"/>
<polygon fill="midnightblue" stroke="midnightblue" points="249.15,-89 259.74,-89.45 251.75,-82.5 249.15,-89"/>
</g>
<!-- Node10&#45;&gt;Node8 -->
<g id="edge11" class="edge">
<title>Node10&#45;&gt;Node8</title>
<path fill="none" stroke="midnightblue" d="M104.5,-79.16C104.5,-68.21 104.5,-56.55 104.5,-47.08"/>
<polygon fill="midnightblue" stroke="midnightblue" points="101,-79.34 104.5,-89.34 108,-79.34 101,-79.34"/>
</g>
<!-- Node12 -->
<g id="node12" class="node">
<title>Node12</title>
<g id="a_node12"><a xlink:href="single__loop__incremental__symex__checker_8h.html" target="_top" xlink:title=" ">
<polygon fill="none" stroke="black" points="696.5,-178.5 696.5,-230.5 896.5,-230.5 896.5,-178.5 696.5,-178.5"/>
<text text-anchor="start" x="704.5" y="-218.5" font-family="Helvetica,sans-Serif" font-size="10.00">/home/runner/work/cbmc</text>
<text text-anchor="start" x="704.5" y="-207.5" font-family="Helvetica,sans-Serif" font-size="10.00">&#45;documentation/cbmc&#45;documentation</text>
<text text-anchor="start" x="704.5" y="-196.5" font-family="Helvetica,sans-Serif" font-size="10.00">/src/goto&#45;checker/single_loop</text>
<text text-anchor="middle" x="796.5" y="-185.5" font-family="Helvetica,sans-Serif" font-size="10.00">_incremental_symex_checker.h</text>
</a>
</g>
</g>
<!-- Node11&#45;&gt;Node12 -->
<g id="edge13" class="edge">
<title>Node11&#45;&gt;Node12</title>
<path fill="none" stroke="midnightblue" d="M796.5,-257.19C796.5,-248.28 796.5,-238.9 796.5,-230.61"/>
<polygon fill="midnightblue" stroke="midnightblue" points="793,-257.34 796.5,-267.34 800,-257.34 793,-257.34"/>
</g>
<!-- Node14 -->
<g id="node14" class="node">
<title>Node14</title>
<g id="a_node14"><a xlink:href="symex__bmc__incremental__one__loop_8cpp.html" target="_top" xlink:title=" ">
<polygon fill="none" stroke="black" points="914.5,-178.5 914.5,-230.5 1140.5,-230.5 1140.5,-178.5 914.5,-178.5"/>
<text text-anchor="start" x="922.5" y="-218.5" font-family="Helvetica,sans-Serif" font-size="10.00">/home/runner/work/cbmc</text>
<text text-anchor="start" x="922.5" y="-207.5" font-family="Helvetica,sans-Serif" font-size="10.00">&#45;documentation/cbmc&#45;documentation</text>
<text text-anchor="start" x="922.5" y="-196.5" font-family="Helvetica,sans-Serif" font-size="10.00">/src/goto&#45;checker/symex_bmc_incremental</text>
<text text-anchor="middle" x="1027.5" y="-185.5" font-family="Helvetica,sans-Serif" font-size="10.00">_one_loop.cpp</text>
</a>
</g>
</g>
<!-- Node11&#45;&gt;Node14 -->
<g id="edge16" class="edge">
<title>Node11&#45;&gt;Node14</title>
<path fill="none" stroke="midnightblue" d="M872.55,-263.86C901.15,-253.09 933.41,-240.94 961.06,-230.52"/>
<polygon fill="midnightblue" stroke="midnightblue" points="871.13,-260.65 863,-267.45 873.6,-267.2 871.13,-260.65"/>
</g>
<!-- Node12&#45;&gt;Node4 -->
<g id="edge14" class="edge">
<title>Node12&#45;&gt;Node4</title>
<path fill="none" stroke="midnightblue" d="M781.5,-169.17C776.6,-157.93 771.32,-145.84 767.05,-136.08"/>
<polygon fill="midnightblue" stroke="midnightblue" points="778.3,-170.57 785.51,-178.34 784.71,-167.77 778.3,-170.57"/>
</g>
<!-- Node13 -->
<g id="node13" class="node">
<title>Node13</title>
<g id="a_node13"><a xlink:href="single__loop__incremental__symex__checker_8cpp.html" target="_top" xlink:title=" ">
<polygon fill="none" stroke="black" points="876.5,-89.5 876.5,-141.5 1076.5,-141.5 1076.5,-89.5 876.5,-89.5"/>
<text text-anchor="start" x="884.5" y="-129.5" font-family="Helvetica,sans-Serif" font-size="10.00">/home/runner/work/cbmc</text>
<text text-anchor="start" x="884.5" y="-118.5" font-family="Helvetica,sans-Serif" font-size="10.00">&#45;documentation/cbmc&#45;documentation</text>
<text text-anchor="start" x="884.5" y="-107.5" font-family="Helvetica,sans-Serif" font-size="10.00">/src/goto&#45;checker/single_loop</text>
<text text-anchor="middle" x="976.5" y="-96.5" font-family="Helvetica,sans-Serif" font-size="10.00">_incremental_symex_checker.cpp</text>
</a>
</g>
</g>
<!-- Node12&#45;&gt;Node13 -->
<g id="edge15" class="edge">
<title>Node12&#45;&gt;Node13</title>
<path fill="none" stroke="midnightblue" d="M857.71,-173.92C879.44,-163.41 903.67,-151.7 924.55,-141.61"/>
<polygon fill="midnightblue" stroke="midnightblue" points="856.04,-170.83 848.56,-178.34 859.09,-177.14 856.04,-170.83"/>
</g>
</g>
</svg>
