<?xml version="1.0" encoding="UTF-8" standalone="no"?>
<!DOCTYPE svg PUBLIC "-//W3C//DTD SVG 1.1//EN"
 "http://www.w3.org/Graphics/SVG/1.1/DTD/svg11.dtd">
<!-- Generated by graphviz version 2.43.0 (0)
 -->
<!-- Title: /home/runner/work/cbmc&#45;documentation/cbmc&#45;documentation/src/goto&#45;checker/symex_bmc_incremental_one_loop.h Pages: 1 -->
<svg width="561pt" height="239pt"
 viewBox="0.00 0.00 561.00 239.00" xmlns="http://www.w3.org/2000/svg" xmlns:xlink="http://www.w3.org/1999/xlink">
<g id="graph0" class="graph" transform="scale(1 1) rotate(0) translate(4 235)">
<title>/home/runner/work/cbmc&#45;documentation/cbmc&#45;documentation/src/goto&#45;checker/symex_bmc_incremental_one_loop.h</title>
<!-- Node1 -->
<g id="node1" class="node">
<title>Node1</title>
<g id="a_node1"><a xlink:title=" ">
<polygon fill="#bfbfbf" stroke="black" points="211,-178.5 211,-230.5 437,-230.5 437,-178.5 211,-178.5"/>
<text text-anchor="start" x="219" y="-218.5" font-family="Helvetica,sans-Serif" font-size="10.00">/home/runner/work/cbmc</text>
<text text-anchor="start" x="219" y="-207.5" font-family="Helvetica,sans-Serif" font-size="10.00">&#45;documentation/cbmc&#45;documentation</text>
<text text-anchor="start" x="219" y="-196.5" font-family="Helvetica,sans-Serif" font-size="10.00">/src/goto&#45;checker/symex_bmc_incremental</text>
<text text-anchor="middle" x="324" y="-185.5" font-family="Helvetica,sans-Serif" font-size="10.00">_one_loop.h</text>
</a>
</g>
</g>
<!-- Node2 -->
<g id="node2" class="node">
<title>Node2</title>
<g id="a_node2"><a xlink:href="single__loop__incremental__symex__checker_8h.html" target="_top" xlink:title=" ">
<polygon fill="none" stroke="black" points="109,-89.5 109,-141.5 309,-141.5 309,-89.5 109,-89.5"/>
<text text-anchor="start" x="117" y="-129.5" font-family="Helvetica,sans-Serif" font-size="10.00">/home/runner/work/cbmc</text>
<text text-anchor="start" x="117" y="-118.5" font-family="Helvetica,sans-Serif" font-size="10.00">&#45;documentation/cbmc&#45;documentation</text>
<text text-anchor="start" x="117" y="-107.5" font-family="Helvetica,sans-Serif" font-size="10.00">/src/goto&#45;checker/single_loop</text>
<text text-anchor="middle" x="209" y="-96.5" font-family="Helvetica,sans-Serif" font-size="10.00">_incremental_symex_checker.h</text>
</a>
</g>
</g>
<!-- Node1&#45;&gt;Node2 -->
<g id="edge1" class="edge">
<title>Node1&#45;&gt;Node2</title>
<path fill="none" stroke="midnightblue" d="M282.65,-172.22C269.36,-162.16 254.82,-151.16 242.19,-141.61"/>
<polygon fill="midnightblue" stroke="midnightblue" points="280.65,-175.09 290.74,-178.34 284.87,-169.51 280.65,-175.09"/>
</g>
<!-- Node5 -->
<g id="node5" class="node">
<title>Node5</title>
<g id="a_node5"><a xlink:href="symex__bmc__incremental__one__loop_8cpp.html" target="_top" xlink:title=" ">
<polygon fill="none" stroke="black" points="327,-89.5 327,-141.5 553,-141.5 553,-89.5 327,-89.5"/>
<text text-anchor="start" x="335" y="-129.5" font-family="Helvetica,sans-Serif" font-size="10.00">/home/runner/work/cbmc</text>
<text text-anchor="start" x="335" y="-118.5" font-family="Helvetica,sans-Serif" font-size="10.00">&#45;documentation/cbmc&#45;documentation</text>
<text text-anchor="start" x="335" y="-107.5" font-family="Helvetica,sans-Serif" font-size="10.00">/src/goto&#45;checker/symex_bmc_incremental</text>
<text text-anchor="middle" x="440" y="-96.5" font-family="Helvetica,sans-Serif" font-size="10.00">_one_loop.cpp</text>
</a>
</g>
</g>
<!-- Node1&#45;&gt;Node5 -->
<g id="edge4" class="edge">
<title>Node1&#45;&gt;Node5</title>
<path fill="none" stroke="midnightblue" d="M365.71,-172.22C379.12,-162.16 393.79,-151.16 406.52,-141.61"/>
<polygon fill="midnightblue" stroke="midnightblue" points="363.45,-169.54 357.55,-178.34 367.65,-175.14 363.45,-169.54"/>
</g>
<!-- Node3 -->
<g id="node3" class="node">
<title>Node3</title>
<g id="a_node3"><a xlink:href="cbmc__parse__options_8cpp.html" target="_top" xlink:title=" ">
<polygon fill="none" stroke="black" points="0,-6 0,-47 200,-47 200,-6 0,-6"/>
<text text-anchor="start" x="8" y="-35" font-family="Helvetica,sans-Serif" font-size="10.00">/home/runner/work/cbmc</text>
<text text-anchor="start" x="8" y="-24" font-family="Helvetica,sans-Serif" font-size="10.00">&#45;documentation/cbmc&#45;documentation</text>
<text text-anchor="middle" x="100" y="-13" font-family="Helvetica,sans-Serif" font-size="10.00">/src/cbmc/cbmc_parse_options.cpp</text>
</a>
</g>
</g>
<!-- Node2&#45;&gt;Node3 -->
<g id="edge2" class="edge">
<title>Node2&#45;&gt;Node3</title>
<path fill="none" stroke="midnightblue" d="M169.34,-82.85C154.35,-70.88 137.74,-57.62 124.53,-47.08"/>
<polygon fill="midnightblue" stroke="midnightblue" points="167.47,-85.83 177.47,-89.34 171.84,-80.36 167.47,-85.83"/>
</g>
<!-- Node4 -->
<g id="node4" class="node">
<title>Node4</title>
<g id="a_node4"><a xlink:href="single__loop__incremental__symex__checker_8cpp.html" target="_top" xlink:title=" ">
<polygon fill="none" stroke="black" points="218,-0.5 218,-52.5 418,-52.5 418,-0.5 218,-0.5"/>
<text text-anchor="start" x="226" y="-40.5" font-family="Helvetica,sans-Serif" font-size="10.00">/home/runner/work/cbmc</text>
<text text-anchor="start" x="226" y="-29.5" font-family="Helvetica,sans-Serif" font-size="10.00">&#45;documentation/cbmc&#45;documentation</text>
<text text-anchor="start" x="226" y="-18.5" font-family="Helvetica,sans-Serif" font-size="10.00">/src/goto&#45;checker/single_loop</text>
<text text-anchor="middle" x="318" y="-7.5" font-family="Helvetica,sans-Serif" font-size="10.00">_incremental_symex_checker.cpp</text>
</a>
</g>
</g>
<!-- Node2&#45;&gt;Node4 -->
<g id="edge3" class="edge">
<title>Node2&#45;&gt;Node4</title>
<path fill="none" stroke="midnightblue" d="M248.55,-82.93C261.05,-72.96 274.69,-62.07 286.54,-52.61"/>
<polygon fill="midnightblue" stroke="midnightblue" points="246.16,-80.36 240.53,-89.34 250.53,-85.83 246.16,-80.36"/>
</g>
</g>
</svg>
