<?xml version="1.0" encoding="UTF-8" standalone="no"?>
<!DOCTYPE svg PUBLIC "-//W3C//DTD SVG 1.1//EN"
 "http://www.w3.org/Graphics/SVG/1.1/DTD/svg11.dtd">
<!-- Generated by graphviz version 2.43.0 (0)
 -->
<!-- Title: /home/runner/work/cbmc&#45;documentation/cbmc&#45;documentation/src/util/tempfile.h Pages: 1 -->
<svg width="2170pt" height="139pt"
 viewBox="0.00 0.00 2170.00 139.00" xmlns="http://www.w3.org/2000/svg" xmlns:xlink="http://www.w3.org/1999/xlink">
<g id="graph0" class="graph" transform="scale(1 1) rotate(0) translate(4 135)">
<title>/home/runner/work/cbmc&#45;documentation/cbmc&#45;documentation/src/util/tempfile.h</title>
<!-- Node1 -->
<g id="node1" class="node">
<title>Node1</title>
<g id="a_node1"><a xlink:title=" ">
<polygon fill="#bfbfbf" stroke="black" points="981,-89.5 981,-130.5 1181,-130.5 1181,-89.5 981,-89.5"/>
<text text-anchor="start" x="989" y="-118.5" font-family="Helvetica,sans-Serif" font-size="10.00">/home/runner/work/cbmc</text>
<text text-anchor="start" x="989" y="-107.5" font-family="Helvetica,sans-Serif" font-size="10.00">&#45;documentation/cbmc&#45;documentation</text>
<text text-anchor="middle" x="1081" y="-96.5" font-family="Helvetica,sans-Serif" font-size="10.00">/src/util/tempfile.h</text>
</a>
</g>
</g>
<!-- Node2 -->
<g id="node2" class="node">
<title>Node2</title>
<g id="a_node2"><a xlink:href="c__preprocess_8cpp.html" target="_top" xlink:title=" ">
<polygon fill="none" stroke="black" points="0,-6 0,-47 200,-47 200,-6 0,-6"/>
<text text-anchor="start" x="8" y="-35" font-family="Helvetica,sans-Serif" font-size="10.00">/home/runner/work/cbmc</text>
<text text-anchor="start" x="8" y="-24" font-family="Helvetica,sans-Serif" font-size="10.00">&#45;documentation/cbmc&#45;documentation</text>
<text text-anchor="middle" x="100" y="-13" font-family="Helvetica,sans-Serif" font-size="10.00">/src/ansi&#45;c/c_preprocess.cpp</text>
</a>
</g>
</g>
<!-- Node1&#45;&gt;Node2 -->
<g id="edge1" class="edge">
<title>Node1&#45;&gt;Node2</title>
<path fill="none" stroke="midnightblue" d="M970.49,-107.75C804.36,-104.57 480.74,-93.23 209,-53 198.33,-51.42 187.16,-49.33 176.22,-47.02"/>
<polygon fill="midnightblue" stroke="midnightblue" points="970.65,-111.26 980.72,-107.94 970.78,-104.26 970.65,-111.26"/>
</g>
<!-- Node3 -->
<g id="node3" class="node">
<title>Node3</title>
<g id="a_node3"><a xlink:href="gcc__version_8cpp.html" target="_top" xlink:title=" ">
<polygon fill="none" stroke="black" points="218,-6 218,-47 418,-47 418,-6 218,-6"/>
<text text-anchor="start" x="226" y="-35" font-family="Helvetica,sans-Serif" font-size="10.00">/home/runner/work/cbmc</text>
<text text-anchor="start" x="226" y="-24" font-family="Helvetica,sans-Serif" font-size="10.00">&#45;documentation/cbmc&#45;documentation</text>
<text text-anchor="middle" x="318" y="-13" font-family="Helvetica,sans-Serif" font-size="10.00">/src/ansi&#45;c/gcc_version.cpp</text>
</a>
</g>
</g>
<!-- Node1&#45;&gt;Node3 -->
<g id="edge2" class="edge">
<title>Node1&#45;&gt;Node3</title>
<path fill="none" stroke="midnightblue" d="M970.73,-104.42C840.25,-97.88 616.76,-83.16 427,-53 416.73,-51.37 405.99,-49.3 395.43,-47.06"/>
<polygon fill="midnightblue" stroke="midnightblue" points="970.58,-107.92 980.74,-104.92 970.92,-100.93 970.58,-107.92"/>
</g>
<!-- Node4 -->
<g id="node4" class="node">
<title>Node4</title>
<g id="a_node4"><a xlink:href="compile_8cpp.html" target="_top" xlink:title=" ">
<polygon fill="none" stroke="black" points="436,-6 436,-47 636,-47 636,-6 436,-6"/>
<text text-anchor="start" x="444" y="-35" font-family="Helvetica,sans-Serif" font-size="10.00">/home/runner/work/cbmc</text>
<text text-anchor="start" x="444" y="-24" font-family="Helvetica,sans-Serif" font-size="10.00">&#45;documentation/cbmc&#45;documentation</text>
<text text-anchor="middle" x="536" y="-13" font-family="Helvetica,sans-Serif" font-size="10.00">/src/goto&#45;cc/compile.cpp</text>
</a>
</g>
</g>
<!-- Node1&#45;&gt;Node4 -->
<g id="edge3" class="edge">
<title>Node1&#45;&gt;Node4</title>
<path fill="none" stroke="midnightblue" d="M970.94,-98.01C882.5,-88.42 755.28,-72.93 645,-53 635.34,-51.25 625.25,-49.21 615.28,-47.04"/>
<polygon fill="midnightblue" stroke="midnightblue" points="970.67,-101.5 980.99,-99.09 971.42,-94.54 970.67,-101.5"/>
</g>
<!-- Node5 -->
<g id="node5" class="node">
<title>Node5</title>
<g id="a_node5"><a xlink:href="goto__cc__cmdline_8cpp.html" target="_top" xlink:title=" ">
<polygon fill="none" stroke="black" points="654,-6 654,-47 854,-47 854,-6 654,-6"/>
<text text-anchor="start" x="662" y="-35" font-family="Helvetica,sans-Serif" font-size="10.00">/home/runner/work/cbmc</text>
<text text-anchor="start" x="662" y="-24" font-family="Helvetica,sans-Serif" font-size="10.00">&#45;documentation/cbmc&#45;documentation</text>
<text text-anchor="middle" x="754" y="-13" font-family="Helvetica,sans-Serif" font-size="10.00">/src/goto&#45;cc/goto_cc_cmdline.cpp</text>
</a>
</g>
</g>
<!-- Node1&#45;&gt;Node5 -->
<g id="edge4" class="edge">
<title>Node1&#45;&gt;Node5</title>
<path fill="none" stroke="midnightblue" d="M992.83,-87.02C942.75,-74.54 880.6,-59.05 832.25,-47"/>
<polygon fill="midnightblue" stroke="midnightblue" points="992.13,-90.46 1002.68,-89.48 993.82,-83.66 992.13,-90.46"/>
</g>
<!-- Node6 -->
<g id="node6" class="node">
<title>Node6</title>
<g id="a_node6"><a xlink:href="linker__script__merge_8cpp.html" target="_top" xlink:title=" ">
<polygon fill="none" stroke="black" points="872,-6 872,-47 1072,-47 1072,-6 872,-6"/>
<text text-anchor="start" x="880" y="-35" font-family="Helvetica,sans-Serif" font-size="10.00">/home/runner/work/cbmc</text>
<text text-anchor="start" x="880" y="-24" font-family="Helvetica,sans-Serif" font-size="10.00">&#45;documentation/cbmc&#45;documentation</text>
<text text-anchor="middle" x="972" y="-13" font-family="Helvetica,sans-Serif" font-size="10.00">/src/goto&#45;cc/linker_script_merge.cpp</text>
</a>
</g>
</g>
<!-- Node1&#45;&gt;Node6 -->
<g id="edge5" class="edge">
<title>Node1&#45;&gt;Node6</title>
<path fill="none" stroke="midnightblue" d="M1046.52,-83.22C1030.91,-71.55 1012.76,-57.97 998.27,-47.14"/>
<polygon fill="midnightblue" stroke="midnightblue" points="1044.79,-86.29 1054.89,-89.48 1048.98,-80.69 1044.79,-86.29"/>
</g>
<!-- Node7 -->
<g id="node7" class="node">
<title>Node7</title>
<g id="a_node7"><a xlink:href="ms__cl__version_8cpp.html" target="_top" xlink:title=" ">
<polygon fill="none" stroke="black" points="1090,-6 1090,-47 1290,-47 1290,-6 1090,-6"/>
<text text-anchor="start" x="1098" y="-35" font-family="Helvetica,sans-Serif" font-size="10.00">/home/runner/work/cbmc</text>
<text text-anchor="start" x="1098" y="-24" font-family="Helvetica,sans-Serif" font-size="10.00">&#45;documentation/cbmc&#45;documentation</text>
<text text-anchor="middle" x="1190" y="-13" font-family="Helvetica,sans-Serif" font-size="10.00">/src/goto&#45;cc/ms_cl_version.cpp</text>
</a>
</g>
</g>
<!-- Node1&#45;&gt;Node7 -->
<g id="edge6" class="edge">
<title>Node1&#45;&gt;Node7</title>
<path fill="none" stroke="midnightblue" d="M1115.48,-83.22C1131.09,-71.55 1149.24,-57.97 1163.73,-47.14"/>
<polygon fill="midnightblue" stroke="midnightblue" points="1113.02,-80.69 1107.11,-89.48 1117.21,-86.29 1113.02,-80.69"/>
</g>
<!-- Node8 -->
<g id="node8" class="node">
<title>Node8</title>
<g id="a_node8"><a xlink:href="read__goto__binary_8cpp.html" target="_top" xlink:title=" ">
<polygon fill="none" stroke="black" points="1308,-0.5 1308,-52.5 1508,-52.5 1508,-0.5 1308,-0.5"/>
<text text-anchor="start" x="1316" y="-40.5" font-family="Helvetica,sans-Serif" font-size="10.00">/home/runner/work/cbmc</text>
<text text-anchor="start" x="1316" y="-29.5" font-family="Helvetica,sans-Serif" font-size="10.00">&#45;documentation/cbmc&#45;documentation</text>
<text text-anchor="start" x="1316" y="-18.5" font-family="Helvetica,sans-Serif" font-size="10.00">/src/goto&#45;programs/read_goto</text>
<text text-anchor="middle" x="1408" y="-7.5" font-family="Helvetica,sans-Serif" font-size="10.00">_binary.cpp</text>
</a>
</g>
</g>
<!-- Node1&#45;&gt;Node8 -->
<g id="edge7" class="edge">
<title>Node1&#45;&gt;Node8</title>
<path fill="none" stroke="midnightblue" d="M1169.17,-87.03C1212.01,-76.35 1263.69,-63.47 1307.99,-52.43"/>
<polygon fill="midnightblue" stroke="midnightblue" points="1168.18,-83.66 1159.32,-89.48 1169.87,-90.46 1168.18,-83.66"/>
</g>
<!-- Node9 -->
<g id="node9" class="node">
<title>Node9</title>
<g id="a_node9"><a xlink:href="external__sat_8cpp.html" target="_top" xlink:title=" ">
<polygon fill="none" stroke="black" points="1526,-6 1526,-47 1726,-47 1726,-6 1526,-6"/>
<text text-anchor="start" x="1534" y="-35" font-family="Helvetica,sans-Serif" font-size="10.00">/home/runner/work/cbmc</text>
<text text-anchor="start" x="1534" y="-24" font-family="Helvetica,sans-Serif" font-size="10.00">&#45;documentation/cbmc&#45;documentation</text>
<text text-anchor="middle" x="1626" y="-13" font-family="Helvetica,sans-Serif" font-size="10.00">/src/solvers/sat/external_sat.cpp</text>
</a>
</g>
</g>
<!-- Node1&#45;&gt;Node9 -->
<g id="edge8" class="edge">
<title>Node1&#45;&gt;Node9</title>
<path fill="none" stroke="midnightblue" d="M1191.06,-98.01C1279.5,-88.42 1406.72,-72.93 1517,-53 1526.66,-51.25 1536.75,-49.21 1546.72,-47.04"/>
<polygon fill="midnightblue" stroke="midnightblue" points="1190.58,-94.54 1181.01,-99.09 1191.33,-101.5 1190.58,-94.54"/>
</g>
<!-- Node10 -->
<g id="node10" class="node">
<title>Node10</title>
<g id="a_node10"><a xlink:href="smt2__dec_8cpp.html" target="_top" xlink:title=" ">
<polygon fill="none" stroke="black" points="1744,-6 1744,-47 1944,-47 1944,-6 1744,-6"/>
<text text-anchor="start" x="1752" y="-35" font-family="Helvetica,sans-Serif" font-size="10.00">/home/runner/work/cbmc</text>
<text text-anchor="start" x="1752" y="-24" font-family="Helvetica,sans-Serif" font-size="10.00">&#45;documentation/cbmc&#45;documentation</text>
<text text-anchor="middle" x="1844" y="-13" font-family="Helvetica,sans-Serif" font-size="10.00">/src/solvers/smt2/smt2_dec.cpp</text>
</a>
</g>
</g>
<!-- Node1&#45;&gt;Node10 -->
<g id="edge9" class="edge">
<title>Node1&#45;&gt;Node10</title>
<path fill="none" stroke="midnightblue" d="M1191.27,-104.42C1321.75,-97.88 1545.24,-83.16 1735,-53 1745.27,-51.37 1756.01,-49.3 1766.57,-47.06"/>
<polygon fill="midnightblue" stroke="midnightblue" points="1191.08,-100.93 1181.26,-104.92 1191.42,-107.92 1191.08,-100.93"/>
</g>
<!-- Node11 -->
<g id="node11" class="node">
<title>Node11</title>
<g id="a_node11"><a xlink:href="tempfile_8cpp.html" target="_top" xlink:title=" ">
<polygon fill="none" stroke="black" points="1962,-6 1962,-47 2162,-47 2162,-6 1962,-6"/>
<text text-anchor="start" x="1970" y="-35" font-family="Helvetica,sans-Serif" font-size="10.00">/home/runner/work/cbmc</text>
<text text-anchor="start" x="1970" y="-24" font-family="Helvetica,sans-Serif" font-size="10.00">&#45;documentation/cbmc&#45;documentation</text>
<text text-anchor="middle" x="2062" y="-13" font-family="Helvetica,sans-Serif" font-size="10.00">/src/util/tempfile.cpp</text>
</a>
</g>
</g>
<!-- Node1&#45;&gt;Node11 -->
<g id="edge10" class="edge">
<title>Node1&#45;&gt;Node11</title>
<path fill="none" stroke="midnightblue" d="M1191.51,-107.75C1357.64,-104.57 1681.26,-93.23 1953,-53 1963.67,-51.42 1974.84,-49.33 1985.78,-47.02"/>
<polygon fill="midnightblue" stroke="midnightblue" points="1191.22,-104.26 1181.28,-107.94 1191.35,-111.26 1191.22,-104.26"/>
</g>
</g>
</svg>
