<?xml version="1.0" encoding="UTF-8" standalone="no"?>
<!DOCTYPE svg PUBLIC "-//W3C//DTD SVG 1.1//EN"
 "http://www.w3.org/Graphics/SVG/1.1/DTD/svg11.dtd">
<!-- Generated by graphviz version 2.43.0 (0)
 -->
<!-- Title: /home/runner/work/cbmc&#45;documentation/cbmc&#45;documentation/src/solvers/smt2_incremental/type_traits.h Pages: 1 -->
<svg width="2355pt" height="595pt"
 viewBox="0.00 0.00 2355.00 595.00" xmlns="http://www.w3.org/2000/svg" xmlns:xlink="http://www.w3.org/1999/xlink">
<g id="graph0" class="graph" transform="scale(1 1) rotate(0) translate(4 591)">
<title>/home/runner/work/cbmc&#45;documentation/cbmc&#45;documentation/src/solvers/smt2_incremental/type_traits.h</title>
<!-- Node1 -->
<g id="node1" class="node">
<title>Node1</title>
<g id="a_node1"><a xlink:title=" ">
<polygon fill="#bfbfbf" stroke="black" points="1379,-534.5 1379,-586.5 1579,-586.5 1579,-534.5 1379,-534.5"/>
<text text-anchor="start" x="1387" y="-574.5" font-family="Helvetica,sans-Serif" font-size="10.00">/home/runner/work/cbmc</text>
<text text-anchor="start" x="1387" y="-563.5" font-family="Helvetica,sans-Serif" font-size="10.00">&#45;documentation/cbmc&#45;documentation</text>
<text text-anchor="start" x="1387" y="-552.5" font-family="Helvetica,sans-Serif" font-size="10.00">/src/solvers/smt2_incremental</text>
<text text-anchor="middle" x="1479" y="-541.5" font-family="Helvetica,sans-Serif" font-size="10.00">/type_traits.h</text>
</a>
</g>
</g>
<!-- Node2 -->
<g id="node2" class="node">
<title>Node2</title>
<g id="a_node2"><a xlink:href="smt__terms_8h.html" target="_top" xlink:title=" ">
<polygon fill="none" stroke="black" points="1379,-445.5 1379,-497.5 1579,-497.5 1579,-445.5 1379,-445.5"/>
<text text-anchor="start" x="1387" y="-485.5" font-family="Helvetica,sans-Serif" font-size="10.00">/home/runner/work/cbmc</text>
<text text-anchor="start" x="1387" y="-474.5" font-family="Helvetica,sans-Serif" font-size="10.00">&#45;documentation/cbmc&#45;documentation</text>
<text text-anchor="start" x="1387" y="-463.5" font-family="Helvetica,sans-Serif" font-size="10.00">/src/solvers/smt2_incremental</text>
<text text-anchor="middle" x="1479" y="-452.5" font-family="Helvetica,sans-Serif" font-size="10.00">/smt_terms.h</text>
</a>
</g>
</g>
<!-- Node1&#45;&gt;Node2 -->
<g id="edge1" class="edge">
<title>Node1&#45;&gt;Node2</title>
<path fill="none" stroke="midnightblue" d="M1479,-524.19C1479,-515.28 1479,-505.9 1479,-497.61"/>
<polygon fill="midnightblue" stroke="midnightblue" points="1475.5,-524.34 1479,-534.34 1482.5,-524.34 1475.5,-524.34"/>
</g>
<!-- Node3 -->
<g id="node3" class="node">
<title>Node3</title>
<g id="a_node3"><a xlink:href="smt__commands_8h.html" target="_top" xlink:title=" ">
<polygon fill="none" stroke="black" points="1161,-356.5 1161,-408.5 1361,-408.5 1361,-356.5 1161,-356.5"/>
<text text-anchor="start" x="1169" y="-396.5" font-family="Helvetica,sans-Serif" font-size="10.00">/home/runner/work/cbmc</text>
<text text-anchor="start" x="1169" y="-385.5" font-family="Helvetica,sans-Serif" font-size="10.00">&#45;documentation/cbmc&#45;documentation</text>
<text text-anchor="start" x="1169" y="-374.5" font-family="Helvetica,sans-Serif" font-size="10.00">/src/solvers/smt2_incremental</text>
<text text-anchor="middle" x="1261" y="-363.5" font-family="Helvetica,sans-Serif" font-size="10.00">/smt_commands.h</text>
</a>
</g>
</g>
<!-- Node2&#45;&gt;Node3 -->
<g id="edge2" class="edge">
<title>Node2&#45;&gt;Node3</title>
<path fill="none" stroke="midnightblue" d="M1406.88,-441.72C1379.98,-430.98 1349.68,-418.89 1323.7,-408.52"/>
<polygon fill="midnightblue" stroke="midnightblue" points="1405.65,-445 1416.24,-445.45 1408.25,-438.5 1405.65,-445"/>
</g>
<!-- Node4 -->
<g id="node4" class="node">
<title>Node4</title>
<g id="a_node4"><a xlink:href="smt__object__size_8h.html" target="_top" xlink:title=" ">
<polygon fill="none" stroke="black" points="1161,-267.5 1161,-319.5 1361,-319.5 1361,-267.5 1161,-267.5"/>
<text text-anchor="start" x="1169" y="-307.5" font-family="Helvetica,sans-Serif" font-size="10.00">/home/runner/work/cbmc</text>
<text text-anchor="start" x="1169" y="-296.5" font-family="Helvetica,sans-Serif" font-size="10.00">&#45;documentation/cbmc&#45;documentation</text>
<text text-anchor="start" x="1169" y="-285.5" font-family="Helvetica,sans-Serif" font-size="10.00">/src/solvers/smt2_incremental</text>
<text text-anchor="middle" x="1261" y="-274.5" font-family="Helvetica,sans-Serif" font-size="10.00">/smt_object_size.h</text>
</a>
</g>
</g>
<!-- Node2&#45;&gt;Node4 -->
<g id="edge21" class="edge">
<title>Node2&#45;&gt;Node4</title>
<path fill="none" stroke="midnightblue" d="M1452.07,-437.29C1431.28,-412.95 1400.93,-380.1 1370,-356 1352.43,-342.31 1331.46,-329.73 1312.62,-319.55"/>
<polygon fill="midnightblue" stroke="midnightblue" points="1449.61,-439.81 1458.74,-445.19 1454.96,-435.29 1449.61,-439.81"/>
</g>
<!-- Node5 -->
<g id="node5" class="node">
<title>Node5</title>
<g id="a_node5"><a xlink:href="smt2__incremental__decision__procedure_8h.html" target="_top" xlink:title=" ">
<polygon fill="none" stroke="black" points="730.5,-89.5 730.5,-141.5 947.5,-141.5 947.5,-89.5 730.5,-89.5"/>
<text text-anchor="start" x="738.5" y="-129.5" font-family="Helvetica,sans-Serif" font-size="10.00">/home/runner/work/cbmc</text>
<text text-anchor="start" x="738.5" y="-118.5" font-family="Helvetica,sans-Serif" font-size="10.00">&#45;documentation/cbmc&#45;documentation</text>
<text text-anchor="start" x="738.5" y="-107.5" font-family="Helvetica,sans-Serif" font-size="10.00">/src/solvers/smt2_incremental</text>
<text text-anchor="middle" x="839" y="-96.5" font-family="Helvetica,sans-Serif" font-size="10.00">/smt2_incremental_decision_procedure.h</text>
</a>
</g>
</g>
<!-- Node2&#45;&gt;Node5 -->
<g id="edge22" class="edge">
<title>Node2&#45;&gt;Node5</title>
<path fill="none" stroke="midnightblue" d="M1368.53,-468.36C1240.3,-463.95 1038.4,-450.42 976,-409 881.63,-346.35 850.89,-200.45 842.12,-141.69"/>
<polygon fill="midnightblue" stroke="midnightblue" points="1368.67,-471.87 1378.78,-468.7 1368.91,-464.88 1368.67,-471.87"/>
</g>
<!-- Node7 -->
<g id="node7" class="node">
<title>Node7</title>
<g id="a_node7"><a xlink:href="smt2__incremental__decision__procedure_8cpp.html" target="_top" xlink:title=" ">
<polygon fill="none" stroke="black" points="852,-0.5 852,-52.5 1080,-52.5 1080,-0.5 852,-0.5"/>
<text text-anchor="start" x="860" y="-40.5" font-family="Helvetica,sans-Serif" font-size="10.00">/home/runner/work/cbmc</text>
<text text-anchor="start" x="860" y="-29.5" font-family="Helvetica,sans-Serif" font-size="10.00">&#45;documentation/cbmc&#45;documentation</text>
<text text-anchor="start" x="860" y="-18.5" font-family="Helvetica,sans-Serif" font-size="10.00">/src/solvers/smt2_incremental</text>
<text text-anchor="middle" x="966" y="-7.5" font-family="Helvetica,sans-Serif" font-size="10.00">/smt2_incremental_decision_procedure.cpp</text>
</a>
</g>
</g>
<!-- Node2&#45;&gt;Node7 -->
<g id="edge49" class="edge">
<title>Node2&#45;&gt;Node7</title>
<path fill="none" stroke="midnightblue" d="M1368.58,-468.28C1154.1,-460.97 702,-429.55 702,-294.5 702,-294.5 702,-294.5 702,-203.5 702,-151.92 686.04,-126.93 721,-89 725.96,-83.62 792.37,-67.13 854.8,-52.57"/>
<polygon fill="midnightblue" stroke="midnightblue" points="1368.5,-471.78 1378.61,-468.62 1368.74,-464.79 1368.5,-471.78"/>
</g>
<!-- Node8 -->
<g id="node8" class="node">
<title>Node8</title>
<g id="a_node8"><a xlink:href="type__size__mapping_8h.html" target="_top" xlink:title=" ">
<polygon fill="none" stroke="black" points="991,-178.5 991,-230.5 1191,-230.5 1191,-178.5 991,-178.5"/>
<text text-anchor="start" x="999" y="-218.5" font-family="Helvetica,sans-Serif" font-size="10.00">/home/runner/work/cbmc</text>
<text text-anchor="start" x="999" y="-207.5" font-family="Helvetica,sans-Serif" font-size="10.00">&#45;documentation/cbmc&#45;documentation</text>
<text text-anchor="start" x="999" y="-196.5" font-family="Helvetica,sans-Serif" font-size="10.00">/src/solvers/smt2_incremental</text>
<text text-anchor="middle" x="1091" y="-185.5" font-family="Helvetica,sans-Serif" font-size="10.00">/type_size_mapping.h</text>
</a>
</g>
</g>
<!-- Node2&#45;&gt;Node8 -->
<g id="edge23" class="edge">
<title>Node2&#45;&gt;Node8</title>
<path fill="none" stroke="midnightblue" d="M1368.58,-456.87C1223.77,-436.33 982.38,-392.01 934,-320 920.86,-300.45 920.72,-286.46 934,-267 947.53,-247.17 968.5,-233.74 990.75,-224.63"/>
<polygon fill="midnightblue" stroke="midnightblue" points="1368.44,-460.38 1378.83,-458.3 1369.42,-453.45 1368.44,-460.38"/>
</g>
<!-- Node9 -->
<g id="node9" class="node">
<title>Node9</title>
<g id="a_node9"><a xlink:href="convert__expr__to__smt_8h.html" target="_top" xlink:title=" ">
<polygon fill="none" stroke="black" points="1161,-89.5 1161,-141.5 1361,-141.5 1361,-89.5 1161,-89.5"/>
<text text-anchor="start" x="1169" y="-129.5" font-family="Helvetica,sans-Serif" font-size="10.00">/home/runner/work/cbmc</text>
<text text-anchor="start" x="1169" y="-118.5" font-family="Helvetica,sans-Serif" font-size="10.00">&#45;documentation/cbmc&#45;documentation</text>
<text text-anchor="start" x="1169" y="-107.5" font-family="Helvetica,sans-Serif" font-size="10.00">/src/solvers/smt2_incremental</text>
<text text-anchor="middle" x="1261" y="-96.5" font-family="Helvetica,sans-Serif" font-size="10.00">/convert_expr_to_smt.h</text>
</a>
</g>
</g>
<!-- Node2&#45;&gt;Node9 -->
<g id="edge35" class="edge">
<title>Node2&#45;&gt;Node9</title>
<path fill="none" stroke="midnightblue" d="M1517.74,-438.6C1562.48,-397.79 1625.4,-325.38 1588,-267 1538.36,-189.51 1437.64,-151.37 1361.02,-132.95"/>
<polygon fill="midnightblue" stroke="midnightblue" points="1515.31,-436.09 1510.19,-445.36 1519.97,-441.3 1515.31,-436.09"/>
</g>
<!-- Node14 -->
<g id="node14" class="node">
<title>Node14</title>
<g id="a_node14"><a xlink:href="smt__to__smt2__string_8cpp.html" target="_top" xlink:title=" ">
<polygon fill="none" stroke="black" points="1379,-267.5 1379,-319.5 1579,-319.5 1579,-267.5 1379,-267.5"/>
<text text-anchor="start" x="1387" y="-307.5" font-family="Helvetica,sans-Serif" font-size="10.00">/home/runner/work/cbmc</text>
<text text-anchor="start" x="1387" y="-296.5" font-family="Helvetica,sans-Serif" font-size="10.00">&#45;documentation/cbmc&#45;documentation</text>
<text text-anchor="start" x="1387" y="-285.5" font-family="Helvetica,sans-Serif" font-size="10.00">/src/solvers/smt2_incremental</text>
<text text-anchor="middle" x="1479" y="-274.5" font-family="Helvetica,sans-Serif" font-size="10.00">/smt_to_smt2_string.cpp</text>
</a>
</g>
</g>
<!-- Node2&#45;&gt;Node14 -->
<g id="edge51" class="edge">
<title>Node2&#45;&gt;Node14</title>
<path fill="none" stroke="midnightblue" d="M1479,-435.25C1479,-401.04 1479,-349.97 1479,-319.67"/>
<polygon fill="midnightblue" stroke="midnightblue" points="1475.5,-435.28 1479,-445.28 1482.5,-435.28 1475.5,-435.28"/>
</g>
<!-- Node15 -->
<g id="node15" class="node">
<title>Node15</title>
<g id="a_node15"><a xlink:href="smt__responses_8h.html" target="_top" xlink:title=" ">
<polygon fill="none" stroke="black" points="436,-178.5 436,-230.5 636,-230.5 636,-178.5 436,-178.5"/>
<text text-anchor="start" x="444" y="-218.5" font-family="Helvetica,sans-Serif" font-size="10.00">/home/runner/work/cbmc</text>
<text text-anchor="start" x="444" y="-207.5" font-family="Helvetica,sans-Serif" font-size="10.00">&#45;documentation/cbmc&#45;documentation</text>
<text text-anchor="start" x="444" y="-196.5" font-family="Helvetica,sans-Serif" font-size="10.00">/src/solvers/smt2_incremental</text>
<text text-anchor="middle" x="536" y="-185.5" font-family="Helvetica,sans-Serif" font-size="10.00">/smt_responses.h</text>
</a>
</g>
</g>
<!-- Node2&#45;&gt;Node15 -->
<g id="edge24" class="edge">
<title>Node2&#45;&gt;Node15</title>
<path fill="none" stroke="midnightblue" d="M1368.64,-466.96C1165.13,-459.69 746.14,-441.02 688,-409 614.42,-368.47 566.18,-275.57 546.31,-230.69"/>
<polygon fill="midnightblue" stroke="midnightblue" points="1368.64,-470.46 1378.76,-467.31 1368.89,-463.46 1368.64,-470.46"/>
</g>
<!-- Node21 -->
<g id="node21" class="node">
<title>Node21</title>
<g id="a_node21"><a xlink:href="construct__value__expr__from__smt_8cpp.html" target="_top" xlink:title=" ">
<polygon fill="none" stroke="black" points="1929,-356.5 1929,-408.5 2129,-408.5 2129,-356.5 1929,-356.5"/>
<text text-anchor="start" x="1937" y="-396.5" font-family="Helvetica,sans-Serif" font-size="10.00">/home/runner/work/cbmc</text>
<text text-anchor="start" x="1937" y="-385.5" font-family="Helvetica,sans-Serif" font-size="10.00">&#45;documentation/cbmc&#45;documentation</text>
<text text-anchor="start" x="1937" y="-374.5" font-family="Helvetica,sans-Serif" font-size="10.00">/src/solvers/smt2_incremental</text>
<text text-anchor="middle" x="2029" y="-363.5" font-family="Helvetica,sans-Serif" font-size="10.00">/construct_value_expr_from_smt.cpp</text>
</a>
</g>
</g>
<!-- Node2&#45;&gt;Node21 -->
<g id="edge34" class="edge">
<title>Node2&#45;&gt;Node21</title>
<path fill="none" stroke="midnightblue" d="M1589.42,-457.94C1678.89,-447.08 1808.04,-429.86 1920,-409 1922.96,-408.45 1925.96,-407.87 1928.99,-407.27"/>
<polygon fill="midnightblue" stroke="midnightblue" points="1588.76,-454.49 1579.25,-459.16 1589.6,-461.44 1588.76,-454.49"/>
</g>
<!-- Node22 -->
<g id="node22" class="node">
<title>Node22</title>
<g id="a_node22"><a xlink:href="smt__array__theory_8h.html" target="_top" xlink:title=" ">
<polygon fill="none" stroke="black" points="1464,-89.5 1464,-141.5 1664,-141.5 1664,-89.5 1464,-89.5"/>
<text text-anchor="start" x="1472" y="-129.5" font-family="Helvetica,sans-Serif" font-size="10.00">/home/runner/work/cbmc</text>
<text text-anchor="start" x="1472" y="-118.5" font-family="Helvetica,sans-Serif" font-size="10.00">&#45;documentation/cbmc&#45;documentation</text>
<text text-anchor="start" x="1472" y="-107.5" font-family="Helvetica,sans-Serif" font-size="10.00">/src/solvers/smt2_incremental</text>
<text text-anchor="middle" x="1564" y="-96.5" font-family="Helvetica,sans-Serif" font-size="10.00">/smt_array_theory.h</text>
</a>
</g>
</g>
<!-- Node2&#45;&gt;Node22 -->
<g id="edge36" class="edge">
<title>Node2&#45;&gt;Node22</title>
<path fill="none" stroke="midnightblue" d="M1587.2,-440.34C1600.55,-432.25 1612.47,-421.99 1621,-409 1677.35,-323.18 1658.48,-273.58 1621,-178 1615.63,-164.31 1605.63,-151.85 1595.48,-141.78"/>
<polygon fill="midnightblue" stroke="midnightblue" points="1585.26,-437.42 1578.25,-445.36 1588.68,-443.53 1585.26,-437.42"/>
</g>
<!-- Node24 -->
<g id="node24" class="node">
<title>Node24</title>
<g id="a_node24"><a xlink:href="smt__bit__vector__theory_8h.html" target="_top" xlink:title=" ">
<polygon fill="none" stroke="black" points="1711,-356.5 1711,-408.5 1911,-408.5 1911,-356.5 1711,-356.5"/>
<text text-anchor="start" x="1719" y="-396.5" font-family="Helvetica,sans-Serif" font-size="10.00">/home/runner/work/cbmc</text>
<text text-anchor="start" x="1719" y="-385.5" font-family="Helvetica,sans-Serif" font-size="10.00">&#45;documentation/cbmc&#45;documentation</text>
<text text-anchor="start" x="1719" y="-374.5" font-family="Helvetica,sans-Serif" font-size="10.00">/src/solvers/smt2_incremental</text>
<text text-anchor="middle" x="1811" y="-363.5" font-family="Helvetica,sans-Serif" font-size="10.00">/smt_bit_vector_theory.h</text>
</a>
</g>
</g>
<!-- Node2&#45;&gt;Node24 -->
<g id="edge41" class="edge">
<title>Node2&#45;&gt;Node24</title>
<path fill="none" stroke="midnightblue" d="M1584.3,-442.91C1626.37,-431.88 1674.48,-419.28 1715.52,-408.52"/>
<polygon fill="midnightblue" stroke="midnightblue" points="1583.37,-439.53 1574.58,-445.45 1585.14,-446.3 1583.37,-439.53"/>
</g>
<!-- Node26 -->
<g id="node26" class="node">
<title>Node26</title>
<g id="a_node26"><a xlink:href="smt__core__theory_8h.html" target="_top" xlink:title=" ">
<polygon fill="none" stroke="black" points="1682,-89.5 1682,-141.5 1882,-141.5 1882,-89.5 1682,-89.5"/>
<text text-anchor="start" x="1690" y="-129.5" font-family="Helvetica,sans-Serif" font-size="10.00">/home/runner/work/cbmc</text>
<text text-anchor="start" x="1690" y="-118.5" font-family="Helvetica,sans-Serif" font-size="10.00">&#45;documentation/cbmc&#45;documentation</text>
<text text-anchor="start" x="1690" y="-107.5" font-family="Helvetica,sans-Serif" font-size="10.00">/src/solvers/smt2_incremental</text>
<text text-anchor="middle" x="1782" y="-96.5" font-family="Helvetica,sans-Serif" font-size="10.00">/smt_core_theory.h</text>
</a>
</g>
</g>
<!-- Node2&#45;&gt;Node26 -->
<g id="edge44" class="edge">
<title>Node2&#45;&gt;Node26</title>
<path fill="none" stroke="midnightblue" d="M1588.52,-446.17C1610.27,-437.32 1631.46,-425.3 1648,-409 1696.09,-361.6 1674.1,-328.49 1702,-267 1722.54,-221.73 1750.58,-171.06 1767.42,-141.58"/>
<polygon fill="midnightblue" stroke="midnightblue" points="1587.25,-442.91 1579.18,-449.78 1589.77,-449.44 1587.25,-442.91"/>
</g>
<!-- Node28 -->
<g id="node28" class="node">
<title>Node28</title>
<g id="a_node28"><a xlink:href="smt__terms_8cpp.html" target="_top" xlink:title=" ">
<polygon fill="none" stroke="black" points="2147,-356.5 2147,-408.5 2347,-408.5 2347,-356.5 2147,-356.5"/>
<text text-anchor="start" x="2155" y="-396.5" font-family="Helvetica,sans-Serif" font-size="10.00">/home/runner/work/cbmc</text>
<text text-anchor="start" x="2155" y="-385.5" font-family="Helvetica,sans-Serif" font-size="10.00">&#45;documentation/cbmc&#45;documentation</text>
<text text-anchor="start" x="2155" y="-374.5" font-family="Helvetica,sans-Serif" font-size="10.00">/src/solvers/smt2_incremental</text>
<text text-anchor="middle" x="2247" y="-363.5" font-family="Helvetica,sans-Serif" font-size="10.00">/smt_terms.cpp</text>
</a>
</g>
</g>
<!-- Node2&#45;&gt;Node28 -->
<g id="edge50" class="edge">
<title>Node2&#45;&gt;Node28</title>
<path fill="none" stroke="midnightblue" d="M1589.25,-464.83C1720.6,-457.01 1946.36,-440.21 2138,-409 2140.88,-408.53 2143.79,-408.03 2146.73,-407.5"/>
<polygon fill="midnightblue" stroke="midnightblue" points="1588.96,-461.34 1579.18,-465.42 1589.37,-468.33 1588.96,-461.34"/>
</g>
<!-- Node3&#45;&gt;Node4 -->
<g id="edge3" class="edge">
<title>Node3&#45;&gt;Node4</title>
<path fill="none" stroke="midnightblue" d="M1261,-346.19C1261,-337.28 1261,-327.9 1261,-319.61"/>
<polygon fill="midnightblue" stroke="midnightblue" points="1257.5,-346.34 1261,-356.34 1264.5,-346.34 1257.5,-346.34"/>
</g>
<!-- Node3&#45;&gt;Node7 -->
<g id="edge18" class="edge">
<title>Node3&#45;&gt;Node7</title>
<path fill="none" stroke="midnightblue" d="M1150.87,-375.53C1066.98,-368.41 961.38,-353.01 934,-320 916.53,-298.94 947.59,-206.02 956,-142 960.03,-111.33 962.85,-75.83 964.44,-52.58"/>
<polygon fill="midnightblue" stroke="midnightblue" points="1150.73,-379.03 1160.98,-376.36 1151.3,-372.06 1150.73,-379.03"/>
</g>
<!-- Node13 -->
<g id="node13" class="node">
<title>Node13</title>
<g id="a_node13"><a xlink:href="smt__commands_8cpp.html" target="_top" xlink:title=" ">
<polygon fill="none" stroke="black" points="943,-267.5 943,-319.5 1143,-319.5 1143,-267.5 943,-267.5"/>
<text text-anchor="start" x="951" y="-307.5" font-family="Helvetica,sans-Serif" font-size="10.00">/home/runner/work/cbmc</text>
<text text-anchor="start" x="951" y="-296.5" font-family="Helvetica,sans-Serif" font-size="10.00">&#45;documentation/cbmc&#45;documentation</text>
<text text-anchor="start" x="951" y="-285.5" font-family="Helvetica,sans-Serif" font-size="10.00">/src/solvers/smt2_incremental</text>
<text text-anchor="middle" x="1043" y="-274.5" font-family="Helvetica,sans-Serif" font-size="10.00">/smt_commands.cpp</text>
</a>
</g>
</g>
<!-- Node3&#45;&gt;Node13 -->
<g id="edge19" class="edge">
<title>Node3&#45;&gt;Node13</title>
<path fill="none" stroke="midnightblue" d="M1188.88,-352.72C1161.98,-341.98 1131.68,-329.89 1105.7,-319.52"/>
<polygon fill="midnightblue" stroke="midnightblue" points="1187.65,-356 1198.24,-356.45 1190.25,-349.5 1187.65,-356"/>
</g>
<!-- Node3&#45;&gt;Node14 -->
<g id="edge20" class="edge">
<title>Node3&#45;&gt;Node14</title>
<path fill="none" stroke="midnightblue" d="M1333.12,-352.72C1360.02,-341.98 1390.32,-329.89 1416.3,-319.52"/>
<polygon fill="midnightblue" stroke="midnightblue" points="1331.75,-349.5 1323.76,-356.45 1334.35,-356 1331.75,-349.5"/>
</g>
<!-- Node4&#45;&gt;Node5 -->
<g id="edge4" class="edge">
<title>Node4&#45;&gt;Node5</title>
<path fill="none" stroke="midnightblue" d="M1150.85,-266.85C1074.51,-251.26 1048.95,-262.68 982,-231 934.85,-208.69 889.43,-167.98 862.86,-141.59"/>
<polygon fill="midnightblue" stroke="midnightblue" points="1150.42,-270.34 1160.94,-269 1151.89,-263.49 1150.42,-270.34"/>
</g>
<!-- Node4&#45;&gt;Node8 -->
<g id="edge7" class="edge">
<title>Node4&#45;&gt;Node8</title>
<path fill="none" stroke="midnightblue" d="M1202.92,-262.78C1182.47,-252.31 1159.7,-240.66 1140.06,-230.61"/>
<polygon fill="midnightblue" stroke="midnightblue" points="1201.33,-265.9 1211.83,-267.34 1204.52,-259.66 1201.33,-265.9"/>
</g>
<!-- Node4&#45;&gt;Node9 -->
<g id="edge16" class="edge">
<title>Node4&#45;&gt;Node9</title>
<path fill="none" stroke="midnightblue" d="M1261,-257.25C1261,-223.04 1261,-171.97 1261,-141.67"/>
<polygon fill="midnightblue" stroke="midnightblue" points="1257.5,-257.28 1261,-267.28 1264.5,-257.28 1257.5,-257.28"/>
</g>
<!-- Node11 -->
<g id="node11" class="node">
<title>Node11</title>
<g id="a_node11"><a xlink:href="smt__object__size_8cpp.html" target="_top" xlink:title=" ">
<polygon fill="none" stroke="black" points="1316,-0.5 1316,-52.5 1516,-52.5 1516,-0.5 1316,-0.5"/>
<text text-anchor="start" x="1324" y="-40.5" font-family="Helvetica,sans-Serif" font-size="10.00">/home/runner/work/cbmc</text>
<text text-anchor="start" x="1324" y="-29.5" font-family="Helvetica,sans-Serif" font-size="10.00">&#45;documentation/cbmc&#45;documentation</text>
<text text-anchor="start" x="1324" y="-18.5" font-family="Helvetica,sans-Serif" font-size="10.00">/src/solvers/smt2_incremental</text>
<text text-anchor="middle" x="1416" y="-7.5" font-family="Helvetica,sans-Serif" font-size="10.00">/smt_object_size.cpp</text>
</a>
</g>
</g>
<!-- Node4&#45;&gt;Node11 -->
<g id="edge17" class="edge">
<title>Node4&#45;&gt;Node11</title>
<path fill="none" stroke="midnightblue" d="M1288.53,-259.53C1312.23,-230.05 1346.27,-184.98 1370,-142 1386.15,-112.74 1399.7,-76.62 1407.82,-52.87"/>
<polygon fill="midnightblue" stroke="midnightblue" points="1285.71,-257.45 1282.13,-267.42 1291.15,-261.86 1285.71,-257.45"/>
</g>
<!-- Node6 -->
<g id="node6" class="node">
<title>Node6</title>
<g id="a_node6"><a xlink:href="solver__factory_8cpp.html" target="_top" xlink:title=" ">
<polygon fill="none" stroke="black" points="416,-6 416,-47 616,-47 616,-6 416,-6"/>
<text text-anchor="start" x="424" y="-35" font-family="Helvetica,sans-Serif" font-size="10.00">/home/runner/work/cbmc</text>
<text text-anchor="start" x="424" y="-24" font-family="Helvetica,sans-Serif" font-size="10.00">&#45;documentation/cbmc&#45;documentation</text>
<text text-anchor="middle" x="516" y="-13" font-family="Helvetica,sans-Serif" font-size="10.00">/src/goto&#45;checker/solver_factory.cpp</text>
</a>
</g>
</g>
<!-- Node5&#45;&gt;Node6 -->
<g id="edge5" class="edge">
<title>Node5&#45;&gt;Node6</title>
<path fill="none" stroke="midnightblue" d="M736.21,-86.81C688.19,-73.88 632.16,-58.79 588.63,-47.06"/>
<polygon fill="midnightblue" stroke="midnightblue" points="735.44,-90.23 746.01,-89.45 737.26,-83.47 735.44,-90.23"/>
</g>
<!-- Node5&#45;&gt;Node7 -->
<g id="edge6" class="edge">
<title>Node5&#45;&gt;Node7</title>
<path fill="none" stroke="midnightblue" d="M884.25,-83.5C899.04,-73.37 915.27,-62.25 929.35,-52.61"/>
<polygon fill="midnightblue" stroke="midnightblue" points="882.01,-80.8 875.73,-89.34 885.96,-86.57 882.01,-80.8"/>
</g>
<!-- Node8&#45;&gt;Node5 -->
<g id="edge8" class="edge">
<title>Node8&#45;&gt;Node5</title>
<path fill="none" stroke="midnightblue" d="M1008.85,-175.14C977.45,-164.3 941.91,-152.03 911.47,-141.52"/>
<polygon fill="midnightblue" stroke="midnightblue" points="1007.85,-178.5 1018.45,-178.45 1010.14,-171.88 1007.85,-178.5"/>
</g>
<!-- Node8&#45;&gt;Node7 -->
<g id="edge14" class="edge">
<title>Node8&#45;&gt;Node7</title>
<path fill="none" stroke="midnightblue" d="M1067.21,-170C1042.92,-135.8 1005.77,-83.49 983.88,-52.67"/>
<polygon fill="midnightblue" stroke="midnightblue" points="1064.45,-172.16 1073.09,-178.28 1070.15,-168.1 1064.45,-172.16"/>
</g>
<!-- Node8&#45;&gt;Node9 -->
<g id="edge9" class="edge">
<title>Node8&#45;&gt;Node9</title>
<path fill="none" stroke="midnightblue" d="M1149.08,-173.78C1169.53,-163.31 1192.3,-151.66 1211.94,-141.61"/>
<polygon fill="midnightblue" stroke="midnightblue" points="1147.48,-170.66 1140.17,-178.34 1150.67,-176.9 1147.48,-170.66"/>
</g>
<!-- Node12 -->
<g id="node12" class="node">
<title>Node12</title>
<g id="a_node12"><a xlink:href="type__size__mapping_8cpp.html" target="_top" xlink:title=" ">
<polygon fill="none" stroke="black" points="1098,-0.5 1098,-52.5 1298,-52.5 1298,-0.5 1098,-0.5"/>
<text text-anchor="start" x="1106" y="-40.5" font-family="Helvetica,sans-Serif" font-size="10.00">/home/runner/work/cbmc</text>
<text text-anchor="start" x="1106" y="-29.5" font-family="Helvetica,sans-Serif" font-size="10.00">&#45;documentation/cbmc&#45;documentation</text>
<text text-anchor="start" x="1106" y="-18.5" font-family="Helvetica,sans-Serif" font-size="10.00">/src/solvers/smt2_incremental</text>
<text text-anchor="middle" x="1198" y="-7.5" font-family="Helvetica,sans-Serif" font-size="10.00">/type_size_mapping.cpp</text>
</a>
</g>
</g>
<!-- Node8&#45;&gt;Node12 -->
<g id="edge15" class="edge">
<title>Node8&#45;&gt;Node12</title>
<path fill="none" stroke="midnightblue" d="M1107.54,-169.22C1119.12,-146.06 1135.44,-115.07 1152,-89 1159.86,-76.62 1169.46,-63.52 1177.85,-52.61"/>
<polygon fill="midnightblue" stroke="midnightblue" points="1104.33,-167.8 1103.03,-178.31 1110.61,-170.91 1104.33,-167.8"/>
</g>
<!-- Node9&#45;&gt;Node7 -->
<g id="edge11" class="edge">
<title>Node9&#45;&gt;Node7</title>
<path fill="none" stroke="midnightblue" d="M1166.25,-86.56C1129.15,-75.62 1086.93,-63.16 1050.84,-52.52"/>
<polygon fill="midnightblue" stroke="midnightblue" points="1165.49,-89.98 1176.07,-89.45 1167.47,-83.27 1165.49,-89.98"/>
</g>
<!-- Node10 -->
<g id="node10" class="node">
<title>Node10</title>
<g id="a_node10"><a xlink:href="convert__expr__to__smt_8cpp.html" target="_top" xlink:title=" ">
<polygon fill="none" stroke="black" points="1752,-0.5 1752,-52.5 1952,-52.5 1952,-0.5 1752,-0.5"/>
<text text-anchor="start" x="1760" y="-40.5" font-family="Helvetica,sans-Serif" font-size="10.00">/home/runner/work/cbmc</text>
<text text-anchor="start" x="1760" y="-29.5" font-family="Helvetica,sans-Serif" font-size="10.00">&#45;documentation/cbmc&#45;documentation</text>
<text text-anchor="start" x="1760" y="-18.5" font-family="Helvetica,sans-Serif" font-size="10.00">/src/solvers/smt2_incremental</text>
<text text-anchor="middle" x="1852" y="-7.5" font-family="Helvetica,sans-Serif" font-size="10.00">/convert_expr_to_smt.cpp</text>
</a>
</g>
</g>
<!-- Node9&#45;&gt;Node10 -->
<g id="edge10" class="edge">
<title>Node9&#45;&gt;Node10</title>
<path fill="none" stroke="midnightblue" d="M1371.17,-99.9C1398.55,-96.3 1427.84,-92.48 1455,-89 1582.95,-72.59 1616.02,-75.72 1743,-53 1745.87,-52.49 1748.78,-51.95 1751.71,-51.38"/>
<polygon fill="midnightblue" stroke="midnightblue" points="1370.63,-96.44 1361.17,-101.21 1371.54,-103.38 1370.63,-96.44"/>
</g>
<!-- Node9&#45;&gt;Node11 -->
<g id="edge12" class="edge">
<title>Node9&#45;&gt;Node11</title>
<path fill="none" stroke="midnightblue" d="M1314.71,-84.35C1333.16,-74 1353.61,-62.52 1371.27,-52.61"/>
<polygon fill="midnightblue" stroke="midnightblue" points="1312.84,-81.39 1305.83,-89.34 1316.27,-87.49 1312.84,-81.39"/>
</g>
<!-- Node9&#45;&gt;Node12 -->
<g id="edge13" class="edge">
<title>Node9&#45;&gt;Node12</title>
<path fill="none" stroke="midnightblue" d="M1236.9,-81.22C1230.02,-71.72 1222.64,-61.53 1216.18,-52.61"/>
<polygon fill="midnightblue" stroke="midnightblue" points="1234.08,-83.29 1242.78,-89.34 1239.75,-79.18 1234.08,-83.29"/>
</g>
<!-- Node15&#45;&gt;Node7 -->
<g id="edge29" class="edge">
<title>Node15&#45;&gt;Node7</title>
<path fill="none" stroke="midnightblue" d="M598.4,-173.59C614.38,-164.54 631,-153.83 645,-142 668.17,-122.43 662.2,-104.94 688,-89 691.73,-86.69 776.86,-68.02 851.93,-51.85"/>
<polygon fill="midnightblue" stroke="midnightblue" points="596.67,-170.55 589.61,-178.44 600.05,-176.68 596.67,-170.55"/>
</g>
<!-- Node16 -->
<g id="node16" class="node">
<title>Node16</title>
<g id="a_node16"><a xlink:href="smt__solver__process_8h.html" target="_top" xlink:title=" ">
<polygon fill="none" stroke="black" points="436,-89.5 436,-141.5 636,-141.5 636,-89.5 436,-89.5"/>
<text text-anchor="start" x="444" y="-129.5" font-family="Helvetica,sans-Serif" font-size="10.00">/home/runner/work/cbmc</text>
<text text-anchor="start" x="444" y="-118.5" font-family="Helvetica,sans-Serif" font-size="10.00">&#45;documentation/cbmc&#45;documentation</text>
<text text-anchor="start" x="444" y="-107.5" font-family="Helvetica,sans-Serif" font-size="10.00">/src/solvers/smt2_incremental</text>
<text text-anchor="middle" x="536" y="-96.5" font-family="Helvetica,sans-Serif" font-size="10.00">/smt_solver_process.h</text>
</a>
</g>
</g>
<!-- Node15&#45;&gt;Node16 -->
<g id="edge25" class="edge">
<title>Node15&#45;&gt;Node16</title>
<path fill="none" stroke="midnightblue" d="M536,-168.19C536,-159.28 536,-149.9 536,-141.61"/>
<polygon fill="midnightblue" stroke="midnightblue" points="532.5,-168.34 536,-178.34 539.5,-168.34 532.5,-168.34"/>
</g>
<!-- Node18 -->
<g id="node18" class="node">
<title>Node18</title>
<g id="a_node18"><a xlink:href="smt__response__validation_8h.html" target="_top" xlink:title=" ">
<polygon fill="none" stroke="black" points="218,-89.5 218,-141.5 418,-141.5 418,-89.5 218,-89.5"/>
<text text-anchor="start" x="226" y="-129.5" font-family="Helvetica,sans-Serif" font-size="10.00">/home/runner/work/cbmc</text>
<text text-anchor="start" x="226" y="-118.5" font-family="Helvetica,sans-Serif" font-size="10.00">&#45;documentation/cbmc&#45;documentation</text>
<text text-anchor="start" x="226" y="-107.5" font-family="Helvetica,sans-Serif" font-size="10.00">/src/solvers/smt2_incremental</text>
<text text-anchor="middle" x="318" y="-96.5" font-family="Helvetica,sans-Serif" font-size="10.00">/smt_response_validation.h</text>
</a>
</g>
</g>
<!-- Node15&#45;&gt;Node18 -->
<g id="edge30" class="edge">
<title>Node15&#45;&gt;Node18</title>
<path fill="none" stroke="midnightblue" d="M463.88,-174.72C436.98,-163.98 406.68,-151.89 380.7,-141.52"/>
<polygon fill="midnightblue" stroke="midnightblue" points="462.65,-178 473.24,-178.45 465.25,-171.5 462.65,-178"/>
</g>
<!-- Node20 -->
<g id="node20" class="node">
<title>Node20</title>
<g id="a_node20"><a xlink:href="smt__responses_8cpp.html" target="_top" xlink:title=" ">
<polygon fill="none" stroke="black" points="0,-89.5 0,-141.5 200,-141.5 200,-89.5 0,-89.5"/>
<text text-anchor="start" x="8" y="-129.5" font-family="Helvetica,sans-Serif" font-size="10.00">/home/runner/work/cbmc</text>
<text text-anchor="start" x="8" y="-118.5" font-family="Helvetica,sans-Serif" font-size="10.00">&#45;documentation/cbmc&#45;documentation</text>
<text text-anchor="start" x="8" y="-107.5" font-family="Helvetica,sans-Serif" font-size="10.00">/src/solvers/smt2_incremental</text>
<text text-anchor="middle" x="100" y="-96.5" font-family="Helvetica,sans-Serif" font-size="10.00">/smt_responses.cpp</text>
</a>
</g>
</g>
<!-- Node15&#45;&gt;Node20 -->
<g id="edge33" class="edge">
<title>Node15&#45;&gt;Node20</title>
<path fill="none" stroke="midnightblue" d="M425.91,-184.04C362.37,-172.5 281.03,-157.19 209,-142 206.05,-141.38 203.06,-140.74 200.05,-140.08"/>
<polygon fill="midnightblue" stroke="midnightblue" points="425.49,-187.52 435.95,-185.86 426.74,-180.63 425.49,-187.52"/>
</g>
<!-- Node16&#45;&gt;Node6 -->
<g id="edge26" class="edge">
<title>Node16&#45;&gt;Node6</title>
<path fill="none" stroke="midnightblue" d="M527.95,-79.49C525.41,-68.45 522.7,-56.65 520.5,-47.08"/>
<polygon fill="midnightblue" stroke="midnightblue" points="524.56,-80.37 530.22,-89.34 531.39,-78.81 524.56,-80.37"/>
</g>
<!-- Node16&#45;&gt;Node7 -->
<g id="edge27" class="edge">
<title>Node16&#45;&gt;Node7</title>
<path fill="none" stroke="midnightblue" d="M646.12,-89.8C647.42,-89.53 648.71,-89.26 650,-89 735.48,-71.47 757.39,-69.86 843,-53 845.89,-52.43 848.81,-51.85 851.77,-51.26"/>
<polygon fill="midnightblue" stroke="midnightblue" points="645.12,-86.43 636.05,-91.91 646.55,-93.28 645.12,-86.43"/>
</g>
<!-- Node17 -->
<g id="node17" class="node">
<title>Node17</title>
<g id="a_node17"><a xlink:href="smt__solver__process_8cpp.html" target="_top" xlink:title=" ">
<polygon fill="none" stroke="black" points="198,-0.5 198,-52.5 398,-52.5 398,-0.5 198,-0.5"/>
<text text-anchor="start" x="206" y="-40.5" font-family="Helvetica,sans-Serif" font-size="10.00">/home/runner/work/cbmc</text>
<text text-anchor="start" x="206" y="-29.5" font-family="Helvetica,sans-Serif" font-size="10.00">&#45;documentation/cbmc&#45;documentation</text>
<text text-anchor="start" x="206" y="-18.5" font-family="Helvetica,sans-Serif" font-size="10.00">/src/solvers/smt2_incremental</text>
<text text-anchor="middle" x="298" y="-7.5" font-family="Helvetica,sans-Serif" font-size="10.00">/smt_solver_process.cpp</text>
</a>
</g>
</g>
<!-- Node16&#45;&gt;Node17 -->
<g id="edge28" class="edge">
<title>Node16&#45;&gt;Node17</title>
<path fill="none" stroke="midnightblue" d="M458.03,-86C428.47,-75.19 395.06,-62.98 366.45,-52.52"/>
<polygon fill="midnightblue" stroke="midnightblue" points="456.89,-89.31 467.48,-89.45 459.29,-82.73 456.89,-89.31"/>
</g>
<!-- Node18&#45;&gt;Node17 -->
<g id="edge32" class="edge">
<title>Node18&#45;&gt;Node17</title>
<path fill="none" stroke="midnightblue" d="M309.95,-79.48C307.88,-70.49 305.7,-60.99 303.77,-52.61"/>
<polygon fill="midnightblue" stroke="midnightblue" points="306.56,-80.37 312.22,-89.34 313.39,-78.81 306.56,-80.37"/>
</g>
<!-- Node19 -->
<g id="node19" class="node">
<title>Node19</title>
<g id="a_node19"><a xlink:href="smt__response__validation_8cpp.html" target="_top" xlink:title=" ">
<polygon fill="none" stroke="black" points="634,-0.5 634,-52.5 834,-52.5 834,-0.5 634,-0.5"/>
<text text-anchor="start" x="642" y="-40.5" font-family="Helvetica,sans-Serif" font-size="10.00">/home/runner/work/cbmc</text>
<text text-anchor="start" x="642" y="-29.5" font-family="Helvetica,sans-Serif" font-size="10.00">&#45;documentation/cbmc&#45;documentation</text>
<text text-anchor="start" x="642" y="-18.5" font-family="Helvetica,sans-Serif" font-size="10.00">/src/solvers/smt2_incremental</text>
<text text-anchor="middle" x="734" y="-7.5" font-family="Helvetica,sans-Serif" font-size="10.00">/smt_response_validation.cpp</text>
</a>
</g>
</g>
<!-- Node18&#45;&gt;Node19 -->
<g id="edge31" class="edge">
<title>Node18&#45;&gt;Node19</title>
<path fill="none" stroke="midnightblue" d="M427.95,-88.85C516.26,-70.81 540.51,-70.55 625,-53 627.95,-52.39 630.94,-51.76 633.96,-51.11"/>
<polygon fill="midnightblue" stroke="midnightblue" points="427.13,-85.44 418.04,-90.89 428.54,-92.3 427.13,-85.44"/>
</g>
<!-- Node22&#45;&gt;Node7 -->
<g id="edge38" class="edge">
<title>Node22&#45;&gt;Node7</title>
<path fill="none" stroke="midnightblue" d="M1453.82,-99.95C1426.44,-96.36 1397.15,-92.52 1370,-89 1245.14,-72.8 1213.18,-73.8 1089,-53 1086.1,-52.51 1083.16,-52.01 1080.19,-51.49"/>
<polygon fill="midnightblue" stroke="midnightblue" points="1453.45,-103.43 1463.82,-101.27 1454.36,-96.49 1453.45,-103.43"/>
</g>
<!-- Node22&#45;&gt;Node10 -->
<g id="edge37" class="edge">
<title>Node22&#45;&gt;Node10</title>
<path fill="none" stroke="midnightblue" d="M1656.5,-86.56C1692.72,-75.62 1733.94,-63.16 1769.17,-52.52"/>
<polygon fill="midnightblue" stroke="midnightblue" points="1655.48,-83.21 1646.92,-89.45 1657.5,-89.91 1655.48,-83.21"/>
</g>
<!-- Node22&#45;&gt;Node19 -->
<g id="edge40" class="edge">
<title>Node22&#45;&gt;Node19</title>
<path fill="none" stroke="midnightblue" d="M1453.95,-98.82C1426.57,-95.25 1397.25,-91.72 1370,-89 1136.39,-65.69 1075.17,-87.85 843,-53 840.12,-52.57 837.2,-52.1 834.26,-51.6"/>
<polygon fill="midnightblue" stroke="midnightblue" points="1453.58,-102.3 1463.95,-100.13 1454.49,-95.36 1453.58,-102.3"/>
</g>
<!-- Node23 -->
<g id="node23" class="node">
<title>Node23</title>
<g id="a_node23"><a xlink:href="smt__array__theory_8cpp.html" target="_top" xlink:title=" ">
<polygon fill="none" stroke="black" points="1534,-0.5 1534,-52.5 1734,-52.5 1734,-0.5 1534,-0.5"/>
<text text-anchor="start" x="1542" y="-40.5" font-family="Helvetica,sans-Serif" font-size="10.00">/home/runner/work/cbmc</text>
<text text-anchor="start" x="1542" y="-29.5" font-family="Helvetica,sans-Serif" font-size="10.00">&#45;documentation/cbmc&#45;documentation</text>
<text text-anchor="start" x="1542" y="-18.5" font-family="Helvetica,sans-Serif" font-size="10.00">/src/solvers/smt2_incremental</text>
<text text-anchor="middle" x="1634" y="-7.5" font-family="Helvetica,sans-Serif" font-size="10.00">/smt_array_theory.cpp</text>
</a>
</g>
</g>
<!-- Node22&#45;&gt;Node23 -->
<g id="edge39" class="edge">
<title>Node22&#45;&gt;Node23</title>
<path fill="none" stroke="midnightblue" d="M1590.55,-81.5C1598.26,-71.92 1606.55,-61.62 1613.8,-52.61"/>
<polygon fill="midnightblue" stroke="midnightblue" points="1587.79,-79.35 1584.25,-89.34 1593.24,-83.74 1587.79,-79.35"/>
</g>
<!-- Node24&#45;&gt;Node10 -->
<g id="edge42" class="edge">
<title>Node24&#45;&gt;Node10</title>
<path fill="none" stroke="midnightblue" d="M1889.49,-351C1901.68,-342.78 1912.66,-332.58 1920,-320 1944.65,-277.78 1932.43,-197.98 1891,-89 1886.15,-76.24 1878.45,-63.3 1871.17,-52.6"/>
<polygon fill="midnightblue" stroke="midnightblue" points="1887.51,-348.11 1880.88,-356.37 1891.22,-354.05 1887.51,-348.11"/>
</g>
<!-- Node25 -->
<g id="node25" class="node">
<title>Node25</title>
<g id="a_node25"><a xlink:href="smt__bit__vector__theory_8cpp.html" target="_top" xlink:title=" ">
<polygon fill="none" stroke="black" points="1711,-267.5 1711,-319.5 1911,-319.5 1911,-267.5 1711,-267.5"/>
<text text-anchor="start" x="1719" y="-307.5" font-family="Helvetica,sans-Serif" font-size="10.00">/home/runner/work/cbmc</text>
<text text-anchor="start" x="1719" y="-296.5" font-family="Helvetica,sans-Serif" font-size="10.00">&#45;documentation/cbmc&#45;documentation</text>
<text text-anchor="start" x="1719" y="-285.5" font-family="Helvetica,sans-Serif" font-size="10.00">/src/solvers/smt2_incremental</text>
<text text-anchor="middle" x="1811" y="-274.5" font-family="Helvetica,sans-Serif" font-size="10.00">/smt_bit_vector_theory.cpp</text>
</a>
</g>
</g>
<!-- Node24&#45;&gt;Node25 -->
<g id="edge43" class="edge">
<title>Node24&#45;&gt;Node25</title>
<path fill="none" stroke="midnightblue" d="M1811,-346.19C1811,-337.28 1811,-327.9 1811,-319.61"/>
<polygon fill="midnightblue" stroke="midnightblue" points="1807.5,-346.34 1811,-356.34 1814.5,-346.34 1807.5,-346.34"/>
</g>
<!-- Node26&#45;&gt;Node7 -->
<g id="edge46" class="edge">
<title>Node26&#45;&gt;Node7</title>
<path fill="none" stroke="midnightblue" d="M1671.71,-88.92C1413.93,-52.16 1343.48,-87.05 1089,-53 1086.08,-52.61 1083.13,-52.19 1080.15,-51.74"/>
<polygon fill="midnightblue" stroke="midnightblue" points="1671.35,-92.41 1681.75,-90.38 1672.35,-85.48 1671.35,-92.41"/>
</g>
<!-- Node26&#45;&gt;Node10 -->
<g id="edge45" class="edge">
<title>Node26&#45;&gt;Node10</title>
<path fill="none" stroke="midnightblue" d="M1808.55,-81.5C1816.26,-71.92 1824.55,-61.62 1831.8,-52.61"/>
<polygon fill="midnightblue" stroke="midnightblue" points="1805.79,-79.35 1802.25,-89.34 1811.24,-83.74 1805.79,-79.35"/>
</g>
<!-- Node26&#45;&gt;Node11 -->
<g id="edge48" class="edge">
<title>Node26&#45;&gt;Node11</title>
<path fill="none" stroke="midnightblue" d="M1672.2,-88.4C1622.66,-76.62 1564.55,-62.81 1516.21,-51.32"/>
<polygon fill="midnightblue" stroke="midnightblue" points="1671.45,-91.82 1681.99,-90.73 1673.07,-85.01 1671.45,-91.82"/>
</g>
<!-- Node27 -->
<g id="node27" class="node">
<title>Node27</title>
<g id="a_node27"><a xlink:href="smt__core__theory_8cpp.html" target="_top" xlink:title=" ">
<polygon fill="none" stroke="black" points="1970,-0.5 1970,-52.5 2170,-52.5 2170,-0.5 1970,-0.5"/>
<text text-anchor="start" x="1978" y="-40.5" font-family="Helvetica,sans-Serif" font-size="10.00">/home/runner/work/cbmc</text>
<text text-anchor="start" x="1978" y="-29.5" font-family="Helvetica,sans-Serif" font-size="10.00">&#45;documentation/cbmc&#45;documentation</text>
<text text-anchor="start" x="1978" y="-18.5" font-family="Helvetica,sans-Serif" font-size="10.00">/src/solvers/smt2_incremental</text>
<text text-anchor="middle" x="2070" y="-7.5" font-family="Helvetica,sans-Serif" font-size="10.00">/smt_core_theory.cpp</text>
</a>
</g>
</g>
<!-- Node26&#45;&gt;Node27 -->
<g id="edge47" class="edge">
<title>Node26&#45;&gt;Node27</title>
<path fill="none" stroke="midnightblue" d="M1874.5,-86.56C1910.72,-75.62 1951.94,-63.16 1987.17,-52.52"/>
<polygon fill="midnightblue" stroke="midnightblue" points="1873.48,-83.21 1864.92,-89.45 1875.5,-89.91 1873.48,-83.21"/>
</g>
</g>
</svg>
