<?xml version="1.0" encoding="UTF-8" standalone="no"?>
<!DOCTYPE svg PUBLIC "-//W3C//DTD SVG 1.1//EN"
 "http://www.w3.org/Graphics/SVG/1.1/DTD/svg11.dtd">
<!-- Generated by graphviz version 2.43.0 (0)
 -->
<!-- Title: /home/runner/work/cbmc&#45;documentation/cbmc&#45;documentation/src/solvers/smt2_incremental/type_size_mapping.h Pages: 1 -->
<svg width="1108pt" height="239pt"
 viewBox="0.00 0.00 1108.00 239.00" xmlns="http://www.w3.org/2000/svg" xmlns:xlink="http://www.w3.org/1999/xlink">
<g id="graph0" class="graph" transform="scale(1 1) rotate(0) translate(4 235)">
<title>/home/runner/work/cbmc&#45;documentation/cbmc&#45;documentation/src/solvers/smt2_incremental/type_size_mapping.h</title>
<!-- Node1 -->
<g id="node1" class="node">
<title>Node1</title>
<g id="a_node1"><a xlink:title=" ">
<polygon fill="#bfbfbf" stroke="black" points="416,-178.5 416,-230.5 616,-230.5 616,-178.5 416,-178.5"/>
<text text-anchor="start" x="424" y="-218.5" font-family="Helvetica,sans-Serif" font-size="10.00">/home/runner/work/cbmc</text>
<text text-anchor="start" x="424" y="-207.5" font-family="Helvetica,sans-Serif" font-size="10.00">&#45;documentation/cbmc&#45;documentation</text>
<text text-anchor="start" x="424" y="-196.5" font-family="Helvetica,sans-Serif" font-size="10.00">/src/solvers/smt2_incremental</text>
<text text-anchor="middle" x="516" y="-185.5" font-family="Helvetica,sans-Serif" font-size="10.00">/type_size_mapping.h</text>
</a>
</g>
</g>
<!-- Node2 -->
<g id="node2" class="node">
<title>Node2</title>
<g id="a_node2"><a xlink:href="smt2__incremental__decision__procedure_8h.html" target="_top" xlink:title=" ">
<polygon fill="none" stroke="black" points="206.5,-89.5 206.5,-141.5 423.5,-141.5 423.5,-89.5 206.5,-89.5"/>
<text text-anchor="start" x="214.5" y="-129.5" font-family="Helvetica,sans-Serif" font-size="10.00">/home/runner/work/cbmc</text>
<text text-anchor="start" x="214.5" y="-118.5" font-family="Helvetica,sans-Serif" font-size="10.00">&#45;documentation/cbmc&#45;documentation</text>
<text text-anchor="start" x="214.5" y="-107.5" font-family="Helvetica,sans-Serif" font-size="10.00">/src/solvers/smt2_incremental</text>
<text text-anchor="middle" x="315" y="-96.5" font-family="Helvetica,sans-Serif" font-size="10.00">/smt2_incremental_decision_procedure.h</text>
</a>
</g>
</g>
<!-- Node1&#45;&gt;Node2 -->
<g id="edge1" class="edge">
<title>Node1&#45;&gt;Node2</title>
<path fill="none" stroke="midnightblue" d="M448.85,-174.44C424.21,-163.77 396.56,-151.8 372.81,-141.52"/>
<polygon fill="midnightblue" stroke="midnightblue" points="447.56,-177.69 458.13,-178.45 450.35,-171.27 447.56,-177.69"/>
</g>
<!-- Node4 -->
<g id="node4" class="node">
<title>Node4</title>
<g id="a_node4"><a xlink:href="smt2__incremental__decision__procedure_8cpp.html" target="_top" xlink:title=" ">
<polygon fill="none" stroke="black" points="218,-0.5 218,-52.5 446,-52.5 446,-0.5 218,-0.5"/>
<text text-anchor="start" x="226" y="-40.5" font-family="Helvetica,sans-Serif" font-size="10.00">/home/runner/work/cbmc</text>
<text text-anchor="start" x="226" y="-29.5" font-family="Helvetica,sans-Serif" font-size="10.00">&#45;documentation/cbmc&#45;documentation</text>
<text text-anchor="start" x="226" y="-18.5" font-family="Helvetica,sans-Serif" font-size="10.00">/src/solvers/smt2_incremental</text>
<text text-anchor="middle" x="332" y="-7.5" font-family="Helvetica,sans-Serif" font-size="10.00">/smt2_incremental_decision_procedure.cpp</text>
</a>
</g>
</g>
<!-- Node1&#45;&gt;Node4 -->
<g id="edge9" class="edge">
<title>Node1&#45;&gt;Node4</title>
<path fill="none" stroke="midnightblue" d="M491.47,-169.99C466.85,-136.35 432.46,-89.43 432,-89 416.94,-75.12 398.29,-62.66 381.19,-52.64"/>
<polygon fill="midnightblue" stroke="midnightblue" points="488.77,-172.22 497.5,-178.22 494.42,-168.08 488.77,-172.22"/>
</g>
<!-- Node5 -->
<g id="node5" class="node">
<title>Node5</title>
<g id="a_node5"><a xlink:href="convert__expr__to__smt_8h.html" target="_top" xlink:title=" ">
<polygon fill="none" stroke="black" points="480,-89.5 480,-141.5 680,-141.5 680,-89.5 480,-89.5"/>
<text text-anchor="start" x="488" y="-129.5" font-family="Helvetica,sans-Serif" font-size="10.00">/home/runner/work/cbmc</text>
<text text-anchor="start" x="488" y="-118.5" font-family="Helvetica,sans-Serif" font-size="10.00">&#45;documentation/cbmc&#45;documentation</text>
<text text-anchor="start" x="488" y="-107.5" font-family="Helvetica,sans-Serif" font-size="10.00">/src/solvers/smt2_incremental</text>
<text text-anchor="middle" x="580" y="-96.5" font-family="Helvetica,sans-Serif" font-size="10.00">/convert_expr_to_smt.h</text>
</a>
</g>
</g>
<!-- Node1&#45;&gt;Node5 -->
<g id="edge4" class="edge">
<title>Node1&#45;&gt;Node5</title>
<path fill="none" stroke="midnightblue" d="M540.49,-170.22C547.47,-160.72 554.97,-150.53 561.53,-141.61"/>
<polygon fill="midnightblue" stroke="midnightblue" points="537.62,-168.21 534.51,-178.34 543.26,-172.35 537.62,-168.21"/>
</g>
<!-- Node8 -->
<g id="node8" class="node">
<title>Node8</title>
<g id="a_node8"><a xlink:href="type__size__mapping_8cpp.html" target="_top" xlink:title=" ">
<polygon fill="none" stroke="black" points="900,-0.5 900,-52.5 1100,-52.5 1100,-0.5 900,-0.5"/>
<text text-anchor="start" x="908" y="-40.5" font-family="Helvetica,sans-Serif" font-size="10.00">/home/runner/work/cbmc</text>
<text text-anchor="start" x="908" y="-29.5" font-family="Helvetica,sans-Serif" font-size="10.00">&#45;documentation/cbmc&#45;documentation</text>
<text text-anchor="start" x="908" y="-18.5" font-family="Helvetica,sans-Serif" font-size="10.00">/src/solvers/smt2_incremental</text>
<text text-anchor="middle" x="1000" y="-7.5" font-family="Helvetica,sans-Serif" font-size="10.00">/type_size_mapping.cpp</text>
</a>
</g>
</g>
<!-- Node1&#45;&gt;Node8 -->
<g id="edge10" class="edge">
<title>Node1&#45;&gt;Node8</title>
<path fill="none" stroke="midnightblue" d="M596.89,-174.96C625.96,-164.64 658.97,-152.86 689,-142 773.13,-111.56 869.8,-75.85 932.74,-52.51"/>
<polygon fill="midnightblue" stroke="midnightblue" points="595.44,-171.75 587.19,-178.4 597.78,-178.35 595.44,-171.75"/>
</g>
<!-- Node3 -->
<g id="node3" class="node">
<title>Node3</title>
<g id="a_node3"><a xlink:href="solver__factory_8cpp.html" target="_top" xlink:title=" ">
<polygon fill="none" stroke="black" points="0,-6 0,-47 200,-47 200,-6 0,-6"/>
<text text-anchor="start" x="8" y="-35" font-family="Helvetica,sans-Serif" font-size="10.00">/home/runner/work/cbmc</text>
<text text-anchor="start" x="8" y="-24" font-family="Helvetica,sans-Serif" font-size="10.00">&#45;documentation/cbmc&#45;documentation</text>
<text text-anchor="middle" x="100" y="-13" font-family="Helvetica,sans-Serif" font-size="10.00">/src/goto&#45;checker/solver_factory.cpp</text>
</a>
</g>
</g>
<!-- Node2&#45;&gt;Node3 -->
<g id="edge2" class="edge">
<title>Node2&#45;&gt;Node3</title>
<path fill="none" stroke="midnightblue" d="M243.58,-85.6C212.37,-72.97 176.56,-58.48 148.52,-47.13"/>
<polygon fill="midnightblue" stroke="midnightblue" points="242.52,-88.95 253.1,-89.45 245.14,-82.46 242.52,-88.95"/>
</g>
<!-- Node2&#45;&gt;Node4 -->
<g id="edge3" class="edge">
<title>Node2&#45;&gt;Node4</title>
<path fill="none" stroke="midnightblue" d="M321.84,-79.48C323.6,-70.49 325.46,-60.99 327.09,-52.61"/>
<polygon fill="midnightblue" stroke="midnightblue" points="318.4,-78.85 319.92,-89.34 325.27,-80.19 318.4,-78.85"/>
</g>
<!-- Node5&#45;&gt;Node4 -->
<g id="edge6" class="edge">
<title>Node5&#45;&gt;Node4</title>
<path fill="none" stroke="midnightblue" d="M499.15,-86.14C468.25,-75.3 433.27,-63.03 403.32,-52.52"/>
<polygon fill="midnightblue" stroke="midnightblue" points="498.01,-89.45 508.6,-89.45 500.32,-82.84 498.01,-89.45"/>
</g>
<!-- Node6 -->
<g id="node6" class="node">
<title>Node6</title>
<g id="a_node6"><a xlink:href="convert__expr__to__smt_8cpp.html" target="_top" xlink:title=" ">
<polygon fill="none" stroke="black" points="464,-0.5 464,-52.5 664,-52.5 664,-0.5 464,-0.5"/>
<text text-anchor="start" x="472" y="-40.5" font-family="Helvetica,sans-Serif" font-size="10.00">/home/runner/work/cbmc</text>
<text text-anchor="start" x="472" y="-29.5" font-family="Helvetica,sans-Serif" font-size="10.00">&#45;documentation/cbmc&#45;documentation</text>
<text text-anchor="start" x="472" y="-18.5" font-family="Helvetica,sans-Serif" font-size="10.00">/src/solvers/smt2_incremental</text>
<text text-anchor="middle" x="564" y="-7.5" font-family="Helvetica,sans-Serif" font-size="10.00">/convert_expr_to_smt.cpp</text>
</a>
</g>
</g>
<!-- Node5&#45;&gt;Node6 -->
<g id="edge5" class="edge">
<title>Node5&#45;&gt;Node6</title>
<path fill="none" stroke="midnightblue" d="M573.56,-79.48C571.91,-70.49 570.16,-60.99 568.62,-52.61"/>
<polygon fill="midnightblue" stroke="midnightblue" points="570.12,-80.13 575.37,-89.34 577.01,-78.87 570.12,-80.13"/>
</g>
<!-- Node7 -->
<g id="node7" class="node">
<title>Node7</title>
<g id="a_node7"><a xlink:href="smt__object__size_8cpp.html" target="_top" xlink:title=" ">
<polygon fill="none" stroke="black" points="682,-0.5 682,-52.5 882,-52.5 882,-0.5 682,-0.5"/>
<text text-anchor="start" x="690" y="-40.5" font-family="Helvetica,sans-Serif" font-size="10.00">/home/runner/work/cbmc</text>
<text text-anchor="start" x="690" y="-29.5" font-family="Helvetica,sans-Serif" font-size="10.00">&#45;documentation/cbmc&#45;documentation</text>
<text text-anchor="start" x="690" y="-18.5" font-family="Helvetica,sans-Serif" font-size="10.00">/src/solvers/smt2_incremental</text>
<text text-anchor="middle" x="782" y="-7.5" font-family="Helvetica,sans-Serif" font-size="10.00">/smt_object_size.cpp</text>
</a>
</g>
</g>
<!-- Node5&#45;&gt;Node7 -->
<g id="edge7" class="edge">
<title>Node5&#45;&gt;Node7</title>
<path fill="none" stroke="midnightblue" d="M647.48,-85.44C672.24,-74.77 700.04,-62.8 723.91,-52.52"/>
<polygon fill="midnightblue" stroke="midnightblue" points="645.96,-82.28 638.16,-89.45 648.72,-88.71 645.96,-82.28"/>
</g>
<!-- Node5&#45;&gt;Node8 -->
<g id="edge8" class="edge">
<title>Node5&#45;&gt;Node8</title>
<path fill="none" stroke="midnightblue" d="M690.5,-93.61C750.01,-82.12 824.63,-67.32 891,-53 893.94,-52.36 896.93,-51.71 899.95,-51.05"/>
<polygon fill="midnightblue" stroke="midnightblue" points="689.48,-90.24 680.32,-95.57 690.81,-97.12 689.48,-90.24"/>
</g>
</g>
</svg>
