<?xml version="1.0" encoding="UTF-8" standalone="no"?>
<!DOCTYPE svg PUBLIC "-//W3C//DTD SVG 1.1//EN"
 "http://www.w3.org/Graphics/SVG/1.1/DTD/svg11.dtd">
<!-- Generated by graphviz version 2.43.0 (0)
 -->
<!-- Title: /home/runner/work/cbmc&#45;documentation/cbmc&#45;documentation/src/util/union_find_replace.h Pages: 1 -->
<svg width="2950pt" height="651pt"
 viewBox="0.00 0.00 2950.00 651.00" xmlns="http://www.w3.org/2000/svg" xmlns:xlink="http://www.w3.org/1999/xlink">
<g id="graph0" class="graph" transform="scale(1 1) rotate(0) translate(4 647)">
<title>/home/runner/work/cbmc&#45;documentation/cbmc&#45;documentation/src/util/union_find_replace.h</title>
<!-- Node1 -->
<g id="node1" class="node">
<title>Node1</title>
<g id="a_node1"><a xlink:title=" ">
<polygon fill="#bfbfbf" stroke="black" points="2457,-601.5 2457,-642.5 2657,-642.5 2657,-601.5 2457,-601.5"/>
<text text-anchor="start" x="2465" y="-630.5" font-family="Helvetica,sans-Serif" font-size="10.00">/home/runner/work/cbmc</text>
<text text-anchor="start" x="2465" y="-619.5" font-family="Helvetica,sans-Serif" font-size="10.00">&#45;documentation/cbmc&#45;documentation</text>
<text text-anchor="middle" x="2557" y="-608.5" font-family="Helvetica,sans-Serif" font-size="10.00">/src/util/union_find_replace.h</text>
</a>
</g>
</g>
<!-- Node2 -->
<g id="node2" class="node">
<title>Node2</title>
<g id="a_node2"><a xlink:href="string__refinement_8h.html" target="_top" xlink:title=" ">
<polygon fill="none" stroke="black" points="2170,-173 2170,-214 2376,-214 2376,-173 2170,-173"/>
<text text-anchor="start" x="2178" y="-202" font-family="Helvetica,sans-Serif" font-size="10.00">/home/runner/work/cbmc</text>
<text text-anchor="start" x="2178" y="-191" font-family="Helvetica,sans-Serif" font-size="10.00">&#45;documentation/cbmc&#45;documentation</text>
<text text-anchor="middle" x="2273" y="-180" font-family="Helvetica,sans-Serif" font-size="10.00">/src/solvers/strings/string_refinement.h</text>
</a>
</g>
</g>
<!-- Node1&#45;&gt;Node2 -->
<g id="edge1" class="edge">
<title>Node1&#45;&gt;Node2</title>
<path fill="none" stroke="midnightblue" d="M2557,-591.32C2557,-559.29 2557,-506.78 2557,-461.5 2557,-461.5 2557,-461.5 2557,-370.5 2557,-318.84 2572.49,-293.54 2537,-256 2536.2,-255.15 2434.87,-231.71 2358,-214.02"/>
<polygon fill="midnightblue" stroke="midnightblue" points="2553.5,-591.36 2557,-601.36 2560.5,-591.36 2553.5,-591.36"/>
</g>
<!-- Node12 -->
<g id="node12" class="node">
<title>Node12</title>
<g id="a_node12"><a xlink:href="string__constraint_8h.html" target="_top" xlink:title=" ">
<polygon fill="none" stroke="black" points="1416,-523.5 1416,-564.5 1618,-564.5 1618,-523.5 1416,-523.5"/>
<text text-anchor="start" x="1424" y="-552.5" font-family="Helvetica,sans-Serif" font-size="10.00">/home/runner/work/cbmc</text>
<text text-anchor="start" x="1424" y="-541.5" font-family="Helvetica,sans-Serif" font-size="10.00">&#45;documentation/cbmc&#45;documentation</text>
<text text-anchor="middle" x="1517" y="-530.5" font-family="Helvetica,sans-Serif" font-size="10.00">/src/solvers/strings/string_constraint.h</text>
</a>
</g>
</g>
<!-- Node1&#45;&gt;Node12 -->
<g id="edge11" class="edge">
<title>Node1&#45;&gt;Node12</title>
<path fill="none" stroke="midnightblue" d="M2446.73,-612.94C2243.82,-598.11 1814.16,-566.72 1618.22,-552.4"/>
<polygon fill="midnightblue" stroke="midnightblue" points="2446.58,-616.44 2456.81,-613.68 2447.09,-609.46 2446.58,-616.44"/>
</g>
<!-- Node37 -->
<g id="node37" class="node">
<title>Node37</title>
<g id="a_node37"><a xlink:href="union__find__replace_8cpp.html" target="_top" xlink:title=" ">
<polygon fill="none" stroke="black" points="2585,-523.5 2585,-564.5 2785,-564.5 2785,-523.5 2585,-523.5"/>
<text text-anchor="start" x="2593" y="-552.5" font-family="Helvetica,sans-Serif" font-size="10.00">/home/runner/work/cbmc</text>
<text text-anchor="start" x="2593" y="-541.5" font-family="Helvetica,sans-Serif" font-size="10.00">&#45;documentation/cbmc&#45;documentation</text>
<text text-anchor="middle" x="2685" y="-530.5" font-family="Helvetica,sans-Serif" font-size="10.00">/src/util/union_find_replace.cpp</text>
</a>
</g>
</g>
<!-- Node1&#45;&gt;Node37 -->
<g id="edge44" class="edge">
<title>Node1&#45;&gt;Node37</title>
<path fill="none" stroke="midnightblue" d="M2598.76,-596.2C2616.09,-585.92 2635.89,-574.16 2652.15,-564.51"/>
<polygon fill="midnightblue" stroke="midnightblue" points="2596.77,-593.31 2589.96,-601.43 2600.35,-599.33 2596.77,-593.31"/>
</g>
<!-- Node3 -->
<g id="node3" class="node">
<title>Node3</title>
<g id="a_node3"><a xlink:href="cbmc__parse__options_8h.html" target="_top" xlink:title=" ">
<polygon fill="none" stroke="black" points="2081,-84 2081,-125 2281,-125 2281,-84 2081,-84"/>
<text text-anchor="start" x="2089" y="-113" font-family="Helvetica,sans-Serif" font-size="10.00">/home/runner/work/cbmc</text>
<text text-anchor="start" x="2089" y="-102" font-family="Helvetica,sans-Serif" font-size="10.00">&#45;documentation/cbmc&#45;documentation</text>
<text text-anchor="middle" x="2181" y="-91" font-family="Helvetica,sans-Serif" font-size="10.00">/src/cbmc/cbmc_parse_options.h</text>
</a>
</g>
</g>
<!-- Node2&#45;&gt;Node3 -->
<g id="edge2" class="edge">
<title>Node2&#45;&gt;Node3</title>
<path fill="none" stroke="midnightblue" d="M2244.73,-165.76C2230.87,-152.66 2214.48,-137.16 2201.79,-125.16"/>
<polygon fill="midnightblue" stroke="midnightblue" points="2242.45,-168.43 2252.12,-172.76 2247.26,-163.34 2242.45,-168.43"/>
</g>
<!-- Node7 -->
<g id="node7" class="node">
<title>Node7</title>
<g id="a_node7"><a xlink:href="solver__factory_8cpp.html" target="_top" xlink:title=" ">
<polygon fill="none" stroke="black" points="2299,-84 2299,-125 2499,-125 2499,-84 2299,-84"/>
<text text-anchor="start" x="2307" y="-113" font-family="Helvetica,sans-Serif" font-size="10.00">/home/runner/work/cbmc</text>
<text text-anchor="start" x="2307" y="-102" font-family="Helvetica,sans-Serif" font-size="10.00">&#45;documentation/cbmc&#45;documentation</text>
<text text-anchor="middle" x="2399" y="-91" font-family="Helvetica,sans-Serif" font-size="10.00">/src/goto&#45;checker/solver_factory.cpp</text>
</a>
</g>
</g>
<!-- Node2&#45;&gt;Node7 -->
<g id="edge6" class="edge">
<title>Node2&#45;&gt;Node7</title>
<path fill="none" stroke="midnightblue" d="M2309.57,-167.25C2328.94,-153.88 2352.36,-137.7 2370.38,-125.26"/>
<polygon fill="midnightblue" stroke="midnightblue" points="2307.52,-164.41 2301.28,-172.98 2311.49,-170.17 2307.52,-164.41"/>
</g>
<!-- Node8 -->
<g id="node8" class="node">
<title>Node8</title>
<g id="a_node8"><a xlink:href="string__refinement_8cpp.html" target="_top" xlink:title=" ">
<polygon fill="none" stroke="black" points="1845,-84 1845,-125 2063,-125 2063,-84 1845,-84"/>
<text text-anchor="start" x="1853" y="-113" font-family="Helvetica,sans-Serif" font-size="10.00">/home/runner/work/cbmc</text>
<text text-anchor="start" x="1853" y="-102" font-family="Helvetica,sans-Serif" font-size="10.00">&#45;documentation/cbmc&#45;documentation</text>
<text text-anchor="middle" x="1954" y="-91" font-family="Helvetica,sans-Serif" font-size="10.00">/src/solvers/strings/string_refinement.cpp</text>
</a>
</g>
</g>
<!-- Node2&#45;&gt;Node8 -->
<g id="edge7" class="edge">
<title>Node2&#45;&gt;Node8</title>
<path fill="none" stroke="midnightblue" d="M2191.69,-170.32C2140.45,-156.35 2074.9,-138.47 2025.63,-125.03"/>
<polygon fill="midnightblue" stroke="midnightblue" points="2190.84,-173.72 2201.41,-172.98 2192.68,-166.97 2190.84,-173.72"/>
</g>
<!-- Node9 -->
<g id="node9" class="node">
<title>Node9</title>
<g id="a_node9"><a xlink:href="jbmc__parse__options_8h.html" target="_top" xlink:title=" ">
<polygon fill="none" stroke="black" points="2519,-84 2519,-125 2719,-125 2719,-84 2519,-84"/>
<text text-anchor="start" x="2527" y="-113" font-family="Helvetica,sans-Serif" font-size="10.00">/home/runner/work/cbmc</text>
<text text-anchor="start" x="2527" y="-102" font-family="Helvetica,sans-Serif" font-size="10.00">&#45;documentation/cbmc&#45;documentation</text>
<text text-anchor="middle" x="2619" y="-91" font-family="Helvetica,sans-Serif" font-size="10.00">/jbmc/src/jbmc/jbmc_parse_options.h</text>
</a>
</g>
</g>
<!-- Node2&#45;&gt;Node9 -->
<g id="edge8" class="edge">
<title>Node2&#45;&gt;Node9</title>
<path fill="none" stroke="midnightblue" d="M2360.5,-170.5C2416.18,-156.5 2487.64,-138.53 2541.31,-125.03"/>
<polygon fill="midnightblue" stroke="midnightblue" points="2359.49,-167.14 2350.65,-172.98 2361.2,-173.93 2359.49,-167.14"/>
</g>
<!-- Node4 -->
<g id="node4" class="node">
<title>Node4</title>
<g id="a_node4"><a xlink:href="cbmc__languages_8cpp.html" target="_top" xlink:title=" ">
<polygon fill="none" stroke="black" points="1860,-0.5 1860,-41.5 2060,-41.5 2060,-0.5 1860,-0.5"/>
<text text-anchor="start" x="1868" y="-29.5" font-family="Helvetica,sans-Serif" font-size="10.00">/home/runner/work/cbmc</text>
<text text-anchor="start" x="1868" y="-18.5" font-family="Helvetica,sans-Serif" font-size="10.00">&#45;documentation/cbmc&#45;documentation</text>
<text text-anchor="middle" x="1960" y="-7.5" font-family="Helvetica,sans-Serif" font-size="10.00">/src/cbmc/cbmc_languages.cpp</text>
</a>
</g>
</g>
<!-- Node3&#45;&gt;Node4 -->
<g id="edge3" class="edge">
<title>Node3&#45;&gt;Node4</title>
<path fill="none" stroke="midnightblue" d="M2118.43,-80.42C2085.12,-68.14 2044.61,-53.2 2012.89,-41.5"/>
<polygon fill="midnightblue" stroke="midnightblue" points="2117.47,-83.8 2128.06,-83.98 2119.89,-77.23 2117.47,-83.8"/>
</g>
<!-- Node5 -->
<g id="node5" class="node">
<title>Node5</title>
<g id="a_node5"><a xlink:href="cbmc__main_8cpp.html" target="_top" xlink:title=" ">
<polygon fill="none" stroke="black" points="2078,-0.5 2078,-41.5 2278,-41.5 2278,-0.5 2078,-0.5"/>
<text text-anchor="start" x="2086" y="-29.5" font-family="Helvetica,sans-Serif" font-size="10.00">/home/runner/work/cbmc</text>
<text text-anchor="start" x="2086" y="-18.5" font-family="Helvetica,sans-Serif" font-size="10.00">&#45;documentation/cbmc&#45;documentation</text>
<text text-anchor="middle" x="2178" y="-7.5" font-family="Helvetica,sans-Serif" font-size="10.00">/src/cbmc/cbmc_main.cpp</text>
</a>
</g>
</g>
<!-- Node3&#45;&gt;Node5 -->
<g id="edge4" class="edge">
<title>Node3&#45;&gt;Node5</title>
<path fill="none" stroke="midnightblue" d="M2179.9,-73.56C2179.5,-62.88 2179.07,-51.13 2178.72,-41.55"/>
<polygon fill="midnightblue" stroke="midnightblue" points="2176.41,-73.91 2180.27,-83.77 2183.4,-73.65 2176.41,-73.91"/>
</g>
<!-- Node6 -->
<g id="node6" class="node">
<title>Node6</title>
<g id="a_node6"><a xlink:href="cbmc__parse__options_8cpp.html" target="_top" xlink:title=" ">
<polygon fill="none" stroke="black" points="2296,-0.5 2296,-41.5 2496,-41.5 2496,-0.5 2296,-0.5"/>
<text text-anchor="start" x="2304" y="-29.5" font-family="Helvetica,sans-Serif" font-size="10.00">/home/runner/work/cbmc</text>
<text text-anchor="start" x="2304" y="-18.5" font-family="Helvetica,sans-Serif" font-size="10.00">&#45;documentation/cbmc&#45;documentation</text>
<text text-anchor="middle" x="2396" y="-7.5" font-family="Helvetica,sans-Serif" font-size="10.00">/src/cbmc/cbmc_parse_options.cpp</text>
</a>
</g>
</g>
<!-- Node3&#45;&gt;Node6 -->
<g id="edge5" class="edge">
<title>Node3&#45;&gt;Node6</title>
<path fill="none" stroke="midnightblue" d="M2241.87,-80.42C2274.28,-68.14 2313.69,-53.2 2344.55,-41.5"/>
<polygon fill="midnightblue" stroke="midnightblue" points="2240.61,-77.16 2232.5,-83.98 2243.09,-83.71 2240.61,-77.16"/>
</g>
<!-- Node10 -->
<g id="node10" class="node">
<title>Node10</title>
<g id="a_node10"><a xlink:href="jbmc__main_8cpp.html" target="_top" xlink:title=" ">
<polygon fill="none" stroke="black" points="2742,-0.5 2742,-41.5 2942,-41.5 2942,-0.5 2742,-0.5"/>
<text text-anchor="start" x="2750" y="-29.5" font-family="Helvetica,sans-Serif" font-size="10.00">/home/runner/work/cbmc</text>
<text text-anchor="start" x="2750" y="-18.5" font-family="Helvetica,sans-Serif" font-size="10.00">&#45;documentation/cbmc&#45;documentation</text>
<text text-anchor="middle" x="2842" y="-7.5" font-family="Helvetica,sans-Serif" font-size="10.00">/jbmc/src/jbmc/jbmc_main.cpp</text>
</a>
</g>
</g>
<!-- Node9&#45;&gt;Node10 -->
<g id="edge9" class="edge">
<title>Node9&#45;&gt;Node10</title>
<path fill="none" stroke="midnightblue" d="M2682.14,-80.42C2715.75,-68.14 2756.63,-53.2 2788.64,-41.5"/>
<polygon fill="midnightblue" stroke="midnightblue" points="2680.61,-77.26 2672.41,-83.98 2683.01,-83.83 2680.61,-77.26"/>
</g>
<!-- Node11 -->
<g id="node11" class="node">
<title>Node11</title>
<g id="a_node11"><a xlink:href="jbmc__parse__options_8cpp.html" target="_top" xlink:title=" ">
<polygon fill="none" stroke="black" points="2514.5,-0.5 2514.5,-41.5 2723.5,-41.5 2723.5,-0.5 2514.5,-0.5"/>
<text text-anchor="start" x="2522.5" y="-29.5" font-family="Helvetica,sans-Serif" font-size="10.00">/home/runner/work/cbmc</text>
<text text-anchor="start" x="2522.5" y="-18.5" font-family="Helvetica,sans-Serif" font-size="10.00">&#45;documentation/cbmc&#45;documentation</text>
<text text-anchor="middle" x="2619" y="-7.5" font-family="Helvetica,sans-Serif" font-size="10.00">/jbmc/src/jbmc/jbmc_parse_options.cpp</text>
</a>
</g>
</g>
<!-- Node9&#45;&gt;Node11 -->
<g id="edge10" class="edge">
<title>Node9&#45;&gt;Node11</title>
<path fill="none" stroke="midnightblue" d="M2619,-73.56C2619,-62.88 2619,-51.13 2619,-41.55"/>
<polygon fill="midnightblue" stroke="midnightblue" points="2615.5,-73.77 2619,-83.77 2622.5,-73.77 2615.5,-73.77"/>
</g>
<!-- Node13 -->
<g id="node13" class="node">
<title>Node13</title>
<g id="a_node13"><a xlink:href="string__constraint__generator_8h.html" target="_top" xlink:title=" ">
<polygon fill="none" stroke="black" points="1417,-434.5 1417,-486.5 1617,-486.5 1617,-434.5 1417,-434.5"/>
<text text-anchor="start" x="1425" y="-474.5" font-family="Helvetica,sans-Serif" font-size="10.00">/home/runner/work/cbmc</text>
<text text-anchor="start" x="1425" y="-463.5" font-family="Helvetica,sans-Serif" font-size="10.00">&#45;documentation/cbmc&#45;documentation</text>
<text text-anchor="start" x="1425" y="-452.5" font-family="Helvetica,sans-Serif" font-size="10.00">/src/solvers/strings/string_constraint</text>
<text text-anchor="middle" x="1517" y="-441.5" font-family="Helvetica,sans-Serif" font-size="10.00">_generator.h</text>
</a>
</g>
</g>
<!-- Node12&#45;&gt;Node13 -->
<g id="edge12" class="edge">
<title>Node12&#45;&gt;Node13</title>
<path fill="none" stroke="midnightblue" d="M1517,-513.12C1517,-504.41 1517,-494.99 1517,-486.61"/>
<polygon fill="midnightblue" stroke="midnightblue" points="1513.5,-513.27 1517,-523.27 1520.5,-513.27 1513.5,-513.27"/>
</g>
<!-- Node33 -->
<g id="node33" class="node">
<title>Node33</title>
<g id="a_node33"><a xlink:href="string__refinement__util_8h.html" target="_top" xlink:title=" ">
<polygon fill="none" stroke="black" points="2301.5,-262 2301.5,-303 2528.5,-303 2528.5,-262 2301.5,-262"/>
<text text-anchor="start" x="2309.5" y="-291" font-family="Helvetica,sans-Serif" font-size="10.00">/home/runner/work/cbmc</text>
<text text-anchor="start" x="2309.5" y="-280" font-family="Helvetica,sans-Serif" font-size="10.00">&#45;documentation/cbmc&#45;documentation</text>
<text text-anchor="middle" x="2415" y="-269" font-family="Helvetica,sans-Serif" font-size="10.00">/src/solvers/strings/string_refinement_util.h</text>
</a>
</g>
</g>
<!-- Node12&#45;&gt;Node33 -->
<g id="edge38" class="edge">
<title>Node12&#45;&gt;Node33</title>
<path fill="none" stroke="midnightblue" d="M1628.15,-532.55C1771.24,-516.38 2025.64,-478.37 2229,-398 2290.89,-373.54 2355.34,-328.81 2389.75,-303.09"/>
<polygon fill="midnightblue" stroke="midnightblue" points="1627.6,-529.09 1618.04,-533.67 1628.37,-536.04 1627.6,-529.09"/>
</g>
<!-- Node35 -->
<g id="node35" class="node">
<title>Node35</title>
<g id="a_node35"><a xlink:href="string__constraint_8cpp.html" target="_top" xlink:title=" ">
<polygon fill="none" stroke="black" points="967.5,-440 967.5,-481 1180.5,-481 1180.5,-440 967.5,-440"/>
<text text-anchor="start" x="975.5" y="-469" font-family="Helvetica,sans-Serif" font-size="10.00">/home/runner/work/cbmc</text>
<text text-anchor="start" x="975.5" y="-458" font-family="Helvetica,sans-Serif" font-size="10.00">&#45;documentation/cbmc&#45;documentation</text>
<text text-anchor="middle" x="1074" y="-447" font-family="Helvetica,sans-Serif" font-size="10.00">/src/solvers/strings/string_constraint.cpp</text>
</a>
</g>
</g>
<!-- Node12&#45;&gt;Node35 -->
<g id="edge42" class="edge">
<title>Node12&#45;&gt;Node35</title>
<path fill="none" stroke="midnightblue" d="M1405.85,-525.29C1342.47,-514.86 1261.63,-501 1190,-487 1180.49,-485.14 1170.56,-483.11 1160.69,-481.02"/>
<polygon fill="midnightblue" stroke="midnightblue" points="1405.44,-528.77 1415.87,-526.93 1406.57,-521.86 1405.44,-528.77"/>
</g>
<!-- Node36 -->
<g id="node36" class="node">
<title>Node36</title>
<g id="a_node36"><a xlink:href="string__constraint__instantiation_8cpp.html" target="_top" xlink:title=" ">
<polygon fill="none" stroke="black" points="1199,-434.5 1199,-486.5 1399,-486.5 1399,-434.5 1199,-434.5"/>
<text text-anchor="start" x="1207" y="-474.5" font-family="Helvetica,sans-Serif" font-size="10.00">/home/runner/work/cbmc</text>
<text text-anchor="start" x="1207" y="-463.5" font-family="Helvetica,sans-Serif" font-size="10.00">&#45;documentation/cbmc&#45;documentation</text>
<text text-anchor="start" x="1207" y="-452.5" font-family="Helvetica,sans-Serif" font-size="10.00">/src/solvers/strings/string_constraint</text>
<text text-anchor="middle" x="1299" y="-441.5" font-family="Helvetica,sans-Serif" font-size="10.00">_instantiation.cpp</text>
</a>
</g>
</g>
<!-- Node12&#45;&gt;Node36 -->
<g id="edge43" class="edge">
<title>Node12&#45;&gt;Node36</title>
<path fill="none" stroke="midnightblue" d="M1455.17,-519.89C1427.37,-509.49 1394.48,-497.2 1366.08,-486.58"/>
<polygon fill="midnightblue" stroke="midnightblue" points="1454.19,-523.26 1464.78,-523.48 1456.64,-516.7 1454.19,-523.26"/>
</g>
<!-- Node13&#45;&gt;Node2 -->
<g id="edge13" class="edge">
<title>Node13&#45;&gt;Node2</title>
<path fill="none" stroke="midnightblue" d="M1627.32,-460.45C1793.32,-460.05 2097.83,-451.7 2191,-398 2256.84,-360.05 2269.86,-257.66 2272.4,-214.32"/>
<polygon fill="midnightblue" stroke="midnightblue" points="1627.08,-456.95 1617.08,-460.46 1627.09,-463.95 1627.08,-456.95"/>
</g>
<!-- Node14 -->
<g id="node14" class="node">
<title>Node14</title>
<g id="a_node14"><a xlink:href="string__builtin__function_8h.html" target="_top" xlink:title=" ">
<polygon fill="none" stroke="black" points="1962,-345.5 1962,-397.5 2162,-397.5 2162,-345.5 1962,-345.5"/>
<text text-anchor="start" x="1970" y="-385.5" font-family="Helvetica,sans-Serif" font-size="10.00">/home/runner/work/cbmc</text>
<text text-anchor="start" x="1970" y="-374.5" font-family="Helvetica,sans-Serif" font-size="10.00">&#45;documentation/cbmc&#45;documentation</text>
<text text-anchor="start" x="1970" y="-363.5" font-family="Helvetica,sans-Serif" font-size="10.00">/src/solvers/strings/string_builtin</text>
<text text-anchor="middle" x="2062" y="-352.5" font-family="Helvetica,sans-Serif" font-size="10.00">_function.h</text>
</a>
</g>
</g>
<!-- Node13&#45;&gt;Node14 -->
<g id="edge14" class="edge">
<title>Node13&#45;&gt;Node14</title>
<path fill="none" stroke="midnightblue" d="M1627.47,-446.7C1715.87,-435.78 1842.85,-418.61 1953,-398 1955.96,-397.45 1958.96,-396.87 1961.99,-396.26"/>
<polygon fill="midnightblue" stroke="midnightblue" points="1626.92,-443.24 1617.42,-447.93 1627.77,-450.19 1626.92,-443.24"/>
</g>
<!-- Node17 -->
<g id="node17" class="node">
<title>Node17</title>
<g id="a_node17"><a xlink:href="string__builtin__function_8cpp.html" target="_top" xlink:title=" ">
<polygon fill="none" stroke="black" points="2045,-256.5 2045,-308.5 2245,-308.5 2245,-256.5 2045,-256.5"/>
<text text-anchor="start" x="2053" y="-296.5" font-family="Helvetica,sans-Serif" font-size="10.00">/home/runner/work/cbmc</text>
<text text-anchor="start" x="2053" y="-285.5" font-family="Helvetica,sans-Serif" font-size="10.00">&#45;documentation/cbmc&#45;documentation</text>
<text text-anchor="start" x="2053" y="-274.5" font-family="Helvetica,sans-Serif" font-size="10.00">/src/solvers/strings/string_builtin</text>
<text text-anchor="middle" x="2145" y="-263.5" font-family="Helvetica,sans-Serif" font-size="10.00">_function.cpp</text>
</a>
</g>
</g>
<!-- Node13&#45;&gt;Node17 -->
<g id="edge28" class="edge">
<title>Node13&#45;&gt;Node17</title>
<path fill="none" stroke="midnightblue" d="M1627.16,-457.07C1804.01,-452.01 2135.18,-437.35 2171,-398 2193.23,-373.58 2176.91,-334.22 2161.93,-308.6"/>
<polygon fill="midnightblue" stroke="midnightblue" points="1626.93,-453.57 1617.04,-457.35 1627.13,-460.57 1626.93,-453.57"/>
</g>
<!-- Node24 -->
<g id="node24" class="node">
<title>Node24</title>
<g id="a_node24"><a xlink:href="string__constraint__generator__code__points_8cpp.html" target="_top" xlink:title=" ">
<polygon fill="none" stroke="black" points="0,-345.5 0,-397.5 200,-397.5 200,-345.5 0,-345.5"/>
<text text-anchor="start" x="8" y="-385.5" font-family="Helvetica,sans-Serif" font-size="10.00">/home/runner/work/cbmc</text>
<text text-anchor="start" x="8" y="-374.5" font-family="Helvetica,sans-Serif" font-size="10.00">&#45;documentation/cbmc&#45;documentation</text>
<text text-anchor="start" x="8" y="-363.5" font-family="Helvetica,sans-Serif" font-size="10.00">/src/solvers/strings/string_constraint</text>
<text text-anchor="middle" x="100" y="-352.5" font-family="Helvetica,sans-Serif" font-size="10.00">_generator_code_points.cpp</text>
</a>
</g>
</g>
<!-- Node13&#45;&gt;Node24 -->
<g id="edge29" class="edge">
<title>Node13&#45;&gt;Node24</title>
<path fill="none" stroke="midnightblue" d="M1406.58,-433.94C877.55,-366.22 734.28,-466.63 209,-398 206.11,-397.62 203.18,-397.2 200.24,-396.74"/>
<polygon fill="midnightblue" stroke="midnightblue" points="1406.4,-437.44 1416.76,-435.26 1407.3,-430.5 1406.4,-437.44"/>
</g>
<!-- Node25 -->
<g id="node25" class="node">
<title>Node25</title>
<g id="a_node25"><a xlink:href="string__constraint__generator__comparison_8cpp.html" target="_top" xlink:title=" ">
<polygon fill="none" stroke="black" points="218,-345.5 218,-397.5 418,-397.5 418,-345.5 218,-345.5"/>
<text text-anchor="start" x="226" y="-385.5" font-family="Helvetica,sans-Serif" font-size="10.00">/home/runner/work/cbmc</text>
<text text-anchor="start" x="226" y="-374.5" font-family="Helvetica,sans-Serif" font-size="10.00">&#45;documentation/cbmc&#45;documentation</text>
<text text-anchor="start" x="226" y="-363.5" font-family="Helvetica,sans-Serif" font-size="10.00">/src/solvers/strings/string_constraint</text>
<text text-anchor="middle" x="318" y="-352.5" font-family="Helvetica,sans-Serif" font-size="10.00">_generator_comparison.cpp</text>
</a>
</g>
</g>
<!-- Node13&#45;&gt;Node25 -->
<g id="edge30" class="edge">
<title>Node13&#45;&gt;Node25</title>
<path fill="none" stroke="midnightblue" d="M1406.8,-433.96C973.8,-377.24 856.15,-455.52 427,-398 424.11,-397.61 421.19,-397.18 418.24,-396.72"/>
<polygon fill="midnightblue" stroke="midnightblue" points="1406.39,-437.44 1416.76,-435.28 1407.31,-430.5 1406.39,-437.44"/>
</g>
<!-- Node26 -->
<g id="node26" class="node">
<title>Node26</title>
<g id="a_node26"><a xlink:href="string__constraint__generator__constants_8cpp.html" target="_top" xlink:title=" ">
<polygon fill="none" stroke="black" points="436,-345.5 436,-397.5 636,-397.5 636,-345.5 436,-345.5"/>
<text text-anchor="start" x="444" y="-385.5" font-family="Helvetica,sans-Serif" font-size="10.00">/home/runner/work/cbmc</text>
<text text-anchor="start" x="444" y="-374.5" font-family="Helvetica,sans-Serif" font-size="10.00">&#45;documentation/cbmc&#45;documentation</text>
<text text-anchor="start" x="444" y="-363.5" font-family="Helvetica,sans-Serif" font-size="10.00">/src/solvers/strings/string_constraint</text>
<text text-anchor="middle" x="536" y="-352.5" font-family="Helvetica,sans-Serif" font-size="10.00">_generator_constants.cpp</text>
</a>
</g>
</g>
<!-- Node13&#45;&gt;Node26 -->
<g id="edge31" class="edge">
<title>Node13&#45;&gt;Node26</title>
<path fill="none" stroke="midnightblue" d="M1406.72,-433.94C1069.97,-388.26 977.95,-444.4 645,-398 642.11,-397.6 639.19,-397.15 636.24,-396.68"/>
<polygon fill="midnightblue" stroke="midnightblue" points="1406.37,-437.43 1416.76,-435.32 1407.33,-430.49 1406.37,-437.43"/>
</g>
<!-- Node27 -->
<g id="node27" class="node">
<title>Node27</title>
<g id="a_node27"><a xlink:href="string__constraint__generator__float_8cpp.html" target="_top" xlink:title=" ">
<polygon fill="none" stroke="black" points="654,-345.5 654,-397.5 854,-397.5 854,-345.5 654,-345.5"/>
<text text-anchor="start" x="662" y="-385.5" font-family="Helvetica,sans-Serif" font-size="10.00">/home/runner/work/cbmc</text>
<text text-anchor="start" x="662" y="-374.5" font-family="Helvetica,sans-Serif" font-size="10.00">&#45;documentation/cbmc&#45;documentation</text>
<text text-anchor="start" x="662" y="-363.5" font-family="Helvetica,sans-Serif" font-size="10.00">/src/solvers/strings/string_constraint</text>
<text text-anchor="middle" x="754" y="-352.5" font-family="Helvetica,sans-Serif" font-size="10.00">_generator_float.cpp</text>
</a>
</g>
</g>
<!-- Node13&#45;&gt;Node27 -->
<g id="edge32" class="edge">
<title>Node13&#45;&gt;Node27</title>
<path fill="none" stroke="midnightblue" d="M1406.64,-433.91C1166.09,-399.19 1099.82,-433.28 863,-398 860.12,-397.57 857.2,-397.1 854.26,-396.61"/>
<polygon fill="midnightblue" stroke="midnightblue" points="1406.34,-437.4 1416.74,-435.39 1407.36,-430.48 1406.34,-437.4"/>
</g>
<!-- Node28 -->
<g id="node28" class="node">
<title>Node28</title>
<g id="a_node28"><a xlink:href="string__constraint__generator__indexof_8cpp.html" target="_top" xlink:title=" ">
<polygon fill="none" stroke="black" points="872,-345.5 872,-397.5 1072,-397.5 1072,-345.5 872,-345.5"/>
<text text-anchor="start" x="880" y="-385.5" font-family="Helvetica,sans-Serif" font-size="10.00">/home/runner/work/cbmc</text>
<text text-anchor="start" x="880" y="-374.5" font-family="Helvetica,sans-Serif" font-size="10.00">&#45;documentation/cbmc&#45;documentation</text>
<text text-anchor="start" x="880" y="-363.5" font-family="Helvetica,sans-Serif" font-size="10.00">/src/solvers/strings/string_constraint</text>
<text text-anchor="middle" x="972" y="-352.5" font-family="Helvetica,sans-Serif" font-size="10.00">_generator_indexof.cpp</text>
</a>
</g>
</g>
<!-- Node13&#45;&gt;Node28 -->
<g id="edge33" class="edge">
<title>Node13&#45;&gt;Node28</title>
<path fill="none" stroke="midnightblue" d="M1406.59,-433.85C1262.09,-409.88 1221.87,-422.14 1081,-398 1078.13,-397.51 1075.22,-396.99 1072.28,-396.44"/>
<polygon fill="midnightblue" stroke="midnightblue" points="1406.27,-437.35 1416.72,-435.56 1407.44,-430.45 1406.27,-437.35"/>
</g>
<!-- Node29 -->
<g id="node29" class="node">
<title>Node29</title>
<g id="a_node29"><a xlink:href="string__constraint__generator__main_8cpp.html" target="_top" xlink:title=" ">
<polygon fill="none" stroke="black" points="1090,-345.5 1090,-397.5 1290,-397.5 1290,-345.5 1090,-345.5"/>
<text text-anchor="start" x="1098" y="-385.5" font-family="Helvetica,sans-Serif" font-size="10.00">/home/runner/work/cbmc</text>
<text text-anchor="start" x="1098" y="-374.5" font-family="Helvetica,sans-Serif" font-size="10.00">&#45;documentation/cbmc&#45;documentation</text>
<text text-anchor="start" x="1098" y="-363.5" font-family="Helvetica,sans-Serif" font-size="10.00">/src/solvers/strings/string_constraint</text>
<text text-anchor="middle" x="1190" y="-352.5" font-family="Helvetica,sans-Serif" font-size="10.00">_generator_main.cpp</text>
</a>
</g>
</g>
<!-- Node13&#45;&gt;Node29 -->
<g id="edge34" class="edge">
<title>Node13&#45;&gt;Node29</title>
<path fill="none" stroke="midnightblue" d="M1413.03,-431.84C1371.65,-420.83 1324.38,-408.25 1284.04,-397.52"/>
<polygon fill="midnightblue" stroke="midnightblue" points="1412.29,-435.26 1422.86,-434.45 1414.09,-428.5 1412.29,-435.26"/>
</g>
<!-- Node30 -->
<g id="node30" class="node">
<title>Node30</title>
<g id="a_node30"><a xlink:href="string__constraint__generator__testing_8cpp.html" target="_top" xlink:title=" ">
<polygon fill="none" stroke="black" points="1308,-345.5 1308,-397.5 1508,-397.5 1508,-345.5 1308,-345.5"/>
<text text-anchor="start" x="1316" y="-385.5" font-family="Helvetica,sans-Serif" font-size="10.00">/home/runner/work/cbmc</text>
<text text-anchor="start" x="1316" y="-374.5" font-family="Helvetica,sans-Serif" font-size="10.00">&#45;documentation/cbmc&#45;documentation</text>
<text text-anchor="start" x="1316" y="-363.5" font-family="Helvetica,sans-Serif" font-size="10.00">/src/solvers/strings/string_constraint</text>
<text text-anchor="middle" x="1408" y="-352.5" font-family="Helvetica,sans-Serif" font-size="10.00">_generator_testing.cpp</text>
</a>
</g>
</g>
<!-- Node13&#45;&gt;Node30 -->
<g id="edge35" class="edge">
<title>Node13&#45;&gt;Node30</title>
<path fill="none" stroke="midnightblue" d="M1477.45,-427.93C1464.95,-417.96 1451.31,-407.07 1439.46,-397.61"/>
<polygon fill="midnightblue" stroke="midnightblue" points="1475.47,-430.83 1485.47,-434.34 1479.84,-425.36 1475.47,-430.83"/>
</g>
<!-- Node31 -->
<g id="node31" class="node">
<title>Node31</title>
<g id="a_node31"><a xlink:href="string__constraint__generator__transformation_8cpp.html" target="_top" xlink:title=" ">
<polygon fill="none" stroke="black" points="1526,-345.5 1526,-397.5 1726,-397.5 1726,-345.5 1526,-345.5"/>
<text text-anchor="start" x="1534" y="-385.5" font-family="Helvetica,sans-Serif" font-size="10.00">/home/runner/work/cbmc</text>
<text text-anchor="start" x="1534" y="-374.5" font-family="Helvetica,sans-Serif" font-size="10.00">&#45;documentation/cbmc&#45;documentation</text>
<text text-anchor="start" x="1534" y="-363.5" font-family="Helvetica,sans-Serif" font-size="10.00">/src/solvers/strings/string_constraint</text>
<text text-anchor="middle" x="1626" y="-352.5" font-family="Helvetica,sans-Serif" font-size="10.00">_generator_transformation.cpp</text>
</a>
</g>
</g>
<!-- Node13&#45;&gt;Node31 -->
<g id="edge36" class="edge">
<title>Node13&#45;&gt;Node31</title>
<path fill="none" stroke="midnightblue" d="M1556.55,-427.93C1569.05,-417.96 1582.69,-407.07 1594.54,-397.61"/>
<polygon fill="midnightblue" stroke="midnightblue" points="1554.16,-425.36 1548.53,-434.34 1558.53,-430.83 1554.16,-425.36"/>
</g>
<!-- Node32 -->
<g id="node32" class="node">
<title>Node32</title>
<g id="a_node32"><a xlink:href="string__constraint__generator__valueof_8cpp.html" target="_top" xlink:title=" ">
<polygon fill="none" stroke="black" points="1744,-345.5 1744,-397.5 1944,-397.5 1944,-345.5 1744,-345.5"/>
<text text-anchor="start" x="1752" y="-385.5" font-family="Helvetica,sans-Serif" font-size="10.00">/home/runner/work/cbmc</text>
<text text-anchor="start" x="1752" y="-374.5" font-family="Helvetica,sans-Serif" font-size="10.00">&#45;documentation/cbmc&#45;documentation</text>
<text text-anchor="start" x="1752" y="-363.5" font-family="Helvetica,sans-Serif" font-size="10.00">/src/solvers/strings/string_constraint</text>
<text text-anchor="middle" x="1844" y="-352.5" font-family="Helvetica,sans-Serif" font-size="10.00">_generator_valueof.cpp</text>
</a>
</g>
</g>
<!-- Node13&#45;&gt;Node32 -->
<g id="edge37" class="edge">
<title>Node13&#45;&gt;Node32</title>
<path fill="none" stroke="midnightblue" d="M1620.97,-431.84C1662.35,-420.83 1709.62,-408.25 1749.96,-397.52"/>
<polygon fill="midnightblue" stroke="midnightblue" points="1619.91,-428.5 1611.14,-434.45 1621.71,-435.26 1619.91,-428.5"/>
</g>
<!-- Node15 -->
<g id="node15" class="node">
<title>Node15</title>
<g id="a_node15"><a xlink:href="string__dependencies_8h.html" target="_top" xlink:title=" ">
<polygon fill="none" stroke="black" points="1805.5,-262 1805.5,-303 2026.5,-303 2026.5,-262 1805.5,-262"/>
<text text-anchor="start" x="1813.5" y="-291" font-family="Helvetica,sans-Serif" font-size="10.00">/home/runner/work/cbmc</text>
<text text-anchor="start" x="1813.5" y="-280" font-family="Helvetica,sans-Serif" font-size="10.00">&#45;documentation/cbmc&#45;documentation</text>
<text text-anchor="middle" x="1916" y="-269" font-family="Helvetica,sans-Serif" font-size="10.00">/src/solvers/strings/string_dependencies.h</text>
</a>
</g>
</g>
<!-- Node14&#45;&gt;Node15 -->
<g id="edge15" class="edge">
<title>Node14&#45;&gt;Node15</title>
<path fill="none" stroke="midnightblue" d="M2011.1,-340.17C1990.46,-327.87 1967.21,-314.01 1948.86,-303.08"/>
<polygon fill="midnightblue" stroke="midnightblue" points="2009.39,-343.22 2019.77,-345.34 2012.97,-337.21 2009.39,-343.22"/>
</g>
<!-- Node14&#45;&gt;Node17 -->
<g id="edge19" class="edge">
<title>Node14&#45;&gt;Node17</title>
<path fill="none" stroke="midnightblue" d="M2092.93,-338.08C2102.23,-328.34 2112.28,-317.8 2121.05,-308.61"/>
<polygon fill="midnightblue" stroke="midnightblue" points="2090.38,-335.68 2086.01,-345.34 2095.44,-340.52 2090.38,-335.68"/>
</g>
<!-- Node18 -->
<g id="node18" class="node">
<title>Node18</title>
<g id="a_node18"><a xlink:href="string__insertion__builtin__function_8h.html" target="_top" xlink:title=" ">
<polygon fill="none" stroke="black" points="1369,-256.5 1369,-308.5 1569,-308.5 1569,-256.5 1369,-256.5"/>
<text text-anchor="start" x="1377" y="-296.5" font-family="Helvetica,sans-Serif" font-size="10.00">/home/runner/work/cbmc</text>
<text text-anchor="start" x="1377" y="-285.5" font-family="Helvetica,sans-Serif" font-size="10.00">&#45;documentation/cbmc&#45;documentation</text>
<text text-anchor="start" x="1377" y="-274.5" font-family="Helvetica,sans-Serif" font-size="10.00">/src/solvers/strings/string_insertion</text>
<text text-anchor="middle" x="1469" y="-263.5" font-family="Helvetica,sans-Serif" font-size="10.00">_builtin_function.h</text>
</a>
</g>
</g>
<!-- Node14&#45;&gt;Node18 -->
<g id="edge20" class="edge">
<title>Node14&#45;&gt;Node18</title>
<path fill="none" stroke="midnightblue" d="M1951.68,-344.88C1785.99,-318.56 1739.99,-335.6 1578,-309 1575.12,-308.53 1572.21,-308.02 1569.27,-307.49"/>
<polygon fill="midnightblue" stroke="midnightblue" points="1951.3,-348.37 1961.73,-346.51 1952.41,-341.46 1951.3,-348.37"/>
</g>
<!-- Node22 -->
<g id="node22" class="node">
<title>Node22</title>
<g id="a_node22"><a xlink:href="string__format__builtin__function_8h.html" target="_top" xlink:title=" ">
<polygon fill="none" stroke="black" points="1587,-256.5 1587,-308.5 1787,-308.5 1787,-256.5 1587,-256.5"/>
<text text-anchor="start" x="1595" y="-296.5" font-family="Helvetica,sans-Serif" font-size="10.00">/home/runner/work/cbmc</text>
<text text-anchor="start" x="1595" y="-285.5" font-family="Helvetica,sans-Serif" font-size="10.00">&#45;documentation/cbmc&#45;documentation</text>
<text text-anchor="start" x="1595" y="-274.5" font-family="Helvetica,sans-Serif" font-size="10.00">/src/solvers/strings/string_format</text>
<text text-anchor="middle" x="1687" y="-263.5" font-family="Helvetica,sans-Serif" font-size="10.00">_builtin_function.h</text>
</a>
</g>
</g>
<!-- Node14&#45;&gt;Node22 -->
<g id="edge25" class="edge">
<title>Node14&#45;&gt;Node22</title>
<path fill="none" stroke="midnightblue" d="M1952.11,-344.8C1881.66,-328.51 1862.75,-324.46 1796,-309 1793.07,-308.32 1790.09,-307.63 1787.08,-306.93"/>
<polygon fill="midnightblue" stroke="midnightblue" points="1951.39,-348.22 1961.92,-347.07 1952.97,-341.4 1951.39,-348.22"/>
</g>
<!-- Node15&#45;&gt;Node2 -->
<g id="edge16" class="edge">
<title>Node15&#45;&gt;Node2</title>
<path fill="none" stroke="midnightblue" d="M2005.93,-259.59C2063.43,-245.57 2137.35,-227.56 2192.84,-214.03"/>
<polygon fill="midnightblue" stroke="midnightblue" points="2005,-256.21 1996.12,-261.98 2006.66,-263.01 2005,-256.21"/>
</g>
<!-- Node15&#45;&gt;Node8 -->
<g id="edge18" class="edge">
<title>Node15&#45;&gt;Node8</title>
<path fill="none" stroke="midnightblue" d="M1922.85,-251.88C1925.16,-241.77 1927.73,-230.4 1930,-220 1937.24,-186.86 1945.25,-148.23 1949.94,-125.38"/>
<polygon fill="midnightblue" stroke="midnightblue" points="1919.39,-251.32 1920.56,-261.85 1926.21,-252.89 1919.39,-251.32"/>
</g>
<!-- Node16 -->
<g id="node16" class="node">
<title>Node16</title>
<g id="a_node16"><a xlink:href="string__dependencies_8cpp.html" target="_top" xlink:title=" ">
<polygon fill="none" stroke="black" points="1569,-84 1569,-125 1801,-125 1801,-84 1569,-84"/>
<text text-anchor="start" x="1577" y="-113" font-family="Helvetica,sans-Serif" font-size="10.00">/home/runner/work/cbmc</text>
<text text-anchor="start" x="1577" y="-102" font-family="Helvetica,sans-Serif" font-size="10.00">&#45;documentation/cbmc&#45;documentation</text>
<text text-anchor="middle" x="1685" y="-91" font-family="Helvetica,sans-Serif" font-size="10.00">/src/solvers/strings/string_dependencies.cpp</text>
</a>
</g>
</g>
<!-- Node15&#45;&gt;Node16 -->
<g id="edge17" class="edge">
<title>Node15&#45;&gt;Node16</title>
<path fill="none" stroke="midnightblue" d="M1919.21,-251.62C1920.24,-226.09 1917.38,-189.93 1897,-167 1881.95,-150.06 1835.57,-135.65 1790.02,-125.04"/>
<polygon fill="midnightblue" stroke="midnightblue" points="1915.7,-251.65 1918.57,-261.85 1922.69,-252.09 1915.7,-251.65"/>
</g>
<!-- Node19 -->
<g id="node19" class="node">
<title>Node19</title>
<g id="a_node19"><a xlink:href="string__concatenation__builtin__function_8h.html" target="_top" xlink:title=" ">
<polygon fill="none" stroke="black" points="1390.5,-167.5 1390.5,-219.5 1603.5,-219.5 1603.5,-167.5 1390.5,-167.5"/>
<text text-anchor="start" x="1398.5" y="-207.5" font-family="Helvetica,sans-Serif" font-size="10.00">/home/runner/work/cbmc</text>
<text text-anchor="start" x="1398.5" y="-196.5" font-family="Helvetica,sans-Serif" font-size="10.00">&#45;documentation/cbmc&#45;documentation</text>
<text text-anchor="start" x="1398.5" y="-185.5" font-family="Helvetica,sans-Serif" font-size="10.00">/src/solvers/strings/string_concatenation</text>
<text text-anchor="middle" x="1497" y="-174.5" font-family="Helvetica,sans-Serif" font-size="10.00">_builtin_function.h</text>
</a>
</g>
</g>
<!-- Node18&#45;&gt;Node19 -->
<g id="edge21" class="edge">
<title>Node18&#45;&gt;Node19</title>
<path fill="none" stroke="midnightblue" d="M1480.18,-246.77C1483.1,-237.69 1486.19,-228.08 1488.92,-219.61"/>
<polygon fill="midnightblue" stroke="midnightblue" points="1476.83,-245.74 1477.1,-256.34 1483.49,-247.89 1476.83,-245.74"/>
</g>
<!-- Node21 -->
<g id="node21" class="node">
<title>Node21</title>
<g id="a_node21"><a xlink:href="string__insertion__builtin__function_8cpp.html" target="_top" xlink:title=" ">
<polygon fill="none" stroke="black" points="1172,-167.5 1172,-219.5 1372,-219.5 1372,-167.5 1172,-167.5"/>
<text text-anchor="start" x="1180" y="-207.5" font-family="Helvetica,sans-Serif" font-size="10.00">/home/runner/work/cbmc</text>
<text text-anchor="start" x="1180" y="-196.5" font-family="Helvetica,sans-Serif" font-size="10.00">&#45;documentation/cbmc&#45;documentation</text>
<text text-anchor="start" x="1180" y="-185.5" font-family="Helvetica,sans-Serif" font-size="10.00">/src/solvers/strings/string_insertion</text>
<text text-anchor="middle" x="1272" y="-174.5" font-family="Helvetica,sans-Serif" font-size="10.00">_builtin_function.cpp</text>
</a>
</g>
</g>
<!-- Node18&#45;&gt;Node21 -->
<g id="edge24" class="edge">
<title>Node18&#45;&gt;Node21</title>
<path fill="none" stroke="midnightblue" d="M1402.87,-252.29C1378.8,-241.67 1351.83,-229.76 1328.66,-219.52"/>
<polygon fill="midnightblue" stroke="midnightblue" points="1401.72,-255.61 1412.28,-256.45 1404.55,-249.21 1401.72,-255.61"/>
</g>
<!-- Node19&#45;&gt;Node16 -->
<g id="edge23" class="edge">
<title>Node19&#45;&gt;Node16</title>
<path fill="none" stroke="midnightblue" d="M1560.51,-163.11C1587.55,-150.59 1618.37,-136.34 1642.57,-125.13"/>
<polygon fill="midnightblue" stroke="midnightblue" points="1558.73,-160.08 1551.13,-167.45 1561.67,-166.43 1558.73,-160.08"/>
</g>
<!-- Node20 -->
<g id="node20" class="node">
<title>Node20</title>
<g id="a_node20"><a xlink:href="string__concatenation__builtin__function_8cpp.html" target="_top" xlink:title=" ">
<polygon fill="none" stroke="black" points="1338.5,-78.5 1338.5,-130.5 1551.5,-130.5 1551.5,-78.5 1338.5,-78.5"/>
<text text-anchor="start" x="1346.5" y="-118.5" font-family="Helvetica,sans-Serif" font-size="10.00">/home/runner/work/cbmc</text>
<text text-anchor="start" x="1346.5" y="-107.5" font-family="Helvetica,sans-Serif" font-size="10.00">&#45;documentation/cbmc&#45;documentation</text>
<text text-anchor="start" x="1346.5" y="-96.5" font-family="Helvetica,sans-Serif" font-size="10.00">/src/solvers/strings/string_concatenation</text>
<text text-anchor="middle" x="1445" y="-85.5" font-family="Helvetica,sans-Serif" font-size="10.00">_builtin_function.cpp</text>
</a>
</g>
</g>
<!-- Node19&#45;&gt;Node20 -->
<g id="edge22" class="edge">
<title>Node19&#45;&gt;Node20</title>
<path fill="none" stroke="midnightblue" d="M1476.76,-158.64C1471.18,-149.31 1465.23,-139.35 1460.01,-130.61"/>
<polygon fill="midnightblue" stroke="midnightblue" points="1473.82,-160.55 1481.96,-167.34 1479.83,-156.96 1473.82,-160.55"/>
</g>
<!-- Node22&#45;&gt;Node16 -->
<g id="edge26" class="edge">
<title>Node22&#45;&gt;Node16</title>
<path fill="none" stroke="midnightblue" d="M1681.63,-246.33C1680.54,-237.74 1679.55,-228.56 1679,-220 1677.48,-196.49 1677.86,-190.53 1679,-167 1679.68,-152.96 1681.24,-137.19 1682.59,-125.13"/>
<polygon fill="midnightblue" stroke="midnightblue" points="1678.19,-247 1682.99,-256.44 1685.12,-246.06 1678.19,-247"/>
</g>
<!-- Node23 -->
<g id="node23" class="node">
<title>Node23</title>
<g id="a_node23"><a xlink:href="string__format__builtin__function_8cpp.html" target="_top" xlink:title=" ">
<polygon fill="none" stroke="black" points="1688,-167.5 1688,-219.5 1888,-219.5 1888,-167.5 1688,-167.5"/>
<text text-anchor="start" x="1696" y="-207.5" font-family="Helvetica,sans-Serif" font-size="10.00">/home/runner/work/cbmc</text>
<text text-anchor="start" x="1696" y="-196.5" font-family="Helvetica,sans-Serif" font-size="10.00">&#45;documentation/cbmc&#45;documentation</text>
<text text-anchor="start" x="1696" y="-185.5" font-family="Helvetica,sans-Serif" font-size="10.00">/src/solvers/strings/string_format</text>
<text text-anchor="middle" x="1788" y="-174.5" font-family="Helvetica,sans-Serif" font-size="10.00">_builtin_function.cpp</text>
</a>
</g>
</g>
<!-- Node22&#45;&gt;Node23 -->
<g id="edge27" class="edge">
<title>Node22&#45;&gt;Node23</title>
<path fill="none" stroke="midnightblue" d="M1723.98,-249.65C1735.47,-239.75 1747.97,-228.98 1758.85,-219.61"/>
<polygon fill="midnightblue" stroke="midnightblue" points="1721.51,-247.16 1716.21,-256.34 1726.07,-252.46 1721.51,-247.16"/>
</g>
<!-- Node33&#45;&gt;Node2 -->
<g id="edge39" class="edge">
<title>Node33&#45;&gt;Node2</title>
<path fill="none" stroke="midnightblue" d="M2374.37,-256.61C2352.44,-243.17 2325.74,-226.81 2305.25,-214.26"/>
<polygon fill="midnightblue" stroke="midnightblue" points="2372.78,-259.74 2383.13,-261.98 2376.43,-253.77 2372.78,-259.74"/>
</g>
<!-- Node33&#45;&gt;Node23 -->
<g id="edge40" class="edge">
<title>Node33&#45;&gt;Node23</title>
<path fill="none" stroke="midnightblue" d="M2291.12,-261.55C2278.58,-259.63 2266.04,-257.75 2254,-256 2128.02,-237.71 1982.53,-218.88 1888.1,-206.95"/>
<polygon fill="midnightblue" stroke="midnightblue" points="2290.74,-265.03 2301.15,-263.09 2291.8,-258.11 2290.74,-265.03"/>
</g>
<!-- Node34 -->
<g id="node34" class="node">
<title>Node34</title>
<g id="a_node34"><a xlink:href="string__refinement__util_8cpp.html" target="_top" xlink:title=" ">
<polygon fill="none" stroke="black" points="2394.5,-173 2394.5,-214 2633.5,-214 2633.5,-173 2394.5,-173"/>
<text text-anchor="start" x="2402.5" y="-202" font-family="Helvetica,sans-Serif" font-size="10.00">/home/runner/work/cbmc</text>
<text text-anchor="start" x="2402.5" y="-191" font-family="Helvetica,sans-Serif" font-size="10.00">&#45;documentation/cbmc&#45;documentation</text>
<text text-anchor="middle" x="2514" y="-180" font-family="Helvetica,sans-Serif" font-size="10.00">/src/solvers/strings/string_refinement_util.cpp</text>
</a>
</g>
</g>
<!-- Node33&#45;&gt;Node34 -->
<g id="edge41" class="edge">
<title>Node33&#45;&gt;Node34</title>
<path fill="none" stroke="midnightblue" d="M2445.01,-255.13C2460.01,-241.95 2477.84,-226.27 2491.62,-214.16"/>
<polygon fill="midnightblue" stroke="midnightblue" points="2442.67,-252.53 2437.46,-261.76 2447.29,-257.79 2442.67,-252.53"/>
</g>
</g>
</svg>
