<?xml version="1.0" encoding="UTF-8" standalone="no"?>
<!DOCTYPE svg PUBLIC "-//W3C//DTD SVG 1.1//EN"
 "http://www.w3.org/Graphics/SVG/1.1/DTD/svg11.dtd">
<!-- Generated by graphviz version 2.43.0 (0)
 -->
<!-- Title: /home/runner/work/cbmc&#45;documentation/cbmc&#45;documentation/unit/testing&#45;utils/use_catch.h Pages: 1 -->
<svg width="2170pt" height="217pt"
 viewBox="0.00 0.00 2170.00 217.00" xmlns="http://www.w3.org/2000/svg" xmlns:xlink="http://www.w3.org/1999/xlink">
<g id="graph0" class="graph" transform="scale(1 1) rotate(0) translate(4 213)">
<title>/home/runner/work/cbmc&#45;documentation/cbmc&#45;documentation/unit/testing&#45;utils/use_catch.h</title>
<!-- Node1 -->
<g id="node1" class="node">
<title>Node1</title>
<g id="a_node1"><a xlink:title=" ">
<polygon fill="#bfbfbf" stroke="black" points="981,-167.5 981,-208.5 1181,-208.5 1181,-167.5 981,-167.5"/>
<text text-anchor="start" x="989" y="-196.5" font-family="Helvetica,sans-Serif" font-size="10.00">/home/runner/work/cbmc</text>
<text text-anchor="start" x="989" y="-185.5" font-family="Helvetica,sans-Serif" font-size="10.00">&#45;documentation/cbmc&#45;documentation</text>
<text text-anchor="middle" x="1081" y="-174.5" font-family="Helvetica,sans-Serif" font-size="10.00">/unit/testing&#45;utils/use_catch.h</text>
</a>
</g>
</g>
<!-- Node2 -->
<g id="node2" class="node">
<title>Node2</title>
<g id="a_node2"><a xlink:href="load__java__class_8cpp.html" target="_top" xlink:title=" ">
<polygon fill="none" stroke="black" points="0,-78.5 0,-130.5 200,-130.5 200,-78.5 0,-78.5"/>
<text text-anchor="start" x="8" y="-118.5" font-family="Helvetica,sans-Serif" font-size="10.00">/home/runner/work/cbmc</text>
<text text-anchor="start" x="8" y="-107.5" font-family="Helvetica,sans-Serif" font-size="10.00">&#45;documentation/cbmc&#45;documentation</text>
<text text-anchor="start" x="8" y="-96.5" font-family="Helvetica,sans-Serif" font-size="10.00">/jbmc/unit/java&#45;testing&#45;utils</text>
<text text-anchor="middle" x="100" y="-85.5" font-family="Helvetica,sans-Serif" font-size="10.00">/load_java_class.cpp</text>
</a>
</g>
</g>
<!-- Node1&#45;&gt;Node2 -->
<g id="edge1" class="edge">
<title>Node1&#45;&gt;Node2</title>
<path fill="none" stroke="midnightblue" d="M970.49,-185.75C804.36,-182.57 480.74,-171.23 209,-131 206.12,-130.57 203.2,-130.11 200.25,-129.61"/>
<polygon fill="midnightblue" stroke="midnightblue" points="970.65,-189.26 980.72,-185.94 970.78,-182.26 970.65,-189.26"/>
</g>
<!-- Node3 -->
<g id="node3" class="node">
<title>Node3</title>
<g id="a_node3"><a xlink:href="require__goto__statements_8cpp.html" target="_top" xlink:title=" ">
<polygon fill="none" stroke="black" points="218,-78.5 218,-130.5 418,-130.5 418,-78.5 218,-78.5"/>
<text text-anchor="start" x="226" y="-118.5" font-family="Helvetica,sans-Serif" font-size="10.00">/home/runner/work/cbmc</text>
<text text-anchor="start" x="226" y="-107.5" font-family="Helvetica,sans-Serif" font-size="10.00">&#45;documentation/cbmc&#45;documentation</text>
<text text-anchor="start" x="226" y="-96.5" font-family="Helvetica,sans-Serif" font-size="10.00">/jbmc/unit/java&#45;testing&#45;utils</text>
<text text-anchor="middle" x="318" y="-85.5" font-family="Helvetica,sans-Serif" font-size="10.00">/require_goto_statements.cpp</text>
</a>
</g>
</g>
<!-- Node1&#45;&gt;Node3 -->
<g id="edge2" class="edge">
<title>Node1&#45;&gt;Node3</title>
<path fill="none" stroke="midnightblue" d="M970.73,-182.42C840.25,-175.88 616.76,-161.16 427,-131 424.12,-130.54 421.21,-130.05 418.27,-129.53"/>
<polygon fill="midnightblue" stroke="midnightblue" points="970.58,-185.92 980.74,-182.92 970.92,-178.93 970.58,-185.92"/>
</g>
<!-- Node4 -->
<g id="node4" class="node">
<title>Node4</title>
<g id="a_node4"><a xlink:href="require__parse__tree_8cpp.html" target="_top" xlink:title=" ">
<polygon fill="none" stroke="black" points="436,-78.5 436,-130.5 636,-130.5 636,-78.5 436,-78.5"/>
<text text-anchor="start" x="444" y="-118.5" font-family="Helvetica,sans-Serif" font-size="10.00">/home/runner/work/cbmc</text>
<text text-anchor="start" x="444" y="-107.5" font-family="Helvetica,sans-Serif" font-size="10.00">&#45;documentation/cbmc&#45;documentation</text>
<text text-anchor="start" x="444" y="-96.5" font-family="Helvetica,sans-Serif" font-size="10.00">/jbmc/unit/java&#45;testing&#45;utils</text>
<text text-anchor="middle" x="536" y="-85.5" font-family="Helvetica,sans-Serif" font-size="10.00">/require_parse_tree.cpp</text>
</a>
</g>
</g>
<!-- Node1&#45;&gt;Node4 -->
<g id="edge3" class="edge">
<title>Node1&#45;&gt;Node4</title>
<path fill="none" stroke="midnightblue" d="M970.94,-176.01C882.5,-166.42 755.28,-150.93 645,-131 642.04,-130.46 639.03,-129.9 636,-129.31"/>
<polygon fill="midnightblue" stroke="midnightblue" points="970.67,-179.5 980.99,-177.09 971.42,-172.54 970.67,-179.5"/>
</g>
<!-- Node5 -->
<g id="node5" class="node">
<title>Node5</title>
<g id="a_node5"><a xlink:href="require__type_8cpp.html" target="_top" xlink:title=" ">
<polygon fill="none" stroke="black" points="654,-78.5 654,-130.5 854,-130.5 854,-78.5 654,-78.5"/>
<text text-anchor="start" x="662" y="-118.5" font-family="Helvetica,sans-Serif" font-size="10.00">/home/runner/work/cbmc</text>
<text text-anchor="start" x="662" y="-107.5" font-family="Helvetica,sans-Serif" font-size="10.00">&#45;documentation/cbmc&#45;documentation</text>
<text text-anchor="start" x="662" y="-96.5" font-family="Helvetica,sans-Serif" font-size="10.00">/jbmc/unit/java&#45;testing&#45;utils</text>
<text text-anchor="middle" x="754" y="-85.5" font-family="Helvetica,sans-Serif" font-size="10.00">/require_type.cpp</text>
</a>
</g>
</g>
<!-- Node1&#45;&gt;Node5 -->
<g id="edge4" class="edge">
<title>Node1&#45;&gt;Node5</title>
<path fill="none" stroke="midnightblue" d="M992.83,-165.03C949.99,-154.35 898.31,-141.47 854.01,-130.43"/>
<polygon fill="midnightblue" stroke="midnightblue" points="992.13,-168.46 1002.68,-167.48 993.82,-161.66 992.13,-168.46"/>
</g>
<!-- Node6 -->
<g id="node6" class="node">
<title>Node6</title>
<g id="a_node6"><a xlink:href="expr__query_8h.html" target="_top" xlink:title=" ">
<polygon fill="none" stroke="black" points="872,-84 872,-125 1072,-125 1072,-84 872,-84"/>
<text text-anchor="start" x="880" y="-113" font-family="Helvetica,sans-Serif" font-size="10.00">/home/runner/work/cbmc</text>
<text text-anchor="start" x="880" y="-102" font-family="Helvetica,sans-Serif" font-size="10.00">&#45;documentation/cbmc&#45;documentation</text>
<text text-anchor="middle" x="972" y="-91" font-family="Helvetica,sans-Serif" font-size="10.00">/unit/testing&#45;utils/expr_query.h</text>
</a>
</g>
</g>
<!-- Node1&#45;&gt;Node6 -->
<g id="edge5" class="edge">
<title>Node1&#45;&gt;Node6</title>
<path fill="none" stroke="midnightblue" d="M1046.52,-161.22C1030.91,-149.55 1012.76,-135.97 998.27,-125.14"/>
<polygon fill="midnightblue" stroke="midnightblue" points="1044.79,-164.29 1054.89,-167.48 1048.98,-158.69 1044.79,-164.29"/>
</g>
<!-- Node7 -->
<g id="node7" class="node">
<title>Node7</title>
<g id="a_node7"><a xlink:href="unit_2testing-utils_2invariant_8h.html" target="_top" xlink:title=" ">
<polygon fill="none" stroke="black" points="1090,-84 1090,-125 1290,-125 1290,-84 1090,-84"/>
<text text-anchor="start" x="1098" y="-113" font-family="Helvetica,sans-Serif" font-size="10.00">/home/runner/work/cbmc</text>
<text text-anchor="start" x="1098" y="-102" font-family="Helvetica,sans-Serif" font-size="10.00">&#45;documentation/cbmc&#45;documentation</text>
<text text-anchor="middle" x="1190" y="-91" font-family="Helvetica,sans-Serif" font-size="10.00">/unit/testing&#45;utils/invariant.h</text>
</a>
</g>
</g>
<!-- Node1&#45;&gt;Node7 -->
<g id="edge6" class="edge">
<title>Node1&#45;&gt;Node7</title>
<path fill="none" stroke="midnightblue" d="M1115.48,-161.22C1131.09,-149.55 1149.24,-135.97 1163.73,-125.14"/>
<polygon fill="midnightblue" stroke="midnightblue" points="1113.02,-158.69 1107.11,-167.48 1117.21,-164.29 1113.02,-158.69"/>
</g>
<!-- Node9 -->
<g id="node9" class="node">
<title>Node9</title>
<g id="a_node9"><a xlink:href="require__expr_8cpp.html" target="_top" xlink:title=" ">
<polygon fill="none" stroke="black" points="1308,-84 1308,-125 1508,-125 1508,-84 1308,-84"/>
<text text-anchor="start" x="1316" y="-113" font-family="Helvetica,sans-Serif" font-size="10.00">/home/runner/work/cbmc</text>
<text text-anchor="start" x="1316" y="-102" font-family="Helvetica,sans-Serif" font-size="10.00">&#45;documentation/cbmc&#45;documentation</text>
<text text-anchor="middle" x="1408" y="-91" font-family="Helvetica,sans-Serif" font-size="10.00">/unit/testing&#45;utils/require_expr.cpp</text>
</a>
</g>
</g>
<!-- Node1&#45;&gt;Node9 -->
<g id="edge8" class="edge">
<title>Node1&#45;&gt;Node9</title>
<path fill="none" stroke="midnightblue" d="M1169.17,-165.02C1219.25,-152.54 1281.4,-137.05 1329.75,-125"/>
<polygon fill="midnightblue" stroke="midnightblue" points="1168.18,-161.66 1159.32,-167.48 1169.87,-168.46 1168.18,-161.66"/>
</g>
<!-- Node10 -->
<g id="node10" class="node">
<title>Node10</title>
<g id="a_node10"><a xlink:href="require__symbol_8cpp.html" target="_top" xlink:title=" ">
<polygon fill="none" stroke="black" points="1526,-84 1526,-125 1726,-125 1726,-84 1526,-84"/>
<text text-anchor="start" x="1534" y="-113" font-family="Helvetica,sans-Serif" font-size="10.00">/home/runner/work/cbmc</text>
<text text-anchor="start" x="1534" y="-102" font-family="Helvetica,sans-Serif" font-size="10.00">&#45;documentation/cbmc&#45;documentation</text>
<text text-anchor="middle" x="1626" y="-91" font-family="Helvetica,sans-Serif" font-size="10.00">/unit/testing&#45;utils/require_symbol.cpp</text>
</a>
</g>
</g>
<!-- Node1&#45;&gt;Node10 -->
<g id="edge9" class="edge">
<title>Node1&#45;&gt;Node10</title>
<path fill="none" stroke="midnightblue" d="M1191.06,-176.01C1279.5,-166.42 1406.72,-150.93 1517,-131 1526.66,-129.25 1536.75,-127.21 1546.72,-125.04"/>
<polygon fill="midnightblue" stroke="midnightblue" points="1190.58,-172.54 1181.01,-177.09 1191.33,-179.5 1190.58,-172.54"/>
</g>
<!-- Node11 -->
<g id="node11" class="node">
<title>Node11</title>
<g id="a_node11"><a xlink:href="require__vectors__equal__unordered_8h.html" target="_top" xlink:title=" ">
<polygon fill="none" stroke="black" points="1744,-78.5 1744,-130.5 1944,-130.5 1944,-78.5 1744,-78.5"/>
<text text-anchor="start" x="1752" y="-118.5" font-family="Helvetica,sans-Serif" font-size="10.00">/home/runner/work/cbmc</text>
<text text-anchor="start" x="1752" y="-107.5" font-family="Helvetica,sans-Serif" font-size="10.00">&#45;documentation/cbmc&#45;documentation</text>
<text text-anchor="start" x="1752" y="-96.5" font-family="Helvetica,sans-Serif" font-size="10.00">/unit/testing&#45;utils/require_vectors</text>
<text text-anchor="middle" x="1844" y="-85.5" font-family="Helvetica,sans-Serif" font-size="10.00">_equal_unordered.h</text>
</a>
</g>
</g>
<!-- Node1&#45;&gt;Node11 -->
<g id="edge10" class="edge">
<title>Node1&#45;&gt;Node11</title>
<path fill="none" stroke="midnightblue" d="M1191.27,-182.42C1321.75,-175.88 1545.24,-161.16 1735,-131 1737.88,-130.54 1740.79,-130.05 1743.73,-129.53"/>
<polygon fill="midnightblue" stroke="midnightblue" points="1191.08,-178.93 1181.26,-182.92 1191.42,-185.92 1191.08,-178.93"/>
</g>
<!-- Node12 -->
<g id="node12" class="node">
<title>Node12</title>
<g id="a_node12"><a xlink:href="unit_2testing-utils_2smt2irep_8h.html" target="_top" xlink:title=" ">
<polygon fill="none" stroke="black" points="1962,-84 1962,-125 2162,-125 2162,-84 1962,-84"/>
<text text-anchor="start" x="1970" y="-113" font-family="Helvetica,sans-Serif" font-size="10.00">/home/runner/work/cbmc</text>
<text text-anchor="start" x="1970" y="-102" font-family="Helvetica,sans-Serif" font-size="10.00">&#45;documentation/cbmc&#45;documentation</text>
<text text-anchor="middle" x="2062" y="-91" font-family="Helvetica,sans-Serif" font-size="10.00">/unit/testing&#45;utils/smt2irep.h</text>
</a>
</g>
</g>
<!-- Node1&#45;&gt;Node12 -->
<g id="edge11" class="edge">
<title>Node1&#45;&gt;Node12</title>
<path fill="none" stroke="midnightblue" d="M1191.51,-185.75C1357.64,-182.57 1681.26,-171.23 1953,-131 1963.67,-129.42 1974.84,-127.33 1985.78,-125.02"/>
<polygon fill="midnightblue" stroke="midnightblue" points="1191.22,-182.26 1181.28,-185.94 1191.35,-189.26 1191.22,-182.26"/>
</g>
<!-- Node8 -->
<g id="node8" class="node">
<title>Node8</title>
<g id="a_node8"><a xlink:href="unit_2testing-utils_2invariant_8cpp.html" target="_top" xlink:title=" ">
<polygon fill="none" stroke="black" points="1090,-0.5 1090,-41.5 1290,-41.5 1290,-0.5 1090,-0.5"/>
<text text-anchor="start" x="1098" y="-29.5" font-family="Helvetica,sans-Serif" font-size="10.00">/home/runner/work/cbmc</text>
<text text-anchor="start" x="1098" y="-18.5" font-family="Helvetica,sans-Serif" font-size="10.00">&#45;documentation/cbmc&#45;documentation</text>
<text text-anchor="middle" x="1190" y="-7.5" font-family="Helvetica,sans-Serif" font-size="10.00">/unit/testing&#45;utils/invariant.cpp</text>
</a>
</g>
</g>
<!-- Node7&#45;&gt;Node8 -->
<g id="edge7" class="edge">
<title>Node7&#45;&gt;Node8</title>
<path fill="none" stroke="midnightblue" d="M1190,-73.56C1190,-62.88 1190,-51.13 1190,-41.55"/>
<polygon fill="midnightblue" stroke="midnightblue" points="1186.5,-73.77 1190,-83.77 1193.5,-73.77 1186.5,-73.77"/>
</g>
<!-- Node13 -->
<g id="node13" class="node">
<title>Node13</title>
<g id="a_node13"><a xlink:href="unit_2testing-utils_2smt2irep_8cpp.html" target="_top" xlink:title=" ">
<polygon fill="none" stroke="black" points="1962,-0.5 1962,-41.5 2162,-41.5 2162,-0.5 1962,-0.5"/>
<text text-anchor="start" x="1970" y="-29.5" font-family="Helvetica,sans-Serif" font-size="10.00">/home/runner/work/cbmc</text>
<text text-anchor="start" x="1970" y="-18.5" font-family="Helvetica,sans-Serif" font-size="10.00">&#45;documentation/cbmc&#45;documentation</text>
<text text-anchor="middle" x="2062" y="-7.5" font-family="Helvetica,sans-Serif" font-size="10.00">/unit/testing&#45;utils/smt2irep.cpp</text>
</a>
</g>
</g>
<!-- Node12&#45;&gt;Node13 -->
<g id="edge12" class="edge">
<title>Node12&#45;&gt;Node13</title>
<path fill="none" stroke="midnightblue" d="M2062,-73.56C2062,-62.88 2062,-51.13 2062,-41.55"/>
<polygon fill="midnightblue" stroke="midnightblue" points="2058.5,-73.77 2062,-83.77 2065.5,-73.77 2058.5,-73.77"/>
</g>
</g>
</svg>
