<?xml version="1.0" encoding="UTF-8" standalone="no"?>
<!DOCTYPE svg PUBLIC "-//W3C//DTD SVG 1.1//EN"
 "http://www.w3.org/Graphics/SVG/1.1/DTD/svg11.dtd">
<!-- Generated by graphviz version 2.43.0 (0)
 -->
<!-- Title: /home/runner/work/cbmc&#45;documentation/cbmc&#45;documentation/src/pointer&#45;analysis/value_set.h Pages: 1 -->
<svg width="4692pt" height="662pt"
 viewBox="0.00 0.00 4692.00 662.00" xmlns="http://www.w3.org/2000/svg" xmlns:xlink="http://www.w3.org/1999/xlink">
<g id="graph0" class="graph" transform="scale(1 1) rotate(0) translate(4 658)">
<title>/home/runner/work/cbmc&#45;documentation/cbmc&#45;documentation/src/pointer&#45;analysis/value_set.h</title>
<!-- Node1 -->
<g id="node1" class="node">
<title>Node1</title>
<g id="a_node1"><a xlink:title=" ">
<polygon fill="#bfbfbf" stroke="black" points="4152,-612.5 4152,-653.5 4352,-653.5 4352,-612.5 4152,-612.5"/>
<text text-anchor="start" x="4160" y="-641.5" font-family="Helvetica,sans-Serif" font-size="10.00">/home/runner/work/cbmc</text>
<text text-anchor="start" x="4160" y="-630.5" font-family="Helvetica,sans-Serif" font-size="10.00">&#45;documentation/cbmc&#45;documentation</text>
<text text-anchor="middle" x="4252" y="-619.5" font-family="Helvetica,sans-Serif" font-size="10.00">/src/pointer&#45;analysis/value_set.h</text>
</a>
</g>
</g>
<!-- Node2 -->
<g id="node2" class="node">
<title>Node2</title>
<g id="a_node2"><a xlink:href="goto__state_8h.html" target="_top" xlink:title=" ">
<polygon fill="none" stroke="black" points="3804,-534.5 3804,-575.5 4004,-575.5 4004,-534.5 3804,-534.5"/>
<text text-anchor="start" x="3812" y="-563.5" font-family="Helvetica,sans-Serif" font-size="10.00">/home/runner/work/cbmc</text>
<text text-anchor="start" x="3812" y="-552.5" font-family="Helvetica,sans-Serif" font-size="10.00">&#45;documentation/cbmc&#45;documentation</text>
<text text-anchor="middle" x="3904" y="-541.5" font-family="Helvetica,sans-Serif" font-size="10.00">/src/goto&#45;symex/goto_state.h</text>
</a>
</g>
</g>
<!-- Node1&#45;&gt;Node2 -->
<g id="edge1" class="edge">
<title>Node1&#45;&gt;Node2</title>
<path fill="none" stroke="midnightblue" d="M4152.49,-610.27C4102.33,-599.31 4041.98,-586.13 3993.31,-575.51"/>
<polygon fill="midnightblue" stroke="midnightblue" points="4151.86,-613.71 4162.38,-612.43 4153.36,-606.88 4151.86,-613.71"/>
</g>
<!-- Node67 -->
<g id="node32" class="node">
<title>Node67</title>
<g id="a_node32"><a xlink:href="value__set__domain_8h.html" target="_top" xlink:title=" ">
<polygon fill="none" stroke="black" points="4030.5,-534.5 4030.5,-575.5 4247.5,-575.5 4247.5,-534.5 4030.5,-534.5"/>
<text text-anchor="start" x="4038.5" y="-563.5" font-family="Helvetica,sans-Serif" font-size="10.00">/home/runner/work/cbmc</text>
<text text-anchor="start" x="4038.5" y="-552.5" font-family="Helvetica,sans-Serif" font-size="10.00">&#45;documentation/cbmc&#45;documentation</text>
<text text-anchor="middle" x="4139" y="-541.5" font-family="Helvetica,sans-Serif" font-size="10.00">/src/pointer&#45;analysis/value_set_domain.h</text>
</a>
</g>
</g>
<!-- Node1&#45;&gt;Node67 -->
<g id="edge38" class="edge">
<title>Node1&#45;&gt;Node67</title>
<path fill="none" stroke="midnightblue" d="M4214.29,-606.64C4199.2,-596.49 4182.09,-584.98 4168,-575.51"/>
<polygon fill="midnightblue" stroke="midnightblue" points="4212.65,-609.75 4222.9,-612.43 4216.56,-603.94 4212.65,-609.75"/>
</g>
<!-- Node73 -->
<g id="node38" class="node">
<title>Node73</title>
<g id="a_node38"><a xlink:href="postcondition_8cpp.html" target="_top" xlink:title=" ">
<polygon fill="none" stroke="black" points="4266,-534.5 4266,-575.5 4466,-575.5 4466,-534.5 4266,-534.5"/>
<text text-anchor="start" x="4274" y="-563.5" font-family="Helvetica,sans-Serif" font-size="10.00">/home/runner/work/cbmc</text>
<text text-anchor="start" x="4274" y="-552.5" font-family="Helvetica,sans-Serif" font-size="10.00">&#45;documentation/cbmc&#45;documentation</text>
<text text-anchor="middle" x="4366" y="-541.5" font-family="Helvetica,sans-Serif" font-size="10.00">/src/goto&#45;symex/postcondition.cpp</text>
</a>
</g>
</g>
<!-- Node1&#45;&gt;Node73 -->
<g id="edge46" class="edge">
<title>Node1&#45;&gt;Node73</title>
<path fill="none" stroke="midnightblue" d="M4290.05,-606.64C4305.27,-596.49 4322.53,-584.98 4336.74,-575.51"/>
<polygon fill="midnightblue" stroke="midnightblue" points="4287.74,-603.97 4281.36,-612.43 4291.62,-609.79 4287.74,-603.97"/>
</g>
<!-- Node74 -->
<g id="node39" class="node">
<title>Node74</title>
<g id="a_node39"><a xlink:href="value__set_8cpp.html" target="_top" xlink:title=" ">
<polygon fill="none" stroke="black" points="4484,-534.5 4484,-575.5 4684,-575.5 4684,-534.5 4484,-534.5"/>
<text text-anchor="start" x="4492" y="-563.5" font-family="Helvetica,sans-Serif" font-size="10.00">/home/runner/work/cbmc</text>
<text text-anchor="start" x="4492" y="-552.5" font-family="Helvetica,sans-Serif" font-size="10.00">&#45;documentation/cbmc&#45;documentation</text>
<text text-anchor="middle" x="4584" y="-541.5" font-family="Helvetica,sans-Serif" font-size="10.00">/src/pointer&#45;analysis/value_set.cpp</text>
</a>
</g>
</g>
<!-- Node1&#45;&gt;Node74 -->
<g id="edge47" class="edge">
<title>Node1&#45;&gt;Node74</title>
<path fill="none" stroke="midnightblue" d="M4347.53,-610.13C4395.27,-599.2 4452.56,-586.09 4498.79,-575.51"/>
<polygon fill="midnightblue" stroke="midnightblue" points="4346.47,-606.78 4337.5,-612.43 4348.03,-613.61 4346.47,-606.78"/>
</g>
<!-- Node3 -->
<g id="node3" class="node">
<title>Node3</title>
<g id="a_node3"><a xlink:href="frame_8h.html" target="_top" xlink:title=" ">
<polygon fill="none" stroke="black" points="3659,-451 3659,-492 3859,-492 3859,-451 3659,-451"/>
<text text-anchor="start" x="3667" y="-480" font-family="Helvetica,sans-Serif" font-size="10.00">/home/runner/work/cbmc</text>
<text text-anchor="start" x="3667" y="-469" font-family="Helvetica,sans-Serif" font-size="10.00">&#45;documentation/cbmc&#45;documentation</text>
<text text-anchor="middle" x="3759" y="-458" font-family="Helvetica,sans-Serif" font-size="10.00">/src/goto&#45;symex/frame.h</text>
</a>
</g>
</g>
<!-- Node2&#45;&gt;Node3 -->
<g id="edge2" class="edge">
<title>Node2&#45;&gt;Node3</title>
<path fill="none" stroke="midnightblue" d="M3860.39,-529.49C3839.05,-517.49 3813.71,-503.25 3793.7,-492"/>
<polygon fill="midnightblue" stroke="midnightblue" points="3858.84,-532.63 3869.27,-534.48 3862.27,-526.53 3858.84,-532.63"/>
</g>
<!-- Node5 -->
<g id="node5" class="node">
<title>Node5</title>
<g id="a_node5"><a xlink:href="goto__symex__state_8h.html" target="_top" xlink:title=" ">
<polygon fill="none" stroke="black" points="3678,-273 3678,-314 3878,-314 3878,-273 3678,-273"/>
<text text-anchor="start" x="3686" y="-302" font-family="Helvetica,sans-Serif" font-size="10.00">/home/runner/work/cbmc</text>
<text text-anchor="start" x="3686" y="-291" font-family="Helvetica,sans-Serif" font-size="10.00">&#45;documentation/cbmc&#45;documentation</text>
<text text-anchor="middle" x="3778" y="-280" font-family="Helvetica,sans-Serif" font-size="10.00">/src/goto&#45;symex/goto_symex_state.h</text>
</a>
</g>
</g>
<!-- Node2&#45;&gt;Node5 -->
<g id="edge36" class="edge">
<title>Node2&#45;&gt;Node5</title>
<path fill="none" stroke="midnightblue" d="M3905.44,-524.33C3906.02,-483.2 3901.78,-408.06 3868,-356 3856.46,-338.22 3837.79,-324.23 3820.44,-314.11"/>
<polygon fill="midnightblue" stroke="midnightblue" points="3901.94,-524.41 3905.19,-534.5 3908.94,-524.59 3901.94,-524.41"/>
</g>
<!-- Node62 -->
<g id="node27" class="node">
<title>Node62</title>
<g id="a_node27"><a xlink:href="goto__state_8cpp.html" target="_top" xlink:title=" ">
<polygon fill="none" stroke="black" points="4337,-184 4337,-225 4537,-225 4537,-184 4337,-184"/>
<text text-anchor="start" x="4345" y="-213" font-family="Helvetica,sans-Serif" font-size="10.00">/home/runner/work/cbmc</text>
<text text-anchor="start" x="4345" y="-202" font-family="Helvetica,sans-Serif" font-size="10.00">&#45;documentation/cbmc&#45;documentation</text>
<text text-anchor="middle" x="4437" y="-191" font-family="Helvetica,sans-Serif" font-size="10.00">/src/goto&#45;symex/goto_state.cpp</text>
</a>
</g>
</g>
<!-- Node2&#45;&gt;Node62 -->
<g id="edge37" class="edge">
<title>Node2&#45;&gt;Node62</title>
<path fill="none" stroke="midnightblue" d="M3907.92,-524.1C3917.54,-451.04 3941.68,-269.22 3944,-267 4005.95,-207.77 4243.41,-244.79 4328,-231 4338.17,-229.34 4348.79,-227.28 4359.26,-225.05"/>
<polygon fill="midnightblue" stroke="midnightblue" points="3904.4,-524.08 3906.56,-534.45 3911.34,-524.99 3904.4,-524.08"/>
</g>
<!-- Node4 -->
<g id="node4" class="node">
<title>Node4</title>
<g id="a_node4"><a xlink:href="call__stack_8h.html" target="_top" xlink:title=" ">
<polygon fill="none" stroke="black" points="3659,-362 3659,-403 3859,-403 3859,-362 3659,-362"/>
<text text-anchor="start" x="3667" y="-391" font-family="Helvetica,sans-Serif" font-size="10.00">/home/runner/work/cbmc</text>
<text text-anchor="start" x="3667" y="-380" font-family="Helvetica,sans-Serif" font-size="10.00">&#45;documentation/cbmc&#45;documentation</text>
<text text-anchor="middle" x="3759" y="-369" font-family="Helvetica,sans-Serif" font-size="10.00">/src/goto&#45;symex/call_stack.h</text>
</a>
</g>
</g>
<!-- Node3&#45;&gt;Node4 -->
<g id="edge3" class="edge">
<title>Node3&#45;&gt;Node4</title>
<path fill="none" stroke="midnightblue" d="M3759,-440.44C3759,-428.1 3759,-414.16 3759,-403.16"/>
<polygon fill="midnightblue" stroke="midnightblue" points="3755.5,-440.76 3759,-450.76 3762.5,-440.76 3755.5,-440.76"/>
</g>
<!-- Node4&#45;&gt;Node5 -->
<g id="edge4" class="edge">
<title>Node4&#45;&gt;Node5</title>
<path fill="none" stroke="midnightblue" d="M3765.48,-351.81C3768.2,-339.38 3771.28,-325.27 3773.71,-314.16"/>
<polygon fill="midnightblue" stroke="midnightblue" points="3762.03,-351.24 3763.31,-361.76 3768.86,-352.74 3762.03,-351.24"/>
</g>
<!-- Node66 -->
<g id="node31" class="node">
<title>Node66</title>
<g id="a_node31"><a xlink:href="java__enum__static__init__unwind__handler_8cpp.html" target="_top" xlink:title=" ">
<polygon fill="none" stroke="black" points="3454.5,-267.5 3454.5,-319.5 3659.5,-319.5 3659.5,-267.5 3454.5,-267.5"/>
<text text-anchor="start" x="3462.5" y="-307.5" font-family="Helvetica,sans-Serif" font-size="10.00">/home/runner/work/cbmc</text>
<text text-anchor="start" x="3462.5" y="-296.5" font-family="Helvetica,sans-Serif" font-size="10.00">&#45;documentation/cbmc&#45;documentation</text>
<text text-anchor="start" x="3462.5" y="-285.5" font-family="Helvetica,sans-Serif" font-size="10.00">/jbmc/src/java_bytecode/java</text>
<text text-anchor="middle" x="3557" y="-274.5" font-family="Helvetica,sans-Serif" font-size="10.00">_enum_static_init_unwind_handler.cpp</text>
</a>
</g>
</g>
<!-- Node4&#45;&gt;Node66 -->
<g id="edge35" class="edge">
<title>Node4&#45;&gt;Node66</title>
<path fill="none" stroke="midnightblue" d="M3704.19,-357.89C3676.64,-346.03 3643.25,-331.65 3615.24,-319.58"/>
<polygon fill="midnightblue" stroke="midnightblue" points="3703.1,-361.23 3713.67,-361.98 3705.87,-354.81 3703.1,-361.23"/>
</g>
<!-- Node6 -->
<g id="node6" class="node">
<title>Node6</title>
<g id="a_node6"><a xlink:href="path__storage_8h.html" target="_top" xlink:title="Storage of symbolic execution paths to resume.">
<polygon fill="none" stroke="black" points="1389,-184 1389,-225 1589,-225 1589,-184 1389,-184"/>
<text text-anchor="start" x="1397" y="-213" font-family="Helvetica,sans-Serif" font-size="10.00">/home/runner/work/cbmc</text>
<text text-anchor="start" x="1397" y="-202" font-family="Helvetica,sans-Serif" font-size="10.00">&#45;documentation/cbmc&#45;documentation</text>
<text text-anchor="middle" x="1489" y="-191" font-family="Helvetica,sans-Serif" font-size="10.00">/src/goto&#45;symex/path_storage.h</text>
</a>
</g>
</g>
<!-- Node5&#45;&gt;Node6 -->
<g id="edge5" class="edge">
<title>Node5&#45;&gt;Node6</title>
<path fill="none" stroke="midnightblue" d="M3692.57,-270.95C3684.31,-269.39 3676.02,-268.03 3668,-267 3257.93,-214.22 1960.48,-206.73 1589.17,-205.67"/>
<polygon fill="midnightblue" stroke="midnightblue" points="3692.13,-274.43 3702.62,-272.94 3693.49,-267.56 3692.13,-274.43"/>
</g>
<!-- Node41 -->
<g id="node23" class="node">
<title>Node41</title>
<g id="a_node23"><a xlink:href="symex__complexity__limit__exceeded__action_8h.html" target="_top" xlink:title=" ">
<polygon fill="none" stroke="black" points="3199,-178.5 3199,-230.5 3399,-230.5 3399,-178.5 3199,-178.5"/>
<text text-anchor="start" x="3207" y="-218.5" font-family="Helvetica,sans-Serif" font-size="10.00">/home/runner/work/cbmc</text>
<text text-anchor="start" x="3207" y="-207.5" font-family="Helvetica,sans-Serif" font-size="10.00">&#45;documentation/cbmc&#45;documentation</text>
<text text-anchor="start" x="3207" y="-196.5" font-family="Helvetica,sans-Serif" font-size="10.00">/src/goto&#45;symex/symex_complexity</text>
<text text-anchor="middle" x="3299" y="-185.5" font-family="Helvetica,sans-Serif" font-size="10.00">_limit_exceeded_action.h</text>
</a>
</g>
</g>
<!-- Node5&#45;&gt;Node41 -->
<g id="edge26" class="edge">
<title>Node5&#45;&gt;Node41</title>
<path fill="none" stroke="midnightblue" d="M3687.18,-270.79C3680.7,-269.45 3674.26,-268.17 3668,-267 3555.48,-246.06 3525.6,-251.51 3413,-231 3408.41,-230.16 3403.73,-229.27 3399,-228.34"/>
<polygon fill="midnightblue" stroke="midnightblue" points="3686.86,-274.3 3697.37,-272.96 3688.32,-267.46 3686.86,-274.3"/>
</g>
<!-- Node60 -->
<g id="node25" class="node">
<title>Node60</title>
<g id="a_node25"><a xlink:href="complexity__limiter_8cpp.html" target="_top" xlink:title=" ">
<polygon fill="none" stroke="black" points="3258,-6 3258,-47 3468,-47 3468,-6 3258,-6"/>
<text text-anchor="start" x="3266" y="-35" font-family="Helvetica,sans-Serif" font-size="10.00">/home/runner/work/cbmc</text>
<text text-anchor="start" x="3266" y="-24" font-family="Helvetica,sans-Serif" font-size="10.00">&#45;documentation/cbmc&#45;documentation</text>
<text text-anchor="middle" x="3363" y="-13" font-family="Helvetica,sans-Serif" font-size="10.00">/src/goto&#45;symex/complexity_limiter.cpp</text>
</a>
</g>
</g>
<!-- Node5&#45;&gt;Node60 -->
<g id="edge29" class="edge">
<title>Node5&#45;&gt;Node60</title>
<path fill="none" stroke="midnightblue" d="M3686.57,-270.81C3680.29,-269.48 3674.06,-268.19 3668,-267 3618.96,-257.35 3483.07,-264.52 3446,-231 3397.54,-187.19 3436.22,-147.92 3408,-89 3400.74,-73.85 3389.61,-58.59 3380.24,-47.07"/>
<polygon fill="midnightblue" stroke="midnightblue" points="3685.92,-274.26 3696.44,-272.95 3687.4,-267.41 3685.92,-274.26"/>
</g>
<!-- Node61 -->
<g id="node26" class="node">
<title>Node61</title>
<g id="a_node26"><a xlink:href="field__sensitivity_8cpp.html" target="_top" xlink:title=" ">
<polygon fill="none" stroke="black" points="3455,-184 3455,-225 3655,-225 3655,-184 3455,-184"/>
<text text-anchor="start" x="3463" y="-213" font-family="Helvetica,sans-Serif" font-size="10.00">/home/runner/work/cbmc</text>
<text text-anchor="start" x="3463" y="-202" font-family="Helvetica,sans-Serif" font-size="10.00">&#45;documentation/cbmc&#45;documentation</text>
<text text-anchor="middle" x="3555" y="-191" font-family="Helvetica,sans-Serif" font-size="10.00">/src/goto&#45;symex/field_sensitivity.cpp</text>
</a>
</g>
</g>
<!-- Node5&#45;&gt;Node61 -->
<g id="edge30" class="edge">
<title>Node5&#45;&gt;Node61</title>
<path fill="none" stroke="midnightblue" d="M3718.25,-269.19C3682.95,-255.42 3638.76,-238.18 3605.26,-225.11"/>
<polygon fill="midnightblue" stroke="midnightblue" points="3717.37,-272.6 3727.95,-272.98 3719.91,-266.08 3717.37,-272.6"/>
</g>
<!-- Node5&#45;&gt;Node62 -->
<g id="edge31" class="edge">
<title>Node5&#45;&gt;Node62</title>
<path fill="none" stroke="midnightblue" d="M3883.43,-271.26C3892.73,-269.69 3902.02,-268.24 3911,-267 4095.26,-241.45 4144.29,-260.26 4328,-231 4338.27,-229.36 4349,-227.3 4359.57,-225.05"/>
<polygon fill="midnightblue" stroke="midnightblue" points="3882.6,-267.85 3873.34,-272.99 3883.78,-274.74 3882.6,-267.85"/>
</g>
<!-- Node63 -->
<g id="node28" class="node">
<title>Node63</title>
<g id="a_node28"><a xlink:href="goto__symex__state_8cpp.html" target="_top" xlink:title=" ">
<polygon fill="none" stroke="black" points="3673.5,-184 3673.5,-225 3882.5,-225 3882.5,-184 3673.5,-184"/>
<text text-anchor="start" x="3681.5" y="-213" font-family="Helvetica,sans-Serif" font-size="10.00">/home/runner/work/cbmc</text>
<text text-anchor="start" x="3681.5" y="-202" font-family="Helvetica,sans-Serif" font-size="10.00">&#45;documentation/cbmc&#45;documentation</text>
<text text-anchor="middle" x="3778" y="-191" font-family="Helvetica,sans-Serif" font-size="10.00">/src/goto&#45;symex/goto_symex_state.cpp</text>
</a>
</g>
</g>
<!-- Node5&#45;&gt;Node63 -->
<g id="edge32" class="edge">
<title>Node5&#45;&gt;Node63</title>
<path fill="none" stroke="midnightblue" d="M3778,-262.44C3778,-250.1 3778,-236.16 3778,-225.16"/>
<polygon fill="midnightblue" stroke="midnightblue" points="3774.5,-262.76 3778,-272.76 3781.5,-262.76 3774.5,-262.76"/>
</g>
<!-- Node64 -->
<g id="node29" class="node">
<title>Node64</title>
<g id="a_node29"><a xlink:href="renaming__level_8cpp.html" target="_top" xlink:title=" ">
<polygon fill="none" stroke="black" points="3901,-184 3901,-225 4101,-225 4101,-184 3901,-184"/>
<text text-anchor="start" x="3909" y="-213" font-family="Helvetica,sans-Serif" font-size="10.00">/home/runner/work/cbmc</text>
<text text-anchor="start" x="3909" y="-202" font-family="Helvetica,sans-Serif" font-size="10.00">&#45;documentation/cbmc&#45;documentation</text>
<text text-anchor="middle" x="4001" y="-191" font-family="Helvetica,sans-Serif" font-size="10.00">/src/goto&#45;symex/renaming_level.cpp</text>
</a>
</g>
</g>
<!-- Node5&#45;&gt;Node64 -->
<g id="edge33" class="edge">
<title>Node5&#45;&gt;Node64</title>
<path fill="none" stroke="midnightblue" d="M3837.75,-269.19C3873.05,-255.42 3917.24,-238.18 3950.74,-225.11"/>
<polygon fill="midnightblue" stroke="midnightblue" points="3836.09,-266.08 3828.05,-272.98 3838.63,-272.6 3836.09,-266.08"/>
</g>
<!-- Node65 -->
<g id="node30" class="node">
<title>Node65</title>
<g id="a_node30"><a xlink:href="symex__assign_8cpp.html" target="_top" xlink:title=" ">
<polygon fill="none" stroke="black" points="4119,-184 4119,-225 4319,-225 4319,-184 4119,-184"/>
<text text-anchor="start" x="4127" y="-213" font-family="Helvetica,sans-Serif" font-size="10.00">/home/runner/work/cbmc</text>
<text text-anchor="start" x="4127" y="-202" font-family="Helvetica,sans-Serif" font-size="10.00">&#45;documentation/cbmc&#45;documentation</text>
<text text-anchor="middle" x="4219" y="-191" font-family="Helvetica,sans-Serif" font-size="10.00">/src/goto&#45;symex/symex_assign.cpp</text>
</a>
</g>
</g>
<!-- Node5&#45;&gt;Node65 -->
<g id="edge34" class="edge">
<title>Node5&#45;&gt;Node65</title>
<path fill="none" stroke="midnightblue" d="M3888.05,-271.31C3895.81,-269.84 3903.52,-268.39 3911,-267 3999.36,-250.54 4021.99,-249.24 4110,-231 4118.94,-229.15 4128.28,-227.11 4137.56,-225.03"/>
<polygon fill="midnightblue" stroke="midnightblue" points="3887.37,-267.87 3878.2,-273.17 3888.67,-274.75 3887.37,-267.87"/>
</g>
<!-- Node7 -->
<g id="node7" class="node">
<title>Node7</title>
<g id="a_node7"><a xlink:href="multi__path__symex__only__checker_8h.html" target="_top" xlink:title=" ">
<polygon fill="none" stroke="red" points="0,-89.5 0,-141.5 200,-141.5 200,-89.5 0,-89.5"/>
<text text-anchor="start" x="8" y="-129.5" font-family="Helvetica,sans-Serif" font-size="10.00">/home/runner/work/cbmc</text>
<text text-anchor="start" x="8" y="-118.5" font-family="Helvetica,sans-Serif" font-size="10.00">&#45;documentation/cbmc&#45;documentation</text>
<text text-anchor="start" x="8" y="-107.5" font-family="Helvetica,sans-Serif" font-size="10.00">/src/goto&#45;checker/multi_path</text>
<text text-anchor="middle" x="100" y="-96.5" font-family="Helvetica,sans-Serif" font-size="10.00">_symex_only_checker.h</text>
</a>
</g>
</g>
<!-- Node6&#45;&gt;Node7 -->
<g id="edge6" class="edge">
<title>Node6&#45;&gt;Node7</title>
<path fill="none" stroke="midnightblue" d="M1378.84,-200.62C1112.2,-193.26 437.61,-172.17 214,-142 209.48,-141.39 204.87,-140.69 200.23,-139.92"/>
<polygon fill="midnightblue" stroke="midnightblue" points="1378.83,-204.12 1388.92,-200.9 1379.02,-197.12 1378.83,-204.12"/>
</g>
<!-- Node9 -->
<g id="node8" class="node">
<title>Node9</title>
<g id="a_node8"><a xlink:href="cbmc__parse__options_8cpp.html" target="_top" xlink:title=" ">
<polygon fill="none" stroke="black" points="224,-6 224,-47 424,-47 424,-6 224,-6"/>
<text text-anchor="start" x="232" y="-35" font-family="Helvetica,sans-Serif" font-size="10.00">/home/runner/work/cbmc</text>
<text text-anchor="start" x="232" y="-24" font-family="Helvetica,sans-Serif" font-size="10.00">&#45;documentation/cbmc&#45;documentation</text>
<text text-anchor="middle" x="324" y="-13" font-family="Helvetica,sans-Serif" font-size="10.00">/src/cbmc/cbmc_parse_options.cpp</text>
</a>
</g>
</g>
<!-- Node6&#45;&gt;Node9 -->
<g id="edge13" class="edge">
<title>Node6&#45;&gt;Node9</title>
<path fill="none" stroke="midnightblue" d="M1378.61,-202.11C1081.68,-197.85 285.7,-182.67 247,-142 230.76,-124.94 236.79,-110.23 247,-89 255.46,-71.42 271.65,-57.31 287.01,-47.05"/>
<polygon fill="midnightblue" stroke="midnightblue" points="1378.91,-205.62 1388.96,-202.26 1379.01,-198.62 1378.91,-205.62"/>
</g>
<!-- Node16 -->
<g id="node9" class="node">
<title>Node16</title>
<g id="a_node9"><a xlink:href="single__loop__incremental__symex__checker_8h.html" target="_top" xlink:title=" ">
<polygon fill="none" stroke="red" points="256,-89.5 256,-141.5 456,-141.5 456,-89.5 256,-89.5"/>
<text text-anchor="start" x="264" y="-129.5" font-family="Helvetica,sans-Serif" font-size="10.00">/home/runner/work/cbmc</text>
<text text-anchor="start" x="264" y="-118.5" font-family="Helvetica,sans-Serif" font-size="10.00">&#45;documentation/cbmc&#45;documentation</text>
<text text-anchor="start" x="264" y="-107.5" font-family="Helvetica,sans-Serif" font-size="10.00">/src/goto&#45;checker/single_loop</text>
<text text-anchor="middle" x="356" y="-96.5" font-family="Helvetica,sans-Serif" font-size="10.00">_incremental_symex_checker.h</text>
</a>
</g>
</g>
<!-- Node6&#45;&gt;Node16 -->
<g id="edge8" class="edge">
<title>Node6&#45;&gt;Node16</title>
<path fill="none" stroke="midnightblue" d="M1378.67,-203C1190.32,-200.77 795.09,-190.17 465,-142 462.12,-141.58 459.19,-141.12 456.25,-140.63"/>
<polygon fill="midnightblue" stroke="midnightblue" points="1378.82,-206.5 1388.86,-203.11 1378.9,-199.5 1378.82,-206.5"/>
</g>
<!-- Node18 -->
<g id="node10" class="node">
<title>Node18</title>
<g id="a_node10"><a xlink:href="single__path__symex__only__checker_8h.html" target="_top" xlink:title=" ">
<polygon fill="none" stroke="red" points="474,-89.5 474,-141.5 674,-141.5 674,-89.5 474,-89.5"/>
<text text-anchor="start" x="482" y="-129.5" font-family="Helvetica,sans-Serif" font-size="10.00">/home/runner/work/cbmc</text>
<text text-anchor="start" x="482" y="-118.5" font-family="Helvetica,sans-Serif" font-size="10.00">&#45;documentation/cbmc&#45;documentation</text>
<text text-anchor="start" x="482" y="-107.5" font-family="Helvetica,sans-Serif" font-size="10.00">/src/goto&#45;checker/single_path</text>
<text text-anchor="middle" x="574" y="-96.5" font-family="Helvetica,sans-Serif" font-size="10.00">_symex_only_checker.h</text>
</a>
</g>
</g>
<!-- Node6&#45;&gt;Node18 -->
<g id="edge10" class="edge">
<title>Node6&#45;&gt;Node18</title>
<path fill="none" stroke="midnightblue" d="M1378.89,-200.04C1223.97,-194.04 933.15,-178.64 688,-142 683.49,-141.33 678.89,-140.57 674.25,-139.76"/>
<polygon fill="midnightblue" stroke="midnightblue" points="1378.77,-203.54 1388.9,-200.42 1379.04,-196.55 1378.77,-203.54"/>
</g>
<!-- Node23 -->
<g id="node11" class="node">
<title>Node23</title>
<g id="a_node11"><a xlink:href="single__path__symex__only__checker_8cpp.html" target="_top" xlink:title=" ">
<polygon fill="none" stroke="black" points="506,-0.5 506,-52.5 706,-52.5 706,-0.5 506,-0.5"/>
<text text-anchor="start" x="514" y="-40.5" font-family="Helvetica,sans-Serif" font-size="10.00">/home/runner/work/cbmc</text>
<text text-anchor="start" x="514" y="-29.5" font-family="Helvetica,sans-Serif" font-size="10.00">&#45;documentation/cbmc&#45;documentation</text>
<text text-anchor="start" x="514" y="-18.5" font-family="Helvetica,sans-Serif" font-size="10.00">/src/goto&#45;checker/single_path</text>
<text text-anchor="middle" x="606" y="-7.5" font-family="Helvetica,sans-Serif" font-size="10.00">_symex_only_checker.cpp</text>
</a>
</g>
</g>
<!-- Node6&#45;&gt;Node23 -->
<g id="edge14" class="edge">
<title>Node6&#45;&gt;Node23</title>
<path fill="none" stroke="midnightblue" d="M1378.45,-199.77C1179.55,-192.32 776.8,-173.53 721,-142 695.77,-127.74 702.96,-110.02 683,-89 670.51,-75.85 655.17,-63.04 641.47,-52.55"/>
<polygon fill="midnightblue" stroke="midnightblue" points="1378.51,-203.28 1388.63,-200.15 1378.77,-196.28 1378.51,-203.28"/>
</g>
<!-- Node25 -->
<g id="node12" class="node">
<title>Node25</title>
<g id="a_node12"><a xlink:href="scratch__program_8h.html" target="_top" xlink:title=" ">
<polygon fill="none" stroke="red" points="730,-89.5 730,-141.5 930,-141.5 930,-89.5 730,-89.5"/>
<text text-anchor="start" x="738" y="-129.5" font-family="Helvetica,sans-Serif" font-size="10.00">/home/runner/work/cbmc</text>
<text text-anchor="start" x="738" y="-118.5" font-family="Helvetica,sans-Serif" font-size="10.00">&#45;documentation/cbmc&#45;documentation</text>
<text text-anchor="start" x="738" y="-107.5" font-family="Helvetica,sans-Serif" font-size="10.00">/src/goto&#45;instrument/accelerate</text>
<text text-anchor="middle" x="830" y="-96.5" font-family="Helvetica,sans-Serif" font-size="10.00">/scratch_program.h</text>
</a>
</g>
</g>
<!-- Node6&#45;&gt;Node25 -->
<g id="edge15" class="edge">
<title>Node6&#45;&gt;Node25</title>
<path fill="none" stroke="midnightblue" d="M1378.65,-195.03C1267.21,-185.57 1090.39,-168.08 939,-142 936.13,-141.51 933.22,-140.98 930.28,-140.43"/>
<polygon fill="midnightblue" stroke="midnightblue" points="1378.63,-198.54 1388.89,-195.89 1379.22,-191.57 1378.63,-198.54"/>
</g>
<!-- Node32 -->
<g id="node13" class="node">
<title>Node32</title>
<g id="a_node13"><a xlink:href="path__storage_8cpp.html" target="_top" xlink:title=" ">
<polygon fill="none" stroke="black" points="948,-95 948,-136 1148,-136 1148,-95 948,-95"/>
<text text-anchor="start" x="956" y="-124" font-family="Helvetica,sans-Serif" font-size="10.00">/home/runner/work/cbmc</text>
<text text-anchor="start" x="956" y="-113" font-family="Helvetica,sans-Serif" font-size="10.00">&#45;documentation/cbmc&#45;documentation</text>
<text text-anchor="middle" x="1048" y="-102" font-family="Helvetica,sans-Serif" font-size="10.00">/src/goto&#45;symex/path_storage.cpp</text>
</a>
</g>
</g>
<!-- Node6&#45;&gt;Node32 -->
<g id="edge16" class="edge">
<title>Node6&#45;&gt;Node32</title>
<path fill="none" stroke="midnightblue" d="M1378.66,-184.39C1313.93,-172.85 1230.66,-157.43 1157,-142 1148.15,-140.15 1138.93,-138.13 1129.75,-136.06"/>
<polygon fill="midnightblue" stroke="midnightblue" points="1378.42,-187.9 1388.88,-186.21 1379.65,-181.01 1378.42,-187.9"/>
</g>
<!-- Node33 -->
<g id="node14" class="node">
<title>Node33</title>
<g id="a_node14"><a xlink:href="symex__builtin__functions_8cpp.html" target="_top" xlink:title=" ">
<polygon fill="none" stroke="black" points="1166,-89.5 1166,-141.5 1366,-141.5 1366,-89.5 1166,-89.5"/>
<text text-anchor="start" x="1174" y="-129.5" font-family="Helvetica,sans-Serif" font-size="10.00">/home/runner/work/cbmc</text>
<text text-anchor="start" x="1174" y="-118.5" font-family="Helvetica,sans-Serif" font-size="10.00">&#45;documentation/cbmc&#45;documentation</text>
<text text-anchor="start" x="1174" y="-107.5" font-family="Helvetica,sans-Serif" font-size="10.00">/src/goto&#45;symex/symex_builtin</text>
<text text-anchor="middle" x="1266" y="-96.5" font-family="Helvetica,sans-Serif" font-size="10.00">_functions.cpp</text>
</a>
</g>
</g>
<!-- Node6&#45;&gt;Node33 -->
<g id="edge17" class="edge">
<title>Node6&#45;&gt;Node33</title>
<path fill="none" stroke="midnightblue" d="M1429.28,-180.2C1398.72,-168.28 1361.49,-153.75 1330.3,-141.58"/>
<polygon fill="midnightblue" stroke="midnightblue" points="1428.37,-183.6 1438.95,-183.98 1430.91,-177.08 1428.37,-183.6"/>
</g>
<!-- Node34 -->
<g id="node15" class="node">
<title>Node34</title>
<g id="a_node15"><a xlink:href="symex__clean__expr_8cpp.html" target="_top" xlink:title=" ">
<polygon fill="none" stroke="black" points="1384.5,-95 1384.5,-136 1593.5,-136 1593.5,-95 1384.5,-95"/>
<text text-anchor="start" x="1392.5" y="-124" font-family="Helvetica,sans-Serif" font-size="10.00">/home/runner/work/cbmc</text>
<text text-anchor="start" x="1392.5" y="-113" font-family="Helvetica,sans-Serif" font-size="10.00">&#45;documentation/cbmc&#45;documentation</text>
<text text-anchor="middle" x="1489" y="-102" font-family="Helvetica,sans-Serif" font-size="10.00">/src/goto&#45;symex/symex_clean_expr.cpp</text>
</a>
</g>
</g>
<!-- Node6&#45;&gt;Node34 -->
<g id="edge18" class="edge">
<title>Node6&#45;&gt;Node34</title>
<path fill="none" stroke="midnightblue" d="M1489,-173.44C1489,-161.1 1489,-147.16 1489,-136.16"/>
<polygon fill="midnightblue" stroke="midnightblue" points="1485.5,-173.76 1489,-183.76 1492.5,-173.76 1485.5,-173.76"/>
</g>
<!-- Node35 -->
<g id="node16" class="node">
<title>Node35</title>
<g id="a_node16"><a xlink:href="symex__decl_8cpp.html" target="_top" xlink:title=" ">
<polygon fill="none" stroke="black" points="1612,-95 1612,-136 1812,-136 1812,-95 1612,-95"/>
<text text-anchor="start" x="1620" y="-124" font-family="Helvetica,sans-Serif" font-size="10.00">/home/runner/work/cbmc</text>
<text text-anchor="start" x="1620" y="-113" font-family="Helvetica,sans-Serif" font-size="10.00">&#45;documentation/cbmc&#45;documentation</text>
<text text-anchor="middle" x="1712" y="-102" font-family="Helvetica,sans-Serif" font-size="10.00">/src/goto&#45;symex/symex_decl.cpp</text>
</a>
</g>
</g>
<!-- Node6&#45;&gt;Node35 -->
<g id="edge19" class="edge">
<title>Node6&#45;&gt;Node35</title>
<path fill="none" stroke="midnightblue" d="M1548.75,-180.19C1584.05,-166.42 1628.24,-149.18 1661.74,-136.11"/>
<polygon fill="midnightblue" stroke="midnightblue" points="1547.09,-177.08 1539.05,-183.98 1549.63,-183.6 1547.09,-177.08"/>
</g>
<!-- Node36 -->
<g id="node17" class="node">
<title>Node36</title>
<g id="a_node17"><a xlink:href="symex__dereference_8cpp.html" target="_top" xlink:title=" ">
<polygon fill="none" stroke="black" points="1830.5,-95 1830.5,-136 2045.5,-136 2045.5,-95 1830.5,-95"/>
<text text-anchor="start" x="1838.5" y="-124" font-family="Helvetica,sans-Serif" font-size="10.00">/home/runner/work/cbmc</text>
<text text-anchor="start" x="1838.5" y="-113" font-family="Helvetica,sans-Serif" font-size="10.00">&#45;documentation/cbmc&#45;documentation</text>
<text text-anchor="middle" x="1938" y="-102" font-family="Helvetica,sans-Serif" font-size="10.00">/src/goto&#45;symex/symex_dereference.cpp</text>
</a>
</g>
</g>
<!-- Node6&#45;&gt;Node36 -->
<g id="edge20" class="edge">
<title>Node6&#45;&gt;Node36</title>
<path fill="none" stroke="midnightblue" d="M1599.26,-183.97C1663.95,-172.29 1747.23,-156.87 1821,-142 1830.37,-140.11 1840.16,-138.08 1849.9,-136.01"/>
<polygon fill="midnightblue" stroke="midnightblue" points="1598.26,-180.6 1589.04,-185.81 1599.5,-187.49 1598.26,-180.6"/>
</g>
<!-- Node37 -->
<g id="node18" class="node">
<title>Node37</title>
<g id="a_node18"><a xlink:href="symex__function__call_8cpp.html" target="_top" xlink:title=" ">
<polygon fill="none" stroke="black" points="2063.5,-95 2063.5,-136 2282.5,-136 2282.5,-95 2063.5,-95"/>
<text text-anchor="start" x="2071.5" y="-124" font-family="Helvetica,sans-Serif" font-size="10.00">/home/runner/work/cbmc</text>
<text text-anchor="start" x="2071.5" y="-113" font-family="Helvetica,sans-Serif" font-size="10.00">&#45;documentation/cbmc&#45;documentation</text>
<text text-anchor="middle" x="2173" y="-102" font-family="Helvetica,sans-Serif" font-size="10.00">/src/goto&#45;symex/symex_function_call.cpp</text>
</a>
</g>
</g>
<!-- Node6&#45;&gt;Node37 -->
<g id="edge21" class="edge">
<title>Node6&#45;&gt;Node37</title>
<path fill="none" stroke="midnightblue" d="M1599.33,-194.87C1713.54,-185.14 1896.91,-167.31 2054,-142 2064.74,-140.27 2075.98,-138.2 2087.08,-136.01"/>
<polygon fill="midnightblue" stroke="midnightblue" points="1598.85,-191.39 1589.18,-195.72 1599.44,-198.37 1598.85,-191.39"/>
</g>
<!-- Node38 -->
<g id="node19" class="node">
<title>Node38</title>
<g id="a_node19"><a xlink:href="symex__goto_8cpp.html" target="_top" xlink:title=" ">
<polygon fill="none" stroke="black" points="2301,-95 2301,-136 2501,-136 2501,-95 2301,-95"/>
<text text-anchor="start" x="2309" y="-124" font-family="Helvetica,sans-Serif" font-size="10.00">/home/runner/work/cbmc</text>
<text text-anchor="start" x="2309" y="-113" font-family="Helvetica,sans-Serif" font-size="10.00">&#45;documentation/cbmc&#45;documentation</text>
<text text-anchor="middle" x="2401" y="-102" font-family="Helvetica,sans-Serif" font-size="10.00">/src/goto&#45;symex/symex_goto.cpp</text>
</a>
</g>
</g>
<!-- Node6&#45;&gt;Node38 -->
<g id="edge22" class="edge">
<title>Node6&#45;&gt;Node38</title>
<path fill="none" stroke="midnightblue" d="M1599.29,-200.32C1754.45,-194.65 2045.69,-179.62 2291,-142 2301.56,-140.38 2312.61,-138.29 2323.46,-136.01"/>
<polygon fill="midnightblue" stroke="midnightblue" points="1599.13,-196.82 1589.27,-200.68 1599.39,-203.82 1599.13,-196.82"/>
</g>
<!-- Node39 -->
<g id="node20" class="node">
<title>Node39</title>
<g id="a_node20"><a xlink:href="symex__main_8cpp.html" target="_top" xlink:title=" ">
<polygon fill="none" stroke="black" points="2519,-95 2519,-136 2719,-136 2719,-95 2519,-95"/>
<text text-anchor="start" x="2527" y="-124" font-family="Helvetica,sans-Serif" font-size="10.00">/home/runner/work/cbmc</text>
<text text-anchor="start" x="2527" y="-113" font-family="Helvetica,sans-Serif" font-size="10.00">&#45;documentation/cbmc&#45;documentation</text>
<text text-anchor="middle" x="2619" y="-102" font-family="Helvetica,sans-Serif" font-size="10.00">/src/goto&#45;symex/symex_main.cpp</text>
</a>
</g>
</g>
<!-- Node6&#45;&gt;Node39 -->
<g id="edge23" class="edge">
<title>Node6&#45;&gt;Node39</title>
<path fill="none" stroke="midnightblue" d="M1599.38,-202.97C1787.32,-200.7 2181.09,-190.02 2510,-142 2520.67,-140.44 2531.84,-138.36 2542.79,-136.06"/>
<polygon fill="midnightblue" stroke="midnightblue" points="1599.17,-199.47 1589.21,-203.08 1599.25,-206.47 1599.17,-199.47"/>
</g>
<!-- Node40 -->
<g id="node21" class="node">
<title>Node40</title>
<g id="a_node21"><a xlink:href="symex__start__thread_8cpp.html" target="_top" xlink:title=" ">
<polygon fill="none" stroke="black" points="2737,-95 2737,-136 2953,-136 2953,-95 2737,-95"/>
<text text-anchor="start" x="2745" y="-124" font-family="Helvetica,sans-Serif" font-size="10.00">/home/runner/work/cbmc</text>
<text text-anchor="start" x="2745" y="-113" font-family="Helvetica,sans-Serif" font-size="10.00">&#45;documentation/cbmc&#45;documentation</text>
<text text-anchor="middle" x="2845" y="-102" font-family="Helvetica,sans-Serif" font-size="10.00">/src/goto&#45;symex/symex_start_thread.cpp</text>
</a>
</g>
</g>
<!-- Node6&#45;&gt;Node40 -->
<g id="edge24" class="edge">
<title>Node6&#45;&gt;Node40</title>
<path fill="none" stroke="midnightblue" d="M1599.2,-204.11C1816.25,-203.97 2313.99,-197.01 2728,-142 2739.64,-140.45 2751.85,-138.35 2763.8,-136"/>
<polygon fill="midnightblue" stroke="midnightblue" points="1599.08,-200.61 1589.08,-204.11 1599.08,-207.61 1599.08,-200.61"/>
</g>
<!-- Node13 -->
<g id="node22" class="node">
<title>Node13</title>
<g id="a_node22"><a xlink:href="jbmc__parse__options_8cpp.html" target="_top" xlink:title=" ">
<polygon fill="none" stroke="black" points="2971.5,-95 2971.5,-136 3180.5,-136 3180.5,-95 2971.5,-95"/>
<text text-anchor="start" x="2979.5" y="-124" font-family="Helvetica,sans-Serif" font-size="10.00">/home/runner/work/cbmc</text>
<text text-anchor="start" x="2979.5" y="-113" font-family="Helvetica,sans-Serif" font-size="10.00">&#45;documentation/cbmc&#45;documentation</text>
<text text-anchor="middle" x="3076" y="-102" font-family="Helvetica,sans-Serif" font-size="10.00">/jbmc/src/jbmc/jbmc_parse_options.cpp</text>
</a>
</g>
</g>
<!-- Node6&#45;&gt;Node13 -->
<g id="edge25" class="edge">
<title>Node6&#45;&gt;Node13</title>
<path fill="none" stroke="midnightblue" d="M1599.32,-201.44C1894.68,-195.53 2698.75,-176.66 2962,-142 2973.46,-140.49 2985.47,-138.39 2997.21,-136.04"/>
<polygon fill="midnightblue" stroke="midnightblue" points="1598.96,-197.95 1589.03,-201.65 1599.1,-204.95 1598.96,-197.95"/>
</g>
<!-- Node7&#45;&gt;Node9 -->
<g id="edge7" class="edge">
<title>Node7&#45;&gt;Node9</title>
<path fill="none" stroke="midnightblue" d="M173.99,-85.76C206.61,-73.09 244.1,-58.53 273.45,-47.13"/>
<polygon fill="midnightblue" stroke="midnightblue" points="172.54,-82.57 164.49,-89.45 175.08,-89.09 172.54,-82.57"/>
</g>
<!-- Node16&#45;&gt;Node9 -->
<g id="edge9" class="edge">
<title>Node16&#45;&gt;Node9</title>
<path fill="none" stroke="midnightblue" d="M343.25,-79.83C339.15,-68.69 334.76,-56.74 331.2,-47.08"/>
<polygon fill="midnightblue" stroke="midnightblue" points="340.01,-81.16 346.74,-89.34 346.58,-78.74 340.01,-81.16"/>
</g>
<!-- Node18&#45;&gt;Node9 -->
<g id="edge11" class="edge">
<title>Node18&#45;&gt;Node9</title>
<path fill="none" stroke="midnightblue" d="M492.35,-86.09C455.74,-73.34 413.45,-58.63 380.42,-47.13"/>
<polygon fill="midnightblue" stroke="midnightblue" points="491.43,-89.47 502.03,-89.45 493.73,-82.86 491.43,-89.47"/>
</g>
<!-- Node18&#45;&gt;Node23 -->
<g id="edge12" class="edge">
<title>Node18&#45;&gt;Node23</title>
<path fill="none" stroke="midnightblue" d="M586.77,-79.77C590.11,-70.69 593.65,-61.08 596.77,-52.61"/>
<polygon fill="midnightblue" stroke="midnightblue" points="583.42,-78.74 583.26,-89.34 589.99,-81.16 583.42,-78.74"/>
</g>
<!-- Node42 -->
<g id="node24" class="node">
<title>Node42</title>
<g id="a_node24"><a xlink:href="complexity__limiter_8h.html" target="_top" xlink:title=" ">
<polygon fill="none" stroke="red" points="3199,-95 3199,-136 3399,-136 3399,-95 3199,-95"/>
<text text-anchor="start" x="3207" y="-124" font-family="Helvetica,sans-Serif" font-size="10.00">/home/runner/work/cbmc</text>
<text text-anchor="start" x="3207" y="-113" font-family="Helvetica,sans-Serif" font-size="10.00">&#45;documentation/cbmc&#45;documentation</text>
<text text-anchor="middle" x="3299" y="-102" font-family="Helvetica,sans-Serif" font-size="10.00">/src/goto&#45;symex/complexity_limiter.h</text>
</a>
</g>
</g>
<!-- Node41&#45;&gt;Node42 -->
<g id="edge27" class="edge">
<title>Node41&#45;&gt;Node42</title>
<path fill="none" stroke="midnightblue" d="M3299,-168.16C3299,-157.21 3299,-145.55 3299,-136.08"/>
<polygon fill="midnightblue" stroke="midnightblue" points="3295.5,-168.34 3299,-178.34 3302.5,-168.34 3295.5,-168.34"/>
</g>
<!-- Node42&#45;&gt;Node60 -->
<g id="edge28" class="edge">
<title>Node42&#45;&gt;Node60</title>
<path fill="none" stroke="midnightblue" d="M3319.48,-86.67C3328.94,-73.8 3339.95,-58.83 3348.53,-47.16"/>
<polygon fill="midnightblue" stroke="midnightblue" points="3316.63,-84.63 3313.52,-94.76 3322.27,-88.78 3316.63,-84.63"/>
</g>
<!-- Node68 -->
<g id="node33" class="node">
<title>Node68</title>
<g id="a_node33"><a xlink:href="value__set__analysis_8h.html" target="_top" xlink:title=" ">
<polygon fill="none" stroke="black" points="4048,-445.5 4048,-497.5 4248,-497.5 4248,-445.5 4048,-445.5"/>
<text text-anchor="start" x="4056" y="-485.5" font-family="Helvetica,sans-Serif" font-size="10.00">/home/runner/work/cbmc</text>
<text text-anchor="start" x="4056" y="-474.5" font-family="Helvetica,sans-Serif" font-size="10.00">&#45;documentation/cbmc&#45;documentation</text>
<text text-anchor="start" x="4056" y="-463.5" font-family="Helvetica,sans-Serif" font-size="10.00">/src/pointer&#45;analysis/value_set</text>
<text text-anchor="middle" x="4148" y="-452.5" font-family="Helvetica,sans-Serif" font-size="10.00">_analysis.h</text>
</a>
</g>
</g>
<!-- Node67&#45;&gt;Node68 -->
<g id="edge39" class="edge">
<title>Node67&#45;&gt;Node68</title>
<path fill="none" stroke="midnightblue" d="M4142.3,-524.12C4143.26,-515.41 4144.3,-505.99 4145.23,-497.61"/>
<polygon fill="midnightblue" stroke="midnightblue" points="4138.8,-523.95 4141.18,-534.27 4145.76,-524.72 4138.8,-523.95"/>
</g>
<!-- Node69 -->
<g id="node34" class="node">
<title>Node69</title>
<g id="a_node34"><a xlink:href="show__value__sets_8h.html" target="_top" xlink:title=" ">
<polygon fill="none" stroke="black" points="4042.5,-362 4042.5,-403 4253.5,-403 4253.5,-362 4042.5,-362"/>
<text text-anchor="start" x="4050.5" y="-391" font-family="Helvetica,sans-Serif" font-size="10.00">/home/runner/work/cbmc</text>
<text text-anchor="start" x="4050.5" y="-380" font-family="Helvetica,sans-Serif" font-size="10.00">&#45;documentation/cbmc&#45;documentation</text>
<text text-anchor="middle" x="4148" y="-369" font-family="Helvetica,sans-Serif" font-size="10.00">/src/pointer&#45;analysis/show_value_sets.h</text>
</a>
</g>
</g>
<!-- Node68&#45;&gt;Node69 -->
<g id="edge40" class="edge">
<title>Node68&#45;&gt;Node69</title>
<path fill="none" stroke="midnightblue" d="M4148,-435.16C4148,-424.21 4148,-412.55 4148,-403.08"/>
<polygon fill="midnightblue" stroke="midnightblue" points="4144.5,-435.34 4148,-445.34 4151.5,-435.34 4144.5,-435.34"/>
</g>
<!-- Node70 -->
<g id="node35" class="node">
<title>Node70</title>
<g id="a_node35"><a xlink:href="goto__instrument__parse__options_8cpp.html" target="_top" xlink:title=" ">
<polygon fill="none" stroke="black" points="3953,-267.5 3953,-319.5 4153,-319.5 4153,-267.5 3953,-267.5"/>
<text text-anchor="start" x="3961" y="-307.5" font-family="Helvetica,sans-Serif" font-size="10.00">/home/runner/work/cbmc</text>
<text text-anchor="start" x="3961" y="-296.5" font-family="Helvetica,sans-Serif" font-size="10.00">&#45;documentation/cbmc&#45;documentation</text>
<text text-anchor="start" x="3961" y="-285.5" font-family="Helvetica,sans-Serif" font-size="10.00">/src/goto&#45;instrument/goto_instrument</text>
<text text-anchor="middle" x="4053" y="-274.5" font-family="Helvetica,sans-Serif" font-size="10.00">_parse_options.cpp</text>
</a>
</g>
</g>
<!-- Node68&#45;&gt;Node70 -->
<g id="edge43" class="edge">
<title>Node68&#45;&gt;Node70</title>
<path fill="none" stroke="midnightblue" d="M4065.06,-440C4052.66,-431.82 4041.54,-421.63 4034,-409 4017.58,-381.49 4028.89,-343.98 4039.81,-319.51"/>
<polygon fill="midnightblue" stroke="midnightblue" points="4063.45,-443.11 4073.81,-445.34 4067.1,-437.14 4063.45,-443.11"/>
</g>
<!-- Node71 -->
<g id="node36" class="node">
<title>Node71</title>
<g id="a_node36"><a xlink:href="show__value__sets_8cpp.html" target="_top" xlink:title=" ">
<polygon fill="none" stroke="black" points="4171,-273 4171,-314 4393,-314 4393,-273 4171,-273"/>
<text text-anchor="start" x="4179" y="-302" font-family="Helvetica,sans-Serif" font-size="10.00">/home/runner/work/cbmc</text>
<text text-anchor="start" x="4179" y="-291" font-family="Helvetica,sans-Serif" font-size="10.00">&#45;documentation/cbmc&#45;documentation</text>
<text text-anchor="middle" x="4282" y="-280" font-family="Helvetica,sans-Serif" font-size="10.00">/src/pointer&#45;analysis/show_value_sets.cpp</text>
</a>
</g>
</g>
<!-- Node68&#45;&gt;Node71 -->
<g id="edge44" class="edge">
<title>Node68&#45;&gt;Node71</title>
<path fill="none" stroke="midnightblue" d="M4227.92,-440.28C4241.38,-431.99 4253.91,-421.68 4263,-409 4283.2,-380.83 4284.83,-338.83 4283.73,-314.3"/>
<polygon fill="midnightblue" stroke="midnightblue" points="4225.88,-437.42 4218.97,-445.45 4229.38,-443.48 4225.88,-437.42"/>
</g>
<!-- Node72 -->
<g id="node37" class="node">
<title>Node72</title>
<g id="a_node37"><a xlink:href="value__set__analysis_8cpp.html" target="_top" xlink:title=" ">
<polygon fill="none" stroke="black" points="4310,-356.5 4310,-408.5 4510,-408.5 4510,-356.5 4310,-356.5"/>
<text text-anchor="start" x="4318" y="-396.5" font-family="Helvetica,sans-Serif" font-size="10.00">/home/runner/work/cbmc</text>
<text text-anchor="start" x="4318" y="-385.5" font-family="Helvetica,sans-Serif" font-size="10.00">&#45;documentation/cbmc&#45;documentation</text>
<text text-anchor="start" x="4318" y="-374.5" font-family="Helvetica,sans-Serif" font-size="10.00">/src/pointer&#45;analysis/value_set</text>
<text text-anchor="middle" x="4410" y="-363.5" font-family="Helvetica,sans-Serif" font-size="10.00">_analysis.cpp</text>
</a>
</g>
</g>
<!-- Node68&#45;&gt;Node72 -->
<g id="edge45" class="edge">
<title>Node68&#45;&gt;Node72</title>
<path fill="none" stroke="midnightblue" d="M4232.99,-442.28C4265.74,-431.4 4302.87,-419.07 4334.65,-408.52"/>
<polygon fill="midnightblue" stroke="midnightblue" points="4231.82,-438.98 4223.43,-445.45 4234.02,-445.62 4231.82,-438.98"/>
</g>
<!-- Node69&#45;&gt;Node70 -->
<g id="edge41" class="edge">
<title>Node69&#45;&gt;Node70</title>
<path fill="none" stroke="midnightblue" d="M4118.77,-354.73C4106.62,-343.6 4092.59,-330.75 4080.61,-319.79"/>
<polygon fill="midnightblue" stroke="midnightblue" points="4116.7,-357.59 4126.44,-361.76 4121.43,-352.42 4116.7,-357.59"/>
</g>
<!-- Node69&#45;&gt;Node71 -->
<g id="edge42" class="edge">
<title>Node69&#45;&gt;Node71</title>
<path fill="none" stroke="midnightblue" d="M4186.62,-356.43C4207.26,-343.02 4232.32,-326.76 4251.56,-314.26"/>
<polygon fill="midnightblue" stroke="midnightblue" points="4184.55,-353.59 4178.07,-361.98 4188.37,-359.47 4184.55,-353.59"/>
</g>
</g>
</svg>
