<?xml version="1.0" encoding="UTF-8" standalone="no"?>
<!DOCTYPE svg PUBLIC "-//W3C//DTD SVG 1.1//EN"
 "http://www.w3.org/Graphics/SVG/1.1/DTD/svg11.dtd">
<!-- Generated by graphviz version 2.43.0 (0)
 -->
<!-- Title: /home/runner/work/cbmc&#45;documentation/cbmc&#45;documentation/src/analyses/variable&#45;sensitivity/value_set_abstract_object.h Pages: 1 -->
<svg width="867pt" height="239pt"
 viewBox="0.00 0.00 867.00 239.00" xmlns="http://www.w3.org/2000/svg" xmlns:xlink="http://www.w3.org/1999/xlink">
<g id="graph0" class="graph" transform="scale(1 1) rotate(0) translate(4 235)">
<title>/home/runner/work/cbmc&#45;documentation/cbmc&#45;documentation/src/analyses/variable&#45;sensitivity/value_set_abstract_object.h</title>
<!-- Node1 -->
<g id="node1" class="node">
<title>Node1</title>
<g id="a_node1"><a xlink:title=" ">
<polygon fill="#bfbfbf" stroke="black" points="218,-178.5 218,-230.5 418,-230.5 418,-178.5 218,-178.5"/>
<text text-anchor="start" x="226" y="-218.5" font-family="Helvetica,sans-Serif" font-size="10.00">/home/runner/work/cbmc</text>
<text text-anchor="start" x="226" y="-207.5" font-family="Helvetica,sans-Serif" font-size="10.00">&#45;documentation/cbmc&#45;documentation</text>
<text text-anchor="start" x="226" y="-196.5" font-family="Helvetica,sans-Serif" font-size="10.00">/src/analyses/variable&#45;sensitivity</text>
<text text-anchor="middle" x="318" y="-185.5" font-family="Helvetica,sans-Serif" font-size="10.00">/value_set_abstract_object.h</text>
</a>
</g>
</g>
<!-- Node2 -->
<g id="node2" class="node">
<title>Node2</title>
<g id="a_node2"><a xlink:href="abstract__value__object_8cpp.html" target="_top" xlink:title=" ">
<polygon fill="none" stroke="black" points="0,-89.5 0,-141.5 200,-141.5 200,-89.5 0,-89.5"/>
<text text-anchor="start" x="8" y="-129.5" font-family="Helvetica,sans-Serif" font-size="10.00">/home/runner/work/cbmc</text>
<text text-anchor="start" x="8" y="-118.5" font-family="Helvetica,sans-Serif" font-size="10.00">&#45;documentation/cbmc&#45;documentation</text>
<text text-anchor="start" x="8" y="-107.5" font-family="Helvetica,sans-Serif" font-size="10.00">/src/analyses/variable&#45;sensitivity</text>
<text text-anchor="middle" x="100" y="-96.5" font-family="Helvetica,sans-Serif" font-size="10.00">/abstract_value_object.cpp</text>
</a>
</g>
</g>
<!-- Node1&#45;&gt;Node2 -->
<g id="edge1" class="edge">
<title>Node1&#45;&gt;Node2</title>
<path fill="none" stroke="midnightblue" d="M245.88,-174.72C218.98,-163.98 188.68,-151.89 162.7,-141.52"/>
<polygon fill="midnightblue" stroke="midnightblue" points="244.65,-178 255.24,-178.45 247.25,-171.5 244.65,-178"/>
</g>
<!-- Node3 -->
<g id="node3" class="node">
<title>Node3</title>
<g id="a_node3"><a xlink:href="value__set__abstract__object_8cpp.html" target="_top" xlink:title=" ">
<polygon fill="none" stroke="black" points="218,-89.5 218,-141.5 418,-141.5 418,-89.5 218,-89.5"/>
<text text-anchor="start" x="226" y="-129.5" font-family="Helvetica,sans-Serif" font-size="10.00">/home/runner/work/cbmc</text>
<text text-anchor="start" x="226" y="-118.5" font-family="Helvetica,sans-Serif" font-size="10.00">&#45;documentation/cbmc&#45;documentation</text>
<text text-anchor="start" x="226" y="-107.5" font-family="Helvetica,sans-Serif" font-size="10.00">/src/analyses/variable&#45;sensitivity</text>
<text text-anchor="middle" x="318" y="-96.5" font-family="Helvetica,sans-Serif" font-size="10.00">/value_set_abstract_object.cpp</text>
</a>
</g>
</g>
<!-- Node1&#45;&gt;Node3 -->
<g id="edge2" class="edge">
<title>Node1&#45;&gt;Node3</title>
<path fill="none" stroke="midnightblue" d="M318,-168.19C318,-159.28 318,-149.9 318,-141.61"/>
<polygon fill="midnightblue" stroke="midnightblue" points="314.5,-168.34 318,-178.34 321.5,-168.34 314.5,-168.34"/>
</g>
<!-- Node4 -->
<g id="node4" class="node">
<title>Node4</title>
<g id="a_node4"><a xlink:href="variable__sensitivity__object__factory_8h.html" target="_top" xlink:title=" ">
<polygon fill="none" stroke="black" points="436,-89.5 436,-141.5 636,-141.5 636,-89.5 436,-89.5"/>
<text text-anchor="start" x="444" y="-129.5" font-family="Helvetica,sans-Serif" font-size="10.00">/home/runner/work/cbmc</text>
<text text-anchor="start" x="444" y="-118.5" font-family="Helvetica,sans-Serif" font-size="10.00">&#45;documentation/cbmc&#45;documentation</text>
<text text-anchor="start" x="444" y="-107.5" font-family="Helvetica,sans-Serif" font-size="10.00">/src/analyses/variable&#45;sensitivity</text>
<text text-anchor="middle" x="536" y="-96.5" font-family="Helvetica,sans-Serif" font-size="10.00">/variable_sensitivity_object_factory.h</text>
</a>
</g>
</g>
<!-- Node1&#45;&gt;Node4 -->
<g id="edge3" class="edge">
<title>Node1&#45;&gt;Node4</title>
<path fill="none" stroke="midnightblue" d="M390.12,-174.72C417.02,-163.98 447.32,-151.89 473.3,-141.52"/>
<polygon fill="midnightblue" stroke="midnightblue" points="388.75,-171.5 380.76,-178.45 391.35,-178 388.75,-171.5"/>
</g>
<!-- Node5 -->
<g id="node5" class="node">
<title>Node5</title>
<g id="a_node5"><a xlink:href="abstract__environment_8cpp.html" target="_top" xlink:title=" ">
<polygon fill="none" stroke="black" points="213,-0.5 213,-52.5 413,-52.5 413,-0.5 213,-0.5"/>
<text text-anchor="start" x="221" y="-40.5" font-family="Helvetica,sans-Serif" font-size="10.00">/home/runner/work/cbmc</text>
<text text-anchor="start" x="221" y="-29.5" font-family="Helvetica,sans-Serif" font-size="10.00">&#45;documentation/cbmc&#45;documentation</text>
<text text-anchor="start" x="221" y="-18.5" font-family="Helvetica,sans-Serif" font-size="10.00">/src/analyses/variable&#45;sensitivity</text>
<text text-anchor="middle" x="313" y="-7.5" font-family="Helvetica,sans-Serif" font-size="10.00">/abstract_environment.cpp</text>
</a>
</g>
</g>
<!-- Node4&#45;&gt;Node5 -->
<g id="edge4" class="edge">
<title>Node4&#45;&gt;Node5</title>
<path fill="none" stroke="midnightblue" d="M462.22,-85.72C434.71,-74.98 403.71,-62.89 377.13,-52.52"/>
<polygon fill="midnightblue" stroke="midnightblue" points="461.21,-89.08 471.8,-89.45 463.75,-82.56 461.21,-89.08"/>
</g>
<!-- Node6 -->
<g id="node6" class="node">
<title>Node6</title>
<g id="a_node6"><a xlink:href="variable__sensitivity__object__factory_8cpp.html" target="_top" xlink:title=" ">
<polygon fill="none" stroke="black" points="431.5,-0.5 431.5,-52.5 640.5,-52.5 640.5,-0.5 431.5,-0.5"/>
<text text-anchor="start" x="439.5" y="-40.5" font-family="Helvetica,sans-Serif" font-size="10.00">/home/runner/work/cbmc</text>
<text text-anchor="start" x="439.5" y="-29.5" font-family="Helvetica,sans-Serif" font-size="10.00">&#45;documentation/cbmc&#45;documentation</text>
<text text-anchor="start" x="439.5" y="-18.5" font-family="Helvetica,sans-Serif" font-size="10.00">/src/analyses/variable&#45;sensitivity</text>
<text text-anchor="middle" x="536" y="-7.5" font-family="Helvetica,sans-Serif" font-size="10.00">/variable_sensitivity_object_factory.cpp</text>
</a>
</g>
</g>
<!-- Node4&#45;&gt;Node6 -->
<g id="edge5" class="edge">
<title>Node4&#45;&gt;Node6</title>
<path fill="none" stroke="midnightblue" d="M536,-79.19C536,-70.28 536,-60.9 536,-52.61"/>
<polygon fill="midnightblue" stroke="midnightblue" points="532.5,-79.34 536,-89.34 539.5,-79.34 532.5,-79.34"/>
</g>
<!-- Node7 -->
<g id="node7" class="node">
<title>Node7</title>
<g id="a_node7"><a xlink:href="build__analyzer_8cpp.html" target="_top" xlink:title=" ">
<polygon fill="none" stroke="black" points="659,-6 659,-47 859,-47 859,-6 659,-6"/>
<text text-anchor="start" x="667" y="-35" font-family="Helvetica,sans-Serif" font-size="10.00">/home/runner/work/cbmc</text>
<text text-anchor="start" x="667" y="-24" font-family="Helvetica,sans-Serif" font-size="10.00">&#45;documentation/cbmc&#45;documentation</text>
<text text-anchor="middle" x="759" y="-13" font-family="Helvetica,sans-Serif" font-size="10.00">/src/goto&#45;analyzer/build_analyzer.cpp</text>
</a>
</g>
</g>
<!-- Node4&#45;&gt;Node7 -->
<g id="edge6" class="edge">
<title>Node4&#45;&gt;Node7</title>
<path fill="none" stroke="midnightblue" d="M609.66,-85.76C642.13,-73.09 679.46,-58.53 708.67,-47.13"/>
<polygon fill="midnightblue" stroke="midnightblue" points="608.25,-82.56 600.2,-89.45 610.79,-89.08 608.25,-82.56"/>
</g>
</g>
</svg>
