<?xml version="1.0" encoding="UTF-8" standalone="no"?>
<!DOCTYPE svg PUBLIC "-//W3C//DTD SVG 1.1//EN"
 "http://www.w3.org/Graphics/SVG/1.1/DTD/svg11.dtd">
<!-- Generated by graphviz version 2.43.0 (0)
 -->
<!-- Title: /home/runner/work/cbmc&#45;documentation/cbmc&#45;documentation/src/pointer&#45;analysis/value_set_domain_fi.h Pages: 1 -->
<svg width="646pt" height="239pt"
 viewBox="0.00 0.00 646.00 239.00" xmlns="http://www.w3.org/2000/svg" xmlns:xlink="http://www.w3.org/1999/xlink">
<g id="graph0" class="graph" transform="scale(1 1) rotate(0) translate(4 235)">
<title>/home/runner/work/cbmc&#45;documentation/cbmc&#45;documentation/src/pointer&#45;analysis/value_set_domain_fi.h</title>
<!-- Node1 -->
<g id="node1" class="node">
<title>Node1</title>
<g id="a_node1"><a xlink:title=" ">
<polygon fill="#bfbfbf" stroke="black" points="329,-178.5 329,-230.5 529,-230.5 529,-178.5 329,-178.5"/>
<text text-anchor="start" x="337" y="-218.5" font-family="Helvetica,sans-Serif" font-size="10.00">/home/runner/work/cbmc</text>
<text text-anchor="start" x="337" y="-207.5" font-family="Helvetica,sans-Serif" font-size="10.00">&#45;documentation/cbmc&#45;documentation</text>
<text text-anchor="start" x="337" y="-196.5" font-family="Helvetica,sans-Serif" font-size="10.00">/src/pointer&#45;analysis/value_set</text>
<text text-anchor="middle" x="429" y="-185.5" font-family="Helvetica,sans-Serif" font-size="10.00">_domain_fi.h</text>
</a>
</g>
</g>
<!-- Node2 -->
<g id="node2" class="node">
<title>Node2</title>
<g id="a_node2"><a xlink:href="value__set__analysis__fi_8h.html" target="_top" xlink:title=" ">
<polygon fill="none" stroke="black" points="220,-89.5 220,-141.5 420,-141.5 420,-89.5 220,-89.5"/>
<text text-anchor="start" x="228" y="-129.5" font-family="Helvetica,sans-Serif" font-size="10.00">/home/runner/work/cbmc</text>
<text text-anchor="start" x="228" y="-118.5" font-family="Helvetica,sans-Serif" font-size="10.00">&#45;documentation/cbmc&#45;documentation</text>
<text text-anchor="start" x="228" y="-107.5" font-family="Helvetica,sans-Serif" font-size="10.00">/src/pointer&#45;analysis/value_set</text>
<text text-anchor="middle" x="320" y="-96.5" font-family="Helvetica,sans-Serif" font-size="10.00">_analysis_fi.h</text>
</a>
</g>
</g>
<!-- Node1&#45;&gt;Node2 -->
<g id="edge1" class="edge">
<title>Node1&#45;&gt;Node2</title>
<path fill="none" stroke="midnightblue" d="M389.45,-171.93C376.95,-161.96 363.31,-151.07 351.46,-141.61"/>
<polygon fill="midnightblue" stroke="midnightblue" points="387.47,-174.83 397.47,-178.34 391.84,-169.36 387.47,-174.83"/>
</g>
<!-- Node6 -->
<g id="node6" class="node">
<title>Node6</title>
<g id="a_node6"><a xlink:href="value__set__domain__fi_8cpp.html" target="_top" xlink:title=" ">
<polygon fill="none" stroke="black" points="438,-89.5 438,-141.5 638,-141.5 638,-89.5 438,-89.5"/>
<text text-anchor="start" x="446" y="-129.5" font-family="Helvetica,sans-Serif" font-size="10.00">/home/runner/work/cbmc</text>
<text text-anchor="start" x="446" y="-118.5" font-family="Helvetica,sans-Serif" font-size="10.00">&#45;documentation/cbmc&#45;documentation</text>
<text text-anchor="start" x="446" y="-107.5" font-family="Helvetica,sans-Serif" font-size="10.00">/src/pointer&#45;analysis/value_set</text>
<text text-anchor="middle" x="538" y="-96.5" font-family="Helvetica,sans-Serif" font-size="10.00">_domain_fi.cpp</text>
</a>
</g>
</g>
<!-- Node1&#45;&gt;Node6 -->
<g id="edge5" class="edge">
<title>Node1&#45;&gt;Node6</title>
<path fill="none" stroke="midnightblue" d="M468.55,-171.93C481.05,-161.96 494.69,-151.07 506.54,-141.61"/>
<polygon fill="midnightblue" stroke="midnightblue" points="466.16,-169.36 460.53,-178.34 470.53,-174.83 466.16,-169.36"/>
</g>
<!-- Node3 -->
<g id="node3" class="node">
<title>Node3</title>
<g id="a_node3"><a xlink:href="reaching__definitions_8cpp.html" target="_top" xlink:title=" ">
<polygon fill="none" stroke="black" points="0,-6 0,-47 202,-47 202,-6 0,-6"/>
<text text-anchor="start" x="8" y="-35" font-family="Helvetica,sans-Serif" font-size="10.00">/home/runner/work/cbmc</text>
<text text-anchor="start" x="8" y="-24" font-family="Helvetica,sans-Serif" font-size="10.00">&#45;documentation/cbmc&#45;documentation</text>
<text text-anchor="middle" x="101" y="-13" font-family="Helvetica,sans-Serif" font-size="10.00">/src/analyses/reaching_definitions.cpp</text>
</a>
</g>
</g>
<!-- Node2&#45;&gt;Node3 -->
<g id="edge2" class="edge">
<title>Node2&#45;&gt;Node3</title>
<path fill="none" stroke="midnightblue" d="M247.25,-85.6C215.46,-72.97 178.99,-58.48 150.42,-47.13"/>
<polygon fill="midnightblue" stroke="midnightblue" points="246.36,-89.01 256.95,-89.45 248.95,-82.51 246.36,-89.01"/>
</g>
<!-- Node4 -->
<g id="node4" class="node">
<title>Node4</title>
<g id="a_node4"><a xlink:href="value__set__fi__fp__removal_8cpp.html" target="_top" xlink:title=" ">
<polygon fill="none" stroke="black" points="220,-0.5 220,-52.5 420,-52.5 420,-0.5 220,-0.5"/>
<text text-anchor="start" x="228" y="-40.5" font-family="Helvetica,sans-Serif" font-size="10.00">/home/runner/work/cbmc</text>
<text text-anchor="start" x="228" y="-29.5" font-family="Helvetica,sans-Serif" font-size="10.00">&#45;documentation/cbmc&#45;documentation</text>
<text text-anchor="start" x="228" y="-18.5" font-family="Helvetica,sans-Serif" font-size="10.00">/src/goto&#45;instrument/value_set</text>
<text text-anchor="middle" x="320" y="-7.5" font-family="Helvetica,sans-Serif" font-size="10.00">_fi_fp_removal.cpp</text>
</a>
</g>
</g>
<!-- Node2&#45;&gt;Node4 -->
<g id="edge3" class="edge">
<title>Node2&#45;&gt;Node4</title>
<path fill="none" stroke="midnightblue" d="M320,-79.19C320,-70.28 320,-60.9 320,-52.61"/>
<polygon fill="midnightblue" stroke="midnightblue" points="316.5,-79.34 320,-89.34 323.5,-79.34 316.5,-79.34"/>
</g>
<!-- Node5 -->
<g id="node5" class="node">
<title>Node5</title>
<g id="a_node5"><a xlink:href="value__set__analysis__fi_8cpp.html" target="_top" xlink:title=" ">
<polygon fill="none" stroke="black" points="438,-0.5 438,-52.5 638,-52.5 638,-0.5 438,-0.5"/>
<text text-anchor="start" x="446" y="-40.5" font-family="Helvetica,sans-Serif" font-size="10.00">/home/runner/work/cbmc</text>
<text text-anchor="start" x="446" y="-29.5" font-family="Helvetica,sans-Serif" font-size="10.00">&#45;documentation/cbmc&#45;documentation</text>
<text text-anchor="start" x="446" y="-18.5" font-family="Helvetica,sans-Serif" font-size="10.00">/src/pointer&#45;analysis/value_set</text>
<text text-anchor="middle" x="538" y="-7.5" font-family="Helvetica,sans-Serif" font-size="10.00">_analysis_fi.cpp</text>
</a>
</g>
</g>
<!-- Node2&#45;&gt;Node5 -->
<g id="edge4" class="edge">
<title>Node2&#45;&gt;Node5</title>
<path fill="none" stroke="midnightblue" d="M392.12,-85.72C419.02,-74.98 449.32,-62.89 475.3,-52.52"/>
<polygon fill="midnightblue" stroke="midnightblue" points="390.75,-82.5 382.76,-89.45 393.35,-89 390.75,-82.5"/>
</g>
</g>
</svg>
