<?xml version="1.0" encoding="UTF-8" standalone="no"?>
<!DOCTYPE svg PUBLIC "-//W3C//DTD SVG 1.1//EN"
 "http://www.w3.org/Graphics/SVG/1.1/DTD/svg11.dtd">
<!-- Generated by graphviz version 2.43.0 (0)
 -->
<!-- Title: /home/runner/work/cbmc&#45;documentation/cbmc&#45;documentation/src/goto&#45;instrument/wmm/wmm.h Pages: 1 -->
<svg width="1796pt" height="406pt"
 viewBox="0.00 0.00 1796.11 406.00" xmlns="http://www.w3.org/2000/svg" xmlns:xlink="http://www.w3.org/1999/xlink">
<g id="graph0" class="graph" transform="scale(1 1) rotate(0) translate(4 402)">
<title>/home/runner/work/cbmc&#45;documentation/cbmc&#45;documentation/src/goto&#45;instrument/wmm/wmm.h</title>
<!-- Node1 -->
<g id="node1" class="node">
<title>Node1</title>
<g id="a_node1"><a xlink:title=" ">
<polygon fill="#bfbfbf" stroke="black" points="908,-356.5 908,-397.5 1108,-397.5 1108,-356.5 908,-356.5"/>
<text text-anchor="start" x="916" y="-385.5" font-family="Helvetica,sans-Serif" font-size="10.00">/home/runner/work/cbmc</text>
<text text-anchor="start" x="916" y="-374.5" font-family="Helvetica,sans-Serif" font-size="10.00">&#45;documentation/cbmc&#45;documentation</text>
<text text-anchor="middle" x="1008" y="-363.5" font-family="Helvetica,sans-Serif" font-size="10.00">/src/goto&#45;instrument/wmm/wmm.h</text>
</a>
</g>
</g>
<!-- Node2 -->
<g id="node2" class="node">
<title>Node2</title>
<g id="a_node2"><a xlink:href="weak__memory_8h.html" target="_top" xlink:title=" ">
<polygon fill="none" stroke="black" points="532,-273 532,-314 762,-314 762,-273 532,-273"/>
<text text-anchor="start" x="540" y="-302" font-family="Helvetica,sans-Serif" font-size="10.00">/home/runner/work/cbmc</text>
<text text-anchor="start" x="540" y="-291" font-family="Helvetica,sans-Serif" font-size="10.00">&#45;documentation/cbmc&#45;documentation</text>
<text text-anchor="middle" x="647" y="-280" font-family="Helvetica,sans-Serif" font-size="10.00">/src/goto&#45;instrument/wmm/weak_memory.h</text>
</a>
</g>
</g>
<!-- Node1&#45;&gt;Node2 -->
<g id="edge1" class="edge">
<title>Node1&#45;&gt;Node2</title>
<path fill="none" stroke="midnightblue" d="M911.69,-354.26C856.23,-341.74 787.09,-326.13 733.39,-314"/>
<polygon fill="midnightblue" stroke="midnightblue" points="911.01,-357.69 921.53,-356.48 912.55,-350.86 911.01,-357.69"/>
</g>
<!-- Node8 -->
<g id="node8" class="node">
<title>Node8</title>
<g id="a_node8"><a xlink:href="abstract__event_8h.html" target="_top" xlink:title=" ">
<polygon fill="none" stroke="black" points="1142.5,-273 1142.5,-314 1373.5,-314 1373.5,-273 1142.5,-273"/>
<text text-anchor="start" x="1150.5" y="-302" font-family="Helvetica,sans-Serif" font-size="10.00">/home/runner/work/cbmc</text>
<text text-anchor="start" x="1150.5" y="-291" font-family="Helvetica,sans-Serif" font-size="10.00">&#45;documentation/cbmc&#45;documentation</text>
<text text-anchor="middle" x="1258" y="-280" font-family="Helvetica,sans-Serif" font-size="10.00">/src/goto&#45;instrument/wmm/abstract_event.h</text>
</a>
</g>
</g>
<!-- Node1&#45;&gt;Node8 -->
<g id="edge7" class="edge">
<title>Node1&#45;&gt;Node8</title>
<path fill="none" stroke="midnightblue" d="M1077.82,-353.24C1115.67,-340.9 1161.98,-325.8 1198.17,-314"/>
<polygon fill="midnightblue" stroke="midnightblue" points="1076.3,-350.05 1067.88,-356.48 1078.47,-356.71 1076.3,-350.05"/>
</g>
<!-- Node10 -->
<g id="node10" class="node">
<title>Node10</title>
<g id="a_node10"><a xlink:href="event__graph_8h.html" target="_top" xlink:title=" ">
<polygon fill="none" stroke="black" points="1482.5,-184 1482.5,-225 1701.5,-225 1701.5,-184 1482.5,-184"/>
<text text-anchor="start" x="1490.5" y="-213" font-family="Helvetica,sans-Serif" font-size="10.00">/home/runner/work/cbmc</text>
<text text-anchor="start" x="1490.5" y="-202" font-family="Helvetica,sans-Serif" font-size="10.00">&#45;documentation/cbmc&#45;documentation</text>
<text text-anchor="middle" x="1592" y="-191" font-family="Helvetica,sans-Serif" font-size="10.00">/src/goto&#45;instrument/wmm/event_graph.h</text>
</a>
</g>
</g>
<!-- Node1&#45;&gt;Node10 -->
<g id="edge20" class="edge">
<title>Node1&#45;&gt;Node10</title>
<path fill="none" stroke="midnightblue" d="M1118.22,-369.79C1194.23,-363.05 1296.73,-349.04 1383,-320 1452.21,-296.7 1525.33,-251.1 1564.07,-225.03"/>
<polygon fill="midnightblue" stroke="midnightblue" points="1117.81,-366.31 1108.14,-370.65 1118.41,-373.29 1117.81,-366.31"/>
</g>
<!-- Node13 -->
<g id="node13" class="node">
<title>Node13</title>
<g id="a_node13"><a xlink:href="goto2graph_8h.html" target="_top" xlink:title=" ">
<polygon fill="none" stroke="black" points="901,-95 901,-136 1115,-136 1115,-95 901,-95"/>
<text text-anchor="start" x="909" y="-124" font-family="Helvetica,sans-Serif" font-size="10.00">/home/runner/work/cbmc</text>
<text text-anchor="start" x="909" y="-113" font-family="Helvetica,sans-Serif" font-size="10.00">&#45;documentation/cbmc&#45;documentation</text>
<text text-anchor="middle" x="1008" y="-102" font-family="Helvetica,sans-Serif" font-size="10.00">/src/goto&#45;instrument/wmm/goto2graph.h</text>
</a>
</g>
</g>
<!-- Node1&#45;&gt;Node13 -->
<g id="edge21" class="edge">
<title>Node1&#45;&gt;Node13</title>
<path fill="none" stroke="midnightblue" d="M1008,-346.29C1008,-292.75 1008,-181.44 1008,-136.23"/>
<polygon fill="midnightblue" stroke="midnightblue" points="1004.5,-346.5 1008,-356.5 1011.5,-346.5 1004.5,-346.5"/>
</g>
<!-- Node19 -->
<g id="node19" class="node">
<title>Node19</title>
<g id="a_node19"><a xlink:href="shared__buffers_8h.html" target="_top" xlink:title=" ">
<polygon fill="none" stroke="black" points="780,-267.5 780,-319.5 980,-319.5 980,-267.5 780,-267.5"/>
<text text-anchor="start" x="788" y="-307.5" font-family="Helvetica,sans-Serif" font-size="10.00">/home/runner/work/cbmc</text>
<text text-anchor="start" x="788" y="-296.5" font-family="Helvetica,sans-Serif" font-size="10.00">&#45;documentation/cbmc&#45;documentation</text>
<text text-anchor="start" x="788" y="-285.5" font-family="Helvetica,sans-Serif" font-size="10.00">/src/goto&#45;instrument/wmm/shared</text>
<text text-anchor="middle" x="880" y="-274.5" font-family="Helvetica,sans-Serif" font-size="10.00">_buffers.h</text>
</a>
</g>
</g>
<!-- Node1&#45;&gt;Node19 -->
<g id="edge22" class="edge">
<title>Node1&#45;&gt;Node19</title>
<path fill="none" stroke="midnightblue" d="M968.49,-350.84C952.96,-340.96 935.16,-329.62 919.62,-319.73"/>
<polygon fill="midnightblue" stroke="midnightblue" points="967.03,-354.06 977.34,-356.48 970.79,-348.16 967.03,-354.06"/>
</g>
<!-- Node3 -->
<g id="node3" class="node">
<title>Node3</title>
<g id="a_node3"><a xlink:href="goto__instrument__parse__options_8h.html" target="_top" xlink:title=" ">
<polygon fill="none" stroke="black" points="340,-178.5 340,-230.5 540,-230.5 540,-178.5 340,-178.5"/>
<text text-anchor="start" x="348" y="-218.5" font-family="Helvetica,sans-Serif" font-size="10.00">/home/runner/work/cbmc</text>
<text text-anchor="start" x="348" y="-207.5" font-family="Helvetica,sans-Serif" font-size="10.00">&#45;documentation/cbmc&#45;documentation</text>
<text text-anchor="start" x="348" y="-196.5" font-family="Helvetica,sans-Serif" font-size="10.00">/src/goto&#45;instrument/goto_instrument</text>
<text text-anchor="middle" x="440" y="-185.5" font-family="Helvetica,sans-Serif" font-size="10.00">_parse_options.h</text>
</a>
</g>
</g>
<!-- Node2&#45;&gt;Node3 -->
<g id="edge2" class="edge">
<title>Node2&#45;&gt;Node3</title>
<path fill="none" stroke="midnightblue" d="M591.2,-269.05C562.9,-257.15 528.51,-242.7 499.68,-230.58"/>
<polygon fill="midnightblue" stroke="midnightblue" points="589.97,-272.33 600.55,-272.98 592.68,-265.87 589.97,-272.33"/>
</g>
<!-- Node7 -->
<g id="node7" class="node">
<title>Node7</title>
<g id="a_node7"><a xlink:href="weak__memory_8cpp.html" target="_top" xlink:title=" ">
<polygon fill="none" stroke="black" points="652,-0.5 652,-52.5 852,-52.5 852,-0.5 652,-0.5"/>
<text text-anchor="start" x="660" y="-40.5" font-family="Helvetica,sans-Serif" font-size="10.00">/home/runner/work/cbmc</text>
<text text-anchor="start" x="660" y="-29.5" font-family="Helvetica,sans-Serif" font-size="10.00">&#45;documentation/cbmc&#45;documentation</text>
<text text-anchor="start" x="660" y="-18.5" font-family="Helvetica,sans-Serif" font-size="10.00">/src/goto&#45;instrument/wmm/weak</text>
<text text-anchor="middle" x="752" y="-7.5" font-family="Helvetica,sans-Serif" font-size="10.00">_memory.cpp</text>
</a>
</g>
</g>
<!-- Node2&#45;&gt;Node7 -->
<g id="edge6" class="edge">
<title>Node2&#45;&gt;Node7</title>
<path fill="none" stroke="midnightblue" d="M658.62,-263.18C679.39,-210.75 722.56,-101.81 742.06,-52.6"/>
<polygon fill="midnightblue" stroke="midnightblue" points="655.32,-262 654.89,-272.58 661.83,-264.57 655.32,-262"/>
</g>
<!-- Node4 -->
<g id="node4" class="node">
<title>Node4</title>
<g id="a_node4"><a xlink:href="goto__instrument__languages_8cpp.html" target="_top" xlink:title=" ">
<polygon fill="none" stroke="black" points="218,-89.5 218,-141.5 418,-141.5 418,-89.5 218,-89.5"/>
<text text-anchor="start" x="226" y="-129.5" font-family="Helvetica,sans-Serif" font-size="10.00">/home/runner/work/cbmc</text>
<text text-anchor="start" x="226" y="-118.5" font-family="Helvetica,sans-Serif" font-size="10.00">&#45;documentation/cbmc&#45;documentation</text>
<text text-anchor="start" x="226" y="-107.5" font-family="Helvetica,sans-Serif" font-size="10.00">/src/goto&#45;instrument/goto_instrument</text>
<text text-anchor="middle" x="318" y="-96.5" font-family="Helvetica,sans-Serif" font-size="10.00">_languages.cpp</text>
</a>
</g>
</g>
<!-- Node3&#45;&gt;Node4 -->
<g id="edge3" class="edge">
<title>Node3&#45;&gt;Node4</title>
<path fill="none" stroke="midnightblue" d="M396.53,-172.5C382.33,-162.37 366.73,-151.25 353.21,-141.61"/>
<polygon fill="midnightblue" stroke="midnightblue" points="394.54,-175.38 404.71,-178.34 398.6,-169.68 394.54,-175.38"/>
</g>
<!-- Node5 -->
<g id="node5" class="node">
<title>Node5</title>
<g id="a_node5"><a xlink:href="goto__instrument__main_8cpp.html" target="_top" xlink:title=" ">
<polygon fill="none" stroke="black" points="436.5,-95 436.5,-136 685.5,-136 685.5,-95 436.5,-95"/>
<text text-anchor="start" x="444.5" y="-124" font-family="Helvetica,sans-Serif" font-size="10.00">/home/runner/work/cbmc</text>
<text text-anchor="start" x="444.5" y="-113" font-family="Helvetica,sans-Serif" font-size="10.00">&#45;documentation/cbmc&#45;documentation</text>
<text text-anchor="middle" x="561" y="-102" font-family="Helvetica,sans-Serif" font-size="10.00">/src/goto&#45;instrument/goto_instrument_main.cpp</text>
</a>
</g>
</g>
<!-- Node3&#45;&gt;Node5 -->
<g id="edge4" class="edge">
<title>Node3&#45;&gt;Node5</title>
<path fill="none" stroke="midnightblue" d="M483.56,-172.18C500.32,-160.13 518.97,-146.72 533.77,-136.08"/>
<polygon fill="midnightblue" stroke="midnightblue" points="481.07,-169.66 475,-178.34 485.16,-175.34 481.07,-169.66"/>
</g>
<!-- Node6 -->
<g id="node6" class="node">
<title>Node6</title>
<g id="a_node6"><a xlink:href="goto__instrument__parse__options_8cpp.html" target="_top" xlink:title=" ">
<polygon fill="none" stroke="black" points="0,-89.5 0,-141.5 200,-141.5 200,-89.5 0,-89.5"/>
<text text-anchor="start" x="8" y="-129.5" font-family="Helvetica,sans-Serif" font-size="10.00">/home/runner/work/cbmc</text>
<text text-anchor="start" x="8" y="-118.5" font-family="Helvetica,sans-Serif" font-size="10.00">&#45;documentation/cbmc&#45;documentation</text>
<text text-anchor="start" x="8" y="-107.5" font-family="Helvetica,sans-Serif" font-size="10.00">/src/goto&#45;instrument/goto_instrument</text>
<text text-anchor="middle" x="100" y="-96.5" font-family="Helvetica,sans-Serif" font-size="10.00">_parse_options.cpp</text>
</a>
</g>
</g>
<!-- Node3&#45;&gt;Node6 -->
<g id="edge5" class="edge">
<title>Node3&#45;&gt;Node6</title>
<path fill="none" stroke="midnightblue" d="M332.16,-175.91C289.08,-164.88 239.81,-152.28 197.78,-141.52"/>
<polygon fill="midnightblue" stroke="midnightblue" points="331.56,-179.36 342.11,-178.45 333.29,-172.58 331.56,-179.36"/>
</g>
<!-- Node9 -->
<g id="node9" class="node">
<title>Node9</title>
<g id="a_node9"><a xlink:href="abstract__event_8cpp.html" target="_top" xlink:title=" ">
<polygon fill="none" stroke="black" points="1264,-178.5 1264,-230.5 1464,-230.5 1464,-178.5 1264,-178.5"/>
<text text-anchor="start" x="1272" y="-218.5" font-family="Helvetica,sans-Serif" font-size="10.00">/home/runner/work/cbmc</text>
<text text-anchor="start" x="1272" y="-207.5" font-family="Helvetica,sans-Serif" font-size="10.00">&#45;documentation/cbmc&#45;documentation</text>
<text text-anchor="start" x="1272" y="-196.5" font-family="Helvetica,sans-Serif" font-size="10.00">/src/goto&#45;instrument/wmm/abstract</text>
<text text-anchor="middle" x="1364" y="-185.5" font-family="Helvetica,sans-Serif" font-size="10.00">_event.cpp</text>
</a>
</g>
</g>
<!-- Node8&#45;&gt;Node9 -->
<g id="edge8" class="edge">
<title>Node8&#45;&gt;Node9</title>
<path fill="none" stroke="midnightblue" d="M1289.64,-266.53C1303.5,-255.15 1319.7,-241.86 1333.44,-230.58"/>
<polygon fill="midnightblue" stroke="midnightblue" points="1287.3,-263.93 1281.79,-272.98 1291.74,-269.34 1287.3,-263.93"/>
</g>
<!-- Node8&#45;&gt;Node10 -->
<g id="edge9" class="edge">
<title>Node8&#45;&gt;Node10</title>
<path fill="none" stroke="midnightblue" d="M1342.8,-270.41C1396.5,-256.42 1465.3,-238.5 1517.01,-225.03"/>
<polygon fill="midnightblue" stroke="midnightblue" points="1341.75,-267.07 1332.96,-272.98 1343.52,-273.84 1341.75,-267.07"/>
</g>
<!-- Node18 -->
<g id="node18" class="node">
<title>Node18</title>
<g id="a_node18"><a xlink:href="data__dp_8cpp.html" target="_top" xlink:title=" ">
<polygon fill="none" stroke="black" points="1036.5,-184 1036.5,-225 1245.5,-225 1245.5,-184 1036.5,-184"/>
<text text-anchor="start" x="1044.5" y="-213" font-family="Helvetica,sans-Serif" font-size="10.00">/home/runner/work/cbmc</text>
<text text-anchor="start" x="1044.5" y="-202" font-family="Helvetica,sans-Serif" font-size="10.00">&#45;documentation/cbmc&#45;documentation</text>
<text text-anchor="middle" x="1141" y="-191" font-family="Helvetica,sans-Serif" font-size="10.00">/src/goto&#45;instrument/wmm/data_dp.cpp</text>
</a>
</g>
</g>
<!-- Node8&#45;&gt;Node18 -->
<g id="edge19" class="edge">
<title>Node8&#45;&gt;Node18</title>
<path fill="none" stroke="midnightblue" d="M1223.31,-266.71C1205.48,-253.44 1184.08,-237.53 1167.57,-225.26"/>
<polygon fill="midnightblue" stroke="midnightblue" points="1221.63,-269.82 1231.74,-272.98 1225.81,-264.2 1221.63,-269.82"/>
</g>
<!-- Node11 -->
<g id="node11" class="node">
<title>Node11</title>
<g id="a_node11"><a xlink:href="cycle__collection_8cpp.html" target="_top" xlink:title=" ">
<polygon fill="none" stroke="black" points="1351,-89.5 1351,-141.5 1551,-141.5 1551,-89.5 1351,-89.5"/>
<text text-anchor="start" x="1359" y="-129.5" font-family="Helvetica,sans-Serif" font-size="10.00">/home/runner/work/cbmc</text>
<text text-anchor="start" x="1359" y="-118.5" font-family="Helvetica,sans-Serif" font-size="10.00">&#45;documentation/cbmc&#45;documentation</text>
<text text-anchor="start" x="1359" y="-107.5" font-family="Helvetica,sans-Serif" font-size="10.00">/src/goto&#45;instrument/wmm/cycle</text>
<text text-anchor="middle" x="1451" y="-96.5" font-family="Helvetica,sans-Serif" font-size="10.00">_collection.cpp</text>
</a>
</g>
</g>
<!-- Node10&#45;&gt;Node11 -->
<g id="edge10" class="edge">
<title>Node10&#45;&gt;Node11</title>
<path fill="none" stroke="midnightblue" d="M1551.71,-178.64C1532.89,-167.03 1510.52,-153.23 1491.65,-141.58"/>
<polygon fill="midnightblue" stroke="midnightblue" points="1550.01,-181.7 1560.36,-183.98 1553.68,-175.75 1550.01,-181.7"/>
</g>
<!-- Node12 -->
<g id="node12" class="node">
<title>Node12</title>
<g id="a_node12"><a xlink:href="event__graph_8cpp.html" target="_top" xlink:title=" ">
<polygon fill="none" stroke="black" points="1569,-89.5 1569,-141.5 1769,-141.5 1769,-89.5 1569,-89.5"/>
<text text-anchor="start" x="1577" y="-129.5" font-family="Helvetica,sans-Serif" font-size="10.00">/home/runner/work/cbmc</text>
<text text-anchor="start" x="1577" y="-118.5" font-family="Helvetica,sans-Serif" font-size="10.00">&#45;documentation/cbmc&#45;documentation</text>
<text text-anchor="start" x="1577" y="-107.5" font-family="Helvetica,sans-Serif" font-size="10.00">/src/goto&#45;instrument/wmm/event</text>
<text text-anchor="middle" x="1669" y="-96.5" font-family="Helvetica,sans-Serif" font-size="10.00">_graph.cpp</text>
</a>
</g>
</g>
<!-- Node10&#45;&gt;Node12 -->
<g id="edge11" class="edge">
<title>Node10&#45;&gt;Node12</title>
<path fill="none" stroke="midnightblue" d="M1616.26,-176.09C1625.97,-165.12 1637.1,-152.55 1646.62,-141.79"/>
<polygon fill="midnightblue" stroke="midnightblue" points="1613.48,-173.95 1609.47,-183.76 1618.72,-178.59 1613.48,-173.95"/>
</g>
<!-- Node10&#45;&gt;Node13 -->
<g id="edge12" class="edge">
<title>Node10&#45;&gt;Node13</title>
<path fill="none" stroke="midnightblue" d="M1496.18,-182.03C1488.36,-180.56 1480.56,-179.2 1473,-178 1318.98,-153.63 1277.95,-166.78 1124,-142 1113.41,-140.3 1102.34,-138.23 1091.42,-136.03"/>
<polygon fill="midnightblue" stroke="midnightblue" points="1495.6,-185.48 1506.09,-183.94 1496.93,-178.61 1495.6,-185.48"/>
</g>
<!-- Node15 -->
<g id="node15" class="node">
<title>Node15</title>
<g id="a_node15"><a xlink:href="instrumenter__pensieve_8h.html" target="_top" xlink:title=" ">
<polygon fill="none" stroke="black" points="1525,-0.5 1525,-52.5 1737,-52.5 1737,-0.5 1525,-0.5"/>
<text text-anchor="start" x="1533" y="-40.5" font-family="Helvetica,sans-Serif" font-size="10.00">/home/runner/work/cbmc</text>
<text text-anchor="start" x="1533" y="-29.5" font-family="Helvetica,sans-Serif" font-size="10.00">&#45;documentation/cbmc&#45;documentation</text>
<text text-anchor="start" x="1533" y="-18.5" font-family="Helvetica,sans-Serif" font-size="10.00">/src/goto&#45;instrument/wmm/instrumenter</text>
<text text-anchor="middle" x="1631" y="-7.5" font-family="Helvetica,sans-Serif" font-size="10.00">_pensieve.h</text>
</a>
</g>
</g>
<!-- Node10&#45;&gt;Node15 -->
<g id="edge17" class="edge">
<title>Node10&#45;&gt;Node15</title>
<path fill="none" stroke="midnightblue" d="M1711.26,-187.89C1737.29,-178.7 1761.86,-164.34 1778,-142 1791.8,-122.91 1791.05,-108.61 1778,-89 1767.42,-73.11 1751.87,-61.32 1734.79,-52.57"/>
<polygon fill="midnightblue" stroke="midnightblue" points="1710.02,-184.61 1701.61,-191.05 1712.2,-191.27 1710.02,-184.61"/>
</g>
<!-- Node17 -->
<g id="node17" class="node">
<title>Node17</title>
<g id="a_node17"><a xlink:href="pair__collection_8cpp.html" target="_top" xlink:title=" ">
<polygon fill="none" stroke="black" points="1133,-89.5 1133,-141.5 1333,-141.5 1333,-89.5 1133,-89.5"/>
<text text-anchor="start" x="1141" y="-129.5" font-family="Helvetica,sans-Serif" font-size="10.00">/home/runner/work/cbmc</text>
<text text-anchor="start" x="1141" y="-118.5" font-family="Helvetica,sans-Serif" font-size="10.00">&#45;documentation/cbmc&#45;documentation</text>
<text text-anchor="start" x="1141" y="-107.5" font-family="Helvetica,sans-Serif" font-size="10.00">/src/goto&#45;instrument/wmm/pair</text>
<text text-anchor="middle" x="1233" y="-96.5" font-family="Helvetica,sans-Serif" font-size="10.00">_collection.cpp</text>
</a>
</g>
</g>
<!-- Node10&#45;&gt;Node17 -->
<g id="edge18" class="edge">
<title>Node10&#45;&gt;Node17</title>
<path fill="none" stroke="midnightblue" d="M1501.68,-181.61C1450.38,-169.18 1386.04,-153.59 1333.19,-140.78"/>
<polygon fill="midnightblue" stroke="midnightblue" points="1500.89,-185.02 1511.43,-183.98 1502.54,-178.22 1500.89,-185.02"/>
</g>
<!-- Node13&#45;&gt;Node7 -->
<g id="edge16" class="edge">
<title>Node13&#45;&gt;Node7</title>
<path fill="none" stroke="midnightblue" d="M940.81,-91.67C905.47,-79.66 862.08,-64.91 825.81,-52.58"/>
<polygon fill="midnightblue" stroke="midnightblue" points="939.95,-95.07 950.55,-94.98 942.21,-88.44 939.95,-95.07"/>
</g>
<!-- Node14 -->
<g id="node14" class="node">
<title>Node14</title>
<g id="a_node14"><a xlink:href="goto2graph_8cpp.html" target="_top" xlink:title=" ">
<polygon fill="none" stroke="black" points="1116.5,-6 1116.5,-47 1341.5,-47 1341.5,-6 1116.5,-6"/>
<text text-anchor="start" x="1124.5" y="-35" font-family="Helvetica,sans-Serif" font-size="10.00">/home/runner/work/cbmc</text>
<text text-anchor="start" x="1124.5" y="-24" font-family="Helvetica,sans-Serif" font-size="10.00">&#45;documentation/cbmc&#45;documentation</text>
<text text-anchor="middle" x="1229" y="-13" font-family="Helvetica,sans-Serif" font-size="10.00">/src/goto&#45;instrument/wmm/goto2graph.cpp</text>
</a>
</g>
</g>
<!-- Node13&#45;&gt;Node14 -->
<g id="edge13" class="edge">
<title>Node13&#45;&gt;Node14</title>
<path fill="none" stroke="midnightblue" d="M1067.21,-91.19C1102.19,-77.42 1145.99,-60.18 1179.19,-47.11"/>
<polygon fill="midnightblue" stroke="midnightblue" points="1065.62,-88.06 1057.6,-94.98 1068.18,-94.57 1065.62,-88.06"/>
</g>
<!-- Node13&#45;&gt;Node15 -->
<g id="edge14" class="edge">
<title>Node13&#45;&gt;Node15</title>
<path fill="none" stroke="midnightblue" d="M1102.36,-92.97C1109.67,-91.55 1116.94,-90.2 1124,-89 1261.67,-65.57 1421.85,-47.69 1524.73,-37.4"/>
<polygon fill="midnightblue" stroke="midnightblue" points="1101.51,-89.57 1092.39,-94.96 1102.89,-96.44 1101.51,-89.57"/>
</g>
<!-- Node16 -->
<g id="node16" class="node">
<title>Node16</title>
<g id="a_node16"><a xlink:href="instrumenter__strategies_8cpp.html" target="_top" xlink:title=" ">
<polygon fill="none" stroke="black" points="886,-0.5 886,-52.5 1098,-52.5 1098,-0.5 886,-0.5"/>
<text text-anchor="start" x="894" y="-40.5" font-family="Helvetica,sans-Serif" font-size="10.00">/home/runner/work/cbmc</text>
<text text-anchor="start" x="894" y="-29.5" font-family="Helvetica,sans-Serif" font-size="10.00">&#45;documentation/cbmc&#45;documentation</text>
<text text-anchor="start" x="894" y="-18.5" font-family="Helvetica,sans-Serif" font-size="10.00">/src/goto&#45;instrument/wmm/instrumenter</text>
<text text-anchor="middle" x="992" y="-7.5" font-family="Helvetica,sans-Serif" font-size="10.00">_strategies.cpp</text>
</a>
</g>
</g>
<!-- Node13&#45;&gt;Node16 -->
<g id="edge15" class="edge">
<title>Node13&#45;&gt;Node16</title>
<path fill="none" stroke="midnightblue" d="M1002.54,-84.84C1000.63,-74.42 998.49,-62.81 996.65,-52.79"/>
<polygon fill="midnightblue" stroke="midnightblue" points="999.12,-85.56 1004.37,-94.76 1006,-84.29 999.12,-85.56"/>
</g>
<!-- Node19&#45;&gt;Node7 -->
<g id="edge24" class="edge">
<title>Node19&#45;&gt;Node7</title>
<path fill="none" stroke="midnightblue" d="M803.35,-262.01C790.72,-253.74 779.11,-243.52 771,-231 735.2,-175.77 741.3,-93.73 747.38,-52.73"/>
<polygon fill="midnightblue" stroke="midnightblue" points="801.87,-265.21 812.23,-267.42 805.51,-259.23 801.87,-265.21"/>
</g>
<!-- Node20 -->
<g id="node20" class="node">
<title>Node20</title>
<g id="a_node20"><a xlink:href="shared__buffers_8cpp.html" target="_top" xlink:title=" ">
<polygon fill="none" stroke="black" points="780,-178.5 780,-230.5 980,-230.5 980,-178.5 780,-178.5"/>
<text text-anchor="start" x="788" y="-218.5" font-family="Helvetica,sans-Serif" font-size="10.00">/home/runner/work/cbmc</text>
<text text-anchor="start" x="788" y="-207.5" font-family="Helvetica,sans-Serif" font-size="10.00">&#45;documentation/cbmc&#45;documentation</text>
<text text-anchor="start" x="788" y="-196.5" font-family="Helvetica,sans-Serif" font-size="10.00">/src/goto&#45;instrument/wmm/shared</text>
<text text-anchor="middle" x="880" y="-185.5" font-family="Helvetica,sans-Serif" font-size="10.00">_buffers.cpp</text>
</a>
</g>
</g>
<!-- Node19&#45;&gt;Node20 -->
<g id="edge23" class="edge">
<title>Node19&#45;&gt;Node20</title>
<path fill="none" stroke="midnightblue" d="M880,-257.19C880,-248.28 880,-238.9 880,-230.61"/>
<polygon fill="midnightblue" stroke="midnightblue" points="876.5,-257.34 880,-267.34 883.5,-257.34 876.5,-257.34"/>
</g>
</g>
</svg>
