<?xml version="1.0" encoding="UTF-8" standalone="no"?>
<!DOCTYPE svg PUBLIC "-//W3C//DTD SVG 1.1//EN"
 "http://www.w3.org/Graphics/SVG/1.1/DTD/svg11.dtd">
<!-- Generated by graphviz version 2.43.0 (0)
 -->
<!-- Title: /home/runner/work/cbmc&#45;documentation/cbmc&#45;documentation/src/goto&#45;programs/write_goto_binary.h Pages: 1 -->
<svg width="1522pt" height="139pt"
 viewBox="0.00 0.00 1521.50 139.00" xmlns="http://www.w3.org/2000/svg" xmlns:xlink="http://www.w3.org/1999/xlink">
<g id="graph0" class="graph" transform="scale(1 1) rotate(0) translate(4 135)">
<title>/home/runner/work/cbmc&#45;documentation/cbmc&#45;documentation/src/goto&#45;programs/write_goto_binary.h</title>
<!-- Node1 -->
<g id="node1" class="node">
<title>Node1</title>
<g id="a_node1"><a xlink:title=" ">
<polygon fill="#bfbfbf" stroke="black" points="656,-89.5 656,-130.5 863,-130.5 863,-89.5 656,-89.5"/>
<text text-anchor="start" x="664" y="-118.5" font-family="Helvetica,sans-Serif" font-size="10.00">/home/runner/work/cbmc</text>
<text text-anchor="start" x="664" y="-107.5" font-family="Helvetica,sans-Serif" font-size="10.00">&#45;documentation/cbmc&#45;documentation</text>
<text text-anchor="middle" x="759.5" y="-96.5" font-family="Helvetica,sans-Serif" font-size="10.00">/src/goto&#45;programs/write_goto_binary.h</text>
</a>
</g>
</g>
<!-- Node2 -->
<g id="node2" class="node">
<title>Node2</title>
<g id="a_node2"><a xlink:href="static__simplifier_8cpp.html" target="_top" xlink:title=" ">
<polygon fill="none" stroke="black" points="0,-6 0,-47 205,-47 205,-6 0,-6"/>
<text text-anchor="start" x="8" y="-35" font-family="Helvetica,sans-Serif" font-size="10.00">/home/runner/work/cbmc</text>
<text text-anchor="start" x="8" y="-24" font-family="Helvetica,sans-Serif" font-size="10.00">&#45;documentation/cbmc&#45;documentation</text>
<text text-anchor="middle" x="102.5" y="-13" font-family="Helvetica,sans-Serif" font-size="10.00">/src/goto&#45;analyzer/static_simplifier.cpp</text>
</a>
</g>
</g>
<!-- Node1&#45;&gt;Node2 -->
<g id="edge1" class="edge">
<title>Node1&#45;&gt;Node2</title>
<path fill="none" stroke="midnightblue" d="M645.61,-101.35C534.98,-92.96 362.51,-77.36 214.5,-53 204.27,-51.32 193.57,-49.26 183.02,-47.06"/>
<polygon fill="midnightblue" stroke="midnightblue" points="645.56,-104.85 655.79,-102.11 646.08,-97.87 645.56,-104.85"/>
</g>
<!-- Node3 -->
<g id="node3" class="node">
<title>Node3</title>
<g id="a_node3"><a xlink:href="compile_8cpp.html" target="_top" xlink:title=" ">
<polygon fill="none" stroke="black" points="223.5,-6 223.5,-47 423.5,-47 423.5,-6 223.5,-6"/>
<text text-anchor="start" x="231.5" y="-35" font-family="Helvetica,sans-Serif" font-size="10.00">/home/runner/work/cbmc</text>
<text text-anchor="start" x="231.5" y="-24" font-family="Helvetica,sans-Serif" font-size="10.00">&#45;documentation/cbmc&#45;documentation</text>
<text text-anchor="middle" x="323.5" y="-13" font-family="Helvetica,sans-Serif" font-size="10.00">/src/goto&#45;cc/compile.cpp</text>
</a>
</g>
</g>
<!-- Node1&#45;&gt;Node3 -->
<g id="edge2" class="edge">
<title>Node1&#45;&gt;Node3</title>
<path fill="none" stroke="midnightblue" d="M645.78,-91.25C582.76,-80.98 503.1,-67.29 432.5,-53 423.45,-51.17 414.01,-49.14 404.63,-47.05"/>
<polygon fill="midnightblue" stroke="midnightblue" points="645.31,-94.72 655.74,-92.87 646.43,-87.81 645.31,-94.72"/>
</g>
<!-- Node4 -->
<g id="node4" class="node">
<title>Node4</title>
<g id="a_node4"><a xlink:href="goto__harness__parse__options_8cpp.html" target="_top" xlink:title=" ">
<polygon fill="none" stroke="black" points="441.5,-0.5 441.5,-52.5 641.5,-52.5 641.5,-0.5 441.5,-0.5"/>
<text text-anchor="start" x="449.5" y="-40.5" font-family="Helvetica,sans-Serif" font-size="10.00">/home/runner/work/cbmc</text>
<text text-anchor="start" x="449.5" y="-29.5" font-family="Helvetica,sans-Serif" font-size="10.00">&#45;documentation/cbmc&#45;documentation</text>
<text text-anchor="start" x="449.5" y="-18.5" font-family="Helvetica,sans-Serif" font-size="10.00">/src/goto&#45;harness/goto_harness</text>
<text text-anchor="middle" x="541.5" y="-7.5" font-family="Helvetica,sans-Serif" font-size="10.00">_parse_options.cpp</text>
</a>
</g>
</g>
<!-- Node1&#45;&gt;Node4 -->
<g id="edge3" class="edge">
<title>Node1&#45;&gt;Node4</title>
<path fill="none" stroke="midnightblue" d="M697.67,-85.89C669.87,-75.49 636.98,-63.2 608.58,-52.58"/>
<polygon fill="midnightblue" stroke="midnightblue" points="696.69,-89.26 707.28,-89.48 699.14,-82.7 696.69,-89.26"/>
</g>
<!-- Node5 -->
<g id="node5" class="node">
<title>Node5</title>
<g id="a_node5"><a xlink:href="goto__instrument__parse__options_8cpp.html" target="_top" xlink:title=" ">
<polygon fill="none" stroke="black" points="659.5,-0.5 659.5,-52.5 859.5,-52.5 859.5,-0.5 659.5,-0.5"/>
<text text-anchor="start" x="667.5" y="-40.5" font-family="Helvetica,sans-Serif" font-size="10.00">/home/runner/work/cbmc</text>
<text text-anchor="start" x="667.5" y="-29.5" font-family="Helvetica,sans-Serif" font-size="10.00">&#45;documentation/cbmc&#45;documentation</text>
<text text-anchor="start" x="667.5" y="-18.5" font-family="Helvetica,sans-Serif" font-size="10.00">/src/goto&#45;instrument/goto_instrument</text>
<text text-anchor="middle" x="759.5" y="-7.5" font-family="Helvetica,sans-Serif" font-size="10.00">_parse_options.cpp</text>
</a>
</g>
</g>
<!-- Node1&#45;&gt;Node5 -->
<g id="edge4" class="edge">
<title>Node1&#45;&gt;Node5</title>
<path fill="none" stroke="midnightblue" d="M759.5,-79.12C759.5,-70.41 759.5,-60.99 759.5,-52.61"/>
<polygon fill="midnightblue" stroke="midnightblue" points="756,-79.27 759.5,-89.27 763,-79.27 756,-79.27"/>
</g>
<!-- Node6 -->
<g id="node6" class="node">
<title>Node6</title>
<g id="a_node6"><a xlink:href="read__bin__goto__object_8cpp.html" target="_top" xlink:title=" ">
<polygon fill="none" stroke="black" points="877.5,-0.5 877.5,-52.5 1077.5,-52.5 1077.5,-0.5 877.5,-0.5"/>
<text text-anchor="start" x="885.5" y="-40.5" font-family="Helvetica,sans-Serif" font-size="10.00">/home/runner/work/cbmc</text>
<text text-anchor="start" x="885.5" y="-29.5" font-family="Helvetica,sans-Serif" font-size="10.00">&#45;documentation/cbmc&#45;documentation</text>
<text text-anchor="start" x="885.5" y="-18.5" font-family="Helvetica,sans-Serif" font-size="10.00">/src/goto&#45;programs/read_bin_goto</text>
<text text-anchor="middle" x="977.5" y="-7.5" font-family="Helvetica,sans-Serif" font-size="10.00">_object.cpp</text>
</a>
</g>
</g>
<!-- Node1&#45;&gt;Node6 -->
<g id="edge5" class="edge">
<title>Node1&#45;&gt;Node6</title>
<path fill="none" stroke="midnightblue" d="M821.33,-85.89C849.13,-75.49 882.02,-63.2 910.42,-52.58"/>
<polygon fill="midnightblue" stroke="midnightblue" points="819.86,-82.7 811.72,-89.48 822.31,-89.26 819.86,-82.7"/>
</g>
<!-- Node7 -->
<g id="node7" class="node">
<title>Node7</title>
<g id="a_node7"><a xlink:href="write__goto__binary_8cpp.html" target="_top" xlink:title=" ">
<polygon fill="none" stroke="black" points="1095.5,-0.5 1095.5,-52.5 1295.5,-52.5 1295.5,-0.5 1095.5,-0.5"/>
<text text-anchor="start" x="1103.5" y="-40.5" font-family="Helvetica,sans-Serif" font-size="10.00">/home/runner/work/cbmc</text>
<text text-anchor="start" x="1103.5" y="-29.5" font-family="Helvetica,sans-Serif" font-size="10.00">&#45;documentation/cbmc&#45;documentation</text>
<text text-anchor="start" x="1103.5" y="-18.5" font-family="Helvetica,sans-Serif" font-size="10.00">/src/goto&#45;programs/write_goto</text>
<text text-anchor="middle" x="1195.5" y="-7.5" font-family="Helvetica,sans-Serif" font-size="10.00">_binary.cpp</text>
</a>
</g>
</g>
<!-- Node1&#45;&gt;Node7 -->
<g id="edge6" class="edge">
<title>Node1&#45;&gt;Node7</title>
<path fill="none" stroke="midnightblue" d="M873.22,-91.25C936.24,-80.98 1015.9,-67.29 1086.5,-53 1089.45,-52.4 1092.45,-51.78 1095.47,-51.15"/>
<polygon fill="midnightblue" stroke="midnightblue" points="872.57,-87.81 863.26,-92.87 873.69,-94.72 872.57,-87.81"/>
</g>
<!-- Node8 -->
<g id="node8" class="node">
<title>Node8</title>
<g id="a_node8"><a xlink:href="symtab2gb__parse__options_8cpp.html" target="_top" xlink:title=" ">
<polygon fill="none" stroke="black" points="1313.5,-0.5 1313.5,-52.5 1513.5,-52.5 1513.5,-0.5 1313.5,-0.5"/>
<text text-anchor="start" x="1321.5" y="-40.5" font-family="Helvetica,sans-Serif" font-size="10.00">/home/runner/work/cbmc</text>
<text text-anchor="start" x="1321.5" y="-29.5" font-family="Helvetica,sans-Serif" font-size="10.00">&#45;documentation/cbmc&#45;documentation</text>
<text text-anchor="start" x="1321.5" y="-18.5" font-family="Helvetica,sans-Serif" font-size="10.00">/src/symtab2gb/symtab2gb_parse</text>
<text text-anchor="middle" x="1413.5" y="-7.5" font-family="Helvetica,sans-Serif" font-size="10.00">_options.cpp</text>
</a>
</g>
</g>
<!-- Node1&#45;&gt;Node8 -->
<g id="edge7" class="edge">
<title>Node1&#45;&gt;Node8</title>
<path fill="none" stroke="midnightblue" d="M873.42,-101.54C984.07,-93.3 1156.56,-77.8 1304.5,-53 1307.38,-52.52 1310.29,-52 1313.22,-51.47"/>
<polygon fill="midnightblue" stroke="midnightblue" points="872.96,-98.07 863.24,-102.29 873.47,-105.05 872.96,-98.07"/>
</g>
</g>
</svg>
